mtllib ArcadaCompleta.mtl
o 237_1
usemtl D
v -5.170460224151611 -16.79403305053711 -0.0015765816173749045
v -5.117370128631592 -16.794052124023438 0.7938444162751315
v -5.1852498054504395 -14.334632873535156 -0.017654780760895848
v -5.170460224151611 -16.79403305053711 -0.0015765816173749045
v -5.1852498054504395 -14.334632873535156 -0.017654780760895848
v -5.274489879608154 -14.314302444458008 -0.49326558457363806
v -5.170460224151611 -16.79403305053711 -0.0015765816173749045
v -4.980249881744385 -18.814912796020508 -0.0015765816173753534
v -4.944660186767578 -18.814922332763672 0.9937914158249967
v -5.170460224151611 -16.79403305053711 -0.0015765816173749045
v -4.944660186767578 -18.814922332763672 0.9937914158249967
v -5.117370128631592 -16.794052124023438 0.7938444162751315
v -5.170460224151611 -16.79403305053711 -0.0015765816173749045
v -4.984129905700684 -16.794063568115234 -0.730259582862747
v -4.697020053863525 -18.814952850341797 -1.0759805296515352
v -5.170460224151611 -16.79403305053711 -0.0015765816173749045
v -4.697020053863525 -18.814952850341797 -1.0759805296515352
v -4.980249881744385 -18.814912796020508 -0.0015765816173753534
v -4.489439964294434 -20.549583435058594 1.993159427776443
v -3.829200029373169 -20.549652099609375 2.5899394894982444
v -3.8906099796295166 -18.815021514892578 2.189629449977981
v -4.489439964294434 -20.549583435058594 1.993159427776443
v -3.8906099796295166 -18.815021514892578 2.189629449977981
v -4.659279823303223 -18.81494140625 1.7081993962670439
v -4.310929775238037 -20.549592971801758 -1.8019206379507908
v -4.6483001708984375 -20.486312866210938 -0.9398705814932714
v -4.697020053863525 -18.814952850341797 -1.0759805296515352
v -4.784090042114258 -20.275611877441406 -0.0015765816173756776
v -4.719510078430176 -20.486312866210938 0.9367174054528346
v -4.944660186767578 -18.814922332763672 0.9937914158249967
v -4.784090042114258 -20.275611877441406 -0.0015765816173756776
v -4.944660186767578 -18.814922332763672 0.9937914158249967
v -4.980249881744385 -18.814912796020508 -0.0015765816173753534
v -5.117370128631592 -16.794052124023438 0.7938444162751315
v -4.927060127258301 -16.794063568115234 1.1117893601800084
v -5.1852498054504395 -14.334632873535156 -0.017654780760895848
v -4.659279823303223 -18.81494140625 1.7081993962670439
v -4.944660186767578 -18.814922332763672 0.9937914158249967
v -4.719510078430176 -20.486312866210938 0.9367174054528346
v -4.659279823303223 -18.81494140625 1.7081993962670439
v -4.719510078430176 -20.486312866210938 0.9367174054528346
v -4.489439964294434 -20.549583435058594 1.993159427776443
v -4.697020053863525 -18.814952850341797 -1.0759805296515352
v -4.274899959564209 -18.814983367919922 -1.1708305929755098
v -3.735680103302002 -20.549652099609375 -2.3389304731940164
v -4.697020053863525 -18.814952850341797 -1.0759805296515352
v -3.735680103302002 -20.549652099609375 -2.3389304731940164
v -4.310929775238037 -20.549592971801758 -1.8019206379507908
v -4.980249881744385 -18.814912796020508 -0.0015765816173753534
v -4.697020053863525 -18.814952850341797 -1.0759805296515352
v -4.6483001708984375 -20.486312866210938 -0.9398705814932714
v -4.980249881744385 -18.814912796020508 -0.0015765816173753534
v -4.6483001708984375 -20.486312866210938 -0.9398705814932714
v -4.784090042114258 -20.275611877441406 -0.0015765816173756776
v -4.944660186767578 -18.814922332763672 0.9937914158249967
v -4.659279823303223 -18.81494140625 1.7081993962670439
v -4.927060127258301 -16.794063568115234 1.1117893601800084
v -4.944660186767578 -18.814922332763672 0.9937914158249967
v -4.927060127258301 -16.794063568115234 1.1117893601800084
v -5.117370128631592 -16.794052124023438 0.7938444162751315
v -5.274489879608154 -14.314302444458008 -0.49326558457363806
v -5.185279846191406 -14.73972225189209 -0.8501955722426293
v -4.984129905700684 -16.794063568115234 -0.730259582862747
v -5.274489879608154 -14.314302444458008 -0.49326558457363806
v -4.984129905700684 -16.794063568115234 -0.730259582862747
v -5.170460224151611 -16.79403305053711 -0.0015765816173749045
v -4.408339977264404 -16.794113159179688 -0.8754106019591215
v -4.274899959564209 -18.814983367919922 -1.1708305929755098
v -4.697020053863525 -18.814952850341797 -1.0759805296515352
v -4.408339977264404 -16.794113159179688 -0.8754106019591215
v -4.697020053863525 -18.814952850341797 -1.0759805296515352
v -4.984129905700684 -16.794063568115234 -0.730259582862747
v -3.8906099796295166 -18.815021514892578 2.189629449977981
v -3.9875199794769287 -16.794172286987305 1.3971294309044957
v -4.927060127258301 -16.794063568115234 1.1117893601800084
v -3.8906099796295166 -18.815021514892578 2.189629449977981
v -4.927060127258301 -16.794063568115234 1.1117893601800084
v -4.659279823303223 -18.81494140625 1.7081993962670439
v -3.671070098876953 -18.815032958984375 -1.2770405863379366
v -3.735680103302002 -20.549652099609375 -2.3389304731940164
v -4.274899959564209 -18.814983367919922 -1.1708305929755098
v -4.984129905700684 -16.794063568115234 -0.730259582862747
v -5.185279846191406 -14.73972225189209 -0.8501955722426293
v -4.4019999504089355 -15.766912460327148 -0.8628035639380336
v -4.984129905700684 -16.794063568115234 -0.730259582862747
v -4.4019999504089355 -15.766912460327148 -0.8628035639380336
v -4.408339977264404 -16.794113159179688 -0.8754106019591215
v -4.274899959564209 -18.814983367919922 -1.1708305929755098
v -4.408339977264404 -16.794113159179688 -0.8754106019591215
v -3.671070098876953 -18.815032958984375 -1.2770405863379366
v -3.9910199642181396 -15.758792877197266 0.861257388725388
v -5.1852498054504395 -14.334632873535156 -0.017654780760895848
v -4.927060127258301 -16.794063568115234 1.1117893601800084
v -3.9910199642181396 -15.758792877197266 0.861257388725388
v -4.927060127258301 -16.794063568115234 1.1117893601800084
v -3.9875199794769287 -16.794172286987305 1.3971294309044957
vt 0.5 0.7377380132675171
vt 0.6316459774971008 0.7377369999885559
vt 0.49733901023864746 0.9973539710044861
vt 0.5 0.7377380132675171
vt 0.49733901023864746 0.9973539710044861
vt 0.4186230003833771 0.9994999766349792
vt 0.5 0.7377380132675171
vt 0.5 0.524412989616394
vt 0.6647379994392395 0.5244119763374329
vt 0.5 0.7377380132675171
vt 0.6647379994392395 0.5244119763374329
vt 0.6316459774971008 0.7377369999885559
vt 0.5 0.7377380132675171
vt 0.37939900159835815 0.7377349734306335
vt 0.32218098640441895 0.5244089961051941
vt 0.5 0.7377380132675171
vt 0.32218098640441895 0.5244089961051941
vt 0.5 0.524412989616394
vt 0.8301380276679993 0.34130001068115234
vt 0.9289090037345886 0.34129297733306885
vt 0.8626559972763062 0.5244010090827942
vt 0.1565150022506714 0.34130001068115234
vt 0.27552300691604614 0.5244010090827942
vt 0.1227630004286766 0.5244100093841553
vt 0.20203399658203125 0.34129899740219116
vt 0.34470799565315247 0.34797900915145874
vt 0.32218098640441895 0.5244089961051941
vt 0.5 0.37022101879119873
vt 0.6552919745445251 0.34797900915145874
vt 0.6647379994392395 0.5244119763374329
vt 0.5 0.37022101879119873
vt 0.6647379994392395 0.5244119763374329
vt 0.5 0.524412989616394
vt 0.6316459774971008 0.7377369999885559
vt 0.684266984462738 0.7377359867095947
vt 0.49733901023864746 0.9973539710044861
vt 0.7829750180244446 0.5244100093841553
vt 0.6647379994392395 0.5244119763374329
vt 0.6552919745445251 0.34797900915145874
vt 0.7829750180244446 0.5244100093841553
vt 0.6552919745445251 0.34797900915145874
vt 0.8301380276679993 0.34130001068115234
vt 0.884738028049469 0.5244089961051941
vt 0.8008480072021484 0.5244050025939941
vt 0.6936879754066467 0.34129297733306885
vt 0.32218098640441895 0.5244089961051941
vt 0.1131569966673851 0.34129297733306885
vt 0.20203399658203125 0.34129899740219116
vt 0.5 0.524412989616394
vt 0.32218098640441895 0.5244089961051941
vt 0.34470799565315247 0.34797900915145874
vt 0.5 0.524412989616394
vt 0.34470799565315247 0.34797900915145874
vt 0.5 0.37022101879119873
vt 0.6647379994392395 0.5244119763374329
vt 0.7829750180244446 0.5244100093841553
vt 0.684266984462738 0.7377359867095947
vt 0.6647379994392395 0.5244119763374329
vt 0.684266984462738 0.7377359867095947
vt 0.6316459774971008 0.7377369999885559
vt 0.4186230003833771 0.9994999766349792
vt 0.35954898595809937 0.9545930027961731
vt 0.37939900159835815 0.7377349734306335
vt 0.4186230003833771 0.9994999766349792
vt 0.37939900159835815 0.7377349734306335
vt 0.5 0.7377380132675171
vt 0.8273670077323914 0.7377300262451172
vt 0.8008480072021484 0.5244050025939941
vt 0.884738028049469 0.5244089961051941
vt 0.8273670077323914 0.7377300262451172
vt 0.884738028049469 0.5244089961051941
vt 0.9417949914932251 0.7377349734306335
vt 0.27552300691604614 0.5244010090827942
vt 0.2562650144100189 0.7377240061759949
vt 0.06954599916934967 0.7377359867095947
vt 0.27552300691604614 0.5244010090827942
vt 0.06954599916934967 0.7377359867095947
vt 0.1227630004286766 0.5244100093841553
vt 0.6808469891548157 0.524399995803833
vt 0.6936879754066467 0.34129297733306885
vt 0.8008480072021484 0.5244050025939941
vt 0.9417949914932251 0.7377349734306335
vt 0.9817709922790527 0.9545930027961731
vt 0.8261079788208008 0.8461620211601257
vt 0.9417949914932251 0.7377349734306335
vt 0.8261079788208008 0.8461620211601257
vt 0.8273670077323914 0.7377300262451172
vt 0.8008480072021484 0.5244050025939941
vt 0.8273670077323914 0.7377300262451172
vt 0.6808469891548157 0.524399995803833
vt 0.2555670142173767 0.8470190167427063
vt 0.01823429949581623 0.9973539710044861
vt 0.06954599916934967 0.7377359867095947
vt 0.2555670142173767 0.8470190167427063
vt 0.06954599916934967 0.7377359867095947
vt 0.2562650144100189 0.7377240061759949
vn -0.9949982314221981 -0.06928290114703518 -0.07196109417836898
vn -0.9769184751931311 -0.004245611184938978 0.2135702872873333
vn -0.7776372688154493 0.21586170011546743 0.5904947117227289
vn -0.9949982314221981 -0.06928290114703518 -0.07196109417836898
vn -0.7776372688154493 0.21586170011546743 0.5904947117227289
vn -0.9936520724616771 -0.06751394048516282 -0.0899857029354103
vn -0.9949982314221981 -0.06928290114703518 -0.07196109417836898
vn -0.9878979505274827 -0.09694889524557937 -0.12107250329559172
vn -0.9809055136906222 -0.09295923261579482 0.17083019136797647
vn -0.9949982314221981 -0.06928290114703518 -0.07196109417836898
vn -0.9809055136906222 -0.09295923261579482 0.17083019136797647
vn -0.9769184751931311 -0.004245611184938978 0.2135702872873333
vn -0.9949982314221981 -0.06928290114703518 -0.07196109417836898
vn -0.9701351251440862 -0.09422758702535644 -0.22351510196191918
vn -0.933747985636979 -0.03793385538825993 -0.35591532972642037
vn -0.9949982314221981 -0.06928290114703518 -0.07196109417836898
vn -0.933747985636979 -0.03793385538825993 -0.35591532972642037
vn -0.9878979505274827 -0.09694889524557937 -0.12107250329559172
vn -0.8800348130964464 0.03513958712597096 0.4736073660268799
vn -0.6633724802902473 0.1458881119437352 0.7339302495381
vn -0.6633724802902473 0.1458881119437352 0.7339302495381
vn -0.8448518565775248 -0.05514182150745796 0.5321510311540786
vn -0.435442180152805 0.21616628822656106 0.8738777051613821
vn -0.5258749997100726 0.1357769584866134 0.8396547518022246
vn -0.8358946664302468 0.042953272558029144 -0.5472066547567036
vn -0.9654824871383056 -0.07590272193686165 -0.24916328748795769
vn -0.933747985636979 -0.03793385538825993 -0.35591532972642037
vn -0.9909722481316816 -0.1336922601897557 -0.010019131608852653
vn -0.9745732910953987 -0.10745168310554447 0.19662409842455464
vn -0.9809055136906222 -0.09295923261579482 0.17083019136797647
vn -0.9909722481316816 -0.1336922601897557 -0.010019131608852653
vn -0.9809055136906222 -0.09295923261579482 0.17083019136797647
vn -0.9878979505274827 -0.09694889524557937 -0.12107250329559172
vn -0.9769184751931311 -0.004245611184938978 0.2135702872873333
vn -0.5106753799093944 0.2682032931570066 0.8168706445295562
vn -0.7776372688154493 0.21586170011546743 0.5904947117227289
vn -0.9492367170831766 -0.06654081258646502 0.3074442635690028
vn -0.9809055136906222 -0.09295923261579482 0.17083019136797647
vn -0.9745732910953987 -0.10745168310554447 0.19662409842455464
vn -0.9492367170831766 -0.06654081258646502 0.3074442635690028
vn -0.9745732910953987 -0.10745168310554447 0.19662409842455464
vn -0.8800348130964464 0.03513958712597096 0.4736073660268799
vn -0.22298012382876475 0.2442254080004038 -0.943733974414583
vn -0.18160854968652454 0.3286524269978223 -0.926825720893199
vn -0.1647944274359569 0.5151595519088017 -0.8411025102585166
vn -0.933747985636979 -0.03793385538825993 -0.35591532972642037
vn -0.6744304440241031 0.1522395642611712 -0.7224726231816815
vn -0.8358946664302468 0.042953272558029144 -0.5472066547567036
vn -0.9878979505274827 -0.09694889524557937 -0.12107250329559172
vn -0.933747985636979 -0.03793385538825993 -0.35591532972642037
vn -0.9654824871383056 -0.07590272193686165 -0.24916328748795769
vn -0.9878979505274827 -0.09694889524557937 -0.12107250329559172
vn -0.9654824871383056 -0.07590272193686165 -0.24916328748795769
vn -0.9909722481316816 -0.1336922601897557 -0.010019131608852653
vn -0.9809055136906222 -0.09295923261579482 0.17083019136797647
vn -0.9492367170831766 -0.06654081258646502 0.3074442635690028
vn -0.5106753799093944 0.2682032931570066 0.8168706445295562
vn -0.9809055136906222 -0.09295923261579482 0.17083019136797647
vn -0.5106753799093944 0.2682032931570066 0.8168706445295562
vn -0.9769184751931311 -0.004245611184938978 0.2135702872873333
vn -0.9936520724616771 -0.06751394048516282 -0.0899857029354103
vn -0.5255795703040331 -0.10078010680866888 -0.8447540975637
vn -0.6499349552241254 -0.03692633702585357 -0.7590922207555991
vn -0.9936520724616771 -0.06751394048516282 -0.0899857029354103
vn -0.6499349552241254 -0.03692633702585357 -0.7590922207555991
vn -0.9949982314221981 -0.06928290114703518 -0.07196109417836898
vn -0.21507487918456666 0.11196464158207317 -0.9701580878285466
vn -0.18160854968652454 0.3286524269978223 -0.926825720893199
vn -0.22298012382876475 0.2442254080004038 -0.943733974414583
vn -0.21507487918456666 0.11196464158207317 -0.9701580878285466
vn -0.22298012382876475 0.2442254080004038 -0.943733974414583
vn -0.6499349552241254 -0.03692633702585357 -0.7590922207555991
vn -0.435442180152805 0.21616628822656106 0.8738777051613821
vn -0.26917831041272233 0.376454473694417 0.8864677469817002
vn -0.5106753799093944 0.2682032931570066 0.8168706445295562
vn -0.435442180152805 0.21616628822656106 0.8738777051613821
vn -0.5106753799093944 0.2682032931570066 0.8168706445295562
vn -0.5258749997100726 0.1357769584866134 0.8396547518022246
vn -0.16334005826791007 0.33268751953742687 -0.9287836344967916
vn -0.1647944274359569 0.5151595519088017 -0.8411025102585166
vn -0.18160854968652454 0.3286524269978223 -0.926825720893199
vn -0.6499349552241254 -0.03692633702585357 -0.7590922207555991
vn -0.5255795703040331 -0.10078010680866888 -0.8447540975637
vn -0.14776377404441648 -0.04375493906256577 -0.9880543367587544
vn -0.6499349552241254 -0.03692633702585357 -0.7590922207555991
vn -0.14776377404441648 -0.04375493906256577 -0.9880543367587544
vn -0.21507487918456666 0.11196464158207317 -0.9701580878285466
vn -0.18160854968652454 0.3286524269978223 -0.926825720893199
vn -0.21507487918456666 0.11196464158207317 -0.9701580878285466
vn -0.16334005826791007 0.33268751953742687 -0.9287836344967916
vn -0.21275075372237504 0.4072931845792997 0.8881719307576736
vn -0.7776372688154493 0.21586170011546743 0.5904947117227289
vn -0.5106753799093944 0.2682032931570066 0.8168706445295562
vn -0.21275075372237504 0.4072931845792997 0.8881719307576736
vn -0.5106753799093944 0.2682032931570066 0.8168706445295562
vn -0.26917831041272233 0.376454473694417 0.8864677469817002
f 1/1/1 2/2/2 3/3/3
f 4/4/4 5/5/5 6/6/6
f 7/7/7 8/8/8 9/9/9
f 10/10/10 11/11/11 12/12/12
f 13/13/13 14/14/14 15/15/15
f 16/16/16 17/17/17 18/18/18
f 19/19/19 20/20/20 21/21/21
f 22/22/22 23/23/23 24/24/24
f 25/25/25 26/26/26 27/27/27
f 28/28/28 29/29/29 30/30/30
f 31/31/31 32/32/32 33/33/33
f 34/34/34 35/35/35 36/36/36
f 37/37/37 38/38/38 39/39/39
f 40/40/40 41/41/41 42/42/42
f 43/43/43 44/44/44 45/45/45
f 46/46/46 47/47/47 48/48/48
f 49/49/49 50/50/50 51/51/51
f 52/52/52 53/53/53 54/54/54
f 55/55/55 56/56/56 57/57/57
f 58/58/58 59/59/59 60/60/60
f 61/61/61 62/62/62 63/63/63
f 64/64/64 65/65/65 66/66/66
f 67/67/67 68/68/68 69/69/69
f 70/70/70 71/71/71 72/72/72
f 73/73/73 74/74/74 75/75/75
f 76/76/76 77/77/77 78/78/78
f 79/79/79 80/80/80 81/81/81
f 82/82/82 83/83/83 84/84/84
f 85/85/85 86/86/86 87/87/87
f 88/88/88 89/89/89 90/90/90
f 91/91/91 92/92/92 93/93/93
f 94/94/94 95/95/95 96/96/96
