mtllib ArcadaCompleta.mtl
o 241
usemtl Enamel2
v -1.4756900072097778 -23.026962280273438 1.8560794736291035
v -1.4214500188827515 -21.733882904052734 2.1849693204308616
v -2.067229986190796 -23.748132705688477 2.4344793702508074
v -1.4756900072097778 -23.026962280273438 -1.8592306231116191
v -1.4007999897003174 -21.905412673950195 -2.46261058794011
v -1.1176799535751343 -21.562562942504883 -1.0065705631827246
v -1.0088499784469604 -20.751163482666016 -0.0015765816173757832
v -0.7959470152854919 -20.27599334716797 -0.0015765816173756778
v -0.9907270073890686 -20.486682891845703 0.9367174054528346
v -1.0088499784469604 -20.751163482666016 -0.0015765816173757832
v -0.9907270073890686 -20.486682891845703 0.9367174054528346
v -1.1176799535751343 -21.562562942504883 1.00341941370021
v -1.1547900438308716 -20.549882888793945 -2.0420504664038552
v -0.886023998260498 -20.486682891845703 -0.9398705814932714
v -1.1176799535751343 -21.562562942504883 -1.0065705631827246
v -1.1547900438308716 -20.549882888793945 -2.0420504664038552
v -1.1176799535751343 -21.562562942504883 -1.0065705631827246
v -1.4007999897003174 -21.905412673950195 -2.46261058794011
v -1.1176799535751343 -21.562562942504883 1.00341941370021
v -1.4214500188827515 -21.733882904052734 2.1849693204308616
v -1.4756900072097778 -23.026962280273438 1.8560794736291035
v -1.1176799535751343 -21.562562942504883 -1.0065705631827246
v -0.886023998260498 -20.486682891845703 -0.9398705814932714
v -0.7959470152854919 -20.27599334716797 -0.0015765816173756778
v -1.1176799535751343 -21.562562942504883 -1.0065705631827246
v -0.7959470152854919 -20.27599334716797 -0.0015765816173756778
v -1.0088499784469604 -20.751163482666016 -0.0015765816173757832
v -1.4214500188827515 -21.733882904052734 2.1849693204308616
v -1.1176799535751343 -21.562562942504883 1.00341941370021
v -0.9907270073890686 -20.486682891845703 0.9367174054528346
v -1.4214500188827515 -21.733882904052734 2.1849693204308616
v -0.9907270073890686 -20.486682891845703 0.9367174054528346
v -1.1661399602890015 -20.54989242553711 1.993159427776443
vt 0.19254900515079498 0.07978600263595581
vt 0.1381160020828247 0.21628403663635254
vt 0.09682050347328186 0.0036638379096984863
vt 0.8074510097503662 0.07978600263595581
vt 0.9073119759559631 0.1981779932975769
vt 0.6663309931755066 0.23436999320983887
vt 0.5 0.32002103328704834
vt 0.5 0.37018096446990967
vt 0.34470799565315247 0.34793996810913086
vt 0.5 0.32002103328704834
vt 0.34470799565315247 0.34793996810913086
vt 0.3336690068244934 0.23436999320983887
vt 0.8377079963684082 0.34126901626586914
vt 0.6552919745445251 0.34793996810913086
vt 0.6663309931755066 0.23436999320983887
vt 0.8377079963684082 0.34126901626586914
vt 0.6663309931755066 0.23436999320983887
vt 0.9073119759559631 0.1981779932975769
vt 0.3336690068244934 0.23436999320983887
vt 0.1381160020828247 0.21628403663635254
vt 0.19254900515079498 0.07978600263595581
vt 0.6663309931755066 0.23436999320983887
vt 0.6552919745445251 0.34793996810913086
vt 0.5 0.37018096446990967
vt 0.6663309931755066 0.23436999320983887
vt 0.5 0.37018096446990967
vt 0.5 0.32002103328704834
vt 0.1381160020828247 0.21628403663635254
vt 0.3336690068244934 0.23436999320983887
vt 0.34470799565315247 0.34793996810913086
vt 0.1381160020828247 0.21628403663635254
vt 0.34470799565315247 0.34793996810913086
vt 0.16986100375652313 0.3412669897079468
vn 0.909300396149145 -0.1379965855798188 0.3925935963962215
vn 0.94379227325627 -0.14074344779750916 0.2990776267858095
vn 0.791702486652271 -0.1815694233748623 0.5833007090034529
vn 0.976690501483528 -0.14856768698942519 -0.15493000579121777
vn 0.977777461669938 -0.1382974656785989 -0.15755965992972276
vn 0.9756040999855726 -0.18230482619525243 -0.122317580246095
vn 0.9605831604531883 -0.263010534420099 0.09003027622871122
vn 0.9491263949663936 -0.3091906219742085 0.05966779417155897
vn 0.9760871724492803 -0.1685793433474192 0.13724006986489673
vn 0.9605831604531883 -0.263010534420099 0.09003027622871122
vn 0.9760871724492803 -0.1685793433474192 0.13724006986489673
vn 0.9785185360686587 -0.10466463869117823 0.1776141547785377
vn 0.9036569369161768 0.005059744570424553 -0.42822720528728103
vn 0.9692529524887658 -0.19979234214914837 -0.14363750941299439
vn 0.9756040999855726 -0.18230482619525243 -0.122317580246095
vn 0.9036569369161768 0.005059744570424553 -0.42822720528728103
vn 0.9756040999855726 -0.18230482619525243 -0.122317580246095
vn 0.977777461669938 -0.1382974656785989 -0.15755965992972276
vn 0.9785185360686587 -0.10466463869117823 0.1776141547785377
vn 0.94379227325627 -0.14074344779750916 0.2990776267858095
vn 0.909300396149145 -0.1379965855798188 0.3925935963962215
vn 0.9756040999855726 -0.18230482619525243 -0.122317580246095
vn 0.9692529524887658 -0.19979234214914837 -0.14363750941299439
vn 0.9491263949663936 -0.3091906219742085 0.05966779417155897
vn 0.9756040999855726 -0.18230482619525243 -0.122317580246095
vn 0.9491263949663936 -0.3091906219742085 0.05966779417155897
vn 0.9605831604531883 -0.263010534420099 0.09003027622871122
vn 0.94379227325627 -0.14074344779750916 0.2990776267858095
vn 0.9785185360686587 -0.10466463869117823 0.1776141547785377
vn 0.9760871724492803 -0.1685793433474192 0.13724006986489673
vn 0.94379227325627 -0.14074344779750916 0.2990776267858095
vn 0.9760871724492803 -0.1685793433474192 0.13724006986489673
vn 0.8016931968182472 0.006564178934938451 0.5976996986198415
f 1/1/1 2/2/2 3/3/3
f 4/4/4 5/5/5 6/6/6
f 7/7/7 8/8/8 9/9/9
f 10/10/10 11/11/11 12/12/12
f 13/13/13 14/14/14 15/15/15
f 16/16/16 17/17/17 18/18/18
f 19/19/19 20/20/20 21/21/21
f 22/22/22 23/23/23 24/24/24
f 25/25/25 26/26/26 27/27/27
f 28/28/28 29/29/29 30/30/30
f 31/31/31 32/32/32 33/33/33
