mtllib ArcadaCompleta.mtl
o 466
usemtl Enamel2
v -10.375900268554688 -23.095312118530273 1.8560794736291035
v -9.784449577331543 -23.74793243408203 2.4344793702508074
v -10.61139965057373 -21.733623504638672 2.013449325695144
v -10.375900268554688 -23.095312118530273 -1.8592306231116191
v -10.73390007019043 -22.09964370727539 -1.0065705631827249
v -10.949000358581543 -21.140213012695312 -0.9422235940550697
v -10.375900268554688 -23.095312118530273 -1.8592306231116191
v -10.949000358581543 -21.140213012695312 -0.9422235940550697
v -10.393500328063965 -21.90514373779297 -2.359700546131028
v -10.842700004577637 -21.677001953125 -0.0015765816173759887
v -10.73390007019043 -22.09964370727539 1.0034194137002097
v -10.949000358581543 -21.140213012695312 0.9390704180146324
v -10.842700004577637 -21.677001953125 -0.0015765816173759887
v -10.949000358581543 -21.140213012695312 0.9390704180146324
v -11.093199729919434 -20.904502868652344 -0.0015765816173758172
v -11.112500190734863 -20.275611877441406 -0.0015765816173756776
v -11.093199729919434 -20.904502868652344 -0.0015765816173758172
v -10.949000358581543 -21.140213012695312 0.9390704180146324
v -11.112500190734863 -20.275611877441406 -0.0015765816173756776
v -10.949000358581543 -21.140213012695312 0.9390704180146324
v -11.04800033569336 -20.486312866210938 0.9367174054528346
v -10.976799964904785 -20.486312866210938 -0.9398705814932714
v -10.639399528503418 -20.549592971801758 -1.8019206379507908
v -10.393500328063965 -21.90514373779297 -2.359700546131028
v -10.976799964904785 -20.486312866210938 -0.9398705814932714
v -10.393500328063965 -21.90514373779297 -2.359700546131028
v -10.949000358581543 -21.140213012695312 -0.9422235940550697
v -10.976799964904785 -20.486312866210938 -0.9398705814932714
v -10.949000358581543 -21.140213012695312 -0.9422235940550697
v -11.093199729919434 -20.904502868652344 -0.0015765816173758172
v -10.976799964904785 -20.486312866210938 -0.9398705814932714
v -11.093199729919434 -20.904502868652344 -0.0015765816173758172
v -11.112500190734863 -20.275611877441406 -0.0015765816173756776
v -10.61139965057373 -21.733623504638672 2.013449325695144
v -10.949000358581543 -21.140213012695312 0.9390704180146324
v -10.73390007019043 -22.09964370727539 1.0034194137002097
v -10.61139965057373 -21.733623504638672 2.013449325695144
v -10.73390007019043 -22.09964370727539 1.0034194137002097
v -10.375900268554688 -23.095312118530273 1.8560794736291035
v -11.093199729919434 -20.904502868652344 -0.0015765816173758172
v -10.949000358581543 -21.140213012695312 -0.9422235940550697
v -10.73390007019043 -22.09964370727539 -1.0065705631827249
v -11.093199729919434 -20.904502868652344 -0.0015765816173758172
v -10.73390007019043 -22.09964370727539 -1.0065705631827249
v -10.842700004577637 -21.677001953125 -0.0015765816173759887
v -10.949000358581543 -21.140213012695312 0.9390704180146324
v -10.61139965057373 -21.733623504638672 2.013449325695144
v -10.817899703979492 -20.549583435058594 1.993159427776443
v -10.949000358581543 -21.140213012695312 0.9390704180146324
v -10.817899703979492 -20.549583435058594 1.993159427776443
v -11.04800033569336 -20.486312866210938 0.9367174054528346
vt 0.8074510097503662 0.07257187366485596
vt 0.9031789898872375 0.003679037094116211
vt 0.8334959745407104 0.2163119912147522
vt 0.19254900515079498 0.07257187366485596
vt 0.3336690068244934 0.1776750087738037
vt 0.3443180024623871 0.278952956199646
vt 0.19254900515079498 0.07257187366485596
vt 0.3443180024623871 0.278952956199646
vt 0.10971999913454056 0.19820600748062134
vt 0.5 0.22228896617889404
vt 0.6663309931755066 0.1776750087738037
vt 0.6556820273399353 0.278952956199646
vt 0.5 0.22228896617889404
vt 0.6556820273399353 0.278952956199646
vt 0.5 0.30383503437042236
vt 0.5 0.37022101879119873
vt 0.5 0.30383503437042236
vt 0.6556820273399353 0.278952956199646
vt 0.5 0.37022101879119873
vt 0.6556820273399353 0.278952956199646
vt 0.6552919745445251 0.34797900915145874
vt 0.34470799565315247 0.34797900915145874
vt 0.20203399658203125 0.34129899740219116
vt 0.10971999913454056 0.19820600748062134
vt 0.34470799565315247 0.34797900915145874
vt 0.10971999913454056 0.19820600748062134
vt 0.3443180024623871 0.278952956199646
vt 0.34470799565315247 0.34797900915145874
vt 0.3443180024623871 0.278952956199646
vt 0.5 0.30383503437042236
vt 0.34470799565315247 0.34797900915145874
vt 0.5 0.30383503437042236
vt 0.5 0.37022101879119873
vt 0.8334959745407104 0.2163119912147522
vt 0.6556820273399353 0.278952956199646
vt 0.6663309931755066 0.1776750087738037
vt 0.8334959745407104 0.2163119912147522
vt 0.6663309931755066 0.1776750087738037
vt 0.8074510097503662 0.07257187366485596
vt 0.5 0.30383503437042236
vt 0.3443180024623871 0.278952956199646
vt 0.3336690068244934 0.1776750087738037
vt 0.5 0.30383503437042236
vt 0.3336690068244934 0.1776750087738037
vt 0.5 0.22228896617889404
vt 0.6556820273399353 0.278952956199646
vt 0.8334959745407104 0.2163119912147522
vt 0.8301380276679993 0.34130001068115234
vt 0.6556820273399353 0.278952956199646
vt 0.8301380276679993 0.34130001068115234
vt 0.6552919745445251 0.34797900915145874
vn -0.9066951660602496 -0.19974310409841547 0.3714923528258771
vn -0.790047494578575 -0.2034694019043142 0.5782950447641906
vn -0.9377622174312736 -0.19147703663570273 0.28972153527066336
vn -0.9523255510857418 -0.15625447031473355 -0.2620316493401135
vn -0.9671112113557214 -0.24208092225412436 -0.07805595397317064
vn -0.9624365907415855 -0.13202485089900703 -0.23724512122867508
vn -0.9523255510857418 -0.15625447031473355 -0.2620316493401135
vn -0.9624365907415855 -0.13202485089900703 -0.23724512122867508
vn -0.9415352267631941 -0.0832102142930435 -0.32647737594094733
vn -0.9610128643227708 -0.2743403341921203 0.03452036560494906
vn -0.969641025096732 -0.20175491174818452 0.1381710462971212
vn -0.9743604895475362 -0.18176212612367168 0.13260530123523764
vn -0.9610128643227708 -0.2743403341921203 0.03452036560494906
vn -0.9743604895475362 -0.18176212612367168 0.13260530123523764
vn -0.9843808769521176 -0.17458812901391998 -0.022655557781668063
vn -0.9973210279315375 -0.07168768365997698 0.014547964017295814
vn -0.9843808769521176 -0.17458812901391998 -0.022655557781668063
vn -0.9743604895475362 -0.18176212612367168 0.13260530123523764
vn -0.9973210279315375 -0.07168768365997698 0.014547964017295814
vn -0.9743604895475362 -0.18176212612367168 0.13260530123523764
vn -0.981098818765813 -0.1480893921719879 0.12455777672412661
vn -0.9594487252174324 -0.03110974186146699 -0.28016125292402044
vn -0.9315229997028754 -0.019548747768693576 -0.3631566431792664
vn -0.9415352267631941 -0.0832102142930435 -0.32647737594094733
vn -0.9594487252174324 -0.03110974186146699 -0.28016125292402044
vn -0.9415352267631941 -0.0832102142930435 -0.32647737594094733
vn -0.9624365907415855 -0.13202485089900703 -0.23724512122867508
vn -0.9594487252174324 -0.03110974186146699 -0.28016125292402044
vn -0.9624365907415855 -0.13202485089900703 -0.23724512122867508
vn -0.9843808769521176 -0.17458812901391998 -0.022655557781668063
vn -0.9594487252174324 -0.03110974186146699 -0.28016125292402044
vn -0.9843808769521176 -0.17458812901391998 -0.022655557781668063
vn -0.9973210279315375 -0.07168768365997698 0.014547964017295814
vn -0.9377622174312736 -0.19147703663570273 0.28972153527066336
vn -0.9743604895475362 -0.18176212612367168 0.13260530123523764
vn -0.969641025096732 -0.20175491174818452 0.1381710462971212
vn -0.9377622174312736 -0.19147703663570273 0.28972153527066336
vn -0.969641025096732 -0.20175491174818452 0.1381710462971212
vn -0.9066951660602496 -0.19974310409841547 0.3714923528258771
vn -0.9843808769521176 -0.17458812901391998 -0.022655557781668063
vn -0.9624365907415855 -0.13202485089900703 -0.23724512122867508
vn -0.9671112113557214 -0.24208092225412436 -0.07805595397317064
vn -0.9843808769521176 -0.17458812901391998 -0.022655557781668063
vn -0.9671112113557214 -0.24208092225412436 -0.07805595397317064
vn -0.9610128643227708 -0.2743403341921203 0.03452036560494906
vn -0.9743604895475362 -0.18176212612367168 0.13260530123523764
vn -0.9377622174312736 -0.19147703663570273 0.28972153527066336
vn -0.8448644350506918 -0.055129915769004376 0.5321322944285358
vn -0.9743604895475362 -0.18176212612367168 0.13260530123523764
vn -0.8448644350506918 -0.055129915769004376 0.5321322944285358
vn -0.981098818765813 -0.1480893921719879 0.12455777672412661
f 1/1/1 2/2/2 3/3/3
f 4/4/4 5/5/5 6/6/6
f 7/7/7 8/8/8 9/9/9
f 10/10/10 11/11/11 12/12/12
f 13/13/13 14/14/14 15/15/15
f 16/16/16 17/17/17 18/18/18
f 19/19/19 20/20/20 21/21/21
f 22/22/22 23/23/23 24/24/24
f 25/25/25 26/26/26 27/27/27
f 28/28/28 29/29/29 30/30/30
f 31/31/31 32/32/32 33/33/33
f 34/34/34 35/35/35 36/36/36
f 37/37/37 38/38/38 39/39/39
f 40/40/40 41/41/41 42/42/42
f 43/43/43 44/44/44 45/45/45
f 46/46/46 47/47/47 48/48/48
f 49/49/49 50/50/50 51/51/51
