mtllib ArcadaCompleta.mtl
o 515
usemtl Enamel21
v -67.76969909667969 -21.25094223022461 0.00022763939665065825
v -67.67639923095703 -21.237552642822266 1.8166394378090966
v -68.08450317382812 -19.74038314819336 1.3873493815804594
v -67.76969909667969 -21.25094223022461 0.00022763939665065825
v -68.08450317382812 -19.74038314819336 1.3873493815804594
v -68.17259979248047 -19.74038314819336 0.001796148371393138
v -68.17259979248047 -19.74038314819336 0.001796148371393138
v -68.08450317382812 -19.74038314819336 -1.3837505434607393
v -67.67639923095703 -21.237552642822266 -1.816180572376145
v -68.17259979248047 -19.74038314819336 0.001796148371393138
v -67.67639923095703 -21.237552642822266 -1.816180572376145
v -67.76969909667969 -21.25094223022461 0.00022763939665065825
vt 0.5021730065345764 0.012205779552459717
vt 0.6848840117454529 0.01409447193145752
vt 0.6417019963264465 0.2252979874610901
vt 0.5021730065345764 0.012205779552459717
vt 0.6417019963264465 0.2252979874610901
vt 0.5023300051689148 0.2252979874610901
vt 0.5023300051689148 0.2252979874610901
vt 0.36295899748802185 0.2252979874610901
vt 0.31946098804473877 0.01409447193145752
vt 0.5023300051689148 0.2252979874610901
vt 0.31946098804473877 0.01409447193145752
vt 0.5021730065345764 0.012205779552459717
vn -0.9668961746468037 -0.2546122069673264 0.016864504635635193
vn -0.9671676922793646 -0.2488635519233546 0.05151298414089674
vn -0.965978747787169 -0.2525343911013752 0.055780284461362954
vn -0.9668961746468037 -0.2546122069673264 0.016864504635635193
vn -0.965978747787169 -0.2525343911013752 0.055780284461362954
vn -0.9669203185557296 -0.25426895900607327 -0.020307487536729438
vn -0.9669203185557296 -0.25426895900607327 -0.020307487536729438
vn -0.9673378544539744 -0.24591565302691568 -0.061505828477691114
vn -0.9660071515930319 -0.25242542659535083 -0.05578160161981859
vn -0.9669203185557296 -0.25426895900607327 -0.020307487536729438
vn -0.9660071515930319 -0.25242542659535083 -0.05578160161981859
vn -0.9668961746468037 -0.2546122069673264 0.016864504635635193
f 1/1/1 2/2/2 3/3/3
f 4/4/4 5/5/5 6/6/6
f 7/7/7 8/8/8 9/9/9
f 10/10/10 11/11/11 12/12/12
