mtllib ArcadaCompleta.mtl
o 547_1
usemtl M1
v 59.12779998779297 -16.933313369750977 1.4679494048501132
v 59.266300201416016 -16.01563262939453 1.384419455661881
v 59.145599365234375 -16.166852951049805 -0.0735444803689838
v 59.02360153198242 -17.090232849121094 0.0017961483713937266
v 59.12779998779297 -16.933313369750977 1.4679494048501132
v 59.145599365234375 -16.166852951049805 -0.0735444803689838
v 59.12779998779297 -16.933313369750977 -1.4643605803107145
v 59.02360153198242 -17.090232849121094 0.0017961483713937266
v 59.145599365234375 -16.166852951049805 -0.0735444803689838
v 59.266300201416016 -16.01563262939453 -1.5315105770682216
v 59.12779998779297 -16.933313369750977 -1.4643605803107145
v 59.145599365234375 -16.166852951049805 -0.0735444803689838
v 59.818199157714844 -15.719162940979004 1.3088793898965003
v 59.6349983215332 -15.704512596130371 -0.07354448036898369
v 59.145599365234375 -16.166852951049805 -0.0735444803689838
v 59.266300201416016 -16.01563262939453 1.384419455661881
v 59.818199157714844 -15.719162940979004 1.3088793898965003
v 59.145599365234375 -16.166852951049805 -0.0735444803689838
v 59.818199157714844 -15.719162940979004 1.3088793898965003
v 60.11629867553711 -16.08015251159668 0.99780841125499
v 60.15919876098633 -16.166852951049805 -0.07311327801693683
v 59.6349983215332 -15.704512596130371 -0.07354448036898369
v 59.818199157714844 -15.719162940979004 1.3088793898965003
v 60.15919876098633 -16.166852951049805 -0.07311327801693683
v 60.37179946899414 -15.538002014160156 1.1635793591881873
v 60.53310012817383 -15.880562782287598 0.3615034068966985
v 60.15919876098633 -16.166852951049805 -0.07311327801693683
v 60.11629867553711 -16.08015251159668 0.99780841125499
v 60.37179946899414 -15.538002014160156 1.1635793591881873
v 60.15919876098633 -16.166852951049805 -0.07311327801693683
v 60.53310012817383 -15.880562782287598 0.3615034068966985
v 60.527099609375 -16.285472869873047 -0.03544298233140714
v 60.15919876098633 -16.166852951049805 -0.07311327801693683
v 59.97679901123047 -19.74038314819336 1.3873493815804594
v 59.56999969482422 -18.55840301513672 1.3838794375802155
v 59.55929946899414 -18.631813049316406 0.0017961483713933842
v 59.88869857788086 -19.74038314819336 0.001796148371393138
v 59.97679901123047 -19.74038314819336 1.3873493815804594
v 59.55929946899414 -18.631813049316406 0.0017961483713933842
v 59.12779998779297 -16.933313369750977 -1.4643605803107145
v 59.56999969482422 -18.55840301513672 -1.3802906130408172
v 59.55929946899414 -18.631813049316406 0.0017961483713933842
v 59.02360153198242 -17.090232849121094 0.0017961483713937266
v 59.12779998779297 -16.933313369750977 -1.4643605803107145
v 59.55929946899414 -18.631813049316406 0.0017961483713933842
v 59.6349983215332 -15.704512596130371 -0.07354448036898369
v 59.762001037597656 -15.717682838439941 -1.5022905920599816
v 59.266300201416016 -16.01563262939453 -1.5315105770682216
v 59.145599365234375 -16.166852951049805 -0.0735444803689838
v 59.6349983215332 -15.704512596130371 -0.07354448036898369
v 59.266300201416016 -16.01563262939453 -1.5315105770682216
v 59.56999969482422 -18.55840301513672 1.3838794375802155
v 59.12779998779297 -16.933313369750977 1.4679494048501132
v 59.02360153198242 -17.090232849121094 0.0017961483713937266
v 59.55929946899414 -18.631813049316406 0.0017961483713933842
v 59.56999969482422 -18.55840301513672 1.3838794375802155
v 59.02360153198242 -17.090232849121094 0.0017961483713937266
v 60.53310012817383 -15.880562782287598 -0.507729575500381
v 60.376399993896484 -15.535852432250977 -1.3804405783270715
v 60.060001373291016 -16.078672409057617 -1.191220626697433
v 60.15919876098633 -16.166852951049805 -0.07311327801693683
v 60.53310012817383 -15.880562782287598 -0.507729575500381
v 60.060001373291016 -16.078672409057617 -1.191220626697433
v 59.818199157714844 -15.719162940979004 1.3088793898965003
v 60.37179946899414 -15.538002014160156 1.1635793591881873
v 60.11629867553711 -16.08015251159668 0.99780841125499
v 60.060001373291016 -16.078672409057617 -1.191220626697433
v 59.762001037597656 -15.717682838439941 -1.5022905920599816
v 59.6349983215332 -15.704512596130371 -0.07354448036898369
v 60.15919876098633 -16.166852951049805 -0.07311327801693683
v 60.060001373291016 -16.078672409057617 -1.191220626697433
v 59.6349983215332 -15.704512596130371 -0.07354448036898369
v 60.060001373291016 -16.078672409057617 -1.191220626697433
v 60.376399993896484 -15.535852432250977 -1.3804405783270715
v 59.762001037597656 -15.717682838439941 -1.5022905920599816
v 59.56999969482422 -18.55840301513672 -1.3802906130408172
v 59.97679901123047 -19.74038314819336 -1.3837505434607393
v 59.88869857788086 -19.74038314819336 0.001796148371393138
v 59.55929946899414 -18.631813049316406 0.0017961483713933842
v 59.56999969482422 -18.55840301513672 -1.3802906130408172
v 59.88869857788086 -19.74038314819336 0.001796148371393138
v 60.15919876098633 -16.166852951049805 -0.07311327801693683
v 60.527099609375 -16.285472869873047 -0.03544298233140714
v 60.53310012817383 -15.880562782287598 -0.507729575500381
vt 0.35019001364707947 0.6212869882583618
vt 0.3585920035839081 0.7507420182228088
vt 0.5052480101585388 0.7294110059738159
vt 0.4976690113544464 0.5991500020027161
vt 0.35019001364707947 0.6212869882583618
vt 0.5052480101585388 0.7294110059738159
vt 0.6451489925384521 0.6212869882583618
vt 0.4976690113544464 0.5991500020027161
vt 0.5052480101585388 0.7294110059738159
vt 0.6519039869308472 0.7507420182228088
vt 0.6451489925384521 0.6212869882583618
vt 0.5052480101585388 0.7294110059738159
vt 0.9298779964447021 0.366191029548645
vt 0.9483529925346375 0.5052480101585388
vt 0.9977009892463684 0.5052480101585388
vt 0.9855369925498962 0.35859203338623047
vt 0.9298779964447021 0.366191029548645
vt 0.9977009892463684 0.5052480101585388
vt 0.9298779964447021 0.366191029548645
vt 0.8998240232467651 0.39748096466064453
vt 0.8954939842224121 0.5052040219306946
vt 0.9483529925346375 0.5052480101585388
vt 0.9298779964447021 0.366191029548645
vt 0.8954939842224121 0.5052040219306946
vt 0.8740530014038086 0.38080596923828125
vt 0.8577920198440552 0.4614869952201843
vt 0.8954939842224121 0.5052040219306946
vt 0.3974809944629669 0.7416399717330933
vt 0.38080599904060364 0.8181210160255432
vt 0.5052040219306946 0.7294110059738159
vt 0.8577920198440552 0.4614869952201843
vt 0.8583930134773254 0.5014150142669678
vt 0.8954939842224121 0.5052040219306946
vt 0.3582969903945923 0.2252979874610901
vt 0.3586460053920746 0.3920390009880066
vt 0.4976690113544464 0.38168203830718994
vt 0.4976690113544464 0.2252979874610901
vt 0.3582969903945923 0.2252979874610901
vt 0.4976690113544464 0.38168203830718994
vt 0.6451489925384521 0.6212869882583618
vt 0.6366919875144958 0.3920390009880066
vt 0.4976690113544464 0.38168203830718994
vt 0.4976690113544464 0.5991500020027161
vt 0.6451489925384521 0.6212869882583618
vt 0.4976690113544464 0.38168203830718994
vt 0.9483529925346375 0.5052480101585388
vt 0.9355530142784119 0.6489650011062622
vt 0.9855369925498962 0.6519039869308472
vt 0.9977009892463684 0.5052480101585388
vt 0.9483529925346375 0.5052480101585388
vt 0.9855369925498962 0.6519039869308472
vt 0.3586460053920746 0.3920390009880066
vt 0.35019001364707947 0.6212869882583618
vt 0.4976690113544464 0.5991500020027161
vt 0.4976690113544464 0.38168203830718994
vt 0.3586460053920746 0.3920390009880066
vt 0.4976690113544464 0.5991500020027161
vt 0.8577920198440552 0.5489220023155212
vt 0.8735920190811157 0.6367080211639404
vt 0.9054989814758301 0.6176739931106567
vt 0.8954939842224121 0.5052040219306946
vt 0.8577920198440552 0.5489220023155212
vt 0.9054989814758301 0.6176739931106567
vt 0.07012160122394562 0.7925649881362915
vt 0.1259469985961914 0.8181210160255432
vt 0.10017599910497665 0.7416399717330933
vt 0.9054989814758301 0.6176739931106567
vt 0.9355530142784119 0.6489650011062622
vt 0.9483529925346375 0.5052480101585388
vt 0.8954939842224121 0.5052040219306946
vt 0.9054989814758301 0.6176739931106567
vt 0.9483529925346375 0.5052480101585388
vt 0.9054989814758301 0.7418500185012817
vt 0.8735920190811157 0.8184239864349365
vt 0.9355530142784119 0.7927740216255188
vt 0.6366919875144958 0.3920390009880066
vt 0.6370409727096558 0.2252979874610901
vt 0.4976690113544464 0.2252979874610901
vt 0.4976690113544464 0.38168203830718994
vt 0.6366919875144958 0.3920390009880066
vt 0.4976690113544464 0.2252979874610901
vt 0.8954939842224121 0.5052040219306946
vt 0.8583930134773254 0.5014150142669678
vt 0.8577920198440552 0.5489220023155212
vn -0.9955587749874607 -0.05057691361405831 0.07940214955996157
vn -0.8679593447394667 0.49621657920254164 0.020388290854385597
vn -0.9234497278984126 0.3836346207651989 0.008067080927424974
vn -0.9819084037482184 -0.18928591537910863 0.005169998812245379
vn -0.9955587749874607 -0.05057691361405831 0.07940214955996157
vn -0.9234497278984126 0.3836346207651989 0.008067080927424974
vn -0.9877849725809117 -0.14226559304438022 -0.0635716051319948
vn -0.9819084037482184 -0.18928591537910863 0.005169998812245379
vn -0.9234497278984126 0.3836346207651989 0.008067080927424974
vn -0.8312082708655428 0.5545404036981508 -0.039720915284095146
vn -0.9877849725809117 -0.14226559304438022 -0.0635716051319948
vn -0.9234497278984126 0.3836346207651989 0.008067080927424974
vn -0.07214242160105268 0.9911859717786091 -0.11111183714991993
vn -0.0161464065730659 0.9998377626093727 0.0079838596593809
vn -0.9234497278984126 0.3836346207651989 0.008067080927424974
vn -0.8679593447394667 0.49621657920254164 0.020388290854385597
vn -0.07214242160105268 0.9911859717786091 -0.11111183714991993
vn -0.9234497278984126 0.3836346207651989 0.008067080927424974
vn -0.07214242160105268 0.9911859717786091 -0.11111183714991993
vn -0.3750334549307834 0.8507766426970595 -0.3681426515955469
vn 0.22010618772906854 0.9723321280611735 -0.07825278821489727
vn -0.0161464065730659 0.9998377626093727 0.0079838596593809
vn -0.07214242160105268 0.9911859717786091 -0.11111183714991993
vn 0.22010618772906854 0.9723321280611735 -0.07825278821489727
vn -0.6380100933255692 0.6581449002330161 -0.39973542639097137
vn -0.030203046591906712 0.8464598147862511 -0.5315952952468563
vn 0.22010618772906854 0.9723321280611735 -0.07825278821489727
vn -0.3750334549307834 0.8507766426970595 -0.3681426515955469
vn -0.6380100933255692 0.6581449002330161 -0.39973542639097137
vn 0.22010618772906854 0.9723321280611735 -0.07825278821489727
vn -0.030203046591906712 0.8464598147862511 -0.5315952952468563
vn 0.3068674204409445 0.9517522714824055 4.4348304007659096e-8
vn 0.22010618772906854 0.9723321280611735 -0.07825278821489727
vn -0.9512105189339487 -0.30566180399018394 0.04206435843887995
vn -0.9512650002872481 -0.30391215103259434 0.05227144232985213
vn -0.9527219445509995 -0.30363279299306056 -0.0113147421621338
vn -0.9541886228723621 -0.2990815459298086 -0.008619794961647113
vn -0.9512105189339487 -0.30566180399018394 0.04206435843887995
vn -0.9527219445509995 -0.30363279299306056 -0.0113147421621338
vn -0.9877849725809117 -0.14226559304438022 -0.0635716051319948
vn -0.9569069286619032 -0.28844282451584835 -0.03361349229346441
vn -0.9527219445509995 -0.30363279299306056 -0.0113147421621338
vn -0.9819084037482184 -0.18928591537910863 0.005169998812245379
vn -0.9877849725809117 -0.14226559304438022 -0.0635716051319948
vn -0.9527219445509995 -0.30363279299306056 -0.0113147421621338
vn -0.0161464065730659 0.9998377626093727 0.0079838596593809
vn -0.004411593136817253 0.9795505531590964 0.2011498238918026
vn -0.8312082708655428 0.5545404036981508 -0.039720915284095146
vn -0.9234497278984126 0.3836346207651989 0.008067080927424974
vn -0.0161464065730659 0.9998377626093727 0.0079838596593809
vn -0.8312082708655428 0.5545404036981508 -0.039720915284095146
vn -0.9512650002872481 -0.30391215103259434 0.05227144232985213
vn -0.9955587749874607 -0.05057691361405831 0.07940214955996157
vn -0.9819084037482184 -0.18928591537910863 0.005169998812245379
vn -0.9527219445509995 -0.30363279299306056 -0.0113147421621338
vn -0.9512650002872481 -0.30391215103259434 0.05227144232985213
vn -0.9819084037482184 -0.18928591537910863 0.005169998812245379
vn -0.5354541930725156 0.7757032812008167 0.3340257874107142
vn -0.6118179054199072 0.5535715361022074 0.5650109777916175
vn 0.11884125833004482 0.9534213951128734 0.2772442941875514
vn 0.22010618772906854 0.9723321280611735 -0.07825278821489727
vn -0.5354541930725156 0.7757032812008167 0.3340257874107142
vn 0.11884125833004482 0.9534213951128734 0.2772442941875514
vn -0.07214242160105268 0.9911859717786091 -0.11111183714991993
vn -0.6380100933255692 0.6581449002330161 -0.39973542639097137
vn -0.3750334549307834 0.8507766426970595 -0.3681426515955469
vn 0.11884125833004482 0.9534213951128734 0.2772442941875514
vn -0.004411593136817253 0.9795505531590964 0.2011498238918026
vn -0.0161464065730659 0.9998377626093727 0.0079838596593809
vn 0.22010618772906854 0.9723321280611735 -0.07825278821489727
vn 0.11884125833004482 0.9534213951128734 0.2772442941875514
vn -0.0161464065730659 0.9998377626093727 0.0079838596593809
vn 0.11884125833004482 0.9534213951128734 0.2772442941875514
vn -0.6118179054199072 0.5535715361022074 0.5650109777916175
vn -0.004411593136817253 0.9795505531590964 0.2011498238918026
vn -0.9569069286619032 -0.28844282451584835 -0.03361349229346441
vn -0.9439145382867492 -0.3246891610909964 -0.06001910596583359
vn -0.9541886228723621 -0.2990815459298086 -0.008619794961647113
vn -0.9527219445509995 -0.30363279299306056 -0.0113147421621338
vn -0.9569069286619032 -0.28844282451584835 -0.03361349229346441
vn -0.9541886228723621 -0.2990815459298086 -0.008619794961647113
vn 0.22010618772906854 0.9723321280611735 -0.07825278821489727
vn 0.3068674204409445 0.9517522714824055 4.4348304007659096e-8
vn -0.5354541930725156 0.7757032812008167 0.3340257874107142
f 1/1/1 2/2/2 3/3/3
f 4/4/4 5/5/5 6/6/6
f 7/7/7 8/8/8 9/9/9
f 10/10/10 11/11/11 12/12/12
f 13/13/13 14/14/14 15/15/15
f 16/16/16 17/17/17 18/18/18
f 19/19/19 20/20/20 21/21/21
f 22/22/22 23/23/23 24/24/24
f 25/25/25 26/26/26 27/27/27
f 28/28/28 29/29/29 30/30/30
f 31/31/31 32/32/32 33/33/33
f 34/34/34 35/35/35 36/36/36
f 37/37/37 38/38/38 39/39/39
f 40/40/40 41/41/41 42/42/42
f 43/43/43 44/44/44 45/45/45
f 46/46/46 47/47/47 48/48/48
f 49/49/49 50/50/50 51/51/51
f 52/52/52 53/53/53 54/54/54
f 55/55/55 56/56/56 57/57/57
f 58/58/58 59/59/59 60/60/60
f 61/61/61 62/62/62 63/63/63
f 64/64/64 65/65/65 66/66/66
f 67/67/67 68/68/68 69/69/69
f 70/70/70 71/71/71 72/72/72
f 73/73/73 74/74/74 75/75/75
f 76/76/76 77/77/77 78/78/78
f 79/79/79 80/80/80 81/81/81
f 82/82/82 83/83/83 84/84/84
