mtllib ArcadaCompleta.mtl
o 598
usemtl Enamel2
v 2.055079936981201 -23.748132705688477 2.4344793702508074
v 1.4092999696731567 -21.733882904052734 2.1849693204308616
v 1.463539958000183 -23.026962280273438 1.8560794736291035
v 1.105530023574829 -21.562562942504883 -1.0065705631827246
v 1.3886499404907227 -21.905412673950195 -2.46261058794011
v 1.463539958000183 -23.026962280273438 -1.8592306231116191
v 0.9785779714584351 -20.486682891845703 0.9367174054528346
v 0.7837979793548584 -20.27599334716797 -0.0015765816173756778
v 0.9966989755630493 -20.751163482666016 -0.0015765816173757832
v 1.105530023574829 -21.562562942504883 1.00341941370021
v 0.9785779714584351 -20.486682891845703 0.9367174054528346
v 0.9966989755630493 -20.751163482666016 -0.0015765816173757832
v 1.105530023574829 -21.562562942504883 -1.0065705631827246
v 0.8738740086555481 -20.486682891845703 -0.9398705814932714
v 1.1426399946212769 -20.549882888793945 -2.0420504664038552
v 1.3886499404907227 -21.905412673950195 -2.46261058794011
v 1.105530023574829 -21.562562942504883 -1.0065705631827246
v 1.1426399946212769 -20.549882888793945 -2.0420504664038552
v 1.463539958000183 -23.026962280273438 1.8560794736291035
v 1.4092999696731567 -21.733882904052734 2.1849693204308616
v 1.105530023574829 -21.562562942504883 1.00341941370021
v 0.7837979793548584 -20.27599334716797 -0.0015765816173756778
v 0.8738740086555481 -20.486682891845703 -0.9398705814932714
v 1.105530023574829 -21.562562942504883 -1.0065705631827246
v 0.9966989755630493 -20.751163482666016 -0.0015765816173757832
v 0.7837979793548584 -20.27599334716797 -0.0015765816173756778
v 1.105530023574829 -21.562562942504883 -1.0065705631827246
v 0.9785779714584351 -20.486682891845703 0.9367174054528346
v 1.105530023574829 -21.562562942504883 1.00341941370021
v 1.4092999696731567 -21.733882904052734 2.1849693204308616
v 1.1539900302886963 -20.54989242553711 1.993159427776443
v 0.9785779714584351 -20.486682891845703 0.9367174054528346
v 1.4092999696731567 -21.733882904052734 2.1849693204308616
vt 0.09682050347328186 0.0036638379096984863
vt 0.1381160020828247 0.21628403663635254
vt 0.19254900515079498 0.07978600263595581
vt 0.6663309931755066 0.23436999320983887
vt 0.9073119759559631 0.1981779932975769
vt 0.8074510097503662 0.07978600263595581
vt 0.34470799565315247 0.34793996810913086
vt 0.5 0.37018096446990967
vt 0.5 0.32002103328704834
vt 0.3336690068244934 0.23436999320983887
vt 0.34470799565315247 0.34793996810913086
vt 0.5 0.32002103328704834
vt 0.6663309931755066 0.23436999320983887
vt 0.6552919745445251 0.34793996810913086
vt 0.8377079963684082 0.34126901626586914
vt 0.9073119759559631 0.1981779932975769
vt 0.6663309931755066 0.23436999320983887
vt 0.8377079963684082 0.34126901626586914
vt 0.19254900515079498 0.07978600263595581
vt 0.1381160020828247 0.21628403663635254
vt 0.3336690068244934 0.23436999320983887
vt 0.5 0.37018096446990967
vt 0.6552919745445251 0.34793996810913086
vt 0.6663309931755066 0.23436999320983887
vt 0.5 0.32002103328704834
vt 0.5 0.37018096446990967
vt 0.6663309931755066 0.23436999320983887
vt 0.34470799565315247 0.34793996810913086
vt 0.3336690068244934 0.23436999320983887
vt 0.1381160020828247 0.21628403663635254
vt 0.16986100375652313 0.3412669897079468
vt 0.34470799565315247 0.34793996810913086
vt 0.1381160020828247 0.21628403663635254
vn -0.7917024919328518 -0.18156943825567037 0.5833006972041378
vn -0.9437923605061933 -0.14074326421762876 0.29907743784430524
vn -0.9093004149231446 -0.13799658523879288 0.3925935530329422
vn -0.9756041330207411 -0.1823045716739004 -0.12231769610176549
vn -0.9777774754438179 -0.13829746762678527 -0.1575595727422876
vn -0.9766905170820994 -0.14856765955985454 -0.15492993375977576
vn -0.9760872861883714 -0.1685784185306574 0.13724039692132514
vn -0.9491269370990284 -0.30918901450270503 0.05966750023139283
vn -0.9605837397024553 -0.26300836773399994 0.09003042553016637
vn -0.9785185100183639 -0.10466411328902686 0.17761460790391853
vn -0.9760872861883714 -0.1685784185306574 0.13724039692132514
vn -0.9605837397024553 -0.26300836773399994 0.09003042553016637
vn -0.9756041330207411 -0.1823045716739004 -0.12231769610176549
vn -0.9692529952495199 -0.19979245788640182 -0.14363705988199832
vn -0.9036569369161768 0.005059744570424553 -0.42822720528728103
vn -0.9777774754438179 -0.13829746762678527 -0.1575595727422876
vn -0.9756041330207411 -0.1823045716739004 -0.12231769610176549
vn -0.9036569369161768 0.005059744570424553 -0.42822720528728103
vn -0.9093004149231446 -0.13799658523879288 0.3925935530329422
vn -0.9437923605061933 -0.14074326421762876 0.29907743784430524
vn -0.9785185100183639 -0.10466411328902686 0.17761460790391853
vn -0.9491269370990284 -0.30918901450270503 0.05966750023139283
vn -0.9692529952495199 -0.19979245788640182 -0.14363705988199832
vn -0.9756041330207411 -0.1823045716739004 -0.12231769610176549
vn -0.9605837397024553 -0.26300836773399994 0.09003042553016637
vn -0.9491269370990284 -0.30918901450270503 0.05966750023139283
vn -0.9756041330207411 -0.1823045716739004 -0.12231769610176549
vn -0.9760872861883714 -0.1685784185306574 0.13724039692132514
vn -0.9785185100183639 -0.10466411328902686 0.17761460790391853
vn -0.9437923605061933 -0.14074326421762876 0.29907743784430524
vn -0.8016933676971448 0.0065641760536246435 0.5976994694519541
vn -0.9760872861883714 -0.1685784185306574 0.13724039692132514
vn -0.9437923605061933 -0.14074326421762876 0.29907743784430524
f 1/1/1 2/2/2 3/3/3
f 4/4/4 5/5/5 6/6/6
f 7/7/7 8/8/8 9/9/9
f 10/10/10 11/11/11 12/12/12
f 13/13/13 14/14/14 15/15/15
f 16/16/16 17/17/17 18/18/18
f 19/19/19 20/20/20 21/21/21
f 22/22/22 23/23/23 24/24/24
f 25/25/25 26/26/26 27/27/27
f 28/28/28 29/29/29 30/30/30
f 31/31/31 32/32/32 33/33/33
