mtllib ArcadaCompleta.mtl
o 598_1
usemtl M
v 0.6344689726829529 -18.8153018951416 0.9137483979607695
v 0.39291998744010925 -16.794443130493164 0.7595414067650912
v 0.305527001619339 -16.794452667236328 -0.0015765816173749047
v 0.6217550039291382 -18.815311431884766 -0.0015765816173753534
v 0.6344689726829529 -18.8153018951416 0.9137483979607695
v 0.305527001619339 -16.794452667236328 -0.0015765816173749047
v 0.324741005897522 -14.334632873535156 -0.017654780760895848
v 0.23550699651241302 -14.314302444458008 -0.49326558457363806
v 0.305527001619339 -16.794452667236328 -0.0015765816173749047
v 0.39291998744010925 -16.794443130493164 0.7595414067650912
v 0.324741005897522 -14.334632873535156 -0.017654780760895848
v 0.305527001619339 -16.794452667236328 -0.0015765816173749047
v 0.324768990278244 -14.73972225189209 -0.8501955722426293
v 0.5261669754981995 -16.794422149658203 -0.730259582862747
v 0.305527001619339 -16.794452667236328 -0.0015765816173749047
v 0.23550699651241302 -14.314302444458008 -0.49326558457363806
v 0.324768990278244 -14.73972225189209 -0.8501955722426293
v 0.305527001619339 -16.794452667236328 -0.0015765816173749047
v 1.619920015335083 -18.81519317626953 2.189629449977981
v 0.921645998954773 -18.815282821655273 1.7081993962670439
v 1.1539900302886963 -20.54989242553711 1.993159427776443
v 1.6815500259399414 -20.549823760986328 2.5899394894982444
v 1.619920015335083 -18.81519317626953 2.189629449977981
v 1.1539900302886963 -20.54989242553711 1.993159427776443
v 0.6344689726829529 -18.8153018951416 0.9137483979607695
v 0.9785779714584351 -20.486682891845703 0.9367174054528346
v 1.1539900302886963 -20.54989242553711 1.993159427776443
v 0.921645998954773 -18.815282821655273 1.7081993962670439
v 0.6344689726829529 -18.8153018951416 0.9137483979607695
v 1.1539900302886963 -20.54989242553711 1.993159427776443
v 0.7563319802284241 -18.81527328491211 -1.0759805296515352
v 0.8738740086555481 -20.486682891845703 -0.9398705814932714
v 0.7837979793548584 -20.27599334716797 -0.0015765816173756778
v 0.6217550039291382 -18.815311431884766 -0.0015765816173753534
v 0.7563319802284241 -18.81527328491211 -1.0759805296515352
v 0.7837979793548584 -20.27599334716797 -0.0015765816173756778
v 0.921645998954773 -18.815282821655273 1.7081993962670439
v 0.5832359790802002 -16.79443359375 1.1117893601800084
v 0.39291998744010925 -16.794443130493164 0.7595414067650912
v 0.6344689726829529 -18.8153018951416 0.9137483979607695
v 0.921645998954773 -18.815282821655273 1.7081993962670439
v 0.39291998744010925 -16.794443130493164 0.7595414067650912
v 1.5227700471878052 -16.794322967529297 1.3971294309044957
v 0.5832359790802002 -16.79443359375 1.1117893601800084
v 0.921645998954773 -18.815282821655273 1.7081993962670439
v 1.619920015335083 -18.81519317626953 2.189629449977981
v 1.5227700471878052 -16.794322967529297 1.3971294309044957
v 0.921645998954773 -18.815282821655273 1.7081993962670439
v 1.1426399946212769 -20.549882888793945 -2.0420504664038552
v 0.8738740086555481 -20.486682891845703 -0.9398705814932714
v 0.7563319802284241 -18.81527328491211 -1.0759805296515352
v 0.5261669754981995 -16.794422149658203 -0.730259582862747
v 0.7563319802284241 -18.81527328491211 -1.0759805296515352
v 0.6217550039291382 -18.815311431884766 -0.0015765816173753534
v 0.305527001619339 -16.794452667236328 -0.0015765816173749047
v 0.5261669754981995 -16.794422149658203 -0.730259582862747
v 0.6217550039291382 -18.815311431884766 -0.0015765816173753534
v 0.9785779714584351 -20.486682891845703 0.9367174054528346
v 0.6344689726829529 -18.8153018951416 0.9137483979607695
v 0.6217550039291382 -18.815311431884766 -0.0015765816173753534
v 0.7837979793548584 -20.27599334716797 -0.0015765816173756778
v 0.9785779714584351 -20.486682891845703 0.9367174054528346
v 0.6217550039291382 -18.815311431884766 -0.0015765816173753534
v 0.324768990278244 -14.73972225189209 -0.8501955722426293
v 1.1081700325012207 -15.76705265045166 -0.8628035639380336
v 1.1019500494003296 -16.794382095336914 -0.8754106019591215
v 0.5261669754981995 -16.794422149658203 -0.730259582862747
v 0.324768990278244 -14.73972225189209 -0.8501955722426293
v 1.1019500494003296 -16.794382095336914 -0.8754106019591215
v 0.39291998744010925 -16.794443130493164 0.7595414067650912
v 0.5832359790802002 -16.79443359375 1.1117893601800084
v 0.324741005897522 -14.334632873535156 -0.017654780760895848
v 0.324741005897522 -14.334632873535156 -0.017654780760895848
v 0.5832359790802002 -16.79443359375 1.1117893601800084
v 1.5227700471878052 -16.794322967529297 1.3971294309044957
v 1.5191099643707275 -15.758862495422363 0.861257388725388
v 0.324741005897522 -14.334632873535156 -0.017654780760895848
v 1.5227700471878052 -16.794322967529297 1.3971294309044957
v 0.7563319802284241 -18.81527328491211 -1.0759805296515352
v 1.2356300354003906 -18.81523323059082 -1.1708305929755098
v 1.7750600576400757 -20.549823760986328 -2.3389304731940164
v 1.1426399946212769 -20.549882888793945 -2.0420504664038552
v 0.7563319802284241 -18.81527328491211 -1.0759805296515352
v 1.7750600576400757 -20.549823760986328 -2.3389304731940164
v 1.2356300354003906 -18.81523323059082 -1.1708305929755098
v 1.1019500494003296 -16.794382095336914 -0.8754106019591215
v 1.839460015296936 -18.815181732177734 -1.2770405863379366
v 1.7750600576400757 -20.549823760986328 -2.3389304731940164
v 1.2356300354003906 -18.81523323059082 -1.1708305929755098
v 1.839460015296936 -18.815181732177734 -1.2770405863379366
v 0.5261669754981995 -16.794422149658203 -0.730259582862747
v 1.1019500494003296 -16.794382095336914 -0.8754106019591215
v 1.2356300354003906 -18.81523323059082 -1.1708305929755098
v 0.7563319802284241 -18.81527328491211 -1.0759805296515352
v 0.5261669754981995 -16.794422149658203 -0.730259582862747
v 1.2356300354003906 -18.81523323059082 -1.1708305929755098
vt 0.3485090136528015 0.5243719816207886
vt 0.3740310072898865 0.7376949787139893
vt 0.5 0.7376940250396729
vt 0.5 0.5243710279464722
vt 0.3485090136528015 0.5243719816207886
vt 0.5 0.7376940250396729
vt 0.5026609897613525 0.9973539710044861
vt 0.5813770294189453 0.9994999766349792
vt 0.5 0.7376940250396729
vt 0.3740310072898865 0.7376949787139893
vt 0.5026609897613525 0.9973539710044861
vt 0.5 0.7376940250396729
vt 0.6404500007629395 0.9545930027961731
vt 0.6205999851226807 0.7376970052719116
vt 0.5 0.7376940250396729
vt 0.5813770294189453 0.9994999766349792
vt 0.6404500007629395 0.9545930027961731
vt 0.5 0.7376940250396729
vt 0.7243710160255432 0.524383008480072
vt 0.8631410002708435 0.5243740081787109
vt 0.8169670104980469 0.3412669897079468
vt 0.0710911974310875 0.3412749767303467
vt 0.13734400272369385 0.524383008480072
vt 0.16986100375652313 0.3412669897079468
vt 0.3485090136528015 0.5243719816207886
vt 0.34470799565315247 0.34793996810913086
vt 0.16986100375652313 0.3412669897079468
vt 0.2170249968767166 0.5243740081787109
vt 0.3485090136528015 0.5243719816207886
vt 0.16986100375652313 0.3412669897079468
vt 0.677819013595581 0.5243750214576721
vt 0.6552919745445251 0.34793996810913086
vt 0.5 0.37018096446990967
vt 0.5 0.5243710279464722
vt 0.677819013595581 0.5243750214576721
vt 0.5 0.37018096446990967
vt 0.2170249968767166 0.5243740081787109
vt 0.3157329857349396 0.7376970052719116
vt 0.3740310072898865 0.7376949787139893
vt 0.3485090136528015 0.5243719816207886
vt 0.2170249968767166 0.5243740081787109
vt 0.3740310072898865 0.7376949787139893
vt 0.743677020072937 0.7377079725265503
vt 0.9303950071334839 0.7376970052719116
vt 0.8631410002708435 0.5243740081787109
vt 0.7243710160255432 0.524383008480072
vt 0.743677020072937 0.7377079725265503
vt 0.8631410002708435 0.5243740081787109
vt 0.8377079963684082 0.34126901626586914
vt 0.6552919745445251 0.34793996810913086
vt 0.677819013595581 0.5243750214576721
vt 0.6205999851226807 0.7376970052719116
vt 0.677819013595581 0.5243750214576721
vt 0.5 0.5243710279464722
vt 0.5 0.7376940250396729
vt 0.6205999851226807 0.7376970052719116
vt 0.5 0.5243710279464722
vt 0.34470799565315247 0.34793996810913086
vt 0.3485090136528015 0.5243719816207886
vt 0.5 0.5243710279464722
vt 0.5 0.37018096446990967
vt 0.34470799565315247 0.34793996810913086
vt 0.5 0.5243710279464722
vt 0.01823900081217289 0.9545930027961731
vt 0.17392699420452118 0.8461470007896423
vt 0.17269200086593628 0.7377020120620728
vt 0.05826349928975105 0.7376970052719116
vt 0.01823900081217289 0.9545930027961731
vt 0.17269200086593628 0.7377020120620728
vt 0.3740310072898865 0.7376949787139893
vt 0.3157329857349396 0.7376970052719116
vt 0.5026609897613525 0.9973539710044861
vt 0.9817659854888916 0.9973539710044861
vt 0.9303950071334839 0.7376970052719116
vt 0.743677020072937 0.7377079725265503
vt 0.7444049715995789 0.8470110297203064
vt 0.9817659854888916 0.9973539710044861
vt 0.743677020072937 0.7377079725265503
vt 0.10400500148534775 0.5243750214576721
vt 0.1992570012807846 0.5243790149688721
vt 0.3064599931240082 0.3412749767303467
vt 0.18077799677848816 0.34126901626586914
vt 0.10400500148534775 0.5243750214576721
vt 0.3064599931240082 0.3412749767303467
vt 0.1992570012807846 0.5243790149688721
vt 0.17269200086593628 0.7377020120620728
vt 0.3192580044269562 0.5243840217590332
vt 0.3064599931240082 0.3412749767303467
vt 0.1992570012807846 0.5243790149688721
vt 0.3192580044269562 0.5243840217590332
vt 0.05826349928975105 0.7376970052719116
vt 0.17269200086593628 0.7377020120620728
vt 0.1992570012807846 0.5243790149688721
vt 0.10400500148534775 0.5243750214576721
vt 0.05826349928975105 0.7376970052719116
vt 0.1992570012807846 0.5243790149688721
vn -0.9772898164474867 -0.1399748950859045 0.15909633375325724
vn -0.9634347724428506 -0.026847767377688795 0.2665945172632516
vn -0.9953728928742234 -0.08591290806440911 -0.043032271135929126
vn -0.9889318742957957 -0.1351359079769257 -0.0612538519364804
vn -0.9772898164474867 -0.1399748950859045 0.15909633375325724
vn -0.9953728928742234 -0.08591290806440911 -0.043032271135929126
vn -0.9736463631944078 0.037493048590273734 0.22496006477975344
vn -0.999590507951468 -0.025743940635518037 0.012492635185626176
vn -0.9953728928742234 -0.08591290806440911 -0.043032271135929126
vn -0.9634347724428506 -0.026847767377688795 0.2665945172632516
vn -0.9736463631944078 0.037493048590273734 0.22496006477975344
vn -0.9953728928742234 -0.08591290806440911 -0.043032271135929126
vn -0.9664398293379611 -0.09028060793243659 -0.24050669034470168
vn -0.9686743782084267 -0.11388392284017693 -0.2206816737317586
vn -0.9953728928742234 -0.08591290806440911 -0.043032271135929126
vn -0.999590507951468 -0.025743940635518037 0.012492635185626176
vn -0.9664398293379611 -0.09028060793243659 -0.24050669034470168
vn -0.9953728928742234 -0.08591290806440911 -0.043032271135929126
vn -0.6176972288742318 0.1668751659666385 0.7685068720738296
vn -0.45687930346950123 0.202599908230154 0.8661492823101318
vn -0.8016933676971448 0.0065641760536246435 0.5976994694519541
vn -0.7433303088124376 0.1252319827866844 0.6570974071537049
vn -0.6176972288742318 0.1668751659666385 0.7685068720738296
vn -0.9255380980945879 -0.06377237865980513 0.373245646586164
vn -0.9772898164474867 -0.1399748950859045 0.15909633375325724
vn -0.978266527536247 -0.17327457495415013 0.1138882029739336
vn -0.9255380980945879 -0.06377237865980513 0.373245646586164
vn -0.9278538242193781 -0.06429361149454506 0.36736033046923283
vn -0.9772898164474867 -0.1399748950859045 0.15909633375325724
vn -0.9255380980945879 -0.06377237865980513 0.373245646586164
vn -0.9856655508409643 -0.09098570161252466 -0.14207400883854593
vn -0.9833684981854243 -0.08233845331001452 -0.16188506998194088
vn -0.9950209693005734 -0.09840693908629118 -0.015790661538207948
vn -0.9889318742957957 -0.1351359079769257 -0.0612538519364804
vn -0.9856655508409643 -0.09098570161252466 -0.14207400883854593
vn -0.9950209693005734 -0.09840693908629118 -0.015790661538207948
vn -0.9278538242193781 -0.06429361149454506 0.36736033046923283
vn -0.8778960391544139 0.06574506376693583 0.4743164882515401
vn -0.9634347724428506 -0.026847767377688795 0.2665945172632516
vn -0.9772898164474867 -0.1399748950859045 0.15909633375325724
vn -0.9278538242193781 -0.06429361149454506 0.36736033046923283
vn -0.9634347724428506 -0.026847767377688795 0.2665945172632516
vn -0.31110501813437513 0.3365335521168067 0.8887962848658036
vn -0.27600706716918966 0.31323639397159314 0.9086820458027854
vn -0.45687930346950123 0.202599908230154 0.8661492823101318
vn -0.6176972288742318 0.1668751659666385 0.7685068720738296
vn -0.31110501813437513 0.3365335521168067 0.8887962848658036
vn -0.45687930346950123 0.202599908230154 0.8661492823101318
vn -0.9689866406526633 -0.08697974773528974 -0.23129940276743444
vn -0.9833684981854243 -0.08233845331001452 -0.16188506998194088
vn -0.9856655508409643 -0.09098570161252466 -0.14207400883854593
vn -0.9686743782084267 -0.11388392284017693 -0.2206816737317586
vn -0.9856655508409643 -0.09098570161252466 -0.14207400883854593
vn -0.9889318742957957 -0.1351359079769257 -0.0612538519364804
vn -0.9953728928742234 -0.08591290806440911 -0.043032271135929126
vn -0.9686743782084267 -0.11388392284017693 -0.2206816737317586
vn -0.9889318742957957 -0.1351359079769257 -0.0612538519364804
vn -0.978266527536247 -0.17327457495415013 0.1138882029739336
vn -0.9772898164474867 -0.1399748950859045 0.15909633375325724
vn -0.9889318742957957 -0.1351359079769257 -0.0612538519364804
vn -0.9950209693005734 -0.09840693908629118 -0.015790661538207948
vn -0.978266527536247 -0.17327457495415013 0.1138882029739336
vn -0.9889318742957957 -0.1351359079769257 -0.0612538519364804
vn -0.14776092774434266 -0.0437654808930207 -0.9880542955295188
vn -0.0000011916160836658204 0.012270744794778068 -0.9999247115762074
vn -0.18087083184817385 0.050823308762224295 -0.9821928188869073
vn -0.22955173337982931 0.057522379072320835 -0.9715951716677971
vn -0.14776092774434266 -0.0437654808930207 -0.9880542955295188
vn -0.18087083184817385 0.050823308762224295 -0.9821928188869073
vn -0.9634347724428506 -0.026847767377688795 0.2665945172632516
vn -0.8778960391544139 0.06574506376693583 0.4743164882515401
vn -0.9736463631944078 0.037493048590273734 0.22496006477975344
vn -0.21282786433866935 0.4072148274728486 0.8881893854619629
vn -0.27600706716918966 0.31323639397159314 0.9086820458027854
vn -0.31110501813437513 0.3365335521168067 0.8887962848658036
vn -0.10534849809377797 0.45676717113407234 0.883326352671289
vn -0.21282786433866935 0.4072148274728486 0.8881893854619629
vn -0.31110501813437513 0.3365335521168067 0.8887962848658036
vn -0.26924850328300903 0.3550198812884014 -0.8952464059519195
vn -0.18809566076422438 0.28979915649586224 -0.93842233098747
vn -0.2459792033435002 0.4706703422875784 -0.8473273631916951
vn -0.9036569369161768 0.005059744570424553 -0.42822720528728103
vn -0.26924850328300903 0.3550198812884014 -0.8952464059519195
vn -0.2459792033435002 0.4706703422875784 -0.8473273631916951
vn -0.18809566076422438 0.28979915649586224 -0.93842233098747
vn -0.18087083184817385 0.050823308762224295 -0.9821928188869073
vn -0.16339531693438505 0.3326658632233364 -0.9287816717882542
vn -0.2459792033435002 0.4706703422875784 -0.8473273631916951
vn -0.18809566076422438 0.28979915649586224 -0.93842233098747
vn -0.16339531693438505 0.3326658632233364 -0.9287816717882542
vn -0.22955173337982931 0.057522379072320835 -0.9715951716677971
vn -0.18087083184817385 0.050823308762224295 -0.9821928188869073
vn -0.18809566076422438 0.28979915649586224 -0.93842233098747
vn -0.26924850328300903 0.3550198812884014 -0.8952464059519195
vn -0.22955173337982931 0.057522379072320835 -0.9715951716677971
vn -0.18809566076422438 0.28979915649586224 -0.93842233098747
f 1/1/1 2/2/2 3/3/3
f 4/4/4 5/5/5 6/6/6
f 7/7/7 8/8/8 9/9/9
f 10/10/10 11/11/11 12/12/12
f 13/13/13 14/14/14 15/15/15
f 16/16/16 17/17/17 18/18/18
f 19/19/19 20/20/20 21/21/21
f 22/22/22 23/23/23 24/24/24
f 25/25/25 26/26/26 27/27/27
f 28/28/28 29/29/29 30/30/30
f 31/31/31 32/32/32 33/33/33
f 34/34/34 35/35/35 36/36/36
f 37/37/37 38/38/38 39/39/39
f 40/40/40 41/41/41 42/42/42
f 43/43/43 44/44/44 45/45/45
f 46/46/46 47/47/47 48/48/48
f 49/49/49 50/50/50 51/51/51
f 52/52/52 53/53/53 54/54/54
f 55/55/55 56/56/56 57/57/57
f 58/58/58 59/59/59 60/60/60
f 61/61/61 62/62/62 63/63/63
f 64/64/64 65/65/65 66/66/66
f 67/67/67 68/68/68 69/69/69
f 70/70/70 71/71/71 72/72/72
f 73/73/73 74/74/74 75/75/75
f 76/76/76 77/77/77 78/78/78
f 79/79/79 80/80/80 81/81/81
f 82/82/82 83/83/83 84/84/84
f 85/85/85 86/86/86 87/87/87
f 88/88/88 89/89/89 90/90/90
f 91/91/91 92/92/92 93/93/93
f 94/94/94 95/95/95 96/96/96
