mtllib ArcadaCompleta.mtl
o 608
usemtl Enamel2
v 8.383540153503418 -23.748132705688477 2.4344793702508074
v 7.737760066986084 -21.733882904052734 2.1849693204308616
v 7.791999816894531 -23.026962280273438 1.8560794736291035
v 7.433990001678467 -21.562562942504883 -1.0065705631827246
v 7.717100143432617 -21.905412673950195 -2.46261058794011
v 7.791999816894531 -23.026962280273438 -1.8592306231116191
v 7.307030200958252 -20.486682891845703 0.9367174054528346
v 7.112249851226807 -20.27599334716797 -0.0015765816173756778
v 7.325150012969971 -20.751163482666016 -0.0015765816173757832
v 7.433990001678467 -21.562562942504883 1.00341941370021
v 7.307030200958252 -20.486682891845703 0.9367174054528346
v 7.325150012969971 -20.751163482666016 -0.0015765816173757832
v 7.433990001678467 -21.562562942504883 -1.0065705631827246
v 7.202330112457275 -20.486682891845703 -0.9398705814932714
v 7.471089839935303 -20.549882888793945 -2.0420504664038552
v 7.717100143432617 -21.905412673950195 -2.46261058794011
v 7.433990001678467 -21.562562942504883 -1.0065705631827246
v 7.471089839935303 -20.549882888793945 -2.0420504664038552
v 7.791999816894531 -23.026962280273438 1.8560794736291035
v 7.737760066986084 -21.733882904052734 2.1849693204308616
v 7.433990001678467 -21.562562942504883 1.00341941370021
v 7.112249851226807 -20.27599334716797 -0.0015765816173756778
v 7.202330112457275 -20.486682891845703 -0.9398705814932714
v 7.433990001678467 -21.562562942504883 -1.0065705631827246
v 7.325150012969971 -20.751163482666016 -0.0015765816173757832
v 7.112249851226807 -20.27599334716797 -0.0015765816173756778
v 7.433990001678467 -21.562562942504883 -1.0065705631827246
v 7.307030200958252 -20.486682891845703 0.9367174054528346
v 7.433990001678467 -21.562562942504883 1.00341941370021
v 7.737760066986084 -21.733882904052734 2.1849693204308616
v 7.482439994812012 -20.54989242553711 1.993159427776443
v 7.307030200958252 -20.486682891845703 0.9367174054528346
v 7.737760066986084 -21.733882904052734 2.1849693204308616
vt 0.09682050347328186 0.0036638379096984863
vt 0.1381160020828247 0.21628403663635254
vt 0.19254900515079498 0.07978600263595581
vt 0.6663309931755066 0.23436999320983887
vt 0.9073119759559631 0.1981779932975769
vt 0.8074510097503662 0.07978600263595581
vt 0.34470799565315247 0.34793996810913086
vt 0.5 0.37018096446990967
vt 0.5 0.32002103328704834
vt 0.3336690068244934 0.23436999320983887
vt 0.34470799565315247 0.34793996810913086
vt 0.5 0.32002103328704834
vt 0.6663309931755066 0.23436999320983887
vt 0.6552919745445251 0.34793996810913086
vt 0.8377079963684082 0.34126901626586914
vt 0.9073119759559631 0.1981779932975769
vt 0.6663309931755066 0.23436999320983887
vt 0.8377079963684082 0.34126901626586914
vt 0.19254900515079498 0.07978600263595581
vt 0.1381160020828247 0.21628403663635254
vt 0.3336690068244934 0.23436999320983887
vt 0.5 0.37018096446990967
vt 0.6552919745445251 0.34793996810913086
vt 0.6663309931755066 0.23436999320983887
vt 0.5 0.32002103328704834
vt 0.5 0.37018096446990967
vt 0.6663309931755066 0.23436999320983887
vt 0.34470799565315247 0.34793996810913086
vt 0.3336690068244934 0.23436999320983887
vt 0.1381160020828247 0.21628403663635254
vt 0.16986100375652313 0.3412669897079468
vt 0.34470799565315247 0.34793996810913086
vt 0.1381160020828247 0.21628403663635254
vn -0.791702248510625 -0.18156936260232592 0.5833010511454664
vn -0.9437920557755344 -0.140746958705163 0.2990766608584459
vn -0.9093003263126569 -0.1379964648177318 0.3925938005948441
vn -0.9756040638502422 -0.18230763199913466 -0.12231368653491129
vn -0.9777781493320735 -0.13830095511773421 -0.157552329409209
vn -0.9766910380807585 -0.14857205305316978 -0.15492243602621475
vn -0.976086231857645 -0.1685848189398061 0.1372400335214781
vn -0.9491269163747954 -0.3091898720188584 0.05966338620824458
vn -0.9605830961836334 -0.2630109503753485 0.09002974680026904
vn -0.978517994575195 -0.10466811649679876 0.1776150885526099
vn -0.976086231857645 -0.1685848189398061 0.1372400335214781
vn -0.9605830961836334 -0.2630109503753485 0.09002974680026904
vn -0.9756040638502422 -0.18230763199913466 -0.12231368653491129
vn -0.9692525092385434 -0.1997959156793483 -0.1436355297711467
vn -0.9036589541617401 0.005058006670420483 -0.4282229689447215
vn -0.9777781493320735 -0.13830095511773421 -0.157552329409209
vn -0.9756040638502422 -0.18230763199913466 -0.12231368653491129
vn -0.9036589541617401 0.005058006670420483 -0.4282229689447215
vn -0.9093003263126569 -0.1379964648177318 0.3925938005948441
vn -0.9437920557755344 -0.140746958705163 0.2990766608584459
vn -0.978517994575195 -0.10466811649679876 0.1776150885526099
vn -0.9491269163747954 -0.3091898720188584 0.05966338620824458
vn -0.9692525092385434 -0.1997959156793483 -0.1436355297711467
vn -0.9756040638502422 -0.18230763199913466 -0.12231368653491129
vn -0.9605830961836334 -0.2630109503753485 0.09002974680026904
vn -0.9491269163747954 -0.3091898720188584 0.05966338620824458
vn -0.9756040638502422 -0.18230763199913466 -0.12231368653491129
vn -0.976086231857645 -0.1685848189398061 0.1372400335214781
vn -0.978517994575195 -0.10466811649679876 0.1776150885526099
vn -0.9437920557755344 -0.140746958705163 0.2990766608584459
vn -0.8016925721310769 0.006561007081533305 0.5977005713364627
vn -0.976086231857645 -0.1685848189398061 0.1372400335214781
vn -0.9437920557755344 -0.140746958705163 0.2990766608584459
f 1/1/1 2/2/2 3/3/3
f 4/4/4 5/5/5 6/6/6
f 7/7/7 8/8/8 9/9/9
f 10/10/10 11/11/11 12/12/12
f 13/13/13 14/14/14 15/15/15
f 16/16/16 17/17/17 18/18/18
f 19/19/19 20/20/20 21/21/21
f 22/22/22 23/23/23 24/24/24
f 25/25/25 26/26/26 27/27/27
f 28/28/28 29/29/29 30/30/30
f 31/31/31 32/32/32 33/33/33
