mtllib ArcadaCompleta.mtl
o D11C_CV
usemtl Esmalte
v -7.69242000579834 24.411333084106445 2.3635707206358405
v -6.279560089111328 24.411333084106445 3.0024707622160407
v -6.125179767608643 25.789974212646484 3.2931406802763434
v -7.69242000579834 24.411333084106445 2.3635707206358405
v -6.125179767608643 25.789974212646484 3.2931406802763434
v -7.395820140838623 25.916702270507812 2.585960657082984
v -1.3090900182724 24.411333084106445 2.3635707206358405
v -1.5521600246429443 25.443742752075195 2.3896508521666022
v -2.8763198852539062 25.789974212646484 3.2931406802763434
v -1.3090900182724 24.411333084106445 2.3635707206358405
v -2.8763198852539062 25.789974212646484 3.2931406802763434
v -2.721940040588379 24.411333084106445 3.0024707622160407
v -4.5007500648498535 24.411333084106445 3.2987206287016364
v -2.721940040588379 24.411333084106445 3.0024707622160407
v -2.8763198852539062 25.789974212646484 3.2931406802763434
v -4.5007500648498535 24.411333084106445 3.2987206287016364
v -2.8763198852539062 25.789974212646484 3.2931406802763434
v -4.5007500648498535 25.789974212646484 3.4969907111753913
v -4.5007500648498535 25.789974212646484 3.4969907111753913
v -6.125179767608643 25.789974212646484 3.2931406802763434
v -6.279560089111328 24.411333084106445 3.0024707622160407
v -4.5007500648498535 25.789974212646484 3.4969907111753913
v -6.279560089111328 24.411333084106445 3.0024707622160407
v -4.5007500648498535 24.411333084106445 3.2987206287016364
v -6.920090198516846 27.162261962890625 2.2099106616606212
v -7.395820140838623 25.916702270507812 2.585960657082984
v -6.125179767608643 25.789974212646484 3.2931406802763434
v -6.920090198516846 27.162261962890625 2.2099106616606212
v -6.125179767608643 25.789974212646484 3.2931406802763434
v -5.887629985809326 27.963163375854492 2.8986807174314952
v -4.5007500648498535 27.996463775634766 3.157680780374
v -4.5007500648498535 25.789974212646484 3.4969907111753913
v -2.8763198852539062 25.789974212646484 3.2931406802763434
v -4.5007500648498535 27.996463775634766 3.157680780374
v -2.8763198852539062 25.789974212646484 3.2931406802763434
v -3.1138699054718018 27.963163375854492 2.8986807174314952
v -3.1138699054718018 27.963163375854492 2.8986807174314952
v -2.8763198852539062 25.789974212646484 3.2931406802763434
v -1.5521600246429443 25.443742752075195 2.3896508521666022
v -3.1138699054718018 27.963163375854492 2.8986807174314952
v -1.5521600246429443 25.443742752075195 2.3896508521666022
v -2.0814099311828613 27.162261962890625 2.2099106616606212
v -5.887629985809326 27.963163375854492 2.8986807174314952
v -6.125179767608643 25.789974212646484 3.2931406802763434
v -4.5007500648498535 25.789974212646484 3.4969907111753913
v -5.887629985809326 27.963163375854492 2.8986807174314952
v -4.5007500648498535 25.789974212646484 3.4969907111753913
v -4.5007500648498535 27.996463775634766 3.157680780374
vt 0.12376700341701508 0.6593850255012512
vt 0.28839099407196045 0.6593850255012512
vt 0.3063789904117584 0.7901740074157715
vt 0.12376700341701508 0.6593850255012512
vt 0.3063789904117584 0.7901740074157715
vt 0.15832699835300446 0.8021969795227051
vt 0.8675410151481628 0.6593850255012512
vt 0.8392189741134644 0.7573279738426208
vt 0.6849300265312195 0.7901740074157715
vt 0.8675410151481628 0.6593850255012512
vt 0.6849300265312195 0.7901740074157715
vt 0.7029179930686951 0.6593850255012512
vt 0.49565500020980835 0.6593850255012512
vt 0.7029179930686951 0.6593850255012512
vt 0.6849300265312195 0.7901740074157715
vt 0.49565500020980835 0.6593850255012512
vt 0.6849300265312195 0.7901740074157715
vt 0.49565500020980835 0.7901740074157715
vt 0.49565500020980835 0.7901740074157715
vt 0.3063789904117584 0.7901740074157715
vt 0.28839099407196045 0.6593850255012512
vt 0.49565500020980835 0.7901740074157715
vt 0.28839099407196045 0.6593850255012512
vt 0.49565500020980835 0.6593850255012512
vt 0.21375800669193268 0.9203609824180603
vt 0.15832699835300446 0.8021969795227051
vt 0.3063789904117584 0.7901740074157715
vt 0.21375800669193268 0.9203609824180603
vt 0.3063789904117584 0.7901740074157715
vt 0.3340579867362976 0.9963409900665283
vt 0.49565500020980835 0.9994999766349792
vt 0.49565500020980835 0.7901740074157715
vt 0.6849300265312195 0.7901740074157715
vt 0.49565500020980835 0.9994999766349792
vt 0.6849300265312195 0.7901740074157715
vt 0.6572510004043579 0.9963409900665283
vt 0.6572510004043579 0.9963409900665283
vt 0.6849300265312195 0.7901740074157715
vt 0.8392189741134644 0.7573279738426208
vt 0.6572510004043579 0.9963409900665283
vt 0.8392189741134644 0.7573279738426208
vt 0.7775520086288452 0.9203609824180603
vt 0.3340579867362976 0.9963409900665283
vt 0.3063789904117584 0.7901740074157715
vt 0.49565500020980835 0.7901740074157715
vt 0.3340579867362976 0.9963409900665283
vt 0.49565500020980835 0.7901740074157715
vt 0.49565500020980835 0.9994999766349792
vn -0.4499452812771128 -0.08774513206331519 0.8887350761929288
vn -0.2271871400823956 -0.1599336403606136 0.9606285619646046
vn -0.3698697717741575 0.0864366747360511 0.9250540812235286
vn -0.4499452812771128 -0.08774513206331519 0.8887350761929288
vn -0.3698697717741575 0.0864366747360511 0.9250540812235286
vn -0.46477688373407533 0.17892468709006365 0.8671611180721636
vn 0.4873591107068559 -0.03428901388750785 0.8725281432353026
vn 0.6118830096981509 0.20700848423990437 0.7633784578408209
vn 0.3083754551008595 0.05357673370016284 0.9497547642930566
vn 0.4873591107068559 -0.03428901388750785 0.8725281432353026
vn 0.3083754551008595 0.05357673370016284 0.9497547642930566
vn 0.27716139482373414 -0.168405711624338 0.9459498282211708
vn 0.03881184734284574 -0.15827572254095304 0.9866318645573815
vn 0.27716139482373414 -0.168405711624338 0.9459498282211708
vn 0.3083754551008595 0.05357673370016284 0.9497547642930566
vn 0.03881184734284574 -0.15827572254095304 0.9866318645573815
vn 0.3083754551008595 0.05357673370016284 0.9497547642930566
vn -0.05741826063681054 0.03473400839052059 0.9977458053064271
vn -0.05741826063681054 0.03473400839052059 0.9977458053064271
vn -0.3698697717741575 0.0864366747360511 0.9250540812235286
vn -0.2271871400823956 -0.1599336403606136 0.9606285619646046
vn -0.05741826063681054 0.03473400839052059 0.9977458053064271
vn -0.2271871400823956 -0.1599336403606136 0.9606285619646046
vn 0.03881184734284574 -0.15827572254095304 0.9866318645573815
vn -0.5567839271442394 0.29147384229134055 0.7778397378212051
vn -0.46477688373407533 0.17892468709006365 0.8671611180721636
vn -0.3698697717741575 0.0864366747360511 0.9250540812235286
vn -0.5567839271442394 0.29147384229134055 0.7778397378212051
vn -0.3698697717741575 0.0864366747360511 0.9250540812235286
vn -0.3065011232594698 0.18687430202824204 0.9333461612296589
vn 0.04521730351018059 0.1664103497247066 0.9850192845664337
vn -0.05741826063681054 0.03473400839052059 0.9977458053064271
vn 0.3083754551008595 0.05357673370016284 0.9497547642930566
vn 0.04521730351018059 0.1664103497247066 0.9850192845664337
vn 0.3083754551008595 0.05357673370016284 0.9497547642930566
vn 0.4759097191018711 0.22533482747408085 0.8501377269546414
vn 0.4759097191018711 0.22533482747408085 0.8501377269546414
vn 0.3083754551008595 0.05357673370016284 0.9497547642930566
vn 0.6118830096981509 0.20700848423990437 0.7633784578408209
vn 0.4759097191018711 0.22533482747408085 0.8501377269546414
vn 0.6118830096981509 0.20700848423990437 0.7633784578408209
vn 0.6732300794490197 0.2789565489591484 0.6847952277271425
vn -0.3065011232594698 0.18687430202824204 0.9333461612296589
vn -0.3698697717741575 0.0864366747360511 0.9250540812235286
vn -0.05741826063681054 0.03473400839052059 0.9977458053064271
vn -0.3065011232594698 0.18687430202824204 0.9333461612296589
vn -0.05741826063681054 0.03473400839052059 0.9977458053064271
vn 0.04521730351018059 0.1664103497247066 0.9850192845664337
f 1/1/1 2/2/2 3/3/3
f 4/4/4 5/5/5 6/6/6
f 7/7/7 8/8/8 9/9/9
f 10/10/10 11/11/11 12/12/12
f 13/13/13 14/14/14 15/15/15
f 16/16/16 17/17/17 18/18/18
f 19/19/19 20/20/20 21/21/21
f 22/22/22 23/23/23 24/24/24
f 25/25/25 26/26/26 27/27/27
f 28/28/28 29/29/29 30/30/30
f 31/31/31 32/32/32 33/33/33
f 34/34/34 35/35/35 36/36/36
f 37/37/37 38/38/38 39/39/39
f 40/40/40 41/41/41 42/42/42
f 43/43/43 44/44/44 45/45/45
f 46/46/46 47/47/47 48/48/48
