mtllib ArcadaCompleta.mtl
o D11C_CL
usemtl Esmalte
v -4.5007500648498535 27.996463775634766 -3.162089317358544
v -3.1138699054718018 27.963163375854492 -2.903089254416039
v -3.0132699012756348 25.72730255126953 -3.1902391605744866
v -4.5007500648498535 27.996463775634766 -3.162089317358544
v -3.0132699012756348 25.72730255126953 -3.1902391605744866
v -4.5007500648498535 25.789974212646484 -3.501399248159936
v -4.5007500648498535 24.411333084106445 -3.008449285543969
v -4.5007500648498535 25.789974212646484 -3.501399248159936
v -3.0132699012756348 25.72730255126953 -3.1902391605744866
v -4.5007500648498535 24.411333084106445 -3.008449285543969
v -3.0132699012756348 25.72730255126953 -3.1902391605744866
v -3.0876200199127197 24.411333084106445 -2.9408793144593743
v -5.887629985809326 27.963163375854492 -2.903089254416039
v -5.991290092468262 25.789974212646484 -3.1906091862092523
v -7.220160007476807 25.798852920532227 -2.386799304998925
v -5.887629985809326 27.963163375854492 -2.903089254416039
v -7.220160007476807 25.798852920532227 -2.386799304998925
v -7.069049835205078 27.162261962890625 -2.214319198645165
v -5.913879871368408 24.411333084106445 -2.9408793144593743
v -5.991290092468262 25.789974212646484 -3.1906091862092523
v -4.5007500648498535 25.789974212646484 -3.501399248159936
v -5.913879871368408 24.411333084106445 -2.9408793144593743
v -4.5007500648498535 25.789974212646484 -3.501399248159936
v -4.5007500648498535 24.411333084106445 -3.008449285543969
v -3.0876200199127197 24.411333084106445 -2.9408793144593743
v -3.0132699012756348 25.72730255126953 -3.1902391605744866
v -1.8002300262451172 25.493621826171875 -2.4053692512879876
v -3.0876200199127197 24.411333084106445 -2.9408793144593743
v -1.8002300262451172 25.493621826171875 -2.4053692512879876
v -1.614169955253601 24.411333084106445 -2.2193293266664056
v -1.8002300262451172 25.493621826171875 -2.4053692512879876
v -3.0132699012756348 25.72730255126953 -3.1902391605744866
v -3.1138699054718018 27.963163375854492 -2.903089254416039
v -1.8002300262451172 25.493621826171875 -2.4053692512879876
v -3.1138699054718018 27.963163375854492 -2.903089254416039
v -1.9324500560760498 27.162261962890625 -2.214319198645165
v -4.5007500648498535 25.789974212646484 -3.501399248159936
v -5.991290092468262 25.789974212646484 -3.1906091862092523
v -5.887629985809326 27.963163375854492 -2.903089254416039
v -4.5007500648498535 25.789974212646484 -3.501399248159936
v -5.887629985809326 27.963163375854492 -2.903089254416039
v -4.5007500648498535 27.996463775634766 -3.162089317358544
v -7.220160007476807 25.798852920532227 -2.386799304998925
v -5.991290092468262 25.789974212646484 -3.1906091862092523
v -5.913879871368408 24.411333084106445 -2.9408793144593743
v -7.220160007476807 25.798852920532227 -2.386799304998925
v -5.913879871368408 24.411333084106445 -2.9408793144593743
v -7.387330055236816 24.411333084106445 -2.2193293266664056
vt 0.5043449997901917 0.9994999766349792
vt 0.3427479863166809 0.9963409900665283
vt 0.33102700114250183 0.7842289805412292
vt 0.5043449997901917 0.9994999766349792
vt 0.33102700114250183 0.7842289805412292
vt 0.5043449997901917 0.7901740074157715
vt 0.5043449997901917 0.6593850255012512
vt 0.5043449997901917 0.7901740074157715
vt 0.33102700114250183 0.7842289805412292
vt 0.5043449997901917 0.6593850255012512
vt 0.33102700114250183 0.7842289805412292
vt 0.3396899998188019 0.6593850255012512
vt 0.6659420132637024 0.9963409900665283
vt 0.6780200004577637 0.7901740074157715
vt 0.8212059736251831 0.7910169959068298
vt 0.6659420132637024 0.9963409900665283
vt 0.8212059736251831 0.7910169959068298
vt 0.8035979866981506 0.9203609824180603
vt 0.6690000295639038 0.6593850255012512
vt 0.6780200004577637 0.7901740074157715
vt 0.5043449997901917 0.7901740074157715
vt 0.6690000295639038 0.6593850255012512
vt 0.5043449997901917 0.7901740074157715
vt 0.5043449997901917 0.6593850255012512
vt 0.3396899998188019 0.6593850255012512
vt 0.33102700114250183 0.7842289805412292
vt 0.18968600034713745 0.7620599865913391
vt 0.3396899998188019 0.6593850255012512
vt 0.18968600034713745 0.7620599865913391
vt 0.16800600290298462 0.6593850255012512
vt 0.18968600034713745 0.7620599865913391
vt 0.33102700114250183 0.7842289805412292
vt 0.3427479863166809 0.9963409900665283
vt 0.18968600034713745 0.7620599865913391
vt 0.3427479863166809 0.9963409900665283
vt 0.20509199798107147 0.9203609824180603
vt 0.5043449997901917 0.7901740074157715
vt 0.6780200004577637 0.7901740074157715
vt 0.6659420132637024 0.9963409900665283
vt 0.5043449997901917 0.7901740074157715
vt 0.6659420132637024 0.9963409900665283
vt 0.5043449997901917 0.9994999766349792
vt 0.8212059736251831 0.7910169959068298
vt 0.6780200004577637 0.7901740074157715
vt 0.6690000295639038 0.6593850255012512
vt 0.8212059736251831 0.7910169959068298
vt 0.6690000295639038 0.6593850255012512
vt 0.8406839966773987 0.6593850255012512
vn 0.07458055019971398 0.1462543159839521 -0.9864316583463725
vn 0.43250022581260394 0.13609611993661624 -0.8913032036351293
vn 0.2994566549749822 -0.006224242330030481 -0.9540896030240616
vn 0.07458055019971398 0.1462543159839521 -0.9864316583463725
vn 0.2994566549749822 -0.006224242330030481 -0.9540896030240616
vn -0.043047076445742696 -0.02491722541181435 -0.998762274561495
vn 0.064168467148735 -0.29119145430493704 -0.9545103167402422
vn -0.043047076445742696 -0.02491722541181435 -0.998762274561495
vn 0.2994566549749822 -0.006224242330030481 -0.9540896030240616
vn 0.064168467148735 -0.29119145430493704 -0.9545103167402422
vn 0.2994566549749822 -0.006224242330030481 -0.9540896030240616
vn 0.33774341948810843 -0.15713214323346703 -0.9280295642679369
vn -0.3593683623414014 0.1476219953018597 -0.9214456721104924
vn -0.3791833034839832 0.012646495609363621 -0.9252351530869198
vn -0.5295061943650066 0.026754539559792033 -0.8478840632669253
vn -0.3593683623414014 0.1476219953018597 -0.9214456721104924
vn -0.5295061943650066 0.026754539559792033 -0.8478840632669253
vn -0.5779069545998852 0.1651570018730237 -0.7992163139960297
vn -0.31612822923204814 -0.19066581130132876 -0.9293597210356255
vn -0.3791833034839832 0.012646495609363621 -0.9252351530869198
vn -0.043047076445742696 -0.02491722541181435 -0.998762274561495
vn -0.31612822923204814 -0.19066581130132876 -0.9293597210356255
vn -0.043047076445742696 -0.02491722541181435 -0.998762274561495
vn 0.064168467148735 -0.29119145430493704 -0.9545103167402422
vn 0.33774341948810843 -0.15713214323346703 -0.9280295642679369
vn 0.2994566549749822 -0.006224242330030481 -0.9540896030240616
vn 0.5320223888701675 0.02653178806937646 -0.8463145053481725
vn 0.33774341948810843 -0.15713214323346703 -0.9280295642679369
vn 0.5320223888701675 0.02653178806937646 -0.8463145053481725
vn 0.43844059808352154 -0.07852757847274693 -0.8953229927637124
vn 0.5320223888701675 0.02653178806937646 -0.8463145053481725
vn 0.2994566549749822 -0.006224242330030481 -0.9540896030240616
vn 0.43250022581260394 0.13609611993661624 -0.8913032036351293
vn 0.5320223888701675 0.02653178806937646 -0.8463145053481725
vn 0.43250022581260394 0.13609611993661624 -0.8913032036351293
vn 0.5669578323614046 0.13790804171525325 -0.8121207966517797
vn -0.043047076445742696 -0.02491722541181435 -0.998762274561495
vn -0.3791833034839832 0.012646495609363621 -0.9252351530869198
vn -0.3593683623414014 0.1476219953018597 -0.9214456721104924
vn -0.043047076445742696 -0.02491722541181435 -0.998762274561495
vn -0.3593683623414014 0.1476219953018597 -0.9214456721104924
vn 0.07458055019971398 0.1462543159839521 -0.9864316583463725
vn -0.5295061943650066 0.026754539559792033 -0.8478840632669253
vn -0.3791833034839832 0.012646495609363621 -0.9252351530869198
vn -0.31612822923204814 -0.19066581130132876 -0.9293597210356255
vn -0.5295061943650066 0.026754539559792033 -0.8478840632669253
vn -0.31612822923204814 -0.19066581130132876 -0.9293597210356255
vn -0.4391250667343089 -0.055325527462165396 -0.89672083826385
f 1/1/1 2/2/2 3/3/3
f 4/4/4 5/5/5 6/6/6
f 7/7/7 8/8/8 9/9/9
f 10/10/10 11/11/11 12/12/12
f 13/13/13 14/14/14 15/15/15
f 16/16/16 17/17/17 18/18/18
f 19/19/19 20/20/20 21/21/21
f 22/22/22 23/23/23 24/24/24
f 25/25/25 26/26/26 27/27/27
f 28/28/28 29/29/29 30/30/30
f 31/31/31 32/32/32 33/33/33
f 34/34/34 35/35/35 36/36/36
f 37/37/37 38/38/38 39/39/39
f 40/40/40 41/41/41 42/42/42
f 43/43/43 44/44/44 45/45/45
f 46/46/46 47/47/47 48/48/48
