mtllib ArcadaCompleta.mtl
o D11N_NUC
usemtl MatNucleo
v -2.4211599826812744 23.327472686767578 -0.45718225768905024
v -2.302150011062622 23.327472686767578 0.27300074764389654
v -2.1569900512695312 20.213083267211914 0.27300074764389587
v -2.4211599826812744 23.327472686767578 -0.45718225768905024
v -6.790279865264893 20.51200294494629 -0.09407645396094722
v -3.7908101081848145 24.546302795410156 -1.5863293104539427
v -2.302150011062622 23.327472686767578 0.27300074764389654
v -2.792609930038452 24.546302795410156 1.7698507613768069
v -2.1569900512695312 20.213083267211914 0.27300074764389587
v -5.429540157318115 21.889312744140625 1.6174007958998167
v -2.1569900512695312 20.213083267211914 0.27300074764389587
v -2.792609930038452 24.546302795410156 1.7698507613768069
v -3.142469882965088 26.286823272705078 -1.1266292028794793
v -2.741179943084717 24.96086311340332 -0.48419925502639116
v -2.4211599826812744 23.327472686767578 -0.45718225768905024
v -2.6191999912261963 24.57381248474121 0.2730007476438968
v -2.302150011062622 23.327472686767578 0.27300074764389654
v -2.4211599826812744 23.327472686767578 -0.45718225768905024
v -2.6191999912261963 24.57381248474121 0.2730007476438968
v -2.4211599826812744 23.327472686767578 -0.45718225768905024
v -2.741179943084717 24.96086311340332 -0.48419925502639116
v -2.741179943084717 24.80893325805664 1.030200750314185
v -2.302150011062622 23.327472686767578 0.27300074764389654
v -2.6191999912261963 24.57381248474121 0.2730007476438968
v -2.741179943084717 24.80893325805664 1.030200750314185
v -3.2260799407958984 26.286823272705078 1.6726306981672736
v -2.792609930038452 24.546302795410156 1.7698507613768069
v -2.741179943084717 24.80893325805664 1.030200750314185
v -2.792609930038452 24.546302795410156 1.7698507613768069
v -2.302150011062622 23.327472686767578 0.27300074764389654
v -2.792609930038452 24.546302795410156 1.7698507613768069
v -3.2260799407958984 26.286823272705078 1.6726306981672736
v -3.67221999168396 25.418582916259766 2.35800078579087
v -2.792609930038452 24.546302795410156 1.7698507613768069
v -3.67221999168396 25.418582916259766 2.35800078579087
v -5.429540157318115 21.889312744140625 1.6174007958998167
v -3.67221999168396 25.418582916259766 2.35800078579087
v -6.208759784698486 25.498764038085938 1.9105607576002568
v -5.429540157318115 21.889312744140625 1.6174007958998167
v -5.941760063171387 26.286823272705078 1.6726306981672736
v -6.208759784698486 25.498764038085938 1.9105607576002568
v -5.362299919128418 26.79355239868164 2.108420640908668
v -4.583920001983643 26.814674377441406 2.2723007506956554
v -3.67221999168396 25.418582916259766 2.35800078579087
v -3.805540084838867 26.79355239868164 2.108420640908668
v -3.805540084838867 26.79355239868164 2.108420640908668
v -3.67221999168396 25.418582916259766 2.35800078579087
v -3.2260799407958984 26.286823272705078 1.6726306981672736
v -5.362299919128418 26.79355239868164 2.108420640908668
v -6.208759784698486 25.498764038085938 1.9105607576002568
v -3.67221999168396 25.418582916259766 2.35800078579087
v -5.362299919128418 26.79355239868164 2.108420640908668
v -3.67221999168396 25.418582916259766 2.35800078579087
v -4.583920001983643 26.814674377441406 2.2723007506956554
v -6.208759784698486 25.498764038085938 1.9105607576002568
v -6.618649959564209 20.576053619384766 0.7579237527479609
v -5.429540157318115 21.889312744140625 1.6174007958998167
v -6.48445987701416 25.21771240234375 0.273000747643897
v -6.790279865264893 20.51200294494629 -0.09407645396094722
v -6.618649959564209 20.576053619384766 0.7579237527479609
v -6.48445987701416 25.21771240234375 0.273000747643897
v -6.618649959564209 20.576053619384766 0.7579237527479609
v -6.426660060882568 25.525182723999023 1.030200750314185
v -6.790279865264893 20.51200294494629 -0.09407645396094722
v -6.426660060882568 25.525182723999023 -0.48419925502639105
v -6.025360107421875 26.286823272705078 -1.1266292028794793
v -6.426660060882568 25.525182723999023 1.030200750314185
v -6.208759784698486 25.498764038085938 1.9105607576002568
v -5.941760063171387 26.286823272705078 1.6726306981672736
v -6.426660060882568 25.525182723999023 -0.48419925502639105
v -6.790279865264893 20.51200294494629 -0.09407645396094722
v -6.48445987701416 25.21771240234375 0.273000747643897
v -6.208759784698486 25.498764038085938 1.9105607576002568
v -6.426660060882568 25.525182723999023 1.030200750314185
v -6.618649959564209 20.576053619384766 0.7579237527479609
v -6.790279865264893 20.51200294494629 -0.09407645396094722
v -6.114890098571777 20.18646240234375 0.6252797550787408
v -6.618649959564209 20.576053619384766 0.7579237527479609
v -6.114890098571777 20.18646240234375 0.6252797550787408
v -6.790279865264893 20.51200294494629 -0.09407645396094722
v -2.1569900512695312 20.213083267211914 0.27300074764389587
v -2.1569900512695312 20.213083267211914 0.27300074764389587
v -5.429540157318115 21.889312744140625 1.6174007958998167
v -6.114890098571777 20.18646240234375 0.6252797550787408
v -6.114890098571777 20.18646240234375 0.6252797550787408
v -5.429540157318115 21.889312744140625 1.6174007958998167
v -6.618649959564209 20.576053619384766 0.7579237527479609
v -6.790279865264893 20.51200294494629 -0.09407645396094722
v -2.4211599826812744 23.327472686767578 -0.45718225768905024
v -2.1569900512695312 20.213083267211914 0.27300074764389587
v -4.583920001983643 26.814674377441406 -1.7262992554078604
v -3.805540084838867 26.79355239868164 -1.5624192648301627
v -3.7908101081848145 24.546302795410156 -1.5863293104539427
v -6.790279865264893 20.51200294494629 -0.09407645396094722
v -5.362299919128418 26.79355239868164 -1.5624192648301627
v -3.7908101081848145 24.546302795410156 -1.5863293104539427
v -2.4211599826812744 23.327472686767578 -0.45718225768905024
v -3.7908101081848145 24.546302795410156 -1.5863293104539427
v -3.805540084838867 26.79355239868164 -1.5624192648301627
v -2.4211599826812744 23.327472686767578 -0.45718225768905024
v -3.805540084838867 26.79355239868164 -1.5624192648301627
v -3.142469882965088 26.286823272705078 -1.1266292028794793
v -3.7908101081848145 24.546302795410156 -1.5863293104539427
v -5.362299919128418 26.79355239868164 -1.5624192648301627
v -4.583920001983643 26.814674377441406 -1.7262992554078604
v -6.025360107421875 26.286823272705078 -1.1266292028794793
v -5.362299919128418 26.79355239868164 -1.5624192648301627
v -6.790279865264893 20.51200294494629 -0.09407645396094722
vt 0.9425420165061951 0.47391098737716675
vt 0.9682019948959351 0.47391098737716675
vt 0.9995009899139404 0.004511654376983643
vt 0.9425420165061951 0.47391098737716675
vt 0.0004996060160920024 0.04956471920013428
vt 0.6472269892692566 0.6576129794120789
vt 0.9682019948959351 0.47391098737716675
vt 0.86245197057724 0.6576129794120789
vt 0.9995009899139404 0.004511654376983643
vt 0.2938939929008484 0.2571519613265991
vt 0.9995009899139404 0.004511654376983643
vt 0.86245197057724 0.6576129794120789
vt 0.7870180010795593 0.9199429750442505
vt 0.873540997505188 0.7200949788093567
vt 0.9425420165061951 0.47391098737716675
vt 0.8998420238494873 0.6617590188980103
vt 0.9682019948959351 0.47391098737716675
vt 0.9425420165061951 0.47391098737716675
vt 0.8998420238494873 0.6617590188980103
vt 0.9425420165061951 0.47391098737716675
vt 0.873540997505188 0.7200949788093567
vt 0.873540997505188 0.6971960067749023
vt 0.9682019948959351 0.47391098737716675
vt 0.8998420238494873 0.6617590188980103
vt 0.873540997505188 0.6971960067749023
vt 0.7689899802207947 0.9199429750442505
vt 0.86245197057724 0.6576129794120789
vt 0.873540997505188 0.6971960067749023
vt 0.86245197057724 0.6576129794120789
vt 0.9682019948959351 0.47391098737716675
vt 0.86245197057724 0.6576129794120789
vt 0.7689899802207947 0.9199429750442505
vt 0.6727960109710693 0.7890819907188416
vt 0.86245197057724 0.6576129794120789
vt 0.6727960109710693 0.7890819907188416
vt 0.2938939929008484 0.2571519613265991
vt 0.6727960109710693 0.7890819907188416
vt 0.12588299810886383 0.8011670112609863
vt 0.2938939929008484 0.2571519613265991
vt 0.18345199525356293 0.9199429750442505
vt 0.12588299810886383 0.8011670112609863
vt 0.3083919882774353 0.9963170289993286
vt 0.4762209951877594 0.9994999766349792
vt 0.6727960109710693 0.7890819907188416
vt 0.6440500020980835 0.9963170289993286
vt 0.6440500020980835 0.9963170289993286
vt 0.6727960109710693 0.7890819907188416
vt 0.7689899802207947 0.9199429750442505
vt 0.3083919882774353 0.9963170289993286
vt 0.12588299810886383 0.8011670112609863
vt 0.6727960109710693 0.7890819907188416
vt 0.3083919882774353 0.9963170289993286
vt 0.6727960109710693 0.7890819907188416
vt 0.4762209951877594 0.9994999766349792
vt 0.12588299810886383 0.8011670112609863
vt 0.03750539943575859 0.05921828746795654
vt 0.2938939929008484 0.2571519613265991
vt 0.06643860042095184 0.7588070034980774
vt 0.0004996060160920024 0.04956471920013428
vt 0.03750539943575859 0.05921828746795654
vt 0.06643860042095184 0.7588070034980774
vt 0.03750539943575859 0.05921828746795654
vt 0.07890109717845917 0.8051490187644958
vt 0.0004996060160920024 0.04956471920013428
vt 0.07890109717845917 0.8051490187644958
vt 0.16542699933052063 0.9199429750442505
vt 0.07890109717845917 0.8051490187644958
vt 0.12588299810886383 0.8011670112609863
vt 0.18345199525356293 0.9199429750442505
vt 0.07890109717845917 0.8051490187644958
vt 0.0004996060160920024 0.04956471920013428
vt 0.06643860042095184 0.7588070034980774
vt 0.12588299810886383 0.8011670112609863
vt 0.07890109717845917 0.8051490187644958
vt 0.03750539943575859 0.05921828746795654
vt 0.0004996060160920024 0.04956471920013428
vt 0.146123006939888 0.0004994869232177734
vt 0.03750539943575859 0.05921828746795654
vt 0.146123006939888 0.0004994869232177734
vt 0.0004996060160920024 0.04956471920013428
vt 0.9995009899139404 0.004511654376983643
vt 0.9995009899139404 0.004511654376983643
vt 0.2938939929008484 0.2571519613265991
vt 0.146123006939888 0.0004994869232177734
vt 0.146123006939888 0.0004994869232177734
vt 0.2938939929008484 0.2571519613265991
vt 0.03750539943575859 0.05921828746795654
vt 0.0004996060160920024 0.04956471920013428
vt 0.9425420165061951 0.47391098737716675
vt 0.9995009899139404 0.004511654376983643
vt 0.4762209951877594 0.9994999766349792
vt 0.6440510153770447 0.9963170289993286
vt 0.6472269892692566 0.6576129794120789
vt 0.0004996060160920024 0.04956471920013428
vt 0.3083919882774353 0.9963170289993286
vt 0.6472269892692566 0.6576129794120789
vt 0.9425420165061951 0.47391098737716675
vt 0.6472269892692566 0.6576129794120789
vt 0.6440510153770447 0.9963170289993286
vt 0.9425420165061951 0.47391098737716675
vt 0.6440510153770447 0.9963170289993286
vt 0.7870180010795593 0.9199429750442505
vt 0.6472269892692566 0.6576129794120789
vt 0.3083919882774353 0.9963170289993286
vt 0.4762209951877594 0.9994999766349792
vt 0.16542699933052063 0.9199429750442505
vt 0.3083919882774353 0.9963170289993286
vt 0.0004996060160920024 0.04956471920013428
vn 0.3861586828538245 -0.24592143800201008 -0.889046746795478
vn 0.9885041691783603 0.1059288082156847 0.10788232064154173
vn 0.6111168717278052 -0.7443229976606889 0.2692943449889497
vn 0.3861586828538245 -0.24592143800201008 -0.889046746795478
vn -0.2747290456418117 -0.30835783385780696 -0.9107356355053098
vn 0.06184523312368403 -0.2627233164754345 -0.9628871305194737
vn 0.9885041691783603 0.1059288082156847 0.10788232064154173
vn 0.5258088004267502 -0.18340190869736 0.8305954763180133
vn 0.6111168717278052 -0.7443229976606889 0.2692943449889497
vn 0.020406857653456466 -0.3003009634325751 0.9536261801786792
vn 0.6111168717278052 -0.7443229976606889 0.2692943449889497
vn 0.5258088004267502 -0.18340190869736 0.8305954763180133
vn 0.7317932945229171 0.02429375458532975 -0.6810935233721159
vn 0.9730177404963782 0.18843494465406463 -0.13314934589603597
vn 0.3861586828538245 -0.24592143800201008 -0.889046746795478
vn 0.973364325728461 0.22455898784084108 -0.04620768744565641
vn 0.9885041691783603 0.1059288082156847 0.10788232064154173
vn 0.3861586828538245 -0.24592143800201008 -0.889046746795478
vn 0.973364325728461 0.22455898784084108 -0.04620768744565641
vn 0.3861586828538245 -0.24592143800201008 -0.889046746795478
vn 0.9730177404963782 0.18843494465406463 -0.13314934589603597
vn 0.9634163690117494 0.2343644877337846 0.13000841053369327
vn 0.9885041691783603 0.1059288082156847 0.10788232064154173
vn 0.973364325728461 0.22455898784084108 -0.04620768744565641
vn 0.9634163690117494 0.2343644877337846 0.13000841053369327
vn 0.8078027015871095 0.22668529059942358 0.5441218377665265
vn 0.5258088004267502 -0.18340190869736 0.8305954763180133
vn 0.9634163690117494 0.2343644877337846 0.13000841053369327
vn 0.5258088004267502 -0.18340190869736 0.8305954763180133
vn 0.9885041691783603 0.1059288082156847 0.10788232064154173
vn 0.5258088004267502 -0.18340190869736 0.8305954763180133
vn 0.8078027015871095 0.22668529059942358 0.5441218377665265
vn 0.04841111592268704 -0.1045051364335685 0.9933453781611516
vn 0.5258088004267502 -0.18340190869736 0.8305954763180133
vn 0.04841111592268704 -0.1045051364335685 0.9933453781611516
vn 0.020406857653456466 -0.3003009634325751 0.9536261801786792
vn 0.04841111592268704 -0.1045051364335685 0.9933453781611516
vn -0.47465390920330613 -0.07178346800543199 0.8772404460574835
vn 0.020406857653456466 -0.3003009634325751 0.9536261801786792
vn -0.8423055854050778 0.39583241402623875 0.36583876339388843
vn -0.47465390920330613 -0.07178346800543199 0.8772404460574835
vn -0.2605308534630165 0.009773439511310199 0.9654160524219343
vn 0 0.061270367605922346 0.9981212060934459
vn 0.04841111592268704 -0.1045051364335685 0.9933453781611516
vn 0.46020756364026183 0.20156712046945335 0.8646269104729203
vn 0.46020756364026183 0.20156712046945335 0.8646269104729203
vn 0.04841111592268704 -0.1045051364335685 0.9933453781611516
vn 0.8078027015871095 0.22668529059942358 0.5441218377665265
vn -0.2605308534630165 0.009773439511310199 0.9654160524219343
vn -0.47465390920330613 -0.07178346800543199 0.8772404460574835
vn 0.04841111592268704 -0.1045051364335685 0.9933453781611516
vn -0.2605308534630165 0.009773439511310199 0.9654160524219343
vn 0.04841111592268704 -0.1045051364335685 0.9933453781611516
vn 0 0.061270367605922346 0.9981212060934459
vn -0.47465390920330613 -0.07178346800543199 0.8772404460574835
vn -0.865906440197693 -0.0924295743786203 0.4915921181267515
vn 0.020406857653456466 -0.3003009634325751 0.9536261801786792
vn -0.9959814615480341 0.05100395564766601 0.07361742158574033
vn -0.2747290456418117 -0.30835783385780696 -0.9107356355053098
vn -0.865906440197693 -0.0924295743786203 0.4915921181267515
vn -0.9959814615480341 0.05100395564766601 0.07361742158574033
vn -0.865906440197693 -0.0924295743786203 0.4915921181267515
vn -0.9839711949768764 0.05941099053032631 0.16813988717726597
vn -0.2747290456418117 -0.30835783385780696 -0.9107356355053098
vn -0.9593656970050196 0.04794680929737672 -0.27806215651949806
vn -0.6881973295878743 -0.03838670336577363 -0.7245073474802217
vn -0.9839711949768764 0.05941099053032631 0.16813988717726597
vn -0.47465390920330613 -0.07178346800543199 0.8772404460574835
vn -0.8423055854050778 0.39583241402623875 0.36583876339388843
vn -0.9593656970050196 0.04794680929737672 -0.27806215651949806
vn -0.2747290456418117 -0.30835783385780696 -0.9107356355053098
vn -0.9959814615480341 0.05100395564766601 0.07361742158574033
vn -0.47465390920330613 -0.07178346800543199 0.8772404460574835
vn -0.9839711949768764 0.05941099053032631 0.16813988717726597
vn -0.865906440197693 -0.0924295743786203 0.4915921181267515
vn -0.2747290456418117 -0.30835783385780696 -0.9107356355053098
vn 0.004392640725185966 -0.7807561861847586 0.6248203601369677
vn -0.865906440197693 -0.0924295743786203 0.4915921181267515
vn 0.004392640725185966 -0.7807561861847586 0.6248203601369677
vn -0.2747290456418117 -0.30835783385780696 -0.9107356355053098
vn 0.6111168717278052 -0.7443229976606889 0.2692943449889497
vn 0.6111168717278052 -0.7443229976606889 0.2692943449889497
vn 0.020406857653456466 -0.3003009634325751 0.9536261801786792
vn 0.004392640725185966 -0.7807561861847586 0.6248203601369677
vn 0.004392640725185966 -0.7807561861847586 0.6248203601369677
vn 0.020406857653456466 -0.3003009634325751 0.9536261801786792
vn -0.865906440197693 -0.0924295743786203 0.4915921181267515
vn -0.2747290456418117 -0.30835783385780696 -0.9107356355053098
vn 0.3861586828538245 -0.24592143800201008 -0.889046746795478
vn 0.6111168717278052 -0.7443229976606889 0.2692943449889497
vn 0 -0.061587897030832034 -0.9981016636291713
vn 0.5186390020324096 -0.007894017337288672 -0.8549568819894399
vn 0.06184523312368403 -0.2627233164754345 -0.9628871305194737
vn -0.2747290456418117 -0.30835783385780696 -0.9107356355053098
vn -0.2993274096604773 -0.14747597590196582 -0.9426844320119601
vn 0.06184523312368403 -0.2627233164754345 -0.9628871305194737
vn 0.3861586828538245 -0.24592143800201008 -0.889046746795478
vn 0.06184523312368403 -0.2627233164754345 -0.9628871305194737
vn 0.5186390020324096 -0.007894017337288672 -0.8549568819894399
vn 0.3861586828538245 -0.24592143800201008 -0.889046746795478
vn 0.5186390020324096 -0.007894017337288672 -0.8549568819894399
vn 0.7317932945229171 0.02429375458532975 -0.6810935233721159
vn 0.06184523312368403 -0.2627233164754345 -0.9628871305194737
vn -0.2993274096604773 -0.14747597590196582 -0.9426844320119601
vn 0 -0.061587897030832034 -0.9981016636291713
vn -0.6881973295878743 -0.03838670336577363 -0.7245073474802217
vn -0.2993274096604773 -0.14747597590196582 -0.9426844320119601
vn -0.2747290456418117 -0.30835783385780696 -0.9107356355053098
f 1/1/1 2/2/2 3/3/3
f 4/4/4 5/5/5 6/6/6
f 7/7/7 8/8/8 9/9/9
f 10/10/10 11/11/11 12/12/12
f 13/13/13 14/14/14 15/15/15
f 16/16/16 17/17/17 18/18/18
f 19/19/19 20/20/20 21/21/21
f 22/22/22 23/23/23 24/24/24
f 25/25/25 26/26/26 27/27/27
f 28/28/28 29/29/29 30/30/30
f 31/31/31 32/32/32 33/33/33
f 34/34/34 35/35/35 36/36/36
f 37/37/37 38/38/38 39/39/39
f 40/40/40 41/41/41 42/42/42
f 43/43/43 44/44/44 45/45/45
f 46/46/46 47/47/47 48/48/48
f 49/49/49 50/50/50 51/51/51
f 52/52/52 53/53/53 54/54/54
f 55/55/55 56/56/56 57/57/57
f 58/58/58 59/59/59 60/60/60
f 61/61/61 62/62/62 63/63/63
f 64/64/64 65/65/65 66/66/66
f 67/67/67 68/68/68 69/69/69
f 70/70/70 71/71/71 72/72/72
f 73/73/73 74/74/74 75/75/75
f 76/76/76 77/77/77 78/78/78
f 79/79/79 80/80/80 81/81/81
f 82/82/82 83/83/83 84/84/84
f 85/85/85 86/86/86 87/87/87
f 88/88/88 89/89/89 90/90/90
f 91/91/91 92/92/92 93/93/93
f 94/94/94 95/95/95 96/96/96
f 97/97/97 98/98/98 99/99/99
f 100/100/100 101/101/101 102/102/102
f 103/103/103 104/104/104 105/105/105
f 106/106/106 107/107/107 108/108/108
