mtllib ArcadaCompleta.mtl
o D12C_CV
usemtl Esmalte
v -12.235600471496582 19.885133743286133 1.3529407090773065
v -12.235600471496582 21.727752685546875 1.95335069366593
v -13.82129955291748 21.727752685546875 1.851940781556555
v -12.235600471496582 19.885133743286133 1.3529407090773065
v -13.82129955291748 21.727752685546875 1.851940781556555
v -13.391400337219238 19.885133743286133 1.2734307355513055
v -12.235600471496582 19.885133743286133 1.3529407090773065
v -11.079700469970703 19.885133743286133 1.2734307355513055
v -10.649800300598145 21.727752685546875 1.851940781556555
v -12.235600471496582 19.885133743286133 1.3529407090773065
v -10.649800300598145 21.727752685546875 1.851940781556555
v -12.235600471496582 21.727752685546875 1.95335069366593
v -12.235600471496582 19.885133743286133 1.3529407090773065
v -12.235600471496582 18.950252532958984 0.948589772664495
v -11.116800308227539 18.97051239013672 0.9085407561888175
v -12.235600471496582 19.885133743286133 1.3529407090773065
v -11.116800308227539 18.97051239013672 0.9085407561888175
v -11.079700469970703 19.885133743286133 1.2734307355513055
v -12.235600471496582 23.049442291259766 2.5132606334318606
v -12.235600471496582 21.727752685546875 1.95335069366593
v -10.649800300598145 21.727752685546875 1.851940781556555
v -12.235600471496582 23.049442291259766 2.5132606334318606
v -10.649800300598145 21.727752685546875 1.851940781556555
v -10.896900177001953 23.049442291259766 2.2804107970823733
v -12.235600471496582 23.049442291259766 2.5132606334318606
v -13.574199676513672 23.049442291259766 2.2804107970823733
v -13.82129955291748 21.727752685546875 1.851940781556555
v -12.235600471496582 23.049442291259766 2.5132606334318606
v -13.82129955291748 21.727752685546875 1.851940781556555
v -12.235600471496582 21.727752685546875 1.95335069366593
v -14.158699989318848 19.885133743286133 1.1885106868376214
v -14.336199760437012 18.983213424682617 0.8124587244619803
v -13.354299545288086 18.97051239013672 0.9085407561888175
v -14.158699989318848 19.885133743286133 1.1885106868376214
v -13.354299545288086 18.97051239013672 0.9085407561888175
v -13.391400337219238 19.885133743286133 1.2734307355513055
v -10.3125 19.885133743286133 1.1885106868376214
v -10.649800300598145 21.727752685546875 1.851940781556555
v -11.079700469970703 19.885133743286133 1.2734307355513055
v -11.079700469970703 19.885133743286133 1.2734307355513055
v -11.116800308227539 18.97051239013672 0.9085407561888175
v -10.134900093078613 18.973533630371094 0.8810667700399832
v -11.079700469970703 19.885133743286133 1.2734307355513055
v -10.134900093078613 18.973533630371094 0.8810667700399832
v -10.3125 19.885133743286133 1.1885106868376214
v -13.391400337219238 19.885133743286133 1.2734307355513055
v -13.82129955291748 21.727752685546875 1.851940781556555
v -14.158699989318848 19.885133743286133 1.1885106868376214
v -13.391400337219238 19.885133743286133 1.2734307355513055
v -13.354299545288086 18.97051239013672 0.9085407561888175
v -12.235600471496582 18.950252532958984 0.948589772664495
v -13.391400337219238 19.885133743286133 1.2734307355513055
v -12.235600471496582 18.950252532958984 0.948589772664495
v -12.235600471496582 19.885133743286133 1.3529407090773065
vt 0.49506500363349915 0.26941901445388794
vt 0.49506500363349915 0.47488999366760254
vt 0.2545030117034912 0.47488999366760254
vt 0.49506500363349915 0.26941901445388794
vt 0.2545030117034912 0.47488999366760254
vt 0.3197219967842102 0.26941901445388794
vt 0.49506500363349915 0.26941901445388794
vt 0.6704229712486267 0.26941901445388794
vt 0.7356420159339905 0.47488999366760254
vt 0.49506500363349915 0.26941901445388794
vt 0.7356420159339905 0.47488999366760254
vt 0.49506500363349915 0.47488999366760254
vt 0.49506500363349915 0.26941901445388794
vt 0.49506500363349915 0.16517001390457153
vt 0.6647949814796448 0.16742998361587524
vt 0.49506500363349915 0.26941901445388794
vt 0.6647949814796448 0.16742998361587524
vt 0.6704229712486267 0.26941901445388794
vt 0.49506500363349915 0.6222720146179199
vt 0.49506500363349915 0.47488999366760254
vt 0.7356420159339905 0.47488999366760254
vt 0.49506500363349915 0.6222720146179199
vt 0.7356420159339905 0.47488999366760254
vt 0.6981549859046936 0.6222720146179199
vt 0.49506500363349915 0.6222720146179199
vt 0.2919900119304657 0.6222720146179199
vt 0.2545030117034912 0.47488999366760254
vt 0.49506500363349915 0.6222720146179199
vt 0.2545030117034912 0.47488999366760254
vt 0.49506500363349915 0.47488999366760254
vt 0.20331700146198273 0.26941901445388794
vt 0.17638899385929108 0.1688460111618042
vt 0.32534998655319214 0.16742998361587524
vt 0.20331700146198273 0.26941901445388794
vt 0.32534998655319214 0.16742998361587524
vt 0.3197219967842102 0.26941901445388794
vt 0.7868130207061768 0.26941901445388794
vt 0.7356420159339905 0.47488999366760254
vt 0.6704229712486267 0.26941901445388794
vt 0.6704229712486267 0.26941901445388794
vt 0.6647949814796448 0.16742998361587524
vt 0.813755989074707 0.16776597499847412
vt 0.6704229712486267 0.26941901445388794
vt 0.813755989074707 0.16776597499847412
vt 0.7868130207061768 0.26941901445388794
vt 0.3197219967842102 0.26941901445388794
vt 0.2545030117034912 0.47488999366760254
vt 0.20331700146198273 0.26941901445388794
vt 0.3197219967842102 0.26941901445388794
vt 0.32534998655319214 0.16742998361587524
vt 0.49506500363349915 0.16517001390457153
vt 0.3197219967842102 0.26941901445388794
vt 0.49506500363349915 0.16517001390457153
vt 0.49506500363349915 0.26941901445388794
vn 0.0031268463363484777 -0.3305935254991841 0.9437680561080721
vn 0 -0.344273856259419 0.93886927306003
vn -0.0850065776879987 -0.32293011952338296 0.942597485491229
vn 0.0031268463363484777 -0.3305935254991841 0.9437680561080721
vn -0.0850065776879987 -0.32293011952338296 0.942597485491229
vn -0.07354141001251804 -0.34535843014253126 0.935584959126031
vn 0.0031268463363484777 -0.3305935254991841 0.9437680561080721
vn 0.07273398433866993 -0.3320035637318617 0.9404697768623752
vn 0.08500285684155649 -0.3229306743444345 0.9425976309625558
vn 0.0031268463363484777 -0.3305935254991841 0.9437680561080721
vn 0.08500285684155649 -0.3229306743444345 0.9425976309625558
vn 0 -0.344273856259419 0.93886927306003
vn 0.0031268463363484777 -0.3305935254991841 0.9437680561080721
vn -0.02127094911351996 -0.38885482633861745 0.9210534570571753
vn 0.04450086079339973 -0.38054817261834206 0.9236897540329693
vn 0.0031268463363484777 -0.3305935254991841 0.9437680561080721
vn 0.04450086079339973 -0.38054817261834206 0.9236897540329693
vn 0.07273398433866993 -0.3320035637318617 0.9404697768623752
vn 0 -0.34139995294798775 0.9399181199057244
vn 0 -0.344273856259419 0.93886927306003
vn 0.08500285684155649 -0.3229306743444345 0.9425976309625558
vn 0 -0.34139995294798775 0.9399181199057244
vn 0.08500285684155649 -0.3229306743444345 0.9425976309625558
vn 0.16469952646510058 -0.27617451854442393 0.946890543457335
vn 0 -0.34139995294798775 0.9399181199057244
vn -0.16471174181240808 -0.27617180048855 0.9468892114307961
vn -0.0850065776879987 -0.32293011952338296 0.942597485491229
vn 0 -0.34139995294798775 0.9399181199057244
vn -0.0850065776879987 -0.32293011952338296 0.942597485491229
vn 0 -0.344273856259419 0.93886927306003
vn -0.10109546237038779 -0.3464411012826167 0.9326083158701757
vn -0.0952920919338338 -0.36704945781592485 0.9253075773665259
vn -0.07553883388088585 -0.37038456148864013 0.9258019016975413
vn -0.10109546237038779 -0.3464411012826167 0.9326083158701757
vn -0.07553883388088585 -0.37038456148864013 0.9258019016975413
vn -0.07354141001251804 -0.34535843014253126 0.935584959126031
vn 0.10448095181300429 -0.31320360986301016 0.9439211987645091
vn 0.08500285684155649 -0.3229306743444345 0.9425976309625558
vn 0.07273398433866993 -0.3320035637318617 0.9404697768623752
vn 0.07273398433866993 -0.3320035637318617 0.9404697768623752
vn 0.04450086079339973 -0.38054817261834206 0.9236897540329693
vn 0.06087507806108357 -0.34071759990162265 0.9381928064040648
vn 0.07273398433866993 -0.3320035637318617 0.9404697768623752
vn 0.06087507806108357 -0.34071759990162265 0.9381928064040648
vn 0.10448095181300429 -0.31320360986301016 0.9439211987645091
vn -0.07354141001251804 -0.34535843014253126 0.935584959126031
vn -0.0850065776879987 -0.32293011952338296 0.942597485491229
vn -0.10109546237038779 -0.3464411012826167 0.9326083158701757
vn -0.07354141001251804 -0.34535843014253126 0.935584959126031
vn -0.07553883388088585 -0.37038456148864013 0.9258019016975413
vn -0.02127094911351996 -0.38885482633861745 0.9210534570571753
vn -0.07354141001251804 -0.34535843014253126 0.935584959126031
vn -0.02127094911351996 -0.38885482633861745 0.9210534570571753
vn 0.0031268463363484777 -0.3305935254991841 0.9437680561080721
f 1/1/1 2/2/2 3/3/3
f 4/4/4 5/5/5 6/6/6
f 7/7/7 8/8/8 9/9/9
f 10/10/10 11/11/11 12/12/12
f 13/13/13 14/14/14 15/15/15
f 16/16/16 17/17/17 18/18/18
f 19/19/19 20/20/20 21/21/21
f 22/22/22 23/23/23 24/24/24
f 25/25/25 26/26/26 27/27/27
f 28/28/28 29/29/29 30/30/30
f 31/31/31 32/32/32 33/33/33
f 34/34/34 35/35/35 36/36/36
f 37/37/37 38/38/38 39/39/39
f 40/40/40 41/41/41 42/42/42
f 43/43/43 44/44/44 45/45/45
f 46/46/46 47/47/47 48/48/48
f 49/49/49 50/50/50 51/51/51
f 52/52/52 53/53/53 54/54/54
