mtllib ArcadaCompleta.mtl
o D12C_I
usemtl Esmalte
v -12.235600471496582 17.649471282958984 0.40701875158447753
v -11.153800010681152 17.689987182617188 0.4064367420305683
v -11.116800308227539 18.97051239013672 0.9085407561888175
v -12.235600471496582 17.649471282958984 0.40701875158447753
v -11.116800308227539 18.97051239013672 0.9085407561888175
v -12.235600471496582 18.950252532958984 0.948589772664495
v -12.235600471496582 17.649471282958984 0.40701875158447753
v -12.235600471496582 17.473520278930664 -0.0012237142273040572
v -11.153800010681152 17.514036178588867 -0.0012237142273040483
v -12.235600471496582 17.649471282958984 0.40701875158447753
v -11.153800010681152 17.514036178588867 -0.0012237142273040483
v -11.153800010681152 17.689987182617188 0.4064367420305683
v -12.235600471496582 17.876792907714844 -0.5252772264848278
v -13.317299842834473 17.917308807373047 -0.5246952467332409
v -13.354299545288086 18.901222229003906 -0.7149872475038095
v -12.235600471496582 17.876792907714844 -0.5252772264848278
v -13.354299545288086 18.901222229003906 -0.7149872475038095
v -12.235600471496582 18.880962371826172 -0.7202932529817148
v -12.235600471496582 17.876792907714844 -0.5252772264848278
v -12.235600471496582 17.473520278930664 -0.0012237142273040572
v -13.317299842834473 17.514036178588867 -0.0012237142273040483
v -12.235600471496582 17.876792907714844 -0.5252772264848278
v -13.317299842834473 17.514036178588867 -0.0012237142273040483
v -13.317299842834473 17.917308807373047 -0.5246952467332409
v -8.910539627075195 18.256473541259766 -0.004312274299077711
v -10.096799850463867 17.520076751708984 -0.0012237142273040468
v -10.142999649047852 17.923349380493164 -0.5546612434754894
v -8.910539627075195 18.256473541259766 -0.004312274299077711
v -10.142999649047852 17.923349380493164 -0.5546612434754894
v -9.126150131225586 18.663652420043945 -0.46591725877624
v -9.125920295715332 18.22843360900879 0.47377973862785844
v -10.142999649047852 17.696027755737305 0.4364027387728168
v -10.096799850463867 17.520076751708984 -0.0012237142273040468
v -9.125920295715332 18.22843360900879 0.47377973862785844
v -10.096799850463867 17.520076751708984 -0.0012237142273040468
v -8.910539627075195 18.256473541259766 -0.004312274299077711
v -9.125920295715332 18.22843360900879 0.47377973862785844
v -10.134900093078613 18.973533630371094 0.8810667700399832
v -10.142999649047852 17.696027755737305 0.4364027387728168
v -13.317299842834473 17.689987182617188 0.4064367420305683
v -13.317299842834473 17.514036178588867 -0.0012237142273040483
v -12.235600471496582 17.473520278930664 -0.0012237142273040572
v -13.317299842834473 17.689987182617188 0.4064367420305683
v -12.235600471496582 17.473520278930664 -0.0012237142273040572
v -12.235600471496582 17.649471282958984 0.40701875158447753
v -13.317299842834473 17.689987182617188 0.4064367420305683
v -14.328200340270996 18.0812931060791 0.4364027387728169
v -14.374300003051758 17.90534019470215 -0.0012237142273039613
v -13.317299842834473 17.689987182617188 0.4064367420305683
v -14.374300003051758 17.90534019470215 -0.0012237142273039613
v -13.317299842834473 17.514036178588867 -0.0012237142273040483
v -13.317299842834473 17.689987182617188 0.4064367420305683
v -13.354299545288086 18.97051239013672 0.9085407561888175
v -14.336199760437012 18.983213424682617 0.8124587244619803
v -13.317299842834473 17.689987182617188 0.4064367420305683
v -14.336199760437012 18.983213424682617 0.8124587244619803
v -14.328200340270996 18.0812931060791 0.4364027387728169
v -11.153800010681152 17.917308807373047 -0.5246952467332409
v -11.153800010681152 17.514036178588867 -0.0012237142273040483
v -12.235600471496582 17.473520278930664 -0.0012237142273040572
v -11.153800010681152 17.917308807373047 -0.5246952467332409
v -12.235600471496582 17.473520278930664 -0.0012237142273040572
v -12.235600471496582 17.876792907714844 -0.5252772264848278
v -11.153800010681152 17.917308807373047 -0.5246952467332409
v -10.142999649047852 17.923349380493164 -0.5546612434754894
v -10.096799850463867 17.520076751708984 -0.0012237142273040468
v -11.153800010681152 17.917308807373047 -0.5246952467332409
v -10.096799850463867 17.520076751708984 -0.0012237142273040468
v -11.153800010681152 17.514036178588867 -0.0012237142273040483
v -11.153800010681152 17.917308807373047 -0.5246952467332409
v -11.116800308227539 18.901222229003906 -0.7149872475038095
v -10.134900093078613 18.90424346923828 -0.7570002370248361
v -11.153800010681152 17.917308807373047 -0.5246952467332409
v -10.134900093078613 18.90424346923828 -0.7570002370248361
v -10.142999649047852 17.923349380493164 -0.5546612434754894
v -11.153800010681152 17.514036178588867 -0.0012237142273040483
v -10.096799850463867 17.520076751708984 -0.0012237142273040468
v -10.142999649047852 17.696027755737305 0.4364027387728168
v -11.153800010681152 17.514036178588867 -0.0012237142273040483
v -10.142999649047852 17.696027755737305 0.4364027387728168
v -11.153800010681152 17.689987182617188 0.4064367420305683
v -13.317299842834473 17.514036178588867 -0.0012237142273040483
v -14.374300003051758 17.90534019470215 -0.0012237142273039613
v -14.328200340270996 18.308612823486328 -0.5546612434754894
v -13.317299842834473 17.514036178588867 -0.0012237142273040483
v -14.328200340270996 18.308612823486328 -0.5546612434754894
v -13.317299842834473 17.917308807373047 -0.5246952467332409
v -14.374300003051758 17.90534019470215 -0.0012237142273039613
v -14.328200340270996 18.0812931060791 0.4364027387728169
v -14.663299560546875 18.42803382873535 0.45552873679298905
v -14.374300003051758 17.90534019470215 -0.0012237142273039613
v -14.663299560546875 18.42803382873535 0.45552873679298905
v -14.885700225830078 18.319252014160156 -0.0012237142273038694
v -10.142999649047852 17.923349380493164 -0.5546612434754894
v -10.134900093078613 18.90424346923828 -0.7570002370248361
v -9.126150131225586 18.663652420043945 -0.46591725877624
v -10.142999649047852 17.696027755737305 0.4364027387728168
v -10.134900093078613 18.973533630371094 0.8810667700399832
v -11.116800308227539 18.97051239013672 0.9085407561888175
v -10.142999649047852 17.696027755737305 0.4364027387728168
v -11.116800308227539 18.97051239013672 0.9085407561888175
v -11.153800010681152 17.689987182617188 0.4064367420305683
v -14.328200340270996 18.308612823486328 -0.5546612434754894
v -14.336199760437012 18.959651947021484 -0.7570002370248361
v -13.354299545288086 18.901222229003906 -0.7149872475038095
v -14.328200340270996 18.308612823486328 -0.5546612434754894
v -13.354299545288086 18.901222229003906 -0.7149872475038095
v -13.317299842834473 17.917308807373047 -0.5246952467332409
v -14.336199760437012 18.983213424682617 0.8124587244619803
v -14.663299560546875 18.42803382873535 0.45552873679298905
v -14.328200340270996 18.0812931060791 0.4364027387728169
v -12.235600471496582 18.950252532958984 0.948589772664495
v -13.354299545288086 18.97051239013672 0.9085407561888175
v -13.317299842834473 17.689987182617188 0.4064367420305683
v -12.235600471496582 18.950252532958984 0.948589772664495
v -13.317299842834473 17.689987182617188 0.4064367420305683
v -12.235600471496582 17.649471282958984 0.40701875158447753
v -12.235600471496582 18.880962371826172 -0.7202932529817148
v -11.116800308227539 18.901222229003906 -0.7149872475038095
v -11.153800010681152 17.917308807373047 -0.5246952467332409
v -12.235600471496582 18.880962371826172 -0.7202932529817148
v -11.153800010681152 17.917308807373047 -0.5246952467332409
v -12.235600471496582 17.876792907714844 -0.5252772264848278
v -14.723799705505371 18.556663513183594 -0.4854572408566996
v -14.336199760437012 18.959651947021484 -0.7570002370248361
v -14.328200340270996 18.308612823486328 -0.5546612434754894
v -14.885700225830078 18.319252014160156 -0.0012237142273038694
v -14.723799705505371 18.556663513183594 -0.4854572408566996
v -14.328200340270996 18.308612823486328 -0.5546612434754894
v -14.885700225830078 18.319252014160156 -0.0012237142273038694
v -14.328200340270996 18.308612823486328 -0.5546612434754894
v -14.374300003051758 17.90534019470215 -0.0012237142273039613
vt 0.49506500363349915 0.020119786262512207
vt 0.6591820120811462 0.024637699127197266
vt 0.6647949814796448 0.16742998361587524
vt 0.49506500363349915 0.020119786262512207
vt 0.6647949814796448 0.16742998361587524
vt 0.49506500363349915 0.16517001390457153
vt 0.5049350261688232 0.4258580207824707
vt 0.5049350261688232 0.5
vt 0.34081798791885376 0.5
vt 0.5049350261688232 0.4258580207824707
vt 0.34081798791885376 0.5
vt 0.34081798791885376 0.42596399784088135
vt 0.5049350261688232 0.04546850919723511
vt 0.6690369844436646 0.049986302852630615
vt 0.6746500134468079 0.15970301628112793
vt 0.5049350261688232 0.04546850919723511
vt 0.6746500134468079 0.15970301628112793
vt 0.5049350261688232 0.15744400024414062
vt 0.5049350261688232 0.04546850919723511
vt 0.5049350261688232 0.000499427318572998
vt 0.6690369844436646 0.005017340183258057
vt 0.5049350261688232 0.04546850919723511
vt 0.6690369844436646 0.005017340183258057
vt 0.6690369844436646 0.049986302852630615
vt 0.0004994869814254344 0.0878068208694458
vt 0.1804639995098114 0.005690872669219971
vt 0.18747299909591675 0.050660014152526855
vt 0.0004994869814254344 0.0878068208694458
vt 0.18747299909591675 0.050660014152526855
vt 0.03320920094847679 0.13321197032928467
vt 0.0331742987036705 0.41373300552368164
vt 0.18747299909591675 0.4205210208892822
vt 0.1804639995098114 0.5
vt 0.0331742987036705 0.41373300552368164
vt 0.1804639995098114 0.5
vt 0.0004994869814254344 0.500560998916626
vt 0.9668260216712952 0.08468008041381836
vt 0.813755989074707 0.16776597499847412
vt 0.8125270009040833 0.025311172008514404
vt 0.6690369844436646 0.42596399784088135
vt 0.6690369844436646 0.5
vt 0.5049350261688232 0.5
vt 0.6690369844436646 0.42596399784088135
vt 0.5049350261688232 0.5
vt 0.5049350261688232 0.4258580207824707
vt 0.6690369844436646 0.42596399784088135
vt 0.8223980069160461 0.42052197456359863
vt 0.8293910026550293 0.5
vt 0.6690369844436646 0.42596399784088135
vt 0.8293910026550293 0.5
vt 0.6690369844436646 0.5
vt 0.33096298575401306 0.024637699127197266
vt 0.32534998655319214 0.16742998361587524
vt 0.17638899385929108 0.1688460111618042
vt 0.33096298575401306 0.024637699127197266
vt 0.17638899385929108 0.1688460111618042
vt 0.17760199308395386 0.06827247142791748
vt 0.34081798791885376 0.049986302852630615
vt 0.34081798791885376 0.005017340183258057
vt 0.5049350261688232 0.000499427318572998
vt 0.34081798791885376 0.049986302852630615
vt 0.5049350261688232 0.000499427318572998
vt 0.5049350261688232 0.04546850919723511
vt 0.34081798791885376 0.049986302852630615
vt 0.18747299909591675 0.050660014152526855
vt 0.1804639995098114 0.005690872669219971
vt 0.34081798791885376 0.049986302852630615
vt 0.1804639995098114 0.005690872669219971
vt 0.34081798791885376 0.005017340183258057
vt 0.34081798791885376 0.049986302852630615
vt 0.33520498871803284 0.15970301628112793
vt 0.18624399602413177 0.160040020942688
vt 0.34081798791885376 0.049986302852630615
vt 0.18624399602413177 0.160040020942688
vt 0.18747299909591675 0.050660014152526855
vt 0.34081798791885376 0.5
vt 0.1804639995098114 0.5
vt 0.18747299909591675 0.4205210208892822
vt 0.34081798791885376 0.5
vt 0.18747299909591675 0.4205210208892822
vt 0.34081798791885376 0.42596399784088135
vt 0.6690369844436646 0.005017340183258057
vt 0.8293910026550293 0.048651814460754395
vt 0.8223980069160461 0.09362101554870605
vt 0.6690369844436646 0.005017340183258057
vt 0.8223980069160461 0.09362101554870605
vt 0.6690369844436646 0.049986302852630615
vt 0.5 0.048651814460754395
vt 0.5794780254364014 0.06827247142791748
vt 0.5829520225524902 0.10693800449371338
vt 0.5 0.048651814460754395
vt 0.5829520225524902 0.10693800449371338
vt 0.5 0.09480738639831543
vt 0.18747299909591675 0.050660014152526855
vt 0.18624399602413177 0.160040020942688
vt 0.03320920094847679 0.13321197032928467
vt 0.8125270009040833 0.025311172008514404
vt 0.813755989074707 0.16776597499847412
vt 0.6647949814796448 0.16742998361587524
vt 0.8125270009040833 0.025311172008514404
vt 0.6647949814796448 0.16742998361587524
vt 0.6591820120811462 0.024637699127197266
vt 0.8223980069160461 0.09362101554870605
vt 0.8236110210418701 0.16621899604797363
vt 0.6746500134468079 0.15970301628112793
vt 0.8223980069160461 0.09362101554870605
vt 0.6746500134468079 0.15970301628112793
vt 0.6690369844436646 0.049986302852630615
vt 0.17638899385929108 0.1688460111618042
vt 0.12676499783992767 0.10693800449371338
vt 0.17760199308395386 0.06827247142791748
vt 0.49506500363349915 0.16517001390457153
vt 0.32534998655319214 0.16742998361587524
vt 0.33096298575401306 0.024637699127197266
vt 0.49506500363349915 0.16517001390457153
vt 0.33096298575401306 0.024637699127197266
vt 0.49506500363349915 0.020119786262512207
vt 0.5049350261688232 0.15744400024414062
vt 0.33520498871803284 0.15970301628112793
vt 0.34081798791885376 0.049986302852630615
vt 0.5049350261688232 0.15744400024414062
vt 0.34081798791885376 0.049986302852630615
vt 0.5049350261688232 0.04546850919723511
vt 0.8824130296707153 0.12128102779388428
vt 0.8236110210418701 0.16621899604797363
vt 0.8223980069160461 0.09362101554870605
vt 0.9069740176200867 0.09480738639831543
vt 0.8824130296707153 0.12128102779388428
vt 0.8223980069160461 0.09362101554870605
vt 0.9069740176200867 0.09480738639831543
vt 0.8223980069160461 0.09362101554870605
vt 0.8293910026550293 0.048651814460754395
vn 0.013662744127220452 -0.536039666198067 0.8440822268506659
vn -0.00012297053794446626 -0.5297734750867508 0.8481391689886482
vn 0.014749881258632448 -0.3619852526418836 0.9320671209052748
vn 0.013662744127220452 -0.536039666198067 0.8440822268506659
vn 0.014749881258632448 -0.3619852526418836 0.9320671209052748
vn -0.004545992293885639 -0.3782997980519142 0.925671970380407
vn 0.013662744127220452 -0.536039666198067 0.8440822268506659
vn 0.00154980443912485 -0.9715106313936686 -0.23699090952033597
vn 0.01991900078702048 -0.9989655982691656 -0.040877461789772994
vn 0.013662744127220452 -0.536039666198067 0.8440822268506659
vn 0.01991900078702048 -0.9989655982691656 -0.040877461789772994
vn -0.00012297053794446626 -0.5297734750867508 0.8481391689886482
vn -0.0058896793336366835 -0.4541056178040951 -0.8909283919351253
vn -0.0820206173974379 -0.4577145125873791 -0.8853078805074768
vn -0.012080504565150713 -0.20908176787876992 -0.9778235401902223
vn -0.0058896793336366835 -0.4541056178040951 -0.8909283919351253
vn -0.012080504565150713 -0.20908176787876992 -0.9778235401902223
vn 0.002456632964976246 -0.19048886124277392 -0.9816862832376272
vn -0.0058896793336366835 -0.4541056178040951 -0.8909283919351253
vn 0.00154980443912485 -0.9715106313936686 -0.23699090952033597
vn -0.1817446628536853 -0.9026460401552366 -0.3901269071933785
vn -0.0058896793336366835 -0.4541056178040951 -0.8909283919351253
vn -0.1817446628536853 -0.9026460401552366 -0.3901269071933785
vn -0.0820206173974379 -0.4577145125873791 -0.8853078805074768
vn 0.5073876116620426 -0.7473135797321468 -0.429045714440562
vn 0.2811265991142729 -0.9296709647351459 -0.23807505664992673
vn 0.2360757730484165 -0.4986048009459922 -0.8340632361237367
vn 0.5073876116620426 -0.7473135797321468 -0.429045714440562
vn 0.2360757730484165 -0.4986048009459922 -0.8340632361237367
vn 0.3405246175392029 -0.36379835402933036 -0.8670027349756919
vn 0.33106205878601236 -0.6321325522209182 0.7005757272808094
vn 0.0801080732848475 -0.5227075616242723 0.8487399493457327
vn 0.2811265991142729 -0.9296709647351459 -0.23807505664992673
vn 0.33106205878601236 -0.6321325522209182 0.7005757272808094
vn 0.2811265991142729 -0.9296709647351459 -0.23807505664992673
vn 0.5073876116620426 -0.7473135797321468 -0.429045714440562
vn 0.33106205878601236 -0.6321325522209182 0.7005757272808094
vn 0.08320881787510717 -0.3280583464445251 0.9409856608662595
vn 0.0801080732848475 -0.5227075616242723 0.8487399493457327
vn -0.09988461488240137 -0.5457329183189835 0.8319847628249211
vn -0.1817446628536853 -0.9026460401552366 -0.3901269071933785
vn 0.00154980443912485 -0.9715106313936686 -0.23699090952033597
vn -0.09988461488240137 -0.5457329183189835 0.8319847628249211
vn 0.00154980443912485 -0.9715106313936686 -0.23699090952033597
vn 0.013662744127220452 -0.536039666198067 0.8440822268506659
vn -0.09988461488240137 -0.5457329183189835 0.8319847628249211
vn -0.28505127561222243 -0.5710631396438964 0.7698263835514475
vn -0.4625567810422362 -0.8861735519988271 -0.027159897820621164
vn -0.09988461488240137 -0.5457329183189835 0.8319847628249211
vn -0.4625567810422362 -0.8861735519988271 -0.027159897820621164
vn -0.1817446628536853 -0.9026460401552366 -0.3901269071933785
vn -0.09988461488240137 -0.5457329183189835 0.8319847628249211
vn -0.06590175898945248 -0.3659042750441738 0.9283162282684139
vn -0.13504881545648234 -0.37323589423908526 0.9178544463559302
vn -0.09988461488240137 -0.5457329183189835 0.8319847628249211
vn -0.13504881545648234 -0.37323589423908526 0.9178544463559302
vn -0.28505127561222243 -0.5710631396438964 0.7698263835514475
vn -0.002161950276776797 -0.4635805056975553 -0.8860521659068384
vn 0.01991900078702048 -0.9989655982691656 -0.040877461789772994
vn 0.00154980443912485 -0.9715106313936686 -0.23699090952033597
vn -0.002161950276776797 -0.4635805056975553 -0.8860521659068384
vn 0.00154980443912485 -0.9715106313936686 -0.23699090952033597
vn -0.0058896793336366835 -0.4541056178040951 -0.8909283919351253
vn -0.002161950276776797 -0.4635805056975553 -0.8860521659068384
vn 0.2360757730484165 -0.4986048009459922 -0.8340632361237367
vn 0.2811265991142729 -0.9296709647351459 -0.23807505664992673
vn -0.002161950276776797 -0.4635805056975553 -0.8860521659068384
vn 0.2811265991142729 -0.9296709647351459 -0.23807505664992673
vn 0.01991900078702048 -0.9989655982691656 -0.040877461789772994
vn -0.002161950276776797 -0.4635805056975553 -0.8860521659068384
vn -0.015057565294978708 -0.18931714751107795 -0.9818005334005764
vn 0.05572432311694943 -0.19781197889196447 -0.9786548016639998
vn -0.002161950276776797 -0.4635805056975553 -0.8860521659068384
vn 0.05572432311694943 -0.19781197889196447 -0.9786548016639998
vn 0.2360757730484165 -0.4986048009459922 -0.8340632361237367
vn 0.01991900078702048 -0.9989655982691656 -0.040877461789772994
vn 0.2811265991142729 -0.9296709647351459 -0.23807505664992673
vn 0.0801080732848475 -0.5227075616242723 0.8487399493457327
vn 0.01991900078702048 -0.9989655982691656 -0.040877461789772994
vn 0.0801080732848475 -0.5227075616242723 0.8487399493457327
vn -0.00012297053794446626 -0.5297734750867508 0.8481391689886482
vn -0.1817446628536853 -0.9026460401552366 -0.3901269071933785
vn -0.4625567810422362 -0.8861735519988271 -0.027159897820621164
vn -0.23604829139944175 -0.5372969997360569 -0.8096870618961598
vn -0.1817446628536853 -0.9026460401552366 -0.3901269071933785
vn -0.23604829139944175 -0.5372969997360569 -0.8096870618961598
vn -0.0820206173974379 -0.4577145125873791 -0.8853078805074768
vn -0.4625567810422362 -0.8861735519988271 -0.027159897820621164
vn -0.28505127561222243 -0.5710631396438964 0.7698263835514475
vn -0.5264151834472081 -0.5923077549361543 0.6099660466605784
vn -0.4625567810422362 -0.8861735519988271 -0.027159897820621164
vn -0.5264151834472081 -0.5923077549361543 0.6099660466605784
vn -0.6058300105783216 -0.7612494190392065 -0.23123434064848838
vn 0.2360757730484165 -0.4986048009459922 -0.8340632361237367
vn 0.05572432311694943 -0.19781197889196447 -0.9786548016639998
vn 0.3405246175392029 -0.36379835402933036 -0.8670027349756919
vn 0.0801080732848475 -0.5227075616242723 0.8487399493457327
vn 0.08320881787510717 -0.3280583464445251 0.9409856608662595
vn 0.014749881258632448 -0.3619852526418836 0.9320671209052748
vn 0.0801080732848475 -0.5227075616242723 0.8487399493457327
vn 0.014749881258632448 -0.3619852526418836 0.9320671209052748
vn -0.00012297053794446626 -0.5297734750867508 0.8481391689886482
vn -0.23604829139944175 -0.5372969997360569 -0.8096870618961598
vn -0.08478283864071408 -0.29667157244638526 -0.9512086250524707
vn -0.012080504565150713 -0.20908176787876992 -0.9778235401902223
vn -0.23604829139944175 -0.5372969997360569 -0.8096870618961598
vn -0.012080504565150713 -0.20908176787876992 -0.9778235401902223
vn -0.0820206173974379 -0.4577145125873791 -0.8853078805074768
vn -0.13504881545648234 -0.37323589423908526 0.9178544463559302
vn -0.5264151834472081 -0.5923077549361543 0.6099660466605784
vn -0.28505127561222243 -0.5710631396438964 0.7698263835514475
vn -0.004545992293885639 -0.3782997980519142 0.925671970380407
vn -0.06590175898945248 -0.3659042750441738 0.9283162282684139
vn -0.09988461488240137 -0.5457329183189835 0.8319847628249211
vn -0.004545992293885639 -0.3782997980519142 0.925671970380407
vn -0.09988461488240137 -0.5457329183189835 0.8319847628249211
vn 0.013662744127220452 -0.536039666198067 0.8440822268506659
vn 0.002456632964976246 -0.19048886124277392 -0.9816862832376272
vn -0.015057565294978708 -0.18931714751107795 -0.9818005334005764
vn -0.002161950276776797 -0.4635805056975553 -0.8860521659068384
vn 0.002456632964976246 -0.19048886124277392 -0.9816862832376272
vn -0.002161950276776797 -0.4635805056975553 -0.8860521659068384
vn -0.0058896793336366835 -0.4541056178040951 -0.8909283919351253
vn -0.44309452495368695 -0.4988528824034919 -0.7448577338484136
vn -0.08478283864071408 -0.29667157244638526 -0.9512086250524707
vn -0.23604829139944175 -0.5372969997360569 -0.8096870618961598
vn -0.6058300105783216 -0.7612494190392065 -0.23123434064848838
vn -0.44309452495368695 -0.4988528824034919 -0.7448577338484136
vn -0.23604829139944175 -0.5372969997360569 -0.8096870618961598
vn -0.6058300105783216 -0.7612494190392065 -0.23123434064848838
vn -0.23604829139944175 -0.5372969997360569 -0.8096870618961598
vn -0.4625567810422362 -0.8861735519988271 -0.027159897820621164
f 1/1/1 2/2/2 3/3/3
f 4/4/4 5/5/5 6/6/6
f 7/7/7 8/8/8 9/9/9
f 10/10/10 11/11/11 12/12/12
f 13/13/13 14/14/14 15/15/15
f 16/16/16 17/17/17 18/18/18
f 19/19/19 20/20/20 21/21/21
f 22/22/22 23/23/23 24/24/24
f 25/25/25 26/26/26 27/27/27
f 28/28/28 29/29/29 30/30/30
f 31/31/31 32/32/32 33/33/33
f 34/34/34 35/35/35 36/36/36
f 37/37/37 38/38/38 39/39/39
f 40/40/40 41/41/41 42/42/42
f 43/43/43 44/44/44 45/45/45
f 46/46/46 47/47/47 48/48/48
f 49/49/49 50/50/50 51/51/51
f 52/52/52 53/53/53 54/54/54
f 55/55/55 56/56/56 57/57/57
f 58/58/58 59/59/59 60/60/60
f 61/61/61 62/62/62 63/63/63
f 64/64/64 65/65/65 66/66/66
f 67/67/67 68/68/68 69/69/69
f 70/70/70 71/71/71 72/72/72
f 73/73/73 74/74/74 75/75/75
f 76/76/76 77/77/77 78/78/78
f 79/79/79 80/80/80 81/81/81
f 82/82/82 83/83/83 84/84/84
f 85/85/85 86/86/86 87/87/87
f 88/88/88 89/89/89 90/90/90
f 91/91/91 92/92/92 93/93/93
f 94/94/94 95/95/95 96/96/96
f 97/97/97 98/98/98 99/99/99
f 100/100/100 101/101/101 102/102/102
f 103/103/103 104/104/104 105/105/105
f 106/106/106 107/107/107 108/108/108
f 109/109/109 110/110/110 111/111/111
f 112/112/112 113/113/113 114/114/114
f 115/115/115 116/116/116 117/117/117
f 118/118/118 119/119/119 120/120/120
f 121/121/121 122/122/122 123/123/123
f 124/124/124 125/125/125 126/126/126
f 127/127/127 128/128/128 129/129/129
f 130/130/130 131/131/131 132/132/132
