mtllib ArcadaCompleta.mtl
o D12C_CL
usemtl Esmalte
v -12.235600471496582 26.432342529296875 -2.4848992519746327
v -11.240799903869629 26.403854370117188 -2.281319349325707
v -11.0516996383667 24.548873901367188 -2.5913693600068597
v -12.235600471496582 26.432342529296875 -2.4848992519746327
v -11.0516996383667 24.548873901367188 -2.5913693600068597
v -12.235600471496582 24.548873901367188 -2.75158926776748
v -11.240799903869629 26.403854370117188 -2.281319349325707
v -10.38949966430664 24.65704345703125 -2.243979185141137
v -11.0516996383667 24.548873901367188 -2.5913693600068597
v -13.230299949645996 26.403854370117188 -2.281319349325707
v -14.081600189208984 24.65704345703125 -2.243979185141137
v -14.077699661254883 25.720212936401367 -1.7399491958985833
v -13.52869987487793 23.049442291259766 -2.131269186056665
v -13.419400215148926 24.548873901367188 -2.5913693600068597
v -12.235600471496582 24.548873901367188 -2.75158926776748
v -13.52869987487793 23.049442291259766 -2.131269186056665
v -12.235600471496582 24.548873901367188 -2.75158926776748
v -12.235600471496582 23.799163818359375 -2.5578591518769773
v -13.52869987487793 23.049442291259766 -2.131269186056665
v -12.235600471496582 23.799163818359375 -2.5578591518769773
v -12.791099548339844 23.049442291259766 -2.247699230230859
v -10.942399978637695 23.049442291259766 -2.131269186056665
v -11.0516996383667 24.548873901367188 -2.5913693600068597
v -10.38949966430664 24.65704345703125 -2.243979185141137
v -10.942399978637695 23.049442291259766 -2.131269186056665
v -10.38949966430664 24.65704345703125 -2.243979185141137
v -10.027899742126465 23.049442291259766 -1.8607293062577759
v -10.38949966430664 24.65704345703125 -2.243979185141137
v -11.240799903869629 26.403854370117188 -2.281319349325707
v -10.393500328063965 25.720212936401367 -1.7399491958985833
v -12.235600471496582 24.548873901367188 -2.75158926776748
v -13.419400215148926 24.548873901367188 -2.5913693600068597
v -13.230299949645996 26.403854370117188 -2.281319349325707
v -12.235600471496582 24.548873901367188 -2.75158926776748
v -13.230299949645996 26.403854370117188 -2.281319349325707
v -12.235600471496582 26.432342529296875 -2.4848992519746327
v -14.081600189208984 24.65704345703125 -2.243979185141137
v -13.419400215148926 24.548873901367188 -2.5913693600068597
v -13.52869987487793 23.049442291259766 -2.131269186056665
v -14.081600189208984 24.65704345703125 -2.243979185141137
v -13.52869987487793 23.049442291259766 -2.131269186056665
v -14.44320011138916 23.049442291259766 -1.8607293062577759
v -13.419400215148926 24.548873901367188 -2.5913693600068597
v -14.081600189208984 24.65704345703125 -2.243979185141137
v -13.230299949645996 26.403854370117188 -2.281319349325707
v -11.680000305175781 23.049442291259766 -2.247699230230859
v -12.235600471496582 23.799163818359375 -2.5578591518769773
v -12.235600471496582 24.548873901367188 -2.75158926776748
v -11.680000305175781 23.049442291259766 -2.247699230230859
v -12.235600471496582 24.548873901367188 -2.75158926776748
v -11.0516996383667 24.548873901367188 -2.5913693600068597
v -11.680000305175781 23.049442291259766 -2.247699230230859
v -11.0516996383667 24.548873901367188 -2.5913693600068597
v -10.942399978637695 23.049442291259766 -2.131269186056665
vt 0.5049350261688232 0.9995009899139404
vt 0.3540169894695282 0.9963240027427673
vt 0.3253290057182312 0.7894740104675293
vt 0.5049350261688232 0.9995009899139404
vt 0.3253290057182312 0.7894740104675293
vt 0.5049350261688232 0.7894740104675293
vt 0.3540169894695282 0.9963240027427673
vt 0.22486799955368042 0.8015360236167908
vt 0.3253290057182312 0.7894740104675293
vt 0.6558380126953125 0.9963240027427673
vt 0.7849869728088379 0.8015360236167908
vt 0.7843949794769287 0.9200909733772278
vt 0.7011079788208008 0.6222720146179199
vt 0.6845260262489319 0.7894740104675293
vt 0.5049350261688232 0.7894740104675293
vt 0.7011079788208008 0.6222720146179199
vt 0.5049350261688232 0.7894740104675293
vt 0.5049350261688232 0.7058740258216858
vt 0.7011079788208008 0.6222720146179199
vt 0.5049350261688232 0.7058740258216858
vt 0.5892080068588257 0.6222720146179199
vt 0.30874699354171753 0.6222720146179199
vt 0.3253290057182312 0.7894740104675293
vt 0.22486799955368042 0.8015360236167908
vt 0.30874699354171753 0.6222720146179199
vt 0.22486799955368042 0.8015360236167908
vt 0.1700109988451004 0.6222720146179199
vt 0.22486799955368042 0.8015360236167908
vt 0.3540169894695282 0.9963240027427673
vt 0.2254749983549118 0.9200909733772278
vt 0.5049350261688232 0.7894740104675293
vt 0.6845260262489319 0.7894740104675293
vt 0.6558380126953125 0.9963240027427673
vt 0.5049350261688232 0.7894740104675293
vt 0.6558380126953125 0.9963240027427673
vt 0.5049350261688232 0.9995009899139404
vt 0.7849869728088379 0.8015360236167908
vt 0.6845260262489319 0.7894740104675293
vt 0.7011079788208008 0.6222720146179199
vt 0.7849869728088379 0.8015360236167908
vt 0.7011079788208008 0.6222720146179199
vt 0.8398439884185791 0.6222720146179199
vt 0.6845260262489319 0.7894740104675293
vt 0.7849869728088379 0.8015360236167908
vt 0.6558380126953125 0.9963240027427673
vt 0.420646995306015 0.6222720146179199
vt 0.5049350261688232 0.7058740258216858
vt 0.5049350261688232 0.7894740104675293
vt 0.420646995306015 0.6222720146179199
vt 0.5049350261688232 0.7894740104675293
vt 0.3253290057182312 0.7894740104675293
vt 0.420646995306015 0.6222720146179199
vt 0.3253290057182312 0.7894740104675293
vt 0.30874699354171753 0.6222720146179199
vn 0.04934812336851528 0.15407684444417716 -0.9868257641175218
vn 0.42177179370059487 0.23033779812741706 -0.876956699496843
vn 0.2408551918375619 -0.017628847031129536 -0.9704009482256518
vn 0.04934812336851528 0.15407684444417716 -0.9868257641175218
vn 0.2408551918375619 -0.017628847031129536 -0.9704009482256518
vn -0.042100373509312124 -0.03683397533615394 -0.9984341825134555
vn 0.42177179370059487 0.23033779812741706 -0.876956699496843
vn 0.4808478200042657 0.03428725042423462 -0.8761334136166083
vn 0.2408551918375619 -0.017628847031129536 -0.9704009482256518
vn -0.3292664022524444 0.2022032573797298 -0.9223326292898665
vn -0.48083381743832154 0.034285546689029625 -0.876141165164567
vn -0.6787493685688439 0.316621297061701 -0.6626086695134329
vn -0.24545740494937077 -0.2378783467216671 -0.9397683515188658
vn -0.2661456191420805 -0.01943441125191996 -0.9637369003367932
vn -0.042100373509312124 -0.03683397533615394 -0.9984341825134555
vn -0.24545740494937077 -0.2378783467216671 -0.9397683515188658
vn -0.042100373509312124 -0.03683397533615394 -0.9984341825134555
vn -0.08661136817923734 -0.2590945971570024 -0.9619607375699756
vn -0.24545740494937077 -0.2378783467216671 -0.9397683515188658
vn -0.08661136817923734 -0.2590945971570024 -0.9619607375699756
vn -0.14962413711538977 -0.28127944101907326 -0.947889494430903
vn 0.3054161991278835 -0.21894104314780538 -0.9267069466317968
vn 0.2408551918375619 -0.017628847031129536 -0.9704009482256518
vn 0.4808478200042657 0.03428725042423462 -0.8761334136166083
vn 0.3054161991278835 -0.21894104314780538 -0.9267069466317968
vn 0.4808478200042657 0.03428725042423462 -0.8761334136166083
vn 0.27990505374127145 -0.1626031265727104 -0.9461571667111521
vn 0.4808478200042657 0.03428725042423462 -0.8761334136166083
vn 0.42177179370059487 0.23033779812741706 -0.876956699496843
vn 0.6788067725040916 0.31665089294266496 -0.6625357179814468
vn -0.042100373509312124 -0.03683397533615394 -0.9984341825134555
vn -0.2661456191420805 -0.01943441125191996 -0.9637369003367932
vn -0.3292664022524444 0.2022032573797298 -0.9223326292898665
vn -0.042100373509312124 -0.03683397533615394 -0.9984341825134555
vn -0.3292664022524444 0.2022032573797298 -0.9223326292898665
vn 0.04934812336851528 0.15407684444417716 -0.9868257641175218
vn -0.48083381743832154 0.034285546689029625 -0.876141165164567
vn -0.2661456191420805 -0.01943441125191996 -0.9637369003367932
vn -0.24545740494937077 -0.2378783467216671 -0.9397683515188658
vn -0.48083381743832154 0.034285546689029625 -0.876141165164567
vn -0.24545740494937077 -0.2378783467216671 -0.9397683515188658
vn -0.27990505374127145 -0.1626031265727104 -0.9461571667111521
vn -0.2661456191420805 -0.01943441125191996 -0.9637369003367932
vn -0.48083381743832154 0.034285546689029625 -0.876141165164567
vn -0.3292664022524444 0.2022032573797298 -0.9223326292898665
vn 0.14486078049838697 -0.2717216746090648 -0.951410892212741
vn -0.08661136817923734 -0.2590945971570024 -0.9619607375699756
vn -0.042100373509312124 -0.03683397533615394 -0.9984341825134555
vn 0.14486078049838697 -0.2717216746090648 -0.951410892212741
vn -0.042100373509312124 -0.03683397533615394 -0.9984341825134555
vn 0.2408551918375619 -0.017628847031129536 -0.9704009482256518
vn 0.14486078049838697 -0.2717216746090648 -0.951410892212741
vn 0.2408551918375619 -0.017628847031129536 -0.9704009482256518
vn 0.3054161991278835 -0.21894104314780538 -0.9267069466317968
f 1/1/1 2/2/2 3/3/3
f 4/4/4 5/5/5 6/6/6
f 7/7/7 8/8/8 9/9/9
f 10/10/10 11/11/11 12/12/12
f 13/13/13 14/14/14 15/15/15
f 16/16/16 17/17/17 18/18/18
f 19/19/19 20/20/20 21/21/21
f 22/22/22 23/23/23 24/24/24
f 25/25/25 26/26/26 27/27/27
f 28/28/28 29/29/29 30/30/30
f 31/31/31 32/32/32 33/33/33
f 34/34/34 35/35/35 36/36/36
f 37/37/37 38/38/38 39/39/39
f 40/40/40 41/41/41 42/42/42
f 43/43/43 44/44/44 45/45/45
f 46/46/46 47/47/47 48/48/48
f 49/49/49 50/50/50 51/51/51
f 52/52/52 53/53/53 54/54/54
