mtllib ArcadaCompleta.mtl
o D13C_I
usemtl Esmalte
v -19.318300247192383 17.572473526000977 0.7652687735189868
v -18.178800582885742 17.809661865234375 0.43702974983353154
v -18.116899490356445 18.84125328063965 1.4891307658781485
v -19.318300247192383 17.572473526000977 0.7652687735189868
v -18.116899490356445 18.84125328063965 1.4891307658781485
v -19.286399841308594 18.815963745117188 1.8485907621015982
v -19.318300247192383 17.572473526000977 0.7652687735189868
v -20.457799911499023 17.809661865234375 0.43702974983353154
v -19.318300247192383 17.229114532470703 0.0000011889295630738405
v -19.318300247192383 17.572473526000977 -0.7538312368760632
v -19.740800857543945 17.623056411743164 -0.7452192597756909
v -20.25 18.84125328063965 -0.9516962461839242
v -19.318300247192383 17.572473526000977 -0.7538312368760632
v -20.25 18.84125328063965 -0.9516962461839242
v -19.183500289916992 18.815963745117188 -1.0252992802033944
v -19.318300247192383 17.572473526000977 -0.7538312368760632
v -19.318300247192383 17.229114532470703 0.0000011889295630738405
v -19.740800857543945 17.623056411743164 -0.7452192597756909
v -17.915199279785156 17.638141632080078 0.0000011889295631646627
v -19.318300247192383 17.229114532470703 0.0000011889295630738405
v -18.106000900268555 17.638141632080078 -0.43702724508147706
v -17.915199279785156 17.638141632080078 0.0000011889295631646627
v -16.821399688720703 18.446311950683594 0.03757544674772771
v -16.95009994506836 18.621553421020508 0.7860467738737539
v -17.915199279785156 17.638141632080078 0.0000011889295631646627
v -16.95009994506836 18.621553421020508 0.7860467738737539
v -18.178800582885742 17.809661865234375 0.43702974983353154
v -20.72130012512207 17.638141632080078 0.0000011889295631646627
v -19.318300247192383 17.229114532470703 0.0000011889295630738405
v -20.457799911499023 17.809661865234375 0.43702974983353154
v -20.72130012512207 17.638141632080078 0.0000011889295631646627
v -21.78809928894043 18.84880256652832 0.0000011889295634334835
v -21.451799392700195 18.65074348449707 -0.5715282254586741
v -20.72130012512207 17.638141632080078 0.0000011889295631646627
v -21.451799392700195 18.65074348449707 -0.5715282254586741
v -20.530500411987305 17.638141632080078 -0.43702724508147706
v -18.178800582885742 17.809661865234375 0.43702974983353154
v -19.318300247192383 17.229114532470703 0.0000011889295630738405
v -17.915199279785156 17.638141632080078 0.0000011889295631646627
v -18.178800582885742 17.809661865234375 0.43702974983353154
v -16.95009994506836 18.621553421020508 0.7860467738737539
v -17.322799682617188 18.846763610839844 1.4619807309736685
v -20.530500411987305 17.638141632080078 -0.43702724508147706
v -19.318300247192383 17.229114532470703 0.0000011889295630738405
v -20.72130012512207 17.638141632080078 0.0000011889295631646627
v -20.530500411987305 17.638141632080078 -0.43702724508147706
v -21.451799392700195 18.65074348449707 -0.5715282254586741
v -21.250499725341797 18.839202880859375 -0.731862276114039
v -20.530500411987305 17.638141632080078 -0.43702724508147706
v -21.250499725341797 18.839202880859375 -0.731862276114039
v -20.13559913635254 17.630599975585938 -0.6730292730699109
v -20.457799911499023 17.809661865234375 0.43702974983353154
v -21.56049919128418 18.84880256652832 0.9495697326292472
v -21.78809928894043 18.84880256652832 0.0000011889295634334835
v -20.457799911499023 17.809661865234375 0.43702974983353154
v -21.78809928894043 18.84880256652832 0.0000011889295634334835
v -20.72130012512207 17.638141632080078 0.0000011889295631646627
v -18.106000900268555 17.638141632080078 -0.43702724508147706
v -19.318300247192383 17.229114532470703 0.0000011889295630738405
v -18.500900268554688 17.630599975585938 -0.6730292730699109
v -18.106000900268555 17.638141632080078 -0.43702724508147706
v -18.500900268554688 17.630599975585938 -0.6730292730699109
v -17.208599090576172 18.845022201538086 -0.7507722669015451
v -18.106000900268555 17.638141632080078 -0.43702724508147706
v -17.208599090576172 18.845022201538086 -0.7507722669015451
v -17.032699584960938 18.576122283935547 -0.4720392518411204
v -18.895700454711914 17.623056411743164 -0.7452192597756909
v -19.318300247192383 17.229114532470703 0.0000011889295630738405
v -19.318300247192383 17.572473526000977 -0.7538312368760632
v -18.895700454711914 17.623056411743164 -0.7452192597756909
v -18.116899490356445 18.84125328063965 -0.9516962461839242
v -17.208599090576172 18.845022201538086 -0.7507722669015451
v -18.895700454711914 17.623056411743164 -0.7452192597756909
v -17.208599090576172 18.845022201538086 -0.7507722669015451
v -18.500900268554688 17.630599975585938 -0.6730292730699109
v -19.740800857543945 17.623056411743164 -0.7452192597756909
v -19.318300247192383 17.229114532470703 0.0000011889295630738405
v -20.13559913635254 17.630599975585938 -0.6730292730699109
v -19.318300247192383 17.229114532470703 0.0000011889295630738405
v -18.178800582885742 17.809661865234375 0.43702974983353154
v -19.318300247192383 17.572473526000977 0.7652687735189868
v -18.500900268554688 17.630599975585938 -0.6730292730699109
v -19.318300247192383 17.229114532470703 0.0000011889295630738405
v -18.895700454711914 17.623056411743164 -0.7452192597756909
v -20.13559913635254 17.630599975585938 -0.6730292730699109
v -19.318300247192383 17.229114532470703 0.0000011889295630738405
v -20.530500411987305 17.638141632080078 -0.43702724508147706
v -20.13559913635254 17.630599975585938 -0.6730292730699109
v -21.250499725341797 18.839202880859375 -0.731862276114039
v -20.25 18.84125328063965 -0.9516962461839242
v -20.13559913635254 17.630599975585938 -0.6730292730699109
v -20.25 18.84125328063965 -0.9516962461839242
v -19.740800857543945 17.623056411743164 -0.7452192597756909
v -19.286399841308594 18.815963745117188 1.8485907621015982
v -20.524499893188477 18.84125328063965 1.5005607909788565
v -20.457799911499023 17.809661865234375 0.43702974983353154
v -19.286399841308594 18.815963745117188 1.8485907621015982
v -20.457799911499023 17.809661865234375 0.43702974983353154
v -19.318300247192383 17.572473526000977 0.7652687735189868
v -19.183500289916992 18.815963745117188 -1.0252992802033944
v -18.116899490356445 18.84125328063965 -0.9516962461839242
v -18.895700454711914 17.623056411743164 -0.7452192597756909
v -19.183500289916992 18.815963745117188 -1.0252992802033944
v -18.895700454711914 17.623056411743164 -0.7452192597756909
v -19.318300247192383 17.572473526000977 -0.7538312368760632
v -21.56049919128418 18.84880256652832 0.9495697326292472
v -20.457799911499023 17.809661865234375 0.43702974983353154
v -21.29560089111328 18.845022201538086 1.4025507278074698
v -18.116899490356445 18.84125328063965 1.4891307658781485
v -18.178800582885742 17.809661865234375 0.43702974983353154
v -17.322799682617188 18.846763610839844 1.4619807309736685
v -21.29560089111328 18.845022201538086 1.4025507278074698
v -20.457799911499023 17.809661865234375 0.43702974983353154
v -20.524499893188477 18.84125328063965 1.5005607909788565
v -17.032699584960938 18.576122283935547 -0.4720392518411204
v -16.821399688720703 18.446311950683594 0.03757544674772771
v -17.915199279785156 17.638141632080078 0.0000011889295631646627
v -17.032699584960938 18.576122283935547 -0.4720392518411204
v -17.915199279785156 17.638141632080078 0.0000011889295631646627
v -18.106000900268555 17.638141632080078 -0.43702724508147706
vt 0.5132420063018799 0.035103797912597656
vt 0.6685540080070496 0.059008002281188965
vt 0.6769909858703613 0.16297298669815063
vt 0.5132420063018799 0.035103797912597656
vt 0.6769909858703613 0.16297298669815063
vt 0.5175899863243103 0.16042399406433105
vt 0.4867579936981201 0.4039909839630127
vt 0.642071008682251 0.4451709985733032
vt 0.4867579936981201 0.5
vt 0.4867579936981201 0.035103797912597656
vt 0.5443450212478638 0.04020172357559204
vt 0.6137480139732361 0.16297298669815063
vt 0.4867579936981201 0.035103797912597656
vt 0.6137480139732361 0.16297298669815063
vt 0.4683850109577179 0.16042399406433105
vt 0.4867579936981201 0.594573974609375
vt 0.4867579936981201 0.5
vt 0.5443450212478638 0.5934939980506897
vt 0.29551801085472107 0.5
vt 0.4867579936981201 0.5
vt 0.3215239942073822 0.5548290014266968
vt 0.29551801085472107 0.5
vt 0.1464339941740036 0.4952859878540039
vt 0.16397599875926971 0.40138399600982666
vt 0.29551801085472107 0.5
vt 0.16397599875926971 0.40138399600982666
vt 0.33144599199295044 0.4451709985733032
vt 0.6779850125312805 0.5
vt 0.4867579936981201 0.5
vt 0.642071008682251 0.4451709985733032
vt 0.5 0.041721880435943604
vt 0.5 0.16373401880264282
vt 0.4282970130443573 0.14377301931381226
vt 0.5 0.041721880435943604
vt 0.4282970130443573 0.14377301931381226
vt 0.4451709985733032 0.041721880435943604
vt 0.33144599199295044 0.4451709985733032
vt 0.4867579936981201 0.5
vt 0.29551801085472107 0.5
vt 0.33144599199295044 0.4451709985733032
vt 0.16397599875926971 0.40138399600982666
vt 0.2147739976644516 0.3165830373764038
vt 0.6519799828529358 0.5548290014266968
vt 0.4867579936981201 0.5
vt 0.6779850125312805 0.5
vt 0.6519799828529358 0.041721880435943604
vt 0.777550995349884 0.14377301931381226
vt 0.7501149773597717 0.16276699304580688
vt 0.6519799828529358 0.041721880435943604
vt 0.7501149773597717 0.16276699304580688
vt 0.5981550216674805 0.04096198081970215
vt 0.5548290014266968 0.059008002281188965
vt 0.6191310286521912 0.16373401880264282
vt 0.5 0.16373401880264282
vt 0.5548290014266968 0.059008002281188965
vt 0.5 0.16373401880264282
vt 0.5 0.041721880435943604
vt 0.3215239942073822 0.5548290014266968
vt 0.4867579936981201 0.5
vt 0.3753480017185211 0.5844370126724243
vt 0.3215239942073822 0.041721880435943604
vt 0.3753480017185211 0.04096198081970215
vt 0.19920900464057922 0.16335296630859375
vt 0.3215239942073822 0.041721880435943604
vt 0.19920900464057922 0.16335296630859375
vt 0.17523400485515594 0.1362529993057251
vt 0.4291589856147766 0.5934939980506897
vt 0.4867579936981201 0.5
vt 0.4867579936981201 0.594573974609375
vt 0.4291589856147766 0.04020172357559204
vt 0.32300901412963867 0.16297298669815063
vt 0.19920900464057922 0.16335296630859375
vt 0.4291589856147766 0.04020172357559204
vt 0.19920900464057922 0.16335296630859375
vt 0.3753480017185211 0.04096198081970215
vt 0.5443450212478638 0.5934939980506897
vt 0.4867579936981201 0.5
vt 0.5981550216674805 0.5844370126724243
vt 0.4867579936981201 0.5
vt 0.33144599199295044 0.4451709985733032
vt 0.4867579936981201 0.4039909839630127
vt 0.3753480017185211 0.5844370126724243
vt 0.4867579936981201 0.5
vt 0.4291589856147766 0.5934939980506897
vt 0.5981550216674805 0.5844370126724243
vt 0.4867579936981201 0.5
vt 0.6519799828529358 0.5548290014266968
vt 0.5981550216674805 0.04096198081970215
vt 0.7501149773597717 0.16276699304580688
vt 0.6137480139732361 0.16297298669815063
vt 0.5981550216674805 0.04096198081970215
vt 0.6137480139732361 0.16297298669815063
vt 0.5443450212478638 0.04020172357559204
vt 0.5175899863243103 0.16042399406433105
vt 0.3488380014896393 0.16297298669815063
vt 0.357928991317749 0.059008002281188965
vt 0.5175899863243103 0.16042399406433105
vt 0.357928991317749 0.059008002281188965
vt 0.5132420063018799 0.035103797912597656
vt 0.4683850109577179 0.16042399406433105
vt 0.32300901412963867 0.16297298669815063
vt 0.4291589856147766 0.04020172357559204
vt 0.4683850109577179 0.16042399406433105
vt 0.4291589856147766 0.04020172357559204
vt 0.4867579936981201 0.035103797912597656
vt 0.6191310286521912 0.16373401880264282
vt 0.5548290014266968 0.059008002281188965
vt 0.6759610176086426 0.16335296630859375
vt 0.6769909858703613 0.16297298669815063
vt 0.6685540080070496 0.059008002281188965
vt 0.7852259874343872 0.16352897882461548
vt 0.24373799562454224 0.16335296630859375
vt 0.357928991317749 0.059008002281188965
vt 0.3488380014896393 0.16297298669815063
vt 0.5592210292816162 0.1362529993057251
vt 0.4952859878540039 0.12317097187042236
vt 0.5 0.041721880435943604
vt 0.5592210292816162 0.1362529993057251
vt 0.5 0.041721880435943604
vt 0.5548290014266968 0.041721880435943604
vn 0.0544486856289818 -0.7488134974104466 0.6605404504867297
vn 0.28152984152517824 -0.7766193684568748 0.5635630442714042
vn 0.22328410292081655 -0.6791654596897206 0.6991984609159952
vn 0.0544486856289818 -0.7488134974104466 0.6605404504867297
vn 0.22328410292081655 -0.6791654596897206 0.6991984609159952
vn -0.10138916672689419 -0.6755773823511257 0.7302844906788224
vn 0.0544486856289818 -0.7488134974104466 0.6605404504867297
vn -0.3780126889040885 -0.7461806573941341 0.5480153588708612
vn -5.807522745909852e-10 -0.9978160176050059 0.06605448516858271
vn -0.03318406578613323 -0.39315562695456685 -0.9188729350524276
vn -0.12084210411206596 -0.5554983753204344 -0.8226899421350222
vn -0.13079884859060326 -0.21876797920443525 -0.9669706471668
vn -0.03318406578613323 -0.39315562695456685 -0.9188729350524276
vn -0.13079884859060326 -0.21876797920443525 -0.9669706471668
vn 0.0065431787868261765 -0.21035150354316282 -0.9776039237689743
vn -0.03318406578613323 -0.39315562695456685 -0.9188729350524276
vn -5.807522745909852e-10 -0.9978160176050059 0.06605448516858271
vn -0.12084210411206596 -0.5554983753204344 -0.8226899421350222
vn 0.4858212626534416 -0.8662279590209176 0.11673398718570006
vn -5.807522745909852e-10 -0.9978160176050059 0.06605448516858271
vn 0.4320785448467997 -0.7702516462743829 -0.4690634631845408
vn 0.4858212626534416 -0.8662279590209176 0.11673398718570006
vn 0.5944454253807756 -0.804073873497069 -0.009992107049482777
vn 0.4453860135061127 -0.7882646762139444 0.4245822643569306
vn 0.4858212626534416 -0.8662279590209176 0.11673398718570006
vn 0.4453860135061127 -0.7882646762139444 0.4245822643569306
vn 0.28152984152517824 -0.7766193684568748 0.5635630442714042
vn -0.5911830086891134 -0.798706176498408 0.11212088949246468
vn -5.807522745909852e-10 -0.9978160176050059 0.06605448516858271
vn -0.3780126889040885 -0.7461806573941341 0.5480153588708612
vn -0.5911830086891134 -0.798706176498408 0.11212088949246468
vn -0.6917919754559277 -0.7017922038201821 0.17003401233869894
vn -0.6632446678146074 -0.6326369077168987 -0.39984628747794
vn -0.5911830086891134 -0.798706176498408 0.11212088949246468
vn -0.6632446678146074 -0.6326369077168987 -0.39984628747794
vn -0.4396764860788783 -0.7539043300871934 -0.4881729700271313
vn 0.28152984152517824 -0.7766193684568748 0.5635630442714042
vn -5.807522745909852e-10 -0.9978160176050059 0.06605448516858271
vn 0.4858212626534416 -0.8662279590209176 0.11673398718570006
vn 0.28152984152517824 -0.7766193684568748 0.5635630442714042
vn 0.4453860135061127 -0.7882646762139444 0.4245822643569306
vn 0.2160681618049096 -0.7707269726819305 0.5994117808608657
vn -0.4396764860788783 -0.7539043300871934 -0.4881729700271313
vn -5.807522745909852e-10 -0.9978160176050059 0.06605448516858271
vn -0.5911830086891134 -0.798706176498408 0.11212088949246468
vn -0.4396764860788783 -0.7539043300871934 -0.4881729700271313
vn -0.6632446678146074 -0.6326369077168987 -0.39984628747794
vn -0.2991358054001709 -0.33253434436470863 -0.8943929112786642
vn -0.4396764860788783 -0.7539043300871934 -0.4881729700271313
vn -0.2991358054001709 -0.33253434436470863 -0.8943929112786642
vn -0.25982779068503026 -0.5004331431796061 -0.8258669314091199
vn -0.3780126889040885 -0.7461806573941341 0.5480153588708612
vn -0.6153892102347598 -0.7586042067607341 0.21404620391764914
vn -0.6917919754559277 -0.7017922038201821 0.17003401233869894
vn -0.3780126889040885 -0.7461806573941341 0.5480153588708612
vn -0.6917919754559277 -0.7017922038201821 0.17003401233869894
vn -0.5911830086891134 -0.798706176498408 0.11212088949246468
vn 0.4320785448467997 -0.7702516462743829 -0.4690634631845408
vn -5.807522745909852e-10 -0.9978160176050059 0.06605448516858271
vn 0.27816176368722434 -0.678878604248761 -0.6795217979694742
vn 0.4320785448467997 -0.7702516462743829 -0.4690634631845408
vn 0.27816176368722434 -0.678878604248761 -0.6795217979694742
vn 0.3043990218588898 -0.3866836454020641 -0.8705268484486403
vn 0.4320785448467997 -0.7702516462743829 -0.4690634631845408
vn 0.3043990218588898 -0.3866836454020641 -0.8705268484486403
vn 0.5513606278212079 -0.6800935980292255 -0.48319163486991945
vn 0.13204755277504335 -0.3761243208380801 -0.9171117375108746
vn -5.807522745909852e-10 -0.9978160176050059 0.06605448516858271
vn -0.03318406578613323 -0.39315562695456685 -0.9188729350524276
vn 0.13204755277504335 -0.3761243208380801 -0.9171117375108746
vn 0.1369199305295958 -0.24999658754702517 -0.9585168954372234
vn 0.3043990218588898 -0.3866836454020641 -0.8705268484486403
vn 0.13204755277504335 -0.3761243208380801 -0.9171117375108746
vn 0.3043990218588898 -0.3866836454020641 -0.8705268484486403
vn 0.27816176368722434 -0.678878604248761 -0.6795217979694742
vn -0.12084210411206596 -0.5554983753204344 -0.8226899421350222
vn -5.807522745909852e-10 -0.9978160176050059 0.06605448516858271
vn -0.25982779068503026 -0.5004331431796061 -0.8258669314091199
vn -5.807522745909852e-10 -0.9978160176050059 0.06605448516858271
vn 0.28152984152517824 -0.7766193684568748 0.5635630442714042
vn 0.0544486856289818 -0.7488134974104466 0.6605404504867297
vn 0.27816176368722434 -0.678878604248761 -0.6795217979694742
vn -5.807522745909852e-10 -0.9978160176050059 0.06605448516858271
vn 0.13204755277504335 -0.3761243208380801 -0.9171117375108746
vn -0.25982779068503026 -0.5004331431796061 -0.8258669314091199
vn -5.807522745909852e-10 -0.9978160176050059 0.06605448516858271
vn -0.4396764860788783 -0.7539043300871934 -0.4881729700271313
vn -0.25982779068503026 -0.5004331431796061 -0.8258669314091199
vn -0.2991358054001709 -0.33253434436470863 -0.8943929112786642
vn -0.13079884859060326 -0.21876797920443525 -0.9669706471668
vn -0.25982779068503026 -0.5004331431796061 -0.8258669314091199
vn -0.13079884859060326 -0.21876797920443525 -0.9669706471668
vn -0.12084210411206596 -0.5554983753204344 -0.8226899421350222
vn -0.10138916672689419 -0.6755773823511257 0.7302844906788224
vn -0.1616857983071087 -0.7134068772210134 0.6818418659480765
vn -0.3780126889040885 -0.7461806573941341 0.5480153588708612
vn -0.10138916672689419 -0.6755773823511257 0.7302844906788224
vn -0.3780126889040885 -0.7461806573941341 0.5480153588708612
vn 0.0544486856289818 -0.7488134974104466 0.6605404504867297
vn 0.0065431787868261765 -0.21035150354316282 -0.9776039237689743
vn 0.1369199305295958 -0.24999658754702517 -0.9585168954372234
vn 0.13204755277504335 -0.3761243208380801 -0.9171117375108746
vn 0.0065431787868261765 -0.21035150354316282 -0.9776039237689743
vn 0.13204755277504335 -0.3761243208380801 -0.9171117375108746
vn -0.03318406578613323 -0.39315562695456685 -0.9188729350524276
vn -0.6153892102347598 -0.7586042067607341 0.21404620391764914
vn -0.3780126889040885 -0.7461806573941341 0.5480153588708612
vn -0.3041712878406657 -0.7696369731210054 0.5613722091967929
vn 0.22328410292081655 -0.6791654596897206 0.6991984609159952
vn 0.28152984152517824 -0.7766193684568748 0.5635630442714042
vn 0.2160681618049096 -0.7707269726819305 0.5994117808608657
vn -0.3041712878406657 -0.7696369731210054 0.5613722091967929
vn -0.3780126889040885 -0.7461806573941341 0.5480153588708612
vn -0.1616857983071087 -0.7134068772210134 0.6818418659480765
vn 0.5513606278212079 -0.6800935980292255 -0.48319163486991945
vn 0.5944454253807756 -0.804073873497069 -0.009992107049482777
vn 0.4858212626534416 -0.8662279590209176 0.11673398718570006
vn 0.5513606278212079 -0.6800935980292255 -0.48319163486991945
vn 0.4858212626534416 -0.8662279590209176 0.11673398718570006
vn 0.4320785448467997 -0.7702516462743829 -0.4690634631845408
f 1/1/1 2/2/2 3/3/3
f 4/4/4 5/5/5 6/6/6
f 7/7/7 8/8/8 9/9/9
f 10/10/10 11/11/11 12/12/12
f 13/13/13 14/14/14 15/15/15
f 16/16/16 17/17/17 18/18/18
f 19/19/19 20/20/20 21/21/21
f 22/22/22 23/23/23 24/24/24
f 25/25/25 26/26/26 27/27/27
f 28/28/28 29/29/29 30/30/30
f 31/31/31 32/32/32 33/33/33
f 34/34/34 35/35/35 36/36/36
f 37/37/37 38/38/38 39/39/39
f 40/40/40 41/41/41 42/42/42
f 43/43/43 44/44/44 45/45/45
f 46/46/46 47/47/47 48/48/48
f 49/49/49 50/50/50 51/51/51
f 52/52/52 53/53/53 54/54/54
f 55/55/55 56/56/56 57/57/57
f 58/58/58 59/59/59 60/60/60
f 61/61/61 62/62/62 63/63/63
f 64/64/64 65/65/65 66/66/66
f 67/67/67 68/68/68 69/69/69
f 70/70/70 71/71/71 72/72/72
f 73/73/73 74/74/74 75/75/75
f 76/76/76 77/77/77 78/78/78
f 79/79/79 80/80/80 81/81/81
f 82/82/82 83/83/83 84/84/84
f 85/85/85 86/86/86 87/87/87
f 88/88/88 89/89/89 90/90/90
f 91/91/91 92/92/92 93/93/93
f 94/94/94 95/95/95 96/96/96
f 97/97/97 98/98/98 99/99/99
f 100/100/100 101/101/101 102/102/102
f 103/103/103 104/104/104 105/105/105
f 106/106/106 107/107/107 108/108/108
f 109/109/109 110/110/110 111/111/111
f 112/112/112 113/113/113 114/114/114
f 115/115/115 116/116/116 117/117/117
f 118/118/118 119/119/119 120/120/120
