mtllib ArcadaCompleta.mtl
o D13C_CL
usemtl Esmalte
v -19.318300247192383 27.14166259765625 -3.5953492813478016
v -18.22599983215332 26.918922424316406 -3.300649135626366
v -17.98349952697754 24.922212600708008 -3.749479263342431
v -19.318300247192383 27.14166259765625 -3.5953492813478016
v -17.98349952697754 24.922212600708008 -3.749479263342431
v -19.318300247192383 24.922212600708008 -3.9814092808137445
v -19.318300247192383 23.472702026367188 -3.7558192901979
v -19.318300247192383 24.922212600708008 -3.9814092808137445
v -17.98349952697754 24.922212600708008 -3.749479263342431
v -19.318300247192383 23.472702026367188 -3.7558192901979
v -17.98349952697754 24.922212600708008 -3.749479263342431
v -17.790800094604492 23.472702026367188 -3.4187392883668455
v -20.410499572753906 27.113262176513672 -3.300649135626366
v -20.652999877929688 24.922212600708008 -3.5245091610322503
v -21.6653995513916 24.922212600708008 -2.693359344519189
v -20.410499572753906 27.113262176513672 -3.300649135626366
v -21.6653995513916 24.922212600708008 -2.693359344519189
v -21.340900421142578 26.742603302001953 -2.5169591598878407
v -20.845699310302734 23.472702026367188 -3.4187392883668455
v -20.652999877929688 24.922212600708008 -3.5245091610322503
v -19.318300247192383 24.922212600708008 -3.9814092808137445
v -20.845699310302734 23.472702026367188 -3.4187392883668455
v -19.318300247192383 24.922212600708008 -3.9814092808137445
v -19.318300247192383 23.472702026367188 -3.7558192901979
v -20.845699310302734 23.472702026367188 -3.4187392883668455
v -21.46430015563965 23.472702026367188 -2.889469354666284
v -21.6653995513916 24.922212600708008 -2.693359344519189
v -20.845699310302734 23.472702026367188 -3.4187392883668455
v -21.6653995513916 24.922212600708008 -2.693359344519189
v -20.652999877929688 24.922212600708008 -3.5245091610322503
v -16.971099853515625 24.922212600708008 -2.693359344519189
v -17.98349952697754 24.922212600708008 -3.749479263342431
v -18.22599983215332 26.918922424316406 -3.300649135626366
v -16.971099853515625 24.922212600708008 -2.693359344519189
v -18.22599983215332 26.918922424316406 -3.300649135626366
v -17.29560089111328 26.330951690673828 -2.5169591598878407
v -19.318300247192383 24.922212600708008 -3.9814092808137445
v -20.652999877929688 24.922212600708008 -3.5245091610322503
v -20.410499572753906 27.113262176513672 -3.300649135626366
v -19.318300247192383 24.922212600708008 -3.9814092808137445
v -20.410499572753906 27.113262176513672 -3.300649135626366
v -19.318300247192383 27.14166259765625 -3.5953492813478016
v -17.98349952697754 24.922212600708008 -3.749479263342431
v -16.971099853515625 24.922212600708008 -2.693359344519189
v -17.172199249267578 23.472702026367188 -2.889469354666284
v -17.98349952697754 24.922212600708008 -3.749479263342431
v -17.172199249267578 23.472702026367188 -2.889469354666284
v -17.790800094604492 23.472702026367188 -3.4187392883668455
vt 0.4867579936981201 0.9994999766349792
vt 0.3378790020942688 0.9770519733428955
vt 0.3048270046710968 0.7758209705352783
vt 0.4867579936981201 0.9994999766349792
vt 0.3048270046710968 0.7758209705352783
vt 0.4867579936981201 0.7758209705352783
vt 0.4867579936981201 0.6297370195388794
vt 0.4867579936981201 0.7758209705352783
vt 0.3048270046710968 0.7758209705352783
vt 0.4867579936981201 0.6297370195388794
vt 0.3048270046710968 0.7758209705352783
vt 0.2785620093345642 0.6297370195388794
vt 0.6356239914894104 0.9966380000114441
vt 0.6686760187149048 0.7758209705352783
vt 0.8066650032997131 0.7758209705352783
vt 0.0859064981341362 0.9966380000114441
vt 0.16209599375724792 0.7758209705352783
vt 0.18422700464725494 0.9592829942703247
vt 0.694940984249115 0.6297370195388794
vt 0.6686760187149048 0.7758209705352783
vt 0.4867579936981201 0.7758209705352783
vt 0.694940984249115 0.6297370195388794
vt 0.4867579936981201 0.7758209705352783
vt 0.4867579936981201 0.6297370195388794
vt 0.694940984249115 0.6297370195388794
vt 0.7792549729347229 0.6297370195388794
vt 0.8066650032997131 0.7758209705352783
vt 0.694940984249115 0.6297370195388794
vt 0.8066650032997131 0.7758209705352783
vt 0.6686760187149048 0.7758209705352783
vt 0.8379039764404297 0.7758209705352783
vt 0.9704030156135559 0.7758209705352783
vt 0.914093017578125 0.9770519733428955
vt 0.8379039764404297 0.7758209705352783
vt 0.914093017578125 0.9770519733428955
vt 0.8157730102539062 0.9177960157394409
vt 0.4867579936981201 0.7758209705352783
vt 0.6686760187149048 0.7758209705352783
vt 0.6356239914894104 0.9966380000114441
vt 0.4867579936981201 0.7758209705352783
vt 0.6356239914894104 0.9966380000114441
vt 0.4867579936981201 0.9994999766349792
vt 0.9704030156135559 0.7758209705352783
vt 0.8379039764404297 0.7758209705352783
vt 0.8625079989433289 0.6297370195388794
vt 0.3048270046710968 0.7758209705352783
vt 0.1942480057477951 0.6297370195388794
vt 0.2785620093345642 0.6297370195388794
vn 0.07006379623730763 0.19512968313448478 -0.9782716755669932
vn 0.5863426456228682 0.24752293043606372 -0.7713201027020617
vn 0.4262585812975804 0.06158784165720747 -0.9025023876035901
vn 0.07006379623730763 0.19512968313448478 -0.9782716755669932
vn 0.4262585812975804 0.06158784165720747 -0.9025023876035901
vn -0.13519436123966838 0.044541202495379184 -0.9898174407279676
vn 0.05201151474574163 -0.16800588268710745 -0.9844129345535741
vn -0.13519436123966838 0.044541202495379184 -0.9898174407279676
vn 0.4262585812975804 0.06158784165720747 -0.9025023876035901
vn 0.05201151474574163 -0.16800588268710745 -0.9844129345535741
vn 0.4262585812975804 0.06158784165720747 -0.9025023876035901
vn 0.36952810848956125 -0.1597414436498043 -0.915386065120506
vn -0.472289228104593 0.15914816942276924 -0.8669571760968067
vn -0.4793326957780345 0.08563265068794775 -0.8734455998482781
vn -0.6473062310777048 0.11201659029857328 -0.7539541940369183
vn -0.472289228104593 0.15914816942276924 -0.8669571760968067
vn -0.6473062310777048 0.11201659029857328 -0.7539541940369183
vn -0.675621078351779 0.18947633709192901 -0.7124850006624737
vn -0.43190802299858755 -0.045604443114273974 -0.9007639504541068
vn -0.4793326957780345 0.08563265068794775 -0.8734455998482781
vn -0.13519436123966838 0.044541202495379184 -0.9898174407279676
vn -0.43190802299858755 -0.045604443114273974 -0.9007639504541068
vn -0.13519436123966838 0.044541202495379184 -0.9898174407279676
vn 0.05201151474574163 -0.16800588268710745 -0.9844129345535741
vn -0.43190802299858755 -0.045604443114273974 -0.9007639504541068
vn -0.6500601179178261 0.012606597518563542 -0.7597782023667611
vn -0.6473062310777048 0.11201659029857328 -0.7539541940369183
vn -0.43190802299858755 -0.045604443114273974 -0.9007639504541068
vn -0.6473062310777048 0.11201659029857328 -0.7539541940369183
vn -0.4793326957780345 0.08563265068794775 -0.8734455998482781
vn 0.7148454462271134 0.16444402189912646 -0.6796720912837299
vn 0.4262585812975804 0.06158784165720747 -0.9025023876035901
vn 0.5863426456228682 0.24752293043606372 -0.7713201027020617
vn 0.7148454462271134 0.16444402189912646 -0.6796720912837299
vn 0.5863426456228682 0.24752293043606372 -0.7713201027020617
vn 0.7106940593571854 0.2462268418801136 -0.6590040184491677
vn -0.13519436123966838 0.044541202495379184 -0.9898174407279676
vn -0.4793326957780345 0.08563265068794775 -0.8734455998482781
vn -0.472289228104593 0.15914816942276924 -0.8669571760968067
vn -0.13519436123966838 0.044541202495379184 -0.9898174407279676
vn -0.472289228104593 0.15914816942276924 -0.8669571760968067
vn 0.07006379623730763 0.19512968313448478 -0.9782716755669932
vn 0.4262585812975804 0.06158784165720747 -0.9025023876035901
vn 0.7148454462271134 0.16444402189912646 -0.6796720912837299
vn 0.6965751104736518 -0.035297819454569605 -0.7166150845540252
vn 0.4262585812975804 0.06158784165720747 -0.9025023876035901
vn 0.6965751104736518 -0.035297819454569605 -0.7166150845540252
vn 0.36952810848956125 -0.1597414436498043 -0.915386065120506
f 1/1/1 2/2/2 3/3/3
f 4/4/4 5/5/5 6/6/6
f 7/7/7 8/8/8 9/9/9
f 10/10/10 11/11/11 12/12/12
f 13/13/13 14/14/14 15/15/15
f 16/16/16 17/17/17 18/18/18
f 19/19/19 20/20/20 21/21/21
f 22/22/22 23/23/23 24/24/24
f 25/25/25 26/26/26 27/27/27
f 28/28/28 29/29/29 30/30/30
f 31/31/31 32/32/32 33/33/33
f 34/34/34 35/35/35 36/36/36
f 37/37/37 38/38/38 39/39/39
f 40/40/40 41/41/41 42/42/42
f 43/43/43 44/44/44 45/45/45
f 46/46/46 47/47/47 48/48/48
