mtllib ArcadaCompleta.mtl
o D14C_CMV
usemtl Esmalte
v -24.179500579833984 19.401752471923828 2.2030108279814202
v -24.094600677490234 21.309043884277344 2.891340763055273
v -25.149700164794922 20.868743896484375 3.714220792733618
v -24.179500579833984 19.401752471923828 2.2030108279814202
v -25.149700164794922 20.868743896484375 3.714220792733618
v -25.524900436401367 18.52054214477539 3.098390848123022
v -24.179500579833984 19.401752471923828 2.2030108279814202
v -24.63610076904297 18.858142852783203 1.981720716439672
v -24.27669906616211 19.564332962036133 1.4794907874693353
v -24.179500579833984 19.401752471923828 2.2030108279814202
v -24.27669906616211 19.564332962036133 1.4794907874693353
v -23.716699600219727 20.048233032226562 1.6739406890501458
v -26.779399871826172 18.086803436279297 3.2916808433165032
v -25.524900436401367 18.52054214477539 3.098390848123022
v -25.149700164794922 20.868743896484375 3.714220792733618
v -26.779399871826172 18.086803436279297 3.2916808433165032
v -25.149700164794922 20.868743896484375 3.714220792733618
v -26.778400421142578 19.875411987304688 3.818580657922216
v -26.779399871826172 17.56696319580078 2.540350706063695
v -25.605300903320312 17.953880310058594 2.5373606986631825
v -25.524900436401367 18.52054214477539 3.098390848123022
v -26.779399871826172 17.56696319580078 2.540350706063695
v -25.524900436401367 18.52054214477539 3.098390848123022
v -26.779399871826172 18.086803436279297 3.2916808433165032
v -26.779399871826172 17.56696319580078 2.540350706063695
v -25.701000213623047 17.823944091796875 2.1881108588804676
v -25.605300903320312 17.953880310058594 2.5373606986631825
v -24.54450035095215 19.782503128051758 1.3975807733168084
v -24.27669906616211 19.564332962036133 1.4794907874693353
v -24.63610076904297 18.858142852783203 1.981720716439672
v -26.779399871826172 18.654462814331055 0.6073517508139089
v -25.858600616455078 18.9196834564209 0.7560017413725333
v -26.023399353027344 18.294963836669922 1.2663407630552723
v -26.779399871826172 18.654462814331055 0.6073517508139089
v -26.023399353027344 18.294963836669922 1.2663407630552723
v -26.779399871826172 18.189353942871094 1.0833907432188465
v -25.858600616455078 18.9196834564209 0.7560017413725333
v -25.114299774169922 19.2882022857666 1.0513707704176383
v -25.314199447631836 18.55876350402832 1.6253707713713124
v -25.858600616455078 18.9196834564209 0.7560017413725333
v -25.314199447631836 18.55876350402832 1.6253707713713124
v -26.023399353027344 18.294963836669922 1.2663407630552723
v -24.63610076904297 18.858142852783203 1.981720716439672
v -25.314199447631836 18.55876350402832 1.6253707713713124
v -25.114299774169922 19.2882022857666 1.0513707704176383
v -24.63610076904297 18.858142852783203 1.981720716439672
v -25.114299774169922 19.2882022857666 1.0513707704176383
v -24.54450035095215 19.782503128051758 1.3975807733168084
v -25.524900436401367 18.52054214477539 3.098390848123022
v -25.605300903320312 17.953880310058594 2.5373606986631825
v -24.63610076904297 18.858142852783203 1.981720716439672
v -25.524900436401367 18.52054214477539 3.098390848123022
v -24.63610076904297 18.858142852783203 1.981720716439672
v -24.179500579833984 19.401752471923828 2.2030108279814202
v -26.779399871826172 17.729888916015625 1.6966407603849842
v -26.372800827026367 17.881731033325195 1.8338607854475453
v -26.779399871826172 17.56696319580078 2.540350706063695
v -26.779399871826172 17.729888916015625 1.6966407603849842
v -26.779399871826172 18.189353942871094 1.0833907432188465
v -26.023399353027344 18.294963836669922 1.2663407630552723
v -26.779399871826172 17.729888916015625 1.6966407603849842
v -26.023399353027344 18.294963836669922 1.2663407630552723
v -26.372800827026367 17.881731033325195 1.8338607854475453
v -26.372800827026367 17.881731033325195 1.8338607854475453
v -26.023399353027344 18.294963836669922 1.2663407630552723
v -25.314199447631836 18.55876350402832 1.6253707713713124
v -26.372800827026367 17.881731033325195 1.8338607854475453
v -25.314199447631836 18.55876350402832 1.6253707713713124
v -25.701000213623047 17.823944091796875 2.1881108588804676
v -26.372800827026367 17.881731033325195 1.8338607854475453
v -25.701000213623047 17.823944091796875 2.1881108588804676
v -26.779399871826172 17.56696319580078 2.540350706063695
v -25.605300903320312 17.953880310058594 2.5373606986631825
v -25.701000213623047 17.823944091796875 2.1881108588804676
v -25.314199447631836 18.55876350402832 1.6253707713713124
v -25.605300903320312 17.953880310058594 2.5373606986631825
v -25.314199447631836 18.55876350402832 1.6253707713713124
v -24.63610076904297 18.858142852783203 1.981720716439672
v -23.716699600219727 20.048233032226562 1.6739406890501458
v -23.390399932861328 21.309043884277344 2.1044106788267576
v -24.094600677490234 21.309043884277344 2.891340763055273
v -23.716699600219727 20.048233032226562 1.6739406890501458
v -24.094600677490234 21.309043884277344 2.891340763055273
v -24.179500579833984 19.401752471923828 2.2030108279814202
vt 0.24945400655269623 0.21596401929855347
vt 0.17270399630069733 0.43994200229644775
vt 0.08095069974660873 0.38823598623275757
vt 0.24945400655269623 0.21596401929855347
vt 0.08095069974660873 0.38823598623275757
vt 0.149617001414299 0.1124809980392456
vt 0.24945400655269623 0.21596401929855347
vt 0.2741290032863617 0.1521260142326355
vt 0.330128014087677 0.23505598306655884
vt 0.24945400655269623 0.21596401929855347
vt 0.330128014087677 0.23505598306655884
vt 0.308447003364563 0.2918820381164551
vt 0.5000069737434387 0.06154578924179077
vt 0.6808949708938599 0.1124809980392456
vt 0.7349950075149536 0.38823598623275757
vt 0.5000069737434387 0.06154578924179077
vt 0.7349950075149536 0.38823598623275757
vt 0.5001509785652161 0.2715870141983032
vt 0.4999929964542389 0.21184003353118896
vt 0.33069801330566406 0.2121729850769043
vt 0.31910499930381775 0.1496170163154602
vt 0.4999929964542389 0.21184003353118896
vt 0.31910499930381775 0.1496170163154602
vt 0.4999929964542389 0.12806499004364014
vt 0.4999929964542389 0.21184003353118896
vt 0.3444969952106476 0.2511160373687744
vt 0.33069801330566406 0.2121729850769043
vt 0.17773999273777008 0.2606760263442993
vt 0.1391250044107437 0.23505598306655884
vt 0.1909479945898056 0.1521260142326355
vt 0.4999929964542389 0.1282079815864563
vt 0.36722201108932495 0.15935301780700684
vt 0.3909839987754822 0.08599060773849487
vt 0.4999929964542389 0.427374005317688
vt 0.3909839987754822 0.35389500856399536
vt 0.4999929964542389 0.3742940425872803
vt 0.4107989966869354 0.15935301780700684
vt 0.3778649866580963 0.2026289701461792
vt 0.31386199593544006 0.11696898937225342
vt 0.4107989966869354 0.15935301780700684
vt 0.31386199593544006 0.11696898937225342
vt 0.35389500856399536 0.08599060773849487
vt 0.2741290032863617 0.1521260142326355
vt 0.31386199593544006 0.11696898937225342
vt 0.3778649866580963 0.2026289701461792
vt 0.2741290032863617 0.1521260142326355
vt 0.3778649866580963 0.2026289701461792
vt 0.3392620086669922 0.2606760263442993
vt 0.149617001414299 0.1124809980392456
vt 0.2121729999780655 0.045936405658721924
vt 0.2741290032863617 0.1521260142326355
vt 0.149617001414299 0.1124809980392456
vt 0.2741290032863617 0.1521260142326355
vt 0.24945400655269623 0.21596401929855347
vt 0.4999929964542389 0.3059160113334656
vt 0.44136500358581543 0.2906149625778198
vt 0.4999929964542389 0.21184003353118896
vt 0.4999929964542389 0.3059160113334656
vt 0.4999929964542389 0.3742940425872803
vt 0.3909839987754822 0.35389500856399536
vt 0.4999929964542389 0.3059160113334656
vt 0.3909839987754822 0.35389500856399536
vt 0.44136500358581543 0.2906149625778198
vt 0.44136500358581543 0.2906149625778198
vt 0.3909839987754822 0.35389500856399536
vt 0.28872400522232056 0.3138619661331177
vt 0.44136500358581543 0.2906149625778198
vt 0.28872400522232056 0.3138619661331177
vt 0.3444969952106476 0.2511160373687744
vt 0.44136500358581543 0.2906149625778198
vt 0.3444969952106476 0.2511160373687744
vt 0.4999929964542389 0.21184003353118896
vt 0.2121729999780655 0.045936405658721924
vt 0.251116007566452 0.030677616596221924
vt 0.31386199593544006 0.11696898937225342
vt 0.33069801330566406 0.2121729850769043
vt 0.28872400522232056 0.3138619661331177
vt 0.1909479945898056 0.2741290330886841
vt 0.308447003364563 0.2918820381164551
vt 0.26044800877571106 0.43994200229644775
vt 0.17270399630069733 0.43994200229644775
vt 0.308447003364563 0.2918820381164551
vt 0.17270399630069733 0.43994200229644775
vt 0.24945400655269623 0.21596401929855347
vn 0.7389671972331642 -0.3688362326070167 0.5638149651522424
vn 0.7276251478744787 -0.28970061007244974 0.6217999684016503
vn 0.4717131714431973 -0.29053527407337926 0.8325118247845533
vn 0.7389671972331642 -0.3688362326070167 0.5638149651522424
vn 0.4717131714431973 -0.29053527407337926 0.8325118247845533
vn 0.5169305941529588 -0.459830332970748 0.7220379669440383
vn 0.7389671972331642 -0.3688362326070167 0.5638149651522424
vn 0.7064590434657786 -0.6866427045043582 -0.17157335532173407
vn 0.6005987329764031 -0.6795170086285114 -0.42135234297639634
vn 0.7389671972331642 -0.3688362326070167 0.5638149651522424
vn 0.6005987329764031 -0.6795170086285114 -0.42135234297639634
vn 0.80959878250016 -0.37493207077271834 0.4516367497008411
vn 0.26075524939734357 -0.37144935073931457 0.8910847769696612
vn 0.5169305941529588 -0.459830332970748 0.7220379669440383
vn 0.4717131714431973 -0.29053527407337926 0.8325118247845533
vn 0.26075524939734357 -0.37144935073931457 0.8910847769696612
vn 0.4717131714431973 -0.29053527407337926 0.8325118247845533
vn 0.22773313186314673 -0.2752720790904209 0.9340036954557727
vn 0.3012727741761659 -0.8942412569979399 0.33100950110675303
vn 0.5919011006560007 -0.7622211877075401 0.2620533305491876
vn 0.5169305941529588 -0.459830332970748 0.7220379669440383
vn 0.3012727741761659 -0.8942412569979399 0.33100950110675303
vn 0.5169305941529588 -0.459830332970748 0.7220379669440383
vn 0.26075524939734357 -0.37144935073931457 0.8910847769696612
vn 0.3012727741761659 -0.8942412569979399 0.33100950110675303
vn 0.38109649280979924 -0.8647450963514463 -0.32708008423656537
vn 0.5919011006560007 -0.7622211877075401 0.2620533305491876
vn 0.5193213083625543 -0.4927097723427232 -0.698242406989569
vn 0.6005987329764031 -0.6795170086285114 -0.42135234297639634
vn 0.7064590434657786 -0.6866427045043582 -0.17157335532173407
vn 0.2837385681193743 -0.6666939497307338 -0.6892108547853848
vn 0.455607212749148 -0.6297728105769868 -0.6291329547471786
vn 0.37899437852964574 -0.7351989227373592 -0.5620016059129672
vn 0.2837385681193743 -0.6666939497307338 -0.6892108547853848
vn 0.37899437852964574 -0.7351989227373592 -0.5620016059129672
vn 0.25444303956684716 -0.7373034668240416 -0.6258133407216829
vn 0.455607212749148 -0.6297728105769868 -0.6291329547471786
vn 0.6097448792703316 -0.5448306556293206 -0.5756481033497229
vn 0.5320531898399014 -0.6899009393825776 -0.490872791077508
vn 0.455607212749148 -0.6297728105769868 -0.6291329547471786
vn 0.5320531898399014 -0.6899009393825776 -0.490872791077508
vn 0.37899437852964574 -0.7351989227373592 -0.5620016059129672
vn 0.7064590434657786 -0.6866427045043582 -0.17157335532173407
vn 0.5320531898399014 -0.6899009393825776 -0.490872791077508
vn 0.6097448792703316 -0.5448306556293206 -0.5756481033497229
vn 0.7064590434657786 -0.6866427045043582 -0.17157335532173407
vn 0.6097448792703316 -0.5448306556293206 -0.5756481033497229
vn 0.5193213083625543 -0.4927097723427232 -0.698242406989569
vn 0.5169305941529588 -0.459830332970748 0.7220379669440383
vn 0.5919011006560007 -0.7622211877075401 0.2620533305491876
vn 0.7064590434657786 -0.6866427045043582 -0.17157335532173407
vn 0.5169305941529588 -0.459830332970748 0.7220379669440383
vn 0.7064590434657786 -0.6866427045043582 -0.17157335532173407
vn 0.7389671972331642 -0.3688362326070167 0.5638149651522424
vn 0.34392409189890716 -0.8442107709393761 -0.41112576329081585
vn 0.3295955936565304 -0.8457247396372518 -0.4196622563534895
vn 0.3012727741761659 -0.8942412569979399 0.33100950110675303
vn 0.34392409189890716 -0.8442107709393761 -0.41112576329081585
vn 0.25444303956684716 -0.7373034668240416 -0.6258133407216829
vn 0.37899437852964574 -0.7351989227373592 -0.5620016059129672
vn 0.34392409189890716 -0.8442107709393761 -0.41112576329081585
vn 0.37899437852964574 -0.7351989227373592 -0.5620016059129672
vn 0.3295955936565304 -0.8457247396372518 -0.4196622563534895
vn 0.3295955936565304 -0.8457247396372518 -0.4196622563534895
vn 0.37899437852964574 -0.7351989227373592 -0.5620016059129672
vn 0.5320531898399014 -0.6899009393825776 -0.490872791077508
vn 0.3295955936565304 -0.8457247396372518 -0.4196622563534895
vn 0.5320531898399014 -0.6899009393825776 -0.490872791077508
vn 0.38109649280979924 -0.8647450963514463 -0.32708008423656537
vn 0.3295955936565304 -0.8457247396372518 -0.4196622563534895
vn 0.38109649280979924 -0.8647450963514463 -0.32708008423656537
vn 0.3012727741761659 -0.8942412569979399 0.33100950110675303
vn 0.5919011006560007 -0.7622211877075401 0.2620533305491876
vn 0.38109649280979924 -0.8647450963514463 -0.32708008423656537
vn 0.5320531898399014 -0.6899009393825776 -0.490872791077508
vn 0.5919011006560007 -0.7622211877075401 0.2620533305491876
vn 0.5320531898399014 -0.6899009393825776 -0.490872791077508
vn 0.7064590434657786 -0.6866427045043582 -0.17157335532173407
vn 0.80959878250016 -0.37493207077271834 0.4516367497008411
vn 0.686922205998272 -0.3876515106620788 0.6147065878839072
vn 0.7276251478744787 -0.28970061007244974 0.6217999684016503
vn 0.80959878250016 -0.37493207077271834 0.4516367497008411
vn 0.7276251478744787 -0.28970061007244974 0.6217999684016503
vn 0.7389671972331642 -0.3688362326070167 0.5638149651522424
f 1/1/1 2/2/2 3/3/3
f 4/4/4 5/5/5 6/6/6
f 7/7/7 8/8/8 9/9/9
f 10/10/10 11/11/11 12/12/12
f 13/13/13 14/14/14 15/15/15
f 16/16/16 17/17/17 18/18/18
f 19/19/19 20/20/20 21/21/21
f 22/22/22 23/23/23 24/24/24
f 25/25/25 26/26/26 27/27/27
f 28/28/28 29/29/29 30/30/30
f 31/31/31 32/32/32 33/33/33
f 34/34/34 35/35/35 36/36/36
f 37/37/37 38/38/38 39/39/39
f 40/40/40 41/41/41 42/42/42
f 43/43/43 44/44/44 45/45/45
f 46/46/46 47/47/47 48/48/48
f 49/49/49 50/50/50 51/51/51
f 52/52/52 53/53/53 54/54/54
f 55/55/55 56/56/56 57/57/57
f 58/58/58 59/59/59 60/60/60
f 61/61/61 62/62/62 63/63/63
f 64/64/64 65/65/65 66/66/66
f 67/67/67 68/68/68 69/69/69
f 70/70/70 71/71/71 72/72/72
f 73/73/73 74/74/74 75/75/75
f 76/76/76 77/77/77 78/78/78
f 79/79/79 80/80/80 81/81/81
f 82/82/82 83/83/83 84/84/84
