mtllib ArcadaCompleta.mtl
o D14C_FDL
usemtl Esmalte
v -29.109500885009766 23.10704231262207 -3.1158291988740476
v -29.1210994720459 21.309043884277344 -3.023349254644922
v -29.62849998474121 21.309043884277344 -2.1043293171296633
v -29.109500885009766 23.10704231262207 -3.1158291988740476
v -29.62849998474121 21.309043884277344 -2.1043293171296633
v -29.51300048828125 23.10704231262207 -2.1165892773042234
v -29.109500885009766 23.10704231262207 -3.1158291988740476
v -29.51300048828125 23.10704231262207 -2.1165892773042234
v -29.238800048828125 24.579952239990234 -1.981579273260644
v -29.109500885009766 23.10704231262207 -3.1158291988740476
v -29.238800048828125 24.579952239990234 -1.981579273260644
v -28.868000030517578 24.579952239990234 -2.8430192165742425
v -28.26059913635254 23.10704231262207 -4.117719381369165
v -28.21660041809082 20.868743896484375 -3.8396291427979983
v -29.1210994720459 21.309043884277344 -3.023349254644922
v -28.26059913635254 23.10704231262207 -4.117719381369165
v -29.1210994720459 21.309043884277344 -3.023349254644922
v -29.109500885009766 23.10704231262207 -3.1158291988740476
v -28.868000030517578 24.579952239990234 -2.8430192165742425
v -28.132099151611328 24.579952239990234 -3.8101491623292474
v -28.26059913635254 23.10704231262207 -4.117719381369165
v -28.868000030517578 24.579952239990234 -2.8430192165742425
v -28.26059913635254 23.10704231262207 -4.117719381369165
v -29.109500885009766 23.10704231262207 -3.1158291988740476
vt 0.15748299658298492 0.6510859727859497
vt 0.16779400408267975 0.43994200229644775
vt 0.2702670097351074 0.43994200229644775
vt 0.15748299658298492 0.6510859727859497
vt 0.2702670097351074 0.43994200229644775
vt 0.2689000070095062 0.6510859727859497
vt 0.15748299658298492 0.6510859727859497
vt 0.2689000070095062 0.6510859727859497
vt 0.283953994512558 0.8240540027618408
vt 0.15748299658298492 0.6510859727859497
vt 0.283953994512558 0.8240540027618408
vt 0.18790200352668762 0.8240540027618408
vt 0.045769501477479935 0.6510859727859497
vt 0.07677719742059708 0.38823598623275757
vt 0.16779400408267975 0.43994200229644775
vt 0.045769501477479935 0.6510859727859497
vt 0.16779400408267975 0.43994200229644775
vt 0.15748299658298492 0.6510859727859497
vt 0.18790200352668762 0.8240540027618408
vt 0.08006429672241211 0.8240540027618408
vt 0.045769501477479935 0.6510859727859497
vt 0.18790200352668762 0.8240540027618408
vt 0.045769501477479935 0.6510859727859497
vt 0.15748299658298492 0.6510859727859497
vn -0.8580361515836151 0.10137975151737391 -0.5034839705073587
vn -0.771149429376004 -0.055745364416483444 -0.6342089654988621
vn -0.903156843078241 0.019429839427107284 -0.4288708408609548
vn -0.8580361515836151 0.10137975151737391 -0.5034839705073587
vn -0.903156843078241 0.019429839427107284 -0.4288708408609548
vn -0.9201478182022675 0.12357142325821656 -0.3715616987951605
vn -0.8580361515836151 0.10137975151737391 -0.5034839705073587
vn -0.9201478182022675 0.12357142325821656 -0.3715616987951605
vn -0.9026582477443449 0.21002355871217498 -0.3756303935585916
vn -0.8580361515836151 0.10137975151737391 -0.5034839705073587
vn -0.9026582477443449 0.21002355871217498 -0.3756303935585916
vn -0.8028916494730545 0.21826871626483035 -0.5547285522726778
vn -0.7489475640574146 0.0529051946923517 -0.6605138807527281
vn -0.6934351187500967 -0.10224365240203824 -0.7132278539341623
vn -0.771149429376004 -0.055745364416483444 -0.6342089654988621
vn -0.7489475640574146 0.0529051946923517 -0.6605138807527281
vn -0.771149429376004 -0.055745364416483444 -0.6342089654988621
vn -0.8580361515836151 0.10137975151737391 -0.5034839705073587
vn -0.8028916494730545 0.21826871626483035 -0.5547285522726778
vn -0.7809713553161103 0.19222384864281553 -0.5942505651563671
vn -0.7489475640574146 0.0529051946923517 -0.6605138807527281
vn -0.8028916494730545 0.21826871626483035 -0.5547285522726778
vn -0.7489475640574146 0.0529051946923517 -0.6605138807527281
vn -0.8580361515836151 0.10137975151737391 -0.5034839705073587
f 1/1/1 2/2/2 3/3/3
f 4/4/4 5/5/5 6/6/6
f 7/7/7 8/8/8 9/9/9
f 10/10/10 11/11/11 12/12/12
f 13/13/13 14/14/14 15/15/15
f 16/16/16 17/17/17 18/18/18
f 19/19/19 20/20/20 21/21/21
f 22/22/22 23/23/23 24/24/24
