mtllib ArcadaCompleta.mtl
o D15C_ML
usemtl Esmalte
v -31.33489990234375 22.39684295654297 -3.1052093201051267
v -31.055700302124023 22.39684295654297 -2.1088092022309812
v -30.641700744628906 20.783483505249023 -2.09658929637771
v -31.33489990234375 22.39684295654297 -3.1052093201051267
v -30.641700744628906 20.783483505249023 -2.09658929637771
v -31.203100204467773 20.653322219848633 -3.012989252127222
v -31.203100204467773 20.653322219848633 -3.012989252127222
v -32.451900482177734 20.48431396484375 -4.020119398153834
v -32.52289962768555 22.39684295654297 -4.104239194906763
v -31.203100204467773 20.653322219848633 -3.012989252127222
v -32.52289962768555 22.39684295654297 -4.104239194906763
v -31.33489990234375 22.39684295654297 -3.1052093201051267
v -32.52289962768555 22.39684295654297 -4.104239194906763
v -32.79130172729492 24.059242248535156 -3.73168918422561
v -31.834699630737305 24.059242248535156 -2.833169191397241
v -32.52289962768555 22.39684295654297 -4.104239194906763
v -31.834699630737305 24.059242248535156 -2.833169191397241
v -31.33489990234375 22.39684295654297 -3.1052093201051267
v -31.834699630737305 24.059242248535156 -2.833169191397241
v -31.580699920654297 24.059242248535156 -1.9741892509828123
v -31.055700302124023 22.39684295654297 -2.1088092022309812
v -31.834699630737305 24.059242248535156 -2.833169191397241
v -31.055700302124023 22.39684295654297 -2.1088092022309812
v -31.33489990234375 22.39684295654297 -3.1052093201051267
vt 0.8440449833869934 0.6184679865837097
vt 0.7337110042572021 0.6184679865837097
vt 0.7323579788208008 0.4165400266647339
vt 0.8440449833869934 0.6184679865837097
vt 0.7323579788208008 0.4165400266647339
vt 0.8338329792022705 0.40024900436401367
vt 0.8338329792022705 0.40024900436401367
vt 0.9453549981117249 0.3790949583053589
vt 0.9546700119972229 0.6184679865837097
vt 0.8338329792022705 0.40024900436401367
vt 0.9546700119972229 0.6184679865837097
vt 0.8440449833869934 0.6184679865837097
vt 0.9546700119972229 0.6184679865837097
vt 0.9134169816970825 0.8265349864959717
vt 0.8139209747314453 0.8265349864959717
vt 0.9546700119972229 0.6184679865837097
vt 0.8139209747314453 0.8265349864959717
vt 0.8440449833869934 0.6184679865837097
vt 0.8139209747314453 0.8265349864959717
vt 0.7188040018081665 0.8265349864959717
vt 0.7337110042572021 0.6184679865837097
vt 0.8139209747314453 0.8265349864959717
vt 0.7337110042572021 0.6184679865837097
vt 0.8440449833869934 0.6184679865837097
vn 0.7979500312537428 0.18286451864615372 -0.5743137778622949
vn 0.9209254273294851 0.28817773633819344 -0.2623927391849855
vn 0.9038037241691843 0.13430889218312864 -0.40632493113080537
vn 0.7979500312537428 0.18286451864615372 -0.5743137778622949
vn 0.9038037241691843 0.13430889218312864 -0.40632493113080537
vn 0.6954501852076331 0.007566911151838566 -0.7185344680321807
vn 0.6954501852076331 0.007566911151838566 -0.7185344680321807
vn 0.6286184905904216 -0.010866954096541195 -0.7776378994085125
vn 0.6422459500186818 0.13232675491886287 -0.7549899135864294
vn 0.6954501852076331 0.007566911151838566 -0.7185344680321807
vn 0.6422459500186818 0.13232675491886287 -0.7549899135864294
vn 0.7979500312537428 0.18286451864615372 -0.5743137778622949
vn 0.6422459500186818 0.13232675491886287 -0.7549899135864294
vn 0.6603144197915283 0.26415537950319706 -0.7029984370501111
vn 0.7745145928384446 0.30777102418593777 -0.5526338228446004
vn 0.6422459500186818 0.13232675491886287 -0.7549899135864294
vn 0.7745145928384446 0.30777102418593777 -0.5526338228446004
vn 0.7979500312537428 0.18286451864615372 -0.5743137778622949
vn 0.7745145928384446 0.30777102418593777 -0.5526338228446004
vn 0.9117809559217022 0.30978113498285276 -0.2696129389091751
vn 0.9209254273294851 0.28817773633819344 -0.2623927391849855
vn 0.7745145928384446 0.30777102418593777 -0.5526338228446004
vn 0.9209254273294851 0.28817773633819344 -0.2623927391849855
vn 0.7979500312537428 0.18286451864615372 -0.5743137778622949
f 1/1/1 2/2/2 3/3/3
f 4/4/4 5/5/5 6/6/6
f 7/7/7 8/8/8 9/9/9
f 10/10/10 11/11/11 12/12/12
f 13/13/13 14/14/14 15/15/15
f 16/16/16 17/17/17 18/18/18
f 19/19/19 20/20/20 21/21/21
f 22/22/22 23/23/23 24/24/24
