mtllib ArcadaCompleta.mtl
o D15C_CMV
usemtl Esmalte
v -30.92919921875 19.15540313720703 2.550300628625341
v -32.65510177612305 18.76668357849121 3.4875006980528314
v -32.73569869995117 17.907669067382812 2.907410652123876
v -30.92919921875 19.15540313720703 2.550300628625341
v -32.73569869995117 17.907669067382812 2.907410652123876
v -31.3612003326416 18.589902877807617 2.2298908538450677
v -30.92919921875 19.15540313720703 2.550300628625341
v -30.6387996673584 20.001943588256836 1.8004507131208856
v -30.529699325561523 20.783483505249023 2.10015085407395
v -30.92919921875 19.15540313720703 2.550300628625341
v -30.529699325561523 20.783483505249023 2.10015085407395
v -30.813100814819336 20.653322219848633 3.046730787240454
v -33.91210174560547 18.662702560424805 3.860210687600561
v -32.65510177612305 18.76668357849121 3.4875006980528314
v -32.451900482177734 20.48431396484375 3.975500852548071
v -33.91210174560547 18.662702560424805 3.860210687600561
v -32.451900482177734 20.48431396484375 3.975500852548071
v -33.9119987487793 19.5812931060791 4.154500753365942
v -33.91210174560547 17.459428787231445 2.9106307334532215
v -32.73569869995117 17.907669067382812 2.907410652123876
v -32.65510177612305 18.76668357849121 3.4875006980528314
v -33.91210174560547 17.459428787231445 2.9106307334532215
v -32.65510177612305 18.76668357849121 3.4875006980528314
v -33.91210174560547 18.662702560424805 3.860210687600561
v -33.91210174560547 17.459428787231445 2.9106307334532215
v -32.83169937133789 17.759305953979492 2.530340702020116
v -32.73569869995117 17.907669067382812 2.907410652123876
v -30.813100814819336 20.653322219848633 3.046730787240454
v -32.451900482177734 20.48431396484375 3.975500852548071
v -32.65510177612305 18.76668357849121 3.4875006980528314
v -30.813100814819336 20.653322219848633 3.046730787240454
v -32.65510177612305 18.76668357849121 3.4875006980528314
v -30.92919921875 19.15540313720703 2.550300628625341
v -33.91210174560547 18.535293579101562 0.9388607449163869
v -32.929100036621094 19.054752349853516 1.2814007110228018
v -33.06560134887695 18.364463806152344 1.5229507989515736
v -33.91210174560547 18.535293579101562 0.9388607449163869
v -33.06560134887695 18.364463806152344 1.5229507989515736
v -33.91210174560547 18.076032638549805 1.3532607860197499
v -31.3612003326416 18.589902877807617 2.2298908538450677
v -31.159900665283203 19.128772735595703 1.598890692674108
v -30.6387996673584 20.001943588256836 1.8004507131208856
v -31.3612003326416 18.589902877807617 2.2298908538450677
v -30.6387996673584 20.001943588256836 1.8004507131208856
v -30.92919921875 19.15540313720703 2.550300628625341
v -31.3612003326416 18.589902877807617 2.2298908538450677
v -31.793800354003906 19.1151123046875 1.4908607310881095
v -31.159900665283203 19.128772735595703 1.598890692674108
v -32.929100036621094 19.054752349853516 1.2814007110228018
v -32.24369812011719 19.104143142700195 1.3959307975401358
v -32.251399993896484 18.66132354736328 1.9292407340635733
v -32.929100036621094 19.054752349853516 1.2814007110228018
v -32.251399993896484 18.66132354736328 1.9292407340635733
v -33.06560134887695 18.364463806152344 1.5229507989515736
v -33.20220184326172 17.775266647338867 2.0389406985868885
v -33.91210174560547 17.775344848632812 1.856420785867162
v -33.91210174560547 18.076032638549805 1.3532607860197499
v -33.20220184326172 17.775266647338867 2.0389406985868885
v -33.91210174560547 18.076032638549805 1.3532607860197499
v -33.06560134887695 18.364463806152344 1.5229507989515736
v -33.91210174560547 17.775344848632812 1.856420785867162
v -33.20220184326172 17.775266647338867 2.0389406985868885
v -32.83169937133789 17.759305953979492 2.530340702020116
v -33.91210174560547 17.775344848632812 1.856420785867162
v -32.83169937133789 17.759305953979492 2.530340702020116
v -33.91210174560547 17.459428787231445 2.9106307334532215
v -33.91210174560547 17.886581420898438 -1.7644592218766735
v -34.62200164794922 18.0233097076416 -2.150089233435206
v -34.99259948730469 17.8961124420166 -2.3115791969667003
v -32.73569869995117 17.907669067382812 2.907410652123876
v -32.83169937133789 17.759305953979492 2.530340702020116
v -32.251399993896484 18.66132354736328 1.9292407340635733
v -32.73569869995117 17.907669067382812 2.907410652123876
v -32.251399993896484 18.66132354736328 1.9292407340635733
v -31.3612003326416 18.589902877807617 2.2298908538450677
v -33.06560134887695 18.364463806152344 1.5229507989515736
v -32.251399993896484 18.66132354736328 1.9292407340635733
v -32.83169937133789 17.759305953979492 2.530340702020116
v -33.06560134887695 18.364463806152344 1.5229507989515736
v -32.83169937133789 17.759305953979492 2.530340702020116
v -33.20220184326172 17.775266647338867 2.0389406985868885
v -31.793800354003906 19.1151123046875 1.4908607310881095
v -31.3612003326416 18.589902877807617 2.2298908538450677
v -32.251399993896484 18.66132354736328 1.9292407340635733
v -31.793800354003906 19.1151123046875 1.4908607310881095
v -32.251399993896484 18.66132354736328 1.9292407340635733
v -32.24369812011719 19.104143142700195 1.3959307975401358
vt 0.923317015171051 0.21276801824569702
vt 0.6783739924430847 0.1641160249710083
vt 0.6669350266456604 0.05660158395767212
vt 0.07668299973011017 0.2177950143814087
vt 0.333065003156662 0.17825102806091309
vt 0.1379929929971695 0.2532750368118286
vt 0.2177949994802475 0.21276801824569702
vt 0.3008280098438263 0.3187220096588135
vt 0.26764100790023804 0.4165400266647339
vt 0.2177949994802475 0.21276801824569702
vt 0.26764100790023804 0.4165400266647339
vt 0.16282400488853455 0.40024900436401367
vt 0.4999780058860779 0.1511020064353943
vt 0.6783739924430847 0.1641160249710083
vt 0.707211971282959 0.3790949583053589
vt 0.4999780058860779 0.1511020064353943
vt 0.707211971282959 0.3790949583053589
vt 0.4999929964542389 0.26607298851013184
vt 0.4999780058860779 0.0004995465278625488
vt 0.6669350266456604 0.05660158395767212
vt 0.6783739924430847 0.1641160249710083
vt 0.4999780058860779 0.0004995465278625488
vt 0.6783739924430847 0.1641160249710083
vt 0.4999780058860779 0.1511020064353943
vt 0.5000219941139221 0.17789500951766968
vt 0.34668898582458496 0.22000503540039062
vt 0.333065003156662 0.17825102806091309
vt 0.9397940039634705 0.40024900436401367
vt 0.707211971282959 0.3790949583053589
vt 0.6783739924430847 0.1641160249710083
vt 0.9397940039634705 0.40024900436401367
vt 0.6783739924430847 0.1641160249710083
vt 0.923317015171051 0.21276801824569702
vt 0.5000219941139221 0.13515502214431763
vt 0.36051198840141296 0.20017099380493164
vt 0.3798849880695343 0.11377400159835815
vt 0.5000219941139221 0.39623403549194336
vt 0.3798849880695343 0.33155596256256104
vt 0.5000219941139221 0.3503459692001343
vt 0.2532750070095062 0.14199000597000122
vt 0.3231469988822937 0.20943498611450195
vt 0.3008280098438263 0.3187220096588135
vt 0.2532750070095062 0.14199000597000122
vt 0.3008280098438263 0.3187220096588135
vt 0.2177949994802475 0.21276801824569702
vt 0.1379929929971695 0.2532750368118286
vt 0.1993889957666397 0.33511000871658325
vt 0.10942500084638596 0.3231469988822937
vt 0.36051198840141296 0.3583040237426758
vt 0.2632389962673187 0.3456209897994995
vt 0.26433199644088745 0.28656601905822754
vt 0.36051198840141296 0.20017099380493164
vt 0.26433199644088745 0.15092897415161133
vt 0.3798849880695343 0.11377400159835815
vt 0.39927101135253906 0.27441900968551636
vt 0.5000219941139221 0.2946299910545349
vt 0.5000219941139221 0.3503459692001343
vt 0.39927101135253906 0.27441900968551636
vt 0.5000219941139221 0.3503459692001343
vt 0.3798849880695343 0.33155596256256104
vt 0.5000219941139221 0.2946299910545349
vt 0.39927101135253906 0.27441900968551636
vt 0.34668898582458496 0.22000503540039062
vt 0.5000219941139221 0.2946299910545349
vt 0.34668898582458496 0.22000503540039062
vt 0.5000219941139221 0.17789500951766968
vt 0.4999780058860779 0.053962111473083496
vt 0.3992280066013336 0.0710752010345459
vt 0.3466320037841797 0.05515497922897339
vt 0.1782509982585907 0.05660158395767212
vt 0.22000500559806824 0.03803229331970215
vt 0.28656598925590515 0.15092897415161133
vt 0.333065003156662 0.17825102806091309
vt 0.26433199644088745 0.28656601905822754
vt 0.1379929929971695 0.2532750368118286
vt 0.3798849880695343 0.33155596256256104
vt 0.26433199644088745 0.28656601905822754
vt 0.34668898582458496 0.22000503540039062
vt 0.3315559923648834 0.11377400159835815
vt 0.22000500559806824 0.03803229331970215
vt 0.27441900968551636 0.04002988338470459
vt 0.1993889957666397 0.33511000871658325
vt 0.1379929929971695 0.2532750368118286
vt 0.26433199644088745 0.28656601905822754
vt 0.1993889957666397 0.33511000871658325
vt 0.26433199644088745 0.28656601905822754
vt 0.2632389962673187 0.3456209897994995
vn 0.7200352231052032 -0.41632397121404185 0.5551789157383499
vn 0.41587217151847433 -0.40084232443519086 0.8163184231033267
vn 0.48106405860760404 -0.7675800559178592 0.42355428137738843
vn 0.7200352231052032 -0.41632397121404185 0.5551789157383499
vn 0.48106405860760404 -0.7675800559178592 0.42355428137738843
vn 0.5232696576371609 -0.7980653396432058 -0.29879855932795824
vn 0.7200352231052032 -0.41632397121404185 0.5551789157383499
vn 0.9145557188822748 -0.398063983335429 -0.07164427563215918
vn 0.9589283567826367 -0.17319346071128658 0.22463399503414505
vn 0.7200352231052032 -0.41632397121404185 0.5551789157383499
vn 0.9589283567826367 -0.17319346071128658 0.22463399503414505
vn 0.6124880772574647 -0.28385343511165717 0.7377571298149318
vn 0.29020972648512583 -0.40226690032469675 0.8683085025246435
vn 0.41587217151847433 -0.40084232443519086 0.8163184231033267
vn 0.39017521217095946 -0.2937717949617098 0.8726175773454955
vn 0.29020972648512583 -0.40226690032469675 0.8683085025246435
vn 0.39017521217095946 -0.2937717949617098 0.8726175773454955
vn 0.29213431846573423 -0.2918172813885121 0.9107690235496478
vn 0.27305223759574526 -0.8035260805938211 0.5289501993094328
vn 0.48106405860760404 -0.7675800559178592 0.42355428137738843
vn 0.41587217151847433 -0.40084232443519086 0.8163184231033267
vn 0.27305223759574526 -0.8035260805938211 0.5289501993094328
vn 0.41587217151847433 -0.40084232443519086 0.8163184231033267
vn 0.29020972648512583 -0.40226690032469675 0.8683085025246435
vn 0.27305223759574526 -0.8035260805938211 0.5289501993094328
vn 0.44352156462720893 -0.8532625540454006 -0.27428385948602985
vn 0.48106405860760404 -0.7675800559178592 0.42355428137738843
vn 0.6124880772574647 -0.28385343511165717 0.7377571298149318
vn 0.39017521217095946 -0.2937717949617098 0.8726175773454955
vn 0.41587217151847433 -0.40084232443519086 0.8163184231033267
vn 0.6124880772574647 -0.28385343511165717 0.7377571298149318
vn 0.41587217151847433 -0.40084232443519086 0.8163184231033267
vn 0.7200352231052032 -0.41632397121404185 0.5551789157383499
vn 0.42790187837049976 -0.48573712737064023 -0.7622069440648757
vn 0.4233510858482088 -0.483067967103889 -0.7664327741356438
vn 0.48188356554606476 -0.5653269653429742 -0.6694726667405587
vn 0.42790187837049976 -0.48573712737064023 -0.7622069440648757
vn 0.48188356554606476 -0.5653269653429742 -0.6694726667405587
vn 0.3026113255076294 -0.7053052287111997 -0.6410701365897163
vn 0.5232696576371609 -0.7980653396432058 -0.29879855932795824
vn 0.6250653025009337 -0.680743727565595 -0.3819441647538485
vn 0.9145557188822748 -0.398063983335429 -0.07164427563215918
vn 0.5232696576371609 -0.7980653396432058 -0.29879855932795824
vn 0.9145557188822748 -0.398063983335429 -0.07164427563215918
vn 0.7200352231052032 -0.41632397121404185 0.5551789157383499
vn 0.5232696576371609 -0.7980653396432058 -0.29879855932795824
vn 0.14147067258149307 -0.7659202705261617 -0.6271779556046844
vn 0.6250653025009337 -0.680743727565595 -0.3819441647538485
vn 0.4233510858482088 -0.483067967103889 -0.7664327741356438
vn 0.15661686383109225 -0.7609751686581939 -0.6295934804692205
vn 0.3654604836881022 -0.7263867228578563 -0.5820661162774227
vn 0.4233510858482088 -0.483067967103889 -0.7664327741356438
vn 0.3654604836881022 -0.7263867228578563 -0.5820661162774227
vn 0.48188356554606476 -0.5653269653429742 -0.6694726667405587
vn 0.3391297434789334 -0.7827050628614579 -0.5218848547897841
vn 0.13477130114611155 -0.9441483533021179 -0.3007001552116053
vn 0.3026113255076294 -0.7053052287111997 -0.6410701365897163
vn 0.3391297434789334 -0.7827050628614579 -0.5218848547897841
vn 0.3026113255076294 -0.7053052287111997 -0.6410701365897163
vn 0.48188356554606476 -0.5653269653429742 -0.6694726667405587
vn 0.13477130114611155 -0.9441483533021179 -0.3007001552116053
vn 0.3391297434789334 -0.7827050628614579 -0.5218848547897841
vn 0.44352156462720893 -0.8532625540454006 -0.27428385948602985
vn 0.13477130114611155 -0.9441483533021179 -0.3007001552116053
vn 0.44352156462720893 -0.8532625540454006 -0.27428385948602985
vn 0.27305223759574526 -0.8035260805938211 0.5289501993094328
vn -0.44343685673536704 0.17624893613501766 0.8788060460647343
vn -0.44343685673536704 0.17624893613501766 0.8788060460647343
vn -0.44343685673536704 0.17624893613501766 0.8788060460647343
vn 0.48106405860760404 -0.7675800559178592 0.42355428137738843
vn 0.44352156462720893 -0.8532625540454006 -0.27428385948602985
vn 0.3654604836881022 -0.7263867228578563 -0.5820661162774227
vn 0.48106405860760404 -0.7675800559178592 0.42355428137738843
vn 0.3654604836881022 -0.7263867228578563 -0.5820661162774227
vn 0.5232696576371609 -0.7980653396432058 -0.29879855932795824
vn 0.48188356554606476 -0.5653269653429742 -0.6694726667405587
vn 0.3654604836881022 -0.7263867228578563 -0.5820661162774227
vn 0.44352156462720893 -0.8532625540454006 -0.27428385948602985
vn 0.48188356554606476 -0.5653269653429742 -0.6694726667405587
vn 0.44352156462720893 -0.8532625540454006 -0.27428385948602985
vn 0.3391297434789334 -0.7827050628614579 -0.5218848547897841
vn 0.14147067258149307 -0.7659202705261617 -0.6271779556046844
vn 0.5232696576371609 -0.7980653396432058 -0.29879855932795824
vn 0.3654604836881022 -0.7263867228578563 -0.5820661162774227
vn 0.14147067258149307 -0.7659202705261617 -0.6271779556046844
vn 0.3654604836881022 -0.7263867228578563 -0.5820661162774227
vn 0.15661686383109225 -0.7609751686581939 -0.6295934804692205
f 1/1/1 2/2/2 3/3/3
f 4/4/4 5/5/5 6/6/6
f 7/7/7 8/8/8 9/9/9
f 10/10/10 11/11/11 12/12/12
f 13/13/13 14/14/14 15/15/15
f 16/16/16 17/17/17 18/18/18
f 19/19/19 20/20/20 21/21/21
f 22/22/22 23/23/23 24/24/24
f 25/25/25 26/26/26 27/27/27
f 28/28/28 29/29/29 30/30/30
f 31/31/31 32/32/32 33/33/33
f 34/34/34 35/35/35 36/36/36
f 37/37/37 38/38/38 39/39/39
f 40/40/40 41/41/41 42/42/42
f 43/43/43 44/44/44 45/45/45
f 46/46/46 47/47/47 48/48/48
f 49/49/49 50/50/50 51/51/51
f 52/52/52 53/53/53 54/54/54
f 55/55/55 56/56/56 57/57/57
f 58/58/58 59/59/59 60/60/60
f 61/61/61 62/62/62 63/63/63
f 64/64/64 65/65/65 66/66/66
f 67/67/67 68/68/68 69/69/69
f 70/70/70 71/71/71 72/72/72
f 73/73/73 74/74/74 75/75/75
f 76/76/76 77/77/77 78/78/78
f 79/79/79 80/80/80 81/81/81
f 82/82/82 83/83/83 84/84/84
f 85/85/85 86/86/86 87/87/87
