mtllib ArcadaCompleta.mtl
o D15C_DV
usemtl Esmalte
v -36.69919967651367 22.39684295654297 3.1389508552183596
v -37.10810089111328 22.39684295654297 2.112370759927222
v -37.2942008972168 20.783912658691406 2.10015085407395
v -36.69919967651367 22.39684295654297 3.1389508552183596
v -37.2942008972168 20.783912658691406 2.10015085407395
v -37.01089859008789 20.65371322631836 3.046730787240454
v -37.01089859008789 20.65371322631836 3.046730787240454
v -35.372100830078125 20.484533309936523 3.975500852548071
v -35.300899505615234 22.39684295654297 3.95689085193772
v -37.01089859008789 20.65371322631836 3.046730787240454
v -35.300899505615234 22.39684295654297 3.95689085193772
v -36.69919967651367 22.39684295654297 3.1389508552183596
v -35.300899505615234 22.39684295654297 3.95689085193772
v -35.03229904174805 24.059242248535156 3.5843408412565676
v -36.071998596191406 24.059242248535156 2.866910726510474
v -35.300899505615234 22.39684295654297 3.95689085193772
v -36.071998596191406 24.059242248535156 2.866910726510474
v -36.69919967651367 22.39684295654297 3.1389508552183596
v -36.071998596191406 24.059242248535156 2.866910726510474
v -36.59550094604492 24.059242248535156 1.9777506894697634
v -37.10810089111328 22.39684295654297 2.112370759927222
v -36.071998596191406 24.059242248535156 2.866910726510474
v -37.10810089111328 22.39684295654297 2.112370759927222
v -36.69919967651367 22.39684295654297 3.1389508552183596
vt 0.8473880290985107 0.6184679865837097
vt 0.7337120175361633 0.6184679865837097
vt 0.732358992099762 0.41659295558929443
vt 0.8473880290985107 0.6184679865837097
vt 0.732358992099762 0.41659295558929443
vt 0.8371760249137878 0.40029698610305786
vt 0.06019119918346405 0.40029698610305786
vt 0.29277199506759644 0.3791229724884033
vt 0.3028770089149475 0.6184679865837097
vt 0.06019119918346405 0.40029698610305786
vt 0.3028770089149475 0.6184679865837097
vt 0.1044280007481575 0.6184679865837097
vt 0.3028770089149475 0.6184679865837097
vt 0.34099799394607544 0.8265349864959717
vt 0.19344200193881989 0.8265349864959717
vt 0.3028770089149475 0.6184679865837097
vt 0.19344200193881989 0.8265349864959717
vt 0.1044280007481575 0.6184679865837097
vt 0.8172640204429626 0.8265349864959717
vt 0.7188050150871277 0.8265349864959717
vt 0.7337120175361633 0.6184679865837097
vt 0.8172640204429626 0.8265349864959717
vt 0.7337120175361633 0.6184679865837097
vt 0.8473880290985107 0.6184679865837097
vn -0.7446557661738202 0.21257574234788618 0.6326921397246263
vn -0.8769682036738096 0.26585490645343957 0.40030980310225306
vn -0.9331938181055489 0.12796855182263653 0.3358174319388513
vn -0.7446557661738202 0.21257574234788618 0.6326921397246263
vn -0.9331938181055489 0.12796855182263653 0.3358174319388513
vn -0.6208520605504202 0.06278450861749053 0.781409511324221
vn -0.6208520605504202 0.06278450861749053 0.781409511324221
vn -0.4907920786001313 0.026748708450781464 0.8708660299837041
vn -0.5067313142377933 0.14944125207304607 0.8490528177620512
vn -0.6208520605504202 0.06278450861749053 0.781409511324221
vn -0.5067313142377933 0.14944125207304607 0.8490528177620512
vn -0.7446557661738202 0.21257574234788618 0.6326921397246263
vn -0.5067313142377933 0.14944125207304607 0.8490528177620512
vn -0.5474452009732709 0.26624731426508413 0.7933574979654283
vn -0.6766119785300404 0.32489124833389427 0.660788852255929
vn -0.5067313142377933 0.14944125207304607 0.8490528177620512
vn -0.6766119785300404 0.32489124833389427 0.660788852255929
vn -0.7446557661738202 0.21257574234788618 0.6326921397246263
vn -0.6766119785300404 0.32489124833389427 0.660788852255929
vn -0.8238355382986573 0.29330765722516144 0.4850418786550794
vn -0.8769682036738096 0.26585490645343957 0.40030980310225306
vn -0.6766119785300404 0.32489124833389427 0.660788852255929
vn -0.8769682036738096 0.26585490645343957 0.40030980310225306
vn -0.7446557661738202 0.21257574234788618 0.6326921397246263
f 1/1/1 2/2/2 3/3/3
f 4/4/4 5/5/5 6/6/6
f 7/7/7 8/8/8 9/9/9
f 10/10/10 11/11/11 12/12/12
f 13/13/13 14/14/14 15/15/15
f 16/16/16 17/17/17 18/18/18
f 19/19/19 20/20/20 21/21/21
f 22/22/22 23/23/23 24/24/24
