mtllib ArcadaCompleta.mtl
o D16C_CDP
usemtl Esmalte
v -46.312198638916016 18.449462890625 -3.900359361685328
v -47.15079879760742 19.033592224121094 -2.6781391792665046
v -47.36289978027344 20.035633087158203 -2.8488592796693366
v -46.312198638916016 18.449462890625 -3.900359361685328
v -47.36289978027344 20.035633087158203 -2.8488592796693366
v -46.52399826049805 19.764272689819336 -4.677789419210963
v -46.312198638916016 18.449462890625 -3.900359361685328
v -45.24300003051758 18.01926612854004 -4.383779256857448
v -44.8036003112793 17.77426528930664 -3.6388692551026867
v -46.312198638916016 18.449462890625 -3.900359361685328
v -44.8036003112793 17.77426528930664 -3.6388692551026867
v -45.99760055541992 18.25412368774414 -3.042999237097315
v -46.05110168457031 24.85969352722168 -3.407619207418969
v -44.98899841308594 24.984663009643555 -4.410549371756128
v -45.24580001831055 23.354084014892578 -5.064719408072046
v -46.05110168457031 24.85969352722168 -3.407619207418969
v -45.24580001831055 23.354084014892578 -5.064719408072046
v -46.287498474121094 23.354084014892578 -4.414059370077661
v -46.459800720214844 21.772933959960938 -4.562899320639185
v -46.52399826049805 19.764272689819336 -4.677789419210963
v -47.36289978027344 20.035633087158203 -2.8488592796693366
v -46.459800720214844 21.772933959960938 -4.562899320639185
v -47.36289978027344 20.035633087158203 -2.8488592796693366
v -47.47679901123047 21.772933959960938 -2.864369361914209
v -46.459800720214844 21.772933959960938 -4.562899320639185
v -47.47679901123047 21.772933959960938 -2.864369361914209
v -47.10279846191406 23.354084014892578 -2.789299219168237
v -46.459800720214844 21.772933959960938 -4.562899320639185
v -47.10279846191406 23.354084014892578 -2.789299219168237
v -46.287498474121094 23.354084014892578 -4.414059370077661
v -46.52399826049805 19.764272689819336 -4.677789419210963
v -45.41550064086914 19.7738037109375 -4.983579366720728
v -45.24300003051758 18.01926612854004 -4.383779256857448
v -46.52399826049805 19.764272689819336 -4.677789419210963
v -45.24300003051758 18.01926612854004 -4.383779256857448
v -46.312198638916016 18.449462890625 -3.900359361685328
v -45.99760055541992 18.25412368774414 -3.042999237097315
v -46.543800354003906 18.659812927246094 -2.3989593677888434
v -47.15079879760742 19.033592224121094 -2.6781391792665046
v -45.99760055541992 18.25412368774414 -3.042999237097315
v -47.15079879760742 19.033592224121094 -2.6781391792665046
v -46.312198638916016 18.449462890625 -3.900359361685328
v -45.99760055541992 18.25412368774414 -3.042999237097315
v -45.60219955444336 17.995168685913086 -2.7340092354188488
v -46.543800354003906 18.659812927246094 -2.3989593677888434
v -43.855098724365234 18.32235336303711 -4.819939344442897
v -43.99869918823242 17.86229705810547 -3.778539150274806
v -44.8036003112793 17.77426528930664 -3.6388692551026867
v -43.855098724365234 18.32235336303711 -4.819939344442897
v -44.8036003112793 17.77426528930664 -3.6388692551026867
v -45.24300003051758 18.01926612854004 -4.383779256857448
v -43.9276008605957 21.71686363220215 -5.500739305532984
v -45.50270080566406 21.772933959960938 -5.232999055899195
v -45.24580001831055 23.354084014892578 -5.064719408072046
v -43.9276008605957 21.71686363220215 -5.500739305532984
v -45.24580001831055 23.354084014892578 -5.064719408072046
v -43.799400329589844 23.354084014892578 -5.479929178274682
v -43.92509841918945 19.783292770385742 -5.29668924144607
v -45.41550064086914 19.7738037109375 -4.983579366720728
v -45.50270080566406 21.772933959960938 -5.232999055899195
v -43.92509841918945 19.783292770385742 -5.29668924144607
v -45.50270080566406 21.772933959960938 -5.232999055899195
v -43.9276008605957 21.71686363220215 -5.500739305532984
v -43.99869918823242 17.86229705810547 -3.778539150274806
v -44.207401275634766 17.996784210205078 -3.427399366415553
v -44.8036003112793 17.77426528930664 -3.6388692551026867
v -46.287498474121094 23.354084014892578 -4.414059370077661
v -47.10279846191406 23.354084014892578 -2.789299219168237
v -46.61370086669922 24.75336265563965 -2.2180192165742425
v -46.287498474121094 23.354084014892578 -4.414059370077661
v -46.61370086669922 24.75336265563965 -2.2180192165742425
v -46.05110168457031 24.85969352722168 -3.407619207418969
v -46.287498474121094 23.354084014892578 -4.414059370077661
v -45.24580001831055 23.354084014892578 -5.064719408072046
v -45.50270080566406 21.772933959960938 -5.232999055899195
v -46.287498474121094 23.354084014892578 -4.414059370077661
v -45.50270080566406 21.772933959960938 -5.232999055899195
v -46.459800720214844 21.772933959960938 -4.562899320639185
v -44.8036003112793 17.77426528930664 -3.6388692551026867
v -45.60219955444336 17.995168685913086 -2.7340092354188488
v -45.99760055541992 18.25412368774414 -3.042999237097315
v -44.8036003112793 17.77426528930664 -3.6388692551026867
v -44.60530090332031 18.30756378173828 -2.7501692467103522
v -45.60219955444336 17.995168685913086 -2.7340092354188488
v -44.8036003112793 17.77426528930664 -3.6388692551026867
v -44.207401275634766 17.996784210205078 -3.427399366415553
v -44.60530090332031 18.30756378173828 -2.7501692467103522
v -45.50270080566406 21.772933959960938 -5.232999055899195
v -45.41550064086914 19.7738037109375 -4.983579366720728
v -46.52399826049805 19.764272689819336 -4.677789419210963
v -45.50270080566406 21.772933959960938 -5.232999055899195
v -46.52399826049805 19.764272689819336 -4.677789419210963
v -46.459800720214844 21.772933959960938 -4.562899320639185
v -45.24300003051758 18.01926612854004 -4.383779256857448
v -45.41550064086914 19.7738037109375 -4.983579366720728
v -43.92509841918945 19.783292770385742 -5.29668924144607
v -45.24300003051758 18.01926612854004 -4.383779256857448
v -43.92509841918945 19.783292770385742 -5.29668924144607
v -43.855098724365234 18.32235336303711 -4.819939344442897
v -45.60219955444336 17.995168685913086 -2.7340092354188488
v -44.77090072631836 18.507543563842773 -2.341599195517115
v -45.25130081176758 18.639293670654297 -1.937629311598353
v -45.60219955444336 17.995168685913086 -2.7340092354188488
v -45.74610137939453 18.511343002319336 -1.7419292621980236
v -46.06079864501953 18.532163619995117 -1.972629278219752
v -45.60219955444336 17.995168685913086 -2.7340092354188488
v -46.06079864501953 18.532163619995117 -1.972629278219752
v -46.543800354003906 18.659812927246094 -2.3989593677888434
v -44.60530090332031 18.30756378173828 -2.7501692467103522
v -44.77090072631836 18.507543563842773 -2.341599195517115
v -45.60219955444336 17.995168685913086 -2.7340092354188488
v -45.25130081176758 18.639293670654297 -1.937629311598353
v -45.74610137939453 18.511343002319336 -1.7419292621980236
v -45.60219955444336 17.995168685913086 -2.7340092354188488
vt 0.14829200506210327 0.11676901578903198
vt 0.25719600915908813 0.19387102127075195
vt 0.24198399484157562 0.3261350393295288
vt 0.14829200506210327 0.11676901578903198
vt 0.24198399484157562 0.3261350393295288
vt 0.07902009785175323 0.29031699895858765
vt 0.8732190132141113 0.8517079949378967
vt 0.7668359875679016 0.8947830200195312
vt 0.7231169939041138 0.8284080028533936
vt 0.8732190132141113 0.8517079949378967
vt 0.7231169939041138 0.8284080028533936
vt 0.8419169783592224 0.7753139734268188
vt 0.19219699501991272 0.9628850221633911
vt 0.10283199697732925 0.9793810248374939
vt 0.04454340040683746 0.764153003692627
vt 0.15275999903678894 0.8078029751777649
vt 0.23288500308990479 0.9554569721221924
vt 0.12923899292945862 0.8974810242652893
vt 0.08925720304250717 0.5554490089416504
vt 0.07902009785175323 0.29031699895858765
vt 0.24198399484157562 0.3261350393295288
vt 0.08925720304250717 0.5554490089416504
vt 0.24198399484157562 0.3261350393295288
vt 0.24060200154781342 0.5554490089416504
vt 0.08925720304250717 0.5554490089416504
vt 0.24060200154781342 0.5554490089416504
vt 0.24729099869728088 0.764153003692627
vt 0.08925720304250717 0.5554490089416504
vt 0.24729099869728088 0.764153003692627
vt 0.10251899808645248 0.764153003692627
vt 0.8942919969558716 0.29031699895858765
vt 0.7839999794960022 0.29157501459121704
vt 0.7668359875679016 0.05998492240905762
vt 0.8942919969558716 0.9209799766540527
vt 0.7668359875679016 0.8947830200195312
vt 0.8732190132141113 0.8517079949378967
vt 0.8419169783592224 0.7753139734268188
vt 0.896261990070343 0.7179279923439026
vt 0.9566569924354553 0.7428039908409119
vt 0.8419169783592224 0.7753139734268188
vt 0.9566569924354553 0.7428039908409119
vt 0.8732190132141113 0.8517079949378967
vt 0.8419169783592224 0.7753139734268188
vt 0.8025760054588318 0.7477819919586182
vt 0.896261990070343 0.7179279923439026
vt 0.6287440061569214 0.933646023273468
vt 0.6430320143699646 0.8408539891242981
vt 0.7231169939041138 0.8284080028533936
vt 0.6287440061569214 0.933646023273468
vt 0.7231169939041138 0.8284080028533936
vt 0.7668359875679016 0.8947830200195312
vt 0.6359580159187317 0.5480480194091797
vt 0.7926759719848633 0.5554490089416504
vt 0.7671149969100952 0.764153003692627
vt 0.6359580159187317 0.5480480194091797
vt 0.7671149969100952 0.764153003692627
vt 0.6232020258903503 0.764153003692627
vt 0.6357089877128601 0.2928270101547241
vt 0.7839999794960022 0.29157501459121704
vt 0.7926759719848633 0.5554490089416504
vt 0.6357089877128601 0.2928270101547241
vt 0.7926759719848633 0.5554490089416504
vt 0.6359580159187317 0.5480480194091797
vt 0.6430320143699646 0.8408539891242981
vt 0.6637970209121704 0.8095660209655762
vt 0.7231169939041138 0.8284080028533936
vt 0.10251899808645248 0.764153003692627
vt 0.24729099869728088 0.764153003692627
vt 0.2981939911842346 0.9488499760627747
vt 0.10251899808645248 0.764153003692627
vt 0.2981939911842346 0.9488499760627747
vt 0.19219699501991272 0.9628850221633911
vt 0.870760977268219 0.764153003692627
vt 0.7671149969100952 0.764153003692627
vt 0.7926759719848633 0.5554490089416504
vt 0.870760977268219 0.764153003692627
vt 0.7926759719848633 0.5554490089416504
vt 0.8879050016403198 0.5554490089416504
vt 0.7231169939041138 0.8284080028533936
vt 0.8025760054588318 0.7477819919586182
vt 0.8419169783592224 0.7753139734268188
vt 0.7231169939041138 0.8284080028533936
vt 0.7033870220184326 0.7492219805717468
vt 0.8025760054588318 0.7477819919586182
vt 0.7231169939041138 0.8284080028533936
vt 0.6637970209121704 0.8095660209655762
vt 0.7033870220184326 0.7492219805717468
vt 0.7926759719848633 0.5554490089416504
vt 0.7839999794960022 0.29157501459121704
vt 0.8942919969558716 0.29031699895858765
vt 0.7926759719848633 0.5554490089416504
vt 0.8942919969558716 0.29031699895858765
vt 0.8879050016403198 0.5554490089416504
vt 0.7668359875679016 0.05998492240905762
vt 0.7839999794960022 0.29157501459121704
vt 0.6357089877128601 0.2928270101547241
vt 0.7668359875679016 0.05998492240905762
vt 0.6357089877128601 0.2928270101547241
vt 0.6287440061569214 0.09999090433120728
vt 0.8025760054588318 0.7477819919586182
vt 0.719864010810852 0.7128170132637024
vt 0.7676630020141602 0.6768220067024231
vt 0.8025760054588318 0.7477819919586182
vt 0.816893994808197 0.6593850255012512
vt 0.8482049703598022 0.6799409985542297
vt 0.8025760054588318 0.7477819919586182
vt 0.8482049703598022 0.6799409985542297
vt 0.896261990070343 0.7179279923439026
vt 0.7033870220184326 0.7492219805717468
vt 0.719864010810852 0.7128170132637024
vt 0.8025760054588318 0.7477819919586182
vt 0.7676630020141602 0.6768220067024231
vt 0.816893994808197 0.6593850255012512
vt 0.8025760054588318 0.7477819919586182
vn -0.7111031709851192 -0.6125123243043171 -0.34519694782867266
vn -0.7471131713724327 -0.6331997631202815 -0.2021879549979308
vn -0.8890155356273054 -0.12131471662365619 -0.44151343914292956
vn -0.7111031709851192 -0.6125123243043171 -0.34519694782867266
vn -0.8890155356273054 -0.12131471662365619 -0.44151343914292956
vn -0.6796862301467935 -0.18382259712337615 -0.7100956846338787
vn -0.7111031709851192 -0.6125123243043171 -0.34519694782867266
vn -0.2718242205745993 -0.525701601176689 -0.8060703565007692
vn -0.1073306965351391 -0.9935718842252176 -0.035986559413653314
vn -0.7111031709851192 -0.6125123243043171 -0.34519694782867266
vn -0.1073306965351391 -0.9935718842252176 -0.035986559413653314
vn -0.4951960423043473 -0.8683624230039553 -0.026973727973919726
vn -0.671275016052256 0.43857385559479906 -0.5975306067581441
vn -0.6611804421980372 0.36670693739422966 -0.654497093134685
vn -0.4267550412038841 0.2580591081705286 -0.8667673456570124
vn -0.671275016052256 0.43857385559479906 -0.5975306067581441
vn -0.4267550412038841 0.2580591081705286 -0.8667673456570124
vn -0.7341719776516623 0.3227365275712636 -0.5973547028376773
vn -0.8207647878047947 0.08800736152889246 -0.5644465142212084
vn -0.6796862301467935 -0.18382259712337615 -0.7100956846338787
vn -0.8890155356273054 -0.12131471662365619 -0.44151343914292956
vn -0.8207647878047947 0.08800736152889246 -0.5644465142212084
vn -0.8890155356273054 -0.12131471662365619 -0.44151343914292956
vn -0.8554674530322769 0.07624510272189935 -0.5122129646088589
vn -0.8207647878047947 0.08800736152889246 -0.5644465142212084
vn -0.8554674530322769 0.07624510272189935 -0.5122129646088589
vn -0.8490752541066581 0.26768107207528935 -0.45543172541703536
vn -0.8207647878047947 0.08800736152889246 -0.5644465142212084
vn -0.8490752541066581 0.26768107207528935 -0.45543172541703536
vn -0.7341719776516623 0.3227365275712636 -0.5973547028376773
vn -0.6796862301467935 -0.18382259712337615 -0.7100956846338787
vn -0.22387129491622068 -0.22976881621528109 -0.9471472612046993
vn -0.2718242205745993 -0.525701601176689 -0.8060703565007692
vn -0.6796862301467935 -0.18382259712337615 -0.7100956846338787
vn -0.2718242205745993 -0.525701601176689 -0.8060703565007692
vn -0.7111031709851192 -0.6125123243043171 -0.34519694782867266
vn -0.4951960423043473 -0.8683624230039553 -0.026973727973919726
vn -0.5307933028629463 -0.8353534836988813 0.14297911353756224
vn -0.7471131713724327 -0.6331997631202815 -0.2021879549979308
vn -0.4951960423043473 -0.8683624230039553 -0.026973727973919726
vn -0.7471131713724327 -0.6331997631202815 -0.2021879549979308
vn -0.7111031709851192 -0.6125123243043171 -0.34519694782867266
vn -0.4951960423043473 -0.8683624230039553 -0.026973727973919726
vn -0.05754810906928358 -0.9326881705913449 0.3560631848162909
vn -0.5307933028629463 -0.8353534836988813 0.14297911353756224
vn -0.0868709422013845 -0.6861653028684722 -0.7222399992664913
vn 0.07017001454506223 -0.9751308483716958 -0.21022844149315922
vn -0.1073306965351391 -0.9935718842252176 -0.035986559413653314
vn -0.0868709422013845 -0.6861653028684722 -0.7222399992664913
vn -0.1073306965351391 -0.9935718842252176 -0.035986559413653314
vn -0.2718242205745993 -0.525701601176689 -0.8060703565007692
vn -0.20075755928350875 0.01176474314086439 -0.9795703104981072
vn -0.3340184480759978 0.0037470377131057606 -0.9425590888921916
vn -0.4267550412038841 0.2580591081705286 -0.8667673456570124
vn -0.20075755928350875 0.01176474314086439 -0.9795703104981072
vn -0.4267550412038841 0.2580591081705286 -0.8667673456570124
vn -0.275762910747996 0.0338035145400936 -0.9606311151844555
vn -0.19605756880899547 -0.2114782884636284 -0.9575167691592668
vn -0.22387129491622068 -0.22976881621528109 -0.9471472612046993
vn -0.3340184480759978 0.0037470377131057606 -0.9425590888921916
vn -0.19605756880899547 -0.2114782884636284 -0.9575167691592668
vn -0.3340184480759978 0.0037470377131057606 -0.9425590888921916
vn -0.20075755928350875 0.01176474314086439 -0.9795703104981072
vn 0.07017001454506223 -0.9751308483716958 -0.21022844149315922
vn 0.15782025905135044 -0.8688309215387876 0.4692820000927221
vn -0.1073306965351391 -0.9935718842252176 -0.035986559413653314
vn -0.7341719776516623 0.3227365275712636 -0.5973547028376773
vn -0.8490752541066581 0.26768107207528935 -0.45543172541703536
vn -0.8229139441353225 0.41581270037532075 -0.38718527703701616
vn -0.7341719776516623 0.3227365275712636 -0.5973547028376773
vn -0.8229139441353225 0.41581270037532075 -0.38718527703701616
vn -0.671275016052256 0.43857385559479906 -0.5975306067581441
vn -0.7341719776516623 0.3227365275712636 -0.5973547028376773
vn -0.4267550412038841 0.2580591081705286 -0.8667673456570124
vn -0.3340184480759978 0.0037470377131057606 -0.9425590888921916
vn -0.7341719776516623 0.3227365275712636 -0.5973547028376773
vn -0.3340184480759978 0.0037470377131057606 -0.9425590888921916
vn -0.8207647878047947 0.08800736152889246 -0.5644465142212084
vn -0.1073306965351391 -0.9935718842252176 -0.035986559413653314
vn -0.05754810906928358 -0.9326881705913449 0.3560631848162909
vn -0.4951960423043473 -0.8683624230039553 -0.026973727973919726
vn -0.1073306965351391 -0.9935718842252176 -0.035986559413653314
vn 0.23893326616975352 -0.847868326734697 0.4733182806923463
vn -0.05754810906928358 -0.9326881705913449 0.3560631848162909
vn -0.1073306965351391 -0.9935718842252176 -0.035986559413653314
vn 0.15782025905135044 -0.8688309215387876 0.4692820000927221
vn 0.23893326616975352 -0.847868326734697 0.4733182806923463
vn -0.3340184480759978 0.0037470377131057606 -0.9425590888921916
vn -0.22387129491622068 -0.22976881621528109 -0.9471472612046993
vn -0.6796862301467935 -0.18382259712337615 -0.7100956846338787
vn -0.3340184480759978 0.0037470377131057606 -0.9425590888921916
vn -0.6796862301467935 -0.18382259712337615 -0.7100956846338787
vn -0.8207647878047947 0.08800736152889246 -0.5644465142212084
vn -0.2718242205745993 -0.525701601176689 -0.8060703565007692
vn -0.22387129491622068 -0.22976881621528109 -0.9471472612046993
vn -0.19605756880899547 -0.2114782884636284 -0.9575167691592668
vn -0.2718242205745993 -0.525701601176689 -0.8060703565007692
vn -0.19605756880899547 -0.2114782884636284 -0.9575167691592668
vn -0.0868709422013845 -0.6861653028684722 -0.7222399992664913
vn -0.05754810906928358 -0.9326881705913449 0.3560631848162909
vn 0.24972460241263975 -0.8107060602800735 0.529521771766762
vn 0.311112522572787 -0.8012929970230526 0.5110171535479128
vn -0.05754810906928358 -0.9326881705913449 0.3560631848162909
vn 0.09576443475106729 -0.8772772451951957 0.4703337199261147
vn -0.43023227276143283 -0.8391661391677178 0.3327166697790759
vn -0.05754810906928358 -0.9326881705913449 0.3560631848162909
vn -0.43023227276143283 -0.8391661391677178 0.3327166697790759
vn -0.5307933028629463 -0.8353534836988813 0.14297911353756224
vn 0.23893326616975352 -0.847868326734697 0.4733182806923463
vn 0.24972460241263975 -0.8107060602800735 0.529521771766762
vn -0.05754810906928358 -0.9326881705913449 0.3560631848162909
vn 0.311112522572787 -0.8012929970230526 0.5110171535479128
vn 0.09576443475106729 -0.8772772451951957 0.4703337199261147
vn -0.05754810906928358 -0.9326881705913449 0.3560631848162909
f 1/1/1 2/2/2 3/3/3
f 4/4/4 5/5/5 6/6/6
f 7/7/7 8/8/8 9/9/9
f 10/10/10 11/11/11 12/12/12
f 13/13/13 14/14/14 15/15/15
f 16/16/16 17/17/17 18/18/18
f 19/19/19 20/20/20 21/21/21
f 22/22/22 23/23/23 24/24/24
f 25/25/25 26/26/26 27/27/27
f 28/28/28 29/29/29 30/30/30
f 31/31/31 32/32/32 33/33/33
f 34/34/34 35/35/35 36/36/36
f 37/37/37 38/38/38 39/39/39
f 40/40/40 41/41/41 42/42/42
f 43/43/43 44/44/44 45/45/45
f 46/46/46 47/47/47 48/48/48
f 49/49/49 50/50/50 51/51/51
f 52/52/52 53/53/53 54/54/54
f 55/55/55 56/56/56 57/57/57
f 58/58/58 59/59/59 60/60/60
f 61/61/61 62/62/62 63/63/63
f 64/64/64 65/65/65 66/66/66
f 67/67/67 68/68/68 69/69/69
f 70/70/70 71/71/71 72/72/72
f 73/73/73 74/74/74 75/75/75
f 76/76/76 77/77/77 78/78/78
f 79/79/79 80/80/80 81/81/81
f 82/82/82 83/83/83 84/84/84
f 85/85/85 86/86/86 87/87/87
f 88/88/88 89/89/89 90/90/90
f 91/91/91 92/92/92 93/93/93
f 94/94/94 95/95/95 96/96/96
f 97/97/97 98/98/98 99/99/99
f 100/100/100 101/101/101 102/102/102
f 103/103/103 104/104/104 105/105/105
f 106/106/106 107/107/107 108/108/108
f 109/109/109 110/110/110 111/111/111
f 112/112/112 113/113/113 114/114/114
