mtllib ArcadaCompleta.mtl
o D16C_CV
usemtl Esmalte
v -42.56100082397461 25.13709259033203 5.4762709445585696
v -42.60240173339844 23.354084014892578 5.637190610848853
v -41.32279968261719 23.354084014892578 5.652680665933081
v -42.56100082397461 25.13709259033203 5.4762709445585696
v -41.32279968261719 23.354084014892578 5.652680665933081
v -41.36399841308594 25.10944366455078 5.317240983926245
v -41.36399841308594 25.10944366455078 5.317240983926245
v -41.32279968261719 23.354084014892578 5.652680665933081
v -39.876399993896484 23.354084014892578 5.328470975839087
v -41.36399841308594 25.10944366455078 5.317240983926245
v -39.876399993896484 23.354084014892578 5.328470975839087
v -40.13309860229492 24.984323501586914 5.031360895120093
v -43.757999420166016 25.109603881835938 5.317240983926245
v -43.799400329589844 23.354084014892578 5.652680665933081
v -42.60240173339844 23.354084014892578 5.637190610848853
v -43.757999420166016 25.109603881835938 5.317240983926245
v -42.60240173339844 23.354084014892578 5.637190610848853
v -42.56100082397461 25.13709259033203 5.4762709445585696
v -44.98899841308594 24.984663009643555 5.031360895120093
v -45.24580001831055 23.354084014892578 5.328470975839087
v -43.799400329589844 23.354084014892578 5.652680665933081
v -44.98899841308594 24.984663009643555 5.031360895120093
v -43.799400329589844 23.354084014892578 5.652680665933081
v -43.757999420166016 25.109603881835938 5.317240983926245
vt 0.5000150203704834 0.9994999766349792
vt 0.49589601159095764 0.764153003692627
vt 0.6232119798660278 0.764153003692627
vt 0.5000150203704834 0.9994999766349792
vt 0.6232119798660278 0.764153003692627
vt 0.619113028049469 0.9958509802818298
vt 0.619113028049469 0.9958509802818298
vt 0.6232119798660278 0.764153003692627
vt 0.7671250104904175 0.764153003692627
vt 0.619113028049469 0.9958509802818298
vt 0.7671250104904175 0.764153003692627
vt 0.7415840029716492 0.9793360233306885
vt 0.3809170126914978 0.9958720207214355
vt 0.37679800391197205 0.764153003692627
vt 0.49589601159095764 0.764153003692627
vt 0.3809170126914978 0.9958720207214355
vt 0.49589601159095764 0.764153003692627
vt 0.5000150203704834 0.9994999766349792
vt 0.258435994386673 0.9793810248374939
vt 0.23288500308990479 0.764153003692627
vt 0.37679800391197205 0.764153003692627
vt 0.258435994386673 0.9793810248374939
vt 0.37679800391197205 0.764153003692627
vt 0.3809170126914978 0.9958720207214355
vn -0.004137586575879681 0.12395815618172497 0.9922788196335514
vn -0.043882730579892074 0.12273706729027255 0.991468566455758
vn 0.11757772891983242 0.157707046835252 0.9804610981780757
vn -0.004137586575879681 0.12395815618172497 0.9922788196335514
vn 0.11757772891983242 0.157707046835252 0.9804610981780757
vn 0.1976454194792869 0.19545906173899877 0.9605894249589504
vn 0.1976454194792869 0.19545906173899877 0.9605894249589504
vn 0.11757772891983242 0.157707046835252 0.9804610981780757
vn 0.22656802510199253 0.19810841695272877 0.9536351425644225
vn 0.1976454194792869 0.19545906173899877 0.9605894249589504
vn 0.22656802510199253 0.19810841695272877 0.9536351425644225
vn 0.24142160861152342 0.2106556134201084 0.947280222231005
vn -0.12336440429540424 0.15714105072170179 0.9798407594762117
vn -0.15303096386064677 0.19598768921549056 0.9685919418288869
vn -0.043882730579892074 0.12273706729027255 0.991468566455758
vn -0.12336440429540424 0.15714105072170179 0.9798407594762117
vn -0.043882730579892074 0.12273706729027255 0.991468566455758
vn -0.004137586575879681 0.12395815618172497 0.9922788196335514
vn -0.22654746951582644 0.1980990679042173 0.9536419681156318
vn -0.2139560646413075 0.2076213279433681 0.954524062863916
vn -0.15303096386064677 0.19598768921549056 0.9685919418288869
vn -0.22654746951582644 0.1980990679042173 0.9536419681156318
vn -0.15303096386064677 0.19598768921549056 0.9685919418288869
vn -0.12336440429540424 0.15714105072170179 0.9798407594762117
f 1/1/1 2/2/2 3/3/3
f 4/4/4 5/5/5 6/6/6
f 7/7/7 8/8/8 9/9/9
f 10/10/10 11/11/11 12/12/12
f 13/13/13 14/14/14 15/15/15
f 16/16/16 17/17/17 18/18/18
f 19/19/19 20/20/20 21/21/21
f 22/22/22 23/23/23 24/24/24
