mtllib ArcadaCompleta.mtl
o D16C_M
usemtl Esmalte
v -37.699100494384766 19.523332595825195 -0.18653325668673937
v -37.81919860839844 19.368932723999023 1.0050607032408194
v -38.312801361083984 19.0647029876709 0.8467497534384207
v -37.699100494384766 19.523332595825195 -0.18653325668673937
v -38.312801361083984 19.0647029876709 0.8467497534384207
v -38.1864013671875 19.05124282836914 -0.18653325668673948
v -37.699100494384766 19.523332595825195 -0.18653325668673937
v -37.57749938964844 20.46628189086914 -0.18653325668673917
v -37.68130111694336 20.30604362487793 1.1097607917417962
v -37.699100494384766 19.523332595825195 -0.18653325668673937
v -37.68130111694336 20.30604362487793 1.1097607917417962
v -37.81919860839844 19.368932723999023 1.0050607032408194
v -37.699100494384766 19.523332595825195 -0.18653325668673937
v -38.1864013671875 19.05124282836914 -0.18653325668673948
v -38.746700286865234 18.936992645263672 -1.788289278067164
v -37.699100494384766 19.523332595825195 -0.18653325668673937
v -38.746700286865234 18.936992645263672 -1.788289278067164
v -38.009300231933594 19.34705352783203 -1.9178492718110605
v -37.54090118408203 21.772933959960938 -0.18653325668673887
v -37.59239959716797 21.772933959960938 1.2271107740034544
v -37.68130111694336 20.30604362487793 1.1097607917417962
v -37.54090118408203 21.772933959960938 -0.18653325668673887
v -37.68130111694336 20.30604362487793 1.1097607917417962
v -37.57749938964844 20.46628189086914 -0.18653325668673917
v -37.54090118408203 21.772933959960938 -0.18653325668673887
v -37.8286018371582 23.354084014892578 -0.18653325668673854
v -37.92340087890625 23.354084014892578 1.2306607074369873
v -37.54090118408203 21.772933959960938 -0.18653325668673887
v -37.92340087890625 23.354084014892578 1.2306607074369873
v -37.59239959716797 21.772933959960938 1.2271107740034544
v -37.81919860839844 19.368932723999023 1.0050607032408194
v -37.9718017578125 19.03276252746582 2.305070669137426
v -38.429100036621094 18.6590633392334 2.025900632821508
v -37.81919860839844 19.368932723999023 1.0050607032408194
v -38.429100036621094 18.6590633392334 2.025900632821508
v -38.312801361083984 19.0647029876709 0.8467497534384207
v -38.009300231933594 19.34705352783203 -1.9178492718110605
v -37.68130111694336 20.30604362487793 -1.9948992424378913
v -37.57749938964844 20.46628189086914 -0.18653325668673917
v -38.009300231933594 19.34705352783203 -1.9178492718110605
v -37.57749938964844 20.46628189086914 -0.18653325668673917
v -37.699100494384766 19.523332595825195 -0.18653325668673937
v -37.57749938964844 20.46628189086914 -0.18653325668673917
v -37.68130111694336 20.30604362487793 -1.9948992424378913
v -37.59239959716797 21.772933959960938 -1.9089193039308108
v -37.57749938964844 20.46628189086914 -0.18653325668673917
v -37.59239959716797 21.772933959960938 -1.9089193039308108
v -37.54090118408203 21.772933959960938 -0.18653325668673887
v -37.59239959716797 21.772933959960938 -1.9089193039308108
v -37.92340087890625 23.354084014892578 -1.912459223784021
v -37.8286018371582 23.354084014892578 -0.18653325668673854
v -37.59239959716797 21.772933959960938 -1.9089193039308108
v -37.8286018371582 23.354084014892578 -0.18653325668673854
v -37.54090118408203 21.772933959960938 -0.18653325668673887
v -37.68130111694336 20.30604362487793 1.1097607917417962
v -37.59239959716797 21.772933959960938 1.2271107740034544
v -37.645599365234375 21.772933959960938 2.4913008517851316
v -37.68130111694336 20.30604362487793 1.1097607917417962
v -37.645599365234375 21.772933959960938 2.4913008517851316
v -37.759700775146484 20.03476333618164 2.475790769540258
v -38.1864013671875 19.05124282836914 -0.18653325668673948
v -39.36119842529297 19.271442413330078 -0.20352825454574058
v -38.746700286865234 18.936992645263672 -1.788289278067164
v -38.312801361083984 19.0647029876709 0.8467497534384207
v -38.987998962402344 19.18136215209961 0.37673473426003024
v -38.1864013671875 19.05124282836914 -0.18653325668673948
v -39.32149887084961 19.76577377319336 0.1638077504267174
v -38.1864013671875 19.05124282836914 -0.18653325668673948
v -38.987998962402344 19.18136215209961 0.37673473426003024
v -37.92340087890625 23.354084014892578 1.2306607074369873
v -38.01940155029297 23.354084014892578 2.320500642739722
v -37.645599365234375 21.772933959960938 2.4913008517851316
v -37.92340087890625 23.354084014892578 1.2306607074369873
v -37.645599365234375 21.772933959960938 2.4913008517851316
v -37.59239959716797 21.772933959960938 1.2271107740034544
v -39.36119842529297 19.271442413330078 -0.20352825454574058
v -38.1864013671875 19.05124282836914 -0.18653325668673948
v -39.32149887084961 19.76577377319336 0.1638077504267174
v -39.36119842529297 19.271442413330078 -0.20352825454574058
v -39.224998474121094 18.77210235595703 -1.563189237631373
v -38.746700286865234 18.936992645263672 -1.788289278067164
v -37.759700775146484 20.03476333618164 2.475790769540258
v -37.9718017578125 19.03276252746582 2.305070669137426
v -37.81919860839844 19.368932723999023 1.0050607032408194
v -37.759700775146484 20.03476333618164 2.475790769540258
v -37.81919860839844 19.368932723999023 1.0050607032408194
v -37.68130111694336 20.30604362487793 1.1097607917417962
v -38.429100036621094 18.6590633392334 2.025900632821508
v -38.987998962402344 19.18136215209961 0.37673473426003024
v -38.312801361083984 19.0647029876709 0.8467497534384207
v -38.429100036621094 18.6590633392334 2.025900632821508
v -39.029598236083984 18.870532989501953 1.785390765153356
v -39.32149887084961 19.76577377319336 0.1638077504267174
v -38.429100036621094 18.6590633392334 2.025900632821508
v -39.32149887084961 19.76577377319336 0.1638077504267174
v -38.987998962402344 19.18136215209961 0.37673473426003024
v -37.96929931640625 24.65650177001953 -0.18182825974326441
v -38.254398345947266 24.646432876586914 1.1463607854475468
v -37.92340087890625 23.354084014892578 1.2306607074369873
v -37.96929931640625 24.65650177001953 -0.18182825974326441
v -37.92340087890625 23.354084014892578 1.2306607074369873
v -37.8286018371582 23.354084014892578 -0.18653325668673854
v -38.254398345947266 24.646432876586914 -1.1775391989121944
v -37.92340087890625 23.354084014892578 -1.912459223784021
v -38.01940155029297 23.354084014892578 -2.789299219168237
v -38.254398345947266 24.646432876586914 -1.1775391989121944
v -38.01940155029297 23.354084014892578 -2.789299219168237
v -38.508399963378906 24.752822875976562 -2.2180192165742425
v -37.8286018371582 23.354084014892578 -0.18653325668673854
v -37.92340087890625 23.354084014892578 -1.912459223784021
v -38.254398345947266 24.646432876586914 -1.1775391989121944
v -37.8286018371582 23.354084014892578 -0.18653325668673854
v -38.254398345947266 24.646432876586914 -1.1775391989121944
v -37.96929931640625 24.65650177001953 -0.18182825974326441
v -38.72330093383789 24.752822875976562 2.8763506717314216
v -38.01940155029297 23.354084014892578 2.320500642739722
v -37.92340087890625 23.354084014892578 1.2306607074369873
v -38.72330093383789 24.752822875976562 2.8763506717314216
v -37.92340087890625 23.354084014892578 1.2306607074369873
v -38.254398345947266 24.646432876586914 1.1463607854475468
vt 0.016239600256085396 0.5207930207252502
vt 0.028189200907945633 0.41461801528930664
vt 0.07730130106210709 0.4287239909172058
vt 0.016239600256085396 0.5207930207252502
vt 0.07730130106210709 0.4287239909172058
vt 0.06472489982843399 0.5207930207252502
vt 0.5207930207252502 0.2585139870643616
vt 0.5207930207252502 0.3829779624938965
vt 0.4052889943122864 0.36182701587677
vt 0.5207930207252502 0.2585139870643616
vt 0.4052889943122864 0.36182701587677
vt 0.41461798548698425 0.23813402652740479
vt 0.016239600256085396 0.5207930207252502
vt 0.06472489982843399 0.5207930207252502
vt 0.1204729974269867 0.6635149717330933
vt 0.016239600256085396 0.5207930207252502
vt 0.1204729974269867 0.6635149717330933
vt 0.04710359871387482 0.675059974193573
vt 0.5207930207252502 0.5554490089416504
vt 0.3948329985141754 0.5554490089416504
vt 0.4052889943122864 0.36182701587677
vt 0.5207930207252502 0.5554490089416504
vt 0.4052889943122864 0.36182701587677
vt 0.5207930207252502 0.3829779624938965
vt 0.5207930207252502 0.5554490089416504
vt 0.5207930207252502 0.764153003692627
vt 0.3945170044898987 0.764153003692627
vt 0.5207930207252502 0.5554490089416504
vt 0.3945170044898987 0.764153003692627
vt 0.3948329985141754 0.5554490089416504
vt 0.028189200907945633 0.41461801528930664
vt 0.043372899293899536 0.29878300428390503
vt 0.08887270092964172 0.3236579895019531
vt 0.028189200907945633 0.41461801528930664
vt 0.08887270092964172 0.3236579895019531
vt 0.07730130106210709 0.4287239909172058
vt 0.675059974193573 0.23524600267410278
vt 0.6819249987602234 0.36182701587677
vt 0.5207930207252502 0.3829779624938965
vt 0.675059974193573 0.23524600267410278
vt 0.5207930207252502 0.3829779624938965
vt 0.5207930207252502 0.2585139870643616
vt 0.5207930207252502 0.3829779624938965
vt 0.6819249987602234 0.36182701587677
vt 0.6742640137672424 0.5554490089416504
vt 0.5207930207252502 0.3829779624938965
vt 0.6742640137672424 0.5554490089416504
vt 0.5207930207252502 0.5554490089416504
vt 0.6742640137672424 0.5554490089416504
vt 0.6745790243148804 0.764153003692627
vt 0.5207930207252502 0.764153003692627
vt 0.6742640137672424 0.5554490089416504
vt 0.5207930207252502 0.764153003692627
vt 0.5207930207252502 0.5554490089416504
vt 0.4052889943122864 0.36182701587677
vt 0.3948329985141754 0.5554490089416504
vt 0.2821890115737915 0.5554490089416504
vt 0.4052889943122864 0.36182701587677
vt 0.2821890115737915 0.5554490089416504
vt 0.2835710048675537 0.3260200023651123
vt 0.06472489982843399 0.5207930207252502
vt 0.1816139966249466 0.5223079919815063
vt 0.1204729974269867 0.6635149717330933
vt 0.07730130106210709 0.4287239909172058
vt 0.14448100328445435 0.4706040024757385
vt 0.06472489982843399 0.5207930207252502
vt 0.17766399681568146 0.4895769953727722
vt 0.06472489982843399 0.5207930207252502
vt 0.14448100328445435 0.4706040024757385
vt 0.3945170044898987 0.764153003692627
vt 0.29740801453590393 0.764153003692627
vt 0.2821890115737915 0.5554490089416504
vt 0.3945170044898987 0.764153003692627
vt 0.2821890115737915 0.5554490089416504
vt 0.3948329985141754 0.5554490089416504
vt 0.1816139966249466 0.5223079919815063
vt 0.06472489982843399 0.5207930207252502
vt 0.17766399681568146 0.4895769953727722
vt 0.1816139966249466 0.5223079919815063
vt 0.1680620014667511 0.6434580087661743
vt 0.1204729974269867 0.6635149717330933
vt 0.2835710048675537 0.3260200023651123
vt 0.29878300428390503 0.19376099109649658
vt 0.41461798548698425 0.23813402652740479
vt 0.2835710048675537 0.3260200023651123
vt 0.41461798548698425 0.23813402652740479
vt 0.4052889943122864 0.36182701587677
vt 0.08887270092964172 0.3236579895019531
vt 0.14448100328445435 0.4706040024757385
vt 0.07730130106210709 0.4287239909172058
vt 0.08887270092964172 0.3236579895019531
vt 0.14862099289894104 0.34508800506591797
vt 0.17766399681568146 0.4895769953727722
vt 0.6763420104980469 0.14443498849868774
vt 0.5104230046272278 0.2905150055885315
vt 0.5293959975242615 0.213375985622406
vt 0.5203740000724792 0.9360650181770325
vt 0.40202799439430237 0.9347360134124756
vt 0.3945170044898987 0.764153003692627
vt 0.5203740000724792 0.9360650181770325
vt 0.3945170044898987 0.764153003692627
vt 0.5207930207252502 0.764153003692627
vt 0.6090949773788452 0.9347360134124756
vt 0.6745790243148804 0.764153003692627
vt 0.7527089715003967 0.764153003692627
vt 0.6090949773788452 0.9347360134124756
vt 0.7527089715003967 0.764153003692627
vt 0.7018060088157654 0.9487789869308472
vt 0.5207930207252502 0.764153003692627
vt 0.6745790243148804 0.764153003692627
vt 0.6090949773788452 0.9347360134124756
vt 0.5207930207252502 0.764153003692627
vt 0.6090949773788452 0.9347360134124756
vt 0.5203740000724792 0.9360650181770325
vt 0.2478799968957901 0.9487789869308472
vt 0.29740801453590393 0.764153003692627
vt 0.3945170044898987 0.764153003692627
vt 0.2478799968957901 0.9487789869308472
vt 0.3945170044898987 0.764153003692627
vt 0.40202799439430237 0.9347360134124756
vn 0.8603004737088398 -0.5083653529663772 -0.038049478836335505
vn 0.8994830551378175 -0.4366628384232439 -0.0159937193952502
vn 0.343443439946527 -0.9313393468814434 -0.1210521561482607
vn 0.8603004737088398 -0.5083653529663772 -0.038049478836335505
vn 0.343443439946527 -0.9313393468814434 -0.1210521561482607
vn 0.06699061152271903 -0.9960674880533091 0.05798117979985587
vn 0.8603004737088398 -0.5083653529663772 -0.038049478836335505
vn 0.9936019944933245 -0.10941210750104978 -0.028001201243270244
vn 0.9951642849584609 -0.084121588131927 0.05071098848649955
vn 0.8603004737088398 -0.5083653529663772 -0.038049478836335505
vn 0.9951642849584609 -0.084121588131927 0.05071098848649955
vn 0.8994830551378175 -0.4366628384232439 -0.0159937193952502
vn 0.8603004737088398 -0.5083653529663772 -0.038049478836335505
vn 0.06699061152271903 -0.9960674880533091 0.05798117979985587
vn 0.3045742420910005 -0.9502832606134917 0.06477851227439022
vn 0.8603004737088398 -0.5083653529663772 -0.038049478836335505
vn 0.3045742420910005 -0.9502832606134917 0.06477851227439022
vn 0.8860163670566054 -0.45865034963405465 -0.06793271736338975
vn 0.9961384255738075 0.08507291734280154 0.021698751810205533
vn 0.9962247289906865 0.07758317919305602 0.03895047693843479
vn 0.9951642849584609 -0.084121588131927 0.05071098848649955
vn 0.9961384255738075 0.08507291734280154 0.021698751810205533
vn 0.9951642849584609 -0.084121588131927 0.05071098848649955
vn 0.9936019944933245 -0.10941210750104978 -0.028001201243270244
vn 0.9961384255738075 0.08507291734280154 0.021698751810205533
vn 0.9822248037793712 0.18459072735785742 -0.03406902132544125
vn 0.9674195273788035 0.2308836036400671 0.10388560832159936
vn 0.9961384255738075 0.08507291734280154 0.021698751810205533
vn 0.9674195273788035 0.2308836036400671 0.10388560832159936
vn 0.9962247289906865 0.07758317919305602 0.03895047693843479
vn 0.8994830551378175 -0.4366628384232439 -0.0159937193952502
vn 0.9000764792639455 -0.4356756366728672 -0.007005075696390025
vn 0.021376905638731163 -0.9687987419115415 -0.24692514164403626
vn 0.8994830551378175 -0.4366628384232439 -0.0159937193952502
vn 0.021376905638731163 -0.9687987419115415 -0.24692514164403626
vn 0.343443439946527 -0.9313393468814434 -0.1210521561482607
vn 0.8860163670566054 -0.45865034963405465 -0.06793271736338975
vn 0.9847268518559509 -0.16907769538406411 -0.041542269527334925
vn 0.9936019944933245 -0.10941210750104978 -0.028001201243270244
vn 0.8860163670566054 -0.45865034963405465 -0.06793271736338975
vn 0.9936019944933245 -0.10941210750104978 -0.028001201243270244
vn 0.8603004737088398 -0.5083653529663772 -0.038049478836335505
vn 0.9936019944933245 -0.10941210750104978 -0.028001201243270244
vn 0.9847268518559509 -0.16907769538406411 -0.041542269527334925
vn 0.9957456110038166 0.08199563228278818 -0.0420403907353608
vn 0.9936019944933245 -0.10941210750104978 -0.028001201243270244
vn 0.9957456110038166 0.08199563228278818 -0.0420403907353608
vn 0.9961384255738075 0.08507291734280154 0.021698751810205533
vn 0.9957456110038166 0.08199563228278818 -0.0420403907353608
vn 0.9663460592895154 0.24944118538347487 -0.06288393061912852
vn 0.9822248037793712 0.18459072735785742 -0.03406902132544125
vn 0.9957456110038166 0.08199563228278818 -0.0420403907353608
vn 0.9822248037793712 0.18459072735785742 -0.03406902132544125
vn 0.9961384255738075 0.08507291734280154 0.021698751810205533
vn 0.9951642849584609 -0.084121588131927 0.05071098848649955
vn 0.9962247289906865 0.07758317919305602 0.03895047693843479
vn 0.996100038988815 0.07091286146932056 0.05249836573374423
vn 0.9951642849584609 -0.084121588131927 0.05071098848649955
vn 0.996100038988815 0.07091286146932056 0.05249836573374423
vn 0.9907222275609495 -0.12866075904208793 0.043770731081215444
vn 0.06699061152271903 -0.9960674880533091 0.05798117979985587
vn -0.03431909251094495 -0.9344742131051892 0.3543728896666092
vn 0.3045742420910005 -0.9502832606134917 0.06477851227439022
vn 0.343443439946527 -0.9313393468814434 -0.1210521561482607
vn -0.46201442725899416 -0.8631650628683071 -0.2036878573899165
vn 0.06699061152271903 -0.9960674880533091 0.05798117979985587
vn -0.5564353584976559 -0.828572171756515 -0.06203102453029086
vn 0.06699061152271903 -0.9960674880533091 0.05798117979985587
vn -0.46201442725899416 -0.8631650628683071 -0.2036878573899165
vn 0.9674195273788035 0.2308836036400671 0.10388560832159936
vn 0.9405325262006703 0.32944600411074054 0.08284864231869753
vn 0.996100038988815 0.07091286146932056 0.05249836573374423
vn 0.9674195273788035 0.2308836036400671 0.10388560832159936
vn 0.996100038988815 0.07091286146932056 0.05249836573374423
vn 0.9962247289906865 0.07758317919305602 0.03895047693843479
vn -0.03431909251094495 -0.9344742131051892 0.3543728896666092
vn 0.06699061152271903 -0.9960674880533091 0.05798117979985587
vn -0.5564353584976559 -0.828572171756515 -0.06203102453029086
vn -0.03431909251094495 -0.9344742131051892 0.3543728896666092
vn 0.4475814958232451 -0.823985266518341 0.3474465212911547
vn 0.3045742420910005 -0.9502832606134917 0.06477851227439022
vn 0.9907222275609495 -0.12866075904208793 0.043770731081215444
vn 0.9000764792639455 -0.4356756366728672 -0.007005075696390025
vn 0.8994830551378175 -0.4366628384232439 -0.0159937193952502
vn 0.9907222275609495 -0.12866075904208793 0.043770731081215444
vn 0.8994830551378175 -0.4366628384232439 -0.0159937193952502
vn 0.9951642849584609 -0.084121588131927 0.05071098848649955
vn 0.021376905638731163 -0.9687987419115415 -0.24692514164403626
vn -0.46201442725899416 -0.8631650628683071 -0.2036878573899165
vn 0.343443439946527 -0.9313393468814434 -0.1210521561482607
vn 0.021376905638731163 -0.9687987419115415 -0.24692514164403626
vn -0.12398799217564502 -0.8779664497891881 -0.4623871655234619
vn -0.5564353584976559 -0.828572171756515 -0.06203102453029086
vn 0.021376905638731163 -0.9687987419115415 -0.24692514164403626
vn -0.5564353584976559 -0.828572171756515 -0.06203102453029086
vn -0.46201442725899416 -0.8631650628683071 -0.2036878573899165
vn 0.9862742720783966 0.1632312984107947 0.024871740095036243
vn 0.9405404268103286 0.25549343062102314 0.22384551021842122
vn 0.9674195273788035 0.2308836036400671 0.10388560832159936
vn 0.9862742720783966 0.1632312984107947 0.024871740095036243
vn 0.9674195273788035 0.2308836036400671 0.10388560832159936
vn 0.9822248037793712 0.18459072735785742 -0.03406902132544125
vn 0.9504602553250654 0.2765338123365605 -0.1419660300283825
vn 0.9663460592895154 0.24944118538347487 -0.06288393061912852
vn 0.9234341124724205 0.3536730011733826 -0.14894578934392727
vn 0.9504602553250654 0.2765338123365605 -0.1419660300283825
vn 0.9234341124724205 0.3536730011733826 -0.14894578934392727
vn 0.9031315854821994 0.38951390584149004 -0.18064400477324308
vn 0.9822248037793712 0.18459072735785742 -0.03406902132544125
vn 0.9663460592895154 0.24944118538347487 -0.06288393061912852
vn 0.9504602553250654 0.2765338123365605 -0.1419660300283825
vn 0.9822248037793712 0.18459072735785742 -0.03406902132544125
vn 0.9504602553250654 0.2765338123365605 -0.1419660300283825
vn 0.9862742720783966 0.1632312984107947 0.024871740095036243
vn 0.9289792712328108 0.32680251970036184 0.17377464353941416
vn 0.9405325262006703 0.32944600411074054 0.08284864231869753
vn 0.9674195273788035 0.2308836036400671 0.10388560832159936
vn 0.9289792712328108 0.32680251970036184 0.17377464353941416
vn 0.9674195273788035 0.2308836036400671 0.10388560832159936
vn 0.9405404268103286 0.25549343062102314 0.22384551021842122
f 1/1/1 2/2/2 3/3/3
f 4/4/4 5/5/5 6/6/6
f 7/7/7 8/8/8 9/9/9
f 10/10/10 11/11/11 12/12/12
f 13/13/13 14/14/14 15/15/15
f 16/16/16 17/17/17 18/18/18
f 19/19/19 20/20/20 21/21/21
f 22/22/22 23/23/23 24/24/24
f 25/25/25 26/26/26 27/27/27
f 28/28/28 29/29/29 30/30/30
f 31/31/31 32/32/32 33/33/33
f 34/34/34 35/35/35 36/36/36
f 37/37/37 38/38/38 39/39/39
f 40/40/40 41/41/41 42/42/42
f 43/43/43 44/44/44 45/45/45
f 46/46/46 47/47/47 48/48/48
f 49/49/49 50/50/50 51/51/51
f 52/52/52 53/53/53 54/54/54
f 55/55/55 56/56/56 57/57/57
f 58/58/58 59/59/59 60/60/60
f 61/61/61 62/62/62 63/63/63
f 64/64/64 65/65/65 66/66/66
f 67/67/67 68/68/68 69/69/69
f 70/70/70 71/71/71 72/72/72
f 73/73/73 74/74/74 75/75/75
f 76/76/76 77/77/77 78/78/78
f 79/79/79 80/80/80 81/81/81
f 82/82/82 83/83/83 84/84/84
f 85/85/85 86/86/86 87/87/87
f 88/88/88 89/89/89 90/90/90
f 91/91/91 92/92/92 93/93/93
f 94/94/94 95/95/95 96/96/96
f 97/97/97 98/98/98 99/99/99
f 100/100/100 101/101/101 102/102/102
f 103/103/103 104/104/104 105/105/105
f 106/106/106 107/107/107 108/108/108
f 109/109/109 110/110/110 111/111/111
f 112/112/112 113/113/113 114/114/114
f 115/115/115 116/116/116 117/117/117
f 118/118/118 119/119/119 120/120/120
