mtllib ArcadaCompleta.mtl
o D17C_B
usemtl Esmalte
v -52.61909866333008 18.90156364440918 4.264540941201634
v -52.61899948120117 19.827342987060547 4.5364206142057855
v -52.888301849365234 19.621612548828125 4.836700708352514
v -52.61909866333008 18.90156364440918 4.264540941201634
v -52.888301849365234 19.621612548828125 4.836700708352514
v -52.8297004699707 18.779953002929688 4.33483055301804
v -52.61909866333008 18.90156364440918 4.264540941201634
v -52.3567008972168 18.737943649291992 4.38516071506638
v -52.372798919677734 19.621501922607422 5.068460733376928
v -52.61909866333008 18.90156364440918 4.264540941201634
v -52.372798919677734 19.621501922607422 5.068460733376928
v -52.61899948120117 19.827342987060547 4.5364206142057855
v -52.618900299072266 21.56388282775879 4.86750057407517
v -52.61899948120117 19.827342987060547 4.5364206142057855
v -52.372798919677734 19.621501922607422 5.068460733376928
v -52.618900299072266 21.56388282775879 4.86750057407517
v -52.372798919677734 19.621501922607422 5.068460733376928
v -52.37289810180664 21.465482711791992 5.263360769235082
v -52.618900299072266 21.56388282775879 4.86750057407517
v -52.37289810180664 21.465482711791992 5.263360769235082
v -52.63740158081055 21.824222564697266 5.399940759622045
v -52.61909866333008 18.802833557128906 3.8004308051695306
v -52.38090133666992 18.469432830810547 3.798220664941259
v -52.3567008972168 18.737943649291992 4.38516071506638
v -52.61909866333008 18.802833557128906 3.8004308051695306
v -52.3567008972168 18.737943649291992 4.38516071506638
v -52.61909866333008 18.90156364440918 4.264540941201634
v -52.61899948120117 19.827342987060547 4.5364206142057855
v -52.618900299072266 21.56388282775879 4.86750057407517
v -52.8650016784668 21.465482711791992 5.226320535623022
v -52.61899948120117 19.827342987060547 4.5364206142057855
v -52.8650016784668 21.465482711791992 5.226320535623022
v -52.888301849365234 19.621612548828125 4.836700708352514
v -51.5984992980957 18.415302276611328 4.3576109714140365
v -51.47060012817383 19.612472534179688 5.198580533944555
v -52.372798919677734 19.621501922607422 5.068460733376928
v -51.5984992980957 18.415302276611328 4.3576109714140365
v -52.372798919677734 19.621501922607422 5.068460733376928
v -52.3567008972168 18.737943649291992 4.38516071506638
v -53.601200103759766 18.42767333984375 3.827930719338842
v -52.8297004699707 18.779953002929688 4.33483055301804
v -52.888301849365234 19.621612548828125 4.836700708352514
v -53.601200103759766 18.42767333984375 3.827930719338842
v -52.888301849365234 19.621612548828125 4.836700708352514
v -53.767398834228516 19.612693786621094 4.735060960732885
v -53.76129913330078 21.465482711791992 5.34864071079392
v -53.767398834228516 19.612693786621094 4.735060960732885
v -52.888301849365234 19.621612548828125 4.836700708352514
v -53.76129913330078 21.465482711791992 5.34864071079392
v -52.888301849365234 19.621612548828125 4.836700708352514
v -52.8650016784668 21.465482711791992 5.226320535623022
v -51.47060012817383 19.612472534179688 5.198580533944555
v -51.476600646972656 21.465482711791992 5.422730714761205
v -52.37289810180664 21.465482711791992 5.263360769235082
v -51.47060012817383 19.612472534179688 5.198580533944555
v -52.37289810180664 21.465482711791992 5.263360769235082
v -52.372798919677734 19.621501922607422 5.068460733376928
v -53.552799224853516 18.002046585083008 3.226110727273412
v -52.81700134277344 18.485742568969727 3.533620864831396
v -52.8297004699707 18.779953002929688 4.33483055301804
v -53.552799224853516 18.002046585083008 3.226110727273412
v -52.8297004699707 18.779953002929688 4.33483055301804
v -53.601200103759766 18.42767333984375 3.827930719338842
v -52.655799865722656 22.93787384033203 5.574990541421362
v -52.63740158081055 21.824222564697266 5.399940759622045
v -51.51150131225586 22.93787384033203 5.59031084247727
v -51.51150131225586 22.93787384033203 5.59031084247727
v -52.63740158081055 21.824222564697266 5.399940759622045
v -52.37289810180664 21.465482711791992 5.263360769235082
v -51.51150131225586 22.93787384033203 5.59031084247727
v -52.37289810180664 21.465482711791992 5.263360769235082
v -51.476600646972656 21.465482711791992 5.422730714761205
v -53.72629928588867 22.93787384033203 5.59031084247727
v -52.63740158081055 21.824222564697266 5.399940759622045
v -52.655799865722656 22.93787384033203 5.574990541421362
v -52.8297004699707 18.779953002929688 4.33483055301804
v -52.81700134277344 18.485742568969727 3.533620864831396
v -52.61909866333008 18.802833557128906 3.8004308051695306
v -52.8297004699707 18.779953002929688 4.33483055301804
v -52.61909866333008 18.802833557128906 3.8004308051695306
v -52.61909866333008 18.90156364440918 4.264540941201634
v -52.3567008972168 18.737943649291992 4.38516071506638
v -52.38090133666992 18.469432830810547 3.798220664941259
v -51.64690017700195 18.26874351501465 3.7262206382383782
v -52.3567008972168 18.737943649291992 4.38516071506638
v -51.64690017700195 18.26874351501465 3.7262206382383782
v -51.5984992980957 18.415302276611328 4.3576109714140365
v -52.8650016784668 21.465482711791992 5.226320535623022
v -52.63740158081055 21.824222564697266 5.399940759622045
v -53.72629928588867 22.93787384033203 5.59031084247727
v -52.8650016784668 21.465482711791992 5.226320535623022
v -53.72629928588867 22.93787384033203 5.59031084247727
v -53.76129913330078 21.465482711791992 5.34864071079392
v -52.63740158081055 21.824222564697266 5.399940759622045
v -52.8650016784668 21.465482711791992 5.226320535623022
v -52.618900299072266 21.56388282775879 4.86750057407517
vt 0.12031900137662888 0.19201302528381348
vt 0.09574709832668304 0.3232259750366211
vt 0.06860870122909546 0.29406702518463135
vt 0.48646900057792664 0.19201302528381348
vt 0.4571160078048706 0.29406702518463135
vt 0.46350499987602234 0.17477601766586304
vt 0.5135310292243958 0.12031900882720947
vt 0.4849199950695038 0.10941797494888306
vt 0.4866749942302704 0.04766291379928589
vt 0.8796809911727905 0.19201302528381348
vt 0.9523370265960693 0.29405099153518677
vt 0.9042530059814453 0.3232259750366211
vt 0.9341750144958496 0.569350004196167
vt 0.9042530059814453 0.3232259750366211
vt 0.9523370265960693 0.29405099153518677
vt 0.9341750144958496 0.569350004196167
vt 0.9523370265960693 0.29405099153518677
vt 0.9699519872665405 0.5554029941558838
vt 0.51350998878479 0.06582510471343994
vt 0.48668599128723145 0.030048370361328125
vt 0.5155270099639893 0.01770472526550293
vt 0.8377360105514526 0.1780189871788025
vt 0.8375369906425476 0.13076603412628174
vt 0.8905820250511169 0.16882199048995972
vt 0.5135310292243958 0.16226398944854736
vt 0.4849199950695038 0.10941797494888306
vt 0.5135310292243958 0.12031900882720947
vt 0.09574709832668304 0.3232259750366211
vt 0.06582509726285934 0.569350004196167
vt 0.03339599817991257 0.5554029941558838
vt 0.09574709832668304 0.3232259750366211
vt 0.03339599817991257 0.5554029941558838
vt 0.06860870122909546 0.29406702518463135
vt 0.40224799513816833 0.1119070053100586
vt 0.3883019983768463 0.035902976989746094
vt 0.4866749942302704 0.04766291379928589
vt 0.40224799513816833 0.1119070053100586
vt 0.4866749942302704 0.04766291379928589
vt 0.4849199950695038 0.10941797494888306
vt 0.37938299775123596 0.12484699487686157
vt 0.46350499987602234 0.17477601766586304
vt 0.4571160078048706 0.29406702518463135
vt 0.6206169724464417 0.15977799892425537
vt 0.5428839921951294 0.06860870122909546
vt 0.6387389898300171 0.07779461145401001
vt 0.36192598938941956 0.5554029941558838
vt 0.3612610101699829 0.29280298948287964
vt 0.4571160078048706 0.29406702518463135
vt 0.36192598938941956 0.5554029941558838
vt 0.4571160078048706 0.29406702518463135
vt 0.4596560001373291 0.5554029941558838
vt 0.6116979718208313 0.29277199506759644
vt 0.6110439896583557 0.5554029941558838
vt 0.5133140087127686 0.5554029941558838
vt 0.6116979718208313 0.29277199506759644
vt 0.5133140087127686 0.5554029941558838
vt 0.5133249759674072 0.29405099153518677
vt 0.615339994430542 0.21416902542114258
vt 0.5351099967956543 0.18637698888778687
vt 0.5364949703216553 0.11396598815917969
vt 0.615339994430542 0.21416902542114258
vt 0.5364949703216553 0.11396598815917969
vt 0.6206169724464417 0.15977799892425537
vt 0.48246699571609497 0.7640889883041382
vt 0.48447299003601074 0.6062480211257935
vt 0.6072379946708679 0.7640889883041382
vt 0.6072379946708679 0.7640889883041382
vt 0.48447299003601074 0.6062480211257935
vt 0.5133140087127686 0.5554029941558838
vt 0.6072379946708679 0.7640889883041382
vt 0.5133140087127686 0.5554029941558838
vt 0.6110439896583557 0.5554029941558838
vt 0.3657419979572296 0.7640889883041382
vt 0.48447299003601074 0.6062480211257935
vt 0.48246699571609497 0.7640889883041382
vt 0.5364949703216553 0.11396598815917969
vt 0.5351099967956543 0.18637698888778687
vt 0.5135310292243958 0.16226398944854736
vt 0.5364949703216553 0.11396598815917969
vt 0.5135310292243958 0.16226398944854736
vt 0.5135310292243958 0.12031900882720947
vt 0.4849199950695038 0.10941797494888306
vt 0.4875589907169342 0.1624630093574524
vt 0.4075250029563904 0.1689710021018982
vt 0.4849199950695038 0.10941797494888306
vt 0.4075250029563904 0.1689710021018982
vt 0.40224799513816833 0.1119070053100586
vt 0.4596560001373291 0.5554029941558838
vt 0.48447299003601074 0.6062480211257935
vt 0.3657419979572296 0.7640889883041382
vt 0.4596560001373291 0.5554029941558838
vt 0.3657419979572296 0.7640889883041382
vt 0.36192598938941956 0.5554029941558838
vt 0.5155270099639893 0.01770472526550293
vt 0.5403439998626709 0.033396005630493164
vt 0.51350998878479 0.06582510471343994
vn -0.2844637294073539 -0.5419293565319889 0.7908179051971977
vn 0.04425926853798614 -0.22165829931337935 0.9741194564805606
vn 0.11937441410576481 -0.3741945838906245 0.9196347985172307
vn -0.2844637294073539 -0.5419293565319889 0.7908179051971977
vn 0.11937441410576481 -0.3741945838906245 0.9196347985172307
vn 0.16590088667998049 -0.7665980486962871 0.6203259848932987
vn -0.2844637294073539 -0.5419293565319889 0.7908179051971977
vn -0.3984315470259507 -0.7496346411531445 0.528488606421845
vn -0.5218647767103866 -0.3043187537481146 0.7968985198544497
vn -0.2844637294073539 -0.5419293565319889 0.7908179051971977
vn -0.5218647767103866 -0.3043187537481146 0.7968985198544497
vn 0.04425926853798614 -0.22165829931337935 0.9741194564805606
vn -0.586420258198642 -0.25362975680411143 0.7692744810779345
vn 0.04425926853798614 -0.22165829931337935 0.9741194564805606
vn -0.5218647767103866 -0.3043187537481146 0.7968985198544497
vn -0.586420258198642 -0.25362975680411143 0.7692744810779345
vn -0.5218647767103866 -0.3043187537481146 0.7968985198544497
vn -0.2593153298518781 -0.1504481515029834 0.9540025751606476
vn -0.586420258198642 -0.25362975680411143 0.7692744810779345
vn -0.2593153298518781 -0.1504481515029834 0.9540025751606476
vn -0.012459148559979049 -0.2660880963041184 0.9638681935941298
vn -0.07948034003566865 -0.9417080579295238 0.32690795214925406
vn -0.4198342361113739 -0.8186632018522192 0.39182875867124894
vn -0.3984315470259507 -0.7496346411531445 0.528488606421845
vn -0.07948034003566865 -0.9417080579295238 0.32690795214925406
vn -0.3984315470259507 -0.7496346411531445 0.528488606421845
vn -0.2844637294073539 -0.5419293565319889 0.7908179051971977
vn 0.04425926853798614 -0.22165829931337935 0.9741194564805606
vn -0.586420258198642 -0.25362975680411143 0.7692744810779345
vn 0.34060782701082093 -0.22294892702527455 0.9133893387363601
vn 0.04425926853798614 -0.22165829931337935 0.9741194564805606
vn 0.34060782701082093 -0.22294892702527455 0.9133893387363601
vn 0.11937441410576481 -0.3741945838906245 0.9196347985172307
vn -0.21370041730472547 -0.6649035327412653 0.7157062412693992
vn -0.15227524769008943 -0.24346257478910502 0.9578821553917691
vn -0.5218647767103866 -0.3043187537481146 0.7968985198544497
vn -0.21370041730472547 -0.6649035327412653 0.7157062412693992
vn -0.5218647767103866 -0.3043187537481146 0.7968985198544497
vn -0.3984315470259507 -0.7496346411531445 0.528488606421845
vn -0.13515571455873415 -0.6353025167558389 0.7603444252612201
vn 0.16590088667998049 -0.7665980486962871 0.6203259848932987
vn 0.11937441410576481 -0.3741945838906245 0.9196347985172307
vn -0.13515571455873415 -0.6353025167558389 0.7603444252612201
vn 0.11937441410576481 -0.3741945838906245 0.9196347985172307
vn -0.09808725406194159 -0.4496088966845448 0.8878235920568309
vn 0.047017054539311626 -0.2346053174903388 0.9709530068894707
vn -0.09808725406194159 -0.4496088966845448 0.8878235920568309
vn 0.11937441410576481 -0.3741945838906245 0.9196347985172307
vn 0.047017054539311626 -0.2346053174903388 0.9709530068894707
vn 0.11937441410576481 -0.3741945838906245 0.9196347985172307
vn 0.34060782701082093 -0.22294892702527455 0.9133893387363601
vn -0.15227524769008943 -0.24346257478910502 0.9578821553917691
vn -0.17385440479548966 -0.11731768749581871 0.9777582554669837
vn -0.2593153298518781 -0.1504481515029834 0.9540025751606476
vn -0.15227524769008943 -0.24346257478910502 0.9578821553917691
vn -0.2593153298518781 -0.1504481515029834 0.9540025751606476
vn -0.5218647767103866 -0.3043187537481146 0.7968985198544497
vn 0.23335723663968536 -0.8610019119167556 0.45190718934708435
vn 0.5052213446100244 -0.8074770809877633 0.3045195504888318
vn 0.16590088667998049 -0.7665980486962871 0.6203259848932987
vn 0.23335723663968536 -0.8610019119167556 0.45190718934708435
vn 0.16590088667998049 -0.7665980486962871 0.6203259848932987
vn -0.13515571455873415 -0.6353025167558389 0.7603444252612201
vn 0 -0.15527888817376914 0.9878706731589506
vn -0.012459148559979049 -0.2660880963041184 0.9638681935941298
vn -0.05020994334452923 -0.16760365958088114 0.984575022476416
vn -0.05020994334452923 -0.16760365958088114 0.984575022476416
vn -0.012459148559979049 -0.2660880963041184 0.9638681935941298
vn -0.2593153298518781 -0.1504481515029834 0.9540025751606476
vn -0.05020994334452923 -0.16760365958088114 0.984575022476416
vn -0.2593153298518781 -0.1504481515029834 0.9540025751606476
vn -0.17385440479548966 -0.11731768749581871 0.9777582554669837
vn 0.02238550022664949 -0.19880923500201964 0.979782515386713
vn -0.012459148559979049 -0.2660880963041184 0.9638681935941298
vn 0 -0.15527888817376914 0.9878706731589506
vn 0.16590088667998049 -0.7665980486962871 0.6203259848932987
vn 0.5052213446100244 -0.8074770809877633 0.3045195504888318
vn -0.07948034003566865 -0.9417080579295238 0.32690795214925406
vn 0.16590088667998049 -0.7665980486962871 0.6203259848932987
vn -0.07948034003566865 -0.9417080579295238 0.32690795214925406
vn -0.2844637294073539 -0.5419293565319889 0.7908179051971977
vn -0.3984315470259507 -0.7496346411531445 0.528488606421845
vn -0.4198342361113739 -0.8186632018522192 0.39182875867124894
vn -0.293792937777859 -0.8993209423571803 0.3238943536859645
vn -0.3984315470259507 -0.7496346411531445 0.528488606421845
vn -0.293792937777859 -0.8993209423571803 0.3238943536859645
vn -0.21370041730472547 -0.6649035327412653 0.7157062412693992
vn 0.34060782701082093 -0.22294892702527455 0.9133893387363601
vn -0.012459148559979049 -0.2660880963041184 0.9638681935941298
vn 0.02238550022664949 -0.19880923500201964 0.979782515386713
vn 0.34060782701082093 -0.22294892702527455 0.9133893387363601
vn 0.02238550022664949 -0.19880923500201964 0.979782515386713
vn 0.047017054539311626 -0.2346053174903388 0.9709530068894707
vn -0.012459148559979049 -0.2660880963041184 0.9638681935941298
vn 0.34060782701082093 -0.22294892702527455 0.9133893387363601
vn -0.586420258198642 -0.25362975680411143 0.7692744810779345
f 1/1/1 2/2/2 3/3/3
f 4/4/4 5/5/5 6/6/6
f 7/7/7 8/8/8 9/9/9
f 10/10/10 11/11/11 12/12/12
f 13/13/13 14/14/14 15/15/15
f 16/16/16 17/17/17 18/18/18
f 19/19/19 20/20/20 21/21/21
f 22/22/22 23/23/23 24/24/24
f 25/25/25 26/26/26 27/27/27
f 28/28/28 29/29/29 30/30/30
f 31/31/31 32/32/32 33/33/33
f 34/34/34 35/35/35 36/36/36
f 37/37/37 38/38/38 39/39/39
f 40/40/40 41/41/41 42/42/42
f 43/43/43 44/44/44 45/45/45
f 46/46/46 47/47/47 48/48/48
f 49/49/49 50/50/50 51/51/51
f 52/52/52 53/53/53 54/54/54
f 55/55/55 56/56/56 57/57/57
f 58/58/58 59/59/59 60/60/60
f 61/61/61 62/62/62 63/63/63
f 64/64/64 65/65/65 66/66/66
f 67/67/67 68/68/68 69/69/69
f 70/70/70 71/71/71 72/72/72
f 73/73/73 74/74/74 75/75/75
f 76/76/76 77/77/77 78/78/78
f 79/79/79 80/80/80 81/81/81
f 82/82/82 83/83/83 84/84/84
f 85/85/85 86/86/86 87/87/87
f 88/88/88 89/89/89 90/90/90
f 91/91/91 92/92/92 93/93/93
f 94/94/94 95/95/95 96/96/96
