mtllib ArcadaCompleta.mtl
o D18C_CDP
usemtl Esmalte
v -64.44519805908203 18.54610252380371 -3.0217592411408942
v -65.12950134277344 18.789031982421875 -2.193389146841578
v -65.30139923095703 19.63814353942871 -2.5796892338166755
v -64.44519805908203 18.54610252380371 -3.0217592411408942
v -65.30139923095703 19.63814353942871 -2.5796892338166755
v -64.6167984008789 19.40616226196289 -3.5590593510041755
v -64.44519805908203 18.54610252380371 -3.0217592411408942
v -63.23210144042969 18.595712661743164 -3.8870792084107917
v -63.33610153198242 18.11858367919922 -3.2968992882142585
v -64.44519805908203 18.54610252380371 -3.0217592411408942
v -63.33610153198242 18.11858367919922 -3.2968992882142585
v -64.21330261230469 18.373262405395508 -2.7450892620454352
v -64.37120056152344 23.76202392578125 -3.1763591461549314
v -63.574100494384766 23.86861228942871 -3.9883591823945554
v -63.493099212646484 22.474943161010742 -4.347729414022974
v -64.37120056152344 23.76202392578125 -3.1763591461549314
v -63.493099212646484 22.474943161010742 -4.347729414022974
v -64.58329772949219 22.47502326965332 -3.543569295919946
v -64.69609832763672 21.07859230041504 -3.485869138754419
v -64.6167984008789 19.40616226196289 -3.5590593510041755
v -65.30139923095703 19.63814353942871 -2.5796892338166755
v -64.69609832763672 21.07859230041504 -3.485869138754419
v -65.30139923095703 19.63814353942871 -2.5796892338166755
v -65.29959869384766 21.07859230041504 -2.7521292858491457
v -64.69609832763672 21.07859230041504 -3.485869138754419
v -65.29959869384766 21.07859230041504 -2.7521292858491457
v -65.07260131835938 22.474943161010742 -2.5256192379365476
v -64.69609832763672 21.07859230041504 -3.485869138754419
v -65.07260131835938 22.474943161010742 -2.5256192379365476
v -64.58329772949219 22.47502326965332 -3.543569295919946
v -64.6167984008789 19.40616226196289 -3.5590593510041755
v -63.427799224853516 19.409603118896484 -4.384079187429957
v -63.23210144042969 18.595712661743164 -3.8870792084107917
v -64.6167984008789 19.40616226196289 -3.5590593510041755
v -63.23210144042969 18.595712661743164 -3.8870792084107917
v -64.44519805908203 18.54610252380371 -3.0217592411408942
v -64.21330261230469 18.373262405395508 -2.7450892620454352
v -64.6449966430664 18.463653564453125 -1.9784192734132335
v -65.12950134277344 18.789031982421875 -2.193389146841578
v -64.21330261230469 18.373262405395508 -2.7450892620454352
v -65.12950134277344 18.789031982421875 -2.193389146841578
v -64.44519805908203 18.54610252380371 -3.0217592411408942
v -64.21330261230469 18.373262405395508 -2.7450892620454352
v -63.96080017089844 18.171512603759766 -2.08186933330398
v -64.6449966430664 18.463653564453125 -1.9784192734132335
v -62.5458984375 18.613492965698242 -4.239219396627956
v -62.78160095214844 18.192392349243164 -3.4618093662629645
v -63.33610153198242 18.11858367919922 -3.2968992882142585
v -62.5458984375 18.613492965698242 -4.239219396627956
v -63.33610153198242 18.11858367919922 -3.2968992882142585
v -63.23210144042969 18.595712661743164 -3.8870792084107917
v -62.59560012817383 21.123292922973633 -4.711029260672144
v -63.48939895629883 21.123292922973633 -4.319449155844263
v -63.493099212646484 22.474943161010742 -4.347729414022974
v -62.59560012817383 21.123292922973633 -4.711029260672144
v -63.493099212646484 22.474943161010742 -4.347729414022974
v -62.56290054321289 22.474943161010742 -4.6457292728791755
v -62.57659912109375 19.87737274169922 -4.643339365042261
v -63.427799224853516 19.409603118896484 -4.384079187429957
v -63.48939895629883 21.123292922973633 -4.319449155844263
v -62.57659912109375 19.87737274169922 -4.643339365042261
v -63.48939895629883 21.123292922973633 -4.319449155844263
v -62.59560012817383 21.123292922973633 -4.711029260672144
v -62.78160095214844 18.192392349243164 -3.4618093662629645
v -63.45159912109375 18.160892486572266 -2.4900891476045173
v -63.33610153198242 18.11858367919922 -3.2968992882142585
v -64.58329772949219 22.47502326965332 -3.543569295919946
v -65.07260131835938 22.474943161010742 -2.5256192379365476
v -64.79340362548828 23.671123504638672 -2.096369236029199
v -64.58329772949219 22.47502326965332 -3.543569295919946
v -64.79340362548828 23.671123504638672 -2.096369236029199
v -64.37120056152344 23.76202392578125 -3.1763591461549314
v -64.58329772949219 22.47502326965332 -3.543569295919946
v -63.493099212646484 22.474943161010742 -4.347729414022974
v -63.48939895629883 21.123292922973633 -4.319449155844263
v -64.58329772949219 22.47502326965332 -3.543569295919946
v -63.48939895629883 21.123292922973633 -4.319449155844263
v -64.69609832763672 21.07859230041504 -3.485869138754419
v -64.6449966430664 18.463653564453125 -1.9784192734132335
v -64.53209686279297 18.650863647460938 -1.2048492126832528
v -64.94860076904297 18.810203552246094 -1.3254892521272226
v -64.6449966430664 18.463653564453125 -1.9784192734132335
v -63.96080017089844 18.171512603759766 -2.08186933330398
v -64.53209686279297 18.650863647460938 -1.2048492126832528
v -63.33610153198242 18.11858367919922 -3.2968992882142585
v -63.96080017089844 18.171512603759766 -2.08186933330398
v -64.21330261230469 18.373262405395508 -2.7450892620454352
v -63.33610153198242 18.11858367919922 -3.2968992882142585
v -63.45159912109375 18.160892486572266 -2.4900891476045173
v -63.96080017089844 18.171512603759766 -2.08186933330398
v -63.48939895629883 21.123292922973633 -4.319449155844263
v -63.427799224853516 19.409603118896484 -4.384079187429957
v -64.6167984008789 19.40616226196289 -3.5590593510041755
v -63.48939895629883 21.123292922973633 -4.319449155844263
v -64.6167984008789 19.40616226196289 -3.5590593510041755
v -64.69609832763672 21.07859230041504 -3.485869138754419
v -63.23210144042969 18.595712661743164 -3.8870792084107917
v -63.427799224853516 19.409603118896484 -4.384079187429957
v -62.57659912109375 19.87737274169922 -4.643339365042261
v -63.23210144042969 18.595712661743164 -3.8870792084107917
v -62.57659912109375 19.87737274169922 -4.643339365042261
v -62.5458984375 18.613492965698242 -4.239219396627956
v -64.53209686279297 18.650863647460938 -1.2048492126832528
v -63.96080017089844 18.171512603759766 -2.08186933330398
v -64.52529907226562 18.776342391967773 -0.6740872555146739
v -63.96080017089844 18.171512603759766 -2.08186933330398
v -63.59830093383789 18.290952682495117 -1.9932992153535412
v -63.69810104370117 18.995113372802734 -1.029419272459559
v -63.69810104370117 18.995113372802734 -1.029419272459559
v -64.52529907226562 18.776342391967773 -0.6740872555146739
v -63.96080017089844 18.171512603759766 -2.08186933330398
v -63.45159912109375 18.160892486572266 -2.4900891476045173
v -63.59830093383789 18.290952682495117 -1.9932992153535412
v -63.96080017089844 18.171512603759766 -2.08186933330398
vt 0.8424959778785706 0.19612401723861694
vt 0.8049889802932739 0.2776769995689392
vt 0.6738929748535156 0.23964601755142212
vt 0.8424959778785706 0.19612401723861694
vt 0.6738929748535156 0.23964601755142212
vt 0.7097089886665344 0.1432269811630249
vt 0.17123499512672424 0.19612401723861694
vt 0.31276801228523254 0.11093401908874512
vt 0.3006330132484436 0.16903698444366455
vt 0.17123499512672424 0.19612401723861694
vt 0.3006330132484436 0.16903698444366455
vt 0.19829000532627106 0.22336196899414062
vt 0.03719549998641014 0.18090403079986572
vt 0.02073879912495613 0.10096299648284912
vt 0.23591099679470062 0.06558281183242798
vt 0.8201320171356201 0.9628040194511414
vt 0.7176830172538757 0.7640889883041382
vt 0.8448770046234131 0.7641010284423828
vt 0.45149800181388855 0.1504330039024353
vt 0.7097089886665344 0.1432269811630249
vt 0.6738929748535156 0.23964601755142212
vt 0.45149800181388855 0.1504330039024353
vt 0.6738929748535156 0.23964601755142212
vt 0.45149800181388855 0.22266900539398193
vt 0.45149800181388855 0.1504330039024353
vt 0.45149800181388855 0.22266900539398193
vt 0.23591099679470062 0.24496901035308838
vt 0.45149800181388855 0.1504330039024353
vt 0.23591099679470062 0.24496901035308838
vt 0.23589900135993958 0.14475202560424805
vt 0.15121500194072723 0.1432269811630249
vt 0.28993499279022217 0.06200408935546875
vt 0.31276801228523254 0.11093401908874512
vt 0.15121500194072723 0.1432269811630249
vt 0.31276801228523254 0.11093401908874512
vt 0.17123499512672424 0.19612401723861694
vt 0.19829000532627106 0.22336196899414062
vt 0.14792400598526 0.2988409996032715
vt 0.09139730036258698 0.2776769995689392
vt 0.19829000532627106 0.22336196899414062
vt 0.09139730036258698 0.2776769995689392
vt 0.17123499512672424 0.19612401723861694
vt 0.19829000532627106 0.22336196899414062
vt 0.2277500033378601 0.28865599632263184
vt 0.14792400598526 0.2988409996032715
vt 0.39282700419425964 0.07626557350158691
vt 0.36532700061798096 0.1528010368347168
vt 0.3006330132484436 0.16903698444366455
vt 0.39282700419425964 0.07626557350158691
vt 0.3006330132484436 0.16903698444366455
vt 0.31276801228523254 0.11093401908874512
vt 0.6129720211029053 0.5554029941558838
vt 0.7172520160675049 0.555404007434845
vt 0.7176830172538757 0.7640889883041382
vt 0.6129720211029053 0.5554029941558838
vt 0.7176830172538757 0.7640889883041382
vt 0.6091570258140564 0.7640889883041382
vt 0.6107550263404846 0.3630419969558716
vt 0.7100650072097778 0.29082202911376953
vt 0.7172520160675049 0.555404007434845
vt 0.6107550263404846 0.3630419969558716
vt 0.7172520160675049 0.555404007434845
vt 0.6129720211029053 0.5554029941558838
vt 0.36532700061798096 0.1528010368347168
vt 0.2871580123901367 0.24846696853637695
vt 0.3006330132484436 0.16903698444366455
vt 0.23589900135993958 0.14475202560424805
vt 0.23591099679470062 0.24496901035308838
vt 0.051229801028966904 0.2872290015220642
vt 0.23589900135993958 0.14475202560424805
vt 0.051229801028966904 0.2872290015220642
vt 0.03719549998641014 0.18090403079986572
vt 0.8448770046234131 0.7641010284423828
vt 0.7176830172538757 0.7640889883041382
vt 0.7172520160675049 0.555404007434845
vt 0.8448770046234131 0.7641010284423828
vt 0.7172520160675049 0.555404007434845
vt 0.858036994934082 0.5485020279884338
vt 0.14792400598526 0.2988409996032715
vt 0.16109700500965118 0.3749989867210388
vt 0.11250299960374832 0.36312198638916016
vt 0.14792400598526 0.2988409996032715
vt 0.2277500033378601 0.28865599632263184
vt 0.16109700500965118 0.3749989867210388
vt 0.3006330132484436 0.16903698444366455
vt 0.2277500033378601 0.28865599632263184
vt 0.19829000532627106 0.22336196899414062
vt 0.3006330132484436 0.16903698444366455
vt 0.2871580123901367 0.24846696853637695
vt 0.2277500033378601 0.28865599632263184
vt 0.7172520160675049 0.555404007434845
vt 0.7100650072097778 0.29082202911376953
vt 0.8487849831581116 0.2902910113334656
vt 0.7172520160675049 0.555404007434845
vt 0.8487849831581116 0.2902910113334656
vt 0.858036994934082 0.5485020279884338
vt 0.6872320175170898 0.16516298055648804
vt 0.7100650072097778 0.29082202911376953
vt 0.6107550263404846 0.3630419969558716
vt 0.6872320175170898 0.16516298055648804
vt 0.6107550263404846 0.3630419969558716
vt 0.6071730256080627 0.16790801286697388
vt 0.16109700500965118 0.3749989867210388
vt 0.2277500033378601 0.28865599632263184
vt 0.16189000010490417 0.42725199460983276
vt 0.2277500033378601 0.28865599632263184
vt 0.2700429856777191 0.29737603664398193
vt 0.25839900970458984 0.39226996898651123
vt 0.25839900970458984 0.39226996898651123
vt 0.16189000010490417 0.42725199460983276
vt 0.2277500033378601 0.28865599632263184
vt 0.2871580123901367 0.24846696853637695
vt 0.2700429856777191 0.29737603664398193
vt 0.2277500033378601 0.28865599632263184
vn -0.6074667659308425 -0.5848639690550457 -0.5375111775495478
vn -0.6649630708898879 -0.6524196905480822 -0.36355558273506794
vn -0.805717169889724 -0.1946147977463386 -0.559414803739627
vn -0.6074667659308425 -0.5848639690550457 -0.5375111775495478
vn -0.805717169889724 -0.1946147977463386 -0.559414803739627
vn -0.645680488514209 -0.19673772197625544 -0.7378285542750742
vn -0.6074667659308425 -0.5848639690550457 -0.5375111775495478
vn -0.38369927677021726 -0.5414483248972561 -0.7480699007926783
vn -0.2547429055406544 -0.9015871952628082 -0.3496377860226902
vn -0.6074667659308425 -0.5848639690550457 -0.5375111775495478
vn -0.2547429055406544 -0.9015871952628082 -0.3496377860226902
vn -0.4211637363302855 -0.8930875628376869 -0.15816356187489822
vn -0.7432637497234664 0.24084425446886618 -0.6241418456059072
vn -0.7158913736204295 0.13503277901217076 -0.6850296999168027
vn -0.544233849637647 0.10327363203490139 -0.8325527453770764
vn -0.7432637497234664 0.24084425446886618 -0.6241418456059072
vn -0.544233849637647 0.10327363203490139 -0.8325527453770764
vn -0.7473783319179754 0.15530097123312786 -0.6459932176993437
vn -0.7282383284382895 0.029020664585652414 -0.6847092361144349
vn -0.645680488514209 -0.19673772197625544 -0.7378285542750742
vn -0.805717169889724 -0.1946147977463386 -0.559414803739627
vn -0.7282383284382895 0.029020664585652414 -0.6847092361144349
vn -0.805717169889724 -0.1946147977463386 -0.559414803739627
vn -0.7701919658421077 0.07419301724496495 -0.633482227015374
vn -0.7282383284382895 0.029020664585652414 -0.6847092361144349
vn -0.7701919658421077 0.07419301724496495 -0.633482227015374
vn -0.8480980980254006 0.20465335272596172 -0.4887193687012221
vn -0.7282383284382895 0.029020664585652414 -0.6847092361144349
vn -0.8480980980254006 0.20465335272596172 -0.4887193687012221
vn -0.7473783319179754 0.15530097123312786 -0.6459932176993437
vn -0.645680488514209 -0.19673772197625544 -0.7378285542750742
vn -0.4249339056584807 -0.19448870204819418 -0.8840844533173502
vn -0.38369927677021726 -0.5414483248972561 -0.7480699007926783
vn -0.645680488514209 -0.19673772197625544 -0.7378285542750742
vn -0.38369927677021726 -0.5414483248972561 -0.7480699007926783
vn -0.6074667659308425 -0.5848639690550457 -0.5375111775495478
vn -0.4211637363302855 -0.8930875628376869 -0.15816356187489822
vn -0.4219459652017444 -0.9053226791968884 0.048502051314727325
vn -0.6649630708898879 -0.6524196905480822 -0.36355558273506794
vn -0.4211637363302855 -0.8930875628376869 -0.15816356187489822
vn -0.6649630708898879 -0.6524196905480822 -0.36355558273506794
vn -0.6074667659308425 -0.5848639690550457 -0.5375111775495478
vn -0.4211637363302855 -0.8930875628376869 -0.15816356187489822
vn -0.0525058181050636 -0.9656909858838857 0.25433060934092633
vn -0.4219459652017444 -0.9053226791968884 0.048502051314727325
vn -0.32679187097655393 -0.5641512075551058 -0.7582483023902917
vn 0.06462869120663221 -0.9736974348645282 -0.21848669893418177
vn -0.2547429055406544 -0.9015871952628082 -0.3496377860226902
vn -0.32679187097655393 -0.5641512075551058 -0.7582483023902917
vn -0.2547429055406544 -0.9015871952628082 -0.3496377860226902
vn -0.38369927677021726 -0.5414483248972561 -0.7480699007926783
vn -0.3687724975438731 -0.006279990852181199 -0.9294984705582634
vn -0.5109441832576379 -0.0013094243583467535 -0.8596128936928733
vn -0.544233849637647 0.10327363203490139 -0.8325527453770764
vn -0.3687724975438731 -0.006279990852181199 -0.9294984705582634
vn -0.544233849637647 0.10327363203490139 -0.8325527453770764
vn -0.30465415034309384 0.05331289008143702 -0.9509698125755056
vn -0.30366439233548204 -0.17416377713329587 -0.9367256351580147
vn -0.4249339056584807 -0.19448870204819418 -0.8840844533173502
vn -0.5109441832576379 -0.0013094243583467535 -0.8596128936928733
vn -0.30366439233548204 -0.17416377713329587 -0.9367256351580147
vn -0.5109441832576379 -0.0013094243583467535 -0.8596128936928733
vn -0.3687724975438731 -0.006279990852181199 -0.9294984705582634
vn 0.06462869120663221 -0.9736974348645282 -0.21848669893418177
vn 0.12309456878520479 -0.9854719252001523 0.1170162885152744
vn -0.2547429055406544 -0.9015871952628082 -0.3496377860226902
vn -0.7473783319179754 0.15530097123312786 -0.6459932176993437
vn -0.8480980980254006 0.20465335272596172 -0.4887193687012221
vn -0.8814581324356159 0.29315352412595647 -0.370260141057134
vn -0.7473783319179754 0.15530097123312786 -0.6459932176993437
vn -0.8814581324356159 0.29315352412595647 -0.370260141057134
vn -0.7432637497234664 0.24084425446886618 -0.6241418456059072
vn -0.7473783319179754 0.15530097123312786 -0.6459932176993437
vn -0.544233849637647 0.10327363203490139 -0.8325527453770764
vn -0.5109441832576379 -0.0013094243583467535 -0.8596128936928733
vn -0.7473783319179754 0.15530097123312786 -0.6459932176993437
vn -0.5109441832576379 -0.0013094243583467535 -0.8596128936928733
vn -0.7282383284382895 0.029020664585652414 -0.6847092361144349
vn -0.4219459652017444 -0.9053226791968884 0.048502051314727325
vn -0.3810980711106841 -0.8887760161295857 0.25463985027591185
vn -0.41136631635916376 -0.8703537009152769 0.2706698894745644
vn -0.4219459652017444 -0.9053226791968884 0.048502051314727325
vn -0.0525058181050636 -0.9656909858838857 0.25433060934092633
vn -0.3810980711106841 -0.8887760161295857 0.25463985027591185
vn -0.2547429055406544 -0.9015871952628082 -0.3496377860226902
vn -0.0525058181050636 -0.9656909858838857 0.25433060934092633
vn -0.4211637363302855 -0.8930875628376869 -0.15816356187489822
vn -0.2547429055406544 -0.9015871952628082 -0.3496377860226902
vn 0.12309456878520479 -0.9854719252001523 0.1170162885152744
vn -0.0525058181050636 -0.9656909858838857 0.25433060934092633
vn -0.5109441832576379 -0.0013094243583467535 -0.8596128936928733
vn -0.4249339056584807 -0.19448870204819418 -0.8840844533173502
vn -0.645680488514209 -0.19673772197625544 -0.7378285542750742
vn -0.5109441832576379 -0.0013094243583467535 -0.8596128936928733
vn -0.645680488514209 -0.19673772197625544 -0.7378285542750742
vn -0.7282383284382895 0.029020664585652414 -0.6847092361144349
vn -0.38369927677021726 -0.5414483248972561 -0.7480699007926783
vn -0.4249339056584807 -0.19448870204819418 -0.8840844533173502
vn -0.30366439233548204 -0.17416377713329587 -0.9367256351580147
vn -0.38369927677021726 -0.5414483248972561 -0.7480699007926783
vn -0.30366439233548204 -0.17416377713329587 -0.9367256351580147
vn -0.32679187097655393 -0.5641512075551058 -0.7582483023902917
vn -0.3810980711106841 -0.8887760161295857 0.25463985027591185
vn -0.0525058181050636 -0.9656909858838857 0.25433060934092633
vn 0.25221680892622644 -0.8482986452429255 0.4655921925613537
vn -0.0525058181050636 -0.9656909858838857 0.25433060934092633
vn 0.15442185650434911 -0.8464938701773481 0.5095115484323443
vn 0.33959849510854734 -0.7799953552337859 0.5256235420276855
vn 0.33959849510854734 -0.7799953552337859 0.5256235420276855
vn 0.25221680892622644 -0.8482986452429255 0.4655921925613537
vn -0.0525058181050636 -0.9656909858838857 0.25433060934092633
vn 0.12309456878520479 -0.9854719252001523 0.1170162885152744
vn 0.15442185650434911 -0.8464938701773481 0.5095115484323443
vn -0.0525058181050636 -0.9656909858838857 0.25433060934092633
f 1/1/1 2/2/2 3/3/3
f 4/4/4 5/5/5 6/6/6
f 7/7/7 8/8/8 9/9/9
f 10/10/10 11/11/11 12/12/12
f 13/13/13 14/14/14 15/15/15
f 16/16/16 17/17/17 18/18/18
f 19/19/19 20/20/20 21/21/21
f 22/22/22 23/23/23 24/24/24
f 25/25/25 26/26/26 27/27/27
f 28/28/28 29/29/29 30/30/30
f 31/31/31 32/32/32 33/33/33
f 34/34/34 35/35/35 36/36/36
f 37/37/37 38/38/38 39/39/39
f 40/40/40 41/41/41 42/42/42
f 43/43/43 44/44/44 45/45/45
f 46/46/46 47/47/47 48/48/48
f 49/49/49 50/50/50 51/51/51
f 52/52/52 53/53/53 54/54/54
f 55/55/55 56/56/56 57/57/57
f 58/58/58 59/59/59 60/60/60
f 61/61/61 62/62/62 63/63/63
f 64/64/64 65/65/65 66/66/66
f 67/67/67 68/68/68 69/69/69
f 70/70/70 71/71/71 72/72/72
f 73/73/73 74/74/74 75/75/75
f 76/76/76 77/77/77 78/78/78
f 79/79/79 80/80/80 81/81/81
f 82/82/82 83/83/83 84/84/84
f 85/85/85 86/86/86 87/87/87
f 88/88/88 89/89/89 90/90/90
f 91/91/91 92/92/92 93/93/93
f 94/94/94 95/95/95 96/96/96
f 97/97/97 98/98/98 99/99/99
f 100/100/100 101/101/101 102/102/102
f 103/103/103 104/104/104 105/105/105
f 106/106/106 107/107/107 108/108/108
f 109/109/109 110/110/110 111/111/111
f 112/112/112 113/113/113 114/114/114
