mtllib ArcadaCompleta.mtl
o D18C_M
usemtl Esmalte
v -57.86149978637695 19.20020294189453 -0.16267424754004908
v -57.77980041503906 19.068212509155273 0.9191277331938223
v -58.192298889160156 18.808143615722656 0.7753997749914602
v -57.86149978637695 19.20020294189453 -0.16267424754004908
v -58.192298889160156 18.808143615722656 0.7753997749914602
v -58.26029968261719 18.800493240356445 -0.08379025689464052
v -57.86149978637695 19.20020294189453 -0.16267424754004908
v -57.57780075073242 20.00629234313965 -0.1626742475400489
v -57.34600067138672 19.86930274963379 1.01417079635758
v -57.86149978637695 19.20020294189453 -0.16267424754004908
v -57.34600067138672 19.86930274963379 1.01417079635758
v -57.77980041503906 19.068212509155273 0.9191277331938223
v -57.86149978637695 19.20020294189453 -0.16267424754004908
v -58.26029968261719 18.800493240356445 -0.08379025689464052
v -58.58169937133789 18.689823150634766 -1.4988792829881235
v -57.86149978637695 19.20020294189453 -0.16267424754004908
v -58.58169937133789 18.689823150634766 -1.4988792829881235
v -58.00740051269531 19.067502975463867 -1.5095692568193002
v -57.69879913330078 21.123292922973633 -0.16267424754004864
v -57.59360122680664 21.123292922973633 1.1207207746138057
v -57.34600067138672 19.86930274963379 1.01417079635758
v -57.69879913330078 21.123292922973633 -0.16267424754004864
v -57.34600067138672 19.86930274963379 1.01417079635758
v -57.57780075073242 20.00629234313965 -0.1626742475400489
v -57.69879913330078 21.123292922973633 -0.16267424754004864
v -58.13570022583008 22.474943161010742 -0.16267424754004836
v -58.20800018310547 22.474943161010742 1.1239307231535398
v -57.69879913330078 21.123292922973633 -0.16267424754004864
v -58.20800018310547 22.474943161010742 1.1239307231535398
v -57.59360122680664 21.123292922973633 1.1207207746138057
v -57.77980041503906 19.068212509155273 0.9191277331938223
v -57.80720138549805 18.780832290649414 2.0993507213224847
v -58.28950119018555 18.46137237548828 1.8459008044828846
v -57.77980041503906 19.068212509155273 0.9191277331938223
v -58.28950119018555 18.46137237548828 1.8459008044828846
v -58.192298889160156 18.808143615722656 0.7753997749914602
v -58.00740051269531 19.067502975463867 -1.5095692568193002
v -57.66450119018555 19.86930274963379 -1.5241292410264533
v -57.57780075073242 20.00629234313965 -0.1626742475400489
v -58.00740051269531 19.067502975463867 -1.5095692568193002
v -57.57780075073242 20.00629234313965 -0.1626742475400489
v -57.86149978637695 19.20020294189453 -0.16267424754004908
v -57.57780075073242 20.00629234313965 -0.1626742475400489
v -57.66450119018555 19.86930274963379 -1.5241292410264533
v -57.83940124511719 21.123292922973633 -1.446059196508936
v -57.57780075073242 20.00629234313965 -0.1626742475400489
v -57.83940124511719 21.123292922973633 -1.446059196508936
v -57.69879913330078 21.123292922973633 -0.16267424754004864
v -57.83940124511719 21.123292922973633 -1.446059196508936
v -58.20800018310547 22.474943161010742 -1.4492792778382815
v -58.13570022583008 22.474943161010742 -0.16267424754004836
v -57.83940124511719 21.123292922973633 -1.446059196508936
v -58.13570022583008 22.474943161010742 -0.16267424754004836
v -57.69879913330078 21.123292922973633 -0.16267424754004864
v -57.34600067138672 19.86930274963379 1.01417079635758
v -57.59360122680664 21.123292922973633 1.1207207746138057
v -57.635398864746094 21.123292922973633 2.6617906398405515
v -57.34600067138672 19.86930274963379 1.01417079635758
v -57.635398864746094 21.123292922973633 2.6617906398405515
v -57.410701751708984 19.64684295654297 2.459900648080297
v -58.26029968261719 18.800493240356445 -0.08379025689464052
v -59.06850051879883 18.984872817993164 -0.17810325256686646
v -58.58169937133789 18.689823150634766 -1.4988792829881235
v -58.192298889160156 18.808143615722656 0.7753997749914602
v -58.75669860839844 18.907873153686523 0.34869375892777005
v -58.26029968261719 18.800493240356445 -0.08379025689464052
v -59.035400390625 19.407453536987305 0.15538674660820537
v -58.26029968261719 18.800493240356445 -0.08379025689464052
v -58.75669860839844 18.907873153686523 0.34869375892777005
v -58.20800018310547 22.474943161010742 1.1239307231535398
v -58.28120040893555 22.474943161010742 2.578240663491675
v -57.635398864746094 21.123292922973633 2.6617906398405515
v -58.20800018310547 22.474943161010742 1.1239307231535398
v -57.635398864746094 21.123292922973633 2.6617906398405515
v -57.59360122680664 21.123292922973633 1.1207207746138057
v -59.06850051879883 18.984872817993164 -0.17810325256686646
v -58.26029968261719 18.800493240356445 -0.08379025689464052
v -59.035400390625 19.407453536987305 0.15538674660820537
v -59.06850051879883 18.984872817993164 -0.17810325256686646
v -59.35169982910156 18.405452728271484 -1.3954292230973766
v -58.95429992675781 18.47108268737793 -1.475239246405177
v -59.06850051879883 18.984872817993164 -0.17810325256686646
v -58.95429992675781 18.47108268737793 -1.475239246405177
v -58.58169937133789 18.689823150634766 -1.4988792829881235
v -57.410701751708984 19.64684295654297 2.459900648080297
v -57.80720138549805 18.780832290649414 2.0993507213224847
v -57.77980041503906 19.068212509155273 0.9191277331938223
v -57.410701751708984 19.64684295654297 2.459900648080297
v -57.77980041503906 19.068212509155273 0.9191277331938223
v -57.34600067138672 19.86930274963379 1.01417079635758
v -58.28950119018555 18.46137237548828 1.8459008044828846
v -58.75669860839844 18.907873153686523 0.34869375892777005
v -58.192298889160156 18.808143615722656 0.7753997749914602
v -58.28950119018555 18.46137237548828 1.8459008044828846
v -58.69340133666992 18.414432525634766 1.8150106973280384
v -59.035400390625 19.407453536987305 0.15538674660820537
v -58.28950119018555 18.46137237548828 1.8459008044828846
v -59.035400390625 19.407453536987305 0.15538674660820537
v -58.75669860839844 18.907873153686523 0.34869375892777005
v -58.69340133666992 18.414432525634766 1.8150106973280384
v -59.1411018371582 18.451372146606445 1.3329007930387928
v -59.31999969482422 18.92733383178711 0.3704587525953726
v -58.69340133666992 18.414432525634766 1.8150106973280384
v -59.31999969482422 18.92733383178711 0.3704587525953726
v -59.035400390625 19.407453536987305 0.15538674660820537
v -58.471500396728516 23.58832359313965 -0.2478042536149535
v -58.52009963989258 23.5797119140625 0.9580057568182435
v -58.20800018310547 22.474943161010742 1.1239307231535398
v -58.471500396728516 23.58832359313965 -0.2478042536149535
v -58.20800018310547 22.474943161010742 1.1239307231535398
v -58.13570022583008 22.474943161010742 -0.16267424754004836
v -58.13570022583008 22.474943161010742 -0.16267424754004836
v -58.20800018310547 22.474943161010742 -1.4492792778382815
v -58.52009963989258 23.5797119140625 -1.151769249952844
v -58.13570022583008 22.474943161010742 -0.16267424754004836
v -58.52009963989258 23.5797119140625 -1.151769249952844
v -58.471500396728516 23.58832359313965 -0.2478042536149535
v -58.87200164794922 23.67066192626953 2.528590709649512
v -58.28120040893555 22.474943161010742 2.578240663491675
v -58.20800018310547 22.474943161010742 1.1239307231535398
v -58.87200164794922 23.67066192626953 2.528590709649512
v -58.20800018310547 22.474943161010742 1.1239307231535398
v -58.52009963989258 23.5797119140625 0.9580057568182435
vt 0.9393569827079773 0.47760099172592163
vt 0.9488890171051025 0.5841040015220642
vt 0.9007620215415955 0.569953978061676
vt 0.9393569827079773 0.47760099172592163
vt 0.9007620215415955 0.569953978061676
vt 0.8928279876708984 0.4853670001029968
vt 0.25849199295043945 0.47760099172592163
vt 0.38294699788093567 0.47760099172592163
vt 0.36179599165916443 0.5934609770774841
vt 0.25849199295043945 0.47760099172592163
vt 0.36179599165916443 0.5934609770774841
vt 0.23811399936676025 0.5841040015220642
vt 0.9393569827079773 0.47760099172592163
vt 0.8928279876708984 0.4853670001029968
vt 0.8553310036659241 0.34605199098587036
vt 0.9393569827079773 0.47760099172592163
vt 0.8553310036659241 0.34605199098587036
vt 0.9223340153694153 0.34499895572662354
vt 0.555404007434845 0.47760099172592163
vt 0.555404007434845 0.6039509773254395
vt 0.36179599165916443 0.5934609770774841
vt 0.555404007434845 0.47760099172592163
vt 0.36179599165916443 0.5934609770774841
vt 0.38294699788093567 0.47760099172592163
vt 0.555404007434845 0.47760099172592163
vt 0.7640889883041382 0.47760099172592163
vt 0.7640889883041382 0.6042670011520386
vt 0.555404007434845 0.47760099172592163
vt 0.7640889883041382 0.6042670011520386
vt 0.555404007434845 0.6039509773254395
vt 0.9488890171051025 0.5841040015220642
vt 0.9456920027732849 0.7002969980239868
vt 0.8894209861755371 0.6753450036048889
vt 0.9488890171051025 0.5841040015220642
vt 0.8894209861755371 0.6753450036048889
vt 0.9007620215415955 0.569953978061676
vt 0.23800399899482727 0.34499895572662354
vt 0.36179599165916443 0.34356600046157837
vt 0.38294699788093567 0.47760099172592163
vt 0.23800399899482727 0.34499895572662354
vt 0.38294699788093567 0.47760099172592163
vt 0.25849199295043945 0.47760099172592163
vt 0.38294699788093567 0.47760099172592163
vt 0.36179599165916443 0.34356600046157837
vt 0.555404007434845 0.3512519598007202
vt 0.38294699788093567 0.47760099172592163
vt 0.555404007434845 0.3512519598007202
vt 0.555404007434845 0.47760099172592163
vt 0.555404007434845 0.3512519598007202
vt 0.7640889883041382 0.3509349822998047
vt 0.7640889883041382 0.47760099172592163
vt 0.555404007434845 0.3512519598007202
vt 0.7640889883041382 0.47760099172592163
vt 0.555404007434845 0.47760099172592163
vt 0.36179599165916443 0.5934609770774841
vt 0.555404007434845 0.6039509773254395
vt 0.555404007434845 0.7556689977645874
vt 0.36179599165916443 0.5934609770774841
vt 0.555404007434845 0.7556689977645874
vt 0.3274500072002411 0.7357929944992065
vt 0.8928279876708984 0.4853670001029968
vt 0.7985360026359558 0.4760819673538208
vt 0.8553310036659241 0.34605199098587036
vt 0.9007620215415955 0.569953978061676
vt 0.8349140286445618 0.5279449820518494
vt 0.8928279876708984 0.4853670001029968
vt 0.8023970127105713 0.5089139938354492
vt 0.8928279876708984 0.4853670001029968
vt 0.8349140286445618 0.5279449820518494
vt 0.7640889883041382 0.6042670011520386
vt 0.7640889883041382 0.7474430203437805
vt 0.555404007434845 0.7556689977645874
vt 0.7640889883041382 0.6042670011520386
vt 0.555404007434845 0.7556689977645874
vt 0.555404007434845 0.6039509773254395
vt 0.7985360026359558 0.4760819673538208
vt 0.8928279876708984 0.4853670001029968
vt 0.8023970127105713 0.5089139938354492
vt 0.7985360026359558 0.4760819673538208
vt 0.7654950022697449 0.35623598098754883
vt 0.8118600249290466 0.3483790159225464
vt 0.7985360026359558 0.4760819673538208
vt 0.8118600249290466 0.3483790159225464
vt 0.8553310036659241 0.34605199098587036
vt 0.3274500072002411 0.7357929944992065
vt 0.19374500215053558 0.7002969980239868
vt 0.23811399936676025 0.5841040015220642
vt 0.3274500072002411 0.7357929944992065
vt 0.23811399936676025 0.5841040015220642
vt 0.36179599165916443 0.5934609770774841
vt 0.8894209861755371 0.6753450036048889
vt 0.8349140286445618 0.5279449820518494
vt 0.9007620215415955 0.569953978061676
vt 0.8894209861755371 0.6753450036048889
vt 0.8422989845275879 0.6723030209541321
vt 0.8023970127105713 0.5089139938354492
vt 0.8555780053138733 0.6753450036048889
vt 0.7095100283622742 0.5089139938354492
vt 0.786641001701355 0.5279449820518494
vt 0.8422989845275879 0.6723030209541321
vt 0.7900649905204773 0.6248400211334229
vt 0.7691929936408997 0.5300880074501038
vt 0.8422989845275879 0.6723030209541321
vt 0.7691929936408997 0.5300880074501038
vt 0.8023970127105713 0.5089139938354492
vt 0.9359869956970215 0.46922004222869873
vt 0.9346569776535034 0.5879319906234741
vt 0.7640889883041382 0.6042670011520386
vt 0.9359869956970215 0.46922004222869873
vt 0.7640889883041382 0.6042670011520386
vt 0.7640889883041382 0.47760099172592163
vt 0.7640889883041382 0.47760099172592163
vt 0.7640889883041382 0.3509349822998047
vt 0.9346569776535034 0.3802250027656555
vt 0.7640889883041382 0.47760099172592163
vt 0.9346569776535034 0.3802250027656555
vt 0.9359869956970215 0.46922004222869873
vt 0.9486989974975586 0.7425550222396851
vt 0.7640889883041382 0.7474430203437805
vt 0.7640889883041382 0.6042670011520386
vt 0.9486989974975586 0.7425550222396851
vt 0.7640889883041382 0.6042670011520386
vt 0.9346569776535034 0.5879319906234741
vn 0.8086755538178253 -0.5791629313925127 -0.10302498511654896
vn 0.8092927981483369 -0.5769587961068418 -0.1102892309347512
vn 0.3627852682111943 -0.9177586144347064 -0.16157343469710503
vn 0.8086755538178253 -0.5791629313925127 -0.10302498511654896
vn 0.3627852682111943 -0.9177586144347064 -0.16157343469710503
vn 0.07322408440637271 -0.9954948255474175 0.06023525355773767
vn 0.8086755538178253 -0.5791629313925127 -0.10302498511654896
vn 0.9901071644782078 -0.08387728660128853 -0.11248290377354385
vn 0.9980412079825038 -0.026674561080217242 -0.056588116773774
vn 0.8086755538178253 -0.5791629313925127 -0.10302498511654896
vn 0.9980412079825038 -0.026674561080217242 -0.056588116773774
vn 0.8092927981483369 -0.5769587961068418 -0.1102892309347512
vn 0.8086755538178253 -0.5791629313925127 -0.10302498511654896
vn 0.07322408440637271 -0.9954948255474175 0.06023525355773767
vn 0.3493849388202711 -0.9321395096041384 0.09511098338526229
vn 0.8086755538178253 -0.5791629313925127 -0.10302498511654896
vn 0.3493849388202711 -0.9321395096041384 0.09511098338526229
vn 0.8555684050250008 -0.5170417404199813 -0.025894844785260877
vn 0.9636691754036547 0.25571401180681624 -0.07714962438342429
vn 0.9489132730984483 0.3148172587749491 -0.021300087206770922
vn 0.9980412079825038 -0.026674561080217242 -0.056588116773774
vn 0.9636691754036547 0.25571401180681624 -0.07714962438342429
vn 0.9980412079825038 -0.026674561080217242 -0.056588116773774
vn 0.9901071644782078 -0.08387728660128853 -0.11248290377354385
vn 0.9636691754036547 0.25571401180681624 -0.07714962438342429
vn 0.9564711851325565 0.29066845178249195 -0.02597543357659757
vn 0.9282190765144566 0.3690680847728316 0.04688384366456466
vn 0.9636691754036547 0.25571401180681624 -0.07714962438342429
vn 0.9282190765144566 0.3690680847728316 0.04688384366456466
vn 0.9489132730984483 0.3148172587749491 -0.021300087206770922
vn 0.8092927981483369 -0.5769587961068418 -0.1102892309347512
vn 0.8256221455797488 -0.5523131517974136 -0.11531806051048182
vn 0.09564922342993057 -0.9571131060551894 -0.27346979408088035
vn 0.8092927981483369 -0.5769587961068418 -0.1102892309347512
vn 0.09564922342993057 -0.9571131060551894 -0.27346979408088035
vn 0.3627852682111943 -0.9177586144347064 -0.16157343469710503
vn 0.8555684050250008 -0.5170417404199813 -0.025894844785260877
vn 0.9952859480734295 -0.07962425211714962 -0.05537020897882891
vn 0.9901071644782078 -0.08387728660128853 -0.11248290377354385
vn 0.8555684050250008 -0.5170417404199813 -0.025894844785260877
vn 0.9901071644782078 -0.08387728660128853 -0.11248290377354385
vn 0.8086755538178253 -0.5791629313925127 -0.10302498511654896
vn 0.9901071644782078 -0.08387728660128853 -0.11248290377354385
vn 0.9952859480734295 -0.07962425211714962 -0.05537020897882891
vn 0.9736497760216422 0.21155702550601233 -0.08514539689293005
vn 0.9901071644782078 -0.08387728660128853 -0.11248290377354385
vn 0.9736497760216422 0.21155702550601233 -0.08514539689293005
vn 0.9636691754036547 0.25571401180681624 -0.07714962438342429
vn 0.9736497760216422 0.21155702550601233 -0.08514539689293005
vn 0.9605956035930248 0.2726577339366507 -0.05398005633827262
vn 0.9564711851325565 0.29066845178249195 -0.02597543357659757
vn 0.9736497760216422 0.21155702550601233 -0.08514539689293005
vn 0.9564711851325565 0.29066845178249195 -0.02597543357659757
vn 0.9636691754036547 0.25571401180681624 -0.07714962438342429
vn 0.9980412079825038 -0.026674561080217242 -0.056588116773774
vn 0.9489132730984483 0.3148172587749491 -0.021300087206770922
vn 0.9526413488656702 0.3012853612110122 0.041250352136025244
vn 0.9980412079825038 -0.026674561080217242 -0.056588116773774
vn 0.9526413488656702 0.3012853612110122 0.041250352136025244
vn 0.9844796311066253 -0.17548337388808852 0.0023326862232753037
vn 0.07322408440637271 -0.9954948255474175 0.06023525355773767
vn 0.019408482392467563 -0.9312927999526808 0.3637540811695693
vn 0.3493849388202711 -0.9321395096041384 0.09511098338526229
vn 0.3627852682111943 -0.9177586144347064 -0.16157343469710503
vn -0.49234918209335055 -0.8559600192958486 -0.15787567342392955
vn 0.07322408440637271 -0.9954948255474175 0.06023525355773767
vn -0.1444208073518166 -0.9450625113533546 -0.29325667944369155
vn 0.07322408440637271 -0.9954948255474175 0.06023525355773767
vn -0.49234918209335055 -0.8559600192958486 -0.15787567342392955
vn 0.9282190765144566 0.3690680847728316 0.04688384366456466
vn 0.8977548112592894 0.43817169732120403 0.045186972983958205
vn 0.9526413488656702 0.3012853612110122 0.041250352136025244
vn 0.9282190765144566 0.3690680847728316 0.04688384366456466
vn 0.9526413488656702 0.3012853612110122 0.041250352136025244
vn 0.9489132730984483 0.3148172587749491 -0.021300087206770922
vn 0.019408482392467563 -0.9312927999526808 0.3637540811695693
vn 0.07322408440637271 -0.9954948255474175 0.06023525355773767
vn -0.1444208073518166 -0.9450625113533546 -0.29325667944369155
vn 0.019408482392467563 -0.9312927999526808 0.3637540811695693
vn 0.2239885819143707 -0.899188356319067 0.37588484278060996
vn 0.3651828606193568 -0.8540584172508893 0.37043987127841566
vn 0.019408482392467563 -0.9312927999526808 0.3637540811695693
vn 0.3651828606193568 -0.8540584172508893 0.37043987127841566
vn 0.3493849388202711 -0.9321395096041384 0.09511098338526229
vn 0.9844796311066253 -0.17548337388808852 0.0023326862232753037
vn 0.8256221455797488 -0.5523131517974136 -0.11531806051048182
vn 0.8092927981483369 -0.5769587961068418 -0.1102892309347512
vn 0.9844796311066253 -0.17548337388808852 0.0023326862232753037
vn 0.8092927981483369 -0.5769587961068418 -0.1102892309347512
vn 0.9980412079825038 -0.026674561080217242 -0.056588116773774
vn 0.09564922342993057 -0.9571131060551894 -0.27346979408088035
vn -0.49234918209335055 -0.8559600192958486 -0.15787567342392955
vn 0.3627852682111943 -0.9177586144347064 -0.16157343469710503
vn 0.09564922342993057 -0.9571131060551894 -0.27346979408088035
vn 0.4254762902127955 -0.744696995110063 -0.5141948190528562
vn -0.1444208073518166 -0.9450625113533546 -0.29325667944369155
vn 0.09564922342993057 -0.9571131060551894 -0.27346979408088035
vn -0.1444208073518166 -0.9450625113533546 -0.29325667944369155
vn -0.49234918209335055 -0.8559600192958486 -0.15787567342392955
vn 0.4254762902127955 -0.744696995110063 -0.5141948190528562
vn 0.4346797347633733 -0.7725443629163519 -0.46284850168517516
vn 0.5754700340917559 -0.659409646555472 -0.483749065003769
vn 0.4254762902127955 -0.744696995110063 -0.5141948190528562
vn 0.5754700340917559 -0.659409646555472 -0.483749065003769
vn -0.1444208073518166 -0.9450625113533546 -0.29325667944369155
vn 0.9582636014470288 0.28516443546473297 0.02030061299197181
vn 0.9491590757576508 0.28742292220779714 0.12839436395890846
vn 0.9282190765144566 0.3690680847728316 0.04688384366456466
vn 0.9582636014470288 0.28516443546473297 0.02030061299197181
vn 0.9282190765144566 0.3690680847728316 0.04688384366456466
vn 0.9564711851325565 0.29066845178249195 -0.02597543357659757
vn 0.9564711851325565 0.29066845178249195 -0.02597543357659757
vn 0.9605956035930248 0.2726577339366507 -0.05398005633827262
vn 0.9570913273139229 0.2847217308996606 -0.05394188663714305
vn 0.9564711851325565 0.29066845178249195 -0.02597543357659757
vn 0.9570913273139229 0.2847217308996606 -0.05394188663714305
vn 0.9582636014470288 0.28516443546473297 0.02030061299197181
vn 0.9205320058498487 0.3723661432058134 0.11817056147823789
vn 0.8977548112592894 0.43817169732120403 0.045186972983958205
vn 0.9282190765144566 0.3690680847728316 0.04688384366456466
vn 0.9205320058498487 0.3723661432058134 0.11817056147823789
vn 0.9282190765144566 0.3690680847728316 0.04688384366456466
vn 0.9491590757576508 0.28742292220779714 0.12839436395890846
f 1/1/1 2/2/2 3/3/3
f 4/4/4 5/5/5 6/6/6
f 7/7/7 8/8/8 9/9/9
f 10/10/10 11/11/11 12/12/12
f 13/13/13 14/14/14 15/15/15
f 16/16/16 17/17/17 18/18/18
f 19/19/19 20/20/20 21/21/21
f 22/22/22 23/23/23 24/24/24
f 25/25/25 26/26/26 27/27/27
f 28/28/28 29/29/29 30/30/30
f 31/31/31 32/32/32 33/33/33
f 34/34/34 35/35/35 36/36/36
f 37/37/37 38/38/38 39/39/39
f 40/40/40 41/41/41 42/42/42
f 43/43/43 44/44/44 45/45/45
f 46/46/46 47/47/47 48/48/48
f 49/49/49 50/50/50 51/51/51
f 52/52/52 53/53/53 54/54/54
f 55/55/55 56/56/56 57/57/57
f 58/58/58 59/59/59 60/60/60
f 61/61/61 62/62/62 63/63/63
f 64/64/64 65/65/65 66/66/66
f 67/67/67 68/68/68 69/69/69
f 70/70/70 71/71/71 72/72/72
f 73/73/73 74/74/74 75/75/75
f 76/76/76 77/77/77 78/78/78
f 79/79/79 80/80/80 81/81/81
f 82/82/82 83/83/83 84/84/84
f 85/85/85 86/86/86 87/87/87
f 88/88/88 89/89/89 90/90/90
f 91/91/91 92/92/92 93/93/93
f 94/94/94 95/95/95 96/96/96
f 97/97/97 98/98/98 99/99/99
f 100/100/100 101/101/101 102/102/102
f 103/103/103 104/104/104 105/105/105
f 106/106/106 107/107/107 108/108/108
f 109/109/109 110/110/110 111/111/111
f 112/112/112 113/113/113 114/114/114
f 115/115/115 116/116/116 117/117/117
f 118/118/118 119/119/119 120/120/120
f 121/121/121 122/122/122 123/123/123
