mtllib ArcadaCompleta.mtl
o D18C_B
usemtl Esmalte
v -61.892799377441406 18.727083206176758 3.8727007217039544
v -62.03269958496094 19.61947250366211 3.798800737344213
v -62.284400939941406 19.430622100830078 4.074460775338598
v -61.892799377441406 18.727083206176758 3.8727007217039544
v -62.284400939941406 19.430622100830078 4.074460775338598
v -62.089599609375 18.615442276000977 3.937230855905004
v -61.892799377441406 18.727083206176758 3.8727007217039544
v -61.647499084472656 18.576873779296875 3.9834306544889886
v -61.8026008605957 19.430522918701172 4.287210733376928
v -61.892799377441406 18.727083206176758 3.8727007217039544
v -61.8026008605957 19.430522918701172 4.287210733376928
v -62.03269958496094 19.61947250366211 3.798800737344213
v -62.03260040283203 21.213623046875 4.102740556680151
v -62.03269958496094 19.61947250366211 3.798800737344213
v -61.8026008605957 19.430522918701172 4.287210733376928
v -62.03260040283203 21.213623046875 4.102740556680151
v -61.8026008605957 19.430522918701172 4.287210733376928
v -61.80270004272461 21.123292922973633 4.466130525552221
v -62.03260040283203 21.213623046875 4.102740556680151
v -61.80270004272461 21.123292922973633 4.466130525552221
v -62.049800872802734 21.45262336730957 4.591510564767309
v -61.74330139160156 18.678983688354492 3.4953906840910394
v -61.520599365234375 18.372913360595703 3.4933607883085687
v -61.647499084472656 18.576873779296875 3.9834306544889886
v -61.74330139160156 18.678983688354492 3.4953906840910394
v -61.647499084472656 18.576873779296875 3.9834306544889886
v -61.892799377441406 18.727083206176758 3.8727007217039544
v -61.74330139160156 18.678983688354492 3.4953906840910394
v -61.74319839477539 18.891672134399414 2.46712067791123
v -61.51580047607422 18.441633224487305 2.4853906936277825
v -61.74330139160156 18.678983688354492 3.4953906840910394
v -61.51580047607422 18.441633224487305 2.4853906936277825
v -61.520599365234375 18.372913360595703 3.4933607883085687
v -62.03269958496094 19.61947250366211 3.798800737344213
v -62.03260040283203 21.213623046875 4.102740556680151
v -62.26259994506836 21.123292922973633 4.432130605660864
v -62.03269958496094 19.61947250366211 3.798800737344213
v -62.26259994506836 21.123292922973633 4.432130605660864
v -62.284400939941406 19.430622100830078 4.074460775338598
v -60.795101165771484 18.36538314819336 4.068280965768285
v -60.669898986816406 19.42223358154297 4.7788908786406
v -61.8026008605957 19.430522918701172 4.287210733376928
v -60.795101165771484 18.36538314819336 4.068280965768285
v -61.8026008605957 19.430522918701172 4.287210733376928
v -61.647499084472656 18.576873779296875 3.9834306544889886
v -62.63209915161133 18.33681297302246 3.521820814095922
v -62.089599609375 18.615442276000977 3.937230855905004
v -62.284400939941406 19.430622100830078 4.074460775338598
v -62.63209915161133 18.33681297302246 3.521820814095922
v -62.284400939941406 19.430622100830078 4.074460775338598
v -62.81650161743164 19.42243194580078 3.824000627480932
v -62.810699462890625 21.123292922973633 4.0894906825651605
v -62.81650161743164 19.42243194580078 3.824000627480932
v -62.284400939941406 19.430622100830078 4.074460775338598
v -62.810699462890625 21.123292922973633 4.0894906825651605
v -62.284400939941406 19.430622100830078 4.074460775338598
v -62.26259994506836 21.123292922973633 4.432130605660864
v -60.669898986816406 19.42223358154297 4.7788908786406
v -60.675498962402344 21.123292922973633 4.984660894357153
v -61.80270004272461 21.123292922973633 4.466130525552221
v -60.669898986816406 19.42223358154297 4.7788908786406
v -61.80270004272461 21.123292922973633 4.466130525552221
v -61.8026008605957 19.430522918701172 4.287210733376928
v -62.49259948730469 17.956205368041992 2.980580837212987
v -61.92829895019531 18.387893676757812 3.250450641595312
v -62.089599609375 18.615442276000977 3.937230855905004
v -62.49259948730469 17.956205368041992 2.980580837212987
v -62.089599609375 18.615442276000977 3.937230855905004
v -62.63209915161133 18.33681297302246 3.521820814095922
v -61.77750015258789 22.474943161010742 4.686040670358129
v -62.049800872802734 21.45262336730957 4.591510564767309
v -60.708099365234375 22.474943161010742 5.138500959359594
v -60.708099365234375 22.474943161010742 5.138500959359594
v -62.049800872802734 21.45262336730957 4.591510564767309
v -61.80270004272461 21.123292922973633 4.466130525552221
v -60.708099365234375 22.474943161010742 5.138500959359594
v -61.80270004272461 21.123292922973633 4.466130525552221
v -60.675498962402344 21.123292922973633 4.984660894357153
v -62.77799987792969 22.474943161010742 4.311340600930639
v -62.049800872802734 21.45262336730957 4.591510564767309
v -61.77750015258789 22.474943161010742 4.686040670358129
v -62.60540008544922 18.074003219604492 2.272160798989721
v -61.96310043334961 18.454832077026367 2.4420106715788323
v -61.92829895019531 18.387893676757812 3.250450641595312
v -62.60540008544922 18.074003219604492 2.272160798989721
v -61.92829895019531 18.387893676757812 3.250450641595312
v -62.49259948730469 17.956205368041992 2.980580837212987
v -62.089599609375 18.615442276000977 3.937230855905004
v -61.92829895019531 18.387893676757812 3.250450641595312
v -61.74330139160156 18.678983688354492 3.4953906840910394
v -62.089599609375 18.615442276000977 3.937230855905004
v -61.74330139160156 18.678983688354492 3.4953906840910394
v -61.892799377441406 18.727083206176758 3.8727007217039544
v -61.92829895019531 18.387893676757812 3.250450641595312
v -61.96310043334961 18.454832077026367 2.4420106715788323
v -61.74319839477539 18.891672134399414 2.46712067791123
v -61.92829895019531 18.387893676757812 3.250450641595312
v -61.74319839477539 18.891672134399414 2.46712067791123
v -61.74330139160156 18.678983688354492 3.4953906840910394
v -61.520599365234375 18.372913360595703 3.4933607883085687
v -61.51580047607422 18.441633224487305 2.4853906936277825
v -60.96979904174805 18.203432083129883 2.6103806800474603
v -61.520599365234375 18.372913360595703 3.4933607883085687
v -60.96979904174805 18.203432083129883 2.6103806800474603
v -60.84040069580078 18.07075309753418 3.4886608428587396
v -61.647499084472656 18.576873779296875 3.9834306544889886
v -61.520599365234375 18.372913360595703 3.4933607883085687
v -60.84040069580078 18.07075309753418 3.4886608428587396
v -61.647499084472656 18.576873779296875 3.9834306544889886
v -60.84040069580078 18.07075309753418 3.4886608428587396
v -60.795101165771484 18.36538314819336 4.068280965768285
v -62.26259994506836 21.123292922973633 4.432130605660864
v -62.049800872802734 21.45262336730957 4.591510564767309
v -62.77799987792969 22.474943161010742 4.311340600930639
v -62.26259994506836 21.123292922973633 4.432130605660864
v -62.77799987792969 22.474943161010742 4.311340600930639
v -62.810699462890625 21.123292922973633 4.0894906825651605
v -62.049800872802734 21.45262336730957 4.591510564767309
v -62.26259994506836 21.123292922973633 4.432130605660864
v -62.03260040283203 21.213623046875 4.102740556680151
vt 0.18544599413871765 0.8748829960823059
vt 0.3232249915599823 0.8676069974899292
vt 0.29406800866127014 0.8947460055351257
vt 0.46902400255203247 0.18544602394104004
vt 0.423335999250412 0.29406797885894775
vt 0.4460639953613281 0.16821002960205078
vt 0.46902400255203247 0.18544602394104004
vt 0.49764299392700195 0.16225498914718628
vt 0.47954800724983215 0.29405200481414795
vt 0.81455397605896 0.8748829960823059
vt 0.705947995185852 0.9156910181045532
vt 0.6767749786376953 0.8676069974899292
vt 0.430649995803833 0.8975300192832947
vt 0.6767749786376953 0.8676069974899292
vt 0.705947995185852 0.9156910181045532
vt 0.430649995803833 0.8975300192832947
vt 0.705947995185852 0.9156910181045532
vt 0.44459599256515503 0.9333059787750244
vt 0.4527130126953125 0.8975300192832947
vt 0.4795359969139099 0.9333059787750244
vt 0.45070600509643555 0.9456490278244019
vt 0.8219799995422363 0.8377360105514526
vt 0.8692349791526794 0.8375369906425476
vt 0.8377450108528137 0.8857839703559875
vt 0.4864659905433655 0.8377360105514526
vt 0.49764299392700195 0.8857839703559875
vt 0.46902400255203247 0.8748829960823059
vt 0.8219799995422363 0.8377360105514526
vt 0.7891420125961304 0.736503005027771
vt 0.8586249947547913 0.7383019924163818
vt 0.8219799995422363 0.8377360105514526
vt 0.8586249947547913 0.7383019924163818
vt 0.8692349791526794 0.8375369906425476
vt 0.3232249915599823 0.8676069974899292
vt 0.569350004196167 0.8975300192832947
vt 0.555404007434845 0.9299579858779907
vt 0.3232249915599823 0.8676069974899292
vt 0.555404007434845 0.9299579858779907
vt 0.29406800866127014 0.8947460055351257
vt 0.5970929861068726 0.12960201501846313
vt 0.6116999983787537 0.29277199506759644
vt 0.47954800724983215 0.29405200481414795
vt 0.5970929861068726 0.12960201501846313
vt 0.47954800724983215 0.29405200481414795
vt 0.49764299392700195 0.16225498914718628
vt 0.38277000188827515 0.12519097328186035
vt 0.4460639953613281 0.16821002960205078
vt 0.423335999250412 0.29406797885894775
vt 0.38277000188827515 0.12519097328186035
vt 0.423335999250412 0.29406797885894775
vt 0.3612560033798218 0.29280298948287964
vt 0.36193200945854187 0.555404007434845
vt 0.3612560033798218 0.29280298948287964
vt 0.423335999250412 0.29406797885894775
vt 0.36193200945854187 0.555404007434845
vt 0.423335999250412 0.29406797885894775
vt 0.42587900161743164 0.555404007434845
vt 0.6116999983787537 0.29277199506759644
vt 0.6110470294952393 0.555404007434845
vt 0.4795359969139099 0.555404007434845
vt 0.6116999983787537 0.29277199506759644
vt 0.4795359969139099 0.555404007434845
vt 0.47954800724983215 0.29405200481414795
vt 0.3990449905395508 0.7870540022850037
vt 0.4648819863796234 0.813621997833252
vt 0.4460639953613281 0.8812360167503357
vt 0.3990449905395508 0.7870540022850037
vt 0.4460639953613281 0.8812360167503357
vt 0.38277000188827515 0.8403390049934387
vt 0.48247599601745605 0.7640889883041382
vt 0.45070600509643555 0.606249988079071
vt 0.607243001461029 0.7640889883041382
vt 0.607243001461029 0.7640889883041382
vt 0.45070600509643555 0.606249988079071
vt 0.4795359969139099 0.555404007434845
vt 0.607243001461029 0.7640889883041382
vt 0.4795359969139099 0.555404007434845
vt 0.6110470294952393 0.555404007434845
vt 0.36574700474739075 0.7640889883041382
vt 0.45070600509643555 0.606249988079071
vt 0.48247599601745605 0.7640889883041382
vt 0.38588500022888184 0.7173100113868713
vt 0.4608219861984253 0.7340310215950012
vt 0.4648819863796234 0.813621997833252
vt 0.38588500022888184 0.7173100113868713
vt 0.4648819863796234 0.813621997833252
vt 0.3990449905395508 0.7870540022850037
vt 0.4460639953613281 0.8812360167503357
vt 0.4648819863796234 0.813621997833252
vt 0.4864659905433655 0.8377360105514526
vt 0.4460639953613281 0.8812360167503357
vt 0.4864659905433655 0.8377360105514526
vt 0.46902400255203247 0.8748829960823059
vt 0.1330769956111908 0.813621997833252
vt 0.14341199398040771 0.7340310215950012
vt 0.21085700392723083 0.736503005027771
vt 0.1330769956111908 0.813621997833252
vt 0.21085700392723083 0.736503005027771
vt 0.17802000045776367 0.8377360105514526
vt 0.5124490261077881 0.8375369906425476
vt 0.5130090117454529 0.7383019924163818
vt 0.5767109990119934 0.7506070137023926
vt 0.5124490261077881 0.8375369906425476
vt 0.5767109990119934 0.7506070137023926
vt 0.591808021068573 0.8370739817619324
vt 0.49764299392700195 0.8857839703559875
vt 0.5124490261077881 0.8375369906425476
vt 0.591808021068573 0.8370739817619324
vt 0.49764299392700195 0.8857839703559875
vt 0.591808021068573 0.8370739817619324
vt 0.5970929861068726 0.894137978553772
vt 0.42587900161743164 0.555404007434845
vt 0.45070600509643555 0.606249988079071
vt 0.36574700474739075 0.7640889883041382
vt 0.42587900161743164 0.555404007434845
vt 0.36574700474739075 0.7640889883041382
vt 0.36193200945854187 0.555404007434845
vt 0.45070600509643555 0.9456490278244019
vt 0.42587900161743164 0.9299579858779907
vt 0.4527130126953125 0.8975300192832947
vn -0.30889127578092446 -0.30351744057574764 0.9013674849986437
vn 0.037940991998250864 -0.14348506206371275 0.9889249304627532
vn -0.1892784339339993 -0.1904352407596786 0.9632798625136393
vn -0.30889127578092446 -0.30351744057574764 0.9013674849986437
vn -0.1892784339339993 -0.1904352407596786 0.9632798625136393
vn 0.10724497854769793 -0.6872800283064996 0.7184320964902118
vn -0.30889127578092446 -0.30351744057574764 0.9013674849986437
vn -0.3858529439789141 -0.6921383402121526 0.6099688710345563
vn -0.5651313684191177 -0.23600660846016852 0.7905235083107044
vn -0.30889127578092446 -0.30351744057574764 0.9013674849986437
vn -0.5651313684191177 -0.23600660846016852 0.7905235083107044
vn 0.037940991998250864 -0.14348506206371275 0.9889249304627532
vn -0.5795285394019082 -0.25517486170948356 0.7739718741467525
vn 0.037940991998250864 -0.14348506206371275 0.9889249304627532
vn -0.5651313684191177 -0.23600660846016852 0.7905235083107044
vn -0.5795285394019082 -0.25517486170948356 0.7739718741467525
vn -0.5651313684191177 -0.23600660846016852 0.7905235083107044
vn -0.4404119389047065 -0.1487199758377249 0.8853923948493254
vn -0.5795285394019082 -0.25517486170948356 0.7739718741467525
vn -0.4404119389047065 -0.1487199758377249 0.8853923948493254
vn -0.32116104640612064 -0.15371095410564312 0.9344669736589188
vn -0.3708042701877077 -0.9286941043080809 0.0056083717755539
vn -0.5192754702340807 -0.8546068997218412 0.00018155163866932954
vn -0.3858529439789141 -0.6921383402121526 0.6099688710345563
vn -0.3708042701877077 -0.9286941043080809 0.0056083717755539
vn -0.3858529439789141 -0.6921383402121526 0.6099688710345563
vn -0.30889127578092446 -0.30351744057574764 0.9013674849986437
vn -0.3708042701877077 -0.9286941043080809 0.0056083717755539
vn 0.37455003819731864 -0.9099348033439824 -0.17813175615183177
vn -0.7016280990886838 -0.7088009221445919 -0.07293328003165792
vn -0.3708042701877077 -0.9286941043080809 0.0056083717755539
vn -0.7016280990886838 -0.7088009221445919 -0.07293328003165792
vn -0.5192754702340807 -0.8546068997218412 0.00018155163866932954
vn 0.037940991998250864 -0.14348506206371275 0.9889249304627532
vn -0.5795285394019082 -0.25517486170948356 0.7739718741467525
vn -0.02920855887207813 -0.20675487513121135 0.9779566870256032
vn 0.037940991998250864 -0.14348506206371275 0.9889249304627532
vn -0.02920855887207813 -0.20675487513121135 0.9779566870256032
vn -0.1892784339339993 -0.1904352407596786 0.9632798625136393
vn -0.2944919537835299 -0.5475636894333281 0.7832295290468312
vn -0.39778272168600526 -0.20958063294661297 0.8932216212238546
vn -0.5651313684191177 -0.23600660846016852 0.7905235083107044
vn -0.2944919537835299 -0.5475636894333281 0.7832295290468312
vn -0.5651313684191177 -0.23600660846016852 0.7905235083107044
vn -0.3858529439789141 -0.6921383402121526 0.6099688710345563
vn -0.35875838263484083 -0.44378875074872975 0.8211844905976456
vn 0.10724497854769793 -0.6872800283064996 0.7184320964902118
vn -0.1892784339339993 -0.1904352407596786 0.9632798625136393
vn -0.35875838263484083 -0.44378875074872975 0.8211844905976456
vn -0.1892784339339993 -0.1904352407596786 0.9632798625136393
vn -0.41403458153741574 -0.2071147592515317 0.8863852671334949
vn -0.48985690724407327 -0.14652155300024924 0.8594019111752468
vn -0.41403458153741574 -0.2071147592515317 0.8863852671334949
vn -0.1892784339339993 -0.1904352407596786 0.9632798625136393
vn -0.48985690724407327 -0.14652155300024924 0.8594019111752468
vn -0.1892784339339993 -0.1904352407596786 0.9632798625136393
vn -0.02920855887207813 -0.20675487513121135 0.9779566870256032
vn -0.39778272168600526 -0.20958063294661297 0.8932216212238546
vn -0.41530924167070565 -0.11154889827177557 0.9028150846531401
vn -0.4404119389047065 -0.1487199758377249 0.8853923948493254
vn -0.39778272168600526 -0.20958063294661297 0.8932216212238546
vn -0.4404119389047065 -0.1487199758377249 0.8853923948493254
vn -0.5651313684191177 -0.23600660846016852 0.7905235083107044
vn 0.42684205777342804 -0.8697140681629696 0.24779688729918048
vn 0.6859930242452893 -0.727378436973016 0.018280593904310437
vn 0.10724497854769793 -0.6872800283064996 0.7184320964902118
vn 0.42684205777342804 -0.8697140681629696 0.24779688729918048
vn 0.10724497854769793 -0.6872800283064996 0.7184320964902118
vn -0.35875838263484083 -0.44378875074872975 0.8211844905976456
vn -0.37105008878772516 0.012974323565756106 0.9285222121945345
vn -0.32116104640612064 -0.15371095410564312 0.9344669736589188
vn -0.34152540513706925 -0.13251472989863838 0.9304838762739803
vn -0.34152540513706925 -0.13251472989863838 0.9304838762739803
vn -0.32116104640612064 -0.15371095410564312 0.9344669736589188
vn -0.4404119389047065 -0.1487199758377249 0.8853923948493254
vn -0.34152540513706925 -0.13251472989863838 0.9304838762739803
vn -0.4404119389047065 -0.1487199758377249 0.8853923948493254
vn -0.41530924167070565 -0.11154889827177557 0.9028150846531401
vn -0.4433530391249013 -0.06415557604002124 0.8940481780987459
vn -0.32116104640612064 -0.15371095410564312 0.9344669736589188
vn -0.37105008878772516 0.012974323565756106 0.9285222121945345
vn 0.5898846298011613 -0.7926782248872472 -0.15393945340279047
vn 0.6959087002470814 -0.7125988942539293 -0.08896008559177136
vn 0.6859930242452893 -0.727378436973016 0.018280593904310437
vn 0.5898846298011613 -0.7926782248872472 -0.15393945340279047
vn 0.6859930242452893 -0.727378436973016 0.018280593904310437
vn 0.42684205777342804 -0.8697140681629696 0.24779688729918048
vn 0.10724497854769793 -0.6872800283064996 0.7184320964902118
vn 0.6859930242452893 -0.727378436973016 0.018280593904310437
vn -0.3708042701877077 -0.9286941043080809 0.0056083717755539
vn 0.10724497854769793 -0.6872800283064996 0.7184320964902118
vn -0.3708042701877077 -0.9286941043080809 0.0056083717755539
vn -0.30889127578092446 -0.30351744057574764 0.9013674849986437
vn 0.6859930242452893 -0.727378436973016 0.018280593904310437
vn 0.6959087002470814 -0.7125988942539293 -0.08896008559177136
vn 0.37455003819731864 -0.9099348033439824 -0.17813175615183177
vn 0.6859930242452893 -0.727378436973016 0.018280593904310437
vn 0.37455003819731864 -0.9099348033439824 -0.17813175615183177
vn -0.3708042701877077 -0.9286941043080809 0.0056083717755539
vn -0.5192754702340807 -0.8546068997218412 0.00018155163866932954
vn -0.7016280990886838 -0.7088009221445919 -0.07293328003165792
vn -0.3963402056354053 -0.9153115390680113 -0.07154877948527852
vn -0.5192754702340807 -0.8546068997218412 0.00018155163866932954
vn -0.3963402056354053 -0.9153115390680113 -0.07154877948527852
vn -0.3597198140315215 -0.9116240610035407 0.198854788206219
vn -0.3858529439789141 -0.6921383402121526 0.6099688710345563
vn -0.5192754702340807 -0.8546068997218412 0.00018155163866932954
vn -0.3597198140315215 -0.9116240610035407 0.198854788206219
vn -0.3858529439789141 -0.6921383402121526 0.6099688710345563
vn -0.3597198140315215 -0.9116240610035407 0.198854788206219
vn -0.2944919537835299 -0.5475636894333281 0.7832295290468312
vn -0.02920855887207813 -0.20675487513121135 0.9779566870256032
vn -0.32116104640612064 -0.15371095410564312 0.9344669736589188
vn -0.4433530391249013 -0.06415557604002124 0.8940481780987459
vn -0.02920855887207813 -0.20675487513121135 0.9779566870256032
vn -0.4433530391249013 -0.06415557604002124 0.8940481780987459
vn -0.48985690724407327 -0.14652155300024924 0.8594019111752468
vn -0.32116104640612064 -0.15371095410564312 0.9344669736589188
vn -0.02920855887207813 -0.20675487513121135 0.9779566870256032
vn -0.5795285394019082 -0.25517486170948356 0.7739718741467525
f 1/1/1 2/2/2 3/3/3
f 4/4/4 5/5/5 6/6/6
f 7/7/7 8/8/8 9/9/9
f 10/10/10 11/11/11 12/12/12
f 13/13/13 14/14/14 15/15/15
f 16/16/16 17/17/17 18/18/18
f 19/19/19 20/20/20 21/21/21
f 22/22/22 23/23/23 24/24/24
f 25/25/25 26/26/26 27/27/27
f 28/28/28 29/29/29 30/30/30
f 31/31/31 32/32/32 33/33/33
f 34/34/34 35/35/35 36/36/36
f 37/37/37 38/38/38 39/39/39
f 40/40/40 41/41/41 42/42/42
f 43/43/43 44/44/44 45/45/45
f 46/46/46 47/47/47 48/48/48
f 49/49/49 50/50/50 51/51/51
f 52/52/52 53/53/53 54/54/54
f 55/55/55 56/56/56 57/57/57
f 58/58/58 59/59/59 60/60/60
f 61/61/61 62/62/62 63/63/63
f 64/64/64 65/65/65 66/66/66
f 67/67/67 68/68/68 69/69/69
f 70/70/70 71/71/71 72/72/72
f 73/73/73 74/74/74 75/75/75
f 76/76/76 77/77/77 78/78/78
f 79/79/79 80/80/80 81/81/81
f 82/82/82 83/83/83 84/84/84
f 85/85/85 86/86/86 87/87/87
f 88/88/88 89/89/89 90/90/90
f 91/91/91 92/92/92 93/93/93
f 94/94/94 95/95/95 96/96/96
f 97/97/97 98/98/98 99/99/99
f 100/100/100 101/101/101 102/102/102
f 103/103/103 104/104/104 105/105/105
f 106/106/106 107/107/107 108/108/108
f 109/109/109 110/110/110 111/111/111
f 112/112/112 113/113/113 114/114/114
f 115/115/115 116/116/116 117/117/117
f 118/118/118 119/119/119 120/120/120
