mtllib ArcadaCompleta.mtl
o D21C_D
usemtl Esmalte
v 8.440699577331543 22.484983444213867 1.0832407779325925
v 8.595540046691895 20.211973190307617 0.9052777595152337
v 8.836799621582031 20.211973190307617 -0.0022054342753063476
v 8.652739524841309 22.484983444213867 -0.0022052342737829446
v 8.440699577331543 22.484983444213867 1.0832407779325925
v 8.836799621582031 20.211973190307617 -0.0022054342753063476
v 8.440699577331543 22.484983444213867 -1.1562592678437746
v 8.652739524841309 22.484983444213867 -0.0022052342737829446
v 8.836799621582031 20.211973190307617 -0.0022054342753063476
v 8.595540046691895 20.211973190307617 -0.7519912414918464
v 8.440699577331543 22.484983444213867 -1.1562592678437746
v 8.836799621582031 20.211973190307617 -0.0022054342753063476
v 8.212590217590332 18.136362075805664 0.7642137713064625
v 8.60558032989502 18.01127052307129 -0.002205624265112058
v 8.836799621582031 20.211973190307617 -0.0022054342753063476
v 8.595540046691895 20.211973190307617 0.9052777595152337
v 8.212590217590332 18.136362075805664 0.7642137713064625
v 8.836799621582031 20.211973190307617 -0.0022054342753063476
v 6.409870147705078 22.484983444213867 2.6861007518400637
v 8.059089660644531 22.484983444213867 2.033180744134375
v 7.778860092163086 24.411333084106445 2.3635707206358405
v 6.3660101890563965 24.411333084106445 3.0024707622160407
v 6.409870147705078 22.484983444213867 2.6861007518400637
v 7.778860092163086 24.411333084106445 2.3635707206358405
v 8.440699577331543 22.484983444213867 1.0832407779325925
v 8.162529945373535 24.341114044189453 1.0856807536711184
v 7.778860092163086 24.411333084106445 2.3635707206358405
v 8.059089660644531 22.484983444213867 2.033180744134375
v 8.440699577331543 22.484983444213867 1.0832407779325925
v 7.778860092163086 24.411333084106445 2.3635707206358405
v 8.440699577331543 22.484983444213867 -1.1562592678437746
v 8.162529945373535 24.341114044189453 -1.0900892906556638
v 8.326970100402832 24.10712242126465 -0.0022050943425657482
v 8.652739524841309 22.484983444213867 -0.0022052342737829446
v 8.440699577331543 22.484983444213867 -1.1562592678437746
v 8.326970100402832 24.10712242126465 -0.0022050943425657482
v 8.059089660644531 22.484983444213867 2.033180744134375
v 8.24878978729248 20.211973190307617 1.4885207719435174
v 8.595540046691895 20.211973190307617 0.9052777595152337
v 8.440699577331543 22.484983444213867 1.0832407779325925
v 8.059089660644531 22.484983444213867 2.033180744134375
v 8.595540046691895 20.211973190307617 0.9052777595152337
v 8.60558032989502 18.01127052307129 -0.002205624265112058
v 8.518389701843262 18.035125732421875 -0.5823712640176342
v 8.595540046691895 20.211973190307617 -0.7519912414918464
v 8.836799621582031 20.211973190307617 -0.0022054342753063476
v 8.60558032989502 18.01127052307129 -0.002205624265112058
v 8.595540046691895 20.211973190307617 -0.7519912414918464
v 8.518389701843262 18.035125732421875 -0.5823712640176342
v 8.296839714050293 20.211973190307617 -1.0528891973863166
v 8.595540046691895 20.211973190307617 -0.7519912414918464
v 7.146880149841309 20.211973190307617 2.0145807571043455
v 8.24878978729248 20.211973190307617 1.4885207719435174
v 8.059089660644531 22.484983444213867 2.033180744134375
v 8.162529945373535 24.341114044189453 -1.0900892906556638
v 8.440699577331543 22.484983444213867 -1.1562592678437746
v 7.912930011749268 22.484983444213867 -1.7281692915330447
v 7.473780155181885 24.411333084106445 -2.2193293266664056
v 8.162529945373535 24.341114044189453 -1.0900892906556638
v 7.912930011749268 22.484983444213867 -1.7281692915330447
v 8.162529945373535 24.341114044189453 1.0856807536711184
v 8.440699577331543 22.484983444213867 1.0832407779325925
v 8.652739524841309 22.484983444213867 -0.0022052342737829446
v 8.326970100402832 24.10712242126465 -0.0022050943425657482
v 8.162529945373535 24.341114044189453 1.0856807536711184
v 8.652739524841309 22.484983444213867 -0.0022052342737829446
v 8.296839714050293 20.211973190307617 -1.0528891973863166
v 7.912930011749268 22.484983444213867 -1.7281692915330447
v 8.440699577331543 22.484983444213867 -1.1562592678437746
v 8.595540046691895 20.211973190307617 -0.7519912414918464
v 8.296839714050293 20.211973190307617 -1.0528891973863166
v 8.440699577331543 22.484983444213867 -1.1562592678437746
v 8.059089660644531 22.484983444213867 2.033180744134375
v 6.409870147705078 22.484983444213867 2.6861007518400637
v 7.146880149841309 20.211973190307617 2.0145807571043455
v 8.518389701843262 18.035125732421875 -0.5823712640176342
v 7.325479984283447 19.120012283325195 -0.9637532525430246
v 7.088560104370117 20.211973190307617 -1.221179216421656
v 8.296839714050293 20.211973190307617 -1.0528891973863166
v 8.518389701843262 18.035125732421875 -0.5823712640176342
v 7.088560104370117 20.211973190307617 -1.221179216421656
v 8.595540046691895 20.211973190307617 0.9052777595152337
v 8.24878978729248 20.211973190307617 1.4885207719435174
v 8.212590217590332 18.136362075805664 0.7642137713064625
v 7.912930011749268 22.484983444213867 -1.7281692915330447
v 6.5684099197387695 22.484983444213867 -1.8381392650971926
v 6.000329971313477 24.411333084106445 -2.9408893280396966
v 7.473780155181885 24.411333084106445 -2.2193293266664056
v 7.912930011749268 22.484983444213867 -1.7281692915330447
v 6.000329971313477 24.411333084106445 -2.9408893280396966
v 7.325479984283447 18.86629295349121 1.490400702439733
v 8.212590217590332 18.136362075805664 0.7642137713064625
v 8.24878978729248 20.211973190307617 1.4885207719435174
v 7.146880149841309 20.211973190307617 2.0145807571043455
v 7.325479984283447 18.86629295349121 1.490400702439733
v 8.24878978729248 20.211973190307617 1.4885207719435174
v 8.296839714050293 20.211973190307617 -1.0528891973863166
v 7.088560104370117 20.211973190307617 -1.221179216421656
v 6.5684099197387695 22.484983444213867 -1.8381392650971926
v 7.912930011749268 22.484983444213867 -1.7281692915330447
v 8.296839714050293 20.211973190307617 -1.0528891973863166
v 6.5684099197387695 22.484983444213867 -1.8381392650971926
v 7.870500087738037 25.95846176147461 -1.1989592008958367
v 7.306600093841553 25.798852920532227 -2.386799304998925
v 7.155489921569824 27.162261962890625 -2.214319198645165
v 8.162529945373535 24.341114044189453 1.0856807536711184
v 8.326970100402832 24.10712242126465 -0.0022050943425657482
v 7.973499774932861 25.47251319885254 -0.0022049742019533197
v 7.870500087738037 25.95846176147461 1.1945507831205817
v 8.162529945373535 24.341114044189453 1.0856807536711184
v 7.973499774932861 25.47251319885254 -0.0022049742019533197
v 7.870500087738037 25.95846176147461 -1.1989592008958367
v 8.162529945373535 24.341114044189453 -1.0900892906556638
v 7.473780155181885 24.411333084106445 -2.2193293266664056
v 7.306600093841553 25.798852920532227 -2.386799304998925
v 7.870500087738037 25.95846176147461 -1.1989592008958367
v 7.473780155181885 24.411333084106445 -2.2193293266664056
v 7.006529808044434 27.162261962890625 2.2099106616606212
v 7.482269763946533 25.916702270507812 2.585960657082984
v 7.870500087738037 25.95846176147461 1.1945507831205817
v 8.326970100402832 24.10712242126465 -0.0022050943425657482
v 8.162529945373535 24.341114044189453 -1.0900892906556638
v 7.870500087738037 25.95846176147461 -1.1989592008958367
v 7.973499774932861 25.47251319885254 -0.0022049742019533197
v 8.326970100402832 24.10712242126465 -0.0022050943425657482
v 7.870500087738037 25.95846176147461 -1.1989592008958367
v 8.162529945373535 24.341114044189453 1.0856807536711184
v 7.870500087738037 25.95846176147461 1.1945507831205817
v 7.482269763946533 25.916702270507812 2.585960657082984
v 7.778860092163086 24.411333084106445 2.3635707206358405
v 8.162529945373535 24.341114044189453 1.0856807536711184
v 7.482269763946533 25.916702270507812 2.585960657082984
vt 0.3450559973716736 0.47663599252700806
vt 0.3704589903354645 0.2609989643096924
vt 0.5 0.2609989643096924
vt 0.5 0.47663599252700806
vt 0.3450559973716736 0.47663599252700806
vt 0.5 0.2609989643096924
vt 0.6647379994392395 0.47663599252700806
vt 0.5 0.47663599252700806
vt 0.5 0.2609989643096924
vt 0.6070299744606018 0.2609989643096924
vt 0.6647379994392395 0.47663599252700806
vt 0.5 0.2609989643096924
vt 0.3905960023403168 0.06408929824829102
vt 0.5 0.05222207307815552
vt 0.5 0.2609989643096924
vt 0.3704589903354645 0.2609989643096924
vt 0.3905960023403168 0.06408929824829102
vt 0.5 0.2609989643096924
vt 0.7167189717292786 0.47663599252700806
vt 0.9088829755783081 0.47663599252700806
vt 0.8762310147285461 0.6593850255012512
vt 0.7116090059280396 0.6593850255012512
vt 0.7167189717292786 0.47663599252700806
vt 0.8762310147285461 0.6593850255012512
vt 0.3450559973716736 0.47663599252700806
vt 0.34470701217651367 0.652724027633667
vt 0.1622920036315918 0.6593850255012512
vt 0.2094539999961853 0.47663599252700806
vt 0.3450559973716736 0.47663599252700806
vt 0.1622920036315918 0.6593850255012512
vt 0.6647379994392395 0.47663599252700806
vt 0.6552919745445251 0.652724027633667
vt 0.5 0.6305249929428101
vt 0.5 0.47663599252700806
vt 0.6647379994392395 0.47663599252700806
vt 0.5 0.6305249929428101
vt 0.2094539999961853 0.47663599252700806
vt 0.28720301389694214 0.2609989643096924
vt 0.3704589903354645 0.2609989643096924
vt 0.3450559973716736 0.47663599252700806
vt 0.2094539999961853 0.47663599252700806
vt 0.3704589903354645 0.2609989643096924
vt 0.5 0.05222207307815552
vt 0.582817018032074 0.05448508262634277
vt 0.6070299744606018 0.2609989643096924
vt 0.5 0.2609989643096924
vt 0.5 0.05222207307815552
vt 0.6070299744606018 0.2609989643096924
vt 0.03760020062327385 0.05448508262634277
vt 0.0634147971868515 0.2609989643096924
vt 0.028610799461603165 0.2609989643096924
vt 0.802594006061554 0.2609989643096924
vt 0.9309870004653931 0.2609989643096924
vt 0.9088829755783081 0.47663599252700806
vt 0.07906419783830643 0.652724027633667
vt 0.04665239900350571 0.47663599252700806
vt 0.10814700275659561 0.47663599252700806
vt 0.8164880275726318 0.6593850255012512
vt 0.6552919745445251 0.652724027633667
vt 0.7463769912719727 0.47663599252700806
vt 0.34470701217651367 0.652724027633667
vt 0.3450559973716736 0.47663599252700806
vt 0.5 0.47663599252700806
vt 0.5 0.6305249929428101
vt 0.34470701217651367 0.652724027633667
vt 0.5 0.47663599252700806
vt 0.0634147971868515 0.2609989643096924
vt 0.10814700275659561 0.47663599252700806
vt 0.04665239900350571 0.47663599252700806
vt 0.028610799461603165 0.2609989643096924
vt 0.0634147971868515 0.2609989643096924
vt 0.04665239900350571 0.47663599252700806
vt 0.9088829755783081 0.47663599252700806
vt 0.7167189717292786 0.47663599252700806
vt 0.802594006061554 0.2609989643096924
vt 0.03760020062327385 0.05448508262634277
vt 0.176596000790596 0.1574069857597351
vt 0.20420099794864655 0.2609989643096924
vt 0.0634147971868515 0.2609989643096924
vt 0.03760020062327385 0.05448508262634277
vt 0.20420099794864655 0.2609989643096924
vt 0.3704589903354645 0.2609989643096924
vt 0.28720301389694214 0.2609989643096924
vt 0.3905960023403168 0.06408929824829102
vt 0.10814700275659561 0.47663599252700806
vt 0.2648079991340637 0.47663599252700806
vt 0.3309989869594574 0.6593850255012512
vt 0.15931600332260132 0.6593850255012512
vt 0.10814700275659561 0.47663599252700806
vt 0.3309989869594574 0.6593850255012512
vt 0.8234040141105652 0.13333702087402344
vt 0.9267690181732178 0.06408929824829102
vt 0.9309870004653931 0.2609989643096924
vt 0.802594006061554 0.2609989643096924
vt 0.8234040141105652 0.13333702087402344
vt 0.9309870004653931 0.2609989643096924
vt 0.0634147971868515 0.2609989643096924
vt 0.20420099794864655 0.2609989643096924
vt 0.2648079991340637 0.47663599252700806
vt 0.10814700275659561 0.47663599252700806
vt 0.0634147971868515 0.2609989643096924
vt 0.2648079991340637 0.47663599252700806
vt 0.6708329916000366 0.8061590194702148
vt 0.8403940200805664 0.7910169959068298
vt 0.8157730102539062 0.9203609824180603
vt 0.34470701217651367 0.652724027633667
vt 0.5 0.6305249929428101
vt 0.5 0.7600579857826233
vt 0.3291659951210022 0.8061590194702148
vt 0.34470701217651367 0.652724027633667
vt 0.5 0.7600579857826233
vt 0.6708329916000366 0.8061590194702148
vt 0.6552919745445251 0.652724027633667
vt 0.8164880275726318 0.6593850255012512
vt 0.8403940200805664 0.7910169959068298
vt 0.6708329916000366 0.8061590194702148
vt 0.8164880275726318 0.6593850255012512
vt 0.18422700464725494 0.9203609824180603
vt 0.13054700195789337 0.8021969795227051
vt 0.3291659951210022 0.8061590194702148
vt 0.5 0.6305249929428101
vt 0.6552919745445251 0.652724027633667
vt 0.6708329916000366 0.8061590194702148
vt 0.5 0.7600579857826233
vt 0.5 0.6305249929428101
vt 0.6708329916000366 0.8061590194702148
vt 0.34470701217651367 0.652724027633667
vt 0.3291659951210022 0.8061590194702148
vt 0.13054700195789337 0.8021969795227051
vt 0.1622920036315918 0.6593850255012512
vt 0.34470701217651367 0.652724027633667
vt 0.13054700195789337 0.8021969795227051
vn 0.9572555423615977 0.08697765524777853 0.2758563287394402
vn 0.9280155977864781 -0.05962994353125303 0.36773811347134694
vn 0.9980195131665311 -0.014446951401125898 0.061223663187150695
vn 0.990842406261329 0.1331942087204782 0.02215014035136789
vn 0.9572555423615977 0.08697765524777853 0.2758563287394402
vn 0.9980195131665311 -0.014446951401125898 0.061223663187150695
vn 0.9270215332099768 0.07425007730111344 -0.3675840080659147
vn 0.990842406261329 0.1331942087204782 0.02215014035136789
vn 0.9980195131665311 -0.014446951401125898 0.061223663187150695
vn 0.9149564656617533 -0.05570661378749142 -0.3996891781423209
vn 0.9270215332099768 0.07425007730111344 -0.3675840080659147
vn 0.9980195131665311 -0.014446951401125898 0.061223663187150695
vn 0.8043015702183229 -0.2094550600381871 0.5560823338038526
vn 0.9953565286945111 -0.08882856091839683 0.03707920644215086
vn 0.9980195131665311 -0.014446951401125898 0.061223663187150695
vn 0.9280155977864781 -0.05962994353125303 0.36773811347134694
vn 0.8043015702183229 -0.2094550600381871 0.5560823338038526
vn 0.9980195131665311 -0.014446951401125898 0.061223663187150695
vn 0.3773470910554121 -0.13366230590954972 0.9163752292870867
vn 0.6138905719875677 -0.0894044911970499 0.7843119293868822
vn 0.7370965170647048 0.0006396381963046499 0.6757871820285282
vn 0.40804172635620445 -0.13890258794382454 0.9023347608369947
vn 0.3773470910554121 -0.13366230590954972 0.9163752292870867
vn 0.7370965170647048 0.0006396381963046499 0.6757871820285282
vn 0.9572555423615977 0.08697765524777853 0.2758563287394402
vn 0.9677469417338574 0.16910960274760178 0.18672921309563323
vn 0.7370965170647048 0.0006396381963046499 0.6757871820285282
vn 0.6138905719875677 -0.0894044911970499 0.7843119293868822
vn 0.9572555423615977 0.08697765524777853 0.2758563287394402
vn 0.7370965170647048 0.0006396381963046499 0.6757871820285282
vn 0.9270215332099768 0.07425007730111344 -0.3675840080659147
vn 0.9102887992652134 0.12631461528218366 -0.39423206350880424
vn 0.9790029108162822 0.2000993255855071 -0.03890450505367895
vn 0.990842406261329 0.1331942087204782 0.02215014035136789
vn 0.9270215332099768 0.07425007730111344 -0.3675840080659147
vn 0.9790029108162822 0.2000993255855071 -0.03890450505367895
vn 0.6138905719875677 -0.0894044911970499 0.7843119293868822
vn 0.5789725238302428 -0.21405657611439216 0.7867468454794225
vn 0.9280155977864781 -0.05962994353125303 0.36773811347134694
vn 0.9572555423615977 0.08697765524777853 0.2758563287394402
vn 0.6138905719875677 -0.0894044911970499 0.7843119293868822
vn 0.9280155977864781 -0.05962994353125303 0.36773811347134694
vn 0.9953565286945111 -0.08882856091839683 0.03707920644215086
vn 0.46497113035307097 -0.16952887368050976 -0.8689429261619
vn 0.9149564656617533 -0.05570661378749142 -0.3996891781423209
vn 0.9980195131665311 -0.014446951401125898 0.061223663187150695
vn 0.9953565286945111 -0.08882856091839683 0.03707920644215086
vn 0.9149564656617533 -0.05570661378749142 -0.3996891781423209
vn 0.46497113035307097 -0.16952887368050976 -0.8689429261619
vn 0.3087003739965483 -0.1985515002000184 -0.9302050208758891
vn 0.9149564656617533 -0.05570661378749142 -0.3996891781423209
vn 0.39403525497015623 -0.1872964376238698 0.8998090143436062
vn 0.5789725238302428 -0.21405657611439216 0.7867468454794225
vn 0.6138905719875677 -0.0894044911970499 0.7843119293868822
vn 0.9102887992652134 0.12631461528218366 -0.39423206350880424
vn 0.9270215332099768 0.07425007730111344 -0.3675840080659147
vn 0.4615234571191256 -0.1799821939693208 -0.8686785990127766
vn 0.7583522823320661 0.011846066494505111 -0.6517372834128444
vn 0.9102887992652134 0.12631461528218366 -0.39423206350880424
vn 0.4615234571191256 -0.1799821939693208 -0.8686785990127766
vn 0.9677469417338574 0.16910960274760178 0.18672921309563323
vn 0.9572555423615977 0.08697765524777853 0.2758563287394402
vn 0.990842406261329 0.1331942087204782 0.02215014035136789
vn 0.9790029108162822 0.2000993255855071 -0.03890450505367895
vn 0.9677469417338574 0.16910960274760178 0.18672921309563323
vn 0.990842406261329 0.1331942087204782 0.02215014035136789
vn 0.3087003739965483 -0.1985515002000184 -0.9302050208758891
vn 0.4615234571191256 -0.1799821939693208 -0.8686785990127766
vn 0.9270215332099768 0.07425007730111344 -0.3675840080659147
vn 0.9149564656617533 -0.05570661378749142 -0.3996891781423209
vn 0.3087003739965483 -0.1985515002000184 -0.9302050208758891
vn 0.9270215332099768 0.07425007730111344 -0.3675840080659147
vn 0.6138905719875677 -0.0894044911970499 0.7843119293868822
vn 0.3773470910554121 -0.13366230590954972 0.9163752292870867
vn 0.39403525497015623 -0.1872964376238698 0.8998090143436062
vn 0.46497113035307097 -0.16952887368050976 -0.8689429261619
vn 0.1274183989305807 -0.2013123930661259 -0.9712043410178711
vn 0.13356550908289874 -0.2119286260030611 -0.9681149271981507
vn 0.3087003739965483 -0.1985515002000184 -0.9302050208758891
vn 0.46497113035307097 -0.16952887368050976 -0.8689429261619
vn 0.13356550908289874 -0.2119286260030611 -0.9681149271981507
vn 0.9280155977864781 -0.05962994353125303 0.36773811347134694
vn 0.5789725238302428 -0.21405657611439216 0.7867468454794225
vn 0.8043015702183229 -0.2094550600381871 0.5560823338038526
vn 0.4615234571191256 -0.1799821939693208 -0.8686785990127766
vn 0.0945087057925069 -0.3295135773974406 -0.9394088070910163
vn 0.26933163120234915 -0.30719825301228565 -0.9127374791143845
vn 0.7583522823320661 0.011846066494505111 -0.6517372834128444
vn 0.4615234571191256 -0.1799821939693208 -0.8686785990127766
vn 0.26933163120234915 -0.30719825301228565 -0.9127374791143845
vn 0.4297790513828492 -0.2936909283893366 0.853835818863479
vn 0.8043015702183229 -0.2094550600381871 0.5560823338038526
vn 0.5789725238302428 -0.21405657611439216 0.7867468454794225
vn 0.39403525497015623 -0.1872964376238698 0.8998090143436062
vn 0.4297790513828492 -0.2936909283893366 0.853835818863479
vn 0.5789725238302428 -0.21405657611439216 0.7867468454794225
vn 0.3087003739965483 -0.1985515002000184 -0.9302050208758891
vn 0.13356550908289874 -0.2119286260030611 -0.9681149271981507
vn 0.0945087057925069 -0.3295135773974406 -0.9394088070910163
vn 0.4615234571191256 -0.1799821939693208 -0.8686785990127766
vn 0.3087003739965483 -0.1985515002000184 -0.9302050208758891
vn 0.0945087057925069 -0.3295135773974406 -0.9394088070910163
vn 0.9364048036115008 0.1504802074633833 -0.31702011124703694
vn 0.8929707125871951 0.10411675690537045 -0.43790753292564527
vn 0.8844669591120292 0.1537590541860053 -0.4405409759545018
vn 0.9677469417338574 0.16910960274760178 0.18672921309563323
vn 0.9790029108162822 0.2000993255855071 -0.03890450505367895
vn 0.9740308870686132 0.22312090846379354 0.038482349754424834
vn 0.950723763779928 0.24523776679339299 0.18969122995625634
vn 0.9677469417338574 0.16910960274760178 0.18672921309563323
vn 0.9740308870686132 0.22312090846379354 0.038482349754424834
vn 0.9364048036115008 0.1504802074633833 -0.31702011124703694
vn 0.9102887992652134 0.12631461528218366 -0.39423206350880424
vn 0.7583522823320661 0.011846066494505111 -0.6517372834128444
vn 0.8929707125871951 0.10411675690537045 -0.43790753292564527
vn 0.9364048036115008 0.1504802074633833 -0.31702011124703694
vn 0.7583522823320661 0.011846066494505111 -0.6517372834128444
vn 0.8746210786904619 0.411466323429395 0.25638532211074355
vn 0.9342413439801985 0.2328605328144045 0.2701279020306195
vn 0.950723763779928 0.24523776679339299 0.18969122995625634
vn 0.9790029108162822 0.2000993255855071 -0.03890450505367895
vn 0.9102887992652134 0.12631461528218366 -0.39423206350880424
vn 0.9364048036115008 0.1504802074633833 -0.31702011124703694
vn 0.9740308870686132 0.22312090846379354 0.038482349754424834
vn 0.9790029108162822 0.2000993255855071 -0.03890450505367895
vn 0.9364048036115008 0.1504802074633833 -0.31702011124703694
vn 0.9677469417338574 0.16910960274760178 0.18672921309563323
vn 0.950723763779928 0.24523776679339299 0.18969122995625634
vn 0.9342413439801985 0.2328605328144045 0.2701279020306195
vn 0.7370965170647048 0.0006396381963046499 0.6757871820285282
vn 0.9677469417338574 0.16910960274760178 0.18672921309563323
vn 0.9342413439801985 0.2328605328144045 0.2701279020306195
f 1/1/1 2/2/2 3/3/3
f 4/4/4 5/5/5 6/6/6
f 7/7/7 8/8/8 9/9/9
f 10/10/10 11/11/11 12/12/12
f 13/13/13 14/14/14 15/15/15
f 16/16/16 17/17/17 18/18/18
f 19/19/19 20/20/20 21/21/21
f 22/22/22 23/23/23 24/24/24
f 25/25/25 26/26/26 27/27/27
f 28/28/28 29/29/29 30/30/30
f 31/31/31 32/32/32 33/33/33
f 34/34/34 35/35/35 36/36/36
f 37/37/37 38/38/38 39/39/39
f 40/40/40 41/41/41 42/42/42
f 43/43/43 44/44/44 45/45/45
f 46/46/46 47/47/47 48/48/48
f 49/49/49 50/50/50 51/51/51
f 52/52/52 53/53/53 54/54/54
f 55/55/55 56/56/56 57/57/57
f 58/58/58 59/59/59 60/60/60
f 61/61/61 62/62/62 63/63/63
f 64/64/64 65/65/65 66/66/66
f 67/67/67 68/68/68 69/69/69
f 70/70/70 71/71/71 72/72/72
f 73/73/73 74/74/74 75/75/75
f 76/76/76 77/77/77 78/78/78
f 79/79/79 80/80/80 81/81/81
f 82/82/82 83/83/83 84/84/84
f 85/85/85 86/86/86 87/87/87
f 88/88/88 89/89/89 90/90/90
f 91/91/91 92/92/92 93/93/93
f 94/94/94 95/95/95 96/96/96
f 97/97/97 98/98/98 99/99/99
f 100/100/100 101/101/101 102/102/102
f 103/103/103 104/104/104 105/105/105
f 106/106/106 107/107/107 108/108/108
f 109/109/109 110/110/110 111/111/111
f 112/112/112 113/113/113 114/114/114
f 115/115/115 116/116/116 117/117/117
f 118/118/118 119/119/119 120/120/120
f 121/121/121 122/122/122 123/123/123
f 124/124/124 125/125/125 126/126/126
f 127/127/127 128/128/128 129/129/129
f 130/130/130 131/131/131 132/132/132
