mtllib ArcadaCompleta.mtl
o D21C_I
usemtl Esmalte
v 3.1288199424743652 18.86275291442871 1.2166207141508536
v 3.1771199703216553 17.513532638549805 0.37923073836464416
v 4.587200164794922 17.466066360473633 0.5171867317785693
v 4.587200164794922 18.83902359008789 1.5763107843031363
v 3.1288199424743652 18.86275291442871 1.2166207141508536
v 4.587200164794922 17.466066360473633 0.5171867317785693
v 3.1771199703216553 17.54852867126465 -0.002205664311982869
v 4.587200164794922 17.501062393188477 -0.0022056743237005567
v 4.587200164794922 17.466066360473633 0.5171867317785693
v 3.1771199703216553 17.513532638549805 0.37923073836464416
v 3.1771199703216553 17.54852867126465 -0.002205664311982869
v 4.587200164794922 17.466066360473633 0.5171867317785693
v 6.04557991027832 19.116472244262695 -0.91030225089889
v 5.997270107269287 18.02096939086914 -0.668200283564143
v 4.587200164794922 17.973506927490234 -0.6689402752290294
v 4.587200164794922 19.09273338317871 -0.9170522385011239
v 6.04557991027832 19.116472244262695 -0.91030225089889
v 4.587200164794922 17.973506927490234 -0.6689402752290294
v 5.997270107269287 17.54852867126465 -0.002205664311982869
v 4.587200164794922 17.501062393188477 -0.0022056743237005567
v 4.587200164794922 17.973506927490234 -0.6689402752290294
v 5.997270107269287 18.02096939086914 -0.668200283564143
v 5.997270107269287 17.54852867126465 -0.002205664311982869
v 4.587200164794922 17.973506927490234 -0.6689402752290294
v 1.8593900203704834 18.028047561645508 -0.7063242488275097
v 1.7992199659347534 17.555604934692383 -0.0022056643119828675
v 0.26301100850105286 17.56268310546875 -0.002205664311982866
v 0.5416560173034668 18.035125732421875 -0.5823712640176342
v 1.8593900203704834 18.028047561645508 -0.7063242488275097
v 0.26301100850105286 17.56268310546875 -0.002205664311982866
v 7.315000057220459 17.520610809326172 0.5545707649816943
v 7.375179767608643 17.555604934692383 -0.0022056643119828675
v 8.60558032989502 18.01127052307129 -0.002205624265112058
v 8.212590217590332 18.136362075805664 0.7642137713064625
v 7.315000057220459 17.520610809326172 0.5545707649816943
v 8.60558032989502 18.01127052307129 -0.002205624265112058
v 1.7992199659347534 17.555604934692383 -0.0022056643119828675
v 1.8593900203704834 17.520610809326172 0.5545707649816943
v 0.5416560173034668 17.527687072753906 0.592694730245061
v 0.26301100850105286 17.56268310546875 -0.002205664311982866
v 1.7992199659347534 17.555604934692383 -0.0022056643119828675
v 0.5416560173034668 17.527687072753906 0.592694730245061
v 1.8593900203704834 17.520610809326172 0.5545707649816943
v 1.8489099740982056 18.86629295349121 1.490400702439733
v 0.5416560173034668 17.527687072753906 0.592694730245061
v 7.375179767608643 17.555604934692383 -0.0022056643119828675
v 7.315000057220459 18.028047561645508 -0.7063242488275097
v 8.518389701843262 18.035125732421875 -0.5823712640176342
v 8.60558032989502 18.01127052307129 -0.002205624265112058
v 7.375179767608643 17.555604934692383 -0.0022056643119828675
v 8.518389701843262 18.035125732421875 -0.5823712640176342
v 7.315000057220459 18.028047561645508 -0.7063242488275097
v 7.325479984283447 19.120012283325195 -0.9637532525430246
v 8.518389701843262 18.035125732421875 -0.5823712640176342
v 4.587200164794922 17.501062393188477 -0.0022056743237005567
v 5.997270107269287 17.54852867126465 -0.002205664311982869
v 5.997270107269287 17.513532638549805 0.37923073836464416
v 4.587200164794922 17.466066360473633 0.5171867317785693
v 4.587200164794922 17.501062393188477 -0.0022056743237005567
v 5.997270107269287 17.513532638549805 0.37923073836464416
v 7.375179767608643 17.555604934692383 -0.0022056643119828675
v 7.315000057220459 17.520610809326172 0.5545707649816943
v 5.997270107269287 17.513532638549805 0.37923073836464416
v 5.997270107269287 17.54852867126465 -0.002205664311982869
v 7.375179767608643 17.555604934692383 -0.0022056643119828675
v 5.997270107269287 17.513532638549805 0.37923073836464416
v 7.325479984283447 18.86629295349121 1.490400702439733
v 6.04557991027832 18.86275291442871 1.2166207141508536
v 5.997270107269287 17.513532638549805 0.37923073836464416
v 7.315000057220459 17.520610809326172 0.5545707649816943
v 7.325479984283447 18.86629295349121 1.490400702439733
v 5.997270107269287 17.513532638549805 0.37923073836464416
v 4.587200164794922 17.501062393188477 -0.0022056743237005567
v 3.1771199703216553 17.54852867126465 -0.002205664311982869
v 3.1771199703216553 18.02096939086914 -0.668200283564143
v 4.587200164794922 17.973506927490234 -0.6689402752290294
v 4.587200164794922 17.501062393188477 -0.0022056743237005567
v 3.1771199703216553 18.02096939086914 -0.668200283564143
v 1.7992199659347534 17.555604934692383 -0.0022056643119828675
v 1.8593900203704834 18.028047561645508 -0.7063242488275097
v 3.1771199703216553 18.02096939086914 -0.668200283564143
v 3.1771199703216553 17.54852867126465 -0.002205664311982869
v 1.7992199659347534 17.555604934692383 -0.0022056643119828675
v 3.1771199703216553 18.02096939086914 -0.668200283564143
v 1.8489099740982056 19.120012283325195 -0.9637532525430246
v 3.1288199424743652 19.116472244262695 -0.91030225089889
v 3.1771199703216553 18.02096939086914 -0.668200283564143
v 1.8593900203704834 18.028047561645508 -0.7063242488275097
v 1.8489099740982056 19.120012283325195 -0.9637532525430246
v 3.1771199703216553 18.02096939086914 -0.668200283564143
v 1.8593900203704834 17.520610809326172 0.5545707649816943
v 1.7992199659347534 17.555604934692383 -0.0022056643119828675
v 3.1771199703216553 17.54852867126465 -0.002205664311982869
v 3.1771199703216553 17.513532638549805 0.37923073836464416
v 1.8593900203704834 17.520610809326172 0.5545707649816943
v 3.1771199703216553 17.54852867126465 -0.002205664311982869
v 7.315000057220459 18.028047561645508 -0.7063242488275097
v 7.375179767608643 17.555604934692383 -0.0022056643119828675
v 5.997270107269287 17.54852867126465 -0.002205664311982869
v 5.997270107269287 18.02096939086914 -0.668200283564143
v 7.315000057220459 18.028047561645508 -0.7063242488275097
v 5.997270107269287 17.54852867126465 -0.002205664311982869
v 0.5416560173034668 18.035125732421875 -0.5823712640176342
v 1.8489099740982056 19.120012283325195 -0.9637532525430246
v 1.8593900203704834 18.028047561645508 -0.7063242488275097
v 3.1288199424743652 18.86275291442871 1.2166207141508536
v 1.8489099740982056 18.86629295349121 1.490400702439733
v 1.8593900203704834 17.520610809326172 0.5545707649816943
v 3.1771199703216553 17.513532638549805 0.37923073836464416
v 3.1288199424743652 18.86275291442871 1.2166207141508536
v 1.8593900203704834 17.520610809326172 0.5545707649816943
v 6.04557991027832 19.116472244262695 -0.91030225089889
v 7.325479984283447 19.120012283325195 -0.9637532525430246
v 7.315000057220459 18.028047561645508 -0.7063242488275097
v 5.997270107269287 18.02096939086914 -0.668200283564143
v 6.04557991027832 19.116472244262695 -0.91030225089889
v 7.315000057220459 18.028047561645508 -0.7063242488275097
v 8.212590217590332 18.136362075805664 0.7642137713064625
v 7.325479984283447 18.86629295349121 1.490400702439733
v 7.315000057220459 17.520610809326172 0.5545707649816943
v 5.997270107269287 17.513532638549805 0.37923073836464416
v 6.04557991027832 18.86275291442871 1.2166207141508536
v 4.587200164794922 18.83902359008789 1.5763107843031363
v 4.587200164794922 17.466066360473633 0.5171867317785693
v 5.997270107269287 17.513532638549805 0.37923073836464416
v 4.587200164794922 18.83902359008789 1.5763107843031363
v 3.1771199703216553 18.02096939086914 -0.668200283564143
v 3.1288199424743652 19.116472244262695 -0.91030225089889
v 4.587200164794922 19.09273338317871 -0.9170522385011239
v 4.587200164794922 17.973506927490234 -0.6689402752290294
v 3.1771199703216553 18.02096939086914 -0.668200283564143
v 4.587200164794922 19.09273338317871 -0.9170522385011239
vt 0.33441799879074097 0.13300096988677979
vt 0.3400459885597229 0.005002498626708984
vt 0.5043460130691528 0.0004994869232177734
vt 0.5043449997901917 0.13075000047683716
vt 0.33441799879074097 0.13300096988677979
vt 0.5043460130691528 0.0004994869232177734
vt 0.6599540114402771 0.5
vt 0.49565398693084717 0.5
vt 0.49565398693084717 0.4258580207824707
vt 0.6599540114402771 0.4455510377883911
vt 0.6599540114402771 0.5
vt 0.49565398693084717 0.4258580207824707
vt 0.3257269859313965 0.15707099437713623
vt 0.3313559889793396 0.05314218997955322
vt 0.49565398693084717 0.04863941669464111
vt 0.49565398693084717 0.15481901168823242
vt 0.3257269859313965 0.15707099437713623
vt 0.49565398693084717 0.04863941669464111
vt 0.3313559889793396 0.008322536945343018
vt 0.49565398693084717 0.0038195252418518066
vt 0.49565398693084717 0.04863941669464111
vt 0.3313559889793396 0.05314218997955322
vt 0.3313559889793396 0.008322536945343018
vt 0.49565398693084717 0.04863941669464111
vt 0.813493013381958 0.05381369590759277
vt 0.8205040097236633 0.008993804454803467
vt 0.9994999766349792 0.009665369987487793
vt 0.9670330286026001 0.05448508262634277
vt 0.813493013381958 0.05381369590759277
vt 0.9994999766349792 0.009665369987487793
vt 0.17781700193881989 0.42052197456359863
vt 0.17080500721931458 0.5
vt 0.02744079940021038 0.5
vt 0.0732313022017479 0.39059603214263916
vt 0.17781700193881989 0.42052197456359863
vt 0.02744079940021038 0.5
vt 0.8205040097236633 0.5
vt 0.813493013381958 0.42052197456359863
vt 0.9670330286026001 0.4150800108909607
vt 0.9994999766349792 0.5
vt 0.8205040097236633 0.5
vt 0.9670330286026001 0.4150800108909607
vt 0.18650700151920319 0.00567394495010376
vt 0.18528500199317932 0.13333702087402344
vt 0.03296680003404617 0.00634533166885376
vt 0.17080500721931458 0.008993804454803467
vt 0.17781700193881989 0.05381369590759277
vt 0.03760020062327385 0.05448508262634277
vt 0.02744079940021038 0.5
vt 0.17080500721931458 0.5
vt 0.03760020062327385 0.582817018032074
vt 0.17781700193881989 0.05381369590759277
vt 0.176596000790596 0.1574069857597351
vt 0.03760020062327385 0.05448508262634277
vt 0.49565398693084717 0.5
vt 0.3313559889793396 0.5
vt 0.3313559889793396 0.4455510377883911
vt 0.49565398693084717 0.4258580207824707
vt 0.49565398693084717 0.5
vt 0.3313559889793396 0.4455510377883911
vt 0.17080500721931458 0.5
vt 0.17781700193881989 0.42052197456359863
vt 0.3313559889793396 0.4455510377883911
vt 0.3313559889793396 0.5
vt 0.17080500721931458 0.5
vt 0.3313559889793396 0.4455510377883911
vt 0.8234040141105652 0.13333702087402344
vt 0.6742730140686035 0.13300096988677979
vt 0.6686440110206604 0.005002498626708984
vt 0.8221830129623413 0.00567394495010376
vt 0.8234040141105652 0.13333702087402344
vt 0.6686440110206604 0.005002498626708984
vt 0.49565398693084717 0.0038195252418518066
vt 0.6599540114402771 0.008322536945343018
vt 0.6599540114402771 0.05314218997955322
vt 0.49565398693084717 0.04863941669464111
vt 0.49565398693084717 0.0038195252418518066
vt 0.6599540114402771 0.05314218997955322
vt 0.8205040097236633 0.008993804454803467
vt 0.813493013381958 0.05381369590759277
vt 0.6599540114402771 0.05314218997955322
vt 0.6599540114402771 0.008322536945343018
vt 0.8205040097236633 0.008993804454803467
vt 0.6599540114402771 0.05314218997955322
vt 0.8147150278091431 0.1574069857597351
vt 0.665582001209259 0.15707099437713623
vt 0.6599540114402771 0.05314218997955322
vt 0.813493013381958 0.05381369590759277
vt 0.8147150278091431 0.1574069857597351
vt 0.6599540114402771 0.05314218997955322
vt 0.813493013381958 0.42052197456359863
vt 0.8205040097236633 0.5
vt 0.6599540114402771 0.5
vt 0.6599540114402771 0.4455510377883911
vt 0.813493013381958 0.42052197456359863
vt 0.6599540114402771 0.5
vt 0.17781700193881989 0.05381369590759277
vt 0.17080500721931458 0.008993804454803467
vt 0.3313559889793396 0.008322536945343018
vt 0.3313559889793396 0.05314218997955322
vt 0.17781700193881989 0.05381369590759277
vt 0.3313559889793396 0.008322536945343018
vt 0.9670330286026001 0.05448508262634277
vt 0.8147150278091431 0.1574069857597351
vt 0.813493013381958 0.05381369590759277
vt 0.33441799879074097 0.13300096988677979
vt 0.18528500199317932 0.13333702087402344
vt 0.18650700151920319 0.00567394495010376
vt 0.3400459885597229 0.005002498626708984
vt 0.33441799879074097 0.13300096988677979
vt 0.18650700151920319 0.00567394495010376
vt 0.3257269859313965 0.15707099437713623
vt 0.176596000790596 0.1574069857597351
vt 0.17781700193881989 0.05381369590759277
vt 0.3313559889793396 0.05314218997955322
vt 0.3257269859313965 0.15707099437713623
vt 0.17781700193881989 0.05381369590759277
vt 0.9267690181732178 0.06408929824829102
vt 0.8234040141105652 0.13333702087402344
vt 0.8221830129623413 0.00567394495010376
vt 0.6686440110206604 0.005002498626708984
vt 0.6742730140686035 0.13300096988677979
vt 0.5043449997901917 0.13075000047683716
vt 0.5043460130691528 0.0004994869232177734
vt 0.6686440110206604 0.005002498626708984
vt 0.5043449997901917 0.13075000047683716
vt 0.6599540114402771 0.05314218997955322
vt 0.665582001209259 0.15707099437713623
vt 0.49565398693084717 0.15481901168823242
vt 0.49565398693084717 0.04863941669464111
vt 0.6599540114402771 0.05314218997955322
vt 0.49565398693084717 0.15481901168823242
vn -0.016665872381855303 -0.5613391465209184 0.8274180390110665
vn -0.0035506456018165045 -0.6800600174124828 0.7331478470491092
vn -0.061908187598232425 -0.736839513700652 0.6732272330778731
vn 0.030966608910504685 -0.5862979383672189 0.8095034259340307
vn -0.016665872381855303 -0.5613391465209184 0.8274180390110665
vn -0.061908187598232425 -0.736839513700652 0.6732272330778731
vn -0.018718059115462156 -0.9456302023176781 -0.3247047192875042
vn -0.003539405611584134 -0.9135618414678054 -0.4066844408406464
vn -0.061908187598232425 -0.736839513700652 0.6732272330778731
vn -0.0035506456018165045 -0.6800600174124828 0.7331478470491092
vn -0.018718059115462156 -0.9456302023176781 -0.3247047192875042
vn -0.061908187598232425 -0.736839513700652 0.6732272330778731
vn -0.011639218771572977 -0.2188606234996234 -0.9756867099985238
vn -0.0018398581807380714 -0.5011333959899243 -0.8653680918230579
vn 0.00575000016444224 -0.49753850975598984 -0.8674228316155265
vn -0.0024984720453279565 -0.21632714014488413 -0.976317738276927
vn -0.011639218771572977 -0.2188606234996234 -0.9756867099985238
vn 0.00575000016444224 -0.49753850975598984 -0.8674228316155265
vn 0.01383217060059951 -0.8707743340185308 -0.49148828090917934
vn -0.003539405611584134 -0.9135618414678054 -0.4066844408406464
vn 0.00575000016444224 -0.49753850975598984 -0.8674228316155265
vn -0.0018398581807380714 -0.5011333959899243 -0.8653680918230579
vn 0.01383217060059951 -0.8707743340185308 -0.49148828090917934
vn 0.00575000016444224 -0.49753850975598984 -0.8674228316155265
vn -0.025595001448734177 -0.5761128567764566 -0.8169693214299478
vn -0.001752116836095359 -0.9280672660911164 -0.3724084849956479
vn -0.023437866861440153 -0.8889359801599259 -0.4574314042281064
vn -0.08565478984741422 -0.458825053076373 -0.8843883918537483
vn -0.025595001448734177 -0.5761128567764566 -0.8169693214299478
vn -0.023437866861440153 -0.8889359801599259 -0.4574314042281064
vn 0.14255991187443934 -0.7859596394692067 0.6016179158334524
vn 0.1267075644383372 -0.9468249355324387 -0.29574944559220695
vn 0.403429585157144 -0.9080271961772809 0.11283253441432835
vn 0.3139386380407391 -0.682389655991123 0.6601415673485821
vn 0.14255991187443934 -0.7859596394692067 0.6016179158334524
vn 0.403429585157144 -0.9080271961772809 0.11283253441432835
vn -0.001752116836095359 -0.9280672660911164 -0.3724084849956479
vn 0.08221802641362996 -0.7303194805043017 0.678139847323968
vn 0.010555047565651225 -0.8644922228430854 0.5025353595665764
vn -0.023437866861440153 -0.8889359801599259 -0.4574314042281064
vn -0.001752116836095359 -0.9280672660911164 -0.3724084849956479
vn 0.010555047565651225 -0.8644922228430854 0.5025353595665764
vn 0.08221802641362996 -0.7303194805043017 0.678139847323968
vn 0.09584538817447541 -0.5678106807016842 0.8175602072304976
vn 0.010555047565651225 -0.8644922228430854 0.5025353595665764
vn 0.1267075644383372 -0.9468249355324387 -0.29574944559220695
vn 0.013520073539982757 -0.519285777448686 -0.8544937032834047
vn 0.1697764113087994 -0.6807375012137411 -0.712581521374486
vn 0.403429585157144 -0.9080271961772809 0.11283253441432835
vn 0.1267075644383372 -0.9468249355324387 -0.29574944559220695
vn 0.1697764113087994 -0.6807375012137411 -0.712581521374486
vn 0.013520073539982757 -0.519285777448686 -0.8544937032834047
vn 0.028601850726331177 -0.22962449018979442 -0.9728589453975872
vn 0.1697764113087994 -0.6807375012137411 -0.712581521374486
vn -0.003539405611584134 -0.9135618414678054 -0.4066844408406464
vn 0.01383217060059951 -0.8707743340185308 -0.49148828090917934
vn 0.019120055700462397 -0.7236290987819346 0.6899241631266849
vn -0.061908187598232425 -0.736839513700652 0.6732272330778731
vn -0.003539405611584134 -0.9135618414678054 -0.4066844408406464
vn 0.019120055700462397 -0.7236290987819346 0.6899241631266849
vn 0.1267075644383372 -0.9468249355324387 -0.29574944559220695
vn 0.14255991187443934 -0.7859596394692067 0.6016179158334524
vn 0.019120055700462397 -0.7236290987819346 0.6899241631266849
vn 0.01383217060059951 -0.8707743340185308 -0.49148828090917934
vn 0.1267075644383372 -0.9468249355324387 -0.29574944559220695
vn 0.019120055700462397 -0.7236290987819346 0.6899241631266849
vn -0.053341198243611755 -0.5531128806072105 0.8313969316014641
vn 0.03188432859749451 -0.5278927264380955 0.8487123534882952
vn 0.019120055700462397 -0.7236290987819346 0.6899241631266849
vn 0.14255991187443934 -0.7859596394692067 0.6016179158334524
vn -0.053341198243611755 -0.5531128806072105 0.8313969316014641
vn 0.019120055700462397 -0.7236290987819346 0.6899241631266849
vn -0.003539405611584134 -0.9135618414678054 -0.4066844408406464
vn -0.018718059115462156 -0.9456302023176781 -0.3247047192875042
vn 0.0016459750465038672 -0.5073727006701294 -0.8617251495580512
vn 0.00575000016444224 -0.49753850975598984 -0.8674228316155265
vn -0.003539405611584134 -0.9135618414678054 -0.4066844408406464
vn 0.0016459750465038672 -0.5073727006701294 -0.8617251495580512
vn -0.001752116836095359 -0.9280672660911164 -0.3724084849956479
vn -0.025595001448734177 -0.5761128567764566 -0.8169693214299478
vn 0.0016459750465038672 -0.5073727006701294 -0.8617251495580512
vn -0.018718059115462156 -0.9456302023176781 -0.3247047192875042
vn -0.001752116836095359 -0.9280672660911164 -0.3724084849956479
vn 0.0016459750465038672 -0.5073727006701294 -0.8617251495580512
vn -0.009031647170615827 -0.2246379923339711 -0.9744004319321439
vn 0.014510147169680954 -0.21515679205432847 -0.9764717151366978
vn 0.0016459750465038672 -0.5073727006701294 -0.8617251495580512
vn -0.025595001448734177 -0.5761128567764566 -0.8169693214299478
vn -0.009031647170615827 -0.2246379923339711 -0.9744004319321439
vn 0.0016459750465038672 -0.5073727006701294 -0.8617251495580512
vn 0.08221802641362996 -0.7303194805043017 0.678139847323968
vn -0.001752116836095359 -0.9280672660911164 -0.3724084849956479
vn -0.018718059115462156 -0.9456302023176781 -0.3247047192875042
vn -0.0035506456018165045 -0.6800600174124828 0.7331478470491092
vn 0.08221802641362996 -0.7303194805043017 0.678139847323968
vn -0.018718059115462156 -0.9456302023176781 -0.3247047192875042
vn 0.013520073539982757 -0.519285777448686 -0.8544937032834047
vn 0.1267075644383372 -0.9468249355324387 -0.29574944559220695
vn 0.01383217060059951 -0.8707743340185308 -0.49148828090917934
vn -0.0018398581807380714 -0.5011333959899243 -0.8653680918230579
vn 0.013520073539982757 -0.519285777448686 -0.8544937032834047
vn 0.01383217060059951 -0.8707743340185308 -0.49148828090917934
vn -0.08565478984741422 -0.458825053076373 -0.8843883918537483
vn -0.009031647170615827 -0.2246379923339711 -0.9744004319321439
vn -0.025595001448734177 -0.5761128567764566 -0.8169693214299478
vn -0.016665872381855303 -0.5613391465209184 0.8274180390110665
vn 0.09584538817447541 -0.5678106807016842 0.8175602072304976
vn 0.08221802641362996 -0.7303194805043017 0.678139847323968
vn -0.0035506456018165045 -0.6800600174124828 0.7331478470491092
vn -0.016665872381855303 -0.5613391465209184 0.8274180390110665
vn 0.08221802641362996 -0.7303194805043017 0.678139847323968
vn -0.011639218771572977 -0.2188606234996234 -0.9756867099985238
vn 0.028601850726331177 -0.22962449018979442 -0.9728589453975872
vn 0.013520073539982757 -0.519285777448686 -0.8544937032834047
vn -0.0018398581807380714 -0.5011333959899243 -0.8653680918230579
vn -0.011639218771572977 -0.2188606234996234 -0.9756867099985238
vn 0.013520073539982757 -0.519285777448686 -0.8544937032834047
vn 0.3139386380407391 -0.682389655991123 0.6601415673485821
vn -0.053341198243611755 -0.5531128806072105 0.8313969316014641
vn 0.14255991187443934 -0.7859596394692067 0.6016179158334524
vn 0.019120055700462397 -0.7236290987819346 0.6899241631266849
vn 0.03188432859749451 -0.5278927264380955 0.8487123534882952
vn 0.030966608910504685 -0.5862979383672189 0.8095034259340307
vn -0.061908187598232425 -0.736839513700652 0.6732272330778731
vn 0.019120055700462397 -0.7236290987819346 0.6899241631266849
vn 0.030966608910504685 -0.5862979383672189 0.8095034259340307
vn 0.0016459750465038672 -0.5073727006701294 -0.8617251495580512
vn 0.014510147169680954 -0.21515679205432847 -0.9764717151366978
vn -0.0024984720453279565 -0.21632714014488413 -0.976317738276927
vn 0.00575000016444224 -0.49753850975598984 -0.8674228316155265
vn 0.0016459750465038672 -0.5073727006701294 -0.8617251495580512
vn -0.0024984720453279565 -0.21632714014488413 -0.976317738276927
f 1/1/1 2/2/2 3/3/3
f 4/4/4 5/5/5 6/6/6
f 7/7/7 8/8/8 9/9/9
f 10/10/10 11/11/11 12/12/12
f 13/13/13 14/14/14 15/15/15
f 16/16/16 17/17/17 18/18/18
f 19/19/19 20/20/20 21/21/21
f 22/22/22 23/23/23 24/24/24
f 25/25/25 26/26/26 27/27/27
f 28/28/28 29/29/29 30/30/30
f 31/31/31 32/32/32 33/33/33
f 34/34/34 35/35/35 36/36/36
f 37/37/37 38/38/38 39/39/39
f 40/40/40 41/41/41 42/42/42
f 43/43/43 44/44/44 45/45/45
f 46/46/46 47/47/47 48/48/48
f 49/49/49 50/50/50 51/51/51
f 52/52/52 53/53/53 54/54/54
f 55/55/55 56/56/56 57/57/57
f 58/58/58 59/59/59 60/60/60
f 61/61/61 62/62/62 63/63/63
f 64/64/64 65/65/65 66/66/66
f 67/67/67 68/68/68 69/69/69
f 70/70/70 71/71/71 72/72/72
f 73/73/73 74/74/74 75/75/75
f 76/76/76 77/77/77 78/78/78
f 79/79/79 80/80/80 81/81/81
f 82/82/82 83/83/83 84/84/84
f 85/85/85 86/86/86 87/87/87
f 88/88/88 89/89/89 90/90/90
f 91/91/91 92/92/92 93/93/93
f 94/94/94 95/95/95 96/96/96
f 97/97/97 98/98/98 99/99/99
f 100/100/100 101/101/101 102/102/102
f 103/103/103 104/104/104 105/105/105
f 106/106/106 107/107/107 108/108/108
f 109/109/109 110/110/110 111/111/111
f 112/112/112 113/113/113 114/114/114
f 115/115/115 116/116/116 117/117/117
f 118/118/118 119/119/119 120/120/120
f 121/121/121 122/122/122 123/123/123
f 124/124/124 125/125/125 126/126/126
f 127/127/127 128/128/128 129/129/129
f 130/130/130 131/131/131 132/132/132
