mtllib ArcadaCompleta.mtl
o D22C_CV
usemtl Esmalte
v 13.90779972076416 21.727752685546875 1.851940781556555
v 12.321999549865723 21.727752685546875 1.95335069366593
v 12.321999549865723 19.885133743286133 1.3529407090773065
v 13.477800369262695 19.885133743286133 1.2734307355513055
v 13.90779972076416 21.727752685546875 1.851940781556555
v 12.321999549865723 19.885133743286133 1.3529407090773065
v 10.736300468444824 21.727752685546875 1.851940781556555
v 11.166199684143066 19.885133743286133 1.2734307355513055
v 12.321999549865723 19.885133743286133 1.3529407090773065
v 12.321999549865723 21.727752685546875 1.95335069366593
v 10.736300468444824 21.727752685546875 1.851940781556555
v 12.321999549865723 19.885133743286133 1.3529407090773065
v 11.203200340270996 18.97051239013672 0.9085397429098563
v 12.321999549865723 18.950252532958984 0.9485887593855338
v 12.321999549865723 19.885133743286133 1.3529407090773065
v 11.166199684143066 19.885133743286133 1.2734307355513055
v 11.203200340270996 18.97051239013672 0.9085397429098563
v 12.321999549865723 19.885133743286133 1.3529407090773065
v 10.736300468444824 21.727752685546875 1.851940781556555
v 12.321999549865723 21.727752685546875 1.95335069366593
v 12.321999549865723 23.049442291259766 2.5132606334318606
v 10.98330020904541 23.049442291259766 2.280400783502051
v 10.736300468444824 21.727752685546875 1.851940781556555
v 12.321999549865723 23.049442291259766 2.5132606334318606
v 13.90779972076416 21.727752685546875 1.851940781556555
v 13.660699844360352 23.049442291259766 2.280400783502051
v 12.321999549865723 23.049442291259766 2.5132606334318606
v 12.321999549865723 21.727752685546875 1.95335069366593
v 13.90779972076416 21.727752685546875 1.851940781556555
v 12.321999549865723 23.049442291259766 2.5132606334318606
v 13.440799713134766 18.97051239013672 0.9085397429098563
v 14.422599792480469 18.983213424682617 0.8124577707876639
v 14.245100021362305 19.885133743286133 1.1885106868376214
v 13.477800369262695 19.885133743286133 1.2734307355513055
v 13.440799713134766 18.97051239013672 0.9085397429098563
v 14.245100021362305 19.885133743286133 1.1885106868376214
v 11.166199684143066 19.885133743286133 1.2734307355513055
v 10.736300468444824 21.727752685546875 1.851940781556555
v 10.398900032043457 19.885133743286133 1.1885106868376214
v 10.221400260925293 18.973533630371094 0.8810657567610221
v 11.203200340270996 18.97051239013672 0.9085397429098563
v 11.166199684143066 19.885133743286133 1.2734307355513055
v 10.398900032043457 19.885133743286133 1.1885106868376214
v 10.221400260925293 18.973533630371094 0.8810657567610221
v 11.166199684143066 19.885133743286133 1.2734307355513055
v 14.245100021362305 19.885133743286133 1.1885106868376214
v 13.90779972076416 21.727752685546875 1.851940781556555
v 13.477800369262695 19.885133743286133 1.2734307355513055
v 12.321999549865723 18.950252532958984 0.9485887593855338
v 13.440799713134766 18.97051239013672 0.9085397429098563
v 13.477800369262695 19.885133743286133 1.2734307355513055
v 12.321999549865723 19.885133743286133 1.3529407090773065
v 12.321999549865723 18.950252532958984 0.9485887593855338
v 13.477800369262695 19.885133743286133 1.2734307355513055
vt 0.7455099821090698 0.47488999366760254
vt 0.5049309730529785 0.47488999366760254
vt 0.5049309730529785 0.26941901445388794
vt 0.6802759766578674 0.26941901445388794
vt 0.7455099821090698 0.47488999366760254
vt 0.5049309730529785 0.26941901445388794
vt 0.264367014169693 0.47488999366760254
vt 0.32958701252937317 0.26941901445388794
vt 0.5049309730529785 0.26941901445388794
vt 0.5049309730529785 0.47488999366760254
vt 0.264367014169693 0.47488999366760254
vt 0.5049309730529785 0.26941901445388794
vt 0.3352000117301941 0.16742998361587524
vt 0.5049309730529785 0.16517102718353271
vt 0.5049309730529785 0.26941901445388794
vt 0.32958701252937317 0.26941901445388794
vt 0.3352000117301941 0.16742998361587524
vt 0.5049309730529785 0.26941901445388794
vt 0.264367014169693 0.47488999366760254
vt 0.5049309730529785 0.47488999366760254
vt 0.5049309730529785 0.6222720146179199
vt 0.3018389940261841 0.6222720146179199
vt 0.264367014169693 0.47488999366760254
vt 0.5049309730529785 0.6222720146179199
vt 0.7455099821090698 0.47488999366760254
vt 0.7080230116844177 0.6222720146179199
vt 0.5049309730529785 0.6222720146179199
vt 0.5049309730529785 0.47488999366760254
vt 0.7455099821090698 0.47488999366760254
vt 0.5049309730529785 0.6222720146179199
vt 0.6746619939804077 0.16742998361587524
vt 0.8236100077629089 0.1688460111618042
vt 0.7966809868812561 0.26941901445388794
vt 0.6802759766578674 0.26941901445388794
vt 0.6746619939804077 0.16742998361587524
vt 0.7966809868812561 0.26941901445388794
vt 0.32958701252937317 0.26941901445388794
vt 0.264367014169693 0.47488999366760254
vt 0.2131810039281845 0.26941901445388794
vt 0.18625299632549286 0.16776597499847412
vt 0.3352000117301941 0.16742998361587524
vt 0.32958701252937317 0.26941901445388794
vt 0.2131810039281845 0.26941901445388794
vt 0.18625299632549286 0.16776597499847412
vt 0.32958701252937317 0.26941901445388794
vt 0.7966809868812561 0.26941901445388794
vt 0.7455099821090698 0.47488999366760254
vt 0.6802759766578674 0.26941901445388794
vt 0.5049309730529785 0.16517102718353271
vt 0.6746619939804077 0.16742998361587524
vt 0.6802759766578674 0.26941901445388794
vt 0.5049309730529785 0.26941901445388794
vt 0.5049309730529785 0.16517102718353271
vt 0.6802759766578674 0.26941901445388794
vn 0.08500404247560263 -0.3229306781122939 0.9425975227512218
vn -1.3940610381895338e-9 -0.34427388252943525 0.9388692634270804
vn -0.0031269099948719598 -0.33059395285631454 0.9437679061976629
vn 0.07354024423627177 -0.34535960586598974 0.9355846167577563
vn 0.08500404247560263 -0.3229306781122939 0.9425975227512218
vn -0.0031269099948719598 -0.33059395285631454 0.9437679061976629
vn -0.0850066801588356 -0.3229304999739175 0.9425973459091476
vn -0.07273511731795664 -0.3320022844739292 0.9404701408406516
vn -0.0031269099948719598 -0.33059395285631454 0.9437679061976629
vn -1.3940610381895338e-9 -0.34427388252943525 0.9388692634270804
vn -0.0850066801588356 -0.3229304999739175 0.9425973459091476
vn -0.0031269099948719598 -0.33059395285631454 0.9437679061976629
vn -0.044503621832083264 -0.3805468068322399 0.9236901836945183
vn 0.021270318798666445 -0.3888539485282981 0.9210538422112765
vn -0.0031269099948719598 -0.33059395285631454 0.9437679061976629
vn -0.07273511731795664 -0.3320022844739292 0.9404701408406516
vn -0.044503621832083264 -0.3805468068322399 0.9236901836945183
vn -0.0031269099948719598 -0.33059395285631454 0.9437679061976629
vn -0.0850066801588356 -0.3229304999739175 0.9425973459091476
vn -1.3940610381895338e-9 -0.34427388252943525 0.9388692634270804
vn -3.62357124708478e-9 -0.34139850982776393 0.9399186440790405
vn -0.16470635023252422 -0.27617782498501814 0.9468883921453605
vn -0.0850066801588356 -0.3229304999739175 0.9425973459091476
vn -3.62357124708478e-9 -0.34139850982776393 0.9399186440790405
vn 0.08500404247560263 -0.3229306781122939 0.9425975227512218
vn 0.16470679578373346 -0.2761663486032162 0.9468916618715271
vn -3.62357124708478e-9 -0.34139850982776393 0.9399186440790405
vn -1.3940610381895338e-9 -0.34427388252943525 0.9388692634270804
vn 0.08500404247560263 -0.3229306781122939 0.9425975227512218
vn -3.62357124708478e-9 -0.34139850982776393 0.9399186440790405
vn 0.07553882325049562 -0.37038085713884633 0.925803384551506
vn 0.09530169647361436 -0.36704829838054565 0.9253070481225121
vn 0.1010984972330745 -0.34644033917977574 0.9326082699859657
vn 0.07354024423627177 -0.34535960586598974 0.9355846167577563
vn 0.07553882325049562 -0.37038085713884633 0.925803384551506
vn 0.1010984972330745 -0.34644033917977574 0.9326082699859657
vn -0.07273511731795664 -0.3320022844739292 0.9404701408406516
vn -0.0850066801588356 -0.3229304999739175 0.9425973459091476
vn -0.10446750329311791 -0.3132066415668539 0.943921681303123
vn -0.0608751053042693 -0.340718530300558 0.938192466748706
vn -0.044503621832083264 -0.3805468068322399 0.9236901836945183
vn -0.07273511731795664 -0.3320022844739292 0.9404701408406516
vn -0.10446750329311791 -0.3132066415668539 0.943921681303123
vn -0.0608751053042693 -0.340718530300558 0.938192466748706
vn -0.07273511731795664 -0.3320022844739292 0.9404701408406516
vn 0.1010984972330745 -0.34644033917977574 0.9326082699859657
vn 0.08500404247560263 -0.3229306781122939 0.9425975227512218
vn 0.07354024423627177 -0.34535960586598974 0.9355846167577563
vn 0.021270318798666445 -0.3888539485282981 0.9210538422112765
vn 0.07553882325049562 -0.37038085713884633 0.925803384551506
vn 0.07354024423627177 -0.34535960586598974 0.9355846167577563
vn -0.0031269099948719598 -0.33059395285631454 0.9437679061976629
vn 0.021270318798666445 -0.3888539485282981 0.9210538422112765
vn 0.07354024423627177 -0.34535960586598974 0.9355846167577563
f 1/1/1 2/2/2 3/3/3
f 4/4/4 5/5/5 6/6/6
f 7/7/7 8/8/8 9/9/9
f 10/10/10 11/11/11 12/12/12
f 13/13/13 14/14/14 15/15/15
f 16/16/16 17/17/17 18/18/18
f 19/19/19 20/20/20 21/21/21
f 22/22/22 23/23/23 24/24/24
f 25/25/25 26/26/26 27/27/27
f 28/28/28 29/29/29 30/30/30
f 31/31/31 32/32/32 33/33/33
f 34/34/34 35/35/35 36/36/36
f 37/37/37 38/38/38 39/39/39
f 40/40/40 41/41/41 42/42/42
f 43/43/43 44/44/44 45/45/45
f 46/46/46 47/47/47 48/48/48
f 49/49/49 50/50/50 51/51/51
f 52/52/52 53/53/53 54/54/54
