mtllib ArcadaCompleta.mtl
o D22C_L
usemtl Esmalte
v 13.440799713134766 18.901222229003906 -0.7149882607827707
v 12.321999549865723 18.880962371826172 -0.7202942662606759
v 12.321999549865723 19.885133743286133 -0.9153102331529182
v 13.477800369262695 19.885133743286133 -0.9052802615533393
v 13.440799713134766 18.901222229003906 -0.7149882607827707
v 12.321999549865723 19.885133743286133 -0.9153102331529182
v 12.321999549865723 23.293163299560547 -1.4516791992555176
v 11.766500473022461 23.049442291259766 -2.247699230230859
v 12.321999549865723 23.724082946777344 -1.9524792127976927
v 11.766500473022461 23.049442291259766 -2.247699230230859
v 12.321999549865723 23.799163818359375 -2.5578591518769773
v 12.321999549865723 23.724082946777344 -1.9524792127976927
v 11.166199684143066 19.885133743286133 -0.9052802615533393
v 11.157400131225586 21.727752685546875 -1.090619295157007
v 12.321999549865723 21.727752685546875 -1.1341292553315676
v 12.321999549865723 19.885133743286133 -0.9153102331529182
v 11.166199684143066 19.885133743286133 -0.9052802615533393
v 12.321999549865723 21.727752685546875 -1.1341292553315676
v 11.070300102233887 22.388591766357422 -1.6109492473969973
v 12.321999549865723 23.293163299560547 -1.4516791992555176
v 12.321999549865723 21.727752685546875 -1.1341292553315676
v 11.157400131225586 21.727752685546875 -1.090619295157007
v 11.070300102233887 22.388591766357422 -1.6109492473969973
v 12.321999549865723 21.727752685546875 -1.1341292553315676
v 13.477800369262695 19.885133743286133 -0.9052802615533393
v 13.486700057983398 21.727752685546875 -1.090619295157007
v 14.321000099182129 19.885133743286133 -0.959340243853144
v 11.203200340270996 18.901222229003906 -0.7149882607827707
v 10.221400260925293 18.90424346923828 -0.7570012503037973
v 10.322999954223633 19.885133743286133 -0.959340243853144
v 11.166199684143066 19.885133743286133 -0.9052802615533393
v 11.203200340270996 18.901222229003906 -0.7149882607827707
v 10.322999954223633 19.885133743286133 -0.959340243853144
v 10.322999954223633 19.885133743286133 -0.959340243853144
v 11.157400131225586 21.727752685546875 -1.090619295157007
v 11.166199684143066 19.885133743286133 -0.9052802615533393
v 12.321999549865723 18.880962371826172 -0.7202942662606759
v 11.203200340270996 18.901222229003906 -0.7149882607827707
v 11.166199684143066 19.885133743286133 -0.9052802615533393
v 12.321999549865723 19.885133743286133 -0.9153102331529182
v 12.321999549865723 18.880962371826172 -0.7202942662606759
v 11.166199684143066 19.885133743286133 -0.9052802615533393
v 12.321999549865723 21.727752685546875 -1.1341292553315676
v 13.486700057983398 21.727752685546875 -1.090619295157007
v 13.477800369262695 19.885133743286133 -0.9052802615533393
v 12.321999549865723 19.885133743286133 -0.9153102331529182
v 12.321999549865723 21.727752685546875 -1.1341292553315676
v 13.477800369262695 19.885133743286133 -0.9052802615533393
v 14.422599792480469 18.959651947021484 -0.7570012503037973
v 13.440799713134766 18.901222229003906 -0.7149882607827707
v 13.477800369262695 19.885133743286133 -0.9052802615533393
v 14.321000099182129 19.885133743286133 -0.959340243853144
v 14.422599792480469 18.959651947021484 -0.7570012503037973
v 13.477800369262695 19.885133743286133 -0.9052802615533393
v 11.070300102233887 22.388591766357422 -1.6109492473969973
v 10.625699996948242 21.727752685546875 -1.4442692690263308
v 11.028800010681152 23.049442291259766 -2.131269186056665
v 12.321999549865723 23.293163299560547 -1.4516791992555176
v 11.070300102233887 22.388591766357422 -1.6109492473969973
v 11.028800010681152 23.049442291259766 -2.131269186056665
v 11.766500473022461 23.049442291259766 -2.247699230230859
v 12.321999549865723 23.293163299560547 -1.4516791992555176
v 11.028800010681152 23.049442291259766 -2.131269186056665
v 10.625699996948242 21.727752685546875 -1.4442692690263308
v 11.070300102233887 22.388591766357422 -1.6109492473969973
v 11.157400131225586 21.727752685546875 -1.090619295157007
v 14.01830005645752 21.727752685546875 -1.4442692690263308
v 14.321000099182129 19.885133743286133 -0.959340243853144
v 13.486700057983398 21.727752685546875 -1.090619295157007
v 12.321999549865723 23.293163299560547 -1.4516791992555176
v 13.573699951171875 22.388591766357422 -1.6109492473969973
v 13.486700057983398 21.727752685546875 -1.090619295157007
v 12.321999549865723 21.727752685546875 -1.1341292553315676
v 12.321999549865723 23.293163299560547 -1.4516791992555176
v 13.486700057983398 21.727752685546875 -1.090619295157007
v 13.486700057983398 21.727752685546875 -1.090619295157007
v 13.573699951171875 22.388591766357422 -1.6109492473969973
v 14.01830005645752 21.727752685546875 -1.4442692690263308
v 11.157400131225586 21.727752685546875 -1.090619295157007
v 10.322999954223633 19.885133743286133 -0.959340243853144
v 10.625699996948242 21.727752685546875 -1.4442692690263308
v 12.321999549865723 23.724082946777344 -1.9524792127976927
v 12.877599716186523 23.049442291259766 -2.247699230230859
v 12.321999549865723 23.293163299560547 -1.4516791992555176
v 13.61520004272461 23.049442291259766 -2.131269186056665
v 14.01830005645752 21.727752685546875 -1.4442692690263308
v 13.573699951171875 22.388591766357422 -1.6109492473969973
v 13.573699951171875 22.388591766357422 -1.6109492473969973
v 12.321999549865723 23.293163299560547 -1.4516791992555176
v 12.877599716186523 23.049442291259766 -2.247699230230859
v 13.61520004272461 23.049442291259766 -2.131269186056665
v 13.573699951171875 22.388591766357422 -1.6109492473969973
v 12.877599716186523 23.049442291259766 -2.247699230230859
v 12.321999549865723 23.724082946777344 -1.9524792127976927
v 12.321999549865723 23.799163818359375 -2.5578591518769773
v 12.877599716186523 23.049442291259766 -2.247699230230859
vt 0.3253380060195923 0.15970301628112793
vt 0.4950689971446991 0.15744400024414062
vt 0.4950689971446991 0.26941901445388794
vt 0.3197239935398102 0.26941901445388794
vt 0.3253380060195923 0.15970301628112793
vt 0.4950689971446991 0.26941901445388794
vt 0.7634209990501404 0.6494500041007996
vt 0.9079880118370056 0.6222720146179199
vt 0.8543720245361328 0.6975020170211792
vt 0.9079880118370056 0.6222720146179199
vt 0.9643170237541199 0.7058740258216858
vt 0.8543720245361328 0.6975020170211792
vt 0.6704130172729492 0.26941901445388794
vt 0.6717479825019836 0.47488999366760254
vt 0.4950689971446991 0.47488999366760254
vt 0.4950689971446991 0.26941901445388794
vt 0.6704130172729492 0.26941901445388794
vt 0.4950689971446991 0.47488999366760254
vt 0.6849619746208191 0.5485810041427612
vt 0.4950689971446991 0.6494500041007996
vt 0.4950689971446991 0.47488999366760254
vt 0.6717479825019836 0.47488999366760254
vt 0.6849619746208191 0.5485810041427612
vt 0.4950689971446991 0.47488999366760254
vt 0.3197239935398102 0.26941901445388794
vt 0.31837400794029236 0.47488999366760254
vt 0.19180400669574738 0.26941901445388794
vt 0.6647999882698059 0.15970301628112793
vt 0.813746988773346 0.160040020942688
vt 0.798334002494812 0.26941901445388794
vt 0.6704130172729492 0.26941901445388794
vt 0.6647999882698059 0.15970301628112793
vt 0.798334002494812 0.26941901445388794
vt 0.798334002494812 0.26941901445388794
vt 0.6717479825019836 0.47488999366760254
vt 0.6704130172729492 0.26941901445388794
vt 0.4950689971446991 0.15744400024414062
vt 0.6647999882698059 0.15970301628112793
vt 0.6704130172729492 0.26941901445388794
vt 0.4950689971446991 0.26941901445388794
vt 0.4950689971446991 0.15744400024414062
vt 0.6704130172729492 0.26941901445388794
vt 0.4950689971446991 0.47488999366760254
vt 0.31837400794029236 0.47488999366760254
vt 0.3197239935398102 0.26941901445388794
vt 0.4950689971446991 0.26941901445388794
vt 0.4950689971446991 0.47488999366760254
vt 0.3197239935398102 0.26941901445388794
vt 0.17639000713825226 0.16621899604797363
vt 0.3253380060195923 0.15970301628112793
vt 0.3197239935398102 0.26941901445388794
vt 0.19180400669574738 0.26941901445388794
vt 0.17639000713825226 0.16621899604797363
vt 0.3197239935398102 0.26941901445388794
vt 0.6849619746208191 0.5485810041427612
vt 0.7524120211601257 0.47488999366760254
vt 0.6912580132484436 0.6222720146179199
vt 0.4950689971446991 0.6494500041007996
vt 0.6849619746208191 0.5485810041427612
vt 0.6912580132484436 0.6222720146179199
vt 0.5793430209159851 0.9079880118370056
vt 0.4950689971446991 0.7634209990501404
vt 0.6912580132484436 0.8868430256843567
vt 0.7524120211601257 0.47488999366760254
vt 0.6849619746208191 0.5485810041427612
vt 0.6717479825019836 0.47488999366760254
vt 0.23772600293159485 0.47488999366760254
vt 0.19180400669574738 0.26941901445388794
vt 0.31837400794029236 0.47488999366760254
vt 0.4950689971446991 0.6494500041007996
vt 0.3051759898662567 0.5485810041427612
vt 0.31837400794029236 0.47488999366760254
vt 0.4950689971446991 0.47488999366760254
vt 0.4950689971446991 0.6494500041007996
vt 0.31837400794029236 0.47488999366760254
vt 0.31837400794029236 0.47488999366760254
vt 0.3051759898662567 0.5485810041427612
vt 0.23772600293159485 0.47488999366760254
vt 0.6717479825019836 0.47488999366760254
vt 0.798334002494812 0.26941901445388794
vt 0.7524120211601257 0.47488999366760254
vt 0.14562800526618958 0.6975020170211792
vt 0.09201230108737946 0.6222720146179199
vt 0.23657900094985962 0.6494500041007996
vt 0.298880010843277 0.6222720146179199
vt 0.23772600293159485 0.47488999366760254
vt 0.3051759898662567 0.5485810041427612
vt 0.20765399932861328 0.5485810041427612
vt 0.23657900094985962 0.6494500041007996
vt 0.09201230108737946 0.6222720146179199
vt 0.298880010843277 0.6222720146179199
vt 0.3051759898662567 0.5485810041427612
vt 0.41078001260757446 0.6222720146179199
vt 0.14562800526618958 0.6975020170211792
vt 0.03568340092897415 0.7058740258216858
vt 0.09201230108737946 0.6222720146179199
vn -0.003370755884515852 -0.1899237074328914 -0.9817930654469467
vn -0.002862725133869826 -0.19049191148327754 -0.9816845911311101
vn 0.0011681847510978606 -0.15055705011742412 -0.9886006322091478
vn -0.00811194981653635 -0.13720693856971836 -0.9905091883867102
vn -0.003370755884515852 -0.1899237074328914 -0.9817930654469467
vn 0.0011681847510978606 -0.15055705011742412 -0.9886006322091478
vn -0.0065605463610349185 -0.5671130625281541 -0.8236138254918883
vn 0.5882069751011033 -0.8061359691076356 -0.06447754456633191
vn 0 -0.9093755091920964 -0.4159761811469684
vn 0.5882069751011033 -0.8061359691076356 -0.06447754456633191
vn 0 -0.9923967851378934 -0.12307973370126384
vn 0 -0.9093755091920964 -0.4159761811469684
vn 0.003887680609100495 -0.13572056651155587 -0.9907395287184539
vn 0.14412200482879134 -0.26199886532307576 -0.9542460072190768
vn 0.043240619420261285 -0.17383988780848655 -0.9838241419272477
vn 0.0011681847510978606 -0.15055705011742412 -0.9886006322091478
vn 0.003887680609100495 -0.13572056651155587 -0.9907395287184539
vn 0.043240619420261285 -0.17383988780848655 -0.9838241419272477
vn 0.30917515407783647 -0.4257552791919631 -0.8503782489816631
vn -0.0065605463610349185 -0.5671130625281541 -0.8236138254918883
vn 0.043240619420261285 -0.17383988780848655 -0.9838241419272477
vn 0.14412200482879134 -0.26199886532307576 -0.9542460072190768
vn 0.30917515407783647 -0.4257552791919631 -0.8503782489816631
vn 0.043240619420261285 -0.17383988780848655 -0.9838241419272477
vn -0.00811194981653635 -0.13720693856971836 -0.9905091883867102
vn -0.17365714077984512 -0.24464096450263795 -0.9539360544310023
vn -0.23028265784908414 -0.20023701524179485 -0.9522998662296549
vn 0.028709205106917407 -0.19468863470800324 -0.9804448567143705
vn 0.04120358114312648 -0.2059477249774546 -0.9776951464938304
vn 0.18797386081298748 -0.19620973212225432 -0.9623760017122065
vn 0.003887680609100495 -0.13572056651155587 -0.9907395287184539
vn 0.028709205106917407 -0.19468863470800324 -0.9804448567143705
vn 0.18797386081298748 -0.19620973212225432 -0.9623760017122065
vn 0.18797386081298748 -0.19620973212225432 -0.9623760017122065
vn 0.14412200482879134 -0.26199886532307576 -0.9542460072190768
vn 0.003887680609100495 -0.13572056651155587 -0.9907395287184539
vn -0.002862725133869826 -0.19049191148327754 -0.9816845911311101
vn 0.028709205106917407 -0.19468863470800324 -0.9804448567143705
vn 0.003887680609100495 -0.13572056651155587 -0.9907395287184539
vn 0.0011681847510978606 -0.15055705011742412 -0.9886006322091478
vn -0.002862725133869826 -0.19049191148327754 -0.9816845911311101
vn 0.003887680609100495 -0.13572056651155587 -0.9907395287184539
vn 0.043240619420261285 -0.17383988780848655 -0.9838241419272477
vn -0.17365714077984512 -0.24464096450263795 -0.9539360544310023
vn -0.00811194981653635 -0.13720693856971836 -0.9905091883867102
vn 0.0011681847510978606 -0.15055705011742412 -0.9886006322091478
vn 0.043240619420261285 -0.17383988780848655 -0.9838241419272477
vn -0.00811194981653635 -0.13720693856971836 -0.9905091883867102
vn -0.04500686541863345 -0.20267355995717354 -0.97821153650909
vn -0.003370755884515852 -0.1899237074328914 -0.9817930654469467
vn -0.00811194981653635 -0.13720693856971836 -0.9905091883867102
vn -0.23028265784908414 -0.20023701524179485 -0.9522998662296549
vn -0.04500686541863345 -0.20267355995717354 -0.97821153650909
vn -0.00811194981653635 -0.13720693856971836 -0.9905091883867102
vn 0.30917515407783647 -0.4257552791919631 -0.8503782489816631
vn 0.5159990732332922 -0.39147713361816344 -0.7618993439270637
vn 0.415362386670884 -0.7607565499762925 -0.49872192593391734
vn -0.0065605463610349185 -0.5671130625281541 -0.8236138254918883
vn 0.30917515407783647 -0.4257552791919631 -0.8503782489816631
vn 0.415362386670884 -0.7607565499762925 -0.49872192593391734
vn 0.5882069751011033 -0.8061359691076356 -0.06447754456633191
vn -0.0065605463610349185 -0.5671130625281541 -0.8236138254918883
vn 0.415362386670884 -0.7607565499762925 -0.49872192593391734
vn 0.5159990732332922 -0.39147713361816344 -0.7618993439270637
vn 0.30917515407783647 -0.4257552791919631 -0.8503782489816631
vn 0.14412200482879134 -0.26199886532307576 -0.9542460072190768
vn -0.5160505593691306 -0.39148609480376273 -0.7618598675282134
vn -0.23028265784908414 -0.20023701524179485 -0.9522998662296549
vn -0.17365714077984512 -0.24464096450263795 -0.9539360544310023
vn -0.0065605463610349185 -0.5671130625281541 -0.8236138254918883
vn -0.4453951846346101 -0.6536572766242873 -0.6118458091875939
vn -0.17365714077984512 -0.24464096450263795 -0.9539360544310023
vn 0.043240619420261285 -0.17383988780848655 -0.9838241419272477
vn -0.0065605463610349185 -0.5671130625281541 -0.8236138254918883
vn -0.17365714077984512 -0.24464096450263795 -0.9539360544310023
vn -0.17365714077984512 -0.24464096450263795 -0.9539360544310023
vn -0.4453951846346101 -0.6536572766242873 -0.6118458091875939
vn -0.5160505593691306 -0.39148609480376273 -0.7618598675282134
vn 0.14412200482879134 -0.26199886532307576 -0.9542460072190768
vn 0.18797386081298748 -0.19620973212225432 -0.9623760017122065
vn 0.5159990732332922 -0.39147713361816344 -0.7618993439270637
vn 0 -0.9093755091920964 -0.4159761811469684
vn -0.5737098037719728 -0.7309684980638768 -0.36951605634148627
vn -0.0065605463610349185 -0.5671130625281541 -0.8236138254918883
vn -0.15143350007306788 -0.6055931545282889 -0.7812328886088297
vn -0.5160505593691306 -0.39148609480376273 -0.7618598675282134
vn -0.4453951846346101 -0.6536572766242873 -0.6118458091875939
vn -0.4453951846346101 -0.6536572766242873 -0.6118458091875939
vn -0.0065605463610349185 -0.5671130625281541 -0.8236138254918883
vn -0.5737098037719728 -0.7309684980638768 -0.36951605634148627
vn -0.15143350007306788 -0.6055931545282889 -0.7812328886088297
vn -0.4453951846346101 -0.6536572766242873 -0.6118458091875939
vn -0.5737098037719728 -0.7309684980638768 -0.36951605634148627
vn 0 -0.9093755091920964 -0.4159761811469684
vn 0 -0.9923967851378934 -0.12307973370126384
vn -0.5737098037719728 -0.7309684980638768 -0.36951605634148627
f 1/1/1 2/2/2 3/3/3
f 4/4/4 5/5/5 6/6/6
f 7/7/7 8/8/8 9/9/9
f 10/10/10 11/11/11 12/12/12
f 13/13/13 14/14/14 15/15/15
f 16/16/16 17/17/17 18/18/18
f 19/19/19 20/20/20 21/21/21
f 22/22/22 23/23/23 24/24/24
f 25/25/25 26/26/26 27/27/27
f 28/28/28 29/29/29 30/30/30
f 31/31/31 32/32/32 33/33/33
f 34/34/34 35/35/35 36/36/36
f 37/37/37 38/38/38 39/39/39
f 40/40/40 41/41/41 42/42/42
f 43/43/43 44/44/44 45/45/45
f 46/46/46 47/47/47 48/48/48
f 49/49/49 50/50/50 51/51/51
f 52/52/52 53/53/53 54/54/54
f 55/55/55 56/56/56 57/57/57
f 58/58/58 59/59/59 60/60/60
f 61/61/61 62/62/62 63/63/63
f 64/64/64 65/65/65 66/66/66
f 67/67/67 68/68/68 69/69/69
f 70/70/70 71/71/71 72/72/72
f 73/73/73 74/74/74 75/75/75
f 76/76/76 77/77/77 78/78/78
f 79/79/79 80/80/80 81/81/81
f 82/82/82 83/83/83 84/84/84
f 85/85/85 86/86/86 87/87/87
f 88/88/88 89/89/89 90/90/90
f 91/91/91 92/92/92 93/93/93
f 94/94/94 95/95/95 96/96/96
