mtllib ArcadaCompleta.mtl
o D22C_CV1
usemtl Esmalte
v 11.138199806213379 24.548873901367188 2.588920862161109
v 12.321999549865723 24.548873901367188 2.749140769921729
v 12.321999549865723 26.432342529296875 2.482450754128883
v 11.327300071716309 26.403854370117188 2.278870851479957
v 11.138199806213379 24.548873901367188 2.588920862161109
v 12.321999549865723 26.432342529296875 2.482450754128883
v 13.505900382995605 24.548873901367188 2.588920862161109
v 14.2568998336792 24.65704345703125 2.03307083316941
v 13.316699981689453 26.403854370117188 2.278870851479957
v 12.321999549865723 24.548873901367188 2.749140769921729
v 13.505900382995605 24.548873901367188 2.588920862161109
v 13.316699981689453 26.403854370117188 2.278870851479957
v 12.321999549865723 26.432342529296875 2.482450754128883
v 12.321999549865723 24.548873901367188 2.749140769921729
v 13.316699981689453 26.403854370117188 2.278870851479957
v 11.060700416564941 23.5819034576416 2.4346607036222903
v 12.321999549865723 23.5819034576416 2.631200820886084
v 12.321999549865723 24.548873901367188 2.749140769921729
v 11.138199806213379 24.548873901367188 2.588920862161109
v 11.060700416564941 23.5819034576416 2.4346607036222903
v 12.321999549865723 24.548873901367188 2.749140769921729
v 11.327300071716309 26.403854370117188 2.278870851479957
v 10.387100219726562 24.65704345703125 2.03307083316941
v 11.138199806213379 24.548873901367188 2.588920862161109
v 10.387100219726562 24.65704345703125 2.03307083316941
v 11.060700416564941 23.5819034576416 2.4346607036222903
v 11.138199806213379 24.548873901367188 2.588920862161109
v 13.58329963684082 23.5819034576416 2.4346607036222903
v 14.2568998336792 24.65704345703125 2.03307083316941
v 13.505900382995605 24.548873901367188 2.588920862161109
v 12.321999549865723 24.548873901367188 2.749140769921729
v 12.321999549865723 23.5819034576416 2.631200820886084
v 13.58329963684082 23.5819034576416 2.4346607036222903
v 13.505900382995605 24.548873901367188 2.588920862161109
v 12.321999549865723 24.548873901367188 2.749140769921729
v 13.58329963684082 23.5819034576416 2.4346607036222903
v 10.387100219726562 24.65704345703125 2.03307083316941
v 11.327300071716309 26.403854370117188 2.278870851479957
v 10.479900360107422 25.720212936401367 1.7375006980528327
v 13.316699981689453 26.403854370117188 2.278870851479957
v 14.2568998336792 24.65704345703125 2.03307083316941
v 14.16409969329834 25.720212936401367 1.7375006980528327
v 13.58329963684082 23.5819034576416 2.4346607036222903
v 13.660699844360352 23.049442291259766 2.280400783502051
v 14.723899841308594 23.049442291259766 1.8582806892027344
v 14.2568998336792 24.65704345703125 2.03307083316941
v 13.58329963684082 23.5819034576416 2.4346607036222903
v 14.723899841308594 23.049442291259766 1.8582806892027344
v 11.060700416564941 23.5819034576416 2.4346607036222903
v 10.387100219726562 24.65704345703125 2.03307083316941
v 9.920069694519043 23.049442291259766 1.8582806892027344
v 10.98330020904541 23.049442291259766 2.280400783502051
v 11.060700416564941 23.5819034576416 2.4346607036222903
v 9.920069694519043 23.049442291259766 1.8582806892027344
v 11.060700416564941 23.5819034576416 2.4346607036222903
v 10.98330020904541 23.049442291259766 2.280400783502051
v 12.321999549865723 23.049442291259766 2.5132606334318606
v 12.321999549865723 23.5819034576416 2.631200820886084
v 11.060700416564941 23.5819034576416 2.4346607036222903
v 12.321999549865723 23.049442291259766 2.5132606334318606
v 13.660699844360352 23.049442291259766 2.280400783502051
v 13.58329963684082 23.5819034576416 2.4346607036222903
v 12.321999549865723 23.5819034576416 2.631200820886084
v 12.321999549865723 23.049442291259766 2.5132606334318606
v 13.660699844360352 23.049442291259766 2.280400783502051
v 12.321999549865723 23.5819034576416 2.631200820886084
vt 0.3253389894962311 0.7894740104675293
vt 0.5049309730529785 0.7894740104675293
vt 0.5049309730529785 0.9995009899139404
vt 0.35402700304985046 0.9963240027427673
vt 0.3253389894962311 0.7894740104675293
vt 0.5049309730529785 0.9995009899139404
vt 0.6845390200614929 0.7894740104675293
vt 0.798471987247467 0.8015360236167908
vt 0.655834972858429 0.9963240027427673
vt 0.5049309730529785 0.7894740104675293
vt 0.6845390200614929 0.7894740104675293
vt 0.655834972858429 0.9963240027427673
vt 0.5049309730529785 0.9995009899139404
vt 0.5049309730529785 0.7894740104675293
vt 0.655834972858429 0.9963240027427673
vt 0.3135809898376465 0.681647002696991
vt 0.5049309730529785 0.681647002696991
vt 0.5049309730529785 0.7894740104675293
vt 0.3253389894962311 0.7894740104675293
vt 0.3135809898376465 0.681647002696991
vt 0.5049309730529785 0.7894740104675293
vt 0.35402700304985046 0.9963240027427673
vt 0.21139100193977356 0.8015360236167908
vt 0.3253389894962311 0.7894740104675293
vt 0.21139100193977356 0.8015360236167908
vt 0.3135809898376465 0.681647002696991
vt 0.3253389894962311 0.7894740104675293
vt 0.6962810158729553 0.681647002696991
vt 0.798471987247467 0.8015360236167908
vt 0.6845390200614929 0.7894740104675293
vt 0.5049309730529785 0.7894740104675293
vt 0.5049309730529785 0.681647002696991
vt 0.6962810158729553 0.681647002696991
vt 0.6845390200614929 0.7894740104675293
vt 0.5049309730529785 0.7894740104675293
vt 0.6962810158729553 0.681647002696991
vt 0.21139100193977356 0.8015360236167908
vt 0.35402700304985046 0.9963240027427673
vt 0.22546899318695068 0.9200909733772278
vt 0.655834972858429 0.9963240027427673
vt 0.798471987247467 0.8015360236167908
vt 0.7843930125236511 0.9200909733772278
vt 0.6962810158729553 0.681647002696991
vt 0.7080230116844177 0.6222720146179199
vt 0.8693190217018127 0.6222720146179199
vt 0.798471987247467 0.8015360236167908
vt 0.6962810158729553 0.681647002696991
vt 0.8693190217018127 0.6222720146179199
vt 0.3135809898376465 0.681647002696991
vt 0.21139100193977356 0.8015360236167908
vt 0.14053800702095032 0.6222720146179199
vt 0.3018389940261841 0.6222720146179199
vt 0.3135809898376465 0.681647002696991
vt 0.14053800702095032 0.6222720146179199
vt 0.3135809898376465 0.681647002696991
vt 0.3018389940261841 0.6222720146179199
vt 0.5049309730529785 0.6222720146179199
vt 0.5049309730529785 0.681647002696991
vt 0.3135809898376465 0.681647002696991
vt 0.5049309730529785 0.6222720146179199
vt 0.7080230116844177 0.6222720146179199
vt 0.6962810158729553 0.681647002696991
vt 0.5049309730529785 0.681647002696991
vt 0.5049309730529785 0.6222720146179199
vt 0.7080230116844177 0.6222720146179199
vt 0.5049309730529785 0.681647002696991
vn -0.30785851528890473 0.09739008929735307 0.9464345223367355
vn 0.035006152640551104 0.030835660550205903 0.9989112729946232
vn -0.04935122781966902 0.15407692623036406 0.9868255960989732
vn -0.456934275545005 0.2083375464445108 0.8647580786402883
vn -0.30785851528890473 0.09739008929735307 0.9464345223367355
vn -0.04935122781966902 0.15407692623036406 0.9868255960989732
vn 0.3417186105252767 0.08395902737442378 0.9360444823527431
vn 0.5653583353518304 0.11362938021683451 0.8169812216934642
vn 0.35663404927294917 0.1884027712446551 0.9150500263299891
vn 0.035006152640551104 0.030835660550205903 0.9989112729946232
vn 0.3417186105252767 0.08395902737442378 0.9360444823527431
vn 0.35663404927294917 0.1884027712446551 0.9150500263299891
vn -0.04935122781966902 0.15407692623036406 0.9868255960989732
vn 0.035006152640551104 0.030835660550205903 0.9989112729946232
vn 0.35663404927294917 0.1884027712446551 0.9150500263299891
vn -0.3109634068658586 -0.11244771825193009 0.9437464014502589
vn 0.02716238215055465 -0.17164564301285956 0.9847842292759409
vn 0.035006152640551104 0.030835660550205903 0.9989112729946232
vn -0.30785851528890473 0.09739008929735307 0.9464345223367355
vn -0.3109634068658586 -0.11244771825193009 0.9437464014502589
vn 0.035006152640551104 0.030835660550205903 0.9989112729946232
vn -0.456934275545005 0.2083375464445108 0.8647580786402883
vn -0.5653319946893388 0.11362905784305645 0.8169994938763873
vn -0.30785851528890473 0.09739008929735307 0.9464345223367355
vn -0.5653319946893388 0.11362905784305645 0.8169994938763873
vn -0.3109634068658586 -0.11244771825193009 0.9437464014502589
vn -0.30785851528890473 0.09739008929735307 0.9464345223367355
vn 0.3271965337630828 -0.10039237742911629 0.939608322040388
vn 0.5653583353518304 0.11362938021683451 0.8169812216934642
vn 0.3417186105252767 0.08395902737442378 0.9360444823527431
vn 0.035006152640551104 0.030835660550205903 0.9989112729946232
vn 0.02716238215055465 -0.17164564301285956 0.9847842292759409
vn 0.3271965337630828 -0.10039237742911629 0.939608322040388
vn 0.3417186105252767 0.08395902737442378 0.9360444823527431
vn 0.035006152640551104 0.030835660550205903 0.9989112729946232
vn 0.3271965337630828 -0.10039237742911629 0.939608322040388
vn -0.5653319946893388 0.11362905784305645 0.8169994938763873
vn -0.456934275545005 0.2083375464445108 0.8647580786402883
vn -0.658037355125936 0.2544587218341543 0.7086872357686366
vn 0.35663404927294917 0.1884027712446551 0.9150500263299891
vn 0.5653583353518304 0.11362938021683451 0.8169812216934642
vn 0.6580373601161362 0.2544586939615098 0.7086872411429382
vn 0.3271965337630828 -0.10039237742911629 0.939608322040388
vn 0.22046077738740275 -0.22784087515618132 0.9484121368064665
vn 0.44129948831505056 -0.02565908188957635 0.8969929615830096
vn 0.5653583353518304 0.11362938021683451 0.8169812216934642
vn 0.3271965337630828 -0.10039237742911629 0.939608322040388
vn 0.44129948831505056 -0.02565908188957635 0.8969929615830096
vn -0.3109634068658586 -0.11244771825193009 0.9437464014502589
vn -0.5653319946893388 0.11362905784305645 0.8169994938763873
vn -0.4412914937389484 -0.025655456873055933 0.896996998370832
vn -0.2557451209887653 -0.2345336327542952 0.9378637471389514
vn -0.3109634068658586 -0.11244771825193009 0.9437464014502589
vn -0.4412914937389484 -0.025655456873055933 0.896996998370832
vn -0.3109634068658586 -0.11244771825193009 0.9437464014502589
vn -0.2557451209887653 -0.2345336327542952 0.9378637471389514
vn -0.04850747936210668 -0.22950262161608856 0.972098539818509
vn 0.02716238215055465 -0.17164564301285956 0.9847842292759409
vn -0.3109634068658586 -0.11244771825193009 0.9437464014502589
vn -0.04850747936210668 -0.22950262161608856 0.972098539818509
vn 0.22046077738740275 -0.22784087515618132 0.9484121368064665
vn 0.3271965337630828 -0.10039237742911629 0.939608322040388
vn 0.02716238215055465 -0.17164564301285956 0.9847842292759409
vn -0.04850747936210668 -0.22950262161608856 0.972098539818509
vn 0.22046077738740275 -0.22784087515618132 0.9484121368064665
vn 0.02716238215055465 -0.17164564301285956 0.9847842292759409
f 1/1/1 2/2/2 3/3/3
f 4/4/4 5/5/5 6/6/6
f 7/7/7 8/8/8 9/9/9
f 10/10/10 11/11/11 12/12/12
f 13/13/13 14/14/14 15/15/15
f 16/16/16 17/17/17 18/18/18
f 19/19/19 20/20/20 21/21/21
f 22/22/22 23/23/23 24/24/24
f 25/25/25 26/26/26 27/27/27
f 28/28/28 29/29/29 30/30/30
f 31/31/31 32/32/32 33/33/33
f 34/34/34 35/35/35 36/36/36
f 37/37/37 38/38/38 39/39/39
f 40/40/40 41/41/41 42/42/42
f 43/43/43 44/44/44 45/45/45
f 46/46/46 47/47/47 48/48/48
f 49/49/49 50/50/50 51/51/51
f 52/52/52 53/53/53 54/54/54
f 55/55/55 56/56/56 57/57/57
f 58/58/58 59/59/59 60/60/60
f 61/61/61 62/62/62 63/63/63
f 64/64/64 65/65/65 66/66/66
