mtllib ArcadaCompleta.mtl
o D23C_L
usemtl Esmalte
v 20.33650016784668 18.84125328063965 -0.9516972594628854
v 19.269899368286133 18.815963745117188 -1.0252992802033944
v 19.404699325561523 19.899372100830078 -1.3653692894349616
v 20.89699935913086 19.899372100830078 -1.226779311216883
v 20.33650016784668 18.84125328063965 -0.9516972594628854
v 19.404699325561523 19.899372100830078 -1.3653692894349616
v 17.84239959716797 22.51455307006836 -2.4691593342195066
v 17.877300262451172 23.472702026367188 -3.4187392883668455
v 19.404699325561523 23.472702026367188 -3.7558192901979
v 19.404699325561523 22.51455307006836 -2.9593493633637937
v 17.84239959716797 22.51455307006836 -2.4691593342195066
v 19.404699325561523 23.472702026367188 -3.7558192901979
v 17.912399291992188 19.899372100830078 -1.226779311216883
v 17.807600021362305 21.55640411376953 -1.5195692472825566
v 19.404699325561523 21.55640411376953 -2.1628791981111086
v 19.404699325561523 19.899372100830078 -1.3653692894349616
v 17.912399291992188 19.899372100830078 -1.226779311216883
v 19.404699325561523 21.55640411376953 -2.1628791981111086
v 17.84239959716797 22.51455307006836 -2.4691593342195066
v 19.404699325561523 22.51455307006836 -2.9593493633637937
v 19.404699325561523 21.55640411376953 -2.1628791981111086
v 17.807600021362305 21.55640411376953 -1.5195692472825566
v 17.84239959716797 22.51455307006836 -2.4691593342195066
v 19.404699325561523 21.55640411376953 -2.1628791981111086
v 19.269899368286133 18.815963745117188 -1.0252992802033944
v 18.20330047607422 18.84125328063965 -0.9516972594628854
v 17.912399291992188 19.899372100830078 -1.226779311216883
v 19.404699325561523 19.899372100830078 -1.3653692894349616
v 19.269899368286133 18.815963745117188 -1.0252992802033944
v 17.912399291992188 19.899372100830078 -1.226779311216883
v 17.295000076293945 18.845022201538086 -0.7507732801805063
v 17.297199249267578 19.899372100830078 -1.0619492226014655
v 17.912399291992188 19.899372100830078 -1.226779311216883
v 18.20330047607422 18.84125328063965 -0.9516972594628854
v 17.295000076293945 18.845022201538086 -0.7507732801805063
v 17.912399291992188 19.899372100830078 -1.226779311216883
v 19.404699325561523 21.55640411376953 -2.1628791981111086
v 21.001800537109375 21.55640411376953 -1.5195692472825566
v 20.89699935913086 19.899372100830078 -1.226779311216883
v 19.404699325561523 19.899372100830078 -1.3653692894349616
v 19.404699325561523 21.55640411376953 -2.1628791981111086
v 20.89699935913086 19.899372100830078 -1.226779311216883
v 21.336999893188477 18.839202880859375 -0.7318632297883554
v 20.33650016784668 18.84125328063965 -0.9516972594628854
v 20.89699935913086 19.899372100830078 -1.226779311216883
v 21.51219940185547 19.899372100830078 -1.0619492226014655
v 21.336999893188477 18.839202880859375 -0.7318632297883554
v 20.89699935913086 19.899372100830078 -1.226779311216883
v 17.241300582885742 22.993633270263672 -2.414679258383325
v 17.258699417114258 23.472702026367188 -2.889469354666284
v 17.877300262451172 23.472702026367188 -3.4187392883668455
v 17.84239959716797 22.51455307006836 -2.4691593342195066
v 17.241300582885742 22.993633270263672 -2.414679258383325
v 17.877300262451172 23.472702026367188 -3.4187392883668455
v 17.241300582885742 22.993633270263672 -2.414679258383325
v 17.84239959716797 22.51455307006836 -2.4691593342195066
v 17.807600021362305 21.55640411376953 -1.5195692472825566
v 17.2637996673584 21.55640411376953 -1.6301192932496587
v 17.241300582885742 22.993633270263672 -2.414679258383325
v 17.807600021362305 21.55640411376953 -1.5195692472825566
v 19.404699325561523 22.51455307006836 -2.9593493633637937
v 20.966999053955078 22.51455307006836 -2.4691593342195066
v 21.001800537109375 21.55640411376953 -1.5195692472825566
v 19.404699325561523 21.55640411376953 -2.1628791981111086
v 19.404699325561523 22.51455307006836 -2.9593493633637937
v 21.001800537109375 21.55640411376953 -1.5195692472825566
v 21.568199157714844 22.993633270263672 -2.414679258383325
v 21.54560089111328 21.55640411376953 -1.6301192932496587
v 21.001800537109375 21.55640411376953 -1.5195692472825566
v 20.966999053955078 22.51455307006836 -2.4691593342195066
v 21.568199157714844 22.993633270263672 -2.414679258383325
v 21.001800537109375 21.55640411376953 -1.5195692472825566
v 20.932100296020508 23.472702026367188 -3.4187392883668455
v 20.966999053955078 22.51455307006836 -2.4691593342195066
v 19.404699325561523 22.51455307006836 -2.9593493633637937
v 19.404699325561523 23.472702026367188 -3.7558192901979
v 20.932100296020508 23.472702026367188 -3.4187392883668455
v 19.404699325561523 22.51455307006836 -2.9593493633637937
v 21.55069923400879 23.472702026367188 -2.889469354666284
v 21.568199157714844 22.993633270263672 -2.414679258383325
v 20.966999053955078 22.51455307006836 -2.4691593342195066
v 20.932100296020508 23.472702026367188 -3.4187392883668455
v 21.55069923400879 23.472702026367188 -2.889469354666284
v 20.966999053955078 22.51455307006836 -2.4691593342195066
v 21.001800537109375 21.55640411376953 -1.5195692472825566
v 21.54560089111328 21.55640411376953 -1.6301192932496587
v 21.51219940185547 19.899372100830078 -1.0619492226014655
v 20.89699935913086 19.899372100830078 -1.226779311216883
v 21.001800537109375 21.55640411376953 -1.5195692472825566
v 21.51219940185547 19.899372100830078 -1.0619492226014655
v 17.912399291992188 19.899372100830078 -1.226779311216883
v 17.297199249267578 19.899372100830078 -1.0619492226014655
v 17.2637996673584 21.55640411376953 -1.6301192932496587
v 17.807600021362305 21.55640411376953 -1.5195692472825566
v 17.912399291992188 19.899372100830078 -1.226779311216883
v 17.2637996673584 21.55640411376953 -1.6301192932496587
vt 0.38624700903892517 0.16297298669815063
vt 0.531620979309082 0.16042399406433105
vt 0.5132480263710022 0.26961201429367065
vt 0.3098529875278473 0.26961201429367065
vt 0.38624700903892517 0.16297298669815063
vt 0.5132480263710022 0.26961201429367065
vt 0.7261850237846375 0.5331739783287048
vt 0.7214279770851135 0.6297370195388794
vt 0.5132480263710022 0.6297370195388794
vt 0.5132480263710022 0.5331739783287048
vt 0.7261850237846375 0.5331739783287048
vt 0.5132480263710022 0.6297370195388794
vt 0.7166439890861511 0.26961201429367065
vt 0.7309269905090332 0.43660998344421387
vt 0.5132480263710022 0.43660998344421387
vt 0.5132480263710022 0.26961201429367065
vt 0.7166439890861511 0.26961201429367065
vt 0.5132480263710022 0.43660998344421387
vt 0.7261850237846375 0.5331739783287048
vt 0.5132480263710022 0.5331739783287048
vt 0.5132480263710022 0.43660998344421387
vt 0.7309269905090332 0.43660998344421387
vt 0.7261850237846375 0.5331739783287048
vt 0.5132480263710022 0.43660998344421387
vt 0.531620979309082 0.16042399406433105
vt 0.6769949793815613 0.16297298669815063
vt 0.7166439890861511 0.26961201429367065
vt 0.5132480263710022 0.26961201429367065
vt 0.531620979309082 0.16042399406433105
vt 0.7166439890861511 0.26961201429367065
vt 0.8007929921150208 0.16335296630859375
vt 0.8004930019378662 0.26961201429367065
vt 0.7166439890861511 0.26961201429367065
vt 0.6769949793815613 0.16297298669815063
vt 0.8007929921150208 0.16335296630859375
vt 0.7166439890861511 0.26961201429367065
vt 0.5132480263710022 0.43660998344421387
vt 0.29556798934936523 0.43660998344421387
vt 0.3098529875278473 0.26961201429367065
vt 0.5132480263710022 0.26961201429367065
vt 0.5132480263710022 0.43660998344421387
vt 0.3098529875278473 0.26961201429367065
vt 0.24988199770450592 0.16276699304580688
vt 0.38624700903892517 0.16297298669815063
vt 0.3098529875278473 0.26961201429367065
vt 0.2260030061006546 0.26961201429367065
vt 0.24988199770450592 0.16276699304580688
vt 0.3098529875278473 0.26961201429367065
vt 0.8081120252609253 0.5814560055732727
vt 0.805741012096405 0.6297370195388794
vt 0.7214279770851135 0.6297370195388794
vt 0.7261850237846375 0.5331739783287048
vt 0.8081120252609253 0.5814560055732727
vt 0.7214279770851135 0.6297370195388794
vt 0.8081120252609253 0.5814560055732727
vt 0.7261850237846375 0.5331739783287048
vt 0.7309269905090332 0.43660998344421387
vt 0.805046021938324 0.43660998344421387
vt 0.8081120252609253 0.5814560055732727
vt 0.7309269905090332 0.43660998344421387
vt 0.5132480263710022 0.5331739783287048
vt 0.30031201243400574 0.5331739783287048
vt 0.29556798934936523 0.43660998344421387
vt 0.5132480263710022 0.43660998344421387
vt 0.5132480263710022 0.5331739783287048
vt 0.29556798934936523 0.43660998344421387
vt 0.2183700054883957 0.5814560055732727
vt 0.22145000100135803 0.43660998344421387
vt 0.29556798934936523 0.43660998344421387
vt 0.30031201243400574 0.5331739783287048
vt 0.2183700054883957 0.5814560055732727
vt 0.29556798934936523 0.43660998344421387
vt 0.3050679862499237 0.6297370195388794
vt 0.30031201243400574 0.5331739783287048
vt 0.5132480263710022 0.5331739783287048
vt 0.5132480263710022 0.6297370195388794
vt 0.3050679862499237 0.6297370195388794
vt 0.5132480263710022 0.5331739783287048
vt 0.22075499594211578 0.6297370195388794
vt 0.2183700054883957 0.5814560055732727
vt 0.30031201243400574 0.5331739783287048
vt 0.3050679862499237 0.6297370195388794
vt 0.22075499594211578 0.6297370195388794
vt 0.30031201243400574 0.5331739783287048
vt 0.29556798934936523 0.43660998344421387
vt 0.22145000100135803 0.43660998344421387
vt 0.2260030061006546 0.26961201429367065
vt 0.3098529875278473 0.26961201429367065
vt 0.29556798934936523 0.43660998344421387
vt 0.2260030061006546 0.26961201429367065
vt 0.7166439890861511 0.26961201429367065
vt 0.8004930019378662 0.26961201429367065
vt 0.805046021938324 0.43660998344421387
vt 0.7309269905090332 0.43660998344421387
vt 0.7166439890861511 0.26961201429367065
vt 0.805046021938324 0.43660998344421387
vn 0.11612332472610379 -0.3131037912857626 -0.9425929075359295
vn -0.03605947216318979 -0.28923832931689086 -0.9565777037550509
vn 0.00847141350304033 -0.37245008294603094 -0.9280135617903195
vn 0.20944127162076978 -0.3001305123015266 -0.9306213136004882
vn 0.11612332472610379 -0.3131037912857626 -0.9425929075359295
vn 0.00847141350304033 -0.37245008294603094 -0.9280135617903195
vn -0.28526986260133624 -0.646797253720786 -0.7073007974480616
vn -0.3133227980209569 -0.6627011592769629 -0.6801882075817607
vn -0.07939283537995626 -0.6591588845001096 -0.7478010047298027
vn 0.07824788736643597 -0.6589072731378417 -0.7481433509219628
vn -0.28526986260133624 -0.646797253720786 -0.7073007974480616
vn -0.07939283537995626 -0.6591588845001096 -0.7478010047298027
vn -0.16609819965553563 -0.29206557729178745 -0.9418646859461316
vn -0.24890519211951515 -0.42708578328503666 -0.8692778261590216
vn -0.02833255960290171 -0.45006862618003185 -0.8925443954195034
vn 0.00847141350304033 -0.37245008294603094 -0.9280135617903195
vn -0.16609819965553563 -0.29206557729178745 -0.9418646859461316
vn -0.02833255960290171 -0.45006862618003185 -0.8925443954195034
vn -0.28526986260133624 -0.646797253720786 -0.7073007974480616
vn 0.07824788736643597 -0.6589072731378417 -0.7481433509219628
vn -0.02833255960290171 -0.45006862618003185 -0.8925443954195034
vn -0.24890519211951515 -0.42708578328503666 -0.8692778261590216
vn -0.28526986260133624 -0.646797253720786 -0.7073007974480616
vn -0.02833255960290171 -0.45006862618003185 -0.8925443954195034
vn -0.03605947216318979 -0.28923832931689086 -0.9565777037550509
vn -0.13610881468099567 -0.2841516103410288 -0.9490691507507419
vn -0.16609819965553563 -0.29206557729178745 -0.9418646859461316
vn 0.00847141350304033 -0.37245008294603094 -0.9280135617903195
vn -0.03605947216318979 -0.28923832931689086 -0.9565777037550509
vn -0.16609819965553563 -0.29206557729178745 -0.9418646859461316
vn -0.22416089197501302 -0.2889353299115167 -0.9307353381267358
vn -0.24675589606694573 -0.3015266037222494 -0.9209740685838687
vn -0.16609819965553563 -0.29206557729178745 -0.9418646859461316
vn -0.13610881468099567 -0.2841516103410288 -0.9490691507507419
vn -0.22416089197501302 -0.2889353299115167 -0.9307353381267358
vn -0.16609819965553563 -0.29206557729178745 -0.9418646859461316
vn -0.02833255960290171 -0.45006862618003185 -0.8925443954195034
vn 0.247094402461979 -0.4549733304309025 -0.8555370388642272
vn 0.20944127162076978 -0.3001305123015266 -0.9306213136004882
vn 0.00847141350304033 -0.37245008294603094 -0.9280135617903195
vn -0.02833255960290171 -0.45006862618003185 -0.8925443954195034
vn 0.20944127162076978 -0.3001305123015266 -0.9306213136004882
vn 0.21763187248418525 -0.33725040533598016 -0.9159140419164588
vn 0.11612332472610379 -0.3131037912857626 -0.9425929075359295
vn 0.20944127162076978 -0.3001305123015266 -0.9306213136004882
vn 0.09844933008047162 -0.27323608363319124 -0.9568959044783827
vn 0.21763187248418525 -0.33725040533598016 -0.9159140419164588
vn 0.20944127162076978 -0.3001305123015266 -0.9306213136004882
vn -0.3549379729549601 -0.5909986534546241 -0.7243891405656527
vn -0.5252264672787065 -0.5893171356370561 -0.6138749642349532
vn -0.3133227980209569 -0.6627011592769629 -0.6801882075817607
vn -0.28526986260133624 -0.646797253720786 -0.7073007974480616
vn -0.3549379729549601 -0.5909986534546241 -0.7243891405656527
vn -0.3133227980209569 -0.6627011592769629 -0.6801882075817607
vn -0.3549379729549601 -0.5909986534546241 -0.7243891405656527
vn -0.28526986260133624 -0.646797253720786 -0.7073007974480616
vn -0.24890519211951515 -0.42708578328503666 -0.8692778261590216
vn 0.024127216644753036 -0.3243586669978681 -0.9456264233619657
vn -0.3549379729549601 -0.5909986534546241 -0.7243891405656527
vn -0.24890519211951515 -0.42708578328503666 -0.8692778261590216
vn 0.07824788736643597 -0.6589072731378417 -0.7481433509219628
vn 0.3332273396587576 -0.6575485532082591 -0.6757140225551574
vn 0.247094402461979 -0.4549733304309025 -0.8555370388642272
vn -0.02833255960290171 -0.45006862618003185 -0.8925443954195034
vn 0.07824788736643597 -0.6589072731378417 -0.7481433509219628
vn 0.247094402461979 -0.4549733304309025 -0.8555370388642272
vn 0.2750963529595494 -0.5840290701843683 -0.7636963020520244
vn -0.1833581286286237 -0.39098896678477135 -0.9019464643305533
vn 0.247094402461979 -0.4549733304309025 -0.8555370388642272
vn 0.3332273396587576 -0.6575485532082591 -0.6757140225551574
vn 0.2750963529595494 -0.5840290701843683 -0.7636963020520244
vn 0.247094402461979 -0.4549733304309025 -0.8555370388642272
vn 0.2605339769005864 -0.6518301078159379 -0.7122075241283452
vn 0.3332273396587576 -0.6575485532082591 -0.6757140225551574
vn 0.07824788736643597 -0.6589072731378417 -0.7481433509219628
vn -0.07939283537995626 -0.6591588845001096 -0.7478010047298027
vn 0.2605339769005864 -0.6518301078159379 -0.7122075241283452
vn 0.07824788736643597 -0.6589072731378417 -0.7481433509219628
vn 0.5252337446245705 -0.5892735112971768 -0.613910614333347
vn 0.2750963529595494 -0.5840290701843683 -0.7636963020520244
vn 0.3332273396587576 -0.6575485532082591 -0.6757140225551574
vn 0.2605339769005864 -0.6518301078159379 -0.7122075241283452
vn 0.5252337446245705 -0.5892735112971768 -0.613910614333347
vn 0.3332273396587576 -0.6575485532082591 -0.6757140225551574
vn 0.247094402461979 -0.4549733304309025 -0.8555370388642272
vn -0.1833581286286237 -0.39098896678477135 -0.9019464643305533
vn 0.09844933008047162 -0.27323608363319124 -0.9568959044783827
vn 0.20944127162076978 -0.3001305123015266 -0.9306213136004882
vn 0.247094402461979 -0.4549733304309025 -0.8555370388642272
vn 0.09844933008047162 -0.27323608363319124 -0.9568959044783827
vn -0.16609819965553563 -0.29206557729178745 -0.9418646859461316
vn -0.24675589606694573 -0.3015266037222494 -0.9209740685838687
vn 0.024127216644753036 -0.3243586669978681 -0.9456264233619657
vn -0.24890519211951515 -0.42708578328503666 -0.8692778261590216
vn -0.16609819965553563 -0.29206557729178745 -0.9418646859461316
vn 0.024127216644753036 -0.3243586669978681 -0.9456264233619657
f 1/1/1 2/2/2 3/3/3
f 4/4/4 5/5/5 6/6/6
f 7/7/7 8/8/8 9/9/9
f 10/10/10 11/11/11 12/12/12
f 13/13/13 14/14/14 15/15/15
f 16/16/16 17/17/17 18/18/18
f 19/19/19 20/20/20 21/21/21
f 22/22/22 23/23/23 24/24/24
f 25/25/25 26/26/26 27/27/27
f 28/28/28 29/29/29 30/30/30
f 31/31/31 32/32/32 33/33/33
f 34/34/34 35/35/35 36/36/36
f 37/37/37 38/38/38 39/39/39
f 40/40/40 41/41/41 42/42/42
f 43/43/43 44/44/44 45/45/45
f 46/46/46 47/47/47 48/48/48
f 49/49/49 50/50/50 51/51/51
f 52/52/52 53/53/53 54/54/54
f 55/55/55 56/56/56 57/57/57
f 58/58/58 59/59/59 60/60/60
f 61/61/61 62/62/62 63/63/63
f 64/64/64 65/65/65 66/66/66
f 67/67/67 68/68/68 69/69/69
f 70/70/70 71/71/71 72/72/72
f 73/73/73 74/74/74 75/75/75
f 76/76/76 77/77/77 78/78/78
f 79/79/79 80/80/80 81/81/81
f 82/82/82 83/83/83 84/84/84
f 85/85/85 86/86/86 87/87/87
f 88/88/88 89/89/89 90/90/90
f 91/91/91 92/92/92 93/93/93
f 94/94/94 95/95/95 96/96/96
