mtllib ArcadaCompleta.mtl
o D23C_CL
usemtl Esmalte
v 18.069900512695312 24.922212600708008 -3.749479263342431
v 18.3125 26.918922424316406 -3.300649135626366
v 19.404699325561523 27.14166259765625 -3.5953492813478016
v 19.404699325561523 24.922212600708008 -3.9814092808137445
v 18.069900512695312 24.922212600708008 -3.749479263342431
v 19.404699325561523 27.14166259765625 -3.5953492813478016
v 18.069900512695312 24.922212600708008 -3.749479263342431
v 19.404699325561523 24.922212600708008 -3.9814092808137445
v 19.404699325561523 23.472702026367188 -3.7558192901979
v 17.877300262451172 23.472702026367188 -3.4187392883668455
v 18.069900512695312 24.922212600708008 -3.749479263342431
v 19.404699325561523 23.472702026367188 -3.7558192901979
v 21.75189971923828 24.922212600708008 -2.693359344519189
v 20.739500045776367 24.922212600708008 -3.5245091610322503
v 20.49690055847168 27.113262176513672 -3.300649135626366
v 21.42729949951172 26.742603302001953 -2.5169591598878407
v 21.75189971923828 24.922212600708008 -2.693359344519189
v 20.49690055847168 27.113262176513672 -3.300649135626366
v 19.404699325561523 24.922212600708008 -3.9814092808137445
v 20.739500045776367 24.922212600708008 -3.5245091610322503
v 20.932100296020508 23.472702026367188 -3.4187392883668455
v 19.404699325561523 23.472702026367188 -3.7558192901979
v 19.404699325561523 24.922212600708008 -3.9814092808137445
v 20.932100296020508 23.472702026367188 -3.4187392883668455
v 21.75189971923828 24.922212600708008 -2.693359344519189
v 21.55069923400879 23.472702026367188 -2.889469354666284
v 20.932100296020508 23.472702026367188 -3.4187392883668455
v 20.739500045776367 24.922212600708008 -3.5245091610322503
v 21.75189971923828 24.922212600708008 -2.693359344519189
v 20.932100296020508 23.472702026367188 -3.4187392883668455
v 18.3125 26.918922424316406 -3.300649135626366
v 18.069900512695312 24.922212600708008 -3.749479263342431
v 17.0575008392334 24.922212600708008 -2.693359344519189
v 17.382099151611328 26.330951690673828 -2.5169591598878407
v 18.3125 26.918922424316406 -3.300649135626366
v 17.0575008392334 24.922212600708008 -2.693359344519189
v 20.49690055847168 27.113262176513672 -3.300649135626366
v 20.739500045776367 24.922212600708008 -3.5245091610322503
v 19.404699325561523 24.922212600708008 -3.9814092808137445
v 19.404699325561523 27.14166259765625 -3.5953492813478016
v 20.49690055847168 27.113262176513672 -3.300649135626366
v 19.404699325561523 24.922212600708008 -3.9814092808137445
v 17.258699417114258 23.472702026367188 -2.889469354666284
v 17.0575008392334 24.922212600708008 -2.693359344519189
v 18.069900512695312 24.922212600708008 -3.749479263342431
v 17.877300262451172 23.472702026367188 -3.4187392883668455
v 17.258699417114258 23.472702026367188 -2.889469354666284
v 18.069900512695312 24.922212600708008 -3.749479263342431
vt 0.6951770186424255 0.7758209705352783
vt 0.6621109843254089 0.9770519733428955
vt 0.5132480263710022 0.9994999766349792
vt 0.5132480263710022 0.7758209705352783
vt 0.6951770186424255 0.7758209705352783
vt 0.5132480263710022 0.9994999766349792
vt 0.6951770186424255 0.7758209705352783
vt 0.5132480263710022 0.7758209705352783
vt 0.5132480263710022 0.6297370195388794
vt 0.7214279770851135 0.6297370195388794
vt 0.6951770186424255 0.7758209705352783
vt 0.5132480263710022 0.6297370195388794
vt 0.1933320015668869 0.7758209705352783
vt 0.33131900429725647 0.7758209705352783
vt 0.3643850088119507 0.9966380000114441
vt 0.8157730102539062 0.9592829942703247
vt 0.8379039764404297 0.7758209705352783
vt 0.914093017578125 0.9966380000114441
vt 0.5132480263710022 0.7758209705352783
vt 0.33131900429725647 0.7758209705352783
vt 0.3050679862499237 0.6297370195388794
vt 0.5132480263710022 0.6297370195388794
vt 0.5132480263710022 0.7758209705352783
vt 0.3050679862499237 0.6297370195388794
vt 0.1933320015668869 0.7758209705352783
vt 0.22075499594211578 0.6297370195388794
vt 0.3050679862499237 0.6297370195388794
vt 0.33131900429725647 0.7758209705352783
vt 0.1933320015668869 0.7758209705352783
vt 0.3050679862499237 0.6297370195388794
vt 0.08590640127658844 0.9770519733428955
vt 0.029596999287605286 0.7758209705352783
vt 0.16209599375724792 0.7758209705352783
vt 0.18422700464725494 0.9177960157394409
vt 0.08590640127658844 0.9770519733428955
vt 0.16209599375724792 0.7758209705352783
vt 0.3643850088119507 0.9966380000114441
vt 0.33131900429725647 0.7758209705352783
vt 0.5132480263710022 0.7758209705352783
vt 0.5132480263710022 0.9994999766349792
vt 0.3643850088119507 0.9966380000114441
vt 0.5132480263710022 0.7758209705352783
vt 0.13749200105667114 0.6297370195388794
vt 0.16209599375724792 0.7758209705352783
vt 0.029596999287605286 0.7758209705352783
vt 0.7214279770851135 0.6297370195388794
vt 0.805741012096405 0.6297370195388794
vt 0.6951770186424255 0.7758209705352783
vn -0.4262683102232537 0.061584673947397854 -0.9024980086594123
vn -0.5863575759864772 0.24755343517678677 -0.7712989626697518
vn -0.07006583346289263 0.1951332087681974 -0.9782708264161706
vn 0.1351909625111315 0.0445409028716365 -0.9898179184207029
vn -0.4262683102232537 0.061584673947397854 -0.9024980086594123
vn -0.07006583346289263 0.1951332087681974 -0.9782708264161706
vn -0.4262683102232537 0.061584673947397854 -0.9024980086594123
vn 0.1351909625111315 0.0445409028716365 -0.9898179184207029
vn -0.05201266668492798 -0.16800962554178686 -0.984412234904479
vn -0.36954175772140896 -0.15976281181447644 -0.9153768258271036
vn -0.4262683102232537 0.061584673947397854 -0.9024980086594123
vn -0.05201266668492798 -0.16800962554178686 -0.984412234904479
vn 0.6473085846539368 0.11202007932357753 -0.7539516549896661
vn 0.47931692759521033 0.08563103874402722 -0.8734544110165721
vn 0.472280419202796 0.15916701358905297 -0.8669585153989628
vn 0.6756253972786448 0.18951328293541098 -0.7124710788117062
vn 0.6473085846539368 0.11202007932357753 -0.7539516549896661
vn 0.472280419202796 0.15916701358905297 -0.8669585153989628
vn 0.1351909625111315 0.0445409028716365 -0.9898179184207029
vn 0.47931692759521033 0.08563103874402722 -0.8734544110165721
vn 0.4318996603023125 -0.045630223940741926 -0.9007666546303016
vn -0.05201266668492798 -0.16800962554178686 -0.984412234904479
vn 0.1351909625111315 0.0445409028716365 -0.9898179184207029
vn 0.4318996603023125 -0.045630223940741926 -0.9007666546303016
vn 0.6473085846539368 0.11202007932357753 -0.7539516549896661
vn 0.6500616802905859 0.012560982514605596 -0.7597776211076817
vn 0.4318996603023125 -0.045630223940741926 -0.9007666546303016
vn 0.47931692759521033 0.08563103874402722 -0.8734544110165721
vn 0.6473085846539368 0.11202007932357753 -0.7539516549896661
vn 0.4318996603023125 -0.045630223940741926 -0.9007666546303016
vn -0.5863575759864772 0.24755343517678677 -0.7712989626697518
vn -0.4262683102232537 0.061584673947397854 -0.9024980086594123
vn -0.714848022078289 0.1644559308829775 -0.6796665006664455
vn -0.7107011974750472 0.24627438648089023 -0.6589785538778898
vn -0.5863575759864772 0.24755343517678677 -0.7712989626697518
vn -0.714848022078289 0.1644559308829775 -0.6796665006664455
vn 0.472280419202796 0.15916701358905297 -0.8669585153989628
vn 0.47931692759521033 0.08563103874402722 -0.8734544110165721
vn 0.1351909625111315 0.0445409028716365 -0.9898179184207029
vn -0.07006583346289263 0.1951332087681974 -0.9782708264161706
vn 0.472280419202796 0.15916701358905297 -0.8669585153989628
vn 0.1351909625111315 0.0445409028716365 -0.9898179184207029
vn -0.6965739507865117 -0.03534540795345244 -0.7166138661945318
vn -0.714848022078289 0.1644559308829775 -0.6796665006664455
vn -0.4262683102232537 0.061584673947397854 -0.9024980086594123
vn -0.36954175772140896 -0.15976281181447644 -0.9153768258271036
vn -0.6965739507865117 -0.03534540795345244 -0.7166138661945318
vn -0.4262683102232537 0.061584673947397854 -0.9024980086594123
f 1/1/1 2/2/2 3/3/3
f 4/4/4 5/5/5 6/6/6
f 7/7/7 8/8/8 9/9/9
f 10/10/10 11/11/11 12/12/12
f 13/13/13 14/14/14 15/15/15
f 16/16/16 17/17/17 18/18/18
f 19/19/19 20/20/20 21/21/21
f 22/22/22 23/23/23 24/24/24
f 25/25/25 26/26/26 27/27/27
f 28/28/28 29/29/29 30/30/30
f 31/31/31 32/32/32 33/33/33
f 34/34/34 35/35/35 36/36/36
f 37/37/37 38/38/38 39/39/39
f 40/40/40 41/41/41 42/42/42
f 43/43/43 44/44/44 45/45/45
f 46/46/46 47/47/47 48/48/48
