mtllib ArcadaCompleta.mtl
o D24C_CDL
usemtl Esmalte
v 27.78860092163086 18.57705307006836 -2.6615392856965583
v 28.12030029296875 19.251293182373047 -3.0983192615876716
v 29.139299392700195 19.26938247680664 -2.33501931957107
v 29.00909996032715 19.08318328857422 -1.9816392355332895
v 27.78860092163086 18.57705307006836 -2.6615392856965583
v 29.139299392700195 19.26938247680664 -2.33501931957107
v 29.71500015258789 21.309043884277344 -2.1043293171296633
v 29.678300857543945 19.746322631835938 -1.6660892658601325
v 29.139299392700195 19.26938247680664 -2.33501931957107
v 29.207500457763672 21.309043884277344 -3.023349254644922
v 29.71500015258789 21.309043884277344 -2.1043293171296633
v 29.139299392700195 19.26938247680664 -2.33501931957107
v 27.78860092163086 18.57705307006836 -2.6615392856965583
v 26.865800857543945 18.139772415161133 -2.6943692856202643
v 26.865800857543945 19.23701286315918 -3.5012492828736823
v 28.12030029296875 19.251293182373047 -3.0983192615876716
v 27.78860092163086 18.57705307006836 -2.6615392856965583
v 26.865800857543945 19.23701286315918 -3.5012492828736823
v 27.78860092163086 18.57705307006836 -2.6615392856965583
v 27.71339988708496 18.43897247314453 -2.3870291405091804
v 26.865800857543945 18.139772415161133 -2.6943692856202643
v 28.12030029296875 19.251293182373047 -3.0983192615876716
v 28.30299949645996 20.868743896484375 -3.8396291427979983
v 29.207500457763672 21.309043884277344 -3.023349254644922
v 29.139299392700195 19.26938247680664 -2.33501931957107
v 28.12030029296875 19.251293182373047 -3.0983192615876716
v 29.207500457763672 21.309043884277344 -3.023349254644922
v 27.47450065612793 18.8525333404541 -1.5178292684922738
v 27.624300003051758 19.216793060302734 -1.133269279516749
v 26.865800857543945 18.99740219116211 -1.0733792477021737
v 26.865800857543945 18.71798324584961 -1.4163793020616098
v 27.47450065612793 18.8525333404541 -1.5178292684922738
v 26.865800857543945 18.99740219116211 -1.0733792477021737
v 28.523300170898438 19.047603607177734 -1.7853792600999399
v 28.737699508666992 19.286853790283203 -1.3208592825303598
v 27.624300003051758 19.216793060302734 -1.133269279516749
v 27.47450065612793 18.8525333404541 -1.5178292684922738
v 28.523300170898438 19.047603607177734 -1.7853792600999399
v 27.624300003051758 19.216793060302734 -1.133269279516749
v 29.678300857543945 19.746322631835938 -1.6660892658601325
v 29.258499145507812 19.490642547607422 -1.4794093065629526
v 29.00909996032715 19.08318328857422 -1.9816392355332895
v 29.139299392700195 19.26938247680664 -2.33501931957107
v 29.678300857543945 19.746322631835938 -1.6660892658601325
v 29.00909996032715 19.08318328857422 -1.9816392355332895
v 26.865800857543945 20.052873611450195 -3.8836092644105475
v 28.30299949645996 20.868743896484375 -3.8396291427979983
v 28.12030029296875 19.251293182373047 -3.0983192615876716
v 26.865800857543945 19.23701286315918 -3.5012492828736823
v 26.865800857543945 20.052873611450195 -3.8836092644105475
v 28.12030029296875 19.251293182373047 -3.0983192615876716
v 26.865800857543945 18.139772415161133 -2.6943692856202643
v 27.185300827026367 18.371353149414062 -1.987459271467738
v 26.865800857543945 18.27418327331543 -1.987459271467738
v 27.47450065612793 18.8525333404541 -1.5178292684922738
v 26.865800857543945 18.71798324584961 -1.4163793020616098
v 26.865800857543945 18.27418327331543 -1.987459271467738
v 27.185300827026367 18.371353149414062 -1.987459271467738
v 27.47450065612793 18.8525333404541 -1.5178292684922738
v 26.865800857543945 18.27418327331543 -1.987459271467738
v 28.523300170898438 19.047603607177734 -1.7853792600999399
v 27.47450065612793 18.8525333404541 -1.5178292684922738
v 27.185300827026367 18.371353149414062 -1.987459271467738
v 27.71339988708496 18.43897247314453 -2.3870291405091804
v 28.523300170898438 19.047603607177734 -1.7853792600999399
v 27.185300827026367 18.371353149414062 -1.987459271467738
v 26.865800857543945 18.139772415161133 -2.6943692856202643
v 27.71339988708496 18.43897247314453 -2.3870291405091804
v 27.185300827026367 18.371353149414062 -1.987459271467738
v 28.523300170898438 19.047603607177734 -1.7853792600999399
v 27.71339988708496 18.43897247314453 -2.3870291405091804
v 27.78860092163086 18.57705307006836 -2.6615392856965583
v 29.00909996032715 19.08318328857422 -1.9816392355332895
v 28.523300170898438 19.047603607177734 -1.7853792600999399
v 27.78860092163086 18.57705307006836 -2.6615392856965583
v 29.258499145507812 19.490642547607422 -1.4794093065629526
v 28.737699508666992 19.286853790283203 -1.3208592825303598
v 28.523300170898438 19.047603607177734 -1.7853792600999399
v 29.00909996032715 19.08318328857422 -1.9816392355332895
v 29.258499145507812 19.490642547607422 -1.4794093065629526
v 28.523300170898438 19.047603607177734 -1.7853792600999399
vt 0.3669469952583313 0.7918630242347717
vt 0.31911900639533997 0.840565025806427
vt 0.17218799889087677 0.7554550170898438
vt 0.19096200168132782 0.7160519957542419
vt 0.3669469952583313 0.7918630242347717
vt 0.17218799889087677 0.7554550170898438
vt 0.7297329902648926 0.43994200229644775
vt 0.6808680295944214 0.2564280033111572
vt 0.7554550170898438 0.20041900873184204
vt 0.8322060108184814 0.43994200229644775
vt 0.7297329902648926 0.43994200229644775
vt 0.7554550170898438 0.20041900873184204
vt 0.3669469952583313 0.11911702156066895
vt 0.5000069737434387 0.06776618957519531
vt 0.5000069737434387 0.19661802053451538
vt 0.31911900639533997 0.198294997215271
vt 0.3669469952583313 0.11911702156066895
vt 0.5000069737434387 0.19661802053451538
vt 0.3669469952583313 0.7918630242347717
vt 0.37779000401496887 0.7612540125846863
vt 0.5000069737434387 0.795524001121521
vt 0.840565025806427 0.198294997215271
vt 0.9232230186462402 0.38823598623275757
vt 0.8322060108184814 0.43994200229644775
vt 0.17218799889087677 0.20041900873184204
vt 0.31911900639533997 0.198294997215271
vt 0.1623540073633194 0.43994200229644775
vt 0.4122380018234253 0.6643369793891907
vt 0.39063799381256104 0.6214569807052612
vt 0.5000069737434387 0.614778995513916
vt 0.5000069737434387 0.6530249714851379
vt 0.4122380018234253 0.6643369793891907
vt 0.5000069737434387 0.614778995513916
vt 0.26100999116897583 0.6941689848899841
vt 0.2300959974527359 0.6423739790916443
vt 0.39063799381256104 0.6214569807052612
vt 0.4122380018234253 0.6643369793891907
vt 0.26100999116897583 0.6941689848899841
vt 0.39063799381256104 0.6214569807052612
vt 0.09446880221366882 0.6808680295944214
vt 0.1550000011920929 0.660053014755249
vt 0.19096200168132782 0.7160519957542419
vt 0.7554550170898438 0.20041900873184204
vt 0.6808680295944214 0.2564280033111572
vt 0.7160519957542419 0.17855298519134521
vt 0.5000069737434387 0.2924270033836365
vt 0.2927750051021576 0.38823598623275757
vt 0.31911900639533997 0.198294997215271
vt 0.5000069737434387 0.19661802053451538
vt 0.5000069737434387 0.2924270033836365
vt 0.31911900639533997 0.198294997215271
vt 0.5000069737434387 0.795524001121521
vt 0.45393800735473633 0.7167019844055176
vt 0.5000069737434387 0.7167019844055176
vt 0.4122380018234253 0.6643369793891907
vt 0.5000069737434387 0.6530249714851379
vt 0.5000069737434387 0.7167019844055176
vt 0.45393800735473633 0.7167019844055176
vt 0.4122380018234253 0.6643369793891907
vt 0.5000069737434387 0.7167019844055176
vt 0.26100999116897583 0.6941689848899841
vt 0.4122380018234253 0.6643369793891907
vt 0.45393800735473633 0.7167019844055176
vt 0.37779000401496887 0.7612540125846863
vt 0.26100999116897583 0.6941689848899841
vt 0.45393800735473633 0.7167019844055176
vt 0.5000069737434387 0.795524001121521
vt 0.37779000401496887 0.7612540125846863
vt 0.45393800735473633 0.7167019844055176
vt 0.6941689848899841 0.1743749976158142
vt 0.7612540125846863 0.10290199518203735
vt 0.7918630242347717 0.11911702156066895
vt 0.19096200168132782 0.7160519957542419
vt 0.26100999116897583 0.6941689848899841
vt 0.3669469952583313 0.7918630242347717
vt 0.1550000011920929 0.660053014755249
vt 0.2300959974527359 0.6423739790916443
vt 0.26100999116897583 0.6941689848899841
vt 0.19096200168132782 0.7160519957542419
vt 0.1550000011920929 0.660053014755249
vt 0.26100999116897583 0.6941689848899841
vn 0.39871921413033873 -0.7477099760022251 -0.5309922598965424
vn 0.47391627842332873 -0.42483996419432024 -0.7713069206669616
vn 0.7184158195492664 -0.36071993052349577 -0.5947771363666231
vn 0.46679497730015995 -0.8737936834736364 0.13633432395738682
vn 0.39871921413033873 -0.7477099760022251 -0.5309922598965424
vn 0.7184158195492664 -0.36071993052349577 -0.5947771363666231
vn 0.8452753773199646 -0.18175118629449874 -0.502469942162846
vn 0.8474576263811364 -0.3849122131118294 -0.3655928879037499
vn 0.7184158195492664 -0.36071993052349577 -0.5947771363666231
vn 0.7194917282988614 -0.2805767388933754 -0.6353017759313098
vn 0.8452753773199646 -0.18175118629449874 -0.502469942162846
vn 0.7184158195492664 -0.36071993052349577 -0.5947771363666231
vn 0.39871921413033873 -0.7477099760022251 -0.5309922598965424
vn 0.3431145812902206 -0.8203089635653807 -0.45756484611509135
vn 0.2785600654584326 -0.5303851834040532 -0.8006846115401759
vn 0.47391627842332873 -0.42483996419432024 -0.7713069206669616
vn 0.39871921413033873 -0.7477099760022251 -0.5309922598965424
vn 0.2785600654584326 -0.5303851834040532 -0.8006846115401759
vn 0.39871921413033873 -0.7477099760022251 -0.5309922598965424
vn 0.42978535354567043 -0.8960550663192426 0.11121990829541759
vn 0.3431145812902206 -0.8203089635653807 -0.45756484611509135
vn 0.47391627842332873 -0.42483996419432024 -0.7713069206669616
vn 0.49930870275281636 -0.406967291217944 -0.7648976684720832
vn 0.7194917282988614 -0.2805767388933754 -0.6353017759313098
vn 0.7184158195492664 -0.36071993052349577 -0.5947771363666231
vn 0.47391627842332873 -0.42483996419432024 -0.7713069206669616
vn 0.7194917282988614 -0.2805767388933754 -0.6353017759313098
vn 0.2756876233869905 -0.7516960782576294 0.5991238104459985
vn 0.22346769809665396 -0.8167705238712978 0.5319286599182153
vn 0.265488652876749 -0.7485606032086988 0.6075959171336802
vn 0.2667347461273548 -0.7558119213397685 0.5979974203699068
vn 0.2756876233869905 -0.7516960782576294 0.5991238104459985
vn 0.265488652876749 -0.7485606032086988 0.6075959171336802
vn 0.32090365194964227 -0.8548869902394721 0.4076629491193424
vn 0.22794211422293048 -0.9044314835423739 0.36061902908876153
vn 0.22346769809665396 -0.8167705238712978 0.5319286599182153
vn 0.2756876233869905 -0.7516960782576294 0.5991238104459985
vn 0.32090365194964227 -0.8548869902394721 0.4076629491193424
vn 0.22346769809665396 -0.8167705238712978 0.5319286599182153
vn 0.8474576263811364 -0.3849122131118294 -0.3655928879037499
vn 0.43186477140261126 -0.8204568088026485 0.37462440405123715
vn 0.46679497730015995 -0.8737936834736364 0.13633432395738682
vn 0.7184158195492664 -0.36071993052349577 -0.5947771363666231
vn 0.8474576263811364 -0.3849122131118294 -0.3655928879037499
vn 0.46679497730015995 -0.8737936834736364 0.13633432395738682
vn 0.2732474953797104 -0.42012331592088664 -0.8653509147671563
vn 0.49930870275281636 -0.406967291217944 -0.7648976684720832
vn 0.47391627842332873 -0.42483996419432024 -0.7713069206669616
vn 0.2785600654584326 -0.5303851834040532 -0.8006846115401759
vn 0.2732474953797104 -0.42012331592088664 -0.8653509147671563
vn 0.47391627842332873 -0.42483996419432024 -0.7713069206669616
vn 0.3431145812902206 -0.8203089635653807 -0.45756484611509135
vn 0.31229788516391715 -0.859323394799377 0.4050102888478499
vn 0.26885560033876454 -0.8235971890564597 0.49940398110625883
vn 0.2756876233869905 -0.7516960782576294 0.5991238104459985
vn 0.2667347461273548 -0.7558119213397685 0.5979974203699068
vn 0.26885560033876454 -0.8235971890564597 0.49940398110625883
vn 0.31229788516391715 -0.859323394799377 0.4050102888478499
vn 0.2756876233869905 -0.7516960782576294 0.5991238104459985
vn 0.26885560033876454 -0.8235971890564597 0.49940398110625883
vn 0.32090365194964227 -0.8548869902394721 0.4076629491193424
vn 0.2756876233869905 -0.7516960782576294 0.5991238104459985
vn 0.31229788516391715 -0.859323394799377 0.4050102888478499
vn 0.42978535354567043 -0.8960550663192426 0.11121990829541759
vn 0.32090365194964227 -0.8548869902394721 0.4076629491193424
vn 0.31229788516391715 -0.859323394799377 0.4050102888478499
vn 0.3431145812902206 -0.8203089635653807 -0.45756484611509135
vn 0.42978535354567043 -0.8960550663192426 0.11121990829541759
vn 0.31229788516391715 -0.859323394799377 0.4050102888478499
vn 0.32090365194964227 -0.8548869902394721 0.4076629491193424
vn 0.42978535354567043 -0.8960550663192426 0.11121990829541759
vn 0.39871921413033873 -0.7477099760022251 -0.5309922598965424
vn 0.46679497730015995 -0.8737936834736364 0.13633432395738682
vn 0.32090365194964227 -0.8548869902394721 0.4076629491193424
vn 0.39871921413033873 -0.7477099760022251 -0.5309922598965424
vn 0.43186477140261126 -0.8204568088026485 0.37462440405123715
vn 0.22794211422293048 -0.9044314835423739 0.36061902908876153
vn 0.32090365194964227 -0.8548869902394721 0.4076629491193424
vn 0.46679497730015995 -0.8737936834736364 0.13633432395738682
vn 0.43186477140261126 -0.8204568088026485 0.37462440405123715
vn 0.32090365194964227 -0.8548869902394721 0.4076629491193424
f 1/1/1 2/2/2 3/3/3
f 4/4/4 5/5/5 6/6/6
f 7/7/7 8/8/8 9/9/9
f 10/10/10 11/11/11 12/12/12
f 13/13/13 14/14/14 15/15/15
f 16/16/16 17/17/17 18/18/18
f 19/19/19 20/20/20 21/21/21
f 22/22/22 23/23/23 24/24/24
f 25/25/25 26/26/26 27/27/27
f 28/28/28 29/29/29 30/30/30
f 31/31/31 32/32/32 33/33/33
f 34/34/34 35/35/35 36/36/36
f 37/37/37 38/38/38 39/39/39
f 40/40/40 41/41/41 42/42/42
f 43/43/43 44/44/44 45/45/45
f 46/46/46 47/47/47 48/48/48
f 49/49/49 50/50/50 51/51/51
f 52/52/52 53/53/53 54/54/54
f 55/55/55 56/56/56 57/57/57
f 58/58/58 59/59/59 60/60/60
f 61/61/61 62/62/62 63/63/63
f 64/64/64 65/65/65 66/66/66
f 67/67/67 68/68/68 69/69/69
f 70/70/70 71/71/71 72/72/72
f 73/73/73 74/74/74 75/75/75
f 76/76/76 77/77/77 78/78/78
f 79/79/79 80/80/80 81/81/81
