mtllib ArcadaCompleta.mtl
o D24C_CDV
usemtl Esmalte
v 28.4955997467041 20.868732452392578 3.714220792733618
v 28.12030029296875 18.52039337158203 3.098390848123022
v 29.674800872802734 19.61062240600586 2.3351006812681634
v 29.865699768066406 21.309043884277344 2.880330831490942
v 28.4955997467041 20.868732452392578 3.714220792733618
v 29.674800872802734 19.61062240600586 2.3351006812681634
v 28.4955997467041 20.868732452392578 3.714220792733618
v 26.86479949951172 19.875411987304688 3.818580657922216
v 26.865800857543945 18.086803436279297 3.2916808433165032
v 28.12030029296875 18.52039337158203 3.098390848123022
v 28.4955997467041 20.868732452392578 3.714220792733618
v 26.865800857543945 18.086803436279297 3.2916808433165032
v 27.272300720214844 17.881685256958008 1.833850771867223
v 27.94420051574707 17.823820114135742 2.1881108588804676
v 26.865800857543945 17.56696319580078 2.540350706063695
v 30.111400604248047 19.884292602539062 1.6661707467665154
v 30.301000595092773 21.320043563842773 2.047190696679541
v 29.865699768066406 21.309043884277344 2.880330831490942
v 29.674800872802734 19.61062240600586 2.3351006812681634
v 30.111400604248047 19.884292602539062 1.6661707467665154
v 29.865699768066406 21.309043884277344 2.880330831490942
v 28.33099937438965 18.55857276916504 1.6253707713713124
v 28.530899047851562 19.032363891601562 1.0513707704176383
v 29.043500900268555 19.530593872070312 1.375060708009191
v 29.00909996032715 18.719932556152344 1.981720716439672
v 28.33099937438965 18.55857276916504 1.6253707713713124
v 29.043500900268555 19.530593872070312 1.375060708009191
v 28.33099937438965 18.55857276916504 1.6253707713713124
v 27.62179946899414 18.294893264770508 1.2663407630552723
v 27.78660011291504 18.919593811035156 0.7560007280935721
v 28.530899047851562 19.032363891601562 1.0513707704176383
v 28.33099937438965 18.55857276916504 1.6253707713713124
v 27.78660011291504 18.919593811035156 0.7560007280935721
v 28.12030029296875 18.52039337158203 3.098390848123022
v 28.039899826049805 17.953746795654297 2.53735068508286
v 29.00909996032715 18.719932556152344 1.981720716439672
v 29.674800872802734 19.61062240600586 2.3351006812681634
v 28.12030029296875 18.52039337158203 3.098390848123022
v 29.00909996032715 18.719932556152344 1.981720716439672
v 27.94420051574707 17.823820114135742 2.1881108588804676
v 28.33099937438965 18.55857276916504 1.6253707713713124
v 29.00909996032715 18.719932556152344 1.981720716439672
v 28.039899826049805 17.953746795654297 2.53735068508286
v 27.94420051574707 17.823820114135742 2.1881108588804676
v 29.00909996032715 18.719932556152344 1.981720716439672
v 29.043500900268555 19.530593872070312 1.375060708009191
v 29.368499755859375 19.22283363342285 1.479490787469335
v 29.00909996032715 18.719932556152344 1.981720716439672
v 26.865800857543945 17.56696319580078 2.540350706063695
v 28.039899826049805 17.953746795654297 2.53735068508286
v 28.12030029296875 18.52039337158203 3.098390848123022
v 26.865800857543945 18.086803436279297 3.2916808433165032
v 26.865800857543945 17.56696319580078 2.540350706063695
v 28.12030029296875 18.52039337158203 3.098390848123022
v 26.865800857543945 17.56696319580078 2.540350706063695
v 26.865800857543945 17.729888916015625 1.6966407603849842
v 27.272300720214844 17.881685256958008 1.833850771867223
v 28.33099937438965 18.55857276916504 1.6253707713713124
v 27.94420051574707 17.823820114135742 2.1881108588804676
v 27.272300720214844 17.881685256958008 1.833850771867223
v 27.62179946899414 18.294893264770508 1.2663407630552723
v 28.33099937438965 18.55857276916504 1.6253707713713124
v 27.272300720214844 17.881685256958008 1.833850771867223
v 26.865800857543945 17.56696319580078 2.540350706063695
v 27.94420051574707 17.823820114135742 2.1881108588804676
v 28.039899826049805 17.953746795654297 2.53735068508286
v 27.78660011291504 18.919593811035156 0.7560007280935721
v 27.62179946899414 18.294893264770508 1.2663407630552723
v 26.865800857543945 18.189353942871094 1.0833907432188465
v 26.865800857543945 18.654462814331055 0.6073507375349477
v 27.78660011291504 18.919593811035156 0.7560007280935721
v 26.865800857543945 18.189353942871094 1.0833907432188465
v 26.865800857543945 17.729888916015625 1.6966407603849842
v 26.865800857543945 18.189353942871094 1.0833907432188465
v 27.62179946899414 18.294893264770508 1.2663407630552723
v 27.272300720214844 17.881685256958008 1.833850771867223
v 26.865800857543945 17.729888916015625 1.6966407603849842
v 27.62179946899414 18.294893264770508 1.2663407630552723
v 29.00909996032715 18.719932556152344 1.981720716439672
v 29.368499755859375 19.22283363342285 1.479490787469335
v 30.111400604248047 19.884292602539062 1.6661707467665154
v 29.674800872802734 19.61062240600586 2.3351006812681634
v 29.00909996032715 18.719932556152344 1.981720716439672
v 30.111400604248047 19.884292602539062 1.6661707467665154
vt 0.7349960207939148 0.3882349729537964
vt 0.6808810234069824 0.11246299743652344
vt 0.9050260186195374 0.24049198627471924
vt 0.9325529932975769 0.43994200229644775
vt 0.7349960207939148 0.3882349729537964
vt 0.9050260186195374 0.24049198627471924
vt 0.7349960207939148 0.3882349729537964
vt 0.49984800815582275 0.2715870141983032
vt 0.4999929964542389 0.06154578924179077
vt 0.6808810234069824 0.11246299743652344
vt 0.7349960207939148 0.3882349729537964
vt 0.4999929964542389 0.06154578924179077
vt 0.4413929879665375 0.2906160354614258
vt 0.3445110023021698 0.2511160373687744
vt 0.5000069737434387 0.21184003353118896
vt 0.30931299924850464 0.272629976272583
vt 0.2668280005455017 0.4412339925765991
vt 0.17393100261688232 0.43994200229644775
vt 0.23472599685192108 0.24049198627471924
vt 0.30931299924850464 0.272629976272583
vt 0.17393100261688232 0.43994200229644775
vt 0.31386199593544006 0.1169469952583313
vt 0.3778649866580963 0.17258501052856445
vt 0.34177300333976746 0.23109400272369385
vt 0.19096200168132782 0.1358959674835205
vt 0.2887380123138428 0.1169469952583313
vt 0.1860020011663437 0.23109400272369385
vt 0.31386199593544006 0.1169469952583313
vt 0.35389500856399536 0.08598238229751587
vt 0.4107989966869354 0.15934300422668457
vt 0.25991401076316833 0.3778649568557739
vt 0.2887380123138428 0.3138619661331177
vt 0.3672359883785248 0.4107990264892578
vt 0.149617001414299 0.11246299743652344
vt 0.21217499673366547 0.045920729637145996
vt 0.2741290032863617 0.1358959674835205
vt 0.23472599685192108 0.24049198627471924
vt 0.149617001414299 0.11246299743652344
vt 0.2741290032863617 0.1358959674835205
vt 0.3445110023021698 0.2511160373687744
vt 0.2887380123138428 0.3138619661331177
vt 0.19096200168132782 0.2741290330886841
vt 0.21217499673366547 0.045920729637145996
vt 0.251116007566452 0.03066307306289673
vt 0.2741290032863617 0.1358959674835205
vt 0.1860020011663437 0.23109400272369385
vt 0.13913899660110474 0.19495296478271484
vt 0.19096200168132782 0.1358959674835205
vt 0.5000069737434387 0.21184003353118896
vt 0.3307119905948639 0.21217501163482666
vt 0.31911900639533997 0.1496170163154602
vt 0.5000069737434387 0.12806499004364014
vt 0.5000069737434387 0.21184003353118896
vt 0.31911900639533997 0.1496170163154602
vt 0.5000069737434387 0.21184003353118896
vt 0.5000069737434387 0.3059160113334656
vt 0.4413929879665375 0.2906160354614258
vt 0.2887380123138428 0.3138619661331177
vt 0.3445110023021698 0.2511160373687744
vt 0.4413929879665375 0.2906160354614258
vt 0.3909989893436432 0.35389500856399536
vt 0.2887380123138428 0.3138619661331177
vt 0.4413929879665375 0.2906160354614258
vt 0.5000069737434387 0.21184003353118896
vt 0.3445110023021698 0.2511160373687744
vt 0.3307119905948639 0.21217501163482666
vt 0.3672359883785248 0.15934300422668457
vt 0.3909989893436432 0.08598238229751587
vt 0.5000069737434387 0.07358849048614502
vt 0.5000069737434387 0.427374005317688
vt 0.3672359883785248 0.4107990264892578
vt 0.5000069737434387 0.3742940425872803
vt 0.5000069737434387 0.3059160113334656
vt 0.5000069737434387 0.3742940425872803
vt 0.3909989893436432 0.35389500856399536
vt 0.4413929879665375 0.2906160354614258
vt 0.5000069737434387 0.3059160113334656
vt 0.3909989893436432 0.35389500856399536
vt 0.2741290032863617 0.1358959674835205
vt 0.330128014087677 0.19495296478271484
vt 0.30931299924850464 0.272629976272583
vt 0.23472599685192108 0.24049198627471924
vt 0.2741290032863617 0.1358959674835205
vt 0.30931299924850464 0.272629976272583
vn 0.424778547770972 -0.29492741608495787 0.8559094605126374
vn 0.4912205292321674 -0.4648015471469359 0.736655898931573
vn 0.6586675034867723 -0.38369249729871197 0.6472535726955708
vn 0.728337713261199 -0.2805990608049708 0.6251306603557498
vn 0.424778547770972 -0.29492741608495787 0.8559094605126374
vn 0.6586675034867723 -0.38369249729871197 0.6472535726955708
vn 0.424778547770972 -0.29492741608495787 0.8559094605126374
vn 0.22732216929356386 -0.2750650263933947 0.9341647941358471
vn 0.2605256394393836 -0.37128739923996956 0.8912194221179877
vn 0.4912205292321674 -0.4648015471469359 0.736655898931573
vn 0.424778547770972 -0.29492741608495787 0.8559094605126374
vn 0.2605256394393836 -0.37128739923996956 0.8912194221179877
vn 0.3295010328583166 -0.8457515836507205 -0.4196824133765928
vn 0.3901074269197412 -0.8504671538420615 -0.35287648787903425
vn 0.3011843939472889 -0.8942677018133015 0.3310184863963954
vn 0.8520468114139593 -0.40881417457918107 0.32693608216660275
vn 0.863207436729525 -0.23286535605202924 0.4479359855220439
vn 0.728337713261199 -0.2805990608049708 0.6251306603557498
vn 0.6586675034867723 -0.38369249729871197 0.6472535726955708
vn 0.8520468114139593 -0.40881417457918107 0.32693608216660275
vn 0.728337713261199 -0.2805990608049708 0.6251306603557498
vn 0.4799882997156273 -0.6883366602954608 -0.5438785473149242
vn 0.5536233569746546 -0.7265754658555859 -0.4069266162698777
vn 0.46586601176151204 -0.6326768565344589 -0.6186185046465217
vn 0.6791321027193636 -0.7340109335320738 0.0027452707242114883
vn 0.4799882997156273 -0.6883366602954608 -0.5438785473149242
vn 0.46586601176151204 -0.6326768565344589 -0.6186185046465217
vn 0.4799882997156273 -0.6883366602954608 -0.5438785473149242
vn 0.39501461162486917 -0.7454730229983175 -0.5368737547921333
vn 0.3618297520625109 -0.6876034629683099 -0.6295083067254713
vn 0.5536233569746546 -0.7265754658555859 -0.4069266162698777
vn 0.4799882997156273 -0.6883366602954608 -0.5438785473149242
vn 0.3618297520625109 -0.6876034629683099 -0.6295083067254713
vn 0.4912205292321674 -0.4648015471469359 0.736655898931573
vn 0.5107650179011051 -0.7275910403459279 0.4579632894641383
vn 0.6791321027193636 -0.7340109335320738 0.0027452707242114883
vn 0.6586675034867723 -0.38369249729871197 0.6472535726955708
vn 0.4912205292321674 -0.4648015471469359 0.736655898931573
vn 0.6791321027193636 -0.7340109335320738 0.0027452707242114883
vn 0.3901074269197412 -0.8504671538420615 -0.35287648787903425
vn 0.4799882997156273 -0.6883366602954608 -0.5438785473149242
vn 0.6791321027193636 -0.7340109335320738 0.0027452707242114883
vn 0.5107650179011051 -0.7275910403459279 0.4579632894641383
vn 0.3901074269197412 -0.8504671538420615 -0.35287648787903425
vn 0.6791321027193636 -0.7340109335320738 0.0027452707242114883
vn 0.46586601176151204 -0.6326768565344589 -0.6186185046465217
vn 0.3918409296294285 -0.7750729221079447 -0.49570419736189153
vn 0.6791321027193636 -0.7340109335320738 0.0027452707242114883
vn 0.3011843939472889 -0.8942677018133015 0.3310184863963954
vn 0.5107650179011051 -0.7275910403459279 0.4579632894641383
vn 0.4912205292321674 -0.4648015471469359 0.736655898931573
vn 0.2605256394393836 -0.37128739923996956 0.8912194221179877
vn 0.3011843939472889 -0.8942677018133015 0.3310184863963954
vn 0.4912205292321674 -0.4648015471469359 0.736655898931573
vn 0.3011843939472889 -0.8942677018133015 0.3310184863963954
vn 0.34388069443682107 -0.8442253611086067 -0.41113210486982454
vn 0.3295010328583166 -0.8457515836507205 -0.4196824133765928
vn 0.4799882997156273 -0.6883366602954608 -0.5438785473149242
vn 0.3901074269197412 -0.8504671538420615 -0.35287648787903425
vn 0.3295010328583166 -0.8457515836507205 -0.4196824133765928
vn 0.39501461162486917 -0.7454730229983175 -0.5368737547921333
vn 0.4799882997156273 -0.6883366602954608 -0.5438785473149242
vn 0.3295010328583166 -0.8457515836507205 -0.4196824133765928
vn 0.3011843939472889 -0.8942677018133015 0.3310184863963954
vn 0.3901074269197412 -0.8504671538420615 -0.35287648787903425
vn 0.5107650179011051 -0.7275910403459279 0.4579632894641383
vn 0.3618297520625109 -0.6876034629683099 -0.6295083067254713
vn 0.39501461162486917 -0.7454730229983175 -0.5368737547921333
vn 0.27330014327630753 -0.7031039055646078 -0.6564692907249696
vn 0.30371340267496516 -0.6814843823378601 -0.6658357197276066
vn 0.3618297520625109 -0.6876034629683099 -0.6295083067254713
vn 0.27330014327630753 -0.7031039055646078 -0.6564692907249696
vn 0.34388069443682107 -0.8442253611086067 -0.41113210486982454
vn 0.27330014327630753 -0.7031039055646078 -0.6564692907249696
vn 0.39501461162486917 -0.7454730229983175 -0.5368737547921333
vn 0.3295010328583166 -0.8457515836507205 -0.4196824133765928
vn 0.34388069443682107 -0.8442253611086067 -0.41113210486982454
vn 0.39501461162486917 -0.7454730229983175 -0.5368737547921333
vn 0.6791321027193636 -0.7340109335320738 0.0027452707242114883
vn 0.3918409296294285 -0.7750729221079447 -0.49570419736189153
vn 0.8520468114139593 -0.40881417457918107 0.32693608216660275
vn 0.6586675034867723 -0.38369249729871197 0.6472535726955708
vn 0.6791321027193636 -0.7340109335320738 0.0027452707242114883
vn 0.8520468114139593 -0.40881417457918107 0.32693608216660275
f 1/1/1 2/2/2 3/3/3
f 4/4/4 5/5/5 6/6/6
f 7/7/7 8/8/8 9/9/9
f 10/10/10 11/11/11 12/12/12
f 13/13/13 14/14/14 15/15/15
f 16/16/16 17/17/17 18/18/18
f 19/19/19 20/20/20 21/21/21
f 22/22/22 23/23/23 24/24/24
f 25/25/25 26/26/26 27/27/27
f 28/28/28 29/29/29 30/30/30
f 31/31/31 32/32/32 33/33/33
f 34/34/34 35/35/35 36/36/36
f 37/37/37 38/38/38 39/39/39
f 40/40/40 41/41/41 42/42/42
f 43/43/43 44/44/44 45/45/45
f 46/46/46 47/47/47 48/48/48
f 49/49/49 50/50/50 51/51/51
f 52/52/52 53/53/53 54/54/54
f 55/55/55 56/56/56 57/57/57
f 58/58/58 59/59/59 60/60/60
f 61/61/61 62/62/62 63/63/63
f 64/64/64 65/65/65 66/66/66
f 67/67/67 68/68/68 69/69/69
f 70/70/70 71/71/71 72/72/72
f 73/73/73 74/74/74 75/75/75
f 76/76/76 77/77/77 78/78/78
f 79/79/79 80/80/80 81/81/81
f 82/82/82 83/83/83 84/84/84
