mtllib ArcadaCompleta.mtl
o D24C_V
usemtl Esmalte
v 25.513399124145508 24.216703414916992 3.8762708015074225
v 25.872699737548828 26.042722702026367 3.37056067653794
v 25.026500701904297 25.758892059326172 2.570290834390113
v 24.76609992980957 24.579952239990234 2.8431008166899177
v 25.513399124145508 24.216703414916992 3.8762708015074225
v 25.026500701904297 25.758892059326172 2.570290834390113
v 28.2185001373291 24.216703414916992 3.8762708015074225
v 29.057300567626953 24.579952239990234 2.8431008166899177
v 28.70549964904785 25.758712768554688 2.570290834390113
v 27.85930061340332 26.042621612548828 3.37056067653794
v 28.2185001373291 24.216703414916992 3.8762708015074225
v 28.70549964904785 25.758712768554688 2.570290834390113
v 25.513399124145508 24.216703414916992 3.8762708015074225
v 26.86590003967285 24.216703414916992 4.352670938455054
v 26.865999221801758 26.073972702026367 3.671500713311622
v 25.872699737548828 26.042722702026367 3.37056067653794
v 25.513399124145508 24.216703414916992 3.8762708015074225
v 26.865999221801758 26.073972702026367 3.671500713311622
v 26.86590003967285 24.216703414916992 4.352670938455054
v 28.2185001373291 24.216703414916992 3.8762708015074225
v 27.85930061340332 26.042621612548828 3.37056067653794
v 26.865999221801758 26.073972702026367 3.671500713311622
v 26.86590003967285 24.216703414916992 4.352670938455054
v 27.85930061340332 26.042621612548828 3.37056067653794
vt 0.9371179938316345 0.7813959717750549
vt 0.8807299733161926 0.9958310127258301
vt 0.7914980053901672 0.9624999761581421
vt 0.8219169974327087 0.8240540027618408
vt 0.9371179938316345 0.7813959717750549
vt 0.7914980053901672 0.9624999761581421
vt 0.06288179755210876 0.7813959717750549
vt 0.17808300256729126 0.8240540027618408
vt 0.20850199460983276 0.9624789953231812
vt 0.11926999688148499 0.9958189725875854
vt 0.06288179755210876 0.7813959717750549
vt 0.20850199460983276 0.9624789953231812
vt 0.30498799681663513 0.7813959717750549
vt 0.5000069737434387 0.7813959717750549
vt 0.5000209808349609 0.9994999766349792
vt 0.3567970097064972 0.9958310127258301
vt 0.30498799681663513 0.7813959717750549
vt 0.5000209808349609 0.9994999766349792
vt 0.5000069737434387 0.7813959717750549
vt 0.6950399875640869 0.7813959717750549
vt 0.6432470083236694 0.9958189725875854
vt 0.5000209808349609 0.9994999766349792
vt 0.5000069737434387 0.7813959717750549
vt 0.6432470083236694 0.9958189725875854
vn -0.498315213798247 0.324753681409205 0.8038762305904908
vn -0.5263033545102986 0.3215578750236008 0.7871501203973188
vn -0.710857676691472 0.31014397186741177 0.6312622911303264
vn -0.7181741200164943 0.30352721928626 0.6261766208434205
vn -0.498315213798247 0.324753681409205 0.8038762305904908
vn -0.710857676691472 0.31014397186741177 0.6312622911303264
vn 0.5487255506287022 0.33027031724745604 0.7679985596552198
vn 0.6628015399473545 0.35090534619498914 0.6614828468336806
vn 0.6878116375317561 0.3302455971721396 0.6464154985953704
vn 0.44310476276230076 0.325931668072989 0.8351207798663162
vn 0.5487255506287022 0.33027031724745604 0.7679985596552198
vn 0.6878116375317561 0.3302455971721396 0.6464154985953704
vn -0.498315213798247 0.324753681409205 0.8038762305904908
vn 0.07770135826346322 0.3371484775623354 0.9382395232569413
vn -0.13177838491277677 0.33455743293356677 0.9331161671189081
vn -0.5263033545102986 0.3215578750236008 0.7871501203973188
vn -0.498315213798247 0.324753681409205 0.8038762305904908
vn -0.13177838491277677 0.33455743293356677 0.9331161671189081
vn 0.07770135826346322 0.3371484775623354 0.9382395232569413
vn 0.5487255506287022 0.33027031724745604 0.7679985596552198
vn 0.44310476276230076 0.325931668072989 0.8351207798663162
vn -0.13177838491277677 0.33455743293356677 0.9331161671189081
vn 0.07770135826346322 0.3371484775623354 0.9382395232569413
vn 0.44310476276230076 0.325931668072989 0.8351207798663162
f 1/1/1 2/2/2 3/3/3
f 4/4/4 5/5/5 6/6/6
f 7/7/7 8/8/8 9/9/9
f 10/10/10 11/11/11 12/12/12
f 13/13/13 14/14/14 15/15/15
f 16/16/16 17/17/17 18/18/18
f 19/19/19 20/20/20 21/21/21
f 22/22/22 23/23/23 24/24/24
