mtllib ArcadaCompleta.mtl
o D25C_CMV
usemtl Esmalte
v 32.822200775146484 17.907670974731445 2.907410652123876
v 32.741600036621094 18.76668357849121 3.4875006980528314
v 31.015600204467773 19.15540313720703 2.5503106422056634
v 31.44770050048828 18.589902877807617 2.229900629006811
v 32.822200775146484 17.907670974731445 2.907410652123876
v 31.015600204467773 19.15540313720703 2.5503106422056634
v 30.616199493408203 20.783483505249023 2.10015085407395
v 30.725299835205078 20.001943588256836 1.8004507131208856
v 31.015600204467773 19.15540313720703 2.5503106422056634
v 30.899499893188477 20.653322219848633 3.046730787240454
v 30.616199493408203 20.783483505249023 2.10015085407395
v 31.015600204467773 19.15540313720703 2.5503106422056634
v 32.538299560546875 20.48431396484375 3.975500852548071
v 32.741600036621094 18.76668357849121 3.4875006980528314
v 33.99850082397461 18.662702560424805 3.860210687600561
v 33.99850082397461 19.5812931060791 4.154510766946264
v 32.538299560546875 20.48431396484375 3.975500852548071
v 33.99850082397461 18.662702560424805 3.860210687600561
v 32.741600036621094 18.76668357849121 3.4875006980528314
v 32.822200775146484 17.907670974731445 2.907410652123876
v 33.998600006103516 17.459430694580078 2.910640747033544
v 33.99850082397461 18.662702560424805 3.860210687600561
v 32.741600036621094 18.76668357849121 3.4875006980528314
v 33.998600006103516 17.459430694580078 2.910640747033544
v 32.822200775146484 17.907670974731445 2.907410652123876
v 32.91809844970703 17.759307861328125 2.5303507156004383
v 33.998600006103516 17.459430694580078 2.910640747033544
v 32.741600036621094 18.76668357849121 3.4875006980528314
v 32.538299560546875 20.48431396484375 3.975500852548071
v 30.899499893188477 20.653322219848633 3.046730787240454
v 31.015600204467773 19.15540313720703 2.5503106422056634
v 32.741600036621094 18.76668357849121 3.4875006980528314
v 30.899499893188477 20.653322219848633 3.046730787240454
v 33.152099609375 18.364463806152344 1.5229606933226063
v 33.015499114990234 19.054763793945312 1.2814007110228018
v 33.99850082397461 18.535293579101562 0.9388627714743093
v 33.99850082397461 18.076032638549805 1.3532607860197499
v 33.152099609375 18.364463806152344 1.5229606933226063
v 33.99850082397461 18.535293579101562 0.9388627714743093
v 30.725299835205078 20.001943588256836 1.8004507131208856
v 31.246299743652344 19.128772735595703 1.5989007062544303
v 31.44770050048828 18.589902877807617 2.229900629006811
v 31.015600204467773 19.15540313720703 2.5503106422056634
v 30.725299835205078 20.001943588256836 1.8004507131208856
v 31.44770050048828 18.589902877807617 2.229900629006811
v 31.246299743652344 19.128772735595703 1.5989007062544303
v 31.880199432373047 19.1151123046875 1.4908607310881095
v 31.44770050048828 18.589902877807617 2.229900629006811
v 32.337799072265625 18.66132354736328 1.9292407340635733
v 32.3302001953125 19.104143142700195 1.3959307975401358
v 33.015499114990234 19.054763793945312 1.2814007110228018
v 33.152099609375 18.364463806152344 1.5229606933226063
v 32.337799072265625 18.66132354736328 1.9292407340635733
v 33.015499114990234 19.054763793945312 1.2814007110228018
v 33.99850082397461 18.076032638549805 1.3532607860197499
v 33.998600006103516 17.775346755981445 1.8564307994474842
v 33.28860092163086 17.775266647338867 2.0389406985868885
v 33.152099609375 18.364463806152344 1.5229606933226063
v 33.99850082397461 18.076032638549805 1.3532607860197499
v 33.28860092163086 17.775266647338867 2.0389406985868885
v 32.91809844970703 17.759307861328125 2.5303507156004383
v 33.28860092163086 17.775266647338867 2.0389406985868885
v 33.998600006103516 17.775346755981445 1.8564307994474842
v 33.998600006103516 17.459430694580078 2.910640747033544
v 32.91809844970703 17.759307861328125 2.5303507156004383
v 33.998600006103516 17.775346755981445 1.8564307994474842
v 35.07899856567383 17.89611053466797 -2.311569183386378
v 34.70840072631836 18.0233097076416 -2.150079219854884
v 33.998600006103516 17.886581420898438 -1.7644592218766735
v 32.337799072265625 18.66132354736328 1.9292407340635733
v 32.91809844970703 17.759307861328125 2.5303507156004383
v 32.822200775146484 17.907670974731445 2.907410652123876
v 31.44770050048828 18.589902877807617 2.229900629006811
v 32.337799072265625 18.66132354736328 1.9292407340635733
v 32.822200775146484 17.907670974731445 2.907410652123876
v 32.91809844970703 17.759307861328125 2.5303507156004383
v 32.337799072265625 18.66132354736328 1.9292407340635733
v 33.152099609375 18.364463806152344 1.5229606933226063
v 33.28860092163086 17.775266647338867 2.0389406985868885
v 32.91809844970703 17.759307861328125 2.5303507156004383
v 33.152099609375 18.364463806152344 1.5229606933226063
v 32.337799072265625 18.66132354736328 1.9292407340635733
v 31.44770050048828 18.589902877807617 2.229900629006811
v 31.880199432373047 19.1151123046875 1.4908607310881095
v 32.3302001953125 19.104143142700195 1.3959307975401358
v 32.337799072265625 18.66132354736328 1.9292407340635733
v 31.880199432373047 19.1151123046875 1.4908607310881095
vt 0.33306899666786194 0.056601524353027344
vt 0.32163000106811523 0.1641160249710083
vt 0.07666970044374466 0.21276801824569702
vt 0.8620049953460693 0.2532750368118286
vt 0.6669309735298157 0.1782519817352295
vt 0.9233300089836121 0.2177950143814087
vt 0.7323579788208008 0.4165390133857727
vt 0.6991710066795349 0.3187209963798523
vt 0.7822049856185913 0.21276801824569702
vt 0.8371750116348267 0.4002479910850525
vt 0.7323579788208008 0.4165390133857727
vt 0.7822049856185913 0.21276801824569702
vt 0.29277700185775757 0.3790949583053589
vt 0.32163000106811523 0.1641160249710083
vt 0.5000140070915222 0.1511020064353943
vt 0.5000140070915222 0.26607298851013184
vt 0.29277700185775757 0.3790949583053589
vt 0.5000140070915222 0.1511020064353943
vt 0.32163000106811523 0.1641160249710083
vt 0.33306899666786194 0.056601524353027344
vt 0.5000290274620056 0.000499427318572998
vt 0.5000140070915222 0.1511020064353943
vt 0.32163000106811523 0.1641160249710083
vt 0.5000290274620056 0.000499427318572998
vt 0.6669309735298157 0.1782519817352295
vt 0.6533200144767761 0.22000503540039062
vt 0.4999710023403168 0.1778939962387085
vt 0.32163000106811523 0.1641160249710083
vt 0.29277700185775757 0.3790949583053589
vt 0.06019259989261627 0.4002479910850525
vt 0.07666970044374466 0.21276801824569702
vt 0.32163000106811523 0.1641160249710083
vt 0.06019259989261627 0.4002479910850525
vt 0.6201099753379822 0.11377400159835815
vt 0.6394969820976257 0.20017200708389282
vt 0.4999859929084778 0.13515502214431763
vt 0.4999859929084778 0.35034704208374023
vt 0.6201099753379822 0.33155596256256104
vt 0.4999859929084778 0.39623403549194336
vt 0.6991710066795349 0.3187209963798523
vt 0.6768530011177063 0.20943498611450195
vt 0.7467250227928162 0.14199000597000122
vt 0.7822049856185913 0.21276801824569702
vt 0.6991710066795349 0.3187209963798523
vt 0.7467250227928162 0.14199000597000122
vt 0.8905879855155945 0.3231469988822937
vt 0.8006229996681213 0.33511000871658325
vt 0.8620049953460693 0.2532750368118286
vt 0.7356789708137512 0.28656697273254395
vt 0.7367569804191589 0.3456220030784607
vt 0.6394969820976257 0.3583040237426758
vt 0.6201099753379822 0.11377400159835815
vt 0.7356789708137512 0.15092897415161133
vt 0.6394969820976257 0.20017200708389282
vt 0.4999859929084778 0.35034704208374023
vt 0.4999710023403168 0.2946299910545349
vt 0.6007369756698608 0.27442002296447754
vt 0.6201099753379822 0.33155596256256104
vt 0.4999859929084778 0.35034704208374023
vt 0.6007369756698608 0.27442002296447754
vt 0.6533200144767761 0.22000503540039062
vt 0.6007369756698608 0.27442002296447754
vt 0.4999710023403168 0.2946299910545349
vt 0.4999710023403168 0.1778939962387085
vt 0.6533200144767761 0.22000503540039062
vt 0.4999710023403168 0.2946299910545349
vt 0.6533629894256592 0.05515468120574951
vt 0.6007660031318665 0.07107478380203247
vt 0.5000290274620056 0.053961873054504395
vt 0.713433027267456 0.15092897415161133
vt 0.7799950242042542 0.0380321741104126
vt 0.8217480182647705 0.056601524353027344
vt 0.8620049953460693 0.2532750368118286
vt 0.7356789708137512 0.28656697273254395
vt 0.6669309735298157 0.1782519817352295
vt 0.6533200144767761 0.22000503540039062
vt 0.7356789708137512 0.28656697273254395
vt 0.6201099753379822 0.33155596256256104
vt 0.7255799770355225 0.040029823780059814
vt 0.7799950242042542 0.0380321741104126
vt 0.6684439778327942 0.11377400159835815
vt 0.7356789708137512 0.28656697273254395
vt 0.8620049953460693 0.2532750368118286
vt 0.8006229996681213 0.33511000871658325
vt 0.7367569804191589 0.3456220030784607
vt 0.7356789708137512 0.28656697273254395
vt 0.8006229996681213 0.33511000871658325
vn -0.4810558608007231 -0.7675666293607726 0.4235879227279945
vn -0.41587238650596875 -0.40085130107502737 0.8163139056565727
vn -0.720039447631104 -0.41634202713963925 0.5551598961491643
vn -0.5232758509790728 -0.7980651836796604 -0.29878812958428824
vn -0.4810558608007231 -0.7675666293607726 0.4235879227279945
vn -0.720039447631104 -0.41634202713963925 0.5551598961491643
vn -0.9589544430730603 -0.17316469776214607 0.22454479187765933
vn -0.9145583710517123 -0.3980522877507648 -0.07167539435274017
vn -0.720039447631104 -0.41634202713963925 0.5551598961491643
vn -0.612486176252604 -0.28386309400396165 0.7377549916889494
vn -0.9589544430730603 -0.17316469776214607 0.22454479187765933
vn -0.720039447631104 -0.41634202713963925 0.5551598961491643
vn -0.3901760597037615 -0.2937854542644517 0.8726125997810694
vn -0.41587238650596875 -0.40085130107502737 0.8163139056565727
vn -0.29021898348340636 -0.4022661508001714 0.8683057557947386
vn -0.2921102366283034 -0.29179880238885586 0.9107826681384456
vn -0.3901760597037615 -0.2937854542644517 0.8726125997810694
vn -0.29021898348340636 -0.4022661508001714 0.8683057557947386
vn -0.41587238650596875 -0.40085130107502737 0.8163139056565727
vn -0.4810558608007231 -0.7675666293607726 0.4235879227279945
vn -0.2730562177843479 -0.803539929270737 0.5289271065060718
vn -0.29021898348340636 -0.4022661508001714 0.8683057557947386
vn -0.41587238650596875 -0.40085130107502737 0.8163139056565727
vn -0.2730562177843479 -0.803539929270737 0.5289271065060718
vn -0.4810558608007231 -0.7675666293607726 0.4235879227279945
vn -0.44350963353208595 -0.8532723692534004 -0.274272617723541
vn -0.2730562177843479 -0.803539929270737 0.5289271065060718
vn -0.41587238650596875 -0.40085130107502737 0.8163139056565727
vn -0.3901760597037615 -0.2937854542644517 0.8726125997810694
vn -0.612486176252604 -0.28386309400396165 0.7377549916889494
vn -0.720039447631104 -0.41634202713963925 0.5551598961491643
vn -0.41587238650596875 -0.40085130107502737 0.8163139056565727
vn -0.612486176252604 -0.28386309400396165 0.7377549916889494
vn -0.4818851391221025 -0.5653254436082572 -0.6694728190915588
vn -0.4233539750891853 -0.4830937145029272 -0.7664149494783813
vn -0.42793250845895514 -0.4857599185434968 -0.7621752224657015
vn -0.30262376140120034 -0.7053047018181974 -0.6410648458841999
vn -0.4818851391221025 -0.5653254436082572 -0.6694728190915588
vn -0.42793250845895514 -0.4857599185434968 -0.7621752224657015
vn -0.9145583710517123 -0.3980522877507648 -0.07167539435274017
vn -0.6251068436749936 -0.6807608901504884 -0.3818455766827758
vn -0.5232758509790728 -0.7980651836796604 -0.29878812958428824
vn -0.720039447631104 -0.41634202713963925 0.5551598961491643
vn -0.9145583710517123 -0.3980522877507648 -0.07167539435274017
vn -0.5232758509790728 -0.7980651836796604 -0.29878812958428824
vn -0.6251068436749936 -0.6807608901504884 -0.3818455766827758
vn -0.14147562807215866 -0.7659245474206557 -0.6271716147276214
vn -0.5232758509790728 -0.7980651836796604 -0.29878812958428824
vn -0.36546514977641925 -0.7263873529164494 -0.5820624002819051
vn -0.15661186430035687 -0.7609608860175124 -0.6296119867917137
vn -0.4233539750891853 -0.4830937145029272 -0.7664149494783813
vn -0.4818851391221025 -0.5653254436082572 -0.6694728190915588
vn -0.36546514977641925 -0.7263873529164494 -0.5820624002819051
vn -0.4233539750891853 -0.4830937145029272 -0.7664149494783813
vn -0.30262376140120034 -0.7053047018181974 -0.6410648458841999
vn -0.13475086237677622 -0.9441535931110202 -0.3006928627424754
vn -0.3391309620703685 -0.7827072010036129 -0.5218808561945115
vn -0.4818851391221025 -0.5653254436082572 -0.6694728190915588
vn -0.30262376140120034 -0.7053047018181974 -0.6410648458841999
vn -0.3391309620703685 -0.7827072010036129 -0.5218808561945115
vn -0.44350963353208595 -0.8532723692534004 -0.274272617723541
vn -0.3391309620703685 -0.7827072010036129 -0.5218808561945115
vn -0.13475086237677622 -0.9441535931110202 -0.3006928627424754
vn -0.2730562177843479 -0.803539929270737 0.5289271065060718
vn -0.44350963353208595 -0.8532723692534004 -0.274272617723541
vn -0.13475086237677622 -0.9441535931110202 -0.3006928627424754
vn 0.4434554983137507 0.17633440641001963 0.8787794934631379
vn 0.4434554983137507 0.17633440641001963 0.8787794934631379
vn 0.4434554983137507 0.17633440641001963 0.8787794934631379
vn -0.36546514977641925 -0.7263873529164494 -0.5820624002819051
vn -0.44350963353208595 -0.8532723692534004 -0.274272617723541
vn -0.4810558608007231 -0.7675666293607726 0.4235879227279945
vn -0.5232758509790728 -0.7980651836796604 -0.29878812958428824
vn -0.36546514977641925 -0.7263873529164494 -0.5820624002819051
vn -0.4810558608007231 -0.7675666293607726 0.4235879227279945
vn -0.44350963353208595 -0.8532723692534004 -0.274272617723541
vn -0.36546514977641925 -0.7263873529164494 -0.5820624002819051
vn -0.4818851391221025 -0.5653254436082572 -0.6694728190915588
vn -0.3391309620703685 -0.7827072010036129 -0.5218808561945115
vn -0.44350963353208595 -0.8532723692534004 -0.274272617723541
vn -0.4818851391221025 -0.5653254436082572 -0.6694728190915588
vn -0.36546514977641925 -0.7263873529164494 -0.5820624002819051
vn -0.5232758509790728 -0.7980651836796604 -0.29878812958428824
vn -0.14147562807215866 -0.7659245474206557 -0.6271716147276214
vn -0.15661186430035687 -0.7609608860175124 -0.6296119867917137
vn -0.36546514977641925 -0.7263873529164494 -0.5820624002819051
vn -0.14147562807215866 -0.7659245474206557 -0.6271716147276214
f 1/1/1 2/2/2 3/3/3
f 4/4/4 5/5/5 6/6/6
f 7/7/7 8/8/8 9/9/9
f 10/10/10 11/11/11 12/12/12
f 13/13/13 14/14/14 15/15/15
f 16/16/16 17/17/17 18/18/18
f 19/19/19 20/20/20 21/21/21
f 22/22/22 23/23/23 24/24/24
f 25/25/25 26/26/26 27/27/27
f 28/28/28 29/29/29 30/30/30
f 31/31/31 32/32/32 33/33/33
f 34/34/34 35/35/35 36/36/36
f 37/37/37 38/38/38 39/39/39
f 40/40/40 41/41/41 42/42/42
f 43/43/43 44/44/44 45/45/45
f 46/46/46 47/47/47 48/48/48
f 49/49/49 50/50/50 51/51/51
f 52/52/52 53/53/53 54/54/54
f 55/55/55 56/56/56 57/57/57
f 58/58/58 59/59/59 60/60/60
f 61/61/61 62/62/62 63/63/63
f 64/64/64 65/65/65 66/66/66
f 67/67/67 68/68/68 69/69/69
f 70/70/70 71/71/71 72/72/72
f 73/73/73 74/74/74 75/75/75
f 76/76/76 77/77/77 78/78/78
f 79/79/79 80/80/80 81/81/81
f 82/82/82 83/83/83 84/84/84
f 85/85/85 86/86/86 87/87/87
