mtllib ArcadaCompleta.mtl
o D25C_CV
usemtl Esmalte
v 35.11869812011719 24.059242248535156 3.5843408412565676
v 36.15840148925781 24.059242248535156 2.866910726510474
v 35.83359909057617 25.110393524169922 2.5647006339659186
v 34.98929977416992 25.408432006835938 3.3626907176603766
v 35.11869812011719 24.059242248535156 3.5843408412565676
v 35.83359909057617 25.110393524169922 2.5647006339659186
v 32.87779998779297 24.059242248535156 3.5843408412565676
v 33.99829864501953 24.059242248535156 4.210290700875708
v 33.998199462890625 25.441192626953125 3.662770778619239
v 33.00699996948242 25.408222198486328 3.3626907176603766
v 32.87779998779297 24.059242248535156 3.5843408412565676
v 33.998199462890625 25.441192626953125 3.662770778619239
v 31.83810043334961 24.059242248535156 2.866910726510474
v 32.87779998779297 24.059242248535156 3.5843408412565676
v 33.00699996948242 25.408222198486328 3.3626907176603766
v 32.16270065307617 25.110002517700195 2.5647006339659186
v 31.83810043334961 24.059242248535156 2.866910726510474
v 33.00699996948242 25.408222198486328 3.3626907176603766
v 33.99829864501953 24.059242248535156 4.210290700875708
v 35.11869812011719 24.059242248535156 3.5843408412565676
v 34.98929977416992 25.408432006835938 3.3626907176603766
v 33.998199462890625 25.441192626953125 3.662770778619239
v 33.99829864501953 24.059242248535156 4.210290700875708
v 34.98929977416992 25.408432006835938 3.3626907176603766
vt 0.6589969992637634 0.8265349864959717
vt 0.806555986404419 0.8265349864959717
vt 0.7604579925537109 0.958096981048584
vt 0.12783800065517426 0.9954000115394592
vt 0.1032940000295639 0.8265349864959717
vt 0.21620100736618042 0.958096981048584
vt 0.3409610092639923 0.8265349864959717
vt 0.4999859929084778 0.8265349864959717
vt 0.49997198581695557 0.9995009899139404
vt 0.3592970073223114 0.9953740239143372
vt 0.3409610092639923 0.8265349864959717
vt 0.49997198581695557 0.9995009899139404
vt 0.1934020072221756 0.8265349864959717
vt 0.3409610092639923 0.8265349864959717
vt 0.3592970073223114 0.9953740239143372
vt 0.7837989926338196 0.9580489993095398
vt 0.8172630071640015 0.8265349864959717
vt 0.8721619844436646 0.9953740239143372
vt 0.4999859929084778 0.8265349864959717
vt 0.6589969992637634 0.8265349864959717
vt 0.6406319737434387 0.9954000115394592
vt 0.49997198581695557 0.9995009899139404
vt 0.4999859929084778 0.8265349864959717
vt 0.6406319737434387 0.9954000115394592
vn 0.5765922030142175 0.24544877089065772 0.7792921995576989
vn 0.5250981388972845 0.3810369193527619 0.7609749080073304
vn 0.6284209867118328 0.277507474299288 0.7266888365512137
vn 0.503897656447233 0.24205332490853315 0.8291545933827481
vn 0.5765922030142175 0.24544877089065772 0.7792921995576989
vn 0.6284209867118328 0.277507474299288 0.7266888365512137
vn -0.45061952987158493 0.2398773779333446 0.8598842264247759
vn 0.08786741087477296 0.31670419060717603 0.9444457495049768
vn -0.18523775874156645 0.31027935834822845 0.9324235585394725
vn -0.5301589391512633 0.2516517053432496 0.8096931013883232
vn -0.45061952987158493 0.2398773779333446 0.8598842264247759
vn -0.18523775874156645 0.31027935834822845 0.9324235585394725
vn -0.6284403909328967 0.2774748253984757 0.7266845232383813
vn -0.45061952987158493 0.2398773779333446 0.8598842264247759
vn -0.5301589391512633 0.2516517053432496 0.8096931013883232
vn -0.7016947697457152 0.38853286766451123 0.5972157573740825
vn -0.6284403909328967 0.2774748253984757 0.7266845232383813
vn -0.5301589391512633 0.2516517053432496 0.8096931013883232
vn 0.08786741087477296 0.31670419060717603 0.9444457495049768
vn 0.5765922030142175 0.24544877089065772 0.7792921995576989
vn 0.503897656447233 0.24205332490853315 0.8291545933827481
vn -0.18523775874156645 0.31027935834822845 0.9324235585394725
vn 0.08786741087477296 0.31670419060717603 0.9444457495049768
vn 0.503897656447233 0.24205332490853315 0.8291545933827481
f 1/1/1 2/2/2 3/3/3
f 4/4/4 5/5/5 6/6/6
f 7/7/7 8/8/8 9/9/9
f 10/10/10 11/11/11 12/12/12
f 13/13/13 14/14/14 15/15/15
f 16/16/16 17/17/17 18/18/18
f 19/19/19 20/20/20 21/21/21
f 22/22/22 23/23/23 24/24/24
