mtllib ArcadaCompleta.mtl
o D25C_DV
usemtl Esmalte
v 37.380699157714844 20.78392219543457 2.10015085407395
v 37.19459915161133 22.39684295654297 2.112370759927222
v 36.785701751708984 22.39684295654297 3.1389508552183596
v 37.0973014831543 20.65371322631836 3.046730787240454
v 37.380699157714844 20.78392219543457 2.10015085407395
v 36.785701751708984 22.39684295654297 3.1389508552183596
v 35.38740158081055 22.39684295654297 3.956900627099463
v 35.458499908447266 20.484533309936523 3.975500852548071
v 37.0973014831543 20.65371322631836 3.046730787240454
v 36.785701751708984 22.39684295654297 3.1389508552183596
v 35.38740158081055 22.39684295654297 3.956900627099463
v 37.0973014831543 20.65371322631836 3.046730787240454
v 36.15840148925781 24.059242248535156 2.866910726510474
v 35.11869812011719 24.059242248535156 3.5843408412565676
v 35.38740158081055 22.39684295654297 3.956900627099463
v 36.785701751708984 22.39684295654297 3.1389508552183596
v 36.15840148925781 24.059242248535156 2.866910726510474
v 35.38740158081055 22.39684295654297 3.956900627099463
v 37.19459915161133 22.39684295654297 2.112370759927222
v 36.68199920654297 24.059242248535156 1.9777506894697634
v 36.15840148925781 24.059242248535156 2.866910726510474
v 36.785701751708984 22.39684295654297 3.1389508552183596
v 37.19459915161133 22.39684295654297 2.112370759927222
v 36.15840148925781 24.059242248535156 2.866910726510474
vt 0.26764199137687683 0.4165940284729004
vt 0.26628899574279785 0.6184679865837097
vt 0.15261299908161163 0.6184679865837097
vt 0.16282500326633453 0.40029698610305786
vt 0.26764199137687683 0.4165940284729004
vt 0.15261299908161163 0.6184679865837097
vt 0.6971330046653748 0.6184679865837097
vt 0.7072229981422424 0.3791229724884033
vt 0.9398080110549927 0.40029698610305786
vt 0.8955850005149841 0.6184679865837097
vt 0.6971330046653748 0.6184679865837097
vt 0.9398080110549927 0.40029698610305786
vt 0.806555986404419 0.8265349864959717
vt 0.6589969992637634 0.8265349864959717
vt 0.6971330046653748 0.6184679865837097
vt 0.8955850005149841 0.6184679865837097
vt 0.806555986404419 0.8265349864959717
vt 0.6971330046653748 0.6184679865837097
vt 0.26628899574279785 0.6184679865837097
vt 0.2811959981918335 0.8265349864959717
vt 0.18273699283599854 0.8265349864959717
vt 0.15261299908161163 0.6184679865837097
vt 0.26628899574279785 0.6184679865837097
vt 0.18273699283599854 0.8265349864959717
vn 0.9331840693131078 0.12793867716686017 0.33585590312665753
vn 0.8769539640600976 0.2658717167494448 0.40032983295275915
vn 0.7446504108930212 0.21257425484015735 0.6326989424173293
vn 0.6208460327768747 0.06274630126108859 0.781417369440473
vn 0.9331840693131078 0.12793867716686017 0.33585590312665753
vn 0.7446504108930212 0.21257425484015735 0.6326989424173293
vn 0.5067338374748062 0.14943961879693005 0.8490515993105985
vn 0.4907940040364242 0.02671792015245913 0.8708658899880173
vn 0.6208460327768747 0.06274630126108859 0.781417369440473
vn 0.7446504108930212 0.21257425484015735 0.6326989424173293
vn 0.5067338374748062 0.14943961879693005 0.8490515993105985
vn 0.6208460327768747 0.06274630126108859 0.781417369440473
vn 0.6765971633848484 0.3249170721869919 0.6607913246260197
vn 0.5474382336064368 0.26628319855067994 0.7933502622142904
vn 0.5067338374748062 0.14943961879693005 0.8490515993105985
vn 0.7446504108930212 0.21257425484015735 0.6326989424173293
vn 0.6765971633848484 0.3249170721869919 0.6607913246260197
vn 0.5067338374748062 0.14943961879693005 0.8490515993105985
vn 0.8769539640600976 0.2658717167494448 0.40032983295275915
vn 0.8237985246902457 0.2933016162464312 0.4851083926561213
vn 0.6765971633848484 0.3249170721869919 0.6607913246260197
vn 0.7446504108930212 0.21257425484015735 0.6326989424173293
vn 0.8769539640600976 0.2658717167494448 0.40032983295275915
vn 0.6765971633848484 0.3249170721869919 0.6607913246260197
f 1/1/1 2/2/2 3/3/3
f 4/4/4 5/5/5 6/6/6
f 7/7/7 8/8/8 9/9/9
f 10/10/10 11/11/11 12/12/12
f 13/13/13 14/14/14 15/15/15
f 16/16/16 17/17/17 18/18/18
f 19/19/19 20/20/20 21/21/21
f 22/22/22 23/23/23 24/24/24
