mtllib ArcadaCompleta.mtl
o D26C_CL
usemtl Esmalte
v 41.4093017578125 23.354084014892578 -5.479929178274682
v 41.45050048828125 25.10944366455078 -4.792759149588159
v 42.647499084472656 25.13709259033203 -4.791099279440454
v 42.64759826660156 23.354084014892578 -5.5590192966828855
v 41.4093017578125 23.354084014892578 -5.479929178274682
v 42.647499084472656 25.13709259033203 -4.791099279440454
v 41.4093017578125 23.354084014892578 -5.479929178274682
v 42.64759826660156 23.354084014892578 -5.5590192966828855
v 42.827598571777344 22.236902236938477 -5.4576494388948005
v 41.53120040893555 21.671363830566406 -5.529719083822779
v 41.4093017578125 23.354084014892578 -5.479929178274682
v 42.827598571777344 22.236902236938477 -5.4576494388948005
v 45.332298278808594 23.354084014892578 -5.064719408072046
v 43.885799407958984 23.354084014892578 -5.479929178274682
v 43.84450149536133 25.1096134185791 -4.792759149588159
v 45.075401306152344 24.984663009643555 -4.41055938533645
v 45.332298278808594 23.354084014892578 -5.064719408072046
v 43.84450149536133 25.1096134185791 -4.792759149588159
v 42.64759826660156 23.354084014892578 -5.5590192966828855
v 43.885799407958984 23.354084014892578 -5.479929178274682
v 44.013999938964844 21.71686363220215 -5.500749319113306
v 42.827598571777344 22.236902236938477 -5.4576494388948005
v 42.64759826660156 23.354084014892578 -5.5590192966828855
v 44.013999938964844 21.71686363220215 -5.500749319113306
v 43.84450149536133 25.1096134185791 -4.792759149588159
v 43.885799407958984 23.354084014892578 -5.479929178274682
v 42.64759826660156 23.354084014892578 -5.5590192966828855
v 42.647499084472656 25.13709259033203 -4.791099279440454
v 43.84450149536133 25.1096134185791 -4.792759149588159
v 42.64759826660156 23.354084014892578 -5.5590192966828855
v 41.4093017578125 23.354084014892578 -5.479929178274682
v 39.96289825439453 23.354084014892578 -5.064719408072046
v 40.21950149536133 24.984323501586914 -4.41055938533645
v 41.45050048828125 25.10944366455078 -4.792759149588159
v 41.4093017578125 23.354084014892578 -5.479929178274682
v 40.21950149536133 24.984323501586914 -4.41055938533645
vt 0.6232119798660278 0.764153003692627
vt 0.619113028049469 0.9958509802818298
vt 0.5000150203704834 0.9994999766349792
vt 0.5000050067901611 0.764153003692627
vt 0.6232119798660278 0.764153003692627
vt 0.5000150203704834 0.9994999766349792
vt 0.6232119798660278 0.764153003692627
vt 0.5000050067901611 0.764153003692627
vt 0.48209598660469055 0.616690993309021
vt 0.611083984375 0.5420420169830322
vt 0.6232119798660278 0.764153003692627
vt 0.48209598660469055 0.616690993309021
vt 0.23288500308990479 0.764153003692627
vt 0.3768079876899719 0.764153003692627
vt 0.3809170126914978 0.995872974395752
vt 0.25844600796699524 0.9793810248374939
vt 0.23288500308990479 0.764153003692627
vt 0.3809170126914978 0.995872974395752
vt 0.5000050067901611 0.764153003692627
vt 0.3768079876899719 0.764153003692627
vt 0.3640519976615906 0.5480480194091797
vt 0.48209598660469055 0.616690993309021
vt 0.5000050067901611 0.764153003692627
vt 0.3640519976615906 0.5480480194091797
vt 0.3809170126914978 0.995872974395752
vt 0.3768079876899719 0.764153003692627
vt 0.5000050067901611 0.764153003692627
vt 0.5000150203704834 0.9994999766349792
vt 0.3809170126914978 0.995872974395752
vt 0.5000050067901611 0.764153003692627
vt 0.6232119798660278 0.764153003692627
vt 0.7671250104904175 0.764153003692627
vt 0.7415940165519714 0.9793360233306885
vt 0.619113028049469 0.9958509802818298
vt 0.6232119798660278 0.764153003692627
vt 0.7415940165519714 0.9793360233306885
vn -0.1213760270696422 0.2771184204058229 -0.9531386263941731
vn -0.1665277779265766 0.36282938455936037 -0.916855134074687
vn -0.019898265155324887 0.3855563315974351 -0.9224697145212611
vn -0.0038280952445413187 0.21799078426309504 -0.9759433199029334
vn -0.1213760270696422 0.2771184204058229 -0.9531386263941731
vn -0.019898265155324887 0.3855563315974351 -0.9224697145212611
vn -0.1213760270696422 0.2771184204058229 -0.9531386263941731
vn -0.0038280952445413187 0.21799078426309504 -0.9759433199029334
vn -0.019733166129918624 -0.03992486706233785 -0.9990078113531164
vn 0.04131954549260134 0.03254123415189606 -0.998615923786596
vn -0.1213760270696422 0.2771184204058229 -0.9531386263941731
vn -0.019733166129918624 -0.03992486706233785 -0.9990078113531164
vn 0.2806593837397617 0.3747448009542449 -0.88362698265534
vn 0.14097502389842242 0.2687587952596497 -0.9528351130218811
vn 0.16411430372084806 0.3804452540737779 -0.9101252133453723
vn 0.3087348882675248 0.39564596897818477 -0.8649549329287349
vn 0.2806593837397617 0.3747448009542449 -0.88362698265534
vn 0.16411430372084806 0.3804452540737779 -0.9101252133453723
vn -0.0038280952445413187 0.21799078426309504 -0.9759433199029334
vn 0.14097502389842242 0.2687587952596497 -0.9528351130218811
vn 0.008778317747171867 -0.028248954293101126 -0.9995623731007864
vn -0.019733166129918624 -0.03992486706233785 -0.9990078113531164
vn -0.0038280952445413187 0.21799078426309504 -0.9759433199029334
vn 0.008778317747171867 -0.028248954293101126 -0.9995623731007864
vn 0.16411430372084806 0.3804452540737779 -0.9101252133453723
vn 0.14097502389842242 0.2687587952596497 -0.9528351130218811
vn -0.0038280952445413187 0.21799078426309504 -0.9759433199029334
vn -0.019898265155324887 0.3855563315974351 -0.9224697145212611
vn 0.16411430372084806 0.3804452540737779 -0.9101252133453723
vn -0.0038280952445413187 0.21799078426309504 -0.9759433199029334
vn -0.1213760270696422 0.2771184204058229 -0.9531386263941731
vn -0.2535601187493545 0.3943448850694996 -0.883288954872264
vn -0.2806793026319881 0.3747645148982332 -0.8836122947577817
vn -0.1665277779265766 0.36282938455936037 -0.916855134074687
vn -0.1213760270696422 0.2771184204058229 -0.9531386263941731
vn -0.2806793026319881 0.3747645148982332 -0.8836122947577817
f 1/1/1 2/2/2 3/3/3
f 4/4/4 5/5/5 6/6/6
f 7/7/7 8/8/8 9/9/9
f 10/10/10 11/11/11 12/12/12
f 13/13/13 14/14/14 15/15/15
f 16/16/16 17/17/17 18/18/18
f 19/19/19 20/20/20 21/21/21
f 22/22/22 23/23/23 24/24/24
f 25/25/25 26/26/26 27/27/27
f 28/28/28 29/29/29 30/30/30
f 31/31/31 32/32/32 33/33/33
f 34/34/34 35/35/35 36/36/36
