mtllib ArcadaCompleta.mtl
o D28C_CL
usemtl Esmalte
v 60.79460144042969 22.474943161010742 -4.968319147146754
v 60.94020080566406 23.975923538208008 -4.328409402884057
v 61.8385009765625 23.99970245361328 -4.326929300344995
v 61.88740158081055 22.46682357788086 -4.850659101522974
v 60.79460144042969 22.474943161010742 -4.968319147146754
v 61.8385009765625 23.99970245361328 -4.326929300344995
v 60.79460144042969 22.474943161010742 -4.968319147146754
v 61.88740158081055 22.46682357788086 -4.850659101522974
v 61.93040084838867 21.519912719726562 -4.76465913585525
v 60.762001037597656 21.123292922973633 -5.008809297598414
v 60.79460144042969 22.474943161010742 -4.968319147146754
v 61.93040084838867 21.519912719726562 -4.76465913585525
v 61.88740158081055 22.46682357788086 -4.850659101522974
v 62.64939880371094 22.474943161010742 -4.6457292728791755
v 62.682098388671875 21.123292922973633 -4.711029260672144
v 61.93040084838867 21.519912719726562 -4.76465913585525
v 61.88740158081055 22.46682357788086 -4.850659101522974
v 62.682098388671875 21.123292922973633 -4.711029260672144
v 60.79460144042969 22.474943161010742 -4.968319147146754
v 59.7036018371582 22.446943283081055 -4.61147949031692
v 60.01639938354492 23.868322372436523 -3.9883591823945554
v 60.94020080566406 23.975923538208008 -4.328409402884057
v 60.79460144042969 22.474943161010742 -4.968319147146754
v 60.01639938354492 23.868322372436523 -3.9883591823945554
v 63.579498291015625 22.474943161010742 -4.347729414022974
v 62.64939880371094 22.474943161010742 -4.6457292728791755
v 62.73680114746094 23.976072311401367 -4.328409402884057
v 63.660499572753906 23.86861228942871 -3.9883591823945554
v 63.579498291015625 22.474943161010742 -4.347729414022974
v 62.73680114746094 23.976072311401367 -4.328409402884057
v 62.73680114746094 23.976072311401367 -4.328409402884057
v 62.64939880371094 22.474943161010742 -4.6457292728791755
v 61.88740158081055 22.46682357788086 -4.850659101522974
v 61.8385009765625 23.99970245361328 -4.326929300344995
v 62.73680114746094 23.976072311401367 -4.328409402884057
v 61.88740158081055 22.46682357788086 -4.850659101522974
vt 0.6072310209274292 0.7640889883041382
vt 0.5902439951896667 0.9958289861679077
vt 0.4854390025138855 0.9995009899139404
vt 0.47973400354385376 0.7628350257873535
vt 0.6072310209274292 0.7640889883041382
vt 0.4854390025138855 0.9995009899139404
vt 0.6072310209274292 0.7640889883041382
vt 0.47973400354385376 0.7628350257873535
vt 0.47471699118614197 0.6166390180587769
vt 0.6110349893569946 0.555404007434845
vt 0.6072310209274292 0.7640889883041382
vt 0.47471699118614197 0.6166390180587769
vt 0.47973400354385376 0.7628350257873535
vt 0.39083099365234375 0.7640889883041382
vt 0.3870159983634949 0.555404007434845
vt 0.47471699118614197 0.6166390180587769
vt 0.47973400354385376 0.7628350257873535
vt 0.3870159983634949 0.555404007434845
vt 0.6072310209274292 0.7640889883041382
vt 0.7345190048217773 0.7597659826278687
vt 0.6980239748954773 0.9792159795761108
vt 0.5902439951896667 0.9958289861679077
vt 0.6072310209274292 0.7640889883041382
vt 0.6980239748954773 0.9792159795761108
vt 0.2823159992694855 0.7640889883041382
vt 0.39083099365234375 0.7640889883041382
vt 0.38063400983810425 0.995851993560791
vt 0.27286601066589355 0.9792609810829163
vt 0.2823159992694855 0.7640889883041382
vt 0.38063400983810425 0.995851993560791
vt 0.38063400983810425 0.995851993560791
vt 0.39083099365234375 0.7640889883041382
vt 0.47973400354385376 0.7628350257873535
vt 0.4854390025138855 0.9995009899139404
vt 0.38063400983810425 0.995851993560791
vt 0.47973400354385376 0.7628350257873535
vn -0.05693302489089222 0.2843339163771558 -0.9570333613173584
vn -0.1952268197362085 0.40059307507551645 -0.895215994638851
vn 0.03875475439471037 0.34614515516847905 -0.9373801793110387
vn 0.12709551930231613 0.16562616669499317 -0.9779645708711523
vn -0.05693302489089222 0.2843339163771558 -0.9570333613173584
vn 0.03875475439471037 0.34614515516847905 -0.9373801793110387
vn -0.05693302489089222 0.2843339163771558 -0.9570333613173584
vn 0.12709551930231613 0.16562616669499317 -0.9779645708711523
vn 0.1326600463721571 -0.033639442160963304 -0.9905905814349519
vn 0.19646512539387795 0.02462446387694883 -0.9802015559479289
vn -0.05693302489089222 0.2843339163771558 -0.9570333613173584
vn 0.1326600463721571 -0.033639442160963304 -0.9905905814349519
vn 0.12709551930231613 0.16562616669499317 -0.9779645708711523
vn 0.27397322094882537 0.14631043075565198 -0.9505429669694166
vn 0.16753580739569507 -0.003360805016095926 -0.9858602630342276
vn 0.1326600463721571 -0.033639442160963304 -0.9905905814349519
vn 0.12709551930231613 0.16562616669499317 -0.9779645708711523
vn 0.16753580739569507 -0.003360805016095926 -0.9858602630342276
vn -0.05693302489089222 0.2843339163771558 -0.9570333613173584
vn -0.28972140719549794 0.437047626933542 -0.8514991943651032
vn -0.3219824708984019 0.41770609037121137 -0.8496169198532695
vn -0.1952268197362085 0.40059307507551645 -0.895215994638851
vn -0.05693302489089222 0.2843339163771558 -0.9570333613173584
vn -0.3219824708984019 0.41770609037121137 -0.8496169198532695
vn 0.32926460943205005 0.19672703648954523 -0.9235168055263535
vn 0.27397322094882537 0.14631043075565198 -0.9505429669694166
vn 0.2312899455502981 0.22997476910565276 -0.945312946416234
vn 0.3592816216025075 0.21338468051557 -0.9085062985472037
vn 0.32926460943205005 0.19672703648954523 -0.9235168055263535
vn 0.2312899455502981 0.22997476910565276 -0.945312946416234
vn 0.2312899455502981 0.22997476910565276 -0.945312946416234
vn 0.27397322094882537 0.14631043075565198 -0.9505429669694166
vn 0.12709551930231613 0.16562616669499317 -0.9779645708711523
vn 0.03875475439471037 0.34614515516847905 -0.9373801793110387
vn 0.2312899455502981 0.22997476910565276 -0.945312946416234
vn 0.12709551930231613 0.16562616669499317 -0.9779645708711523
f 1/1/1 2/2/2 3/3/3
f 4/4/4 5/5/5 6/6/6
f 7/7/7 8/8/8 9/9/9
f 10/10/10 11/11/11 12/12/12
f 13/13/13 14/14/14 15/15/15
f 16/16/16 17/17/17 18/18/18
f 19/19/19 20/20/20 21/21/21
f 22/22/22 23/23/23 24/24/24
f 25/25/25 26/26/26 27/27/27
f 28/28/28 29/29/29 30/30/30
f 31/31/31 32/32/32 33/33/33
f 34/34/34 35/35/35 36/36/36
