mtllib ArcadaCompleta.mtl
o D28C_CDV
usemtl Esmalte
v 64.21510314941406 19.414321899414062 3.1854808635343987
v 63.94049835205078 17.87567901611328 2.679550678216405
v 64.75420379638672 18.486473083496094 2.2494407004942376
v 64.98729705810547 19.425443649291992 2.7401707477201898
v 64.21510314941406 19.414321899414062 3.1854808635343987
v 64.75420379638672 18.486473083496094 2.2494407004942376
v 65.28810119628906 22.474943161010742 2.326700717889258
v 64.71849822998047 23.671123504638672 2.528590709649512
v 64.31950378417969 23.76114273071289 4.033970624886939
v 64.8760986328125 22.48166275024414 3.355440647088477
v 65.28810119628906 22.474943161010742 2.326700717889258
v 64.31950378417969 23.76114273071289 4.033970624886939
v 64.21510314941406 19.414321899414062 3.1854808635343987
v 64.98729705810547 19.425443649291992 2.7401707477201898
v 65.08070373535156 21.13209342956543 3.015750677071997
v 64.28800201416016 21.123292922973633 3.7617006606687986
v 64.21510314941406 19.414321899414062 3.1854808635343987
v 65.08070373535156 21.13209342956543 3.015750677071997
v 64.07340240478516 22.474943161010742 4.017000944100805
v 64.28800201416016 21.123292922973633 3.7617006606687986
v 65.08070373535156 21.13209342956543 3.015750677071997
v 64.8760986328125 22.48166275024414 3.355440647088477
v 64.07340240478516 22.474943161010742 4.017000944100805
v 65.08070373535156 21.13209342956543 3.015750677071997
v 65.32360076904297 18.81163215637207 1.7657606906523184
v 65.5916976928711 19.801483154296875 1.933360726319738
v 64.98729705810547 19.425443649291992 2.7401707477201898
v 64.75420379638672 18.486473083496094 2.2494407004942376
v 65.32360076904297 18.81163215637207 1.7657606906523184
v 64.98729705810547 19.425443649291992 2.7401707477201898
v 64.52950286865234 18.027877807617188 1.1880907125105336
v 65.01010131835938 18.489063262939453 1.5526707477201893
v 64.63760375976562 18.09267234802246 1.7782907790770008
v 63.94049835205078 17.87567901611328 2.679550678216405
v 63.74850082397461 17.670238494873047 2.2788107699980213
v 64.63760375976562 18.09267234802246 1.7782907790770008
v 64.75420379638672 18.486473083496094 2.2494407004942376
v 63.94049835205078 17.87567901611328 2.679550678216405
v 64.63760375976562 18.09267234802246 1.7782907790770008
v 63.74850082397461 17.670238494873047 2.2788107699980213
v 64.52950286865234 18.027877807617188 1.1880907125105336
v 64.63760375976562 18.09267234802246 1.7782907790770008
v 64.21510314941406 19.414321899414062 3.1854808635343987
v 62.90290069580078 19.42243194580078 3.824000627480932
v 62.71849822998047 18.33681297302246 3.521820814095922
v 63.94049835205078 17.87567901611328 2.679550678216405
v 64.21510314941406 19.414321899414062 3.1854808635343987
v 62.71849822998047 18.33681297302246 3.521820814095922
v 64.28800201416016 21.123292922973633 3.7617006606687986
v 62.897098541259766 21.123292922973633 4.0894906825651605
v 62.90290069580078 19.42243194580078 3.824000627480932
v 64.21510314941406 19.414321899414062 3.1854808635343987
v 64.28800201416016 21.123292922973633 3.7617006606687986
v 62.90290069580078 19.42243194580078 3.824000627480932
v 65.50700378417969 21.123292922973633 2.0740406818022215
v 65.28810119628906 22.474943161010742 2.326700717889258
v 64.8760986328125 22.48166275024414 3.355440647088477
v 65.08070373535156 21.13209342956543 3.015750677071997
v 65.50700378417969 21.123292922973633 2.0740406818022215
v 64.8760986328125 22.48166275024414 3.355440647088477
v 63.660499572753906 23.86861228942871 4.412110597573706
v 64.07340240478516 22.474943161010742 4.017000944100805
v 64.8760986328125 22.48166275024414 3.355440647088477
v 64.31950378417969 23.76114273071289 4.033970624886939
v 63.660499572753906 23.86861228942871 4.412110597573706
v 64.8760986328125 22.48166275024414 3.355440647088477
v 64.28800201416016 21.123292922973633 3.7617006606687986
v 64.07340240478516 22.474943161010742 4.017000944100805
v 62.864498138427734 22.474943161010742 4.311340600930639
v 62.897098541259766 21.123292922973633 4.0894906825651605
v 64.28800201416016 21.123292922973633 3.7617006606687986
v 62.864498138427734 22.474943161010742 4.311340600930639
v 64.63760375976562 18.09267234802246 1.7782907790770008
v 65.01010131835938 18.489063262939453 1.5526707477201893
v 65.32360076904297 18.81163215637207 1.7657606906523184
v 64.75420379638672 18.486473083496094 2.2494407004942376
v 64.63760375976562 18.09267234802246 1.7782907790770008
v 65.32360076904297 18.81163215637207 1.7657606906523184
v 64.98729705810547 19.425443649291992 2.7401707477201898
v 65.5916976928711 19.801483154296875 1.933360726319738
v 65.50700378417969 21.123292922973633 2.0740406818022215
v 65.08070373535156 21.13209342956543 3.015750677071997
v 64.98729705810547 19.425443649291992 2.7401707477201898
v 65.50700378417969 21.123292922973633 2.0740406818022215
v 63.45479965209961 17.836570739746094 1.7253107137312367
v 64.52950286865234 18.027877807617188 1.1880907125105336
v 63.74850082397461 17.670238494873047 2.2788107699980213
v 62.5791015625 17.956205368041992 2.980580837212987
v 62.691898345947266 18.074003219604492 2.2721507854093987
v 63.74850082397461 17.670238494873047 2.2788107699980213
v 62.5791015625 17.956205368041992 2.980580837212987
v 63.74850082397461 17.670238494873047 2.2788107699980213
v 63.94049835205078 17.87567901611328 2.679550678216405
v 62.71849822998047 18.33681297302246 3.521820814095922
v 62.5791015625 17.956205368041992 2.980580837212987
v 63.94049835205078 17.87567901611328 2.679550678216405
v 63.74850082397461 17.670238494873047 2.2788107699980213
v 63.233001708984375 17.861309051513672 2.234350711785741
v 63.45479965209961 17.836570739746094 1.7253107137312367
v 62.64440155029297 18.447303771972656 1.5833607024778797
v 62.7953987121582 18.396102905273438 1.1989207572569325
v 63.45479965209961 17.836570739746094 1.7253107137312367
v 63.005001068115234 18.252363204956055 1.8253706998457386
v 62.64440155029297 18.447303771972656 1.5833607024778797
v 63.45479965209961 17.836570739746094 1.7253107137312367
v 62.7953987121582 18.396102905273438 1.1989207572569325
v 63.27619934082031 18.37630271911621 0.9179737276663259
v 63.45479965209961 17.836570739746094 1.7253107137312367
v 63.45479965209961 17.836570739746094 1.7253107137312367
v 63.27619934082031 18.37630271911621 0.9179737276663259
v 64.52950286865234 18.027877807617188 1.1880907125105336
v 62.64440155029297 18.447303771972656 1.5833607024778797
v 63.005001068115234 18.252363204956055 1.8253706998457386
v 62.893699645996094 18.346893310546875 2.102330715142675
v 62.6349983215332 18.60946273803711 2.0224807567228753
v 62.64440155029297 18.447303771972656 1.5833607024778797
v 62.893699645996094 18.346893310546875 2.102330715142675
v 62.691898345947266 18.074003219604492 2.2721507854093987
v 62.6349983215332 18.60946273803711 2.0224807567228753
v 62.893699645996094 18.346893310546875 2.102330715142675
v 62.893699645996094 18.346893310546875 2.102330715142675
v 63.005001068115234 18.252363204956055 1.8253706998457386
v 63.233001708984375 17.861309051513672 2.234350711785741
v 63.74850082397461 17.670238494873047 2.2788107699980213
v 62.691898345947266 18.074003219604492 2.2721507854093987
v 63.233001708984375 17.861309051513672 2.234350711785741
v 63.45479965209961 17.836570739746094 1.7253107137312367
v 63.233001708984375 17.861309051513672 2.234350711785741
v 63.005001068115234 18.252363204956055 1.8253706998457386
v 62.893699645996094 18.346893310546875 2.102330715142675
v 63.233001708984375 17.861309051513672 2.234350711785741
v 62.691898345947266 18.074003219604492 2.2721507854093987
vt 0.1927739977836609 0.29155099391937256
vt 0.2425830066204071 0.053995728492736816
vt 0.28492701053619385 0.14829802513122559
vt 0.11806800216436386 0.23661500215530396
vt 0.20815999805927277 0.1927739977836609
vt 0.14526300132274628 0.28492701053619385
vt 0.2773210108280182 0.7640889883041382
vt 0.25744500756263733 0.9487699866294861
vt 0.10924000293016434 0.9626690149307251
vt 0.17604200541973114 0.7651259899139404
vt 0.2773210108280182 0.7640889883041382
vt 0.10924000293016434 0.9626690149307251
vt 0.7918400168418884 0.29155099391937256
vt 0.8819320201873779 0.29326796531677246
vt 0.8928300142288208 0.5567619800567627
vt 0.13604499399662018 0.555404007434845
vt 0.1927739977836609 0.29155099391937256
vt 0.20948399603366852 0.5567619800567627
vt 0.11091099679470062 0.7640889883041382
vt 0.13604499399662018 0.555404007434845
vt 0.20948399603366852 0.5567619800567627
vt 0.8689579963684082 0.7651259899139404
vt 0.7753080129623413 0.7640889883041382
vt 0.8928300142288208 0.5567619800567627
vt 0.3325450122356415 0.19850003719329834
vt 0.31604498624801636 0.35132598876953125
vt 0.23661500215530396 0.29326796531677246
vt 0.28492701053619385 0.14829802513122559
vt 0.3325450122356415 0.19850003719329834
vt 0.23661500215530396 0.29326796531677246
vt 0.1714790016412735 0.38941699266433716
vt 0.11540699750185013 0.35352396965026855
vt 0.1588670015335083 0.33131200075149536
vt 0.2401989996433258 0.2425830364227295
vt 0.26259899139404297 0.2820360064506531
vt 0.1588670015335083 0.33131200075149536
vt 0.14526300132274628 0.28492701053619385
vt 0.2401989996433258 0.2425830364227295
vt 0.1588670015335083 0.33131200075149536
vt 0.26259899139404297 0.2820360064506531
vt 0.1714790016412735 0.38941699266433716
vt 0.1588670015335083 0.33131200075149536
vt 0.7918400168418884 0.29155099391937256
vt 0.6387450098991394 0.29280298948287964
vt 0.6172299981117249 0.12519097328186035
vt 0.7598009705543518 0.053995728492736816
vt 0.7918400168418884 0.29155099391937256
vt 0.6172299981117249 0.12519097328186035
vt 0.8003450036048889 0.555404007434845
vt 0.6380680203437805 0.555404007434845
vt 0.6387450098991394 0.29280298948287964
vt 0.7918400168418884 0.29155099391937256
vt 0.8003450036048889 0.555404007434845
vt 0.6387450098991394 0.29280298948287964
vt 0.3021950125694275 0.555404007434845
vt 0.2773210108280182 0.7640889883041382
vt 0.17604200541973114 0.7651259899139404
vt 0.20948399603366852 0.5567619800567627
vt 0.3021950125694275 0.555404007434845
vt 0.17604200541973114 0.7651259899139404
vt 0.7271339893341064 0.9792609810829163
vt 0.7753080129623413 0.7640889883041382
vt 0.8689579963684082 0.7651259899139404
vt 0.8040199875831604 0.9626690149307251
vt 0.7271339893341064 0.9792609810829163
vt 0.8689579963684082 0.7651259899139404
vt 0.8003450036048889 0.555404007434845
vt 0.7753080129623413 0.7640889883041382
vt 0.6342639923095703 0.7640889883041382
vt 0.6380680203437805 0.555404007434845
vt 0.8003450036048889 0.555404007434845
vt 0.6342639923095703 0.7640889883041382
vt 0.1588670015335083 0.33131200075149536
vt 0.11540699750185013 0.35352396965026855
vt 0.07883120328187943 0.33254504203796387
vt 0.14526300132274628 0.28492701053619385
vt 0.1588670015335083 0.33131200075149536
vt 0.07883120328187943 0.33254504203796387
vt 0.23661500215530396 0.29326796531677246
vt 0.31604498624801636 0.35132598876953125
vt 0.3021950125694275 0.555404007434845
vt 0.20948399603366852 0.5567619800567627
vt 0.23661500215530396 0.29326796531677246
vt 0.3021950125694275 0.555404007434845
vt 0.29686498641967773 0.3365269899368286
vt 0.1714790016412735 0.38941699266433716
vt 0.26259899139404297 0.2820360064506531
vt 0.3990330100059509 0.21294599771499634
vt 0.3858729898929596 0.28269100189208984
vt 0.26259899139404297 0.2820360064506531
vt 0.3990330100059509 0.21294599771499634
vt 0.26259899139404297 0.2820360064506531
vt 0.2401989996433258 0.2425830364227295
vt 0.38277000188827515 0.15966099500656128
vt 0.3990330100059509 0.21294599771499634
vt 0.2401989996433258 0.2425830364227295
vt 0.26259899139404297 0.2820360064506531
vt 0.3227419853210449 0.2864130139350891
vt 0.29686498641967773 0.3365269899368286
vt 0.391414999961853 0.35050201416015625
vt 0.3737969994544983 0.3883509635925293
vt 0.29686498641967773 0.3365269899368286
vt 0.3493430018424988 0.32667696475982666
vt 0.391414999961853 0.35050201416015625
vt 0.29686498641967773 0.3365269899368286
vt 0.3737969994544983 0.3883509635925293
vt 0.3177019953727722 0.4160100221633911
vt 0.29686498641967773 0.3365269899368286
vt 0.29686498641967773 0.3365269899368286
vt 0.3177019953727722 0.4160100221633911
vt 0.1714790016412735 0.38941699266433716
vt 0.391414999961853 0.35050201416015625
vt 0.3493430018424988 0.32667696475982666
vt 0.36232900619506836 0.29940998554229736
vt 0.3925110101699829 0.30727100372314453
vt 0.391414999961853 0.35050201416015625
vt 0.36232900619506836 0.29940998554229736
vt 0.3858729898929596 0.08461523056030273
vt 0.3925110101699829 0.1672859787940979
vt 0.36232900619506836 0.1267470121383667
vt 0.7005900144577026 0.1267470121383667
vt 0.6733229756355286 0.11215299367904663
vt 0.7135869860649109 0.051776885986328125
vt 0.26259899139404297 0.2820360064506531
vt 0.3858729898929596 0.28269100189208984
vt 0.3227419853210449 0.2864130139350891
vt 0.29686498641967773 0.3365269899368286
vt 0.3227419853210449 0.2864130139350891
vt 0.3493430018424988 0.32667696475982666
vt 0.36232900619506836 0.1267470121383667
vt 0.3227419853210449 0.051776885986328125
vt 0.3858729898929596 0.08461523056030273
vn 0.4992970748877176 -0.31375128664693325 0.8076277367302109
vn 0.45440700742256146 -0.5788499724668748 0.6770871295338367
vn 0.6302397701167854 -0.4852835721600619 0.6060508945251308
vn 0.7430611439106157 -0.2302578560703324 0.6283641111076773
vn 0.4992970748877176 -0.31375128664693325 0.8076277367302109
vn 0.6302397701167854 -0.4852835721600619 0.6060508945251308
vn 0.9193056483460529 0.2442408561217435 0.30858309921309895
vn 0.8954745927858249 0.3902922781876726 0.2140027833046508
vn 0.8767547909055803 0.2084294338569608 0.4334261271845283
vn 0.8004486683772166 0.005683499010035085 0.5993743630921695
vn 0.9193056483460529 0.2442408561217435 0.30858309921309895
vn 0.8767547909055803 0.2084294338569608 0.4334261271845283
vn 0.4992970748877176 -0.31375128664693325 0.8076277367302109
vn 0.7430611439106157 -0.2302578560703324 0.6283641111076773
vn 0.7384252815715464 -0.1193747541838982 0.6636849942551935
vn 0.4046751632052118 -0.19209708696642544 0.8940563301402484
vn 0.4992970748877176 -0.31375128664693325 0.8076277367302109
vn 0.7384252815715464 -0.1193747541838982 0.6636849942551935
vn 0.5473483143811557 -0.07953358352910289 0.8331171777337968
vn 0.4046751632052118 -0.19209708696642544 0.8940563301402484
vn 0.7384252815715464 -0.1193747541838982 0.6636849942551935
vn 0.8004486683772166 0.005683499010035085 0.5993743630921695
vn 0.5473483143811557 -0.07953358352910289 0.8331171777337968
vn 0.7384252815715464 -0.1193747541838982 0.6636849942551935
vn 0.7689751588999757 -0.46090469977184767 0.44299442741752426
vn 0.8225482296323647 -0.13880620211800823 0.5514954652417707
vn 0.7430611439106157 -0.2302578560703324 0.6283641111076773
vn 0.6302397701167854 -0.4852835721600619 0.6060508945251308
vn 0.7689751588999757 -0.46090469977184767 0.44299442741752426
vn 0.7430611439106157 -0.2302578560703324 0.6283641111076773
vn 0.15172765369088706 -0.936643731129672 -0.31571702526304274
vn 0.7165853331178493 -0.6963338207316282 -0.040307201163979234
vn 0.6168584228382831 -0.7651742101733887 0.18437492849896164
vn 0.45440700742256146 -0.5788499724668748 0.6770871295338367
vn 0.057739841761437184 -0.9983154375943105 -0.005691900758488811
vn 0.6168584228382831 -0.7651742101733887 0.18437492849896164
vn 0.6302397701167854 -0.4852835721600619 0.6060508945251308
vn 0.45440700742256146 -0.5788499724668748 0.6770871295338367
vn 0.6168584228382831 -0.7651742101733887 0.18437492849896164
vn 0.057739841761437184 -0.9983154375943105 -0.005691900758488811
vn 0.15172765369088706 -0.936643731129672 -0.31571702526304274
vn 0.6168584228382831 -0.7651742101733887 0.18437492849896164
vn 0.4992970748877176 -0.31375128664693325 0.8076277367302109
vn 0.349186442465094 -0.25189905797630036 0.9025606311983831
vn 0.3753931104424422 -0.44087333539095286 0.8152979300682694
vn 0.45440700742256146 -0.5788499724668748 0.6770871295338367
vn 0.4992970748877176 -0.31375128664693325 0.8076277367302109
vn 0.3753931104424422 -0.44087333539095286 0.8152979300682694
vn 0.4046751632052118 -0.19209708696642544 0.8940563301402484
vn 0.22676137826144985 -0.15076621865794476 0.9622103848122574
vn 0.349186442465094 -0.25189905797630036 0.9025606311983831
vn 0.4992970748877176 -0.31375128664693325 0.8076277367302109
vn 0.4046751632052118 -0.19209708696642544 0.8940563301402484
vn 0.349186442465094 -0.25189905797630036 0.9025606311983831
vn 0.8945486178299817 -0.008839545750901274 0.4468832428827321
vn 0.9193056483460529 0.2442408561217435 0.30858309921309895
vn 0.8004486683772166 0.005683499010035085 0.5993743630921695
vn 0.7384252815715464 -0.1193747541838982 0.6636849942551935
vn 0.8945486178299817 -0.008839545750901274 0.4468832428827321
vn 0.8004486683772166 0.005683499010035085 0.5993743630921695
vn 0.5699548288600855 -0.11978023334930832 0.8128986337532226
vn 0.5473483143811557 -0.07953358352910289 0.8331171777337968
vn 0.8004486683772166 0.005683499010035085 0.5993743630921695
vn 0.8767547909055803 0.2084294338569608 0.4334261271845283
vn 0.5699548288600855 -0.11978023334930832 0.8128986337532226
vn 0.8004486683772166 0.005683499010035085 0.5993743630921695
vn 0.4046751632052118 -0.19209708696642544 0.8940563301402484
vn 0.5473483143811557 -0.07953358352910289 0.8331171777337968
vn 0.23014015226711257 -0.14870657726802236 0.9617285813532319
vn 0.22676137826144985 -0.15076621865794476 0.9622103848122574
vn 0.4046751632052118 -0.19209708696642544 0.8940563301402484
vn 0.23014015226711257 -0.14870657726802236 0.9617285813532319
vn 0.6168584228382831 -0.7651742101733887 0.18437492849896164
vn 0.7165853331178493 -0.6963338207316282 -0.040307201163979234
vn 0.7689751588999757 -0.46090469977184767 0.44299442741752426
vn 0.6302397701167854 -0.4852835721600619 0.6060508945251308
vn 0.6168584228382831 -0.7651742101733887 0.18437492849896164
vn 0.7689751588999757 -0.46090469977184767 0.44299442741752426
vn 0.7430611439106157 -0.2302578560703324 0.6283641111076773
vn 0.8225482296323647 -0.13880620211800823 0.5514954652417707
vn 0.8945486178299817 -0.008839545750901274 0.4468832428827321
vn 0.7384252815715464 -0.1193747541838982 0.6636849942551935
vn 0.7430611439106157 -0.2302578560703324 0.6283641111076773
vn 0.8945486178299817 -0.008839545750901274 0.4468832428827321
vn -0.27553327267287947 -0.8964831307046055 -0.3469861841806414
vn 0.15172765369088706 -0.936643731129672 -0.31571702526304274
vn 0.057739841761437184 -0.9983154375943105 -0.005691900758488811
vn -0.0825500803232879 -0.9526811769716126 0.2925475333729577
vn -0.33272979764970784 -0.8400833132380264 -0.42842841709555685
vn 0.057739841761437184 -0.9983154375943105 -0.005691900758488811
vn -0.0825500803232879 -0.9526811769716126 0.2925475333729577
vn 0.057739841761437184 -0.9983154375943105 -0.005691900758488811
vn 0.45440700742256146 -0.5788499724668748 0.6770871295338367
vn 0.3753931104424422 -0.44087333539095286 0.8152979300682694
vn -0.0825500803232879 -0.9526811769716126 0.2925475333729577
vn 0.45440700742256146 -0.5788499724668748 0.6770871295338367
vn 0.057739841761437184 -0.9983154375943105 -0.005691900758488811
vn -0.5516629809503021 -0.7625692479023994 -0.33786994184537267
vn -0.27553327267287947 -0.8964831307046055 -0.3469861841806414
vn -0.6179040205388192 -0.7832155234294892 0.06905117856368563
vn -0.4425811844263247 -0.8332745577233448 -0.3313237188049711
vn -0.27553327267287947 -0.8964831307046055 -0.3469861841806414
vn -0.6852695246038031 -0.7274376644008099 -0.035215381019835984
vn -0.6179040205388192 -0.7832155234294892 0.06905117856368563
vn -0.27553327267287947 -0.8964831307046055 -0.3469861841806414
vn -0.4425811844263247 -0.8332745577233448 -0.3313237188049711
vn -0.18068427812667298 -0.8356516714517477 -0.5186901537890838
vn -0.27553327267287947 -0.8964831307046055 -0.3469861841806414
vn -0.27553327267287947 -0.8964831307046055 -0.3469861841806414
vn -0.18068427812667298 -0.8356516714517477 -0.5186901537890838
vn 0.15172765369088706 -0.936643731129672 -0.31571702526304274
vn -0.6179040205388192 -0.7832155234294892 0.06905117856368563
vn -0.6852695246038031 -0.7274376644008099 -0.035215381019835984
vn -0.5943571125356547 -0.6970818995871156 -0.401019261440517
vn -0.6150954647360147 -0.7101859683362991 -0.34248132743175846
vn -0.6179040205388192 -0.7832155234294892 0.06905117856368563
vn -0.5943571125356547 -0.6970818995871156 -0.401019261440517
vn -0.33272979764970784 -0.8400833132380264 -0.42842841709555685
vn -0.6150954647360147 -0.7101859683362991 -0.34248132743175846
vn -0.5943571125356547 -0.6970818995871156 -0.401019261440517
vn -0.5943571125356547 -0.6970818995871156 -0.401019261440517
vn -0.6852695246038031 -0.7274376644008099 -0.035215381019835984
vn -0.5516629809503021 -0.7625692479023994 -0.33786994184537267
vn 0.057739841761437184 -0.9983154375943105 -0.005691900758488811
vn -0.33272979764970784 -0.8400833132380264 -0.42842841709555685
vn -0.5516629809503021 -0.7625692479023994 -0.33786994184537267
vn -0.27553327267287947 -0.8964831307046055 -0.3469861841806414
vn -0.5516629809503021 -0.7625692479023994 -0.33786994184537267
vn -0.6852695246038031 -0.7274376644008099 -0.035215381019835984
vn -0.5943571125356547 -0.6970818995871156 -0.401019261440517
vn -0.5516629809503021 -0.7625692479023994 -0.33786994184537267
vn -0.33272979764970784 -0.8400833132380264 -0.42842841709555685
f 1/1/1 2/2/2 3/3/3
f 4/4/4 5/5/5 6/6/6
f 7/7/7 8/8/8 9/9/9
f 10/10/10 11/11/11 12/12/12
f 13/13/13 14/14/14 15/15/15
f 16/16/16 17/17/17 18/18/18
f 19/19/19 20/20/20 21/21/21
f 22/22/22 23/23/23 24/24/24
f 25/25/25 26/26/26 27/27/27
f 28/28/28 29/29/29 30/30/30
f 31/31/31 32/32/32 33/33/33
f 34/34/34 35/35/35 36/36/36
f 37/37/37 38/38/38 39/39/39
f 40/40/40 41/41/41 42/42/42
f 43/43/43 44/44/44 45/45/45
f 46/46/46 47/47/47 48/48/48
f 49/49/49 50/50/50 51/51/51
f 52/52/52 53/53/53 54/54/54
f 55/55/55 56/56/56 57/57/57
f 58/58/58 59/59/59 60/60/60
f 61/61/61 62/62/62 63/63/63
f 64/64/64 65/65/65 66/66/66
f 67/67/67 68/68/68 69/69/69
f 70/70/70 71/71/71 72/72/72
f 73/73/73 74/74/74 75/75/75
f 76/76/76 77/77/77 78/78/78
f 79/79/79 80/80/80 81/81/81
f 82/82/82 83/83/83 84/84/84
f 85/85/85 86/86/86 87/87/87
f 88/88/88 89/89/89 90/90/90
f 91/91/91 92/92/92 93/93/93
f 94/94/94 95/95/95 96/96/96
f 97/97/97 98/98/98 99/99/99
f 100/100/100 101/101/101 102/102/102
f 103/103/103 104/104/104 105/105/105
f 106/106/106 107/107/107 108/108/108
f 109/109/109 110/110/110 111/111/111
f 112/112/112 113/113/113 114/114/114
f 115/115/115 116/116/116 117/117/117
f 118/118/118 119/119/119 120/120/120
f 121/121/121 122/122/122 123/123/123
f 124/124/124 125/125/125 126/126/126
f 127/127/127 128/128/128 129/129/129
f 130/130/130 131/131/131 132/132/132
