mtllib ArcadaCompleta.mtl
o D28C_CMV
usemtl Esmalte
v 59.26639938354492 19.401552200317383 4.692480833016821
v 57.954200744628906 19.369873046875 3.84890082546372
v 58.482398986816406 18.436752319335938 3.4006908244718987
v 59.51319885253906 17.93035125732422 3.8567207164396717
v 59.26639938354492 19.401552200317383 4.692480833016821
v 58.482398986816406 18.436752319335938 3.4006908244718987
v 58.58190155029297 18.288013458251953 2.1868207759489495
v 58.78779983520508 18.114643096923828 2.5277507609953362
v 58.482398986816406 18.436752319335938 3.4006908244718987
v 58.37590026855469 18.46137237548828 1.8459008044828846
v 58.58190155029297 18.288013458251953 2.1868207759489495
v 58.482398986816406 18.436752319335938 3.4006908244718987
v 57.893699645996094 18.780832290649414 2.0993507213224847
v 58.37590026855469 18.46137237548828 1.8459008044828846
v 58.482398986816406 18.436752319335938 3.4006908244718987
v 59.585601806640625 22.474943161010742 4.844160825692602
v 60.01639938354492 23.868322372436523 4.412110597573706
v 59.33409881591797 23.7607421875 4.033970624886939
v 58.902099609375 22.47502326965332 4.354330808602758
v 59.585601806640625 22.474943161010742 4.844160825692602
v 59.33409881591797 23.7607421875 4.033970624886939
v 59.26639938354492 19.401552200317383 4.692480833016821
v 59.42179870605469 21.123292922973633 4.856380731545873
v 58.26409912109375 21.123292922973633 4.303160936318823
v 57.954200744628906 19.369873046875 3.84890082546372
v 59.26639938354492 19.401552200317383 4.692480833016821
v 58.26409912109375 21.123292922973633 4.303160936318823
v 57.721900939941406 21.123292922973633 2.6617808646788084
v 57.497100830078125 19.64684295654297 2.459900648080297
v 57.954200744628906 19.369873046875 3.84890082546372
v 58.26409912109375 21.123292922973633 4.303160936318823
v 57.721900939941406 21.123292922973633 2.6617808646788084
v 57.954200744628906 19.369873046875 3.84890082546372
v 59.26639938354492 19.401552200317383 4.692480833016821
v 59.51319885253906 17.93035125732422 3.8567207164396717
v 60.88159942626953 18.36538314819336 4.068280965768285
v 60.75640106201172 19.42223358154297 4.7788908786406
v 59.26639938354492 19.401552200317383 4.692480833016821
v 60.88159942626953 18.36538314819336 4.068280965768285
v 59.26639938354492 19.401552200317383 4.692480833016821
v 60.75640106201172 19.42223358154297 4.7788908786406
v 60.762001037597656 21.123292922973633 4.984660894357153
v 59.42179870605469 21.123292922973633 4.856380731545873
v 59.26639938354492 19.401552200317383 4.692480833016821
v 60.762001037597656 21.123292922973633 4.984660894357153
v 59.6338005065918 17.529184341430664 3.4123606986631825
v 60.65380096435547 17.90578269958496 2.736470729791112
v 60.92679977416992 18.07075309753418 3.4886608428587396
v 60.65380096435547 17.90578269958496 2.736470729791112
v 61.05619812011719 18.203432083129883 2.610370666467138
v 60.92679977416992 18.07075309753418 3.4886608428587396
v 58.95840072631836 23.67066192626953 2.528590709649512
v 58.36759948730469 22.474943161010742 2.578240663491675
v 58.902099609375 22.47502326965332 4.354330808602758
v 59.33409881591797 23.7607421875 4.033970624886939
v 58.95840072631836 23.67066192626953 2.528590709649512
v 58.902099609375 22.47502326965332 4.354330808602758
v 59.42179870605469 21.123292922973633 4.856380731545873
v 59.585601806640625 22.474943161010742 4.844160825692602
v 58.902099609375 22.47502326965332 4.354330808602758
v 58.26409912109375 21.123292922973633 4.303160936318823
v 59.42179870605469 21.123292922973633 4.856380731545873
v 58.902099609375 22.47502326965332 4.354330808602758
v 57.954200744628906 19.369873046875 3.84890082546372
v 57.497100830078125 19.64684295654297 2.459900648080297
v 57.893699645996094 18.780832290649414 2.0993507213224847
v 58.482398986816406 18.436752319335938 3.4006908244718987
v 57.954200744628906 19.369873046875 3.84890082546372
v 57.893699645996094 18.780832290649414 2.0993507213224847
v 58.902099609375 22.47502326965332 4.354330808602758
v 58.36759948730469 22.474943161010742 2.578240663491675
v 57.721900939941406 21.123292922973633 2.6617808646788084
v 58.26409912109375 21.123292922973633 4.303160936318823
v 58.902099609375 22.47502326965332 4.354330808602758
v 57.721900939941406 21.123292922973633 2.6617808646788084
v 60.88159942626953 18.36538314819336 4.068280965768285
v 59.51319885253906 17.93035125732422 3.8567207164396717
v 59.6338005065918 17.529184341430664 3.4123606986631825
v 60.92679977416992 18.07075309753418 3.4886608428587396
v 60.88159942626953 18.36538314819336 4.068280965768285
v 59.6338005065918 17.529184341430664 3.4123606986631825
v 58.78779983520508 18.114643096923828 2.5277507609953362
v 59.06290054321289 17.975406646728516 2.044190675698705
v 59.6338005065918 17.529184341430664 3.4123606986631825
v 60.070499420166016 17.83624267578125 1.8224706954588368
v 60.52429962158203 17.87090301513672 2.316080839120336
v 59.6338005065918 17.529184341430664 3.4123606986631825
v 58.78779983520508 18.114643096923828 2.5277507609953362
v 59.6338005065918 17.529184341430664 3.4123606986631825
v 59.51319885253906 17.93035125732422 3.8567207164396717
v 58.482398986816406 18.436752319335938 3.4006908244718987
v 58.78779983520508 18.114643096923828 2.5277507609953362
v 59.51319885253906 17.93035125732422 3.8567207164396717
v 60.79460144042969 22.474943161010742 5.138500959359594
v 59.585601806640625 22.474943161010742 4.844160825692602
v 59.42179870605469 21.123292922973633 4.856380731545873
v 60.762001037597656 21.123292922973633 4.984660894357153
v 60.79460144042969 22.474943161010742 5.138500959359594
v 59.42179870605469 21.123292922973633 4.856380731545873
v 59.6338005065918 17.529184341430664 3.4123606986631825
v 59.06290054321289 17.975406646728516 2.044190675698705
v 60.070499420166016 17.83624267578125 1.8224706954588368
v 59.227500915527344 18.451372146606445 1.3329007930387928
v 60.316200256347656 18.376022338867188 0.9665547318090871
v 60.070499420166016 17.83624267578125 1.8224706954588368
v 59.06290054321289 17.975406646728516 2.044190675698705
v 59.227500915527344 18.451372146606445 1.3329007930387928
v 60.070499420166016 17.83624267578125 1.8224706954588368
v 58.58190155029297 18.288013458251953 2.1868207759489495
v 58.77989959716797 18.414432525634766 1.8150106973280384
v 59.06290054321289 17.975406646728516 2.044190675698705
v 58.78779983520508 18.114643096923828 2.5277507609953362
v 58.58190155029297 18.288013458251953 2.1868207759489495
v 59.06290054321289 17.975406646728516 2.044190675698705
v 58.77989959716797 18.414432525634766 1.8150106973280384
v 59.227500915527344 18.451372146606445 1.3329007930387928
v 59.06290054321289 17.975406646728516 2.044190675698705
v 61.08689880371094 18.455812454223633 1.4783307618727162
v 61.05619812011719 18.203432083129883 2.610370666467138
v 60.65380096435547 17.90578269958496 2.736470729791112
v 60.52429962158203 17.87090301513672 2.316080839120336
v 61.08689880371094 18.455812454223633 1.4783307618727162
v 60.65380096435547 17.90578269958496 2.736470729791112
v 58.37590026855469 18.46137237548828 1.8459008044828846
v 58.77989959716797 18.414432525634766 1.8150106973280384
v 58.58190155029297 18.288013458251953 2.1868207759489495
v 60.65380096435547 17.90578269958496 2.736470729791112
v 59.6338005065918 17.529184341430664 3.4123606986631825
v 60.52429962158203 17.87090301513672 2.316080839120336
v 60.316200256347656 18.376022338867188 0.9665547318090871
v 61.08689880371094 18.455812454223633 1.4783307618727162
v 60.52429962158203 17.87090301513672 2.316080839120336
v 60.070499420166016 17.83624267578125 1.8224706954588368
v 60.316200256347656 18.376022338867188 0.9665547318090871
v 60.52429962158203 17.87090301513672 2.316080839120336
vt 0.7855269908905029 0.04441028833389282
vt 0.938621997833252 0.1274610161781311
vt 0.8769969940185547 0.1715869903564453
vt 0.7567330002784729 0.12669098377227783
vt 0.7855269908905029 0.04441028833389282
vt 0.8769969940185547 0.1715869903564453
vt 0.8653879761695862 0.29109203815460205
vt 0.8413649797439575 0.25752800703048706
vt 0.8769969940185547 0.1715869903564453
vt 0.8894219994544983 0.32465600967407227
vt 0.8653879761695862 0.29109203815460205
vt 0.8769969940185547 0.1715869903564453
vt 0.9456809759140015 0.2997030019760132
vt 0.8894219994544983 0.32465600967407227
vt 0.8769969940185547 0.1715869903564453
vt 0.25171399116516113 0.7640889883041382
vt 0.3019759953022003 0.9792159795761108
vt 0.22237199544906616 0.9626070261001587
vt 0.17196999490261078 0.7641010284423828
vt 0.25171399116516113 0.7640889883041382
vt 0.22237199544906616 0.9626070261001587
vt 0.21447299420833588 0.28957903385162354
vt 0.2326039969921112 0.555404007434845
vt 0.09753420203924179 0.555404007434845
vt 0.06137850135564804 0.28468799591064453
vt 0.21447299420833588 0.28957903385162354
vt 0.09753420203924179 0.555404007434845
vt 0.7556679844856262 0.555404007434845
vt 0.7357929944992065 0.3274500370025635
vt 0.8725389838218689 0.28468799591064453
vt 0.917261004447937 0.555404007434845
vt 0.7556679844856262 0.555404007434845
vt 0.8725389838218689 0.28468799591064453
vt 0.21447299420833588 0.28957903385162354
vt 0.2432669997215271 0.062436699867248535
vt 0.4029189944267273 0.12960201501846313
vt 0.6116880178451538 0.035903215408325195
vt 0.7855269908905029 0.04441028833389282
vt 0.5970810055732727 0.10586297512054443
vt 0.21447299420833588 0.28957903385162354
vt 0.3883120119571686 0.29277199506759644
vt 0.38896501064300537 0.555404007434845
vt 0.2326039969921112 0.555404007434845
vt 0.21447299420833588 0.28957903385162354
vt 0.38896501064300537 0.555404007434845
vt 0.7426620125770569 0.1704379916191101
vt 0.6236590147018433 0.23697900772094727
vt 0.591808021068573 0.16292601823806763
vt 0.6236590147018433 0.23697900772094727
vt 0.5767109990119934 0.2493939995765686
vt 0.591808021068573 0.16292601823806763
vt 0.7425550222396851 0.9486989974975586
vt 0.7474430203437805 0.7640889883041382
vt 0.9222990274429321 0.7641010284423828
vt 0.8907600045204163 0.9626070261001587
vt 0.7425550222396851 0.9486989974975586
vt 0.9222990274429321 0.7641010284423828
vt 0.2326039969921112 0.555404007434845
vt 0.25171399116516113 0.7640889883041382
vt 0.17196999490261078 0.7641010284423828
vt 0.09753420203924179 0.555404007434845
vt 0.2326039969921112 0.555404007434845
vt 0.17196999490261078 0.7641010284423828
vt 0.8725389838218689 0.28468799591064453
vt 0.7357929944992065 0.3274500370025635
vt 0.7002969980239868 0.19374501705169678
vt 0.8284130096435547 0.14062100648880005
vt 0.8725389838218689 0.28468799591064453
vt 0.7002969980239868 0.19374501705169678
vt 0.9222990274429321 0.7641010284423828
vt 0.7474430203437805 0.7640889883041382
vt 0.7556679844856262 0.555404007434845
vt 0.917261004447937 0.555404007434845
vt 0.9222990274429321 0.7641010284423828
vt 0.7556679844856262 0.555404007434845
vt 0.5970810055732727 0.10586297512054443
vt 0.7567330002784729 0.12669098377227783
vt 0.7426620125770569 0.1704379916191101
vt 0.591808021068573 0.16292601823806763
vt 0.5970810055732727 0.10586297512054443
vt 0.7426620125770569 0.1704379916191101
vt 0.8413649797439575 0.25752800703048706
vt 0.8092690110206604 0.30513399839401245
vt 0.7426620125770569 0.1704379916191101
vt 0.6917120218276978 0.3269619941711426
vt 0.6387670040130615 0.27836596965789795
vt 0.7426620125770569 0.1704379916191101
vt 0.8413649797439575 0.25752800703048706
vt 0.7426620125770569 0.1704379916191101
vt 0.7567330002784729 0.12669098377227783
vt 0.8769969940185547 0.1715869903564453
vt 0.8413649797439575 0.25752800703048706
vt 0.7567330002784729 0.12669098377227783
vt 0.3927690088748932 0.7640889883041382
vt 0.25171399116516113 0.7640889883041382
vt 0.2326039969921112 0.555404007434845
vt 0.38896501064300537 0.555404007434845
vt 0.3927690088748932 0.7640889883041382
vt 0.2326039969921112 0.555404007434845
vt 0.7426620125770569 0.1704379916191101
vt 0.8092690110206604 0.30513399839401245
vt 0.6917120218276978 0.3269619941711426
vt 0.7900649905204773 0.37515997886657715
vt 0.6630460023880005 0.4112269878387451
vt 0.6917120218276978 0.3269619941711426
vt 0.8092690110206604 0.30513399839401245
vt 0.7900649905204773 0.37515997886657715
vt 0.6917120218276978 0.3269619941711426
vt 0.8653879761695862 0.29109203815460205
vt 0.842287003993988 0.3276970386505127
vt 0.8092690110206604 0.30513399839401245
vt 0.8413649797439575 0.25752800703048706
vt 0.8653879761695862 0.29109203815460205
vt 0.8092690110206604 0.30513399839401245
vt 0.842287003993988 0.3276970386505127
vt 0.7900649905204773 0.37515997886657715
vt 0.8092690110206604 0.30513399839401245
vt 0.5731289982795715 0.3608430027961731
vt 0.5767109990119934 0.2493939995765686
vt 0.6236590147018433 0.23697900772094727
vt 0.6387670040130615 0.27836596965789795
vt 0.5731289982795715 0.3608430027961731
vt 0.6236590147018433 0.23697900772094727
vt 0.8894219994544983 0.32465600967407227
vt 0.842287003993988 0.3276970386505127
vt 0.8653879761695862 0.29109203815460205
vt 0.6236590147018433 0.23697900772094727
vt 0.7426620125770569 0.1704379916191101
vt 0.6387670040130615 0.27836596965789795
vt 0.6630460023880005 0.4112269878387451
vt 0.5731289982795715 0.3608430027961731
vt 0.6387670040130615 0.27836596965789795
vt 0.6917120218276978 0.3269619941711426
vt 0.6630460023880005 0.4112269878387451
vt 0.6387670040130615 0.27836596965789795
vn -0.27533211473201297 -0.3074649479583797 0.9108553849948675
vn -0.839468235852564 -0.21661421482641524 0.4983687017958888
vn -0.6135794596843687 -0.6759299720122974 0.4082143059581485
vn -0.3219749153232167 -0.6515591379911505 0.6868790603904275
vn -0.27533211473201297 -0.3074649479583797 0.9108553849948675
vn -0.6135794596843687 -0.6759299720122974 0.4082143059581485
vn -0.6030801669332 -0.7869057235019064 -0.13066634827592352
vn -0.5984677293822939 -0.7923038293752128 0.11870559736328833
vn -0.6135794596843687 -0.6759299720122974 0.4082143059581485
vn -0.5460411724315252 -0.8375805337318117 -0.01725941838934597
vn -0.6030801669332 -0.7869057235019064 -0.13066634827592352
vn -0.6135794596843687 -0.6759299720122974 0.4082143059581485
vn -0.781353037603223 -0.6015138481157003 0.16633857385843626
vn -0.5460411724315252 -0.8375805337318117 -0.01725941838934597
vn -0.6135794596843687 -0.6759299720122974 0.4082143059581485
vn -0.4521707098431502 0.20776554032627126 0.8673956014488855
vn -0.4923693517057061 0.3930298371516586 0.7765951124037823
vn -0.7519077665827417 0.3938056830348899 0.5287265782632617
vn -0.8144951540072145 0.3691118394608445 0.4476093096312848
vn -0.4521707098431502 0.20776554032627126 0.8673956014488855
vn -0.7519077665827417 0.3938056830348899 0.5287265782632617
vn -0.27533211473201297 -0.3074649479583797 0.9108553849948675
vn -0.29452561390893417 -0.00562119838512294 0.955627053237967
vn -0.7351648488107383 0.10118347711818133 0.6702943749065471
vn -0.839468235852564 -0.21661421482641524 0.4983687017958888
vn -0.27533211473201297 -0.3074649479583797 0.9108553849948675
vn -0.7351648488107383 0.10118347711818133 0.6702943749065471
vn -0.9183408231676654 0.2575285922440897 0.30054809378951663
vn -0.9486471959846036 -0.13792789532078392 0.284682969710041
vn -0.839468235852564 -0.21661421482641524 0.4983687017958888
vn -0.7351648488107383 0.10118347711818133 0.6702943749065471
vn -0.9183408231676654 0.2575285922440897 0.30054809378951663
vn -0.839468235852564 -0.21661421482641524 0.4983687017958888
vn -0.27533211473201297 -0.3074649479583797 0.9108553849948675
vn -0.3219749153232167 -0.6515591379911505 0.6868790603904275
vn 0.06293516039862614 -0.6119662101111425 0.7883758768936326
vn -0.050527760929781236 -0.3168921364534658 0.9471147339311015
vn -0.27533211473201297 -0.3074649479583797 0.9108553849948675
vn 0.06293516039862614 -0.6119662101111425 0.7883758768936326
vn -0.27533211473201297 -0.3074649479583797 0.9108553849948675
vn -0.050527760929781236 -0.3168921364534658 0.9471147339311015
vn -0.07999833531836643 -0.10545012913519088 0.9912015620506566
vn -0.29452561390893417 -0.00562119838512294 0.955627053237967
vn -0.27533211473201297 -0.3074649479583797 0.9108553849948675
vn -0.07999833531836643 -0.10545012913519088 0.9912015620506566
vn -0.01966173210317935 -0.9923442049104948 0.12192782812492255
vn 0.4739234103849354 -0.8797636543489389 -0.03758342155409641
vn 0.4065348662974416 -0.8916659641900577 0.19915122593028614
vn 0.4739234103849354 -0.8797636543489389 -0.03758342155409641
vn 0.568316756142166 -0.8153014757043823 -0.11090341925433311
vn 0.4065348662974416 -0.8916659641900577 0.19915122593028614
vn -0.8858824647064488 0.40014402607296845 0.2347275380600726
vn -0.8633241561929708 0.4326431109344445 0.25979095422023607
vn -0.8144951540072145 0.3691118394608445 0.4476093096312848
vn -0.7519077665827417 0.3938056830348899 0.5287265782632617
vn -0.8858824647064488 0.40014402607296845 0.2347275380600726
vn -0.8144951540072145 0.3691118394608445 0.4476093096312848
vn -0.29452561390893417 -0.00562119838512294 0.955627053237967
vn -0.4521707098431502 0.20776554032627126 0.8673956014488855
vn -0.8144951540072145 0.3691118394608445 0.4476093096312848
vn -0.7351648488107383 0.10118347711818133 0.6702943749065471
vn -0.29452561390893417 -0.00562119838512294 0.955627053237967
vn -0.8144951540072145 0.3691118394608445 0.4476093096312848
vn -0.839468235852564 -0.21661421482641524 0.4983687017958888
vn -0.9486471959846036 -0.13792789532078392 0.284682969710041
vn -0.781353037603223 -0.6015138481157003 0.16633857385843626
vn -0.6135794596843687 -0.6759299720122974 0.4082143059581485
vn -0.839468235852564 -0.21661421482641524 0.4983687017958888
vn -0.781353037603223 -0.6015138481157003 0.16633857385843626
vn -0.8144951540072145 0.3691118394608445 0.4476093096312848
vn -0.8633241561929708 0.4326431109344445 0.25979095422023607
vn -0.9183408231676654 0.2575285922440897 0.30054809378951663
vn -0.7351648488107383 0.10118347711818133 0.6702943749065471
vn -0.8144951540072145 0.3691118394608445 0.4476093096312848
vn -0.9183408231676654 0.2575285922440897 0.30054809378951663
vn 0.06293516039862614 -0.6119662101111425 0.7883758768936326
vn -0.3219749153232167 -0.6515591379911505 0.6868790603904275
vn -0.01966173210317935 -0.9923442049104948 0.12192782812492255
vn 0.4065348662974416 -0.8916659641900577 0.19915122593028614
vn 0.06293516039862614 -0.6119662101111425 0.7883758768936326
vn -0.01966173210317935 -0.9923442049104948 0.12192782812492255
vn -0.5984677293822939 -0.7923038293752128 0.11870559736328833
vn -0.3514041906143776 -0.8781383051333829 -0.32463550618520515
vn -0.01966173210317935 -0.9923442049104948 0.12192782812492255
vn -0.05229469840835095 -0.9236114103770424 -0.3797462667883781
vn 0.3682518281648077 -0.900279516625751 -0.23213656109579406
vn -0.01966173210317935 -0.9923442049104948 0.12192782812492255
vn -0.5984677293822939 -0.7923038293752128 0.11870559736328833
vn -0.01966173210317935 -0.9923442049104948 0.12192782812492255
vn -0.3219749153232167 -0.6515591379911505 0.6868790603904275
vn -0.6135794596843687 -0.6759299720122974 0.4082143059581485
vn -0.5984677293822939 -0.7923038293752128 0.11870559736328833
vn -0.3219749153232167 -0.6515591379911505 0.6868790603904275
vn -0.16342355918295406 -0.03976830997830025 0.9857541386296308
vn -0.4521707098431502 0.20776554032627126 0.8673956014488855
vn -0.29452561390893417 -0.00562119838512294 0.955627053237967
vn -0.07999833531836643 -0.10545012913519088 0.9912015620506566
vn -0.16342355918295406 -0.03976830997830025 0.9857541386296308
vn -0.29452561390893417 -0.00562119838512294 0.955627053237967
vn -0.01966173210317935 -0.9923442049104948 0.12192782812492255
vn -0.3514041906143776 -0.8781383051333829 -0.32463550618520515
vn -0.05229469840835095 -0.9236114103770424 -0.3797462667883781
vn -0.2915313211488467 -0.7663252677262923 -0.5724989719060066
vn 0.15185342666764323 -0.8673809135121836 -0.47391021057164906
vn -0.05229469840835095 -0.9236114103770424 -0.3797462667883781
vn -0.3514041906143776 -0.8781383051333829 -0.32463550618520515
vn -0.2915313211488467 -0.7663252677262923 -0.5724989719060066
vn -0.05229469840835095 -0.9236114103770424 -0.3797462667883781
vn -0.6030801669332 -0.7869057235019064 -0.13066634827592352
vn -0.47705204009442287 -0.7095887323992988 -0.5185606829424164
vn -0.3514041906143776 -0.8781383051333829 -0.32463550618520515
vn -0.5984677293822939 -0.7923038293752128 0.11870559736328833
vn -0.6030801669332 -0.7869057235019064 -0.13066634827592352
vn -0.3514041906143776 -0.8781383051333829 -0.32463550618520515
vn -0.47705204009442287 -0.7095887323992988 -0.5185606829424164
vn -0.2915313211488467 -0.7663252677262923 -0.5724989719060066
vn -0.3514041906143776 -0.8781383051333829 -0.32463550618520515
vn 0.46198099199369586 -0.844586718079227 -0.270641531699555
vn 0.568316756142166 -0.8153014757043823 -0.11090341925433311
vn 0.4739234103849354 -0.8797636543489389 -0.03758342155409641
vn 0.3682518281648077 -0.900279516625751 -0.23213656109579406
vn 0.46198099199369586 -0.844586718079227 -0.270641531699555
vn 0.4739234103849354 -0.8797636543489389 -0.03758342155409641
vn -0.5460411724315252 -0.8375805337318117 -0.01725941838934597
vn -0.47705204009442287 -0.7095887323992988 -0.5185606829424164
vn -0.6030801669332 -0.7869057235019064 -0.13066634827592352
vn 0.4739234103849354 -0.8797636543489389 -0.03758342155409641
vn -0.01966173210317935 -0.9923442049104948 0.12192782812492255
vn 0.3682518281648077 -0.900279516625751 -0.23213656109579406
vn 0.15185342666764323 -0.8673809135121836 -0.47391021057164906
vn 0.46198099199369586 -0.844586718079227 -0.270641531699555
vn 0.3682518281648077 -0.900279516625751 -0.23213656109579406
vn -0.05229469840835095 -0.9236114103770424 -0.3797462667883781
vn 0.15185342666764323 -0.8673809135121836 -0.47391021057164906
vn 0.3682518281648077 -0.900279516625751 -0.23213656109579406
f 1/1/1 2/2/2 3/3/3
f 4/4/4 5/5/5 6/6/6
f 7/7/7 8/8/8 9/9/9
f 10/10/10 11/11/11 12/12/12
f 13/13/13 14/14/14 15/15/15
f 16/16/16 17/17/17 18/18/18
f 19/19/19 20/20/20 21/21/21
f 22/22/22 23/23/23 24/24/24
f 25/25/25 26/26/26 27/27/27
f 28/28/28 29/29/29 30/30/30
f 31/31/31 32/32/32 33/33/33
f 34/34/34 35/35/35 36/36/36
f 37/37/37 38/38/38 39/39/39
f 40/40/40 41/41/41 42/42/42
f 43/43/43 44/44/44 45/45/45
f 46/46/46 47/47/47 48/48/48
f 49/49/49 50/50/50 51/51/51
f 52/52/52 53/53/53 54/54/54
f 55/55/55 56/56/56 57/57/57
f 58/58/58 59/59/59 60/60/60
f 61/61/61 62/62/62 63/63/63
f 64/64/64 65/65/65 66/66/66
f 67/67/67 68/68/68 69/69/69
f 70/70/70 71/71/71 72/72/72
f 73/73/73 74/74/74 75/75/75
f 76/76/76 77/77/77 78/78/78
f 79/79/79 80/80/80 81/81/81
f 82/82/82 83/83/83 84/84/84
f 85/85/85 86/86/86 87/87/87
f 88/88/88 89/89/89 90/90/90
f 91/91/91 92/92/92 93/93/93
f 94/94/94 95/95/95 96/96/96
f 97/97/97 98/98/98 99/99/99
f 100/100/100 101/101/101 102/102/102
f 103/103/103 104/104/104 105/105/105
f 106/106/106 107/107/107 108/108/108
f 109/109/109 110/110/110 111/111/111
f 112/112/112 113/113/113 114/114/114
f 115/115/115 116/116/116 117/117/117
f 118/118/118 119/119/119 120/120/120
f 121/121/121 122/122/122 123/123/123
f 124/124/124 125/125/125 126/126/126
f 127/127/127 128/128/128 129/129/129
f 130/130/130 131/131/131 132/132/132
f 133/133/133 134/134/134 135/135/135
