mtllib ArcadaCompleta.mtl
o D28C_V
usemtl Esmalte
v 60.79460144042969 22.474943161010742 5.138500959359594
v 61.86399841308594 22.474943161010742 4.686040670358129
v 61.8385009765625 23.99970245361328 4.807950765572974
v 60.94020080566406 23.975923538208008 4.666460782967993
v 60.79460144042969 22.474943161010742 5.138500959359594
v 61.8385009765625 23.99970245361328 4.807950765572974
v 59.585601806640625 22.474943161010742 4.844160825692602
v 60.79460144042969 22.474943161010742 5.138500959359594
v 60.94020080566406 23.975923538208008 4.666460782967993
v 60.01639938354492 23.868322372436523 4.412110597573706
v 59.585601806640625 22.474943161010742 4.844160825692602
v 60.94020080566406 23.975923538208008 4.666460782967993
v 61.86399841308594 22.474943161010742 4.686040670358129
v 62.864498138427734 22.474943161010742 4.311340600930639
v 62.73680114746094 23.976072311401367 4.666460782967993
v 61.8385009765625 23.99970245361328 4.807950765572974
v 61.86399841308594 22.474943161010742 4.686040670358129
v 62.73680114746094 23.976072311401367 4.666460782967993
v 62.864498138427734 22.474943161010742 4.311340600930639
v 64.07340240478516 22.474943161010742 4.017000944100805
v 63.660499572753906 23.86861228942871 4.412110597573706
v 62.73680114746094 23.976072311401367 4.666460782967993
v 62.864498138427734 22.474943161010742 4.311340600930639
v 63.660499572753906 23.86861228942871 4.412110597573706
vt 0.3927690088748932 0.7640889883041382
vt 0.5175359845161438 0.7640889883041382
vt 0.5145609974861145 0.9995009899139404
vt 0.40975600481033325 0.9958289861679077
vt 0.3927690088748932 0.7640889883041382
vt 0.5145609974861145 0.9995009899139404
vt 0.25171399116516113 0.7640889883041382
vt 0.3927690088748932 0.7640889883041382
vt 0.40975600481033325 0.9958289861679077
vt 0.3019759953022003 0.9792159795761108
vt 0.25171399116516113 0.7640889883041382
vt 0.40975600481033325 0.9958289861679077
vt 0.5175359845161438 0.7640889883041382
vt 0.6342639923095703 0.7640889883041382
vt 0.6193659901618958 0.995851993560791
vt 0.5145609974861145 0.9995009899139404
vt 0.5175359845161438 0.7640889883041382
vt 0.6193659901618958 0.995851993560791
vt 0.6342639923095703 0.7640889883041382
vt 0.7753080129623413 0.7640889883041382
vt 0.7271339893341064 0.9792609810829163
vt 0.6193659901618958 0.995851993560791
vt 0.6342639923095703 0.7640889883041382
vt 0.7271339893341064 0.9792609810829163
vn 0.005018193711925259 0.19243424726090147 0.981297038726297
vn 0.3075732739829404 -0.11171446206843567 0.944943680912347
vn 0.15425499671259052 0.04994486449803554 0.9867679091354113
vn -0.22255186063914112 0.32703410590661774 0.9184331020275324
vn 0.005018193711925259 0.19243424726090147 0.981297038726297
vn 0.15425499671259052 0.04994486449803554 0.9867679091354113
vn -0.2506210906971002 0.333763484014713 0.9087304361779441
vn 0.005018193711925259 0.19243424726090147 0.981297038726297
vn -0.22255186063914112 0.32703410590661774 0.9184331020275324
vn -0.28641178395478856 0.3634321288989683 0.8865017640680696
vn -0.2506210906971002 0.333763484014713 0.9087304361779441
vn -0.22255186063914112 0.32703410590661774 0.9184331020275324
vn 0.3075732739829404 -0.11171446206843567 0.944943680912347
vn 0.2718739333973938 -0.1980929246742812 0.9417238223242624
vn 0.2516962661788748 -0.1594547487404787 0.9545801028178431
vn 0.15425499671259052 0.04994486449803554 0.9867679091354113
vn 0.3075732739829404 -0.11171446206843567 0.944943680912347
vn 0.2516962661788748 -0.1594547487404787 0.9545801028178431
vn 0.2718739333973938 -0.1980929246742812 0.9417238223242624
vn 0.23172917939090376 -0.20117028234128873 0.9517521236758784
vn 0.23441333635360975 -0.2026333324398577 0.9507839503924578
vn 0.2516962661788748 -0.1594547487404787 0.9545801028178431
vn 0.2718739333973938 -0.1980929246742812 0.9417238223242624
vn 0.23441333635360975 -0.2026333324398577 0.9507839503924578
f 1/1/1 2/2/2 3/3/3
f 4/4/4 5/5/5 6/6/6
f 7/7/7 8/8/8 9/9/9
f 10/10/10 11/11/11 12/12/12
f 13/13/13 14/14/14 15/15/15
f 16/16/16 17/17/17 18/18/18
f 19/19/19 20/20/20 21/21/21
f 22/22/22 23/23/23 24/24/24
