mtllib ArcadaCompleta.mtl
o D31C_CV
usemtl V
v 3.5678799152374268 -21.79108238220215 2.840649500026809
v 2.7493700981140137 -21.791162490844727 3.0164693738366233
v 2.7494699954986572 -23.778032302856445 2.6519893552209
v 3.4438400268554688 -23.74793243408203 2.4344793702508074
v 3.5678799152374268 -21.79108238220215 2.840649500026809
v 2.7494699954986572 -23.778032302856445 2.6519893552209
v 1.9308600425720215 -21.791242599487305 2.840649500026809
v 1.6815500259399414 -20.549823760986328 2.5899394894982444
v 1.1539900302886963 -20.54989242553711 1.993159427776443
v 1.4092999696731567 -21.733882904052734 2.1849693204308616
v 1.9308600425720215 -21.791242599487305 2.840649500026809
v 1.1539900302886963 -20.54989242553711 1.993159427776443
v 3.5678799152374268 -21.79108238220215 2.840649500026809
v 4.270750045776367 -21.733623504638672 2.013449325695144
v 4.477290153503418 -20.549583435058594 1.993159427776443
v 3.817049980163574 -20.549652099609375 2.5899394894982444
v 3.5678799152374268 -21.79108238220215 2.840649500026809
v 4.477290153503418 -20.549583435058594 1.993159427776443
v 3.5678799152374268 -21.79108238220215 2.840649500026809
v 3.817049980163574 -20.549652099609375 2.5899394894982444
v 2.749300003051758 -20.549732208251953 2.8454593564416037
v 2.7493700981140137 -21.791162490844727 3.0164693738366233
v 3.5678799152374268 -21.79108238220215 2.840649500026809
v 2.749300003051758 -20.549732208251953 2.8454593564416037
v 1.9308600425720215 -21.791242599487305 2.840649500026809
v 1.4092999696731567 -21.733882904052734 2.1849693204308616
v 2.055079936981201 -23.748132705688477 2.4344793702508074
v 2.7493700981140137 -21.791162490844727 3.0164693738366233
v 1.9308600425720215 -21.791242599487305 2.840649500026809
v 2.055079936981201 -23.748132705688477 2.4344793702508074
v 2.7494699954986572 -23.778032302856445 2.6519893552209
v 2.7493700981140137 -21.791162490844727 3.0164693738366233
v 2.055079936981201 -23.748132705688477 2.4344793702508074
v 1.6815500259399414 -20.549823760986328 2.5899394894982444
v 1.9308600425720215 -21.791242599487305 2.840649500026809
v 2.7493700981140137 -21.791162490844727 3.0164693738366233
v 2.749300003051758 -20.549732208251953 2.8454593564416037
v 1.6815500259399414 -20.549823760986328 2.5899394894982444
v 2.7493700981140137 -21.791162490844727 3.0164693738366233
v 3.4438400268554688 -23.74793243408203 2.4344793702508074
v 4.270750045776367 -21.733623504638672 2.013449325695144
v 3.5678799152374268 -21.79108238220215 2.840649500026809
vt 0.33724600076675415 0.2102469801902771
vt 0.49991199374198914 0.21023797988891602
vt 0.499891996383667 0.0004995465278625488
vt 0.36189600825309753 0.003679037094116211
vt 0.33724600076675415 0.2102469801902771
vt 0.499891996383667 0.0004995465278625488
vt 0.029597999528050423 0.2102299928665161
vt 0.0710911974310875 0.3412749767303467
vt 0.16986100375652313 0.3412669897079468
vt 0.1381160020828247 0.21628403663635254
vt 0.029597999528050423 0.2102299928665161
vt 0.16986100375652313 0.3412669897079468
vt 0.9704020023345947 0.2102469801902771
vt 0.8334959745407104 0.2163119912147522
vt 0.8301380276679993 0.34130001068115234
vt 0.9289090037345886 0.34129297733306885
vt 0.9704020023345947 0.2102469801902771
vt 0.8301380276679993 0.34130001068115234
vt 0.33724600076675415 0.2102469801902771
vt 0.2877269983291626 0.34129297733306885
vt 0.49992600083351135 0.34128403663635254
vt 0.49991199374198914 0.21023797988891602
vt 0.33724600076675415 0.2102469801902771
vt 0.49992600083351135 0.34128403663635254
vt 0.029597999528050423 0.2102299928665161
vt 0.1381160020828247 0.21628403663635254
vt 0.09682050347328186 0.0036638379096984863
vt 0.49991199374198914 0.21023797988891602
vt 0.6625769734382629 0.2102299928665161
vt 0.63788902759552 0.0036638379096984863
vt 0.499891996383667 0.0004995465278625488
vt 0.49991199374198914 0.21023797988891602
vt 0.63788902759552 0.0036638379096984863
vt 0.7121220231056213 0.3412749767303467
vt 0.6625769734382629 0.2102299928665161
vt 0.49991199374198914 0.21023797988891602
vt 0.49992600083351135 0.34128403663635254
vt 0.7121220231056213 0.3412749767303467
vt 0.49991199374198914 0.21023797988891602
vt 0.9031789898872375 0.003679037094116211
vt 0.8334959745407104 0.2163119912147522
vt 0.9704020023345947 0.2102469801902771
vn 0.4883930221683454 -0.08249625529223216 0.8687155021985212
vn -0.09422869730366952 -0.05264193052476772 0.9941578243694906
vn 0.07719412071443053 -0.19299462991253125 0.9781585457133476
vn 0.5947812757268397 -0.19934748967068935 0.7787784103368219
vn 0.4883930221683454 -0.08249625529223216 0.8687155021985212
vn 0.07719412071443053 -0.19299462991253125 0.9781585457133476
vn -0.5654806381879262 -0.09552152747522327 0.8192113803063138
vn -0.389909516812612 0.10002462827807275 0.9154046331741984
vn -0.7668537112509299 -0.042706244869088764 0.6403995332523726
vn -0.7810955050863617 -0.13597643381065266 0.6094261410392721
vn -0.5654806381879262 -0.09552152747522327 0.8192113803063138
vn -0.7668537112509299 -0.042706244869088764 0.6403995332523726
vn 0.4883930221683454 -0.08249625529223216 0.8687155021985212
vn 0.7579093771073895 -0.15754493238599984 0.6330505275032788
vn 0.7223151082276327 -0.05872237111526468 0.6890664464017274
vn 0.4404710647588089 0.09194508683715524 0.8930461030186231
vn 0.4883930221683454 -0.08249625529223216 0.8687155021985212
vn 0.7223151082276327 -0.05872237111526468 0.6890664464017274
vn 0.4883930221683454 -0.08249625529223216 0.8687155021985212
vn 0.4404710647588089 0.09194508683715524 0.8930461030186231
vn 0.058799819645708754 0.14189196583055663 0.988134227340786
vn -0.09422869730366952 -0.05264193052476772 0.9941578243694906
vn 0.4883930221683454 -0.08249625529223216 0.8687155021985212
vn 0.058799819645708754 0.14189196583055663 0.988134227340786
vn -0.5654806381879262 -0.09552152747522327 0.8192113803063138
vn -0.7810955050863617 -0.13597643381065266 0.6094261410392721
vn -0.4551771323776713 -0.19583515997680795 0.8685979324620212
vn -0.09422869730366952 -0.05264193052476772 0.9941578243694906
vn -0.5654806381879262 -0.09552152747522327 0.8192113803063138
vn -0.4551771323776713 -0.19583515997680795 0.8685979324620212
vn 0.07719412071443053 -0.19299462991253125 0.9781585457133476
vn -0.09422869730366952 -0.05264193052476772 0.9941578243694906
vn -0.4551771323776713 -0.19583515997680795 0.8685979324620212
vn -0.389909516812612 0.10002462827807275 0.9154046331741984
vn -0.5654806381879262 -0.09552152747522327 0.8192113803063138
vn -0.09422869730366952 -0.05264193052476772 0.9941578243694906
vn 0.058799819645708754 0.14189196583055663 0.988134227340786
vn -0.389909516812612 0.10002462827807275 0.9154046331741984
vn -0.09422869730366952 -0.05264193052476772 0.9941578243694906
vn 0.5947812757268397 -0.19934748967068935 0.7787784103368219
vn 0.7579093771073895 -0.15754493238599984 0.6330505275032788
vn 0.4883930221683454 -0.08249625529223216 0.8687155021985212
f 1/1/1 2/2/2 3/3/3
f 4/4/4 5/5/5 6/6/6
f 7/7/7 8/8/8 9/9/9
f 10/10/10 11/11/11 12/12/12
f 13/13/13 14/14/14 15/15/15
f 16/16/16 17/17/17 18/18/18
f 19/19/19 20/20/20 21/21/21
f 22/22/22 23/23/23 24/24/24
f 25/25/25 26/26/26 27/27/27
f 28/28/28 29/29/29 30/30/30
f 31/31/31 32/32/32 33/33/33
f 34/34/34 35/35/35 36/36/36
f 37/37/37 38/38/38 39/39/39
f 40/40/40 41/41/41 42/42/42
