mtllib ArcadaCompleta.mtl
o D32C_CV
usemtl V
v 9.896329879760742 -21.79108238220215 2.840649500026809
v 9.07781982421875 -21.791162490844727 3.0164693738366233
v 9.077919960021973 -23.778032302856445 2.6519893552209
v 9.772299766540527 -23.74793243408203 2.4344793702508074
v 9.896329879760742 -21.79108238220215 2.840649500026809
v 9.077919960021973 -23.778032302856445 2.6519893552209
v 8.259309768676758 -21.791242599487305 2.840649500026809
v 8.010009765625 -20.549823760986328 2.5899394894982444
v 7.482439994812012 -20.54989242553711 1.993159427776443
v 7.737760066986084 -21.733882904052734 2.1849693204308616
v 8.259309768676758 -21.791242599487305 2.840649500026809
v 7.482439994812012 -20.54989242553711 1.993159427776443
v 9.896329879760742 -21.79108238220215 2.840649500026809
v 10.599200248718262 -21.733623504638672 2.013449325695144
v 10.805700302124023 -20.549583435058594 1.993159427776443
v 10.145500183105469 -20.549652099609375 2.5899394894982444
v 9.896329879760742 -21.79108238220215 2.840649500026809
v 10.805700302124023 -20.549583435058594 1.993159427776443
v 9.896329879760742 -21.79108238220215 2.840649500026809
v 10.145500183105469 -20.549652099609375 2.5899394894982444
v 9.077750205993652 -20.549732208251953 2.8454593564416037
v 9.07781982421875 -21.791162490844727 3.0164693738366233
v 9.896329879760742 -21.79108238220215 2.840649500026809
v 9.077750205993652 -20.549732208251953 2.8454593564416037
v 8.259309768676758 -21.791242599487305 2.840649500026809
v 7.737760066986084 -21.733882904052734 2.1849693204308616
v 8.383540153503418 -23.748132705688477 2.4344793702508074
v 9.07781982421875 -21.791162490844727 3.0164693738366233
v 8.259309768676758 -21.791242599487305 2.840649500026809
v 8.383540153503418 -23.748132705688477 2.4344793702508074
v 9.077919960021973 -23.778032302856445 2.6519893552209
v 9.07781982421875 -21.791162490844727 3.0164693738366233
v 8.383540153503418 -23.748132705688477 2.4344793702508074
v 8.010009765625 -20.549823760986328 2.5899394894982444
v 8.259309768676758 -21.791242599487305 2.840649500026809
v 9.07781982421875 -21.791162490844727 3.0164693738366233
v 9.077750205993652 -20.549732208251953 2.8454593564416037
v 8.010009765625 -20.549823760986328 2.5899394894982444
v 9.07781982421875 -21.791162490844727 3.0164693738366233
v 9.772299766540527 -23.74793243408203 2.4344793702508074
v 10.599200248718262 -21.733623504638672 2.013449325695144
v 9.896329879760742 -21.79108238220215 2.840649500026809
vt 0.33724600076675415 0.2102469801902771
vt 0.49991199374198914 0.21023797988891602
vt 0.499891996383667 0.0004995465278625488
vt 0.36189600825309753 0.003679037094116211
vt 0.33724600076675415 0.2102469801902771
vt 0.499891996383667 0.0004995465278625488
vt 0.029597999528050423 0.2102299928665161
vt 0.0710911974310875 0.3412749767303467
vt 0.16986100375652313 0.3412669897079468
vt 0.1381160020828247 0.21628403663635254
vt 0.029597999528050423 0.2102299928665161
vt 0.16986100375652313 0.3412669897079468
vt 0.9704020023345947 0.2102469801902771
vt 0.8334959745407104 0.2163119912147522
vt 0.8301380276679993 0.34130001068115234
vt 0.9289090037345886 0.34129297733306885
vt 0.9704020023345947 0.2102469801902771
vt 0.8301380276679993 0.34130001068115234
vt 0.33724600076675415 0.2102469801902771
vt 0.2877269983291626 0.34129297733306885
vt 0.49992600083351135 0.34128403663635254
vt 0.49991199374198914 0.21023797988891602
vt 0.33724600076675415 0.2102469801902771
vt 0.49992600083351135 0.34128403663635254
vt 0.029597999528050423 0.2102299928665161
vt 0.1381160020828247 0.21628403663635254
vt 0.09682050347328186 0.0036638379096984863
vt 0.49991199374198914 0.21023797988891602
vt 0.6625769734382629 0.2102299928665161
vt 0.63788902759552 0.0036638379096984863
vt 0.499891996383667 0.0004995465278625488
vt 0.49991199374198914 0.21023797988891602
vt 0.63788902759552 0.0036638379096984863
vt 0.7121220231056213 0.3412749767303467
vt 0.6625769734382629 0.2102299928665161
vt 0.49991199374198914 0.21023797988891602
vt 0.49992600083351135 0.34128403663635254
vt 0.7121220231056213 0.3412749767303467
vt 0.49991199374198914 0.21023797988891602
vt 0.9031789898872375 0.003679037094116211
vt 0.8334959745407104 0.2163119912147522
vt 0.9704020023345947 0.2102469801902771
vn 0.4883942430975333 -0.08249343880988244 0.8687150832479588
vn -0.09422905932533084 -0.052641891564169714 0.9941577921191431
vn 0.07719412466929818 -0.1929942486438333 0.9781586206270141
vn 0.5947787781742212 -0.1993448988269769 0.7787809809858245
vn 0.4883942430975333 -0.08249343880988244 0.8687150832479588
vn 0.07719412466929818 -0.1929942486438333 0.9781586206270141
vn -0.5654822591668721 -0.09552229202086376 0.8192101722358014
vn -0.38990939883039943 0.10002724374652844 0.9154043976364703
vn -0.7668539180493685 -0.04270635527275144 0.6403992782566593
vn -0.7811010995148703 -0.1359816671790753 0.609417802929862
vn -0.5654822591668721 -0.09552229202086376 0.8192101722358014
vn -0.7668539180493685 -0.04270635527275144 0.6403992782566593
vn 0.4883942430975333 -0.08249343880988244 0.8687150832479588
vn 0.7579102981120704 -0.15753322567242764 0.6330523381403095
vn 0.7223253985558389 -0.05871353299765765 0.6890564125266387
vn 0.4404793452361425 0.09194255145680995 0.8930422798792625
vn 0.4883942430975333 -0.08249343880988244 0.8687150832479588
vn 0.7223253985558389 -0.05871353299765765 0.6890564125266387
vn 0.4883942430975333 -0.08249343880988244 0.8687150832479588
vn 0.4404793452361425 0.09194255145680995 0.8930422798792625
vn 0.05879999771707476 0.14189197893982056 0.9881342148620366
vn -0.09422905932533084 -0.052641891564169714 0.9941577921191431
vn 0.4883942430975333 -0.08249343880988244 0.8687150832479588
vn 0.05879999771707476 0.14189197893982056 0.9881342148620366
vn -0.5654822591668721 -0.09552229202086376 0.8192101722358014
vn -0.7811010995148703 -0.1359816671790753 0.609417802929862
vn -0.45518064094508853 -0.1958368552213927 0.8685957116206676
vn -0.09422905932533084 -0.052641891564169714 0.9941577921191431
vn -0.5654822591668721 -0.09552229202086376 0.8192101722358014
vn -0.45518064094508853 -0.1958368552213927 0.8685957116206676
vn 0.07719412466929818 -0.1929942486438333 0.9781586206270141
vn -0.09422905932533084 -0.052641891564169714 0.9941577921191431
vn -0.45518064094508853 -0.1958368552213927 0.8685957116206676
vn -0.38990939883039943 0.10002724374652844 0.9154043976364703
vn -0.5654822591668721 -0.09552229202086376 0.8192101722358014
vn -0.09422905932533084 -0.052641891564169714 0.9941577921191431
vn 0.05879999771707476 0.14189197893982056 0.9881342148620366
vn -0.38990939883039943 0.10002724374652844 0.9154043976364703
vn -0.09422905932533084 -0.052641891564169714 0.9941577921191431
vn 0.5947787781742212 -0.1993448988269769 0.7787809809858245
vn 0.7579102981120704 -0.15753322567242764 0.6330523381403095
vn 0.4883942430975333 -0.08249343880988244 0.8687150832479588
f 1/1/1 2/2/2 3/3/3
f 4/4/4 5/5/5 6/6/6
f 7/7/7 8/8/8 9/9/9
f 10/10/10 11/11/11 12/12/12
f 13/13/13 14/14/14 15/15/15
f 16/16/16 17/17/17 18/18/18
f 19/19/19 20/20/20 21/21/21
f 22/22/22 23/23/23 24/24/24
f 25/25/25 26/26/26 27/27/27
f 28/28/28 29/29/29 30/30/30
f 31/31/31 32/32/32 33/33/33
f 34/34/34 35/35/35 36/36/36
f 37/37/37 38/38/38 39/39/39
f 40/40/40 41/41/41 42/42/42
