mtllib ArcadaCompleta.mtl
o D34C_V
usemtl Esmalte
v 25.153499603271484 -20.592283248901367 3.243359460964309
v 24.96649932861328 -22.367733001708984 3.0067693139458758
v 25.801000595092773 -22.34884262084961 2.4548794175530535
v 25.948400497436523 -20.592283248901367 2.652109518184768
v 25.153499603271484 -20.592283248901367 3.243359460964309
v 25.801000595092773 -22.34884262084961 2.4548794175530535
v 22.820100784301758 -20.592283248901367 3.243359460964309
v 22.029499053955078 -20.592283248901367 2.6292394544030295
v 22.172500610351562 -22.22306251525879 2.454879417553054
v 23.007099151611328 -22.367733001708984 3.0067693139458758
v 22.820100784301758 -20.592283248901367 3.243359460964309
v 22.172500610351562 -22.22306251525879 2.454879417553054
v 25.153499603271484 -20.592283248901367 3.243359460964309
v 23.986799240112305 -20.592283248901367 3.6647693063164817
v 23.986799240112305 -22.405113220214844 3.2686795140648943
v 24.96649932861328 -22.367733001708984 3.0067693139458758
v 25.153499603271484 -20.592283248901367 3.243359460964309
v 23.986799240112305 -22.405113220214844 3.2686795140648943
v 23.986799240112305 -20.592283248901367 3.6647693063164817
v 22.820100784301758 -20.592283248901367 3.243359460964309
v 23.007099151611328 -22.367733001708984 3.0067693139458758
v 23.986799240112305 -22.405113220214844 3.2686795140648943
v 23.986799240112305 -20.592283248901367 3.6647693063164817
v 23.007099151611328 -22.367733001708984 3.0067693139458758
vt 0.3330700099468231 0.21385902166366577
vt 0.3598249852657318 0.004898548126220703
vt 0.2404170036315918 0.0071218013763427734
vt 0.21933400630950928 0.21385902166366577
vt 0.3330700099468231 0.21385902166366577
vt 0.2404170036315918 0.0071218013763427734
vt 0.6669290065765381 0.21385902166366577
vt 0.7800440192222595 0.21385902166366577
vt 0.7595829963684082 0.021925508975982666
vt 0.6401749849319458 0.004898548126220703
vt 0.6669290065765381 0.21385902166366577
vt 0.7595829963684082 0.021925508975982666
vt 0.3330700099468231 0.21385902166366577
vt 0.5 0.21385902166366577
vt 0.5 0.000499427318572998
vt 0.3598249852657318 0.004898548126220703
vt 0.3330700099468231 0.21385902166366577
vt 0.5 0.000499427318572998
vt 0.5 0.21385902166366577
vt 0.6669290065765381 0.21385902166366577
vt 0.6401749849319458 0.004898548126220703
vt 0.5 0.000499427318572998
vt 0.5 0.21385902166366577
vt 0.6401749849319458 0.004898548126220703
vn 0.43010930017337634 -0.16982450216666464 0.8866598154693902
vn 0.40802473187854976 -0.16268755940142798 0.8983588237399599
vn 0.5687420812920057 -0.15310692494267464 0.8081402814500932
vn 0.591034802845144 -0.13881672290014907 0.794611716040649
vn 0.43010930017337634 -0.16982450216666464 0.8866598154693902
vn 0.5687420812920057 -0.15310692494267464 0.8081402814500932
vn -0.49162579607654355 -0.15674334141065868 0.8565836804162957
vn -0.6076692269580255 -0.13692781164261117 0.7822971845833278
vn -0.5850416566775338 -0.1527727426495314 0.796483991713171
vn -0.3846523536661194 -0.1782516732812037 0.9056869811317627
vn -0.49162579607654355 -0.15674334141065868 0.8565836804162957
vn -0.5850416566775338 -0.1527727426495314 0.796483991713171
vn 0.43010930017337634 -0.16982450216666464 0.8866598154693902
vn -0.0776622753011951 -0.19749407739718652 0.9772229327988959
vn 0.12934069131098247 -0.19550534773912417 0.9721361245096292
vn 0.40802473187854976 -0.16268755940142798 0.8983588237399599
vn 0.43010930017337634 -0.16982450216666464 0.8866598154693902
vn 0.12934069131098247 -0.19550534773912417 0.9721361245096292
vn -0.0776622753011951 -0.19749407739718652 0.9772229327988959
vn -0.49162579607654355 -0.15674334141065868 0.8565836804162957
vn -0.3846523536661194 -0.1782516732812037 0.9056869811317627
vn 0.12934069131098247 -0.19550534773912417 0.9721361245096292
vn -0.0776622753011951 -0.19749407739718652 0.9772229327988959
vn -0.3846523536661194 -0.1782516732812037 0.9056869811317627
f 1/1/1 2/2/2 3/3/3
f 4/4/4 5/5/5 6/6/6
f 7/7/7 8/8/8 9/9/9
f 10/10/10 11/11/11 12/12/12
f 13/13/13 14/14/14 15/15/15
f 16/16/16 17/17/17 18/18/18
f 19/19/19 20/20/20 21/21/21
f 22/22/22 23/23/23 24/24/24
