mtllib ArcadaCompleta.mtl
o D34C_B
usemtl Esmalte
v 25.385400772094727 -17.125812530517578 2.851329460277664
v 23.986799240112305 -17.019702911376953 3.1484095002556916
v 23.986799240112305 -18.967172622680664 3.544219389095413
v 25.33919906616211 -18.967172622680664 3.185079469814407
v 25.385400772094727 -17.125812530517578 2.851329460277664
v 23.986799240112305 -18.967172622680664 3.544219389095413
v 25.153499603271484 -20.592283248901367 3.243359460964309
v 25.33919906616211 -18.967172622680664 3.185079469814407
v 23.986799240112305 -18.967172622680664 3.544219389095413
v 23.986799240112305 -20.592283248901367 3.6647693063164817
v 25.153499603271484 -20.592283248901367 3.243359460964309
v 23.986799240112305 -18.967172622680664 3.544219389095413
v 22.58810043334961 -17.125812530517578 2.851329460277664
v 22.634300231933594 -18.967172622680664 3.185079469814407
v 23.986799240112305 -18.967172622680664 3.544219389095413
v 23.986799240112305 -17.019702911376953 3.1484095002556916
v 22.58810043334961 -17.125812530517578 2.851329460277664
v 23.986799240112305 -18.967172622680664 3.544219389095413
v 25.385400772094727 -17.125812530517578 2.851329460277664
v 23.986799240112305 -16.058612823486328 2.635669365062821
v 23.986799240112305 -17.019702911376953 3.1484095002556916
v 23.986799240112305 -17.019702911376953 3.1484095002556916
v 23.986799240112305 -16.058612823486328 2.635669365062821
v 22.58810043334961 -17.125812530517578 2.851329460277664
v 22.634300231933594 -18.967172622680664 3.185079469814407
v 22.820100784301758 -20.592283248901367 3.243359460964309
v 23.986799240112305 -20.592283248901367 3.6647693063164817
v 23.986799240112305 -18.967172622680664 3.544219389095413
v 22.634300231933594 -18.967172622680664 3.185079469814407
v 23.986799240112305 -20.592283248901367 3.6647693063164817
vt 0.29987698793411255 0.621845006942749
vt 0.5 0.6343330144882202
vt 0.5 0.4051259756088257
vt 0.30649399757385254 0.4051259756088257
vt 0.29987698793411255 0.621845006942749
vt 0.5 0.4051259756088257
vt 0.3330700099468231 0.21385902166366577
vt 0.30649399757385254 0.4051259756088257
vt 0.5 0.4051259756088257
vt 0.5 0.21385902166366577
vt 0.3330700099468231 0.21385902166366577
vt 0.5 0.4051259756088257
vt 0.7001230120658875 0.621845006942749
vt 0.6935060024261475 0.4051259756088257
vt 0.5 0.4051259756088257
vt 0.5 0.6343330144882202
vt 0.7001230120658875 0.621845006942749
vt 0.5 0.4051259756088257
vt 0.29987698793411255 0.621845006942749
vt 0.5 0.7474470138549805
vt 0.5 0.6343330144882202
vt 0.5 0.6343330144882202
vt 0.5 0.7474470138549805
vt 0.7001230120658875 0.621845006942749
vt 0.6935060024261475 0.4051259756088257
vt 0.6669290065765381 0.21385902166366577
vt 0.5 0.21385902166366577
vt 0.5 0.4051259756088257
vt 0.6935060024261475 0.4051259756088257
vt 0.5 0.21385902166366577
vn 0.2327588211346883 0.24476903713436116 0.9412286914689266
vn 0 0.2981628953219324 0.9545150013767425
vn 0.04054582421594087 0.13573279742767844 0.9899154730789428
vn 0.25557922670601624 0.09174471861561866 0.96242514798944
vn 0.2327588211346883 0.24476903713436116 0.9412286914689266
vn 0.04054582421594087 0.13573279742767844 0.9899154730789428
vn 0.29578247333396174 0.035623036059968465 0.9545908693101535
vn 0.25557922670601624 0.09174471861561866 0.96242514798944
vn 0.04054582421594087 0.13573279742767844 0.9899154730789428
vn -0.09686193674149511 0.04869073286484004 0.9941061199609281
vn 0.29578247333396174 0.035623036059968465 0.9545908693101535
vn 0.04054582421594087 0.13573279742767844 0.9899154730789428
vn -0.23274320527208597 0.24477012550106192 0.9412322699854005
vn -0.28022766149664 0.08531848189996336 0.9561345168847373
vn 0.04054582421594087 0.13573279742767844 0.9899154730789428
vn 0 0.2981628953219324 0.9545150013767425
vn -0.23274320527208597 0.24477012550106192 0.9412322699854005
vn 0.04054582421594087 0.13573279742767844 0.9899154730789428
vn 0.2327588211346883 0.24476903713436116 0.9412286914689266
vn 0 0.47070168079159896 0.8822924275431381
vn 0 0.2981628953219324 0.9545150013767425
vn 0 0.2981628953219324 0.9545150013767425
vn 0 0.47070168079159896 0.8822924275431381
vn -0.23274320527208597 0.24477012550106192 0.9412322699854005
vn -0.28022766149664 0.08531848189996336 0.9561345168847373
vn -0.3397127970112129 -0.005110792326190541 0.940515334988546
vn -0.09686193674149511 0.04869073286484004 0.9941061199609281
vn 0.04054582421594087 0.13573279742767844 0.9899154730789428
vn -0.28022766149664 0.08531848189996336 0.9561345168847373
vn -0.09686193674149511 0.04869073286484004 0.9941061199609281
f 1/1/1 2/2/2 3/3/3
f 4/4/4 5/5/5 6/6/6
f 7/7/7 8/8/8 9/9/9
f 10/10/10 11/11/11 12/12/12
f 13/13/13 14/14/14 15/15/15
f 16/16/16 17/17/17 18/18/18
f 19/19/19 20/20/20 21/21/21
f 22/22/22 23/23/23 24/24/24
f 25/25/25 26/26/26 27/27/27
f 28/28/28 29/29/29 30/30/30
