mtllib ArcadaCompleta.mtl
o D34C_DV
usemtl Esmalte
v 25.385400772094727 -17.125812530517578 2.851329460277664
v 26.427799224853516 -17.334823608398438 2.3700794125939484
v 26.358800888061523 -15.836002349853516 1.5694993878747105
v 25.250900268554688 -15.25647258758545 1.9816993619347694
v 25.385400772094727 -17.125812530517578 2.851329460277664
v 26.358800888061523 -15.836002349853516 1.5694993878747105
v 25.385400772094727 -17.125812530517578 2.851329460277664
v 25.33919906616211 -18.967172622680664 3.185079469814407
v 26.232799530029297 -18.967172622680664 2.7562195207024685
v 26.427799224853516 -17.334823608398438 2.3700794125939484
v 25.385400772094727 -17.125812530517578 2.851329460277664
v 26.232799530029297 -18.967172622680664 2.7562195207024685
v 25.153499603271484 -20.592283248901367 3.243359460964309
v 25.948400497436523 -20.592283248901367 2.652109518184768
v 26.232799530029297 -18.967172622680664 2.7562195207024685
v 25.33919906616211 -18.967172622680664 3.185079469814407
v 25.153499603271484 -20.592283248901367 3.243359460964309
v 26.232799530029297 -18.967172622680664 2.7562195207024685
v 27.153600692749023 -18.967172622680664 1.3200093652154081
v 27.27120018005371 -17.6367130279541 1.2025994206811068
v 26.427799224853516 -17.334823608398438 2.3700794125939484
v 26.232799530029297 -18.967172622680664 2.7562195207024685
v 27.153600692749023 -18.967172622680664 1.3200093652154081
v 26.427799224853516 -17.334823608398438 2.3700794125939484
v 26.232799530029297 -18.967172622680664 2.7562195207024685
v 25.948400497436523 -20.592283248901367 2.652109518184768
v 26.67840003967285 -20.592283248901367 1.3339194203759304
v 27.153600692749023 -18.967172622680664 1.3200093652154081
v 26.232799530029297 -18.967172622680664 2.7562195207024685
v 26.67840003967285 -20.592283248901367 1.3339194203759304
v 27.21929931640625 -16.832942962646484 1.0148394252205966
v 26.358800888061523 -15.836002349853516 1.5694993878747105
v 26.393299102783203 -16.585412979125977 1.9697894002343297
v 27.27120018005371 -17.6367130279541 1.2025994206811068
v 27.21929931640625 -16.832942962646484 1.0148394252205966
v 26.393299102783203 -16.585412979125977 1.9697894002343297
v 26.427799224853516 -17.334823608398438 2.3700794125939484
v 27.27120018005371 -17.6367130279541 1.2025994206811068
v 26.393299102783203 -16.585412979125977 1.9697894002343297
vt 0.29987698793411255 0.621845006942749
vt 0.15074199438095093 0.5972440242767334
vt 0.16061200201511383 0.7736470103263855
vt 0.3191240131855011 0.841854989528656
vt 0.29987698793411255 0.621845006942749
vt 0.16061200201511383 0.7736470103263855
vt 0.29987698793411255 0.621845006942749
vt 0.30649399757385254 0.4051259756088257
vt 0.17864100635051727 0.4051259756088257
vt 0.15074199438095093 0.5972440242767334
vt 0.29987698793411255 0.621845006942749
vt 0.17864100635051727 0.4051259756088257
vt 0.3330700099468231 0.21385902166366577
vt 0.21933400630950928 0.21385902166366577
vt 0.17864100635051727 0.4051259756088257
vt 0.30649399757385254 0.4051259756088257
vt 0.3330700099468231 0.21385902166366577
vt 0.17864100635051727 0.4051259756088257
vt 0.6869630217552185 0.4051259756088257
vt 0.671314001083374 0.5617139935493469
vt 0.8269280195236206 0.5972440242767334
vt 0.8783980011940002 0.4051259756088257
vt 0.6869630217552185 0.4051259756088257
vt 0.8269280195236206 0.5972440242767334
vt 0.8783980011940002 0.4051259756088257
vt 0.8645210266113281 0.21385902166366577
vt 0.6888179779052734 0.21385902166366577
vt 0.6869630217552185 0.4051259756088257
vt 0.8783980011940002 0.4051259756088257
vt 0.6888179779052734 0.21385902166366577
vt 0.6462870240211487 0.6563130021095276
vt 0.7202180027961731 0.7736470103263855
vt 0.7735729813575745 0.68544602394104
vt 0.671314001083374 0.5617139935493469
vt 0.6462870240211487 0.6563130021095276
vt 0.7735729813575745 0.68544602394104
vt 0.8269280195236206 0.5972440242767334
vt 0.671314001083374 0.5617139935493469
vt 0.7735729813575745 0.68544602394104
vn 0.4607261400751254 0.2984225439934242 0.8358680572243258
vn 0.7029551274728556 0.1673833580516712 0.6912574775052834
vn 0.533415125365047 0.4030706185503708 0.7436412982703506
vn 0.49479559076233515 0.3955608905346803 0.7737628223438772
vn 0.4607261400751254 0.2984225439934242 0.8358680572243258
vn 0.533415125365047 0.4030706185503708 0.7436412982703506
vn 0.4607261400751254 0.2984225439934242 0.8358680572243258
vn 0.43152640260544717 0.07281897384216045 0.8991564718684819
vn 0.699837751478041 -0.05085620336707447 0.7124891354857603
vn 0.7029551274728556 0.1673833580516712 0.6912574775052834
vn 0.4607261400751254 0.2984225439934242 0.8358680572243258
vn 0.699837751478041 -0.05085620336707447 0.7124891354857603
vn 0.5151660950609683 -0.08653519900200693 0.8527107093459754
vn 0.7694743268132014 -0.17402781671200407 0.6145108456209896
vn 0.699837751478041 -0.05085620336707447 0.7124891354857603
vn 0.43152640260544717 0.07281897384216045 0.8991564718684819
vn 0.5151660950609683 -0.08653519900200693 0.8527107093459754
vn 0.699837751478041 -0.05085620336707447 0.7124891354857603
vn 0.8304055090149512 -0.08380120890998526 0.5508212486667929
vn 0.8066019354007027 0.1291748328945345 0.5768077499085025
vn 0.7029551274728556 0.1673833580516712 0.6912574775052834
vn 0.699837751478041 -0.05085620336707447 0.7124891354857603
vn 0.8304055090149512 -0.08380120890998526 0.5508212486667929
vn 0.7029551274728556 0.1673833580516712 0.6912574775052834
vn 0.699837751478041 -0.05085620336707447 0.7124891354857603
vn 0.7694743268132014 -0.17402781671200407 0.6145108456209896
vn 0.838629645239731 -0.20994227680244607 0.5026177061505971
vn 0.8304055090149512 -0.08380120890998526 0.5508212486667929
vn 0.699837751478041 -0.05085620336707447 0.7124891354857603
vn 0.838629645239731 -0.20994227680244607 0.5026177061505971
vn 0.7621341297760097 0.26588913624124183 0.5903003773160327
vn 0.533415125365047 0.4030706185503708 0.7436412982703506
vn 0.7797283645390258 0.2810845416573287 0.5594775759354305
vn 0.8066019354007027 0.1291748328945345 0.5768077499085025
vn 0.7621341297760097 0.26588913624124183 0.5903003773160327
vn 0.7797283645390258 0.2810845416573287 0.5594775759354305
vn 0.7029551274728556 0.1673833580516712 0.6912574775052834
vn 0.8066019354007027 0.1291748328945345 0.5768077499085025
vn 0.7797283645390258 0.2810845416573287 0.5594775759354305
f 1/1/1 2/2/2 3/3/3
f 4/4/4 5/5/5 6/6/6
f 7/7/7 8/8/8 9/9/9
f 10/10/10 11/11/11 12/12/12
f 13/13/13 14/14/14 15/15/15
f 16/16/16 17/17/17 18/18/18
f 19/19/19 20/20/20 21/21/21
f 22/22/22 23/23/23 24/24/24
f 25/25/25 26/26/26 27/27/27
f 28/28/28 29/29/29 30/30/30
f 31/31/31 32/32/32 33/33/33
f 34/34/34 35/35/35 36/36/36
f 37/37/37 38/38/38 39/39/39
