mtllib ArcadaCompleta.mtl
o D35C_DV
usemtl Esmalte
v 33.35049819946289 -17.270082473754883 3.3489095116997833
v 34.64250183105469 -17.270082473754883 2.644659414425003
v 34.33110046386719 -15.826492309570312 1.7509694243813634
v 33.220001220703125 -15.272422790527344 2.134749307766068
v 33.35049819946289 -17.270082473754883 3.3489095116997833
v 34.33110046386719 -15.826492309570312 1.7509694243813634
v 35.22090148925781 -16.480632781982422 0.9470234061623691
v 35.07809829711914 -16.03651237487793 0.7018144275094151
v 34.33110046386719 -15.826492309570312 1.7509694243813634
v 33.35049819946289 -17.270082473754883 3.3489095116997833
v 33.30419921875 -18.735252380371094 3.505249395504104
v 34.483699798583984 -18.735252380371094 2.6990393544579616
v 34.64250183105469 -17.270082473754883 2.644659414425003
v 33.35049819946289 -17.270082473754883 3.3489095116997833
v 34.483699798583984 -18.735252380371094 2.6990393544579616
v 33.225799560546875 -20.367712020874023 3.4148794557000266
v 34.08489990234375 -20.367712020874023 2.652109518184768
v 34.483699798583984 -18.735252380371094 2.6990393544579616
v 33.30419921875 -18.735252380371094 3.505249395504104
v 33.225799560546875 -20.367712020874023 3.4148794557000266
v 34.483699798583984 -18.735252380371094 2.6990393544579616
v 34.33110046386719 -15.826492309570312 1.7509694243813634
v 34.64250183105469 -17.270082473754883 2.644659414425003
v 35.414398193359375 -17.270082473754883 1.3135494138146517
v 35.22090148925781 -16.480632781982422 0.9470234061623691
v 34.33110046386719 -15.826492309570312 1.7509694243813634
v 35.414398193359375 -17.270082473754883 1.3135494138146517
v 35.38249969482422 -18.701702117919922 1.4005794669533844
v 35.414398193359375 -17.270082473754883 1.3135494138146517
v 34.64250183105469 -17.270082473754883 2.644659414425003
v 34.483699798583984 -18.735252380371094 2.6990393544579616
v 35.38249969482422 -18.701702117919922 1.4005794669533844
v 34.64250183105469 -17.270082473754883 2.644659414425003
v 34.27109909057617 -22.15601348876953 1.3705893899346457
v 34.89500045776367 -20.367712020874023 1.3339194203759304
v 34.08489990234375 -20.367712020874023 2.652109518184768
v 33.7661018371582 -22.124271392822266 2.5334395314599143
v 34.27109909057617 -22.15601348876953 1.3705893899346457
v 34.08489990234375 -20.367712020874023 2.652109518184768
v 34.483699798583984 -18.735252380371094 2.6990393544579616
v 34.08489990234375 -20.367712020874023 2.652109518184768
v 34.89500045776367 -20.367712020874023 1.3339194203759304
v 35.38249969482422 -18.701702117919922 1.4005794669533844
v 34.483699798583984 -18.735252380371094 2.6990393544579616
v 34.89500045776367 -20.367712020874023 1.3339194203759304
vt 0.3072960078716278 0.6102049946784973
vt 0.12170200049877167 0.6102049946784973
vt 0.16644099354743958 0.789447009563446
vt 0.32603898644447327 0.8582429885864258
vt 0.3072960078716278 0.6102049946784973
vt 0.16644099354743958 0.789447009563446
vt 0.6333760023117065 0.7082260251045227
vt 0.6028950214385986 0.7633699774742126
vt 0.7333109974861145 0.789447009563446
vt 0.3072960078716278 0.6102049946784973
vt 0.31393998861312866 0.4282820224761963
vt 0.1445149928331375 0.4282820224761963
vt 0.12170200049877167 0.6102049946784973
vt 0.3072960078716278 0.6102049946784973
vt 0.1445149928331375 0.4282820224761963
vt 0.9401450157165527 0.22558796405792236
vt 0.8453279733657837 0.22558796405792236
vt 0.8511620163917542 0.4282820224761963
vt 0.31393998861312866 0.4282820224761963
vt 0.325203001499176 0.22558796405792236
vt 0.1445149928331375 0.4282820224761963
vt 0.7333109974861145 0.789447009563446
vt 0.844402015209198 0.6102049946784973
vt 0.6789370179176331 0.6102049946784973
vt 0.6333760023117065 0.7082260251045227
vt 0.7333109974861145 0.789447009563446
vt 0.6789370179176331 0.6102049946784973
vt 0.6897550225257874 0.43244898319244385
vt 0.6789370179176331 0.6102049946784973
vt 0.844402015209198 0.6102049946784973
vt 0.8511620163917542 0.4282820224761963
vt 0.6897550225257874 0.43244898319244385
vt 0.844402015209198 0.6102049946784973
vt 0.6860269904136658 0.0035448670387268066
vt 0.6814699769020081 0.22558796405792236
vt 0.8453279733657837 0.22558796405792236
vt 0.8305760025978088 0.007485866546630859
vt 0.6860269904136658 0.0035448670387268066
vt 0.8453279733657837 0.22558796405792236
vt 0.8511620163917542 0.4282820224761963
vt 0.8453279733657837 0.22558796405792236
vt 0.6814699769020081 0.22558796405792236
vt 0.6897550225257874 0.43244898319244385
vt 0.8511620163917542 0.4282820224761963
vt 0.6814699769020081 0.22558796405792236
vn 0.49671864325985143 0.3062351632720074 0.8120902746701621
vn 0.7131238663051167 0.21129730590638313 0.6684368330835355
vn 0.6036298807441015 0.4909101970924838 0.628202312526371
vn 0.4896824235614076 0.47598715408591435 0.7305117064087461
vn 0.49671864325985143 0.3062351632720074 0.8120902746701621
vn 0.6036298807441015 0.4909101970924838 0.628202312526371
vn 0.7580591870080033 0.4437026531404733 0.4779897745651782
vn 0.7550182562285757 0.48587498627512304 0.4403100390335315
vn 0.6036298807441015 0.4909101970924838 0.628202312526371
vn 0.49671864325985143 0.3062351632720074 0.8120902746701621
vn 0.564287080257303 -0.0051340885784416 0.8255626761119698
vn 0.700037007189622 -0.11607988757194626 0.7046088618987711
vn 0.7131238663051167 0.21129730590638313 0.6684368330835355
vn 0.49671864325985143 0.3062351632720074 0.8120902746701621
vn 0.700037007189622 -0.11607988757194626 0.7046088618987711
vn 0.6053891121993901 -0.12156204758900593 0.7865918200797684
vn 0.8169940836311929 -0.22346090125628618 0.5315880857594117
vn 0.700037007189622 -0.11607988757194626 0.7046088618987711
vn 0.564287080257303 -0.0051340885784416 0.8255626761119698
vn 0.6053891121993901 -0.12156204758900593 0.7865918200797684
vn 0.700037007189622 -0.11607988757194626 0.7046088618987711
vn 0.6036298807441015 0.4909101970924838 0.628202312526371
vn 0.7131238663051167 0.21129730590638313 0.6684368330835355
vn 0.824553757761254 0.2824872723386928 0.4902163211567324
vn 0.7580591870080033 0.4437026531404733 0.4779897745651782
vn 0.6036298807441015 0.4909101970924838 0.628202312526371
vn 0.824553757761254 0.2824872723386928 0.4902163211567324
vn 0.8318595473293576 -0.11499331320707412 0.5429421989813058
vn 0.824553757761254 0.2824872723386928 0.4902163211567324
vn 0.7131238663051167 0.21129730590638313 0.6684368330835355
vn 0.700037007189622 -0.11607988757194626 0.7046088618987711
vn 0.8318595473293576 -0.11499331320707412 0.5429421989813058
vn 0.7131238663051167 0.21129730590638313 0.6684368330835355
vn 0.8568039557207867 -0.23842957673544188 0.45720708480837247
vn 0.8164640888859224 -0.25067973824052164 0.520140423727424
vn 0.8169940836311929 -0.22346090125628618 0.5315880857594117
vn 0.8986611257059879 -0.18981380298837536 0.39544772263845057
vn 0.8568039557207867 -0.23842957673544188 0.45720708480837247
vn 0.8169940836311929 -0.22346090125628618 0.5315880857594117
vn 0.700037007189622 -0.11607988757194626 0.7046088618987711
vn 0.8169940836311929 -0.22346090125628618 0.5315880857594117
vn 0.8164640888859224 -0.25067973824052164 0.520140423727424
vn 0.8318595473293576 -0.11499331320707412 0.5429421989813058
vn 0.700037007189622 -0.11607988757194626 0.7046088618987711
vn 0.8164640888859224 -0.25067973824052164 0.520140423727424
f 1/1/1 2/2/2 3/3/3
f 4/4/4 5/5/5 6/6/6
f 7/7/7 8/8/8 9/9/9
f 10/10/10 11/11/11 12/12/12
f 13/13/13 14/14/14 15/15/15
f 16/16/16 17/17/17 18/18/18
f 19/19/19 20/20/20 21/21/21
f 22/22/22 23/23/23 24/24/24
f 25/25/25 26/26/26 27/27/27
f 28/28/28 29/29/29 30/30/30
f 31/31/31 32/32/32 33/33/33
f 34/34/34 35/35/35 36/36/36
f 37/37/37 38/38/38 39/39/39
f 40/40/40 41/41/41 42/42/42
f 43/43/43 44/44/44 45/45/45
