mtllib ArcadaCompleta.mtl
o D35C_B
usemtl Esmalte
v 33.35049819946289 -17.270082473754883 3.3489095116997833
v 31.951799392700195 -17.270082473754883 3.698529377117264
v 31.951799392700195 -18.735252380371094 3.8923794175530544
v 33.30419921875 -18.735252380371094 3.505249395504104
v 33.35049819946289 -17.270082473754883 3.3489095116997833
v 31.951799392700195 -18.735252380371094 3.8923794175530544
v 33.225799560546875 -20.367712020874023 3.4148794557000266
v 33.30419921875 -18.735252380371094 3.505249395504104
v 31.951799392700195 -18.735252380371094 3.8923794175530544
v 31.951799392700195 -20.367712020874023 3.7562493230248557
v 33.225799560546875 -20.367712020874023 3.4148794557000266
v 31.951799392700195 -18.735252380371094 3.8923794175530544
v 30.5531005859375 -17.270082473754883 3.3489095116997833
v 30.59939956665039 -18.735252380371094 3.505249395504104
v 31.951799392700195 -18.735252380371094 3.8923794175530544
v 31.951799392700195 -17.270082473754883 3.698529377117264
v 30.5531005859375 -17.270082473754883 3.3489095116997833
v 31.951799392700195 -18.735252380371094 3.8923794175530544
v 33.35049819946289 -17.270082473754883 3.3489095116997833
v 31.951799392700195 -16.163002014160156 3.002209320201981
v 31.951799392700195 -17.270082473754883 3.698529377117264
v 31.951799392700195 -17.270082473754883 3.698529377117264
v 31.951799392700195 -16.163002014160156 3.002209320201981
v 30.5531005859375 -17.270082473754883 3.3489095116997833
v 30.59939956665039 -18.735252380371094 3.505249395504104
v 30.677799224853516 -20.367712020874023 3.4148794557000266
v 31.951799392700195 -20.367712020874023 3.7562493230248557
v 31.951799392700195 -18.735252380371094 3.8923794175530544
v 30.59939956665039 -18.735252380371094 3.505249395504104
v 31.951799392700195 -20.367712020874023 3.7562493230248557
vt 0.3072960078716278 0.6102049946784973
vt 0.5082129836082458 0.6102049946784973
vt 0.5082129836082458 0.4282820224761963
vt 0.31393998861312866 0.4282820224761963
vt 0.3072960078716278 0.6102049946784973
vt 0.5082129836082458 0.4282820224761963
vt 0.325203001499176 0.22558796405792236
vt 0.31393998861312866 0.4282820224761963
vt 0.5082129836082458 0.4282820224761963
vt 0.5082129836082458 0.22558796405792236
vt 0.325203001499176 0.22558796405792236
vt 0.5082129836082458 0.4282820224761963
vt 0.7091289758682251 0.6102049946784973
vt 0.702485978603363 0.4282820224761963
vt 0.5082129836082458 0.4282820224761963
vt 0.5082129836082458 0.6102049946784973
vt 0.7091289758682251 0.6102049946784973
vt 0.5082129836082458 0.4282820224761963
vt 0.3072960078716278 0.6102049946784973
vt 0.5082129836082458 0.7476649880409241
vt 0.5082129836082458 0.6102049946784973
vt 0.5082129836082458 0.6102049946784973
vt 0.5082129836082458 0.7476649880409241
vt 0.7091289758682251 0.6102049946784973
vt 0.702485978603363 0.4282820224761963
vt 0.6912230253219604 0.22558796405792236
vt 0.5082129836082458 0.22558796405792236
vt 0.5082129836082458 0.4282820224761963
vt 0.702485978603363 0.4282820224761963
vt 0.5082129836082458 0.22558796405792236
vn 0.24666125704048186 0.24196342734189577 0.9384092519280554
vn 0 0.32703698084523447 0.9450115412838268
vn 0.0382385508518767 0.028764184101143345 0.998854561456143
vn 0.27518874557219614 0.009395626424940837 0.9613443069548414
vn 0.24666125704048186 0.24196342734189577 0.9384092519280554
vn 0.0382385508518767 0.028764184101143345 0.998854561456143
vn 0.2665697198986098 -0.07307223599535445 0.9610416394515983
vn 0.27518874557219614 0.009395626424940837 0.9613443069548414
vn 0.0382385508518767 0.028764184101143345 0.998854561456143
vn -0.09846912061666119 -0.07781664074431732 0.9920929405596288
vn 0.2665697198986098 -0.07307223599535445 0.9610416394515983
vn 0.0382385508518767 0.028764184101143345 0.998854561456143
vn -0.24666125704048186 0.24196342734189577 0.9384092519280554
vn -0.2697366810896526 -0.020345770100281917 0.962719155576415
vn 0.0382385508518767 0.028764184101143345 0.998854561456143
vn 0 0.32703698084523447 0.9450115412838268
vn -0.24666125704048186 0.24196342734189577 0.9384092519280554
vn 0.0382385508518767 0.028764184101143345 0.998854561456143
vn 0.24666125704048186 0.24196342734189577 0.9384092519280554
vn 0 0.5324131631697847 0.8464846269623237
vn 0 0.32703698084523447 0.9450115412838268
vn 0 0.32703698084523447 0.9450115412838268
vn 0 0.5324131631697847 0.8464846269623237
vn -0.24666125704048186 0.24196342734189577 0.9384092519280554
vn -0.2697366810896526 -0.020345770100281917 0.962719155576415
vn -0.25826063137052596 -0.06575918786065546 0.9638346204074661
vn -0.09846912061666119 -0.07781664074431732 0.9920929405596288
vn 0.0382385508518767 0.028764184101143345 0.998854561456143
vn -0.2697366810896526 -0.020345770100281917 0.962719155576415
vn -0.09846912061666119 -0.07781664074431732 0.9920929405596288
f 1/1/1 2/2/2 3/3/3
f 4/4/4 5/5/5 6/6/6
f 7/7/7 8/8/8 9/9/9
f 10/10/10 11/11/11 12/12/12
f 13/13/13 14/14/14 15/15/15
f 16/16/16 17/17/17 18/18/18
f 19/19/19 20/20/20 21/21/21
f 22/22/22 23/23/23 24/24/24
f 25/25/25 26/26/26 27/27/27
f 28/28/28 29/29/29 30/30/30
