mtllib ArcadaCompleta.mtl
o D35C_L
usemtl Esmalte
v 33.157100677490234 -16.33767318725586 -3.566050634250534
v 34.237998962402344 -16.505542755126953 -2.9070407007788543
v 34.58219909667969 -17.308712005615234 -3.247540578708542
v 33.34189987182617 -17.270082473754883 -3.924880609378708
v 33.157100677490234 -16.33767318725586 -3.566050634250534
v 34.58219909667969 -17.308712005615234 -3.247540578708542
v 30.634599685668945 -15.971562385559082 -3.52615056978215
v 30.45439910888672 -17.27098274230957 -3.980220661029709
v 29.292400360107422 -17.268281936645508 -3.3224204634283905
v 29.746999740600586 -15.960472106933594 -2.9666505907629848
v 30.634599685668945 -15.971562385559082 -3.52615056978215
v 29.292400360107422 -17.268281936645508 -3.3224204634283905
v 30.554500579833984 -18.744892120361328 -3.814640626773728
v 30.45439910888672 -17.27098274230957 -3.980220661029709
v 31.963699340820312 -17.270082473754883 -4.144260511264694
v 31.951799392700195 -18.735252380371094 -4.086770639285934
v 30.554500579833984 -18.744892120361328 -3.814640626773728
v 31.963699340820312 -17.270082473754883 -4.144260511264694
v 33.34189987182617 -17.270082473754883 -3.924880609378708
v 33.30339813232422 -18.735252380371094 -3.7599106882666478
v 31.951799392700195 -18.735252380371094 -4.086770639285934
v 31.963699340820312 -17.270082473754883 -4.144260511264694
v 33.34189987182617 -17.270082473754883 -3.924880609378708
v 31.951799392700195 -18.735252380371094 -4.086770639285934
v 33.118499755859375 -20.367712020874023 -3.4606205080603494
v 31.951799392700195 -20.367712020874023 -3.7676905249213113
v 31.951799392700195 -18.735252380371094 -4.086770639285934
v 33.30339813232422 -18.735252380371094 -3.7599106882666478
v 33.118499755859375 -20.367712020874023 -3.4606205080603494
v 31.951799392700195 -18.735252380371094 -4.086770639285934
v 32.28630065917969 -16.592071533203125 -3.624930486545456
v 31.963699340820312 -17.270082473754883 -4.144260511264694
v 31.96929931640625 -16.66351318359375 -3.6838005636786346
v 34.40299987792969 -18.735252380371094 -3.060220584735764
v 33.30339813232422 -18.735252380371094 -3.7599106882666478
v 33.34189987182617 -17.270082473754883 -3.924880609378708
v 34.58219909667969 -17.308712005615234 -3.247540578708542
v 34.40299987792969 -18.735252380371094 -3.060220584735764
v 33.34189987182617 -17.270082473754883 -3.924880609378708
v 32.28630065917969 -16.592071533203125 -3.624930486545456
v 33.157100677490234 -16.33767318725586 -3.566050634250534
v 33.34189987182617 -17.270082473754883 -3.924880609378708
v 31.963699340820312 -17.270082473754883 -4.144260511264694
v 32.28630065917969 -16.592071533203125 -3.624930486545456
v 33.34189987182617 -17.270082473754883 -3.924880609378708
v 31.632699966430664 -16.45475196838379 -3.6049805735205536
v 31.963699340820312 -17.270082473754883 -4.144260511264694
v 30.45439910888672 -17.27098274230957 -3.980220661029709
v 30.634599685668945 -15.971562385559082 -3.52615056978215
v 31.632699966430664 -16.45475196838379 -3.6049805735205536
v 30.45439910888672 -17.27098274230957 -3.980220661029709
v 29.292400360107422 -17.268281936645508 -3.3224204634283905
v 30.45439910888672 -17.27098274230957 -3.980220661029709
v 30.554500579833984 -18.744892120361328 -3.814640626773728
v 29.507400512695312 -18.744892120361328 -3.0979205225561985
v 29.292400360107422 -17.268281936645508 -3.3224204634283905
v 30.554500579833984 -18.744892120361328 -3.814640626773728
v 31.951799392700195 -20.367712020874023 -3.7676905249213113
v 30.78510093688965 -20.367712020874023 -3.4834905718420877
v 30.554500579833984 -18.744892120361328 -3.814640626773728
v 31.951799392700195 -18.735252380371094 -4.086770639285934
v 31.951799392700195 -20.367712020874023 -3.7676905249213113
v 30.554500579833984 -18.744892120361328 -3.814640626773728
v 34.06129837036133 -20.34568214416504 -2.7054306124304666
v 33.118499755859375 -20.367712020874023 -3.4606205080603494
v 33.30339813232422 -18.735252380371094 -3.7599106882666478
v 34.40299987792969 -18.735252380371094 -3.060220584735764
v 34.06129837036133 -20.34568214416504 -2.7054306124304666
v 33.30339813232422 -18.735252380371094 -3.7599106882666478
v 30.554500579833984 -18.744892120361328 -3.814640626773728
v 30.78510093688965 -20.367712020874023 -3.4834905718420877
v 29.90570068359375 -20.3454532623291 -2.7441505049322976
v 29.507400512695312 -18.744892120361328 -3.0979205225561985
v 30.554500579833984 -18.744892120361328 -3.814640626773728
v 29.90570068359375 -20.3454532623291 -2.7441505049322976
v 31.96929931640625 -16.66351318359375 -3.6838005636786346
v 31.963699340820312 -17.270082473754883 -4.144260511264694
v 31.632699966430664 -16.45475196838379 -3.6049805735205536
vt 0.6649219989776611 0.7259770035743713
vt 0.8201969861984253 0.7051339745521545
vt 0.8696309924125671 0.6054080128669739
vt 0.6914650201797485 0.6102049946784973
vt 0.6649219989776611 0.7259770035743713
vt 0.8696309924125671 0.6054080128669739
vt 0.3025760054588318 0.771435022354126
vt 0.2766909897327423 0.6100929975509644
vt 0.10977300256490707 0.610427975654602
vt 0.17506900429725647 0.7728109955787659
vt 0.3025760054588318 0.771435022354126
vt 0.10977300256490707 0.610427975654602
vt 0.29107099771499634 0.4270850419998169
vt 0.2766909897327423 0.6100929975509644
vt 0.49349498748779297 0.6102049946784973
vt 0.49178698658943176 0.4282820224761963
vt 0.29107099771499634 0.4270850419998169
vt 0.49349498748779297 0.6102049946784973
vt 0.6914650201797485 0.6102049946784973
vt 0.6859359741210938 0.4282820224761963
vt 0.49178698658943176 0.4282820224761963
vt 0.49349498748779297 0.6102049946784973
vt 0.6914650201797485 0.6102049946784973
vt 0.49178698658943176 0.4282820224761963
vt 0.6593790054321289 0.22558796405792236
vt 0.49178698658943176 0.22558796405792236
vt 0.49178698658943176 0.4282820224761963
vt 0.6859359741210938 0.4282820224761963
vt 0.6593790054321289 0.22558796405792236
vt 0.49178698658943176 0.4282820224761963
vt 0.5398370027542114 0.6943899989128113
vt 0.49349498748779297 0.6102049946784973
vt 0.49429601430892944 0.6855189800262451
vt 0.8438900113105774 0.4282820224761963
vt 0.6859359741210938 0.4282820224761963
vt 0.6914650201797485 0.6102049946784973
vt 0.8696309924125671 0.6054080128669739
vt 0.8438900113105774 0.4282820224761963
vt 0.6914650201797485 0.6102049946784973
vt 0.5398370027542114 0.6943899989128113
vt 0.6649219989776611 0.7259770035743713
vt 0.6914650201797485 0.6102049946784973
vt 0.49349498748779297 0.6102049946784973
vt 0.5398370027542114 0.6943899989128113
vt 0.6914650201797485 0.6102049946784973
vt 0.44594499468803406 0.7114400267601013
vt 0.49349498748779297 0.6102049946784973
vt 0.2766909897327423 0.6100929975509644
vt 0.3025760054588318 0.771435022354126
vt 0.44594499468803406 0.7114400267601013
vt 0.2766909897327423 0.6100929975509644
vt 0.10977300256490707 0.610427975654602
vt 0.2766909897327423 0.6100929975509644
vt 0.29107099771499634 0.4270850419998169
vt 0.1406490057706833 0.4270850419998169
vt 0.10977300256490707 0.610427975654602
vt 0.29107099771499634 0.4270850419998169
vt 0.49178698658943176 0.22558796405792236
vt 0.3241960108280182 0.22558796405792236
vt 0.29107099771499634 0.4270850419998169
vt 0.49178698658943176 0.4282820224761963
vt 0.49178698658943176 0.22558796405792236
vt 0.29107099771499634 0.4270850419998169
vt 0.7948129773139954 0.22832399606704712
vt 0.6593790054321289 0.22558796405792236
vt 0.6859359741210938 0.4282820224761963
vt 0.8438900113105774 0.4282820224761963
vt 0.7948129773139954 0.22832399606704712
vt 0.6859359741210938 0.4282820224761963
vt 0.29107099771499634 0.4270850419998169
vt 0.3241960108280182 0.22558796405792236
vt 0.19786599278450012 0.22835201025009155
vt 0.1406490057706833 0.4270850419998169
vt 0.29107099771499634 0.4270850419998169
vt 0.19786599278450012 0.22835201025009155
vt 0.49429601430892944 0.6855189800262451
vt 0.49349498748779297 0.6102049946784973
vt 0.44594499468803406 0.7114400267601013
vn 0.3511674602067553 0.4372242564502325 -0.8279591562773361
vn 0.5039021657798677 0.5111377519764568 -0.6962907480548718
vn 0.49721539679811416 0.18414298716872146 -0.8478609611625447
vn 0.3237908471939262 0.06024592350049139 -0.9442086188840962
vn 0.3511674602067553 0.4372242564502325 -0.8279591562773361
vn 0.49721539679811416 0.18414298716872146 -0.8478609611625447
vn -0.3160639377081853 0.3634127942121607 -0.876375905809434
vn -0.24686355587491582 0.15987646909648476 -0.9557708404267379
vn -0.5179083991557527 0.08162248955619496 -0.851533122833501
vn -0.4891204579108896 0.38317127019257746 -0.7835438439245428
vn -0.3160639377081853 0.3634127942121607 -0.876375905809434
vn -0.5179083991557527 0.08162248955619496 -0.851533122833501
vn -0.36515856417404174 -0.1852778973268147 -0.9123219408588759
vn -0.24686355587491582 0.15987646909648476 -0.9557708404267379
vn -0.028239590122054493 0.14307314235211352 -0.9893091536457299
vn 0.0790945320718029 -0.1332367284271203 -0.987923088703964
vn -0.36515856417404174 -0.1852778973268147 -0.9123219408588759
vn -0.028239590122054493 0.14307314235211352 -0.9893091536457299
vn 0.3237908471939262 0.06024592350049139 -0.9442086188840962
vn 0.42751486349367107 -0.19025865912852108 -0.883760535506426
vn 0.0790945320718029 -0.1332367284271203 -0.987923088703964
vn -0.028239590122054493 0.14307314235211352 -0.9893091536457299
vn 0.3237908471939262 0.06024592350049139 -0.9442086188840962
vn 0.0790945320718029 -0.1332367284271203 -0.987923088703964
vn 0.36589110519606816 -0.20255603240546818 -0.9083472644724345
vn -0.06445146175294697 -0.2040782216847295 -0.976830634507286
vn 0.0790945320718029 -0.1332367284271203 -0.987923088703964
vn 0.42751486349367107 -0.19025865912852108 -0.883760535506426
vn 0.36589110519606816 -0.20255603240546818 -0.9083472644724345
vn 0.0790945320718029 -0.1332367284271203 -0.987923088703964
vn 0.050527011527717616 0.48871478560744946 -0.8709792646410952
vn -0.028239590122054493 0.14307314235211352 -0.9893091536457299
vn 0.10204571337835278 0.6008855456203823 -0.7927945720333853
vn 0.5066432884527857 -0.194004994993657 -0.8400444275056281
vn 0.42751486349367107 -0.19025865912852108 -0.883760535506426
vn 0.3237908471939262 0.06024592350049139 -0.9442086188840962
vn 0.49721539679811416 0.18414298716872146 -0.8478609611625447
vn 0.5066432884527857 -0.194004994993657 -0.8400444275056281
vn 0.3237908471939262 0.06024592350049139 -0.9442086188840962
vn 0.050527011527717616 0.48871478560744946 -0.8709792646410952
vn 0.3511674602067553 0.4372242564502325 -0.8279591562773361
vn 0.3237908471939262 0.06024592350049139 -0.9442086188840962
vn -0.028239590122054493 0.14307314235211352 -0.9893091536457299
vn 0.050527011527717616 0.48871478560744946 -0.8709792646410952
vn 0.3237908471939262 0.06024592350049139 -0.9442086188840962
vn 0.009886242267678433 0.4401389875623047 -0.8978752328923292
vn -0.028239590122054493 0.14307314235211352 -0.9893091536457299
vn -0.24686355587491582 0.15987646909648476 -0.9557708404267379
vn -0.3160639377081853 0.3634127942121607 -0.876375905809434
vn 0.009886242267678433 0.4401389875623047 -0.8978752328923292
vn -0.24686355587491582 0.15987646909648476 -0.9557708404267379
vn -0.5179083991557527 0.08162248955619496 -0.851533122833501
vn -0.24686355587491582 0.15987646909648476 -0.9557708404267379
vn -0.36515856417404174 -0.1852778973268147 -0.9123219408588759
vn -0.5456304346849378 -0.2585492037749506 -0.797144740917774
vn -0.5179083991557527 0.08162248955619496 -0.851533122833501
vn -0.36515856417404174 -0.1852778973268147 -0.9123219408588759
vn -0.06445146175294697 -0.2040782216847295 -0.976830634507286
vn -0.4364959889294901 -0.23902071977839184 -0.8673755513992114
vn -0.36515856417404174 -0.1852778973268147 -0.9123219408588759
vn 0.0790945320718029 -0.1332367284271203 -0.987923088703964
vn -0.06445146175294697 -0.2040782216847295 -0.976830634507286
vn -0.36515856417404174 -0.1852778973268147 -0.9123219408588759
vn 0.5635089891310293 -0.25029763655068366 -0.7872793102232952
vn 0.36589110519606816 -0.20255603240546818 -0.9083472644724345
vn 0.42751486349367107 -0.19025865912852108 -0.883760535506426
vn 0.5066432884527857 -0.194004994993657 -0.8400444275056281
vn 0.5635089891310293 -0.25029763655068366 -0.7872793102232952
vn 0.42751486349367107 -0.19025865912852108 -0.883760535506426
vn -0.36515856417404174 -0.1852778973268147 -0.9123219408588759
vn -0.4364959889294901 -0.23902071977839184 -0.8673755513992114
vn -0.5815564493933868 -0.2760654139275058 -0.7652319801223627
vn -0.5456304346849378 -0.2585492037749506 -0.797144740917774
vn -0.36515856417404174 -0.1852778973268147 -0.9123219408588759
vn -0.5815564493933868 -0.2760654139275058 -0.7652319801223627
vn 0.10204571337835278 0.6008855456203823 -0.7927945720333853
vn -0.028239590122054493 0.14307314235211352 -0.9893091536457299
vn 0.009886242267678433 0.4401389875623047 -0.8978752328923292
f 1/1/1 2/2/2 3/3/3
f 4/4/4 5/5/5 6/6/6
f 7/7/7 8/8/8 9/9/9
f 10/10/10 11/11/11 12/12/12
f 13/13/13 14/14/14 15/15/15
f 16/16/16 17/17/17 18/18/18
f 19/19/19 20/20/20 21/21/21
f 22/22/22 23/23/23 24/24/24
f 25/25/25 26/26/26 27/27/27
f 28/28/28 29/29/29 30/30/30
f 31/31/31 32/32/32 33/33/33
f 34/34/34 35/35/35 36/36/36
f 37/37/37 38/38/38 39/39/39
f 40/40/40 41/41/41 42/42/42
f 43/43/43 44/44/44 45/45/45
f 46/46/46 47/47/47 48/48/48
f 49/49/49 50/50/50 51/51/51
f 52/52/52 53/53/53 54/54/54
f 55/55/55 56/56/56 57/57/57
f 58/58/58 59/59/59 60/60/60
f 61/61/61 62/62/62 63/63/63
f 64/64/64 65/65/65 66/66/66
f 67/67/67 68/68/68 69/69/69
f 70/70/70 71/71/71 72/72/72
f 73/73/73 74/74/74 75/75/75
f 76/76/76 77/77/77 78/78/78
