mtllib ArcadaCompleta.mtl
o D36C_CDL
usemtl Esmalte
v 44.28710174560547 -14.318702697753906 -3.50388060556401
v 44.96160125732422 -14.664802551269531 -3.3383606527899623
v 45.2942008972168 -15.474592208862305 -4.14727078424443
v 44.44029998779297 -15.197562217712402 -4.395960435733687
v 44.28710174560547 -14.318702697753906 -3.50388060556401
v 45.2942008972168 -15.474592208862305 -4.14727078424443
v 45.509300231933594 -15.436212539672852 -2.6058105085944057
v 45.95289993286133 -15.791692733764648 -3.0052004908179164
v 45.2942008972168 -15.474592208862305 -4.14727078424443
v 44.96160125732422 -14.664802551269531 -3.3383606527899623
v 45.509300231933594 -15.436212539672852 -2.6058105085944057
v 45.2942008972168 -15.474592208862305 -4.14727078424443
v 46.08539962768555 -20.04964256286621 -2.533580646381272
v 45.962398529052734 -21.257001876831055 -1.7775006149863135
v 45.170101165771484 -21.53971290588379 -3.3916905974005593
v 45.5453987121582 -20.04964256286621 -3.9029506300543675
v 46.08539962768555 -20.04964256286621 -2.533580646381272
v 45.170101165771484 -21.53971290588379 -3.3916905974005593
v 46.344600677490234 -16.842391967773438 -3.050920591220749
v 46.25230026245117 -18.631052017211914 -2.706270561084641
v 45.5265998840332 -18.519472122192383 -4.169990644321334
v 45.6338996887207 -16.565101623535156 -4.309120759830368
v 46.344600677490234 -16.842391967773438 -3.050920591220749
v 45.5265998840332 -18.519472122192383 -4.169990644321334
v 45.95289993286133 -15.791692733764648 -3.0052004908179164
v 46.344600677490234 -16.842391967773438 -3.050920591220749
v 45.6338996887207 -16.565101623535156 -4.309120759830368
v 45.2942008972168 -15.474592208862305 -4.14727078424443
v 45.95289993286133 -15.791692733764648 -3.0052004908179164
v 45.6338996887207 -16.565101623535156 -4.309120759830368
v 44.61520004272461 -18.519472122192383 -4.756890401706588
v 44.7135009765625 -16.574953079223633 -4.848820791110885
v 45.6338996887207 -16.565101623535156 -4.309120759830368
v 45.5265998840332 -18.519472122192383 -4.169990644321334
v 44.61520004272461 -18.519472122192383 -4.756890401706588
v 45.6338996887207 -16.565101623535156 -4.309120759830368
v 44.4276008605957 -14.860302925109863 -2.4951206301306605
v 45.509300231933594 -15.436212539672852 -2.6058105085944057
v 44.96160125732422 -14.664802551269531 -3.3383606527899623
v 44.28710174560547 -14.318702697753906 -3.50388060556401
v 44.4276008605957 -14.860302925109863 -2.4951206301306605
v 44.96160125732422 -14.664802551269531 -3.3383606527899623
v 44.61520004272461 -18.519472122192383 -4.756890401706588
v 42.89030075073242 -18.519472122192383 -5.051630601749313
v 43.05070114135742 -16.575212478637695 -5.149060354099166
v 44.7135009765625 -16.574953079223633 -4.848820791110885
v 44.61520004272461 -18.519472122192383 -4.756890401706588
v 43.05070114135742 -16.575212478637695 -5.149060354099166
v 44.44029998779297 -15.197562217712402 -4.395960435733687
v 42.86840057373047 -15.336402893066406 -4.77572070108403
v 42.66579818725586 -14.832162857055664 -4.041400537357222
v 44.28710174560547 -14.318702697753906 -3.50388060556401
v 44.44029998779297 -15.197562217712402 -4.395960435733687
v 42.66579818725586 -14.832162857055664 -4.041400537357222
v 46.25230026245117 -18.631052017211914 -2.706270561084641
v 46.08539962768555 -20.04964256286621 -2.533580646381272
v 45.5453987121582 -20.04964256286621 -3.9029506300543675
v 45.5265998840332 -18.519472122192383 -4.169990644321334
v 46.25230026245117 -18.631052017211914 -2.706270561084641
v 45.5453987121582 -20.04964256286621 -3.9029506300543675
v 44.044700622558594 -21.70587158203125 -4.22707043634404
v 44.306800842285156 -20.04964256286621 -4.530510530338181
v 45.5453987121582 -20.04964256286621 -3.9029506300543675
v 45.170101165771484 -21.53971290588379 -3.3916905974005593
v 44.044700622558594 -21.70587158203125 -4.22707043634404
v 45.5453987121582 -20.04964256286621 -3.9029506300543675
v 44.61520004272461 -18.519472122192383 -4.756890401706588
v 44.306800842285156 -20.04964256286621 -4.530510530338181
v 42.83039855957031 -19.809513092041016 -4.787990674838913
v 42.89030075073242 -18.519472122192383 -5.051630601749313
v 44.61520004272461 -18.519472122192383 -4.756890401706588
v 42.83039855957031 -19.809513092041016 -4.787990674838913
v 43.56850051879883 -14.704882621765137 -2.412810668811691
v 44.4276008605957 -14.860302925109863 -2.4951206301306605
v 44.28710174560547 -14.318702697753906 -3.50388060556401
v 42.66579818725586 -14.832162857055664 -4.041400537357222
v 42.46160125732422 -14.812752723693848 -3.0236304854010463
v 44.28710174560547 -14.318702697753906 -3.50388060556401
v 42.46160125732422 -14.812752723693848 -3.0236304854010463
v 42.972198486328125 -14.634082794189453 -2.9508906458472133
v 44.28710174560547 -14.318702697753906 -3.50388060556401
v 45.6338996887207 -16.565101623535156 -4.309120759830368
v 44.7135009765625 -16.574953079223633 -4.848820791110885
v 44.44029998779297 -15.197562217712402 -4.395960435733687
v 45.2942008972168 -15.474592208862305 -4.14727078424443
v 45.6338996887207 -16.565101623535156 -4.309120759830368
v 44.44029998779297 -15.197562217712402 -4.395960435733687
v 45.5453987121582 -20.04964256286621 -3.9029506300543675
v 44.306800842285156 -20.04964256286621 -4.530510530338181
v 44.61520004272461 -18.519472122192383 -4.756890401706588
v 45.5265998840332 -18.519472122192383 -4.169990644321334
v 45.5453987121582 -20.04964256286621 -3.9029506300543675
v 44.61520004272461 -18.519472122192383 -4.756890401706588
v 42.86840057373047 -15.336402893066406 -4.77572070108403
v 44.44029998779297 -15.197562217712402 -4.395960435733687
v 44.7135009765625 -16.574953079223633 -4.848820791110885
v 43.05070114135742 -16.575212478637695 -5.149060354099166
v 42.86840057373047 -15.336402893066406 -4.77572070108403
v 44.7135009765625 -16.574953079223633 -4.848820791110885
v 44.28710174560547 -14.318702697753906 -3.50388060556401
v 42.75299835205078 -14.729972839355469 -2.4866605852698207
v 43.56850051879883 -14.704882621765137 -2.412810668811691
v 42.3838996887207 -15.193902969360352 -1.8583506201361535
v 43.048301696777344 -15.342092514038086 -1.5430905674551842
v 43.56850051879883 -14.704882621765137 -2.412810668811691
v 42.75299835205078 -14.729972839355469 -2.4866605852698207
v 42.3838996887207 -15.193902969360352 -1.8583506201361535
v 43.56850051879883 -14.704882621765137 -2.412810668811691
v 42.46160125732422 -14.812752723693848 -3.0236304854010463
v 42.3129997253418 -15.49388313293457 -2.372250661716354
v 42.58879852294922 -15.044042587280273 -2.7634705160712123
v 43.9390983581543 -15.446012496948242 -1.519410595760238
v 45.509300231933594 -15.436212539672852 -2.6058105085944057
v 44.4276008605957 -14.860302925109863 -2.4951206301306605
v 43.048301696777344 -15.342092514038086 -1.5430905674551842
v 43.9390983581543 -15.446012496948242 -1.519410595760238
v 44.4276008605957 -14.860302925109863 -2.4951206301306605
v 43.56850051879883 -14.704882621765137 -2.412810668811691
v 43.048301696777344 -15.342092514038086 -1.5430905674551842
v 44.4276008605957 -14.860302925109863 -2.4951206301306605
v 44.28710174560547 -14.318702697753906 -3.50388060556401
v 42.972198486328125 -14.634082794189453 -2.9508906458472133
v 42.75299835205078 -14.729972839355469 -2.4866605852698207
v 42.3129997253418 -15.49388313293457 -2.372250661716354
v 42.3838996887207 -15.193902969360352 -1.8583506201361535
v 42.75299835205078 -14.729972839355469 -2.4866605852698207
v 42.58879852294922 -15.044042587280273 -2.7634705160712123
v 42.3129997253418 -15.49388313293457 -2.372250661716354
v 42.75299835205078 -14.729972839355469 -2.4866605852698207
v 42.58879852294922 -15.044042587280273 -2.7634705160712123
v 42.972198486328125 -14.634082794189453 -2.9508906458472133
v 42.46160125732422 -14.812752723693848 -3.0236304854010463
v 42.58879852294922 -15.044042587280273 -2.7634705160712123
v 42.75299835205078 -14.729972839355469 -2.4866605852698207
v 42.972198486328125 -14.634082794189453 -2.9508906458472133
vt 0.27140799164772034 0.8376420140266418
vt 0.2116360068321228 0.821357011795044
vt 0.18215900659561157 0.9009400010108948
vt 0.25783100724220276 0.9254069924354553
vt 0.27140799164772034 0.8376420140266418
vt 0.18215900659561157 0.9009400010108948
vt 0.163099005818367 0.7492859959602356
vt 0.12378700077533722 0.788578987121582
vt 0.18215900659561157 0.9009400010108948
vt 0.17864300310611725 0.9539459943771362
vt 0.2507140040397644 0.8524129986763
vt 0.09905979782342911 0.8473610281944275
vt 0.2578200101852417 0.24518799781799316
vt 0.33220601081848145 0.08627378940582275
vt 0.1733970046043396 0.04906362295150757
vt 0.1230970025062561 0.24518799781799316
vt 0.2578200101852417 0.24518799781799316
vt 0.1733970046043396 0.04906362295150757
vt 0.2069219946861267 0.6673290133476257
vt 0.24083100259304047 0.4319039583206177
vt 0.09682419896125793 0.44659101963043213
vt 0.08313599973917007 0.7038270235061646
vt 0.2069219946861267 0.6673290133476257
vt 0.09682419896125793 0.44659101963043213
vt 0.21142099797725677 0.8056240081787109
vt 0.2069219946861267 0.6673290133476257
vt 0.08313599973917007 0.7038270235061646
vt 0.09905979782342911 0.8473610281944275
vt 0.21142099797725677 0.8056240081787109
vt 0.08313599973917007 0.7038270235061646
vt 0.7576649785041809 0.44659101963043213
vt 0.7663800120353699 0.702530026435852
vt 0.847944974899292 0.7038270235061646
vt 0.8384379744529724 0.44659101963043213
vt 0.7576649785041809 0.44659101963043213
vt 0.847944974899292 0.7038270235061646
vt 0.2589550018310547 0.7383959889411926
vt 0.163099005818367 0.7492859959602356
vt 0.2116360068321228 0.821357011795044
vt 0.27140799164772034 0.8376420140266418
vt 0.2589550018310547 0.7383959889411926
vt 0.2116360068321228 0.821357011795044
vt 0.7576649785041809 0.44659101963043213
vt 0.6048099994659424 0.44659101963043213
vt 0.6190189719200134 0.7024959921836853
vt 0.7663800120353699 0.702530026435852
vt 0.7576649785041809 0.44659101963043213
vt 0.6190189719200134 0.7024959921836853
vt 0.25783100724220276 0.9254069924354553
vt 0.39713698625564575 0.9627699851989746
vt 0.41509300470352173 0.8905249834060669
vt 0.27140799164772034 0.8376420140266418
vt 0.25783100724220276 0.9254069924354553
vt 0.41509300470352173 0.8905249834060669
vt 0.24083100259304047 0.4319039583206177
vt 0.2578200101852417 0.24518799781799316
vt 0.1230970025062561 0.24518799781799316
vt 0.09682419896125793 0.44659101963043213
vt 0.24083100259304047 0.4319039583206177
vt 0.1230970025062561 0.24518799781799316
vt 0.7071139812469482 0.02719259262084961
vt 0.730338990688324 0.24518799781799316
vt 0.8401010036468506 0.24518799781799316
vt 0.8068479895591736 0.04906362295150757
vt 0.7071139812469482 0.02719259262084961
vt 0.8401010036468506 0.24518799781799316
vt 0.7576649785041809 0.44659101963043213
vt 0.730338990688324 0.24518799781799316
vt 0.5994979739189148 0.2767939567565918
vt 0.6048099994659424 0.44659101963043213
vt 0.7576649785041809 0.44659101963043213
vt 0.5994979739189148 0.2767939567565918
vt 0.3350889980792999 0.7302979826927185
vt 0.2589550018310547 0.7383959889411926
vt 0.27140799164772034 0.8376420140266418
vt 0.41509300470352173 0.8905249834060669
vt 0.43318501114845276 0.7903919816017151
vt 0.27140799164772034 0.8376420140266418
vt 0.43318501114845276 0.7903919816017151
vt 0.38793298602104187 0.783236026763916
vt 0.27140799164772034 0.8376420140266418
vt 0.847944974899292 0.7038270235061646
vt 0.7663800120353699 0.702530026435852
vt 0.7421690225601196 0.8838250041007996
vt 0.8178409934043884 0.8473610281944275
vt 0.847944974899292 0.7038270235061646
vt 0.7421690225601196 0.8838250041007996
vt 0.8401010036468506 0.24518799781799316
vt 0.730338990688324 0.24518799781799316
vt 0.7576649785041809 0.44659101963043213
vt 0.8384379744529724 0.44659101963043213
vt 0.8401010036468506 0.24518799781799316
vt 0.7576649785041809 0.44659101963043213
vt 0.6028630137443542 0.8655499815940857
vt 0.7421690225601196 0.8838250041007996
vt 0.7663800120353699 0.702530026435852
vt 0.6190189719200134 0.7024959921836853
vt 0.6028630137443542 0.8655499815940857
vt 0.7663800120353699 0.702530026435852
vt 0.27140799164772034 0.8376420140266418
vt 0.40735799074172974 0.7375640273094177
vt 0.3350889980792999 0.7302979826927185
vt 0.4400709867477417 0.6757479906082153
vt 0.38119199872016907 0.6447319984436035
vt 0.3350889980792999 0.7302979826927185
vt 0.40735799074172974 0.7375640273094177
vt 0.4400709867477417 0.6757479906082153
vt 0.3350889980792999 0.7302979826927185
vt 0.43318501114845276 0.7903919816017151
vt 0.4463520050048828 0.7263069748878479
vt 0.4219120144844055 0.7647969722747803
vt 0.3022499978542328 0.6424009799957275
vt 0.163099005818367 0.7492859959602356
vt 0.2589550018310547 0.7383959889411926
vt 0.38119199872016907 0.6447319984436035
vt 0.3022499978542328 0.6424009799957275
vt 0.2589550018310547 0.7383959889411926
vt 0.3350889980792999 0.7302979826927185
vt 0.38119199872016907 0.6447319984436035
vt 0.2589550018310547 0.7383959889411926
vt 0.27140799164772034 0.8376420140266418
vt 0.38793298602104187 0.783236026763916
vt 0.40735799074172974 0.7375640273094177
vt 0.7263069748878479 0.8448219895362854
vt 0.6757479906082153 0.8843050003051758
vt 0.7375640273094177 0.9453690052032471
vt 0.7647969722747803 0.9040300250053406
vt 0.7263069748878479 0.8448219895362854
vt 0.7375640273094177 0.9453690052032471
vt 0.4219120144844055 0.7647969722747803
vt 0.38793298602104187 0.783236026763916
vt 0.43318501114845276 0.7903919816017151
vt 0.4219120144844055 0.7647969722747803
vt 0.40735799074172974 0.7375640273094177
vt 0.38793298602104187 0.783236026763916
vn 0.06938179771068913 0.9750156812852364 -0.21102271772091014
vn 0.6496732920350716 0.7579231267129618 0.058967343589146286
vn 0.6793790581090408 0.5723734098185236 -0.4591653026259596
vn 0.22623754994410772 0.5602139450863456 -0.7968543823849376
vn 0.06938179771068913 0.9750156812852364 -0.21102271772091014
vn 0.6793790581090408 0.5723734098185236 -0.4591653026259596
vn 0.6352635911375804 0.7293008809854264 0.2540873762485373
vn 0.8165358938879961 0.4618351480914696 -0.3463775829638256
vn 0.6793790581090408 0.5723734098185236 -0.4591653026259596
vn 0.6496732920350716 0.7579231267129618 0.058967343589146286
vn 0.6352635911375804 0.7293008809854264 0.2540873762485373
vn 0.6793790581090408 0.5723734098185236 -0.4591653026259596
vn 0.8905133228977411 -0.27667148733123914 -0.361163273104483
vn 0.8711494931577107 -0.32127929206436245 -0.3713195080542977
vn 0.7993658950578475 -0.357792951304002 -0.48269904683512516
vn 0.7138811706794533 -0.2338566403734797 -0.6600641983190441
vn 0.8905133228977411 -0.27667148733123914 -0.361163273104483
vn 0.7993658950578475 -0.357792951304002 -0.48269904683512516
vn 0.883048667852222 -0.013071080978769618 -0.46909934667025777
vn 0.8979062881506852 -0.11647572170495703 -0.42449700111163147
vn 0.7928248159287501 -0.1034389298515575 -0.6006073584620055
vn 0.7014584593368742 0.10520947802645798 -0.7049021177143242
vn 0.883048667852222 -0.013071080978769618 -0.46909934667025777
vn 0.7928248159287501 -0.1034389298515575 -0.6006073584620055
vn 0.8165358938879961 0.4618351480914696 -0.3463775829638256
vn 0.883048667852222 -0.013071080978769618 -0.46909934667025777
vn 0.7014584593368742 0.10520947802645798 -0.7049021177143242
vn 0.6793790581090408 0.5723734098185236 -0.4591653026259596
vn 0.8165358938879961 0.4618351480914696 -0.3463775829638256
vn 0.7014584593368742 0.10520947802645798 -0.7049021177143242
vn 0.31062477289673357 -0.12134330509778454 -0.9427555636382099
vn 0.28701980296184054 0.15539815152432696 -0.9452359743527372
vn 0.7014584593368742 0.10520947802645798 -0.7049021177143242
vn 0.7928248159287501 -0.1034389298515575 -0.6006073584620055
vn 0.31062477289673357 -0.12134330509778454 -0.9427555636382099
vn 0.7014584593368742 0.10520947802645798 -0.7049021177143242
vn 0.29652742313040575 0.7888519966566002 0.5383159060463812
vn 0.6352635911375804 0.7293008809854264 0.2540873762485373
vn 0.6496732920350716 0.7579231267129618 0.058967343589146286
vn 0.06938179771068913 0.9750156812852364 -0.21102271772091014
vn 0.29652742313040575 0.7888519966566002 0.5383159060463812
vn 0.6496732920350716 0.7579231267129618 0.058967343589146286
vn 0.31062477289673357 -0.12134330509778454 -0.9427555636382099
vn 0.16720268671163765 -0.12062804461140936 -0.978515271423823
vn 0.1740090465735569 0.03162226302123243 -0.9842361932950738
vn 0.28701980296184054 0.15539815152432696 -0.9452359743527372
vn 0.31062477289673357 -0.12134330509778454 -0.9427555636382099
vn 0.1740090465735569 0.03162226302123243 -0.9842361932950738
vn 0.22623754994410772 0.5602139450863456 -0.7968543823849376
vn 0.15780701840351702 0.46615983875089384 -0.8705124638271026
vn -0.07908388533603572 0.8755292406799404 -0.4766490195044608
vn 0.06938179771068913 0.9750156812852364 -0.21102271772091014
vn 0.22623754994410772 0.5602139450863456 -0.7968543823849376
vn -0.07908388533603572 0.8755292406799404 -0.4766490195044608
vn 0.8979062881506852 -0.11647572170495703 -0.42449700111163147
vn 0.8905133228977411 -0.27667148733123914 -0.361163273104483
vn 0.7138811706794533 -0.2338566403734797 -0.6600641983190441
vn 0.7928248159287501 -0.1034389298515575 -0.6006073584620055
vn 0.8979062881506852 -0.11647572170495703 -0.42449700111163147
vn 0.7138811706794533 -0.2338566403734797 -0.6600641983190441
vn 0.5158206810937949 -0.3111792201002973 -0.7981832608703996
vn 0.34140904170173997 -0.20839484569164696 -0.916521387930175
vn 0.7138811706794533 -0.2338566403734797 -0.6600641983190441
vn 0.7993658950578475 -0.357792951304002 -0.48269904683512516
vn 0.5158206810937949 -0.3111792201002973 -0.7981832608703996
vn 0.7138811706794533 -0.2338566403734797 -0.6600641983190441
vn 0.31062477289673357 -0.12134330509778454 -0.9427555636382099
vn 0.34140904170173997 -0.20839484569164696 -0.916521387930175
vn 0.15318763340705038 -0.18855288728933858 -0.970041936034727
vn 0.16720268671163765 -0.12062804461140936 -0.978515271423823
vn 0.31062477289673357 -0.12134330509778454 -0.9427555636382099
vn 0.15318763340705038 -0.18855288728933858 -0.970041936034727
vn 0.04773875534263399 0.8610682787394373 0.5062434499201337
vn 0.29652742313040575 0.7888519966566002 0.5383159060463812
vn 0.06938179771068913 0.9750156812852364 -0.21102271772091014
vn -0.07908388533603572 0.8755292406799404 -0.4766490195044608
vn -0.29054561385314814 0.9566367906737785 0.020719483586004686
vn 0.06938179771068913 0.9750156812852364 -0.21102271772091014
vn -0.29054561385314814 0.9566367906737785 0.020719483586004686
vn -0.37054921933218105 0.9269888685984441 0.058180009856376176
vn 0.06938179771068913 0.9750156812852364 -0.21102271772091014
vn 0.7014584593368742 0.10520947802645798 -0.7049021177143242
vn 0.28701980296184054 0.15539815152432696 -0.9452359743527372
vn 0.22623754994410772 0.5602139450863456 -0.7968543823849376
vn 0.6793790581090408 0.5723734098185236 -0.4591653026259596
vn 0.7014584593368742 0.10520947802645798 -0.7049021177143242
vn 0.22623754994410772 0.5602139450863456 -0.7968543823849376
vn 0.7138811706794533 -0.2338566403734797 -0.6600641983190441
vn 0.34140904170173997 -0.20839484569164696 -0.916521387930175
vn 0.31062477289673357 -0.12134330509778454 -0.9427555636382099
vn 0.7928248159287501 -0.1034389298515575 -0.6006073584620055
vn 0.7138811706794533 -0.2338566403734797 -0.6600641983190441
vn 0.31062477289673357 -0.12134330509778454 -0.9427555636382099
vn 0.15780701840351702 0.46615983875089384 -0.8705124638271026
vn 0.22623754994410772 0.5602139450863456 -0.7968543823849376
vn 0.28701980296184054 0.15539815152432696 -0.9452359743527372
vn 0.1740090465735569 0.03162226302123243 -0.9842361932950738
vn 0.15780701840351702 0.46615983875089384 -0.8705124638271026
vn 0.28701980296184054 0.15539815152432696 -0.9452359743527372
vn 0.06938179771068913 0.9750156812852364 -0.21102271772091014
vn -0.37947993998425483 0.9010150320477183 0.21015919483476242
vn 0.04773875534263399 0.8610682787394373 0.5062434499201337
vn -0.30564242142705217 0.8439553026486524 0.44081986951069935
vn 0.07030039705854924 0.8052625289745702 0.5887360304948986
vn 0.04773875534263399 0.8610682787394373 0.5062434499201337
vn -0.37947993998425483 0.9010150320477183 0.21015919483476242
vn -0.30564242142705217 0.8439553026486524 0.44081986951069935
vn 0.04773875534263399 0.8610682787394373 0.5062434499201337
vn -0.29054561385314814 0.9566367906737785 0.020719483586004686
vn -0.8155669557229874 0.5775787399215028 0.035402541200144785
vn -0.6742672185507643 0.6914647675401805 0.25930714073935557
vn 0.2853739147813752 0.7519419489423145 0.5942600728495785
vn 0.6352635911375804 0.7293008809854264 0.2540873762485373
vn 0.29652742313040575 0.7888519966566002 0.5383159060463812
vn 0.07030039705854924 0.8052625289745702 0.5887360304948986
vn 0.2853739147813752 0.7519419489423145 0.5942600728495785
vn 0.29652742313040575 0.7888519966566002 0.5383159060463812
vn 0.04773875534263399 0.8610682787394373 0.5062434499201337
vn 0.07030039705854924 0.8052625289745702 0.5887360304948986
vn 0.29652742313040575 0.7888519966566002 0.5383159060463812
vn 0.06938179771068913 0.9750156812852364 -0.21102271772091014
vn -0.37054921933218105 0.9269888685984441 0.058180009856376176
vn -0.37947993998425483 0.9010150320477183 0.21015919483476242
vn -0.8155669557229874 0.5775787399215028 0.035402541200144785
vn -0.30564242142705217 0.8439553026486524 0.44081986951069935
vn -0.37947993998425483 0.9010150320477183 0.21015919483476242
vn -0.6742672185507643 0.6914647675401805 0.25930714073935557
vn -0.8155669557229874 0.5775787399215028 0.035402541200144785
vn -0.37947993998425483 0.9010150320477183 0.21015919483476242
vn -0.6742672185507643 0.6914647675401805 0.25930714073935557
vn -0.37054921933218105 0.9269888685984441 0.058180009856376176
vn -0.29054561385314814 0.9566367906737785 0.020719483586004686
vn -0.6742672185507643 0.6914647675401805 0.25930714073935557
vn -0.37947993998425483 0.9010150320477183 0.21015919483476242
vn -0.37054921933218105 0.9269888685984441 0.058180009856376176
f 1/1/1 2/2/2 3/3/3
f 4/4/4 5/5/5 6/6/6
f 7/7/7 8/8/8 9/9/9
f 10/10/10 11/11/11 12/12/12
f 13/13/13 14/14/14 15/15/15
f 16/16/16 17/17/17 18/18/18
f 19/19/19 20/20/20 21/21/21
f 22/22/22 23/23/23 24/24/24
f 25/25/25 26/26/26 27/27/27
f 28/28/28 29/29/29 30/30/30
f 31/31/31 32/32/32 33/33/33
f 34/34/34 35/35/35 36/36/36
f 37/37/37 38/38/38 39/39/39
f 40/40/40 41/41/41 42/42/42
f 43/43/43 44/44/44 45/45/45
f 46/46/46 47/47/47 48/48/48
f 49/49/49 50/50/50 51/51/51
f 52/52/52 53/53/53 54/54/54
f 55/55/55 56/56/56 57/57/57
f 58/58/58 59/59/59 60/60/60
f 61/61/61 62/62/62 63/63/63
f 64/64/64 65/65/65 66/66/66
f 67/67/67 68/68/68 69/69/69
f 70/70/70 71/71/71 72/72/72
f 73/73/73 74/74/74 75/75/75
f 76/76/76 77/77/77 78/78/78
f 79/79/79 80/80/80 81/81/81
f 82/82/82 83/83/83 84/84/84
f 85/85/85 86/86/86 87/87/87
f 88/88/88 89/89/89 90/90/90
f 91/91/91 92/92/92 93/93/93
f 94/94/94 95/95/95 96/96/96
f 97/97/97 98/98/98 99/99/99
f 100/100/100 101/101/101 102/102/102
f 103/103/103 104/104/104 105/105/105
f 106/106/106 107/107/107 108/108/108
f 109/109/109 110/110/110 111/111/111
f 112/112/112 113/113/113 114/114/114
f 115/115/115 116/116/116 117/117/117
f 118/118/118 119/119/119 120/120/120
f 121/121/121 122/122/122 123/123/123
f 124/124/124 125/125/125 126/126/126
f 127/127/127 128/128/128 129/129/129
f 130/130/130 131/131/131 132/132/132
f 133/133/133 134/134/134 135/135/135
