mtllib ArcadaCompleta.mtl
o D36C_B
usemtl Esmalte
v 40.458499908447266 -16.59465217590332 4.335599317684281
v 40.81480026245117 -16.699092864990234 3.988559379711258
v 40.896400451660156 -15.905202865600586 3.5417493726159215
v 40.50379943847656 -15.670852661132812 3.751739397182572
v 40.458499908447266 -16.59465217590332 4.335599317684281
v 40.896400451660156 -15.905202865600586 3.5417493726159215
v 41.15520095825195 -16.59465217590332 4.364809408321488
v 41.285099029541016 -15.670852661132812 3.8588594342614293
v 40.896400451660156 -15.905202865600586 3.5417493726159215
v 40.81480026245117 -16.699092864990234 3.988559379711258
v 41.15520095825195 -16.59465217590332 4.364809408321488
v 40.896400451660156 -15.905202865600586 3.5417493726159215
v 41.15520095825195 -16.59465217590332 4.364809408321488
v 40.81480026245117 -16.699092864990234 3.988559379711258
v 40.894500732421875 -18.519472122192383 4.360639467373002
v 41.22019958496094 -18.519472122192383 4.84357918752681
v 41.15520095825195 -16.59465217590332 4.364809408321488
v 40.894500732421875 -18.519472122192383 4.360639467373002
v 40.894500732421875 -18.992393493652344 4.725769415035355
v 41.22019958496094 -18.519472122192383 4.84357918752681
v 40.894500732421875 -18.519472122192383 4.360639467373002
v 40.458499908447266 -16.59465217590332 4.335599317684281
v 40.56880187988281 -18.519472122192383 4.84357918752681
v 40.894500732421875 -18.519472122192383 4.360639467373002
v 40.81480026245117 -16.699092864990234 3.988559379711258
v 40.458499908447266 -16.59465217590332 4.335599317684281
v 40.894500732421875 -18.519472122192383 4.360639467373002
v 41.285099029541016 -15.670852661132812 3.8588594342614293
v 41.37699890136719 -15.222982406616211 3.098649397029984
v 41.01129913330078 -15.689212799072266 3.1009093667412877
v 40.896400451660156 -15.905202865600586 3.5417493726159215
v 41.285099029541016 -15.670852661132812 3.8588594342614293
v 41.01129913330078 -15.689212799072266 3.1009093667412877
v 41.15520095825195 -16.59465217590332 4.364809408321488
v 42.349300384521484 -16.584802627563477 4.497869386806595
v 42.36069869995117 -15.349762916564941 3.689629449977982
v 41.285099029541016 -15.670852661132812 3.8588594342614293
v 41.15520095825195 -16.59465217590332 4.364809408321488
v 42.36069869995117 -15.349762916564941 3.689629449977982
v 40.458499908447266 -16.59465217590332 4.335599317684281
v 40.50379943847656 -15.670852661132812 3.751739397182572
v 39.43470001220703 -15.437952041625977 3.589329376354325
v 39.49300003051758 -16.584802627563477 4.351669206752884
v 40.458499908447266 -16.59465217590332 4.335599317684281
v 39.43470001220703 -15.437952041625977 3.589329376354325
v 41.01129913330078 -20.04964256286621 4.769429578914749
v 42.125999450683594 -20.06011199951172 4.8513993169213405
v 42.257301330566406 -18.519472122192383 5.00505961431514
v 40.894500732421875 -18.992393493652344 4.725769415035355
v 41.01129913330078 -20.04964256286621 4.769429578914749
v 42.257301330566406 -18.519472122192383 5.00505961431514
v 41.22019958496094 -18.519472122192383 4.84357918752681
v 40.894500732421875 -18.992393493652344 4.725769415035355
v 42.257301330566406 -18.519472122192383 5.00505961431514
v 40.458499908447266 -16.59465217590332 4.335599317684281
v 39.49300003051758 -16.584802627563477 4.351669206752884
v 39.53950119018555 -18.519472122192383 4.845389261379349
v 40.56880187988281 -18.519472122192383 4.84357918752681
v 40.458499908447266 -16.59465217590332 4.335599317684281
v 39.53950119018555 -18.519472122192383 4.845389261379349
v 41.22019958496094 -18.519472122192383 4.84357918752681
v 42.257301330566406 -18.519472122192383 5.00505961431514
v 42.349300384521484 -16.584802627563477 4.497869386806595
v 41.15520095825195 -16.59465217590332 4.364809408321488
v 41.22019958496094 -18.519472122192383 4.84357918752681
v 42.349300384521484 -16.584802627563477 4.497869386806595
v 40.50379943847656 -15.670852661132812 3.751739397182572
v 40.64569854736328 -15.222982406616211 3.0304793263817906
v 39.60300064086914 -14.854142189025879 2.7263194466973424
v 39.43470001220703 -15.437952041625977 3.589329376354325
v 40.50379943847656 -15.670852661132812 3.751739397182572
v 39.60300064086914 -14.854142189025879 2.7263194466973424
v 41.01129913330078 -20.04964256286621 4.769429578914749
v 40.894500732421875 -18.992393493652344 4.725769415035355
v 39.747398376464844 -20.04964256286621 4.916719331874954
v 41.01129913330078 -15.689212799072266 3.1009093667412877
v 40.64569854736328 -15.222982406616211 3.0304793263817906
v 40.50379943847656 -15.670852661132812 3.751739397182572
v 40.896400451660156 -15.905202865600586 3.5417493726159215
v 41.01129913330078 -15.689212799072266 3.1009093667412877
v 40.50379943847656 -15.670852661132812 3.751739397182572
v 42.338600158691406 -14.871692657470703 3.0003494168664098
v 41.37699890136719 -15.222982406616211 3.098649397029984
v 41.285099029541016 -15.670852661132812 3.8588594342614293
v 42.36069869995117 -15.349762916564941 3.689629449977982
v 42.338600158691406 -14.871692657470703 3.0003494168664098
v 41.285099029541016 -15.670852661132812 3.8588594342614293
v 39.747398376464844 -20.04964256286621 4.916719331874954
v 40.894500732421875 -18.992393493652344 4.725769415035355
v 40.56880187988281 -18.519472122192383 4.84357918752681
v 39.53950119018555 -18.519472122192383 4.845389261379349
v 39.747398376464844 -20.04964256286621 4.916719331874954
v 40.56880187988281 -18.519472122192383 4.84357918752681
v 40.894500732421875 -18.519472122192383 4.360639467373002
v 40.56880187988281 -18.519472122192383 4.84357918752681
v 40.894500732421875 -18.992393493652344 4.725769415035355
vt 0.6107010245323181 0.6999379992485046
vt 0.5791260004043579 0.686191976070404
vt 0.5718979835510254 0.7906829714775085
vt 0.606685996055603 0.821528971195221
vt 0.6107010245323181 0.6999379992485046
vt 0.5718979835510254 0.7906829714775085
vt 0.06348969787359238 0.6999379992485046
vt 0.11326699703931808 0.821528971195221
vt 0.14446599781513214 0.7906829714775085
vt 0.10050699859857559 0.686191976070404
vt 0.06348969787359238 0.6999379992485046
vt 0.14446599781513214 0.7906829714775085
vt 0.06348969787359238 0.6999379992485046
vt 0.10050699859857559 0.686191976070404
vt 0.06389980018138885 0.44659101963043213
vt 0.01638690009713173 0.44659101963043213
vt 0.06348969787359238 0.6999379992485046
vt 0.06389980018138885 0.44659101963043213
vt 0.027977900579571724 0.3843439817428589
vt 0.01638690009713173 0.44659101963043213
vt 0.06389980018138885 0.44659101963043213
vt 0.9336360096931458 0.6999379992485046
vt 0.9836130142211914 0.44659101963043213
vt 0.9361000061035156 0.44659101963043213
vt 0.5791260004043579 0.686191976070404
vt 0.6107010245323181 0.6999379992485046
vt 0.5720660090446472 0.44659101963043213
vt 0.5374450087547302 0.11326700448989868
vt 0.529308021068573 0.1880599856376648
vt 0.5617089867591858 0.18783700466156006
vt 0.5718979835510254 0.14446598291397095
vt 0.5374450087547302 0.11326700448989868
vt 0.5617089867591858 0.18783700466156006
vt 0.5489649772644043 0.6999379992485046
vt 0.44313299655914307 0.701233983039856
vt 0.44212600588798523 0.8637909889221191
vt 0.5374450087547302 0.821528971195221
vt 0.5489649772644043 0.6999379992485046
vt 0.44212600588798523 0.8637909889221191
vt 0.6107010245323181 0.6999379992485046
vt 0.606685996055603 0.821528971195221
vt 0.7014340162277222 0.852183997631073
vt 0.6962670087814331 0.701233983039856
vt 0.6107010245323181 0.6999379992485046
vt 0.7014340162277222 0.852183997631073
vt 0.5617089867591858 0.24518799781799316
vt 0.4629310071468353 0.2438099980354309
vt 0.45128899812698364 0.44659101963043213
vt 0.5720660090446472 0.3843439817428589
vt 0.5617089867591858 0.24518799781799316
vt 0.45128899812698364 0.44659101963043213
vt 0.5432040095329285 0.44659101963043213
vt 0.5720660090446472 0.3843439817428589
vt 0.45128899812698364 0.44659101963043213
vt 0.6107010245323181 0.6999379992485046
vt 0.6962670087814331 0.701233983039856
vt 0.6921460032463074 0.44659101963043213
vt 0.6009269952774048 0.44659101963043213
vt 0.6107010245323181 0.6999379992485046
vt 0.6921460032463074 0.44659101963043213
vt 0.5432040095329285 0.44659101963043213
vt 0.45128899812698364 0.44659101963043213
vt 0.44313299655914307 0.701233983039856
vt 0.5489649772644043 0.6999379992485046
vt 0.5432040095329285 0.44659101963043213
vt 0.44313299655914307 0.701233983039856
vt 0.606685996055603 0.12380599975585938
vt 0.5941100120544434 0.19476699829101562
vt 0.6865159869194031 0.22469103336334229
vt 0.7014340162277222 0.13978499174118042
vt 0.606685996055603 0.12380599975585938
vt 0.6865159869194031 0.22469103336334229
vt 0.5617089867591858 0.24518799781799316
vt 0.5720660090446472 0.3843439817428589
vt 0.6737210154533386 0.24518799781799316
vt 0.5617089867591858 0.18783700466156006
vt 0.5941100120544434 0.19476699829101562
vt 0.606685996055603 0.12380599975585938
vt 0.5718979835510254 0.14446598291397095
vt 0.5617089867591858 0.18783700466156006
vt 0.606685996055603 0.12380599975585938
vt 0.44408899545669556 0.19773101806640625
vt 0.529308021068573 0.1880599856376648
vt 0.5374450087547302 0.11326700448989868
vt 0.44212600588798523 0.12991702556610107
vt 0.44408899545669556 0.19773101806640625
vt 0.5374450087547302 0.11326700448989868
vt 0.6737210154533386 0.24518799781799316
vt 0.5720660090446472 0.3843439817428589
vt 0.6009269952774048 0.44659101963043213
vt 0.6921460032463074 0.44659101963043213
vt 0.6737210154533386 0.24518799781799316
vt 0.6009269952774048 0.44659101963043213
vt 0.9361000061035156 0.44659101963043213
vt 0.9836130142211914 0.44659101963043213
vt 0.9720219969749451 0.3843439817428589
vn 0.26246410255426117 0.3529042256116539 0.8980930922882243
vn -0.03997701390422778 0.2987045633716831 0.9535079560130756
vn -0.0697599765808145 0.6194631233111461 0.7819200627462144
vn 0.23384247565231864 0.7016823245265391 0.6730227425784566
vn 0.26246410255426117 0.3529042256116539 0.8980930922882243
vn -0.0697599765808145 0.6194631233111461 0.7819200627462144
vn -0.3723853642326838 0.3520358924780919 0.8587199024783605
vn -0.34046135094896357 0.7070281659718225 0.619836463135663
vn -0.0697599765808145 0.6194631233111461 0.7819200627462144
vn -0.03997701390422778 0.2987045633716831 0.9535079560130756
vn -0.3723853642326838 0.3520358924780919 0.8587199024783605
vn -0.0697599765808145 0.6194631233111461 0.7819200627462144
vn -0.3723853642326838 0.3520358924780919 0.8587199024783605
vn -0.03997701390422778 0.2987045633716831 0.9535079560130756
vn -0.018012149409935944 0.2838698351258104 0.9586936315524786
vn -0.30125346140949044 0.21295921052870637 0.9294593733132132
vn -0.3723853642326838 0.3520358924780919 0.8587199024783605
vn -0.018012149409935944 0.2838698351258104 0.9586936315524786
vn -0.004801973726093622 0.04302936398018341 0.9990622677710308
vn -0.30125346140949044 0.21295921052870637 0.9294593733132132
vn -0.018012149409935944 0.2838698351258104 0.9586936315524786
vn 0.26246410255426117 0.3529042256116539 0.8980930922882243
vn 0.25206001183672344 0.15746977044824242 0.9548136058036922
vn -0.018012149409935944 0.2838698351258104 0.9586936315524786
vn -0.03997701390422778 0.2987045633716831 0.9535079560130756
vn 0.26246410255426117 0.3529042256116539 0.8980930922882243
vn -0.018012149409935944 0.2838698351258104 0.9586936315524786
vn -0.34046135094896357 0.7070281659718225 0.619836463135663
vn -0.45549992187772026 0.7900132775142972 0.4103642802687738
vn -0.06848502114122405 0.865955372094477 0.4954100275731225
vn -0.0697599765808145 0.6194631233111461 0.7819200627462144
vn -0.34046135094896357 0.7070281659718225 0.619836463135663
vn -0.06848502114122405 0.865955372094477 0.4954100275731225
vn -0.3723853642326838 0.3520358924780919 0.8587199024783605
vn -0.1205412499633932 0.3347735732092654 0.9345568263824108
vn -0.0858818393832303 0.6017524265126696 0.7940518414123017
vn -0.34046135094896357 0.7070281659718225 0.619836463135663
vn -0.3723853642326838 0.3520358924780919 0.8587199024783605
vn -0.0858818393832303 0.6017524265126696 0.7940518414123017
vn 0.26246410255426117 0.3529042256116539 0.8980930922882243
vn 0.23384247565231864 0.7016823245265391 0.6730227425784566
vn 0.03267912783046183 0.6417429140541825 0.7662232748132143
vn 0.019261874843953936 0.377949838611295 0.9256256801057282
vn 0.26246410255426117 0.3529042256116539 0.8980930922882243
vn 0.03267912783046183 0.6417429140541825 0.7662232748132143
vn -0.06317198475470917 -0.013432035924127101 0.9979122610495792
vn -0.07388745736474953 -0.09273725425622083 0.9929453385343977
vn -0.14400040641507192 0.05839472076760672 0.987853197362223
vn -0.004801973726093622 0.04302936398018341 0.9990622677710308
vn -0.06317198475470917 -0.013432035924127101 0.9979122610495792
vn -0.14400040641507192 0.05839472076760672 0.987853197362223
vn -0.30125346140949044 0.21295921052870637 0.9294593733132132
vn -0.004801973726093622 0.04302936398018341 0.9990622677710308
vn -0.14400040641507192 0.05839472076760672 0.987853197362223
vn 0.26246410255426117 0.3529042256116539 0.8980930922882243
vn 0.019261874843953936 0.377949838611295 0.9256256801057282
vn 0.0076333765473705715 0.19429391995312675 0.9809136578882639
vn 0.25206001183672344 0.15746977044824242 0.9548136058036922
vn 0.26246410255426117 0.3529042256116539 0.8980930922882243
vn 0.0076333765473705715 0.19429391995312675 0.9809136578882639
vn -0.30125346140949044 0.21295921052870637 0.9294593733132132
vn -0.14400040641507192 0.05839472076760672 0.987853197362223
vn -0.1205412499633932 0.3347735732092654 0.9345568263824108
vn -0.3723853642326838 0.3520358924780919 0.8587199024783605
vn -0.30125346140949044 0.21295921052870637 0.9294593733132132
vn -0.1205412499633932 0.3347735732092654 0.9345568263824108
vn 0.23384247565231864 0.7016823245265391 0.6730227425784566
vn 0.31585058730171417 0.7769535086275399 0.5445931067618444
vn 0.11124268997522752 0.8226811347688062 0.5575130621093866
vn 0.03267912783046183 0.6417429140541825 0.7662232748132143
vn 0.23384247565231864 0.7016823245265391 0.6730227425784566
vn 0.11124268997522752 0.8226811347688062 0.5575130621093866
vn -0.06317198475470917 -0.013432035924127101 0.9979122610495792
vn -0.004801973726093622 0.04302936398018341 0.9990622677710308
vn 0.09780977505739374 0.019185746174711613 0.9950201782109455
vn -0.06848502114122405 0.865955372094477 0.4954100275731225
vn 0.31585058730171417 0.7769535086275399 0.5445931067618444
vn 0.23384247565231864 0.7016823245265391 0.6730227425784566
vn -0.0697599765808145 0.6194631233111461 0.7819200627462144
vn -0.06848502114122405 0.865955372094477 0.4954100275731225
vn 0.23384247565231864 0.7016823245265391 0.6730227425784566
vn -0.20541965092741485 0.8292144186299242 0.5198136348241511
vn -0.45549992187772026 0.7900132775142972 0.4103642802687738
vn -0.34046135094896357 0.7070281659718225 0.619836463135663
vn -0.0858818393832303 0.6017524265126696 0.7940518414123017
vn -0.20541965092741485 0.8292144186299242 0.5198136348241511
vn -0.34046135094896357 0.7070281659718225 0.619836463135663
vn 0.09780977505739374 0.019185746174711613 0.9950201782109455
vn -0.004801973726093622 0.04302936398018341 0.9990622677710308
vn 0.25206001183672344 0.15746977044824242 0.9548136058036922
vn 0.0076333765473705715 0.19429391995312675 0.9809136578882639
vn 0.09780977505739374 0.019185746174711613 0.9950201782109455
vn 0.25206001183672344 0.15746977044824242 0.9548136058036922
vn -0.018012149409935944 0.2838698351258104 0.9586936315524786
vn 0.25206001183672344 0.15746977044824242 0.9548136058036922
vn -0.004801973726093622 0.04302936398018341 0.9990622677710308
f 1/1/1 2/2/2 3/3/3
f 4/4/4 5/5/5 6/6/6
f 7/7/7 8/8/8 9/9/9
f 10/10/10 11/11/11 12/12/12
f 13/13/13 14/14/14 15/15/15
f 16/16/16 17/17/17 18/18/18
f 19/19/19 20/20/20 21/21/21
f 22/22/22 23/23/23 24/24/24
f 25/25/25 26/26/26 27/27/27
f 28/28/28 29/29/29 30/30/30
f 31/31/31 32/32/32 33/33/33
f 34/34/34 35/35/35 36/36/36
f 37/37/37 38/38/38 39/39/39
f 40/40/40 41/41/41 42/42/42
f 43/43/43 44/44/44 45/45/45
f 46/46/46 47/47/47 48/48/48
f 49/49/49 50/50/50 51/51/51
f 52/52/52 53/53/53 54/54/54
f 55/55/55 56/56/56 57/57/57
f 58/58/58 59/59/59 60/60/60
f 61/61/61 62/62/62 63/63/63
f 64/64/64 65/65/65 66/66/66
f 67/67/67 68/68/68 69/69/69
f 70/70/70 71/71/71 72/72/72
f 73/73/73 74/74/74 75/75/75
f 76/76/76 77/77/77 78/78/78
f 79/79/79 80/80/80 81/81/81
f 82/82/82 83/83/83 84/84/84
f 85/85/85 86/86/86 87/87/87
f 88/88/88 89/89/89 90/90/90
f 91/91/91 92/92/92 93/93/93
f 94/94/94 95/95/95 96/96/96
