mtllib ArcadaCompleta.mtl
o D36C_CMV
usemtl Esmalte
v 38.41939926147461 -16.574953079223633 4.2644995595360875
v 38.208499908447266 -15.229582786560059 3.383179321422684
v 37.4005012512207 -15.377202987670898 2.9904893781090855
v 37.19710159301758 -16.565101623535156 3.5344494725609894
v 38.41939926147461 -16.574953079223633 4.2644995595360875
v 37.4005012512207 -15.377202987670898 2.9904893781090855
v 38.41939926147461 -16.574953079223633 4.2644995595360875
v 37.19710159301758 -16.565101623535156 3.5344494725609894
v 37.33359909057617 -18.519472122192383 4.060739412441361
v 38.517799377441406 -18.519472122192383 4.6887196446801305
v 38.41939926147461 -16.574953079223633 4.2644995595360875
v 37.33359909057617 -18.519472122192383 4.060739412441361
v 38.82609939575195 -20.04964256286621 4.6960696126366726
v 38.517799377441406 -18.519472122192383 4.6887196446801305
v 37.33359909057617 -18.519472122192383 4.060739412441361
v 37.57780075073242 -20.04964256286621 3.8716093446160427
v 38.82609939575195 -20.04964256286621 4.6960696126366726
v 37.33359909057617 -18.519472122192383 4.060739412441361
v 36.24509811401367 -16.881183624267578 2.533079519405472
v 36.50600051879883 -15.818212509155273 2.1500393296624303
v 36.3489990234375 -16.12021255493164 1.265389456882584
v 36.185699462890625 -17.11968231201172 1.517219438686478
v 36.24509811401367 -16.881183624267578 2.533079519405472
v 36.3489990234375 -16.12021255493164 1.265389456882584
v 36.50600051879883 -15.818212509155273 2.1500393296624303
v 36.24509811401367 -16.881183624267578 2.533079519405472
v 37.19710159301758 -16.565101623535156 3.5344494725609894
v 37.4005012512207 -15.377202987670898 2.9904893781090855
v 36.50600051879883 -15.818212509155273 2.1500393296624303
v 37.19710159301758 -16.565101623535156 3.5344494725609894
v 37.57780075073242 -20.04964256286621 3.8716093446160427
v 36.930599212646484 -20.04964256286621 2.535719528331863
v 37.170501708984375 -21.257001876831055 1.7796293641472924
v 37.962799072265625 -21.53971290588379 3.3938194657708274
v 37.57780075073242 -20.04964256286621 3.8716093446160427
v 37.170501708984375 -21.257001876831055 1.7796293641472924
v 36.930599212646484 -20.04964256286621 2.535719528331863
v 36.47019958496094 -18.631052017211914 2.6283694650078884
v 36.416500091552734 -18.8159122467041 1.4302793885613554
v 36.83259963989258 -20.04964256286621 1.433869376316177
v 36.930599212646484 -20.04964256286621 2.535719528331863
v 36.416500091552734 -18.8159122467041 1.4302793885613554
v 36.47019958496094 -18.631052017211914 2.6283694650078884
v 36.24509811401367 -16.881183624267578 2.533079519405472
v 36.185699462890625 -17.11968231201172 1.517219438686478
v 36.416500091552734 -18.8159122467041 1.4302793885613554
v 36.47019958496094 -18.631052017211914 2.6283694650078884
v 36.185699462890625 -17.11968231201172 1.517219438686478
v 38.208499908447266 -15.229582786560059 3.383179321422684
v 38.46879959106445 -14.740272521972656 2.4229394341851354
v 37.767601013183594 -14.875502586364746 2.101229324474442
v 37.4005012512207 -15.377202987670898 2.9904893781090855
v 38.208499908447266 -15.229582786560059 3.383179321422684
v 37.767601013183594 -14.875502586364746 2.101229324474442
v 38.46879959106445 -14.740272521972656 2.4229394341851354
v 37.96269989013672 -15.1367826461792 1.3690893794442298
v 37.767601013183594 -14.875502586364746 2.101229324474442
v 37.96269989013672 -15.1367826461792 1.3690893794442298
v 37.542999267578125 -15.380043029785156 1.44384945882808
v 37.767601013183594 -14.875502586364746 2.101229324474442
v 36.50600051879883 -15.818212509155273 2.1500393296624303
v 37.077999114990234 -15.344202041625977 1.6370993997002723
v 36.881900787353516 -15.85083293914795 1.1084593678856969
v 36.3489990234375 -16.12021255493164 1.265389456882584
v 36.50600051879883 -15.818212509155273 2.1500393296624303
v 36.881900787353516 -15.85083293914795 1.1084593678856969
v 37.077999114990234 -15.344202041625977 1.6370993997002723
v 37.402400970458984 -15.648733139038086 1.0393494511986854
v 36.881900787353516 -15.85083293914795 1.1084593678856969
v 38.41939926147461 -16.574953079223633 4.2644995595360875
v 39.49300003051758 -16.584802627563477 4.351669206752884
v 39.43470001220703 -15.437952041625977 3.589329376354325
v 38.208499908447266 -15.229582786560059 3.383179321422684
v 38.41939926147461 -16.574953079223633 4.2644995595360875
v 39.43470001220703 -15.437952041625977 3.589329376354325
v 38.517799377441406 -18.519472122192383 4.6887196446801305
v 39.53950119018555 -18.519472122192383 4.845389261379349
v 39.49300003051758 -16.584802627563477 4.351669206752884
v 38.41939926147461 -16.574953079223633 4.2644995595360875
v 38.517799377441406 -18.519472122192383 4.6887196446801305
v 39.49300003051758 -16.584802627563477 4.351669206752884
v 36.47019958496094 -18.631052017211914 2.6283694650078884
v 36.930599212646484 -20.04964256286621 2.535719528331863
v 37.57780075073242 -20.04964256286621 3.8716093446160427
v 37.33359909057617 -18.519472122192383 4.060739412441361
v 36.47019958496094 -18.631052017211914 2.6283694650078884
v 37.57780075073242 -20.04964256286621 3.8716093446160427
v 38.517799377441406 -18.519472122192383 4.6887196446801305
v 38.82609939575195 -20.04964256286621 4.6960696126366726
v 39.747398376464844 -20.04964256286621 4.916719331874954
v 39.53950119018555 -18.519472122192383 4.845389261379349
v 38.517799377441406 -18.519472122192383 4.6887196446801305
v 39.747398376464844 -20.04964256286621 4.916719331874954
v 37.767601013183594 -14.875502586364746 2.101229324474442
v 37.077999114990234 -15.344202041625977 1.6370993997002723
v 36.50600051879883 -15.818212509155273 2.1500393296624303
v 37.4005012512207 -15.377202987670898 2.9904893781090855
v 37.767601013183594 -14.875502586364746 2.101229324474442
v 36.50600051879883 -15.818212509155273 2.1500393296624303
v 37.19710159301758 -16.565101623535156 3.5344494725609894
v 36.24509811401367 -16.881183624267578 2.533079519405472
v 36.47019958496094 -18.631052017211914 2.6283694650078884
v 37.33359909057617 -18.519472122192383 4.060739412441361
v 37.19710159301758 -16.565101623535156 3.5344494725609894
v 36.47019958496094 -18.631052017211914 2.6283694650078884
v 37.767601013183594 -14.875502586364746 2.101229324474442
v 37.542999267578125 -15.380043029785156 1.44384945882808
v 37.077999114990234 -15.344202041625977 1.6370993997002723
v 39.245601654052734 -14.951522827148438 1.2184294606591346
v 37.96269989013672 -15.1367826461792 1.3690893794442298
v 38.46879959106445 -14.740272521972656 2.4229394341851354
v 39.60300064086914 -14.854142189025879 2.7263194466973424
v 39.625 -14.897032737731934 2.232349529399979
v 38.46879959106445 -14.740272521972656 2.4229394341851354
v 39.60300064086914 -14.854142189025879 2.7263194466973424
v 38.46879959106445 -14.740272521972656 2.4229394341851354
v 38.208499908447266 -15.229582786560059 3.383179321422684
v 39.43470001220703 -15.437952041625977 3.589329376354325
v 39.60300064086914 -14.854142189025879 2.7263194466973424
v 38.208499908447266 -15.229582786560059 3.383179321422684
v 37.077999114990234 -15.344202041625977 1.6370993997002723
v 37.542999267578125 -15.380043029785156 1.44384945882808
v 37.402400970458984 -15.648733139038086 1.0393494511986854
v 37.542999267578125 -15.380043029785156 1.44384945882808
v 37.69430160522461 -15.89188289642334 1.0886894608880162
v 37.402400970458984 -15.648733139038086 1.0393494511986854
v 38.46879959106445 -14.740272521972656 2.4229394341851354
v 39.844200134277344 -14.992912292480469 1.7681194688225867
v 39.245601654052734 -14.951522827148438 1.2184294606591346
v 39.90639877319336 -15.252283096313477 1.0230693961526038
v 39.465301513671875 -15.274872779846191 0.8151644016648413
v 39.245601654052734 -14.951522827148438 1.2184294606591346
v 39.844200134277344 -14.992912292480469 1.7681194688225867
v 39.90639877319336 -15.252283096313477 1.0230693961526038
v 39.245601654052734 -14.951522827148438 1.2184294606591346
v 39.245601654052734 -14.951522827148438 1.2184294606591346
v 39.465301513671875 -15.274872779846191 0.8151644016648413
v 37.96269989013672 -15.1367826461792 1.3690893794442298
v 38.16419982910156 -15.425092697143555 0.9829543973351599
v 37.69430160522461 -15.89188289642334 1.0886894608880162
v 37.542999267578125 -15.380043029785156 1.44384945882808
v 37.96269989013672 -15.1367826461792 1.3690893794442298
v 38.16419982910156 -15.425092697143555 0.9829543973351599
v 37.542999267578125 -15.380043029785156 1.44384945882808
v 38.46879959106445 -14.740272521972656 2.4229394341851354
v 39.625 -14.897032737731934 2.232349529399979
v 39.844200134277344 -14.992912292480469 1.7681194688225867
v 37.96269989013672 -15.1367826461792 1.3690893794442298
v 39.465301513671875 -15.274872779846191 0.8151644016648413
v 38.16419982910156 -15.425092697143555 0.9829543973351599
vt 0 0
vt 0 0
vt 0 0
vt 0 0
vt 0 0
vt 0 0
vt 0 0
vt 0 0
vt 0 0
vt 0 0
vt 0 0
vt 0 0
vt 0 0
vt 0 0
vt 0 0
vt 0 0
vt 0 0
vt 0 0
vt 0 0
vt 0 0
vt 0 0
vt 0 0
vt 0 0
vt 0 0
vt 0 0
vt 0 0
vt 0 0
vt 0 0
vt 0 0
vt 0 0
vt 0 0
vt 0 0
vt 0 0
vt 0 0
vt 0 0
vt 0 0
vt 0 0
vt 0 0
vt 0 0
vt 0 0
vt 0 0
vt 0 0
vt 0 0
vt 0 0
vt 0 0
vt 0 0
vt 0 0
vt 0 0
vt 0 0
vt 0 0
vt 0 0
vt 0 0
vt 0 0
vt 0 0
vt 0 0
vt 0 0
vt 0 0
vt 0 0
vt 0 0
vt 0 0
vt 0 0
vt 0 0
vt 0 0
vt 0 0
vt 0 0
vt 0 0
vt 0 0
vt 0 0
vt 0 0
vt 0 0
vt 0 0
vt 0 0
vt 0 0
vt 0 0
vt 0 0
vt 0 0
vt 0 0
vt 0 0
vt 0 0
vt 0 0
vt 0 0
vt 0 0
vt 0 0
vt 0 0
vt 0 0
vt 0 0
vt 0 0
vt 0 0
vt 0 0
vt 0 0
vt 0 0
vt 0 0
vt 0 0
vt 0 0
vt 0 0
vt 0 0
vt 0 0
vt 0 0
vt 0 0
vt 0 0
vt 0 0
vt 0 0
vt 0 0
vt 0 0
vt 0 0
vt 0 0
vt 0 0
vt 0 0
vt 0 0
vt 0 0
vt 0 0
vt 0 0
vt 0 0
vt 0 0
vt 0 0
vt 0 0
vt 0 0
vt 0 0
vt 0 0
vt 0 0
vt 0 0
vt 0 0
vt 0 0
vt 0 0
vt 0 0
vt 0 0
vt 0 0
vt 0 0
vt 0 0
vt 0 0
vt 0 0
vt 0 0
vt 0 0
vt 0 0
vt 0 0
vt 0 0
vt 0 0
vt 0 0
vt 0 0
vt 0 0
vt 0 0
vt 0 0
vt 0 0
vt 0 0
vt 0 0
vt 0 0
vt 0 0
vt 0 0
vt 0 0
vt 0 0
vn -0.32649993603687527 0.34167271407595484 0.8812817643772549
vn -0.18191643063436802 0.748996138744922 0.6371116043602164
vn -0.555806103049928 0.5794847635569244 0.5960511593964299
vn -0.6979814378780105 0.20643122833681582 0.6857171868526399
vn -0.32649993603687527 0.34167271407595484 0.8812817643772549
vn -0.555806103049928 0.5794847635569244 0.5960511593964299
vn -0.32649993603687527 0.34167271407595484 0.8812817643772549
vn -0.6979814378780105 0.20643122833681582 0.6857171868526399
vn -0.6533693791881194 0.007110538375084796 0.7570058748671294
vn -0.2766243779074225 0.10101720557992833 0.9556539529160929
vn -0.32649993603687527 0.34167271407595484 0.8812817643772549
vn -0.6533693791881194 0.007110538375084796 0.7570058748671294
vn -0.4432627231964595 -0.11835676304267163 0.8885436595162445
vn -0.2766243779074225 0.10101720557992833 0.9556539529160929
vn -0.6533693791881194 0.007110538375084796 0.7570058748671294
vn -0.8069195293774142 -0.2923937655616667 0.5132121968250573
vn -0.4432627231964595 -0.11835676304267163 0.8885436595162445
vn -0.6533693791881194 0.007110538375084796 0.7570058748671294
vn -0.9158653827716134 0.09822866652494146 0.38928361089742525
vn -0.7660063929674858 0.5791909114282746 0.27887648529739156
vn -0.9283350952547521 0.37172412065989774 -0.003889606403716629
vn -0.9958106351475284 -0.06582267236091494 0.06347089671923423
vn -0.9158653827716134 0.09822866652494146 0.38928361089742525
vn -0.9283350952547521 0.37172412065989774 -0.003889606403716629
vn -0.7660063929674858 0.5791909114282746 0.27887648529739156
vn -0.9158653827716134 0.09822866652494146 0.38928361089742525
vn -0.6979814378780105 0.20643122833681582 0.6857171868526399
vn -0.555806103049928 0.5794847635569244 0.5960511593964299
vn -0.7660063929674858 0.5791909114282746 0.27887648529739156
vn -0.6979814378780105 0.20643122833681582 0.6857171868526399
vn -0.8069195293774142 -0.2923937655616667 0.5132121968250573
vn -0.899051560176263 -0.34309418215869397 0.27201594496184267
vn -0.8485004150624674 -0.36974772134562217 0.378594331968323
vn -0.8661490660031729 -0.34096294567662994 0.36541765849141267
vn -0.8069195293774142 -0.2923937655616667 0.5132121968250573
vn -0.8485004150624674 -0.36974772134562217 0.378594331968323
vn -0.899051560176263 -0.34309418215869397 0.27201594496184267
vn -0.9089605941895628 -0.1359531601389986 0.39409056885286736
vn -0.9656524789674329 -0.24740518892415223 0.07941008977111422
vn -0.9442846747666824 -0.318234005421628 0.08398553919626991
vn -0.899051560176263 -0.34309418215869397 0.27201594496184267
vn -0.9656524789674329 -0.24740518892415223 0.07941008977111422
vn -0.9089605941895628 -0.1359531601389986 0.39409056885286736
vn -0.9158653827716134 0.09822866652494146 0.38928361089742525
vn -0.9958106351475284 -0.06582267236091494 0.06347089671923423
vn -0.9656524789674329 -0.24740518892415223 0.07941008977111422
vn -0.9089605941895628 -0.1359531601389986 0.39409056885286736
vn -0.9958106351475284 -0.06582267236091494 0.06347089671923423
vn -0.18191643063436802 0.748996138744922 0.6371116043602164
vn -0.04986970590041661 0.9987211855469862 0.008306983389200096
vn -0.4300268034625526 0.8847882217218643 0.17951810773857962
vn -0.555806103049928 0.5794847635569244 0.5960511593964299
vn -0.18191643063436802 0.748996138744922 0.6371116043602164
vn -0.4300268034625526 0.8847882217218643 0.17951810773857962
vn -0.04986970590041661 0.9987211855469862 0.008306983389200096
vn -0.20656320490677926 0.8632295716930459 -0.46061518530469736
vn -0.20588557729409573 0.8751464616722545 -0.43786961493669563
vn -0.20656320490677926 0.8632295716930459 -0.46061518530469736
vn -0.30022980838530045 0.7134480852767434 -0.6331302328683053
vn -0.20588557729409573 0.8751464616722545 -0.43786961493669563
vn -0.7660063929674858 0.5791909114282746 0.27887648529739156
vn -0.6332405064131368 0.7460135050175497 -0.20608326319491432
vn -0.5837816123395854 0.7392141975269721 -0.33579964155542036
vn -0.9283350952547521 0.37172412065989774 -0.003889606403716629
vn -0.7660063929674858 0.5791909114282746 0.27887648529739156
vn -0.5837816123395854 0.7392141975269721 -0.33579964155542036
vn -0.2363446157087781 0.7962108686191379 -0.5569465641497645
vn -0.08730514240170559 0.7936289131608552 -0.6021054395247876
vn -0.5837816123395854 0.7392141975269721 -0.33579964155542036
vn -0.32649993603687527 0.34167271407595484 0.8812817643772549
vn -0.10004817837882674 0.31347087475122015 0.9443126456242039
vn -0.027293002338570235 0.6340802499755238 0.772785435042822
vn -0.18191643063436802 0.748996138744922 0.6371116043602164
vn -0.32649993603687527 0.34167271407595484 0.8812817643772549
vn -0.027293002338570235 0.6340802499755238 0.772785435042822
vn -0.2766243779074225 0.10101720557992833 0.9556539529160929
vn -0.14989175338554048 0.14840648010032897 0.977500884363405
vn -0.10004817837882674 0.31347087475122015 0.9443126456242039
vn -0.32649993603687527 0.34167271407595484 0.8812817643772549
vn -0.2766243779074225 0.10101720557992833 0.9556539529160929
vn -0.10004817837882674 0.31347087475122015 0.9443126456242039
vn -0.9089605941895628 -0.1359531601389986 0.39409056885286736
vn -0.899051560176263 -0.34309418215869397 0.27201594496184267
vn -0.8069195293774142 -0.2923937655616667 0.5132121968250573
vn -0.6533693791881194 0.007110538375084796 0.7570058748671294
vn -0.9089605941895628 -0.1359531601389986 0.39409056885286736
vn -0.8069195293774142 -0.2923937655616667 0.5132121968250573
vn -0.2766243779074225 0.10101720557992833 0.9556539529160929
vn -0.4432627231964595 -0.11835676304267163 0.8885436595162445
vn -0.19062832796136264 -0.006916385824300285 0.9816379190851301
vn -0.14989175338554048 0.14840648010032897 0.977500884363405
vn -0.2766243779074225 0.10101720557992833 0.9556539529160929
vn -0.19062832796136264 -0.006916385824300285 0.9816379190851301
vn -0.4300268034625526 0.8847882217218643 0.17951810773857962
vn -0.6332405064131368 0.7460135050175497 -0.20608326319491432
vn -0.7660063929674858 0.5791909114282746 0.27887648529739156
vn -0.555806103049928 0.5794847635569244 0.5960511593964299
vn -0.4300268034625526 0.8847882217218643 0.17951810773857962
vn -0.7660063929674858 0.5791909114282746 0.27887648529739156
vn -0.6979814378780105 0.20643122833681582 0.6857171868526399
vn -0.9158653827716134 0.09822866652494146 0.38928361089742525
vn -0.9089605941895628 -0.1359531601389986 0.39409056885286736
vn -0.6533693791881194 0.007110538375084796 0.7570058748671294
vn -0.6979814378780105 0.20643122833681582 0.6857171868526399
vn -0.9089605941895628 -0.1359531601389986 0.39409056885286736
vn -0.20588557729409573 0.8751464616722545 -0.43786961493669563
vn -0.30022980838530045 0.7134480852767434 -0.6331302328683053
vn -0.2363446157087781 0.7962108686191379 -0.5569465641497645
vn 0.004810795870339562 0.9478924380007014 -0.3185542061002815
vn -0.20656320490677926 0.8632295716930459 -0.46061518530469736
vn -0.04986970590041661 0.9987211855469862 0.008306983389200096
vn 0.028825673143867647 0.9095042021126336 0.41469408834376337
vn 0.11500748369748094 0.9868058071633383 -0.11396305384766775
vn -0.04986970590041661 0.9987211855469862 0.008306983389200096
vn 0.028825673143867647 0.9095042021126336 0.41469408834376337
vn -0.04986970590041661 0.9987211855469862 0.008306983389200096
vn -0.18191643063436802 0.748996138744922 0.6371116043602164
vn -0.027293002338570235 0.6340802499755238 0.772785435042822
vn 0.028825673143867647 0.9095042021126336 0.41469408834376337
vn -0.18191643063436802 0.748996138744922 0.6371116043602164
vn -0.2363446157087781 0.7962108686191379 -0.5569465641497645
vn -0.30022980838530045 0.7134480852767434 -0.6331302328683053
vn -0.08730514240170559 0.7936289131608552 -0.6021054395247876
vn -0.30022980838530045 0.7134480852767434 -0.6331302328683053
vn -0.21239895084905253 0.5139228215971364 -0.8311257540949262
vn -0.08730514240170559 0.7936289131608552 -0.6021054395247876
vn -0.04986970590041661 0.9987211855469862 0.008306983389200096
vn 0.18039357400535613 0.9723733522513814 -0.14814932429472957
vn 0.004810795870339562 0.9478924380007014 -0.3185542061002815
vn 0.2896333388435631 0.8803464331126576 -0.37563637568285474
vn -0.11012768804972278 0.7545846827010975 -0.646895547177214
vn 0.004810795870339562 0.9478924380007014 -0.3185542061002815
vn 0.18039357400535613 0.9723733522513814 -0.14814932429472957
vn 0.2896333388435631 0.8803464331126576 -0.37563637568285474
vn 0.004810795870339562 0.9478924380007014 -0.3185542061002815
vn 0.004810795870339562 0.9478924380007014 -0.3185542061002815
vn -0.11012768804972278 0.7545846827010975 -0.646895547177214
vn -0.20656320490677926 0.8632295716930459 -0.46061518530469736
vn -0.35272617307155296 0.6119855326359843 -0.7078544728081807
vn -0.21239895084905253 0.5139228215971364 -0.8311257540949262
vn -0.30022980838530045 0.7134480852767434 -0.6331302328683053
vn -0.20656320490677926 0.8632295716930459 -0.46061518530469736
vn -0.35272617307155296 0.6119855326359843 -0.7078544728081807
vn -0.30022980838530045 0.7134480852767434 -0.6331302328683053
vn -0.04986970590041661 0.9987211855469862 0.008306983389200096
vn 0.11500748369748094 0.9868058071633383 -0.11396305384766775
vn 0.18039357400535613 0.9723733522513814 -0.14814932429472957
vn -0.20656320490677926 0.8632295716930459 -0.46061518530469736
vn -0.11012768804972278 0.7545846827010975 -0.646895547177214
vn -0.35272617307155296 0.6119855326359843 -0.7078544728081807
f 1/1/1 2/2/2 3/3/3
f 4/4/4 5/5/5 6/6/6
f 7/7/7 8/8/8 9/9/9
f 10/10/10 11/11/11 12/12/12
f 13/13/13 14/14/14 15/15/15
f 16/16/16 17/17/17 18/18/18
f 19/19/19 20/20/20 21/21/21
f 22/22/22 23/23/23 24/24/24
f 25/25/25 26/26/26 27/27/27
f 28/28/28 29/29/29 30/30/30
f 31/31/31 32/32/32 33/33/33
f 34/34/34 35/35/35 36/36/36
f 37/37/37 38/38/38 39/39/39
f 40/40/40 41/41/41 42/42/42
f 43/43/43 44/44/44 45/45/45
f 46/46/46 47/47/47 48/48/48
f 49/49/49 50/50/50 51/51/51
f 52/52/52 53/53/53 54/54/54
f 55/55/55 56/56/56 57/57/57
f 58/58/58 59/59/59 60/60/60
f 61/61/61 62/62/62 63/63/63
f 64/64/64 65/65/65 66/66/66
f 67/67/67 68/68/68 69/69/69
f 70/70/70 71/71/71 72/72/72
f 73/73/73 74/74/74 75/75/75
f 76/76/76 77/77/77 78/78/78
f 79/79/79 80/80/80 81/81/81
f 82/82/82 83/83/83 84/84/84
f 85/85/85 86/86/86 87/87/87
f 88/88/88 89/89/89 90/90/90
f 91/91/91 92/92/92 93/93/93
f 94/94/94 95/95/95 96/96/96
f 97/97/97 98/98/98 99/99/99
f 100/100/100 101/101/101 102/102/102
f 103/103/103 104/104/104 105/105/105
f 106/106/106 107/107/107 108/108/108
f 109/109/109 110/110/110 111/111/111
f 112/112/112 113/113/113 114/114/114
f 115/115/115 116/116/116 117/117/117
f 118/118/118 119/119/119 120/120/120
f 121/121/121 122/122/122 123/123/123
f 124/124/124 125/125/125 126/126/126
f 127/127/127 128/128/128 129/129/129
f 130/130/130 131/131/131 132/132/132
f 133/133/133 134/134/134 135/135/135
f 136/136/136 137/137/137 138/138/138
f 139/139/139 140/140/140 141/141/141
f 142/142/142 143/143/143 144/144/144
f 145/145/145 146/146/146 147/147/147
f 148/148/148 149/149/149 150/150/150
