mtllib ArcadaCompleta.mtl
o D36C_CL
usemtl Esmalte
v 42.83039855957031 -19.809513092041016 -4.787990674838913
v 42.788299560546875 -21.87204360961914 -4.310100660190476
v 41.56650161743164 -21.90868377685547 -4.483160600528611
v 41.56650161743164 -20.04964256286621 -4.699130639896286
v 42.83039855957031 -19.809513092041016 -4.787990674838913
v 41.56650161743164 -21.90868377685547 -4.483160600528611
v 38.82609939575195 -20.04964256286621 -4.530510530338181
v 40.3025016784668 -19.809513092041016 -4.787990674838913
v 40.344600677490234 -21.87204360961914 -4.310100660190476
v 39.088199615478516 -21.70587158203125 -4.22707043634404
v 38.82609939575195 -20.04964256286621 -4.530510530338181
v 40.344600677490234 -21.87204360961914 -4.310100660190476
v 40.344600677490234 -21.87204360961914 -4.310100660190476
v 40.3025016784668 -19.809513092041016 -4.787990674838913
v 41.56650161743164 -20.04964256286621 -4.699130639896286
v 41.56650161743164 -21.90868377685547 -4.483160600528611
v 40.344600677490234 -21.87204360961914 -4.310100660190476
v 41.56650161743164 -20.04964256286621 -4.699130639896286
v 42.83039855957031 -19.809513092041016 -4.787990674838913
v 44.306800842285156 -20.04964256286621 -4.530510530338181
v 44.044700622558594 -21.70587158203125 -4.22707043634404
v 42.788299560546875 -21.87204360961914 -4.310100660190476
v 42.83039855957031 -19.809513092041016 -4.787990674838913
v 44.044700622558594 -21.70587158203125 -4.22707043634404
vt 0.5994979739189148 0.2767939567565918
vt 0.5957639813423157 0.005321621894836426
vt 0.48748499155044556 0.0004995465278625488
vt 0.48748499155044556 0.24518799781799316
vt 0.5994979739189148 0.2767939567565918
vt 0.48748499155044556 0.0004995465278625488
vt 0.24463100731372833 0.24518799781799316
vt 0.3754729926586151 0.2767939567565918
vt 0.37920698523521423 0.005321621894836426
vt 0.26785698533058167 0.02719259262084961
vt 0.24463100731372833 0.24518799781799316
vt 0.37920698523521423 0.005321621894836426
vt 0.37920698523521423 0.005321621894836426
vt 0.3754729926586151 0.2767939567565918
vt 0.48748499155044556 0.24518799781799316
vt 0.48748499155044556 0.0004995465278625488
vt 0.37920698523521423 0.005321621894836426
vt 0.48748499155044556 0.24518799781799316
vt 0.5994979739189148 0.2767939567565918
vt 0.730338990688324 0.24518799781799316
vt 0.7071139812469482 0.02719259262084961
vt 0.5957639813423157 0.005321621894836426
vt 0.5994979739189148 0.2767939567565918
vt 0.7071139812469482 0.02719259262084961
vn 0.08489749531051374 -0.19459727292879386 -0.9772022905512848
vn 0.11843688377616575 -0.22642599689823203 -0.966800895991534
vn -0.009479233303434234 -0.1560520420192232 -0.9877033483377535
vn -0.05117731528074214 -0.15542016882973153 -0.9865218971323412
vn 0.08489749531051374 -0.19459727292879386 -0.9772022905512848
vn -0.009479233303434234 -0.1560520420192232 -0.9877033483377535
vn -0.1151154384690616 -0.21325848566861938 -0.9701903185027168
vn -0.059819259439393486 -0.22647548062784525 -0.9721782310227426
vn -0.08489409606715195 -0.19459646418907325 -0.9772027469149133
vn -0.09012639988717384 -0.1932600825825958 -0.976999371813281
vn -0.1151154384690616 -0.21325848566861938 -0.9701903185027168
vn -0.08489409606715195 -0.19459646418907325 -0.9772027469149133
vn -0.08489409606715195 -0.19459646418907325 -0.9772027469149133
vn -0.059819259439393486 -0.22647548062784525 -0.9721782310227426
vn -0.05117731528074214 -0.15542016882973153 -0.9865218971323412
vn -0.009479233303434234 -0.1560520420192232 -0.9877033483377535
vn -0.08489409606715195 -0.19459646418907325 -0.9772027469149133
vn -0.05117731528074214 -0.15542016882973153 -0.9865218971323412
vn 0.08489749531051374 -0.19459727292879386 -0.9772022905512848
vn 0.13678621132741353 -0.19942031668153917 -0.9703200862011085
vn 0.11511543148302716 -0.21325847162805886 -0.9701903224178959
vn 0.11843688377616575 -0.22642599689823203 -0.966800895991534
vn 0.08489749531051374 -0.19459727292879386 -0.9772022905512848
vn 0.11511543148302716 -0.21325847162805886 -0.9701903224178959
f 1/1/1 2/2/2 3/3/3
f 4/4/4 5/5/5 6/6/6
f 7/7/7 8/8/8 9/9/9
f 10/10/10 11/11/11 12/12/12
f 13/13/13 14/14/14 15/15/15
f 16/16/16 17/17/17 18/18/18
f 19/19/19 20/20/20 21/21/21
f 22/22/22 23/23/23 24/24/24
