mtllib ArcadaCompleta.mtl
o D37C_CL
usemtl Esmalte
v 54.52909851074219 -19.767662048339844 -4.632170781955613
v 54.40700149536133 -21.327802658081055 -4.310100660190476
v 53.32059860229492 -21.36443328857422 -4.424720392093552
v 53.32059860229492 -19.767662048339844 -4.621220693454636
v 54.52909851074219 -19.767662048339844 -4.632170781955613
v 53.32059860229492 -21.36443328857422 -4.424720392093552
v 52.23419952392578 -21.327802658081055 -4.310100660190476
v 52.112098693847656 -19.767662048339844 -4.632170781955613
v 53.32059860229492 -19.767662048339844 -4.621220693454636
v 53.32059860229492 -21.36443328857422 -4.424720392093552
v 52.23419952392578 -21.327802658081055 -4.310100660190476
v 53.32059860229492 -19.767662048339844 -4.621220693454636
vt 0.614890992641449 0.2252979874610901
vt 0.6032869815826416 0.005657196044921875
vt 0.5 0.0004994869232177734
vt 0.5 0.2252979874610901
vt 0.614890992641449 0.2252979874610901
vt 0.5 0.0004994869232177734
vt 0.396712988615036 0.005657196044921875
vt 0.385109007358551 0.2252979874610901
vt 0.5 0.2252979874610901
vt 0.5 0.0004994869232177734
vt 0.396712988615036 0.005657196044921875
vt 0.5 0.2252979874610901
vn 0.047126435886621215 -0.16368717548453426 -0.9853860195996894
vn 0.10957305104150245 -0.20917381290497541 -0.9717201564649416
vn -0.003153965167010471 -0.1504349735768904 -0.988614875079596
vn -0.03394161907137284 -0.1493614016783462 -0.988199948483855
vn 0.047126435886621215 -0.16368717548453426 -0.9853860195996894
vn -0.003153965167010471 -0.1504349735768904 -0.988614875079596
vn -0.047126513369230946 -0.1636872473905894 -0.9853860039493922
vn 0.008874676087371552 -0.20149942998799494 -0.9794484263292565
vn -0.03394161907137284 -0.1493614016783462 -0.988199948483855
vn -0.003153965167010471 -0.1504349735768904 -0.988614875079596
vn -0.047126513369230946 -0.1636872473905894 -0.9853860039493922
vn -0.03394161907137284 -0.1493614016783462 -0.988199948483855
f 1/1/1 2/2/2 3/3/3
f 4/4/4 5/5/5 6/6/6
f 7/7/7 8/8/8 9/9/9
f 10/10/10 11/11/11 12/12/12
