mtllib ArcadaCompleta.mtl
o D38C_V
usemtl V1
v 65.18060302734375 -19.74038314819336 4.745919599666702
v 64.0291976928711 -19.74038314819336 4.42455948843013
v 64.02960205078125 -21.052072525024414 4.480409517421829
v 65.03980255126953 -21.141862869262695 4.403129472866165
v 65.18060302734375 -19.74038314819336 4.745919599666702
v 64.02960205078125 -21.052072525024414 4.480409517421829
v 66.52549743652344 -19.74038314819336 4.4289492513085476
v 65.18060302734375 -19.74038314819336 4.745919599666702
v 65.03980255126953 -21.141862869262695 4.403129472866165
v 66.07869720458984 -21.2481632232666 4.318329229488479
v 66.52549743652344 -19.74038314819336 4.4289492513085476
v 65.03980255126953 -21.141862869262695 4.403129472866165
v 64.0291976928711 -19.74038314819336 4.42455948843013
v 62.877899169921875 -19.74038314819336 4.745919599666702
v 63.01940155029297 -21.015512466430664 4.403129472866165
v 64.02960205078125 -21.052072525024414 4.480409517421829
v 64.0291976928711 -19.74038314819336 4.42455948843013
v 63.01940155029297 -21.015512466430664 4.403129472866165
v 62.877899169921875 -19.74038314819336 4.745919599666702
v 61.53300094604492 -19.74038314819336 4.617299451961624
v 61.980499267578125 -20.839962005615234 4.318329229488479
v 63.01940155029297 -21.015512466430664 4.403129472866165
v 62.877899169921875 -19.74038314819336 4.745919599666702
v 61.980499267578125 -20.839962005615234 4.318329229488479
vt 0.38915500044822693 0.2252979874610901
vt 0.5052549839019775 0.2252979874610901
vt 0.5052170157432556 0.04026001691818237
vt 0.40334901213645935 0.02759408950805664
vt 0.38915500044822693 0.2252979874610901
vt 0.5052170157432556 0.04026001691818237
vt 0.2535400092601776 0.2252979874610901
vt 0.38915500044822693 0.2252979874610901
vt 0.40334901213645935 0.02759408950805664
vt 0.2985909879207611 0.012598097324371338
vt 0.2535400092601776 0.2252979874610901
vt 0.40334901213645935 0.02759408950805664
vt 0.5052549839019775 0.2252979874610901
vt 0.6213549971580505 0.2252979874610901
vt 0.6070860028266907 0.045417726039886475
vt 0.5052170157432556 0.04026001691818237
vt 0.5052549839019775 0.2252979874610901
vt 0.6070860028266907 0.045417726039886475
vt 0.6213549971580505 0.2252979874610901
vt 0.7569699883460999 0.2252979874610901
vt 0.7118440270423889 0.07018208503723145
vt 0.6070860028266907 0.045417726039886475
vt 0.6213549971580505 0.2252979874610901
vt 0.7118440270423889 0.07018208503723145
vn 0.02049592609686162 -0.16331253257036618 0.9863614620000547
vn -0.02576598982536735 -0.05303214281907274 0.9982603395889953
vn -0.10326002434022027 -0.05511028238883437 0.9931264895008491
vn 0.1257840005871523 -0.2002794448552163 0.9716308605457
vn 0.02049592609686162 -0.16331253257036618 0.9863614620000547
vn -0.10326002434022027 -0.05511028238883437 0.9931264895008491
vn 0.15547377374218524 -0.18270144196796953 0.9707976559413338
vn 0.02049592609686162 -0.16331253257036618 0.9863614620000547
vn 0.1257840005871523 -0.2002794448552163 0.9716308605457
vn 0.07143412515507368 -0.09402096251884132 0.9930041411647588
vn 0.15547377374218524 -0.18270144196796953 0.9707976559413338
vn 0.1257840005871523 -0.2002794448552163 0.9716308605457
vn -0.02576598982536735 -0.05303214281907274 0.9982603395889953
vn 0.02269509387234115 -0.2670038882679527 0.9634281791415072
vn 0.03426381130373631 -0.15931635768738894 0.9866328037361041
vn -0.10326002434022027 -0.05511028238883437 0.9931264895008491
vn -0.02576598982536735 -0.05303214281907274 0.9982603395889953
vn 0.03426381130373631 -0.15931635768738894 0.9866328037361041
vn 0.02269509387234115 -0.2670038882679527 0.9634281791415072
vn -0.09094745087253456 -0.29557977226660176 0.9509790530850886
vn -0.10622370032519378 -0.28388163873752215 0.9529573656134477
vn 0.03426381130373631 -0.15931635768738894 0.9866328037361041
vn 0.02269509387234115 -0.2670038882679527 0.9634281791415072
vn -0.10622370032519378 -0.28388163873752215 0.9529573656134477
f 1/1/1 2/2/2 3/3/3
f 4/4/4 5/5/5 6/6/6
f 7/7/7 8/8/8 9/9/9
f 10/10/10 11/11/11 12/12/12
f 13/13/13 14/14/14 15/15/15
f 16/16/16 17/17/17 18/18/18
f 19/19/19 20/20/20 21/21/21
f 22/22/22 23/23/23 24/24/24
