mtllib ArcadaCompleta.mtl
o D42C_F
usemtl F
v -9.089670181274414 -16.79424285888672 1.484389438762772
v -9.089790344238281 -18.815113067626953 2.3466493035699
v -7.960519790649414 -18.81519317626953 2.189629449977981
v -9.089670181274414 -16.79424285888672 1.484389438762772
v -7.960519790649414 -18.81519317626953 2.189629449977981
v -7.863379955291748 -16.794322967529297 1.3971294309044957
v -9.089670181274414 -16.79424285888672 1.484389438762772
v -10.315999984741211 -16.794172286987305 1.3971294309044957
v -10.219099998474121 -18.815021514892578 2.189629449977981
v -9.089670181274414 -16.79424285888672 1.484389438762772
v -10.219099998474121 -18.815021514892578 2.189629449977981
v -9.089790344238281 -18.815113067626953 2.3466493035699
v -9.089670181274414 -16.79424285888672 1.484389438762772
v -9.089599609375 -15.758832931518555 0.9391884352112889
v -10.319499969482422 -15.758792877197266 0.861257388725388
v -9.089670181274414 -16.79424285888672 1.484389438762772
v -10.319499969482422 -15.758792877197266 0.861257388725388
v -10.315999984741211 -16.794172286987305 1.3971294309044957
v -9.089900016784668 -20.549732208251953 2.8454593564416037
v -9.089790344238281 -18.815113067626953 2.3466493035699
v -10.219099998474121 -18.815021514892578 2.189629449977981
v -9.089900016784668 -20.549732208251953 2.8454593564416037
v -10.219099998474121 -18.815021514892578 2.189629449977981
v -10.157699584960938 -20.549652099609375 2.5899394894982444
v -9.089900016784668 -20.549732208251953 2.8454593564416037
v -8.022159576416016 -20.549823760986328 2.5899394894982444
v -7.960519790649414 -18.81519317626953 2.189629449977981
v -9.089900016784668 -20.549732208251953 2.8454593564416037
v -7.960519790649414 -18.81519317626953 2.189629449977981
v -9.089790344238281 -18.815113067626953 2.3466493035699
v -7.863379955291748 -16.794322967529297 1.3971294309044957
v -7.859710216522217 -15.758862495422363 0.861257388725388
v -9.089599609375 -15.758832931518555 0.9391884352112889
v -7.863379955291748 -16.794322967529297 1.3971294309044957
v -9.089599609375 -15.758832931518555 0.9391884352112889
v -9.089670181274414 -16.79424285888672 1.484389438762772
vt 0.4999699890613556 0.737716019153595
vt 0.4999470114707947 0.5243920087814331
vt 0.7243710160255432 0.524383008480072
vt 0.4999699890613556 0.737716019153595
vt 0.7243710160255432 0.524383008480072
vt 0.743677020072937 0.7377079725265503
vt 0.4999699890613556 0.737716019153595
vt 0.2562650144100189 0.7377240061759949
vt 0.27552300691604614 0.5244010090827942
vt 0.4999699890613556 0.737716019153595
vt 0.27552300691604614 0.5244010090827942
vt 0.4999470114707947 0.5243920087814331
vt 0.4999699890613556 0.737716019153595
vt 0.4999859929084778 0.8470150232315063
vt 0.2555670142173767 0.8470190167427063
vt 0.4999699890613556 0.737716019153595
vt 0.2555670142173767 0.8470190167427063
vt 0.2562650144100189 0.7377240061759949
vt 0.49992600083351135 0.34128403663635254
vt 0.4999470114707947 0.5243920087814331
vt 0.27552300691604614 0.5244010090827942
vt 0.49992600083351135 0.34128403663635254
vt 0.27552300691604614 0.5244010090827942
vt 0.2877269983291626 0.34129297733306885
vt 0.49992600083351135 0.34128403663635254
vt 0.7121220231056213 0.3412749767303467
vt 0.7243710160255432 0.524383008480072
vt 0.49992600083351135 0.34128403663635254
vt 0.7243710160255432 0.524383008480072
vt 0.4999470114707947 0.5243920087814331
vt 0.743677020072937 0.7377079725265503
vt 0.7444049715995789 0.8470110297203064
vt 0.4999859929084778 0.8470150232315063
vt 0.743677020072937 0.7377079725265503
vt 0.4999859929084778 0.8470150232315063
vt 0.4999699890613556 0.737716019153595
vn -0.005512824253945282 0.4029305854759612 0.915213937861932
vn 0.000025897974042277204 0.34073406560692654 0.9401597182735865
vn 0.13243013584729008 0.31884952686310936 0.9385079852290228
vn -0.005512824253945282 0.4029305854759612 0.915213937861932
vn 0.13243013584729008 0.31884952686310936 0.9385079852290228
vn 0.06283894943428696 0.4142214071114274 0.9080043459833352
vn -0.005512824253945282 0.4029305854759612 0.915213937861932
vn -0.06515191485787662 0.3959714907688889 0.9159485828847685
vn -0.13237955929243905 0.3188681545385191 0.9385087918089734
vn -0.005512824253945282 0.4029305854759612 0.915213937861932
vn -0.13237955929243905 0.3188681545385191 0.9385087918089734
vn 0.000025897974042277204 0.34073406560692654 0.9401597182735865
vn -0.005512824253945282 0.4029305854759612 0.915213937861932
vn 0.020987945927525578 0.46366587773396273 0.8857615141509237
vn -0.05949479202868452 0.4618912827624144 0.8849388750809599
vn -0.005512824253945282 0.4029305854759612 0.915213937861932
vn -0.05949479202868452 0.4618912827624144 0.8849388750809599
vn -0.06515191485787662 0.3959714907688889 0.9159485828847685
vn 0.00001961405480225818 0.24785578962834187 0.968796938043778
vn 0.000025897974042277204 0.34073406560692654 0.9401597182735865
vn -0.13237955929243905 0.3188681545385191 0.9385087918089734
vn 0.00001961405480225818 0.24785578962834187 0.968796938043778
vn -0.13237955929243905 0.3188681545385191 0.9385087918089734
vn -0.22745461953368515 0.21132003054441534 0.9505831056480509
vn 0.00001961405480225818 0.24785578962834187 0.968796938043778
vn 0.22750037213105279 0.21128622647860218 0.9505796711379142
vn 0.13243013584729008 0.31884952686310936 0.9385079852290228
vn 0.00001961405480225818 0.24785578962834187 0.968796938043778
vn 0.13243013584729008 0.31884952686310936 0.9385079852290228
vn 0.000025897974042277204 0.34073406560692654 0.9401597182735865
vn 0.06283894943428696 0.4142214071114274 0.9080043459833352
vn 0.05620207461292765 0.45873491457080284 0.8867940036800661
vn 0.020987945927525578 0.46366587773396273 0.8857615141509237
vn 0.06283894943428696 0.4142214071114274 0.9080043459833352
vn 0.020987945927525578 0.46366587773396273 0.8857615141509237
vn -0.005512824253945282 0.4029305854759612 0.915213937861932
f 1/1/1 2/2/2 3/3/3
f 4/4/4 5/5/5 6/6/6
f 7/7/7 8/8/8 9/9/9
f 10/10/10 11/11/11 12/12/12
f 13/13/13 14/14/14 15/15/15
f 16/16/16 17/17/17 18/18/18
f 19/19/19 20/20/20 21/21/21
f 22/22/22 23/23/23 24/24/24
f 25/25/25 26/26/26 27/27/27
f 28/28/28 29/29/29 30/30/30
f 31/31/31 32/32/32 33/33/33
f 34/34/34 35/35/35 36/36/36
