mtllib ArcadaCompleta.mtl
o D42C_I
usemtl I
v -9.089520454406738 -14.334632873535156 -0.017654780760895848
v -9.934470176696777 -14.334632873535156 -0.017654780760895848
v -10.319499969482422 -15.758792877197266 0.861257388725388
v -9.089520454406738 -14.334632873535156 -0.017654780760895848
v -10.319499969482422 -15.758792877197266 0.861257388725388
v -9.089599609375 -15.758832931518555 0.9391884352112889
v -9.089520454406738 -14.334632873535156 -0.017654780760895848
v -9.089520454406738 -14.314302444458008 -0.49326558457363806
v -9.934470176696777 -14.314302444458008 -0.49326558457363806
v -9.089520454406738 -14.334632873535156 -0.017654780760895848
v -9.934470176696777 -14.314302444458008 -0.49326558457363806
v -9.934470176696777 -14.334632873535156 -0.017654780760895848
v -9.089550018310547 -14.73972225189209 -0.8501955722426293
v -8.244600296020508 -14.73972225189209 -0.8501955722426293
v -8.215720176696777 -15.767023086547852 -0.790408596858871
v -9.089550018310547 -14.73972225189209 -0.8501955722426293
v -8.215720176696777 -15.767023086547852 -0.790408596858871
v -9.08961009979248 -15.766983032226562 -0.7959115956877589
v -9.089550018310547 -14.73972225189209 -0.8501955722426293
v -9.089520454406738 -14.314302444458008 -0.49326558457363806
v -8.244569778442383 -14.314302444458008 -0.49326558457363806
v -9.089550018310547 -14.73972225189209 -0.8501955722426293
v -8.244569778442383 -14.314302444458008 -0.49326558457363806
v -8.244600296020508 -14.73972225189209 -0.8501955722426293
v -11.602899551391602 -14.314302444458008 -0.49326558457363806
v -10.760100364685059 -14.314302444458008 -0.49326558457363806
v -10.724100112915039 -14.73972225189209 -0.8501955722426293
v -11.602899551391602 -14.314302444458008 -0.49326558457363806
v -10.724100112915039 -14.73972225189209 -0.8501955722426293
v -11.513699531555176 -14.73972225189209 -0.8501955722426293
v -6.576109886169434 -14.314302444458008 -0.49326558457363806
v -7.418900012969971 -14.314302444458008 -0.49326558457363806
v -7.454959869384766 -14.334632873535156 -0.017654780760895848
v -6.576109886169434 -14.314302444458008 -0.49326558457363806
v -7.454959869384766 -14.334632873535156 -0.017654780760895848
v -6.665339946746826 -14.334632873535156 -0.017654780760895848
v -11.513699531555176 -14.334632873535156 -0.017654780760895848
v -10.724100112915039 -14.334632873535156 -0.017654780760895848
v -10.760100364685059 -14.314302444458008 -0.49326558457363806
v -11.513699531555176 -14.334632873535156 -0.017654780760895848
v -10.760100364685059 -14.314302444458008 -0.49326558457363806
v -11.602899551391602 -14.314302444458008 -0.49326558457363806
v -11.513699531555176 -14.334632873535156 -0.017654780760895848
v -10.319499969482422 -15.758792877197266 0.861257388725388
v -10.724100112915039 -14.334632873535156 -0.017654780760895848
v -6.665369987487793 -14.73972225189209 -0.8501955722426293
v -7.45497989654541 -14.73972225189209 -0.8501955722426293
v -7.418900012969971 -14.314302444458008 -0.49326558457363806
v -6.665369987487793 -14.73972225189209 -0.8501955722426293
v -7.418900012969971 -14.314302444458008 -0.49326558457363806
v -6.576109886169434 -14.314302444458008 -0.49326558457363806
v -6.665369987487793 -14.73972225189209 -0.8501955722426293
v -7.448770046234131 -15.76705265045166 -0.8628035639380336
v -7.45497989654541 -14.73972225189209 -0.8501955722426293
v -8.244569778442383 -14.334632873535156 -0.017654780760895848
v -8.244569778442383 -14.314302444458008 -0.49326558457363806
v -9.089520454406738 -14.314302444458008 -0.49326558457363806
v -8.244569778442383 -14.334632873535156 -0.017654780760895848
v -9.089520454406738 -14.314302444458008 -0.49326558457363806
v -9.089520454406738 -14.334632873535156 -0.017654780760895848
v -8.244569778442383 -14.334632873535156 -0.017654780760895848
v -7.454959869384766 -14.334632873535156 -0.017654780760895848
v -7.418900012969971 -14.314302444458008 -0.49326558457363806
v -8.244569778442383 -14.334632873535156 -0.017654780760895848
v -7.418900012969971 -14.314302444458008 -0.49326558457363806
v -8.244569778442383 -14.314302444458008 -0.49326558457363806
v -8.244569778442383 -14.334632873535156 -0.017654780760895848
v -7.859710216522217 -15.758862495422363 0.861257388725388
v -7.454959869384766 -14.334632873535156 -0.017654780760895848
v -9.934499740600586 -14.73972225189209 -0.8501955722426293
v -9.934470176696777 -14.314302444458008 -0.49326558457363806
v -9.089520454406738 -14.314302444458008 -0.49326558457363806
v -9.934499740600586 -14.73972225189209 -0.8501955722426293
v -9.089520454406738 -14.314302444458008 -0.49326558457363806
v -9.089550018310547 -14.73972225189209 -0.8501955722426293
v -9.934499740600586 -14.73972225189209 -0.8501955722426293
v -10.724100112915039 -14.73972225189209 -0.8501955722426293
v -10.760100364685059 -14.314302444458008 -0.49326558457363806
v -9.934499740600586 -14.73972225189209 -0.8501955722426293
v -10.760100364685059 -14.314302444458008 -0.49326558457363806
v -9.934470176696777 -14.314302444458008 -0.49326558457363806
v -9.934499740600586 -14.73972225189209 -0.8501955722426293
v -9.963509559631348 -15.766942977905273 -0.790408596858871
v -10.730500221252441 -15.766912460327148 -0.8628035639380336
v -9.934499740600586 -14.73972225189209 -0.8501955722426293
v -10.730500221252441 -15.766912460327148 -0.8628035639380336
v -10.724100112915039 -14.73972225189209 -0.8501955722426293
v -9.934470176696777 -14.314302444458008 -0.49326558457363806
v -10.760100364685059 -14.314302444458008 -0.49326558457363806
v -10.724100112915039 -14.334632873535156 -0.017654780760895848
v -9.934470176696777 -14.314302444458008 -0.49326558457363806
v -10.724100112915039 -14.334632873535156 -0.017654780760895848
v -9.934470176696777 -14.334632873535156 -0.017654780760895848
v -8.244569778442383 -14.314302444458008 -0.49326558457363806
v -7.418900012969971 -14.314302444458008 -0.49326558457363806
v -7.45497989654541 -14.73972225189209 -0.8501955722426293
v -8.244569778442383 -14.314302444458008 -0.49326558457363806
v -7.45497989654541 -14.73972225189209 -0.8501955722426293
v -8.244600296020508 -14.73972225189209 -0.8501955722426293
v -10.724100112915039 -14.73972225189209 -0.8501955722426293
v -10.730500221252441 -15.766912460327148 -0.8628035639380336
v -11.513699531555176 -14.73972225189209 -0.8501955722426293
v -10.724100112915039 -14.334632873535156 -0.017654780760895848
v -10.319499969482422 -15.758792877197266 0.861257388725388
v -9.934470176696777 -14.334632873535156 -0.017654780760895848
v -7.45497989654541 -14.73972225189209 -0.8501955722426293
v -7.448770046234131 -15.76705265045166 -0.8628035639380336
v -8.215720176696777 -15.767023086547852 -0.790408596858871
v -7.45497989654541 -14.73972225189209 -0.8501955722426293
v -8.215720176696777 -15.767023086547852 -0.790408596858871
v -8.244600296020508 -14.73972225189209 -0.8501955722426293
v -7.454959869384766 -14.334632873535156 -0.017654780760895848
v -7.859710216522217 -15.758862495422363 0.861257388725388
v -6.665339946746826 -14.334632873535156 -0.017654780760895848
v -9.089599609375 -15.758832931518555 0.9391884352112889
v -7.859710216522217 -15.758862495422363 0.861257388725388
v -8.244569778442383 -14.334632873535156 -0.017654780760895848
v -9.089599609375 -15.758832931518555 0.9391884352112889
v -8.244569778442383 -14.334632873535156 -0.017654780760895848
v -9.089520454406738 -14.334632873535156 -0.017654780760895848
v -9.08961009979248 -15.766983032226562 -0.7959115956877589
v -9.963509559631348 -15.766942977905273 -0.790408596858871
v -9.934499740600586 -14.73972225189209 -0.8501955722426293
v -9.08961009979248 -15.766983032226562 -0.7959115956877589
v -9.934499740600586 -14.73972225189209 -0.8501955722426293
v -9.089550018310547 -14.73972225189209 -0.8501955722426293
vt 0.5000010132789612 0.9973539710044861
vt 0.33208000659942627 0.9973539710044861
vt 0.2555670142173767 0.8470190167427063
vt 0.5000010132789612 0.9973539710044861
vt 0.2555670142173767 0.8470190167427063
vt 0.4999859929084778 0.8470150232315063
vt 0.5000010132789612 0.5026609897613525
vt 0.5000010132789612 0.5813770294189453
vt 0.33208000659942627 0.5813770294189453
vt 0.5000010132789612 0.5026609897613525
vt 0.33208000659942627 0.5813770294189453
vt 0.33208000659942627 0.5026609897613525
vt 0.5000039935112 0.9545930027961731
vt 0.3320850133895874 0.9545930027961731
vt 0.3263449966907501 0.8461509943008423
vt 0.5000039935112 0.9545930027961731
vt 0.3263449966907501 0.8461509943008423
vt 0.500016987323761 0.846153974533081
vt 0.5000039935112 0.9545930027961731
vt 0.4999989867210388 0.9994999766349792
vt 0.33208000659942627 0.9994999766349792
vt 0.5000039935112 0.9545930027961731
vt 0.33208000659942627 0.9994999766349792
vt 0.3320850133895874 0.9545930027961731
vt 0.9994999766349792 0.9994999766349792
vt 0.8320080041885376 0.9994999766349792
vt 0.8248479962348938 0.9545930027961731
vt 0.9994999766349792 0.9994999766349792
vt 0.8248479962348938 0.9545930027961731
vt 0.9817709922790527 0.9545930027961731
vt 0.9994999766349792 0.5813770294189453
vt 0.8320090174674988 0.5813770294189453
vt 0.8248440027236938 0.5026609897613525
vt 0.9994999766349792 0.5813770294189453
vt 0.8248440027236938 0.5026609897613525
vt 0.9817659854888916 0.5026609897613525
vt 0.01823429949581623 0.5026609897613525
vt 0.17515699565410614 0.5026609897613525
vt 0.1679919958114624 0.5813770294189453
vt 0.01823429949581623 0.5026609897613525
vt 0.1679919958114624 0.5813770294189453
vt 0.0004997850046493113 0.5813770294189453
vt 0.01823429949581623 0.9973539710044861
vt 0.2555670142173767 0.8470190167427063
vt 0.17515699565410614 0.9973539710044861
vt 0.01823900081217289 0.9545930027961731
vt 0.17516200244426727 0.9545930027961731
vt 0.16799099743366241 0.9994999766349792
vt 0.01823900081217289 0.9545930027961731
vt 0.16799099743366241 0.9994999766349792
vt 0.0004996960051357746 0.9994999766349792
vt 0.01823900081217289 0.9545930027961731
vt 0.17392699420452118 0.8461470007896423
vt 0.17516200244426727 0.9545930027961731
vt 0.6679210066795349 0.5026609897613525
vt 0.6679199934005737 0.5813770294189453
vt 0.5000010132789612 0.5813770294189453
vt 0.6679210066795349 0.5026609897613525
vt 0.5000010132789612 0.5813770294189453
vt 0.5000010132789612 0.5026609897613525
vt 0.6679210066795349 0.5026609897613525
vt 0.8248440027236938 0.5026609897613525
vt 0.8320090174674988 0.5813770294189453
vt 0.6679210066795349 0.5026609897613525
vt 0.8320090174674988 0.5813770294189453
vt 0.6679199934005737 0.5813770294189453
vt 0.6679210066795349 0.9973539710044861
vt 0.7444049715995789 0.8470110297203064
vt 0.8248440027236938 0.9973539710044861
vt 0.6679250001907349 0.9545930027961731
vt 0.6679199934005737 0.9994999766349792
vt 0.4999989867210388 0.9994999766349792
vt 0.6679250001907349 0.9545930027961731
vt 0.4999989867210388 0.9994999766349792
vt 0.5000039935112 0.9545930027961731
vt 0.6679250001907349 0.9545930027961731
vt 0.8248479962348938 0.9545930027961731
vt 0.8320080041885376 0.9994999766349792
vt 0.6679250001907349 0.9545930027961731
vt 0.8320080041885376 0.9994999766349792
vt 0.6679199934005737 0.9994999766349792
vt 0.6679250001907349 0.9545930027961731
vt 0.6736890077590942 0.8461580276489258
vt 0.8261079788208008 0.8461620211601257
vt 0.6679250001907349 0.9545930027961731
vt 0.8261079788208008 0.8461620211601257
vt 0.8248479962348938 0.9545930027961731
vt 0.33208000659942627 0.5813770294189453
vt 0.1679919958114624 0.5813770294189453
vt 0.17515699565410614 0.5026609897613525
vt 0.33208000659942627 0.5813770294189453
vt 0.17515699565410614 0.5026609897613525
vt 0.33208000659942627 0.5026609897613525
vt 0.33208000659942627 0.9994999766349792
vt 0.16799099743366241 0.9994999766349792
vt 0.17516200244426727 0.9545930027961731
vt 0.33208000659942627 0.9994999766349792
vt 0.17516200244426727 0.9545930027961731
vt 0.3320850133895874 0.9545930027961731
vt 0.8248479962348938 0.9545930027961731
vt 0.8261079788208008 0.8461620211601257
vt 0.9817709922790527 0.9545930027961731
vt 0.17515699565410614 0.9973539710044861
vt 0.2555670142173767 0.8470190167427063
vt 0.33208000659942627 0.9973539710044861
vt 0.17516200244426727 0.9545930027961731
vt 0.17392699420452118 0.8461470007896423
vt 0.3263449966907501 0.8461509943008423
vt 0.17516200244426727 0.9545930027961731
vt 0.3263449966907501 0.8461509943008423
vt 0.3320850133895874 0.9545930027961731
vt 0.8248440027236938 0.9973539710044861
vt 0.7444049715995789 0.8470110297203064
vt 0.9817659854888916 0.9973539710044861
vt 0.4999859929084778 0.8470150232315063
vt 0.7444049715995789 0.8470110297203064
vt 0.6679210066795349 0.9973539710044861
vt 0.4999859929084778 0.8470150232315063
vt 0.6679210066795349 0.9973539710044861
vt 0.5000010132789612 0.9973539710044861
vt 0.500016987323761 0.846153974533081
vt 0.6736890077590942 0.8461580276489258
vt 0.6679250001907349 0.9545930027961731
vt 0.500016987323761 0.846153974533081
vt 0.6679250001907349 0.9545930027961731
vt 0.5000039935112 0.9545930027961731
vn -0.019253451298871793 0.68259322365748 0.730544862161094
vn 0 0.6840252697309464 0.7294583129758042
vn -0.017990659549576685 0.5363042839502506 0.843832952180454
vn -0.019253451298871793 0.68259322365748 0.730544862161094
vn -0.017990659549576685 0.5363042839502506 0.843832952180454
vn 0.00001182567647248101 0.5495915919260255 0.8354334694901625
vn -0.019253451298871793 0.68259322365748 0.730544862161094
vn 0 0.8992055985643824 -0.43752633236237426
vn 0 0.9586705801555558 -0.2845183979011023
vn -0.019253451298871793 0.68259322365748 0.730544862161094
vn 0 0.9586705801555558 -0.2845183979011023
vn 0 0.6840252697309464 0.7294583129758042
vn 0.0014912687359980457 0.2008139773634571 -0.9796282573573641
vn 0 0.20039339120076616 -0.9797155141994317
vn -0.020402887262709935 -0.04036036392869186 -0.9989768581978706
vn 0.0014912687359980457 0.2008139773634571 -0.9796282573573641
vn -0.020402887262709935 -0.04036036392869186 -0.9989768581978706
vn -0.0000016302110651816715 -0.05450873888561496 -0.9985132935431769
vn 0.0014912687359980457 0.2008139773634571 -0.9796282573573641
vn 0 0.8992055985643824 -0.43752633236237426
vn 0 0.8211561938934111 -0.5707035178010438
vn 0.0014912687359980457 0.2008139773634571 -0.9796282573573641
vn 0 0.8211561938934111 -0.5707035178010438
vn 0 0.20039339120076616 -0.9797155141994317
vn 0 0.8235856458534414 -0.5671919286662759
vn 0 0.8992055053941385 -0.43752652384612295
vn 0 0.31630060494184054 -0.9486590153018236
vn 0 0.8235856458534414 -0.5671919286662759
vn 0 0.31630060494184054 -0.9486590153018236
vn 0 0.24654308073721262 -0.9691318327970679
vn 0 0.9572891383536732 -0.2891323323152948
vn 0 0.8992055399393184 -0.43752645284878355
vn 0 0.7414801928722949 0.6709747562897312
vn 0 0.9572891383536732 -0.2891323323152948
vn 0 0.7414801928722949 0.6709747562897312
vn 0 0.6840077662515218 0.7294747258867873
vn 0 0.7856927160235299 0.618616970335901
vn 0 0.7404714779724768 0.6720877846749304
vn 0 0.8992055053941385 -0.43752652384612295
vn 0 0.7856927160235299 0.618616970335901
vn 0 0.8992055053941385 -0.43752652384612295
vn 0 0.8235856458534414 -0.5671919286662759
vn 0 0.7856927160235299 0.618616970335901
vn -0.017990659549576685 0.5363042839502506 0.843832952180454
vn 0 0.7404714779724768 0.6720877846749304
vn 0 0.3662435627439258 -0.9305190233136752
vn -0.021050191207051247 0.2350171520473992 -0.9717632570197723
vn 0 0.8992055399393184 -0.43752645284878355
vn 0 0.3662435627439258 -0.9305190233136752
vn 0 0.8992055399393184 -0.43752645284878355
vn 0 0.9572891383536732 -0.2891323323152948
vn 0 0.3662435627439258 -0.9305190233136752
vn -0.046455804134445465 0.01197763619415348 -0.9988485343100937
vn -0.021050191207051247 0.2350171520473992 -0.9717632570197723
vn 0.018839311624530706 0.7102510517121431 0.703696329306405
vn 0 0.8211561938934111 -0.5707035178010438
vn 0 0.8992055985643824 -0.43752633236237426
vn 0.018839311624530706 0.7102510517121431 0.703696329306405
vn 0 0.8992055985643824 -0.43752633236237426
vn -0.019253451298871793 0.68259322365748 0.730544862161094
vn 0.018839311624530706 0.7102510517121431 0.703696329306405
vn 0 0.7414801928722949 0.6709747562897312
vn 0 0.8992055399393184 -0.43752645284878355
vn 0.018839311624530706 0.7102510517121431 0.703696329306405
vn 0 0.8992055399393184 -0.43752645284878355
vn 0 0.8211561938934111 -0.5707035178010438
vn 0.018839311624530706 0.7102510517121431 0.703696329306405
vn 0.02352846437997105 0.5296158425667137 0.8479112398513601
vn 0 0.7414801928722949 0.6709747562897312
vn 0.014068082784543115 0.2137064922815602 -0.9767966135298989
vn 0 0.9586705801555558 -0.2845183979011023
vn 0 0.8992055985643824 -0.43752633236237426
vn 0.014068082784543115 0.2137064922815602 -0.9767966135298989
vn 0 0.8992055985643824 -0.43752633236237426
vn 0.0014912687359980457 0.2008139773634571 -0.9796282573573641
vn 0.014068082784543115 0.2137064922815602 -0.9767966135298989
vn 0 0.31630060494184054 -0.9486590153018236
vn 0 0.8992055053941385 -0.43752652384612295
vn 0.014068082784543115 0.2137064922815602 -0.9767966135298989
vn 0 0.8992055053941385 -0.43752652384612295
vn 0 0.9586705801555558 -0.2845183979011023
vn 0.014068082784543115 0.2137064922815602 -0.9767966135298989
vn 0.04065784460353669 -0.05920059094450365 -0.9974177809243308
vn 0.03083947034270639 -0.011630848678309243 -0.9994566776143945
vn 0.014068082784543115 0.2137064922815602 -0.9767966135298989
vn 0.03083947034270639 -0.011630848678309243 -0.9994566776143945
vn 0 0.31630060494184054 -0.9486590153018236
vn 0 0.9586705801555558 -0.2845183979011023
vn 0 0.8992055053941385 -0.43752652384612295
vn 0 0.7404714779724768 0.6720877846749304
vn 0 0.9586705801555558 -0.2845183979011023
vn 0 0.7404714779724768 0.6720877846749304
vn 0 0.6840252697309464 0.7294583129758042
vn 0 0.8211561938934111 -0.5707035178010438
vn 0 0.8992055399393184 -0.43752645284878355
vn -0.021050191207051247 0.2350171520473992 -0.9717632570197723
vn 0 0.8211561938934111 -0.5707035178010438
vn -0.021050191207051247 0.2350171520473992 -0.9717632570197723
vn 0 0.20039339120076616 -0.9797155141994317
vn 0 0.31630060494184054 -0.9486590153018236
vn 0.03083947034270639 -0.011630848678309243 -0.9994566776143945
vn 0 0.24654308073721262 -0.9691318327970679
vn 0 0.7404714779724768 0.6720877846749304
vn -0.017990659549576685 0.5363042839502506 0.843832952180454
vn 0 0.6840252697309464 0.7294583129758042
vn -0.021050191207051247 0.2350171520473992 -0.9717632570197723
vn -0.046455804134445465 0.01197763619415348 -0.9988485343100937
vn -0.020402887262709935 -0.04036036392869186 -0.9989768581978706
vn -0.021050191207051247 0.2350171520473992 -0.9717632570197723
vn -0.020402887262709935 -0.04036036392869186 -0.9989768581978706
vn 0 0.20039339120076616 -0.9797155141994317
vn 0 0.7414801928722949 0.6709747562897312
vn 0.02352846437997105 0.5296158425667137 0.8479112398513601
vn 0 0.6840077662515218 0.7294747258867873
vn 0.00001182567647248101 0.5495915919260255 0.8354334694901625
vn 0.02352846437997105 0.5296158425667137 0.8479112398513601
vn 0.018839311624530706 0.7102510517121431 0.703696329306405
vn 0.00001182567647248101 0.5495915919260255 0.8354334694901625
vn 0.018839311624530706 0.7102510517121431 0.703696329306405
vn -0.019253451298871793 0.68259322365748 0.730544862161094
vn -0.0000016302110651816715 -0.05450873888561496 -0.9985132935431769
vn 0.04065784460353669 -0.05920059094450365 -0.9974177809243308
vn 0.014068082784543115 0.2137064922815602 -0.9767966135298989
vn -0.0000016302110651816715 -0.05450873888561496 -0.9985132935431769
vn 0.014068082784543115 0.2137064922815602 -0.9767966135298989
vn 0.0014912687359980457 0.2008139773634571 -0.9796282573573641
f 1/1/1 2/2/2 3/3/3
f 4/4/4 5/5/5 6/6/6
f 7/7/7 8/8/8 9/9/9
f 10/10/10 11/11/11 12/12/12
f 13/13/13 14/14/14 15/15/15
f 16/16/16 17/17/17 18/18/18
f 19/19/19 20/20/20 21/21/21
f 22/22/22 23/23/23 24/24/24
f 25/25/25 26/26/26 27/27/27
f 28/28/28 29/29/29 30/30/30
f 31/31/31 32/32/32 33/33/33
f 34/34/34 35/35/35 36/36/36
f 37/37/37 38/38/38 39/39/39
f 40/40/40 41/41/41 42/42/42
f 43/43/43 44/44/44 45/45/45
f 46/46/46 47/47/47 48/48/48
f 49/49/49 50/50/50 51/51/51
f 52/52/52 53/53/53 54/54/54
f 55/55/55 56/56/56 57/57/57
f 58/58/58 59/59/59 60/60/60
f 61/61/61 62/62/62 63/63/63
f 64/64/64 65/65/65 66/66/66
f 67/67/67 68/68/68 69/69/69
f 70/70/70 71/71/71 72/72/72
f 73/73/73 74/74/74 75/75/75
f 76/76/76 77/77/77 78/78/78
f 79/79/79 80/80/80 81/81/81
f 82/82/82 83/83/83 84/84/84
f 85/85/85 86/86/86 87/87/87
f 88/88/88 89/89/89 90/90/90
f 91/91/91 92/92/92 93/93/93
f 94/94/94 95/95/95 96/96/96
f 97/97/97 98/98/98 99/99/99
f 100/100/100 101/101/101 102/102/102
f 103/103/103 104/104/104 105/105/105
f 106/106/106 107/107/107 108/108/108
f 109/109/109 110/110/110 111/111/111
f 112/112/112 113/113/113 114/114/114
f 115/115/115 116/116/116 117/117/117
f 118/118/118 119/119/119 120/120/120
f 121/121/121 122/122/122 123/123/123
f 124/124/124 125/125/125 126/126/126
