mtllib ArcadaCompleta.mtl
o D44C_O
usemtl Esmalte
v -23.998899459838867 -17.389041900634766 -2.293960676059616
v -24.966299057006836 -17.82355308532715 -2.09957061754216
v -24.9822998046875 -17.456472396850586 -1.83170054899205
v -23.998899459838867 -17.389041900634766 -2.293960676059616
v -24.9822998046875 -17.456472396850586 -1.83170054899205
v -23.998899459838867 -17.255712509155273 -2.028300628528488
v -23.998899459838867 -17.389041900634766 -2.293960676059616
v -23.998899459838867 -17.255712509155273 -2.028300628528488
v -23.015499114990234 -17.44474220275879 -1.83170054899205
v -23.998899459838867 -17.389041900634766 -2.293960676059616
v -23.015499114990234 -17.44474220275879 -1.83170054899205
v -23.0314998626709 -17.800682067871094 -2.09957061754216
v -23.0314998626709 -17.800682067871094 -2.09957061754216
v -23.015499114990234 -17.44474220275879 -1.83170054899205
v -22.527799606323242 -17.16075325012207 -1.443250522479904
v -23.0314998626709 -17.800682067871094 -2.09957061754216
v -22.527799606323242 -17.16075325012207 -1.443250522479904
v -22.281400680541992 -17.670612335205078 -1.5764505718802335
v -24.966299057006836 -17.82355308532715 -2.09957061754216
v -25.718599319458008 -17.619672775268555 -1.5300205801581266
v -25.471099853515625 -17.13462257385254 -1.417910561427963
v -24.966299057006836 -17.82355308532715 -2.09957061754216
v -25.471099853515625 -17.13462257385254 -1.417910561427963
v -24.9822998046875 -17.456472396850586 -1.83170054899205
v -23.998899459838867 -15.979382514953613 -0.550297603473556
v -23.998899459838867 -16.47576332092285 -1.3888906096075893
v -24.948400497436523 -16.649852752685547 -1.2230906342123866
v -23.998899459838867 -15.979382514953613 -0.550297603473556
v -24.948400497436523 -16.649852752685547 -1.2230906342123866
v -24.763200759887695 -16.072471618652344 -0.27586658345211745
v -23.234600067138672 -16.072471618652344 -0.27586658345211745
v -22.971399307250977 -16.119102478027344 -0.17976057575691942
v -22.377399444580078 -17.046812057495117 -1.0235105608557584
v -23.234600067138672 -16.072471618652344 -0.27586658345211745
v -22.377399444580078 -17.046812057495117 -1.0235105608557584
v -23.049400329589844 -16.649852752685547 -1.2230906342123866
v -23.998899459838867 -16.47576332092285 -1.3888906096075893
v -23.998899459838867 -17.255712509155273 -2.028300628528488
v -24.9822998046875 -17.456472396850586 -1.83170054899205
v -23.998899459838867 -16.47576332092285 -1.3888906096075893
v -24.9822998046875 -17.456472396850586 -1.83170054899205
v -24.948400497436523 -16.649852752685547 -1.2230906342123866
v -24.948400497436523 -16.649852752685547 -1.2230906342123866
v -25.620399475097656 -17.13479232788086 -1.0235105608557584
v -25.026399612426758 -16.119102478027344 -0.17833858774651293
v -24.948400497436523 -16.649852752685547 -1.2230906342123866
v -25.026399612426758 -16.119102478027344 -0.17833858774651293
v -24.763200759887695 -16.072471618652344 -0.27586658345211745
v -24.948400497436523 -16.649852752685547 -1.2230906342123866
v -24.9822998046875 -17.456472396850586 -1.83170054899205
v -25.471099853515625 -17.13462257385254 -1.417910561427963
v -23.049400329589844 -16.649852752685547 -1.2230906342123866
v -23.998899459838867 -16.47576332092285 -1.3888906096075893
v -23.998899459838867 -15.979382514953613 -0.550297603473556
v -23.049400329589844 -16.649852752685547 -1.2230906342123866
v -23.998899459838867 -15.979382514953613 -0.550297603473556
v -23.234600067138672 -16.072471618652344 -0.27586658345211745
v -23.049400329589844 -16.649852752685547 -1.2230906342123866
v -22.527799606323242 -17.16075325012207 -1.443250522479904
v -23.015499114990234 -17.44474220275879 -1.83170054899205
v -25.989200592041016 -17.620012283325195 -0.8074616049384002
v -25.267799377441406 -16.13614273071289 0.028062019034731347
v -25.026399612426758 -16.119102478027344 -0.17833858774651293
v -25.989200592041016 -17.620012283325195 -0.8074616049384002
v -25.026399612426758 -16.119102478027344 -0.17833858774651293
v -25.620399475097656 -17.13479232788086 -1.0235105608557584
v -25.989200592041016 -17.620012283325195 -0.8074616049384002
v -25.620399475097656 -17.13479232788086 -1.0235105608557584
v -25.471099853515625 -17.13462257385254 -1.417910561427963
v -25.989200592041016 -17.620012283325195 -0.8074616049384002
v -25.471099853515625 -17.13462257385254 -1.417910561427963
v -25.718599319458008 -17.619672775268555 -1.5300205801581266
v -22.008699417114258 -17.688621520996094 -0.8074616049384002
v -22.377399444580078 -17.046812057495117 -1.0235105608557584
v -22.971399307250977 -16.119102478027344 -0.17976057575691942
v -22.008699417114258 -17.688621520996094 -0.8074616049384002
v -22.971399307250977 -16.119102478027344 -0.17976057575691942
v -22.6648006439209 -16.114261627197266 0.03146021766911741
v -22.281400680541992 -17.670612335205078 -1.5764505718802335
v -22.527799606323242 -17.16075325012207 -1.443250522479904
v -22.377399444580078 -17.046812057495117 -1.0235105608557584
v -22.281400680541992 -17.670612335205078 -1.5764505718802335
v -22.377399444580078 -17.046812057495117 -1.0235105608557584
v -22.008699417114258 -17.688621520996094 -0.8074616049384002
v -25.471099853515625 -17.13462257385254 -1.417910561427963
v -25.620399475097656 -17.13479232788086 -1.0235105608557584
v -24.948400497436523 -16.649852752685547 -1.2230906342123866
v -22.377399444580078 -17.046812057495117 -1.0235105608557584
v -22.527799606323242 -17.16075325012207 -1.443250522479904
v -23.049400329589844 -16.649852752685547 -1.2230906342123866
v -23.015499114990234 -17.44474220275879 -1.83170054899205
v -23.998899459838867 -17.255712509155273 -2.028300628528488
v -23.998899459838867 -16.47576332092285 -1.3888906096075893
v -23.015499114990234 -17.44474220275879 -1.83170054899205
v -23.998899459838867 -16.47576332092285 -1.3888906096075893
v -23.049400329589844 -16.649852752685547 -1.2230906342123866
v -26.02079963684082 -17.053852081298828 -0.5295625780676725
v -25.67099952697754 -16.21236228942871 0.016717018097150267
v -25.267799377441406 -16.13614273071289 0.028062019034731347
v -26.02079963684082 -17.053852081298828 -0.5295625780676725
v -25.267799377441406 -16.13614273071289 0.028062019034731347
v -25.989200592041016 -17.620012283325195 -0.8074616049384002
v -22.326799392700195 -16.21236228942871 0.13823141111384626
v -21.977100372314453 -17.231082916259766 -0.5095375631903533
v -22.008699417114258 -17.688621520996094 -0.8074616049384002
v -22.326799392700195 -16.21236228942871 0.13823141111384626
v -22.008699417114258 -17.688621520996094 -0.8074616049384002
v -22.6648006439209 -16.114261627197266 0.03146021766911741
vt 0.5 0.5908640027046204
vt 0.6384199857711792 0.5397239923477173
vt 0.6407009959220886 0.5829269886016846
vt 0.5 0.7947480082511902
vt 0.3592990040779114 0.7331330180168152
vt 0.5000010132789612 0.7593380212783813
vt 0.5 0.7947480082511902
vt 0.5000010132789612 0.7593380212783813
vt 0.6407020092010498 0.7331330180168152
vt 0.5 0.5908640027046204
vt 0.3592979907989502 0.5843080282211304
vt 0.3615790009498596 0.5424150228500366
vt 0.3615790009498596 0.5424150228500366
vt 0.3592979907989502 0.5843080282211304
vt 0.28951600193977356 0.6177319884300232
vt 0.3615790009498596 0.5424150228500366
vt 0.28951600193977356 0.6177319884300232
vt 0.254254013299942 0.5577239990234375
vt 0.6384199857711792 0.5397239923477173
vt 0.7460460066795349 0.5637199878692627
vt 0.7106419801712036 0.6208069920539856
vt 0.6384199857711792 0.5397239923477173
vt 0.7106419801712036 0.6208069920539856
vt 0.6407009959220886 0.5829269886016846
vt 0.5 0.5623329877853394
vt 0.5 0.6741099953651428
vt 0.3641490042209625 0.652010977268219
vt 0.5 0.5623329877853394
vt 0.3641490042209625 0.652010977268219
vt 0.39064499735832214 0.5257530212402344
vt 0.6093549728393555 0.5257530212402344
vt 0.6470180153846741 0.5129430294036865
vt 0.7320050001144409 0.6254079937934875
vt 0.6093549728393555 0.5257530212402344
vt 0.7320050001144409 0.6254079937934875
vt 0.6358510255813599 0.652010977268219
vt 0.5 0.6983510255813599
vt 0.4999989867210388 0.6065559983253479
vt 0.6407009959220886 0.5829269886016846
vt 0.5 0.6983510255813599
vt 0.6407009959220886 0.5829269886016846
vt 0.6358510255813599 0.6778609752655029
vt 0.3479889929294586 0.6778609752655029
vt 0.37459200620651245 0.6207870244979858
vt 0.48724600672721863 0.7403280138969421
vt 0.3641490042209625 0.652010977268219
vt 0.3529820144176483 0.5127540230751038
vt 0.39064499735832214 0.5257530212402344
vt 0.6358510255813599 0.6778609752655029
vt 0.6407009959220886 0.5829269886016846
vt 0.7106419801712036 0.6208069920539856
vt 0.6358510255813599 0.652010977268219
vt 0.5 0.6741099953651428
vt 0.5 0.5623329877853394
vt 0.6358510255813599 0.652010977268219
vt 0.5 0.5623329877853394
vt 0.6093549728393555 0.5257530212402344
vt 0.3641490042209625 0.6778609752655029
vt 0.28951600193977356 0.6177319884300232
vt 0.3592979907989502 0.5843080282211304
vt 0.7847639918327332 0.5636789798736572
vt 0.681555986404419 0.7383229732513428
vt 0.6470180153846741 0.7403280138969421
vt 0.40338999032974243 0.5636789798736572
vt 0.48724600672721863 0.7403280138969421
vt 0.37459200620651245 0.6207870244979858
vt 0.40338999032974243 0.5636789798736572
vt 0.37459200620651245 0.6207870244979858
vt 0.3220219910144806 0.6208069920539856
vt 0.40338999032974243 0.5636789798736572
vt 0.3220219910144806 0.6208069920539856
vt 0.3070789873600006 0.5637199878692627
vt 0.5966100096702576 0.5556039810180664
vt 0.6254079937934875 0.6311420202255249
vt 0.5129430294036865 0.7403280138969421
vt 0.21523599326610565 0.5556039810180664
vt 0.3529820144176483 0.7403280138969421
vt 0.3091129958629608 0.740896999835968
vt 0.6991099715232849 0.5577239990234375
vt 0.6813560128211975 0.6177319884300232
vt 0.6254079937934875 0.6311420202255249
vt 0.6991099715232849 0.5577239990234375
vt 0.6254079937934875 0.6311420202255249
vt 0.5966100096702576 0.5556039810180664
vt 0.289357990026474 0.677977979183197
vt 0.2680020034313202 0.6254079937934875
vt 0.3641490042209625 0.652010977268219
vt 0.7320050001144409 0.6254079937934875
vt 0.7104840278625488 0.6813560128211975
vt 0.6358510255813599 0.652010977268219
vt 0.3592979907989502 0.5843080282211304
vt 0.4999989867210388 0.6065559983253479
vt 0.5 0.6983510255813599
vt 0.3592979907989502 0.5843080282211304
vt 0.5 0.6983510255813599
vt 0.3641490042209625 0.6778609752655029
vt 0.7892850041389465 0.6303139925003052
vt 0.7392429709434509 0.7293519973754883
vt 0.681555986404419 0.7383229732513428
vt 0.7892850041389465 0.6303139925003052
vt 0.681555986404419 0.7383229732513428
vt 0.7847639918327332 0.5636789798736572
vt 0.2607569992542267 0.7293519973754883
vt 0.21071499586105347 0.6094539761543274
vt 0.21523599326610565 0.5556039810180664
vt 0.2607569992542267 0.7293519973754883
vt 0.21523599326610565 0.5556039810180664
vt 0.3091129958629608 0.740896999835968
vn -0.008023948126619489 0.7276416165168736 -0.6859105584324915
vn -0.40982590388030377 0.4897249077634768 -0.7695532751049444
vn -0.2814247538706534 0.6141489592565008 -0.7373066958552585
vn -0.008023948126619489 0.7276416165168736 -0.6859105584324915
vn -0.2814247538706534 0.6141489592565008 -0.7373066958552585
vn -0.004198131074128626 0.7039012779211266 -0.7102854120960737
vn -0.008023948126619489 0.7276416165168736 -0.6859105584324915
vn -0.004198131074128626 0.7039012779211266 -0.7102854120960737
vn 0.27665569129755546 0.6197701412878723 -0.7344022061790682
vn -0.008023948126619489 0.7276416165168736 -0.6859105584324915
vn 0.27665569129755546 0.6197701412878723 -0.7344022061790682
vn 0.40288017019309225 0.49987385693410397 -0.7666900909878829
vn 0.40288017019309225 0.49987385693410397 -0.7666900909878829
vn 0.27665569129755546 0.6197701412878723 -0.7344022061790682
vn 0.4621270934978618 0.5743888666246965 -0.6756596623691656
vn 0.40288017019309225 0.49987385693410397 -0.7666900909878829
vn 0.4621270934978618 0.5743888666246965 -0.6756596623691656
vn 0.7224621218951228 0.44437682888392316 -0.5296958715884664
vn -0.40982590388030377 0.4897249077634768 -0.7695532751049444
vn -0.6542013430380299 0.4706482561217554 -0.5920395440988621
vn -0.559990985414817 0.5734923907288931 -0.5979268968947632
vn -0.40982590388030377 0.4897249077634768 -0.7695532751049444
vn -0.559990985414817 0.5734923907288931 -0.5979268968947632
vn -0.2814247538706534 0.6141489592565008 -0.7373066958552585
vn 4.1202920576895085e-9 0.8688063516487875 -0.49515202042880035
vn -0.0016691561966088629 0.7098933236864026 -0.7043072361569658
vn -0.3617887283160835 0.7527412327370442 -0.5499905022824905
vn 4.1202920576895085e-9 0.8688063516487875 -0.49515202042880035
vn -0.3617887283160835 0.7527412327370442 -0.5499905022824905
vn -0.28075766443591266 0.8429481947208721 -0.45892643732663096
vn 0.4019128736727526 0.8013668769000208 -0.44303179410017157
vn 0.6788650816651247 0.6309873564675436 -0.3754958813008537
vn 0.7155230605206215 0.6364961234352416 -0.2879226193183032
vn 0.4019128736727526 0.8013668769000208 -0.44303179410017157
vn 0.7155230605206215 0.6364961234352416 -0.2879226193183032
vn 0.3415788029731343 0.7572396210619879 -0.556697474085645
vn -0.0016691561966088629 0.7098933236864026 -0.7043072361569658
vn -0.004198131074128626 0.7039012779211266 -0.7102854120960737
vn -0.2814247538706534 0.6141489592565008 -0.7373066958552585
vn -0.0016691561966088629 0.7098933236864026 -0.7043072361569658
vn -0.2814247538706534 0.6141489592565008 -0.7373066958552585
vn -0.3617887283160835 0.7527412327370442 -0.5499905022824905
vn -0.3617887283160835 0.7527412327370442 -0.5499905022824905
vn -0.7120259176502898 0.6464248092895966 -0.27414240556537645
vn -0.640112331189775 0.6714466117041741 -0.3733840530737431
vn -0.3617887283160835 0.7527412327370442 -0.5499905022824905
vn -0.640112331189775 0.6714466117041741 -0.3733840530737431
vn -0.28075766443591266 0.8429481947208721 -0.45892643732663096
vn -0.3617887283160835 0.7527412327370442 -0.5499905022824905
vn -0.2814247538706534 0.6141489592565008 -0.7373066958552585
vn -0.559990985414817 0.5734923907288931 -0.5979268968947632
vn 0.3415788029731343 0.7572396210619879 -0.556697474085645
vn -0.0016691561966088629 0.7098933236864026 -0.7043072361569658
vn 4.1202920576895085e-9 0.8688063516487875 -0.49515202042880035
vn 0.3415788029731343 0.7572396210619879 -0.556697474085645
vn 4.1202920576895085e-9 0.8688063516487875 -0.49515202042880035
vn 0.4019128736727526 0.8013668769000208 -0.44303179410017157
vn 0.3415788029731343 0.7572396210619879 -0.556697474085645
vn 0.4621270934978618 0.5743888666246965 -0.6756596623691656
vn 0.27665569129755546 0.6197701412878723 -0.7344022061790682
vn -0.6378787607120274 0.5971679548153758 -0.4863138085373572
vn -0.20873331638859763 0.5675589337634237 -0.796434089761823
vn -0.640112331189775 0.6714466117041741 -0.3733840530737431
vn -0.6378787607120274 0.5971679548153758 -0.4863138085373572
vn -0.640112331189775 0.6714466117041741 -0.3733840530737431
vn -0.7120259176502898 0.6464248092895966 -0.27414240556537645
vn -0.6378787607120274 0.5971679548153758 -0.4863138085373572
vn -0.7120259176502898 0.6464248092895966 -0.27414240556537645
vn -0.559990985414817 0.5734923907288931 -0.5979268968947632
vn -0.6378787607120274 0.5971679548153758 -0.4863138085373572
vn -0.559990985414817 0.5734923907288931 -0.5979268968947632
vn -0.6542013430380299 0.4706482561217554 -0.5920395440988621
vn 0.672951220759393 0.5694633716325318 -0.4720679218580221
vn 0.7155230605206215 0.6364961234352416 -0.2879226193183032
vn 0.6788650816651247 0.6309873564675436 -0.3754958813008537
vn 0.672951220759393 0.5694633716325318 -0.4720679218580221
vn 0.6788650816651247 0.6309873564675436 -0.3754958813008537
vn 0.4307317957267156 0.557623019107777 -0.7095961447972832
vn 0.7224621218951228 0.44437682888392316 -0.5296958715884664
vn 0.4621270934978618 0.5743888666246965 -0.6756596623691656
vn 0.7155230605206215 0.6364961234352416 -0.2879226193183032
vn 0.7224621218951228 0.44437682888392316 -0.5296958715884664
vn 0.7155230605206215 0.6364961234352416 -0.2879226193183032
vn 0.672951220759393 0.5694633716325318 -0.4720679218580221
vn -0.559990985414817 0.5734923907288931 -0.5979268968947632
vn -0.7120259176502898 0.6464248092895966 -0.27414240556537645
vn -0.3617887283160835 0.7527412327370442 -0.5499905022824905
vn 0.7155230605206215 0.6364961234352416 -0.2879226193183032
vn 0.4621270934978618 0.5743888666246965 -0.6756596623691656
vn 0.3415788029731343 0.7572396210619879 -0.556697474085645
vn 0.27665569129755546 0.6197701412878723 -0.7344022061790682
vn -0.004198131074128626 0.7039012779211266 -0.7102854120960737
vn -0.0016691561966088629 0.7098933236864026 -0.7043072361569658
vn 0.27665569129755546 0.6197701412878723 -0.7344022061790682
vn -0.0016691561966088629 0.7098933236864026 -0.7043072361569658
vn 0.3415788029731343 0.7572396210619879 -0.556697474085645
vn 0.0322215253364918 0.4995686621348077 -0.8656748379835401
vn -0.08411498099248683 0.5669398816723716 -0.819453379114365
vn -0.20873331638859763 0.5675589337634237 -0.796434089761823
vn 0.0322215253364918 0.4995686621348077 -0.8656748379835401
vn -0.20873331638859763 0.5675589337634237 -0.796434089761823
vn -0.6378787607120274 0.5971679548153758 -0.4863138085373572
vn 0.3012770261948715 0.5595330908971742 -0.7721106615493853
vn 0.031075281973256395 0.5438912502278119 -0.8385801302057606
vn 0.672951220759393 0.5694633716325318 -0.4720679218580221
vn 0.3012770261948715 0.5595330908971742 -0.7721106615493853
vn 0.672951220759393 0.5694633716325318 -0.4720679218580221
vn 0.4307317957267156 0.557623019107777 -0.7095961447972832
f 1/1/1 2/2/2 3/3/3
f 4/4/4 5/5/5 6/6/6
f 7/7/7 8/8/8 9/9/9
f 10/10/10 11/11/11 12/12/12
f 13/13/13 14/14/14 15/15/15
f 16/16/16 17/17/17 18/18/18
f 19/19/19 20/20/20 21/21/21
f 22/22/22 23/23/23 24/24/24
f 25/25/25 26/26/26 27/27/27
f 28/28/28 29/29/29 30/30/30
f 31/31/31 32/32/32 33/33/33
f 34/34/34 35/35/35 36/36/36
f 37/37/37 38/38/38 39/39/39
f 40/40/40 41/41/41 42/42/42
f 43/43/43 44/44/44 45/45/45
f 46/46/46 47/47/47 48/48/48
f 49/49/49 50/50/50 51/51/51
f 52/52/52 53/53/53 54/54/54
f 55/55/55 56/56/56 57/57/57
f 58/58/58 59/59/59 60/60/60
f 61/61/61 62/62/62 63/63/63
f 64/64/64 65/65/65 66/66/66
f 67/67/67 68/68/68 69/69/69
f 70/70/70 71/71/71 72/72/72
f 73/73/73 74/74/74 75/75/75
f 76/76/76 77/77/77 78/78/78
f 79/79/79 80/80/80 81/81/81
f 82/82/82 83/83/83 84/84/84
f 85/85/85 86/86/86 87/87/87
f 88/88/88 89/89/89 90/90/90
f 91/91/91 92/92/92 93/93/93
f 94/94/94 95/95/95 96/96/96
f 97/97/97 98/98/98 99/99/99
f 100/100/100 101/101/101 102/102/102
f 103/103/103 104/104/104 105/105/105
f 106/106/106 107/107/107 108/108/108
