mtllib ArcadaCompleta.mtl
o D44C_DV
usemtl Esmalte
v -26.370899200439453 -15.836002349853516 1.5694993878747105
v -26.439899444580078 -17.334823608398438 2.3700794125939484
v -25.397600173950195 -17.125812530517578 2.851329460277664
v -26.370899200439453 -15.836002349853516 1.5694993878747105
v -25.397600173950195 -17.125812530517578 2.851329460277664
v -25.263099670410156 -15.25647258758545 1.9816993619347694
v -26.24489974975586 -18.967172622680664 2.7562195207024685
v -25.351299285888672 -18.967172622680664 3.185079469814407
v -25.397600173950195 -17.125812530517578 2.851329460277664
v -26.24489974975586 -18.967172622680664 2.7562195207024685
v -25.397600173950195 -17.125812530517578 2.851329460277664
v -26.439899444580078 -17.334823608398438 2.3700794125939484
v -26.24489974975586 -18.967172622680664 2.7562195207024685
v -25.960500717163086 -20.592283248901367 2.652109518184768
v -25.165599822998047 -20.592283248901367 3.243359460964309
v -26.24489974975586 -18.967172622680664 2.7562195207024685
v -25.165599822998047 -20.592283248901367 3.243359460964309
v -25.351299285888672 -18.967172622680664 3.185079469814407
v -26.439899444580078 -17.334823608398438 2.3700794125939484
v -27.28339958190918 -17.6367130279541 1.2025994206811068
v -27.165700912475586 -18.967172622680664 1.3200093652154081
v -26.439899444580078 -17.334823608398438 2.3700794125939484
v -27.165700912475586 -18.967172622680664 1.3200093652154081
v -26.24489974975586 -18.967172622680664 2.7562195207024685
v -26.69059944152832 -20.592283248901367 1.3339194203759304
v -25.960500717163086 -20.592283248901367 2.652109518184768
v -26.24489974975586 -18.967172622680664 2.7562195207024685
v -26.69059944152832 -20.592283248901367 1.3339194203759304
v -26.24489974975586 -18.967172622680664 2.7562195207024685
v -27.165700912475586 -18.967172622680664 1.3200093652154081
v -26.405399322509766 -16.585412979125977 1.9697894002343297
v -26.370899200439453 -15.836002349853516 1.5694993878747105
v -27.23150062561035 -16.832942962646484 1.0148394252205966
v -26.405399322509766 -16.585412979125977 1.9697894002343297
v -27.23150062561035 -16.832942962646484 1.0148394252205966
v -27.28339958190918 -17.6367130279541 1.2025994206811068
v -26.405399322509766 -16.585412979125977 1.9697894002343297
v -27.28339958190918 -17.6367130279541 1.2025994206811068
v -26.439899444580078 -17.334823608398438 2.3700794125939484
vt 0.16061200201511383 0.7736470103263855
vt 0.15074199438095093 0.5972440242767334
vt 0.29987698793411255 0.621845006942749
vt 0.16061200201511383 0.7736470103263855
vt 0.29987698793411255 0.621845006942749
vt 0.3191240131855011 0.841854989528656
vt 0.17864100635051727 0.4051259756088257
vt 0.30649399757385254 0.4051259756088257
vt 0.29987698793411255 0.621845006942749
vt 0.17864100635051727 0.4051259756088257
vt 0.29987698793411255 0.621845006942749
vt 0.15074199438095093 0.5972440242767334
vt 0.17864100635051727 0.4051259756088257
vt 0.21933400630950928 0.21385902166366577
vt 0.3330700099468231 0.21385902166366577
vt 0.17864100635051727 0.4051259756088257
vt 0.3330700099468231 0.21385902166366577
vt 0.30649399757385254 0.4051259756088257
vt 0.8269280195236206 0.5972440242767334
vt 0.671314001083374 0.5617139935493469
vt 0.6869630217552185 0.4051259756088257
vt 0.8269280195236206 0.5972440242767334
vt 0.6869630217552185 0.4051259756088257
vt 0.8783980011940002 0.4051259756088257
vt 0.6888179779052734 0.21385902166366577
vt 0.8645210266113281 0.21385902166366577
vt 0.8783980011940002 0.4051259756088257
vt 0.6888179779052734 0.21385902166366577
vt 0.8783980011940002 0.4051259756088257
vt 0.6869630217552185 0.4051259756088257
vt 0.7735729813575745 0.68544602394104
vt 0.7202180027961731 0.7736470103263855
vt 0.6462870240211487 0.6563130021095276
vt 0.7735729813575745 0.68544602394104
vt 0.6462870240211487 0.6563130021095276
vt 0.671314001083374 0.5617139935493469
vt 0.7735729813575745 0.68544602394104
vt 0.671314001083374 0.5617139935493469
vt 0.8269280195236206 0.5972440242767334
vn -0.5334385503312301 0.40306611865774433 0.743626934027202
vn -0.7029611429062473 0.16736574377541474 0.69125562520275
vn -0.46075341697962985 0.29841041068572327 0.8358573535813234
vn -0.5334385503312301 0.40306611865774433 0.743626934027202
vn -0.46075341697962985 0.29841041068572327 0.8358573535813234
vn -0.49483034854243113 0.3955545790549019 0.7737438213970278
vn -0.6998379089610455 -0.05085267024185488 0.7124892329785093
vn -0.43152677990992183 0.0728066935766543 0.8991572852349077
vn -0.46075341697962985 0.29841041068572327 0.8358573535813234
vn -0.6998379089610455 -0.05085267024185488 0.7124892329785093
vn -0.46075341697962985 0.29841041068572327 0.8358573535813234
vn -0.7029611429062473 0.16736574377541474 0.69125562520275
vn -0.6998379089610455 -0.05085267024185488 0.7124892329785093
vn -0.7694550949924494 -0.17402603462477156 0.6145354310883455
vn -0.5151660950609683 -0.08653519900200693 0.8527107093459754
vn -0.6998379089610455 -0.05085267024185488 0.7124892329785093
vn -0.5151660950609683 -0.08653519900200693 0.8527107093459754
vn -0.43152677990992183 0.0728066935766543 0.8991572852349077
vn -0.7029611429062473 0.16736574377541474 0.69125562520275
vn -0.8065679794043121 0.12915816148273676 0.5768589636315314
vn -0.8303960444922812 -0.08379516632681608 0.5508364361512721
vn -0.7029611429062473 0.16736574377541474 0.69125562520275
vn -0.8303960444922812 -0.08379516632681608 0.5508364361512721
vn -0.6998379089610455 -0.05085267024185488 0.7124892329785093
vn -0.8386212941181979 -0.20991542329067567 0.5026428554313845
vn -0.7694550949924494 -0.17402603462477156 0.6145354310883455
vn -0.6998379089610455 -0.05085267024185488 0.7124892329785093
vn -0.8386212941181979 -0.20991542329067567 0.5026428554313845
vn -0.6998379089610455 -0.05085267024185488 0.7124892329785093
vn -0.8303960444922812 -0.08379516632681608 0.5508364361512721
vn -0.7796919246766004 0.28110085729313694 0.5595201610515584
vn -0.5334385503312301 0.40306611865774433 0.743626934027202
vn -0.7620953883007971 0.2659034418944863 0.5903439495068301
vn -0.7796919246766004 0.28110085729313694 0.5595201610515584
vn -0.7620953883007971 0.2659034418944863 0.5903439495068301
vn -0.8065679794043121 0.12915816148273676 0.5768589636315314
vn -0.7796919246766004 0.28110085729313694 0.5595201610515584
vn -0.8065679794043121 0.12915816148273676 0.5768589636315314
vn -0.7029611429062473 0.16736574377541474 0.69125562520275
f 1/1/1 2/2/2 3/3/3
f 4/4/4 5/5/5 6/6/6
f 7/7/7 8/8/8 9/9/9
f 10/10/10 11/11/11 12/12/12
f 13/13/13 14/14/14 15/15/15
f 16/16/16 17/17/17 18/18/18
f 19/19/19 20/20/20 21/21/21
f 22/22/22 23/23/23 24/24/24
f 25/25/25 26/26/26 27/27/27
f 28/28/28 29/29/29 30/30/30
f 31/31/31 32/32/32 33/33/33
f 34/34/34 35/35/35 36/36/36
f 37/37/37 38/38/38 39/39/39
