mtllib ArcadaCompleta.mtl
o D45C_O
usemtl Esmalte
v -32.11389923095703 -16.89088249206543 -1.6246105288123014
v -32.352901458740234 -16.27275276184082 -1.841560587749374
v -32.976200103759766 -16.172653198242188 -1.6028805826758266
v -32.11389923095703 -16.89088249206543 -1.6246105288123014
v -32.976200103759766 -16.172653198242188 -1.6028805826758266
v -32.88880157470703 -16.439043045043945 -1.2901205872153163
v -32.11389923095703 -16.89088249206543 -1.6246105288123014
v -32.11389923095703 -16.22730255126953 -1.335940585002792
v -31.1072998046875 -16.115673065185547 -1.0147605990027309
v -32.11389923095703 -16.89088249206543 -1.6246105288123014
v -31.1072998046875 -16.115673065185547 -1.0147605990027309
v -31.09709930419922 -16.247241973876953 -1.3105805967902064
v -32.11389923095703 -16.89088249206543 -1.6246105288123014
v -32.05039978027344 -16.60232162475586 -2.35246048913945
v -32.3203010559082 -16.213611602783203 -2.461960658893478
v -32.11389923095703 -16.89088249206543 -1.6246105288123014
v -32.3203010559082 -16.213611602783203 -2.461960658893478
v -32.352901458740234 -16.27275276184082 -1.841560587749374
v -31.09709930419922 -16.247241973876953 -1.3105805967902064
v -30.960500717163086 -16.047082901000977 -1.602800593242538
v -31.892200469970703 -16.206981658935547 -1.9166205977057338
v -31.09709930419922 -16.247241973876953 -1.3105805967902064
v -31.892200469970703 -16.206981658935547 -1.9166205977057338
v -32.11389923095703 -16.89088249206543 -1.6246105288123014
v -31.09709930419922 -16.247241973876953 -1.3105805967902064
v -30.152599334716797 -16.491722106933594 -0.908195600376022
v -30.133499145507812 -15.980992317199707 -1.2265505646323085
v -31.09709930419922 -16.247241973876953 -1.3105805967902064
v -30.133499145507812 -15.980992317199707 -1.2265505646323085
v -30.960500717163086 -16.047082901000977 -1.602800593242538
v -32.88880157470703 -16.439043045043945 -1.2901205872153163
v -32.777400970458984 -16.127622604370117 -1.0047005270575404
v -32.11389923095703 -16.22730255126953 -1.335940585002792
v -32.88880157470703 -16.439043045043945 -1.2901205872153163
v -32.11389923095703 -16.22730255126953 -1.335940585002792
v -32.11389923095703 -16.89088249206543 -1.6246105288123014
v -32.88880157470703 -16.439043045043945 -1.2901205872153163
v -33.99319839477539 -16.813682556152344 -1.0659705256079557
v -33.777801513671875 -16.323991775512695 -0.859891579017532
v -32.88880157470703 -16.439043045043945 -1.2901205872153163
v -33.777801513671875 -16.323991775512695 -0.859891579017532
v -32.777400970458984 -16.127622604370117 -1.0047005270575404
v -32.03260040283203 -15.560422897338867 -0.813893601760757
v -32.11389923095703 -16.22730255126953 -1.335940585002792
v -32.777400970458984 -16.127622604370117 -1.0047005270575404
v -32.03260040283203 -15.560422897338867 -0.813893601760757
v -32.777400970458984 -16.127622604370117 -1.0047005270575404
v -32.72829818725586 -15.539173126220703 -0.538863584861648
v -31.19969940185547 -15.539173126220703 -0.538863584861648
v -30.559799194335938 -15.382132530212402 -0.10529958502997147
v -30.38360023498535 -15.737552642822266 -0.7081625913237453
v -31.19969940185547 -15.539173126220703 -0.538863584861648
v -30.38360023498535 -15.737552642822266 -0.7081625913237453
v -31.1072998046875 -16.115673065185547 -1.0147605990027309
v -31.19969940185547 -15.539173126220703 -0.538863584861648
v -31.1072998046875 -16.115673065185547 -1.0147605990027309
v -32.11389923095703 -16.22730255126953 -1.335940585002792
v -31.19969940185547 -15.539173126220703 -0.538863584861648
v -32.11389923095703 -16.22730255126953 -1.335940585002792
v -32.03260040283203 -15.560422897338867 -0.813893601760757
v -32.72829818725586 -15.539173126220703 -0.538863584861648
v -32.777400970458984 -16.127622604370117 -1.0047005270575404
v -33.777801513671875 -16.323991775512695 -0.859891579017532
v -32.72829818725586 -15.539173126220703 -0.538863584861648
v -33.777801513671875 -16.323991775512695 -0.859891579017532
v -33.45719909667969 -15.67386245727539 -0.15743057476032965
v -33.45719909667969 -15.67386245727539 -0.15743057476032965
v -33.853599548339844 -16.035322189331055 -0.39401759253491164
v -33.929500579833984 -15.746652603149414 0.07185751898537879
v -31.892200469970703 -16.206981658935547 -1.9166205977057338
v -31.782499313354492 -16.114952087402344 -2.4945005034064174
v -32.05039978027344 -16.60232162475586 -2.35246048913945
v -31.892200469970703 -16.206981658935547 -1.9166205977057338
v -32.05039978027344 -16.60232162475586 -2.35246048913945
v -32.11389923095703 -16.89088249206543 -1.6246105288123014
v -32.976200103759766 -16.172653198242188 -1.6028805826758266
v -32.352901458740234 -16.27275276184082 -1.841560587749374
v -32.51060104370117 -16.20026206970215 -2.277280673847091
v -32.976200103759766 -16.172653198242188 -1.6028805826758266
v -32.51060104370117 -16.20026206970215 -2.277280673847091
v -33.01259994506836 -16.136852264404297 -1.9732506130789638
v -32.976200103759766 -16.172653198242188 -1.6028805826758266
v -33.83399963378906 -16.514081954956055 -1.3660305594061732
v -33.99319839477539 -16.813682556152344 -1.0659705256079557
v -32.976200103759766 -16.172653198242188 -1.6028805826758266
v -33.99319839477539 -16.813682556152344 -1.0659705256079557
v -32.88880157470703 -16.439043045043945 -1.2901205872153163
v -31.1072998046875 -16.115673065185547 -1.0147605990027309
v -30.38360023498535 -15.737552642822266 -0.7081625913237453
v -30.152599334716797 -16.491722106933594 -0.908195600376022
v -31.1072998046875 -16.115673065185547 -1.0147605990027309
v -30.152599334716797 -16.491722106933594 -0.908195600376022
v -31.09709930419922 -16.247241973876953 -1.3105805967902064
v -30.960500717163086 -16.047082901000977 -1.602800593242538
v -30.537599563598633 -15.829122543334961 -2.141720638141525
v -31.26810073852539 -15.988072395324707 -2.2598506067847133
v -30.960500717163086 -16.047082901000977 -1.602800593242538
v -31.26810073852539 -15.988072395324707 -2.2598506067847133
v -31.892200469970703 -16.206981658935547 -1.9166205977057338
v -30.152599334716797 -16.491722106933594 -0.908195600376022
v -30.38360023498535 -15.737552642822266 -0.7081625913237453
v -29.93779945373535 -15.264272689819336 0.22052942170153872
v -29.93779945373535 -15.264272689819336 0.22052942170153872
v -30.38360023498535 -15.737552642822266 -0.7081625913237453
v -30.559799194335938 -15.382132530212402 -0.10529958502997147
v -30.133499145507812 -15.980992317199707 -1.2265505646323085
v -30.089799880981445 -15.805562973022461 -2.07199059473027
v -30.537599563598633 -15.829122543334961 -2.141720638141525
v -30.133499145507812 -15.980992317199707 -1.2265505646323085
v -30.537599563598633 -15.829122543334961 -2.141720638141525
v -30.960500717163086 -16.047082901000977 -1.602800593242538
v -33.777801513671875 -16.323991775512695 -0.859891579017532
v -33.853599548339844 -16.035322189331055 -0.39401759253491164
v -33.45719909667969 -15.67386245727539 -0.15743057476032965
v -33.929500579833984 -15.746652603149414 0.07185751898537879
v -33.853599548339844 -16.035322189331055 -0.39401759253491164
v -34.111000061035156 -16.319042205810547 -0.44609959469784505
v -33.929500579833984 -15.746652603149414 0.07185751898537879
v -34.111000061035156 -16.319042205810547 -0.44609959469784505
v -34.22890090942383 -15.915882110595703 0.1737704123402715
v -34.111000061035156 -16.319042205810547 -0.44609959469784505
v -33.853599548339844 -16.035322189331055 -0.39401759253491164
v -33.777801513671875 -16.323991775512695 -0.859891579017532
v -34.111000061035156 -16.319042205810547 -0.44609959469784505
v -33.777801513671875 -16.323991775512695 -0.859891579017532
v -33.99319839477539 -16.813682556152344 -1.0659705256079557
v -31.26810073852539 -15.988072395324707 -2.2598506067847133
v -31.782499313354492 -16.114952087402344 -2.4945005034064174
v -31.892200469970703 -16.206981658935547 -1.9166205977057338
v -33.01259994506836 -16.136852264404297 -1.9732506130789638
v -33.6781005859375 -16.332061767578125 -1.9081805800055385
v -33.83399963378906 -16.514081954956055 -1.3660305594061732
v -33.01259994506836 -16.136852264404297 -1.9732506130789638
v -33.83399963378906 -16.514081954956055 -1.3660305594061732
v -32.976200103759766 -16.172653198242188 -1.6028805826758266
v -32.3203010559082 -16.213611602783203 -2.461960658893478
v -32.51060104370117 -16.20026206970215 -2.277280673847091
v -32.352901458740234 -16.27275276184082 -1.841560587749374
vt 0.4866720139980316 0.6572880148887634
vt 0.4523400068283081 0.7340369820594788
vt 0.3628059923648834 0.7464659810066223
vt 0.4866720139980316 0.6862930059432983
vt 0.3628059923648834 0.6835920214653015
vt 0.37536200881004333 0.6447150111198425
vt 0.5133280158042908 0.6572880148887634
vt 0.5133280158042908 0.7396810054779053
vt 0.3687349855899811 0.7535420060157776
vt 0.4866720139980316 0.6862930059432983
vt 0.6312649846076965 0.6104859709739685
vt 0.6327289938926697 0.6472579836845398
vt 0.6862930059432983 0.6572880148887634
vt 0.7767699956893921 0.6931160092353821
vt 0.7903800010681152 0.7413809895515442
vt 0.6862930059432983 0.6572880148887634
vt 0.7903800010681152 0.7413809895515442
vt 0.7132620215415955 0.7340369820594788
vt 0.6327289938926697 0.6472579836845398
vt 0.6523510217666626 0.6835820078849792
vt 0.5185250043869019 0.7225919961929321
vt 0.6327289938926697 0.7372050285339355
vt 0.5185250043869019 0.7422040104866028
vt 0.4866720139980316 0.6572880148887634
vt 0.6327289938926697 0.7372050285339355
vt 0.7684080004692078 0.7068489789962769
vt 0.7711480259895325 0.7702640295028687
vt 0.6327289938926697 0.6472579836845398
vt 0.7711480259895325 0.6368119716644287
vt 0.6523510217666626 0.6835820078849792
vt 0.37536200881004333 0.6447150111198425
vt 0.3913609981536865 0.6092349886894226
vt 0.4866720139980316 0.650409996509552
vt 0.624638020992279 0.7133899927139282
vt 0.5133280158042908 0.7396810054779053
vt 0.5133280158042908 0.6572880148887634
vt 0.624638020992279 0.7133899927139282
vt 0.7832750082015991 0.6668729782104492
vt 0.7523350119590759 0.7276750206947327
vt 0.37536200881004333 0.6447150111198425
vt 0.24766500294208527 0.591234028339386
vt 0.3913609981536865 0.6092349886894226
vt 0.5016419887542725 0.822484016418457
vt 0.5133280158042908 0.7396810054779053
vt 0.6086390018463135 0.7520580291748047
vt 0.5016419887542725 0.822484016418457
vt 0.6086390018463135 0.7520580291748047
vt 0.6015759706497192 0.8251219987869263
vt 0.6180019974708557 0.5513290166854858
vt 0.7099180221557617 0.49743402004241943
vt 0.7352269887924194 0.5723739862442017
vt 0.3819980025291443 0.8251219987869263
vt 0.26477301120758057 0.8004900217056274
vt 0.3687349855899811 0.7535420060157776
vt 0.3819980025291443 0.8251219987869263
vt 0.3687349855899811 0.7535420060157776
vt 0.5133280158042908 0.7396810054779053
vt 0.3819980025291443 0.8251219987869263
vt 0.5133280158042908 0.7396810054779053
vt 0.5016419887542725 0.822484016418457
vt 0.6015759706497192 0.8251219987869263
vt 0.6086390018463135 0.7520580291748047
vt 0.7523350119590759 0.7276750206947327
vt 0.3984239995479584 0.5513290166854858
vt 0.24766500294208527 0.591234028339386
vt 0.2937160134315491 0.5039139986038208
vt 0.2937160134315491 0.5039139986038208
vt 0.2367669939994812 0.5333229899406433
vt 0.22586899995803833 0.4754120111465454
vt 0.27740800380706787 0.7422040104866028
vt 0.20557500422000885 0.7536309957504272
vt 0.2232300043106079 0.6931160092353821
vt 0.27740800380706787 0.7422040104866028
vt 0.2232300043106079 0.6931160092353821
vt 0.31370699405670166 0.6572880148887634
vt 0.3628059923648834 0.6835920214653015
vt 0.4523400068283081 0.7132620215415955
vt 0.42969000339508057 0.7674239873886108
vt 0.3628059923648834 0.6835920214653015
vt 0.42969000339508057 0.7674239873886108
vt 0.35758399963378906 0.7296320199966431
vt 0.3628059923648834 0.6835920214653015
vt 0.23958000540733337 0.6541500091552734
vt 0.21672500669956207 0.6168509721755981
vt 0.3628059923648834 0.6835920214653015
vt 0.21672500669956207 0.6168509721755981
vt 0.37536200881004333 0.6447150111198425
vt 0.3687349855899811 0.7535420060157776
vt 0.26477301120758057 0.8004900217056274
vt 0.23159199953079224 0.7068489789962769
vt 0.6312649846076965 0.6104859709739685
vt 0.7684080004692078 0.5972390174865723
vt 0.6327289938926697 0.6472579836845398
vt 0.6523510217666626 0.6835820078849792
vt 0.7131040096282959 0.7505729794502258
vt 0.6081759929656982 0.7652570009231567
vt 0.6523510217666626 0.6835820078849792
vt 0.6081759929656982 0.7652570009231567
vt 0.5185250043869019 0.7225919961929321
vt 0.5972390174865723 0.7068489789962769
vt 0.5723739862442017 0.8004900217056274
vt 0.456932008266449 0.8592560291290283
vt 0.7992609739303589 0.456932008266449
vt 0.7352269887924194 0.5723739862442017
vt 0.7099180221557617 0.49743402004241943
vt 0.7711480259895325 0.6368119716644287
vt 0.7774320244789124 0.7419059872627258
vt 0.7131040096282959 0.7505729794502258
vt 0.7711480259895325 0.6368119716644287
vt 0.7131040096282959 0.7505729794502258
vt 0.6523510217666626 0.6835820078849792
vt 0.24766500294208527 0.591234028339386
vt 0.2367669939994812 0.5333229899406433
vt 0.2937160134315491 0.5039139986038208
vt 0.5245879888534546 0.799360990524292
vt 0.4666770100593567 0.7635179758071899
vt 0.46020200848579407 0.7282900214195251
vt 0.22586899995803833 0.4754120111465454
vt 0.19979600608348846 0.5397980213165283
vt 0.18286600708961487 0.46274399757385254
vt 0.46020200848579407 0.7282900214195251
vt 0.4666770100593567 0.7635179758071899
vt 0.4087660014629364 0.7276750206947327
vt 0.46020200848579407 0.7282900214195251
vt 0.4087660014629364 0.7276750206947327
vt 0.38314899802207947 0.6668729782104492
vt 0.6081759929656982 0.7652570009231567
vt 0.5342820286750793 0.7944250106811523
vt 0.5185250043869019 0.7225919961929321
vt 0.35758399963378906 0.7296320199966431
vt 0.2619769871234894 0.7215420007705688
vt 0.23958000540733337 0.6541500091552734
vt 0.35758399963378906 0.7296320199966431
vt 0.23958000540733337 0.6541500091552734
vt 0.3628059923648834 0.6835920214653015
vt 0.4570290148258209 0.7903800010681152
vt 0.42969000339508057 0.7674239873886108
vt 0.4523400068283081 0.7132620215415955
vn 0.06756188512060601 0.9969523241555975 -0.03900583340608026
vn 0.5741138943406081 0.7119441490941347 0.40438690000504396
vn 0.12965970749509267 0.8467747254333972 0.5159078644675634
vn 0.06756188512060601 0.9969523241555975 -0.03900583340608026
vn 0.12965970749509267 0.8467747254333972 0.5159078644675634
vn -0.14388900488150633 0.8509544119443476 -0.5051460611215922
vn 0.06756188512060601 0.9969523241555975 -0.03900583340608026
vn 0.04143772254769778 0.5615522835073874 -0.8264030179263014
vn 0.13381029744362968 0.5985969865824182 -0.789795196207533
vn 0.06756188512060601 0.9969523241555975 -0.03900583340608026
vn 0.13381029744362968 0.5985969865824182 -0.789795196207533
vn -0.3299915929679672 0.8139502014177474 0.4781115122881604
vn 0.06756188512060601 0.9969523241555975 -0.03900583340608026
vn -0.6568155190931458 0.7402146348447278 0.1437903621251698
vn 0.7923555228822361 0.5817881557483829 0.1835627064218482
vn 0.06756188512060601 0.9969523241555975 -0.03900583340608026
vn 0.7923555228822361 0.5817881557483829 0.1835627064218482
vn 0.5741138943406081 0.7119441490941347 0.40438690000504396
vn -0.3299915929679672 0.8139502014177474 0.4781115122881604
vn -0.23790456236691998 0.9281897513526176 0.2861209616385522
vn -0.578649047717684 0.7381864833104523 0.34676504355711024
vn -0.3299915929679672 0.8139502014177474 0.4781115122881604
vn -0.578649047717684 0.7381864833104523 0.34676504355711024
vn 0.06756188512060601 0.9969523241555975 -0.03900583340608026
vn -0.3299915929679672 0.8139502014177474 0.4781115122881604
vn 0.49828687913291814 0.7295892922965056 -0.46841183871702124
vn -0.2011202945557644 0.8582982099770791 0.47209618709320744
vn -0.3299915929679672 0.8139502014177474 0.4781115122881604
vn -0.2011202945557644 0.8582982099770791 0.47209618709320744
vn -0.23790456236691998 0.9281897513526176 0.2861209616385522
vn -0.14388900488150633 0.8509544119443476 -0.5051460611215922
vn -0.2513439699509097 0.6390447728969203 -0.726944280534925
vn 0.04143772254769778 0.5615522835073874 -0.8264030179263014
vn -0.14388900488150633 0.8509544119443476 -0.5051460611215922
vn 0.04143772254769778 0.5615522835073874 -0.8264030179263014
vn 0.06756188512060601 0.9969523241555975 -0.03900583340608026
vn -0.14388900488150633 0.8509544119443476 -0.5051460611215922
vn -0.4230627369819282 0.9022027152285749 -0.0839534466924781
vn -0.37174518591601063 0.6576217778155555 -0.6552397378753664
vn -0.14388900488150633 0.8509544119443476 -0.5051460611215922
vn -0.37174518591601063 0.6576217778155555 -0.6552397378753664
vn -0.2513439699509097 0.6390447728969203 -0.726944280534925
vn -0.08191883563098447 0.6197555096850556 -0.780507791494666
vn 0.04143772254769778 0.5615522835073874 -0.8264030179263014
vn -0.2513439699509097 0.6390447728969203 -0.726944280534925
vn -0.08191883563098447 0.6197555096850556 -0.780507791494666
vn -0.2513439699509097 0.6390447728969203 -0.726944280534925
vn -0.3144841089522255 0.6770299447828894 -0.6653797405119894
vn 0.13991116754652685 0.6813748722945829 -0.7184379921756007
vn 0.10127876437631983 0.8696766271294079 -0.48312025015644167
vn 0.30396986148485966 0.6297947793568078 -0.7148152622907439
vn 0.13991116754652685 0.6813748722945829 -0.7184379921756007
vn 0.30396986148485966 0.6297947793568078 -0.7148152622907439
vn 0.13381029744362968 0.5985969865824182 -0.789795196207533
vn 0.13991116754652685 0.6813748722945829 -0.7184379921756007
vn 0.13381029744362968 0.5985969865824182 -0.789795196207533
vn 0.04143772254769778 0.5615522835073874 -0.8264030179263014
vn 0.13991116754652685 0.6813748722945829 -0.7184379921756007
vn 0.04143772254769778 0.5615522835073874 -0.8264030179263014
vn -0.08191883563098447 0.6197555096850556 -0.780507791494666
vn -0.3144841089522255 0.6770299447828894 -0.6653797405119894
vn -0.2513439699509097 0.6390447728969203 -0.726944280534925
vn -0.37174518591601063 0.6576217778155555 -0.6552397378753664
vn -0.3144841089522255 0.6770299447828894 -0.6653797405119894
vn -0.37174518591601063 0.6576217778155555 -0.6552397378753664
vn -0.395280722937817 0.757034548094542 -0.5202421004350272
vn -0.395280722937817 0.757034548094542 -0.5202421004350272
vn -0.4737546892646895 0.7119848506751061 -0.518299205873272
vn -0.5012262780212628 0.6900572988175502 -0.5221045322247049
vn -0.578649047717684 0.7381864833104523 0.34676504355711024
vn -0.6181190015039486 0.7860454322375089 0.007840818726990339
vn -0.6568155190931458 0.7402146348447278 0.1437903621251698
vn -0.578649047717684 0.7381864833104523 0.34676504355711024
vn -0.6568155190931458 0.7402146348447278 0.1437903621251698
vn 0.06756188512060601 0.9969523241555975 -0.03900583340608026
vn 0.12965970749509267 0.8467747254333972 0.5159078644675634
vn 0.5741138943406081 0.7119441490941347 0.40438690000504396
vn 0.18135105254317824 0.9793013431942403 0.08989257455117243
vn 0.12965970749509267 0.8467747254333972 0.5159078644675634
vn 0.18135105254317824 0.9793013431942403 0.08989257455117243
vn -0.19639364439139104 0.9664863620744928 0.16532890965188274
vn 0.12965970749509267 0.8467747254333972 0.5159078644675634
vn -0.24636499701266953 0.9073916811391596 0.34050642467712294
vn -0.4230627369819282 0.9022027152285749 -0.0839534466924781
vn 0.12965970749509267 0.8467747254333972 0.5159078644675634
vn -0.4230627369819282 0.9022027152285749 -0.0839534466924781
vn -0.14388900488150633 0.8509544119443476 -0.5051460611215922
vn 0.13381029744362968 0.5985969865824182 -0.789795196207533
vn 0.30396986148485966 0.6297947793568078 -0.7148152622907439
vn 0.49828687913291814 0.7295892922965056 -0.46841183871702124
vn 0.13381029744362968 0.5985969865824182 -0.789795196207533
vn 0.49828687913291814 0.7295892922965056 -0.46841183871702124
vn -0.3299915929679672 0.8139502014177474 0.4781115122881604
vn -0.23790456236691998 0.9281897513526176 0.2861209616385522
vn -0.1754177103523671 0.9604728220078537 0.21614945079505293
vn -0.24550165694094556 0.9542220429790069 0.17084855613150632
vn -0.23790456236691998 0.9281897513526176 0.2861209616385522
vn -0.24550165694094556 0.9542220429790069 0.17084855613150632
vn -0.578649047717684 0.7381864833104523 0.34676504355711024
vn 0.49828687913291814 0.7295892922965056 -0.46841183871702124
vn 0.30396986148485966 0.6297947793568078 -0.7148152622907439
vn 0.5425437236380822 0.6139594996572568 -0.5733236788425324
vn 0.5425437236380822 0.6139594996572568 -0.5733236788425324
vn 0.30396986148485966 0.6297947793568078 -0.7148152622907439
vn 0.10127876437631983 0.8696766271294079 -0.48312025015644167
vn -0.2011202945557644 0.8582982099770791 0.47209618709320744
vn -0.08227892862587244 0.9766604778701965 0.19840486100531457
vn -0.1754177103523671 0.9604728220078537 0.21614945079505293
vn -0.2011202945557644 0.8582982099770791 0.47209618709320744
vn -0.1754177103523671 0.9604728220078537 0.21614945079505293
vn -0.23790456236691998 0.9281897513526176 0.2861209616385522
vn -0.37174518591601063 0.6576217778155555 -0.6552397378753664
vn -0.4737546892646895 0.7119848506751061 -0.518299205873272
vn -0.395280722937817 0.757034548094542 -0.5202421004350272
vn -0.5012262780212628 0.6900572988175502 -0.5221045322247049
vn -0.4737546892646895 0.7119848506751061 -0.518299205873272
vn -0.6064927735255421 0.6035924117205966 -0.5175352318196408
vn -0.5012262780212628 0.6900572988175502 -0.5221045322247049
vn -0.6064927735255421 0.6035924117205966 -0.5175352318196408
vn -0.5470152573480453 0.6503806800828964 -0.5270477010701791
vn -0.6064927735255421 0.6035924117205966 -0.5175352318196408
vn -0.4737546892646895 0.7119848506751061 -0.518299205873272
vn -0.37174518591601063 0.6576217778155555 -0.6552397378753664
vn -0.6064927735255421 0.6035924117205966 -0.5175352318196408
vn -0.37174518591601063 0.6576217778155555 -0.6552397378753664
vn -0.4230627369819282 0.9022027152285749 -0.0839534466924781
vn -0.24550165694094556 0.9542220429790069 0.17084855613150632
vn -0.6181190015039486 0.7860454322375089 0.007840818726990339
vn -0.578649047717684 0.7381864833104523 0.34676504355711024
vn -0.19639364439139104 0.9664863620744928 0.16532890965188274
vn -0.2511768323090585 0.9370999269185096 0.24239209120866734
vn -0.24636499701266953 0.9073916811391596 0.34050642467712294
vn -0.19639364439139104 0.9664863620744928 0.16532890965188274
vn -0.24636499701266953 0.9073916811391596 0.34050642467712294
vn 0.12965970749509267 0.8467747254333972 0.5159078644675634
vn 0.7923555228822361 0.5817881557483829 0.1835627064218482
vn 0.18135105254317824 0.9793013431942403 0.08989257455117243
vn 0.5741138943406081 0.7119441490941347 0.40438690000504396
f 1/1/1 2/2/2 3/3/3
f 4/4/4 5/5/5 6/6/6
f 7/7/7 8/8/8 9/9/9
f 10/10/10 11/11/11 12/12/12
f 13/13/13 14/14/14 15/15/15
f 16/16/16 17/17/17 18/18/18
f 19/19/19 20/20/20 21/21/21
f 22/22/22 23/23/23 24/24/24
f 25/25/25 26/26/26 27/27/27
f 28/28/28 29/29/29 30/30/30
f 31/31/31 32/32/32 33/33/33
f 34/34/34 35/35/35 36/36/36
f 37/37/37 38/38/38 39/39/39
f 40/40/40 41/41/41 42/42/42
f 43/43/43 44/44/44 45/45/45
f 46/46/46 47/47/47 48/48/48
f 49/49/49 50/50/50 51/51/51
f 52/52/52 53/53/53 54/54/54
f 55/55/55 56/56/56 57/57/57
f 58/58/58 59/59/59 60/60/60
f 61/61/61 62/62/62 63/63/63
f 64/64/64 65/65/65 66/66/66
f 67/67/67 68/68/68 69/69/69
f 70/70/70 71/71/71 72/72/72
f 73/73/73 74/74/74 75/75/75
f 76/76/76 77/77/77 78/78/78
f 79/79/79 80/80/80 81/81/81
f 82/82/82 83/83/83 84/84/84
f 85/85/85 86/86/86 87/87/87
f 88/88/88 89/89/89 90/90/90
f 91/91/91 92/92/92 93/93/93
f 94/94/94 95/95/95 96/96/96
f 97/97/97 98/98/98 99/99/99
f 100/100/100 101/101/101 102/102/102
f 103/103/103 104/104/104 105/105/105
f 106/106/106 107/107/107 108/108/108
f 109/109/109 110/110/110 111/111/111
f 112/112/112 113/113/113 114/114/114
f 115/115/115 116/116/116 117/117/117
f 118/118/118 119/119/119 120/120/120
f 121/121/121 122/122/122 123/123/123
f 124/124/124 125/125/125 126/126/126
f 127/127/127 128/128/128 129/129/129
f 130/130/130 131/131/131 132/132/132
f 133/133/133 134/134/134 135/135/135
f 136/136/136 137/137/137 138/138/138
