mtllib ArcadaCompleta.mtl
o D46C_CL
usemtl Esmalte
v -41.5786018371582 -21.90868377685547 -4.483160600528611
v -42.80039978027344 -21.87204360961914 -4.310100660190476
v -42.84260177612305 -19.809513092041016 -4.787990674838913
v -41.5786018371582 -21.90868377685547 -4.483160600528611
v -42.84260177612305 -19.809513092041016 -4.787990674838913
v -41.5786018371582 -20.04964256286621 -4.699130639896286
v -40.3568000793457 -21.87204360961914 -4.310100660190476
v -40.314701080322266 -19.809513092041016 -4.787990674838913
v -38.838199615478516 -20.04964256286621 -4.530510530338181
v -40.3568000793457 -21.87204360961914 -4.310100660190476
v -38.838199615478516 -20.04964256286621 -4.530510530338181
v -39.10029983520508 -21.70587158203125 -4.22707043634404
v -41.5786018371582 -20.04964256286621 -4.699130639896286
v -40.314701080322266 -19.809513092041016 -4.787990674838913
v -40.3568000793457 -21.87204360961914 -4.310100660190476
v -41.5786018371582 -20.04964256286621 -4.699130639896286
v -40.3568000793457 -21.87204360961914 -4.310100660190476
v -41.5786018371582 -21.90868377685547 -4.483160600528611
v -44.05690002441406 -21.70587158203125 -4.22707043634404
v -44.319000244140625 -20.04964256286621 -4.530510530338181
v -42.84260177612305 -19.809513092041016 -4.787990674838913
v -44.05690002441406 -21.70587158203125 -4.22707043634404
v -42.84260177612305 -19.809513092041016 -4.787990674838913
v -42.80039978027344 -21.87204360961914 -4.310100660190476
vt 0.48748499155044556 0.0004995465278625488
vt 0.5957639813423157 0.005321621894836426
vt 0.5994979739189148 0.2767939567565918
vt 0.48748499155044556 0.0004995465278625488
vt 0.5994979739189148 0.2767939567565918
vt 0.48748499155044556 0.24518799781799316
vt 0.37920698523521423 0.005321621894836426
vt 0.3754729926586151 0.2767939567565918
vt 0.24463100731372833 0.24518799781799316
vt 0.37920698523521423 0.005321621894836426
vt 0.24463100731372833 0.24518799781799316
vt 0.26785698533058167 0.02719259262084961
vt 0.48748499155044556 0.24518799781799316
vt 0.3754729926586151 0.2767939567565918
vt 0.37920698523521423 0.005321621894836426
vt 0.48748499155044556 0.24518799781799316
vt 0.37920698523521423 0.005321621894836426
vt 0.48748499155044556 0.0004995465278625488
vt 0.7071139812469482 0.02719259262084961
vt 0.730338990688324 0.24518799781799316
vt 0.5994979739189148 0.2767939567565918
vt 0.7071139812469482 0.02719259262084961
vt 0.5994979739189148 0.2767939567565918
vt 0.5957639813423157 0.005321621894836426
vn 0.009479241769058115 -0.156054486757012 -0.9877029619974261
vn -0.11843252279756794 -0.22643166967360362 -0.9668001016304393
vn -0.084894334703809 -0.1945993406130112 -0.9772021533788078
vn 0.009479241769058115 -0.156054486757012 -0.9877029619974261
vn -0.084894334703809 -0.1945993406130112 -0.9772021533788078
vn 0.051178743236581614 -0.15541811960978613 -0.9865221458931787
vn 0.08489424139186878 -0.1945976798103636 -0.9772024922148543
vn 0.05981924830351425 -0.2264754807792514 -0.972178231672675
vn 0.11510721321152424 -0.21325802297361027 -0.9701913961193759
vn 0.08489424139186878 -0.1945976798103636 -0.9772024922148543
vn 0.11510721321152424 -0.21325802297361027 -0.9701913961193759
vn 0.09011919949018424 -0.19325909238012592 -0.9770002318810668
vn 0.051178743236581614 -0.15541811960978613 -0.9865221458931787
vn 0.05981924830351425 -0.2264754807792514 -0.972178231672675
vn 0.08489424139186878 -0.1945976798103636 -0.9772024922148543
vn 0.051178743236581614 -0.15541811960978613 -0.9865221458931787
vn 0.08489424139186878 -0.1945976798103636 -0.9772024922148543
vn 0.009479241769058115 -0.156054486757012 -0.9877029619974261
vn -0.11511129541727692 -0.21326127010699625 -0.9701901980228965
vn -0.13678651087262028 -0.19942034870278547 -0.9703200373931035
vn -0.084894334703809 -0.1945993406130112 -0.9772021533788078
vn -0.11511129541727692 -0.21326127010699625 -0.9701901980228965
vn -0.084894334703809 -0.1945993406130112 -0.9772021533788078
vn -0.11843252279756794 -0.22643166967360362 -0.9668001016304393
f 1/1/1 2/2/2 3/3/3
f 4/4/4 5/5/5 6/6/6
f 7/7/7 8/8/8 9/9/9
f 10/10/10 11/11/11 12/12/12
f 13/13/13 14/14/14 15/15/15
f 16/16/16 17/17/17 18/18/18
f 19/19/19 20/20/20 21/21/21
f 22/22/22 23/23/23 24/24/24
