mtllib ArcadaCompleta.mtl
o D46C_D
usemtl Esmalte
v -46.93000030517578 -16.31966209411621 -0.36900757299412495
v -46.80730056762695 -16.161832809448242 0.5835713888550876
v -46.263099670410156 -15.85083293914795 0.55335439695369
v -46.93000030517578 -16.31966209411621 -0.36900757299412495
v -46.263099670410156 -15.85083293914795 0.55335439695369
v -46.2661018371582 -15.837082862854004 -0.36900757299412484
v -46.93000030517578 -16.31966209411621 -0.36900757299412495
v -47.356201171875 -17.283472061157227 -0.14501658128250866
v -47.02040100097656 -16.991622924804688 1.5439694072152255
v -46.93000030517578 -16.31966209411621 -0.36900757299412495
v -47.02040100097656 -16.991622924804688 1.5439694072152255
v -46.80730056762695 -16.161832809448242 0.5835713888550876
v -46.93000030517578 -16.31966209411621 -0.36900757299412495
v -46.2661018371582 -15.837082862854004 -0.36900757299412484
v -45.85409927368164 -15.85083293914795 -1.8464805935477138
v -46.93000030517578 -16.31966209411621 -0.36900757299412495
v -45.85409927368164 -15.85083293914795 -1.8464805935477138
v -46.73910140991211 -16.161832809448242 -1.876700625285995
v -46.74020004272461 -18.892541885375977 0.0010650083455019626
v -46.65909957885742 -18.691051483154297 1.6902494574929352
v -47.02040100097656 -16.991622924804688 1.5439694072152255
v -46.74020004272461 -18.892541885375977 0.0010650083455019626
v -47.02040100097656 -16.991622924804688 1.5439694072152255
v -47.356201171875 -17.283472061157227 -0.14501658128250866
v -46.74020004272461 -18.892541885375977 0.0010650083455019626
v -46.40919876098633 -20.04964256286621 0.0010650083455017057
v -46.233299255371094 -20.0042724609375 1.7190394545937648
v -46.74020004272461 -18.892541885375977 0.0010650083455019626
v -46.233299255371094 -20.0042724609375 1.7190394545937648
v -46.65909957885742 -18.691051483154297 1.6902494574929352
v -46.80730056762695 -16.161832809448242 0.5835713888550876
v -46.44139862060547 -15.929412841796875 1.43456937326442
v -46.02870178222656 -15.611412048339844 1.0977994347954871
v -46.80730056762695 -16.161832809448242 0.5835713888550876
v -46.02870178222656 -15.611412048339844 1.0977994347954871
v -46.263099670410156 -15.85083293914795 0.55335439695369
v -46.73910140991211 -16.161832809448242 -1.876700625285995
v -47.10540008544922 -17.11968231201172 -1.6611705874060514
v -47.356201171875 -17.283472061157227 -0.14501658128250866
v -46.73910140991211 -16.161832809448242 -1.876700625285995
v -47.356201171875 -17.283472061157227 -0.14501658128250866
v -46.93000030517578 -16.31966209411621 -0.36900757299412495
v -46.73910140991211 -16.161832809448242 -1.876700625285995
v -45.85409927368164 -15.85083293914795 -1.8464805935477138
v -45.521400451660156 -15.436212539672852 -2.6058105085944057
v -46.73910140991211 -16.161832809448242 -1.876700625285995
v -45.521400451660156 -15.436212539672852 -2.6058105085944057
v -45.96500015258789 -15.791692733764648 -3.0052004908179164
v -47.356201171875 -17.283472061157227 -0.14501658128250866
v -47.10540008544922 -17.11968231201172 -1.6611705874060514
v -46.72850036621094 -18.8159122467041 -1.4281506394003756
v -47.356201171875 -17.283472061157227 -0.14501658128250866
v -46.72850036621094 -18.8159122467041 -1.4281506394003756
v -46.74020004272461 -18.892541885375977 0.0010650083455019626
v -46.72850036621094 -18.8159122467041 -1.4281506394003756
v -47.10540008544922 -17.11968231201172 -1.6611705874060514
v -46.3567008972168 -16.842391967773438 -3.050920591220749
v -46.72850036621094 -18.8159122467041 -1.4281506394003756
v -46.3567008972168 -16.842391967773438 -3.050920591220749
v -46.264400482177734 -18.631052017211914 -2.706270561084641
v -46.72850036621094 -18.8159122467041 -1.4281506394003756
v -46.19559860229492 -20.04964256286621 -1.4317406271551976
v -46.40919876098633 -20.04964256286621 0.0010650083455017057
v -46.72850036621094 -18.8159122467041 -1.4281506394003756
v -46.40919876098633 -20.04964256286621 0.0010650083455017057
v -46.74020004272461 -18.892541885375977 0.0010650083455019626
v -47.02040100097656 -16.991622924804688 1.5439694072152255
v -46.44139862060547 -15.929412841796875 1.43456937326442
v -46.80730056762695 -16.161832809448242 0.5835713888550876
v -46.2661018371582 -15.837082862854004 -0.36900757299412484
v -45.35960006713867 -15.770042419433594 -1.2128705834006188
v -45.85409927368164 -15.85083293914795 -1.8464805935477138
v -46.2661018371582 -15.837082862854004 -0.36900757299412484
v -45.45349884033203 -16.013042449951172 -0.5423895572279811
v -45.479801177978516 -16.087322235107422 -0.7266265605543972
v -46.263099670410156 -15.85083293914795 0.55335439695369
v -45.563899993896484 -15.637052536010742 0.8785694385911107
v -45.45349884033203 -16.013042449951172 -0.5423895572279811
v -46.263099670410156 -15.85083293914795 0.55335439695369
v -45.45349884033203 -16.013042449951172 -0.5423895572279811
v -46.2661018371582 -15.837082862854004 -0.36900757299412484
v -45.85409927368164 -15.85083293914795 -1.8464805935477138
v -45.35960006713867 -15.770042419433594 -1.2128705834006188
v -45.521400451660156 -15.436212539672852 -2.6058105085944057
v -45.96500015258789 -15.791692733764648 -3.0052004908179164
v -46.3567008972168 -16.842391967773438 -3.050920591220749
v -47.10540008544922 -17.11968231201172 -1.6611705874060514
v -45.96500015258789 -15.791692733764648 -3.0052004908179164
v -47.10540008544922 -17.11968231201172 -1.6611705874060514
v -46.73910140991211 -16.161832809448242 -1.876700625285995
v -46.264400482177734 -18.631052017211914 -2.706270561084641
v -46.097599029541016 -20.04964256286621 -2.533580646381272
v -46.19559860229492 -20.04964256286621 -1.4317406271551976
v -46.264400482177734 -18.631052017211914 -2.706270561084641
v -46.19559860229492 -20.04964256286621 -1.4317406271551976
v -46.72850036621094 -18.8159122467041 -1.4281506394003756
v -46.02870178222656 -15.611412048339844 1.0977994347954871
v -45.563899993896484 -15.637052536010742 0.8785694385911107
v -46.263099670410156 -15.85083293914795 0.55335439695369
v -45.479801177978516 -16.087322235107422 -0.7266265605543972
v -45.35960006713867 -15.770042419433594 -1.2128705834006188
v -46.2661018371582 -15.837082862854004 -0.36900757299412484
v -46.087398529052734 -21.270421981811523 0.0010650083455014346
v -45.9744987487793 -21.257001876831055 1.7796293641472924
v -46.233299255371094 -20.0042724609375 1.7190394545937648
v -46.087398529052734 -21.270421981811523 0.0010650083455014346
v -46.233299255371094 -20.0042724609375 1.7190394545937648
v -46.40919876098633 -20.04964256286621 0.0010650083455017057
v -45.9744987487793 -21.257001876831055 1.7796293641472924
v -45.9807014465332 -20.04964256286621 2.535719528331863
v -46.233299255371094 -20.0042724609375 1.7190394545937648
v -46.40919876098633 -20.04964256286621 0.0010650083455017057
v -46.19559860229492 -20.04964256286621 -1.4317406271551976
v -45.9744987487793 -21.257001876831055 -1.7775006149863135
v -46.40919876098633 -20.04964256286621 0.0010650083455017057
v -45.9744987487793 -21.257001876831055 -1.7775006149863135
v -46.087398529052734 -21.270421981811523 0.0010650083455014346
v -46.19559860229492 -20.04964256286621 -1.4317406271551976
v -46.097599029541016 -20.04964256286621 -2.533580646381272
v -45.9744987487793 -21.257001876831055 -1.7775006149863135
vt 0.03826750069856644 0.5292209982872009
vt 0.04914040118455887 0.4355030059814453
vt 0.09736510366201401 0.43847501277923584
vt 0.03826750069856644 0.5292209982872009
vt 0.09736510366201401 0.43847501277923584
vt 0.09709859639406204 0.5292209982872009
vt 0.4707790017127991 0.736132025718689
vt 0.4928160011768341 0.6092740297317505
vt 0.6589850187301636 0.6476879715919495
vt 0.4707790017127991 0.736132025718689
vt 0.6589850187301636 0.6476879715919495
vt 0.5644969940185547 0.7569059729576111
vt 0.03826750069856644 0.5292209982872009
vt 0.09709859639406204 0.5292209982872009
vt 0.13361400365829468 0.6745799779891968
vt 0.03826750069856644 0.5292209982872009
vt 0.13361400365829468 0.6745799779891968
vt 0.055181898176670074 0.6775529980659485
vt 0.5071880221366882 0.39748597145080566
vt 0.6733760237693787 0.42400699853897095
vt 0.6589850187301636 0.6476879715919495
vt 0.5071880221366882 0.39748597145080566
vt 0.6589850187301636 0.6476879715919495
vt 0.4928160011768341 0.6092740297317505
vt 0.5071880221366882 0.39748597145080566
vt 0.5071880221366882 0.24518799781799316
vt 0.6762089729309082 0.25116002559661865
vt 0.5071880221366882 0.39748597145080566
vt 0.6762089729309082 0.25116002559661865
vt 0.6733760237693787 0.42400699853897095
vt 0.04914040118455887 0.4355030059814453
vt 0.08157079666852951 0.3517780303955078
vt 0.11814600229263306 0.3849110007286072
vt 0.04914040118455887 0.4355030059814453
vt 0.11814600229263306 0.3849110007286072
vt 0.09736510366201401 0.43847501277923584
vt 0.3224470019340515 0.7569059729576111
vt 0.3436509966850281 0.6308320164680481
vt 0.4928160011768341 0.6092740297317505
vt 0.3224470019340515 0.7569059729576111
vt 0.4928160011768341 0.6092740297317505
vt 0.4707790017127991 0.736132025718689
vt 0.055181898176670074 0.6775529980659485
vt 0.13361400365829468 0.6745799779891968
vt 0.163099005818367 0.7492859959602356
vt 0.055181898176670074 0.6775529980659485
vt 0.163099005818367 0.7492859959602356
vt 0.12378700077533722 0.788578987121582
vt 0.4928160011768341 0.6092740297317505
vt 0.3436509966850281 0.6308320164680481
vt 0.3665759861469269 0.40757203102111816
vt 0.4928160011768341 0.6092740297317505
vt 0.3665759861469269 0.40757203102111816
vt 0.5071880221366882 0.39748597145080566
vt 0.3665759861469269 0.40757203102111816
vt 0.3436509966850281 0.6308320164680481
vt 0.2069219946861267 0.6673290133476257
vt 0.3665759861469269 0.40757203102111816
vt 0.2069219946861267 0.6673290133476257
vt 0.24083100259304047 0.4319039583206177
vt 0.3665759861469269 0.40757203102111816
vt 0.3662239909172058 0.24518799781799316
vt 0.5071880221366882 0.24518799781799316
vt 0.3665759861469269 0.40757203102111816
vt 0.5071880221366882 0.24518799781799316
vt 0.5071880221366882 0.39748597145080566
vt 0.6589850187301636 0.6476879715919495
vt 0.648222029209137 0.7874979972839355
vt 0.5644969940185547 0.7569059729576111
vt 0.09709859639406204 0.5292209982872009
vt 0.17743900418281555 0.6122429966926575
vt 0.13361400365829468 0.6745799779891968
vt 0.09709859639406204 0.5292209982872009
vt 0.1691170036792755 0.5462790131568909
vt 0.16678699851036072 0.5644050240516663
vt 0.09736510366201401 0.43847501277923584
vt 0.15933500230312347 0.40648001432418823
vt 0.1691170036792755 0.5462790131568909
vt 0.09736510366201401 0.43847501277923584
vt 0.1691170036792755 0.5462790131568909
vt 0.09709859639406204 0.5292209982872009
vt 0.13361400365829468 0.6745799779891968
vt 0.17743900418281555 0.6122429966926575
vt 0.163099005818367 0.7492859959602356
vt 0.21142099797725677 0.8056240081787109
vt 0.2069219946861267 0.6673290133476257
vt 0.3436509966850281 0.6308320164680481
vt 0.21142099797725677 0.8056240081787109
vt 0.3436509966850281 0.6308320164680481
vt 0.3224470019340515 0.7569059729576111
vt 0.24083100259304047 0.4319039583206177
vt 0.2578200101852417 0.24518799781799316
vt 0.3662239909172058 0.24518799781799316
vt 0.24083100259304047 0.4319039583206177
vt 0.3662239909172058 0.24518799781799316
vt 0.3665759861469269 0.40757203102111816
vt 0.11814600229263306 0.3849110007286072
vt 0.15933500230312347 0.40648001432418823
vt 0.09736510366201401 0.43847501277923584
vt 0.16678699851036072 0.5644050240516663
vt 0.17743900418281555 0.6122429966926575
vt 0.09709859639406204 0.5292209982872009
vt 0.5071880221366882 0.0845080018043518
vt 0.6821699738502502 0.08627378940582275
vt 0.6762089729309082 0.25116002559661865
vt 0.5071880221366882 0.0845080018043518
vt 0.6762089729309082 0.25116002559661865
vt 0.5071880221366882 0.24518799781799316
vt 0.6821699738502502 0.08627378940582275
vt 0.7565569877624512 0.24518799781799316
vt 0.6762089729309082 0.25116002559661865
vt 0.5071880221366882 0.24518799781799316
vt 0.3662239909172058 0.24518799781799316
vt 0.33220601081848145 0.08627378940582275
vt 0.5071880221366882 0.24518799781799316
vt 0.33220601081848145 0.08627378940582275
vt 0.5071880221366882 0.0845080018043518
vt 0.3662239909172058 0.24518799781799316
vt 0.2578200101852417 0.24518799781799316
vt 0.33220601081848145 0.08627378940582275
vn -0.7567233667411601 0.6537328041185032 -0.001779619982550069
vn -0.7797001343667549 0.6223768387057667 0.06866419089365494
vn -0.26523470559975765 0.9550698284811635 -0.1322579814996837
vn -0.7567233667411601 0.6537328041185032 -0.001779619982550069
vn -0.26523470559975765 0.9550698284811635 -0.1322579814996837
vn -0.2165912819154448 0.9762573758743581 -0.003122923171796562
vn -0.7567233667411601 0.6537328041185032 -0.001779619982550069
vn -0.9987293171613318 -0.05007148378533416 0.005709426765873289
vn -0.9878146055732364 0.006302084775930049 0.15550751989427544
vn -0.7567233667411601 0.6537328041185032 -0.001779619982550069
vn -0.9878146055732364 0.006302084775930049 0.15550751989427544
vn -0.7797001343667549 0.6223768387057667 0.06866419089365494
vn -0.7567233667411601 0.6537328041185032 -0.001779619982550069
vn -0.2165912819154448 0.9762573758743581 -0.003122923171796562
vn -0.3773643518457371 0.9244140739367424 0.05526993634628123
vn -0.7567233667411601 0.6537328041185032 -0.001779619982550069
vn -0.3773643518457371 0.9244140739367424 0.05526993634628123
vn -0.7699290502842048 0.6300839284851892 -0.10101237841538757
vn -0.9526859118151855 -0.29174752787230956 0.08528149511625985
vn -0.9658001201605415 -0.24791725250060562 0.0759418449238269
vn -0.9878146055732364 0.006302084775930049 0.15550751989427544
vn -0.9526859118151855 -0.29174752787230956 0.08528149511625985
vn -0.9878146055732364 0.006302084775930049 0.15550751989427544
vn -0.9987293171613318 -0.05007148378533416 0.005709426765873289
vn -0.9526859118151855 -0.29174752787230956 0.08528149511625985
vn -0.963212176647024 -0.26788104474415597 -0.02149531636616933
vn -0.9619174936152616 -0.25037366905066555 0.10967115082390987
vn -0.9526859118151855 -0.29174752787230956 0.08528149511625985
vn -0.9619174936152616 -0.25037366905066555 0.10967115082390987
vn -0.9658001201605415 -0.24791725250060562 0.0759418449238269
vn -0.7797001343667549 0.6223768387057667 0.06866419089365494
vn -0.7745248885882291 0.6102791124806826 0.1663448280746403
vn -0.45848379744983025 0.8798113148974014 -0.12539799701146942
vn -0.7797001343667549 0.6223768387057667 0.06866419089365494
vn -0.45848379744983025 0.8798113148974014 -0.12539799701146942
vn -0.26523470559975765 0.9550698284811635 -0.1322579814996837
vn -0.7699290502842048 0.6300839284851892 -0.10101237841538757
vn -0.9343121675412445 -0.0001827587408052152 -0.35645580396961485
vn -0.9987293171613318 -0.05007148378533416 0.005709426765873289
vn -0.7699290502842048 0.6300839284851892 -0.10101237841538757
vn -0.9987293171613318 -0.05007148378533416 0.005709426765873289
vn -0.7567233667411601 0.6537328041185032 -0.001779619982550069
vn -0.7699290502842048 0.6300839284851892 -0.10101237841538757
vn -0.3773643518457371 0.9244140739367424 0.05526993634628123
vn -0.47040951426442895 0.8714867310475368 0.13865701027204705
vn -0.7699290502842048 0.6300839284851892 -0.10101237841538757
vn -0.47040951426442895 0.8714867310475368 0.13865701027204705
vn -0.8150321368977116 0.4407793028057046 -0.3760800739763636
vn -0.9987293171613318 -0.05007148378533416 0.005709426765873289
vn -0.9343121675412445 -0.0001827587408052152 -0.35645580396961485
vn -0.9273951051777258 -0.2848562299639408 -0.24247731263589486
vn -0.9987293171613318 -0.05007148378533416 0.005709426765873289
vn -0.9273951051777258 -0.2848562299639408 -0.24247731263589486
vn -0.9526859118151855 -0.29174752787230956 0.08528149511625985
vn -0.9273951051777258 -0.2848562299639408 -0.24247731263589486
vn -0.9343121675412445 -0.0001827587408052152 -0.35645580396961485
vn -0.8984226088372305 -0.05965227700100883 -0.43506140001004423
vn -0.9273951051777258 -0.2848562299639408 -0.24247731263589486
vn -0.8984226088372305 -0.05965227700100883 -0.43506140001004423
vn -0.9357140559523022 -0.20205765745013704 -0.2891572384690635
vn -0.9273951051777258 -0.2848562299639408 -0.24247731263589486
vn -0.9524817989838952 -0.25048970984316443 -0.17330126331648663
vn -0.963212176647024 -0.26788104474415597 -0.02149531636616933
vn -0.9273951051777258 -0.2848562299639408 -0.24247731263589486
vn -0.963212176647024 -0.26788104474415597 -0.02149531636616933
vn -0.9526859118151855 -0.29174752787230956 0.08528149511625985
vn -0.9878146055732364 0.006302084775930049 0.15550751989427544
vn -0.7745248885882291 0.6102791124806826 0.1663448280746403
vn -0.7797001343667549 0.6223768387057667 0.06866419089365494
vn -0.2165912819154448 0.9762573758743581 -0.003122923171796562
vn -0.1011802636799534 0.9720753986035418 0.21173562211262545
vn -0.3773643518457371 0.9244140739367424 0.05526993634628123
vn -0.2165912819154448 0.9762573758743581 -0.003122923171796562
vn 0.0013884655706916569 0.9848185311534773 -0.1735814876652077
vn 0.4277124070736687 0.8289833576410134 0.3603452366682259
vn -0.26523470559975765 0.9550698284811635 -0.1322579814996837
vn -0.15594340930077322 0.9453988117228898 -0.28618654735783744
vn 0.0013884655706916569 0.9848185311534773 -0.1735814876652077
vn -0.26523470559975765 0.9550698284811635 -0.1322579814996837
vn 0.0013884655706916569 0.9848185311534773 -0.1735814876652077
vn -0.2165912819154448 0.9762573758743581 -0.003122923171796562
vn -0.3773643518457371 0.9244140739367424 0.05526993634628123
vn -0.1011802636799534 0.9720753986035418 0.21173562211262545
vn -0.47040951426442895 0.8714867310475368 0.13865701027204705
vn -0.8150321368977116 0.4407793028057046 -0.3760800739763636
vn -0.8984226088372305 -0.05965227700100883 -0.43506140001004423
vn -0.9343121675412445 -0.0001827587408052152 -0.35645580396961485
vn -0.8150321368977116 0.4407793028057046 -0.3760800739763636
vn -0.9343121675412445 -0.0001827587408052152 -0.35645580396961485
vn -0.7699290502842048 0.6300839284851892 -0.10101237841538757
vn -0.9357140559523022 -0.20205765745013704 -0.2891572384690635
vn -0.9862710380639442 -0.1399089843245029 -0.08772066792698192
vn -0.9524817989838952 -0.25048970984316443 -0.17330126331648663
vn -0.9357140559523022 -0.20205765745013704 -0.2891572384690635
vn -0.9524817989838952 -0.25048970984316443 -0.17330126331648663
vn -0.9273951051777258 -0.2848562299639408 -0.24247731263589486
vn -0.45848379744983025 0.8798113148974014 -0.12539799701146942
vn -0.15594340930077322 0.9453988117228898 -0.28618654735783744
vn -0.26523470559975765 0.9550698284811635 -0.1322579814996837
vn 0.4277124070736687 0.8289833576410134 0.3603452366682259
vn -0.1011802636799534 0.9720753986035418 0.21173562211262545
vn -0.2165912819154448 0.9762573758743581 -0.003122923171796562
vn -0.9711446060661318 -0.2359548781541116 0.034690770875493375
vn -0.9716958509176389 -0.19423882874319032 0.13445612934306736
vn -0.9619174936152616 -0.25037366905066555 0.10967115082390987
vn -0.9711446060661318 -0.2359548781541116 0.034690770875493375
vn -0.9619174936152616 -0.25037366905066555 0.10967115082390987
vn -0.963212176647024 -0.26788104474415597 -0.02149531636616933
vn -0.9716958509176389 -0.19423882874319032 0.13445612934306736
vn -0.9423500283363669 -0.18106876627606816 0.28140811284273803
vn -0.9619174936152616 -0.25037366905066555 0.10967115082390987
vn -0.963212176647024 -0.26788104474415597 -0.02149531636616933
vn -0.9524817989838952 -0.25048970984316443 -0.17330126331648663
vn -0.9767342399443365 -0.19137398424561886 -0.09677924712621556
vn -0.963212176647024 -0.26788104474415597 -0.02149531636616933
vn -0.9767342399443365 -0.19137398424561886 -0.09677924712621556
vn -0.9711446060661318 -0.2359548781541116 0.034690770875493375
vn -0.9524817989838952 -0.25048970984316443 -0.17330126331648663
vn -0.9862710380639442 -0.1399089843245029 -0.08772066792698192
vn -0.9767342399443365 -0.19137398424561886 -0.09677924712621556
f 1/1/1 2/2/2 3/3/3
f 4/4/4 5/5/5 6/6/6
f 7/7/7 8/8/8 9/9/9
f 10/10/10 11/11/11 12/12/12
f 13/13/13 14/14/14 15/15/15
f 16/16/16 17/17/17 18/18/18
f 19/19/19 20/20/20 21/21/21
f 22/22/22 23/23/23 24/24/24
f 25/25/25 26/26/26 27/27/27
f 28/28/28 29/29/29 30/30/30
f 31/31/31 32/32/32 33/33/33
f 34/34/34 35/35/35 36/36/36
f 37/37/37 38/38/38 39/39/39
f 40/40/40 41/41/41 42/42/42
f 43/43/43 44/44/44 45/45/45
f 46/46/46 47/47/47 48/48/48
f 49/49/49 50/50/50 51/51/51
f 52/52/52 53/53/53 54/54/54
f 55/55/55 56/56/56 57/57/57
f 58/58/58 59/59/59 60/60/60
f 61/61/61 62/62/62 63/63/63
f 64/64/64 65/65/65 66/66/66
f 67/67/67 68/68/68 69/69/69
f 70/70/70 71/71/71 72/72/72
f 73/73/73 74/74/74 75/75/75
f 76/76/76 77/77/77 78/78/78
f 79/79/79 80/80/80 81/81/81
f 82/82/82 83/83/83 84/84/84
f 85/85/85 86/86/86 87/87/87
f 88/88/88 89/89/89 90/90/90
f 91/91/91 92/92/92 93/93/93
f 94/94/94 95/95/95 96/96/96
f 97/97/97 98/98/98 99/99/99
f 100/100/100 101/101/101 102/102/102
f 103/103/103 104/104/104 105/105/105
f 106/106/106 107/107/107 108/108/108
f 109/109/109 110/110/110 111/111/111
f 112/112/112 113/113/113 114/114/114
f 115/115/115 116/116/116 117/117/117
f 118/118/118 119/119/119 120/120/120
