mtllib ArcadaCompleta.mtl
o D51C_CL
usemtl Esmalte
v -4.435910224914551 51.31706237792969 -2.1346893005738705
v -4.453380107879639 52.449161529541016 -2.486479251898333
v -3.5035300254821777 52.4134635925293 -2.264419286764666
v -4.435910224914551 51.31706237792969 -2.1346893005738705
v -3.5035300254821777 52.4134635925293 -2.264419286764666
v -3.4442999362945557 51.31706237792969 -2.0864691429505795
v -5.366779804229736 53.33856201171875 -1.8055792742143122
v -5.40516996383667 52.449161529541016 -2.264689176596209
v -6.1898698806762695 52.10676193237305 -1.691049306906268
v -5.366779804229736 53.33856201171875 -1.8055792742143122
v -6.1898698806762695 52.10676193237305 -1.691049306906268
v -6.144519805908203 52.88276290893555 -1.37432929805617
v -5.427519798278809 51.31706237792969 -2.0864691429505795
v -5.40516996383667 52.449161529541016 -2.264689176596209
v -4.453380107879639 52.449161529541016 -2.486479251898333
v -5.427519798278809 51.31706237792969 -2.0864691429505795
v -4.453380107879639 52.449161529541016 -2.486479251898333
v -4.435910224914551 51.31706237792969 -2.1346893005738705
v -3.4442999362945557 51.31706237792969 -2.0864691429505795
v -3.5035300254821777 52.4134635925293 -2.264419286764666
v -2.5223300457000732 51.97106170654297 -1.606519310987994
v -3.4442999362945557 51.31706237792969 -2.0864691429505795
v -2.5223300457000732 51.97106170654297 -1.606519310987994
v -2.410360097885132 51.31706237792969 -1.5715392523179503
v -2.5223300457000732 51.97106170654297 -1.606519310987994
v -3.5035300254821777 52.4134635925293 -2.264419286764666
v -3.54079008102417 53.33856201171875 -1.8055792742143122
v -2.5223300457000732 51.97106170654297 -1.606519310987994
v -3.54079008102417 53.33856201171875 -1.8055792742143122
v -2.7630600929260254 52.88276290893555 -1.37432929805617
v -4.453380107879639 52.449161529541016 -2.486479251898333
v -5.40516996383667 52.449161529541016 -2.264689176596209
v -5.366779804229736 53.33856201171875 -1.8055792742143122
v -4.453380107879639 52.449161529541016 -2.486479251898333
v -5.366779804229736 53.33856201171875 -1.8055792742143122
v -4.453790187835693 53.35756301879883 -1.9677393131623713
v -6.1898698806762695 52.10676193237305 -1.691049306906268
v -5.40516996383667 52.449161529541016 -2.264689176596209
v -5.427519798278809 51.31706237792969 -2.0864691429505795
v -6.1898698806762695 52.10676193237305 -1.691049306906268
v -5.427519798278809 51.31706237792969 -2.0864691429505795
v -6.461460113525391 51.31706237792969 -1.5715392523179503
v -4.453790187835693 53.35756301879883 -1.9677393131623713
v -3.54079008102417 53.33856201171875 -1.8055792742143122
v -3.5035300254821777 52.4134635925293 -2.264419286764666
v -4.453790187835693 53.35756301879883 -1.9677393131623713
v -3.5035300254821777 52.4134635925293 -2.264419286764666
v -4.453380107879639 52.449161529541016 -2.486479251898333
vt 0.5043550133705139 0.6593829989433289
vt 0.507004976272583 0.8480769991874695
vt 0.36289000511169434 0.8421310186386108
vt 0.5043550133705139 0.6593829989433289
vt 0.36289000511169434 0.8421310186386108
vt 0.35390201210975647 0.6593829989433289
vt 0.6455910205841064 0.9963350296020508
vt 0.651416003704071 0.8480769991874695
vt 0.7704749703407288 0.7910140156745911
vt 0.6455910205841064 0.9963350296020508
vt 0.7704749703407288 0.7910140156745911
vt 0.7635930180549622 0.9203550219535828
vt 0.6548069715499878 0.6593829989433289
vt 0.651416003704071 0.8480769991874695
vt 0.507004976272583 0.8480769991874695
vt 0.6548069715499878 0.6593829989433289
vt 0.507004976272583 0.8480769991874695
vt 0.5043550133705139 0.6593829989433289
vt 0.35390201210975647 0.6593829989433289
vt 0.36289000511169434 0.8421310186386108
vt 0.21401800215244293 0.7684029936790466
vt 0.35390201210975647 0.6593829989433289
vt 0.21401800215244293 0.7684029936790466
vt 0.1970279961824417 0.6593829989433289
vt 0.21401800215244293 0.7684029936790466
vt 0.36289000511169434 0.8421310186386108
vt 0.36854299902915955 0.9963350296020508
vt 0.21401800215244293 0.7684029936790466
vt 0.36854299902915955 0.9963350296020508
vt 0.250542014837265 0.9203550219535828
vt 0.507004976272583 0.8480769991874695
vt 0.651416003704071 0.8480769991874695
vt 0.6455910205841064 0.9963350296020508
vt 0.507004976272583 0.8480769991874695
vt 0.6455910205841064 0.9963350296020508
vt 0.5070670247077942 0.9994999766349792
vt 0.7704749703407288 0.7910140156745911
vt 0.651416003704071 0.8480769991874695
vt 0.6548069715499878 0.6593829989433289
vt 0.7704749703407288 0.7910140156745911
vt 0.6548069715499878 0.6593829989433289
vt 0.8116809725761414 0.6593829989433289
vt 0.5070670247077942 0.9994999766349792
vt 0.36854299902915955 0.9963350296020508
vt 0.36289000511169434 0.8421310186386108
vt 0.5070670247077942 0.9994999766349792
vt 0.36289000511169434 0.8421310186386108
vt 0.507004976272583 0.8480769991874695
vn 0.06970114181101163 -0.2509060175299272 -0.9654987939907088
vn -0.03439551301411851 0.09705090448254107 -0.9946849102221348
vn 0.34098982840255254 0.12083725330560614 -0.9322683600442282
vn 0.06970114181101163 -0.2509060175299272 -0.9654987939907088
vn 0.34098982840255254 0.12083725330560614 -0.9322683600442282
vn 0.34291296562361556 -0.09559198206188456 -0.9344907013837523
vn -0.41041079410891446 0.42855954428504794 -0.8049221683374627
vn -0.43470381461468505 0.13674631880836116 -0.8901309105136186
vn -0.5793006356767811 0.14538344581837723 -0.8020439060216418
vn -0.41041079410891446 0.42855954428504794 -0.8049221683374627
vn -0.5793006356767811 0.14538344581837723 -0.8020439060216418
vn -0.5988260483754647 0.3323882804995384 -0.7286462754818593
vn -0.3129774595121584 -0.15041068028342885 -0.9377748861501843
vn -0.43470381461468505 0.13674631880836116 -0.8901309105136186
vn -0.03439551301411851 0.09705090448254107 -0.9946849102221348
vn -0.3129774595121584 -0.15041068028342885 -0.9377748861501843
vn -0.03439551301411851 0.09705090448254107 -0.9946849102221348
vn 0.06970114181101163 -0.2509060175299272 -0.9654987939907088
vn 0.34291296562361556 -0.09559198206188456 -0.9344907013837523
vn 0.34098982840255254 0.12083725330560614 -0.9322683600442282
vn 0.5724083085013735 0.1612195940411479 -0.8039632894951138
vn 0.34291296562361556 -0.09559198206188456 -0.9344907013837523
vn 0.5724083085013735 0.1612195940411479 -0.8039632894951138
vn 0.4456198280389296 0.02843564231387121 -0.8947705756811365
vn 0.5724083085013735 0.1612195940411479 -0.8039632894951138
vn 0.34098982840255254 0.12083725330560614 -0.9322683600442282
vn 0.4894905319600309 0.39445965928095544 -0.7776892672021637
vn 0.5724083085013735 0.1612195940411479 -0.8039632894951138
vn 0.4894905319600309 0.39445965928095544 -0.7776892672021637
vn 0.601127849234722 0.3425997417596291 -0.7219908072965145
vn -0.03439551301411851 0.09705090448254107 -0.9946849102221348
vn -0.43470381461468505 0.13674631880836116 -0.8901309105136186
vn -0.41041079410891446 0.42855954428504794 -0.8049221683374627
vn -0.03439551301411851 0.09705090448254107 -0.9946849102221348
vn -0.41041079410891446 0.42855954428504794 -0.8049221683374627
vn 0.07645426444338396 0.4795707011737189 -0.8741662816788169
vn -0.5793006356767811 0.14538344581837723 -0.8020439060216418
vn -0.43470381461468505 0.13674631880836116 -0.8901309105136186
vn -0.3129774595121584 -0.15041068028342885 -0.9377748861501843
vn -0.5793006356767811 0.14538344581837723 -0.8020439060216418
vn -0.3129774595121584 -0.15041068028342885 -0.9377748861501843
vn -0.44572894932322094 0.0178489588590708 -0.8949900102251783
vn 0.07645426444338396 0.4795707011737189 -0.8741662816788169
vn 0.4894905319600309 0.39445965928095544 -0.7776892672021637
vn 0.34098982840255254 0.12083725330560614 -0.9322683600442282
vn 0.07645426444338396 0.4795707011737189 -0.8741662816788169
vn 0.34098982840255254 0.12083725330560614 -0.9322683600442282
vn -0.03439551301411851 0.09705090448254107 -0.9946849102221348
f 1/1/1 2/2/2 3/3/3
f 4/4/4 5/5/5 6/6/6
f 7/7/7 8/8/8 9/9/9
f 10/10/10 11/11/11 12/12/12
f 13/13/13 14/14/14 15/15/15
f 16/16/16 17/17/17 18/18/18
f 19/19/19 20/20/20 21/21/21
f 22/22/22 23/23/23 24/24/24
f 25/25/25 26/26/26 27/27/27
f 28/28/28 29/29/29 30/30/30
f 31/31/31 32/32/32 33/33/33
f 34/34/34 35/35/35 36/36/36
f 37/37/37 38/38/38 39/39/39
f 40/40/40 41/41/41 42/42/42
f 43/43/43 44/44/44 45/45/45
f 46/46/46 47/47/47 48/48/48
