mtllib ArcadaCompleta.mtl
o D51C_F
usemtl Esmalte
v -4.435850143432617 48.92686462402344 1.5992707318892025
v -4.435969829559326 50.22056198120117 2.0212807960142642
v -5.793710231781006 50.22056198120117 1.9292007989515807
v -4.435850143432617 48.92686462402344 1.5992707318892025
v -5.793710231781006 50.22056198120117 1.9292007989515807
v -5.592909812927246 48.92686462402344 1.527070791207745
v -4.435850143432617 48.92686462402344 1.5992707318892025
v -3.278779983520508 48.92686462402344 1.527070791207745
v -3.0782299041748047 50.22056198120117 1.9292007989515807
v -4.435850143432617 48.92686462402344 1.5992707318892025
v -3.0782299041748047 50.22056198120117 1.9292007989515807
v -4.435969829559326 50.22056198120117 2.0212807960142642
v -4.435850143432617 48.92686462402344 1.5992707318892025
v -4.435850143432617 48.14546203613281 1.13720074363847
v -3.315880060195923 48.15896224975586 0.8805137581457636
v -4.435850143432617 48.92686462402344 1.5992707318892025
v -3.315880060195923 48.15896224975586 0.8805137581457636
v -3.278779983520508 48.92686462402344 1.527070791207745
v -4.435910224914551 51.31706237792969 2.366400749169782
v -4.435969829559326 50.22056198120117 2.0212807960142642
v -3.0782299041748047 50.22056198120117 1.9292007989515807
v -4.435910224914551 51.31706237792969 2.366400749169782
v -3.0782299041748047 50.22056198120117 1.9292007989515807
v -3.187690019607544 51.31706237792969 2.1549806899656803
v -4.435910224914551 51.31706237792969 2.366400749169782
v -5.684120178222656 51.31706237792969 2.1549806899656803
v -5.793710231781006 50.22056198120117 1.9292007989515807
v -4.435910224914551 51.31706237792969 2.366400749169782
v -5.793710231781006 50.22056198120117 1.9292007989515807
v -4.435969829559326 50.22056198120117 2.0212807960142642
v -6.401569843292236 48.92686462402344 1.449980766259625
v -6.538730144500732 48.16096496582031 1.075900704347088
v -5.555819988250732 48.15896224975586 0.8805137581457636
v -6.401569843292236 48.92686462402344 1.449980766259625
v -5.555819988250732 48.15896224975586 0.8805137581457636
v -5.592909812927246 48.92686462402344 1.527070791207745
v -2.4701199531555176 48.92686462402344 1.449980766259625
v -3.0782299041748047 50.22056198120117 1.9292007989515807
v -3.278779983520508 48.92686462402344 1.527070791207745
v -3.278779983520508 48.92686462402344 1.527070791207745
v -3.315880060195923 48.15896224975586 0.8805137581457636
v -2.332969903945923 48.16096496582031 1.075900704347088
v -3.278779983520508 48.92686462402344 1.527070791207745
v -2.332969903945923 48.16096496582031 1.075900704347088
v -2.4701199531555176 48.92686462402344 1.449980766259625
v -5.592909812927246 48.92686462402344 1.527070791207745
v -5.793710231781006 50.22056198120117 1.9292007989515807
v -6.401569843292236 48.92686462402344 1.449980766259625
v -5.592909812927246 48.92686462402344 1.527070791207745
v -5.555819988250732 48.15896224975586 0.8805137581457636
v -4.435850143432617 48.14546203613281 1.13720074363847
v -5.592909812927246 48.92686462402344 1.527070791207745
v -4.435850143432617 48.14546203613281 1.13720074363847
v -4.435850143432617 48.92686462402344 1.5992707318892025
vt 0.49565500020980835 0.2609969973564148
vt 0.4956350028514862 0.4766330122947693
vt 0.28963199257850647 0.4766330122947693
vt 0.49565500020980835 0.2609969973564148
vt 0.28963199257850647 0.4766330122947693
vt 0.32009899616241455 0.2609969973564148
vt 0.49565500020980835 0.2609969973564148
vt 0.671209990978241 0.2609969973564148
vt 0.7016389966011047 0.4766330122947693
vt 0.49565500020980835 0.2609969973564148
vt 0.7016389966011047 0.4766330122947693
vt 0.4956350028514862 0.4766330122947693
vt 0.49565500020980835 0.2609969973564148
vt 0.49565500020980835 0.13074803352355957
vt 0.665582001209259 0.13300001621246338
vt 0.49565500020980835 0.2609969973564148
vt 0.665582001209259 0.13300001621246338
vt 0.671209990978241 0.2609969973564148
vt 0.4956449866294861 0.6593829989433289
vt 0.4956350028514862 0.4766330122947693
vt 0.7016389966011047 0.4766330122947693
vt 0.4956449866294861 0.6593829989433289
vt 0.7016389966011047 0.4766330122947693
vt 0.685030996799469 0.6593829989433289
vt 0.4956449866294861 0.6593829989433289
vt 0.30625998973846436 0.6593829989433289
vt 0.28963199257850647 0.4766330122947693
vt 0.4956449866294861 0.6593829989433289
vt 0.28963199257850647 0.4766330122947693
vt 0.4956350028514862 0.4766330122947693
vt 0.19740499556064606 0.2609969973564148
vt 0.17659500241279602 0.13333499431610107
vt 0.3257269859313965 0.13300001621246338
vt 0.19740499556064606 0.2609969973564148
vt 0.3257269859313965 0.13300001621246338
vt 0.32009899616241455 0.2609969973564148
vt 0.7939040064811707 0.2609969973564148
vt 0.7016389966011047 0.4766330122947693
vt 0.671209990978241 0.2609969973564148
vt 0.671209990978241 0.2609969973564148
vt 0.665582001209259 0.13300001621246338
vt 0.8147140145301819 0.13333499431610107
vt 0.671209990978241 0.2609969973564148
vt 0.8147140145301819 0.13333499431610107
vt 0.7939040064811707 0.2609969973564148
vt 0.32009899616241455 0.2609969973564148
vt 0.28963199257850647 0.4766330122947693
vt 0.19740499556064606 0.2609969973564148
vt 0.32009899616241455 0.2609969973564148
vt 0.3257269859313965 0.13300001621246338
vt 0.49565500020980835 0.13074803352355957
vt 0.32009899616241455 0.2609969973564148
vt 0.49565500020980835 0.13074803352355957
vt 0.49565500020980835 0.2609969973564148
vn 0.020636460055085976 -0.3918432341380261 0.9198005307547104
vn 0 -0.3055947262036795 0.952161679189253
vn -0.08609389145649286 -0.2830441771135709 0.9552349635853887
vn 0.020636460055085976 -0.3918432341380261 0.9198005307547104
vn -0.08609389145649286 -0.2830441771135709 0.9552349635853887
vn -0.09185872294095072 -0.4667005573052605 0.8796320621888545
vn 0.020636460055085976 -0.3918432341380261 0.9198005307547104
vn 0.02933835807256958 -0.4600591377588179 0.8874034316533933
vn 0.0860936860228342 -0.28304150536774714 0.9552357737575373
vn 0.020636460055085976 -0.3918432341380261 0.9198005307547104
vn 0.0860936860228342 -0.28304150536774714 0.9552357737575373
vn 0 -0.3055947262036795 0.952161679189253
vn 0.020636460055085976 -0.3918432341380261 0.9198005307547104
vn -0.017397791294498314 -0.5603793306961751 0.8280533331776283
vn 0.0359825258797718 -0.6011879283893481 0.7982971455480947
vn 0.020636460055085976 -0.3918432341380261 0.9198005307547104
vn 0.0359825258797718 -0.6011879283893481 0.7982971455480947
vn 0.02933835807256958 -0.4600591377588179 0.8874034316533933
vn 0 -0.24664846353635966 0.9691050177535728
vn 0 -0.3055947262036795 0.952161679189253
vn 0.0860936860228342 -0.28304150536774714 0.9552357737575373
vn 0 -0.24664846353635966 0.9691050177535728
vn 0.0860936860228342 -0.28304150536774714 0.9552357737575373
vn 0.1641725285703075 -0.18319347321823065 0.9692716503813948
vn 0 -0.24664846353635966 0.9691050177535728
vn -0.16417443332302853 -0.1831745011438978 0.9692749133108454
vn -0.08609389145649286 -0.2830441771135709 0.9552349635853887
vn 0 -0.24664846353635966 0.9691050177535728
vn -0.08609389145649286 -0.2830441771135709 0.9552349635853887
vn 0 -0.3055947262036795 0.952161679189253
vn -0.0036758067902193264 -0.46202531365511634 0.8868591195823226
vn 0.17251652854228666 -0.4570619764545399 0.8725436361920177
vn -0.04175196375514851 -0.5945526654874556 0.8029719182414479
vn -0.0036758067902193264 -0.46202531365511634 0.8868591195823226
vn -0.04175196375514851 -0.5945526654874556 0.8029719182414479
vn -0.09185872294095072 -0.4667005573052605 0.8796320621888545
vn 0.08876728948488928 -0.3536603128815799 0.9311523781905995
vn 0.0860936860228342 -0.28304150536774714 0.9552357737575373
vn 0.02933835807256958 -0.4600591377588179 0.8874034316533933
vn 0.02933835807256958 -0.4600591377588179 0.8874034316533933
vn 0.0359825258797718 -0.6011879283893481 0.7982971455480947
vn -0.054161782720025975 -0.5556200086379114 0.8296703606214916
vn 0.02933835807256958 -0.4600591377588179 0.8874034316533933
vn -0.054161782720025975 -0.5556200086379114 0.8296703606214916
vn 0.08876728948488928 -0.3536603128815799 0.9311523781905995
vn -0.09185872294095072 -0.4667005573052605 0.8796320621888545
vn -0.08609389145649286 -0.2830441771135709 0.9552349635853887
vn -0.0036758067902193264 -0.46202531365511634 0.8868591195823226
vn -0.09185872294095072 -0.4667005573052605 0.8796320621888545
vn -0.04175196375514851 -0.5945526654874556 0.8029719182414479
vn -0.017397791294498314 -0.5603793306961751 0.8280533331776283
vn -0.09185872294095072 -0.4667005573052605 0.8796320621888545
vn -0.017397791294498314 -0.5603793306961751 0.8280533331776283
vn 0.020636460055085976 -0.3918432341380261 0.9198005307547104
f 1/1/1 2/2/2 3/3/3
f 4/4/4 5/5/5 6/6/6
f 7/7/7 8/8/8 9/9/9
f 10/10/10 11/11/11 12/12/12
f 13/13/13 14/14/14 15/15/15
f 16/16/16 17/17/17 18/18/18
f 19/19/19 20/20/20 21/21/21
f 22/22/22 23/23/23 24/24/24
f 25/25/25 26/26/26 27/27/27
f 28/28/28 29/29/29 30/30/30
f 31/31/31 32/32/32 33/33/33
f 34/34/34 35/35/35 36/36/36
f 37/37/37 38/38/38 39/39/39
f 40/40/40 41/41/41 42/42/42
f 43/43/43 44/44/44 45/45/45
f 46/46/46 47/47/47 48/48/48
f 49/49/49 50/50/50 51/51/51
f 52/52/52 53/53/53 54/54/54
