mtllib ArcadaCompleta.mtl
o D52C_FL
usemtl Esmalte
v -12.208000183105469 52.844661712646484 -1.8227692537675348
v -11.483699798583984 52.82686233520508 -1.671859233892962
v -11.345999717712402 51.66846466064453 -1.8687492304215878
v -12.208000183105469 52.844661712646484 -1.8227692537675348
v -11.345999717712402 51.66846466064453 -1.8687492304215878
v -12.208000183105469 51.66846466064453 -1.985479205168292
v -13.149499893188477 50.73206329345703 -1.5335492782960387
v -13.069899559020996 51.66846466064453 -1.8687492304215878
v -12.208000183105469 51.66846466064453 -1.985479205168292
v -13.149499893188477 50.73206329345703 -1.5335492782960387
v -12.208000183105469 51.66846466064453 -1.985479205168292
v -12.208000183105469 51.20026397705078 -1.9733792238603087
v -13.149499893188477 50.73206329345703 -1.5335492782960387
v -12.208000183105469 51.20026397705078 -1.9733792238603087
v -12.612500190734863 50.73206329345703 -1.6183693104157897
v -12.208000183105469 51.66846466064453 -1.985479205168292
v -13.069899559020996 51.66846466064453 -1.8687492304215878
v -12.93220043182373 52.82686233520508 -1.671859233892962
v -12.208000183105469 51.66846466064453 -1.985479205168292
v -12.93220043182373 52.82686233520508 -1.671859233892962
v -12.208000183105469 52.844661712646484 -1.8227692537675348
v -11.803500175476074 50.73206329345703 -1.6183693104157897
v -12.208000183105469 51.20026397705078 -1.9733792238603087
v -12.208000183105469 51.66846466064453 -1.985479205168292
v -11.803500175476074 50.73206329345703 -1.6183693104157897
v -12.208000183105469 51.66846466064453 -1.985479205168292
v -11.345999717712402 51.66846466064453 -1.8687492304215878
v -11.803500175476074 50.73206329345703 -1.6183693104157897
v -11.345999717712402 51.66846466064453 -1.8687492304215878
v -11.266400337219238 50.73206329345703 -1.5335492782960387
vt 0.5049309730529785 0.9995009899139404
vt 0.36537501215934753 0.9963250160217285
vt 0.3388429880142212 0.7894750237464905
vt 0.5049309730529785 0.9995009899139404
vt 0.3388429880142212 0.7894750237464905
vt 0.5049309730529785 0.7894750237464905
vt 0.6863539814949036 0.6222730278968811
vt 0.6710180044174194 0.7894750237464905
vt 0.5049309730529785 0.7894750237464905
vt 0.6863539814949036 0.6222730278968811
vt 0.5049309730529785 0.7894750237464905
vt 0.5049309730529785 0.7058740258216858
vt 0.6863539814949036 0.6222730278968811
vt 0.5049309730529785 0.7058740258216858
vt 0.5828710198402405 0.6222730278968811
vt 0.5049309730529785 0.7894750237464905
vt 0.6710180044174194 0.7894750237464905
vt 0.6444870233535767 0.9963250160217285
vt 0.5049309730529785 0.7894750237464905
vt 0.6444870233535767 0.9963250160217285
vt 0.5049309730529785 0.9995009899139404
vt 0.42699000239372253 0.6222730278968811
vt 0.5049309730529785 0.7058740258216858
vt 0.5049309730529785 0.7894750237464905
vt 0.42699000239372253 0.6222730278968811
vt 0.5049309730529785 0.7894750237464905
vt 0.3388429880142212 0.7894750237464905
vt 0.42699000239372253 0.6222730278968811
vt 0.3388429880142212 0.7894750237464905
vt 0.32350799441337585 0.6222730278968811
vn 0.04938137399702465 0.15392121262502956 -0.986848387649393
vn 0.20476704237107896 0.18762200646904204 -0.9606604192154121
vn 0.1574325822385127 -0.04334901915984432 -0.9865778451737062
vn 0.04938137399702465 0.15392121262502956 -0.986848387649393
vn 0.1574325822385127 -0.04334901915984432 -0.9865778451737062
vn -0.042628691321702224 -0.023710582806528033 -0.9988095929350969
vn -0.21787356095506172 -0.2790391775880405 -0.9352370014107392
vn -0.1340304918149027 -0.05143810636224258 -0.9896413231457758
vn -0.042628691321702224 -0.023710582806528033 -0.9988095929350969
vn -0.21787356095506172 -0.2790391775880405 -0.9352370014107392
vn -0.042628691321702224 -0.023710582806528033 -0.9988095929350969
vn -0.08806811655523396 -0.19140001343346036 -0.9775530889440659
vn -0.21787356095506172 -0.2790391775880405 -0.9352370014107392
vn -0.08806811655523396 -0.19140001343346036 -0.9775530889440659
vn -0.13294579088800965 -0.5233447561229948 -0.84168621405113
vn -0.042628691321702224 -0.023710582806528033 -0.9988095929350969
vn -0.1340304918149027 -0.05143810636224258 -0.9896413231457758
vn -0.16599586684115228 0.15968024862495078 -0.973112321569678
vn -0.042628691321702224 -0.023710582806528033 -0.9988095929350969
vn -0.16599586684115228 0.15968024862495078 -0.973112321569678
vn 0.04938137399702465 0.15392121262502956 -0.986848387649393
vn 0.21784693370003966 -0.2790491628012516 -0.9352402248713488
vn -0.08806811655523396 -0.19140001343346036 -0.9775530889440659
vn -0.042628691321702224 -0.023710582806528033 -0.9988095929350969
vn 0.21784693370003966 -0.2790491628012516 -0.9352402248713488
vn -0.042628691321702224 -0.023710582806528033 -0.9988095929350969
vn 0.1574325822385127 -0.04334901915984432 -0.9865778451737062
vn 0.21784693370003966 -0.2790491628012516 -0.9352402248713488
vn 0.1574325822385127 -0.04334901915984432 -0.9865778451737062
vn 0.1476716441043301 -0.322177833781037 -0.9350906527966593
f 1/1/1 2/2/2 3/3/3
f 4/4/4 5/5/5 6/6/6
f 7/7/7 8/8/8 9/9/9
f 10/10/10 11/11/11 12/12/12
f 13/13/13 14/14/14 15/15/15
f 16/16/16 17/17/17 18/18/18
f 19/19/19 20/20/20 21/21/21
f 22/22/22 23/23/23 24/24/24
f 25/25/25 26/26/26 27/27/27
f 28/28/28 29/29/29 30/30/30
