mtllib ArcadaCompleta.mtl
o D53C_V
usemtl Esmalte
v -17.11870002746582 53.311363220214844 1.9211507148375067
v -17.287900924682617 52.383663177490234 2.8356507129301582
v -16.827600479125977 52.383663177490234 2.372050792657331
v -20.81999969482422 53.58236312866211 1.9211507148375069
v -20.65089988708496 52.383663177490234 2.7369008369078194
v -20.19070053100586 52.603363037109375 3.1017506427397286
v -20.81999969482422 53.58236312866211 1.9211507148375069
v -20.19070053100586 52.603363037109375 3.1017506427397286
v -19.968700408935547 53.82656478881836 2.517020732842878
v -18.96940040588379 53.84516143798828 2.7410908050169502
v -18.96940040588379 52.7713623046875 3.502890855752424
v -17.74810028076172 52.603363037109375 3.2992606467833077
v -18.96940040588379 53.84516143798828 2.7410908050169502
v -17.74810028076172 52.603363037109375 3.2992606467833077
v -17.969999313354492 53.69856262207031 2.517020732842878
v -17.969999313354492 53.69856262207031 2.517020732842878
v -17.74810028076172 52.603363037109375 3.2992606467833077
v -17.287900924682617 52.383663177490234 2.8356507129301582
v -17.969999313354492 53.69856262207031 2.517020732842878
v -17.287900924682617 52.383663177490234 2.8356507129301582
v -17.11870002746582 53.311363220214844 1.9211507148375067
v -19.968700408935547 53.82656478881836 2.517020732842878
v -20.19070053100586 52.603363037109375 3.1017506427397286
v -18.96940040588379 52.7713623046875 3.502890855752424
v -19.968700408935547 53.82656478881836 2.517020732842878
v -18.96940040588379 52.7713623046875 3.502890855752424
v -18.96940040588379 53.84516143798828 2.7410908050169502
v -21.111099243164062 52.383663177490234 2.372050792657331
v -20.65089988708496 52.383663177490234 2.7369008369078194
v -20.81999969482422 53.58236312866211 1.9211507148375069
vt 0.22652800381183624 0.9177960157394409
vt 0.09584680199623108 0.7758209705352783
vt 0.16209599375724792 0.7758209705352783
vt 0.773472011089325 0.9592829942703247
vt 0.8900409936904907 0.7758209705352783
vt 0.9421780109405518 0.8094469904899597
vt 0.24531300365924835 0.9592829942703247
vt 0.33643800020217896 0.8094469904899597
vt 0.36857399344444275 0.9966430068016052
vt 0.5132719874382019 0.9994999766349792
vt 0.5132719874382019 0.8351600170135498
vt 0.6901059746742249 0.8094469904899597
vt 0.5132719874382019 0.9994999766349792
vt 0.6901059746742249 0.8094469904899597
vt 0.6579700112342834 0.9770529866218567
vt 0.1413789987564087 0.9770529866218567
vt 0.029597999528050423 0.8094469904899597
vt 0.09584680199623108 0.7758209705352783
vt 0.1413789987564087 0.9770529866218567
vt 0.09584680199623108 0.7758209705352783
vt 0.22652800381183624 0.9177960157394409
vt 0.36857399344444275 0.9966430068016052
vt 0.33643800020217896 0.8094469904899597
vt 0.5132719874382019 0.8351600170135498
vt 0.36857399344444275 0.9966430068016052
vt 0.5132719874382019 0.8351600170135498
vt 0.5132719874382019 0.9994999766349792
vt 0.2031709998846054 0.7758209705352783
vt 0.26980501413345337 0.7758209705352783
vt 0.24531300365924835 0.9592829942703247
vn 0.6321836830896433 0.4823991748573775 0.6063289758308892
vn 0.661790375794567 0.48670417427325435 0.5702214878892897
vn 0.6177998971227473 0.49199600540917815 0.6134029815517158
vn -0.6146160265980934 0.4013722474838535 0.6790783892884033
vn -0.6292735600418354 0.37462432185191535 0.6809342142301757
vn -0.5103920415335655 0.4292611539910323 0.7451408092525107
vn -0.6146160265980934 0.4013722474838535 0.6790783892884033
vn -0.5103920415335655 0.4292611539910323 0.7451408092525107
vn -0.38236193168078003 0.4891722666548837 0.7839067844693436
vn 0.10522036012616102 0.5874324902014212 0.8024037295966902
vn -0.10788686264842008 0.5415228824312528 0.8337346056577167
vn 0.3594723586273786 0.5768743068163185 0.7334818726581193
vn 0.10522036012616102 0.5874324902014212 0.8024037295966902
vn 0.3594723586273786 0.5768743068163185 0.7334818726581193
vn 0.5336153691405398 0.5406007945504627 0.6503886674507897
vn 0.5336153691405398 0.5406007945504627 0.6503886674507897
vn 0.3594723586273786 0.5768743068163185 0.7334818726581193
vn 0.661790375794567 0.48670417427325435 0.5702214878892897
vn 0.5336153691405398 0.5406007945504627 0.6503886674507897
vn 0.661790375794567 0.48670417427325435 0.5702214878892897
vn 0.6321836830896433 0.4823991748573775 0.6063289758308892
vn -0.38236193168078003 0.4891722666548837 0.7839067844693436
vn -0.5103920415335655 0.4292611539910323 0.7451408092525107
vn -0.10788686264842008 0.5415228824312528 0.8337346056577167
vn -0.38236193168078003 0.4891722666548837 0.7839067844693436
vn -0.10788686264842008 0.5415228824312528 0.8337346056577167
vn 0.10522036012616102 0.5874324902014212 0.8024037295966902
vn -0.5674582287442668 0.4070423531340997 0.715756719413429
vn -0.6292735600418354 0.37462432185191535 0.6809342142301757
vn -0.6146160265980934 0.4013722474838535 0.6790783892884033
f 1/1/1 2/2/2 3/3/3
f 4/4/4 5/5/5 6/6/6
f 7/7/7 8/8/8 9/9/9
f 10/10/10 11/11/11 12/12/12
f 13/13/13 14/14/14 15/15/15
f 16/16/16 17/17/17 18/18/18
f 19/19/19 20/20/20 21/21/21
f 22/22/22 23/23/23 24/24/24
f 25/25/25 26/26/26 27/27/27
f 28/28/28 29/29/29 30/30/30
