mtllib ArcadaCompleta.mtl
o D53C_F
usemtl Esmalte
v -18.969499588012695 49.07596206665039 2.169880659066632
v -18.969499588012695 50.16716384887695 2.8700506991972476
v -20.333099365234375 50.16716384887695 2.596400768243268
v -18.969499588012695 49.07596206665039 2.169880659066632
v -20.333099365234375 50.16716384887695 2.596400768243268
v -20.212900161743164 49.07596206665039 1.8072707957853817
v -18.969499588012695 49.07596206665039 2.169880659066632
v -17.693899154663086 49.07596206665039 1.7972307510008358
v -17.573699951171875 50.16716384887695 2.596400768243268
v -18.969499588012695 49.07596206665039 2.169880659066632
v -17.573699951171875 50.16716384887695 2.596400768243268
v -18.969499588012695 50.16716384887695 2.8700506991972476
v -18.969499588012695 49.07596206665039 2.169880659066632
v -18.93950080871582 48.36256408691406 1.6303807801832697
v -17.838600158691406 48.37926483154297 1.314790756188824
v -18.969499588012695 49.07596206665039 2.169880659066632
v -17.838600158691406 48.37926483154297 1.314790756188824
v -17.693899154663086 49.07596206665039 1.7972307510008358
v -18.969499588012695 51.429161071777344 3.304830820046857
v -18.969499588012695 50.16716384887695 2.8700506991972476
v -17.573699951171875 50.16716384887695 2.596400768243268
v -18.969499588012695 51.429161071777344 3.304830820046857
v -17.573699951171875 50.16716384887695 2.596400768243268
v -17.531700134277344 51.429161071777344 3.0088906592955142
v -18.969499588012695 51.429161071777344 3.304830820046857
v -17.531700134277344 51.429161071777344 3.0088906592955142
v -17.74810028076172 52.603363037109375 3.2992606467833077
v -18.969499588012695 51.429161071777344 3.304830820046857
v -17.74810028076172 52.603363037109375 3.2992606467833077
v -18.96940040588379 52.7713623046875 3.502890855752424
v -18.969499588012695 51.429161071777344 3.304830820046857
v -20.407400131225586 51.429161071777344 3.0088906592955142
v -20.333099365234375 50.16716384887695 2.596400768243268
v -18.969499588012695 51.429161071777344 3.304830820046857
v -20.333099365234375 50.16716384887695 2.596400768243268
v -18.969499588012695 50.16716384887695 2.8700506991972476
v -17.693899154663086 49.07596206665039 1.7972307510008358
v -17.05030059814453 49.07596206665039 1.7328307933439755
v -17.008100509643555 50.16716384887695 2.3973007506956607
v -17.693899154663086 49.07596206665039 1.7972307510008358
v -17.008100509643555 50.16716384887695 2.3973007506956607
v -17.573699951171875 50.16716384887695 2.596400768243268
v -20.212900161743164 49.07596206665039 1.8072707957853817
v -20.333099365234375 50.16716384887695 2.596400768243268
v -20.914899826049805 50.16716384887695 2.3973007506956607
v -20.212900161743164 49.07596206665039 1.8072707957853817
v -20.914899826049805 50.16716384887695 2.3973007506956607
v -20.748899459838867 49.07596206665039 1.737850696526959
v -20.212900161743164 49.07596206665039 1.8072707957853817
v -20.104999542236328 48.238563537597656 1.3248207873930475
v -18.93950080871582 48.36256408691406 1.6303807801832697
v -20.212900161743164 49.07596206665039 1.8072707957853817
v -18.93950080871582 48.36256408691406 1.6303807801832697
v -18.969499588012695 49.07596206665039 2.169880659066632
v -17.531700134277344 51.429161071777344 3.0088906592955142
v -17.573699951171875 50.16716384887695 2.596400768243268
v -17.008100509643555 50.16716384887695 2.3973007506956607
v -17.531700134277344 51.429161071777344 3.0088906592955142
v -17.008100509643555 50.16716384887695 2.3973007506956607
v -17.065000534057617 51.429161071777344 2.689790756188825
v -20.333099365234375 50.16716384887695 2.596400768243268
v -20.407400131225586 51.429161071777344 3.0088906592955142
v -20.874099731445312 51.429161071777344 2.689790756188825
v -20.333099365234375 50.16716384887695 2.596400768243268
v -20.874099731445312 51.429161071777344 2.689790756188825
v -20.914899826049805 50.16716384887695 2.3973007506956607
v -18.96940040588379 52.7713623046875 3.502890855752424
v -20.19070053100586 52.603363037109375 3.1017506427397286
v -20.407400131225586 51.429161071777344 3.0088906592955142
v -18.96940040588379 52.7713623046875 3.502890855752424
v -20.407400131225586 51.429161071777344 3.0088906592955142
v -18.969499588012695 51.429161071777344 3.304830820046857
v -20.19070053100586 52.603363037109375 3.1017506427397286
v -20.65089988708496 52.383663177490234 2.7369008369078194
v -20.874099731445312 51.429161071777344 2.689790756188825
v -20.19070053100586 52.603363037109375 3.1017506427397286
v -20.874099731445312 51.429161071777344 2.689790756188825
v -20.407400131225586 51.429161071777344 3.0088906592955142
v -17.838600158691406 48.37926483154297 1.314790756188824
v -17.091100692749023 48.573062896728516 1.2909606999983334
v -17.05030059814453 49.07596206665039 1.7328307933439755
v -17.838600158691406 48.37926483154297 1.314790756188824
v -17.05030059814453 49.07596206665039 1.7328307933439755
v -17.693899154663086 49.07596206665039 1.7972307510008358
v -20.748899459838867 49.07596206665039 1.737850696526959
v -20.830900192260742 48.24936294555664 1.2387707538237116
v -20.104999542236328 48.238563537597656 1.3248207873930475
v -20.748899459838867 49.07596206665039 1.737850696526959
v -20.104999542236328 48.238563537597656 1.3248207873930475
v -20.212900161743164 49.07596206665039 1.8072707957853817
v -17.065000534057617 51.429161071777344 2.689790756188825
v -17.287900924682617 52.383663177490234 2.8356507129301582
v -17.74810028076172 52.603363037109375 3.2992606467833077
v -17.065000534057617 51.429161071777344 2.689790756188825
v -17.74810028076172 52.603363037109375 3.2992606467833077
v -17.531700134277344 51.429161071777344 3.0088906592955142
vt 0.513247013092041 0.26961201429367065
vt 0.513247013092041 0.43660998344421387
vt 0.3158220052719116 0.43660998344421387
vt 0.513247013092041 0.26961201429367065
vt 0.3158220052719116 0.43660998344421387
vt 0.33322399854660034 0.26961201429367065
vt 0.513247013092041 0.26961201429367065
vt 0.6979460120201111 0.26961201429367065
vt 0.7153480052947998 0.43660998344421387
vt 0.513247013092041 0.26961201429367065
vt 0.7153480052947998 0.43660998344421387
vt 0.513247013092041 0.43660998344421387
vt 0.513247013092041 0.26961201429367065
vt 0.5175939798355103 0.16042399406433105
vt 0.6769930124282837 0.16297298669815063
vt 0.513247013092041 0.26961201429367065
vt 0.6769930124282837 0.16297298669815063
vt 0.6979460120201111 0.26961201429367065
vt 0.513247013092041 0.6297370195388794
vt 0.513247013092041 0.43660998344421387
vt 0.7153480052947998 0.43660998344421387
vt 0.513247013092041 0.6297370195388794
vt 0.7153480052947998 0.43660998344421387
vt 0.7214319705963135 0.6297370195388794
vt 0.513247013092041 0.6297370195388794
vt 0.7214319705963135 0.6297370195388794
vt 0.6901059746742249 0.8094469904899597
vt 0.513247013092041 0.6297370195388794
vt 0.6901059746742249 0.8094469904899597
vt 0.5132719874382019 0.8351600170135498
vt 0.513247013092041 0.6297370195388794
vt 0.3050619959831238 0.6297370195388794
vt 0.3158220052719116 0.43660998344421387
vt 0.513247013092041 0.6297370195388794
vt 0.3158220052719116 0.43660998344421387
vt 0.513247013092041 0.43660998344421387
vt 0.6979460120201111 0.26961201429367065
vt 0.7911360263824463 0.26961201429367065
vt 0.7972509860992432 0.43660998344421387
vt 0.6979460120201111 0.26961201429367065
vt 0.7972509860992432 0.43660998344421387
vt 0.7153480052947998 0.43660998344421387
vt 0.33322399854660034 0.26961201429367065
vt 0.3158220052719116 0.43660998344421387
vt 0.23158200085163116 0.43660998344421387
vt 0.33322399854660034 0.26961201429367065
vt 0.23158200085163116 0.43660998344421387
vt 0.25561898946762085 0.26961201429367065
vt 0.33322399854660034 0.26961201429367065
vt 0.3488430082798004 0.14145302772521973
vt 0.5175939798355103 0.16042399406433105
vt 0.33322399854660034 0.26961201429367065
vt 0.5175939798355103 0.16042399406433105
vt 0.513247013092041 0.26961201429367065
vt 0.7214319705963135 0.6297370195388794
vt 0.7153480052947998 0.43660998344421387
vt 0.7972509860992432 0.43660998344421387
vt 0.7214319705963135 0.6297370195388794
vt 0.7972509860992432 0.43660998344421387
vt 0.7890030145645142 0.6297370195388794
vt 0.3158220052719116 0.43660998344421387
vt 0.3050619959831238 0.6297370195388794
vt 0.23749099671840668 0.6297370195388794
vt 0.3158220052719116 0.43660998344421387
vt 0.23749099671840668 0.6297370195388794
vt 0.23158200085163116 0.43660998344421387
vt 0.5132719874382019 0.8351600170135498
vt 0.33643800020217896 0.8094469904899597
vt 0.3050619959831238 0.6297370195388794
vt 0.5132719874382019 0.8351600170135498
vt 0.3050619959831238 0.6297370195388794
vt 0.513247013092041 0.6297370195388794
vt 0.33643800020217896 0.8094469904899597
vt 0.26980501413345337 0.7758209705352783
vt 0.23749099671840668 0.6297370195388794
vt 0.33643800020217896 0.8094469904899597
vt 0.23749099671840668 0.6297370195388794
vt 0.3050619959831238 0.6297370195388794
vt 0.6769930124282837 0.16297298669815063
vt 0.7852230072021484 0.19264501333236694
vt 0.7911360263824463 0.26961201429367065
vt 0.6769930124282837 0.16297298669815063
vt 0.7911360263824463 0.26961201429367065
vt 0.6979460120201111 0.26961201429367065
vt 0.25561898946762085 0.26961201429367065
vt 0.24374499917030334 0.14309900999069214
vt 0.3488430082798004 0.14145302772521973
vt 0.25561898946762085 0.26961201429367065
vt 0.3488430082798004 0.14145302772521973
vt 0.33322399854660034 0.26961201429367065
vt 0.11669100075960159 0.6297370195388794
vt 0.09584680199623108 0.7758209705352783
vt 0.029597999528050423 0.8094469904899597
vt 0.7890030145645142 0.6297370195388794
vt 0.6901059746742249 0.8094469904899597
vt 0.7214319705963135 0.6297370195388794
vn 0.024036023942244942 -0.5818889183797805 0.8129130065510437
vn 0 -0.43441474027014004 0.9007129584035231
vn -0.23928096919528474 -0.42410952243440003 0.873427576139791
vn 0.024036023942244942 -0.5818889183797805 0.8129130065510437
vn -0.23928096919528474 -0.42410952243440003 0.873427576139791
vn -0.1971637304039538 -0.5605093400207025 0.8043355911326774
vn 0.024036023942244942 -0.5818889183797805 0.8129130065510437
vn 0.19530027232533878 -0.5787994007053497 0.7917379979341501
vn 0.2108893088033893 -0.4425399271112177 0.871598595882776
vn 0.024036023942244942 -0.5818889183797805 0.8129130065510437
vn 0.2108893088033893 -0.4425399271112177 0.871598595882776
vn 0 -0.43441474027014004 0.9007129584035231
vn 0.024036023942244942 -0.5818889183797805 0.8129130065510437
vn -0.06774794470131368 -0.5716962916502967 0.8176634797409303
vn 0.1988466367986262 -0.5953201609538077 0.7784946505890761
vn 0.024036023942244942 -0.5818889183797805 0.8129130065510437
vn 0.1988466367986262 -0.5953201609538077 0.7784946505890761
vn 0.19530027232533878 -0.5787994007053497 0.7917379979341501
vn 0.01486519385807329 -0.2577862935398166 0.9660876010355196
vn 0 -0.43441474027014004 0.9007129584035231
vn 0.2108893088033893 -0.4425399271112177 0.871598595882776
vn 0.01486519385807329 -0.2577862935398166 0.9660876010355196
vn 0.2108893088033893 -0.4425399271112177 0.871598595882776
vn 0.30165554252785115 -0.2388653250982331 0.9230099079251226
vn 0.01486519385807329 -0.2577862935398166 0.9660876010355196
vn 0.30165554252785115 -0.2388653250982331 0.9230099079251226
vn 0.30337844325369534 -0.13826634589483808 0.9427852023456103
vn 0.01486519385807329 -0.2577862935398166 0.9660876010355196
vn 0.30337844325369534 -0.13826634589483808 0.9427852023456103
vn -0.12166767421024828 -0.10986289249811232 0.9864720583494583
vn 0.01486519385807329 -0.2577862935398166 0.9660876010355196
vn -0.2996994579419668 -0.1670539988779926 0.9392939882529658
vn -0.23928096919528474 -0.42410952243440003 0.873427576139791
vn 0.01486519385807329 -0.2577862935398166 0.9660876010355196
vn -0.23928096919528474 -0.42410952243440003 0.873427576139791
vn 0 -0.43441474027014004 0.9007129584035231
vn 0.19530027232533878 -0.5787994007053497 0.7917379979341501
vn 0.11338026125906671 -0.576314809446717 0.8093245064677209
vn 0.30763769248950384 -0.4137760116087359 0.8568246392214109
vn 0.19530027232533878 -0.5787994007053497 0.7917379979341501
vn 0.30763769248950384 -0.4137760116087359 0.8568246392214109
vn 0.2108893088033893 -0.4425399271112177 0.871598595882776
vn -0.1971637304039538 -0.5605093400207025 0.8043355911326774
vn -0.23928096919528474 -0.42410952243440003 0.873427576139791
vn -0.24019663074731556 -0.4457664496958252 0.8623211993817717
vn -0.1971637304039538 -0.5605093400207025 0.8043355911326774
vn -0.24019663074731556 -0.4457664496958252 0.8623211993817717
vn -0.10954426306999251 -0.5135082043017962 0.8510636747877312
vn -0.1971637304039538 -0.5605093400207025 0.8043355911326774
vn -0.13794298030645752 -0.5074591475022359 0.850562724201147
vn -0.06774794470131368 -0.5716962916502967 0.8176634797409303
vn -0.1971637304039538 -0.5605093400207025 0.8043355911326774
vn -0.06774794470131368 -0.5716962916502967 0.8176634797409303
vn 0.024036023942244942 -0.5818889183797805 0.8129130065510437
vn 0.30165554252785115 -0.2388653250982331 0.9230099079251226
vn 0.2108893088033893 -0.4425399271112177 0.871598595882776
vn 0.30763769248950384 -0.4137760116087359 0.8568246392214109
vn 0.30165554252785115 -0.2388653250982331 0.9230099079251226
vn 0.30763769248950384 -0.4137760116087359 0.8568246392214109
vn 0.6121349871309143 -0.0765753753496433 0.7870368285031499
vn -0.23928096919528474 -0.42410952243440003 0.873427576139791
vn -0.2996994579419668 -0.1670539988779926 0.9392939882529658
vn -0.5140474672252396 -0.11010305552184575 0.8506659265564065
vn -0.23928096919528474 -0.42410952243440003 0.873427576139791
vn -0.5140474672252396 -0.11010305552184575 0.8506659265564065
vn -0.24019663074731556 -0.4457664496958252 0.8623211993817717
vn -0.12166767421024828 -0.10986289249811232 0.9864720583494583
vn -0.44712098908447906 0.02261717963509572 0.8941874995242725
vn -0.2996994579419668 -0.1670539988779926 0.9392939882529658
vn -0.12166767421024828 -0.10986289249811232 0.9864720583494583
vn -0.2996994579419668 -0.1670539988779926 0.9392939882529658
vn 0.01486519385807329 -0.2577862935398166 0.9660876010355196
vn -0.44712098908447906 0.02261717963509572 0.8941874995242725
vn -0.6502621669395349 0.1149927136409189 0.7509565833366123
vn -0.5140474672252396 -0.11010305552184575 0.8506659265564065
vn -0.44712098908447906 0.02261717963509572 0.8941874995242725
vn -0.5140474672252396 -0.11010305552184575 0.8506659265564065
vn -0.2996994579419668 -0.1670539988779926 0.9392939882529658
vn 0.1988466367986262 -0.5953201609538077 0.7784946505890761
vn 0.193425559562395 -0.6563980958384233 0.7291968819788427
vn 0.11338026125906671 -0.576314809446717 0.8093245064677209
vn 0.1988466367986262 -0.5953201609538077 0.7784946505890761
vn 0.11338026125906671 -0.576314809446717 0.8093245064677209
vn 0.19530027232533878 -0.5787994007053497 0.7917379979341501
vn -0.10954426306999251 -0.5135082043017962 0.8510636747877312
vn -0.10896390991923653 -0.5058484724214036 0.855712679165177
vn -0.13794298030645752 -0.5074591475022359 0.850562724201147
vn -0.10954426306999251 -0.5135082043017962 0.8510636747877312
vn -0.13794298030645752 -0.5074591475022359 0.850562724201147
vn -0.1971637304039538 -0.5605093400207025 0.8043355911326774
vn 0.6121349871309143 -0.0765753753496433 0.7870368285031499
vn 0.7232207917389664 0.06380676182976068 0.6876629868920261
vn 0.30337844325369534 -0.13826634589483808 0.9427852023456103
vn 0.6121349871309143 -0.0765753753496433 0.7870368285031499
vn 0.30337844325369534 -0.13826634589483808 0.9427852023456103
vn 0.30165554252785115 -0.2388653250982331 0.9230099079251226
f 1/1/1 2/2/2 3/3/3
f 4/4/4 5/5/5 6/6/6
f 7/7/7 8/8/8 9/9/9
f 10/10/10 11/11/11 12/12/12
f 13/13/13 14/14/14 15/15/15
f 16/16/16 17/17/17 18/18/18
f 19/19/19 20/20/20 21/21/21
f 22/22/22 23/23/23 24/24/24
f 25/25/25 26/26/26 27/27/27
f 28/28/28 29/29/29 30/30/30
f 31/31/31 32/32/32 33/33/33
f 34/34/34 35/35/35 36/36/36
f 37/37/37 38/38/38 39/39/39
f 40/40/40 41/41/41 42/42/42
f 43/43/43 44/44/44 45/45/45
f 46/46/46 47/47/47 48/48/48
f 49/49/49 50/50/50 51/51/51
f 52/52/52 53/53/53 54/54/54
f 55/55/55 56/56/56 57/57/57
f 58/58/58 59/59/59 60/60/60
f 61/61/61 62/62/62 63/63/63
f 64/64/64 65/65/65 66/66/66
f 67/67/67 68/68/68 69/69/69
f 70/70/70 71/71/71 72/72/72
f 73/73/73 74/74/74 75/75/75
f 76/76/76 77/77/77 78/78/78
f 79/79/79 80/80/80 81/81/81
f 82/82/82 83/83/83 84/84/84
f 85/85/85 86/86/86 87/87/87
f 88/88/88 89/89/89 90/90/90
f 91/91/91 92/92/92 93/93/93
f 94/94/94 95/95/95 96/96/96
