mtllib ArcadaCompleta.mtl
o D54C_V
usemtl Esmalte
v -26.586200714111328 52.56706237792969 3.9600806541075264
v -26.697999954223633 51.285064697265625 4.4900806254972965
v -25.835599899291992 51.27066421508789 4.4984705752958805
v -26.586200714111328 52.56706237792969 3.9600806541075264
v -25.835599899291992 51.27066421508789 4.4984705752958805
v -25.851900100708008 52.54656219482422 3.8451707667936836
v -25.851900100708008 52.54656219482422 3.8451707667936836
v -25.835599899291992 51.27066421508789 4.4984705752958805
v -24.952800750732422 51.2713623046875 4.250770837747052
v -25.851900100708008 52.54656219482422 3.8451707667936836
v -24.952800750732422 51.2713623046875 4.250770837747052
v -25.096900939941406 52.45366287231445 3.638600856744245
v -27.32040023803711 52.546661376953125 3.8451707667936836
v -27.48069953918457 51.29536437988281 4.29310062595506
v -26.697999954223633 51.285064697265625 4.4900806254972965
v -27.32040023803711 52.546661376953125 3.8451707667936836
v -26.697999954223633 51.285064697265625 4.4900806254972965
v -26.586200714111328 52.56706237792969 3.9600806541075264
v -28.07550048828125 52.453861236572266 3.638600856744245
v -28.228900909423828 51.27096176147461 4.054070741616681
v -27.48069953918457 51.29536437988281 4.29310062595506
v -28.07550048828125 52.453861236572266 3.638600856744245
v -27.48069953918457 51.29536437988281 4.29310062595506
v -27.32040023803711 52.546661376953125 3.8451707667936836
vt 0.5003610253334045 0.9927700161933899
vt 0.48386698961257935 0.7430229783058167
vt 0.611066997051239 0.7402229905128479
vt 0.5003610253334045 0.9927700161933899
vt 0.611066997051239 0.7402229905128479
vt 0.6086580157279968 0.9887710213661194
vt 0.6086580157279968 0.9887710213661194
vt 0.611066997051239 0.7402229905128479
vt 0.7412769794464111 0.7403470277786255
vt 0.6086580157279968 0.9887710213661194
vt 0.7412769794464111 0.7403470277786255
vt 0.7200260162353516 0.9706760048866272
vt 0.39206400513648987 0.9887949824333191
vt 0.3684290051460266 0.7450299859046936
vt 0.48386698961257935 0.7430229783058167
vt 0.39206400513648987 0.9887949824333191
vt 0.48386698961257935 0.7430229783058167
vt 0.5003610253334045 0.9927700161933899
vt 0.28069400787353516 0.9707249999046326
vt 0.258078008890152 0.7402700185775757
vt 0.3684290051460266 0.7450299859046936
vt 0.28069400787353516 0.9707249999046326
vt 0.3684290051460266 0.7450299859046936
vt 0.39206400513648987 0.9887949824333191
vn -0.00038046292355471895 0.4101989994457407 0.9119959627661063
vn -0.12227229855946989 0.37676613164082123 0.9182030097170207
vn 0.13318403076799326 0.4285796702964338 0.8936338624722042
vn -0.00038046292355471895 0.4101989994457407 0.9119959627661063
vn 0.13318403076799326 0.4285796702964338 0.8936338624722042
vn 0.22730408717331513 0.4548837862253861 0.8610537689270998
vn 0.22730408717331513 0.4548837862253861 0.8610537689270998
vn 0.13318403076799326 0.4285796702964338 0.8936338624722042
vn 0.26168290456906745 0.4552006618746189 0.8510666336340563
vn 0.22730408717331513 0.4548837862253861 0.8610537689270998
vn 0.26168290456906745 0.4552006618746189 0.8510666336340563
vn 0.28633709588237316 0.4678374638398866 0.8361454269141891
vn -0.22195497502914663 0.36635855934881967 0.9036135208437666
vn -0.2679525161626511 0.35340825670556 0.8962723097220181
vn -0.12227229855946989 0.37676613164082123 0.9182030097170207
vn -0.22195497502914663 0.36635855934881967 0.9036135208437666
vn -0.12227229855946989 0.37676613164082123 0.9182030097170207
vn -0.00038046292355471895 0.4101989994457407 0.9119959627661063
vn -0.2910924447838552 0.3529171219065396 0.8892213974342739
vn -0.2953709408077694 0.3504700061439625 0.8887782525015925
vn -0.2679525161626511 0.35340825670556 0.8962723097220181
vn -0.2910924447838552 0.3529171219065396 0.8892213974342739
vn -0.2679525161626511 0.35340825670556 0.8962723097220181
vn -0.22195497502914663 0.36635855934881967 0.9036135208437666
f 1/1/1 2/2/2 3/3/3
f 4/4/4 5/5/5 6/6/6
f 7/7/7 8/8/8 9/9/9
f 10/10/10 11/11/11 12/12/12
f 13/13/13 14/14/14 15/15/15
f 16/16/16 17/17/17 18/18/18
f 19/19/19 20/20/20 21/21/21
f 22/22/22 23/23/23 24/24/24
