mtllib ArcadaCompleta.mtl
o D54C_CDP
usemtl Esmalte
v -28.927799224853516 48.060062408447266 -2.7723991566071966
v -29.598600387573242 48.4395637512207 -2.0718991451631044
v -29.75670051574707 49.079063415527344 -2.1044993095765565
v -28.927799224853516 48.060062408447266 -2.7723991566071966
v -29.75670051574707 49.079063415527344 -2.1044993095765565
v -29.087400436401367 48.903961181640625 -3.256499259985492
v -28.927799224853516 48.060062408447266 -2.7723991566071966
v -28.267499923706055 47.95756530761719 -3.1710693531403997
v -28.111099243164062 47.61836242675781 -2.7647292309174993
v -28.927799224853516 48.060062408447266 -2.7723991566071966
v -28.111099243164062 47.61836242675781 -2.7647292309174993
v -28.922100067138672 47.93086242675781 -2.326139181173847
v -28.726999282836914 52.36116409301758 -2.459309309042498
v -28.07550048828125 52.453861236572266 -3.184029310263201
v -28.227699279785156 51.269264221191406 -3.8344993286500424
v -28.726999282836914 52.36116409301758 -2.459309309042498
v -28.227699279785156 51.269264221191406 -3.8344993286500424
v -28.78529930114746 51.25646209716797 -3.3597092323670834
v -28.88129997253418 50.211761474609375 -3.2870492630372494
v -29.087400436401367 48.903961181640625 -3.256499259985492
v -29.75670051574707 49.079063415527344 -2.1044993095765565
v -28.88129997253418 50.211761474609375 -3.2870492630372494
v -29.75670051574707 49.079063415527344 -2.1044993095765565
v -29.43589973449707 50.21096420288086 -2.028069227255389
v -28.88129997253418 50.211761474609375 -3.2870492630372494
v -29.43589973449707 50.21096420288086 -2.028069227255389
v -29.271499633789062 51.26776123046875 -2.146099298513934
v -28.88129997253418 50.211761474609375 -3.2870492630372494
v -29.271499633789062 51.26776123046875 -2.146099298513934
v -28.78529930114746 51.25646209716797 -3.3597092323670834
v -29.087400436401367 48.903961181640625 -3.256499259985492
v -28.433700561523438 48.92476272583008 -3.644349306143329
v -28.267499923706055 47.95756530761719 -3.1710693531403997
v -29.087400436401367 48.903961181640625 -3.256499259985492
v -28.267499923706055 47.95756530761719 -3.1710693531403997
v -28.927799224853516 48.060062408447266 -2.7723991566071966
v -28.922100067138672 47.93086242675781 -2.326139181173847
v -29.292499542236328 48.19566345214844 -1.8505292826066473
v -29.598600387573242 48.4395637512207 -2.0718991451631044
v -28.922100067138672 47.93086242675781 -2.326139181173847
v -29.598600387573242 48.4395637512207 -2.0718991451631044
v -28.927799224853516 48.060062408447266 -2.7723991566071966
v -28.922100067138672 47.93086242675781 -2.326139181173847
v -28.65089988708496 47.76366424560547 -2.095219343222187
v -29.292499542236328 48.19566345214844 -1.8505292826066473
v -27.469100952148438 47.97426223754883 -3.4950391941438177
v -27.56439971923828 47.74186325073242 -3.0341992073426702
v -28.111099243164062 47.61836242675781 -2.7647292309174993
v -27.469100952148438 47.97426223754883 -3.4950391941438177
v -28.111099243164062 47.61836242675781 -2.7647292309174993
v -28.267499923706055 47.95756530761719 -3.1710693531403997
v -27.51740074157715 48.92876434326172 -3.9977693252931092
v -28.433700561523438 48.92476272583008 -3.644349306143329
v -28.317800521850586 50.2337646484375 -3.8332993679414242
v -27.51740074157715 48.92876434326172 -3.9977693252931092
v -28.317800521850586 50.2337646484375 -3.8332993679414242
v -27.436100006103516 50.19456481933594 -4.15297910503249
v -27.56439971923828 47.74186325073242 -3.0341992073426702
v -27.704599380493164 47.765960693359375 -2.6036691360841253
v -28.111099243164062 47.61836242675781 -2.7647292309174993
v -28.78529930114746 51.25646209716797 -3.3597092323670834
v -29.271499633789062 51.26776123046875 -2.146099298513934
v -29.072099685668945 52.282161712646484 -1.5997192554841488
v -28.78529930114746 51.25646209716797 -3.3597092323670834
v -29.072099685668945 52.282161712646484 -1.5997192554841488
v -28.726999282836914 52.36116409301758 -2.459309309042498
v -28.78529930114746 51.25646209716797 -3.3597092323670834
v -28.227699279785156 51.269264221191406 -3.8344993286500424
v -28.317800521850586 50.2337646484375 -3.8332993679414242
v -28.78529930114746 51.25646209716797 -3.3597092323670834
v -28.317800521850586 50.2337646484375 -3.8332993679414242
v -28.88129997253418 50.211761474609375 -3.2870492630372494
v -28.111099243164062 47.61836242675781 -2.7647292309174993
v -28.65089988708496 47.76366424560547 -2.095219343222187
v -28.922100067138672 47.93086242675781 -2.326139181173847
v -28.111099243164062 47.61836242675781 -2.7647292309174993
v -27.970800399780273 47.970664978027344 -2.100349157370136
v -28.65089988708496 47.76366424560547 -2.095219343222187
v -28.111099243164062 47.61836242675781 -2.7647292309174993
v -27.704599380493164 47.765960693359375 -2.6036691360841253
v -27.970800399780273 47.970664978027344 -2.100349157370136
v -28.317800521850586 50.2337646484375 -3.8332993679414242
v -28.433700561523438 48.92476272583008 -3.644349306143329
v -29.087400436401367 48.903961181640625 -3.256499259985492
v -28.317800521850586 50.2337646484375 -3.8332993679414242
v -29.087400436401367 48.903961181640625 -3.256499259985492
v -28.88129997253418 50.211761474609375 -3.2870492630372494
v -28.267499923706055 47.95756530761719 -3.1710693531403997
v -28.433700561523438 48.92476272583008 -3.644349306143329
v -27.51740074157715 48.92876434326172 -3.9977693252931092
v -28.267499923706055 47.95756530761719 -3.1710693531403997
v -27.51740074157715 48.92876434326172 -3.9977693252931092
v -27.469100952148438 47.97426223754883 -3.4950391941438177
v -27.796199798583984 48.948062896728516 -1.3752191954026676
v -28.080299377441406 48.101863861083984 -1.7975492172608831
v -27.970800399780273 47.970664978027344 -2.100349157370136
v -27.796199798583984 48.948062896728516 -1.3752191954026676
v -27.970800399780273 47.970664978027344 -2.100349157370136
v -27.38610076904297 47.8239631652832 -2.2100591354737738
v -27.38610076904297 47.8239631652832 -2.2100591354737738
v -26.972900390625 48.08146286010742 -1.3705992393861273
v -27.796199798583984 48.948062896728516 -1.3752191954026676
v -28.65089988708496 47.76366424560547 -2.095219343222187
v -28.080299377441406 48.101863861083984 -1.7975492172608831
v -28.404699325561523 48.18696212768555 -1.5017991953263738
v -28.65089988708496 47.76366424560547 -2.095219343222187
v -28.742700576782227 48.102264404296875 -1.3606692247758367
v -28.95949935913086 48.11426544189453 -1.532709210432575
v -28.65089988708496 47.76366424560547 -2.095219343222187
v -28.95949935913086 48.11426544189453 -1.532709210432575
v -29.292499542236328 48.19566345214844 -1.8505292826066473
v -27.970800399780273 47.970664978027344 -2.100349157370136
v -28.080299377441406 48.101863861083984 -1.7975492172608831
v -28.65089988708496 47.76366424560547 -2.095219343222187
v -27.970800399780273 47.970664978027344 -2.100349157370136
v -27.704599380493164 47.765960693359375 -2.6036691360841253
v -27.12700080871582 47.71996307373047 -2.6806392364869573
v -27.970800399780273 47.970664978027344 -2.100349157370136
v -27.12700080871582 47.71996307373047 -2.6806392364869573
v -27.38610076904297 47.8239631652832 -2.2100591354737738
v -28.404699325561523 48.18696212768555 -1.5017991953263738
v -28.742700576782227 48.102264404296875 -1.3606692247758367
v -28.65089988708496 47.76366424560547 -2.095219343222187
vt 0.16447800397872925 0.11475199460983276
vt 0.2449280023574829 0.18869400024414062
vt 0.24118299782276154 0.3132660388946533
vt 0.16447800397872925 0.11475199460983276
vt 0.24118299782276154 0.3132660388946533
vt 0.10888200253248215 0.27915096282958984
vt 0.8450180292129517 0.8355219960212708
vt 0.7476239800453186 0.881305992603302
vt 0.7245519757270813 0.8346400260925293
vt 0.8450180292129517 0.8355219960212708
vt 0.7245519757270813 0.8346400260925293
vt 0.8441770076751709 0.7842710018157959
vt 0.20043499767780304 0.9526510238647461
vt 0.11720500141382217 0.9707249999046326
vt 0.04250210151076317 0.7399399876594543
vt 0.18459999561309814 0.7995650172233582
vt 0.25824400782585144 0.9574980139732361
vt 0.17600299417972565 0.9029710292816162
vt 0.10537300258874893 0.5339360237121582
vt 0.10888200253248215 0.27915096282958984
vt 0.24118299782276154 0.3132660388946533
vt 0.10537300258874893 0.5339360237121582
vt 0.24118299782276154 0.3132660388946533
vt 0.2499600052833557 0.533765971660614
vt 0.10537300258874893 0.5339360237121582
vt 0.2499600052833557 0.533765971660614
vt 0.23640599846839905 0.7396450042724609
vt 0.10537300258874893 0.5339360237121582
vt 0.23640599846839905 0.7396450042724609
vt 0.09702940285205841 0.7374439835548401
vt 0.8685539960861206 0.27915096282958984
vt 0.7721400260925293 0.2831990122795105
vt 0.7476239800453186 0.0947800874710083
vt 0.8685539960861206 0.8911179900169373
vt 0.7476239800453186 0.881305992603302
vt 0.8450180292129517 0.8355219960212708
vt 0.8441770076751709 0.7842710018157959
vt 0.898809015750885 0.729649007320404
vt 0.9439560174942017 0.7550719976425171
vt 0.8441770076751709 0.7842710018157959
vt 0.9439560174942017 0.7550719976425171
vt 0.8450180292129517 0.8355219960212708
vt 0.8441770076751709 0.7842710018157959
vt 0.8041689991950989 0.7577509880065918
vt 0.898809015750885 0.729649007320404
vt 0.6298649907112122 0.9185119867324829
vt 0.6439149975776672 0.8655880093574524
vt 0.7245519757270813 0.8346400260925293
vt 0.6298649907112122 0.9185119867324829
vt 0.7245519757270813 0.8346400260925293
vt 0.7476239800453186 0.881305992603302
vt 0.6369879841804504 0.2839930057525635
vt 0.7721400260925293 0.2831990122795105
vt 0.7550420165061951 0.5382149815559387
vt 0.6369879841804504 0.2839930057525635
vt 0.7550420165061951 0.5382149815559387
vt 0.6250020265579224 0.5305870175361633
vt 0.6439149975776672 0.8655880093574524
vt 0.6645960211753845 0.8161429762840271
vt 0.7245519757270813 0.8346400260925293
vt 0.09702940285205841 0.7374439835548401
vt 0.23640599846839905 0.7396450042724609
vt 0.29915401339530945 0.9372730255126953
vt 0.09702940285205841 0.7374439835548401
vt 0.29915401339530945 0.9372730255126953
vt 0.20043499767780304 0.9526510238647461
vt 0.09702940285205841 0.7374439835548401
vt 0.04250210151076317 0.7399399876594543
vt 0.04263930022716522 0.5382149815559387
vt 0.09702940285205841 0.7374439835548401
vt 0.04263930022716522 0.5382149815559387
vt 0.10537300258874893 0.5339360237121582
vt 0.7245519757270813 0.8346400260925293
vt 0.8041689991950989 0.7577509880065918
vt 0.8441770076751709 0.7842710018157959
vt 0.7245519757270813 0.8346400260925293
vt 0.7038570046424866 0.7583400011062622
vt 0.8041689991950989 0.7577509880065918
vt 0.7245519757270813 0.8346400260925293
vt 0.6645960211753845 0.8161429762840271
vt 0.7038570046424866 0.7583400011062622
vt 0.7550420165061951 0.5382149815559387
vt 0.7721400260925293 0.2831990122795105
vt 0.8685539960861206 0.27915096282958984
vt 0.04263930022716522 0.5382149815559387
vt 0.10888200253248215 0.27915096282958984
vt 0.10537300258874893 0.5339360237121582
vt 0.7476239800453186 0.0947800874710083
vt 0.7721400260925293 0.2831990122795105
vt 0.6369879841804504 0.2839930057525635
vt 0.7476239800453186 0.0947800874710083
vt 0.6369879841804504 0.2839930057525635
vt 0.6298649907112122 0.0980302095413208
vt 0.6750620007514954 0.28774797916412354
vt 0.7235649824142456 0.12289899587631226
vt 0.7583400011062622 0.09732860326766968
vt 0.6781039834022522 0.6750620007514954
vt 0.7038570046424866 0.7583400011062622
vt 0.6176199913024902 0.7709400057792664
vt 0.6176199913024902 0.7709400057792664
vt 0.5566750168800354 0.6745319962501526
vt 0.6781039834022522 0.6750620007514954
vt 0.8041689991950989 0.7577509880065918
vt 0.720009982585907 0.7235649824142456
vt 0.7678629755973816 0.6895999908447266
vt 0.8041689991950989 0.7577509880065918
vt 0.8177139759063721 0.6733919978141785
vt 0.8496869802474976 0.693149983882904
vt 0.8041689991950989 0.7577509880065918
vt 0.8496869802474976 0.693149983882904
vt 0.898809015750885 0.729649007320404
vt 0.7038570046424866 0.7583400011062622
vt 0.720009982585907 0.7235649824142456
vt 0.8041689991950989 0.7577509880065918
vt 0.7038570046424866 0.7583400011062622
vt 0.6645960211753845 0.8161429762840271
vt 0.5794050097465515 0.8249830007553101
vt 0.7038570046424866 0.7583400011062622
vt 0.5794050097465515 0.8249830007553101
vt 0.6176199913024902 0.7709400057792664
vt 0.7678629755973816 0.6895999908447266
vt 0.8177139759063721 0.6733919978141785
vt 0.8041689991950989 0.7577509880065918
vn -0.6798915071025505 -0.5420974336777967 -0.49383996493780175
vn -0.7417940151330557 -0.5500654321587891 -0.3836269795735757
vn -0.876632703237132 0.004480120486767998 -0.48113930637143165
vn -0.6798915071025505 -0.5420974336777967 -0.49383996493780175
vn -0.876632703237132 0.004480120486767998 -0.48113930637143165
vn -0.723072604854926 -0.16432115944127287 -0.6709430412994742
vn -0.6798915071025505 -0.5420974336777967 -0.49383996493780175
vn -0.37997320535687373 -0.5390918289088057 -0.7516650605253525
vn -0.15120072620067557 -0.9768731566457634 -0.15118589954532985
vn -0.6798915071025505 -0.5420974336777967 -0.49383996493780175
vn -0.15120072620067557 -0.9768731566457634 -0.15118589954532985
vn -0.5381329472793532 -0.8312257245860468 -0.1395590406918814
vn -0.7390908805453131 0.42534319305040474 -0.5223292433134867
vn -0.7039668023815141 0.4092042432468001 -0.5805020486213289
vn -0.6557442672409437 0.37258008841296386 -0.6566456683012734
vn -0.7390908805453131 0.42534319305040474 -0.5223292433134867
vn -0.6557442672409437 0.37258008841296386 -0.6566456683012734
vn -0.8242209230373932 0.24721837564032353 -0.5094535746985661
vn -0.8583633223129274 0.12497530637596561 -0.49758776080621897
vn -0.723072604854926 -0.16432115944127287 -0.6709430412994742
vn -0.876632703237132 0.004480120486767998 -0.48113930637143165
vn -0.8583633223129274 0.12497530637596561 -0.49758776080621897
vn -0.876632703237132 0.004480120486767998 -0.48113930637143165
vn -0.8982301907178629 0.1916055670089872 -0.3955626766697233
vn -0.8583633223129274 0.12497530637596561 -0.49758776080621897
vn -0.8982301907178629 0.1916055670089872 -0.3955626766697233
vn -0.9092938866305621 0.17366559739144805 -0.3781863138969443
vn -0.8583633223129274 0.12497530637596561 -0.49758776080621897
vn -0.9092938866305621 0.17366559739144805 -0.3781863138969443
vn -0.8242209230373932 0.24721837564032353 -0.5094535746985661
vn -0.723072604854926 -0.16432115944127287 -0.6709430412994742
vn -0.40848107026512886 -0.263295983984185 -0.8739670703481079
vn -0.37997320535687373 -0.5390918289088057 -0.7516650605253525
vn -0.723072604854926 -0.16432115944127287 -0.6709430412994742
vn -0.37997320535687373 -0.5390918289088057 -0.7516650605253525
vn -0.6798915071025505 -0.5420974336777967 -0.49383996493780175
vn -0.5381329472793532 -0.8312257245860468 -0.1395590406918814
vn -0.5416390381688514 -0.8339361078461737 0.10572473864662175
vn -0.7417940151330557 -0.5500654321587891 -0.3836269795735757
vn -0.5381329472793532 -0.8312257245860468 -0.1395590406918814
vn -0.7417940151330557 -0.5500654321587891 -0.3836269795735757
vn -0.6798915071025505 -0.5420974336777967 -0.49383996493780175
vn -0.5381329472793532 -0.8312257245860468 -0.1395590406918814
vn -0.05438463053294376 -0.9455866824495299 0.3207929829904124
vn -0.5416390381688514 -0.8339361078461737 0.10572473864662175
vn -0.25749188530903355 -0.6401126352250675 -0.7238464914781443
vn 0.12385981933081235 -0.973019454918331 -0.194658381545138
vn -0.15120072620067557 -0.9768731566457634 -0.15118589954532985
vn -0.25749188530903355 -0.6401126352250675 -0.7238464914781443
vn -0.15120072620067557 -0.9768731566457634 -0.15118589954532985
vn -0.37997320535687373 -0.5390918289088057 -0.7516650605253525
vn -0.34391732755088744 -0.2618995213767516 -0.90173694196971
vn -0.40848107026512886 -0.263295983984185 -0.8739670703481079
vn -0.5278579093167125 -0.028919803507378366 -0.8488401925786054
vn -0.34391732755088744 -0.2618995213767516 -0.90173694196971
vn -0.5278579093167125 -0.028919803507378366 -0.8488401925786054
vn -0.3430301596800795 -0.09258457407522012 -0.9347504512933754
vn 0.12385981933081235 -0.973019454918331 -0.194658381545138
vn 0.12210334304237895 -0.9332306004120525 0.33789261618513566
vn -0.15120072620067557 -0.9768731566457634 -0.15118589954532985
vn -0.8242209230373932 0.24721837564032353 -0.5094535746985661
vn -0.9092938866305621 0.17366559739144805 -0.3781863138969443
vn -0.8769289684759858 0.33914685280735 -0.34055101890687867
vn -0.8242209230373932 0.24721837564032353 -0.5094535746985661
vn -0.8769289684759858 0.33914685280735 -0.34055101890687867
vn -0.7390908805453131 0.42534319305040474 -0.5223292433134867
vn -0.8242209230373932 0.24721837564032353 -0.5094535746985661
vn -0.6557442672409437 0.37258008841296386 -0.6566456683012734
vn -0.5278579093167125 -0.028919803507378366 -0.8488401925786054
vn -0.8242209230373932 0.24721837564032353 -0.5094535746985661
vn -0.5278579093167125 -0.028919803507378366 -0.8488401925786054
vn -0.8583633223129274 0.12497530637596561 -0.49758776080621897
vn -0.15120072620067557 -0.9768731566457634 -0.15118589954532985
vn -0.05438463053294376 -0.9455866824495299 0.3207929829904124
vn -0.5381329472793532 -0.8312257245860468 -0.1395590406918814
vn -0.15120072620067557 -0.9768731566457634 -0.15118589954532985
vn 0.15767963499695248 -0.8275330803948531 0.5388192030351491
vn -0.05438463053294376 -0.9455866824495299 0.3207929829904124
vn -0.15120072620067557 -0.9768731566457634 -0.15118589954532985
vn 0.12210334304237895 -0.9332306004120525 0.33789261618513566
vn 0.15767963499695248 -0.8275330803948531 0.5388192030351491
vn -0.5278579093167125 -0.028919803507378366 -0.8488401925786054
vn -0.40848107026512886 -0.263295983984185 -0.8739670703481079
vn -0.723072604854926 -0.16432115944127287 -0.6709430412994742
vn -0.5278579093167125 -0.028919803507378366 -0.8488401925786054
vn -0.723072604854926 -0.16432115944127287 -0.6709430412994742
vn -0.8583633223129274 0.12497530637596561 -0.49758776080621897
vn -0.37997320535687373 -0.5390918289088057 -0.7516650605253525
vn -0.40848107026512886 -0.263295983984185 -0.8739670703481079
vn -0.34391732755088744 -0.2618995213767516 -0.90173694196971
vn -0.37997320535687373 -0.5390918289088057 -0.7516650605253525
vn -0.34391732755088744 -0.2618995213767516 -0.90173694196971
vn -0.25749188530903355 -0.6401126352250675 -0.7238464914781443
vn -0.2793258292752184 -0.6702984245526125 0.6875151657541796
vn 0.4240878643945499 -0.7546059837040913 0.5007187759923234
vn 0.15767963499695248 -0.8275330803948531 0.5388192030351491
vn -0.2793258292752184 -0.6702984245526125 0.6875151657541796
vn 0.15767963499695248 -0.8275330803948531 0.5388192030351491
vn -0.39595875212558956 -0.6952275645848741 0.5998960743799968
vn -0.39595875212558956 -0.6952275645848741 0.5998960743799968
vn -0.6316041816048231 -0.5974110837654932 0.49414183669614603
vn -0.2793258292752184 -0.6702984245526125 0.6875151657541796
vn -0.05438463053294376 -0.9455866824495299 0.3207929829904124
vn 0.4240878643945499 -0.7546059837040913 0.5007187759923234
vn 0.3063652763553001 -0.8304573758334143 0.465275041634107
vn -0.05438463053294376 -0.9455866824495299 0.3207929829904124
vn 0.0941180868375155 -0.8996031010877686 0.42644583037393613
vn -0.41707273257239674 -0.856220879241069 0.304854295846794
vn -0.05438463053294376 -0.9455866824495299 0.3207929829904124
vn -0.41707273257239674 -0.856220879241069 0.304854295846794
vn -0.5416390381688514 -0.8339361078461737 0.10572473864662175
vn 0.15767963499695248 -0.8275330803948531 0.5388192030351491
vn 0.4240878643945499 -0.7546059837040913 0.5007187759923234
vn -0.05438463053294376 -0.9455866824495299 0.3207929829904124
vn 0.15767963499695248 -0.8275330803948531 0.5388192030351491
vn 0.12210334304237895 -0.9332306004120525 0.33789261618513566
vn -0.12114774641566252 -0.9631924200477163 0.23996580069049386
vn 0.15767963499695248 -0.8275330803948531 0.5388192030351491
vn -0.12114774641566252 -0.9631924200477163 0.23996580069049386
vn -0.39595875212558956 -0.6952275645848741 0.5998960743799968
vn 0.3063652763553001 -0.8304573758334143 0.465275041634107
vn 0.0941180868375155 -0.8996031010877686 0.42644583037393613
vn -0.05438463053294376 -0.9455866824495299 0.3207929829904124
f 1/1/1 2/2/2 3/3/3
f 4/4/4 5/5/5 6/6/6
f 7/7/7 8/8/8 9/9/9
f 10/10/10 11/11/11 12/12/12
f 13/13/13 14/14/14 15/15/15
f 16/16/16 17/17/17 18/18/18
f 19/19/19 20/20/20 21/21/21
f 22/22/22 23/23/23 24/24/24
f 25/25/25 26/26/26 27/27/27
f 28/28/28 29/29/29 30/30/30
f 31/31/31 32/32/32 33/33/33
f 34/34/34 35/35/35 36/36/36
f 37/37/37 38/38/38 39/39/39
f 40/40/40 41/41/41 42/42/42
f 43/43/43 44/44/44 45/45/45
f 46/46/46 47/47/47 48/48/48
f 49/49/49 50/50/50 51/51/51
f 52/52/52 53/53/53 54/54/54
f 55/55/55 56/56/56 57/57/57
f 58/58/58 59/59/59 60/60/60
f 61/61/61 62/62/62 63/63/63
f 64/64/64 65/65/65 66/66/66
f 67/67/67 68/68/68 69/69/69
f 70/70/70 71/71/71 72/72/72
f 73/73/73 74/74/74 75/75/75
f 76/76/76 77/77/77 78/78/78
f 79/79/79 80/80/80 81/81/81
f 82/82/82 83/83/83 84/84/84
f 85/85/85 86/86/86 87/87/87
f 88/88/88 89/89/89 90/90/90
f 91/91/91 92/92/92 93/93/93
f 94/94/94 95/95/95 96/96/96
f 97/97/97 98/98/98 99/99/99
f 100/100/100 101/101/101 102/102/102
f 103/103/103 104/104/104 105/105/105
f 106/106/106 107/107/107 108/108/108
f 109/109/109 110/110/110 111/111/111
f 112/112/112 113/113/113 114/114/114
f 115/115/115 116/116/116 117/117/117
f 118/118/118 119/119/119 120/120/120
f 121/121/121 122/122/122 123/123/123
