mtllib ArcadaCompleta.mtl
o D62C_M
usemtl Esmalte
v 9.568909645080566 47.72126388549805 0.3643977350821039
v 9.596229553222656 48.755863189697266 0.6755077547659419
v 9.450519561767578 48.755863189697266 0.018328345127894777
v 9.39933967590332 47.73876190185547 0.016078144990398554
v 9.568909645080566 47.72126388549805 0.3643977350821039
v 9.450519561767578 48.755863189697266 0.018328345127894777
v 9.689749717712402 49.90666198730469 0.679196745835736
v 9.56167984008789 49.90666198730469 0.01832834512789503
v 9.450519561767578 48.755863189697266 0.018328345127894777
v 9.596229553222656 48.755863189697266 0.6755077547659419
v 9.689749717712402 49.90666198730469 0.679196745835736
v 9.450519561767578 48.755863189697266 0.018328345127894777
v 9.569089889526367 47.993064880371094 -0.32022926143507746
v 9.39933967590332 47.73876190185547 0.016078144990398554
v 9.450519561767578 48.755863189697266 0.018328345127894777
v 9.596229553222656 48.755863189697266 -0.41103625229697
v 9.569089889526367 47.993064880371094 -0.32022926143507746
v 9.450519561767578 48.755863189697266 0.018328345127894777
v 10.768699645996094 49.90666198730469 1.626550704919293
v 11.042499542236328 50.73206329345703 1.8096707172026185
v 10.268400192260742 50.73206329345703 1.3730907744993714
v 9.92024040222168 49.90666198730469 1.1838907308210875
v 10.768699645996094 49.90666198730469 1.626550704919293
v 10.268400192260742 50.73206329345703 1.3730907744993714
v 9.689749717712402 49.90666198730469 -0.6425402455697511
v 9.957900047302246 50.73206329345703 -0.6046472483048889
v 10.409799575805664 50.73206329345703 -1.3364292078385802
v 10.008500099182129 49.90666198730469 -0.9700432711015199
v 9.689749717712402 49.90666198730469 -0.6425402455697511
v 10.409799575805664 50.73206329345703 -1.3364292078385802
v 9.689749717712402 49.90666198730469 0.679196745835736
v 9.957900047302246 50.73206329345703 0.641303748570874
v 9.867790222167969 50.73206329345703 0.018328345127895215
v 9.56167984008789 49.90666198730469 0.01832834512789503
v 9.689749717712402 49.90666198730469 0.679196745835736
v 9.867790222167969 50.73206329345703 0.018328345127895215
v 9.568909645080566 47.72126388549805 0.3643977350821039
v 9.743510246276855 48.755863189697266 0.7803167409529231
v 9.596229553222656 48.755863189697266 0.6755077547659419
v 9.56167984008789 49.90666198730469 0.01832834512789503
v 9.689749717712402 49.90666198730469 -0.6425402455697511
v 9.596229553222656 48.755863189697266 -0.41103625229697
v 9.450519561767578 48.755863189697266 0.018328345127894777
v 9.56167984008789 49.90666198730469 0.01832834512789503
v 9.596229553222656 48.755863189697266 -0.41103625229697
v 10.008500099182129 49.90666198730469 -0.9700432711015199
v 9.776639938354492 48.755863189697266 -0.5833462767968632
v 9.596229553222656 48.755863189697266 -0.41103625229697
v 9.689749717712402 49.90666198730469 -0.6425402455697511
v 10.008500099182129 49.90666198730469 -0.9700432711015199
v 9.596229553222656 48.755863189697266 -0.41103625229697
v 9.957900047302246 50.73206329345703 0.641303748570874
v 9.689749717712402 49.90666198730469 0.679196745835736
v 9.92024040222168 49.90666198730469 1.1838907308210875
v 10.268400192260742 50.73206329345703 1.3730907744993714
v 9.957900047302246 50.73206329345703 0.641303748570874
v 9.92024040222168 49.90666198730469 1.1838907308210875
v 11.075699806213379 50.73206329345703 -1.5335492782960387
v 10.681699752807617 49.90666198730469 -1.0330192737946962
v 10.008500099182129 49.90666198730469 -0.9700432711015199
v 10.409799575805664 50.73206329345703 -1.3364292078385802
v 11.075699806213379 50.73206329345703 -1.5335492782960387
v 10.008500099182129 49.90666198730469 -0.9700432711015199
v 9.957900047302246 50.73206329345703 -0.6046472483048889
v 9.689749717712402 49.90666198730469 -0.6425402455697511
v 9.56167984008789 49.90666198730469 0.01832834512789503
v 9.867790222167969 50.73206329345703 0.018328345127895215
v 9.957900047302246 50.73206329345703 -0.6046472483048889
v 9.56167984008789 49.90666198730469 0.01832834512789503
v 9.743510246276855 48.755863189697266 0.7803167409529231
v 9.92024040222168 49.90666198730469 1.1838907308210875
v 9.689749717712402 49.90666198730469 0.679196745835736
v 9.596229553222656 48.755863189697266 0.6755077547659419
v 9.743510246276855 48.755863189697266 0.7803167409529231
v 9.689749717712402 49.90666198730469 0.679196745835736
v 10.008500099182129 49.90666198730469 -0.9700432711015199
v 10.681699752807617 49.90666198730469 -1.0330192737946962
v 10.443300247192383 48.755863189697266 -0.6797182255158879
v 9.776639938354492 48.755863189697266 -0.5833462767968632
v 10.008500099182129 49.90666198730469 -0.9700432711015199
v 10.443300247192383 48.755863189697266 -0.6797182255158879
v 9.568909645080566 47.72126388549805 0.3643977350821039
v 10.363300323486328 48.186561584472656 0.770315737210705
v 10.503100395202637 48.755863189697266 1.0737207240690732
v 9.743510246276855 48.755863189697266 0.7803167409529231
v 9.568909645080566 47.72126388549805 0.3643977350821039
v 10.503100395202637 48.755863189697266 1.0737207240690732
v 9.596229553222656 48.755863189697266 -0.41103625229697
v 9.776639938354492 48.755863189697266 -0.5833462767968632
v 9.569089889526367 47.993064880371094 -0.32022926143507746
v 9.743510246276855 48.755863189697266 0.7803167409529231
v 10.503100395202637 48.755863189697266 1.0737207240690732
v 10.768699645996094 49.90666198730469 1.626550704919293
v 9.92024040222168 49.90666198730469 1.1838907308210875
v 9.743510246276855 48.755863189697266 0.7803167409529231
v 10.768699645996094 49.90666198730469 1.626550704919293
v 10.363300323486328 48.14336395263672 -0.5323012762437322
v 9.569089889526367 47.993064880371094 -0.32022926143507746
v 9.776639938354492 48.755863189697266 -0.5833462767968632
v 10.443300247192383 48.755863189697266 -0.6797182255158879
v 10.363300323486328 48.14336395263672 -0.5323012762437322
v 9.776639938354492 48.755863189697266 -0.5833462767968632
vt 0.41996699571609497 0.08468091487884521
vt 0.34324100613594055 0.26941901445388794
vt 0.5053160190582275 0.26941901445388794
vt 0.5058709979057312 0.08780771493911743
vt 0.41996699571609497 0.08468091487884521
vt 0.5053160190582275 0.26941901445388794
vt 0.3423309922218323 0.4748910069465637
vt 0.5053160190582275 0.4748910069465637
vt 0.5053160190582275 0.26941901445388794
vt 0.34324100613594055 0.26941901445388794
vt 0.3423309922218323 0.4748910069465637
vt 0.5053160190582275 0.26941901445388794
vt 0.588811993598938 0.13321197032928467
vt 0.5058709979057312 0.08780771493911743
vt 0.5053160190582275 0.26941901445388794
vt 0.6112070083618164 0.26941901445388794
vt 0.588811993598938 0.13321197032928467
vt 0.5053160190582275 0.26941901445388794
vt 0.7356399893760681 0.4748910069465637
vt 0.6828780174255371 0.6222730278968811
vt 0.8320479989051819 0.6222730278968811
vt 0.8991289734840393 0.4748910069465637
vt 0.7356399893760681 0.4748910069465637
vt 0.8320479989051819 0.6222730278968811
vt 0.668300986289978 0.4748910069465637
vt 0.6589549779891968 0.6222730278968811
vt 0.8394299745559692 0.6222730278968811
vt 0.11788100004196167 0.4748910069465637
vt 0.056458599865436554 0.4748910069465637
vt 0.19520799815654755 0.6222730278968811
vt 0.3423309922218323 0.4748910069465637
vt 0.35167598724365234 0.6222730278968811
vt 0.5053160190582275 0.6222730278968811
vt 0.5053160190582275 0.4748910069465637
vt 0.3423309922218323 0.4748910069465637
vt 0.5053160190582275 0.6222730278968811
vt 0.9668260216712952 0.08468091487884521
vt 0.9331830143928528 0.26941901445388794
vt 0.9615619778633118 0.26941901445388794
vt 0.5053160190582275 0.4748910069465637
vt 0.668300986289978 0.4748910069465637
vt 0.6112070083618164 0.26941901445388794
vt 0.5053160190582275 0.26941901445388794
vt 0.5053160190582275 0.4748910069465637
vt 0.6112070083618164 0.26941901445388794
vt 0.11788100004196167 0.4748910069465637
vt 0.07320059835910797 0.26941901445388794
vt 0.03843830153346062 0.26941901445388794
vt 0.056458599865436554 0.4748910069465637
vt 0.11788100004196167 0.4748910069465637
vt 0.03843830153346062 0.26941901445388794
vt 0.35167598724365234 0.6222730278968811
vt 0.3423309922218323 0.4748910069465637
vt 0.21786299347877502 0.4748910069465637
vt 0.17120100557804108 0.6222730278968811
vt 0.35167598724365234 0.6222730278968811
vt 0.21786299347877502 0.4748910069465637
vt 0.32350799441337585 0.6222730278968811
vt 0.24759000539779663 0.4748910069465637
vt 0.11788100004196167 0.4748910069465637
vt 0.19520799815654755 0.6222730278968811
vt 0.32350799441337585 0.6222730278968811
vt 0.11788100004196167 0.4748910069465637
vt 0.6589549779891968 0.6222730278968811
vt 0.668300986289978 0.4748910069465637
vt 0.5053160190582275 0.4748910069465637
vt 0.5053160190582275 0.6222730278968811
vt 0.6589549779891968 0.6222730278968811
vt 0.5053160190582275 0.4748910069465637
vt 0.3173919916152954 0.26941901445388794
vt 0.21786299347877502 0.4748910069465637
vt 0.3423309922218323 0.4748910069465637
vt 0.9615619778633118 0.26941901445388794
vt 0.9331830143928528 0.26941901445388794
vt 0.9435409903526306 0.4748910069465637
vt 0.11788100004196167 0.4748910069465637
vt 0.24759000539779663 0.4748910069465637
vt 0.201664000749588 0.26941901445388794
vt 0.07320059835910797 0.26941901445388794
vt 0.11788100004196167 0.4748910069465637
vt 0.201664000749588 0.26941901445388794
vt 0.9668260216712952 0.08468091487884521
vt 0.8137509822845459 0.1677669882774353
vt 0.7868189811706543 0.26941901445388794
vt 0.9331830143928528 0.26941901445388794
vt 0.9668260216712952 0.08468091487884521
vt 0.7868189811706543 0.26941901445388794
vt 0.03843830153346062 0.26941901445388794
vt 0.07320059835910797 0.26941901445388794
vt 0.03320860117673874 0.13321197032928467
vt 0.9331830143928528 0.26941901445388794
vt 0.7868189811706543 0.26941901445388794
vt 0.7356399893760681 0.4748910069465637
vt 0.8991289734840393 0.4748910069465637
vt 0.9331830143928528 0.26941901445388794
vt 0.7356399893760681 0.4748910069465637
vt 0.18624800443649292 0.160040020942688
vt 0.03320860117673874 0.13321197032928467
vt 0.07320059835910797 0.26941901445388794
vt 0.201664000749588 0.26941901445388794
vt 0.18624800443649292 0.160040020942688
vt 0.07320059835910797 0.26941901445388794
vn -0.6652104633923595 -0.21732718521666397 0.714327609685587
vn -0.9333791700165033 -0.00008656866119881836 0.35889179077428085
vn -0.997269026451906 0.05051587179919364 0.053876113223161826
vn -0.9985453764726242 0.050202648217756905 0.019667873221809556
vn -0.6652104633923595 -0.21732718521666397 0.714327609685587
vn -0.997269026451906 0.05051587179919364 0.053876113223161826
vn -0.9434314779295687 0.16768342355059607 0.28604075918998184
vn -0.9782546033916655 0.19682435723309277 -0.06540721170325875
vn -0.997269026451906 0.05051587179919364 0.053876113223161826
vn -0.9333791700165033 -0.00008656866119881836 0.35889179077428085
vn -0.9434314779295687 0.16768342355059607 0.28604075918998184
vn -0.997269026451906 0.05051587179919364 0.053876113223161826
vn -0.6800111765500206 -0.11825019235412727 -0.7236032695996256
vn -0.9985453764726242 0.050202648217756905 0.019667873221809556
vn -0.997269026451906 0.05051587179919364 0.053876113223161826
vn -0.895381057598448 -0.0024946321677588204 -0.44529376652299135
vn -0.6800111765500206 -0.11825019235412727 -0.7236032695996256
vn -0.997269026451906 0.05051587179919364 0.053876113223161826
vn -0.43535140825137103 -0.17571715077461994 0.882945431075555
vn -0.49101795496097184 -0.030273626719023422 0.8706232683722749
vn -0.6381489223462479 0.0803370871056285 0.7657100661109955
vn -0.7196021326789844 0.01908662822588907 0.6941242477156548
vn -0.43535140825137103 -0.17571715077461994 0.882945431075555
vn -0.6381489223462479 0.0803370871056285 0.7657100661109955
vn -0.8889024216908233 0.13871087630293893 -0.4365910872973251
vn -0.8999771464695585 0.31705875045925375 -0.2991903818469562
vn -0.6578057177527333 0.040037876452868985 -0.7521227334291634
vn -0.3245999833325613 -0.2593608812773245 -0.909597044896008
vn -0.8889024216908233 0.13871087630293893 -0.4365910872973251
vn -0.6578057177527333 0.040037876452868985 -0.7521227334291634
vn -0.9434314779295687 0.16768342355059607 0.28604075918998184
vn -0.9031926299393238 0.30045593469221477 0.30654413145828646
vn -0.939607382658331 0.33638572722859605 0.06310791527890507
vn -0.9782546033916655 0.19682435723309277 -0.06540721170325875
vn -0.9434314779295687 0.16768342355059607 0.28604075918998184
vn -0.939607382658331 0.33638572722859605 0.06310791527890507
vn -0.6652104633923595 -0.21732718521666397 0.714327609685587
vn -0.5051851214258241 -0.2340831751404803 0.8306582090162757
vn -0.9333791700165033 -0.00008656866119881836 0.35889179077428085
vn -0.9782546033916655 0.19682435723309277 -0.06540721170325875
vn -0.8889024216908233 0.13871087630293893 -0.4365910872973251
vn -0.895381057598448 -0.0024946321677588204 -0.44529376652299135
vn -0.997269026451906 0.05051587179919364 0.053876113223161826
vn -0.9782546033916655 0.19682435723309277 -0.06540721170325875
vn -0.895381057598448 -0.0024946321677588204 -0.44529376652299135
vn -0.3245999833325613 -0.2593608812773245 -0.909597044896008
vn -0.2764372419515683 -0.2366998401124612 -0.9314266675122337
vn -0.895381057598448 -0.0024946321677588204 -0.44529376652299135
vn -0.8889024216908233 0.13871087630293893 -0.4365910872973251
vn -0.3245999833325613 -0.2593608812773245 -0.909597044896008
vn -0.895381057598448 -0.0024946321677588204 -0.44529376652299135
vn -0.9031926299393238 0.30045593469221477 0.30654413145828646
vn -0.9434314779295687 0.16768342355059607 0.28604075918998184
vn -0.7196021326789844 0.01908662822588907 0.6941242477156548
vn -0.6381489223462479 0.0803370871056285 0.7657100661109955
vn -0.9031926299393238 0.30045593469221477 0.30654413145828646
vn -0.7196021326789844 0.01908662822588907 0.6941242477156548
vn -0.1755631401868795 -0.39009257483313603 -0.9038834918659464
vn -0.08646786202749683 -0.37168925956872206 -0.9243215907667899
vn -0.3245999833325613 -0.2593608812773245 -0.909597044896008
vn -0.6578057177527333 0.040037876452868985 -0.7521227334291634
vn -0.1755631401868795 -0.39009257483313603 -0.9038834918659464
vn -0.3245999833325613 -0.2593608812773245 -0.909597044896008
vn -0.8999771464695585 0.31705875045925375 -0.2991903818469562
vn -0.8889024216908233 0.13871087630293893 -0.4365910872973251
vn -0.9782546033916655 0.19682435723309277 -0.06540721170325875
vn -0.939607382658331 0.33638572722859605 0.06310791527890507
vn -0.8999771464695585 0.31705875045925375 -0.2991903818469562
vn -0.9782546033916655 0.19682435723309277 -0.06540721170325875
vn -0.5051851214258241 -0.2340831751404803 0.8306582090162757
vn -0.7196021326789844 0.01908662822588907 0.6941242477156548
vn -0.9434314779295687 0.16768342355059607 0.28604075918998184
vn -0.9333791700165033 -0.00008656866119881836 0.35889179077428085
vn -0.5051851214258241 -0.2340831751404803 0.8306582090162757
vn -0.9434314779295687 0.16768342355059607 0.28604075918998184
vn -0.3245999833325613 -0.2593608812773245 -0.909597044896008
vn -0.08646786202749683 -0.37168925956872206 -0.9243215907667899
vn -0.11880009410482643 -0.268983627551011 -0.9557899067003078
vn -0.2764372419515683 -0.2366998401124612 -0.9314266675122337
vn -0.3245999833325613 -0.2593608812773245 -0.909597044896008
vn -0.11880009410482643 -0.268983627551011 -0.9557899067003078
vn -0.6652104633923595 -0.21732718521666397 0.714327609685587
vn -0.20522324230785355 -0.4205854430562448 0.8837371248882976
vn -0.31605482674819946 -0.34192723412165743 0.8849831145592998
vn -0.5051851214258241 -0.2340831751404803 0.8306582090162757
vn -0.6652104633923595 -0.21732718521666397 0.714327609685587
vn -0.31605482674819946 -0.34192723412165743 0.8849831145592998
vn -0.895381057598448 -0.0024946321677588204 -0.44529376652299135
vn -0.2764372419515683 -0.2366998401124612 -0.9314266675122337
vn -0.6800111765500206 -0.11825019235412727 -0.7236032695996256
vn -0.5051851214258241 -0.2340831751404803 0.8306582090162757
vn -0.31605482674819946 -0.34192723412165743 0.8849831145592998
vn -0.43535140825137103 -0.17571715077461994 0.882945431075555
vn -0.7196021326789844 0.01908662822588907 0.6941242477156548
vn -0.5051851214258241 -0.2340831751404803 0.8306582090162757
vn -0.43535140825137103 -0.17571715077461994 0.882945431075555
vn -0.1756853549853832 -0.2476775710037749 -0.9527803927796427
vn -0.6800111765500206 -0.11825019235412727 -0.7236032695996256
vn -0.2764372419515683 -0.2366998401124612 -0.9314266675122337
vn -0.11880009410482643 -0.268983627551011 -0.9557899067003078
vn -0.1756853549853832 -0.2476775710037749 -0.9527803927796427
vn -0.2764372419515683 -0.2366998401124612 -0.9314266675122337
f 1/1/1 2/2/2 3/3/3
f 4/4/4 5/5/5 6/6/6
f 7/7/7 8/8/8 9/9/9
f 10/10/10 11/11/11 12/12/12
f 13/13/13 14/14/14 15/15/15
f 16/16/16 17/17/17 18/18/18
f 19/19/19 20/20/20 21/21/21
f 22/22/22 23/23/23 24/24/24
f 25/25/25 26/26/26 27/27/27
f 28/28/28 29/29/29 30/30/30
f 31/31/31 32/32/32 33/33/33
f 34/34/34 35/35/35 36/36/36
f 37/37/37 38/38/38 39/39/39
f 40/40/40 41/41/41 42/42/42
f 43/43/43 44/44/44 45/45/45
f 46/46/46 47/47/47 48/48/48
f 49/49/49 50/50/50 51/51/51
f 52/52/52 53/53/53 54/54/54
f 55/55/55 56/56/56 57/57/57
f 58/58/58 59/59/59 60/60/60
f 61/61/61 62/62/62 63/63/63
f 64/64/64 65/65/65 66/66/66
f 67/67/67 68/68/68 69/69/69
f 70/70/70 71/71/71 72/72/72
f 73/73/73 74/74/74 75/75/75
f 76/76/76 77/77/77 78/78/78
f 79/79/79 80/80/80 81/81/81
f 82/82/82 83/83/83 84/84/84
f 85/85/85 86/86/86 87/87/87
f 88/88/88 89/89/89 90/90/90
f 91/91/91 92/92/92 93/93/93
f 94/94/94 95/95/95 96/96/96
f 97/97/97 98/98/98 99/99/99
f 100/100/100 101/101/101 102/102/102
