mtllib ArcadaCompleta.mtl
o D62C_V
usemtl Esmalte
v 11.155200004577637 51.66846466064453 1.9054107970823795
v 12.017200469970703 51.66846466064453 2.0221407718290836
v 12.017200469970703 52.844661712646484 1.8594206876387152
v 11.292900085449219 52.82686233520508 1.708510786973432
v 11.155200004577637 51.66846466064453 1.9054107970823795
v 12.017200469970703 52.844661712646484 1.8594206876387152
v 12.87909984588623 51.66846466064453 1.9054107970823795
v 13.42590045928955 51.7359619140625 1.5004407472242862
v 12.741399765014648 52.82686233520508 1.708510786973432
v 12.017200469970703 51.66846466064453 2.0221407718290836
v 12.87909984588623 51.66846466064453 1.9054107970823795
v 12.741399765014648 52.82686233520508 1.708510786973432
v 12.017200469970703 52.844661712646484 1.8594206876387152
v 12.017200469970703 51.66846466064453 2.0221407718290836
v 12.741399765014648 52.82686233520508 1.708510786973432
v 11.098899841308594 51.0645637512207 1.9220607585539369
v 12.017200469970703 51.0645637512207 2.0652506656279117
v 12.017200469970703 51.66846466064453 2.0221407718290836
v 11.155200004577637 51.66846466064453 1.9054107970823795
v 11.098899841308594 51.0645637512207 1.9220607585539369
v 12.017200469970703 51.66846466064453 2.0221407718290836
v 11.292900085449219 52.82686233520508 1.708510786973432
v 10.608400344848633 51.7359619140625 1.5004407472242862
v 11.155200004577637 51.66846466064453 1.9054107970823795
v 10.608400344848633 51.7359619140625 1.5004407472242862
v 11.098899841308594 51.0645637512207 1.9220607585539369
v 11.155200004577637 51.66846466064453 1.9054107970823795
v 12.935500144958496 51.0645637512207 1.9220607585539369
v 13.42590045928955 51.7359619140625 1.5004407472242862
v 12.87909984588623 51.66846466064453 1.9054107970823795
v 12.017200469970703 51.66846466064453 2.0221407718290836
v 12.017200469970703 51.0645637512207 2.0652506656279117
v 12.935500144958496 51.0645637512207 1.9220607585539369
v 12.87909984588623 51.66846466064453 1.9054107970823795
v 12.017200469970703 51.66846466064453 2.0221407718290836
v 12.935500144958496 51.0645637512207 1.9220607585539369
vt 0.6611570119857788 0.7894750237464905
vt 0.4950689971446991 0.7894750237464905
vt 0.4950689971446991 0.9995009899139404
vt 0.6346250176429749 0.9963250160217285
vt 0.6611570119857788 0.7894750237464905
vt 0.4950689971446991 0.9995009899139404
vt 0.32898199558258057 0.7894750237464905
vt 0.22361800074577332 0.8015369772911072
vt 0.3555130064487457 0.9963250160217285
vt 0.4950689971446991 0.7894750237464905
vt 0.32898199558258057 0.7894750237464905
vt 0.3555130064487457 0.9963250160217285
vt 0.4950689971446991 0.9995009899139404
vt 0.4950689971446991 0.7894750237464905
vt 0.3555130064487457 0.9963250160217285
vt 0.672016978263855 0.681647002696991
vt 0.4950689971446991 0.681647002696991
vt 0.4950689971446991 0.7894750237464905
vt 0.6611570119857788 0.7894750237464905
vt 0.672016978263855 0.681647002696991
vt 0.4950689971446991 0.7894750237464905
vt 0.6346250176429749 0.9963250160217285
vt 0.7665200233459473 0.8015369772911072
vt 0.6611570119857788 0.7894750237464905
vt 0.7665200233459473 0.8015369772911072
vt 0.672016978263855 0.681647002696991
vt 0.6611570119857788 0.7894750237464905
vt 0.3181209862232208 0.681647002696991
vt 0.22361800074577332 0.8015369772911072
vt 0.32898199558258057 0.7894750237464905
vt 0.4950689971446991 0.7894750237464905
vt 0.4950689971446991 0.681647002696991
vt 0.3181209862232208 0.681647002696991
vt 0.32898199558258057 0.7894750237464905
vt 0.4950689971446991 0.7894750237464905
vt 0.3181209862232208 0.681647002696991
vn -0.30509543084273977 0.14614733955846262 0.9410407712840428
vn 0.03531639618777155 0.11188426513421822 0.9930934816902608
vn -0.049381324293965655 0.15392951188827117 0.9868470956439059
vn -0.3861261556769311 0.19900104102825145 0.9007248067927444
vn -0.30509543084273977 0.14614733955846262 0.9410407712840428
vn -0.049381324293965655 0.15392951188827117 0.9868470956439059
vn 0.3370560018602332 0.14975720405588183 0.9294977307359923
vn 0.5745708219312928 0.16053485515373078 0.8025564969931831
vn 0.29099705144661836 0.17617789994949212 0.9403627298116195
vn 0.03531639618777155 0.11188426513421822 0.9930934816902608
vn 0.3370560018602332 0.14975720405588183 0.9294977307359923
vn 0.29099705144661836 0.17617789994949212 0.9403627298116195
vn -0.049381324293965655 0.15392951188827117 0.9868470956439059
vn 0.03531639618777155 0.11188426513421822 0.9930934816902608
vn 0.29099705144661836 0.17617789994949212 0.9403627298116195
vn -0.2727855694134741 0.06296089181147543 0.9600124786803922
vn -6.700481513553244e-9 0.07120450597322053 0.9974617377769984
vn 0.03531639618777155 0.11188426513421822 0.9930934816902608
vn -0.30509543084273977 0.14614733955846262 0.9410407712840428
vn -0.2727855694134741 0.06296089181147543 0.9600124786803922
vn 0.03531639618777155 0.11188426513421822 0.9930934816902608
vn -0.3861261556769311 0.19900104102825145 0.9007248067927444
vn -0.5745770895565864 0.16050311823363536 0.8025583575005384
vn -0.30509543084273977 0.14614733955846262 0.9410407712840428
vn -0.5745770895565864 0.16050311823363536 0.8025583575005384
vn -0.2727855694134741 0.06296089181147543 0.9600124786803922
vn -0.30509543084273977 0.14614733955846262 0.9410407712840428
vn 0.2727946781553268 0.06299742697124278 0.9600074935984273
vn 0.5745708219312928 0.16053485515373078 0.8025564969931831
vn 0.3370560018602332 0.14975720405588183 0.9294977307359923
vn 0.03531639618777155 0.11188426513421822 0.9930934816902608
vn -6.700481513553244e-9 0.07120450597322053 0.9974617377769984
vn 0.2727946781553268 0.06299742697124278 0.9600074935984273
vn 0.3370560018602332 0.14975720405588183 0.9294977307359923
vn 0.03531639618777155 0.11188426513421822 0.9930934816902608
vn 0.2727946781553268 0.06299742697124278 0.9600074935984273
f 1/1/1 2/2/2 3/3/3
f 4/4/4 5/5/5 6/6/6
f 7/7/7 8/8/8 9/9/9
f 10/10/10 11/11/11 12/12/12
f 13/13/13 14/14/14 15/15/15
f 16/16/16 17/17/17 18/18/18
f 19/19/19 20/20/20 21/21/21
f 22/22/22 23/23/23 24/24/24
f 25/25/25 26/26/26 27/27/27
f 28/28/28 29/29/29 30/30/30
f 31/31/31 32/32/32 33/33/33
f 34/34/34 35/35/35 36/36/36
