mtllib ArcadaCompleta.mtl
o D62C_L
usemtl Esmalte
v 12.89799976348877 48.14146423339844 -0.501693277872608
v 12.017200469970703 48.128761291503906 -0.5055582814584234
v 12.017200469970703 48.755863189697266 -0.6476392441163518
v 12.927200317382812 48.755863189697266 -0.6403322511086919
v 12.89799976348877 48.14146423339844 -0.501693277872608
v 12.017200469970703 48.755863189697266 -0.6476392441163518
v 12.017200469970703 50.88426208496094 -1.0384192161927672
v 11.612700462341309 50.73206329345703 -1.6183693104157897
v 12.017200469970703 51.15336227416992 -1.4032792740235778
v 11.612700462341309 50.73206329345703 -1.6183693104157897
v 12.017200469970703 51.20026397705078 -1.9733792238603087
v 12.017200469970703 51.15336227416992 -1.4032792740235778
v 11.107199668884277 48.755863189697266 -0.6403322511086919
v 11.100199699401855 49.90666198730469 -0.7753652625451539
v 12.017200469970703 49.90666198730469 -0.8070592575440858
v 12.017200469970703 48.755863189697266 -0.6476392441163518
v 11.107199668884277 48.755863189697266 -0.6403322511086919
v 12.017200469970703 49.90666198730469 -0.8070592575440858
v 11.031700134277344 50.31936264038086 -1.1544592075715516
v 12.017200469970703 50.88426208496094 -1.0384192161927672
v 12.017200469970703 49.90666198730469 -0.8070592575440858
v 11.100199699401855 49.90666198730469 -0.7753652625451539
v 11.031700134277344 50.31936264038086 -1.1544592075715516
v 12.017200469970703 49.90666198730469 -0.8070592575440858
v 12.927200317382812 48.755863189697266 -0.6403322511086919
v 12.934100151062012 49.90666198730469 -0.7753652625451539
v 13.591099739074707 48.755863189697266 -0.6797182255158879
v 11.13640022277832 48.14146423339844 -0.501693277872608
v 10.363300323486328 48.14336395263672 -0.5323012762437322
v 10.443300247192383 48.755863189697266 -0.6797182255158879
v 11.107199668884277 48.755863189697266 -0.6403322511086919
v 11.13640022277832 48.14146423339844 -0.501693277872608
v 10.443300247192383 48.755863189697266 -0.6797182255158879
v 10.443300247192383 48.755863189697266 -0.6797182255158879
v 11.100199699401855 49.90666198730469 -0.7753652625451539
v 11.107199668884277 48.755863189697266 -0.6403322511086919
v 12.017200469970703 48.128761291503906 -0.5055582814584234
v 11.13640022277832 48.14146423339844 -0.501693277872608
v 11.107199668884277 48.755863189697266 -0.6403322511086919
v 12.017200469970703 48.755863189697266 -0.6476392441163518
v 12.017200469970703 48.128761291503906 -0.5055582814584234
v 11.107199668884277 48.755863189697266 -0.6403322511086919
v 12.017200469970703 49.90666198730469 -0.8070592575440858
v 12.934100151062012 49.90666198730469 -0.7753652625451539
v 12.927200317382812 48.755863189697266 -0.6403322511086919
v 12.017200469970703 48.755863189697266 -0.6476392441163518
v 12.017200469970703 49.90666198730469 -0.8070592575440858
v 12.927200317382812 48.755863189697266 -0.6403322511086919
v 13.671099662780762 48.17796325683594 -0.5323012762437322
v 12.89799976348877 48.14146423339844 -0.501693277872608
v 12.927200317382812 48.755863189697266 -0.6403322511086919
v 13.591099739074707 48.755863189697266 -0.6797182255158879
v 13.671099662780762 48.17796325683594 -0.5323012762437322
v 12.927200317382812 48.755863189697266 -0.6403322511086919
v 11.031700134277344 50.31936264038086 -1.1544592075715516
v 10.681699752807617 49.90666198730469 -1.0330192737946962
v 11.075699806213379 50.73206329345703 -1.5335492782960387
v 12.017200469970703 50.88426208496094 -1.0384192161927672
v 11.031700134277344 50.31936264038086 -1.1544592075715516
v 11.075699806213379 50.73206329345703 -1.5335492782960387
v 11.612700462341309 50.73206329345703 -1.6183693104157897
v 12.017200469970703 50.88426208496094 -1.0384192161927672
v 11.075699806213379 50.73206329345703 -1.5335492782960387
v 10.681699752807617 49.90666198730469 -1.0330192737946962
v 11.031700134277344 50.31936264038086 -1.1544592075715516
v 11.100199699401855 49.90666198730469 -0.7753652625451539
v 13.352700233459473 49.90666198730469 -1.0330192737946962
v 13.591099739074707 48.755863189697266 -0.6797182255158879
v 12.934100151062012 49.90666198730469 -0.7753652625451539
v 12.017200469970703 50.88426208496094 -1.0384192161927672
v 13.002599716186523 50.31936264038086 -1.1544592075715516
v 12.934100151062012 49.90666198730469 -0.7753652625451539
v 12.017200469970703 49.90666198730469 -0.8070592575440858
v 12.017200469970703 50.88426208496094 -1.0384192161927672
v 12.934100151062012 49.90666198730469 -0.7753652625451539
v 12.934100151062012 49.90666198730469 -0.7753652625451539
v 13.002599716186523 50.31936264038086 -1.1544592075715516
v 13.352700233459473 49.90666198730469 -1.0330192737946962
v 11.100199699401855 49.90666198730469 -0.7753652625451539
v 10.443300247192383 48.755863189697266 -0.6797182255158879
v 10.681699752807617 49.90666198730469 -1.0330192737946962
v 12.017200469970703 51.15336227416992 -1.4032792740235778
v 12.421699523925781 50.73206329345703 -1.6183693104157897
v 12.017200469970703 50.88426208496094 -1.0384192161927672
v 12.958700180053711 50.73206329345703 -1.5335492782960387
v 13.352700233459473 49.90666198730469 -1.0330192737946962
v 13.002599716186523 50.31936264038086 -1.1544592075715516
v 13.002599716186523 50.31936264038086 -1.1544592075715516
v 12.017200469970703 50.88426208496094 -1.0384192161927672
v 12.421699523925781 50.73206329345703 -1.6183693104157897
v 12.958700180053711 50.73206329345703 -1.5335492782960387
v 13.002599716186523 50.31936264038086 -1.1544592075715516
v 12.421699523925781 50.73206329345703 -1.6183693104157897
v 12.017200469970703 51.15336227416992 -1.4032792740235778
v 12.017200469970703 51.20026397705078 -1.9733792238603087
v 12.421699523925781 50.73206329345703 -1.6183693104157897
vt 0.6746569871902466 0.15970301628112793
vt 0.5049309730529785 0.15744400024414062
vt 0.5049309730529785 0.26941901445388794
vt 0.680279016494751 0.26941901445388794
vt 0.6746569871902466 0.15970301628112793
vt 0.5049309730529785 0.26941901445388794
vt 0.23406699299812317 0.6494500041007996
vt 0.09103819727897644 0.6222730278968811
vt 0.14408299326896667 0.6975020170211792
vt 0.09103819727897644 0.6222730278968811
vt 0.0034857699647545815 0.7058740258216858
vt 0.14408299326896667 0.6975020170211792
vt 0.32958298921585083 0.26941901445388794
vt 0.32824400067329407 0.4748910069465637
vt 0.5049309730529785 0.4748910069465637
vt 0.5049309730529785 0.26941901445388794
vt 0.32958298921585083 0.26941901445388794
vt 0.5049309730529785 0.4748910069465637
vt 0.31504398584365845 0.5485820174217224
vt 0.5049309730529785 0.6494500041007996
vt 0.5049309730529785 0.4748910069465637
vt 0.32824400067329407 0.4748910069465637
vt 0.31504398584365845 0.5485820174217224
vt 0.5049309730529785 0.4748910069465637
vt 0.680279016494751 0.26941901445388794
vt 0.681617021560669 0.4748910069465637
vt 0.808197021484375 0.26941901445388794
vt 0.33520400524139404 0.15970301628112793
vt 0.18624800443649292 0.160040020942688
vt 0.201664000749588 0.26941901445388794
vt 0.32958298921585083 0.26941901445388794
vt 0.33520400524139404 0.15970301628112793
vt 0.201664000749588 0.26941901445388794
vt 0.201664000749588 0.26941901445388794
vt 0.32824400067329407 0.4748910069465637
vt 0.32958298921585083 0.26941901445388794
vt 0.5049309730529785 0.15744400024414062
vt 0.33520400524139404 0.15970301628112793
vt 0.32958298921585083 0.26941901445388794
vt 0.5049309730529785 0.26941901445388794
vt 0.5049309730529785 0.15744400024414062
vt 0.32958298921585083 0.26941901445388794
vt 0.5049309730529785 0.4748910069465637
vt 0.681617021560669 0.4748910069465637
vt 0.680279016494751 0.26941901445388794
vt 0.5049309730529785 0.26941901445388794
vt 0.5049309730529785 0.4748910069465637
vt 0.680279016494751 0.26941901445388794
vt 0.8236129879951477 0.16621899604797363
vt 0.6746569871902466 0.15970301628112793
vt 0.680279016494751 0.26941901445388794
vt 0.808197021484375 0.26941901445388794
vt 0.8236129879951477 0.16621899604797363
vt 0.680279016494751 0.26941901445388794
vt 0.31504398584365845 0.5485820174217224
vt 0.24759000539779663 0.4748910069465637
vt 0.32350799441337585 0.6222730278968811
vt 0.5049309730529785 0.6494500041007996
vt 0.31504398584365845 0.5485820174217224
vt 0.32350799441337585 0.6222730278968811
vt 0.42699000239372253 0.9089620113372803
vt 0.5049309730529785 0.7659329771995544
vt 0.32350799441337585 0.8880419731140137
vt 0.24759000539779663 0.4748910069465637
vt 0.31504398584365845 0.5485820174217224
vt 0.32824400067329407 0.4748910069465637
vt 0.762270987033844 0.4748910069465637
vt 0.808197021484375 0.26941901445388794
vt 0.681617021560669 0.4748910069465637
vt 0.5049309730529785 0.6494500041007996
vt 0.6948180198669434 0.5485820174217224
vt 0.681617021560669 0.4748910069465637
vt 0.5049309730529785 0.4748910069465637
vt 0.5049309730529785 0.6494500041007996
vt 0.681617021560669 0.4748910069465637
vt 0.681617021560669 0.4748910069465637
vt 0.6948180198669434 0.5485820174217224
vt 0.762270987033844 0.4748910069465637
vt 0.32824400067329407 0.4748910069465637
vt 0.201664000749588 0.26941901445388794
vt 0.24759000539779663 0.4748910069465637
vt 0.8559169769287109 0.6975020170211792
vt 0.9089620113372803 0.6222730278968811
vt 0.7659329771995544 0.6494500041007996
vt 0.6863539814949036 0.6222730278968811
vt 0.762270987033844 0.4748910069465637
vt 0.6948180198669434 0.5485820174217224
vt 0.6948180198669434 0.7945500016212463
vt 0.5049309730529785 0.7659329771995544
vt 0.5828710198402405 0.9089620113372803
vt 0.6863539814949036 0.6222730278968811
vt 0.6948180198669434 0.5485820174217224
vt 0.5828710198402405 0.6222730278968811
vt 0.8559169769287109 0.6975020170211792
vt 0.9965140223503113 0.7058740258216858
vt 0.9089620113372803 0.6222730278968811
vn -0.003093239435165108 -0.22015363330502202 -0.9754603065283562
vn -0.002631671770599445 -0.22079919183560584 -0.97531573922932
vn 0.0010782290014371085 -0.17492388918858842 -0.9845813681018746
vn -0.007481368729010593 -0.15952886651162362 -0.9871649152352697
vn -0.003093239435165108 -0.22015363330502202 -0.9754603065283562
vn 0.0010782290014371085 -0.17492388918858842 -0.9845813681018746
vn -0.00587205685169964 -0.6293594275654992 -0.77709216305581
vn 0.5476336931933408 -0.8350274344332931 -0.053165043244357564
vn -3.7326817474121145e-8 -0.9473531608023767 -0.32019055063781104
vn 0.5476336931933408 -0.8350274344332931 -0.053165043244357564
vn -6.440007073773629e-8 -0.9966329654656166 -0.0819922688258285
vn -3.7326817474121145e-8 -0.9473531608023767 -0.32019055063781104
vn 0.003585164199564387 -0.15780586457156665 -0.9874636477888604
vn 0.13193867245023103 -0.30236382311751087 -0.9440171106403916
vn 0.03980054923721827 -0.20173113751846122 -0.9786319351195951
vn 0.0010782290014371085 -0.17492388918858842 -0.9845813681018746
vn 0.003585164199564387 -0.15780586457156665 -0.9874636477888604
vn 0.03980054923721827 -0.20173113751846122 -0.9786319351195951
vn 0.2859929672140753 -0.4963403937438664 -0.8196671496664195
vn -0.00587205685169964 -0.6293594275654992 -0.77709216305581
vn 0.03980054923721827 -0.20173113751846122 -0.9786319351195951
vn 0.13193867245023103 -0.30236382311751087 -0.9440171106403916
vn 0.2859929672140753 -0.4963403937438664 -0.8196671496664195
vn 0.03980054923721827 -0.20173113751846122 -0.9786319351195951
vn -0.007481368729010593 -0.15952886651162362 -0.9871649152352697
vn -0.15933188805644238 -0.28296941869657954 -0.9458021238773411
vn -0.21235911262396634 -0.23281456216829147 -0.9490526786896226
vn 0.02638066496517382 -0.22562409291246335 -0.9738571913855867
vn 0.037833513107691265 -0.2384997004987097 -0.9704053370360016
vn 0.17319068486862052 -0.2279016053370933 -0.9581575261717219
vn 0.003585164199564387 -0.15780586457156665 -0.9874636477888604
vn 0.02638066496517382 -0.22562409291246335 -0.9738571913855867
vn 0.17319068486862052 -0.2279016053370933 -0.9581575261717219
vn 0.17319068486862052 -0.2279016053370933 -0.9581575261717219
vn 0.13193867245023103 -0.30236382311751087 -0.9440171106403916
vn 0.003585164199564387 -0.15780586457156665 -0.9874636477888604
vn -0.002631671770599445 -0.22079919183560584 -0.97531573922932
vn 0.02638066496517382 -0.22562409291246335 -0.9738571913855867
vn 0.003585164199564387 -0.15780586457156665 -0.9874636477888604
vn 0.0010782290014371085 -0.17492388918858842 -0.9845813681018746
vn -0.002631671770599445 -0.22079919183560584 -0.97531573922932
vn 0.003585164199564387 -0.15780586457156665 -0.9874636477888604
vn 0.03980054923721827 -0.20173113751846122 -0.9786319351195951
vn -0.15933188805644238 -0.28296941869657954 -0.9458021238773411
vn -0.007481368729010593 -0.15952886651162362 -0.9871649152352697
vn 0.0010782290014371085 -0.17492388918858842 -0.9845813681018746
vn 0.03980054923721827 -0.20173113751846122 -0.9786319351195951
vn -0.007481368729010593 -0.15952886651162362 -0.9871649152352697
vn -0.041341387443504934 -0.23476481214411665 -0.9711726791169445
vn -0.003093239435165108 -0.22015363330502202 -0.9754603065283562
vn -0.007481368729010593 -0.15952886651162362 -0.9871649152352697
vn -0.21235911262396634 -0.23281456216829147 -0.9490526786896226
vn -0.041341387443504934 -0.23476481214411665 -0.9711726791169445
vn -0.007481368729010593 -0.15952886651162362 -0.9871649152352697
vn 0.2859929672140753 -0.4963403937438664 -0.8196671496664195
vn 0.48620100685791967 -0.4560713681066329 -0.7453908291116073
vn 0.37160676552144195 -0.8301719986156937 -0.4155994039133318
vn -0.00587205685169964 -0.6293594275654992 -0.77709216305581
vn 0.2859929672140753 -0.4963403937438664 -0.8196671496664195
vn 0.37160676552144195 -0.8301719986156937 -0.4155994039133318
vn 0.5476336931933408 -0.8350274344332931 -0.053165043244357564
vn -0.00587205685169964 -0.6293594275654992 -0.77709216305581
vn 0.37160676552144195 -0.8301719986156937 -0.4155994039133318
vn 0.48620100685791967 -0.4560713681066329 -0.7453908291116073
vn 0.2859929672140753 -0.4963403937438664 -0.8196671496664195
vn 0.13193867245023103 -0.30236382311751087 -0.9440171106403916
vn -0.48609207689401657 -0.45608706975820457 -0.7454522637836954
vn -0.21235911262396634 -0.23281456216829147 -0.9490526786896226
vn -0.15933188805644238 -0.28296941869657954 -0.9458021238773411
vn -0.00587205685169964 -0.6293594275654992 -0.77709216305581
vn -0.40078726447435 -0.7262581053422832 -0.5584968514323106
vn -0.15933188805644238 -0.28296941869657954 -0.9458021238773411
vn 0.03980054923721827 -0.20173113751846122 -0.9786319351195951
vn -0.00587205685169964 -0.6293594275654992 -0.77709216305581
vn -0.15933188805644238 -0.28296941869657954 -0.9458021238773411
vn -0.15933188805644238 -0.28296941869657954 -0.9458021238773411
vn -0.40078726447435 -0.7262581053422832 -0.5584968514323106
vn -0.48609207689401657 -0.45608706975820457 -0.7454522637836954
vn 0.13193867245023103 -0.30236382311751087 -0.9440171106403916
vn 0.17319068486862052 -0.2279016053370933 -0.9581575261717219
vn 0.48620100685791967 -0.4560713681066329 -0.7453908291116073
vn -3.7326817474121145e-8 -0.9473531608023767 -0.32019055063781104
vn -0.528764374898415 -0.7912536380109407 -0.3071252450918671
vn -0.00587205685169964 -0.6293594275654992 -0.77709216305581
vn -0.1476817075740309 -0.6775384887655748 -0.7205079524122405
vn -0.48609207689401657 -0.45608706975820457 -0.7454522637836954
vn -0.40078726447435 -0.7262581053422832 -0.5584968514323106
vn -0.40078726447435 -0.7262581053422832 -0.5584968514323106
vn -0.00587205685169964 -0.6293594275654992 -0.77709216305581
vn -0.528764374898415 -0.7912536380109407 -0.3071252450918671
vn -0.1476817075740309 -0.6775384887655748 -0.7205079524122405
vn -0.40078726447435 -0.7262581053422832 -0.5584968514323106
vn -0.528764374898415 -0.7912536380109407 -0.3071252450918671
vn -3.7326817474121145e-8 -0.9473531608023767 -0.32019055063781104
vn -6.440007073773629e-8 -0.9966329654656166 -0.0819922688258285
vn -0.528764374898415 -0.7912536380109407 -0.3071252450918671
f 1/1/1 2/2/2 3/3/3
f 4/4/4 5/5/5 6/6/6
f 7/7/7 8/8/8 9/9/9
f 10/10/10 11/11/11 12/12/12
f 13/13/13 14/14/14 15/15/15
f 16/16/16 17/17/17 18/18/18
f 19/19/19 20/20/20 21/21/21
f 22/22/22 23/23/23 24/24/24
f 25/25/25 26/26/26 27/27/27
f 28/28/28 29/29/29 30/30/30
f 31/31/31 32/32/32 33/33/33
f 34/34/34 35/35/35 36/36/36
f 37/37/37 38/38/38 39/39/39
f 40/40/40 41/41/41 42/42/42
f 43/43/43 44/44/44 45/45/45
f 46/46/46 47/47/47 48/48/48
f 49/49/49 50/50/50 51/51/51
f 52/52/52 53/53/53 54/54/54
f 55/55/55 56/56/56 57/57/57
f 58/58/58 59/59/59 60/60/60
f 61/61/61 62/62/62 63/63/63
f 64/64/64 65/65/65 66/66/66
f 67/67/67 68/68/68 69/69/69
f 70/70/70 71/71/71 72/72/72
f 73/73/73 74/74/74 75/75/75
f 76/76/76 77/77/77 78/78/78
f 79/79/79 80/80/80 81/81/81
f 82/82/82 83/83/83 84/84/84
f 85/85/85 86/86/86 87/87/87
f 88/88/88 89/89/89 90/90/90
f 91/91/91 92/92/92 93/93/93
f 94/94/94 95/95/95 96/96/96
