mtllib ArcadaCompleta.mtl
o D62C_D
usemtl Esmalte
v 14.344599723815918 49.90666198730469 0.679196745835736
v 14.43809986114502 48.755863189697266 0.6755077547659419
v 14.583900451660156 48.755863189697266 0.018328345127894777
v 14.472700119018555 49.90666198730469 0.01832834512789503
v 14.344599723815918 49.90666198730469 0.679196745835736
v 14.583900451660156 48.755863189697266 0.018328345127894777
v 14.344599723815918 49.90666198730469 -0.6425402455697511
v 14.472700119018555 49.90666198730469 0.01832834512789503
v 14.583900451660156 48.755863189697266 0.018328345127894777
v 14.43809986114502 48.755863189697266 -0.41103625229697
v 14.344599723815918 49.90666198730469 -0.6425402455697511
v 14.583900451660156 48.755863189697266 0.018328345127894777
v 14.33810043334961 48.246360778808594 0.3589977330793879
v 14.506400108337402 48.1364631652832 0.01832834512789464
v 14.583900451660156 48.755863189697266 0.018328345127894777
v 14.43809986114502 48.755863189697266 0.6755077547659419
v 14.33810043334961 48.246360778808594 0.3589977330793879
v 14.583900451660156 48.755863189697266 0.018328345127894777
v 13.265700340270996 49.90666198730469 1.626550704919293
v 14.114100456237793 49.90666198730469 1.1838907308210875
v 13.765999794006348 50.73206329345703 1.3730907744993714
v 12.991900444030762 50.73206329345703 1.8096707172026185
v 13.265700340270996 49.90666198730469 1.626550704919293
v 13.765999794006348 50.73206329345703 1.3730907744993714
v 14.344599723815918 49.90666198730469 0.679196745835736
v 14.076499938964844 50.73206329345703 0.641303748570874
v 13.765999794006348 50.73206329345703 1.3730907744993714
v 14.114100456237793 49.90666198730469 1.1838907308210875
v 14.344599723815918 49.90666198730469 0.679196745835736
v 13.765999794006348 50.73206329345703 1.3730907744993714
v 14.344599723815918 49.90666198730469 -0.6425402455697511
v 14.076499938964844 50.73206329345703 -0.6046472483048889
v 14.166600227355957 50.73206329345703 0.018328345127895215
v 14.472700119018555 49.90666198730469 0.01832834512789503
v 14.344599723815918 49.90666198730469 -0.6425402455697511
v 14.166600227355957 50.73206329345703 0.018328345127895215
v 14.114100456237793 49.90666198730469 1.1838907308210875
v 14.290900230407715 48.755863189697266 0.7803167409529231
v 14.43809986114502 48.755863189697266 0.6755077547659419
v 14.344599723815918 49.90666198730469 0.679196745835736
v 14.114100456237793 49.90666198730469 1.1838907308210875
v 14.43809986114502 48.755863189697266 0.6755077547659419
v 14.506400108337402 48.1364631652832 0.01832834512789464
v 14.460599899291992 48.25636291503906 -0.3139032416711309
v 14.43809986114502 48.755863189697266 -0.41103625229697
v 14.583900451660156 48.755863189697266 0.018328345127894777
v 14.506400108337402 48.1364631652832 0.01832834512789464
v 14.43809986114502 48.755863189697266 -0.41103625229697
v 14.460599899291992 48.25636291503906 -0.3139032416711309
v 14.257699966430664 48.755863189697266 -0.5833462767968632
v 14.43809986114502 48.755863189697266 -0.41103625229697
v 13.531299591064453 48.755863189697266 1.0737207240690732
v 14.290900230407715 48.755863189697266 0.7803167409529231
v 14.114100456237793 49.90666198730469 1.1838907308210875
v 13.265700340270996 49.90666198730469 1.626550704919293
v 13.531299591064453 48.755863189697266 1.0737207240690732
v 14.114100456237793 49.90666198730469 1.1838907308210875
v 14.076499938964844 50.73206329345703 -0.6046472483048889
v 14.344599723815918 49.90666198730469 -0.6425402455697511
v 14.025899887084961 49.90666198730469 -0.9700432711015199
v 13.624600410461426 50.73206329345703 -1.3364292078385802
v 14.076499938964844 50.73206329345703 -0.6046472483048889
v 14.025899887084961 49.90666198730469 -0.9700432711015199
v 14.076499938964844 50.73206329345703 0.641303748570874
v 14.344599723815918 49.90666198730469 0.679196745835736
v 14.472700119018555 49.90666198730469 0.01832834512789503
v 14.166600227355957 50.73206329345703 0.018328345127895215
v 14.076499938964844 50.73206329345703 0.641303748570874
v 14.472700119018555 49.90666198730469 0.01832834512789503
v 14.257699966430664 48.755863189697266 -0.5833462767968632
v 14.025899887084961 49.90666198730469 -0.9700432711015199
v 14.344599723815918 49.90666198730469 -0.6425402455697511
v 14.43809986114502 48.755863189697266 -0.41103625229697
v 14.257699966430664 48.755863189697266 -0.5833462767968632
v 14.344599723815918 49.90666198730469 -0.6425402455697511
v 13.928600311279297 47.84596252441406 0.3511007434954187
v 14.103699684143066 47.77796173095703 0.01832834512789456
v 14.506400108337402 48.1364631652832 0.01832834512789464
v 14.33810043334961 48.246360778808594 0.3589977330793879
v 13.928600311279297 47.84596252441406 0.3511007434954187
v 14.506400108337402 48.1364631652832 0.01832834512789464
v 14.460599899291992 48.25636291503906 -0.3139032416711309
v 13.671099662780762 48.17796325683594 -0.5323012762437322
v 13.591099739074707 48.755863189697266 -0.6797182255158879
v 14.257699966430664 48.755863189697266 -0.5833462767968632
v 14.460599899291992 48.25636291503906 -0.3139032416711309
v 13.591099739074707 48.755863189697266 -0.6797182255158879
v 14.103699684143066 47.77796173095703 0.01832834512789456
v 13.976300239562988 47.92626190185547 -0.3344652645955542
v 14.460599899291992 48.25636291503906 -0.3139032416711309
v 14.506400108337402 48.1364631652832 0.01832834512789464
v 14.103699684143066 47.77796173095703 0.01832834512789456
v 14.460599899291992 48.25636291503906 -0.3139032416711309
v 14.43809986114502 48.755863189697266 0.6755077547659419
v 14.290900230407715 48.755863189697266 0.7803167409529231
v 14.33810043334961 48.246360778808594 0.3589977330793879
v 14.025899887084961 49.90666198730469 -0.9700432711015199
v 13.352700233459473 49.90666198730469 -1.0330192737946962
v 12.958700180053711 50.73206329345703 -1.5335492782960387
v 13.624600410461426 50.73206329345703 -1.3364292078385802
v 14.025899887084961 49.90666198730469 -0.9700432711015199
v 12.958700180053711 50.73206329345703 -1.5335492782960387
v 13.671099662780762 48.192665100097656 0.7203307456602595
v 14.33810043334961 48.246360778808594 0.3589977330793879
v 14.290900230407715 48.755863189697266 0.7803167409529231
v 13.531299591064453 48.755863189697266 1.0737207240690732
v 13.671099662780762 48.192665100097656 0.7203307456602595
v 14.290900230407715 48.755863189697266 0.7803167409529231
v 14.257699966430664 48.755863189697266 -0.5833462767968632
v 13.591099739074707 48.755863189697266 -0.6797182255158879
v 13.352700233459473 49.90666198730469 -1.0330192737946962
v 14.025899887084961 49.90666198730469 -0.9700432711015199
v 14.257699966430664 48.755863189697266 -0.5833462767968632
v 13.352700233459473 49.90666198730469 -1.0330192737946962
v 14.460599899291992 48.25636291503906 -0.3139032416711309
v 13.976300239562988 47.92626190185547 -0.3344652645955542
v 13.671099662780762 48.17796325683594 -0.5323012762437322
v 14.33810043334961 48.246360778808594 0.3589977330793879
v 13.671099662780762 48.192665100097656 0.7203307456602595
v 13.928600311279297 47.84596252441406 0.3511007434954187
vt 0.6576690077781677 0.4748910069465637
vt 0.6567590236663818 0.26941901445388794
vt 0.49468401074409485 0.26941901445388794
vt 0.49468401074409485 0.4748910069465637
vt 0.6576690077781677 0.4748910069465637
vt 0.49468401074409485 0.26941901445388794
vt 0.331699013710022 0.4748910069465637
vt 0.49468401074409485 0.4748910069465637
vt 0.49468401074409485 0.26941901445388794
vt 0.3887929916381836 0.26941901445388794
vt 0.331699013710022 0.4748910069465637
vt 0.49468401074409485 0.26941901445388794
vt 0.5787010192871094 0.17843496799468994
vt 0.49468401074409485 0.15881502628326416
vt 0.49468401074409485 0.26941901445388794
vt 0.6567590236663818 0.26941901445388794
vt 0.5787010192871094 0.17843496799468994
vt 0.49468401074409485 0.26941901445388794
vt 0.25449898838996887 0.4748910069465637
vt 0.09100929647684097 0.4748910069465637
vt 0.1580909937620163 0.6222730278968811
vt 0.30726099014282227 0.6222730278968811
vt 0.25449898838996887 0.4748910069465637
vt 0.1580909937620163 0.6222730278968811
vt 0.6576690077781677 0.4748910069465637
vt 0.6483229994773865 0.6222730278968811
vt 0.8287979960441589 0.6222730278968811
vt 0.7821369767189026 0.4748910069465637
vt 0.6576690077781677 0.4748910069465637
vt 0.8287979960441589 0.6222730278968811
vt 0.331699013710022 0.4748910069465637
vt 0.34104400873184204 0.6222730278968811
vt 0.49468401074409485 0.6222730278968811
vt 0.49468401074409485 0.4748910069465637
vt 0.331699013710022 0.4748910069465637
vt 0.49468401074409485 0.6222730278968811
vt 0.09100929647684097 0.4748910069465637
vt 0.05695530027151108 0.26941901445388794
vt 0.02857689931988716 0.26941901445388794
vt 0.6576690077781677 0.4748910069465637
vt 0.7821369767189026 0.4748910069465637
vt 0.6567590236663818 0.26941901445388794
vt 0.49468401074409485 0.15881502628326416
vt 0.4127480089664459 0.18021702766418457
vt 0.3887929916381836 0.26941901445388794
vt 0.49468401074409485 0.26941901445388794
vt 0.49468401074409485 0.15881502628326416
vt 0.3887929916381836 0.26941901445388794
vt 0.9757519960403442 0.18021702766418457
vt 0.9366610050201416 0.26941901445388794
vt 0.9714229702949524 0.26941901445388794
vt 0.2033189982175827 0.26941901445388794
vt 0.05695530027151108 0.26941901445388794
vt 0.09100929647684097 0.4748910069465637
vt 0.25449898838996887 0.4748910069465637
vt 0.2033189982175827 0.26941901445388794
vt 0.09100929647684097 0.4748910069465637
vt 0.9017329812049866 0.6222730278968811
vt 0.9534029960632324 0.4748910069465637
vt 0.8919810056686401 0.4748910069465637
vt 0.16056999564170837 0.6222730278968811
vt 0.34104400873184204 0.6222730278968811
vt 0.25092899799346924 0.4748910069465637
vt 0.6483229994773865 0.6222730278968811
vt 0.6576690077781677 0.4748910069465637
vt 0.49468401074409485 0.4748910069465637
vt 0.49468401074409485 0.6222730278968811
vt 0.6483229994773865 0.6222730278968811
vt 0.49468401074409485 0.4748910069465637
vt 0.9366610050201416 0.26941901445388794
vt 0.8919810056686401 0.4748910069465637
vt 0.9534029960632324 0.4748910069465637
vt 0.9714229702949524 0.26941901445388794
vt 0.9366610050201416 0.26941901445388794
vt 0.9534029960632324 0.4748910069465637
vt 0.8732420206069946 0.42324697971343994
vt 0.9069830179214478 0.5053160190582275
vt 0.9845679998397827 0.5053160190582275
vt 0.04786039888858795 0.17843496799468994
vt 0.12675799429416656 0.10693800449371338
vt 0.0154315996915102 0.15881502628326416
vt 0.9757519960403442 0.18021702766418457
vt 0.8236129879951477 0.16621899604797363
vt 0.808197021484375 0.26941901445388794
vt 0.9366610050201416 0.26941901445388794
vt 0.9757519960403442 0.18021702766418457
vt 0.808197021484375 0.26941901445388794
vt 0.9069830179214478 0.5053160190582275
vt 0.8824219703674316 0.5923230051994324
vt 0.9757519960403442 0.5872520208358765
vt 0.9845679998397827 0.5053160190582275
vt 0.9069830179214478 0.5053160190582275
vt 0.9757519960403442 0.5872520208358765
vt 0.02857689931988716 0.26941901445388794
vt 0.05695530027151108 0.26941901445388794
vt 0.04786039888858795 0.17843496799468994
vt 0.8919810056686401 0.4748910069465637
vt 0.762270987033844 0.4748910069465637
vt 0.6863539814949036 0.6222730278968811
vt 0.8146539926528931 0.6222730278968811
vt 0.8919810056686401 0.4748910069465637
vt 0.6863539814949036 0.6222730278968811
vt 0.1763869971036911 0.1688460111618042
vt 0.04786039888858795 0.17843496799468994
vt 0.05695530027151108 0.26941901445388794
vt 0.2033189982175827 0.26941901445388794
vt 0.1763869971036911 0.1688460111618042
vt 0.05695530027151108 0.26941901445388794
vt 0.9366610050201416 0.26941901445388794
vt 0.808197021484375 0.26941901445388794
vt 0.762270987033844 0.4748910069465637
vt 0.8919810056686401 0.4748910069465637
vt 0.9366610050201416 0.26941901445388794
vt 0.762270987033844 0.4748910069465637
vt 0.9757519960403442 0.18021702766418457
vt 0.8824219703674316 0.12128198146820068
vt 0.8236129879951477 0.16621899604797363
vt 0.04786039888858795 0.17843496799468994
vt 0.1763869971036911 0.1688460111618042
vt 0.12675799429416656 0.10693800449371338
vn 0.939727270335374 0.18026681696591682 0.2905452324320669
vn 0.9249245065041284 -0.0513910890588921 0.37666113846989224
vn 0.9995647292557175 0.011921311500331874 0.026985817757784865
vn 0.9740913704250129 0.22496453375461392 0.02317241066633596
vn 0.939727270335374 0.18026681696591682 0.2905452324320669
vn 0.9995647292557175 0.011921311500331874 0.026985817757784865
vn 0.9125212995101418 0.13847652029267635 -0.3848754750149117
vn 0.9740913704250129 0.22496453375461392 0.02317241066633596
vn 0.9995647292557175 0.011921311500331874 0.026985817757784865
vn 0.900332348689694 -0.047434230301084186 -0.43261028154522985
vn 0.9125212995101418 0.13847652029267635 -0.3848754750149117
vn 0.9995647292557175 0.011921311500331874 0.026985817757784865
vn 0.6645558677289336 -0.4607524895844192 0.5882793911134435
vn 0.9003229959831326 -0.41673575324289497 0.1254982664144543
vn 0.9995647292557175 0.011921311500331874 0.026985817757784865
vn 0.9249245065041284 -0.0513910890588921 0.37666113846989224
vn 0.6645558677289336 -0.4607524895844192 0.5882793911134435
vn 0.9995647292557175 0.011921311500331874 0.026985817757784865
vn 0.46578109598077877 -0.1433372175391786 0.8732138413327348
vn 0.5873724182447444 -0.11972720370149359 0.8004117933783473
vn 0.6937974230826487 0.12371133191702882 0.7094650393635975
vn 0.49101795512709995 -0.030273615553395406 0.8706232686668364
vn 0.46578109598077877 -0.1433372175391786 0.8732138413327348
vn 0.6937974230826487 0.12371133191702882 0.7094650393635975
vn 0.939727270335374 0.18026681696591682 0.2905452324320669
vn 0.9164583953174825 0.31987170327899656 0.24038740211063112
vn 0.6937974230826487 0.12371133191702882 0.7094650393635975
vn 0.5873724182447444 -0.11972720370149359 0.8004117933783473
vn 0.939727270335374 0.18026681696591682 0.2905452324320669
vn 0.6937974230826487 0.12371133191702882 0.7094650393635975
vn 0.9125212995101418 0.13847652029267635 -0.3848754750149117
vn 0.8625516353960203 0.2474882448463545 -0.4413096927765373
vn 0.9396150473098166 0.3363613998175691 -0.06312346300494305
vn 0.9740913704250129 0.22496453375461392 0.02317241066633596
vn 0.9125212995101418 0.13847652029267635 -0.3848754750149117
vn 0.9396150473098166 0.3363613998175691 -0.06312346300494305
vn 0.5873724182447444 -0.11972720370149359 0.8004117933783473
vn 0.3928053136028764 -0.37519255805768165 0.8396037934546741
vn 0.9249245065041284 -0.0513910890588921 0.37666113846989224
vn 0.939727270335374 0.18026681696591682 0.2905452324320669
vn 0.5873724182447444 -0.11972720370149359 0.8004117933783473
vn 0.9249245065041284 -0.0513910890588921 0.37666113846989224
vn 0.9003229959831326 -0.41673575324289497 0.1254982664144543
vn 0.4486853297696794 -0.40340079215189983 -0.7974642786612413
vn 0.900332348689694 -0.047434230301084186 -0.43261028154522985
vn 0.9995647292557175 0.011921311500331874 0.026985817757784865
vn 0.9003229959831326 -0.41673575324289497 0.1254982664144543
vn 0.900332348689694 -0.047434230301084186 -0.43261028154522985
vn 0.4486853297696794 -0.40340079215189983 -0.7974642786612413
vn 0.32085912986227133 -0.25335475460126883 -0.9126120682442004
vn 0.900332348689694 -0.047434230301084186 -0.43261028154522985
vn 0.3850943732531719 -0.31709307336239534 0.8666915867333299
vn 0.3928053136028764 -0.37519255805768165 0.8396037934546741
vn 0.5873724182447444 -0.11972720370149359 0.8004117933783473
vn 0.46578109598077877 -0.1433372175391786 0.8732138413327348
vn 0.3850943732531719 -0.31709307336239534 0.8666915867333299
vn 0.5873724182447444 -0.11972720370149359 0.8004117933783473
vn 0.8625516353960203 0.2474882448463545 -0.4413096927765373
vn 0.9125212995101418 0.13847652029267635 -0.3848754750149117
vn 0.4644486820480266 -0.16366204764537354 -0.8703459978102815
vn 0.6388287851510881 -0.03064366664046812 -0.7687384138686011
vn 0.8625516353960203 0.2474882448463545 -0.4413096927765373
vn 0.4644486820480266 -0.16366204764537354 -0.8703459978102815
vn 0.9164583953174825 0.31987170327899656 0.24038740211063112
vn 0.939727270335374 0.18026681696591682 0.2905452324320669
vn 0.9740913704250129 0.22496453375461392 0.02317241066633596
vn 0.9396150473098166 0.3363613998175691 -0.06312346300494305
vn 0.9164583953174825 0.31987170327899656 0.24038740211063112
vn 0.9740913704250129 0.22496453375461392 0.02317241066633596
vn 0.32085912986227133 -0.25335475460126883 -0.9126120682442004
vn 0.4644486820480266 -0.16366204764537354 -0.8703459978102815
vn 0.9125212995101418 0.13847652029267635 -0.3848754750149117
vn 0.900332348689694 -0.047434230301084186 -0.43261028154522985
vn 0.32085912986227133 -0.25335475460126883 -0.9126120682442004
vn 0.9125212995101418 0.13847652029267635 -0.3848754750149117
vn 0.5424568436566711 -0.5806218749968021 0.6071398611895286
vn 0.6268105064011075 -0.7636287864907045 -0.1548536906499848
vn 0.9003229959831326 -0.41673575324289497 0.1254982664144543
vn 0.6645558677289336 -0.4607524895844192 0.5882793911134435
vn 0.5424568436566711 -0.5806218749968021 0.6071398611895286
vn 0.9003229959831326 -0.41673575324289497 0.1254982664144543
vn 0.4486853297696794 -0.40340079215189983 -0.7974642786612413
vn 0.28123029786306397 -0.25449061423557906 -0.925280523317037
vn 0.1789136393197509 -0.2842165314045951 -0.9419187188615072
vn 0.32085912986227133 -0.25335475460126883 -0.9126120682442004
vn 0.4486853297696794 -0.40340079215189983 -0.7974642786612413
vn 0.1789136393197509 -0.2842165314045951 -0.9419187188615072
vn 0.6268105064011075 -0.7636287864907045 -0.1548536906499848
vn 0.40898794068108824 -0.5549117536382085 -0.7244320603421766
vn 0.4486853297696794 -0.40340079215189983 -0.7974642786612413
vn 0.9003229959831326 -0.41673575324289497 0.1254982664144543
vn 0.6268105064011075 -0.7636287864907045 -0.1548536906499848
vn 0.4486853297696794 -0.40340079215189983 -0.7974642786612413
vn 0.9249245065041284 -0.0513910890588921 0.37666113846989224
vn 0.3928053136028764 -0.37519255805768165 0.8396037934546741
vn 0.6645558677289336 -0.4607524895844192 0.5882793911134435
vn 0.4644486820480266 -0.16366204764537354 -0.8703459978102815
vn 0.10474929450446004 -0.3428796959486354 -0.9335208082346045
vn 0.17556314222791744 -0.39009254956590095 -0.9038835023741915
vn 0.6388287851510881 -0.03064366664046812 -0.7687384138686011
vn 0.4644486820480266 -0.16366204764537354 -0.8703459978102815
vn 0.17556314222791744 -0.39009254956590095 -0.9038835023741915
vn 0.3949927934970228 -0.4924268659330409 0.7755620380039117
vn 0.6645558677289336 -0.4607524895844192 0.5882793911134435
vn 0.3928053136028764 -0.37519255805768165 0.8396037934546741
vn 0.3850943732531719 -0.31709307336239534 0.8666915867333299
vn 0.3949927934970228 -0.4924268659330409 0.7755620380039117
vn 0.3928053136028764 -0.37519255805768165 0.8396037934546741
vn 0.32085912986227133 -0.25335475460126883 -0.9126120682442004
vn 0.1789136393197509 -0.2842165314045951 -0.9419187188615072
vn 0.10474929450446004 -0.3428796959486354 -0.9335208082346045
vn 0.4644486820480266 -0.16366204764537354 -0.8703459978102815
vn 0.32085912986227133 -0.25335475460126883 -0.9126120682442004
vn 0.10474929450446004 -0.3428796959486354 -0.9335208082346045
vn 0.4486853297696794 -0.40340079215189983 -0.7974642786612413
vn 0.40898794068108824 -0.5549117536382085 -0.7244320603421766
vn 0.28123029786306397 -0.25449061423557906 -0.925280523317037
vn 0.6645558677289336 -0.4607524895844192 0.5882793911134435
vn 0.3949927934970228 -0.4924268659330409 0.7755620380039117
vn 0.5424568436566711 -0.5806218749968021 0.6071398611895286
f 1/1/1 2/2/2 3/3/3
f 4/4/4 5/5/5 6/6/6
f 7/7/7 8/8/8 9/9/9
f 10/10/10 11/11/11 12/12/12
f 13/13/13 14/14/14 15/15/15
f 16/16/16 17/17/17 18/18/18
f 19/19/19 20/20/20 21/21/21
f 22/22/22 23/23/23 24/24/24
f 25/25/25 26/26/26 27/27/27
f 28/28/28 29/29/29 30/30/30
f 31/31/31 32/32/32 33/33/33
f 34/34/34 35/35/35 36/36/36
f 37/37/37 38/38/38 39/39/39
f 40/40/40 41/41/41 42/42/42
f 43/43/43 44/44/44 45/45/45
f 46/46/46 47/47/47 48/48/48
f 49/49/49 50/50/50 51/51/51
f 52/52/52 53/53/53 54/54/54
f 55/55/55 56/56/56 57/57/57
f 58/58/58 59/59/59 60/60/60
f 61/61/61 62/62/62 63/63/63
f 64/64/64 65/65/65 66/66/66
f 67/67/67 68/68/68 69/69/69
f 70/70/70 71/71/71 72/72/72
f 73/73/73 74/74/74 75/75/75
f 76/76/76 77/77/77 78/78/78
f 79/79/79 80/80/80 81/81/81
f 82/82/82 83/83/83 84/84/84
f 85/85/85 86/86/86 87/87/87
f 88/88/88 89/89/89 90/90/90
f 91/91/91 92/92/92 93/93/93
f 94/94/94 95/95/95 96/96/96
f 97/97/97 98/98/98 99/99/99
f 100/100/100 101/101/101 102/102/102
f 103/103/103 104/104/104 105/105/105
f 106/106/106 107/107/107 108/108/108
f 109/109/109 110/110/110 111/111/111
f 112/112/112 113/113/113 114/114/114
f 115/115/115 116/116/116 117/117/117
f 118/118/118 119/119/119 120/120/120
