mtllib ArcadaCompleta.mtl
o D63C_I
usemtl Esmalte
v 17.64780044555664 48.37926483154297 1.314790756188824
v 17.706100463867188 47.69986343383789 0.39109975167412964
v 18.778799057006836 47.543663024902344 0.679276735269024
v 18.748699188232422 48.36256408691406 1.6303807801832697
v 17.64780044555664 48.37926483154297 1.314790756188824
v 18.778799057006836 47.543663024902344 0.679276735269024
v 18.778799057006836 47.317562103271484 0.007409975611164147
v 19.85140037536621 47.69986343383789 0.39109975167412964
v 18.778799057006836 47.543663024902344 0.679276735269024
v 19.655899047851562 48.37926483154297 -0.8281322412858464
v 19.17650032043457 47.577064514160156 -0.6468552642236213
v 18.778799057006836 47.543663024902344 -0.6544172459016303
v 18.651899337768555 48.36256408691406 -0.8927502327332951
v 19.655899047851562 48.37926483154297 -0.8281322412858464
v 18.778799057006836 47.543663024902344 -0.6544172459016303
v 19.17650032043457 47.577064514160156 -0.6468552642236213
v 18.778799057006836 47.317562103271484 0.007409975611164147
v 18.778799057006836 47.543663024902344 -0.6544172459016303
v 17.63759994506836 47.58696365356445 -0.3762792640099982
v 18.778799057006836 47.317562103271484 0.007409975611164147
v 17.45800018310547 47.58696365356445 0.007409975611164207
v 16.54949951171875 48.57366180419922 0.6975177235235713
v 16.42840003967285 48.54566192626953 0.04039824449320063
v 17.45800018310547 47.58696365356445 0.007409975611164207
v 17.706100463867188 47.69986343383789 0.39109975167412964
v 16.54949951171875 48.57366180419922 0.6975177235235713
v 17.45800018310547 47.58696365356445 0.007409975611164207
v 19.85140037536621 47.69986343383789 0.39109975167412964
v 18.778799057006836 47.317562103271484 0.007409975611164147
v 20.09950065612793 47.58696365356445 0.007409975611164207
v 20.761499404907227 48.13926315307617 -0.5310362272630194
v 21.103700637817383 48.009361267089844 0.007409975611164301
v 20.09950065612793 47.58696365356445 0.007409975611164207
v 19.91990089416504 47.58696365356445 -0.3762792640099982
v 20.761499404907227 48.13926315307617 -0.5310362272630194
v 20.09950065612793 47.58696365356445 0.007409975611164207
v 17.45800018310547 47.58696365356445 0.007409975611164207
v 18.778799057006836 47.317562103271484 0.007409975611164147
v 17.706100463867188 47.69986343383789 0.39109975167412964
v 16.900299072265625 48.573062896728516 1.2909606999983334
v 16.54949951171875 48.57366180419922 0.6975177235235713
v 17.706100463867188 47.69986343383789 0.39109975167412964
v 20.09950065612793 47.58696365356445 0.007409975611164207
v 18.778799057006836 47.317562103271484 0.007409975611164147
v 19.91990089416504 47.58696365356445 -0.3762792640099982
v 20.57200050354004 48.263362884521484 -0.6718022518525579
v 20.761499404907227 48.13926315307617 -0.5310362272630194
v 19.91990089416504 47.58696365356445 -0.3762792640099982
v 19.548200607299805 47.58196258544922 -0.583477228201435
v 20.57200050354004 48.263362884521484 -0.6718022518525579
v 19.91990089416504 47.58696365356445 -0.3762792640099982
v 21.103700637817383 48.009361267089844 0.007409975611164301
v 20.889400482177734 48.14436340332031 0.8410827226271174
v 19.85140037536621 47.69986343383789 0.39109975167412964
v 20.09950065612793 47.58696365356445 0.007409975611164207
v 21.103700637817383 48.009361267089844 0.007409975611164301
v 19.85140037536621 47.69986343383789 0.39109975167412964
v 18.009300231933594 47.58196258544922 -0.583477228201435
v 18.778799057006836 47.317562103271484 0.007409975611164147
v 17.63759994506836 47.58696365356445 -0.3762792640099982
v 16.792800903320312 48.53886413574219 -0.6517312817941167
v 18.009300231933594 47.58196258544922 -0.583477228201435
v 17.63759994506836 47.58696365356445 -0.3762792640099982
v 16.627199172973633 48.54376220703125 -0.4070172601113774
v 16.792800903320312 48.53886413574219 -0.6517312817941167
v 17.63759994506836 47.58696365356445 -0.3762792640099982
v 18.778799057006836 47.543663024902344 -0.6544172459016303
v 18.778799057006836 47.317562103271484 0.007409975611164147
v 18.381000518798828 47.577064514160156 -0.6468552642236213
v 16.792800903320312 48.53886413574219 -0.6517312817941167
v 17.64780044555664 48.37926483154297 -0.8281322412858464
v 18.381000518798828 47.577064514160156 -0.6468552642236213
v 18.009300231933594 47.58196258544922 -0.583477228201435
v 16.792800903320312 48.53886413574219 -0.6517312817941167
v 18.381000518798828 47.577064514160156 -0.6468552642236213
v 19.548200607299805 47.58196258544922 -0.583477228201435
v 18.778799057006836 47.317562103271484 0.007409975611164147
v 19.17650032043457 47.577064514160156 -0.6468552642236213
v 18.778799057006836 47.543663024902344 0.679276735269024
v 17.706100463867188 47.69986343383789 0.39109975167412964
v 18.778799057006836 47.317562103271484 0.007409975611164147
v 18.381000518798828 47.577064514160156 -0.6468552642236213
v 18.778799057006836 47.317562103271484 0.007409975611164147
v 18.009300231933594 47.58196258544922 -0.583477228201435
v 19.91990089416504 47.58696365356445 -0.3762792640099982
v 18.778799057006836 47.317562103271484 0.007409975611164147
v 19.548200607299805 47.58196258544922 -0.583477228201435
v 19.655899047851562 48.37926483154297 -0.8281322412858464
v 20.57200050354004 48.263362884521484 -0.6718022518525579
v 19.548200607299805 47.58196258544922 -0.583477228201435
v 19.17650032043457 47.577064514160156 -0.6468552642236213
v 19.655899047851562 48.37926483154297 -0.8281322412858464
v 19.548200607299805 47.58196258544922 -0.583477228201435
v 19.85140037536621 47.69986343383789 0.39109975167412964
v 19.914199829101562 48.238563537597656 1.3248207873930475
v 18.748699188232422 48.36256408691406 1.6303807801832697
v 18.778799057006836 47.543663024902344 0.679276735269024
v 19.85140037536621 47.69986343383789 0.39109975167412964
v 18.748699188232422 48.36256408691406 1.6303807801832697
v 18.381000518798828 47.577064514160156 -0.6468552642236213
v 17.64780044555664 48.37926483154297 -0.8281322412858464
v 18.651899337768555 48.36256408691406 -0.8927502327332951
v 18.778799057006836 47.543663024902344 -0.6544172459016303
v 18.381000518798828 47.577064514160156 -0.6468552642236213
v 18.651899337768555 48.36256408691406 -0.8927502327332951
v 20.640100479125977 48.24936294555664 1.2387707538237116
v 19.85140037536621 47.69986343383789 0.39109975167412964
v 20.889400482177734 48.14436340332031 0.8410827226271174
v 16.900299072265625 48.573062896728516 1.2909606999983334
v 17.706100463867188 47.69986343383789 0.39109975167412964
v 17.64780044555664 48.37926483154297 1.314790756188824
v 19.914199829101562 48.238563537597656 1.3248207873930475
v 19.85140037536621 47.69986343383789 0.39109975167412964
v 20.640100479125977 48.24936294555664 1.2387707538237116
v 17.45800018310547 47.58696365356445 0.007409975611164207
v 16.42840003967285 48.54566192626953 0.04039824449320063
v 16.627199172973633 48.54376220703125 -0.4070172601113774
v 17.63759994506836 47.58696365356445 -0.3762792640099982
v 17.45800018310547 47.58696365356445 0.007409975611164207
v 16.627199172973633 48.54376220703125 -0.4070172601113774
vt 0.3230069875717163 0.3131769895553589
vt 0.3314409852027893 0.4451709985733032
vt 0.486752986907959 0.4039909839630127
vt 0.48240599036216736 0.2680790424346924
vt 0.3230069875717163 0.3131769895553589
vt 0.486752986907959 0.4039909839630127
vt 0.486752986907959 0.5
vt 0.6420639753341675 0.4451709985733032
vt 0.486752986907959 0.4039909839630127
vt 0.613752007484436 0.16297298669815063
vt 0.5443419814109802 0.04020148515701294
vt 0.486752986907959 0.03510361909866333
vt 0.46838000416755676 0.16042399406433105
vt 0.613752007484436 0.16297298669815063
vt 0.486752986907959 0.03510361909866333
vt 0.5443419814109802 0.5934939980506897
vt 0.486752986907959 0.5
vt 0.486752986907959 0.594573974609375
vt 0.32152798771858215 0.5548290014266968
vt 0.486752986907959 0.5
vt 0.2955160140991211 0.5
vt 0.16397599875926971 0.40138399600982666
vt 0.14644399285316467 0.4952859878540039
vt 0.2955160140991211 0.5
vt 0.3314409852027893 0.4451709985733032
vt 0.16397599875926971 0.40138399600982666
vt 0.2955160140991211 0.5
vt 0.6420639753341675 0.4451709985733032
vt 0.486752986907959 0.5
vt 0.6779900193214417 0.5
vt 0.7738350033760071 0.5769439935684204
vt 0.8233820199966431 0.5
vt 0.6779900193214417 0.5
vt 0.651977002620697 0.5548290014266968
vt 0.7738350033760071 0.5769439935684204
vt 0.6779900193214417 0.5
vt 0.2955160140991211 0.5
vt 0.486752986907959 0.5
vt 0.3314409852027893 0.4451709985733032
vt 0.21477699279785156 0.3165830373764038
vt 0.16397599875926971 0.40138399600982666
vt 0.3314409852027893 0.4451709985733032
vt 0.6779900193214417 0.5
vt 0.486752986907959 0.5
vt 0.651977002620697 0.5548290014266968
vt 0.7464029788970947 0.145238995552063
vt 0.7738350033760071 0.12624597549438477
vt 0.651977002620697 0.04172182083129883
vt 0.5981600284576416 0.5844370126724243
vt 0.7464029788970947 0.5970590114593506
vt 0.651977002620697 0.5548290014266968
vt 0.8233820199966431 0.5
vt 0.7923589944839478 0.3808690309524536
vt 0.6420639753341675 0.4451709985733032
vt 0.6779900193214417 0.5
vt 0.8233820199966431 0.5
vt 0.6420639753341675 0.4451709985733032
vt 0.37534600496292114 0.5844370126724243
vt 0.486752986907959 0.5
vt 0.32152798771858215 0.5548290014266968
vt 0.19920599460601807 0.1874060034751892
vt 0.37534600496292114 0.040961623191833496
vt 0.32152798771858215 0.04172182083129883
vt 0.17523199319839478 0.5592210292816162
vt 0.19920599460601807 0.5941900014877319
vt 0.32152798771858215 0.5548290014266968
vt 0.486752986907959 0.594573974609375
vt 0.486752986907959 0.5
vt 0.42916300892829895 0.5934939980506897
vt 0.19920599460601807 0.1874060034751892
vt 0.3230069875717163 0.16297298669815063
vt 0.42916300892829895 0.04020148515701294
vt 0.37534600496292114 0.040961623191833496
vt 0.19920599460601807 0.1874060034751892
vt 0.42916300892829895 0.04020148515701294
vt 0.5981600284576416 0.5844370126724243
vt 0.486752986907959 0.5
vt 0.5443419814109802 0.5934939980506897
vt 0.486752986907959 0.4039909839630127
vt 0.3314409852027893 0.4451709985733032
vt 0.486752986907959 0.5
vt 0.42916300892829895 0.5934939980506897
vt 0.486752986907959 0.5
vt 0.37534600496292114 0.5844370126724243
vt 0.651977002620697 0.5548290014266968
vt 0.486752986907959 0.5
vt 0.5981600284576416 0.5844370126724243
vt 0.613752007484436 0.16297298669815063
vt 0.7464029788970947 0.145238995552063
vt 0.5981600284576416 0.040961623191833496
vt 0.5443419814109802 0.04020148515701294
vt 0.613752007484436 0.16297298669815063
vt 0.5981600284576416 0.040961623191833496
vt 0.6420639753341675 0.4451709985733032
vt 0.651157021522522 0.31174302101135254
vt 0.48240599036216736 0.2680790424346924
vt 0.486752986907959 0.4039909839630127
vt 0.6420639753341675 0.4451709985733032
vt 0.48240599036216736 0.2680790424346924
vt 0.42916300892829895 0.04020148515701294
vt 0.3230069875717163 0.16297298669815063
vt 0.46838000416755676 0.16042399406433105
vt 0.486752986907959 0.03510361909866333
vt 0.42916300892829895 0.04020148515701294
vt 0.46838000416755676 0.16042399406433105
vt 0.7562549710273743 0.3240389823913574
vt 0.6420639753341675 0.4451709985733032
vt 0.7923589944839478 0.3808690309524536
vt 0.21477699279785156 0.3165830373764038
vt 0.3314409852027893 0.4451709985733032
vt 0.3230069875717163 0.3131769895553589
vt 0.651157021522522 0.31174302101135254
vt 0.6420639753341675 0.4451709985733032
vt 0.7562549710273743 0.3240389823913574
vt 0.2955160140991211 0.5
vt 0.14644399285316467 0.4952859878540039
vt 0.17523199319839478 0.5592210292816162
vt 0.32152798771858215 0.5548290014266968
vt 0.2955160140991211 0.5
vt 0.17523199319839478 0.5592210292816162
vn -0.2268717627614857 -0.772332452591325 0.5933226659548454
vn -0.3189788473708691 -0.8308089229114469 0.4560800681247464
vn -0.04239612120380757 -0.8332164841219271 0.5513191992796609
vn 0.03980802877514338 -0.7947648881259879 0.6056105129925696
vn -0.2268717627614857 -0.772332452591325 0.5933226659548454
vn -0.04239612120380757 -0.8332164841219271 0.5513191992796609
vn -3.5168812937178304e-9 -0.9987714996594956 0.04955291583672836
vn 0.20134938541685002 -0.8707266689879051 0.4486574338016523
vn -0.04239612120380757 -0.8332164841219271 0.5513191992796609
vn 0.09558475862156295 -0.2843034075428437 -0.9539576124644037
vn 0.10130663235371583 -0.6655930889384236 -0.7394070639360683
vn 0.029247504867857224 -0.49527172837050126 -0.8682456441214669
vn -0.006008590666635591 -0.275740598033894 -0.9612133058973494
vn 0.09558475862156295 -0.2843034075428437 -0.9539576124644037
vn 0.029247504867857224 -0.49527172837050126 -0.8682456441214669
vn 0.10130663235371583 -0.6655930889384236 -0.7394070639360683
vn -3.5168812937178304e-9 -0.9987714996594956 0.04955291583672836
vn 0.029247504867857224 -0.49527172837050126 -0.8682456441214669
vn -0.43577967354836533 -0.8201355575382331 -0.3707745182500166
vn -3.5168812937178304e-9 -0.9987714996594956 0.04955291583672836
vn -0.5319887539559436 -0.842730509499415 0.08242119887055245
vn -0.5590884807069285 -0.7697490025026844 0.30806905700985415
vn -0.6816713851598759 -0.7311162993259865 -0.02816166745934162
vn -0.5319887539559436 -0.842730509499415 0.08242119887055245
vn -0.3189788473708691 -0.8308089229114469 0.4560800681247464
vn -0.5590884807069285 -0.7697490025026844 0.30806905700985415
vn -0.5319887539559436 -0.842730509499415 0.08242119887055245
vn 0.20134938541685002 -0.8707266689879051 0.4486574338016523
vn -3.5168812937178304e-9 -0.9987714996594956 0.04955291583672836
vn 0.3327609541421349 -0.9429992275222364 0.00475439700505132
vn 0.3855008323269063 -0.8046282766626104 -0.45162201526300766
vn 0.3460188855480968 -0.9340581818887944 0.08835294953001291
vn 0.3327609541421349 -0.9429992275222364 0.00475439700505132
vn 0.30761303640045745 -0.8743796449753078 -0.37527917113709536
vn 0.3855008323269063 -0.8046282766626104 -0.45162201526300766
vn 0.3327609541421349 -0.9429992275222364 0.00475439700505132
vn -0.5319887539559436 -0.842730509499415 0.08242119887055245
vn -3.5168812937178304e-9 -0.9987714996594956 0.04955291583672836
vn -0.3189788473708691 -0.8308089229114469 0.4560800681247464
vn -0.3894307896198675 -0.8104184238278896 0.4376821202840773
vn -0.5590884807069285 -0.7697490025026844 0.30806905700985415
vn -0.3189788473708691 -0.8308089229114469 0.4560800681247464
vn 0.3327609541421349 -0.9429992275222364 0.00475439700505132
vn -3.5168812937178304e-9 -0.9987714996594956 0.04955291583672836
vn 0.30761303640045745 -0.8743796449753078 -0.37527917113709536
vn 0.21339957449922162 -0.45617946849619795 -0.8639218217675008
vn 0.3855008323269063 -0.8046282766626104 -0.45162201526300766
vn 0.30761303640045745 -0.8743796449753078 -0.37527917113709536
vn 0.18758272190071124 -0.6292088814144113 -0.7542605027399655
vn 0.21339957449922162 -0.45617946849619795 -0.8639218217675008
vn 0.30761303640045745 -0.8743796449753078 -0.37527917113709536
vn 0.3460188855480968 -0.9340581818887944 0.08835294953001291
vn 0.2719105738419093 -0.9201623656282429 0.28171947166356737
vn 0.20134938541685002 -0.8707266689879051 0.4486574338016523
vn 0.3327609541421349 -0.9429992275222364 0.00475439700505132
vn 0.3460188855480968 -0.9340581818887944 0.08835294953001291
vn 0.20134938541685002 -0.8707266689879051 0.4486574338016523
vn -0.24082016830439415 -0.7342017399831164 -0.6347861463072483
vn -3.5168812937178304e-9 -0.9987714996594956 0.04955291583672836
vn -0.43577967354836533 -0.8201355575382331 -0.3707745182500166
vn -0.36555361940944353 -0.5043581750823241 -0.7823000591616258
vn -0.24082016830439415 -0.7342017399831164 -0.6347861463072483
vn -0.43577967354836533 -0.8201355575382331 -0.3707745182500166
vn -0.6471080804620772 -0.6906794931909817 -0.3228203368533879
vn -0.36555361940944353 -0.5043581750823241 -0.7823000591616258
vn -0.43577967354836533 -0.8201355575382331 -0.3707745182500166
vn 0.029247504867857224 -0.49527172837050126 -0.8682456441214669
vn -3.5168812937178304e-9 -0.9987714996594956 0.04955291583672836
vn -0.13403235293399987 -0.4846910506462159 -0.8643552011704697
vn -0.36555361940944353 -0.5043581750823241 -0.7823000591616258
vn -0.15294636806926115 -0.34873965012880725 -0.9246556466720243
vn -0.13403235293399987 -0.4846910506462159 -0.8643552011704697
vn -0.24082016830439415 -0.7342017399831164 -0.6347861463072483
vn -0.36555361940944353 -0.5043581750823241 -0.7823000591616258
vn -0.13403235293399987 -0.4846910506462159 -0.8643552011704697
vn 0.18758272190071124 -0.6292088814144113 -0.7542605027399655
vn -3.5168812937178304e-9 -0.9987714996594956 0.04955291583672836
vn 0.10130663235371583 -0.6655930889384236 -0.7394070639360683
vn -0.04239612120380757 -0.8332164841219271 0.5513191992796609
vn -0.3189788473708691 -0.8308089229114469 0.4560800681247464
vn -3.5168812937178304e-9 -0.9987714996594956 0.04955291583672836
vn -0.13403235293399987 -0.4846910506462159 -0.8643552011704697
vn -3.5168812937178304e-9 -0.9987714996594956 0.04955291583672836
vn -0.24082016830439415 -0.7342017399831164 -0.6347861463072483
vn 0.30761303640045745 -0.8743796449753078 -0.37527917113709536
vn -3.5168812937178304e-9 -0.9987714996594956 0.04955291583672836
vn 0.18758272190071124 -0.6292088814144113 -0.7542605027399655
vn 0.09558475862156295 -0.2843034075428437 -0.9539576124644037
vn 0.21339957449922162 -0.45617946849619795 -0.8639218217675008
vn 0.18758272190071124 -0.6292088814144113 -0.7542605027399655
vn 0.10130663235371583 -0.6655930889384236 -0.7394070639360683
vn 0.09558475862156295 -0.2843034075428437 -0.9539576124644037
vn 0.18758272190071124 -0.6292088814144113 -0.7542605027399655
vn 0.20134938541685002 -0.8707266689879051 0.4486574338016523
vn 0.05093903116783784 -0.8665342368788804 0.4965114615196899
vn 0.03980802877514338 -0.7947648881259879 0.6056105129925696
vn -0.04239612120380757 -0.8332164841219271 0.5513191992796609
vn 0.20134938541685002 -0.8707266689879051 0.4486574338016523
vn 0.03980802877514338 -0.7947648881259879 0.6056105129925696
vn -0.13403235293399987 -0.4846910506462159 -0.8643552011704697
vn -0.15294636806926115 -0.34873965012880725 -0.9246556466720243
vn -0.006008590666635591 -0.275740598033894 -0.9612133058973494
vn 0.029247504867857224 -0.49527172837050126 -0.8682456441214669
vn -0.13403235293399987 -0.4846910506462159 -0.8643552011704697
vn -0.006008590666635591 -0.275740598033894 -0.9612133058973494
vn 0.13611455345786924 -0.8843152577666004 0.44660872496868675
vn 0.20134938541685002 -0.8707266689879051 0.4486574338016523
vn 0.2719105738419093 -0.9201623656282429 0.28171947166356737
vn -0.3894307896198675 -0.8104184238278896 0.4376821202840773
vn -0.3189788473708691 -0.8308089229114469 0.4560800681247464
vn -0.2268717627614857 -0.772332452591325 0.5933226659548454
vn 0.05093903116783784 -0.8665342368788804 0.4965114615196899
vn 0.20134938541685002 -0.8707266689879051 0.4486574338016523
vn 0.13611455345786924 -0.8843152577666004 0.44660872496868675
vn -0.5319887539559436 -0.842730509499415 0.08242119887055245
vn -0.6816713851598759 -0.7311162993259865 -0.02816166745934162
vn -0.6471080804620772 -0.6906794931909817 -0.3228203368533879
vn -0.43577967354836533 -0.8201355575382331 -0.3707745182500166
vn -0.5319887539559436 -0.842730509499415 0.08242119887055245
vn -0.6471080804620772 -0.6906794931909817 -0.3228203368533879
f 1/1/1 2/2/2 3/3/3
f 4/4/4 5/5/5 6/6/6
f 7/7/7 8/8/8 9/9/9
f 10/10/10 11/11/11 12/12/12
f 13/13/13 14/14/14 15/15/15
f 16/16/16 17/17/17 18/18/18
f 19/19/19 20/20/20 21/21/21
f 22/22/22 23/23/23 24/24/24
f 25/25/25 26/26/26 27/27/27
f 28/28/28 29/29/29 30/30/30
f 31/31/31 32/32/32 33/33/33
f 34/34/34 35/35/35 36/36/36
f 37/37/37 38/38/38 39/39/39
f 40/40/40 41/41/41 42/42/42
f 43/43/43 44/44/44 45/45/45
f 46/46/46 47/47/47 48/48/48
f 49/49/49 50/50/50 51/51/51
f 52/52/52 53/53/53 54/54/54
f 55/55/55 56/56/56 57/57/57
f 58/58/58 59/59/59 60/60/60
f 61/61/61 62/62/62 63/63/63
f 64/64/64 65/65/65 66/66/66
f 67/67/67 68/68/68 69/69/69
f 70/70/70 71/71/71 72/72/72
f 73/73/73 74/74/74 75/75/75
f 76/76/76 77/77/77 78/78/78
f 79/79/79 80/80/80 81/81/81
f 82/82/82 83/83/83 84/84/84
f 85/85/85 86/86/86 87/87/87
f 88/88/88 89/89/89 90/90/90
f 91/91/91 92/92/92 93/93/93
f 94/94/94 95/95/95 96/96/96
f 97/97/97 98/98/98 99/99/99
f 100/100/100 101/101/101 102/102/102
f 103/103/103 104/104/104 105/105/105
f 106/106/106 107/107/107 108/108/108
f 109/109/109 110/110/110 111/111/111
f 112/112/112 113/113/113 114/114/114
f 115/115/115 116/116/116 117/117/117
f 118/118/118 119/119/119 120/120/120
