mtllib ArcadaCompleta.mtl
o D64C_CDV
usemtl Esmalte
v 28.340099334716797 48.92256164550781 3.1848707503904845
v 28.117700576782227 48.04676055908203 2.4863007373442194
v 28.783300399780273 48.223365783691406 2.221450836144879
v 28.889400482177734 48.920562744140625 2.8183808631529357
v 28.340099334716797 48.92256164550781 3.1848707503904845
v 28.783300399780273 48.223365783691406 2.221450836144879
v 29.166900634765625 51.267364501953125 1.6398607797255067
v 28.749500274658203 52.282161712646484 2.081410676919416
v 28.42340087890625 52.36116409301758 3.331480771981672
v 28.688400268554688 51.235862731933594 3.379030734979108
v 29.166900634765625 51.267364501953125 1.6398607797255067
v 28.42340087890625 52.36116409301758 3.331480771981672
v 28.340099334716797 48.92256164550781 3.1848707503904845
v 28.889400482177734 48.920562744140625 2.8183808631529357
v 28.82229995727539 50.237361907958984 3.304560691796735
v 28.216100692749023 50.232364654541016 3.661590845071271
v 28.340099334716797 48.92256164550781 3.1848707503904845
v 28.82229995727539 50.237361907958984 3.304560691796735
v 28.03809928894043 51.27096176147461 4.054070741616681
v 28.216100692749023 50.232364654541016 3.661590845071271
v 28.82229995727539 50.237361907958984 3.304560691796735
v 28.688400268554688 51.235862731933594 3.379030734979108
v 28.03809928894043 51.27096176147461 4.054070741616681
v 28.82229995727539 50.237361907958984 3.304560691796735
v 29.410900115966797 48.439762115478516 1.6054107255568049
v 29.55699920654297 49.09486389160156 1.7328007526030087
v 28.889400482177734 48.920562744140625 2.8183808631529357
v 28.783300399780273 48.223365783691406 2.221450836144879
v 29.410900115966797 48.439762115478516 1.6054107255568049
v 28.889400482177734 48.920562744140625 2.8183808631529357
v 28.643800735473633 48.048362731933594 0.9909497208227656
v 29.07200050354004 48.19586181640625 1.41530075737138
v 28.687000274658203 47.9312629699707 1.8906407661070368
v 28.531299591064453 47.82766342163086 1.2491207427610895
v 28.643800735473633 48.048362731933594 0.9909497208227656
v 28.687000274658203 47.9312629699707 1.8906407661070368
v 28.117700576782227 48.04676055908203 2.4863007373442194
v 27.9552001953125 47.72626495361328 2.047200710259869
v 28.687000274658203 47.9312629699707 1.8906407661070368
v 28.783300399780273 48.223365783691406 2.221450836144879
v 28.117700576782227 48.04676055908203 2.4863007373442194
v 28.687000274658203 47.9312629699707 1.8906407661070368
v 27.9552001953125 47.72626495361328 2.047200710259869
v 28.531299591064453 47.82766342163086 1.2491207427610895
v 28.687000274658203 47.9312629699707 1.8906407661070368
v 28.340099334716797 48.92256164550781 3.1848707503904845
v 27.393400192260742 48.957862854003906 3.730230838738873
v 27.390499114990234 48.11566162109375 3.110690862618878
v 28.117700576782227 48.04676055908203 2.4863007373442194
v 28.340099334716797 48.92256164550781 3.1848707503904845
v 27.390499114990234 48.11566162109375 3.110690862618878
v 28.216100692749023 50.232364654541016 3.661590845071271
v 27.329200744628906 50.2359619140625 3.9201908416380435
v 27.393400192260742 48.957862854003906 3.730230838738873
v 28.340099334716797 48.92256164550781 3.1848707503904845
v 28.216100692749023 50.232364654541016 3.661590845071271
v 27.393400192260742 48.957862854003906 3.730230838738873
v 29.429500579833984 50.23126220703125 1.7655107087721373
v 29.166900634765625 51.267364501953125 1.6398607797255067
v 28.688400268554688 51.235862731933594 3.379030734979108
v 28.82229995727539 50.237361907958984 3.304560691796735
v 29.429500579833984 50.23126220703125 1.7655107087721373
v 28.688400268554688 51.235862731933594 3.379030734979108
v 27.884700775146484 52.453861236572266 3.638600856744245
v 28.03809928894043 51.27096176147461 4.054070741616681
v 28.688400268554688 51.235862731933594 3.379030734979108
v 28.42340087890625 52.36116409301758 3.331480771981672
v 27.884700775146484 52.453861236572266 3.638600856744245
v 28.688400268554688 51.235862731933594 3.379030734979108
v 28.216100692749023 50.232364654541016 3.661590845071271
v 28.03809928894043 51.27096176147461 4.054070741616681
v 27.289899826049805 51.29536437988281 4.29310062595506
v 27.329200744628906 50.2359619140625 3.9201908416380435
v 28.216100692749023 50.232364654541016 3.661590845071271
v 27.289899826049805 51.29536437988281 4.29310062595506
v 28.687000274658203 47.9312629699707 1.8906407661070368
v 29.07200050354004 48.19586181640625 1.41530075737138
v 29.410900115966797 48.439762115478516 1.6054107255568049
v 28.783300399780273 48.223365783691406 2.221450836144879
v 28.687000274658203 47.9312629699707 1.8906407661070368
v 29.410900115966797 48.439762115478516 1.6054107255568049
v 28.889400482177734 48.920562744140625 2.8183808631529357
v 29.55699920654297 49.09486389160156 1.7328007526030087
v 29.429500579833984 50.23126220703125 1.7655107087721373
v 28.82229995727539 50.237361907958984 3.304560691796735
v 28.889400482177734 48.920562744140625 2.8183808631529357
v 29.429500579833984 50.23126220703125 1.7655107087721373
v 27.710399627685547 47.726661682128906 1.3073807067503473
v 28.531299591064453 47.82766342163086 1.2491207427610895
v 27.9552001953125 47.72626495361328 2.047200710259869
v 27.1653995513916 47.838863372802734 2.307750732385113
v 27.094999313354492 47.90706253051758 1.7480907744993708
v 27.9552001953125 47.72626495361328 2.047200710259869
v 27.1653995513916 47.838863372802734 2.307750732385113
v 27.9552001953125 47.72626495361328 2.047200710259869
v 28.117700576782227 48.04676055908203 2.4863007373442194
v 27.390499114990234 48.11566162109375 3.110690862618878
v 27.1653995513916 47.838863372802734 2.307750732385113
v 28.117700576782227 48.04676055908203 2.4863007373442194
v 27.9552001953125 47.72626495361328 2.047200710259869
v 27.533300399780273 47.74346160888672 1.7215507335295221
v 27.710399627685547 47.726661682128906 1.3073807067503473
v 27.170400619506836 48.160362243652344 0.8693047470678827
v 27.55620002746582 48.143463134765625 0.6474207348455927
v 27.710399627685547 47.726661682128906 1.3073807067503473
v 27.055200576782227 48.20026397705078 1.1696207828154108
v 27.170400619506836 48.160362243652344 0.8693047470678827
v 27.710399627685547 47.726661682128906 1.3073807067503473
v 27.344900131225586 48.04486083984375 1.3829207725157282
v 27.055200576782227 48.20026397705078 1.1696207828154108
v 27.710399627685547 47.726661682128906 1.3073807067503473
v 27.55620002746582 48.143463134765625 0.6474207348455927
v 28.324199676513672 48.03706359863281 0.7828707403769037
v 28.531299591064453 47.82766342163086 1.2491207427610895
v 27.710399627685547 47.726661682128906 1.3073807067503473
v 27.55620002746582 48.143463134765625 0.6474207348455927
v 28.531299591064453 47.82766342163086 1.2491207427610895
v 28.324199676513672 48.03706359863281 0.7828707403769037
v 28.643800735473633 48.048362731933594 0.9909497208227656
v 28.531299591064453 47.82766342163086 1.2491207427610895
v 27.055200576782227 48.20026397705078 1.1696207828154108
v 27.344900131225586 48.04486083984375 1.3829207725157282
v 27.256399154663086 48.11516571044922 1.6082307405104181
v 27.115999221801758 48.32466125488281 1.5082507438292048
v 27.055200576782227 48.20026397705078 1.1696207828154108
v 27.256399154663086 48.11516571044922 1.6082307405104181
v 27.256399154663086 48.11516571044922 1.6082307405104181
v 27.344900131225586 48.04486083984375 1.3829207725157282
v 27.533300399780273 47.74346160888672 1.7215507335295221
v 27.9552001953125 47.72626495361328 2.047200710259869
v 27.094999313354492 47.90706253051758 1.7480907744993708
v 27.533300399780273 47.74346160888672 1.7215507335295221
v 27.710399627685547 47.726661682128906 1.3073807067503473
v 27.533300399780273 47.74346160888672 1.7215507335295221
v 27.344900131225586 48.04486083984375 1.3829207725157282
v 27.256399154663086 48.11516571044922 1.6082307405104181
v 27.533300399780273 47.74346160888672 1.7215507335295221
v 27.094999313354492 47.90706253051758 1.7480907744993708
vt 0.7864750027656555 0.15136003494262695
vt 0.7536619901657104 0.2315869927406311
vt 0.8518329858779907 0.262004017829895
vt 0.8674880266189575 0.1934499740600586
vt 0.7864750027656555 0.15136003494262695
vt 0.8518329858779907 0.262004017829895
vt 0.6712039709091187 0.739575982093811
vt 0.7219139933586121 0.9372730255126953
vt 0.865477979183197 0.9526510238647461
vt 0.8709390163421631 0.7334290146827698
vt 0.6712039709091187 0.739575982093811
vt 0.865477979183197 0.9526510238647461
vt 0.21352499723434448 0.28278398513793945
vt 0.13251200318336487 0.282397985458374
vt 0.14241600036621094 0.5389260053634644
vt 0.23181700706481934 0.5379459857940674
vt 0.21352499723434448 0.28278398513793945
vt 0.14241600036621094 0.5389260053634644
vt 0.258078008890152 0.7402700185775757
vt 0.23181700706481934 0.5379459857940674
vt 0.14241600036621094 0.5389260053634644
vt 0.8709390163421631 0.7334290146827698
vt 0.9484630227088928 0.7402700185775757
vt 0.8623859882354736 0.5389260053634644
vt 0.6672469973564148 0.18872100114822388
vt 0.6818779706954956 0.31633901596069336
vt 0.8065500259399414 0.282397985458374
vt 0.8518329858779907 0.262004017829895
vt 0.9444130063056946 0.3327530026435852
vt 0.8674880266189575 0.1934499740600586
vt 0.8312640190124512 0.4033200144767761
vt 0.8944230079650879 0.35458600521087646
vt 0.8376410007476807 0.299996018409729
vt 0.6263290047645569 0.06948751211166382
vt 0.5966799855232239 0.11248302459716797
vt 0.700003981590271 0.089652419090271
vt 0.7536619901657104 0.2315869927406311
vt 0.7297049760818481 0.2820160388946533
vt 0.8376410007476807 0.299996018409729
vt 0.8518329858779907 0.262004017829895
vt 0.7536619901657104 0.2315869927406311
vt 0.8376410007476807 0.299996018409729
vt 0.7297049760818481 0.2820160388946533
vt 0.8146650195121765 0.3736709952354431
vt 0.8376410007476807 0.299996018409729
vt 0.7864750027656555 0.15136003494262695
vt 0.6468440294265747 0.08872878551483154
vt 0.6464149951934814 0.15987998247146606
vt 0.7536619901657104 0.2315869927406311
vt 0.7864750027656555 0.15136003494262695
vt 0.6464149951934814 0.15987998247146606
vt 0.23181700706481934 0.5379459857940674
vt 0.3626370131969452 0.538644015789032
vt 0.3531560003757477 0.2896460294723511
vt 0.21352499723434448 0.28278398513793945
vt 0.23181700706481934 0.5379459857940674
vt 0.3531560003757477 0.2896460294723511
vt 0.6856330037117004 0.5377269983291626
vt 0.6712039709091187 0.739575982093811
vt 0.8709390163421631 0.7334290146827698
vt 0.8623859882354736 0.5389260053634644
vt 0.6856330037117004 0.5377269983291626
vt 0.8709390163421631 0.7334290146827698
vt 0.9007480144500732 0.9707249999046326
vt 0.9484630227088928 0.7402700185775757
vt 0.8709390163421631 0.7334290146827698
vt 0.2012449949979782 0.9526510238647461
vt 0.28069400787353516 0.9707249999046326
vt 0.16215799748897552 0.7334290146827698
vt 0.23181700706481934 0.5379459857940674
vt 0.258078008890152 0.7402700185775757
vt 0.3684290051460266 0.7450299859046936
vt 0.3626370131969452 0.538644015789032
vt 0.23181700706481934 0.5379459857940674
vt 0.3684290051460266 0.7450299859046936
vt 0.8376410007476807 0.299996018409729
vt 0.8944230079650879 0.35458600521087646
vt 0.9444130063056946 0.3327530026435852
vt 0.8518329858779907 0.262004017829895
vt 0.8376410007476807 0.299996018409729
vt 0.9444130063056946 0.3327530026435852
vt 0.8065500259399414 0.282397985458374
vt 0.6818779706954956 0.31633901596069336
vt 0.6856330037117004 0.5377269983291626
vt 0.8623859882354736 0.5389260053634644
vt 0.8065500259399414 0.282397985458374
vt 0.6856330037117004 0.5377269983291626
vt 0.6935939788818359 0.3669799566268921
vt 0.8146650195121765 0.3736709952354431
vt 0.7297049760818481 0.2820160388946533
vt 0.6132130026817322 0.25209295749664307
vt 0.6028220057487488 0.3163670301437378
vt 0.7297049760818481 0.2820160388946533
vt 0.6132130026817322 0.25209295749664307
vt 0.7297049760818481 0.2820160388946533
vt 0.7536619901657104 0.2315869927406311
vt 0.6464149951934814 0.15987998247146606
vt 0.6132130026817322 0.25209295749664307
vt 0.7536619901657104 0.2315869927406311
vt 0.7297049760818481 0.2820160388946533
vt 0.6674659848213196 0.31941401958465576
vt 0.6935939788818359 0.3669799566268921
vt 0.6139519810676575 0.41729098558425903
vt 0.6708440184593201 0.4427729845046997
vt 0.6935939788818359 0.3669799566268921
vt 0.5969520211219788 0.38280099630355835
vt 0.6139519810676575 0.41729098558425903
vt 0.6935939788818359 0.3669799566268921
vt 0.6396790146827698 0.3583049774169922
vt 0.5969520211219788 0.38280099630355835
vt 0.6935939788818359 0.3669799566268921
vt 0.6708440184593201 0.4427729845046997
vt 0.7841190099716187 0.4272170066833496
vt 0.8146650195121765 0.3736709952354431
vt 0.6935939788818359 0.3669799566268921
vt 0.6708440184593201 0.4427729845046997
vt 0.8146650195121765 0.3736709952354431
vt 0.7841190099716187 0.4272170066833496
vt 0.8312640190124512 0.4033200144767761
vt 0.8146650195121765 0.3736709952354431
vt 0.5969520211219788 0.38280099630355835
vt 0.6396790146827698 0.3583049774169922
vt 0.6266360282897949 0.3324289917945862
vt 0.34391099214553833 0.1662989854812622
vt 0.38280099630355835 0.14207303524017334
vt 0.3324289917945862 0.12548696994781494
vt 0.6266360282897949 0.3324289917945862
vt 0.6396790146827698 0.3583049774169922
vt 0.6674659848213196 0.31941401958465576
vt 0.7297049760818481 0.2820160388946533
vt 0.6028220057487488 0.3163670301437378
vt 0.6674659848213196 0.31941401958465576
vt 0.6935939788818359 0.3669799566268921
vt 0.6674659848213196 0.31941401958465576
vt 0.6396790146827698 0.3583049774169922
vt 0.6266360282897949 0.12548696994781494
vt 0.6674659848213196 0.05307149887084961
vt 0.6028220057487488 0.08495438098907471
vn 0.47363554060480745 -0.44421817751786036 0.7604864137107924
vn 0.34041791270228705 -0.7641416589649543 0.54790799386914
vn 0.5290995830487765 -0.6269286268072916 0.5718514913044598
vn 0.8144129615297055 -0.21060756109044 0.5407180256880206
vn 0.47363554060480745 -0.44421817751786036 0.7604864137107924
vn 0.5290995830487765 -0.6269286268072916 0.5718514913044598
vn 0.9327020264949332 0.2577555372551678 0.25224791929081397
vn 0.9316527566298183 0.28529963203463976 0.22500502444381007
vn 0.8990092442192471 0.24598801445783422 0.36231516053214036
vn 0.8711021840280911 0.2059049543932117 0.4458521444804533
vn 0.9327020264949332 0.2577555372551678 0.25224791929081397
vn 0.8990092442192471 0.24598801445783422 0.36231516053214036
vn 0.47363554060480745 -0.44421817751786036 0.7604864137107924
vn 0.8144129615297055 -0.21060756109044 0.5407180256880206
vn 0.7944167920081223 -0.09303905149091672 0.6002047113053965
vn 0.38470363969875787 -0.24656888648778227 0.8894981134430267
vn 0.47363554060480745 -0.44421817751786036 0.7604864137107924
vn 0.7944167920081223 -0.09303905149091672 0.6002047113053965
vn 0.5976545034338356 -0.0027900355957601415 0.801748907218856
vn 0.38470363969875787 -0.24656888648778227 0.8894981134430267
vn 0.7944167920081223 -0.09303905149091672 0.6002047113053965
vn 0.8711021840280911 0.2059049543932117 0.4458521444804533
vn 0.5976545034338356 -0.0027900355957601415 0.801748907218856
vn 0.7944167920081223 -0.09303905149091672 0.6002047113053965
vn 0.7417301898996421 -0.5140043335859287 0.43085481365110245
vn 0.8544439999730217 -0.05503986602119382 0.5166198448167396
vn 0.8144129615297055 -0.21060756109044 0.5407180256880206
vn 0.5290995830487765 -0.6269286268072916 0.5718514913044598
vn 0.7417301898996421 -0.5140043335859287 0.43085481365110245
vn 0.8144129615297055 -0.21060756109044 0.5407180256880206
vn 0.5518899643270663 -0.8083031299516831 -0.20509392332631998
vn 0.5002367030493248 -0.8626326711059988 -0.07502076821035104
vn 0.4886236350901848 -0.8470838426867164 0.20903565889665837
vn 0.19752285761467817 -0.9493913235650215 -0.24421473227303092
vn 0.5518899643270663 -0.8083031299516831 -0.20509392332631998
vn 0.4886236350901848 -0.8470838426867164 0.20903565889665837
vn 0.34041791270228705 -0.7641416589649543 0.54790799386914
vn 0.0905119252749359 -0.9784942242992979 0.18535545418449317
vn 0.4886236350901848 -0.8470838426867164 0.20903565889665837
vn 0.5290995830487765 -0.6269286268072916 0.5718514913044598
vn 0.34041791270228705 -0.7641416589649543 0.54790799386914
vn 0.4886236350901848 -0.8470838426867164 0.20903565889665837
vn 0.0905119252749359 -0.9784942242992979 0.18535545418449317
vn 0.19752285761467817 -0.9493913235650215 -0.24421473227303092
vn 0.4886236350901848 -0.8470838426867164 0.20903565889665837
vn 0.47363554060480745 -0.44421817751786036 0.7604864137107924
vn 0.39963545615811136 -0.3065739214227589 0.8638888428986511
vn 0.3790585753652942 -0.7049150614664961 0.5995075917448581
vn 0.34041791270228705 -0.7641416589649543 0.54790799386914
vn 0.47363554060480745 -0.44421817751786036 0.7604864137107924
vn 0.3790585753652942 -0.7049150614664961 0.5995075917448581
vn 0.38470363969875787 -0.24656888648778227 0.8894981134430267
vn 0.2726484952648743 -0.21381115987849683 0.9380552147614828
vn 0.39963545615811136 -0.3065739214227589 0.8638888428986511
vn 0.47363554060480745 -0.44421817751786036 0.7604864137107924
vn 0.38470363969875787 -0.24656888648778227 0.8894981134430267
vn 0.39963545615811136 -0.3065739214227589 0.8638888428986511
vn 0.9227139661140107 0.08424261693865454 0.3761676730255798
vn 0.9327020264949332 0.2577555372551678 0.25224791929081397
vn 0.8711021840280911 0.2059049543932117 0.4458521444804533
vn 0.7944167920081223 -0.09303905149091672 0.6002047113053965
vn 0.9227139661140107 0.08424261693865454 0.3761676730255798
vn 0.8711021840280911 0.2059049543932117 0.4458521444804533
vn 0.6313125116861148 0.26093463542815964 0.730313376998219
vn 0.5976545034338356 -0.0027900355957601415 0.801748907218856
vn 0.8711021840280911 0.2059049543932117 0.4458521444804533
vn 0.8990092442192471 0.24598801445783422 0.36231516053214036
vn 0.6313125116861148 0.26093463542815964 0.730313376998219
vn 0.8711021840280911 0.2059049543932117 0.4458521444804533
vn 0.38470363969875787 -0.24656888648778227 0.8894981134430267
vn 0.5976545034338356 -0.0027900355957601415 0.801748907218856
vn 0.2725310394928155 -0.3047136741880319 0.9126206272465001
vn 0.2726484952648743 -0.21381115987849683 0.9380552147614828
vn 0.38470363969875787 -0.24656888648778227 0.8894981134430267
vn 0.2725310394928155 -0.3047136741880319 0.9126206272465001
vn 0.4886236350901848 -0.8470838426867164 0.20903565889665837
vn 0.5002367030493248 -0.8626326711059988 -0.07502076821035104
vn 0.7417301898996421 -0.5140043335859287 0.43085481365110245
vn 0.5290995830487765 -0.6269286268072916 0.5718514913044598
vn 0.4886236350901848 -0.8470838426867164 0.20903565889665837
vn 0.7417301898996421 -0.5140043335859287 0.43085481365110245
vn 0.8144129615297055 -0.21060756109044 0.5407180256880206
vn 0.8544439999730217 -0.05503986602119382 0.5166198448167396
vn 0.9227139661140107 0.08424261693865454 0.3761676730255798
vn 0.7944167920081223 -0.09303905149091672 0.6002047113053965
vn 0.8144129615297055 -0.21060756109044 0.5407180256880206
vn 0.9227139661140107 0.08424261693865454 0.3761676730255798
vn -0.1586952360939218 -0.9530509426206113 -0.25789479019758926
vn 0.19752285761467817 -0.9493913235650215 -0.24421473227303092
vn 0.0905119252749359 -0.9784942242992979 0.18535545418449317
vn 0.04325454543253973 -0.9618118096576772 0.27027224626744123
vn -0.23331539703351573 -0.9613527808256104 -0.14616687827944796
vn 0.0905119252749359 -0.9784942242992979 0.18535545418449317
vn 0.04325454543253973 -0.9618118096576772 0.27027224626744123
vn 0.0905119252749359 -0.9784942242992979 0.18535545418449317
vn 0.34041791270228705 -0.7641416589649543 0.54790799386914
vn 0.3790585753652942 -0.7049150614664961 0.5995075917448581
vn 0.04325454543253973 -0.9618118096576772 0.27027224626744123
vn 0.34041791270228705 -0.7641416589649543 0.54790799386914
vn 0.0905119252749359 -0.9784942242992979 0.18535545418449317
vn -0.4308237451465911 -0.8886209167480915 -0.1573015159991999
vn -0.1586952360939218 -0.9530509426206113 -0.25789479019758926
vn -0.4251994360787941 -0.8482679465672914 -0.3156690203120765
vn -0.06143785115975129 -0.8709431671065627 -0.48752783522098736
vn -0.1586952360939218 -0.9530509426206113 -0.25789479019758926
vn -0.6337627630563911 -0.7696931790657625 0.07692314516950588
vn -0.4251994360787941 -0.8482679465672914 -0.3156690203120765
vn -0.1586952360939218 -0.9530509426206113 -0.25789479019758926
vn -0.6651441902830969 -0.7455930543823028 -0.04091703055589101
vn -0.6337627630563911 -0.7696931790657625 0.07692314516950588
vn -0.1586952360939218 -0.9530509426206113 -0.25789479019758926
vn -0.06143785115975129 -0.8709431671065627 -0.48752783522098736
vn 0.05703271053185964 -0.9010265872142734 -0.42999809192877636
vn 0.19752285761467817 -0.9493913235650215 -0.24421473227303092
vn -0.1586952360939218 -0.9530509426206113 -0.25789479019758926
vn -0.06143785115975129 -0.8709431671065627 -0.48752783522098736
vn 0.19752285761467817 -0.9493913235650215 -0.24421473227303092
vn 0.05703271053185964 -0.9010265872142734 -0.42999809192877636
vn 0.5518899643270663 -0.8083031299516831 -0.20509392332631998
vn 0.19752285761467817 -0.9493913235650215 -0.24421473227303092
vn -0.6337627630563911 -0.7696931790657625 0.07692314516950588
vn -0.6651441902830969 -0.7455930543823028 -0.04091703055589101
vn -0.6819383253003051 -0.6860827553094974 -0.2534769680928505
vn -0.8517109228713733 -0.42356339492431827 0.30851670026398814
vn -0.6337627630563911 -0.7696931790657625 0.07692314516950588
vn -0.6819383253003051 -0.6860827553094974 -0.2534769680928505
vn -0.6819383253003051 -0.6860827553094974 -0.2534769680928505
vn -0.6651441902830969 -0.7455930543823028 -0.04091703055589101
vn -0.4308237451465911 -0.8886209167480915 -0.1573015159991999
vn 0.0905119252749359 -0.9784942242992979 0.18535545418449317
vn -0.23331539703351573 -0.9613527808256104 -0.14616687827944796
vn -0.4308237451465911 -0.8886209167480915 -0.1573015159991999
vn -0.1586952360939218 -0.9530509426206113 -0.25789479019758926
vn -0.4308237451465911 -0.8886209167480915 -0.1573015159991999
vn -0.6651441902830969 -0.7455930543823028 -0.04091703055589101
vn -0.6819383253003051 -0.6860827553094974 -0.2534769680928505
vn -0.4308237451465911 -0.8886209167480915 -0.1573015159991999
vn -0.23331539703351573 -0.9613527808256104 -0.14616687827944796
f 1/1/1 2/2/2 3/3/3
f 4/4/4 5/5/5 6/6/6
f 7/7/7 8/8/8 9/9/9
f 10/10/10 11/11/11 12/12/12
f 13/13/13 14/14/14 15/15/15
f 16/16/16 17/17/17 18/18/18
f 19/19/19 20/20/20 21/21/21
f 22/22/22 23/23/23 24/24/24
f 25/25/25 26/26/26 27/27/27
f 28/28/28 29/29/29 30/30/30
f 31/31/31 32/32/32 33/33/33
f 34/34/34 35/35/35 36/36/36
f 37/37/37 38/38/38 39/39/39
f 40/40/40 41/41/41 42/42/42
f 43/43/43 44/44/44 45/45/45
f 46/46/46 47/47/47 48/48/48
f 49/49/49 50/50/50 51/51/51
f 52/52/52 53/53/53 54/54/54
f 55/55/55 56/56/56 57/57/57
f 58/58/58 59/59/59 60/60/60
f 61/61/61 62/62/62 63/63/63
f 64/64/64 65/65/65 66/66/66
f 67/67/67 68/68/68 69/69/69
f 70/70/70 71/71/71 72/72/72
f 73/73/73 74/74/74 75/75/75
f 76/76/76 77/77/77 78/78/78
f 79/79/79 80/80/80 81/81/81
f 82/82/82 83/83/83 84/84/84
f 85/85/85 86/86/86 87/87/87
f 88/88/88 89/89/89 90/90/90
f 91/91/91 92/92/92 93/93/93
f 94/94/94 95/95/95 96/96/96
f 97/97/97 98/98/98 99/99/99
f 100/100/100 101/101/101 102/102/102
f 103/103/103 104/104/104 105/105/105
f 106/106/106 107/107/107 108/108/108
f 109/109/109 110/110/110 111/111/111
f 112/112/112 113/113/113 114/114/114
f 115/115/115 116/116/116 117/117/117
f 118/118/118 119/119/119 120/120/120
f 121/121/121 122/122/122 123/123/123
f 124/124/124 125/125/125 126/126/126
f 127/127/127 128/128/128 129/129/129
f 130/130/130 131/131/131 132/132/132
f 133/133/133 134/134/134 135/135/135
f 136/136/136 137/137/137 138/138/138
