mtllib ArcadaCompleta.mtl
o D64C_OLV
usemtl Esmalte
v 25.768600463867188 47.89326477050781 -2.998429267920063
v 25.74169921875 48.416465759277344 -3.551019161261127
v 26.577800750732422 48.30736541748047 -3.6805493526826356
v 26.604799270629883 47.86326217651367 -3.101459234274433
v 25.768600463867188 47.89326477050781 -2.998429267920063
v 26.577800750732422 48.30736541748047 -3.6805493526826356
v 26.08060073852539 47.742862701416016 -2.2612392597566107
v 25.768600463867188 47.89326477050781 -2.998429267920063
v 26.604799270629883 47.86326217651367 -3.101459234274433
v 26.936199188232422 47.71996307373047 -2.6806392364869573
v 26.08060073852539 47.742862701416016 -2.2612392597566107
v 26.604799270629883 47.86326217651367 -3.101459234274433
v 27.27829933166504 47.97426223754883 -3.4950391941438177
v 27.373600006103516 47.74186325073242 -3.0341992073426702
v 26.604799270629883 47.86326217651367 -3.101459234274433
v 26.577800750732422 48.30736541748047 -3.6805493526826356
v 27.27829933166504 47.97426223754883 -3.4950391941438177
v 26.604799270629883 47.86326217651367 -3.101459234274433
v 25.768600463867188 47.89326477050781 -2.998429267920063
v 25.0221004486084 47.836063385009766 -2.571219175375507
v 25.74169921875 48.416465759277344 -3.551019161261127
v 26.08060073852539 47.742862701416016 -2.2612392597566107
v 26.359800338745117 47.76866149902344 -1.9496493034730413
v 25.908100128173828 47.529762268066406 -1.9357292347321968
v 25.169700622558594 47.50816345214844 -1.9283692531953316
v 25.465599060058594 47.525062561035156 -2.2539193325410345
v 25.908100128173828 47.529762268066406 -1.9357292347321968
v 26.706199645996094 48.07406234741211 -0.9828332357774237
v 26.19969940185547 48.121864318847656 -0.7807812385926702
v 25.908100128173828 47.529762268066406 -1.9357292347321968
v 26.359800338745117 47.76866149902344 -1.9496493034730413
v 26.782100677490234 48.08146286010742 -1.3705992393861273
v 25.908100128173828 47.529762268066406 -1.9357292347321968
v 26.782100677490234 48.08146286010742 -1.3705992393861273
v 26.359800338745117 47.76866149902344 -1.9496493034730413
v 27.19529914855957 47.8239631652832 -2.2100591354737738
v 26.08060073852539 47.742862701416016 -2.2612392597566107
v 26.936199188232422 47.71996307373047 -2.6806392364869573
v 27.19529914855957 47.8239631652832 -2.2100591354737738
v 26.359800338745117 47.76866149902344 -1.9496493034730413
v 26.08060073852539 47.742862701416016 -2.2612392597566107
v 27.19529914855957 47.8239631652832 -2.2100591354737738
v 25.908100128173828 47.529762268066406 -1.9357292347321968
v 25.65130043029785 48.04606246948242 -1.1770492487321356
v 25.169700622558594 47.50816345214844 -1.9283692531953316
v 25.768600463867188 47.89326477050781 -2.998429267920063
v 26.08060073852539 47.742862701416016 -2.2612392597566107
v 25.465599060058594 47.525062561035156 -2.2539193325410345
v 25.0221004486084 47.836063385009766 -2.571219175375507
v 25.768600463867188 47.89326477050781 -2.998429267920063
v 25.465599060058594 47.525062561035156 -2.2539193325410345
v 25.908100128173828 47.529762268066406 -1.9357292347321968
v 25.465599060058594 47.525062561035156 -2.2539193325410345
v 26.08060073852539 47.742862701416016 -2.2612392597566107
v 25.908100128173828 47.529762268066406 -1.9357292347321968
v 26.19969940185547 48.121864318847656 -0.7807812385926702
v 25.65130043029785 48.04606246948242 -1.1770492487321356
v 25.908100128173828 47.529762268066406 -1.9357292347321968
v 26.782100677490234 48.08146286010742 -1.3705992393861273
v 26.706199645996094 48.07406234741211 -0.9828332357774237
v 27.373600006103516 47.74186325073242 -3.0341992073426702
v 27.5137996673584 47.765960693359375 -2.6036691360841253
v 26.936199188232422 47.71996307373047 -2.6806392364869573
v 26.604799270629883 47.86326217651367 -3.101459234274433
v 27.373600006103516 47.74186325073242 -3.0341992073426702
v 26.936199188232422 47.71996307373047 -2.6806392364869573
vt 0.4071919918060303 0.8614799976348877
vt 0.4032190144062042 0.9249420166015625
vt 0.526540994644165 0.9398180246353149
vt 0.5305209755897522 0.8733119964599609
vt 0.4071919918060303 0.8614799976348877
vt 0.526540994644165 0.9398180246353149
vt 0.4532090127468109 0.7768170237541199
vt 0.4071919918060303 0.8614799976348877
vt 0.5305209755897522 0.8733119964599609
vt 0.5794050097465515 0.8249830007553101
vt 0.4532090127468109 0.7768170237541199
vt 0.5305209755897522 0.8733119964599609
vt 0.6298649907112122 0.9185119867324829
vt 0.6439149975776672 0.8655880093574524
vt 0.5305209755897522 0.8733119964599609
vt 0.526540994644165 0.9398180246353149
vt 0.6298649907112122 0.9185119867324829
vt 0.5305209755897522 0.8733119964599609
vt 0.4071919918060303 0.8614799976348877
vt 0.29708001017570496 0.8124169707298279
vt 0.4032190144062042 0.9249420166015625
vt 0.4532090127468109 0.7768170237541199
vt 0.4943940043449402 0.7410330176353455
vt 0.4277679920196533 0.739434003829956
vt 0.3188610076904297 0.7385889887809753
vt 0.3625040054321289 0.7759770154953003
vt 0.4277679920196533 0.739434003829956
vt 0.5454869866371155 0.6299989819526672
vt 0.4707779884338379 0.606793999671936
vt 0.4277679920196533 0.739434003829956
vt 0.4943940043449402 0.7410330176353455
vt 0.5566750168800354 0.6745319962501526
vt 0.4277679920196533 0.739434003829956
vt 0.5566750168800354 0.6745319962501526
vt 0.4943940043449402 0.7410330176353455
vt 0.6176199913024902 0.7709400057792664
vt 0.4532090127468109 0.7768170237541199
vt 0.5794050097465515 0.8249830007553101
vt 0.6176199913024902 0.7709400057792664
vt 0.4943940043449402 0.7410330176353455
vt 0.4532090127468109 0.7768170237541199
vt 0.6176199913024902 0.7709400057792664
vt 0.4277679920196533 0.739434003829956
vt 0.3898859918117523 0.6523039937019348
vt 0.3188610076904297 0.7385889887809753
vt 0.4071919918060303 0.8614799976348877
vt 0.4532090127468109 0.7768170237541199
vt 0.3625040054321289 0.7759770154953003
vt 0.29708001017570496 0.8124169707298279
vt 0.4071919918060303 0.8614799976348877
vt 0.3625040054321289 0.7759770154953003
vt 0.4277679920196533 0.739434003829956
vt 0.3625040054321289 0.7759770154953003
vt 0.4532090127468109 0.7768170237541199
vt 0.4277679920196533 0.739434003829956
vt 0.4707779884338379 0.606793999671936
vt 0.3898859918117523 0.6523039937019348
vt 0.4277679920196533 0.739434003829956
vt 0.5566750168800354 0.6745319962501526
vt 0.5454869866371155 0.6299989819526672
vt 0.6439149975776672 0.8655880093574524
vt 0.6645960211753845 0.8161429762840271
vt 0.5794050097465515 0.8249830007553101
vt 0.5305209755897522 0.8733119964599609
vt 0.6439149975776672 0.8655880093574524
vt 0.5794050097465515 0.8249830007553101
vn -0.11043018666846718 -0.8538894533412805 -0.5086039474334587
vn -0.2548008834073968 -0.7083476116066139 -0.658270590977613
vn -0.1700452937066531 -0.7626778142003291 -0.6240249592883496
vn -0.1234132499209181 -0.9132664804918021 -0.388218373282453
vn -0.11043018666846718 -0.8538894533412805 -0.5086039474334587
vn -0.1700452937066531 -0.7626778142003291 -0.6240249592883496
vn 0.08919555837783996 -0.9838982157406682 -0.15488206296403426
vn -0.11043018666846718 -0.8538894533412805 -0.5086039474334587
vn -0.1234132499209181 -0.9132664804918021 -0.388218373282453
vn -0.0388934837007255 -0.9978275926307132 -0.05317322926452017
vn 0.08919555837783996 -0.9838982157406682 -0.15488206296403426
vn -0.1234132499209181 -0.9132664804918021 -0.388218373282453
vn -0.1682927481681573 -0.8352156987709357 -0.5235382387568142
vn -0.06948073243662048 -0.9657626953675799 -0.24994968304924428
vn -0.1234132499209181 -0.9132664804918021 -0.388218373282453
vn -0.1700452937066531 -0.7626778142003291 -0.6240249592883496
vn -0.1682927481681573 -0.8352156987709357 -0.5235382387568142
vn -0.1234132499209181 -0.9132664804918021 -0.388218373282453
vn -0.11043018666846718 -0.8538894533412805 -0.5086039474334587
vn -0.27545198420535427 -0.7638944282706116 -0.5836021820165245
vn -0.2548008834073968 -0.7083476116066139 -0.658270590977613
vn 0.08919555837783996 -0.9838982157406682 -0.15488206296403426
vn 0.2527896479432142 -0.9536172806314449 0.16343645852083927
vn 0.14380269677413063 -0.9443574176547584 0.2958206418100729
vn 0.030675212551802673 -0.9018209761958241 0.4310196726694878
vn 0.08507366322988325 -0.92753772232802 -0.3639179103633087
vn 0.14380269677413063 -0.9443574176547584 0.2958206418100729
vn 0.25232140084558213 -0.9160004082602365 0.311892870618107
vn -0.06272673119578394 -0.8816031724792363 0.46780466379466334
vn 0.14380269677413063 -0.9443574176547584 0.2958206418100729
vn 0.2527896479432142 -0.9536172806314449 0.16343645852083927
vn 0.3469701657636742 -0.9093457330079622 0.229569253015599
vn 0.14380269677413063 -0.9443574176547584 0.2958206418100729
vn 0.3469701657636742 -0.9093457330079622 0.229569253015599
vn 0.2527896479432142 -0.9536172806314449 0.16343645852083927
vn 0.11448280799809098 -0.9669204000236307 0.2279443499870404
vn 0.08919555837783996 -0.9838982157406682 -0.15488206296403426
vn -0.0388934837007255 -0.9978275926307132 -0.05317322926452017
vn 0.11448280799809098 -0.9669204000236307 0.2279443499870404
vn 0.2527896479432142 -0.9536172806314449 0.16343645852083927
vn 0.08919555837783996 -0.9838982157406682 -0.15488206296403426
vn 0.11448280799809098 -0.9669204000236307 0.2279443499870404
vn 0.14380269677413063 -0.9443574176547584 0.2958206418100729
vn -0.09880642403981445 -0.8379174310685211 0.5367789761903815
vn 0.030675212551802673 -0.9018209761958241 0.4310196726694878
vn -0.11043018666846718 -0.8538894533412805 -0.5086039474334587
vn 0.08919555837783996 -0.9838982157406682 -0.15488206296403426
vn 0.08507366322988325 -0.92753772232802 -0.3639179103633087
vn -0.27545198420535427 -0.7638944282706116 -0.5836021820165245
vn -0.11043018666846718 -0.8538894533412805 -0.5086039474334587
vn 0.08507366322988325 -0.92753772232802 -0.3639179103633087
vn 0.14380269677413063 -0.9443574176547584 0.2958206418100729
vn 0.08507366322988325 -0.92753772232802 -0.3639179103633087
vn 0.08919555837783996 -0.9838982157406682 -0.15488206296403426
vn 0.14380269677413063 -0.9443574176547584 0.2958206418100729
vn -0.06272673119578394 -0.8816031724792363 0.46780466379466334
vn -0.09880642403981445 -0.8379174310685211 0.5367789761903815
vn 0.14380269677413063 -0.9443574176547584 0.2958206418100729
vn 0.3469701657636742 -0.9093457330079622 0.229569253015599
vn 0.25232140084558213 -0.9160004082602365 0.311892870618107
vn -0.06948073243662048 -0.9657626953675799 -0.24994968304924428
vn 0.07520050190343341 -0.9966771714756066 0.031296970665797674
vn -0.0388934837007255 -0.9978275926307132 -0.05317322926452017
vn -0.1234132499209181 -0.9132664804918021 -0.388218373282453
vn -0.06948073243662048 -0.9657626953675799 -0.24994968304924428
vn -0.0388934837007255 -0.9978275926307132 -0.05317322926452017
f 1/1/1 2/2/2 3/3/3
f 4/4/4 5/5/5 6/6/6
f 7/7/7 8/8/8 9/9/9
f 10/10/10 11/11/11 12/12/12
f 13/13/13 14/14/14 15/15/15
f 16/16/16 17/17/17 18/18/18
f 19/19/19 20/20/20 21/21/21
f 22/22/22 23/23/23 24/24/24
f 25/25/25 26/26/26 27/27/27
f 28/28/28 29/29/29 30/30/30
f 31/31/31 32/32/32 33/33/33
f 34/34/34 35/35/35 36/36/36
f 37/37/37 38/38/38 39/39/39
f 40/40/40 41/41/41 42/42/42
f 43/43/43 44/44/44 45/45/45
f 46/46/46 47/47/47 48/48/48
f 49/49/49 50/50/50 51/51/51
f 52/52/52 53/53/53 54/54/54
f 55/55/55 56/56/56 57/57/57
f 58/58/58 59/59/59 60/60/60
f 61/61/61 62/62/62 63/63/63
f 64/64/64 65/65/65 66/66/66
