mtllib ArcadaCompleta.mtl
o D64C_OCV
usemtl Esmalte
v 25.546600341796875 48.917564392089844 3.9149806804289367
v 25.64240074157715 48.06976318359375 3.447900802575543
v 26.6835994720459 48.278663635253906 3.3746707744230773
v 26.535200119018555 49.036563873291016 3.856350690804913
v 25.546600341796875 48.917564392089844 3.9149806804289367
v 26.6835994720459 48.278663635253906 3.3746707744230773
v 27.1653995513916 47.838863372802734 2.307750732385113
v 27.390499114990234 48.11566162109375 3.110690862618878
v 26.6835994720459 48.278663635253906 3.3746707744230773
v 26.66230010986328 47.941261291503906 2.7712407416929743
v 27.1653995513916 47.838863372802734 2.307750732385113
v 26.6835994720459 48.278663635253906 3.3746707744230773
v 27.094999313354492 47.90706253051758 1.7480907744993708
v 27.1653995513916 47.838863372802734 2.307750732385113
v 26.66230010986328 47.941261291503906 2.7712407416929743
v 26.40180015563965 48.69236373901367 1.0528307265867733
v 27.094999313354492 47.90706253051758 1.7480907744993708
v 26.66230010986328 47.941261291503906 2.7712407416929743
v 25.64240074157715 48.06976318359375 3.447900802575543
v 25.67449951171875 47.64656066894531 2.9576707191099665
v 26.66230010986328 47.941261291503906 2.7712407416929743
v 26.6835994720459 48.278663635253906 3.3746707744230773
v 25.64240074157715 48.06976318359375 3.447900802575543
v 26.66230010986328 47.941261291503906 2.7712407416929743
v 27.390499114990234 48.11566162109375 3.110690862618878
v 27.393400192260742 48.957862854003906 3.730230838738873
v 26.535200119018555 49.036563873291016 3.856350690804913
v 26.6835994720459 48.278663635253906 3.3746707744230773
v 27.390499114990234 48.11566162109375 3.110690862618878
v 26.535200119018555 49.036563873291016 3.856350690804913
v 25.444499969482422 47.77526092529297 1.992060691796734
v 25.65239906311035 47.943763732910156 1.7432407445539972
v 25.67449951171875 47.64656066894531 2.9576707191099665
v 27.094999313354492 47.90706253051758 1.7480907744993708
v 27.115999221801758 48.32466125488281 1.5082507438292048
v 27.256399154663086 48.11516571044922 1.6082307405104181
v 26.40180015563965 48.69236373901367 1.0528307265867733
v 27.115999221801758 48.32466125488281 1.5082507438292048
v 27.094999313354492 47.90706253051758 1.7480907744993708
v 26.66230010986328 47.941261291503906 2.7712407416929743
v 25.67449951171875 47.64656066894531 2.9576707191099665
v 25.65239906311035 47.943763732910156 1.7432407445539972
v 26.40180015563965 48.69236373901367 1.0528307265867733
v 26.66230010986328 47.941261291503906 2.7712407416929743
v 25.65239906311035 47.943763732910156 1.7432407445539972
v 26.216299057006836 48.24626159667969 1.0909006900419733
v 26.40180015563965 48.69236373901367 1.0528307265867733
v 25.65239906311035 47.943763732910156 1.7432407445539972
vt 0.6255589723587036 0.2818019986152649
vt 0.6114190220832825 0.11664199829101562
vt 0.4578549861907959 0.15733301639556885
vt 0.5202540159225464 0.07424372434616089
vt 0.374440997838974 0.06751120090484619
vt 0.5421450138092041 0.12956297397613525
vt 0.6132130026817322 0.25209295749664307
vt 0.6464149951934814 0.15987998247146606
vt 0.5421450138092041 0.12956297397613525
vt 0.5390030145645142 0.19886398315429688
vt 0.6132130026817322 0.25209295749664307
vt 0.5421450138092041 0.12956297397613525
vt 0.6028220057487488 0.3163670301437378
vt 0.6132130026817322 0.25209295749664307
vt 0.5390030145645142 0.19886398315429688
vt 0.5005789995193481 0.39621400833129883
vt 0.6028220057487488 0.3163670301437378
vt 0.5390030145645142 0.19886398315429688
vt 0.3885810077190399 0.12115198373794556
vt 0.393312007188797 0.17745298147201538
vt 0.5390030145645142 0.19886398315429688
vt 0.5421450138092041 0.12956297397613525
vt 0.3885810077190399 0.12115198373794556
vt 0.5390030145645142 0.19886398315429688
vt 0.6464149951934814 0.15987998247146606
vt 0.6468440294265747 0.08872878551483154
vt 0.5202540159225464 0.07424372434616089
vt 0.4578549861907959 0.15733301639556885
vt 0.35358500480651855 0.12558400630950928
vt 0.479746013879776 0.30497896671295166
vt 0.3593890070915222 0.2883479595184326
vt 0.39005500078201294 0.31692397594451904
vt 0.393312007188797 0.17745298147201538
vt 0.6028220057487488 0.08495438098907471
vt 0.6059290170669556 0.1662989854812622
vt 0.6266360282897949 0.12548696994781494
vt 0.5005789995193481 0.39621400833129883
vt 0.6059290170669556 0.34391099214553833
vt 0.6028220057487488 0.3163670301437378
vt 0.5390030145645142 0.19886398315429688
vt 0.393312007188797 0.17745298147201538
vt 0.39005500078201294 0.31692397594451904
vt 0.5005789995193481 0.39621400833129883
vt 0.5390030145645142 0.19886398315429688
vt 0.39005500078201294 0.31692397594451904
vt 0.6081579923629761 0.1510239839553833
vt 0.6037859916687012 0.2379319667816162
vt 0.683076024055481 0.09210628271102905
vn 0.13494762751485986 -0.48875832460626845 0.8619190437368142
vn 0.2252164920110613 -0.6697634428819291 0.7075976697991427
vn 0.13891063194479264 -0.6862445258228588 0.7139833941422294
vn 0.11681485202139708 -0.54122689015278 0.832723089461779
vn 0.13494762751485986 -0.48875832460626845 0.8619190437368142
vn 0.13891063194479264 -0.6862445258228588 0.7139833941422294
vn -0.03976322268738931 -0.9569039178146499 0.2876695642442676
vn 0.05845402023668995 -0.7043199349435475 0.7074719476836419
vn 0.13891063194479264 -0.6862445258228588 0.7139833941422294
vn 0.11383161504212928 -0.9900157830833484 -0.08313310208794808
vn -0.03976322268738931 -0.9569039178146499 0.2876695642442676
vn 0.13891063194479264 -0.6862445258228588 0.7139833941422294
vn -0.43611426190722813 -0.8168617121546762 -0.37754641274530043
vn -0.03976322268738931 -0.9569039178146499 0.2876695642442676
vn 0.11383161504212928 -0.9900157830833484 -0.08313310208794808
vn 0.10668076122438037 -0.9136047571926794 -0.39235897188606794
vn -0.43611426190722813 -0.8168617121546762 -0.37754641274530043
vn 0.11383161504212928 -0.9900157830833484 -0.08313310208794808
vn 0.2252164920110613 -0.6697634428819291 0.7075976697991427
vn 0.3204197200487829 -0.9467938881128265 0.030208218021858715
vn 0.11383161504212928 -0.9900157830833484 -0.08313310208794808
vn 0.13891063194479264 -0.6862445258228588 0.7139833941422294
vn 0.2252164920110613 -0.6697634428819291 0.7075976697991427
vn 0.11383161504212928 -0.9900157830833484 -0.08313310208794808
vn 0.05845402023668995 -0.7043199349435475 0.7074719476836419
vn 0.06387891449313646 -0.591493352307113 0.8037755274077908
vn 0.11681485202139708 -0.54122689015278 0.832723089461779
vn 0.13891063194479264 -0.6862445258228588 0.7139833941422294
vn 0.05845402023668995 -0.7043199349435475 0.7074719476836419
vn 0.11681485202139708 -0.54122689015278 0.832723089461779
vn 0.44073129414489404 -0.8700242191269099 -0.22093841787696758
vn 0.4233920439238495 -0.8661990485669199 -0.2654023085878267
vn 0.3204197200487829 -0.9467938881128265 0.030208218021858715
vn -0.43611426190722813 -0.8168617121546762 -0.37754641274530043
vn 0.2134748563335939 -0.49460511804248225 -0.8424928859756227
vn -0.11640210550755067 -0.49024165102290557 -0.863778717864561
vn 0.10668076122438037 -0.9136047571926794 -0.39235897188606794
vn 0.2134748563335939 -0.49460511804248225 -0.8424928859756227
vn -0.43611426190722813 -0.8168617121546762 -0.37754641274530043
vn 0.11383161504212928 -0.9900157830833484 -0.08313310208794808
vn 0.3204197200487829 -0.9467938881128265 0.030208218021858715
vn 0.4233920439238495 -0.8661990485669199 -0.2654023085878267
vn 0.10668076122438037 -0.9136047571926794 -0.39235897188606794
vn 0.11383161504212928 -0.9900157830833484 -0.08313310208794808
vn 0.4233920439238495 -0.8661990485669199 -0.2654023085878267
vn 0.7866875919724217 -0.28017956143567524 0.5501109397115688
vn 0.10668076122438037 -0.9136047571926794 -0.39235897188606794
vn 0.4233920439238495 -0.8661990485669199 -0.2654023085878267
f 1/1/1 2/2/2 3/3/3
f 4/4/4 5/5/5 6/6/6
f 7/7/7 8/8/8 9/9/9
f 10/10/10 11/11/11 12/12/12
f 13/13/13 14/14/14 15/15/15
f 16/16/16 17/17/17 18/18/18
f 19/19/19 20/20/20 21/21/21
f 22/22/22 23/23/23 24/24/24
f 25/25/25 26/26/26 27/27/27
f 28/28/28 29/29/29 30/30/30
f 31/31/31 32/32/32 33/33/33
f 34/34/34 35/35/35 36/36/36
f 37/37/37 38/38/38 39/39/39
f 40/40/40 41/41/41 42/42/42
f 43/43/43 44/44/44 45/45/45
f 46/46/46 47/47/47 48/48/48
