mtllib ArcadaCompleta.mtl
o D64C_CMV
usemtl Esmalte
v 24.582799911499023 48.895965576171875 3.649290830575421
v 23.763399124145508 48.905860900878906 3.1495406932463195
v 23.866500854492188 48.19816207885742 2.700940639459088
v 24.5492000579834 47.742862701416016 2.9482007331480524
v 24.582799911499023 48.895965576171875 3.649290830575421
v 23.866500854492188 48.19816207885742 2.700940639459088
v 23.75950050354004 48.06186294555664 1.6950106925596735
v 23.92639923095703 47.92926025390625 1.9729007787336847
v 23.866500854492188 48.19816207885742 2.700940639459088
v 23.592300415039062 48.19446563720703 1.4174506969084284
v 23.75950050354004 48.06186294555664 1.6950106925596735
v 23.866500854492188 48.19816207885742 2.700940639459088
v 23.27750015258789 48.437862396240234 1.6260807818998835
v 23.592300415039062 48.19446563720703 1.4174506969084284
v 23.866500854492188 48.19816207885742 2.700940639459088
v 24.761999130249023 51.2713623046875 4.250770837747052
v 24.906099319458008 52.45366287231445 3.638600856744245
v 24.348400115966797 52.36076354980469 3.331480771981672
v 24.186100006103516 51.27216339111328 3.40662077137132
v 24.761999130249023 51.2713623046875 4.250770837747052
v 24.348400115966797 52.36076354980469 3.331480771981672
v 24.582799911499023 48.895965576171875 3.649290830575421
v 24.738300323486328 50.216461181640625 4.005680829965069
v 24.032800674438477 50.217262268066406 3.4676506824125797
v 23.763399124145508 48.905860900878906 3.1495406932463195
v 24.582799911499023 48.895965576171875 3.649290830575421
v 24.032800674438477 50.217262268066406 3.4676506824125797
v 23.377899169921875 50.23186111450195 1.766480714761212
v 23.131399154663086 49.09336471557617 1.753460795365765
v 23.763399124145508 48.905860900878906 3.1495406932463195
v 24.032800674438477 50.217262268066406 3.4676506824125797
v 23.377899169921875 50.23186111450195 1.766480714761212
v 23.763399124145508 48.905860900878906 3.1495406932463195
v 24.582799911499023 48.895965576171875 3.649290830575421
v 24.5492000579834 47.742862701416016 2.9482007331480524
v 25.64240074157715 48.06976318359375 3.447900802575543
v 25.546600341796875 48.917564392089844 3.9149806804289367
v 24.582799911499023 48.895965576171875 3.649290830575421
v 25.64240074157715 48.06976318359375 3.447900802575543
v 24.582799911499023 48.895965576171875 3.649290830575421
v 25.546600341796875 48.917564392089844 3.9149806804289367
v 25.561100006103516 50.215763092041016 4.250980646096661
v 24.738300323486328 50.216461181640625 4.005680829965069
v 24.582799911499023 48.895965576171875 3.649290830575421
v 25.561100006103516 50.215763092041016 4.250980646096661
v 24.845600128173828 47.439064025878906 2.5949406928648493
v 25.444499969482422 47.77526092529297 1.992060691796734
v 25.67449951171875 47.64656066894531 2.9576707191099665
v 24.04129981994629 52.281761169433594 2.081410676919416
v 23.632600784301758 51.26836395263672 1.640620738946393
v 24.186100006103516 51.27216339111328 3.40662077137132
v 24.348400115966797 52.36076354980469 3.331480771981672
v 24.04129981994629 52.281761169433594 2.081410676919416
v 24.186100006103516 51.27216339111328 3.40662077137132
v 24.738300323486328 50.216461181640625 4.005680829965069
v 24.761999130249023 51.2713623046875 4.250770837747052
v 24.186100006103516 51.27216339111328 3.40662077137132
v 24.032800674438477 50.217262268066406 3.4676506824125797
v 24.738300323486328 50.216461181640625 4.005680829965069
v 24.186100006103516 51.27216339111328 3.40662077137132
v 23.763399124145508 48.905860900878906 3.1495406932463195
v 23.131399154663086 49.09336471557617 1.753460795365765
v 23.27750015258789 48.437862396240234 1.6260807818998835
v 23.866500854492188 48.19816207885742 2.700940639459088
v 23.763399124145508 48.905860900878906 3.1495406932463195
v 23.27750015258789 48.437862396240234 1.6260807818998835
v 24.186100006103516 51.27216339111328 3.40662077137132
v 23.632600784301758 51.26836395263672 1.640620738946393
v 23.377899169921875 50.23186111450195 1.766480714761212
v 24.032800674438477 50.217262268066406 3.4676506824125797
v 24.186100006103516 51.27216339111328 3.40662077137132
v 23.377899169921875 50.23186111450195 1.766480714761212
v 25.64240074157715 48.06976318359375 3.447900802575543
v 24.5492000579834 47.742862701416016 2.9482007331480524
v 24.845600128173828 47.439064025878906 2.5949406928648493
v 25.67449951171875 47.64656066894531 2.9576707191099665
v 25.64240074157715 48.06976318359375 3.447900802575543
v 24.845600128173828 47.439064025878906 2.5949406928648493
v 23.92639923095703 47.92926025390625 1.9729007787336847
v 24.153900146484375 47.82466125488281 1.5763107843031428
v 24.845600128173828 47.439064025878906 2.5949406928648493
v 24.978300094604492 47.72376251220703 1.3892407722105524
v 25.344600677490234 47.74976348876953 1.7892906970610163
v 24.845600128173828 47.439064025878906 2.5949406928648493
v 23.92639923095703 47.92926025390625 1.9729007787336847
v 24.845600128173828 47.439064025878906 2.5949406928648493
v 24.5492000579834 47.742862701416016 2.9482007331480524
v 23.866500854492188 48.19816207885742 2.700940639459088
v 23.92639923095703 47.92926025390625 1.9729007787336847
v 24.5492000579834 47.742862701416016 2.9482007331480524
v 25.644800186157227 51.27066421508789 4.4984705752958805
v 24.761999130249023 51.2713623046875 4.250770837747052
v 24.738300323486328 50.216461181640625 4.005680829965069
v 25.561100006103516 50.215763092041016 4.250980646096661
v 25.644800186157227 51.27066421508789 4.4984705752958805
v 24.738300323486328 50.216461181640625 4.005680829965069
v 24.845600128173828 47.439064025878906 2.5949406928648493
v 24.153900146484375 47.82466125488281 1.5763107843031428
v 24.978300094604492 47.72376251220703 1.3892407722105524
v 24.243000030517578 48.17796325683594 1.1252007789244196
v 25.187299728393555 48.140262603759766 0.6895747489561579
v 24.978300094604492 47.72376251220703 1.3892407722105524
v 24.153900146484375 47.82466125488281 1.5763107843031428
v 24.243000030517578 48.17796325683594 1.1252007789244196
v 24.978300094604492 47.72376251220703 1.3892407722105524
v 23.75950050354004 48.06186294555664 1.6950106925596735
v 23.905399322509766 48.151161193847656 1.4952307052244684
v 24.153900146484375 47.82466125488281 1.5763107843031428
v 23.92639923095703 47.92926025390625 1.9729007787336847
v 23.75950050354004 48.06186294555664 1.6950106925596735
v 24.153900146484375 47.82466125488281 1.5763107843031428
v 25.678300857543945 47.99866485595703 1.0767706937422297
v 25.65239906311035 47.943763732910156 1.7432407445539972
v 25.444499969482422 47.77526092529297 1.992060691796734
v 25.344600677490234 47.74976348876953 1.7892906970610163
v 25.678300857543945 47.99866485595703 1.0767706937422297
v 25.444499969482422 47.77526092529297 1.992060691796734
v 23.592300415039062 48.19446563720703 1.4174506969084284
v 23.905399322509766 48.151161193847656 1.4952307052244684
v 23.75950050354004 48.06186294555664 1.6950106925596735
v 24.243000030517578 48.17796325683594 1.1252007789244196
v 24.153900146484375 47.82466125488281 1.5763107843031428
v 23.905399322509766 48.151161193847656 1.4952307052244684
v 24.006000518798828 48.333961486816406 1.2364007539381525
v 24.243000030517578 48.17796325683594 1.1252007789244196
v 23.905399322509766 48.151161193847656 1.4952307052244684
v 25.444499969482422 47.77526092529297 1.992060691796734
v 24.845600128173828 47.439064025878906 2.5949406928648493
v 25.344600677490234 47.74976348876953 1.7892906970610163
v 25.187299728393555 48.140262603759766 0.6895747489561579
v 25.678300857543945 47.99866485595703 1.0767706937422297
v 25.344600677490234 47.74976348876953 1.7892906970610163
v 24.978300094604492 47.72376251220703 1.3892407722105524
v 25.187299728393555 48.140262603759766 0.6895747489561579
v 25.344600677490234 47.74976348876953 1.7892906970610163
v 23.905399322509766 48.151161193847656 1.4952307052244684
v 23.592300415039062 48.19446563720703 1.4174506969084284
v 24.006000518798828 48.333961486816406 1.2364007539381525
vt 0 0
vt 0 0
vt 0 0
vt 0 0
vt 0 0
vt 0 0
vt 0 0
vt 0 0
vt 0 0
vt 0 0
vt 0 0
vt 0 0
vt 0 0
vt 0 0
vt 0 0
vt 0 0
vt 0 0
vt 0 0
vt 0 0
vt 0 0
vt 0 0
vt 0 0
vt 0 0
vt 0 0
vt 0 0
vt 0 0
vt 0 0
vt 0 0
vt 0 0
vt 0 0
vt 0 0
vt 0 0
vt 0 0
vt 0 0
vt 0 0
vt 0 0
vt 0 0
vt 0 0
vt 0 0
vt 0 0
vt 0 0
vt 0 0
vt 0 0
vt 0 0
vt 0 0
vt 0 0
vt 0 0
vt 0 0
vt 0 0
vt 0 0
vt 0 0
vt 0 0
vt 0 0
vt 0 0
vt 0 0
vt 0 0
vt 0 0
vt 0 0
vt 0 0
vt 0 0
vt 0 0
vt 0 0
vt 0 0
vt 0 0
vt 0 0
vt 0 0
vt 0 0
vt 0 0
vt 0 0
vt 0 0
vt 0 0
vt 0 0
vt 0 0
vt 0 0
vt 0 0
vt 0 0
vt 0 0
vt 0 0
vt 0 0
vt 0 0
vt 0 0
vt 0 0
vt 0 0
vt 0 0
vt 0 0
vt 0 0
vt 0 0
vt 0 0
vt 0 0
vt 0 0
vt 0 0
vt 0 0
vt 0 0
vt 0 0
vt 0 0
vt 0 0
vt 0 0
vt 0 0
vt 0 0
vt 0 0
vt 0 0
vt 0 0
vt 0 0
vt 0 0
vt 0 0
vt 0 0
vt 0 0
vt 0 0
vt 0 0
vt 0 0
vt 0 0
vt 0 0
vt 0 0
vt 0 0
vt 0 0
vt 0 0
vt 0 0
vt 0 0
vt 0 0
vt 0 0
vt 0 0
vt 0 0
vt 0 0
vt 0 0
vt 0 0
vt 0 0
vt 0 0
vt 0 0
vt 0 0
vt 0 0
vt 0 0
vt 0 0
vt 0 0
vt 0 0
vt 0 0
vt 0 0
vt 0 0
vt 0 0
vn -0.3918702588897009 -0.32881536966622027 0.8592544168457824
vn -0.850665592502846 -0.07913883436770244 0.5197163597835873
vn -0.6626843270078439 -0.5779732514623384 0.47623145983042053
vn -0.40704326507500305 -0.6463216334518073 0.6454332858547569
vn -0.3918702588897009 -0.32881536966622027 0.8592544168457824
vn -0.6626843270078439 -0.5779732514623384 0.47623145983042053
vn -0.6651732778809978 -0.7443561990213249 -0.0589776175474635
vn -0.5731534926508378 -0.8082966164207641 0.1347280733362207
vn -0.6626843270078439 -0.5779732514623384 0.47623145983042053
vn -0.5339347451917538 -0.845466630901127 0.009993193169086837
vn -0.6651732778809978 -0.7443561990213249 -0.0589776175474635
vn -0.6626843270078439 -0.5779732514623384 0.47623145983042053
vn -0.833463500164631 -0.4408612304998408 0.33313656259181207
vn -0.5339347451917538 -0.845466630901127 0.009993193169086837
vn -0.6626843270078439 -0.5779732514623384 0.47623145983042053
vn -0.6618268736701316 0.062251136147794275 0.7470675908753694
vn -0.48742208003897325 0.44759586806322854 0.7497183836502916
vn -0.835370912383305 0.2445031445871211 0.4923145854338403
vn -0.8988115758652293 0.1677230591158082 0.40497743953397963
vn -0.6618268736701316 0.062251136147794275 0.7470675908753694
vn -0.835370912383305 0.2445031445871211 0.4923145854338403
vn -0.3918702588897009 -0.32881536966622027 0.8592544168457824
vn -0.49904293962393503 -0.13447848956740346 0.856079248817054
vn -0.809561910973521 0.051898669626387034 0.5847358723320402
vn -0.850665592502846 -0.07913883436770244 0.5197163597835873
vn -0.3918702588897009 -0.32881536966622027 0.8592544168457824
vn -0.809561910973521 0.051898669626387034 0.5847358723320402
vn -0.918067296009105 0.1732261588846016 0.35657416882973636
vn -0.9099089144114009 0.01849099427058592 0.4143957656703926
vn -0.850665592502846 -0.07913883436770244 0.5197163597835873
vn -0.809561910973521 0.051898669626387034 0.5847358723320402
vn -0.918067296009105 0.1732261588846016 0.35657416882973636
vn -0.850665592502846 -0.07913883436770244 0.5197163597835873
vn -0.3918702588897009 -0.32881536966622027 0.8592544168457824
vn -0.40704326507500305 -0.6463216334518073 0.6454332858547569
vn -0.1782005969840159 -0.5967148453718334 0.7824167307435401
vn -0.24187668442944912 -0.34810199304534595 0.905715557980139
vn -0.3918702588897009 -0.32881536966622027 0.8592544168457824
vn -0.1782005969840159 -0.5967148453718334 0.7824167307435401
vn -0.3918702588897009 -0.32881536966622027 0.8592544168457824
vn -0.24187668442944912 -0.34810199304534595 0.905715557980139
vn -0.2692105427980389 -0.22167433435121803 0.9372225846277551
vn -0.49904293962393503 -0.13447848956740346 0.856079248817054
vn -0.3918702588897009 -0.32881536966622027 0.8592544168457824
vn -0.2692105427980389 -0.22167433435121803 0.9372225846277551
vn -0.09363314925345426 -0.991726701929327 0.0878121975653738
vn 0.3870865311603819 -0.9093470950990512 -0.15248566499556473
vn 0.16697248525210398 -0.9705518314804998 0.17363562877066285
vn -0.9416700417339033 0.2100637365011574 0.2629272886332661
vn -0.9230038016037588 0.2543481582249764 0.2887403619734714
vn -0.8988115758652293 0.1677230591158082 0.40497743953397963
vn -0.835370912383305 0.2445031445871211 0.4923145854338403
vn -0.9416700417339033 0.2100637365011574 0.2629272886332661
vn -0.8988115758652293 0.1677230591158082 0.40497743953397963
vn -0.49904293962393503 -0.13447848956740346 0.856079248817054
vn -0.6618268736701316 0.062251136147794275 0.7470675908753694
vn -0.8988115758652293 0.1677230591158082 0.40497743953397963
vn -0.809561910973521 0.051898669626387034 0.5847358723320402
vn -0.49904293962393503 -0.13447848956740346 0.856079248817054
vn -0.8988115758652293 0.1677230591158082 0.40497743953397963
vn -0.850665592502846 -0.07913883436770244 0.5197163597835873
vn -0.9099089144114009 0.01849099427058592 0.4143957656703926
vn -0.833463500164631 -0.4408612304998408 0.33313656259181207
vn -0.6626843270078439 -0.5779732514623384 0.47623145983042053
vn -0.850665592502846 -0.07913883436770244 0.5197163597835873
vn -0.833463500164631 -0.4408612304998408 0.33313656259181207
vn -0.8988115758652293 0.1677230591158082 0.40497743953397963
vn -0.9230038016037588 0.2543481582249764 0.2887403619734714
vn -0.918067296009105 0.1732261588846016 0.35657416882973636
vn -0.809561910973521 0.051898669626387034 0.5847358723320402
vn -0.8988115758652293 0.1677230591158082 0.40497743953397963
vn -0.918067296009105 0.1732261588846016 0.35657416882973636
vn -0.1782005969840159 -0.5967148453718334 0.7824167307435401
vn -0.40704326507500305 -0.6463216334518073 0.6454332858547569
vn -0.09363314925345426 -0.991726701929327 0.0878121975653738
vn 0.16697248525210398 -0.9705518314804998 0.17363562877066285
vn -0.1782005969840159 -0.5967148453718334 0.7824167307435401
vn -0.09363314925345426 -0.991726701929327 0.0878121975653738
vn -0.5731534926508378 -0.8082966164207641 0.1347280733362207
vn -0.33362337964836264 -0.8879668520224462 -0.3165601210850028
vn -0.09363314925345426 -0.991726701929327 0.0878121975653738
vn -0.05504679329255611 -0.9143121874968253 -0.4012518839120592
vn 0.2711848602022033 -0.9276819179256856 -0.2566418335946673
vn -0.09363314925345426 -0.991726701929327 0.0878121975653738
vn -0.5731534926508378 -0.8082966164207641 0.1347280733362207
vn -0.09363314925345426 -0.991726701929327 0.0878121975653738
vn -0.40704326507500305 -0.6463216334518073 0.6454332858547569
vn -0.6626843270078439 -0.5779732514623384 0.47623145983042053
vn -0.5731534926508378 -0.8082966164207641 0.1347280733362207
vn -0.40704326507500305 -0.6463216334518073 0.6454332858547569
vn -0.27190060512891845 -0.20564510752200657 0.9400958199475149
vn -0.6618268736701316 0.062251136147794275 0.7470675908753694
vn -0.49904293962393503 -0.13447848956740346 0.856079248817054
vn -0.2692105427980389 -0.22167433435121803 0.9372225846277551
vn -0.27190060512891845 -0.20564510752200657 0.9400958199475149
vn -0.49904293962393503 -0.13447848956740346 0.856079248817054
vn -0.09363314925345426 -0.991726701929327 0.0878121975653738
vn -0.33362337964836264 -0.8879668520224462 -0.3165601210850028
vn -0.05504679329255611 -0.9143121874968253 -0.4012518839120592
vn -0.3350467864513922 -0.7351287946237709 -0.5893465077554945
vn -0.017603435556891384 -0.8882027396201547 -0.45911437832837043
vn -0.05504679329255611 -0.9143121874968253 -0.4012518839120592
vn -0.33362337964836264 -0.8879668520224462 -0.3165601210850028
vn -0.3350467864513922 -0.7351287946237709 -0.5893465077554945
vn -0.05504679329255611 -0.9143121874968253 -0.4012518839120592
vn -0.6651732778809978 -0.7443561990213249 -0.0589776175474635
vn -0.41249424223627185 -0.688077569082866 -0.5969905853922137
vn -0.33362337964836264 -0.8879668520224462 -0.3165601210850028
vn -0.5731534926508378 -0.8082966164207641 0.1347280733362207
vn -0.6651732778809978 -0.7443561990213249 -0.0589776175474635
vn -0.33362337964836264 -0.8879668520224462 -0.3165601210850028
vn 0.20567933111216313 -0.9477837859763121 -0.24372506599375726
vn 0.5977304184821429 -0.8005583355967054 -0.04271648543355295
vn 0.3870865311603819 -0.9093470950990512 -0.15248566499556473
vn 0.2711848602022033 -0.9276819179256856 -0.2566418335946673
vn 0.20567933111216313 -0.9477837859763121 -0.24372506599375726
vn 0.3870865311603819 -0.9093470950990512 -0.15248566499556473
vn -0.5339347451917538 -0.845466630901127 0.009993193169086837
vn -0.41249424223627185 -0.688077569082866 -0.5969905853922137
vn -0.6651732778809978 -0.7443561990213249 -0.0589776175474635
vn -0.3350467864513922 -0.7351287946237709 -0.5893465077554945
vn -0.33362337964836264 -0.8879668520224462 -0.3165601210850028
vn -0.41249424223627185 -0.688077569082866 -0.5969905853922137
vn -0.29912676479133554 -0.7207694426055855 -0.6253115936807045
vn -0.3350467864513922 -0.7351287946237709 -0.5893465077554945
vn -0.41249424223627185 -0.688077569082866 -0.5969905853922137
vn 0.3870865311603819 -0.9093470950990512 -0.15248566499556473
vn -0.09363314925345426 -0.991726701929327 0.0878121975653738
vn 0.2711848602022033 -0.9276819179256856 -0.2566418335946673
vn -0.017603435556891384 -0.8882027396201547 -0.45911437832837043
vn 0.20567933111216313 -0.9477837859763121 -0.24372506599375726
vn 0.2711848602022033 -0.9276819179256856 -0.2566418335946673
vn -0.05504679329255611 -0.9143121874968253 -0.4012518839120592
vn -0.017603435556891384 -0.8882027396201547 -0.45911437832837043
vn 0.2711848602022033 -0.9276819179256856 -0.2566418335946673
vn -0.41249424223627185 -0.688077569082866 -0.5969905853922137
vn -0.5339347451917538 -0.845466630901127 0.009993193169086837
vn -0.29912676479133554 -0.7207694426055855 -0.6253115936807045
f 1/1/1 2/2/2 3/3/3
f 4/4/4 5/5/5 6/6/6
f 7/7/7 8/8/8 9/9/9
f 10/10/10 11/11/11 12/12/12
f 13/13/13 14/14/14 15/15/15
f 16/16/16 17/17/17 18/18/18
f 19/19/19 20/20/20 21/21/21
f 22/22/22 23/23/23 24/24/24
f 25/25/25 26/26/26 27/27/27
f 28/28/28 29/29/29 30/30/30
f 31/31/31 32/32/32 33/33/33
f 34/34/34 35/35/35 36/36/36
f 37/37/37 38/38/38 39/39/39
f 40/40/40 41/41/41 42/42/42
f 43/43/43 44/44/44 45/45/45
f 46/46/46 47/47/47 48/48/48
f 49/49/49 50/50/50 51/51/51
f 52/52/52 53/53/53 54/54/54
f 55/55/55 56/56/56 57/57/57
f 58/58/58 59/59/59 60/60/60
f 61/61/61 62/62/62 63/63/63
f 64/64/64 65/65/65 66/66/66
f 67/67/67 68/68/68 69/69/69
f 70/70/70 71/71/71 72/72/72
f 73/73/73 74/74/74 75/75/75
f 76/76/76 77/77/77 78/78/78
f 79/79/79 80/80/80 81/81/81
f 82/82/82 83/83/83 84/84/84
f 85/85/85 86/86/86 87/87/87
f 88/88/88 89/89/89 90/90/90
f 91/91/91 92/92/92 93/93/93
f 94/94/94 95/95/95 96/96/96
f 97/97/97 98/98/98 99/99/99
f 100/100/100 101/101/101 102/102/102
f 103/103/103 104/104/104 105/105/105
f 106/106/106 107/107/107 108/108/108
f 109/109/109 110/110/110 111/111/111
f 112/112/112 113/113/113 114/114/114
f 115/115/115 116/116/116 117/117/117
f 118/118/118 119/119/119 120/120/120
f 121/121/121 122/122/122 123/123/123
f 124/124/124 125/125/125 126/126/126
f 127/127/127 128/128/128 129/129/129
f 130/130/130 131/131/131 132/132/132
f 133/133/133 134/134/134 135/135/135
f 136/136/136 137/137/137 138/138/138
