mtllib ArcadaCompleta.mtl
o D65C_V
usemtl Esmalte
v 34.28150177001953 51.64096450805664 4.950400621377423
v 35.6432991027832 51.65746307373047 4.928690702401593
v 35.27080154418945 53.12526321411133 4.5394909686674625
v 34.37839889526367 53.10176467895508 4.407920629464582
v 34.28150177001953 51.64096450805664 4.950400621377423
v 35.27080154418945 53.12526321411133 4.5394909686674625
v 33.120201110839844 51.64166259765625 4.929440767251447
v 34.28150177001953 51.64096450805664 4.950400621377423
v 34.37839889526367 53.10176467895508 4.407920629464582
v 33.460601806640625 52.995361328125 4.171400815926984
v 33.120201110839844 51.64166259765625 4.929440767251447
v 34.37839889526367 53.10176467895508 4.407920629464582
v 35.6432991027832 51.65746307373047 4.928690702401593
v 36.268699645996094 51.64076232910156 4.716080934487775
v 36.163299560546875 53.101863861083984 4.407920629464582
v 35.27080154418945 53.12526321411133 4.5394909686674625
v 35.6432991027832 51.65746307373047 4.928690702401593
v 36.163299560546875 53.101863861083984 4.407920629464582
v 36.268699645996094 51.64076232910156 4.716080934487775
v 37.42959976196289 51.64126205444336 4.441570550881818
v 37.08100128173828 52.995662689208984 4.171400815926984
v 36.163299560546875 53.101863861083984 4.407920629464582
v 36.268699645996094 51.64076232910156 4.716080934487775
v 37.08100128173828 52.995662689208984 4.171400815926984
vt 0.6194530129432678 0.7456820011138916
vt 0.4555389881134033 0.7484959959983826
vt 0.5003679990768433 0.9995009899139404
vt 0.607791006565094 0.995481014251709
vt 0.6194530129432678 0.7456820011138916
vt 0.5003679990768433 0.9995009899139404
vt 0.7592359781265259 0.7458069920539856
vt 0.6194530129432678 0.7456820011138916
vt 0.607791006565094 0.995481014251709
vt 0.7182599902153015 0.09462231397628784
vt 0.7592359781265259 0.018196284770965576
vt 0.607791006565094 0.07077586650848389
vt 0.4555389881134033 0.7484959959983826
vt 0.3802550137042999 0.7456439733505249
vt 0.39294400811195374 0.9955059885978699
vt 0.5003679990768433 0.9995009899139404
vt 0.4555389881134033 0.7484959959983826
vt 0.39294400811195374 0.9955059885978699
vt 0.3802550137042999 0.7456439733505249
vt 0.24051199853420258 0.7457299828529358
vt 0.28247299790382385 0.9773439764976501
vt 0.39294400811195374 0.9955059885978699
vt 0.3802550137042999 0.7456439733505249
vt 0.28247299790382385 0.9773439764976501
vn -0.03974299931940234 0.3158687396098462 0.9479701647954882
vn 0.1233517331019879 0.2609295744450414 0.9574445713046084
vn 0.0047099840104092554 0.29665549547474374 0.9549729488604669
vn -0.13650894174635275 0.40889427094593456 0.9023141271258495
vn -0.03974299931940234 0.3158687396098462 0.9479701647954882
vn 0.0047099840104092554 0.29665549547474374 0.9549729488604669
vn -0.13243676894053516 0.43265031442413915 0.8917814797702881
vn -0.03974299931940234 0.3158687396098462 0.9479701647954882
vn -0.13650894174635275 0.40889427094593456 0.9023141271258495
vn -0.2691355878750193 0.521195995154596 0.8098893566247046
vn -0.13243676894053516 0.43265031442413915 0.8917814797702881
vn -0.13650894174635275 0.40889427094593456 0.9023141271258495
vn 0.1233517331019879 0.2609295744450414 0.9574445713046084
vn 0.26195343909818253 0.22912461689139224 0.9374872296084931
vn 0.23785113479311154 0.24392989938260726 0.9401728787115806
vn 0.0047099840104092554 0.29665549547474374 0.9549729488604669
vn 0.1233517331019879 0.2609295744450414 0.9574445713046084
vn 0.23785113479311154 0.24392989938260726 0.9401728787115806
vn 0.26195343909818253 0.22912461689139224 0.9374872296084931
vn 0.2229707616172871 0.24557124625248458 0.9433868784744721
vn 0.24333263306173908 0.23265602650128406 0.9416264668221018
vn 0.23785113479311154 0.24392989938260726 0.9401728787115806
vn 0.26195343909818253 0.22912461689139224 0.9374872296084931
vn 0.24333263306173908 0.23265602650128406 0.9416264668221018
f 1/1/1 2/2/2 3/3/3
f 4/4/4 5/5/5 6/6/6
f 7/7/7 8/8/8 9/9/9
f 10/10/10 11/11/11 12/12/12
f 13/13/13 14/14/14 15/15/15
f 16/16/16 17/17/17 18/18/18
f 19/19/19 20/20/20 21/21/21
f 22/22/22 23/23/23 24/24/24
