mtllib ArcadaCompleta.mtl
o D71C_V
usemtl Esmalte
v 3.2936999797821045 -47.7134313583374 1.8671394730950406
v 2.622529983520508 -47.7134313583374 1.9835493708993008
v 2.622610092163086 -48.78623104095459 1.7422294761086512
v 3.191999912261963 -48.770033836364746 1.598209395542245
v 3.2936999797821045 -47.7134313583374 1.8671394730950406
v 2.622610092163086 -48.78623104095459 1.7422294761086512
v 1.9513499736785889 -47.713534355163574 1.8671394730950406
v 1.7469199895858765 -47.04323101043701 1.7011394645119717
v 1.3143099546432495 -47.04323101043701 1.305999412670236
v 1.523669958114624 -47.68253231048584 1.4329993869210294
v 1.9513499736785889 -47.713534355163574 1.8671394730950406
v 1.3143099546432495 -47.04323101043701 1.305999412670236
v 3.2936999797821045 -47.7134313583374 1.8671394730950406
v 3.8700599670410156 -47.68233394622803 1.3194394256020596
v 4.039420127868652 -47.0430326461792 1.305999412670236
v 3.498029947280884 -47.043131828308105 1.7011394645119717
v 3.2936999797821045 -47.7134313583374 1.8671394730950406
v 4.039420127868652 -47.0430326461792 1.305999412670236
v 3.2936999797821045 -47.7134313583374 1.8671394730950406
v 3.498029947280884 -47.043131828308105 1.7011394645119717
v 2.622469902038574 -47.043131828308105 1.87032939447413
v 2.622529983520508 -47.7134313583374 1.9835493708993008
v 3.2936999797821045 -47.7134313583374 1.8671394730950406
v 2.622469902038574 -47.043131828308105 1.87032939447413
v 1.9513499736785889 -47.713534355163574 1.8671394730950406
v 1.523669958114624 -47.68253231048584 1.4329993869210294
v 2.0532100200653076 -48.770033836364746 1.598209395542245
v 2.622529983520508 -47.7134313583374 1.9835493708993008
v 1.9513499736785889 -47.713534355163574 1.8671394730950406
v 2.0532100200653076 -48.770033836364746 1.598209395542245
v 2.622610092163086 -48.78623104095459 1.7422294761086512
v 2.622529983520508 -47.7134313583374 1.9835493708993008
v 2.0532100200653076 -48.770033836364746 1.598209395542245
v 1.7469199895858765 -47.04323101043701 1.7011394645119717
v 1.9513499736785889 -47.713534355163574 1.8671394730950406
v 2.622529983520508 -47.7134313583374 1.9835493708993008
v 2.622469902038574 -47.043131828308105 1.87032939447413
v 1.7469199895858765 -47.04323101043701 1.7011394645119717
v 2.622529983520508 -47.7134313583374 1.9835493708993008
v 3.191999912261963 -48.770033836364746 1.598209395542245
v 3.8700599670410156 -47.68233394622803 1.3194394256020596
v 3.2936999797821045 -47.7134313583374 1.8671394730950406
v 3.8700599670410156 -47.68233394622803 1.3194394256020596
v 3.191999912261963 -48.770033836364746 1.598209395542245
v 3.6770100593566895 -48.524333000183105 1.2152394200707484
v 2.0532100200653076 -48.770033836364746 1.598209395542245
v 1.523669958114624 -47.68253231048584 1.4329993869210294
v 1.5681500434875488 -48.540831565856934 1.2152394200707484
vt 0.33724600076675415 0.2102469801902771
vt 0.49991199374198914 0.21023797988891602
vt 0.499891996383667 0.0004993677139282227
vt 0.36189600825309753 0.0036787986755371094
vt 0.33724600076675415 0.2102469801902771
vt 0.499891996383667 0.0004993677139282227
vt 0.6625769734382629 0.2102299928665161
vt 0.7121220231056213 0.3412749767303467
vt 0.8169670104980469 0.3412669897079468
vt 0.7662280201911926 0.21628403663635254
vt 0.6625769734382629 0.2102299928665161
vt 0.8169670104980469 0.3412669897079468
vt 0.33724600076675415 0.2102469801902771
vt 0.19756199419498444 0.2163119912147522
vt 0.1565150022506714 0.34130001068115234
vt 0.2877269983291626 0.34129297733306885
vt 0.33724600076675415 0.2102469801902771
vt 0.1565150022506714 0.34130001068115234
vt 0.33724600076675415 0.2102469801902771
vt 0.2877269983291626 0.34129297733306885
vt 0.49992600083351135 0.34128403663635254
vt 0.49991199374198914 0.21023797988891602
vt 0.33724600076675415 0.2102469801902771
vt 0.49992600083351135 0.34128403663635254
vt 0.029597999528050423 0.2102299928665161
vt 0.1381160020828247 0.21628403663635254
vt 0.09682050347328186 0.0036635994911193848
vt 0.49991199374198914 0.21023797988891602
vt 0.6625769734382629 0.2102299928665161
vt 0.63788902759552 0.0036635994911193848
vt 0.499891996383667 0.0004993677139282227
vt 0.49991199374198914 0.21023797988891602
vt 0.63788902759552 0.0036635994911193848
vt 0.7121220231056213 0.3412749767303467
vt 0.6625769734382629 0.2102299928665161
vt 0.49991199374198914 0.21023797988891602
vt 0.49992600083351135 0.34128403663635254
vt 0.7121220231056213 0.3412749767303467
vt 0.49991199374198914 0.21023797988891602
vt 0.36189600825309753 0.0036787986755371094
vt 0.19756199419498444 0.2163119912147522
vt 0.33724600076675415 0.2102469801902771
vt 0.19756199419498444 0.2163119912147522
vt 0.36189600825309753 0.0036787986755371094
vt 0.24435000121593475 0.05170702934265137
vt 0.63788902759552 0.0036635994911193848
vt 0.7662280201911926 0.21628403663635254
vt 0.7554489970207214 0.04848891496658325
vn 0.4110523028829847 -0.10544404785092135 0.9054929911751982
vn -0.07615543987332266 -0.06460901535208176 0.9950005146294827
vn 0.061797206342167496 -0.23470540793472067 0.9701002405805804
vn 0.5528282265041635 -0.25469793446108374 0.7934166081961724
vn 0.4110523028829847 -0.10544404785092135 0.9054929911751982
vn 0.061797206342167496 -0.23470540793472067 0.9701002405805804
vn -0.4830974261782614 -0.12393664347365191 0.8667505899763924
vn -0.3226598860529132 0.12569871783646347 0.9381313502205277
vn -0.6939111420193665 -0.058687653969582886 0.7176650237073875
vn -0.6924660024386956 -0.19704015036672692 0.6940216240219249
vn -0.4830974261782614 -0.12393664347365191 0.8667505899763924
vn -0.6939111420193665 -0.058687653969582886 0.7176650237073875
vn 0.4110523028829847 -0.10544404785092135 0.9054929911751982
vn 0.6775335104954157 -0.22157299621543997 0.7013228568240673
vn 0.644020588330939 -0.0795163029787669 0.7608644027462844
vn 0.367479386940699 0.11648883765515626 0.9227075651989847
vn 0.4110523028829847 -0.10544404785092135 0.9054929911751982
vn 0.644020588330939 -0.0795163029787669 0.7608644027462844
vn 0.4110523028829847 -0.10544404785092135 0.9054929911751982
vn 0.367479386940699 0.11648883765515626 0.9227075651989847
vn 0.04727018889323673 0.17321605710588087 0.983748812859609
vn -0.07615543987332266 -0.06460901535208176 0.9950005146294827
vn 0.4110523028829847 -0.10544404785092135 0.9054929911751982
vn 0.04727018889323673 0.17321605710588087 0.983748812859609
vn -0.4830974261782614 -0.12393664347365191 0.8667505899763924
vn -0.6924660024386956 -0.19704015036672692 0.6940216240219249
vn -0.4463931430404278 -0.2422800706176142 0.8614136806598859
vn -0.07615543987332266 -0.06460901535208176 0.9950005146294827
vn -0.4830974261782614 -0.12393664347365191 0.8667505899763924
vn -0.4463931430404278 -0.2422800706176142 0.8614136806598859
vn 0.061797206342167496 -0.23470540793472067 0.9701002405805804
vn -0.07615543987332266 -0.06460901535208176 0.9950005146294827
vn -0.4463931430404278 -0.2422800706176142 0.8614136806598859
vn -0.3226598860529132 0.12569871783646347 0.9381313502205277
vn -0.4830974261782614 -0.12393664347365191 0.8667505899763924
vn -0.07615543987332266 -0.06460901535208176 0.9950005146294827
vn 0.04727018889323673 0.17321605710588087 0.983748812859609
vn -0.3226598860529132 0.12569871783646347 0.9381313502205277
vn -0.07615543987332266 -0.06460901535208176 0.9950005146294827
vn 0.5528282265041635 -0.25469793446108374 0.7934166081961724
vn 0.6775335104954157 -0.22157299621543997 0.7013228568240673
vn 0.4110523028829847 -0.10544404785092135 0.9054929911751982
vn 0.6775335104954157 -0.22157299621543997 0.7013228568240673
vn 0.5528282265041635 -0.25469793446108374 0.7934166081961724
vn 0.673697444368717 -0.24092053392582163 0.6986337021529643
vn -0.4463931430404278 -0.2422800706176142 0.8614136806598859
vn -0.6924660024386956 -0.19704015036672692 0.6940216240219249
vn -0.6658382075104196 -0.21571448831761691 0.7142315737554454
f 1/1/1 2/2/2 3/3/3
f 4/4/4 5/5/5 6/6/6
f 7/7/7 8/8/8 9/9/9
f 10/10/10 11/11/11 12/12/12
f 13/13/13 14/14/14 15/15/15
f 16/16/16 17/17/17 18/18/18
f 19/19/19 20/20/20 21/21/21
f 22/22/22 23/23/23 24/24/24
f 25/25/25 26/26/26 27/27/27
f 28/28/28 29/29/29 30/30/30
f 31/31/31 32/32/32 33/33/33
f 34/34/34 35/35/35 36/36/36
f 37/37/37 38/38/38 39/39/39
f 40/40/40 41/41/41 42/42/42
f 43/43/43 44/44/44 45/45/45
f 46/46/46 47/47/47 48/48/48
