mtllib ArcadaCompleta.mtl
o D74C_CL
usemtl Esmalte
v 24.49220085144043 -48.00093364715576 -3.244020566806693
v 24.458499908447266 -49.378432273864746 -2.6133504961585
v 23.59760093688965 -49.400431632995605 -2.71841059671392
v 23.593700408935547 -48.00093364715576 -3.1838005636786413
v 24.49220085144043 -48.00093364715576 -3.244020566806693
v 23.59760093688965 -49.400431632995605 -2.71841059671392
v 22.736799240112305 -49.378432273864746 -2.6133504961585
v 22.695199966430664 -48.00093364715576 -3.244020566806693
v 23.593700408935547 -48.00093364715576 -3.1838005636786413
v 23.59760093688965 -49.400431632995605 -2.71841059671392
v 22.736799240112305 -49.378432273864746 -2.6133504961585
v 23.593700408935547 -48.00093364715576 -3.1838005636786413
vn 0.028286186166529483 -0.3672466768738672 -0.9296933741816457
vn 0.12063405497361632 -0.4156801982908702 -0.901475123078549
vn -0.021294798176900897 -0.35063650339487384 -0.9362694986261283
vn -0.04011844335196102 -0.3499883592779777 -0.9358945767942694
vn 0.028286186166529483 -0.3672466768738672 -0.9296933741816457
vn -0.021294798176900897 -0.35063650339487384 -0.9362694986261283
vn -0.02828810093971275 -0.3673850189130743 -0.9296386562656829
vn 0.06087304067999504 -0.4139895340178842 -0.9082439862955476
vn -0.04011844335196102 -0.3499883592779777 -0.9358945767942694
vn -0.021294798176900897 -0.35063650339487384 -0.9362694986261283
vn -0.02828810093971275 -0.3673850189130743 -0.9296386562656829
vn -0.04011844335196102 -0.3499883592779777 -0.9358945767942694
f 1//1 2//2 3//3
f 4//4 5//5 6//6
f 7//7 8//8 9//9
f 10//10 11//11 12//12
