mtllib ArcadaCompleta.mtl
o D74C_D
usemtl Esmalte
v 27.12350082397461 -44.64763164520264 0.38275740994463525
v 27.49970054626465 -44.8832311630249 0.40373741044054584
v 27.58449935913086 -45.00273036956787 -0.25764359580029894
v 27.125600814819336 -44.63723278045654 -0.25764359580029883
v 27.12350082397461 -44.64763164520264 0.38275740994463525
v 27.58449935913086 -45.00273036956787 -0.25764359580029894
v 27.64699935913086 -45.511733055114746 1.0705493832970674
v 27.72640037536621 -45.732733726501465 -0.1021245797132439
v 27.58449935913086 -45.00273036956787 -0.25764359580029894
v 27.49970054626465 -44.8832311630249 0.40373741044054584
v 27.64699935913086 -45.511733055114746 1.0705493832970674
v 27.58449935913086 -45.00273036956787 -0.25764359580029894
v 26.840700149536133 -44.64763164520264 -1.2834606026266995
v 27.125600814819336 -44.63723278045654 -0.25764359580029883
v 27.58449935913086 -45.00273036956787 -0.25764359580029894
v 27.452600479125977 -44.8832311630249 -1.3044406031226103
v 26.840700149536133 -44.64763164520264 -1.2834606026266995
v 27.58449935913086 -45.00273036956787 -0.25764359580029894
v 27.64699935913086 -45.511733055114746 1.0705493832970674
v 27.309799194335938 -46.79883098602295 1.1721093799019866
v 27.38789939880371 -46.867533683776855 -0.0006996795968452191
v 27.72640037536621 -45.732733726501465 -0.1021245797132439
v 27.64699935913086 -45.511733055114746 1.0705493832970674
v 27.38789939880371 -46.867533683776855 -0.0006996795968452191
v 26.831100463867188 -48.00093364715576 1.1654194737816859
v 26.956199645996094 -48.00093364715576 0.0012469984390470754
v 27.38789939880371 -46.867533683776855 -0.0006996795968452191
v 27.309799194335938 -46.79883098602295 1.1721093799019866
v 26.831100463867188 -48.00093364715576 1.1654194737816859
v 27.38789939880371 -46.867533683776855 -0.0006996795968452191
v 26.899799346923828 -44.469733238220215 0.6990094329262789
v 27.185199737548828 -44.71053218841553 0.9328314210320527
v 27.49970054626465 -44.8832311630249 0.40373741044054584
v 27.12350082397461 -44.64763164520264 0.38275740994463525
v 26.899799346923828 -44.469733238220215 0.6990094329262789
v 27.49970054626465 -44.8832311630249 0.40373741044054584
v 27.72640037536621 -45.732733726501465 -0.1021245797132439
v 27.705799102783203 -45.60873317718506 -1.1548006390189116
v 27.452600479125977 -44.8832311630249 -1.3044406031226103
v 27.58449935913086 -45.00273036956787 -0.25764359580029894
v 27.72640037536621 -45.732733726501465 -0.1021245797132439
v 27.452600479125977 -44.8832311630249 -1.3044406031226103
v 26.610700607299805 -44.333632469177246 -1.8106605862235012
v 26.840700149536133 -44.64763164520264 -1.2834606026266995
v 27.452600479125977 -44.8832311630249 -1.3044406031226103
v 26.917400360107422 -44.60283184051514 -2.0879605864142365
v 26.610700607299805 -44.333632469177246 -1.8106605862235012
v 27.452600479125977 -44.8832311630249 -1.3044406031226103
v 27.37980079650879 -46.80953121185303 -0.9930136059378574
v 27.705799102783203 -45.60873317718506 -1.1548006390189116
v 27.72640037536621 -45.732733726501465 -0.1021245797132439
v 27.38789939880371 -46.867533683776855 -0.0006996795968452191
v 27.37980079650879 -46.80953121185303 -0.9930136059378574
v 27.72640037536621 -45.732733726501465 -0.1021245797132439
v 27.188199996948242 -45.39863109588623 -2.1197105501746125
v 27.705799102783203 -45.60873317718506 -1.1548006390189116
v 27.37980079650879 -46.80953121185303 -0.9930136059378574
v 27.03700065612793 -46.753432273864746 -1.8804105375861115
v 27.188199996948242 -45.39863109588623 -2.1197105501746125
v 27.37980079650879 -46.80953121185303 -0.9930136059378574
v 26.956199645996094 -48.00093364715576 0.0012469984390470754
v 26.80430030822754 -48.00093364715576 -0.9696805928801489
v 27.37980079650879 -46.80953121185303 -0.9930136059378574
v 27.38789939880371 -46.867533683776855 -0.0006996795968452191
v 26.956199645996094 -48.00093364715576 0.0012469984390470754
v 27.37980079650879 -46.80953121185303 -0.9930136059378574
v 27.49970054626465 -44.8832311630249 0.40373741044054584
v 27.185199737548828 -44.71053218841553 0.9328314210320527
v 27.64699935913086 -45.511733055114746 1.0705493832970674
v 26.840700149536133 -44.64763164520264 -1.2834606026266995
v 26.49880027770996 -44.586432456970215 -0.8435385678862517
v 27.125600814819336 -44.63723278045654 -0.25764359580029883
v 26.581899642944336 -44.82673168182373 -0.5059395884131377
v 26.56369972229004 -44.77052974700928 -0.3780235801791136
v 27.125600814819336 -44.63723278045654 -0.25764359580029883
v 26.56369972229004 -44.77052974700928 -0.3780235801791136
v 26.639999389648438 -44.485732078552246 0.6085564042473849
v 27.12350082397461 -44.64763164520264 0.38275740994463525
v 27.125600814819336 -44.63723278045654 -0.25764359580029883
v 26.56369972229004 -44.77052974700928 -0.3780235801791136
v 27.12350082397461 -44.64763164520264 0.38275740994463525
v 26.610700607299805 -44.333632469177246 -1.8106605862235012
v 26.49880027770996 -44.586432456970215 -0.8435385678862517
v 26.840700149536133 -44.64763164520264 -1.2834606026266995
v 27.705799102783203 -45.60873317718506 -1.1548006390189116
v 27.188199996948242 -45.39863109588623 -2.1197105501746125
v 26.917400360107422 -44.60283184051514 -2.0879605864142365
v 27.452600479125977 -44.8832311630249 -1.3044406031226103
v 27.705799102783203 -45.60873317718506 -1.1548006390189116
v 26.917400360107422 -44.60283184051514 -2.0879605864142365
v 26.80430030822754 -48.00093364715576 -0.9696805928801489
v 26.659500122070312 -48.00093364715576 -1.7163405274008703
v 27.03700065612793 -46.753432273864746 -1.8804105375861115
v 27.37980079650879 -46.80953121185303 -0.9930136059378574
v 26.80430030822754 -48.00093364715576 -0.9696805928801489
v 27.03700065612793 -46.753432273864746 -1.8804105375861115
v 27.12350082397461 -44.64763164520264 0.38275740994463525
v 26.639999389648438 -44.485732078552246 0.6085564042473849
v 26.899799346923828 -44.469733238220215 0.6990094329262789
v 27.125600814819336 -44.63723278045654 -0.25764359580029883
v 26.49880027770996 -44.586432456970215 -0.8435385678862517
v 26.581899642944336 -44.82673168182373 -0.5059395884131377
v 26.831100463867188 -48.00093364715576 1.1654194737816859
v 26.694900512695312 -49.00963115692139 1.083419456615548
v 26.84429931640625 -49.017733573913574 0.0037391684050367374
v 26.956199645996094 -48.00093364715576 0.0012469984390470754
v 26.831100463867188 -48.00093364715576 1.1654194737816859
v 26.84429931640625 -49.017733573913574 0.0037391684050367374
v 26.694900512695312 -49.00963115692139 -1.0759405945395424
v 26.80430030822754 -48.00093364715576 -0.9696805928801489
v 26.956199645996094 -48.00093364715576 0.0012469984390470754
v 26.84429931640625 -49.017733573913574 0.0037391684050367374
v 26.694900512695312 -49.00963115692139 -1.0759405945395424
v 26.956199645996094 -48.00093364715576 0.0012469984390470754
v 26.694900512695312 -49.00963115692139 -1.0759405945395424
v 26.659500122070312 -48.00093364715576 -1.7163405274008703
v 26.80430030822754 -48.00093364715576 -0.9696805928801489
vn 0.28640297582265245 0.9488183639337654 -0.13310540072431984
vn 0.7863531332106747 0.6071868248054595 0.11389868160966214
vn 0.8292151847174644 0.5582663522996608 -0.027218694384790517
vn 0.23616956103310957 0.9717059702245135 -0.003383174761262928
vn 0.28640297582265245 0.9488183639337654 -0.13310540072431984
vn 0.8292151847174644 0.5582663522996608 -0.027218694384790517
vn 0.9933307803760683 -0.032963341108962776 0.11048700783533513
vn 0.9966147511411032 -0.08201812437056644 0.005662603879068641
vn 0.8292151847174644 0.5582663522996608 -0.027218694384790517
vn 0.7863531332106747 0.6071868248054595 0.11389868160966214
vn 0.9933307803760683 -0.032963341108962776 0.11048700783533513
vn 0.8292151847174644 0.5582663522996608 -0.027218694384790517
vn 0.40754787142391324 0.9112487660862467 0.059417327473810726
vn 0.23616956103310957 0.9717059702245135 -0.003383174761262928
vn 0.8292151847174644 0.5582663522996608 -0.027218694384790517
vn 0.818244596517637 0.5694608413166019 -0.07867738224341937
vn 0.40754787142391324 0.9112487660862467 0.059417327473810726
vn 0.8292151847174644 0.5582663522996608 -0.027218694384790517
vn 0.9933307803760683 -0.032963341108962776 0.11048700783533513
vn 0.9480328124133557 -0.3076489128329535 0.08115376159072794
vn 0.9473034490654645 -0.3147293544588341 0.059679216068918864
vn 0.9966147511411032 -0.08201812437056644 0.005662603879068641
vn 0.9933307803760683 -0.032963341108962776 0.11048700783533513
vn 0.9473034490654645 -0.3147293544588341 0.059679216068918864
vn 0.9599237707137066 -0.2598071170083526 0.10510288469203433
vn 0.9654692089293732 -0.25808834168489775 -0.03549104810554388
vn 0.9473034490654645 -0.3147293544588341 0.059679216068918864
vn 0.9480328124133557 -0.3076489128329535 0.08115376159072794
vn 0.9599237707137066 -0.2598071170083526 0.10510288469203433
vn 0.9473034490654645 -0.3147293544588341 0.059679216068918864
vn 0.4942201249070275 0.866329945732593 -0.07224190794714865
vn 0.746038091389202 0.6208357415879594 0.24081143694452153
vn 0.7863531332106747 0.6071868248054595 0.11389868160966214
vn 0.28640297582265245 0.9488183639337654 -0.13310540072431984
vn 0.4942201249070275 0.866329945732593 -0.07224190794714865
vn 0.7863531332106747 0.6071868248054595 0.11389868160966214
vn 0.9966147511411032 -0.08201812437056644 0.005662603879068641
vn 0.9523701867441314 -0.01840523926304283 -0.3043883614210938
vn 0.818244596517637 0.5694608413166019 -0.07867738224341937
vn 0.8292151847174644 0.5582663522996608 -0.027218694384790517
vn 0.9966147511411032 -0.08201812437056644 0.005662603879068641
vn 0.818244596517637 0.5694608413166019 -0.07867738224341937
vn 0.503398426826978 0.8513252281156442 0.14776799329343993
vn 0.40754787142391324 0.9112487660862467 0.059417327473810726
vn 0.818244596517637 0.5694608413166019 -0.07867738224341937
vn 0.8290927018285429 0.4092743497563609 -0.3809196744802699
vn 0.503398426826978 0.8513252281156442 0.14776799329343993
vn 0.818244596517637 0.5694608413166019 -0.07867738224341937
vn 0.9207219432947471 -0.3224712295227754 -0.21973486128881375
vn 0.9523701867441314 -0.01840523926304283 -0.3043883614210938
vn 0.9966147511411032 -0.08201812437056644 0.005662603879068641
vn 0.9473034490654645 -0.3147293544588341 0.059679216068918864
vn 0.9207219432947471 -0.3224712295227754 -0.21973486128881375
vn 0.9966147511411032 -0.08201812437056644 0.005662603879068641
vn 0.8931702450659321 -0.09740722261475954 -0.43904298913812667
vn 0.9523701867441314 -0.01840523926304283 -0.3043883614210938
vn 0.9207219432947471 -0.3224712295227754 -0.21973486128881375
vn 0.9031361126419174 -0.29586571778073323 -0.3111408669463678
vn 0.8931702450659321 -0.09740722261475954 -0.43904298913812667
vn 0.9207219432947471 -0.3224712295227754 -0.21973486128881375
vn 0.9654692089293732 -0.25808834168489775 -0.03549104810554388
vn 0.9320438583366104 -0.2949031427865958 -0.21053831601775813
vn 0.9207219432947471 -0.3224712295227754 -0.21973486128881375
vn 0.9473034490654645 -0.3147293544588341 0.059679216068918864
vn 0.9654692089293732 -0.25808834168489775 -0.03549104810554388
vn 0.9207219432947471 -0.3224712295227754 -0.21973486128881375
vn 0.7863531332106747 0.6071868248054595 0.11389868160966214
vn 0.746038091389202 0.6208357415879594 0.24081143694452153
vn 0.9933307803760683 -0.032963341108962776 0.11048700783533513
vn 0.40754787142391324 0.9112487660862467 0.059417327473810726
vn 0.1102746669440107 0.9669815410022928 0.22975246939090527
vn 0.23616956103310957 0.9717059702245135 -0.003383174761262928
vn -0.4547532684453279 0.8047067392774941 0.3816366447285617
vn -0.0015662241368383366 0.9820137541033814 -0.18880289641246759
vn 0.23616956103310957 0.9717059702245135 -0.003383174761262928
vn -0.0015662241368383366 0.9820137541033814 -0.18880289641246759
vn 0.16681010667900417 0.9349340598489153 -0.3131655984366168
vn 0.28640297582265245 0.9488183639337654 -0.13310540072431984
vn 0.23616956103310957 0.9717059702245135 -0.003383174761262928
vn -0.0015662241368383366 0.9820137541033814 -0.18880289641246759
vn 0.28640297582265245 0.9488183639337654 -0.13310540072431984
vn 0.503398426826978 0.8513252281156442 0.14776799329343993
vn 0.1102746669440107 0.9669815410022928 0.22975246939090527
vn 0.40754787142391324 0.9112487660862467 0.059417327473810726
vn 0.9523701867441314 -0.01840523926304283 -0.3043883614210938
vn 0.8931702450659321 -0.09740722261475954 -0.43904298913812667
vn 0.8290927018285429 0.4092743497563609 -0.3809196744802699
vn 0.818244596517637 0.5694608413166019 -0.07867738224341937
vn 0.9523701867441314 -0.01840523926304283 -0.3043883614210938
vn 0.8290927018285429 0.4092743497563609 -0.3809196744802699
vn 0.9320438583366104 -0.2949031427865958 -0.21053831601775813
vn 0.9594338076533369 -0.2118186253140623 -0.18606353404652137
vn 0.9031361126419174 -0.29586571778073323 -0.3111408669463678
vn 0.9207219432947471 -0.3224712295227754 -0.21973486128881375
vn 0.9320438583366104 -0.2949031427865958 -0.21053831601775813
vn 0.9031361126419174 -0.29586571778073323 -0.3111408669463678
vn 0.28640297582265245 0.9488183639337654 -0.13310540072431984
vn 0.16681010667900417 0.9349340598489153 -0.3131655984366168
vn 0.4942201249070275 0.866329945732593 -0.07224190794714865
vn 0.23616956103310957 0.9717059702245135 -0.003383174761262928
vn 0.1102746669440107 0.9669815410022928 0.22975246939090527
vn -0.4547532684453279 0.8047067392774941 0.3816366447285617
vn 0.9599237707137066 -0.2598071170083526 0.10510288469203433
vn 0.9801686075383598 -0.14346102886089115 0.1367056472662613
vn 0.9919791004182248 -0.12082110099615584 0.03714466162891042
vn 0.9654692089293732 -0.25808834168489775 -0.03549104810554388
vn 0.9599237707137066 -0.2598071170083526 0.10510288469203433
vn 0.9919791004182248 -0.12082110099615584 0.03714466162891042
vn 0.9828837271239185 -0.09638978302900725 -0.15699869006655884
vn 0.9320438583366104 -0.2949031427865958 -0.21053831601775813
vn 0.9654692089293732 -0.25808834168489775 -0.03549104810554388
vn 0.9919791004182248 -0.12082110099615584 0.03714466162891042
vn 0.9828837271239185 -0.09638978302900725 -0.15699869006655884
vn 0.9654692089293732 -0.25808834168489775 -0.03549104810554388
vn 0.9828837271239185 -0.09638978302900725 -0.15699869006655884
vn 0.9594338076533369 -0.2118186253140623 -0.18606353404652137
vn 0.9320438583366104 -0.2949031427865958 -0.21053831601775813
f 1//1 2//2 3//3
f 4//4 5//5 6//6
f 7//7 8//8 9//9
f 10//10 11//11 12//12
f 13//13 14//14 15//15
f 16//16 17//17 18//18
f 19//19 20//20 21//21
f 22//22 23//23 24//24
f 25//25 26//26 27//27
f 28//28 29//29 30//30
f 31//31 32//32 33//33
f 34//34 35//35 36//36
f 37//37 38//38 39//39
f 40//40 41//41 42//42
f 43//43 44//44 45//45
f 46//46 47//47 48//48
f 49//49 50//50 51//51
f 52//52 53//53 54//54
f 55//55 56//56 57//57
f 58//58 59//59 60//60
f 61//61 62//62 63//63
f 64//64 65//65 66//66
f 67//67 68//68 69//69
f 70//70 71//71 72//72
f 73//73 74//74 75//75
f 76//76 77//77 78//78
f 79//79 80//80 81//81
f 82//82 83//83 84//84
f 85//85 86//86 87//87
f 88//88 89//89 90//90
f 91//91 92//92 93//93
f 94//94 95//95 96//96
f 97//97 98//98 99//99
f 100//100 101//101 102//102
f 103//103 104//104 105//105
f 106//106 107//107 108//108
f 109//109 110//110 111//111
f 112//112 113//113 114//114
f 115//115 116//116 117//117
