mtllib ArcadaCompleta.mtl
o D74C_CDL
usemtl Esmalte
v 25.76569938659668 -43.48723125457764 -2.434200630054373
v 26.23200035095215 -43.7493314743042 -2.3192804907416287
v 26.461999893188477 -44.362730979919434 -2.8809105013464875
v 25.871700286865234 -44.152831077575684 -3.0535706137274685
v 25.76569938659668 -43.48723125457764 -2.434200630054373
v 26.461999893188477 -44.362730979919434 -2.8809105013464875
v 26.610700607299805 -44.333632469177246 -1.8106605862235012
v 26.917400360107422 -44.60283184051514 -2.0879605864142365
v 26.461999893188477 -44.362730979919434 -2.8809105013464875
v 26.23200035095215 -43.7493314743042 -2.3192804907416287
v 26.610700607299805 -44.333632469177246 -1.8106605862235012
v 26.461999893188477 -44.362730979919434 -2.8809105013464875
v 26.659500122070312 -48.00093364715576 -1.7163405274008703
v 26.694900512695312 -49.00963115692139 -1.0759405945395424
v 26.136699676513672 -49.17913341522217 -2.0558305834387736
v 26.271799087524414 -48.00093364715576 -2.6442805384253454
v 26.659500122070312 -48.00093364715576 -1.7163405274008703
v 26.136699676513672 -49.17913341522217 -2.0558305834387736
v 27.188199996948242 -45.39863109588623 -2.1197105501746125
v 27.03700065612793 -46.753432273864746 -1.8804105375861115
v 26.53529930114746 -46.66883373260498 -2.896680698261161
v 26.696800231933594 -45.188632011413574 -2.9932805155371613
v 27.188199996948242 -45.39863109588623 -2.1197105501746125
v 26.53529930114746 -46.66883373260498 -2.896680698261161
v 26.917400360107422 -44.60283184051514 -2.0879605864142365
v 27.188199996948242 -45.39863109588623 -2.1197105501746125
v 26.696800231933594 -45.188632011413574 -2.9932805155371613
v 26.461999893188477 -44.362730979919434 -2.8809105013464875
v 26.917400360107422 -44.60283184051514 -2.0879605864142365
v 26.696800231933594 -45.188632011413574 -2.9932805155371613
v 25.905099868774414 -46.66883373260498 -3.304170474872489
v 26.06049919128418 -45.19613170623779 -3.368000612125296
v 26.696800231933594 -45.188632011413574 -2.9932805155371613
v 26.53529930114746 -46.66883373260498 -2.896680698261161
v 25.905099868774414 -46.66883373260498 -3.304170474872489
v 26.696800231933594 -45.188632011413574 -2.9932805155371613
v 25.862899780273438 -43.897433280944824 -1.7338105295752468
v 26.610700607299805 -44.333632469177246 -1.8106605862235012
v 26.23200035095215 -43.7493314743042 -2.3192804907416287
v 25.76569938659668 -43.48723125457764 -2.434200630054373
v 25.862899780273438 -43.897433280944824 -1.7338105295752468
v 26.23200035095215 -43.7493314743042 -2.3192804907416287
v 25.905099868774414 -46.66883373260498 -3.304170474872489
v 24.71269989013672 -46.66883373260498 -3.5088106249426794
v 24.910900115966797 -45.196330070495605 -3.5764604662512727
v 26.06049919128418 -45.19613170623779 -3.368000612125296
v 25.905099868774414 -46.66883373260498 -3.304170474872489
v 24.910900115966797 -45.196330070495605 -3.5764604662512727
v 25.871700286865234 -44.152831077575684 -3.0535706137274685
v 24.784900665283203 -44.12673091888428 -3.317250594959158
v 24.644800186157227 -43.74483013153076 -2.807400569782156
v 25.76569938659668 -43.48723125457764 -2.434200630054373
v 25.871700286865234 -44.152831077575684 -3.0535706137274685
v 24.644800186157227 -43.74483013153076 -2.807400569782156
v 27.03700065612793 -46.753432273864746 -1.8804105375861115
v 26.659500122070312 -48.00093364715576 -1.7163405274008703
v 26.271799087524414 -48.00093364715576 -2.6442805384253454
v 26.53529930114746 -46.66883373260498 -2.896680698261161
v 27.03700065612793 -46.753432273864746 -1.8804105375861115
v 26.271799087524414 -48.00093364715576 -2.6442805384253454
v 25.343799591064453 -49.27883434295654 -2.5629504774664835
v 25.54170036315918 -48.00093364715576 -3.0695406054114294
v 26.271799087524414 -48.00093364715576 -2.6442805384253454
v 26.136699676513672 -49.17913341522217 -2.0558305834387736
v 25.343799591064453 -49.27883434295654 -2.5629504774664835
v 26.271799087524414 -48.00093364715576 -2.6442805384253454
v 25.905099868774414 -46.66883373260498 -3.304170474872489
v 25.54170036315918 -48.00093364715576 -3.0695406054114294
v 24.49220085144043 -48.00093364715576 -3.244020566806693
v 24.71269989013672 -46.66883373260498 -3.5088106249426794
v 25.905099868774414 -46.66883373260498 -3.304170474872489
v 24.49220085144043 -48.00093364715576 -3.244020566806693
v 25.26889991760254 -43.779730796813965 -1.6766705368613184
v 25.862899780273438 -43.897433280944824 -1.7338105295752468
v 25.76569938659668 -43.48723125457764 -2.434200630054373
v 24.505300521850586 -43.8738317489624 -1.9333906029318753
v 24.7052001953125 -43.79873180389404 -1.7279405449484766
v 25.76569938659668 -43.48723125457764 -2.434200630054373
v 24.644800186157227 -43.74483013153076 -2.807400569782156
v 24.505300521850586 -43.8738317489624 -1.9333906029318753
v 25.76569938659668 -43.48723125457764 -2.434200630054373
v 26.696800231933594 -45.188632011413574 -2.9932805155371613
v 26.06049919128418 -45.19613170623779 -3.368000612125296
v 25.871700286865234 -44.152831077575684 -3.0535706137274685
v 26.461999893188477 -44.362730979919434 -2.8809105013464875
v 26.696800231933594 -45.188632011413574 -2.9932805155371613
v 25.871700286865234 -44.152831077575684 -3.0535706137274685
v 26.271799087524414 -48.00093364715576 -2.6442805384253454
v 25.54170036315918 -48.00093364715576 -3.0695406054114294
v 25.905099868774414 -46.66883373260498 -3.304170474872489
v 26.53529930114746 -46.66883373260498 -2.896680698261161
v 26.271799087524414 -48.00093364715576 -2.6442805384253454
v 25.905099868774414 -46.66883373260498 -3.304170474872489
v 24.49220085144043 -48.00093364715576 -3.244020566806693
v 25.54170036315918 -48.00093364715576 -3.0695406054114294
v 25.343799591064453 -49.27883434295654 -2.5629504774664835
v 24.458499908447266 -49.378432273864746 -2.6133504961585
v 24.49220085144043 -48.00093364715576 -3.244020566806693
v 25.343799591064453 -49.27883434295654 -2.5629504774664835
v 24.784900665283203 -44.12673091888428 -3.317250594959158
v 25.871700286865234 -44.152831077575684 -3.0535706137274685
v 26.06049919128418 -45.19613170623779 -3.368000612125296
v 24.910900115966797 -45.196330070495605 -3.5764604662512727
v 24.784900665283203 -44.12673091888428 -3.317250594959158
v 26.06049919128418 -45.19613170623779 -3.368000612125296
v 25.76569938659668 -43.48723125457764 -2.434200630054373
v 24.7052001953125 -43.79873180389404 -1.7279405449484766
v 25.26889991760254 -43.779730796813965 -1.6766705368613184
v 24.450000762939453 -44.15013027191162 -1.2917005871390286
v 24.909299850463867 -44.26233196258545 -1.0728205298041287
v 25.26889991760254 -43.779730796813965 -1.6766705368613184
v 24.7052001953125 -43.79873180389404 -1.7279405449484766
v 24.450000762939453 -44.15013027191162 -1.2917005871390286
v 25.26889991760254 -43.779730796813965 -1.6766705368613184
v 25.525100708007812 -44.34103298187256 -1.0563706015204373
v 26.610700607299805 -44.333632469177246 -1.8106605862235012
v 25.862899780273438 -43.897433280944824 -1.7338105295752468
v 24.909299850463867 -44.26233196258545 -1.0728205298041287
v 25.525100708007812 -44.34103298187256 -1.0563706015204373
v 25.862899780273438 -43.897433280944824 -1.7338105295752468
v 25.26889991760254 -43.779730796813965 -1.6766705368613184
v 24.909299850463867 -44.26233196258545 -1.0728205298041287
v 25.862899780273438 -43.897433280944824 -1.7338105295752468
vn 0.0919321479276227 0.9796933353675543 -0.17818375013959675
vn 0.6832439007280632 0.7275776547766422 0.06171327561896008
vn 0.6994104496514836 0.5378697003956998 -0.4706603959486605
vn 0.27326882850021716 0.526611408489347 -0.8049873115888132
vn 0.0919321479276227 0.9796933353675543 -0.17818375013959675
vn 0.6994104496514836 0.5378697003956998 -0.4706603959486605
vn 0.665667048714967 0.6975730570364655 0.265102263950925
vn 0.8318793143628908 0.42949747766686874 -0.35143807849025765
vn 0.6994104496514836 0.5378697003956998 -0.4706603959486605
vn 0.6832439007280632 0.7275776547766422 0.06171327561896008
vn 0.665667048714967 0.6975730570364655 0.265102263950925
vn 0.6994104496514836 0.5378697003956998 -0.4706603959486605
vn 0.8739247102339786 -0.2845845254843074 -0.39403965371181654
vn 0.8588540286972164 -0.2527195855319765 -0.44553627066615703
vn 0.77878367450289 -0.33143618511138584 -0.5325843064967158
vn 0.7027517080282693 -0.3271775599178242 -0.6317395675035472
vn 0.8739247102339786 -0.2845845254843074 -0.39403965371181654
vn 0.77878367450289 -0.33143618511138584 -0.5325843064967158
vn 0.8797496526322132 -0.055486623002819015 -0.4721882922746426
vn 0.8721600669543095 -0.24533529294384784 -0.4232580910584119
vn 0.7790016684823668 -0.1906117390437356 -0.5973471063296543
vn 0.7035513092985228 0.0730056854716111 -0.7068845203236201
vn 0.8797496526322132 -0.055486623002819015 -0.4721882922746426
vn 0.7790016684823668 -0.1906117390437356 -0.5973471063296543
vn 0.8318793143628908 0.42949747766686874 -0.35143807849025765
vn 0.8797496526322132 -0.055486623002819015 -0.4721882922746426
vn 0.7035513092985228 0.0730056854716111 -0.7068845203236201
vn 0.6994104496514836 0.5378697003956998 -0.4706603959486605
vn 0.8318793143628908 0.42949747766686874 -0.35143807849025765
vn 0.7035513092985228 0.0730056854716111 -0.7068845203236201
vn 0.31272905280093355 -0.15879293877695674 -0.936474955419956
vn 0.293823220248139 0.13097915565481072 -0.9468433746016109
vn 0.7035513092985228 0.0730056854716111 -0.7068845203236201
vn 0.7790016684823668 -0.1906117390437356 -0.5973471063296543
vn 0.31272905280093355 -0.15879293877695674 -0.936474955419956
vn 0.7035513092985228 0.0730056854716111 -0.7068845203236201
vn 0.31364814248636524 0.7616741724246028 0.5669896804847061
vn 0.665667048714967 0.6975730570364655 0.265102263950925
vn 0.6832439007280632 0.7275776547766422 0.06171327561896008
vn 0.0919321479276227 0.9796933353675543 -0.17818375013959675
vn 0.31364814248636524 0.7616741724246028 0.5669896804847061
vn 0.6832439007280632 0.7275776547766422 0.06171327561896008
vn 0.31272905280093355 -0.15879293877695674 -0.936474955419956
vn 0.16746568452840582 -0.14066505241483232 -0.9757912622761923
vn 0.1749030041980555 0.02046293204827519 -0.98437300223771
vn 0.293823220248139 0.13097915565481072 -0.9468433746016109
vn 0.31272905280093355 -0.15879293877695674 -0.936474955419956
vn 0.1749030041980555 0.02046293204827519 -0.98437300223771
vn 0.27326882850021716 0.526611408489347 -0.8049873115888132
vn 0.19847836588797446 0.4181888295802525 -0.8864109888131677
vn -0.027175174148197843 0.9093128149021718 -0.4152248963690687
vn 0.0919321479276227 0.9796933353675543 -0.17818375013959675
vn 0.27326882850021716 0.526611408489347 -0.8049873115888132
vn -0.027175174148197843 0.9093128149021718 -0.4152248963690687
vn 0.8721600669543095 -0.24533529294384784 -0.4232580910584119
vn 0.8739247102339786 -0.2845845254843074 -0.39403965371181654
vn 0.7027517080282693 -0.3271775599178242 -0.6317395675035472
vn 0.7790016684823668 -0.1906117390437356 -0.5973471063296543
vn 0.8721600669543095 -0.24533529294384784 -0.4232580910584119
vn 0.7027517080282693 -0.3271775599178242 -0.6317395675035472
vn 0.30289535042141974 -0.41209454049231076 -0.8593209507451315
vn 0.3025640958561584 -0.32003496123102854 -0.8977931785709888
vn 0.7027517080282693 -0.3271775599178242 -0.6317395675035472
vn 0.77878367450289 -0.33143618511138584 -0.5325843064967158
vn 0.30289535042141974 -0.41209454049231076 -0.8593209507451315
vn 0.7027517080282693 -0.3271775599178242 -0.6317395675035472
vn 0.31272905280093355 -0.15879293877695674 -0.936474955419956
vn 0.3025640958561584 -0.32003496123102854 -0.8977931785709888
vn 0.14603057828341687 -0.3050082082507341 -0.9410871708326959
vn 0.16746568452840582 -0.14066505241483232 -0.9757912622761923
vn 0.31272905280093355 -0.15879293877695674 -0.936474955419956
vn 0.14603057828341687 -0.3050082082507341 -0.9410871708326959
vn 0.05104562061539482 0.8406626821267507 0.5391480311523422
vn 0.31364814248636524 0.7616741724246028 0.5669896804847061
vn 0.0919321479276227 0.9796933353675543 -0.17818375013959675
vn -0.2696706444118568 0.9608849736122017 0.06306989003298194
vn -0.15233966812492322 0.944150156286959 0.29218676886351186
vn 0.0919321479276227 0.9796933353675543 -0.17818375013959675
vn -0.027175174148197843 0.9093128149021718 -0.4152248963690687
vn -0.2696706444118568 0.9608849736122017 0.06306989003298194
vn 0.0919321479276227 0.9796933353675543 -0.17818375013959675
vn 0.7035513092985228 0.0730056854716111 -0.7068845203236201
vn 0.293823220248139 0.13097915565481072 -0.9468433746016109
vn 0.27326882850021716 0.526611408489347 -0.8049873115888132
vn 0.6994104496514836 0.5378697003956998 -0.4706603959486605
vn 0.7035513092985228 0.0730056854716111 -0.7068845203236201
vn 0.27326882850021716 0.526611408489347 -0.8049873115888132
vn 0.7027517080282693 -0.3271775599178242 -0.6317395675035472
vn 0.3025640958561584 -0.32003496123102854 -0.8977931785709888
vn 0.31272905280093355 -0.15879293877695674 -0.936474955419956
vn 0.7790016684823668 -0.1906117390437356 -0.5973471063296543
vn 0.7027517080282693 -0.3271775599178242 -0.6317395675035472
vn 0.31272905280093355 -0.15879293877695674 -0.936474955419956
vn 0.14603057828341687 -0.3050082082507341 -0.9410871708326959
vn 0.3025640958561584 -0.32003496123102854 -0.8977931785709888
vn 0.30289535042141974 -0.41209454049231076 -0.8593209507451315
vn 0.0982893901163103 -0.4162531675714016 -0.9039206249872488
vn 0.14603057828341687 -0.3050082082507341 -0.9410871708326959
vn 0.30289535042141974 -0.41209454049231076 -0.8593209507451315
vn 0.19847836588797446 0.4181888295802525 -0.8864109888131677
vn 0.27326882850021716 0.526611408489347 -0.8049873115888132
vn 0.293823220248139 0.13097915565481072 -0.9468433746016109
vn 0.1749030041980555 0.02046293204827519 -0.98437300223771
vn 0.19847836588797446 0.4181888295802525 -0.8864109888131677
vn 0.293823220248139 0.13097915565481072 -0.9468433746016109
vn 0.0919321479276227 0.9796933353675543 -0.17818375013959675
vn -0.15233966812492322 0.944150156286959 0.29218676886351186
vn 0.05104562061539482 0.8406626821267507 0.5391480311523422
vn -0.08358528992613365 0.8009644538380609 0.5928485835319683
vn 0.07454238663443626 0.7796440361052109 0.6217705441402149
vn 0.05104562061539482 0.8406626821267507 0.5391480311523422
vn -0.15233966812492322 0.944150156286959 0.29218676886351186
vn -0.08358528992613365 0.8009644538380609 0.5928485835319683
vn 0.05104562061539482 0.8406626821267507 0.5391480311523422
vn 0.3003704913236366 0.7224063914511016 0.6228214620038351
vn 0.665667048714967 0.6975730570364655 0.265102263950925
vn 0.31364814248636524 0.7616741724246028 0.5669896804847061
vn 0.07454238663443626 0.7796440361052109 0.6217705441402149
vn 0.3003704913236366 0.7224063914511016 0.6228214620038351
vn 0.31364814248636524 0.7616741724246028 0.5669896804847061
vn 0.05104562061539482 0.8406626821267507 0.5391480311523422
vn 0.07454238663443626 0.7796440361052109 0.6217705441402149
vn 0.31364814248636524 0.7616741724246028 0.5669896804847061
f 1//1 2//2 3//3
f 4//4 5//5 6//6
f 7//7 8//8 9//9
f 10//10 11//11 12//12
f 13//13 14//14 15//15
f 16//16 17//17 18//18
f 19//19 20//20 21//21
f 22//22 23//23 24//24
f 25//25 26//26 27//27
f 28//28 29//29 30//30
f 31//31 32//32 33//33
f 34//34 35//35 36//36
f 37//37 38//38 39//39
f 40//40 41//41 42//42
f 43//43 44//44 45//45
f 46//46 47//47 48//48
f 49//49 50//50 51//51
f 52//52 53//53 54//54
f 55//55 56//56 57//57
f 58//58 59//59 60//60
f 61//61 62//62 63//63
f 64//64 65//65 66//66
f 67//67 68//68 69//69
f 70//70 71//71 72//72
f 73//73 74//74 75//75
f 76//76 77//77 78//78
f 79//79 80//80 81//81
f 82//82 83//83 84//84
f 85//85 86//86 87//87
f 88//88 89//89 90//90
f 91//91 92//92 93//93
f 94//94 95//95 96//96
f 97//97 98//98 99//99
f 100//100 101//101 102//102
f 103//103 104//104 105//105
f 106//106 107//107 108//108
f 109//109 110//110 111//111
f 112//112 113//113 114//114
f 115//115 116//116 117//117
f 118//118 119//119 120//120
f 121//121 122//122 123//123
