mtllib ArcadaCompleta.mtl
o D74C_V
usemtl Esmalte
v 24.49220085144043 -48.00093364715576 3.319099321498971
v 23.99139976501465 -48.00093364715576 3.288039341106515
v 23.59760093688965 -49.400431632995605 2.7258893395806356
v 24.458499908447266 -49.378432273864746 2.620829477443795
v 24.49220085144043 -48.00093364715576 3.319099321498971
v 23.59760093688965 -49.400431632995605 2.7258893395806356
v 25.518299102783203 -48.00093364715576 2.7542694951439906
v 24.49220085144043 -48.00093364715576 3.319099321498971
v 24.458499908447266 -49.378432273864746 2.620829477443795
v 25.343799591064453 -49.27883434295654 2.434459343090157
v 25.518299102783203 -48.00093364715576 2.7542694951439906
v 24.458499908447266 -49.378432273864746 2.620829477443795
v 23.199100494384766 -48.00093364715576 3.2324894811059046
v 22.300600051879883 -48.00093364715576 3.332299366130929
v 22.736799240112305 -49.378432273864746 2.620829477443795
v 23.59760093688965 -49.400431632995605 2.7258893395806356
v 23.199100494384766 -48.00093364715576 3.2324894811059046
v 22.736799240112305 -49.378432273864746 2.620829477443795
v 21.851499557495117 -49.27883434295654 2.570429458751778
v 21.645700454711914 -48.00093364715576 3.182779445781808
v 20.912399291992188 -48.00093364715576 2.624089374675851
v 21.058500289916992 -49.17913341522217 2.063309326305489
v 21.851499557495117 -49.27883434295654 2.570429458751778
v 20.912399291992188 -48.00093364715576 2.624089374675851
v 23.59760093688965 -49.400431632995605 2.7258893395806356
v 23.99139976501465 -48.00093364715576 3.288039341106515
v 23.199100494384766 -48.00093364715576 3.2324894811059046
v 22.300600051879883 -48.00093364715576 3.332299366130929
v 21.645700454711914 -48.00093364715576 3.182779445781808
v 21.851499557495117 -49.27883434295654 2.570429458751778
v 22.736799240112305 -49.378432273864746 2.620829477443795
v 22.300600051879883 -48.00093364715576 3.332299366130929
v 21.851499557495117 -49.27883434295654 2.570429458751778
vn 0.2367751423096855 -0.42595853929356514 0.873210658883136
vn -0.06242930199518454 -0.35683117484660754 0.9320805195421605
vn -0.026204170614426932 -0.3899578168259835 0.9204597995234354
vn 0.28488647825898644 -0.3904583328358628 0.8754324558892198
vn 0.2367751423096855 -0.42595853929356514 0.873210658883136
vn -0.026204170614426932 -0.3899578168259835 0.9204597995234354
vn 0.3575721793886497 -0.3586334698362137 0.8622784763871175
vn 0.2367751423096855 -0.42595853929356514 0.873210658883136
vn 0.28488647825898644 -0.3904583328358628 0.8754324558892198
vn 0.22711858796305048 -0.26550317058555223 0.9369766343995399
vn 0.3575721793886497 -0.3586334698362137 0.8622784763871175
vn 0.28488647825898644 -0.3904583328358628 0.8754324558892198
vn -0.025585596261519288 -0.3891736978084473 0.9208089976743505
vn -0.05291307393038612 -0.4583494108776292 0.8871955952073745
vn -0.04020231247332796 -0.430935237067187 0.9014868803957405
vn -0.026204170614426932 -0.3899578168259835 0.9204597995234354
vn -0.025585596261519288 -0.3891736978084473 0.9208089976743505
vn -0.04020231247332796 -0.430935237067187 0.9014868803957405
vn -0.3576874336044027 -0.4561775118530051 0.8148384978148109
vn -0.4064601481252855 -0.44723615767259617 0.796724524071039
vn -0.5367345141762123 -0.4250398817164737 0.7288738987249244
vn -0.5261818457925073 -0.41778040461699295 0.740670101108754
vn -0.3576874336044027 -0.4561775118530051 0.8148384978148109
vn -0.5367345141762123 -0.4250398817164737 0.7288738987249244
vn -0.026204170614426932 -0.3899578168259835 0.9204597995234354
vn -0.06242930199518454 -0.35683117484660754 0.9320805195421605
vn -0.025585596261519288 -0.3891736978084473 0.9208089976743505
vn -0.05291307393038612 -0.4583494108776292 0.8871955952073745
vn -0.4064601481252855 -0.44723615767259617 0.796724524071039
vn -0.3576874336044027 -0.4561775118530051 0.8148384978148109
vn -0.04020231247332796 -0.430935237067187 0.9014868803957405
vn -0.05291307393038612 -0.4583494108776292 0.8871955952073745
vn -0.3576874336044027 -0.4561775118530051 0.8148384978148109
f 1//1 2//2 3//3
f 4//4 5//5 6//6
f 7//7 8//8 9//9
f 10//10 11//11 12//12
f 13//13 14//14 15//15
f 16//16 17//17 18//18
f 19//19 20//20 21//21
f 22//22 23//23 24//24
f 25//25 26//26 27//27
f 28//28 29//29 30//30
f 31//31 32//32 33//33
