mtllib ArcadaCompleta.mtl
o D83C_F
usemtl Esmalte
v -15.208800315856934 -45.02963161468506 1.4382394696618135
v -15.260299682617188 -46.1868314743042 1.9853494311715179
v -14.23740005493164 -46.1868314743042 1.7959494735146575
v -15.208800315856934 -45.02963161468506 1.4382394696618135
v -14.23740005493164 -46.1868314743042 1.7959494735146575
v -14.1673002243042 -45.02963161468506 1.3540294314766939
v -15.208800315856934 -45.02963161468506 1.4382394696618135
v -16.250200271606445 -45.02963161468506 1.3540294314766939
v -16.283300399780273 -46.1868314743042 1.7959494735146575
v -15.208800315856934 -45.02963161468506 1.4382394696618135
v -16.283300399780273 -46.1868314743042 1.7959494735146575
v -15.260299682617188 -46.1868314743042 1.9853494311715179
v -15.208800315856934 -45.02963161468506 1.4382394696618135
v -14.930299758911133 -44.26143169403076 0.9305614377404269
v -15.69279956817627 -44.27573299407959 0.8939784313584384
v -15.208800315856934 -45.02963161468506 1.4382394696618135
v -15.69279956817627 -44.27573299407959 0.8939784313584384
v -16.250200271606445 -45.02963161468506 1.3540294314766939
v -15.208800315856934 -47.187533378601074 2.3249193574334193
v -15.260299682617188 -46.1868314743042 1.9853494311715179
v -16.283300399780273 -46.1868314743042 1.7959494735146575
v -15.208800315856934 -47.187533378601074 2.3249193574334193
v -16.283300399780273 -46.1868314743042 1.7959494735146575
v -16.200000762939453 -47.187533378601074 2.122559442653756
v -15.208800315856934 -47.187533378601074 2.3249193574334193
v -14.217599868774414 -47.187533378601074 2.122559442653756
v -14.23740005493164 -46.1868314743042 1.7959494735146575
v -15.208800315856934 -47.187533378601074 2.3249193574334193
v -14.23740005493164 -46.1868314743042 1.7959494735146575
v -15.260299682617188 -46.1868314743042 1.9853494311715179
v -16.250200271606445 -45.02963161468506 1.3540294314766939
v -16.598800659179688 -45.02963161468506 1.254509463443857
v -16.63159942626953 -46.1868314743042 1.6581593896294646
v -16.250200271606445 -45.02963161468506 1.3540294314766939
v -16.63159942626953 -46.1868314743042 1.6581593896294646
v -16.283300399780273 -46.1868314743042 1.7959494735146575
v -14.1673002243042 -45.02963161468506 1.3540294314766939
v -14.23740005493164 -46.1868314743042 1.7959494735146575
v -13.856900215148926 -46.1868314743042 1.6584193850899749
v -14.1673002243042 -45.02963161468506 1.3540294314766939
v -13.856900215148926 -46.1868314743042 1.6584193850899749
v -13.70580005645752 -45.02963161468506 1.254129424228769
v -14.1673002243042 -45.02963161468506 1.3540294314766939
v -14.167799949645996 -44.27573299407959 0.8939784313584384
v -14.930299758911133 -44.26143169403076 0.9305614377404269
v -14.1673002243042 -45.02963161468506 1.3540294314766939
v -14.930299758911133 -44.26143169403076 0.9305614377404269
v -15.208800315856934 -45.02963161468506 1.4382394696618135
v -16.200000762939453 -47.187533378601074 2.122559442653756
v -16.283300399780273 -46.1868314743042 1.7959494735146575
v -16.63159942626953 -46.1868314743042 1.6581593896294646
v -16.200000762939453 -47.187533378601074 2.122559442653756
v -16.63159942626953 -46.1868314743042 1.6581593896294646
v -16.521699905395508 -47.187533378601074 1.9043594743157437
v -14.23740005493164 -46.1868314743042 1.7959494735146575
v -14.217599868774414 -47.187533378601074 2.122559442653756
v -13.895899772644043 -47.187533378601074 1.9043594743157437
v -14.23740005493164 -46.1868314743042 1.7959494735146575
v -13.895899772644043 -47.187533378601074 1.9043594743157437
v -13.856900215148926 -46.1868314743042 1.6584193850899749
v -15.69279956817627 -44.27573299407959 0.8939784313584384
v -16.431800842285156 -44.52403163909912 0.7634974266434725
v -16.598800659179688 -45.02963161468506 1.254509463443857
v -15.69279956817627 -44.27573299407959 0.8939784313584384
v -16.598800659179688 -45.02963161468506 1.254509463443857
v -16.250200271606445 -45.02963161468506 1.3540294314766939
v -13.70580005645752 -45.02963161468506 1.254129424228769
v -13.600700378417969 -44.28393077850342 0.7896804357911166
v -14.167799949645996 -44.27573299407959 0.8939784313584384
v -13.70580005645752 -45.02963161468506 1.254129424228769
v -14.167799949645996 -44.27573299407959 0.8939784313584384
v -14.1673002243042 -45.02963161468506 1.3540294314766939
v -15.208800315856934 -47.187533378601074 2.3249193574334193
v -16.200000762939453 -47.187533378601074 2.122559442653756
v -16.098499298095703 -48.225234031677246 2.2823993111992884
v -15.208800315856934 -47.187533378601074 2.3249193574334193
v -16.098499298095703 -48.225234031677246 2.2823993111992884
v -15.208800315856934 -48.225234031677246 2.4233294869805384
v -15.208800315856934 -48.225234031677246 2.4233294869805384
v -14.319000244140625 -48.225234031677246 2.2823993111992884
v -14.217599868774414 -47.187533378601074 2.122559442653756
v -15.208800315856934 -48.225234031677246 2.4233294869805384
v -14.217599868774414 -47.187533378601074 2.122559442653756
v -15.208800315856934 -47.187533378601074 2.3249193574334193
v -14.319000244140625 -48.225234031677246 2.2823993111992884
v -13.648500442504883 -48.00573253631592 1.6406793738747645
v -13.895899772644043 -47.187533378601074 1.9043594743157437
v -14.319000244140625 -48.225234031677246 2.2823993111992884
v -13.895899772644043 -47.187533378601074 1.9043594743157437
v -14.217599868774414 -47.187533378601074 2.122559442653756
v -16.521699905395508 -47.187533378601074 1.9043594743157437
v -16.769100189208984 -48.00573253631592 1.6406793738747645
v -16.098499298095703 -48.225234031677246 2.2823993111992884
v -16.521699905395508 -47.187533378601074 1.9043594743157437
v -16.098499298095703 -48.225234031677246 2.2823993111992884
v -16.200000762939453 -47.187533378601074 2.122559442653756
vt 0.5138000249862671 0.738103985786438
vt 0.5036140084266663 0.544471025466919
vt 0.705702006816864 0.544471025466919
vt 0.5138000249862671 0.738103985786438
vt 0.705702006816864 0.544471025466919
vt 0.719543993473053 0.738103985786438
vt 0.5138000249862671 0.738103985786438
vt 0.3080559968948364 0.738103985786438
vt 0.3015260100364685 0.544471025466919
vt 0.5138000249862671 0.738103985786438
vt 0.3015260100364685 0.544471025466919
vt 0.5036140084266663 0.544471025466919
vt 0.5138000249862671 0.738103985786438
vt 0.568809986114502 0.8666309714317322
vt 0.41817599534988403 0.8642370104789734
vt 0.5138000249862671 0.738103985786438
vt 0.41817599534988403 0.8642370104789734
vt 0.3080559968948364 0.738103985786438
vt 0.5138000249862671 0.3770359754562378
vt 0.5036140084266663 0.544471025466919
vt 0.3015260100364685 0.544471025466919
vt 0.5138000249862671 0.3770359754562378
vt 0.3015260100364685 0.544471025466919
vt 0.3179889917373657 0.3770359754562378
vt 0.5138000249862671 0.3770359754562378
vt 0.7096109986305237 0.3770359754562378
vt 0.705702006816864 0.544471025466919
vt 0.5138000249862671 0.3770359754562378
vt 0.705702006816864 0.544471025466919
vt 0.5036140084266663 0.544471025466919
vt 0.3080559968948364 0.738103985786438
vt 0.23919600248336792 0.738103985786438
vt 0.23272700607776642 0.544471025466919
vt 0.3080559968948364 0.738103985786438
vt 0.23272700607776642 0.544471025466919
vt 0.3015260100364685 0.544471025466919
vt 0.719543993473053 0.738103985786438
vt 0.705702006816864 0.544471025466919
vt 0.7808799743652344 0.544471025466919
vt 0.719543993473053 0.738103985786438
vt 0.7808799743652344 0.544471025466919
vt 0.8107280135154724 0.738103985786438
vt 0.719543993473053 0.738103985786438
vt 0.7194439768791199 0.8642370104789734
vt 0.568809986114502 0.8666309714317322
vt 0.719543993473053 0.738103985786438
vt 0.568809986114502 0.8666309714317322
vt 0.5138000249862671 0.738103985786438
vt 0.3179889917373657 0.3770359754562378
vt 0.3015260100364685 0.544471025466919
vt 0.23272700607776642 0.544471025466919
vt 0.3179889917373657 0.3770359754562378
vt 0.23272700607776642 0.544471025466919
vt 0.2544339895248413 0.3770359754562378
vt 0.705702006816864 0.544471025466919
vt 0.7096109986305237 0.3770359754562378
vt 0.7731660008430481 0.3770359754562378
vt 0.705702006816864 0.544471025466919
vt 0.7731660008430481 0.3770359754562378
vt 0.7808799743652344 0.544471025466919
vt 0.41817599534988403 0.8642370104789734
vt 0.2721869945526123 0.8226979970932007
vt 0.23919600248336792 0.738103985786438
vt 0.41817599534988403 0.8642370104789734
vt 0.23919600248336792 0.738103985786438
vt 0.3080559968948364 0.738103985786438
vt 0.8107280135154724 0.738103985786438
vt 0.8314759731292725 0.8628820180892944
vt 0.7194439768791199 0.8642370104789734
vt 0.8107280135154724 0.738103985786438
vt 0.7194439768791199 0.8642370104789734
vt 0.719543993473053 0.738103985786438
vt 0.5138000249862671 0.3770359754562378
vt 0.3179889917373657 0.3770359754562378
vt 0.3380270004272461 0.20340698957443237
vt 0.5138000249862671 0.3770359754562378
vt 0.3380270004272461 0.20340698957443237
vt 0.5138000249862671 0.20340698957443237
vt 0.5138000249862671 0.20340698957443237
vt 0.6895729899406433 0.20340698957443237
vt 0.7096109986305237 0.3770359754562378
vt 0.5138000249862671 0.20340698957443237
vt 0.7096109986305237 0.3770359754562378
vt 0.5138000249862671 0.3770359754562378
vt 0.6895729899406433 0.20340698957443237
vt 0.8220409750938416 0.24014198780059814
vt 0.7731660008430481 0.3770359754562378
vt 0.6895729899406433 0.20340698957443237
vt 0.7731660008430481 0.3770359754562378
vt 0.7096109986305237 0.3770359754562378
vt 0.2544339895248413 0.3770359754562378
vt 0.20555900037288666 0.24014198780059814
vt 0.3380270004272461 0.20340698957443237
vt 0.2544339895248413 0.3770359754562378
vt 0.3380270004272461 0.20340698957443237
vt 0.3179889917373657 0.3770359754562378
vn -0.004401144582846496 0.44647845739944764 0.8947835587473492
vn 0 0.3800651695343546 0.9249597109641167
vn 0.20268848060478667 0.33873467838762394 0.918790616782603
vn -0.004401144582846496 0.44647845739944764 0.8947835587473492
vn 0.20268848060478667 0.33873467838762394 0.918790616782603
vn 0.12547569808930764 0.4255087152480388 0.8962132460731455
vn -0.004401144582846496 0.44647845739944764 0.8947835587473492
vn -0.14805122127387382 0.4370821096779035 0.887152785758365
vn -0.17966324348219206 0.3460625161609762 0.920848442388753
vn -0.004401144582846496 0.44647845739944764 0.8947835587473492
vn -0.17966324348219206 0.3460625161609762 0.920848442388753
vn 0 0.3800651695343546 0.9249597109641167
vn -0.004401144582846496 0.44647845739944764 0.8947835587473492
vn 0.027310690504190892 0.5391920325995382 0.8417399112346776
vn -0.14411032417291184 0.6070184799227666 0.7815118549958358
vn -0.004401144582846496 0.44647845739944764 0.8947835587473492
vn -0.14411032417291184 0.6070184799227666 0.7815118549958358
vn -0.14805122127387382 0.4370821096779035 0.887152785758365
vn -0.020297313418406442 0.22933080527558602 0.9731368869895161
vn 0 0.3800651695343546 0.9249597109641167
vn -0.17966324348219206 0.3460625161609762 0.920848442388753
vn -0.020297313418406442 0.22933080527558602 0.9731368869895161
vn -0.17966324348219206 0.3460625161609762 0.920848442388753
vn -0.3065526134727766 0.1945448335348216 0.9317605931342658
vn -0.020297313418406442 0.22933080527558602 0.9731368869895161
vn 0.26405839534855546 0.18206432864342736 0.9471672207596524
vn 0.20268848060478667 0.33873467838762394 0.918790616782603
vn -0.020297313418406442 0.22933080527558602 0.9731368869895161
vn 0.20268848060478667 0.33873467838762394 0.918790616782603
vn 0 0.3800651695343546 0.9249597109641167
vn -0.14805122127387382 0.4370821096779035 0.887152785758365
vn -0.2904922719752486 0.5720022430202548 0.7670903948704192
vn -0.377626604284852 0.27532977332653896 0.8840767295072575
vn -0.14805122127387382 0.4370821096779035 0.887152785758365
vn -0.377626604284852 0.27532977332653896 0.8840767295072575
vn -0.17966324348219206 0.3460625161609762 0.920848442388753
vn 0.12547569808930764 0.4255087152480388 0.8962132460731455
vn 0.20268848060478667 0.33873467838762394 0.918790616782603
vn 0.27921404159412366 0.28316177624659045 0.917528706607892
vn 0.12547569808930764 0.4255087152480388 0.8962132460731455
vn 0.27921404159412366 0.28316177624659045 0.917528706607892
vn 0.18439165841248217 0.4305445109000158 0.8835333272954454
vn 0.12547569808930764 0.4255087152480388 0.8962132460731455
vn 0.12047850016966029 0.5143093010543958 0.8491000375961647
vn 0.027310690504190892 0.5391920325995382 0.8417399112346776
vn 0.12547569808930764 0.4255087152480388 0.8962132460731455
vn 0.027310690504190892 0.5391920325995382 0.8417399112346776
vn -0.004401144582846496 0.44647845739944764 0.8947835587473492
vn -0.3065526134727766 0.1945448335348216 0.9317605931342658
vn -0.17966324348219206 0.3460625161609762 0.920848442388753
vn -0.377626604284852 0.27532977332653896 0.8840767295072575
vn -0.3065526134727766 0.1945448335348216 0.9317605931342658
vn -0.377626604284852 0.27532977332653896 0.8840767295072575
vn -0.6319106677436762 0.04084747554043097 0.773964076513707
vn 0.20268848060478667 0.33873467838762394 0.918790616782603
vn 0.26405839534855546 0.18206432864342736 0.9471672207596524
vn 0.5762679115365438 0.10328562798832565 0.8107079456773365
vn 0.20268848060478667 0.33873467838762394 0.918790616782603
vn 0.5762679115365438 0.10328562798832565 0.8107079456773365
vn 0.27921404159412366 0.28316177624659045 0.917528706607892
vn -0.14411032417291184 0.6070184799227666 0.7815118549958358
vn -0.34675752678341715 0.7098871975821667 0.6130410951379894
vn -0.2904922719752486 0.5720022430202548 0.7670903948704192
vn -0.14411032417291184 0.6070184799227666 0.7815118549958358
vn -0.2904922719752486 0.5720022430202548 0.7670903948704192
vn -0.14805122127387382 0.4370821096779035 0.887152785758365
vn 0.18439165841248217 0.4305445109000158 0.8835333272954454
vn 0.16318542005143777 0.5049171521991638 0.8476020222355076
vn 0.12047850016966029 0.5143093010543958 0.8491000375961647
vn 0.18439165841248217 0.4305445109000158 0.8835333272954454
vn 0.12047850016966029 0.5143093010543958 0.8491000375961647
vn 0.12547569808930764 0.4255087152480388 0.8962132460731455
vn -0.020297313418406442 0.22933080527558602 0.9731368869895161
vn -0.3065526134727766 0.1945448335348216 0.9317605931342658
vn -0.37312013631215896 0.07575750497215103 0.9246849000166438
vn -0.020297313418406442 0.22933080527558602 0.9731368869895161
vn -0.37312013631215896 0.07575750497215103 0.9246849000166438
vn 0.07241598505952537 0.10795191659399148 0.9915151581350345
vn 0.07241598505952537 0.10795191659399148 0.9915151581350345
vn 0.4559568444380671 0.06641498923425138 0.8875203689015224
vn 0.26405839534855546 0.18206432864342736 0.9471672207596524
vn 0.07241598505952537 0.10795191659399148 0.9915151581350345
vn 0.26405839534855546 0.18206432864342736 0.9471672207596524
vn -0.020297313418406442 0.22933080527558602 0.9731368869895161
vn 0.4559568444380671 0.06641498923425138 0.8875203689015224
vn 0.6949372238112023 -0.0215018222317261 0.7187488619833039
vn 0.5762679115365438 0.10328562798832565 0.8107079456773365
vn 0.4559568444380671 0.06641498923425138 0.8875203689015224
vn 0.5762679115365438 0.10328562798832565 0.8107079456773365
vn 0.26405839534855546 0.18206432864342736 0.9471672207596524
vn -0.6319106677436762 0.04084747554043097 0.773964076513707
vn -0.6948874080002209 -0.021531338145928995 0.718796140557516
vn -0.37312013631215896 0.07575750497215103 0.9246849000166438
vn -0.6319106677436762 0.04084747554043097 0.773964076513707
vn -0.37312013631215896 0.07575750497215103 0.9246849000166438
vn -0.3065526134727766 0.1945448335348216 0.9317605931342658
f 1/1/1 2/2/2 3/3/3
f 4/4/4 5/5/5 6/6/6
f 7/7/7 8/8/8 9/9/9
f 10/10/10 11/11/11 12/12/12
f 13/13/13 14/14/14 15/15/15
f 16/16/16 17/17/17 18/18/18
f 19/19/19 20/20/20 21/21/21
f 22/22/22 23/23/23 24/24/24
f 25/25/25 26/26/26 27/27/27
f 28/28/28 29/29/29 30/30/30
f 31/31/31 32/32/32 33/33/33
f 34/34/34 35/35/35 36/36/36
f 37/37/37 38/38/38 39/39/39
f 40/40/40 41/41/41 42/42/42
f 43/43/43 44/44/44 45/45/45
f 46/46/46 47/47/47 48/48/48
f 49/49/49 50/50/50 51/51/51
f 52/52/52 53/53/53 54/54/54
f 55/55/55 56/56/56 57/57/57
f 58/58/58 59/59/59 60/60/60
f 61/61/61 62/62/62 63/63/63
f 64/64/64 65/65/65 66/66/66
f 67/67/67 68/68/68 69/69/69
f 70/70/70 71/71/71 72/72/72
f 73/73/73 74/74/74 75/75/75
f 76/76/76 77/77/77 78/78/78
f 79/79/79 80/80/80 81/81/81
f 82/82/82 83/83/83 84/84/84
f 85/85/85 86/86/86 87/87/87
f 88/88/88 89/89/89 90/90/90
f 91/91/91 92/92/92 93/93/93
f 94/94/94 95/95/95 96/96/96
