mtllib ArcadaCompleta.mtl
o D84C_V
usemtl Esmalte
v -23.814300537109375 -49.400431632995605 2.7258893395806356
v -24.208099365234375 -48.00093364715576 3.288039341106515
v -24.708799362182617 -48.00093364715576 3.319099321498971
v -23.814300537109375 -49.400431632995605 2.7258893395806356
v -24.708799362182617 -48.00093364715576 3.319099321498971
v -24.675100326538086 -49.378432273864746 2.620829477443795
v -24.675100326538086 -49.378432273864746 2.620829477443795
v -24.708799362182617 -48.00093364715576 3.319099321498971
v -25.735000610351562 -48.00093364715576 2.7542694951439906
v -24.675100326538086 -49.378432273864746 2.620829477443795
v -25.735000610351562 -48.00093364715576 2.7542694951439906
v -25.560400009155273 -49.27883434295654 2.434459343090157
v -22.953399658203125 -49.378432273864746 2.620829477443795
v -22.51729965209961 -48.00093364715576 3.332299366130929
v -23.415700912475586 -48.00093364715576 3.2324894811059046
v -22.953399658203125 -49.378432273864746 2.620829477443795
v -23.415700912475586 -48.00093364715576 3.2324894811059046
v -23.814300537109375 -49.400431632995605 2.7258893395806356
v -21.129100799560547 -48.00093364715576 2.624089374675851
v -21.86240005493164 -48.00093364715576 3.182779445781808
v -22.068099975585938 -49.27883434295654 2.570429458751778
v -21.129100799560547 -48.00093364715576 2.624089374675851
v -22.068099975585938 -49.27883434295654 2.570429458751778
v -21.27519989013672 -49.17913341522217 2.063309326305489
v -23.415700912475586 -48.00093364715576 3.2324894811059046
v -24.208099365234375 -48.00093364715576 3.288039341106515
v -23.814300537109375 -49.400431632995605 2.7258893395806356
v -22.068099975585938 -49.27883434295654 2.570429458751778
v -21.86240005493164 -48.00093364715576 3.182779445781808
v -22.51729965209961 -48.00093364715576 3.332299366130929
v -22.068099975585938 -49.27883434295654 2.570429458751778
v -22.51729965209961 -48.00093364715576 3.332299366130929
v -22.953399658203125 -49.378432273864746 2.620829477443795
vn 0.026204209200645368 -0.38995616982122966 0.9204604961857544
vn 0.06242940589677426 -0.35683117252296265 0.932080513472556
vn -0.23678404037815456 -0.42595994074005306 0.8732075624425886
vn 0.026204209200645368 -0.38995616982122966 0.9204604961857544
vn -0.23678404037815456 -0.42595994074005306 0.8732075624425886
vn -0.2848862291518958 -0.3904627212161453 0.8754305796464368
vn -0.2848862291518958 -0.3904627212161453 0.8754305796464368
vn -0.23678404037815456 -0.42595994074005306 0.8732075624425886
vn -0.35755437560907005 -0.3586462432928117 0.8622805463738361
vn -0.2848862291518958 -0.3904627212161453 0.8754305796464368
vn -0.35755437560907005 -0.3586462432928117 0.8622805463738361
vn -0.2271194421398742 -0.26552003194066987 0.9369716493257937
vn 0.040202250318476455 -0.43093324277789596 0.9014878364893547
vn 0.05291523569257596 -0.45834613716500006 0.88719715755717
vn 0.025584607672549508 -0.38917305233073696 0.9208092979492656
vn 0.040202250318476455 -0.43093324277789596 0.9014878364893547
vn 0.025584607672549508 -0.38917305233073696 0.9208092979492656
vn 0.026204209200645368 -0.38995616982122966 0.9204604961857544
vn 0.5367629819968635 -0.4250179884426419 0.7288657013867541
vn 0.40646632089345236 -0.4472108923514474 0.7967355569707952
vn 0.35769874256820705 -0.45616388830168497 0.8148411603340933
vn 0.5367629819968635 -0.4250179884426419 0.7288657013867541
vn 0.35769874256820705 -0.45616388830168497 0.8148411603340933
vn 0.5262284847468762 -0.4177717842723029 0.7406418284886042
vn 0.025584607672549508 -0.38917305233073696 0.9208092979492656
vn 0.06242940589677426 -0.35683117252296265 0.932080513472556
vn 0.026204209200645368 -0.38995616982122966 0.9204604961857544
vn 0.35769874256820705 -0.45616388830168497 0.8148411603340933
vn 0.40646632089345236 -0.4472108923514474 0.7967355569707952
vn 0.05291523569257596 -0.45834613716500006 0.88719715755717
vn 0.35769874256820705 -0.45616388830168497 0.8148411603340933
vn 0.05291523569257596 -0.45834613716500006 0.88719715755717
vn 0.040202250318476455 -0.43093324277789596 0.9014878364893547
f 1//1 2//2 3//3
f 4//4 5//5 6//6
f 7//7 8//8 9//9
f 10//10 11//11 12//12
f 13//13 14//14 15//15
f 16//16 17//17 18//18
f 19//19 20//20 21//21
f 22//22 23//23 24//24
f 25//25 26//26 27//27
f 28//28 29//29 30//30
f 31//31 32//32 33//33
