mtllib ArcadaCompleta.mtl
o D84C_CML
usemtl Esmalte
v -21.399799346923828 -44.26683330535889 -2.2319506262396756
v -20.872600555419922 -44.6072301864624 -1.6565605257605496
v -20.678800582885742 -45.390334129333496 -1.8337205504034941
v -21.399799346923828 -44.26683330535889 -2.2319506262396756
v -20.678800582885742 -45.390334129333496 -1.8337205504034941
v -21.238000869750977 -45.14783000946045 -2.5496705626105256
v -21.399799346923828 -44.26683330535889 -2.2319506262396756
v -21.99169921875 -44.17763042449951 -2.5651105497931423
v -22.230300903320312 -43.4446325302124 -2.0861605261420193
v -21.399799346923828 -44.26683330535889 -2.2319506262396756
v -22.230300903320312 -43.4446325302124 -2.0861605261420193
v -21.597400665283203 -43.974833488464355 -1.8222305630301419
v -21.27519989013672 -49.17913341522217 -2.0558305834387736
v -21.108299255371094 -48.00093364715576 -2.6904705618475866
v -20.66900062561035 -48.00093364715576 -1.7163405274008703
v -21.27519989013672 -49.17913341522217 -2.0558305834387736
v -20.66900062561035 -48.00093364715576 -1.7163405274008703
v -20.716999053955078 -49.00963115692139 -1.0759405945395424
v -21.27519989013672 -49.17913341522217 -2.0558305834387736
v -22.068099975585938 -49.27883434295654 -2.5629504774664835
v -21.86240005493164 -48.00093364715576 -3.0695406054114294
v -21.27519989013672 -49.17913341522217 -2.0558305834387736
v -21.86240005493164 -48.00093364715576 -3.0695406054114294
v -21.108299255371094 -48.00093364715576 -2.6904705618475866
v -21.242000579833984 -46.63543224334717 -2.6563006495093298
v -21.238000869750977 -45.14783000946045 -2.5496705626105256
v -20.678800582885742 -45.390334129333496 -1.8337205504034941
v -21.242000579833984 -46.63543224334717 -2.6563006495093298
v -20.678800582885742 -45.390334129333496 -1.8337205504034941
v -20.68899917602539 -46.753432273864746 -1.8804105375861115
v -21.242000579833984 -46.63543224334717 -2.6563006495093298
v -20.68899917602539 -46.753432273864746 -1.8804105375861115
v -20.66900062561035 -48.00093364715576 -1.7163405274008703
v -21.242000579833984 -46.63543224334717 -2.6563006495093298
v -20.66900062561035 -48.00093364715576 -1.7163405274008703
v -21.108299255371094 -48.00093364715576 -2.6904705618475866
v -21.238000869750977 -45.14783000946045 -2.5496705626105256
v -22.003299713134766 -45.162631034851074 -2.945050582752127
v -21.99169921875 -44.17763042449951 -2.5651105497931423
v -21.238000869750977 -45.14783000946045 -2.5496705626105256
v -21.99169921875 -44.17763042449951 -2.5651105497931423
v -21.399799346923828 -44.26683330535889 -2.2319506262396756
v -21.597400665283203 -43.974833488464355 -1.8222305630301419
v -21.38640022277832 -44.13183116912842 -1.592880592212576
v -21.19860076904297 -44.288832664489746 -1.329280600414175
v -21.597400665283203 -43.974833488464355 -1.8222305630301419
v -21.19860076904297 -44.288832664489746 -1.329280600414175
v -20.872600555419922 -44.6072301864624 -1.6565605257605496
v -21.597400665283203 -43.974833488464355 -1.8222305630301419
v -20.872600555419922 -44.6072301864624 -1.6565605257605496
v -21.399799346923828 -44.26683330535889 -2.2319506262396756
v -23.293399810791016 -44.25232982635498 -2.9957204912756863
v -23.35770034790039 -43.73823070526123 -2.629060611591238
v -22.230300903320312 -43.4446325302124 -2.0861605261420193
v -23.293399810791016 -44.25232982635498 -2.9957204912756863
v -22.230300903320312 -43.4446325302124 -2.0861605261420193
v -21.99169921875 -44.17763042449951 -2.5651105497931423
v -22.953399658203125 -49.378432273864746 -2.6133504961585
v -22.91189956665039 -48.00093364715576 -3.244020566806693
v -21.86240005493164 -48.00093364715576 -3.0695406054114294
v -22.953399658203125 -49.378432273864746 -2.6133504961585
v -21.86240005493164 -48.00093364715576 -3.0695406054114294
v -22.068099975585938 -49.27883434295654 -2.5629504774664835
v -23.098800659179688 -46.66883373260498 -3.468700513706107
v -21.98390007019043 -46.63543224334717 -3.0299805258368444
v -21.86240005493164 -48.00093364715576 -3.0695406054114294
v -23.098800659179688 -46.66883373260498 -3.468700513706107
v -21.86240005493164 -48.00093364715576 -3.0695406054114294
v -22.91189956665039 -48.00093364715576 -3.244020566806693
v -23.17650032043457 -45.19243144989014 -3.3776405905341096
v -22.003299713134766 -45.162631034851074 -2.945050582752127
v -21.98390007019043 -46.63543224334717 -3.0299805258368444
v -23.17650032043457 -45.19243144989014 -3.3776405905341096
v -21.98390007019043 -46.63543224334717 -3.0299805258368444
v -23.098800659179688 -46.66883373260498 -3.468700513706107
v -23.35770034790039 -43.73823070526123 -2.629060611591238
v -23.499399185180664 -43.8572301864624 -2.0135806654547634
v -23.12150001525879 -43.79983043670654 -1.8276905869101465
v -23.35770034790039 -43.73823070526123 -2.629060611591238
v -23.12150001525879 -43.79983043670654 -1.8276905869101465
v -22.230300903320312 -43.4446325302124 -2.0861605261420193
v -21.108299255371094 -48.00093364715576 -2.6904705618475866
v -21.86240005493164 -48.00093364715576 -3.0695406054114294
v -21.98390007019043 -46.63543224334717 -3.0299805258368444
v -21.108299255371094 -48.00093364715576 -2.6904705618475866
v -21.98390007019043 -46.63543224334717 -3.0299805258368444
v -21.242000579833984 -46.63543224334717 -2.6563006495093298
v -22.230300903320312 -43.4446325302124 -2.0861605261420193
v -21.7908992767334 -43.8843297958374 -1.4262705896948757
v -21.597400665283203 -43.974833488464355 -1.8222305630301419
v -22.230300903320312 -43.4446325302124 -2.0861605261420193
v -23.12150001525879 -43.79983043670654 -1.8276905869101465
v -22.76729965209961 -43.72263240814209 -1.276910529003042
v -21.98390007019043 -46.63543224334717 -3.0299805258368444
v -22.003299713134766 -45.162631034851074 -2.945050582752127
v -21.238000869750977 -45.14783000946045 -2.5496705626105256
v -21.98390007019043 -46.63543224334717 -3.0299805258368444
v -21.238000869750977 -45.14783000946045 -2.5496705626105256
v -21.242000579833984 -46.63543224334717 -2.6563006495093298
v -21.99169921875 -44.17763042449951 -2.5651105497931423
v -22.003299713134766 -45.162631034851074 -2.945050582752127
v -23.17650032043457 -45.19243144989014 -3.3776405905341096
v -21.99169921875 -44.17763042449951 -2.5651105497931423
v -23.17650032043457 -45.19243144989014 -3.3776405905341096
v -23.293399810791016 -44.25232982635498 -2.9957204912756863
v -22.76729965209961 -43.72263240814209 -1.276910529003042
v -21.7908992767334 -43.8843297958374 -1.4262705896948757
v -22.230300903320312 -43.4446325302124 -2.0861605261420193
v -22.76729965209961 -43.72263240814209 -1.276910529003042
v -22.86440086364746 -44.25723171234131 -0.8349525784110013
v -21.922300338745117 -44.29263210296631 -0.9715685700034086
v -22.76729965209961 -43.72263240814209 -1.276910529003042
v -21.922300338745117 -44.29263210296631 -0.9715685700034086
v -21.7908992767334 -43.8843297958374 -1.4262705896948757
v -21.7908992767334 -43.8843297958374 -1.4262705896948757
v -21.56130027770996 -44.24553203582764 -1.1620505903815213
v -21.38640022277832 -44.13183116912842 -1.592880592212576
v -21.7908992767334 -43.8843297958374 -1.4262705896948757
v -21.38640022277832 -44.13183116912842 -1.592880592212576
v -21.597400665283203 -43.974833488464355 -1.8222305630301419
v -21.7908992767334 -43.8843297958374 -1.4262705896948757
v -21.922300338745117 -44.29263210296631 -0.9715685700034086
v -21.56130027770996 -44.24553203582764 -1.1620505903815213
v -21.38640022277832 -44.13183116912842 -1.592880592212576
v -21.56130027770996 -44.24553203582764 -1.1620505903815213
v -21.19860076904297 -44.288832664489746 -1.329280600414175
v -23.12150001525879 -43.79983043670654 -1.8276905869101465
v -23.38330078125 -44.152132987976074 -1.2052305792426052
v -22.86440086364746 -44.25723171234131 -0.8349525784110013
v -23.12150001525879 -43.79983043670654 -1.8276905869101465
v -22.86440086364746 -44.25723171234131 -0.8349525784110013
v -22.76729965209961 -43.72263240814209 -1.276910529003042
vn 0.6869873689391479 0.49334815890244654 -0.5335315820320607
vn 0.7522022071951107 0.5761942820449797 -0.31967481732140596
vn 0.8083886373161212 0.13736027733880132 -0.5723984322721302
vn 0.6869873689391479 0.49334815890244654 -0.5335315820320607
vn 0.8083886373161212 0.13736027733880132 -0.5723984322721302
vn 0.5974469506892799 0.16878237546201785 -0.783944928451916
vn 0.6869873689391479 0.49334815890244654 -0.5335315820320607
vn 0.34213351100785827 0.4319963912028475 -0.8344601719873465
vn 0.20904053384162927 0.923869468306636 -0.3205733313019359
vn 0.6869873689391479 0.49334815890244654 -0.5335315820320607
vn 0.20904053384162927 0.923869468306636 -0.3205733313019359
vn 0.6540466438561157 0.7525080913697415 -0.07716579607326096
vn 0.6948268479694255 -0.3881608582734792 -0.6054310856284707
vn 0.6934541402731015 -0.12049561632763278 -0.7103535470340931
vn 0.8765219691738461 -0.15033875265886726 -0.45728273202098824
vn 0.6948268479694255 -0.3881608582734792 -0.6054310856284707
vn 0.8765219691738461 -0.15033875265886726 -0.45728273202098824
vn 0.847615545970958 -0.31255850415045533 -0.4287832409406696
vn 0.6948268479694255 -0.3881608582734792 -0.6054310856284707
vn 0.3315903871629822 -0.39331823378754827 -0.8575246830915989
vn 0.3118735284837472 -0.2415236258692778 -0.9189130755289395
vn 0.6948268479694255 -0.3881608582734792 -0.6054310856284707
vn 0.3118735284837472 -0.2415236258692778 -0.9189130755289395
vn 0.6934541402731015 -0.12049561632763278 -0.7103535470340931
vn 0.7398211899332128 0.04004377468537472 -0.671610827067843
vn 0.5974469506892799 0.16878237546201785 -0.783944928451916
vn 0.8083886373161212 0.13736027733880132 -0.5723984322721302
vn 0.7398211899332128 0.04004377468537472 -0.671610827067843
vn 0.8083886373161212 0.13736027733880132 -0.5723984322721302
vn 0.812446472940591 -0.02314441847887977 -0.5825762306339557
vn 0.7398211899332128 0.04004377468537472 -0.671610827067843
vn 0.812446472940591 -0.02314441847887977 -0.5825762306339557
vn 0.8765219691738461 -0.15033875265886726 -0.45728273202098824
vn 0.7398211899332128 0.04004377468537472 -0.671610827067843
vn 0.8765219691738461 -0.15033875265886726 -0.45728273202098824
vn 0.6934541402731015 -0.12049561632763278 -0.7103535470340931
vn 0.5974469506892799 0.16878237546201785 -0.783944928451916
vn 0.38351588794302593 0.17280950850778976 -0.9072223748698931
vn 0.34213351100785827 0.4319963912028475 -0.8344601719873465
vn 0.5974469506892799 0.16878237546201785 -0.783944928451916
vn 0.34213351100785827 0.4319963912028475 -0.8344601719873465
vn 0.6869873689391479 0.49334815890244654 -0.5335315820320607
vn 0.6540466438561157 0.7525080913697415 -0.07716579607326096
vn 0.5027473067673305 0.8091119084345155 0.3042746541656931
vn 0.5837040593592386 0.8109261463061121 0.04108961334284557
vn 0.6540466438561157 0.7525080913697415 -0.07716579607326096
vn 0.5837040593592386 0.8109261463061121 0.04108961334284557
vn 0.7522022071951107 0.5761942820449797 -0.31967481732140596
vn 0.6540466438561157 0.7525080913697415 -0.07716579607326096
vn 0.7522022071951107 0.5761942820449797 -0.31967481732140596
vn 0.6869873689391479 0.49334815890244654 -0.5335315820320607
vn 0.24397889502571857 0.5076380498425519 -0.8263037632336429
vn -0.09986286367544817 0.9568389421500763 -0.27292241982596777
vn 0.20904053384162927 0.923869468306636 -0.3205733313019359
vn 0.24397889502571857 0.5076380498425519 -0.8263037632336429
vn 0.20904053384162927 0.923869468306636 -0.3205733313019359
vn 0.34213351100785827 0.4319963912028475 -0.8344601719873465
vn 0.12610356669126305 -0.40044856577784826 -0.9076005931213392
vn 0.156970448598834 -0.2896297134983911 -0.9441794889349804
vn 0.3118735284837472 -0.2415236258692778 -0.9189130755289395
vn 0.12610356669126305 -0.40044856577784826 -0.9076005931213392
vn 0.3118735284837472 -0.2415236258692778 -0.9189130755289395
vn 0.3315903871629822 -0.39331823378754827 -0.8575246830915989
vn 0.30693240399321664 0.00620794497653781 -0.9517110700197372
vn 0.40223003502888616 0.06394275719099089 -0.9133029742223963
vn 0.3118735284837472 -0.2415236258692778 -0.9189130755289395
vn 0.30693240399321664 0.00620794497653781 -0.9517110700197372
vn 0.3118735284837472 -0.2415236258692778 -0.9189130755289395
vn 0.156970448598834 -0.2896297134983911 -0.9441794889349804
vn 0.3313626419606195 0.19716106492337776 -0.9226734601098907
vn 0.38351588794302593 0.17280950850778976 -0.9072223748698931
vn 0.40223003502888616 0.06394275719099089 -0.9133029742223963
vn 0.3313626419606195 0.19716106492337776 -0.9226734601098907
vn 0.40223003502888616 0.06394275719099089 -0.9133029742223963
vn 0.30693240399321664 0.00620794497653781 -0.9517110700197372
vn -0.09986286367544817 0.9568389421500763 -0.27292241982596777
vn -0.2145450865209545 0.9669777773268424 0.13756592603459505
vn -0.37229584228064055 0.8941729919911667 0.2486975396221548
vn -0.09986286367544817 0.9568389421500763 -0.27292241982596777
vn -0.37229584228064055 0.8941729919911667 0.2486975396221548
vn 0.20904053384162927 0.923869468306636 -0.3205733313019359
vn 0.6934541402731015 -0.12049561632763278 -0.7103535470340931
vn 0.3118735284837472 -0.2415236258692778 -0.9189130755289395
vn 0.40223003502888616 0.06394275719099089 -0.9133029742223963
vn 0.6934541402731015 -0.12049561632763278 -0.7103535470340931
vn 0.40223003502888616 0.06394275719099089 -0.9133029742223963
vn 0.7398211899332128 0.04004377468537472 -0.671610827067843
vn 0.20904053384162927 0.923869468306636 -0.3205733313019359
vn 0.35328507446700547 0.8105134969334712 0.46718040139491973
vn 0.6540466438561157 0.7525080913697415 -0.07716579607326096
vn 0.20904053384162927 0.923869468306636 -0.3205733313019359
vn -0.37229584228064055 0.8941729919911667 0.2486975396221548
vn -0.05329557699656129 0.8356495215649761 0.5466712527477826
vn 0.40223003502888616 0.06394275719099089 -0.9133029742223963
vn 0.38351588794302593 0.17280950850778976 -0.9072223748698931
vn 0.5974469506892799 0.16878237546201785 -0.783944928451916
vn 0.40223003502888616 0.06394275719099089 -0.9133029742223963
vn 0.5974469506892799 0.16878237546201785 -0.783944928451916
vn 0.7398211899332128 0.04004377468537472 -0.671610827067843
vn 0.34213351100785827 0.4319963912028475 -0.8344601719873465
vn 0.38351588794302593 0.17280950850778976 -0.9072223748698931
vn 0.3313626419606195 0.19716106492337776 -0.9226734601098907
vn 0.34213351100785827 0.4319963912028475 -0.8344601719873465
vn 0.3313626419606195 0.19716106492337776 -0.9226734601098907
vn 0.24397889502571857 0.5076380498425519 -0.8263037632336429
vn -0.05329557699656129 0.8356495215649761 0.5466712527477826
vn 0.35328507446700547 0.8105134969334712 0.46718040139491973
vn 0.20904053384162927 0.923869468306636 -0.3205733313019359
vn -0.05329557699656129 0.8356495215649761 0.5466712527477826
vn -0.21730521322057714 0.736236223782628 0.6408858456054833
vn 0.19049577944485352 0.6586630012244397 0.7279247274490074
vn -0.05329557699656129 0.8356495215649761 0.5466712527477826
vn 0.19049577944485352 0.6586630012244397 0.7279247274490074
vn 0.35328507446700547 0.8105134969334712 0.46718040139491973
vn 0.35328507446700547 0.8105134969334712 0.46718040139491973
vn 0.40406667219324566 0.7567195711263793 0.5139120694213988
vn 0.5027473067673305 0.8091119084345155 0.3042746541656931
vn 0.35328507446700547 0.8105134969334712 0.46718040139491973
vn 0.5027473067673305 0.8091119084345155 0.3042746541656931
vn 0.6540466438561157 0.7525080913697415 -0.07716579607326096
vn 0.35328507446700547 0.8105134969334712 0.46718040139491973
vn 0.19049577944485352 0.6586630012244397 0.7279247274490074
vn 0.40406667219324566 0.7567195711263793 0.5139120694213988
vn 0.5027473067673305 0.8091119084345155 0.3042746541656931
vn 0.40406667219324566 0.7567195711263793 0.5139120694213988
vn 0.5837040593592386 0.8109261463061121 0.04108961334284557
vn -0.37229584228064055 0.8941729919911667 0.2486975396221548
vn -0.13715361341093477 0.8856724912851703 0.4435911682045119
vn -0.21730521322057714 0.736236223782628 0.6408858456054833
vn -0.37229584228064055 0.8941729919911667 0.2486975396221548
vn -0.21730521322057714 0.736236223782628 0.6408858456054833
vn -0.05329557699656129 0.8356495215649761 0.5466712527477826
f 1//1 2//2 3//3
f 4//4 5//5 6//6
f 7//7 8//8 9//9
f 10//10 11//11 12//12
f 13//13 14//14 15//15
f 16//16 17//17 18//18
f 19//19 20//20 21//21
f 22//22 23//23 24//24
f 25//25 26//26 27//27
f 28//28 29//29 30//30
f 31//31 32//32 33//33
f 34//34 35//35 36//36
f 37//37 38//38 39//39
f 40//40 41//41 42//42
f 43//43 44//44 45//45
f 46//46 47//47 48//48
f 49//49 50//50 51//51
f 52//52 53//53 54//54
f 55//55 56//56 57//57
f 58//58 59//59 60//60
f 61//61 62//62 63//63
f 64//64 65//65 66//66
f 67//67 68//68 69//69
f 70//70 71//71 72//72
f 73//73 74//74 75//75
f 76//76 77//77 78//78
f 79//79 80//80 81//81
f 82//82 83//83 84//84
f 85//85 86//86 87//87
f 88//88 89//89 90//90
f 91//91 92//92 93//93
f 94//94 95//95 96//96
f 97//97 98//98 99//99
f 100//100 101//101 102//102
f 103//103 104//104 105//105
f 106//106 107//107 108//108
f 109//109 110//110 111//111
f 112//112 113//113 114//114
f 115//115 116//116 117//117
f 118//118 119//119 120//120
f 121//121 122//122 123//123
f 124//124 125//125 126//126
f 127//127 128//128 129//129
f 130//130 131//131 132//132
