mtllib ArcadaCompleta.mtl
o D85C_B
usemtl Esmalte
v -34.35179901123047 -44.6520299911499 2.774469509258371
v -34.060699462890625 -44.485732078552246 2.803919448986154
v -34.12969970703125 -44.19033336639404 2.373819484844309
v -34.35179901123047 -44.6520299911499 2.774469509258371
v -34.12969970703125 -44.19033336639404 2.373819484844309
v -34.45370101928711 -44.505831718444824 2.4290093327904754
v -34.35179901123047 -44.6520299911499 2.774469509258371
v -34.644100189208984 -44.472331047058105 2.8216093922997527
v -34.279598236083984 -45.18923091888428 3.124609365596872
v -34.35020065307617 -46.42113399505615 3.790879383220773
v -33.14950180053711 -46.42113399505615 3.7960595036889124
v -33.108299255371094 -45.11192989349365 3.4091593171502166
v -34.35020065307617 -46.42113399505615 3.790879383220773
v -33.108299255371094 -45.11192989349365 3.4091593171502166
v -34.279598236083984 -45.18923091888428 3.124609365596872
v -34.45370101928711 -44.505831718444824 2.4290093327904754
v -34.7776985168457 -44.19033336639404 2.427239313259226
v -34.644100189208984 -44.472331047058105 2.8216093922997527
v -34.45370101928711 -44.505831718444824 2.4290093327904754
v -34.644100189208984 -44.472331047058105 2.8216093922997527
v -34.35179901123047 -44.6520299911499 2.774469509258371
v -34.279598236083984 -45.18923091888428 3.124609365596872
v -35.63930130004883 -45.11192989349365 3.5237294579888396
v -35.557701110839844 -46.42113399505615 3.9211794282342005
v -34.279598236083984 -45.18923091888428 3.124609365596872
v -35.557701110839844 -46.42113399505615 3.9211794282342005
v -34.35020065307617 -46.42113399505615 3.790879383220773
v -34.279598236083984 -45.18923091888428 3.124609365596872
v -34.060699462890625 -44.485732078552246 2.803919448986154
v -34.35179901123047 -44.6520299911499 2.774469509258371
v -35.64939880371094 -44.27613353729248 2.8903595353509006
v -34.644100189208984 -44.472331047058105 2.8216093922997527
v -34.7776985168457 -44.19033336639404 2.427239313259226
v -35.64939880371094 -44.27613353729248 2.8903595353509006
v -34.7776985168457 -44.19033336639404 2.427239313259226
v -35.62969970703125 -43.95263195037842 2.3502093697930393
v -33.05659866333008 -44.335829734802246 2.8117593671227508
v -34.060699462890625 -44.485732078552246 2.803919448986154
v -34.279598236083984 -45.18923091888428 3.124609365596872
v -33.05659866333008 -44.335829734802246 2.8117593671227508
v -34.279598236083984 -45.18923091888428 3.124609365596872
v -33.108299255371094 -45.11192989349365 3.4091593171502166
v -35.557701110839844 -46.42113399505615 3.9211794282342005
v -35.44129943847656 -47.61133098602295 3.800769462719064
v -34.45370101928711 -47.61133098602295 3.736539497509103
v -35.557701110839844 -46.42113399505615 3.9211794282342005
v -34.45370101928711 -47.61133098602295 3.736539497509103
v -34.35020065307617 -46.42113399505615 3.790879383220773
v -33.14950180053711 -46.42113399505615 3.7960595036889124
v -34.35020065307617 -46.42113399505615 3.790879383220773
v -34.45370101928711 -47.61133098602295 3.736539497509103
v -33.14950180053711 -46.42113399505615 3.7960595036889124
v -34.45370101928711 -47.61133098602295 3.736539497509103
v -33.33369827270508 -47.61133098602295 3.851959362163644
v -35.63930130004883 -45.11192989349365 3.5237294579888396
v -34.279598236083984 -45.18923091888428 3.124609365596872
v -34.644100189208984 -44.472331047058105 2.8216093922997527
v -35.63930130004883 -45.11192989349365 3.5237294579888396
v -34.644100189208984 -44.472331047058105 2.8216093922997527
v -35.64939880371094 -44.27613353729248 2.8903595353509006
v -33.2057991027832 -43.94073009490967 2.1354693318749485
v -34.12969970703125 -44.19033336639404 2.373819484844309
v -34.060699462890625 -44.485732078552246 2.803919448986154
v -33.2057991027832 -43.94073009490967 2.1354693318749485
v -34.060699462890625 -44.485732078552246 2.803919448986154
v -33.05659866333008 -44.335829734802246 2.8117593671227508
vt 0.5590969920158386 0.14446598291397095
vt 0.5885679721832275 0.14076799154281616
vt 0.5815820097923279 0.19476699829101562
vt 0.5590969920158386 0.14446598291397095
vt 0.5815820097923279 0.19476699829101562
vt 0.548783004283905 0.18783700466156006
vt 0.5590969920158386 0.14446598291397095
vt 0.5295069813728333 0.13854801654815674
vt 0.5664139986038208 0.10050702095031738
vt 0.559266984462738 0.485493004322052
vt 0.6808220148086548 0.485493004322052
vt 0.6849939823150635 0.7222200036048889
vt 0.559266984462738 0.485493004322052
vt 0.6849939823150635 0.7222200036048889
vt 0.5664139986038208 0.7082359790802002
vt 0.548783004283905 0.18783700466156006
vt 0.5159839987754822 0.1880599856376648
vt 0.5295069813728333 0.13854801654815674
vt 0.548783004283905 0.18783700466156006
vt 0.5295069813728333 0.13854801654815674
vt 0.5590969920158386 0.14446598291397095
vt 0.5664139986038208 0.7082359790802002
vt 0.42875099182128906 0.7222200036048889
vt 0.43700700998306274 0.485493004322052
vt 0.5664139986038208 0.7082359790802002
vt 0.43700700998306274 0.485493004322052
vt 0.559266984462738 0.485493004322052
vt 0.5664139986038208 0.7082359790802002
vt 0.5885679721832275 0.8354460000991821
vt 0.5590969920158386 0.8053749799728394
vt 0.427731990814209 0.12991702556610107
vt 0.5295069813728333 0.13854801654815674
vt 0.5159839987754822 0.1880599856376648
vt 0.427731990814209 0.12991702556610107
vt 0.5159839987754822 0.1880599856376648
vt 0.4297190010547638 0.19773101806640625
vt 0.6902239918708801 0.8625490069389343
vt 0.5885679721832275 0.8354460000991821
vt 0.5664139986038208 0.7082359790802002
vt 0.6902239918708801 0.13978499174118042
vt 0.5664139986038208 0.10050702095031738
vt 0.6849939823150635 0.06478321552276611
vt 0.43700700998306274 0.485493004322052
vt 0.4487920105457306 0.27029502391815186
vt 0.548783004283905 0.27029502391815186
vt 0.43700700998306274 0.485493004322052
vt 0.548783004283905 0.27029502391815186
vt 0.559266984462738 0.485493004322052
vt 0.6808220148086548 0.485493004322052
vt 0.559266984462738 0.485493004322052
vt 0.548783004283905 0.27029502391815186
vt 0.6808220148086548 0.485493004322052
vt 0.548783004283905 0.27029502391815186
vt 0.6621710062026978 0.27029502391815186
vt 0.42875099182128906 0.7222200036048889
vt 0.5664139986038208 0.7082359790802002
vt 0.5295069813728333 0.8378739953041077
vt 0.42875099182128906 0.05039900541305542
vt 0.5295069813728333 0.13854801654815674
vt 0.427731990814209 0.12991702556610107
vt 0.6751229763031006 0.22469103336334229
vt 0.5815820097923279 0.19476699829101562
vt 0.5885679721832275 0.14076799154281616
vt 0.6751229763031006 0.22469103336334229
vt 0.5885679721832275 0.14076799154281616
vt 0.6902239918708801 0.13978499174118042
vn -0.1288344564942263 0.7258864657464593 0.675640822971756
vn -0.14860470395216 0.6970720198373003 0.7014322783585294
vn -0.26175995433719523 0.7855897177429204 0.5606518720935374
vn -0.1288344564942263 0.7258864657464593 0.675640822971756
vn -0.26175995433719523 0.7855897177429204 0.5606518720935374
vn 0.23358553404052623 0.8911393787778996 0.3889838118461244
vn -0.1288344564942263 0.7258864657464593 0.675640822971756
vn 0.28017204718880934 0.6252151068914127 0.7284296081906548
vn 0.03693918193552286 0.4657428631747414 0.8841487896500952
vn -0.013061616555361418 0.25190020763907617 0.9676650657972268
vn -0.034448723108507794 0.11090042077802409 0.9932343037508573
vn -0.15227263344478734 0.4460424242215129 0.8819632650504132
vn -0.013061616555361418 0.25190020763907617 0.9676650657972268
vn -0.15227263344478734 0.4460424242215129 0.8819632650504132
vn 0.03693918193552286 0.4657428631747414 0.8841487896500952
vn 0.23358553404052623 0.8911393787778996 0.3889838118461244
vn 0.2702033486549824 0.8293034013795647 0.4891278144165578
vn 0.28017204718880934 0.6252151068914127 0.7284296081906548
vn 0.23358553404052623 0.8911393787778996 0.3889838118461244
vn 0.28017204718880934 0.6252151068914127 0.7284296081906548
vn -0.1288344564942263 0.7258864657464593 0.675640822971756
vn 0.03693918193552286 0.4657428631747414 0.8841487896500952
vn 0.2542312993219992 0.43028735334548385 0.8661519728061507
vn 0.15586196251320666 0.19419075637197084 0.9685024516134245
vn 0.03693918193552286 0.4657428631747414 0.8841487896500952
vn 0.15586196251320666 0.19419075637197084 0.9685024516134245
vn -0.013061616555361418 0.25190020763907617 0.9676650657972268
vn 0.03693918193552286 0.4657428631747414 0.8841487896500952
vn -0.14860470395216 0.6970720198373003 0.7014322783585294
vn -0.1288344564942263 0.7258864657464593 0.675640822971756
vn 0.18413072161645877 0.7254046536621802 0.6632374882364948
vn 0.28017204718880934 0.6252151068914127 0.7284296081906548
vn 0.2702033486549824 0.8293034013795647 0.4891278144165578
vn 0.18413072161645877 0.7254046536621802 0.6632374882364948
vn 0.2702033486549824 0.8293034013795647 0.4891278144165578
vn 0.1881460984541813 0.8395439938059042 0.5096733543171564
vn -0.15934654193919923 0.6432842854515121 0.748861808121603
vn -0.14860470395216 0.6970720198373003 0.7014322783585294
vn 0.03693918193552286 0.4657428631747414 0.8841487896500952
vn -0.15934654193919923 0.6432842854515121 0.748861808121603
vn 0.03693918193552286 0.4657428631747414 0.8841487896500952
vn -0.15227263344478734 0.4460424242215129 0.8819632650504132
vn 0.15586196251320666 0.19419075637197084 0.9685024516134245
vn 0.06461089813293278 -0.09418704307983636 0.9934557024640469
vn 0.01636090364173334 -0.03186667069285793 0.9993582121196479
vn 0.15586196251320666 0.19419075637197084 0.9685024516134245
vn 0.01636090364173334 -0.03186667069285793 0.9993582121196479
vn -0.013061616555361418 0.25190020763907617 0.9676650657972268
vn -0.034448723108507794 0.11090042077802409 0.9932343037508573
vn -0.013061616555361418 0.25190020763907617 0.9676650657972268
vn 0.01636090364173334 -0.03186667069285793 0.9993582121196479
vn -0.034448723108507794 0.11090042077802409 0.9932343037508573
vn 0.01636090364173334 -0.03186667069285793 0.9993582121196479
vn -0.1023101385080763 0.06246189473742028 0.9927895785433436
vn 0.2542312993219992 0.43028735334548385 0.8661519728061507
vn 0.03693918193552286 0.4657428631747414 0.8841487896500952
vn 0.28017204718880934 0.6252151068914127 0.7284296081906548
vn 0.2542312993219992 0.43028735334548385 0.8661519728061507
vn 0.28017204718880934 0.6252151068914127 0.7284296081906548
vn 0.18413072161645877 0.7254046536621802 0.6632374882364948
vn -0.10799488300769693 0.8336739444002943 0.5415947374857041
vn -0.26175995433719523 0.7855897177429204 0.5606518720935374
vn -0.14860470395216 0.6970720198373003 0.7014322783585294
vn -0.10799488300769693 0.8336739444002943 0.5415947374857041
vn -0.14860470395216 0.6970720198373003 0.7014322783585294
vn -0.15934654193919923 0.6432842854515121 0.748861808121603
f 1/1/1 2/2/2 3/3/3
f 4/4/4 5/5/5 6/6/6
f 7/7/7 8/8/8 9/9/9
f 10/10/10 11/11/11 12/12/12
f 13/13/13 14/14/14 15/15/15
f 16/16/16 17/17/17 18/18/18
f 19/19/19 20/20/20 21/21/21
f 22/22/22 23/23/23 24/24/24
f 25/25/25 26/26/26 27/27/27
f 28/28/28 29/29/29 30/30/30
f 31/31/31 32/32/32 33/33/33
f 34/34/34 35/35/35 36/36/36
f 37/37/37 38/38/38 39/39/39
f 40/40/40 41/41/41 42/42/42
f 43/43/43 44/44/44 45/45/45
f 46/46/46 47/47/47 48/48/48
f 49/49/49 50/50/50 51/51/51
f 52/52/52 53/53/53 54/54/54
f 55/55/55 56/56/56 57/57/57
f 58/58/58 59/59/59 60/60/60
f 61/61/61 62/62/62 63/63/63
f 64/64/64 65/65/65 66/66/66
