mtllib ArcadaCompleta.mtl
o D85C_D
usemtl Esmalte
v -39.687400817871094 -44.93253231048584 -0.29015259490956713
v -39.57870101928711 -44.82573223114014 0.45632742299089984
v -39.096500396728516 -44.615233421325684 0.4326474214936312
v -39.687400817871094 -44.93253231048584 -0.29015259490956713
v -39.096500396728516 -44.615233421325684 0.4326474214936312
v -39.099098205566406 -44.60593318939209 -0.290152594909567
v -39.687400817871094 -44.93253231048584 -0.29015259490956713
v -39.86920166015625 -45.584731101989746 -0.11462358431567611
v -39.76750183105469 -45.38723278045654 1.208929433956247
v -39.687400817871094 -44.93253231048584 -0.29015259490956713
v -39.76750183105469 -45.38723278045654 1.208929433956247
v -39.57870101928711 -44.82573223114014 0.45632742299089984
v -39.687400817871094 -44.93253231048584 -0.29015259490956713
v -39.099098205566406 -44.60593318939209 -0.290152594909567
v -38.73400115966797 -44.615233421325684 -1.4479606007193508
v -39.687400817871094 -44.93253231048584 -0.29015259490956713
v -38.73400115966797 -44.615233421325684 -1.4479606007193508
v -39.5181999206543 -44.82573223114014 -1.4716405724142974
v -39.547298431396484 -46.598631858825684 -0.00014839261389067962
v -39.44729995727539 -46.53723430633545 1.3235594178582244
v -39.76750183105469 -45.38723278045654 1.208929433956247
v -39.547298431396484 -46.598631858825684 -0.00014839261389067962
v -39.76750183105469 -45.38723278045654 1.208929433956247
v -39.86920166015625 -45.584731101989746 -0.11462358431567611
v -39.547298431396484 -46.598631858825684 -0.00014839261389067962
v -39.13690185546875 -47.61133098602295 -0.00014839261389090449
v -38.98099899291992 -47.61133098602295 1.3461294318581631
v -39.547298431396484 -46.598631858825684 -0.00014839261389067962
v -38.98099899291992 -47.61133098602295 1.3461294318581631
v -39.44729995727539 -46.53723430633545 1.3235594178582244
v -39.57870101928711 -44.82573223114014 0.45632742299089984
v -39.254398345947266 -44.66843318939209 1.1231994773293552
v -38.88869857788086 -44.45323085784912 0.8592963959122714
v -39.57870101928711 -44.82573223114014 0.45632742299089984
v -38.88869857788086 -44.45323085784912 0.8592963959122714
v -39.096500396728516 -44.615233421325684 0.4326474214936312
v -39.5181999206543 -44.82573223114014 -1.4716405724142974
v -39.84280014038086 -45.47393321990967 -1.3027405594443267
v -39.86920166015625 -45.584731101989746 -0.11462358431567611
v -39.5181999206543 -44.82573223114014 -1.4716405724142974
v -39.86920166015625 -45.584731101989746 -0.11462358431567611
v -39.687400817871094 -44.93253231048584 -0.29015259490956713
v -39.5181999206543 -44.82573223114014 -1.4716405724142974
v -38.73400115966797 -44.615233421325684 -1.4479606007193508
v -38.43920135498047 -44.33463191986084 -2.0430005644415803
v -39.5181999206543 -44.82573223114014 -1.4716405724142974
v -38.43920135498047 -44.33463191986084 -2.0430005644415803
v -38.832298278808594 -44.57523250579834 -2.3559805010413117
v -39.86920166015625 -45.584731101989746 -0.11462358431567611
v -39.84280014038086 -45.47393321990967 -1.3027405594443267
v -39.5369987487793 -46.54683208465576 -1.1201405380820222
v -39.86920166015625 -45.584731101989746 -0.11462358431567611
v -39.5369987487793 -46.54683208465576 -1.1201405380820222
v -39.547298431396484 -46.598631858825684 -0.00014839261389067962
v -39.5369987487793 -46.54683208465576 -1.1201405380820222
v -39.84280014038086 -45.47393321990967 -1.3027405594443267
v -39.17940139770508 -45.28623104095459 -2.3918105219458528
v -39.5369987487793 -46.54683208465576 -1.1201405380820222
v -39.17940139770508 -45.28623104095459 -2.3918105219458528
v -39.097599029541016 -46.4966344833374 -2.1217206572150182
v -39.5369987487793 -46.54683208465576 -1.1201405380820222
v -38.947601318359375 -47.61133098602295 -1.1229505394553134
v -39.13690185546875 -47.61133098602295 -0.00014839261389090449
v -39.5369987487793 -46.54683208465576 -1.1201405380820222
v -39.13690185546875 -47.61133098602295 -0.00014839261389090449
v -39.547298431396484 -46.598631858825684 -0.00014839261389067962
v -39.76750183105469 -45.38723278045654 1.208929433956247
v -39.254398345947266 -44.66843318939209 1.1231994773293552
v -39.57870101928711 -44.82573223114014 0.45632742299089984
v -39.099098205566406 -44.60593318939209 -0.290152594909567
v -38.295799255371094 -44.56053066253662 -0.9514335845564788
v -38.73400115966797 -44.615233421325684 -1.4479606007193508
v -39.099098205566406 -44.60593318939209 -0.290152594909567
v -38.37910079956055 -44.72503185272217 -0.4260215912913267
v -38.402400970458984 -44.77523326873779 -0.5703965877150481
v -39.096500396728516 -44.615233421325684 0.4326474214936312
v -38.476898193359375 -44.47053050994873 0.6874994183922823
v -38.37910079956055 -44.72503185272217 -0.4260215912913267
v -39.096500396728516 -44.615233421325684 0.4326474214936312
v -38.37910079956055 -44.72503185272217 -0.4260215912913267
v -39.099098205566406 -44.60593318939209 -0.290152594909567
v -38.73400115966797 -44.615233421325684 -1.4479606007193508
v -38.295799255371094 -44.56053066253662 -0.9514335845564788
v -38.43920135498047 -44.33463191986084 -2.0430005644415803
v -38.832298278808594 -44.57523250579834 -2.3559805010413117
v -39.17940139770508 -45.28623104095459 -2.3918105219458528
v -39.84280014038086 -45.47393321990967 -1.3027405594443267
v -38.832298278808594 -44.57523250579834 -2.3559805010413117
v -39.84280014038086 -45.47393321990967 -1.3027405594443267
v -39.5181999206543 -44.82573223114014 -1.4716405724142974
v -39.097599029541016 -46.4966344833374 -2.1217206572150182
v -38.7671012878418 -47.61133098602295 -1.9864005898093173
v -38.947601318359375 -47.61133098602295 -1.1229505394553134
v -39.097599029541016 -46.4966344833374 -2.1217206572150182
v -38.947601318359375 -47.61133098602295 -1.1229505394553134
v -39.5369987487793 -46.54683208465576 -1.1201405380820222
v -38.88869857788086 -44.45323085784912 0.8592963959122714
v -38.476898193359375 -44.47053050994873 0.6874994183922823
v -39.096500396728516 -44.615233421325684 0.4326474214936312
v -38.402400970458984 -44.77523326873779 -0.5703965877150481
v -38.295799255371094 -44.56053066253662 -0.9514335845564788
v -39.099098205566406 -44.60593318939209 -0.290152594909567
v -38.61220169067383 -48.67153072357178 -0.0001483926138911399
v -38.44340133666992 -48.66243267059326 1.3936094190026331
v -38.98099899291992 -47.61133098602295 1.3461294318581631
v -38.61220169067383 -48.67153072357178 -0.0001483926138911399
v -38.98099899291992 -47.61133098602295 1.3461294318581631
v -39.13690185546875 -47.61133098602295 -0.00014839261389090449
v -39.13690185546875 -47.61133098602295 -0.00014839261389090449
v -38.947601318359375 -47.61133098602295 -1.1229505394553134
v -38.44340133666992 -48.66243267059326 -1.393900618419547
v -39.13690185546875 -47.61133098602295 -0.00014839261389090449
v -38.44340133666992 -48.66243267059326 -1.393900618419547
v -38.61220169067383 -48.67153072357178 -0.0001483926138911399
v -38.947601318359375 -47.61133098602295 -1.1229505394553134
v -38.7671012878418 -47.61133098602295 -1.9864005898093173
v -38.44340133666992 -48.66243267059326 -1.393900618419547
vt 0.018913399428129196 0.5292209982872009
vt 0.029919900000095367 0.4355030059814453
vt 0.0787367969751358 0.43847501277923584
vt 0.018913399428129196 0.5292209982872009
vt 0.0787367969751358 0.43847501277923584
vt 0.07846699655056 0.5292209982872009
vt 0.4707790017127991 0.7546619772911072
vt 0.4928160011768341 0.6367300152778625
vt 0.6589850187301636 0.6724410057067871
vt 0.4707790017127991 0.7546619772911072
vt 0.6589850187301636 0.6724410057067871
vt 0.5644969940185547 0.7739750146865845
vt 0.018913399428129196 0.5292209982872009
vt 0.07846699655056 0.5292209982872009
vt 0.11543100327253342 0.6745799779891968
vt 0.018913399428129196 0.5292209982872009
vt 0.11543100327253342 0.6745799779891968
vt 0.03603550046682358 0.6775529980659485
vt 0.5071880221366882 0.45339399576187134
vt 0.6733760237693787 0.46449804306030273
vt 0.6589850187301636 0.6724410057067871
vt 0.5071880221366882 0.45339399576187134
vt 0.6589850187301636 0.6724410057067871
vt 0.4928160011768341 0.6367300152778625
vt 0.5071880221366882 0.45339399576187134
vt 0.5071880221366882 0.27029502391815186
vt 0.6762089729309082 0.27029502391815186
vt 0.5071880221366882 0.45339399576187134
vt 0.6762089729309082 0.27029502391815186
vt 0.6733760237693787 0.46449804306030273
vt 0.029919900000095367 0.4355030059814453
vt 0.0627484992146492 0.3517780303955078
vt 0.09977260231971741 0.3849110007286072
vt 0.029919900000095367 0.4355030059814453
vt 0.09977260231971741 0.3849110007286072
vt 0.0787367969751358 0.43847501277923584
vt 0.3224470019340515 0.7739750146865845
vt 0.3436509966850281 0.6567720174789429
vt 0.4928160011768341 0.6367300152778625
vt 0.3224470019340515 0.7739750146865845
vt 0.4928160011768341 0.6367300152778625
vt 0.4707790017127991 0.7546619772911072
vt 0.03603550046682358 0.6775529980659485
vt 0.11543100327253342 0.6745799779891968
vt 0.14527800679206848 0.7492859959602356
vt 0.03603550046682358 0.6775529980659485
vt 0.14527800679206848 0.7492859959602356
vt 0.10548300296068192 0.788578987121582
vt 0.4928160011768341 0.6367300152778625
vt 0.3436509966850281 0.6567720174789429
vt 0.3665759861469269 0.4627699851989746
vt 0.4928160011768341 0.6367300152778625
vt 0.3665759861469269 0.4627699851989746
vt 0.5071880221366882 0.45339399576187134
vt 0.3665759861469269 0.4627699851989746
vt 0.3436509966850281 0.6567720174789429
vt 0.2069219946861267 0.6907010078430176
vt 0.3665759861469269 0.4627699851989746
vt 0.2069219946861267 0.6907010078430176
vt 0.24083100259304047 0.4718400239944458
vt 0.3665759861469269 0.4627699851989746
vt 0.3662239909172058 0.27029502391815186
vt 0.5071880221366882 0.27029502391815186
vt 0.3665759861469269 0.4627699851989746
vt 0.5071880221366882 0.27029502391815186
vt 0.5071880221366882 0.45339399576187134
vt 0.010803899727761745 0.3410149812698364
vt 0.0627484992146492 0.3517780303955078
vt 0.029919900000095367 0.4355030059814453
vt 0.07846699655056 0.5292209982872009
vt 0.15979500114917755 0.6122429966926575
vt 0.11543100327253342 0.6745799779891968
vt 0.07846699655056 0.5292209982872009
vt 0.15136900544166565 0.5462790131568909
vt 0.14901100099086761 0.5644050240516663
vt 0.0787367969751358 0.43847501277923584
vt 0.14146800339221954 0.40648001432418823
vt 0.15136900544166565 0.5462790131568909
vt 0.0787367969751358 0.43847501277923584
vt 0.15136900544166565 0.5462790131568909
vt 0.07846699655056 0.5292209982872009
vt 0.11543100327253342 0.6745799779891968
vt 0.15979500114917755 0.6122429966926575
vt 0.14527800679206848 0.7492859959602356
vt 0.21142099797725677 0.8192650079727173
vt 0.2069219946861267 0.6907010078430176
vt 0.3436509966850281 0.6567720174789429
vt 0.21142099797725677 0.8192650079727173
vt 0.3436509966850281 0.6567720174789429
vt 0.3224470019340515 0.7739750146865845
vt 0.24083100259304047 0.4718400239944458
vt 0.2578200101852417 0.27029502391815186
vt 0.3662239909172058 0.27029502391815186
vt 0.24083100259304047 0.4718400239944458
vt 0.3662239909172058 0.27029502391815186
vt 0.3665759861469269 0.4627699851989746
vt 0.09977260231971741 0.3849110007286072
vt 0.14146800339221954 0.40648001432418823
vt 0.0787367969751358 0.43847501277923584
vt 0.14901100099086761 0.5644050240516663
vt 0.15979500114917755 0.6122429966926575
vt 0.07846699655056 0.5292209982872009
vt 0.5071880221366882 0.07859688997268677
vt 0.6821699738502502 0.08023840188980103
vt 0.6762089729309082 0.27029502391815186
vt 0.5071880221366882 0.07859688997268677
vt 0.6762089729309082 0.27029502391815186
vt 0.5071880221366882 0.27029502391815186
vt 0.5071880221366882 0.27029502391815186
vt 0.3662239909172058 0.27029502391815186
vt 0.33220601081848145 0.08023840188980103
vt 0.5071880221366882 0.27029502391815186
vt 0.33220601081848145 0.08023840188980103
vt 0.5071880221366882 0.07859688997268677
vt 0.3662239909172058 0.27029502391815186
vt 0.2578200101852417 0.27029502391815186
vt 0.33220601081848145 0.08023840188980103
vn -0.7190441536813582 0.6944456742476045 -0.026846053256465947
vn -0.6896765971217903 0.7208499461953539 0.06871350997193251
vn -0.206105713427272 0.9716071585188454 -0.11618934722069188
vn -0.7190441536813582 0.6944456742476045 -0.026846053256465947
vn -0.206105713427272 0.9716071585188454 -0.11618934722069188
vn -0.16708322047456287 0.9859390363873789 -0.0027228594116503347
vn -0.7190441536813582 0.6944456742476045 -0.026846053256465947
vn -0.9986364264310134 -0.05188138420265608 0.005797394096644832
vn -0.994018954190458 0.005067661779882938 0.10909004314873444
vn -0.7190441536813582 0.6944456742476045 -0.026846053256465947
vn -0.994018954190458 0.005067661779882938 0.10909004314873444
vn -0.6896765971217903 0.7208499461953539 0.06871350997193251
vn -0.7190441536813582 0.6944456742476045 -0.026846053256465947
vn -0.16708322047456287 0.9859390363873789 -0.0027228594116503347
vn -0.29730976240651497 0.9535115794024579 0.04921964164042413
vn -0.7190441536813582 0.6944456742476045 -0.026846053256465947
vn -0.29730976240651497 0.9535115794024579 0.04921964164042413
vn -0.7055922914204619 0.7044154573854847 -0.0770608959487244
vn -0.9406469104087098 -0.33338953768051616 0.06352012361228597
vn -0.9409330242753653 -0.3274183188237108 0.08626869841761786
vn -0.994018954190458 0.005067661779882938 0.10909004314873444
vn -0.9406469104087098 -0.33338953768051616 0.06352012361228597
vn -0.994018954190458 0.005067661779882938 0.10909004314873444
vn -0.9986364264310134 -0.05188138420265608 0.005797394096644832
vn -0.9406469104087098 -0.33338953768051616 0.06352012361228597
vn -0.9058261077944595 -0.42227570171242357 -0.034092435835836286
vn -0.9035836276826466 -0.41607545971131665 0.10206781867897968
vn -0.9406469104087098 -0.33338953768051616 0.06352012361228597
vn -0.9035836276826466 -0.41607545971131665 0.10206781867897968
vn -0.9409330242753653 -0.3274183188237108 0.08626869841761786
vn -0.6896765971217903 0.7208499461953539 0.06871350997193251
vn -0.6862053684123481 0.708050708545694 0.16669249080271917
vn -0.367420400266123 0.9231011148788575 -0.11351907847446686
vn -0.6896765971217903 0.7208499461953539 0.06871350997193251
vn -0.367420400266123 0.9231011148788575 -0.11351907847446686
vn -0.206105713427272 0.9716071585188454 -0.11618934722069188
vn -0.7055922914204619 0.7044154573854847 -0.0770608959487244
vn -0.941890183221399 0.027900040338901252 -0.3347603179892253
vn -0.9986364264310134 -0.05188138420265608 0.005797394096644832
vn -0.7055922914204619 0.7044154573854847 -0.0770608959487244
vn -0.9986364264310134 -0.05188138420265608 0.005797394096644832
vn -0.7190441536813582 0.6944456742476045 -0.026846053256465947
vn -0.7055922914204619 0.7044154573854847 -0.0770608959487244
vn -0.29730976240651497 0.9535115794024579 0.04921964164042413
vn -0.37812664164253323 0.9171375873386926 0.12601146285438286
vn -0.7055922914204619 0.7044154573854847 -0.0770608959487244
vn -0.37812664164253323 0.9171375873386926 0.12601146285438286
vn -0.7508652493239774 0.5317409412902715 -0.39173070943363325
vn -0.9986364264310134 -0.05188138420265608 0.005797394096644832
vn -0.941890183221399 0.027900040338901252 -0.3347603179892253
vn -0.9075516371643352 -0.3461834753731743 -0.23771206797065608
vn -0.9986364264310134 -0.05188138420265608 0.005797394096644832
vn -0.9075516371643352 -0.3461834753731743 -0.23771206797065608
vn -0.9406469104087098 -0.33338953768051616 0.06352012361228597
vn -0.9075516371643352 -0.3461834753731743 -0.23771206797065608
vn -0.941890183221399 0.027900040338901252 -0.3347603179892253
vn -0.874128941690664 -0.07101826923616579 -0.48047372324973103
vn -0.9075516371643352 -0.3461834753731743 -0.23771206797065608
vn -0.874128941690664 -0.07101826923616579 -0.48047372324973103
vn -0.8900444157108633 -0.3032009875193917 -0.3404263491993143
vn -0.9075516371643352 -0.3461834753731743 -0.23771206797065608
vn -0.8861049491719084 -0.4106082974245345 -0.21498568589367714
vn -0.9058261077944595 -0.42227570171242357 -0.034092435835836286
vn -0.9075516371643352 -0.3461834753731743 -0.23771206797065608
vn -0.9058261077944595 -0.42227570171242357 -0.034092435835836286
vn -0.9406469104087098 -0.33338953768051616 0.06352012361228597
vn -0.994018954190458 0.005067661779882938 0.10909004314873444
vn -0.6862053684123481 0.708050708545694 0.16669249080271917
vn -0.6896765971217903 0.7208499461953539 0.06871350997193251
vn -0.16708322047456287 0.9859390363873789 -0.0027228594116503347
vn -0.07794590605514286 0.9797766003720397 0.18428849419497487
vn -0.29730976240651497 0.9535115794024579 0.04921964164042413
vn -0.16708322047456287 0.9859390363873789 -0.0027228594116503347
vn 0.0010695128290153669 0.9886135244205396 -0.15047310548768403
vn 0.34611323668568245 0.8782929666792282 0.32985920037610134
vn -0.206105713427272 0.9716071585188454 -0.11618934722069188
vn -0.12101937272463766 0.9603745499337268 -0.2510677901781247
vn 0.0010695128290153669 0.9886135244205396 -0.15047310548768403
vn -0.206105713427272 0.9716071585188454 -0.11618934722069188
vn 0.0010695128290153669 0.9886135244205396 -0.15047310548768403
vn -0.16708322047456287 0.9859390363873789 -0.0027228594116503347
vn -0.29730976240651497 0.9535115794024579 0.04921964164042413
vn -0.07794590605514286 0.9797766003720397 0.18428849419497487
vn -0.37812664164253323 0.9171375873386926 0.12601146285438286
vn -0.7508652493239774 0.5317409412902715 -0.39173070943363325
vn -0.874128941690664 -0.07101826923616579 -0.48047372324973103
vn -0.941890183221399 0.027900040338901252 -0.3347603179892253
vn -0.7508652493239774 0.5317409412902715 -0.39173070943363325
vn -0.941890183221399 0.027900040338901252 -0.3347603179892253
vn -0.7055922914204619 0.7044154573854847 -0.0770608959487244
vn -0.8900444157108633 -0.3032009875193917 -0.3404263491993143
vn -0.9196735462750024 -0.3424021619055944 -0.19225329075034409
vn -0.8861049491719084 -0.4106082974245345 -0.21498568589367714
vn -0.8900444157108633 -0.3032009875193917 -0.3404263491993143
vn -0.8861049491719084 -0.4106082974245345 -0.21498568589367714
vn -0.9075516371643352 -0.3461834753731743 -0.23771206797065608
vn -0.367420400266123 0.9231011148788575 -0.11351907847446686
vn -0.12101937272463766 0.9603745499337268 -0.2510677901781247
vn -0.206105713427272 0.9716071585188454 -0.11618934722069188
vn 0.34611323668568245 0.8782929666792282 0.32985920037610134
vn -0.07794590605514286 0.9797766003720397 0.18428849419497487
vn -0.16708322047456287 0.9859390363873789 -0.0027228594116503347
vn -0.8944339318212732 -0.4459408006405503 0.0335372021910438
vn -0.8868838421496387 -0.44862236929422655 0.11034047445397903
vn -0.9035836276826466 -0.41607545971131665 0.10206781867897968
vn -0.8944339318212732 -0.4459408006405503 0.0335372021910438
vn -0.9035836276826466 -0.41607545971131665 0.10206781867897968
vn -0.9058261077944595 -0.42227570171242357 -0.034092435835836286
vn -0.9058261077944595 -0.42227570171242357 -0.034092435835836286
vn -0.8861049491719084 -0.4106082974245345 -0.21498568589367714
vn -0.8996814745907132 -0.41195712919162303 -0.14444572678510242
vn -0.9058261077944595 -0.42227570171242357 -0.034092435835836286
vn -0.8996814745907132 -0.41195712919162303 -0.14444572678510242
vn -0.8944339318212732 -0.4459408006405503 0.0335372021910438
vn -0.8861049491719084 -0.4106082974245345 -0.21498568589367714
vn -0.9196735462750024 -0.3424021619055944 -0.19225329075034409
vn -0.8996814745907132 -0.41195712919162303 -0.14444572678510242
f 1/1/1 2/2/2 3/3/3
f 4/4/4 5/5/5 6/6/6
f 7/7/7 8/8/8 9/9/9
f 10/10/10 11/11/11 12/12/12
f 13/13/13 14/14/14 15/15/15
f 16/16/16 17/17/17 18/18/18
f 19/19/19 20/20/20 21/21/21
f 22/22/22 23/23/23 24/24/24
f 25/25/25 26/26/26 27/27/27
f 28/28/28 29/29/29 30/30/30
f 31/31/31 32/32/32 33/33/33
f 34/34/34 35/35/35 36/36/36
f 37/37/37 38/38/38 39/39/39
f 40/40/40 41/41/41 42/42/42
f 43/43/43 44/44/44 45/45/45
f 46/46/46 47/47/47 48/48/48
f 49/49/49 50/50/50 51/51/51
f 52/52/52 53/53/53 54/54/54
f 55/55/55 56/56/56 57/57/57
f 58/58/58 59/59/59 60/60/60
f 61/61/61 62/62/62 63/63/63
f 64/64/64 65/65/65 66/66/66
f 67/67/67 68/68/68 69/69/69
f 70/70/70 71/71/71 72/72/72
f 73/73/73 74/74/74 75/75/75
f 76/76/76 77/77/77 78/78/78
f 79/79/79 80/80/80 81/81/81
f 82/82/82 83/83/83 84/84/84
f 85/85/85 86/86/86 87/87/87
f 88/88/88 89/89/89 90/90/90
f 91/91/91 92/92/92 93/93/93
f 94/94/94 95/95/95 96/96/96
f 97/97/97 98/98/98 99/99/99
f 100/100/100 101/101/101 102/102/102
f 103/103/103 104/104/104 105/105/105
f 106/106/106 107/107/107 108/108/108
f 109/109/109 110/110/110 111/111/111
f 112/112/112 113/113/113 114/114/114
f 115/115/115 116/116/116 117/117/117
