mtllib ArcadaCompleta.mtl
o 237
usemtl Enamel2
v -4.0474700927734375 -23.095312118530273 1.8560794736291035
v -3.4559900760650635 -23.74793243408203 2.4344793702508074
v -4.282899856567383 -21.733623504638672 2.013449325695144
v -4.0474700927734375 -23.095312118530273 -1.8592306231116191
v -4.405429840087891 -22.09964370727539 -1.0065705631827249
v -4.620510101318359 -21.140213012695312 -0.9422235940550697
v -4.0474700927734375 -23.095312118530273 -1.8592306231116191
v -4.620510101318359 -21.140213012695312 -0.9422235940550697
v -4.065070152282715 -21.90514373779297 -2.359700546131028
v -4.51423978805542 -21.677001953125 -0.0015765816173759887
v -4.405429840087891 -22.09964370727539 1.0034194137002097
v -4.620510101318359 -21.140213012695312 0.9390704180146324
v -4.51423978805542 -21.677001953125 -0.0015765816173759887
v -4.620510101318359 -21.140213012695312 0.9390704180146324
v -4.764699935913086 -20.904502868652344 -0.0015765816173758172
v -4.784090042114258 -20.275611877441406 -0.0015765816173756776
v -4.764699935913086 -20.904502868652344 -0.0015765816173758172
v -4.620510101318359 -21.140213012695312 0.9390704180146324
v -4.784090042114258 -20.275611877441406 -0.0015765816173756776
v -4.620510101318359 -21.140213012695312 0.9390704180146324
v -4.719510078430176 -20.486312866210938 0.9367174054528346
v -4.6483001708984375 -20.486312866210938 -0.9398705814932714
v -4.310929775238037 -20.549592971801758 -1.8019206379507908
v -4.065070152282715 -21.90514373779297 -2.359700546131028
v -4.6483001708984375 -20.486312866210938 -0.9398705814932714
v -4.065070152282715 -21.90514373779297 -2.359700546131028
v -4.620510101318359 -21.140213012695312 -0.9422235940550697
v -4.6483001708984375 -20.486312866210938 -0.9398705814932714
v -4.620510101318359 -21.140213012695312 -0.9422235940550697
v -4.764699935913086 -20.904502868652344 -0.0015765816173758172
v -4.6483001708984375 -20.486312866210938 -0.9398705814932714
v -4.764699935913086 -20.904502868652344 -0.0015765816173758172
v -4.784090042114258 -20.275611877441406 -0.0015765816173756776
v -4.282899856567383 -21.733623504638672 2.013449325695144
v -4.620510101318359 -21.140213012695312 0.9390704180146324
v -4.405429840087891 -22.09964370727539 1.0034194137002097
v -4.282899856567383 -21.733623504638672 2.013449325695144
v -4.405429840087891 -22.09964370727539 1.0034194137002097
v -4.0474700927734375 -23.095312118530273 1.8560794736291035
v -4.764699935913086 -20.904502868652344 -0.0015765816173758172
v -4.620510101318359 -21.140213012695312 -0.9422235940550697
v -4.405429840087891 -22.09964370727539 -1.0065705631827249
v -4.764699935913086 -20.904502868652344 -0.0015765816173758172
v -4.405429840087891 -22.09964370727539 -1.0065705631827249
v -4.51423978805542 -21.677001953125 -0.0015765816173759887
v -4.620510101318359 -21.140213012695312 0.9390704180146324
v -4.282899856567383 -21.733623504638672 2.013449325695144
v -4.489439964294434 -20.549583435058594 1.993159427776443
v -4.620510101318359 -21.140213012695312 0.9390704180146324
v -4.489439964294434 -20.549583435058594 1.993159427776443
v -4.719510078430176 -20.486312866210938 0.9367174054528346
vt 0.8074510097503662 0.07257187366485596
vt 0.9031789898872375 0.003679037094116211
vt 0.8334959745407104 0.2163119912147522
vt 0.19254900515079498 0.07257187366485596
vt 0.3336690068244934 0.1776750087738037
vt 0.3443180024623871 0.278952956199646
vt 0.19254900515079498 0.07257187366485596
vt 0.3443180024623871 0.278952956199646
vt 0.10971999913454056 0.19820600748062134
vt 0.5 0.22228896617889404
vt 0.6663309931755066 0.1776750087738037
vt 0.6556820273399353 0.278952956199646
vt 0.5 0.22228896617889404
vt 0.6556820273399353 0.278952956199646
vt 0.5 0.30383503437042236
vt 0.5 0.37022101879119873
vt 0.5 0.30383503437042236
vt 0.6556820273399353 0.278952956199646
vt 0.5 0.37022101879119873
vt 0.6556820273399353 0.278952956199646
vt 0.6552919745445251 0.34797900915145874
vt 0.34470799565315247 0.34797900915145874
vt 0.20203399658203125 0.34129899740219116
vt 0.10971999913454056 0.19820600748062134
vt 0.34470799565315247 0.34797900915145874
vt 0.10971999913454056 0.19820600748062134
vt 0.3443180024623871 0.278952956199646
vt 0.34470799565315247 0.34797900915145874
vt 0.3443180024623871 0.278952956199646
vt 0.5 0.30383503437042236
vt 0.34470799565315247 0.34797900915145874
vt 0.5 0.30383503437042236
vt 0.5 0.37022101879119873
vt 0.8334959745407104 0.2163119912147522
vt 0.6556820273399353 0.278952956199646
vt 0.6663309931755066 0.1776750087738037
vt 0.8334959745407104 0.2163119912147522
vt 0.6663309931755066 0.1776750087738037
vt 0.8074510097503662 0.07257187366485596
vt 0.5 0.30383503437042236
vt 0.3443180024623871 0.278952956199646
vt 0.3336690068244934 0.1776750087738037
vt 0.5 0.30383503437042236
vt 0.3336690068244934 0.1776750087738037
vt 0.5 0.22228896617889404
vt 0.6556820273399353 0.278952956199646
vt 0.8334959745407104 0.2163119912147522
vt 0.8301380276679993 0.34130001068115234
vt 0.6556820273399353 0.278952956199646
vt 0.8301380276679993 0.34130001068115234
vt 0.6552919745445251 0.34797900915145874
vn -0.9066888594250916 -0.19970010187438034 0.37153086211752107
vn -0.7900179841874972 -0.20343016558187835 0.5783491613131752
vn -0.9377590564075232 -0.19145943522949357 0.28974339817720585
vn -0.9523353555670548 -0.1562410543024966 -0.26200401425820863
vn -0.9671179514214947 -0.2420536096127842 -0.07805714644869803
vn -0.9624440260705645 -0.13201028219753808 -0.23722306396134601
vn -0.9523353555670548 -0.1562410543024966 -0.26200401425820863
vn -0.9624440260705645 -0.13201028219753808 -0.23722306396134601
vn -0.9415462609470028 -0.08319732761970552 -0.3264488369923502
vn -0.9610230782665086 -0.27430472657154786 0.03451898057116715
vn -0.9696452079333221 -0.20172337067799165 0.138187743502288
vn -0.9743583633161367 -0.18176959146739582 0.1326106913249293
vn -0.9610230782665086 -0.27430472657154786 0.03451898057116715
vn -0.9743583633161367 -0.18176959146739582 0.1326106913249293
vn -0.984377869977264 -0.17460268894711564 -0.02267399637164702
vn -0.9973144381911131 -0.07178069859701373 0.014541068890196877
vn -0.984377869977264 -0.17460268894711564 -0.02267399637164702
vn -0.9743583633161367 -0.18176959146739582 0.1326106913249293
vn -0.9973144381911131 -0.07178069859701373 0.014541068890196877
vn -0.9743583633161367 -0.18176959146739582 0.1326106913249293
vn -0.9810958480026989 -0.1480888481626162 0.12458182083167207
vn -0.9594512395508636 -0.031122879452122634 -0.28015118293328695
vn -0.9315339024686157 -0.019534695872564845 -0.3631294317578212
vn -0.9415462609470028 -0.08319732761970552 -0.3264488369923502
vn -0.9594512395508636 -0.031122879452122634 -0.28015118293328695
vn -0.9415462609470028 -0.08319732761970552 -0.3264488369923502
vn -0.9624440260705645 -0.13201028219753808 -0.23722306396134601
vn -0.9594512395508636 -0.031122879452122634 -0.28015118293328695
vn -0.9624440260705645 -0.13201028219753808 -0.23722306396134601
vn -0.984377869977264 -0.17460268894711564 -0.02267399637164702
vn -0.9594512395508636 -0.031122879452122634 -0.28015118293328695
vn -0.984377869977264 -0.17460268894711564 -0.02267399637164702
vn -0.9973144381911131 -0.07178069859701373 0.014541068890196877
vn -0.9377590564075232 -0.19145943522949357 0.28974339817720585
vn -0.9743583633161367 -0.18176959146739582 0.1326106913249293
vn -0.9696452079333221 -0.20172337067799165 0.138187743502288
vn -0.9377590564075232 -0.19145943522949357 0.28974339817720585
vn -0.9696452079333221 -0.20172337067799165 0.138187743502288
vn -0.9066888594250916 -0.19970010187438034 0.37153086211752107
vn -0.984377869977264 -0.17460268894711564 -0.02267399637164702
vn -0.9624440260705645 -0.13201028219753808 -0.23722306396134601
vn -0.9671179514214947 -0.2420536096127842 -0.07805714644869803
vn -0.984377869977264 -0.17460268894711564 -0.02267399637164702
vn -0.9671179514214947 -0.2420536096127842 -0.07805714644869803
vn -0.9610230782665086 -0.27430472657154786 0.03451898057116715
vn -0.9743583633161367 -0.18176959146739582 0.1326106913249293
vn -0.9377590564075232 -0.19145943522949357 0.28974339817720585
vn -0.8448518565775248 -0.05514182150745796 0.5321510311540786
vn -0.9743583633161367 -0.18176959146739582 0.1326106913249293
vn -0.8448518565775248 -0.05514182150745796 0.5321510311540786
vn -0.9810958480026989 -0.1480888481626162 0.12458182083167207
f 1/1/1 2/2/2 3/3/3
f 4/4/4 5/5/5 6/6/6
f 7/7/7 8/8/8 9/9/9
f 10/10/10 11/11/11 12/12/12
f 13/13/13 14/14/14 15/15/15
f 16/16/16 17/17/17 18/18/18
f 19/19/19 20/20/20 21/21/21
f 22/22/22 23/23/23 24/24/24
f 25/25/25 26/26/26 27/27/27
f 28/28/28 29/29/29 30/30/30
f 31/31/31 32/32/32 33/33/33
f 34/34/34 35/35/35 36/36/36
f 37/37/37 38/38/38 39/39/39
f 40/40/40 41/41/41 42/42/42
f 43/43/43 44/44/44 45/45/45
f 46/46/46 47/47/47 48/48/48
f 49/49/49 50/50/50 51/51/51
