mtllib ArcadaCompleta.mtl
o 460
usemtl Enamel2
v -7.804140090942383 -23.026962280273438 1.8560794736291035
v -7.749899864196777 -21.733882904052734 2.1849693204308616
v -8.395689964294434 -23.748132705688477 2.4344793702508074
v -7.804140090942383 -23.026962280273438 -1.8592306231116191
v -7.729249954223633 -21.905412673950195 -2.46261058794011
v -7.44612979888916 -21.562562942504883 -1.0065705631827246
v -7.337299823760986 -20.751163482666016 -0.0015765816173757832
v -7.1244001388549805 -20.27599334716797 -0.0015765816173756778
v -7.319180011749268 -20.486682891845703 0.9367174054528346
v -7.337299823760986 -20.751163482666016 -0.0015765816173757832
v -7.319180011749268 -20.486682891845703 0.9367174054528346
v -7.44612979888916 -21.562562942504883 1.00341941370021
v -7.483240127563477 -20.549882888793945 -2.0420504664038552
v -7.214479923248291 -20.486682891845703 -0.9398705814932714
v -7.44612979888916 -21.562562942504883 -1.0065705631827246
v -7.483240127563477 -20.549882888793945 -2.0420504664038552
v -7.44612979888916 -21.562562942504883 -1.0065705631827246
v -7.729249954223633 -21.905412673950195 -2.46261058794011
v -7.44612979888916 -21.562562942504883 1.00341941370021
v -7.749899864196777 -21.733882904052734 2.1849693204308616
v -7.804140090942383 -23.026962280273438 1.8560794736291035
v -7.44612979888916 -21.562562942504883 -1.0065705631827246
v -7.214479923248291 -20.486682891845703 -0.9398705814932714
v -7.1244001388549805 -20.27599334716797 -0.0015765816173756778
v -7.44612979888916 -21.562562942504883 -1.0065705631827246
v -7.1244001388549805 -20.27599334716797 -0.0015765816173756778
v -7.337299823760986 -20.751163482666016 -0.0015765816173757832
v -7.749899864196777 -21.733882904052734 2.1849693204308616
v -7.44612979888916 -21.562562942504883 1.00341941370021
v -7.319180011749268 -20.486682891845703 0.9367174054528346
v -7.749899864196777 -21.733882904052734 2.1849693204308616
v -7.319180011749268 -20.486682891845703 0.9367174054528346
v -7.494589805603027 -20.54989242553711 1.993159427776443
vt 0.19254900515079498 0.07978600263595581
vt 0.1381160020828247 0.21628403663635254
vt 0.09682050347328186 0.0036638379096984863
vt 0.8074510097503662 0.07978600263595581
vt 0.9073119759559631 0.1981779932975769
vt 0.6663309931755066 0.23436999320983887
vt 0.5 0.32002103328704834
vt 0.5 0.37018096446990967
vt 0.34470799565315247 0.34793996810913086
vt 0.5 0.32002103328704834
vt 0.34470799565315247 0.34793996810913086
vt 0.3336690068244934 0.23436999320983887
vt 0.8377079963684082 0.34126901626586914
vt 0.6552919745445251 0.34793996810913086
vt 0.6663309931755066 0.23436999320983887
vt 0.8377079963684082 0.34126901626586914
vt 0.6663309931755066 0.23436999320983887
vt 0.9073119759559631 0.1981779932975769
vt 0.3336690068244934 0.23436999320983887
vt 0.1381160020828247 0.21628403663635254
vt 0.19254900515079498 0.07978600263595581
vt 0.6663309931755066 0.23436999320983887
vt 0.6552919745445251 0.34793996810913086
vt 0.5 0.37018096446990967
vt 0.6663309931755066 0.23436999320983887
vt 0.5 0.37018096446990967
vt 0.5 0.32002103328704834
vt 0.1381160020828247 0.21628403663635254
vt 0.3336690068244934 0.23436999320983887
vt 0.34470799565315247 0.34793996810913086
vt 0.1381160020828247 0.21628403663635254
vt 0.34470799565315247 0.34793996810913086
vt 0.16986100375652313 0.3412669897079468
vn 0.9092986466840558 -0.13799762548466285 0.3925972828473717
vn 0.9437917649185122 -0.14074345800112545 0.2990792261289391
vn 0.7916973811827117 -0.18157100637487406 0.583307145740948
vn 0.9766904773286329 -0.14856778762326525 -0.15493006156422784
vn 0.9777774478960506 -0.13829746373041155 -0.15755974711715426
vn 0.9756044951160187 -0.1823025235230813 -0.12231786061951436
vn 0.9605843229557461 -0.2630061588595648 0.09003065529911561
vn 0.9491283495670356 -0.30918520431344354 0.05966477588836901
vn 0.9760875527921586 -0.16857709150796232 0.13724013080338754
vn 0.9605843229557461 -0.2630061588595648 0.09003065529911561
vn 0.9760875527921586 -0.16857709150796232 0.13724013080338754
vn 0.9785185746120101 -0.10466295153212295 0.17761493663502745
vn 0.9036575695138399 0.005061191716552073 -0.42822585325824036
vn 0.9692540993781601 -0.19978714722745014 -0.14363699607465027
vn 0.9756044951160187 -0.1823025235230813 -0.12231786061951436
vn 0.9036575695138399 0.005061191716552073 -0.42822585325824036
vn 0.9756044951160187 -0.1823025235230813 -0.12231786061951436
vn 0.9777774478960506 -0.13829746373041155 -0.15755974711715426
vn 0.9785185746120101 -0.10466295153212295 0.17761493663502745
vn 0.9437917649185122 -0.14074345800112545 0.2990792261289391
vn 0.9092986466840558 -0.13799762548466285 0.3925972828473717
vn 0.9756044951160187 -0.1823025235230813 -0.12231786061951436
vn 0.9692540993781601 -0.19978714722745014 -0.14363699607465027
vn 0.9491283495670356 -0.30918520431344354 0.05966477588836901
vn 0.9756044951160187 -0.1823025235230813 -0.12231786061951436
vn 0.9491283495670356 -0.30918520431344354 0.05966477588836901
vn 0.9605843229557461 -0.2630061588595648 0.09003065529911561
vn 0.9437917649185122 -0.14074345800112545 0.2990792261289391
vn 0.9785185746120101 -0.10466295153212295 0.17761493663502745
vn 0.9760875527921586 -0.16857709150796232 0.13724013080338754
vn 0.9437917649185122 -0.14074345800112545 0.2990792261289391
vn 0.9760875527921586 -0.16857709150796232 0.13724013080338754
vn 0.8016924866292698 0.006563734735556005 0.5977006560716654
f 1/1/1 2/2/2 3/3/3
f 4/4/4 5/5/5 6/6/6
f 7/7/7 8/8/8 9/9/9
f 10/10/10 11/11/11 12/12/12
f 13/13/13 14/14/14 15/15/15
f 16/16/16 17/17/17 18/18/18
f 19/19/19 20/20/20 21/21/21
f 22/22/22 23/23/23 24/24/24
f 25/25/25 26/26/26 27/27/27
f 28/28/28 29/29/29 30/30/30
f 31/31/31 32/32/32 33/33/33
