mtllib ArcadaCompleta.mtl
o 460_1
usemtl M
v -6.646130084991455 -16.794452667236328 -0.0015765816173749047
v -6.733520030975342 -16.794443130493164 0.7595414067650912
v -6.975069999694824 -18.8153018951416 0.9137483979607695
v -6.646130084991455 -16.794452667236328 -0.0015765816173749047
v -6.975069999694824 -18.8153018951416 0.9137483979607695
v -6.96235990524292 -18.815311431884766 -0.0015765816173753534
v -6.646130084991455 -16.794452667236328 -0.0015765816173749047
v -6.576109886169434 -14.314302444458008 -0.49326558457363806
v -6.665339946746826 -14.334632873535156 -0.017654780760895848
v -6.646130084991455 -16.794452667236328 -0.0015765816173749047
v -6.665339946746826 -14.334632873535156 -0.017654780760895848
v -6.733520030975342 -16.794443130493164 0.7595414067650912
v -6.646130084991455 -16.794452667236328 -0.0015765816173749047
v -6.866769790649414 -16.794422149658203 -0.730259582862747
v -6.665369987487793 -14.73972225189209 -0.8501955722426293
v -6.646130084991455 -16.794452667236328 -0.0015765816173749047
v -6.665369987487793 -14.73972225189209 -0.8501955722426293
v -6.576109886169434 -14.314302444458008 -0.49326558457363806
v -7.494589805603027 -20.54989242553711 1.993159427776443
v -7.262249946594238 -18.815282821655273 1.7081993962670439
v -7.960519790649414 -18.81519317626953 2.189629449977981
v -7.494589805603027 -20.54989242553711 1.993159427776443
v -7.960519790649414 -18.81519317626953 2.189629449977981
v -8.022159576416016 -20.549823760986328 2.5899394894982444
v -7.494589805603027 -20.54989242553711 1.993159427776443
v -7.319180011749268 -20.486682891845703 0.9367174054528346
v -6.975069999694824 -18.8153018951416 0.9137483979607695
v -7.494589805603027 -20.54989242553711 1.993159427776443
v -6.975069999694824 -18.8153018951416 0.9137483979607695
v -7.262249946594238 -18.815282821655273 1.7081993962670439
v -7.1244001388549805 -20.27599334716797 -0.0015765816173756778
v -7.214479923248291 -20.486682891845703 -0.9398705814932714
v -7.096930027008057 -18.81527328491211 -1.0759805296515352
v -7.1244001388549805 -20.27599334716797 -0.0015765816173756778
v -7.096930027008057 -18.81527328491211 -1.0759805296515352
v -6.96235990524292 -18.815311431884766 -0.0015765816173753534
v -6.733520030975342 -16.794443130493164 0.7595414067650912
v -6.923840045928955 -16.79443359375 1.1117893601800084
v -7.262249946594238 -18.815282821655273 1.7081993962670439
v -6.733520030975342 -16.794443130493164 0.7595414067650912
v -7.262249946594238 -18.815282821655273 1.7081993962670439
v -6.975069999694824 -18.8153018951416 0.9137483979607695
v -7.262249946594238 -18.815282821655273 1.7081993962670439
v -6.923840045928955 -16.79443359375 1.1117893601800084
v -7.863379955291748 -16.794322967529297 1.3971294309044957
v -7.262249946594238 -18.815282821655273 1.7081993962670439
v -7.863379955291748 -16.794322967529297 1.3971294309044957
v -7.960519790649414 -18.81519317626953 2.189629449977981
v -7.096930027008057 -18.81527328491211 -1.0759805296515352
v -7.214479923248291 -20.486682891845703 -0.9398705814932714
v -7.483240127563477 -20.549882888793945 -2.0420504664038552
v -6.96235990524292 -18.815311431884766 -0.0015765816173753534
v -7.096930027008057 -18.81527328491211 -1.0759805296515352
v -6.866769790649414 -16.794422149658203 -0.730259582862747
v -6.96235990524292 -18.815311431884766 -0.0015765816173753534
v -6.866769790649414 -16.794422149658203 -0.730259582862747
v -6.646130084991455 -16.794452667236328 -0.0015765816173749047
v -6.96235990524292 -18.815311431884766 -0.0015765816173753534
v -6.975069999694824 -18.8153018951416 0.9137483979607695
v -7.319180011749268 -20.486682891845703 0.9367174054528346
v -6.96235990524292 -18.815311431884766 -0.0015765816173753534
v -7.319180011749268 -20.486682891845703 0.9367174054528346
v -7.1244001388549805 -20.27599334716797 -0.0015765816173756778
v -7.442560195922852 -16.794382095336914 -0.8754106019591215
v -7.448770046234131 -15.76705265045166 -0.8628035639380336
v -6.665369987487793 -14.73972225189209 -0.8501955722426293
v -7.442560195922852 -16.794382095336914 -0.8754106019591215
v -6.665369987487793 -14.73972225189209 -0.8501955722426293
v -6.866769790649414 -16.794422149658203 -0.730259582862747
v -6.665339946746826 -14.334632873535156 -0.017654780760895848
v -6.923840045928955 -16.79443359375 1.1117893601800084
v -6.733520030975342 -16.794443130493164 0.7595414067650912
v -7.863379955291748 -16.794322967529297 1.3971294309044957
v -6.923840045928955 -16.79443359375 1.1117893601800084
v -6.665339946746826 -14.334632873535156 -0.017654780760895848
v -7.863379955291748 -16.794322967529297 1.3971294309044957
v -6.665339946746826 -14.334632873535156 -0.017654780760895848
v -7.859710216522217 -15.758862495422363 0.861257388725388
v -8.115659713745117 -20.549823760986328 -2.3389304731940164
v -7.576230049133301 -18.81523323059082 -1.1708305929755098
v -7.096930027008057 -18.81527328491211 -1.0759805296515352
v -8.115659713745117 -20.549823760986328 -2.3389304731940164
v -7.096930027008057 -18.81527328491211 -1.0759805296515352
v -7.483240127563477 -20.549882888793945 -2.0420504664038552
v -8.180060386657715 -18.815181732177734 -1.2770405863379366
v -7.442560195922852 -16.794382095336914 -0.8754106019591215
v -7.576230049133301 -18.81523323059082 -1.1708305929755098
v -8.180060386657715 -18.815181732177734 -1.2770405863379366
v -7.576230049133301 -18.81523323059082 -1.1708305929755098
v -8.115659713745117 -20.549823760986328 -2.3389304731940164
v -7.576230049133301 -18.81523323059082 -1.1708305929755098
v -7.442560195922852 -16.794382095336914 -0.8754106019591215
v -6.866769790649414 -16.794422149658203 -0.730259582862747
v -7.576230049133301 -18.81523323059082 -1.1708305929755098
v -6.866769790649414 -16.794422149658203 -0.730259582862747
v -7.096930027008057 -18.81527328491211 -1.0759805296515352
vt 0.5 0.7376940250396729
vt 0.3740310072898865 0.7376949787139893
vt 0.3485090136528015 0.5243719816207886
vt 0.5 0.7376940250396729
vt 0.3485090136528015 0.5243719816207886
vt 0.5 0.5243710279464722
vt 0.5 0.7376940250396729
vt 0.5813770294189453 0.9994999766349792
vt 0.5026609897613525 0.9973539710044861
vt 0.5 0.7376940250396729
vt 0.5026609897613525 0.9973539710044861
vt 0.3740310072898865 0.7376949787139893
vt 0.5 0.7376940250396729
vt 0.6205999851226807 0.7376970052719116
vt 0.6404500007629395 0.9545930027961731
vt 0.5 0.7376940250396729
vt 0.6404500007629395 0.9545930027961731
vt 0.5813770294189453 0.9994999766349792
vt 0.8169670104980469 0.3412669897079468
vt 0.8631410002708435 0.5243740081787109
vt 0.7243710160255432 0.524383008480072
vt 0.16986100375652313 0.3412669897079468
vt 0.13734400272369385 0.524383008480072
vt 0.0710911974310875 0.3412749767303467
vt 0.16986100375652313 0.3412669897079468
vt 0.34470799565315247 0.34793996810913086
vt 0.3485090136528015 0.5243719816207886
vt 0.16986100375652313 0.3412669897079468
vt 0.3485090136528015 0.5243719816207886
vt 0.2170249968767166 0.5243740081787109
vt 0.5 0.37018096446990967
vt 0.6552919745445251 0.34793996810913086
vt 0.677819013595581 0.5243750214576721
vt 0.5 0.37018096446990967
vt 0.677819013595581 0.5243750214576721
vt 0.5 0.5243710279464722
vt 0.3740310072898865 0.7376949787139893
vt 0.3157329857349396 0.7376970052719116
vt 0.2170249968767166 0.5243740081787109
vt 0.3740310072898865 0.7376949787139893
vt 0.2170249968767166 0.5243740081787109
vt 0.3485090136528015 0.5243719816207886
vt 0.8631410002708435 0.5243740081787109
vt 0.9303950071334839 0.7376970052719116
vt 0.743677020072937 0.7377079725265503
vt 0.8631410002708435 0.5243740081787109
vt 0.743677020072937 0.7377079725265503
vt 0.7243710160255432 0.524383008480072
vt 0.677819013595581 0.5243750214576721
vt 0.6552919745445251 0.34793996810913086
vt 0.8377079963684082 0.34126901626586914
vt 0.5 0.5243710279464722
vt 0.677819013595581 0.5243750214576721
vt 0.6205999851226807 0.7376970052719116
vt 0.5 0.5243710279464722
vt 0.6205999851226807 0.7376970052719116
vt 0.5 0.7376940250396729
vt 0.5 0.5243710279464722
vt 0.3485090136528015 0.5243719816207886
vt 0.34470799565315247 0.34793996810913086
vt 0.5 0.5243710279464722
vt 0.34470799565315247 0.34793996810913086
vt 0.5 0.37018096446990967
vt 0.17269200086593628 0.7377020120620728
vt 0.17392699420452118 0.8461470007896423
vt 0.01823900081217289 0.9545930027961731
vt 0.17269200086593628 0.7377020120620728
vt 0.01823900081217289 0.9545930027961731
vt 0.05826349928975105 0.7376970052719116
vt 0.5026609897613525 0.9973539710044861
vt 0.3157329857349396 0.7376970052719116
vt 0.3740310072898865 0.7376949787139893
vt 0.743677020072937 0.7377079725265503
vt 0.9303950071334839 0.7376970052719116
vt 0.9817659854888916 0.9973539710044861
vt 0.743677020072937 0.7377079725265503
vt 0.9817659854888916 0.9973539710044861
vt 0.7444049715995789 0.8470110297203064
vt 0.3064599931240082 0.3412749767303467
vt 0.1992570012807846 0.5243790149688721
vt 0.10400500148534775 0.5243750214576721
vt 0.3064599931240082 0.3412749767303467
vt 0.10400500148534775 0.5243750214576721
vt 0.18077799677848816 0.34126901626586914
vt 0.3192580044269562 0.5243840217590332
vt 0.17269200086593628 0.7377020120620728
vt 0.1992570012807846 0.5243790149688721
vt 0.3192580044269562 0.5243840217590332
vt 0.1992570012807846 0.5243790149688721
vt 0.3064599931240082 0.3412749767303467
vt 0.1992570012807846 0.5243790149688721
vt 0.17269200086593628 0.7377020120620728
vt 0.05826349928975105 0.7376970052719116
vt 0.1992570012807846 0.5243790149688721
vt 0.05826349928975105 0.7376970052719116
vt 0.10400500148534775 0.5243750214576721
vn 0.9953727087443305 -0.08591383662217997 -0.04303467629518765
vn 0.9634343770408192 -0.026847691617583033 0.2665959538154612
vn 0.9772900109324345 -0.13997505270616503 0.15909500039783833
vn 0.9953727087443305 -0.08591383662217997 -0.04303467629518765
vn 0.9772900109324345 -0.13997505270616503 0.15909500039783833
vn 0.9889319956383523 -0.13513549103595368 -0.06125281271270243
vn 0.9953727087443305 -0.08591383662217997 -0.04303467629518765
vn 0.9995905224177694 -0.025744460686090133 0.012490405780164693
vn 0.9736467887921648 0.037492445415392706 0.22495832327673354
vn 0.9953727087443305 -0.08591383662217997 -0.04303467629518765
vn 0.9736467887921648 0.037492445415392706 0.22495832327673354
vn 0.9634343770408192 -0.026847691617583033 0.2665959538154612
vn 0.9953727087443305 -0.08591383662217997 -0.04303467629518765
vn 0.9686749857670669 -0.11388397634769414 -0.22067897924453642
vn 0.9664402681499448 -0.09028081856454451 -0.24050484797105126
vn 0.9953727087443305 -0.08591383662217997 -0.04303467629518765
vn 0.9664402681499448 -0.09028081856454451 -0.24050484797105126
vn 0.9995905224177694 -0.025744460686090133 0.012490405780164693
vn 0.8016924866292698 0.006563734735556005 0.5977006560716654
vn 0.4568794747620168 0.20260112510446596 0.8661489073176668
vn 0.6176970908800993 0.16687523539758461 0.7685069679119788
vn 0.9255367145783395 -0.06377204585851598 0.3732491341377133
vn 0.6176970908800993 0.16687523539758461 0.7685069679119788
vn 0.7433244750166027 0.12522963451931973 0.6571044540097483
vn 0.9255367145783395 -0.06377204585851598 0.3732491341377133
vn 0.9782667821189636 -0.17327449709774007 0.11388613461758101
vn 0.9772900109324345 -0.13997505270616503 0.15909500039783833
vn 0.9255367145783395 -0.06377204585851598 0.3732491341377133
vn 0.9772900109324345 -0.13997505270616503 0.15909500039783833
vn 0.9278522786562327 -0.06429193208158783 0.36736452803945724
vn 0.9950209373447431 -0.09840746491707666 -0.01578939815772931
vn 0.9833683823268573 -0.0823429512813658 -0.1618834859216174
vn 0.9856659915719685 -0.09098713429305548 -0.14207003361576837
vn 0.9950209373447431 -0.09840746491707666 -0.01578939815772931
vn 0.9856659915719685 -0.09098713429305548 -0.14207003361576837
vn 0.9889319956383523 -0.13513549103595368 -0.06125281271270243
vn 0.9634343770408192 -0.026847691617583033 0.2665959538154612
vn 0.8778916781070175 0.06574763048825015 0.47432420410055504
vn 0.9278522786562327 -0.06429193208158783 0.36736452803945724
vn 0.9634343770408192 -0.026847691617583033 0.2665959538154612
vn 0.9278522786562327 -0.06429193208158783 0.36736452803945724
vn 0.9772900109324345 -0.13997505270616503 0.15909500039783833
vn 0.4568794747620168 0.20260112510446596 0.8661489073176668
vn 0.2760054981775206 0.3132364655281341 0.9086824977071037
vn 0.31110480094309734 0.3365335702072638 0.8887963540393877
vn 0.4568794747620168 0.20260112510446596 0.8661489073176668
vn 0.31110480094309734 0.3365335702072638 0.8887963540393877
vn 0.6176970908800993 0.16687523539758461 0.7685069679119788
vn 0.9856659915719685 -0.09098713429305548 -0.14207003361576837
vn 0.9833683823268573 -0.0823429512813658 -0.1618834859216174
vn 0.9689874886765724 -0.08698396063052033 -0.23129426577694878
vn 0.9889319956383523 -0.13513549103595368 -0.06125281271270243
vn 0.9856659915719685 -0.09098713429305548 -0.14207003361576837
vn 0.9686749857670669 -0.11388397634769414 -0.22067897924453642
vn 0.9889319956383523 -0.13513549103595368 -0.06125281271270243
vn 0.9686749857670669 -0.11388397634769414 -0.22067897924453642
vn 0.9953727087443305 -0.08591383662217997 -0.04303467629518765
vn 0.9889319956383523 -0.13513549103595368 -0.06125281271270243
vn 0.9772900109324345 -0.13997505270616503 0.15909500039783833
vn 0.9782667821189636 -0.17327449709774007 0.11388613461758101
vn 0.9889319956383523 -0.13513549103595368 -0.06125281271270243
vn 0.9782667821189636 -0.17327449709774007 0.11388613461758101
vn 0.9950209373447431 -0.09840746491707666 -0.01578939815772931
vn 0.1808700740898945 0.05082388261350518 -0.9821929287338638
vn 0.0000011939288150149342 0.01227074293241336 -0.999924711599059
vn 0.14776069091759816 -0.04376604015799641 -0.9880543061737259
vn 0.1808700740898945 0.05082388261350518 -0.9821929287338638
vn 0.14776069091759816 -0.04376604015799641 -0.9880543061737259
vn 0.22954950381732486 0.05752287965865975 -0.971595668790776
vn 0.9736467887921648 0.037492445415392706 0.22495832327673354
vn 0.8778916781070175 0.06574763048825015 0.47432420410055504
vn 0.9634343770408192 -0.026847691617583033 0.2665959538154612
vn 0.31110480094309734 0.3365335702072638 0.8887963540393877
vn 0.2760054981775206 0.3132364655281341 0.9086824977071037
vn 0.21282784966403823 0.4072140530459394 0.8881897440351811
vn 0.31110480094309734 0.3365335702072638 0.8887963540393877
vn 0.21282784966403823 0.4072140530459394 0.8881897440351811
vn 0.10534959464174172 0.456766315059537 0.8833266645673913
vn 0.24597897225180126 0.4706703252152935 -0.8473274397608503
vn 0.1880948351377071 0.2897994520222828 -0.938422405211056
vn 0.2692479626284315 0.35501987573356913 -0.8952465707583357
vn 0.24597897225180126 0.4706703252152935 -0.8473274397608503
vn 0.2692479626284315 0.35501987573356913 -0.8952465707583357
vn 0.9036575695138399 0.005061191716552073 -0.42822585325824036
vn 0.16339525271304292 0.3326663008587116 -0.9287815263364264
vn 0.1808700740898945 0.05082388261350518 -0.9821929287338638
vn 0.1880948351377071 0.2897994520222828 -0.938422405211056
vn 0.16339525271304292 0.3326663008587116 -0.9287815263364264
vn 0.1880948351377071 0.2897994520222828 -0.938422405211056
vn 0.24597897225180126 0.4706703252152935 -0.8473274397608503
vn 0.1880948351377071 0.2897994520222828 -0.938422405211056
vn 0.1808700740898945 0.05082388261350518 -0.9821929287338638
vn 0.22954950381732486 0.05752287965865975 -0.971595668790776
vn 0.1880948351377071 0.2897994520222828 -0.938422405211056
vn 0.22954950381732486 0.05752287965865975 -0.971595668790776
vn 0.2692479626284315 0.35501987573356913 -0.8952465707583357
f 1/1/1 2/2/2 3/3/3
f 4/4/4 5/5/5 6/6/6
f 7/7/7 8/8/8 9/9/9
f 10/10/10 11/11/11 12/12/12
f 13/13/13 14/14/14 15/15/15
f 16/16/16 17/17/17 18/18/18
f 19/19/19 20/20/20 21/21/21
f 22/22/22 23/23/23 24/24/24
f 25/25/25 26/26/26 27/27/27
f 28/28/28 29/29/29 30/30/30
f 31/31/31 32/32/32 33/33/33
f 34/34/34 35/35/35 36/36/36
f 37/37/37 38/38/38 39/39/39
f 40/40/40 41/41/41 42/42/42
f 43/43/43 44/44/44 45/45/45
f 46/46/46 47/47/47 48/48/48
f 49/49/49 50/50/50 51/51/51
f 52/52/52 53/53/53 54/54/54
f 55/55/55 56/56/56 57/57/57
f 58/58/58 59/59/59 60/60/60
f 61/61/61 62/62/62 63/63/63
f 64/64/64 65/65/65 66/66/66
f 67/67/67 68/68/68 69/69/69
f 70/70/70 71/71/71 72/72/72
f 73/73/73 74/74/74 75/75/75
f 76/76/76 77/77/77 78/78/78
f 79/79/79 80/80/80 81/81/81
f 82/82/82 83/83/83 84/84/84
f 85/85/85 86/86/86 87/87/87
f 88/88/88 89/89/89 90/90/90
f 91/91/91 92/92/92 93/93/93
f 94/94/94 95/95/95 96/96/96
