mtllib ArcadaCompleta.mtl
o 518
usemtl Enamel21
v -60.31370162963867 -20.696962356567383 0.00022763939665078125
v -59.90079879760742 -19.74038314819336 0.001796148371393138
v -59.98899841308594 -19.74038314819336 1.3873493815804594
v -60.31370162963867 -20.696962356567383 0.00022763939665078125
v -59.98899841308594 -19.74038314819336 1.3873493815804594
v -60.407100677490234 -20.68357276916504 1.8166394378090969
v -60.407100677490234 -20.68357276916504 -1.8161805723761448
v -59.98899841308594 -19.74038314819336 -1.3837505434607393
v -59.90079879760742 -19.74038314819336 0.001796148371393138
v -60.407100677490234 -20.68357276916504 -1.8161805723761448
v -59.90079879760742 -19.74038314819336 0.001796148371393138
v -60.31370162963867 -20.696962356567383 0.00022763939665078125
vt 0.4978269934654236 0.09035557508468628
vt 0.4976690113544464 0.2252979874610901
vt 0.3582969903945923 0.2252979874610901
vt 0.4978269934654236 0.09035557508468628
vt 0.3582969903945923 0.2252979874610901
vt 0.3151150047779083 0.09224426746368408
vt 0.6805390119552612 0.09224426746368408
vt 0.6370409727096558 0.2252979874610901
vt 0.4976690113544464 0.2252979874610901
vt 0.6805390119552612 0.09224426746368408
vt 0.4976690113544464 0.2252979874610901
vt 0.4978269934654236 0.09035557508468628
vn 0.9195802080914254 -0.39257651444521224 0.01599753707852654
vn 0.9196897392672501 -0.3921504212299689 -0.019718788393186654
vn 0.9192457891588494 -0.3899954300313113 0.05376563650155017
vn 0.9195802080914254 -0.39257651444521224 0.01599753707852654
vn 0.9192457891588494 -0.3899954300313113 0.05376563650155017
vn 0.9213187717096589 -0.385551667055607 0.05021586329087244
vn 0.9193094320604485 -0.3898449518025555 -0.05376877977747835
vn 0.9223227317754131 -0.3819340987652266 -0.05871220188967169
vn 0.9196897392672501 -0.3921504212299689 -0.019718788393186654
vn 0.9193094320604485 -0.3898449518025555 -0.05376877977747835
vn 0.9196897392672501 -0.3921504212299689 -0.019718788393186654
vn 0.9195802080914254 -0.39257651444521224 0.01599753707852654
f 1/1/1 2/2/2 3/3/3
f 4/4/4 5/5/5 6/6/6
f 7/7/7 8/8/8 9/9/9
f 10/10/10 11/11/11 12/12/12
