mtllib ArcadaCompleta.mtl
o 608_1
usemtl M
v 6.962920188903809 -18.8153018951416 0.9137483979607695
v 6.721370220184326 -16.794443130493164 0.7595414067650912
v 6.633979797363281 -16.794452667236328 -0.0015765816173749047
v 6.950210094451904 -18.815311431884766 -0.0015765816173753534
v 6.962920188903809 -18.8153018951416 0.9137483979607695
v 6.633979797363281 -16.794452667236328 -0.0015765816173749047
v 6.6531901359558105 -14.334632873535156 -0.017654780760895848
v 6.563960075378418 -14.314302444458008 -0.49326558457363806
v 6.633979797363281 -16.794452667236328 -0.0015765816173749047
v 6.721370220184326 -16.794443130493164 0.7595414067650912
v 6.6531901359558105 -14.334632873535156 -0.017654780760895848
v 6.633979797363281 -16.794452667236328 -0.0015765816173749047
v 6.653220176696777 -14.73972225189209 -0.8501955722426293
v 6.854619979858398 -16.794422149658203 -0.730259582862747
v 6.633979797363281 -16.794452667236328 -0.0015765816173749047
v 6.563960075378418 -14.314302444458008 -0.49326558457363806
v 6.653220176696777 -14.73972225189209 -0.8501955722426293
v 6.633979797363281 -16.794452667236328 -0.0015765816173749047
v 7.948369979858398 -18.81519317626953 2.189629449977981
v 7.250100135803223 -18.815282821655273 1.7081993962670439
v 7.482439994812012 -20.54989242553711 1.993159427776443
v 8.010009765625 -20.549823760986328 2.5899394894982444
v 7.948369979858398 -18.81519317626953 2.189629449977981
v 7.482439994812012 -20.54989242553711 1.993159427776443
v 6.962920188903809 -18.8153018951416 0.9137483979607695
v 7.307030200958252 -20.486682891845703 0.9367174054528346
v 7.482439994812012 -20.54989242553711 1.993159427776443
v 7.250100135803223 -18.815282821655273 1.7081993962670439
v 6.962920188903809 -18.8153018951416 0.9137483979607695
v 7.482439994812012 -20.54989242553711 1.993159427776443
v 7.084790229797363 -18.81527328491211 -1.0759805296515352
v 7.202330112457275 -20.486682891845703 -0.9398705814932714
v 7.112249851226807 -20.27599334716797 -0.0015765816173756778
v 6.950210094451904 -18.815311431884766 -0.0015765816173753534
v 7.084790229797363 -18.81527328491211 -1.0759805296515352
v 7.112249851226807 -20.27599334716797 -0.0015765816173756778
v 7.250100135803223 -18.815282821655273 1.7081993962670439
v 6.9116902351379395 -16.79443359375 1.1117893601800084
v 6.721370220184326 -16.794443130493164 0.7595414067650912
v 6.962920188903809 -18.8153018951416 0.9137483979607695
v 7.250100135803223 -18.815282821655273 1.7081993962670439
v 6.721370220184326 -16.794443130493164 0.7595414067650912
v 7.851230144500732 -16.794322967529297 1.3971294309044957
v 6.9116902351379395 -16.79443359375 1.1117893601800084
v 7.250100135803223 -18.815282821655273 1.7081993962670439
v 7.948369979858398 -18.81519317626953 2.189629449977981
v 7.851230144500732 -16.794322967529297 1.3971294309044957
v 7.250100135803223 -18.815282821655273 1.7081993962670439
v 7.471089839935303 -20.549882888793945 -2.0420504664038552
v 7.202330112457275 -20.486682891845703 -0.9398705814932714
v 7.084790229797363 -18.81527328491211 -1.0759805296515352
v 6.854619979858398 -16.794422149658203 -0.730259582862747
v 7.084790229797363 -18.81527328491211 -1.0759805296515352
v 6.950210094451904 -18.815311431884766 -0.0015765816173753534
v 6.633979797363281 -16.794452667236328 -0.0015765816173749047
v 6.854619979858398 -16.794422149658203 -0.730259582862747
v 6.950210094451904 -18.815311431884766 -0.0015765816173753534
v 7.307030200958252 -20.486682891845703 0.9367174054528346
v 6.962920188903809 -18.8153018951416 0.9137483979607695
v 6.950210094451904 -18.815311431884766 -0.0015765816173753534
v 7.112249851226807 -20.27599334716797 -0.0015765816173756778
v 7.307030200958252 -20.486682891845703 0.9367174054528346
v 6.950210094451904 -18.815311431884766 -0.0015765816173753534
v 6.653220176696777 -14.73972225189209 -0.8501955722426293
v 7.436620235443115 -15.76705265045166 -0.8628035639380336
v 7.430409908294678 -16.794382095336914 -0.8754106019591215
v 6.854619979858398 -16.794422149658203 -0.730259582862747
v 6.653220176696777 -14.73972225189209 -0.8501955722426293
v 7.430409908294678 -16.794382095336914 -0.8754106019591215
v 6.721370220184326 -16.794443130493164 0.7595414067650912
v 6.9116902351379395 -16.79443359375 1.1117893601800084
v 6.6531901359558105 -14.334632873535156 -0.017654780760895848
v 6.6531901359558105 -14.334632873535156 -0.017654780760895848
v 6.9116902351379395 -16.79443359375 1.1117893601800084
v 7.851230144500732 -16.794322967529297 1.3971294309044957
v 7.847559928894043 -15.758862495422363 0.861257388725388
v 6.6531901359558105 -14.334632873535156 -0.017654780760895848
v 7.851230144500732 -16.794322967529297 1.3971294309044957
v 7.084790229797363 -18.81527328491211 -1.0759805296515352
v 7.564080238342285 -18.81523323059082 -1.1708305929755098
v 8.103509902954102 -20.549823760986328 -2.3389304731940164
v 7.471089839935303 -20.549882888793945 -2.0420504664038552
v 7.084790229797363 -18.81527328491211 -1.0759805296515352
v 8.103509902954102 -20.549823760986328 -2.3389304731940164
v 7.564080238342285 -18.81523323059082 -1.1708305929755098
v 7.430409908294678 -16.794382095336914 -0.8754106019591215
v 8.167909622192383 -18.815181732177734 -1.2770405863379366
v 8.103509902954102 -20.549823760986328 -2.3389304731940164
v 7.564080238342285 -18.81523323059082 -1.1708305929755098
v 8.167909622192383 -18.815181732177734 -1.2770405863379366
v 6.854619979858398 -16.794422149658203 -0.730259582862747
v 7.430409908294678 -16.794382095336914 -0.8754106019591215
v 7.564080238342285 -18.81523323059082 -1.1708305929755098
v 7.084790229797363 -18.81527328491211 -1.0759805296515352
v 6.854619979858398 -16.794422149658203 -0.730259582862747
v 7.564080238342285 -18.81523323059082 -1.1708305929755098
vt 0.3485090136528015 0.5243719816207886
vt 0.3740310072898865 0.7376949787139893
vt 0.5 0.7376940250396729
vt 0.5 0.5243710279464722
vt 0.3485090136528015 0.5243719816207886
vt 0.5 0.7376940250396729
vt 0.5026609897613525 0.9973539710044861
vt 0.5813770294189453 0.9994999766349792
vt 0.5 0.7376940250396729
vt 0.3740310072898865 0.7376949787139893
vt 0.5026609897613525 0.9973539710044861
vt 0.5 0.7376940250396729
vt 0.6404500007629395 0.9545930027961731
vt 0.6205999851226807 0.7376970052719116
vt 0.5 0.7376940250396729
vt 0.5813770294189453 0.9994999766349792
vt 0.6404500007629395 0.9545930027961731
vt 0.5 0.7376940250396729
vt 0.7243710160255432 0.524383008480072
vt 0.8631410002708435 0.5243740081787109
vt 0.8169670104980469 0.3412669897079468
vt 0.0710911974310875 0.3412749767303467
vt 0.13734400272369385 0.524383008480072
vt 0.16986100375652313 0.3412669897079468
vt 0.3485090136528015 0.5243719816207886
vt 0.34470799565315247 0.34793996810913086
vt 0.16986100375652313 0.3412669897079468
vt 0.2170249968767166 0.5243740081787109
vt 0.3485090136528015 0.5243719816207886
vt 0.16986100375652313 0.3412669897079468
vt 0.677819013595581 0.5243750214576721
vt 0.6552919745445251 0.34793996810913086
vt 0.5 0.37018096446990967
vt 0.5 0.5243710279464722
vt 0.677819013595581 0.5243750214576721
vt 0.5 0.37018096446990967
vt 0.2170249968767166 0.5243740081787109
vt 0.3157329857349396 0.7376970052719116
vt 0.3740310072898865 0.7376949787139893
vt 0.3485090136528015 0.5243719816207886
vt 0.2170249968767166 0.5243740081787109
vt 0.3740310072898865 0.7376949787139893
vt 0.743677020072937 0.7377079725265503
vt 0.9303950071334839 0.7376970052719116
vt 0.8631410002708435 0.5243740081787109
vt 0.7243710160255432 0.524383008480072
vt 0.743677020072937 0.7377079725265503
vt 0.8631410002708435 0.5243740081787109
vt 0.8377079963684082 0.34126901626586914
vt 0.6552919745445251 0.34793996810913086
vt 0.677819013595581 0.5243750214576721
vt 0.6205999851226807 0.7376970052719116
vt 0.677819013595581 0.5243750214576721
vt 0.5 0.5243710279464722
vt 0.5 0.7376940250396729
vt 0.6205999851226807 0.7376970052719116
vt 0.5 0.5243710279464722
vt 0.34470799565315247 0.34793996810913086
vt 0.3485090136528015 0.5243719816207886
vt 0.5 0.5243710279464722
vt 0.5 0.37018096446990967
vt 0.34470799565315247 0.34793996810913086
vt 0.5 0.5243710279464722
vt 0.01823900081217289 0.9545930027961731
vt 0.17392699420452118 0.8461470007896423
vt 0.17269200086593628 0.7377020120620728
vt 0.05826349928975105 0.7376970052719116
vt 0.01823900081217289 0.9545930027961731
vt 0.17269200086593628 0.7377020120620728
vt 0.3740310072898865 0.7376949787139893
vt 0.3157329857349396 0.7376970052719116
vt 0.5026609897613525 0.9973539710044861
vt 0.9817659854888916 0.9973539710044861
vt 0.9303950071334839 0.7376970052719116
vt 0.743677020072937 0.7377079725265503
vt 0.7444049715995789 0.8470110297203064
vt 0.9817659854888916 0.9973539710044861
vt 0.743677020072937 0.7377079725265503
vt 0.10400500148534775 0.5243750214576721
vt 0.1992570012807846 0.5243790149688721
vt 0.3064599931240082 0.3412749767303467
vt 0.18077799677848816 0.34126901626586914
vt 0.10400500148534775 0.5243750214576721
vt 0.3064599931240082 0.3412749767303467
vt 0.1992570012807846 0.5243790149688721
vt 0.17269200086593628 0.7377020120620728
vt 0.3192580044269562 0.5243840217590332
vt 0.3064599931240082 0.3412749767303467
vt 0.1992570012807846 0.5243790149688721
vt 0.3192580044269562 0.5243840217590332
vt 0.05826349928975105 0.7376970052719116
vt 0.17269200086593628 0.7377020120620728
vt 0.1992570012807846 0.5243790149688721
vt 0.10400500148534775 0.5243750214576721
vt 0.05826349928975105 0.7376970052719116
vt 0.1992570012807846 0.5243790149688721
vn -0.9772899906375532 -0.13997507960169583 0.15909510140211763
vn -0.9634343021322948 -0.026847626200204405 0.2665962311104044
vn -0.9953727094542452 -0.08591383153878572 -0.04303467002359965
vn -0.9889316885098585 -0.13513616848882182 -0.061256276635142465
vn -0.9772899906375532 -0.13997507960169583 0.15909510140211763
vn -0.9953727094542452 -0.08591383153878572 -0.04303467002359965
vn -0.9736467152760026 0.03749259246123262 0.22495861695606817
vn -0.999590527808924 -0.025744286391368325 0.012490333577439738
vn -0.9953727094542452 -0.08591383153878572 -0.04303467002359965
vn -0.9634343021322948 -0.026847626200204405 0.2665962311104044
vn -0.9736467152760026 0.03749259246123262 0.22495861695606817
vn -0.9953727094542452 -0.08591383153878572 -0.04303467002359965
vn -0.9664401782451117 -0.09028076914798137 -0.24050522779267333
vn -0.9686739326878349 -0.1138853044363029 -0.22068291634046874
vn -0.9953727094542452 -0.08591383153878572 -0.04303467002359965
vn -0.999590527808924 -0.025744286391368325 0.012490333577439738
vn -0.9664401782451117 -0.09028076914798137 -0.24050522779267333
vn -0.9953727094542452 -0.08591383153878572 -0.04303467002359965
vn -0.6176970908800993 0.16687523539758461 0.7685069679119788
vn -0.4568794747620168 0.20260112510446596 0.8661489073176668
vn -0.8016925721310769 0.006561007081533305 0.5977005713364627
vn -0.7433245041300027 0.12522963942412318 0.6571044201415703
vn -0.6176970908800993 0.16687523539758461 0.7685069679119788
vn -0.9255367167672616 -0.06377204266568359 0.3732491292554132
vn -0.9772899906375532 -0.13997507960169583 0.15909510140211763
vn -0.9782667688354663 -0.17327445625509252 0.11388631086183473
vn -0.9255367167672616 -0.06377204266568359 0.3732491292554132
vn -0.9278522791006852 -0.0642919246618038 0.3673645282154293
vn -0.9772899906375532 -0.13997507960169583 0.15909510140211763
vn -0.9255367167672616 -0.06377204266568359 0.3732491292554132
vn -0.9856654350428888 -0.09098521018912244 -0.14207512691725352
vn -0.9833687286681544 -0.08233715877540414 -0.16188432834086047
vn -0.9950211002958069 -0.09840522817420656 -0.01579306917936354
vn -0.9889316885098585 -0.13513616848882182 -0.061256276635142465
vn -0.9856654350428888 -0.09098521018912244 -0.14207512691725352
vn -0.9950211002958069 -0.09840522817420656 -0.01579306917936354
vn -0.9278522791006852 -0.0642919246618038 0.3673645282154293
vn -0.8778916785370598 0.0657476230698769 0.47432420433290656
vn -0.9634343021322948 -0.026847626200204405 0.2665962311104044
vn -0.9772899906375532 -0.13997507960169583 0.15909510140211763
vn -0.9278522791006852 -0.0642919246618038 0.3673645282154293
vn -0.9634343021322948 -0.026847626200204405 0.2665962311104044
vn -0.3111048608233839 0.33653360274371047 0.8887963207599373
vn -0.2760054981775206 0.3132364655281341 0.9086824977071037
vn -0.4568794747620168 0.20260112510446596 0.8661489073176668
vn -0.6176970908800993 0.16687523539758461 0.7685069679119788
vn -0.3111048608233839 0.33653360274371047 0.8887963207599373
vn -0.4568794747620168 0.20260112510446596 0.8661489073176668
vn -0.968987990149255 -0.08697819819303915 -0.23129433193573962
vn -0.9833687286681544 -0.08233715877540414 -0.16188432834086047
vn -0.9856654350428888 -0.09098521018912244 -0.14207512691725352
vn -0.9686739326878349 -0.1138853044363029 -0.22068291634046874
vn -0.9856654350428888 -0.09098521018912244 -0.14207512691725352
vn -0.9889316885098585 -0.13513616848882182 -0.061256276635142465
vn -0.9953727094542452 -0.08591383153878572 -0.04303467002359965
vn -0.9686739326878349 -0.1138853044363029 -0.22068291634046874
vn -0.9889316885098585 -0.13513616848882182 -0.061256276635142465
vn -0.9782667688354663 -0.17327445625509252 0.11388631086183473
vn -0.9772899906375532 -0.13997507960169583 0.15909510140211763
vn -0.9889316885098585 -0.13513616848882182 -0.061256276635142465
vn -0.9950211002958069 -0.09840522817420656 -0.01579306917936354
vn -0.9782667688354663 -0.17327445625509252 0.11388631086183473
vn -0.9889316885098585 -0.13513616848882182 -0.061256276635142465
vn -0.14776069976415943 -0.04376602042656622 -0.9880543057247547
vn -0.000001191632042488358 0.012270744063439797 -0.9999247115851821
vn -0.18087020063874334 0.050823813895383596 -0.9821929089858205
vn -0.22955099539561133 0.057521915166208755 -0.9715953734906807
vn -0.14776069976415943 -0.04376602042656622 -0.9880543057247547
vn -0.18087020063874334 0.050823813895383596 -0.9821929089858205
vn -0.9634343021322948 -0.026847626200204405 0.2665962311104044
vn -0.8778916785370598 0.0657476230698769 0.47432420433290656
vn -0.9736467152760026 0.03749259246123262 0.22495861695606817
vn -0.21282792947934212 0.40721409300719014 0.8881897065885573
vn -0.2760054981775206 0.3132364655281341 0.9086824977071037
vn -0.3111048608233839 0.33653360274371047 0.8887963207599373
vn -0.10534969511368845 0.456766238822294 0.8833266920067502
vn -0.21282792947934212 0.40721409300719014 0.8881897065885573
vn -0.3111048608233839 0.33653360274371047 0.8887963207599373
vn -0.26925107604625426 0.35502010277845675 -0.8952455443458561
vn -0.18809634291503122 0.2897986218099564 -0.9384223593771841
vn -0.245980333172764 0.4706703346205433 -0.8473270394602085
vn -0.9036589541617401 0.005058006670420483 -0.4282229689447215
vn -0.26925107604625426 0.35502010277845675 -0.8952455443458561
vn -0.245980333172764 0.4706703346205433 -0.8473270394602085
vn -0.18809634291503122 0.2897986218099564 -0.9384223593771841
vn -0.18087020063874334 0.050823813895383596 -0.9821929089858205
vn -0.16339546420716253 0.3326662476491381 -0.9287815081877805
vn -0.245980333172764 0.4706703346205433 -0.8473270394602085
vn -0.18809634291503122 0.2897986218099564 -0.9384223593771841
vn -0.16339546420716253 0.3326662476491381 -0.9287815081877805
vn -0.22955099539561133 0.057521915166208755 -0.9715953734906807
vn -0.18087020063874334 0.050823813895383596 -0.9821929089858205
vn -0.18809634291503122 0.2897986218099564 -0.9384223593771841
vn -0.26925107604625426 0.35502010277845675 -0.8952455443458561
vn -0.22955099539561133 0.057521915166208755 -0.9715953734906807
vn -0.18809634291503122 0.2897986218099564 -0.9384223593771841
f 1/1/1 2/2/2 3/3/3
f 4/4/4 5/5/5 6/6/6
f 7/7/7 8/8/8 9/9/9
f 10/10/10 11/11/11 12/12/12
f 13/13/13 14/14/14 15/15/15
f 16/16/16 17/17/17 18/18/18
f 19/19/19 20/20/20 21/21/21
f 22/22/22 23/23/23 24/24/24
f 25/25/25 26/26/26 27/27/27
f 28/28/28 29/29/29 30/30/30
f 31/31/31 32/32/32 33/33/33
f 34/34/34 35/35/35 36/36/36
f 37/37/37 38/38/38 39/39/39
f 40/40/40 41/41/41 42/42/42
f 43/43/43 44/44/44 45/45/45
f 46/46/46 47/47/47 48/48/48
f 49/49/49 50/50/50 51/51/51
f 52/52/52 53/53/53 54/54/54
f 55/55/55 56/56/56 57/57/57
f 58/58/58 59/59/59 60/60/60
f 61/61/61 62/62/62 63/63/63
f 64/64/64 65/65/65 66/66/66
f 67/67/67 68/68/68 69/69/69
f 70/70/70 71/71/71 72/72/72
f 73/73/73 74/74/74 75/75/75
f 76/76/76 77/77/77 78/78/78
f 79/79/79 80/80/80 81/81/81
f 82/82/82 83/83/83 84/84/84
f 85/85/85 86/86/86 87/87/87
f 88/88/88 89/89/89 90/90/90
f 91/91/91 92/92/92 93/93/93
f 94/94/94 95/95/95 96/96/96
