mtllib ArcadaCompleta.mtl
o D11C_F
usemtl Esmalte
v -4.5007500648498535 20.211973190307617 2.2237806624998533
v -4.5007500648498535 22.484983444213867 2.815120727502295
v -6.323430061340332 22.484983444213867 2.6861007518400637
v -4.5007500648498535 20.211973190307617 2.2237806624998533
v -6.323430061340332 22.484983444213867 2.6861007518400637
v -6.007430076599121 20.211973190307617 2.1226108378996336
v -4.5007500648498535 20.211973190307617 2.2237806624998533
v -2.994070053100586 20.211973190307617 2.1226108378996336
v -2.6780800819396973 22.484983444213867 2.6861007518400637
v -4.5007500648498535 20.211973190307617 2.2237806624998533
v -2.6780800819396973 22.484983444213867 2.6861007518400637
v -4.5007500648498535 22.484983444213867 2.815120727502295
v -4.5007500648498535 20.211973190307617 2.2237806624998533
v -4.5007500648498535 18.83902359008789 1.5763107843031363
v -3.042370080947876 18.86275291442871 1.2166207141508536
v -4.5007500648498535 20.211973190307617 2.2237806624998533
v -3.042370080947876 18.86275291442871 1.2166207141508536
v -2.994070053100586 20.211973190307617 2.1226108378996336
v -4.5007500648498535 24.411333084106445 3.2987206287016364
v -4.5007500648498535 22.484983444213867 2.815120727502295
v -2.6780800819396973 22.484983444213867 2.6861007518400637
v -4.5007500648498535 24.411333084106445 3.2987206287016364
v -2.6780800819396973 22.484983444213867 2.6861007518400637
v -2.721940040588379 24.411333084106445 3.0024707622160407
v -4.5007500648498535 24.411333084106445 3.2987206287016364
v -6.279560089111328 24.411333084106445 3.0024707622160407
v -6.323430061340332 22.484983444213867 2.6861007518400637
v -4.5007500648498535 24.411333084106445 3.2987206287016364
v -6.323430061340332 22.484983444213867 2.6861007518400637
v -4.5007500648498535 22.484983444213867 2.815120727502295
v -7.0604400634765625 20.211973190307617 2.0145807571043455
v -7.239029884338379 18.86629295349121 1.490400702439733
v -5.959129810333252 18.86275291442871 1.2166207141508536
v -7.0604400634765625 20.211973190307617 2.0145807571043455
v -5.959129810333252 18.86275291442871 1.2166207141508536
v -6.007430076599121 20.211973190307617 2.1226108378996336
v -1.9410699605941772 20.211973190307617 2.0145807571043455
v -2.6780800819396973 22.484983444213867 2.6861007518400637
v -2.994070053100586 20.211973190307617 2.1226108378996336
v -2.994070053100586 20.211973190307617 2.1226108378996336
v -3.042370080947876 18.86275291442871 1.2166207141508536
v -1.762470006942749 18.86629295349121 1.490400702439733
v -2.994070053100586 20.211973190307617 2.1226108378996336
v -1.762470006942749 18.86629295349121 1.490400702439733
v -1.9410699605941772 20.211973190307617 2.0145807571043455
v -6.007430076599121 20.211973190307617 2.1226108378996336
v -6.323430061340332 22.484983444213867 2.6861007518400637
v -7.0604400634765625 20.211973190307617 2.0145807571043455
v -6.007430076599121 20.211973190307617 2.1226108378996336
v -5.959129810333252 18.86275291442871 1.2166207141508536
v -4.5007500648498535 18.83902359008789 1.5763107843031363
v -6.007430076599121 20.211973190307617 2.1226108378996336
v -4.5007500648498535 18.83902359008789 1.5763107843031363
v -4.5007500648498535 20.211973190307617 2.2237806624998533
vt 0.49565500020980835 0.2609989643096924
vt 0.49565500020980835 0.47663599252700806
vt 0.28327998518943787 0.47663599252700806
vt 0.49565500020980835 0.2609989643096924
vt 0.28327998518943787 0.47663599252700806
vt 0.32009899616241455 0.2609989643096924
vt 0.49565500020980835 0.2609989643096924
vt 0.671209990978241 0.2609989643096924
vt 0.7080289721488953 0.47663599252700806
vt 0.49565500020980835 0.2609989643096924
vt 0.7080289721488953 0.47663599252700806
vt 0.49565500020980835 0.47663599252700806
vt 0.49565500020980835 0.2609989643096924
vt 0.49565500020980835 0.13075000047683716
vt 0.665582001209259 0.13300096988677979
vt 0.49565500020980835 0.2609989643096924
vt 0.665582001209259 0.13300096988677979
vt 0.671209990978241 0.2609989643096924
vt 0.49565500020980835 0.6593850255012512
vt 0.49565500020980835 0.47663599252700806
vt 0.7080289721488953 0.47663599252700806
vt 0.49565500020980835 0.6593850255012512
vt 0.7080289721488953 0.47663599252700806
vt 0.7029179930686951 0.6593850255012512
vt 0.49565500020980835 0.6593850255012512
vt 0.28839099407196045 0.6593850255012512
vt 0.28327998518943787 0.47663599252700806
vt 0.49565500020980835 0.6593850255012512
vt 0.28327998518943787 0.47663599252700806
vt 0.49565500020980835 0.47663599252700806
vt 0.19740499556064606 0.2609989643096924
vt 0.176596000790596 0.13333702087402344
vt 0.3257269859313965 0.13300096988677979
vt 0.19740499556064606 0.2609989643096924
vt 0.3257269859313965 0.13300096988677979
vt 0.32009899616241455 0.2609989643096924
vt 0.7939040064811707 0.2609989643096924
vt 0.7080289721488953 0.47663599252700806
vt 0.671209990978241 0.2609989643096924
vt 0.671209990978241 0.2609989643096924
vt 0.665582001209259 0.13300096988677979
vt 0.8147140145301819 0.13333702087402344
vt 0.671209990978241 0.2609989643096924
vt 0.8147140145301819 0.13333702087402344
vt 0.7939040064811707 0.2609989643096924
vt 0.32009899616241455 0.2609989643096924
vt 0.28327998518943787 0.47663599252700806
vt 0.19740499556064606 0.2609989643096924
vt 0.32009899616241455 0.2609989643096924
vt 0.3257269859313965 0.13300096988677979
vt 0.49565500020980835 0.13075000047683716
vt 0.32009899616241455 0.2609989643096924
vt 0.49565500020980835 0.13075000047683716
vt 0.49565500020980835 0.2609989643096924
vn 0.02259037825289301 -0.3212617960275777 0.9467209373535195
vn 0 -0.24798159791858718 0.9687647429039439
vn -0.091042644071824 -0.23033068769609938 0.9688441625286561
vn 0.02259037825289301 -0.3212617960275777 0.9467209373535195
vn -0.091042644071824 -0.23033068769609938 0.9688441625286561
vn -0.10290843914956141 -0.38840365281873657 0.9157250982848857
vn 0.02259037825289301 -0.3212617960275777 0.9467209373535195
vn 0.03285160110544015 -0.38270918445261887 0.9232845999151184
vn 0.09104297688138407 -0.23033066655475412 0.9688441362804538
vn 0.02259037825289301 -0.3212617960275777 0.9467209373535195
vn 0.09104297688138407 -0.23033066655475412 0.9688441362804538
vn 0 -0.24798159791858718 0.9687647429039439
vn 0.02259037825289301 -0.3212617960275777 0.9467209373535195
vn -0.019892361881549647 -0.4748561144493537 0.8798386013973449
vn 0.041551965703653784 -0.5144274901718188 0.8565265854027448
vn 0.02259037825289301 -0.3212617960275777 0.9467209373535195
vn 0.041551965703653784 -0.5144274901718188 0.8565265854027448
vn 0.03285160110544015 -0.38270918445261887 0.9232845999151184
vn 0 -0.20204003295571574 0.9793772639199122
vn 0 -0.24798159791858718 0.9687647429039439
vn 0.09104297688138407 -0.23033066655475412 0.9688441362804538
vn 0 -0.20204003295571574 0.9793772639199122
vn 0.09104297688138407 -0.23033066655475412 0.9688441362804538
vn 0.16226161666706862 -0.15631568094983275 0.9742877273402245
vn 0 -0.20204003295571574 0.9793772639199122
vn -0.1622616480043356 -0.15631484796351422 0.9742878557659747
vn -0.091042644071824 -0.23033068769609938 0.9688441625286561
vn 0 -0.20204003295571574 0.9793772639199122
vn -0.091042644071824 -0.23033068769609938 0.9688441625286561
vn 0 -0.24798159791858718 0.9687647429039439
vn -0.00412526995870918 -0.38452019332235 0.9231073627022537
vn 0.1926330614478454 -0.3782574804372586 0.9054356863579476
vn -0.04813365441215841 -0.5078889126603585 0.8600767429186827
vn -0.00412526995870918 -0.38452019332235 0.9231073627022537
vn -0.04813365441215841 -0.5078889126603585 0.8600767429186827
vn -0.10290843914956141 -0.38840365281873657 0.9157250982848857
vn 0.09767521257372917 -0.28987160576151205 0.9520682775000536
vn 0.09104297688138407 -0.23033066655475412 0.9688441362804538
vn 0.03285160110544015 -0.38270918445261887 0.9232845999151184
vn 0.03285160110544015 -0.38270918445261887 0.9232845999151184
vn 0.041551965703653784 -0.5144274901718188 0.8565265854027448
vn -0.061836985440922296 -0.47020690037225626 0.8803872205307698
vn 0.03285160110544015 -0.38270918445261887 0.9232845999151184
vn -0.061836985440922296 -0.47020690037225626 0.8803872205307698
vn 0.09767521257372917 -0.28987160576151205 0.9520682775000536
vn -0.10290843914956141 -0.38840365281873657 0.9157250982848857
vn -0.091042644071824 -0.23033068769609938 0.9688441625286561
vn -0.00412526995870918 -0.38452019332235 0.9231073627022537
vn -0.10290843914956141 -0.38840365281873657 0.9157250982848857
vn -0.04813365441215841 -0.5078889126603585 0.8600767429186827
vn -0.019892361881549647 -0.4748561144493537 0.8798386013973449
vn -0.10290843914956141 -0.38840365281873657 0.9157250982848857
vn -0.019892361881549647 -0.4748561144493537 0.8798386013973449
vn 0.02259037825289301 -0.3212617960275777 0.9467209373535195
f 1/1/1 2/2/2 3/3/3
f 4/4/4 5/5/5 6/6/6
f 7/7/7 8/8/8 9/9/9
f 10/10/10 11/11/11 12/12/12
f 13/13/13 14/14/14 15/15/15
f 16/16/16 17/17/17 18/18/18
f 19/19/19 20/20/20 21/21/21
f 22/22/22 23/23/23 24/24/24
f 25/25/25 26/26/26 27/27/27
f 28/28/28 29/29/29 30/30/30
f 31/31/31 32/32/32 33/33/33
f 34/34/34 35/35/35 36/36/36
f 37/37/37 38/38/38 39/39/39
f 40/40/40 41/41/41 42/42/42
f 43/43/43 44/44/44 45/45/45
f 46/46/46 47/47/47 48/48/48
f 49/49/49 50/50/50 51/51/51
f 52/52/52 53/53/53 54/54/54
