mtllib ArcadaCompleta.mtl
o D11C_D
usemtl Esmalte
v -8.750349998474121 20.211973190307617 -0.00220464428093243
v -8.509090423583984 20.211973190307617 0.9052787727941949
v -8.354260444641113 22.484983444213867 1.0832407779325925
v -8.750349998474121 20.211973190307617 -0.00220464428093243
v -8.354260444641113 22.484983444213867 1.0832407779325925
v -8.566300392150879 22.484983444213867 -0.0022046442809319257
v -8.750349998474121 20.211973190307617 -0.00220464428093243
v -8.566300392150879 22.484983444213867 -0.0022046442809319257
v -8.354260444641113 22.484983444213867 -1.1562592678437746
v -8.750349998474121 20.211973190307617 -0.00220464428093243
v -8.354260444641113 22.484983444213867 -1.1562592678437746
v -8.509090423583984 20.211973190307617 -0.7519902282128852
v -8.750349998474121 20.211973190307617 -0.00220464428093243
v -8.519129753112793 18.01127052307129 -0.002204644280932919
v -8.126139640808105 18.136362075805664 0.7642147249807789
v -8.750349998474121 20.211973190307617 -0.00220464428093243
v -8.126139640808105 18.136362075805664 0.7642147249807789
v -8.509090423583984 20.211973190307617 0.9052787727941949
v -7.69242000579834 24.411333084106445 2.3635707206358405
v -7.972640037536621 22.484983444213867 2.033180744134375
v -6.323430061340332 22.484983444213867 2.6861007518400637
v -7.69242000579834 24.411333084106445 2.3635707206358405
v -6.323430061340332 22.484983444213867 2.6861007518400637
v -6.279560089111328 24.411333084106445 3.0024707622160407
v -7.69242000579834 24.411333084106445 2.3635707206358405
v -8.076080322265625 24.341114044189453 1.0856807536711184
v -8.354260444641113 22.484983444213867 1.0832407779325925
v -7.69242000579834 24.411333084106445 2.3635707206358405
v -8.354260444641113 22.484983444213867 1.0832407779325925
v -7.972640037536621 22.484983444213867 2.033180744134375
v -8.240530014038086 24.10712242126465 -0.0022046442809315653
v -8.076080322265625 24.341114044189453 -1.0900892906556638
v -8.354260444641113 22.484983444213867 -1.1562592678437746
v -8.240530014038086 24.10712242126465 -0.0022046442809315653
v -8.354260444641113 22.484983444213867 -1.1562592678437746
v -8.566300392150879 22.484983444213867 -0.0022046442809319257
v -8.509090423583984 20.211973190307617 0.9052787727941949
v -8.16234016418457 20.211973190307617 1.4885207719435174
v -7.972640037536621 22.484983444213867 2.033180744134375
v -8.509090423583984 20.211973190307617 0.9052787727941949
v -7.972640037536621 22.484983444213867 2.033180744134375
v -8.354260444641113 22.484983444213867 1.0832407779325925
v -8.509090423583984 20.211973190307617 -0.7519902282128852
v -8.431940078735352 18.035125732421875 -0.582370250738673
v -8.519129753112793 18.01127052307129 -0.002204644280932919
v -8.509090423583984 20.211973190307617 -0.7519902282128852
v -8.519129753112793 18.01127052307129 -0.002204644280932919
v -8.750349998474121 20.211973190307617 -0.00220464428093243
v -8.509090423583984 20.211973190307617 -0.7519902282128852
v -8.210399627685547 20.211973190307617 -1.0528891973863166
v -8.431940078735352 18.035125732421875 -0.582370250738673
v -7.972640037536621 22.484983444213867 2.033180744134375
v -8.16234016418457 20.211973190307617 1.4885207719435174
v -7.0604400634765625 20.211973190307617 2.0145807571043455
v -7.8264899253845215 22.484983444213867 -1.7281692915330447
v -8.354260444641113 22.484983444213867 -1.1562592678437746
v -8.076080322265625 24.341114044189453 -1.0900892906556638
v -7.8264899253845215 22.484983444213867 -1.7281692915330447
v -8.076080322265625 24.341114044189453 -1.0900892906556638
v -7.387330055236816 24.411333084106445 -2.2193293266664056
v -8.566300392150879 22.484983444213867 -0.0022046442809319257
v -8.354260444641113 22.484983444213867 1.0832407779325925
v -8.076080322265625 24.341114044189453 1.0856807536711184
v -8.566300392150879 22.484983444213867 -0.0022046442809319257
v -8.076080322265625 24.341114044189453 1.0856807536711184
v -8.240530014038086 24.10712242126465 -0.0022046442809315653
v -8.354260444641113 22.484983444213867 -1.1562592678437746
v -7.8264899253845215 22.484983444213867 -1.7281692915330447
v -8.210399627685547 20.211973190307617 -1.0528891973863166
v -8.354260444641113 22.484983444213867 -1.1562592678437746
v -8.210399627685547 20.211973190307617 -1.0528891973863166
v -8.509090423583984 20.211973190307617 -0.7519902282128852
v -7.0604400634765625 20.211973190307617 2.0145807571043455
v -6.323430061340332 22.484983444213867 2.6861007518400637
v -7.972640037536621 22.484983444213867 2.033180744134375
v -7.002120018005371 20.211973190307617 -1.221179216421656
v -7.239029884338379 19.120012283325195 -0.9637522392640634
v -8.431940078735352 18.035125732421875 -0.582370250738673
v -7.002120018005371 20.211973190307617 -1.221179216421656
v -8.431940078735352 18.035125732421875 -0.582370250738673
v -8.210399627685547 20.211973190307617 -1.0528891973863166
v -8.126139640808105 18.136362075805664 0.7642147249807789
v -8.16234016418457 20.211973190307617 1.4885207719435174
v -8.509090423583984 20.211973190307617 0.9052787727941949
v -5.913879871368408 24.411333084106445 -2.9408793144593743
v -6.481969833374023 22.484983444213867 -1.8381392650971926
v -7.8264899253845215 22.484983444213867 -1.7281692915330447
v -5.913879871368408 24.411333084106445 -2.9408793144593743
v -7.8264899253845215 22.484983444213867 -1.7281692915330447
v -7.387330055236816 24.411333084106445 -2.2193293266664056
v -8.16234016418457 20.211973190307617 1.4885207719435174
v -8.126139640808105 18.136362075805664 0.7642147249807789
v -7.239029884338379 18.86629295349121 1.490400702439733
v -8.16234016418457 20.211973190307617 1.4885207719435174
v -7.239029884338379 18.86629295349121 1.490400702439733
v -7.0604400634765625 20.211973190307617 2.0145807571043455
v -6.481969833374023 22.484983444213867 -1.8381392650971926
v -7.002120018005371 20.211973190307617 -1.221179216421656
v -8.210399627685547 20.211973190307617 -1.0528891973863166
v -6.481969833374023 22.484983444213867 -1.8381392650971926
v -8.210399627685547 20.211973190307617 -1.0528891973863166
v -7.8264899253845215 22.484983444213867 -1.7281692915330447
v -7.069049835205078 27.162261962890625 -2.214319198645165
v -7.220160007476807 25.798852920532227 -2.386799304998925
v -7.784049987792969 25.95846176147461 -1.1989592008958367
v -7.887050151824951 25.472503662109375 -0.002204644280931262
v -8.240530014038086 24.10712242126465 -0.0022046442809315653
v -8.076080322265625 24.341114044189453 1.0856807536711184
v -7.887050151824951 25.472503662109375 -0.002204644280931262
v -8.076080322265625 24.341114044189453 1.0856807536711184
v -7.784049987792969 25.95846176147461 1.1945507831205817
v -7.387330055236816 24.411333084106445 -2.2193293266664056
v -8.076080322265625 24.341114044189453 -1.0900892906556638
v -7.784049987792969 25.95846176147461 -1.1989592008958367
v -7.387330055236816 24.411333084106445 -2.2193293266664056
v -7.784049987792969 25.95846176147461 -1.1989592008958367
v -7.220160007476807 25.798852920532227 -2.386799304998925
v -7.784049987792969 25.95846176147461 1.1945507831205817
v -7.395820140838623 25.916702270507812 2.585960657082984
v -6.920090198516846 27.162261962890625 2.2099106616606212
v -7.784049987792969 25.95846176147461 -1.1989592008958367
v -8.076080322265625 24.341114044189453 -1.0900892906556638
v -8.240530014038086 24.10712242126465 -0.0022046442809315653
v -7.784049987792969 25.95846176147461 -1.1989592008958367
v -8.240530014038086 24.10712242126465 -0.0022046442809315653
v -7.887050151824951 25.472503662109375 -0.002204644280931262
v -7.395820140838623 25.916702270507812 2.585960657082984
v -7.784049987792969 25.95846176147461 1.1945507831205817
v -8.076080322265625 24.341114044189453 1.0856807536711184
v -7.395820140838623 25.916702270507812 2.585960657082984
v -8.076080322265625 24.341114044189453 1.0856807536711184
v -7.69242000579834 24.411333084106445 2.3635707206358405
vt 0.5 0.2609989643096924
vt 0.6295409798622131 0.2609989643096924
vt 0.6549440026283264 0.47663599252700806
vt 0.5 0.2609989643096924
vt 0.6549440026283264 0.47663599252700806
vt 0.5 0.47663599252700806
vt 0.5 0.2609989643096924
vt 0.5 0.47663599252700806
vt 0.3352620005607605 0.47663599252700806
vt 0.5 0.2609989643096924
vt 0.3352620005607605 0.47663599252700806
vt 0.3929699957370758 0.2609989643096924
vt 0.5 0.2609989643096924
vt 0.5 0.05222207307815552
vt 0.6094040274620056 0.06408929824829102
vt 0.5 0.2609989643096924
vt 0.6094040274620056 0.06408929824829102
vt 0.6295409798622131 0.2609989643096924
vt 0.12376700341701508 0.6593850255012512
vt 0.09111680090427399 0.47663599252700806
vt 0.28327998518943787 0.47663599252700806
vt 0.12376700341701508 0.6593850255012512
vt 0.28327998518943787 0.47663599252700806
vt 0.28839099407196045 0.6593850255012512
vt 0.8377079963684082 0.6593850255012512
vt 0.6552919745445251 0.652724027633667
vt 0.6549440026283264 0.47663599252700806
vt 0.8377079963684082 0.6593850255012512
vt 0.6549440026283264 0.47663599252700806
vt 0.7905449867248535 0.47663599252700806
vt 0.5 0.6305249929428101
vt 0.34470701217651367 0.652724027633667
vt 0.3352620005607605 0.47663599252700806
vt 0.5 0.6305249929428101
vt 0.3352620005607605 0.47663599252700806
vt 0.5 0.47663599252700806
vt 0.6295409798622131 0.2609989643096924
vt 0.7127969861030579 0.2609989643096924
vt 0.7905449867248535 0.47663599252700806
vt 0.6295409798622131 0.2609989643096924
vt 0.7905449867248535 0.47663599252700806
vt 0.6549440026283264 0.47663599252700806
vt 0.3929699957370758 0.2609989643096924
vt 0.4171830117702484 0.05448508262634277
vt 0.5 0.05222207307815552
vt 0.3929699957370758 0.2609989643096924
vt 0.5 0.05222207307815552
vt 0.5 0.2609989643096924
vt 0.9713889956474304 0.2609989643096924
vt 0.9365860223770142 0.2609989643096924
vt 0.9624000191688538 0.05448508262634277
vt 0.09111680090427399 0.47663599252700806
vt 0.06901340186595917 0.2609989643096924
vt 0.19740499556064606 0.2609989643096924
vt 0.8918539881706238 0.47663599252700806
vt 0.9533489942550659 0.47663599252700806
vt 0.9209359884262085 0.652724027633667
vt 0.25362300872802734 0.47663599252700806
vt 0.34470701217651367 0.652724027633667
vt 0.18351100385189056 0.6593850255012512
vt 0.5 0.47663599252700806
vt 0.6549440026283264 0.47663599252700806
vt 0.6552919745445251 0.652724027633667
vt 0.5 0.47663599252700806
vt 0.6552919745445251 0.652724027633667
vt 0.5 0.6305249929428101
vt 0.9533489942550659 0.47663599252700806
vt 0.8918539881706238 0.47663599252700806
vt 0.9365860223770142 0.2609989643096924
vt 0.9533489942550659 0.47663599252700806
vt 0.9365860223770142 0.2609989643096924
vt 0.9713889956474304 0.2609989643096924
vt 0.19740499556064606 0.2609989643096924
vt 0.28327998518943787 0.47663599252700806
vt 0.09111680090427399 0.47663599252700806
vt 0.795799970626831 0.2609989643096924
vt 0.8234040141105652 0.1574069857597351
vt 0.9624000191688538 0.05448508262634277
vt 0.795799970626831 0.2609989643096924
vt 0.9624000191688538 0.05448508262634277
vt 0.9365860223770142 0.2609989643096924
vt 0.6094040274620056 0.06408929824829102
vt 0.7127969861030579 0.2609989643096924
vt 0.6295409798622131 0.2609989643096924
vt 0.6690000295639038 0.6593850255012512
vt 0.7351930141448975 0.47663599252700806
vt 0.8918539881706238 0.47663599252700806
vt 0.6690000295639038 0.6593850255012512
vt 0.8918539881706238 0.47663599252700806
vt 0.8406839966773987 0.6593850255012512
vt 0.06901340186595917 0.2609989643096924
vt 0.07323139905929565 0.06408929824829102
vt 0.176596000790596 0.13333702087402344
vt 0.06901340186595917 0.2609989643096924
vt 0.176596000790596 0.13333702087402344
vt 0.19740499556064606 0.2609989643096924
vt 0.7351930141448975 0.47663599252700806
vt 0.795799970626831 0.2609989643096924
vt 0.9365860223770142 0.2609989643096924
vt 0.7351930141448975 0.47663599252700806
vt 0.9365860223770142 0.2609989643096924
vt 0.8918539881706238 0.47663599252700806
vt 0.18422700464725494 0.9203609824180603
vt 0.1596059948205948 0.7910169959068298
vt 0.3291659951210022 0.8061590194702148
vt 0.5 0.7600569725036621
vt 0.5 0.6305249929428101
vt 0.6552919745445251 0.652724027633667
vt 0.5 0.7600569725036621
vt 0.6552919745445251 0.652724027633667
vt 0.6708329916000366 0.8061590194702148
vt 0.18351100385189056 0.6593850255012512
vt 0.34470701217651367 0.652724027633667
vt 0.3291659951210022 0.8061590194702148
vt 0.18351100385189056 0.6593850255012512
vt 0.3291659951210022 0.8061590194702148
vt 0.1596059948205948 0.7910169959068298
vt 0.6708329916000366 0.8061590194702148
vt 0.8694530129432678 0.8021969795227051
vt 0.8157730102539062 0.9203609824180603
vt 0.3291659951210022 0.8061590194702148
vt 0.34470701217651367 0.652724027633667
vt 0.5 0.6305249929428101
vt 0.3291659951210022 0.8061590194702148
vt 0.5 0.6305249929428101
vt 0.5 0.7600569725036621
vt 0.8694530129432678 0.8021969795227051
vt 0.6708329916000366 0.8061590194702148
vt 0.6552919745445251 0.652724027633667
vt 0.8694530129432678 0.8021969795227051
vt 0.6552919745445251 0.652724027633667
vt 0.8377079963684082 0.6593850255012512
vn -0.9980194677646111 -0.014450020382961082 0.06122367902841339
vn -0.9280145309424047 -0.059632272435049156 0.3677404280793463
vn -0.9572551504423664 0.08697613966429844 0.2758581666013518
vn -0.9980194677646111 -0.014450020382961082 0.06122367902841339
vn -0.9572551504423664 0.08697613966429844 0.2758581666013518
vn -0.9908424955632373 0.1331933106305238 0.02215154597984402
vn -0.9980194677646111 -0.014450020382961082 0.06122367902841339
vn -0.9908424955632373 0.1331933106305238 0.02215154597984402
vn -0.92702167673281 0.0742499776169218 -0.3675836662467146
vn -0.9980194677646111 -0.014450020382961082 0.06122367902841339
vn -0.92702167673281 0.0742499776169218 -0.3675836662467146
vn -0.9149589939589632 -0.055707747888104425 -0.39968323232134384
vn -0.9980194677646111 -0.014450020382961082 0.06122367902841339
vn -0.9953564864159414 -0.08882883068552475 0.037079695100607366
vn -0.8043013925504234 -0.2094553142773752 0.556082495015277
vn -0.9980194677646111 -0.014450020382961082 0.06122367902841339
vn -0.8043013925504234 -0.2094553142773752 0.556082495015277
vn -0.9280145309424047 -0.059632272435049156 0.3677404280793463
vn -0.7370970014220294 0.0006409544526247988 0.6757866524814192
vn -0.6138909711232425 -0.08940561359911148 0.7843114890337439
vn -0.3773478007496073 -0.13366194196698164 0.9163749901317964
vn -0.7370970014220294 0.0006409544526247988 0.6757866524814192
vn -0.3773478007496073 -0.13366194196698164 0.9163749901317964
vn -0.40803941072923566 -0.13890074324805562 0.9023360919396254
vn -0.7370970014220294 0.0006409544526247988 0.6757866524814192
vn -0.9677464364373081 0.1691133230647438 0.18672846254626232
vn -0.9572551504423664 0.08697613966429844 0.2758581666013518
vn -0.7370970014220294 0.0006409544526247988 0.6757866524814192
vn -0.9572551504423664 0.08697613966429844 0.2758581666013518
vn -0.6138909711232425 -0.08940561359911148 0.7843114890337439
vn -0.9790021892232544 0.2001028883858513 -0.03890433852046059
vn -0.9102872597042604 0.12631741811009448 -0.39423472031533213
vn -0.92702167673281 0.0742499776169218 -0.3675836662467146
vn -0.9790021892232544 0.2001028883858513 -0.03890433852046059
vn -0.92702167673281 0.0742499776169218 -0.3675836662467146
vn -0.9908424955632373 0.1331933106305238 0.02215154597984402
vn -0.9280145309424047 -0.059632272435049156 0.3677404280793463
vn -0.578973928888458 -0.21405676755472053 0.7867457593984776
vn -0.6138909711232425 -0.08940561359911148 0.7843114890337439
vn -0.9280145309424047 -0.059632272435049156 0.3677404280793463
vn -0.6138909711232425 -0.08940561359911148 0.7843114890337439
vn -0.9572551504423664 0.08697613966429844 0.2758581666013518
vn -0.9149589939589632 -0.055707747888104425 -0.39968323232134384
vn -0.46497204819649535 -0.16953036563374013 -0.8689421439451802
vn -0.9953564864159414 -0.08882883068552475 0.037079695100607366
vn -0.9149589939589632 -0.055707747888104425 -0.39968323232134384
vn -0.9953564864159414 -0.08882883068552475 0.037079695100607366
vn -0.9980194677646111 -0.014450020382961082 0.06122367902841339
vn -0.9149589939589632 -0.055707747888104425 -0.39968323232134384
vn -0.3087017164428885 -0.19855218651648449 -0.9302044288728889
vn -0.46497204819649535 -0.16953036563374013 -0.8689421439451802
vn -0.6138909711232425 -0.08940561359911148 0.7843114890337439
vn -0.578973928888458 -0.21405676755472053 0.7867457593984776
vn -0.39403766955533326 -0.1872962598290676 0.8998079939772953
vn -0.461522443607633 -0.17997988747787314 -0.8686796153645435
vn -0.92702167673281 0.0742499776169218 -0.3675836662467146
vn -0.9102872597042604 0.12631741811009448 -0.39423472031533213
vn -0.461522443607633 -0.17997988747787314 -0.8686796153645435
vn -0.9102872597042604 0.12631741811009448 -0.39423472031533213
vn -0.7583521431428027 0.011846544881943831 -0.6517374366760575
vn -0.9908424955632373 0.1331933106305238 0.02215154597984402
vn -0.9572551504423664 0.08697613966429844 0.2758581666013518
vn -0.9677464364373081 0.1691133230647438 0.18672846254626232
vn -0.9908424955632373 0.1331933106305238 0.02215154597984402
vn -0.9677464364373081 0.1691133230647438 0.18672846254626232
vn -0.9790021892232544 0.2001028883858513 -0.03890433852046059
vn -0.92702167673281 0.0742499776169218 -0.3675836662467146
vn -0.461522443607633 -0.17997988747787314 -0.8686796153645435
vn -0.3087017164428885 -0.19855218651648449 -0.9302044288728889
vn -0.92702167673281 0.0742499776169218 -0.3675836662467146
vn -0.3087017164428885 -0.19855218651648449 -0.9302044288728889
vn -0.9149589939589632 -0.055707747888104425 -0.39968323232134384
vn -0.39403766955533326 -0.1872962598290676 0.8998079939772953
vn -0.3773478007496073 -0.13366194196698164 0.9163749901317964
vn -0.6138909711232425 -0.08940561359911148 0.7843114890337439
vn -0.13356508338031625 -0.21192944702845026 -0.9681148062000831
vn -0.12741597361765417 -0.20131494681525933 -0.9712041298593385
vn -0.46497204819649535 -0.16953036563374013 -0.8689421439451802
vn -0.13356508338031625 -0.21192944702845026 -0.9681148062000831
vn -0.46497204819649535 -0.16953036563374013 -0.8689421439451802
vn -0.3087017164428885 -0.19855218651648449 -0.9302044288728889
vn -0.8043013925504234 -0.2094553142773752 0.556082495015277
vn -0.578973928888458 -0.21405676755472053 0.7867457593984776
vn -0.9280145309424047 -0.059632272435049156 0.3677404280793463
vn -0.26932885734872236 -0.3071959258788777 -0.9127390808564355
vn -0.09450876800689734 -0.32951212618288567 -0.9394093098688411
vn -0.461522443607633 -0.17997988747787314 -0.8686796153645435
vn -0.26932885734872236 -0.3071959258788777 -0.9127390808564355
vn -0.461522443607633 -0.17997988747787314 -0.8686796153645435
vn -0.7583521431428027 0.011846544881943831 -0.6517374366760575
vn -0.578973928888458 -0.21405676755472053 0.7867457593984776
vn -0.8043013925504234 -0.2094553142773752 0.556082495015277
vn -0.4297800602754897 -0.29369173005462507 0.8538350352890877
vn -0.578973928888458 -0.21405676755472053 0.7867457593984776
vn -0.4297800602754897 -0.29369173005462507 0.8538350352890877
vn -0.39403766955533326 -0.1872962598290676 0.8998079939772953
vn -0.09450876800689734 -0.32951212618288567 -0.9394093098688411
vn -0.13356508338031625 -0.21192944702845026 -0.9681148062000831
vn -0.3087017164428885 -0.19855218651648449 -0.9302044288728889
vn -0.09450876800689734 -0.32951212618288567 -0.9394093098688411
vn -0.3087017164428885 -0.19855218651648449 -0.9302044288728889
vn -0.461522443607633 -0.17997988747787314 -0.8686796153645435
vn -0.8844700588835334 0.15375864155023616 -0.44053489656006256
vn -0.8929741128218034 0.10411391110662876 -0.43790127579649063
vn -0.9364053653933775 0.1504804403756391 -0.3170183413098508
vn -0.9740295991146476 0.2231259938605742 0.038485463649149655
vn -0.9790021892232544 0.2001028883858513 -0.03890433852046059
vn -0.9677464364373081 0.1691133230647438 0.18672846254626232
vn -0.9740295991146476 0.2231259938605742 0.038485463649149655
vn -0.9677464364373081 0.1691133230647438 0.18672846254626232
vn -0.9507243470786411 0.24523588548521827 0.1896907386831849
vn -0.7583521431428027 0.011846544881943831 -0.6517374366760575
vn -0.9102872597042604 0.12631741811009448 -0.39423472031533213
vn -0.9364053653933775 0.1504804403756391 -0.3170183413098508
vn -0.7583521431428027 0.011846544881943831 -0.6517374366760575
vn -0.9364053653933775 0.1504804403756391 -0.3170183413098508
vn -0.8929741128218034 0.10411391110662876 -0.43790127579649063
vn -0.9507243470786411 0.24523588548521827 0.1896907386831849
vn -0.9342419792031584 0.23286084060240592 0.27012543976550263
vn -0.8746237831417818 0.41146040675459084 0.25638559170925435
vn -0.9364053653933775 0.1504804403756391 -0.3170183413098508
vn -0.9102872597042604 0.12631741811009448 -0.39423472031533213
vn -0.9790021892232544 0.2001028883858513 -0.03890433852046059
vn -0.9364053653933775 0.1504804403756391 -0.3170183413098508
vn -0.9790021892232544 0.2001028883858513 -0.03890433852046059
vn -0.9740295991146476 0.2231259938605742 0.038485463649149655
vn -0.9342419792031584 0.23286084060240592 0.27012543976550263
vn -0.9507243470786411 0.24523588548521827 0.1896907386831849
vn -0.9677464364373081 0.1691133230647438 0.18672846254626232
vn -0.9342419792031584 0.23286084060240592 0.27012543976550263
vn -0.9677464364373081 0.1691133230647438 0.18672846254626232
vn -0.7370970014220294 0.0006409544526247988 0.6757866524814192
f 1/1/1 2/2/2 3/3/3
f 4/4/4 5/5/5 6/6/6
f 7/7/7 8/8/8 9/9/9
f 10/10/10 11/11/11 12/12/12
f 13/13/13 14/14/14 15/15/15
f 16/16/16 17/17/17 18/18/18
f 19/19/19 20/20/20 21/21/21
f 22/22/22 23/23/23 24/24/24
f 25/25/25 26/26/26 27/27/27
f 28/28/28 29/29/29 30/30/30
f 31/31/31 32/32/32 33/33/33
f 34/34/34 35/35/35 36/36/36
f 37/37/37 38/38/38 39/39/39
f 40/40/40 41/41/41 42/42/42
f 43/43/43 44/44/44 45/45/45
f 46/46/46 47/47/47 48/48/48
f 49/49/49 50/50/50 51/51/51
f 52/52/52 53/53/53 54/54/54
f 55/55/55 56/56/56 57/57/57
f 58/58/58 59/59/59 60/60/60
f 61/61/61 62/62/62 63/63/63
f 64/64/64 65/65/65 66/66/66
f 67/67/67 68/68/68 69/69/69
f 70/70/70 71/71/71 72/72/72
f 73/73/73 74/74/74 75/75/75
f 76/76/76 77/77/77 78/78/78
f 79/79/79 80/80/80 81/81/81
f 82/82/82 83/83/83 84/84/84
f 85/85/85 86/86/86 87/87/87
f 88/88/88 89/89/89 90/90/90
f 91/91/91 92/92/92 93/93/93
f 94/94/94 95/95/95 96/96/96
f 97/97/97 98/98/98 99/99/99
f 100/100/100 101/101/101 102/102/102
f 103/103/103 104/104/104 105/105/105
f 106/106/106 107/107/107 108/108/108
f 109/109/109 110/110/110 111/111/111
f 112/112/112 113/113/113 114/114/114
f 115/115/115 116/116/116 117/117/117
f 118/118/118 119/119/119 120/120/120
f 121/121/121 122/122/122 123/123/123
f 124/124/124 125/125/125 126/126/126
f 127/127/127 128/128/128 129/129/129
f 130/130/130 131/131/131 132/132/132
