mtllib ArcadaCompleta.mtl
o D12C_CV0
usemtl Esmalte
v -12.235600471496582 26.432342529296875 2.482450754128883
v -12.235600471496582 24.548873901367188 2.749140769921729
v -11.0516996383667 24.548873901367188 2.588920862161109
v -12.235600471496582 26.432342529296875 2.482450754128883
v -11.0516996383667 24.548873901367188 2.588920862161109
v -11.240799903869629 26.403854370117188 2.278870851479957
v -13.230299949645996 26.403854370117188 2.278870851479957
v -14.17039966583252 24.65704345703125 2.03307083316941
v -13.419400215148926 24.548873901367188 2.588920862161109
v -13.230299949645996 26.403854370117188 2.278870851479957
v -13.419400215148926 24.548873901367188 2.588920862161109
v -12.235600471496582 24.548873901367188 2.749140769921729
v -13.230299949645996 26.403854370117188 2.278870851479957
v -12.235600471496582 24.548873901367188 2.749140769921729
v -12.235600471496582 26.432342529296875 2.482450754128883
v -12.235600471496582 24.548873901367188 2.749140769921729
v -12.235600471496582 23.5819034576416 2.631200820886084
v -10.974300384521484 23.5819034576416 2.4346607036222903
v -12.235600471496582 24.548873901367188 2.749140769921729
v -10.974300384521484 23.5819034576416 2.4346607036222903
v -11.0516996383667 24.548873901367188 2.588920862161109
v -11.0516996383667 24.548873901367188 2.588920862161109
v -10.300700187683105 24.65704345703125 2.03307083316941
v -11.240799903869629 26.403854370117188 2.278870851479957
v -11.0516996383667 24.548873901367188 2.588920862161109
v -10.974300384521484 23.5819034576416 2.4346607036222903
v -10.300700187683105 24.65704345703125 2.03307083316941
v -13.419400215148926 24.548873901367188 2.588920862161109
v -14.17039966583252 24.65704345703125 2.03307083316941
v -13.496800422668457 23.5819034576416 2.4346607036222903
v -13.496800422668457 23.5819034576416 2.4346607036222903
v -12.235600471496582 23.5819034576416 2.631200820886084
v -12.235600471496582 24.548873901367188 2.749140769921729
v -13.496800422668457 23.5819034576416 2.4346607036222903
v -12.235600471496582 24.548873901367188 2.749140769921729
v -13.419400215148926 24.548873901367188 2.588920862161109
v -10.393500328063965 25.720212936401367 1.7375006980528327
v -11.240799903869629 26.403854370117188 2.278870851479957
v -10.300700187683105 24.65704345703125 2.03307083316941
v -14.077699661254883 25.720212936401367 1.7375006980528327
v -14.17039966583252 24.65704345703125 2.03307083316941
v -13.230299949645996 26.403854370117188 2.278870851479957
v -14.637499809265137 23.049442291259766 1.8582806892027344
v -13.574199676513672 23.049442291259766 2.2804107970823733
v -13.496800422668457 23.5819034576416 2.4346607036222903
v -14.637499809265137 23.049442291259766 1.8582806892027344
v -13.496800422668457 23.5819034576416 2.4346607036222903
v -14.17039966583252 24.65704345703125 2.03307083316941
v -9.833620071411133 23.049442291259766 1.8582806892027344
v -10.300700187683105 24.65704345703125 2.03307083316941
v -10.974300384521484 23.5819034576416 2.4346607036222903
v -9.833620071411133 23.049442291259766 1.8582806892027344
v -10.974300384521484 23.5819034576416 2.4346607036222903
v -10.896900177001953 23.049442291259766 2.2804107970823733
v -12.235600471496582 23.049442291259766 2.5132606334318606
v -10.896900177001953 23.049442291259766 2.2804107970823733
v -10.974300384521484 23.5819034576416 2.4346607036222903
v -12.235600471496582 23.049442291259766 2.5132606334318606
v -10.974300384521484 23.5819034576416 2.4346607036222903
v -12.235600471496582 23.5819034576416 2.631200820886084
v -12.235600471496582 23.5819034576416 2.631200820886084
v -13.496800422668457 23.5819034576416 2.4346607036222903
v -13.574199676513672 23.049442291259766 2.2804107970823733
v -12.235600471496582 23.5819034576416 2.631200820886084
v -13.574199676513672 23.049442291259766 2.2804107970823733
v -12.235600471496582 23.049442291259766 2.5132606334318606
vt 0.49506500363349915 0.9995009899139404
vt 0.49506500363349915 0.7894740104675293
vt 0.6746709942817688 0.7894740104675293
vt 0.49506500363349915 0.9995009899139404
vt 0.6746709942817688 0.7894740104675293
vt 0.6459829807281494 0.9963240027427673
vt 0.3441619873046875 0.9963240027427673
vt 0.20154200494289398 0.8015360236167908
vt 0.3154740035533905 0.7894740104675293
vt 0.3441619873046875 0.9963240027427673
vt 0.3154740035533905 0.7894740104675293
vt 0.49506500363349915 0.7894740104675293
vt 0.3441619873046875 0.9963240027427673
vt 0.49506500363349915 0.7894740104675293
vt 0.49506500363349915 0.9995009899139404
vt 0.49506500363349915 0.7894740104675293
vt 0.49506500363349915 0.681647002696991
vt 0.6864129900932312 0.681647002696991
vt 0.49506500363349915 0.7894740104675293
vt 0.6864129900932312 0.681647002696991
vt 0.6746709942817688 0.7894740104675293
vt 0.6746709942817688 0.7894740104675293
vt 0.7886030077934265 0.8015360236167908
vt 0.6459829807281494 0.9963240027427673
vt 0.6746709942817688 0.7894740104675293
vt 0.6864129900932312 0.681647002696991
vt 0.7886030077934265 0.8015360236167908
vt 0.3154740035533905 0.7894740104675293
vt 0.20154200494289398 0.8015360236167908
vt 0.3037320077419281 0.681647002696991
vt 0.3037320077419281 0.681647002696991
vt 0.49506500363349915 0.681647002696991
vt 0.49506500363349915 0.7894740104675293
vt 0.3037320077419281 0.681647002696991
vt 0.49506500363349915 0.7894740104675293
vt 0.3154740035533905 0.7894740104675293
vt 0.774524986743927 0.9200909733772278
vt 0.6459829807281494 0.9963240027427673
vt 0.7886030077934265 0.8015360236167908
vt 0.2156050056219101 0.9200909733772278
vt 0.20154200494289398 0.8015360236167908
vt 0.3441619873046875 0.9963240027427673
vt 0.13067899644374847 0.6222720146179199
vt 0.2919900119304657 0.6222720146179199
vt 0.3037320077419281 0.681647002696991
vt 0.13067899644374847 0.6222720146179199
vt 0.3037320077419281 0.681647002696991
vt 0.20154200494289398 0.8015360236167908
vt 0.8594620227813721 0.6222720146179199
vt 0.7886030077934265 0.8015360236167908
vt 0.6864129900932312 0.681647002696991
vt 0.8594620227813721 0.6222720146179199
vt 0.6864129900932312 0.681647002696991
vt 0.6981549859046936 0.6222720146179199
vt 0.49506500363349915 0.6222720146179199
vt 0.6981549859046936 0.6222720146179199
vt 0.6864129900932312 0.681647002696991
vt 0.49506500363349915 0.6222720146179199
vt 0.6864129900932312 0.681647002696991
vt 0.49506500363349915 0.681647002696991
vt 0.49506500363349915 0.681647002696991
vt 0.3037320077419281 0.681647002696991
vt 0.2919900119304657 0.6222720146179199
vt 0.49506500363349915 0.681647002696991
vt 0.2919900119304657 0.6222720146179199
vt 0.49506500363349915 0.6222720146179199
vn 0.04934811965229695 0.1540768444725016 0.986825764298936
vn -0.035006448709020185 0.030833687705943486 0.9989113235173757
vn 0.3078518750555995 0.0973822585588168 0.9464374880269353
vn 0.04934811965229695 0.1540768444725016 0.986825764298936
vn 0.3078518750555995 0.0973822585588168 0.9464374880269353
vn 0.45694358185170364 0.20833562783399426 0.8647536233977576
vn -0.35664173157568096 0.18838405100819092 0.9150508863579354
vn -0.5653456300947256 0.11361450403395998 0.8169920825845959
vn -0.341735219172359 0.0839483081407176 0.9360393803347865
vn -0.35664173157568096 0.18838405100819092 0.9150508863579354
vn -0.341735219172359 0.0839483081407176 0.9360393803347865
vn -0.035006448709020185 0.030833687705943486 0.9989113235173757
vn -0.35664173157568096 0.18838405100819092 0.9150508863579354
vn -0.035006448709020185 0.030833687705943486 0.9989113235173757
vn 0.04934811965229695 0.1540768444725016 0.986825764298936
vn -0.035006448709020185 0.030833687705943486 0.9989113235173757
vn -0.027162451052673592 -0.1716422156465466 0.9847848247514558
vn 0.31096025752104123 -0.11245167801825175 0.9437469673346386
vn -0.035006448709020185 0.030833687705943486 0.9989113235173757
vn 0.31096025752104123 -0.11245167801825175 0.9437469673346386
vn 0.3078518750555995 0.0973822585588168 0.9464374880269353
vn 0.3078518750555995 0.0973822585588168 0.9464374880269353
vn 0.5653615212854914 0.11362053433174622 0.8169802472691265
vn 0.45694358185170364 0.20833562783399426 0.8647536233977576
vn 0.3078518750555995 0.0973822585588168 0.9464374880269353
vn 0.31096025752104123 -0.11245167801825175 0.9437469673346386
vn 0.5653615212854914 0.11362053433174622 0.8169802472691265
vn -0.341735219172359 0.0839483081407176 0.9360393803347865
vn -0.5653456300947256 0.11361450403395998 0.8169920825845959
vn -0.327202062074319 -0.10037922257718654 0.9396078023564476
vn -0.327202062074319 -0.10037922257718654 0.9396078023564476
vn -0.027162451052673592 -0.1716422156465466 0.9847848247514558
vn -0.035006448709020185 0.030833687705943486 0.9989113235173757
vn -0.327202062074319 -0.10037922257718654 0.9396078023564476
vn -0.035006448709020185 0.030833687705943486 0.9989113235173757
vn -0.341735219172359 0.0839483081407176 0.9360393803347865
vn 0.6580835329063756 0.2544515631605338 0.7086469259953253
vn 0.45694358185170364 0.20833562783399426 0.8647536233977576
vn 0.5653615212854914 0.11362053433174622 0.8169802472691265
vn -0.6580179856546241 0.2544053764657644 0.7087243716568123
vn -0.5653456300947256 0.11361450403395998 0.8169920825845959
vn -0.35664173157568096 0.18838405100819092 0.9150508863579354
vn -0.4412751373333912 -0.025642554495140503 0.8970054139024806
vn -0.22046711265299912 -0.2278302380758424 0.9484132194654157
vn -0.327202062074319 -0.10037922257718654 0.9396078023564476
vn -0.4412751373333912 -0.025642554495140503 0.8970054139024806
vn -0.327202062074319 -0.10037922257718654 0.9396078023564476
vn -0.5653456300947256 0.11361450403395998 0.8169920825845959
vn 0.44128023017114404 -0.025644808100488085 0.8970028440744161
vn 0.5653615212854914 0.11362053433174622 0.8169802472691265
vn 0.31096025752104123 -0.11245167801825175 0.9437469673346386
vn 0.44128023017114404 -0.025644808100488085 0.8970028440744161
vn 0.31096025752104123 -0.11245167801825175 0.9437469673346386
vn 0.2557411513854684 -0.2345180258342804 0.9378687323110984
vn 0.04850876233958341 -0.22949742810206858 0.9720997019189019
vn 0.2557411513854684 -0.2345180258342804 0.9378687323110984
vn 0.31096025752104123 -0.11245167801825175 0.9437469673346386
vn 0.04850876233958341 -0.22949742810206858 0.9720997019189019
vn 0.31096025752104123 -0.11245167801825175 0.9437469673346386
vn -0.027162451052673592 -0.1716422156465466 0.9847848247514558
vn -0.027162451052673592 -0.1716422156465466 0.9847848247514558
vn -0.327202062074319 -0.10037922257718654 0.9396078023564476
vn -0.22046711265299912 -0.2278302380758424 0.9484132194654157
vn -0.027162451052673592 -0.1716422156465466 0.9847848247514558
vn -0.22046711265299912 -0.2278302380758424 0.9484132194654157
vn 0.04850876233958341 -0.22949742810206858 0.9720997019189019
f 1/1/1 2/2/2 3/3/3
f 4/4/4 5/5/5 6/6/6
f 7/7/7 8/8/8 9/9/9
f 10/10/10 11/11/11 12/12/12
f 13/13/13 14/14/14 15/15/15
f 16/16/16 17/17/17 18/18/18
f 19/19/19 20/20/20 21/21/21
f 22/22/22 23/23/23 24/24/24
f 25/25/25 26/26/26 27/27/27
f 28/28/28 29/29/29 30/30/30
f 31/31/31 32/32/32 33/33/33
f 34/34/34 35/35/35 36/36/36
f 37/37/37 38/38/38 39/39/39
f 40/40/40 41/41/41 42/42/42
f 43/43/43 44/44/44 45/45/45
f 46/46/46 47/47/47 48/48/48
f 49/49/49 50/50/50 51/51/51
f 52/52/52 53/53/53 54/54/54
f 55/55/55 56/56/56 57/57/57
f 58/58/58 59/59/59 60/60/60
f 61/61/61 62/62/62 63/63/63
f 64/64/64 65/65/65 66/66/66
