mtllib ArcadaCompleta.mtl
o D13C_L
usemtl Esmalte
v -19.318300247192383 19.899372100830078 -1.3653692894349616
v -19.183500289916992 18.815963745117188 -1.0252992802033944
v -20.25 18.84125328063965 -0.9516962461839242
v -19.318300247192383 19.899372100830078 -1.3653692894349616
v -20.25 18.84125328063965 -0.9516962461839242
v -20.81060028076172 19.899372100830078 -1.226779311216883
v -19.318300247192383 23.472702026367188 -3.7558192901979
v -17.790800094604492 23.472702026367188 -3.4187392883668455
v -17.756000518798828 22.51455307006836 -2.4691593342195066
v -19.318300247192383 23.472702026367188 -3.7558192901979
v -17.756000518798828 22.51455307006836 -2.4691593342195066
v -19.318300247192383 22.51455307006836 -2.9593493633637937
v -19.318300247192383 21.55640411376953 -2.1628691845307864
v -17.721099853515625 21.55640411376953 -1.5195692472825566
v -17.825899124145508 19.899372100830078 -1.226779311216883
v -19.318300247192383 21.55640411376953 -2.1628691845307864
v -17.825899124145508 19.899372100830078 -1.226779311216883
v -19.318300247192383 19.899372100830078 -1.3653692894349616
v -19.318300247192383 21.55640411376953 -2.1628691845307864
v -19.318300247192383 22.51455307006836 -2.9593493633637937
v -17.756000518798828 22.51455307006836 -2.4691593342195066
v -19.318300247192383 21.55640411376953 -2.1628691845307864
v -17.756000518798828 22.51455307006836 -2.4691593342195066
v -17.721099853515625 21.55640411376953 -1.5195692472825566
v -17.825899124145508 19.899372100830078 -1.226779311216883
v -18.116899490356445 18.84125328063965 -0.9516962461839242
v -19.183500289916992 18.815963745117188 -1.0252992802033944
v -17.825899124145508 19.899372100830078 -1.226779311216883
v -19.183500289916992 18.815963745117188 -1.0252992802033944
v -19.318300247192383 19.899372100830078 -1.3653692894349616
v -17.825899124145508 19.899372100830078 -1.226779311216883
v -17.210800170898438 19.899372100830078 -1.0619492226014655
v -17.208599090576172 18.845022201538086 -0.7507722669015451
v -17.825899124145508 19.899372100830078 -1.226779311216883
v -17.208599090576172 18.845022201538086 -0.7507722669015451
v -18.116899490356445 18.84125328063965 -0.9516962461839242
v -20.81060028076172 19.899372100830078 -1.226779311216883
v -20.9153995513916 21.55640411376953 -1.5195692472825566
v -19.318300247192383 21.55640411376953 -2.1628691845307864
v -20.81060028076172 19.899372100830078 -1.226779311216883
v -19.318300247192383 21.55640411376953 -2.1628691845307864
v -19.318300247192383 19.899372100830078 -1.3653692894349616
v -20.81060028076172 19.899372100830078 -1.226779311216883
v -20.25 18.84125328063965 -0.9516962461839242
v -21.250499725341797 18.839202880859375 -0.731862276114039
v -20.81060028076172 19.899372100830078 -1.226779311216883
v -21.250499725341797 18.839202880859375 -0.731862276114039
v -21.42569923400879 19.899372100830078 -1.0619492226014655
v -17.790800094604492 23.472702026367188 -3.4187392883668455
v -17.172199249267578 23.472702026367188 -2.889469354666284
v -17.154800415039062 22.993633270263672 -2.414679258383325
v -17.790800094604492 23.472702026367188 -3.4187392883668455
v -17.154800415039062 22.993633270263672 -2.414679258383325
v -17.756000518798828 22.51455307006836 -2.4691593342195066
v -17.721099853515625 21.55640411376953 -1.5195692472825566
v -17.756000518798828 22.51455307006836 -2.4691593342195066
v -17.154800415039062 22.993633270263672 -2.414679258383325
v -17.721099853515625 21.55640411376953 -1.5195692472825566
v -17.154800415039062 22.993633270263672 -2.414679258383325
v -17.177400588989258 21.55640411376953 -1.6301192932496587
v -20.9153995513916 21.55640411376953 -1.5195692472825566
v -20.88050079345703 22.51455307006836 -2.4691593342195066
v -19.318300247192383 22.51455307006836 -2.9593493633637937
v -20.9153995513916 21.55640411376953 -1.5195692472825566
v -19.318300247192383 22.51455307006836 -2.9593493633637937
v -19.318300247192383 21.55640411376953 -2.1628691845307864
v -20.9153995513916 21.55640411376953 -1.5195692472825566
v -21.4591007232666 21.55640411376953 -1.6301192932496587
v -21.481700897216797 22.993633270263672 -2.414679258383325
v -20.9153995513916 21.55640411376953 -1.5195692472825566
v -21.481700897216797 22.993633270263672 -2.414679258383325
v -20.88050079345703 22.51455307006836 -2.4691593342195066
v -19.318300247192383 22.51455307006836 -2.9593493633637937
v -20.88050079345703 22.51455307006836 -2.4691593342195066
v -20.845699310302734 23.472702026367188 -3.4187392883668455
v -19.318300247192383 22.51455307006836 -2.9593493633637937
v -20.845699310302734 23.472702026367188 -3.4187392883668455
v -19.318300247192383 23.472702026367188 -3.7558192901979
v -20.88050079345703 22.51455307006836 -2.4691593342195066
v -21.481700897216797 22.993633270263672 -2.414679258383325
v -21.46430015563965 23.472702026367188 -2.889469354666284
v -20.88050079345703 22.51455307006836 -2.4691593342195066
v -21.46430015563965 23.472702026367188 -2.889469354666284
v -20.845699310302734 23.472702026367188 -3.4187392883668455
v -21.42569923400879 19.899372100830078 -1.0619492226014655
v -21.4591007232666 21.55640411376953 -1.6301192932496587
v -20.9153995513916 21.55640411376953 -1.5195692472825566
v -21.42569923400879 19.899372100830078 -1.0619492226014655
v -20.9153995513916 21.55640411376953 -1.5195692472825566
v -20.81060028076172 19.899372100830078 -1.226779311216883
v -17.177400588989258 21.55640411376953 -1.6301192932496587
v -17.210800170898438 19.899372100830078 -1.0619492226014655
v -17.825899124145508 19.899372100830078 -1.226779311216883
v -17.177400588989258 21.55640411376953 -1.6301192932496587
v -17.825899124145508 19.899372100830078 -1.226779311216883
v -17.721099853515625 21.55640411376953 -1.5195692472825566
vt 0.4867579936981201 0.26961201429367065
vt 0.4683850109577179 0.16042399406433105
vt 0.6137480139732361 0.16297298669815063
vt 0.4867579936981201 0.26961201429367065
vt 0.6137480139732361 0.16297298669815063
vt 0.6901569962501526 0.26961201429367065
vt 0.4867579936981201 0.6297370195388794
vt 0.2785620093345642 0.6297370195388794
vt 0.2738189995288849 0.5331739783287048
vt 0.4867579936981201 0.6297370195388794
vt 0.2738189995288849 0.5331739783287048
vt 0.4867579936981201 0.5331739783287048
vt 0.4867579936981201 0.43660998344421387
vt 0.26906201243400574 0.43660998344421387
vt 0.2833459973335266 0.26961201429367065
vt 0.4867579936981201 0.43660998344421387
vt 0.2833459973335266 0.26961201429367065
vt 0.4867579936981201 0.26961201429367065
vt 0.4867579936981201 0.43660998344421387
vt 0.4867579936981201 0.5331739783287048
vt 0.2738189995288849 0.5331739783287048
vt 0.4867579936981201 0.43660998344421387
vt 0.2738189995288849 0.5331739783287048
vt 0.26906201243400574 0.43660998344421387
vt 0.2833459973335266 0.26961201429367065
vt 0.32300901412963867 0.16297298669815063
vt 0.4683850109577179 0.16042399406433105
vt 0.2833459973335266 0.26961201429367065
vt 0.4683850109577179 0.16042399406433105
vt 0.4867579936981201 0.26961201429367065
vt 0.2833459973335266 0.26961201429367065
vt 0.19950899481773376 0.26961201429367065
vt 0.19920900464057922 0.16335296630859375
vt 0.2833459973335266 0.26961201429367065
vt 0.19920900464057922 0.16335296630859375
vt 0.32300901412963867 0.16297298669815063
vt 0.6901569962501526 0.26961201429367065
vt 0.7044410109519958 0.43660998344421387
vt 0.4867579936981201 0.43660998344421387
vt 0.6901569962501526 0.26961201429367065
vt 0.4867579936981201 0.43660998344421387
vt 0.4867579936981201 0.26961201429367065
vt 0.6901569962501526 0.26961201429367065
vt 0.6137480139732361 0.16297298669815063
vt 0.7501149773597717 0.16276699304580688
vt 0.6901569962501526 0.26961201429367065
vt 0.7501149773597717 0.16276699304580688
vt 0.7739940285682678 0.26961201429367065
vt 0.2785620093345642 0.6297370195388794
vt 0.1942480057477951 0.6297370195388794
vt 0.19187599420547485 0.5814560055732727
vt 0.2785620093345642 0.6297370195388794
vt 0.19187599420547485 0.5814560055732727
vt 0.2738189995288849 0.5331739783287048
vt 0.26906201243400574 0.43660998344421387
vt 0.2738189995288849 0.5331739783287048
vt 0.19187599420547485 0.5814560055732727
vt 0.26906201243400574 0.43660998344421387
vt 0.19187599420547485 0.5814560055732727
vt 0.19495700299739838 0.43660998344421387
vt 0.7044410109519958 0.43660998344421387
vt 0.6996840238571167 0.5331739783287048
vt 0.4867579936981201 0.5331739783287048
vt 0.7044410109519958 0.43660998344421387
vt 0.4867579936981201 0.5331739783287048
vt 0.4867579936981201 0.43660998344421387
vt 0.7044410109519958 0.43660998344421387
vt 0.7785469889640808 0.43660998344421387
vt 0.7816269993782043 0.5814560055732727
vt 0.7044410109519958 0.43660998344421387
vt 0.7816269993782043 0.5814560055732727
vt 0.6996840238571167 0.5331739783287048
vt 0.4867579936981201 0.5331739783287048
vt 0.6996840238571167 0.5331739783287048
vt 0.694940984249115 0.6297370195388794
vt 0.4867579936981201 0.5331739783287048
vt 0.694940984249115 0.6297370195388794
vt 0.4867579936981201 0.6297370195388794
vt 0.6996840238571167 0.5331739783287048
vt 0.7816269993782043 0.5814560055732727
vt 0.7792549729347229 0.6297370195388794
vt 0.6996840238571167 0.5331739783287048
vt 0.7792549729347229 0.6297370195388794
vt 0.694940984249115 0.6297370195388794
vt 0.7739940285682678 0.26961201429367065
vt 0.7785469889640808 0.43660998344421387
vt 0.7044410109519958 0.43660998344421387
vt 0.7739940285682678 0.26961201429367065
vt 0.7044410109519958 0.43660998344421387
vt 0.6901569962501526 0.26961201429367065
vt 0.19495700299739838 0.43660998344421387
vt 0.19950899481773376 0.26961201429367065
vt 0.2833459973335266 0.26961201429367065
vt 0.19495700299739838 0.43660998344421387
vt 0.2833459973335266 0.26961201429367065
vt 0.26906201243400574 0.43660998344421387
vn -0.008471375972288276 -0.37245001112555376 -0.9280135909574337
vn 0.03605945205166026 -0.2892404333696234 -0.9565770683127872
vn -0.11612651603155365 -0.31311277812276805 -0.9425895291433145
vn -0.008471375972288276 -0.37245001112555376 -0.9280135909574337
vn -0.11612651603155365 -0.31311277812276805 -0.9425895291433145
vn -0.2094453115118238 -0.3001345082149843 -0.9306191156774424
vn 0.07939075480646945 -0.65916327978818 -0.7477973513126057
vn 0.31329994809729905 -0.6627197738133703 -0.6801805965469649
vn 0.2852545741204578 -0.6468011282740951 -0.7073034203273117
vn 0.07939075480646945 -0.65916327978818 -0.7477973513126057
vn 0.2852545741204578 -0.6468011282740951 -0.7073034203273117
vn -0.07824872312483556 -0.6589077012616492 -0.7481428864511258
vn 0.028331796522512578 -0.4500649703044853 -0.892546263120646
vn 0.24889863552025493 -0.427084646410966 -0.8692802620767225
vn 0.16609675710192243 -0.2920686519581135 -0.9418639869023527
vn 0.028331796522512578 -0.4500649703044853 -0.892546263120646
vn 0.16609675710192243 -0.2920686519581135 -0.9418639869023527
vn -0.008471375972288276 -0.37245001112555376 -0.9280135909574337
vn 0.028331796522512578 -0.4500649703044853 -0.892546263120646
vn -0.07824872312483556 -0.6589077012616492 -0.7481428864511258
vn 0.2852545741204578 -0.6468011282740951 -0.7073034203273117
vn 0.028331796522512578 -0.4500649703044853 -0.892546263120646
vn 0.2852545741204578 -0.6468011282740951 -0.7073034203273117
vn 0.24889863552025493 -0.427084646410966 -0.8692802620767225
vn 0.16609675710192243 -0.2920686519581135 -0.9418639869023527
vn 0.1361088387470652 -0.28416432526313334 -0.9490653403547479
vn 0.03605945205166026 -0.2892404333696234 -0.9565770683127872
vn 0.16609675710192243 -0.2920686519581135 -0.9418639869023527
vn 0.03605945205166026 -0.2892404333696234 -0.9565770683127872
vn -0.008471375972288276 -0.37245001112555376 -0.9280135909574337
vn 0.16609675710192243 -0.2920686519581135 -0.9418639869023527
vn 0.24679395686565542 -0.3015241572730828 -0.9209646711114114
vn 0.22417417046216098 -0.2889465183792478 -0.9307286665909207
vn 0.16609675710192243 -0.2920686519581135 -0.9418639869023527
vn 0.22417417046216098 -0.2889465183792478 -0.9307286665909207
vn 0.1361088387470652 -0.28416432526313334 -0.9490653403547479
vn -0.2094453115118238 -0.3001345082149843 -0.9306191156774424
vn -0.24710589198257552 -0.45497056015087495 -0.8555351936323221
vn 0.028331796522512578 -0.4500649703044853 -0.892546263120646
vn -0.2094453115118238 -0.3001345082149843 -0.9306191156774424
vn 0.028331796522512578 -0.4500649703044853 -0.892546263120646
vn -0.008471375972288276 -0.37245001112555376 -0.9280135909574337
vn -0.2094453115118238 -0.3001345082149843 -0.9306191156774424
vn -0.11612651603155365 -0.31311277812276805 -0.9425895291433145
vn -0.21764364744817447 -0.33726349998801025 -0.9159064222404448
vn -0.2094453115118238 -0.3001345082149843 -0.9306191156774424
vn -0.21764364744817447 -0.33726349998801025 -0.9159064222404448
vn -0.0984658952006476 -0.2732377983754092 -0.956893710409518
vn 0.31329994809729905 -0.6627197738133703 -0.6801805965469649
vn 0.5252265112094461 -0.5893171776551904 -0.6138748863109439
vn 0.354927163261844 -0.591013161599337 -0.7243826002847227
vn 0.31329994809729905 -0.6627197738133703 -0.6801805965469649
vn 0.354927163261844 -0.591013161599337 -0.7243826002847227
vn 0.2852545741204578 -0.6468011282740951 -0.7073034203273117
vn 0.24889863552025493 -0.427084646410966 -0.8692802620767225
vn 0.2852545741204578 -0.6468011282740951 -0.7073034203273117
vn 0.354927163261844 -0.591013161599337 -0.7243826002847227
vn 0.24889863552025493 -0.427084646410966 -0.8692802620767225
vn 0.354927163261844 -0.591013161599337 -0.7243826002847227
vn -0.024131541257950116 -0.32435461261637605 -0.9456277036926299
vn -0.24710589198257552 -0.45497056015087495 -0.8555351936323221
vn -0.3332382374119935 -0.6575496661679099 -0.6757075651855752
vn -0.07824872312483556 -0.6589077012616492 -0.7481428864511258
vn -0.24710589198257552 -0.45497056015087495 -0.8555351936323221
vn -0.07824872312483556 -0.6589077012616492 -0.7481428864511258
vn 0.028331796522512578 -0.4500649703044853 -0.892546263120646
vn -0.24710589198257552 -0.45497056015087495 -0.8555351936323221
vn 0.1833905233471474 -0.3909860154911106 -0.9019411575246161
vn -0.2751157913772469 -0.5840348040733638 -0.7636849147167035
vn -0.24710589198257552 -0.45497056015087495 -0.8555351936323221
vn -0.2751157913772469 -0.5840348040733638 -0.7636849147167035
vn -0.3332382374119935 -0.6575496661679099 -0.6757075651855752
vn -0.07824872312483556 -0.6589077012616492 -0.7481428864511258
vn -0.3332382374119935 -0.6575496661679099 -0.6757075651855752
vn -0.260537285949014 -0.6518395278282552 -0.7121976920707896
vn -0.07824872312483556 -0.6589077012616492 -0.7481428864511258
vn -0.260537285949014 -0.6518395278282552 -0.7121976920707896
vn 0.07939075480646945 -0.65916327978818 -0.7477973513126057
vn -0.3332382374119935 -0.6575496661679099 -0.6757075651855752
vn -0.2751157913772469 -0.5840348040733638 -0.7636849147167035
vn -0.5252313540947405 -0.5893113531285027 -0.6138763342479154
vn -0.3332382374119935 -0.6575496661679099 -0.6757075651855752
vn -0.5252313540947405 -0.5893113531285027 -0.6138763342479154
vn -0.260537285949014 -0.6518395278282552 -0.7121976920707896
vn -0.0984658952006476 -0.2732377983754092 -0.956893710409518
vn 0.1833905233471474 -0.3909860154911106 -0.9019411575246161
vn -0.24710589198257552 -0.45497056015087495 -0.8555351936323221
vn -0.0984658952006476 -0.2732377983754092 -0.956893710409518
vn -0.24710589198257552 -0.45497056015087495 -0.8555351936323221
vn -0.2094453115118238 -0.3001345082149843 -0.9306191156774424
vn -0.024131541257950116 -0.32435461261637605 -0.9456277036926299
vn 0.24679395686565542 -0.3015241572730828 -0.9209646711114114
vn 0.16609675710192243 -0.2920686519581135 -0.9418639869023527
vn -0.024131541257950116 -0.32435461261637605 -0.9456277036926299
vn 0.16609675710192243 -0.2920686519581135 -0.9418639869023527
vn 0.24889863552025493 -0.427084646410966 -0.8692802620767225
f 1/1/1 2/2/2 3/3/3
f 4/4/4 5/5/5 6/6/6
f 7/7/7 8/8/8 9/9/9
f 10/10/10 11/11/11 12/12/12
f 13/13/13 14/14/14 15/15/15
f 16/16/16 17/17/17 18/18/18
f 19/19/19 20/20/20 21/21/21
f 22/22/22 23/23/23 24/24/24
f 25/25/25 26/26/26 27/27/27
f 28/28/28 29/29/29 30/30/30
f 31/31/31 32/32/32 33/33/33
f 34/34/34 35/35/35 36/36/36
f 37/37/37 38/38/38 39/39/39
f 40/40/40 41/41/41 42/42/42
f 43/43/43 44/44/44 45/45/45
f 46/46/46 47/47/47 48/48/48
f 49/49/49 50/50/50 51/51/51
f 52/52/52 53/53/53 54/54/54
f 55/55/55 56/56/56 57/57/57
f 58/58/58 59/59/59 60/60/60
f 61/61/61 62/62/62 63/63/63
f 64/64/64 65/65/65 66/66/66
f 67/67/67 68/68/68 69/69/69
f 70/70/70 71/71/71 72/72/72
f 73/73/73 74/74/74 75/75/75
f 76/76/76 77/77/77 78/78/78
f 79/79/79 80/80/80 81/81/81
f 82/82/82 83/83/83 84/84/84
f 85/85/85 86/86/86 87/87/87
f 88/88/88 89/89/89 90/90/90
f 91/91/91 92/92/92 93/93/93
f 94/94/94 95/95/95 96/96/96
