mtllib ArcadaCompleta.mtl
o D14C_CDV
usemtl Esmalte
v -29.58839988708496 19.61062240600586 2.3351006812681634
v -28.033899307250977 18.52039337158203 3.098390848123022
v -28.409099578857422 20.868743896484375 3.714220792733618
v -29.58839988708496 19.61062240600586 2.3351006812681634
v -28.409099578857422 20.868743896484375 3.714220792733618
v -29.779300689697266 21.309043884277344 2.880330831490942
v -26.779399871826172 18.086803436279297 3.2916808433165032
v -26.778400421142578 19.875411987304688 3.818580657922216
v -28.409099578857422 20.868743896484375 3.714220792733618
v -26.779399871826172 18.086803436279297 3.2916808433165032
v -28.409099578857422 20.868743896484375 3.714220792733618
v -28.033899307250977 18.52039337158203 3.098390848123022
v -26.779399871826172 17.56696319580078 2.540350706063695
v -27.85770034790039 17.823820114135742 2.1881108588804676
v -27.18589973449707 17.881685256958008 1.8338607854475453
v -29.779300689697266 21.309043884277344 2.880330831490942
v -30.214599609375 21.320043563842773 2.047190696679541
v -30.024900436401367 19.884292602539062 1.6661707467665154
v -29.779300689697266 21.309043884277344 2.880330831490942
v -30.024900436401367 19.884292602539062 1.6661707467665154
v -29.58839988708496 19.61062240600586 2.3351006812681634
v -28.95709991455078 19.530593872070312 1.375060708009191
v -28.444400787353516 19.032363891601562 1.0513707704176383
v -28.244600296020508 18.55857276916504 1.6253707713713124
v -28.95709991455078 19.530593872070312 1.375060708009191
v -28.244600296020508 18.55857276916504 1.6253707713713124
v -28.922700881958008 18.719932556152344 1.981720716439672
v -27.700199127197266 18.919593811035156 0.7560017413725333
v -27.53529930114746 18.294893264770508 1.2663407630552723
v -28.244600296020508 18.55857276916504 1.6253707713713124
v -27.700199127197266 18.919593811035156 0.7560017413725333
v -28.244600296020508 18.55857276916504 1.6253707713713124
v -28.444400787353516 19.032363891601562 1.0513707704176383
v -28.922700881958008 18.719932556152344 1.981720716439672
v -27.953399658203125 17.953746795654297 2.5373606986631825
v -28.033899307250977 18.52039337158203 3.098390848123022
v -28.922700881958008 18.719932556152344 1.981720716439672
v -28.033899307250977 18.52039337158203 3.098390848123022
v -29.58839988708496 19.61062240600586 2.3351006812681634
v -28.922700881958008 18.719932556152344 1.981720716439672
v -28.244600296020508 18.55857276916504 1.6253707713713124
v -27.85770034790039 17.823820114135742 2.1881108588804676
v -28.922700881958008 18.719932556152344 1.981720716439672
v -27.85770034790039 17.823820114135742 2.1881108588804676
v -27.953399658203125 17.953746795654297 2.5373606986631825
v -28.922700881958008 18.719932556152344 1.981720716439672
v -29.282100677490234 19.22283363342285 1.479490787469335
v -28.95709991455078 19.530593872070312 1.375060708009191
v -28.033899307250977 18.52039337158203 3.098390848123022
v -27.953399658203125 17.953746795654297 2.5373606986631825
v -26.779399871826172 17.56696319580078 2.540350706063695
v -28.033899307250977 18.52039337158203 3.098390848123022
v -26.779399871826172 17.56696319580078 2.540350706063695
v -26.779399871826172 18.086803436279297 3.2916808433165032
v -27.18589973449707 17.881685256958008 1.8338607854475453
v -26.779399871826172 17.729888916015625 1.6966407603849842
v -26.779399871826172 17.56696319580078 2.540350706063695
v -27.18589973449707 17.881685256958008 1.8338607854475453
v -27.85770034790039 17.823820114135742 2.1881108588804676
v -28.244600296020508 18.55857276916504 1.6253707713713124
v -27.18589973449707 17.881685256958008 1.8338607854475453
v -28.244600296020508 18.55857276916504 1.6253707713713124
v -27.53529930114746 18.294893264770508 1.2663407630552723
v -27.953399658203125 17.953746795654297 2.5373606986631825
v -27.85770034790039 17.823820114135742 2.1881108588804676
v -26.779399871826172 17.56696319580078 2.540350706063695
v -26.779399871826172 18.189353942871094 1.0833907432188465
v -27.53529930114746 18.294893264770508 1.2663407630552723
v -27.700199127197266 18.919593811035156 0.7560017413725333
v -26.779399871826172 18.189353942871094 1.0833907432188465
v -27.700199127197266 18.919593811035156 0.7560017413725333
v -26.779399871826172 18.654462814331055 0.6073517508139089
v -27.53529930114746 18.294893264770508 1.2663407630552723
v -26.779399871826172 18.189353942871094 1.0833907432188465
v -26.779399871826172 17.729888916015625 1.6966407603849842
v -27.53529930114746 18.294893264770508 1.2663407630552723
v -26.779399871826172 17.729888916015625 1.6966407603849842
v -27.18589973449707 17.881685256958008 1.8338607854475453
v -30.024900436401367 19.884292602539062 1.6661707467665154
v -29.282100677490234 19.22283363342285 1.479490787469335
v -28.922700881958008 18.719932556152344 1.981720716439672
v -30.024900436401367 19.884292602539062 1.6661707467665154
v -28.922700881958008 18.719932556152344 1.981720716439672
v -29.58839988708496 19.61062240600586 2.3351006812681634
vt 0.0949736014008522 0.24049198627471924
vt 0.31911900639533997 0.11246299743652344
vt 0.2650179862976074 0.38823598623275757
vt 0.0949736014008522 0.24049198627471924
vt 0.2650179862976074 0.38823598623275757
vt 0.06744769960641861 0.43994200229644775
vt 0.5000069737434387 0.06154578924179077
vt 0.5001509785652161 0.2715870141983032
vt 0.2650179862976074 0.38823598623275757
vt 0.5000069737434387 0.06154578924179077
vt 0.2650179862976074 0.38823598623275757
vt 0.31911900639533997 0.11246299743652344
vt 0.4999929964542389 0.21184003353118896
vt 0.6554740071296692 0.2511160373687744
vt 0.5586069822311401 0.2906149625778198
vt 0.8260679841041565 0.43994200229644775
vt 0.7331709861755371 0.4412339925765991
vt 0.6906870007514954 0.272629976272583
vt 0.8260679841041565 0.43994200229644775
vt 0.6906870007514954 0.272629976272583
vt 0.7652739882469177 0.24049198627471924
vt 0.6582270264625549 0.23109400272369385
vt 0.6221349835395813 0.17258501052856445
vt 0.6861370205879211 0.1169469952583313
vt 0.8139979839324951 0.23109400272369385
vt 0.7112619876861572 0.1169469952583313
vt 0.809037983417511 0.1358959674835205
vt 0.5892009735107422 0.15934300422668457
vt 0.6461049914360046 0.08598238229751587
vt 0.6861370205879211 0.1169469952583313
vt 0.6327639818191528 0.4107990264892578
vt 0.7112619876861572 0.31386303901672363
vt 0.7400709986686707 0.3778649568557739
vt 0.7258710265159607 0.1358959674835205
vt 0.7878270149230957 0.045920729637145996
vt 0.8503829836845398 0.11246299743652344
vt 0.7258710265159607 0.1358959674835205
vt 0.8503829836845398 0.11246299743652344
vt 0.7652739882469177 0.24049198627471924
vt 0.809037983417511 0.2741290330886841
vt 0.7112619876861572 0.31386303901672363
vt 0.6554740071296692 0.2511160373687744
vt 0.7258710265159607 0.1358959674835205
vt 0.7488840222358704 0.03066307306289673
vt 0.7878270149230957 0.045920729637145996
vt 0.809037983417511 0.1358959674835205
vt 0.8608599901199341 0.19495296478271484
vt 0.8139979839324951 0.23109400272369385
vt 0.6808810234069824 0.1496170163154602
vt 0.6692730188369751 0.2121729850769043
vt 0.4999929964542389 0.21184003353118896
vt 0.6808810234069824 0.1496170163154602
vt 0.4999929964542389 0.21184003353118896
vt 0.4999929964542389 0.12806499004364014
vt 0.5586069822311401 0.2906149625778198
vt 0.4999929964542389 0.3059160113334656
vt 0.4999929964542389 0.21184003353118896
vt 0.5586069822311401 0.2906149625778198
vt 0.6554740071296692 0.2511160373687744
vt 0.7112619876861572 0.31386303901672363
vt 0.5586069822311401 0.2906149625778198
vt 0.7112619876861572 0.31386303901672363
vt 0.6089869737625122 0.35389500856399536
vt 0.6692730188369751 0.2121729850769043
vt 0.6554740071296692 0.2511160373687744
vt 0.4999929964542389 0.21184003353118896
vt 0.4999929964542389 0.07358849048614502
vt 0.6089869737625122 0.08598238229751587
vt 0.6327639818191528 0.15934300422668457
vt 0.4999929964542389 0.3742940425872803
vt 0.6327639818191528 0.4107990264892578
vt 0.4999929964542389 0.427374005317688
vt 0.6089869737625122 0.35389500856399536
vt 0.4999929964542389 0.3742940425872803
vt 0.4999929964542389 0.3059160113334656
vt 0.6089869737625122 0.35389500856399536
vt 0.4999929964542389 0.3059160113334656
vt 0.5586069822311401 0.2906149625778198
vt 0.6906870007514954 0.272629976272583
vt 0.669871985912323 0.19495296478271484
vt 0.7258710265159607 0.1358959674835205
vt 0.6906870007514954 0.272629976272583
vt 0.7258710265159607 0.1358959674835205
vt 0.7652739882469177 0.24049198627471924
vn -0.6586684059141477 -0.38368279152917667 0.6472584078518363
vn -0.4912193702076923 -0.4647952305422055 0.7366606572893493
vn -0.4247752483398815 -0.2949175873080602 0.8559144846853478
vn -0.6586684059141477 -0.38368279152917667 0.6472584078518363
vn -0.4247752483398815 -0.2949175873080602 0.8559144846853478
vn -0.7283340907804629 -0.280613199107512 0.6251285345380135
vn -0.26053178061369664 -0.37128436210513704 0.8912188921619862
vn -0.22733743812643722 -0.2750642158541746 0.9341613171089008
vn -0.4247752483398815 -0.2949175873080602 0.8559144846853478
vn -0.26053178061369664 -0.37128436210513704 0.8912188921619862
vn -0.4247752483398815 -0.2949175873080602 0.8559144846853478
vn -0.4912193702076923 -0.4647952305422055 0.7366606572893493
vn -0.30119851687735166 -0.8942647115720552 0.3310137143198645
vn -0.3901186512697403 -0.8504744609590692 -0.3528464668773933
vn -0.32951026073836737 -0.8457449824291826 -0.4196884710877755
vn -0.7283340907804629 -0.280613199107512 0.6251285345380135
vn -0.8631966436417381 -0.23292135453853374 0.44792766939046397
vn -0.8520653994907137 -0.40880937229292696 0.32689364037281843
vn -0.7283340907804629 -0.280613199107512 0.6251285345380135
vn -0.8520653994907137 -0.40880937229292696 0.32689364037281843
vn -0.6586684059141477 -0.38368279152917667 0.6472584078518363
vn -0.4658434702967106 -0.6326618213487748 -0.6186508554827748
vn -0.5536326335490774 -0.7265352041795207 -0.4069858770981312
vn -0.4799782968702817 -0.688337765438969 -0.5438859762891398
vn -0.4658434702967106 -0.6326618213487748 -0.6186508554827748
vn -0.4799782968702817 -0.688337765438969 -0.5438859762891398
vn -0.6791244028325165 -0.7340180743216973 0.0027408112749609356
vn -0.3618388830025534 -0.687608673262842 -0.6294973671121895
vn -0.3950152716780978 -0.7454742863651768 -0.5368715148984988
vn -0.4799782968702817 -0.688337765438969 -0.5438859762891398
vn -0.3618388830025534 -0.687608673262842 -0.6294973671121895
vn -0.4799782968702817 -0.688337765438969 -0.5438859762891398
vn -0.5536326335490774 -0.7265352041795207 -0.4069858770981312
vn -0.6791244028325165 -0.7340180743216973 0.0027408112749609356
vn -0.510766855991286 -0.7276139147772444 0.45792489541769854
vn -0.4912193702076923 -0.4647952305422055 0.7366606572893493
vn -0.6791244028325165 -0.7340180743216973 0.0027408112749609356
vn -0.4912193702076923 -0.4647952305422055 0.7366606572893493
vn -0.6586684059141477 -0.38368279152917667 0.6472584078518363
vn -0.6791244028325165 -0.7340180743216973 0.0027408112749609356
vn -0.4799782968702817 -0.688337765438969 -0.5438859762891398
vn -0.3901186512697403 -0.8504744609590692 -0.3528464668773933
vn -0.6791244028325165 -0.7340180743216973 0.0027408112749609356
vn -0.3901186512697403 -0.8504744609590692 -0.3528464668773933
vn -0.510766855991286 -0.7276139147772444 0.45792489541769854
vn -0.6791244028325165 -0.7340180743216973 0.0027408112749609356
vn -0.39187090930069357 -0.7750720854053482 -0.49568180607043877
vn -0.4658434702967106 -0.6326618213487748 -0.6186508554827748
vn -0.4912193702076923 -0.4647952305422055 0.7366606572893493
vn -0.510766855991286 -0.7276139147772444 0.45792489541769854
vn -0.30119851687735166 -0.8942647115720552 0.3310137143198645
vn -0.4912193702076923 -0.4647952305422055 0.7366606572893493
vn -0.30119851687735166 -0.8942647115720552 0.3310137143198645
vn -0.26053178061369664 -0.37128436210513704 0.8912188921619862
vn -0.32951026073836737 -0.8457449824291826 -0.4196884710877755
vn -0.34390416897232523 -0.8442170062179046 -0.41112962551479193
vn -0.30119851687735166 -0.8942647115720552 0.3310137143198645
vn -0.32951026073836737 -0.8457449824291826 -0.4196884710877755
vn -0.3901186512697403 -0.8504744609590692 -0.3528464668773933
vn -0.4799782968702817 -0.688337765438969 -0.5438859762891398
vn -0.32951026073836737 -0.8457449824291826 -0.4196884710877755
vn -0.4799782968702817 -0.688337765438969 -0.5438859762891398
vn -0.3950152716780978 -0.7454742863651768 -0.5368715148984988
vn -0.510766855991286 -0.7276139147772444 0.45792489541769854
vn -0.3901186512697403 -0.8504744609590692 -0.3528464668773933
vn -0.30119851687735166 -0.8942647115720552 0.3310137143198645
vn -0.2733210235022782 -0.70310733381685 -0.6564569256582091
vn -0.3950152716780978 -0.7454742863651768 -0.5368715148984988
vn -0.3618388830025534 -0.687608673262842 -0.6294973671121895
vn -0.2733210235022782 -0.70310733381685 -0.6564569256582091
vn -0.3618388830025534 -0.687608673262842 -0.6294973671121895
vn -0.30371336696745443 -0.6814836538318536 -0.6658364816419108
vn -0.3950152716780978 -0.7454742863651768 -0.5368715148984988
vn -0.2733210235022782 -0.70310733381685 -0.6564569256582091
vn -0.34390416897232523 -0.8442170062179046 -0.41112962551479193
vn -0.3950152716780978 -0.7454742863651768 -0.5368715148984988
vn -0.34390416897232523 -0.8442170062179046 -0.41112962551479193
vn -0.32951026073836737 -0.8457449824291826 -0.4196884710877755
vn -0.8520653994907137 -0.40880937229292696 0.32689364037281843
vn -0.39187090930069357 -0.7750720854053482 -0.49568180607043877
vn -0.6791244028325165 -0.7340180743216973 0.0027408112749609356
vn -0.8520653994907137 -0.40880937229292696 0.32689364037281843
vn -0.6791244028325165 -0.7340180743216973 0.0027408112749609356
vn -0.6586684059141477 -0.38368279152917667 0.6472584078518363
f 1/1/1 2/2/2 3/3/3
f 4/4/4 5/5/5 6/6/6
f 7/7/7 8/8/8 9/9/9
f 10/10/10 11/11/11 12/12/12
f 13/13/13 14/14/14 15/15/15
f 16/16/16 17/17/17 18/18/18
f 19/19/19 20/20/20 21/21/21
f 22/22/22 23/23/23 24/24/24
f 25/25/25 26/26/26 27/27/27
f 28/28/28 29/29/29 30/30/30
f 31/31/31 32/32/32 33/33/33
f 34/34/34 35/35/35 36/36/36
f 37/37/37 38/38/38 39/39/39
f 40/40/40 41/41/41 42/42/42
f 43/43/43 44/44/44 45/45/45
f 46/46/46 47/47/47 48/48/48
f 49/49/49 50/50/50 51/51/51
f 52/52/52 53/53/53 54/54/54
f 55/55/55 56/56/56 57/57/57
f 58/58/58 59/59/59 60/60/60
f 61/61/61 62/62/62 63/63/63
f 64/64/64 65/65/65 66/66/66
f 67/67/67 68/68/68 69/69/69
f 70/70/70 71/71/71 72/72/72
f 73/73/73 74/74/74 75/75/75
f 76/76/76 77/77/77 78/78/78
f 79/79/79 80/80/80 81/81/81
f 82/82/82 83/83/83 84/84/84
