mtllib ArcadaCompleta.mtl
o D15C_CV
usemtl Esmalte
v -35.74720001220703 25.110393524169922 2.5647006339659186
v -36.071998596191406 24.059242248535156 2.866910726510474
v -35.03229904174805 24.059242248535156 3.5843408412565676
v -35.74720001220703 25.110393524169922 2.5647006339659186
v -35.03229904174805 24.059242248535156 3.5843408412565676
v -34.90290069580078 25.408432006835938 3.3626907176603766
v -33.91170120239258 25.441192626953125 3.662770778619239
v -33.911800384521484 24.059242248535156 4.210290700875708
v -32.79130172729492 24.059242248535156 3.5843408412565676
v -33.91170120239258 25.441192626953125 3.662770778619239
v -32.79130172729492 24.059242248535156 3.5843408412565676
v -32.92060089111328 25.408222198486328 3.3626907176603766
v -32.92060089111328 25.408222198486328 3.3626907176603766
v -32.79130172729492 24.059242248535156 3.5843408412565676
v -31.75160026550293 24.059242248535156 2.866910726510474
v -32.92060089111328 25.408222198486328 3.3626907176603766
v -31.75160026550293 24.059242248535156 2.866910726510474
v -32.07630157470703 25.110002517700195 2.5647006339659186
v -34.90290069580078 25.408432006835938 3.3626907176603766
v -35.03229904174805 24.059242248535156 3.5843408412565676
v -33.911800384521484 24.059242248535156 4.210290700875708
v -34.90290069580078 25.408432006835938 3.3626907176603766
v -33.911800384521484 24.059242248535156 4.210290700875708
v -33.91170120239258 25.441192626953125 3.662770778619239
vt 0.23953799903392792 0.958096981048584
vt 0.19344200193881989 0.8265349864959717
vt 0.34099799394607544 0.8265349864959717
vt 0.7838000059127808 0.958096981048584
vt 0.8967069983482361 0.8265349864959717
vt 0.8721629977226257 0.9954000115394592
vt 0.5000349879264832 0.9994999766349792
vt 0.5000209808349609 0.8265349864959717
vt 0.6590440273284912 0.8265349864959717
vt 0.5000349879264832 0.9994999766349792
vt 0.6590440273284912 0.8265349864959717
vt 0.6406940221786499 0.9953740239143372
vt 0.6406940221786499 0.9953740239143372
vt 0.6590440273284912 0.8265349864959717
vt 0.8066009879112244 0.8265349864959717
vt 0.12783700227737427 0.9953740239143372
vt 0.18273599445819855 0.8265349864959717
vt 0.21619999408721924 0.9580489993095398
vt 0.35936200618743896 0.9954000115394592
vt 0.34099799394607544 0.8265349864959717
vt 0.5000209808349609 0.8265349864959717
vt 0.35936200618743896 0.9954000115394592
vt 0.5000209808349609 0.8265349864959717
vt 0.5000349879264832 0.9994999766349792
vn -0.6284218020236447 0.2775065980927231 0.7266884660955883
vn -0.5250997381065697 0.3810354055433743 0.7609745624939169
vn -0.5765793968153552 0.2454471459807797 0.7793021863808229
vn -0.6284218020236447 0.2775065980927231 0.7266884660955883
vn -0.5765793968153552 0.2454471459807797 0.7793021863808229
vn -0.5038721759593684 0.24205699024866972 0.8291690079626268
vn 0.18523694512793568 0.3102916219108135 0.9324196391816439
vn -0.08786216699434779 0.31670157573760455 0.9444471142082947
vn 0.45062825727507105 0.2398979678831011 0.8598739086347431
vn 0.18523694512793568 0.3102916219108135 0.9324196391816439
vn 0.45062825727507105 0.2398979678831011 0.8598739086347431
vn 0.5301703026810392 0.2516938358779205 0.809672565384399
vn 0.5301703026810392 0.2516938358779205 0.809672565384399
vn 0.45062825727507105 0.2398979678831011 0.8598739086347431
vn 0.62843575039193 0.27752326146082545 0.7266700399613831
vn 0.5301703026810392 0.2516938358779205 0.809672565384399
vn 0.62843575039193 0.27752326146082545 0.7266700399613831
vn 0.7016876808193312 0.3885899115378636 0.5971869717579109
vn -0.5038721759593684 0.24205699024866972 0.8291690079626268
vn -0.5765793968153552 0.2454471459807797 0.7793021863808229
vn -0.08786216699434779 0.31670157573760455 0.9444471142082947
vn -0.5038721759593684 0.24205699024866972 0.8291690079626268
vn -0.08786216699434779 0.31670157573760455 0.9444471142082947
vn 0.18523694512793568 0.3102916219108135 0.9324196391816439
f 1/1/1 2/2/2 3/3/3
f 4/4/4 5/5/5 6/6/6
f 7/7/7 8/8/8 9/9/9
f 10/10/10 11/11/11 12/12/12
f 13/13/13 14/14/14 15/15/15
f 16/16/16 17/17/17 18/18/18
f 19/19/19 20/20/20 21/21/21
f 22/22/22 23/23/23 24/24/24
