mtllib ArcadaCompleta.mtl
o D15R_Canal
usemtl Material
v -34.2864990234375 25.44126319885254 1.0249207324614018
v -33.69850158691406 25.44126319885254 1.0249207324614018
v -33.69850158691406 27.44126319885254 1.0249207324614023
v -34.2864990234375 25.44126319885254 1.0249207324614018
v -33.69850158691406 27.44126319885254 1.0249207324614023
v -34.2864990234375 27.44126319885254 1.0249207324614023
v -34.2864990234375 25.44126319885254 1.0249207324614018
v -34.2864990234375 25.44126319885254 -1.0249192409883052
v -33.69850158691406 25.44126319885254 -1.0249192409883052
v -34.2864990234375 25.44126319885254 1.0249207324614018
v -33.69850158691406 25.44126319885254 -1.0249192409883052
v -33.69850158691406 25.44126319885254 1.0249207324614018
v -34.2864990234375 27.44126319885254 1.0249207324614023
v -34.2864990234375 27.44126319885254 -1.0249192409883048
v -34.2864990234375 25.44126319885254 -1.0249192409883052
v -34.2864990234375 27.44126319885254 1.0249207324614023
v -34.2864990234375 25.44126319885254 -1.0249192409883052
v -34.2864990234375 25.44126319885254 1.0249207324614018
v -34.2864990234375 27.44126319885254 1.0249207324614023
v -34.527099609375 32.93966293334961 0.9756267375578391
v -34.527099609375 32.93966293334961 -0.1382532560000909
v -34.2864990234375 27.44126319885254 1.0249207324614023
v -34.527099609375 32.93966293334961 -0.1382532560000909
v -34.2864990234375 27.44126319885254 -1.0249192409883048
v -33.69850158691406 27.44126319885254 1.0249207324614023
v -34.103599548339844 32.93966293334961 0.9756267375578391
v -34.527099609375 32.93966293334961 0.9756267375578391
v -33.69850158691406 27.44126319885254 1.0249207324614023
v -34.527099609375 32.93966293334961 0.9756267375578391
v -34.2864990234375 27.44126319885254 1.0249207324614023
v -33.69850158691406 25.44126319885254 1.0249207324614018
v -33.69850158691406 25.44126319885254 -1.0249192409883052
v -33.69850158691406 27.44126319885254 -1.0249192409883048
v -33.69850158691406 25.44126319885254 1.0249207324614018
v -33.69850158691406 27.44126319885254 -1.0249192409883048
v -33.69850158691406 27.44126319885254 1.0249207324614023
v -34.2864990234375 27.44126319885254 -1.0249192409883048
v -33.69850158691406 27.44126319885254 -1.0249192409883048
v -33.69850158691406 25.44126319885254 -1.0249192409883052
v -34.2864990234375 27.44126319885254 -1.0249192409883048
v -33.69850158691406 25.44126319885254 -1.0249192409883052
v -34.2864990234375 25.44126319885254 -1.0249192409883052
v -34.2864990234375 27.44126319885254 -1.0249192409883048
v -34.527099609375 32.93966293334961 -0.1382532560000909
v -34.103599548339844 32.93966293334961 -0.1382532560000909
v -34.2864990234375 27.44126319885254 -1.0249192409883048
v -34.103599548339844 32.93966293334961 -0.1382532560000909
v -33.69850158691406 27.44126319885254 -1.0249192409883048
v -33.69850158691406 27.44126319885254 -1.0249192409883048
v -34.103599548339844 32.93966293334961 -0.1382532560000909
v -34.103599548339844 32.93966293334961 0.9756267375578391
v -33.69850158691406 27.44126319885254 -1.0249192409883048
v -34.103599548339844 32.93966293334961 0.9756267375578391
v -33.69850158691406 27.44126319885254 1.0249207324614023
v -34.02239990234375 39.376365661621094 1.2895307845701696
v -34.459800720214844 36.157962799072266 1.0619607276548857
v -34.11370086669922 36.157962799072266 1.0619607276548857
v -34.02239990234375 39.376365661621094 1.2895307845701696
v -34.11370086669922 36.157962799072266 1.0619607276548857
v -33.75740051269531 39.376365661621094 1.2895307845701696
v -33.75740051269531 39.376365661621094 1.2895307845701696
v -33.75740051269531 39.376365661621094 1.111610800706339
v -34.02239990234375 39.376365661621094 1.111610800706339
v -33.75740051269531 39.376365661621094 1.2895307845701696
v -34.02239990234375 39.376365661621094 1.111610800706339
v -34.02239990234375 39.376365661621094 1.2895307845701696
v -33.75740051269531 39.376365661621094 1.2895307845701696
v -34.11370086669922 36.157962799072266 1.0619607276548857
v -34.11370086669922 36.157962799072266 0.4160557396044249
v -33.75740051269531 39.376365661621094 1.2895307845701696
v -34.11370086669922 36.157962799072266 0.4160557396044249
v -33.75740051269531 39.376365661621094 1.111610800706339
v -33.75740051269531 39.376365661621094 1.111610800706339
v -34.11370086669922 36.157962799072266 0.4160557396044249
v -34.459800720214844 36.157962799072266 0.4160557396044249
v -33.75740051269531 39.376365661621094 1.111610800706339
v -34.459800720214844 36.157962799072266 0.4160557396044249
v -34.02239990234375 39.376365661621094 1.111610800706339
v -34.02239990234375 39.376365661621094 1.111610800706339
v -34.459800720214844 36.157962799072266 0.4160557396044249
v -34.459800720214844 36.157962799072266 1.0619607276548857
v -34.02239990234375 39.376365661621094 1.111610800706339
v -34.459800720214844 36.157962799072266 1.0619607276548857
v -34.02239990234375 39.376365661621094 1.2895307845701696
v -34.527099609375 32.93966293334961 -0.1382532560000909
v -34.527099609375 32.93966293334961 0.9756267375578391
v -34.459800720214844 36.157962799072266 1.0619607276548857
v -34.527099609375 32.93966293334961 -0.1382532560000909
v -34.459800720214844 36.157962799072266 1.0619607276548857
v -34.459800720214844 36.157962799072266 0.4160557396044249
v -34.11370086669922 36.157962799072266 1.0619607276548857
v -34.459800720214844 36.157962799072266 1.0619607276548857
v -34.527099609375 32.93966293334961 0.9756267375578391
v -34.11370086669922 36.157962799072266 1.0619607276548857
v -34.527099609375 32.93966293334961 0.9756267375578391
v -34.103599548339844 32.93966293334961 0.9756267375578391
v -34.11370086669922 36.157962799072266 0.4160557396044249
v -34.11370086669922 36.157962799072266 1.0619607276548857
v -34.103599548339844 32.93966293334961 0.9756267375578391
v -34.11370086669922 36.157962799072266 0.4160557396044249
v -34.103599548339844 32.93966293334961 0.9756267375578391
v -34.103599548339844 32.93966293334961 -0.1382532560000909
v -34.459800720214844 36.157962799072266 0.4160557396044249
v -34.11370086669922 36.157962799072266 0.4160557396044249
v -34.103599548339844 32.93966293334961 -0.1382532560000909
v -34.459800720214844 36.157962799072266 0.4160557396044249
v -34.103599548339844 32.93966293334961 -0.1382532560000909
v -34.527099609375 32.93966293334961 -0.1382532560000909
vn -0.7726965444989343 -0.4543436109872834 0.4432966650838268
vn 0.9795547499560598 -0.14399393187196083 0.14049284473799425
vn 0.8879312109445532 0.05085049132395466 0.4571568572849496
vn -0.7726965444989343 -0.4543436109872834 0.4432966650838268
vn 0.8879312109445532 0.05085049132395466 0.4571568572849496
vn -0.985093517749024 -0.02818129723988073 0.16969553846442453
vn -0.7726965444989343 -0.4543436109872834 0.4432966650838268
vn -0.9795547499560598 -0.14399393187196077 -0.1404928447379943
vn 0.7726965444989343 -0.45434361098728315 -0.44329666508382704
vn -0.7726965444989343 -0.4543436109872834 0.4432966650838268
vn 0.7726965444989343 -0.45434361098728315 -0.44329666508382704
vn 0.9795547499560598 -0.14399393187196083 0.14049284473799425
vn -0.985093517749024 -0.02818129723988073 0.16969553846442453
vn -0.888839155653596 0.023343109977386454 -0.457624359703006
vn -0.9795547499560598 -0.14399393187196077 -0.1404928447379943
vn -0.985093517749024 -0.02818129723988073 0.16969553846442453
vn -0.9795547499560598 -0.14399393187196077 -0.1404928447379943
vn -0.7726965444989343 -0.4543436109872834 0.4432966650838268
vn -0.985093517749024 -0.02818129723988073 0.16969553846442453
vn -0.7701674096189204 -0.016627449525989182 0.6376250379989346
vn -0.9874256626097759 -0.0013920639701569385 -0.1580779016104019
vn -0.985093517749024 -0.02818129723988073 0.16969553846442453
vn -0.9874256626097759 -0.0013920639701569385 -0.1580779016104019
vn -0.888839155653596 0.023343109977386454 -0.457624359703006
vn 0.8879312109445532 0.05085049132395466 0.4571568572849496
vn 0.9859380990646318 0.0548878819492956 0.15783974540001125
vn -0.7701674096189204 -0.016627449525989182 0.6376250379989346
vn 0.8879312109445532 0.05085049132395466 0.4571568572849496
vn -0.7701674096189204 -0.016627449525989182 0.6376250379989346
vn -0.985093517749024 -0.02818129723988073 0.16969553846442453
vn 0.9795547499560598 -0.14399393187196083 0.14049284473799425
vn 0.7726965444989343 -0.45434361098728315 -0.44329666508382704
vn 0.98311883918603 0.06925393270957644 -0.169355368505903
vn 0.9795547499560598 -0.14399393187196083 0.14049284473799425
vn 0.98311883918603 0.06925393270957644 -0.169355368505903
vn 0.8879312109445532 0.05085049132395466 0.4571568572849496
vn -0.888839155653596 0.023343109977386454 -0.457624359703006
vn 0.98311883918603 0.06925393270957644 -0.169355368505903
vn 0.7726965444989343 -0.45434361098728315 -0.44329666508382704
vn -0.888839155653596 0.023343109977386454 -0.457624359703006
vn 0.7726965444989343 -0.45434361098728315 -0.44329666508382704
vn -0.9795547499560598 -0.14399393187196077 -0.1404928447379943
vn -0.888839155653596 0.023343109977386454 -0.457624359703006
vn -0.9874256626097759 -0.0013920639701569385 -0.1580779016104019
vn 0.7626569315133455 0.14028309366658578 -0.6314072049367035
vn -0.888839155653596 0.023343109977386454 -0.457624359703006
vn 0.7626569315133455 0.14028309366658578 -0.6314072049367035
vn 0.98311883918603 0.06925393270957644 -0.169355368505903
vn 0.98311883918603 0.06925393270957644 -0.169355368505903
vn 0.7626569315133455 0.14028309366658578 -0.6314072049367035
vn 0.9859380990646318 0.0548878819492956 0.15783974540001125
vn 0.98311883918603 0.06925393270957644 -0.169355368505903
vn 0.9859380990646318 0.0548878819492956 0.15783974540001125
vn 0.8879312109445532 0.05085049132395466 0.4571568572849496
vn -0.279533910268376 -0.006881634865067989 0.960111158205994
vn -0.9650409382988442 0.04295794472307382 0.2585548344016324
vn 0.6815184086821696 -0.07034390143142437 0.7284122419061401
vn -0.279533910268376 -0.006881634865067989 0.960111158205994
vn 0.6815184086821696 -0.07034390143142437 0.7284122419061401
vn 0.9478553064214065 -0.09278270887861484 0.30489619056644196
vn 0.9478553064214065 -0.09278270887861484 0.30489619056644196
vn 0.27413456640629863 0.1957126785068783 -0.9415661352092556
vn -0.9278580292786422 0.22360440531248202 -0.29846364506922035
vn 0.9478553064214065 -0.09278270887861484 0.30489619056644196
vn -0.9278580292786422 0.22360440531248202 -0.29846364506922035
vn -0.279533910268376 -0.006881634865067989 0.960111158205994
vn 0.9478553064214065 -0.09278270887861484 0.30489619056644196
vn 0.6815184086821696 -0.07034390143142437 0.7284122419061401
vn 0.9657723503146772 0.018215105306349583 -0.258750801556909
vn 0.9478553064214065 -0.09278270887861484 0.30489619056644196
vn 0.9657723503146772 0.018215105306349583 -0.258750801556909
vn 0.27413456640629863 0.1957126785068783 -0.9415661352092556
vn 0.27413456640629863 0.1957126785068783 -0.9415661352092556
vn 0.9657723503146772 0.018215105306349583 -0.258750801556909
vn -0.6707657396126208 0.18999859182274795 -0.7169197009898017
vn 0.27413456640629863 0.1957126785068783 -0.9415661352092556
vn -0.6707657396126208 0.18999859182274795 -0.7169197009898017
vn -0.9278580292786422 0.22360440531248202 -0.29846364506922035
vn -0.9278580292786422 0.22360440531248202 -0.29846364506922035
vn -0.6707657396126208 0.18999859182274795 -0.7169197009898017
vn -0.9650409382988442 0.04295794472307382 0.2585548344016324
vn -0.9278580292786422 0.22360440531248202 -0.29846364506922035
vn -0.9650409382988442 0.04295794472307382 0.2585548344016324
vn -0.279533910268376 -0.006881634865067989 0.960111158205994
vn -0.9874256626097759 -0.0013920639701569385 -0.1580779016104019
vn -0.7701674096189204 -0.016627449525989182 0.6376250379989346
vn -0.9650409382988442 0.04295794472307382 0.2585548344016324
vn -0.9874256626097759 -0.0013920639701569385 -0.1580779016104019
vn -0.9650409382988442 0.04295794472307382 0.2585548344016324
vn -0.6707657396126208 0.18999859182274795 -0.7169197009898017
vn 0.6815184086821696 -0.07034390143142437 0.7284122419061401
vn -0.9650409382988442 0.04295794472307382 0.2585548344016324
vn -0.7701674096189204 -0.016627449525989182 0.6376250379989346
vn 0.6815184086821696 -0.07034390143142437 0.7284122419061401
vn -0.7701674096189204 -0.016627449525989182 0.6376250379989346
vn 0.9859380990646318 0.0548878819492956 0.15783974540001125
vn 0.9657723503146772 0.018215105306349583 -0.258750801556909
vn 0.6815184086821696 -0.07034390143142437 0.7284122419061401
vn 0.9859380990646318 0.0548878819492956 0.15783974540001125
vn 0.9657723503146772 0.018215105306349583 -0.258750801556909
vn 0.9859380990646318 0.0548878819492956 0.15783974540001125
vn 0.7626569315133455 0.14028309366658578 -0.6314072049367035
vn -0.6707657396126208 0.18999859182274795 -0.7169197009898017
vn 0.9657723503146772 0.018215105306349583 -0.258750801556909
vn 0.7626569315133455 0.14028309366658578 -0.6314072049367035
vn -0.6707657396126208 0.18999859182274795 -0.7169197009898017
vn 0.7626569315133455 0.14028309366658578 -0.6314072049367035
vn -0.9874256626097759 -0.0013920639701569385 -0.1580779016104019
f 1//1 2//2 3//3
f 4//4 5//5 6//6
f 7//7 8//8 9//9
f 10//10 11//11 12//12
f 13//13 14//14 15//15
f 16//16 17//17 18//18
f 19//19 20//20 21//21
f 22//22 23//23 24//24
f 25//25 26//26 27//27
f 28//28 29//29 30//30
f 31//31 32//32 33//33
f 34//34 35//35 36//36
f 37//37 38//38 39//39
f 40//40 41//41 42//42
f 43//43 44//44 45//45
f 46//46 47//47 48//48
f 49//49 50//50 51//51
f 52//52 53//53 54//54
f 55//55 56//56 57//57
f 58//58 59//59 60//60
f 61//61 62//62 63//63
f 64//64 65//65 66//66
f 67//67 68//68 69//69
f 70//70 71//71 72//72
f 73//73 74//74 75//75
f 76//76 77//77 78//78
f 79//79 80//80 81//81
f 82//82 83//83 84//84
f 85//85 86//86 87//87
f 88//88 89//89 90//90
f 91//91 92//92 93//93
f 94//94 95//95 96//96
f 97//97 98//98 99//99
f 100//100 101//101 102//102
f 103//103 104//104 105//105
f 106//106 107//107 108//108
