mtllib ArcadaCompleta.mtl
o D16C_B
usemtl Esmalte
v -42.56129837036133 19.019643783569336 4.312090665780492
v -42.56129837036133 20.0137939453125 4.587010652505346
v -42.86240005493164 19.79287338256836 4.8906405276884515
v -42.56129837036133 19.019643783569336 4.312090665780492
v -42.86240005493164 19.79287338256836 4.8906405276884515
v -42.79690170288086 18.8890438079834 4.383170873605199
v -42.56129837036133 19.019643783569336 4.312090665780492
v -42.26789855957031 18.84393310546875 4.434060842477269
v -42.2859992980957 19.792753219604492 5.124990732156225
v -42.56129837036133 19.019643783569336 4.312090665780492
v -42.2859992980957 19.792753219604492 5.124990732156225
v -42.56129837036133 20.0137939453125 4.587010652505346
v -42.56119918823242 21.878612518310547 4.921790868722387
v -42.56129837036133 20.0137939453125 4.587010652505346
v -42.2859992980957 19.792753219604492 5.124990732156225
v -42.56119918823242 21.878612518310547 4.921790868722387
v -42.2859992980957 19.792753219604492 5.124990732156225
v -42.2859992980957 21.772933959960938 5.322070867501684
v -42.56119918823242 21.878612518310547 4.921790868722387
v -42.2859992980957 21.772933959960938 5.322070867501684
v -42.5817985534668 22.158184051513672 5.46017053791184
v -42.5614013671875 18.913612365722656 3.8428006476988275
v -42.29499816894531 18.555583953857422 3.8405707187284905
v -42.26789855957031 18.84393310546875 4.434060842477269
v -42.5614013671875 18.913612365722656 3.8428006476988275
v -42.26789855957031 18.84393310546875 4.434060842477269
v -42.56129837036133 19.019643783569336 4.312090665780492
v -42.56129837036133 20.0137939453125 4.587010652505346
v -42.56119918823242 21.878612518310547 4.921790868722387
v -42.83639907836914 21.772933959960938 5.284610540353246
v -42.56129837036133 20.0137939453125 4.587010652505346
v -42.83639907836914 21.772933959960938 5.284610540353246
v -42.86240005493164 19.79287338256836 4.8906405276884515
v -41.307899475097656 18.504173278808594 4.390580923043675
v -41.277198791503906 19.783061981201172 5.25657060810227
v -42.2859992980957 19.792753219604492 5.124990732156225
v -41.307899475097656 18.504173278808594 4.390580923043675
v -42.2859992980957 19.792753219604492 5.124990732156225
v -42.26789855957031 18.84393310546875 4.434060842477269
v -43.73400115966797 18.50168228149414 3.8045506782164056
v -42.79690170288086 18.8890438079834 4.383170873605199
v -42.86240005493164 19.79287338256836 4.8906405276884515
v -43.73400115966797 18.50168228149414 3.8045506782164056
v -42.86240005493164 19.79287338256836 4.8906405276884515
v -43.845401763916016 19.783292770385742 4.787870676003881
v -43.8385009765625 21.772933959960938 5.408310682259985
v -43.845401763916016 19.783292770385742 4.787870676003881
v -42.86240005493164 19.79287338256836 4.8906405276884515
v -43.8385009765625 21.772933959960938 5.408310682259985
v -42.86240005493164 19.79287338256836 4.8906405276884515
v -42.83639907836914 21.772933959960938 5.284610540353246
v -41.277198791503906 19.783061981201172 5.25657060810227
v -41.28390121459961 21.772933959960938 5.483220846139379
v -42.2859992980957 21.772933959960938 5.322070867501684
v -41.277198791503906 19.783061981201172 5.25657060810227
v -42.2859992980957 21.772933959960938 5.322070867501684
v -42.2859992980957 19.792753219604492 5.124990732156225
v -43.693199157714844 18.10790252685547 3.24453070827622
v -42.78269958496094 18.573102951049805 3.5730107135405023
v -42.79690170288086 18.8890438079834 4.383170873605199
v -43.693199157714844 18.10790252685547 3.24453070827622
v -42.79690170288086 18.8890438079834 4.383170873605199
v -43.73400115966797 18.50168228149414 3.8045506782164056
v -42.60240173339844 23.354084014892578 5.637190610848853
v -42.5817985534668 22.158184051513672 5.46017053791184
v -41.32279968261719 23.354084014892578 5.652680665933081
v -41.32279968261719 23.354084014892578 5.652680665933081
v -42.5817985534668 22.158184051513672 5.46017053791184
v -42.2859992980957 21.772933959960938 5.322070867501684
v -41.32279968261719 23.354084014892578 5.652680665933081
v -42.2859992980957 21.772933959960938 5.322070867501684
v -41.28390121459961 21.772933959960938 5.483220846139379
v -43.799400329589844 23.354084014892578 5.652680665933081
v -42.5817985534668 22.158184051513672 5.46017053791184
v -42.60240173339844 23.354084014892578 5.637190610848853
v -42.79690170288086 18.8890438079834 4.383170873605199
v -42.78269958496094 18.573102951049805 3.5730107135405023
v -42.5614013671875 18.913612365722656 3.8428006476988275
v -42.79690170288086 18.8890438079834 4.383170873605199
v -42.5614013671875 18.913612365722656 3.8428006476988275
v -42.56129837036133 19.019643783569336 4.312090665780492
v -42.26789855957031 18.84393310546875 4.434060842477269
v -42.29499816894531 18.555583953857422 3.8405707187284905
v -41.32820129394531 18.346773147583008 3.7579407996763665
v -42.26789855957031 18.84393310546875 4.434060842477269
v -41.32820129394531 18.346773147583008 3.7579407996763665
v -41.307899475097656 18.504173278808594 4.390580923043675
v -42.83639907836914 21.772933959960938 5.284610540353246
v -42.5817985534668 22.158184051513672 5.46017053791184
v -43.799400329589844 23.354084014892578 5.652680665933081
v -42.83639907836914 21.772933959960938 5.284610540353246
v -43.799400329589844 23.354084014892578 5.652680665933081
v -43.8385009765625 21.772933959960938 5.408310682259985
v -42.5817985534668 22.158184051513672 5.46017053791184
v -42.83639907836914 21.772933959960938 5.284610540353246
v -42.56119918823242 21.878612518310547 4.921790868722387
vt 0.11995100229978561 0.19203001260757446
vt 0.09545440226793289 0.32325196266174316
vt 0.06840000301599503 0.29409199953079224
vt 0.499985009431839 0.19203001260757446
vt 0.4700259864330292 0.29409199953079224
vt 0.47654300928115845 0.17479097843170166
vt 0.5000150203704834 0.11995100975036621
vt 0.4708220064640045 0.10908299684524536
vt 0.47262299060821533 0.04751861095428467
vt 0.8800489902496338 0.19203001260757446
vt 0.9524809718132019 0.29407596588134766
vt 0.9045460224151611 0.32325196266174316
vt 0.9343760013580322 0.5693979859352112
vt 0.9045460224151611 0.32325196266174316
vt 0.9524809718132019 0.29407596588134766
vt 0.9343760013580322 0.5693979859352112
vt 0.9524809718132019 0.29407596588134766
vt 0.9700419902801514 0.5554490089416504
vt 0.5000050067901611 0.0656244158744812
vt 0.47262299060821533 0.029958128929138184
vt 0.50205397605896 0.017652928829193115
vt 0.838234007358551 0.1780340075492859
vt 0.838034987449646 0.13077598810195923
vt 0.8909170031547546 0.16883701086044312
vt 0.5000249743461609 0.16176599264144897
vt 0.4708220064640045 0.10908299684524536
vt 0.5000150203704834 0.11995100975036621
vt 0.09545440226793289 0.32325196266174316
vt 0.06562440097332001 0.5693979859352112
vt 0.033295899629592896 0.5554490089416504
vt 0.09545440226793289 0.32325196266174316
vt 0.033295899629592896 0.5554490089416504
vt 0.06840000301599503 0.29409199953079224
vt 0.6246950030326843 0.123989999294281
vt 0.6277490258216858 0.2927969694137573
vt 0.5273770093917847 0.29407596588134766
vt 0.3753049969673157 0.11295700073242188
vt 0.47262299060821533 0.04751861095428467
vt 0.4708220064640045 0.10908299684524536
vt 0.38330501317977905 0.12366199493408203
vt 0.47654300928115845 0.17479097843170166
vt 0.4700259864330292 0.29409199953079224
vt 0.616694986820221 0.16517400741577148
vt 0.5299739837646484 0.06840002536773682
vt 0.6277790069580078 0.07755708694458008
vt 0.37290701270103455 0.5554490089416504
vt 0.3722209930419922 0.2928270101547241
vt 0.4700259864330292 0.29409199953079224
vt 0.37290701270103455 0.5554490089416504
vt 0.4700259864330292 0.29409199953079224
vt 0.47261399030685425 0.5554490089416504
vt 0.6277490258216858 0.2927969694137573
vt 0.6270830035209656 0.5554490089416504
vt 0.5273770093917847 0.5554490089416504
vt 0.6277490258216858 0.2927969694137573
vt 0.5273770093917847 0.5554490089416504
vt 0.5273770093917847 0.29407596588134766
vt 0.6126360297203064 0.21507400274276733
vt 0.5220440030097961 0.18580496311187744
vt 0.5234569907188416 0.11361700296401978
vt 0.6126360297203064 0.21507400274276733
vt 0.5234569907188416 0.11361700296401978
vt 0.616694986820221 0.16517400741577148
vt 0.49589601159095764 0.764153003692627
vt 0.49794599413871765 0.6062999963760376
vt 0.6232119798660278 0.764153003692627
vt 0.6232119798660278 0.764153003692627
vt 0.49794599413871765 0.6062999963760376
vt 0.5273770093917847 0.5554490089416504
vt 0.6232119798660278 0.764153003692627
vt 0.5273770093917847 0.5554490089416504
vt 0.6270830035209656 0.5554490089416504
vt 0.37679800391197205 0.764153003692627
vt 0.49794599413871765 0.6062999963760376
vt 0.49589601159095764 0.764153003692627
vt 0.5234569907188416 0.11361700296401978
vt 0.5220440030097961 0.18580496311187744
vt 0.5000249743461609 0.16176599264144897
vt 0.5234569907188416 0.11361700296401978
vt 0.5000249743461609 0.16176599264144897
vt 0.5000150203704834 0.11995100975036621
vt 0.4708220064640045 0.10908299684524536
vt 0.4735180139541626 0.161965012550354
vt 0.37732499837875366 0.1693270206451416
vt 0.4708220064640045 0.10908299684524536
vt 0.37732499837875366 0.1693270206451416
vt 0.3753049969673157 0.11295700073242188
vt 0.47261399030685425 0.5554490089416504
vt 0.49794599413871765 0.6062999963760376
vt 0.37679800391197205 0.764153003692627
vt 0.47261399030685425 0.5554490089416504
vt 0.37679800391197205 0.764153003692627
vt 0.37290701270103455 0.5554490089416504
vt 0.50205397605896 0.017652928829193115
vt 0.5273860096931458 0.03329586982727051
vt 0.5000050067901611 0.0656244158744812
vn -0.26362665956143533 -0.5230542911923991 0.8105030492439225
vn 0.04013486592112215 -0.20934341915974045 0.9770181806865228
vn 0.10041530508076447 -0.3638508674108213 0.9260287861562027
vn -0.26362665956143533 -0.5230542911923991 0.8105030492439225
vn 0.10041530508076447 -0.3638508674108213 0.9260287861562027
vn 0.11167487515984197 -0.7585576276037322 0.6419649895922919
vn -0.26362665956143533 -0.5230542911923991 0.8105030492439225
vn -0.337042620582725 -0.7563709338875683 0.560629362663763
vn -0.47672168467925885 -0.30651948529489154 0.8238824190933585
vn -0.26362665956143533 -0.5230542911923991 0.8105030492439225
vn -0.47672168467925885 -0.30651948529489154 0.8238824190933585
vn 0.04013486592112215 -0.20934341915974045 0.9770181806865228
vn -0.5498145823938645 -0.24763639294807657 0.7977343805269562
vn 0.04013486592112215 -0.20934341915974045 0.9770181806865228
vn -0.47672168467925885 -0.30651948529489154 0.8238824190933585
vn -0.5498145823938645 -0.24763639294807657 0.7977343805269562
vn -0.47672168467925885 -0.30651948529489154 0.8238824190933585
vn -0.23626355099745175 -0.1427200988715931 0.9611506166299627
vn -0.5498145823938645 -0.24763639294807657 0.7977343805269562
vn -0.23626355099745175 -0.1427200988715931 0.9611506166299627
vn -0.01131355733154896 -0.25158262509884943 0.9677696968643302
vn -0.07582308351127925 -0.9355542335437081 0.34494801942508174
vn -0.3545844448436194 -0.8345497105361973 0.42165940297696636
vn -0.337042620582725 -0.7563709338875683 0.560629362663763
vn -0.07582308351127925 -0.9355542335437081 0.34494801942508174
vn -0.337042620582725 -0.7563709338875683 0.560629362663763
vn -0.26362665956143533 -0.5230542911923991 0.8105030492439225
vn 0.04013486592112215 -0.20934341915974045 0.9770181806865228
vn -0.5498145823938645 -0.24763639294807657 0.7977343805269562
vn 0.3122414291849333 -0.21280289786615714 0.9258618776903583
vn 0.04013486592112215 -0.20934341915974045 0.9770181806865228
vn 0.3122414291849333 -0.21280289786615714 0.9258618776903583
vn 0.10041530508076447 -0.3638508674108213 0.9260287861562027
vn -0.17886094516612014 -0.662004581434251 0.7278452421046279
vn -0.138353451333283 -0.2360994504950461 0.9618291802498539
vn -0.47672168467925885 -0.30651948529489154 0.8238824190933585
vn -0.17886094516612014 -0.662004581434251 0.7278452421046279
vn -0.47672168467925885 -0.30651948529489154 0.8238824190933585
vn -0.337042620582725 -0.7563709338875683 0.560629362663763
vn -0.14042076162764663 -0.6232367022254339 0.7693230938318942
vn 0.11167487515984197 -0.7585576276037322 0.6419649895922919
vn 0.10041530508076447 -0.3638508674108213 0.9260287861562027
vn -0.14042076162764663 -0.6232367022254339 0.7693230938318942
vn 0.10041530508076447 -0.3638508674108213 0.9260287861562027
vn -0.08908575026839523 -0.4407453763757886 0.8932005610737611
vn 0.04267323396968054 -0.22164761613300285 0.9741926551586835
vn -0.08908575026839523 -0.4407453763757886 0.8932005610737611
vn 0.10041530508076447 -0.3638508674108213 0.9260287861562027
vn 0.04267323396968054 -0.22164761613300285 0.9741926551586835
vn 0.10041530508076447 -0.3638508674108213 0.9260287861562027
vn 0.3122414291849333 -0.21280289786615714 0.9258618776903583
vn -0.138353451333283 -0.2360994504950461 0.9618291802498539
vn -0.15779408440161277 -0.110856370954308 0.9812297854971065
vn -0.23626355099745175 -0.1427200988715931 0.9611506166299627
vn -0.138353451333283 -0.2360994504950461 0.9618291802498539
vn -0.23626355099745175 -0.1427200988715931 0.9611506166299627
vn -0.47672168467925885 -0.30651948529489154 0.8238824190933585
vn 0.17693372880863578 -0.8710231446229547 0.45827190306739435
vn 0.4219868493027989 -0.8421191002091742 0.3358013104179128
vn 0.11167487515984197 -0.7585576276037322 0.6419649895922919
vn 0.17693372880863578 -0.8710231446229547 0.45827190306739435
vn 0.11167487515984197 -0.7585576276037322 0.6419649895922919
vn -0.14042076162764663 -0.6232367022254339 0.7693230938318942
vn 0 -0.14642700038490133 0.9892214785164545
vn -0.01131355733154896 -0.25158262509884943 0.9677696968643302
vn -0.04549193731406115 -0.15811078169127984 0.9863728830175666
vn -0.04549193731406115 -0.15811078169127984 0.9863728830175666
vn -0.01131355733154896 -0.25158262509884943 0.9677696968643302
vn -0.23626355099745175 -0.1427200988715931 0.9611506166299627
vn -0.04549193731406115 -0.15811078169127984 0.9863728830175666
vn -0.23626355099745175 -0.1427200988715931 0.9611506166299627
vn -0.15779408440161277 -0.110856370954308 0.9812297854971065
vn 0.020297486045939978 -0.18763757974876186 0.9820285895666389
vn -0.01131355733154896 -0.25158262509884943 0.9677696968643302
vn 0 -0.14642700038490133 0.9892214785164545
vn 0.11167487515984197 -0.7585576276037322 0.6419649895922919
vn 0.4219868493027989 -0.8421191002091742 0.3358013104179128
vn -0.07582308351127925 -0.9355542335437081 0.34494801942508174
vn 0.11167487515984197 -0.7585576276037322 0.6419649895922919
vn -0.07582308351127925 -0.9355542335437081 0.34494801942508174
vn -0.26362665956143533 -0.5230542911923991 0.8105030492439225
vn -0.337042620582725 -0.7563709338875683 0.560629362663763
vn -0.3545844448436194 -0.8345497105361973 0.42165940297696636
vn -0.2368575649350618 -0.9101027934289371 0.34001676330128
vn -0.337042620582725 -0.7563709338875683 0.560629362663763
vn -0.2368575649350618 -0.9101027934289371 0.34001676330128
vn -0.17886094516612014 -0.662004581434251 0.7278452421046279
vn 0.3122414291849333 -0.21280289786615714 0.9258618776903583
vn -0.01131355733154896 -0.25158262509884943 0.9677696968643302
vn 0.020297486045939978 -0.18763757974876186 0.9820285895666389
vn 0.3122414291849333 -0.21280289786615714 0.9258618776903583
vn 0.020297486045939978 -0.18763757974876186 0.9820285895666389
vn 0.04267323396968054 -0.22164761613300285 0.9741926551586835
vn -0.01131355733154896 -0.25158262509884943 0.9677696968643302
vn 0.3122414291849333 -0.21280289786615714 0.9258618776903583
vn -0.5498145823938645 -0.24763639294807657 0.7977343805269562
f 1/1/1 2/2/2 3/3/3
f 4/4/4 5/5/5 6/6/6
f 7/7/7 8/8/8 9/9/9
f 10/10/10 11/11/11 12/12/12
f 13/13/13 14/14/14 15/15/15
f 16/16/16 17/17/17 18/18/18
f 19/19/19 20/20/20 21/21/21
f 22/22/22 23/23/23 24/24/24
f 25/25/25 26/26/26 27/27/27
f 28/28/28 29/29/29 30/30/30
f 31/31/31 32/32/32 33/33/33
f 34/34/34 35/35/35 36/36/36
f 37/37/37 38/38/38 39/39/39
f 40/40/40 41/41/41 42/42/42
f 43/43/43 44/44/44 45/45/45
f 46/46/46 47/47/47 48/48/48
f 49/49/49 50/50/50 51/51/51
f 52/52/52 53/53/53 54/54/54
f 55/55/55 56/56/56 57/57/57
f 58/58/58 59/59/59 60/60/60
f 61/61/61 62/62/62 63/63/63
f 64/64/64 65/65/65 66/66/66
f 67/67/67 68/68/68 69/69/69
f 70/70/70 71/71/71 72/72/72
f 73/73/73 74/74/74 75/75/75
f 76/76/76 77/77/77 78/78/78
f 79/79/79 80/80/80 81/81/81
f 82/82/82 83/83/83 84/84/84
f 85/85/85 86/86/86 87/87/87
f 88/88/88 89/89/89 90/90/90
f 91/91/91 92/92/92 93/93/93
f 94/94/94 95/95/95 96/96/96
