mtllib ArcadaCompleta.mtl
o D17C_L
usemtl Esmalte
v -52.84130096435547 19.098373413085938 -4.61803933910232
v -52.841400146484375 18.70791244506836 -4.169199197805934
v -53.041500091552734 18.55628204345703 -3.981769292868189
v -52.84130096435547 19.098373413085938 -4.61803933910232
v -53.041500091552734 18.55628204345703 -3.981769292868189
v -53.06570053100586 18.964323043823242 -4.7391392879853775
v -52.84130096435547 19.098373413085938 -4.61803933910232
v -52.593101501464844 18.994152069091797 -4.680929391897731
v -52.5900993347168 18.572612762451172 -3.992149322546534
v -52.84130096435547 19.098373413085938 -4.61803933910232
v -52.5900993347168 18.572612762451172 -3.992149322546534
v -52.841400146484375 18.70791244506836 -4.169199197805934
v -52.77980041503906 21.897533416748047 -5.290139406240992
v -51.476600646972656 21.465482711791992 -5.4633891277680915
v -52.79050064086914 20.90070343017578 -5.008389204062037
v -52.841400146484375 18.70791244506836 -4.169199197805934
v -53.355899810791016 19.030363082885742 -2.750739305532984
v -53.55540084838867 18.529373168945312 -2.7356693439851325
v -52.841400146484375 18.70791244506836 -4.169199197805934
v -53.55540084838867 18.529373168945312 -2.7356693439851325
v -53.041500091552734 18.55628204345703 -3.981769292868189
v -52.841400146484375 18.70791244506836 -4.169199197805934
v -52.5900993347168 18.572612762451172 -3.992149322546534
v -53.164398193359375 18.686752319335938 -2.5509392910371345
v -52.841400146484375 18.70791244506836 -4.169199197805934
v -53.164398193359375 18.686752319335938 -2.5509392910371345
v -53.355899810791016 19.030363082885742 -2.750739305532984
v -52.82440185546875 20.67980194091797 -4.80454942516189
v -52.534000396728516 20.379802703857422 -5.0188090496430915
v -52.593101501464844 18.994152069091797 -4.680929391897731
v -52.82440185546875 20.67980194091797 -4.80454942516189
v -52.593101501464844 18.994152069091797 -4.680929391897731
v -52.84130096435547 19.098373413085938 -4.61803933910232
v -52.82440185546875 20.67980194091797 -4.80454942516189
v -52.79050064086914 20.90070343017578 -5.008389204062037
v -52.534000396728516 20.379802703857422 -5.0188090496430915
v -51.56809997558594 18.901832580566406 -4.799449174917751
v -51.811500549316406 18.09328269958496 -3.9089593582521003
v -52.5900993347168 18.572612762451172 -3.992149322546534
v -51.56809997558594 18.901832580566406 -4.799449174917751
v -52.5900993347168 18.572612762451172 -3.992149322546534
v -52.593101501464844 18.994152069091797 -4.680929391897731
v -53.776100158691406 18.252243041992188 -4.766599386251979
v -53.06570053100586 18.964323043823242 -4.7391392879853775
v -53.041500091552734 18.55628204345703 -3.981769292868189
v -53.776100158691406 18.252243041992188 -4.766599386251979
v -53.041500091552734 18.55628204345703 -3.981769292868189
v -53.727699279785156 17.826614379882812 -3.7943391495118663
v -51.492801666259766 19.79951286315918 -5.017819135702662
v -52.534000396728516 20.379802703857422 -5.0188090496430915
v -52.79050064086914 20.90070343017578 -5.008389204062037
v -51.492801666259766 19.79951286315918 -5.017819135702662
v -52.79050064086914 20.90070343017578 -5.008389204062037
v -51.476600646972656 21.465482711791992 -5.4633891277680915
v -53.767398834228516 19.612693786621094 -5.065279214895777
v -53.76129913330078 21.465482711791992 -5.4633891277680915
v -52.79050064086914 20.90070343017578 -5.008389204062037
v -53.767398834228516 19.612693786621094 -5.065279214895777
v -52.79050064086914 20.90070343017578 -5.008389204062037
v -53.03010177612305 20.379913330078125 -5.0188090496430915
v -51.811500549316406 18.09328269958496 -3.9089593582521003
v -52.270301818847656 17.944412231445312 -3.1507892303834484
v -52.5900993347168 18.572612762451172 -3.992149322546534
v -53.727699279785156 17.826614379882812 -3.7943391495118663
v -53.041500091552734 18.55628204345703 -3.981769292868189
v -53.55540084838867 18.529373168945312 -2.7356693439851325
v -52.5900993347168 18.572612762451172 -3.992149322546534
v -52.270301818847656 17.944412231445312 -3.1507892303834484
v -52.56529998779297 17.824565887451172 -2.526809185064845
v -52.5900993347168 18.572612762451172 -3.992149322546534
v -52.56529998779297 17.824565887451172 -2.526809185064845
v -53.164398193359375 18.686752319335938 -2.5509392910371345
v -53.55540084838867 18.529373168945312 -2.7356693439851325
v -54.446998596191406 18.238462448120117 -2.7196893387208503
v -53.727699279785156 17.826614379882812 -3.7943391495118663
v -52.593101501464844 18.994152069091797 -4.680929391897731
v -52.534000396728516 20.379802703857422 -5.0188090496430915
v -51.492801666259766 19.79951286315918 -5.017819135702662
v -52.593101501464844 18.994152069091797 -4.680929391897731
v -51.492801666259766 19.79951286315918 -5.017819135702662
v -51.56809997558594 18.901832580566406 -4.799449174917751
v -53.06570053100586 18.964323043823242 -4.7391392879853775
v -53.03010177612305 20.379913330078125 -5.0188090496430915
v -52.82440185546875 20.67980194091797 -4.80454942516189
v -53.06570053100586 18.964323043823242 -4.7391392879853775
v -52.82440185546875 20.67980194091797 -4.80454942516189
v -52.84130096435547 19.098373413085938 -4.61803933910232
v -53.03010177612305 20.379913330078125 -5.0188090496430915
v -53.06570053100586 18.964323043823242 -4.7391392879853775
v -53.776100158691406 18.252243041992188 -4.766599386251979
v -53.03010177612305 20.379913330078125 -5.0188090496430915
v -53.776100158691406 18.252243041992188 -4.766599386251979
v -53.767398834228516 19.612693786621094 -5.065279214895777
v -53.03010177612305 20.379913330078125 -5.0188090496430915
v -52.79050064086914 20.90070343017578 -5.008389204062037
v -52.82440185546875 20.67980194091797 -4.80454942516189
v -52.79050064086914 20.90070343017578 -5.008389204062037
v -53.76129913330078 21.465482711791992 -5.4633891277680915
v -52.77980041503906 21.897533416748047 -5.290139406240992
vt 0.5377600193023682 0.9230999946594238
vt 0.5377699732780457 0.8825349807739258
vt 0.5595890283584595 0.8655959963798523
vt 0.5377600193023682 0.9230999946594238
vt 0.5595890283584595 0.8655959963798523
vt 0.5622280240058899 0.9340450167655945
vt 0.5377600193023682 0.9230999946594238
vt 0.5106959939002991 0.9287840127944946
vt 0.5103690028190613 0.8665339946746826
vt 0.5377600193023682 0.9230999946594238
vt 0.5103690028190613 0.8665339946746826
vt 0.5377699732780457 0.8825349807739258
vt 0.5310540199279785 0.6166390180587769
vt 0.3889560103416443 0.5554029941558838
vt 0.5322200059890747 0.47535598278045654
vt 0.8825349807739258 0.16456598043441772
vt 0.7543389797210693 0.2102680206298828
vt 0.7529770135879517 0.13926100730895996
vt 0.5377699732780457 0.8825349807739258
vt 0.6156229972839355 0.7529770135879517
vt 0.5595890283584595 0.8655959963798523
vt 0.5377699732780457 0.8825349807739258
vt 0.5103690028190613 0.8665339946746826
vt 0.5729889869689941 0.7362819910049438
vt 0.11746499687433243 0.16456598043441772
vt 0.26371800899505615 0.16156697273254395
vt 0.24566100537776947 0.2102680206298828
vt 0.06004359945654869 0.4440469741821289
vt 0.04067949950695038 0.4015269875526428
vt 0.07121600210666656 0.2051360011100769
vt 0.5359169840812683 0.4440469741821289
vt 0.5106959939002991 0.2051360011100769
vt 0.5377600193023682 0.2199069857597351
vt 0.06004359945654869 0.4440469741821289
vt 0.04162120074033737 0.47535598278045654
vt 0.04067949950695038 0.4015269875526428
vt 0.3989329934120178 0.9394950270652771
vt 0.42547300457954407 0.8590160012245178
vt 0.5103690028190613 0.8665339946746826
vt 0.3989329934120178 0.9394950270652771
vt 0.5103690028190613 0.8665339946746826
vt 0.5106959939002991 0.9287840127944946
vt 0.6396880149841309 0.9365270137786865
vt 0.5622280240058899 0.9340450167655945
vt 0.5595890283584595 0.8655959963798523
vt 0.6396880149841309 0.9365270137786865
vt 0.5595890283584595 0.8655959963798523
vt 0.63441002368927 0.8486570119857788
vt 0.39072299003601074 0.3192809820175171
vt 0.504252016544342 0.4015269875526428
vt 0.5322200059890747 0.47535598278045654
vt 0.39072299003601074 0.3192809820175171
vt 0.5322200059890747 0.47535598278045654
vt 0.3889560103416443 0.5554029941558838
vt 0.6387389898300171 0.29280298948287964
vt 0.6380739808082581 0.5554029941558838
vt 0.5322200059890747 0.47535598278045654
vt 0.6387389898300171 0.29280298948287964
vt 0.5322200059890747 0.47535598278045654
vt 0.5583459734916687 0.4015430212020874
vt 0.42547300457954407 0.8590160012245178
vt 0.4754990041255951 0.7904940247535706
vt 0.5103690028190613 0.8665339946746826
vt 0.63441002368927 0.8486570119857788
vt 0.5595890283584595 0.8655959963798523
vt 0.6156229972839355 0.7529770135879517
vt 0.5103690028190613 0.8665339946746826
vt 0.4754990041255951 0.7904940247535706
vt 0.5076649785041809 0.7341009974479675
vt 0.13346600532531738 0.14539003372192383
vt 0.26589900255203247 0.039367079734802246
vt 0.26371800899505615 0.16156697273254395
vt 0.6156229972839355 0.7529770135879517
vt 0.7128409743309021 0.7515329718589783
vt 0.63441002368927 0.8486570119857788
vt 0.5106959939002991 0.2051360011100769
vt 0.504252016544342 0.4015269875526428
vt 0.39072299003601074 0.3192809820175171
vt 0.5106959939002991 0.2051360011100769
vt 0.39072299003601074 0.3192809820175171
vt 0.3989329934120178 0.1920509934425354
vt 0.9340450167655945 0.20090800523757935
vt 0.9593210220336914 0.4015430212020874
vt 0.93995600938797 0.4440469741821289
vt 0.5622280240058899 0.20090800523757935
vt 0.5359169840812683 0.4440469741821289
vt 0.5377600193023682 0.2199069857597351
vt 0.5583459734916687 0.4015430212020874
vt 0.5622280240058899 0.20090800523757935
vt 0.6396880149841309 0.09998279809951782
vt 0.5583459734916687 0.4015430212020874
vt 0.6396880149841309 0.09998279809951782
vt 0.6387389898300171 0.29280298948287964
vt 0.9593210220336914 0.4015430212020874
vt 0.9583789706230164 0.47535598278045654
vt 0.93995600938797 0.4440469741821289
vt 0.5322200059890747 0.47535598278045654
vt 0.6380739808082581 0.5554029941558838
vt 0.5310540199279785 0.6166390180587769
vn 0.11846456766805116 -0.4860080219509652 -0.8658881849329807
vn 0.09187622001836135 -0.9950905641336885 0.03679034339654159
vn 0.7074019266387565 -0.6980615212359436 -0.1108721189367991
vn 0.11846456766805116 -0.4860080219509652 -0.8658881849329807
vn 0.7074019266387565 -0.6980615212359436 -0.1108721189367991
vn 0.56464164445871 -0.37069448170036606 -0.7374045121775842
vn 0.11846456766805116 -0.4860080219509652 -0.8658881849329807
vn -0.24976982552249175 -0.3745568898189604 -0.8929289840449862
vn -0.4872922333784854 -0.7533567598031657 -0.4415878980994421
vn 0.11846456766805116 -0.4860080219509652 -0.8658881849329807
vn -0.4872922333784854 -0.7533567598031657 -0.4415878980994421
vn 0.09187622001836135 -0.9950905641336885 0.03679034339654159
vn 0 -0.2719904347882296 -0.9622999549951721
vn -0.21662397120895777 -0.25519534283689804 -0.9423106664428769
vn 0.018767550759880985 -0.23774542132638266 -0.9711461752366717
vn 0.09187622001836135 -0.9950905641336885 0.03679034339654159
vn 0.23340393760874228 -0.9264660544929211 0.2952681015298705
vn 0.6453107531992069 -0.6486145194173323 0.4035755654230013
vn 0.09187622001836135 -0.9950905641336885 0.03679034339654159
vn 0.6453107531992069 -0.6486145194173323 0.4035755654230013
vn 0.7074019266387565 -0.6980615212359436 -0.1108721189367991
vn 0.09187622001836135 -0.9950905641336885 0.03679034339654159
vn -0.4872922333784854 -0.7533567598031657 -0.4415878980994421
vn -0.7426832124582134 -0.6331474615884194 -0.21805031028844987
vn 0.09187622001836135 -0.9950905641336885 0.03679034339654159
vn -0.7426832124582134 -0.6331474615884194 -0.21805031028844987
vn 0.23340393760874228 -0.9264660544929211 0.2952681015298705
vn 0.05419728376410177 -0.2135318754236526 -0.9754315929939171
vn -0.27673983673985986 -0.1904268960654075 -0.9418878171077966
vn -0.24976982552249175 -0.3745568898189604 -0.8929289840449862
vn 0.05419728376410177 -0.2135318754236526 -0.9754315929939171
vn -0.24976982552249175 -0.3745568898189604 -0.8929289840449862
vn 0.11846456766805116 -0.4860080219509652 -0.8658881849329807
vn 0.05419728376410177 -0.2135318754236526 -0.9754315929939171
vn 0.018767550759880985 -0.23774542132638266 -0.9711461752366717
vn -0.27673983673985986 -0.1904268960654075 -0.9418878171077966
vn -0.21950277999023846 -0.5984107531049535 -0.7705342952425409
vn -0.3810948459852464 -0.7197427207149714 -0.580290560272431
vn -0.4872922333784854 -0.7533567598031657 -0.4415878980994421
vn -0.21950277999023846 -0.5984107531049535 -0.7705342952425409
vn -0.4872922333784854 -0.7533567598031657 -0.4415878980994421
vn -0.24976982552249175 -0.3745568898189604 -0.8929289840449862
vn 0.4854974301405107 -0.4637351180062009 -0.7411086193364199
vn 0.56464164445871 -0.37069448170036606 -0.7374045121775842
vn 0.7074019266387565 -0.6980615212359436 -0.1108721189367991
vn 0.4854974301405107 -0.4637351180062009 -0.7411086193364199
vn 0.7074019266387565 -0.6980615212359436 -0.1108721189367991
vn 0.6020730493989456 -0.7738176871980561 0.19675932040669894
vn -0.1587964405194903 -0.2192683611494251 -0.9626552219134248
vn -0.27673983673985986 -0.1904268960654075 -0.9418878171077966
vn 0.018767550759880985 -0.23774542132638266 -0.9711461752366717
vn -0.1587964405194903 -0.2192683611494251 -0.9626552219134248
vn 0.018767550759880985 -0.23774542132638266 -0.9711461752366717
vn -0.21662397120895777 -0.25519534283689804 -0.9423106664428769
vn 0.2897946583152366 -0.19178782229726707 -0.9376761099817075
vn 0.30446928477891255 -0.22274607228542898 -0.9261115709824771
vn 0.018767550759880985 -0.23774542132638266 -0.9711461752366717
vn 0.2897946583152366 -0.19178782229726707 -0.9376761099817075
vn 0.018767550759880985 -0.23774542132638266 -0.9711461752366717
vn 0.3783357077597942 -0.19532413440960775 -0.9048262677171972
vn -0.3810948459852464 -0.7197427207149714 -0.580290560272431
vn -0.4679020365794884 -0.7841538917975788 -0.4076399859477456
vn -0.4872922333784854 -0.7533567598031657 -0.4415878980994421
vn 0.6020730493989456 -0.7738176871980561 0.19675932040669894
vn 0.7074019266387565 -0.6980615212359436 -0.1108721189367991
vn 0.6453107531992069 -0.6486145194173323 0.4035755654230013
vn -0.4872922333784854 -0.7533567598031657 -0.4415878980994421
vn -0.4679020365794884 -0.7841538917975788 -0.4076399859477456
vn -0.7211476469024968 -0.621897331595355 -0.3052700121557452
vn -0.4872922333784854 -0.7533567598031657 -0.4415878980994421
vn -0.7211476469024968 -0.621897331595355 -0.3052700121557452
vn -0.7426832124582134 -0.6331474615884194 -0.21805031028844987
vn 0.6453107531992069 -0.6486145194173323 0.4035755654230013
vn 0.27675127931911203 -0.8207477624242652 0.4997817922561773
vn 0.6020730493989456 -0.7738176871980561 0.19675932040669894
vn -0.24976982552249175 -0.3745568898189604 -0.8929289840449862
vn -0.27673983673985986 -0.1904268960654075 -0.9418878171077966
vn -0.1587964405194903 -0.2192683611494251 -0.9626552219134248
vn -0.24976982552249175 -0.3745568898189604 -0.8929289840449862
vn -0.1587964405194903 -0.2192683611494251 -0.9626552219134248
vn -0.21950277999023846 -0.5984107531049535 -0.7705342952425409
vn 0.56464164445871 -0.37069448170036606 -0.7374045121775842
vn 0.3783357077597942 -0.19532413440960775 -0.9048262677171972
vn 0.05419728376410177 -0.2135318754236526 -0.9754315929939171
vn 0.56464164445871 -0.37069448170036606 -0.7374045121775842
vn 0.05419728376410177 -0.2135318754236526 -0.9754315929939171
vn 0.11846456766805116 -0.4860080219509652 -0.8658881849329807
vn 0.3783357077597942 -0.19532413440960775 -0.9048262677171972
vn 0.56464164445871 -0.37069448170036606 -0.7374045121775842
vn 0.4854974301405107 -0.4637351180062009 -0.7411086193364199
vn 0.3783357077597942 -0.19532413440960775 -0.9048262677171972
vn 0.4854974301405107 -0.4637351180062009 -0.7411086193364199
vn 0.2897946583152366 -0.19178782229726707 -0.9376761099817075
vn 0.3783357077597942 -0.19532413440960775 -0.9048262677171972
vn 0.018767550759880985 -0.23774542132638266 -0.9711461752366717
vn 0.05419728376410177 -0.2135318754236526 -0.9754315929939171
vn 0.018767550759880985 -0.23774542132638266 -0.9711461752366717
vn 0.30446928477891255 -0.22274607228542898 -0.9261115709824771
vn 0 -0.2719904347882296 -0.9622999549951721
f 1/1/1 2/2/2 3/3/3
f 4/4/4 5/5/5 6/6/6
f 7/7/7 8/8/8 9/9/9
f 10/10/10 11/11/11 12/12/12
f 13/13/13 14/14/14 15/15/15
f 16/16/16 17/17/17 18/18/18
f 19/19/19 20/20/20 21/21/21
f 22/22/22 23/23/23 24/24/24
f 25/25/25 26/26/26 27/27/27
f 28/28/28 29/29/29 30/30/30
f 31/31/31 32/32/32 33/33/33
f 34/34/34 35/35/35 36/36/36
f 37/37/37 38/38/38 39/39/39
f 40/40/40 41/41/41 42/42/42
f 43/43/43 44/44/44 45/45/45
f 46/46/46 47/47/47 48/48/48
f 49/49/49 50/50/50 51/51/51
f 52/52/52 53/53/53 54/54/54
f 55/55/55 56/56/56 57/57/57
f 58/58/58 59/59/59 60/60/60
f 61/61/61 62/62/62 63/63/63
f 64/64/64 65/65/65 66/66/66
f 67/67/67 68/68/68 69/69/69
f 70/70/70 71/71/71 72/72/72
f 73/73/73 74/74/74 75/75/75
f 76/76/76 77/77/77 78/78/78
f 79/79/79 80/80/80 81/81/81
f 82/82/82 83/83/83 84/84/84
f 85/85/85 86/86/86 87/87/87
f 88/88/88 89/89/89 90/90/90
f 91/91/91 92/92/92 93/93/93
f 94/94/94 95/95/95 96/96/96
f 97/97/97 98/98/98 99/99/99
