mtllib ArcadaCompleta.mtl
o D17C_CMV
usemtl Esmalte
v -49.037498474121094 18.538972854614258 3.6972806758512933
v -48.4723014831543 19.555442810058594 4.18553093143601
v -49.87630081176758 19.58995246887207 5.104450971566625
v -49.037498474121094 18.538972854614258 3.6972806758512933
v -49.87630081176758 19.58995246887207 5.104450971566625
v -50.140499114990234 17.987333297729492 4.194040567361302
v -49.037498474121094 18.538972854614258 3.6972806758512933
v -49.364200592041016 18.18808364868164 2.7463608092894036
v -49.14390182495117 18.37693214416504 2.3749807185759026
v -49.037498474121094 18.538972854614258 3.6972806758512933
v -49.14390182495117 18.37693214416504 2.3749807185759026
v -48.923500061035156 18.565792083740234 2.0036006278624017
v -49.037498474121094 18.538972854614258 3.6972806758512933
v -48.923500061035156 18.565792083740234 2.0036006278624017
v -48.407501220703125 18.913782119750977 2.2796907729734857
v -49.94879913330078 24.338523864746094 4.387130529366919
v -50.67879867553711 24.455713272094727 4.79904058643479
v -50.217899322509766 22.93787384033203 5.269690782510229
v -49.94879913330078 24.338523864746094 4.387130529366919
v -50.217899322509766 22.93787384033203 5.269690782510229
v -49.48649978637695 22.93795394897461 4.736110956155248
v -48.80379867553711 21.465482711791992 4.680360586129614
v -50.042598724365234 21.465482711791992 5.283000738107153
v -49.87630081176758 19.58995246887207 5.104450971566625
v -48.80379867553711 21.465482711791992 4.680360586129614
v -49.87630081176758 19.58995246887207 5.104450971566625
v -48.4723014831543 19.555442810058594 4.18553093143601
v -48.4723014831543 19.555442810058594 4.18553093143601
v -48.01580047607422 19.84886360168457 2.667450696908422
v -48.22370147705078 21.465482711791992 2.892370731316992
v -48.4723014831543 19.555442810058594 4.18553093143601
v -48.22370147705078 21.465482711791992 2.892370731316992
v -48.80379867553711 21.465482711791992 4.680360586129614
v -51.5984992980957 18.415302276611328 4.3576109714140365
v -50.140499114990234 17.987333297729492 4.194040567361302
v -49.87630081176758 19.58995246887207 5.104450971566625
v -51.5984992980957 18.415302276611328 4.3576109714140365
v -49.87630081176758 19.58995246887207 5.104450971566625
v -51.47060012817383 19.612472534179688 5.198580533944555
v -51.476600646972656 21.465482711791992 5.422730714761205
v -51.47060012817383 19.612472534179688 5.198580533944555
v -49.87630081176758 19.58995246887207 5.104450971566625
v -51.476600646972656 21.465482711791992 5.422730714761205
v -49.87630081176758 19.58995246887207 5.104450971566625
v -50.042598724365234 21.465482711791992 5.283000738107153
v -51.64690017700195 18.26874351501465 3.7262206382383782
v -51.355499267578125 17.960296630859375 2.7865507907499745
v -50.26940155029297 17.55033302307129 3.709990770303197
v -51.64690017700195 18.26874351501465 3.7262206382383782
v -51.862998962402344 18.28971290588379 2.194380790673681
v -51.355499267578125 17.960296630859375 2.7865507907499745
v -49.48649978637695 22.93795394897461 4.736110956155248
v -48.91460037231445 22.93787384033203 2.80137065120835
v -49.54679870605469 24.240402221679688 2.7472708530058356
v -49.48649978637695 22.93795394897461 4.736110956155248
v -49.54679870605469 24.240402221679688 2.7472708530058356
v -49.94879913330078 24.338523864746094 4.387130529366919
v -49.48649978637695 22.93795394897461 4.736110956155248
v -50.217899322509766 22.93787384033203 5.269690782510229
v -50.042598724365234 21.465482711791992 5.283000738107153
v -49.48649978637695 22.93795394897461 4.736110956155248
v -50.042598724365234 21.465482711791992 5.283000738107153
v -48.80379867553711 21.465482711791992 4.680360586129614
v -48.407501220703125 18.913782119750977 2.2796907729734857
v -48.01580047607422 19.84886360168457 2.667450696908422
v -48.4723014831543 19.555442810058594 4.18553093143601
v -48.407501220703125 18.913782119750977 2.2796907729734857
v -48.4723014831543 19.555442810058594 4.18553093143601
v -49.037498474121094 18.538972854614258 3.6972806758512933
v -48.22370147705078 21.465482711791992 2.892370731316992
v -48.91460037231445 22.93787384033203 2.80137065120835
v -49.48649978637695 22.93795394897461 4.736110956155248
v -48.22370147705078 21.465482711791992 2.892370731316992
v -49.48649978637695 22.93795394897461 4.736110956155248
v -48.80379867553711 21.465482711791992 4.680360586129614
v -50.26940155029297 17.55033302307129 3.709990770303197
v -50.140499114990234 17.987333297729492 4.194040567361302
v -51.5984992980957 18.415302276611328 4.3576109714140365
v -50.26940155029297 17.55033302307129 3.709990770303197
v -51.5984992980957 18.415302276611328 4.3576109714140365
v -51.64690017700195 18.26874351501465 3.7262206382383782
v -50.26940155029297 17.55033302307129 3.709990770303197
v -49.65850067138672 18.036413192749023 2.219610721551366
v -49.364200592041016 18.18808364868164 2.7463608092894036
v -50.26940155029297 17.55033302307129 3.709990770303197
v -51.2223014831543 17.92257308959961 2.515790731393285
v -50.736698150634766 17.884817123413086 1.9780907935728504
v -50.140499114990234 17.987333297729492 4.194040567361302
v -50.26940155029297 17.55033302307129 3.709990770303197
v -49.364200592041016 18.18808364868164 2.7463608092894036
v -50.140499114990234 17.987333297729492 4.194040567361302
v -49.364200592041016 18.18808364868164 2.7463608092894036
v -49.037498474121094 18.538972854614258 3.6972806758512933
v -50.042598724365234 21.465482711791992 5.283000738107153
v -50.217899322509766 22.93787384033203 5.269690782510229
v -51.51150131225586 22.93787384033203 5.59031084247727
v -50.042598724365234 21.465482711791992 5.283000738107153
v -51.51150131225586 22.93787384033203 5.59031084247727
v -51.476600646972656 21.465482711791992 5.422730714761205
v -50.736698150634766 17.884817123413086 1.9780907935728504
v -49.65850067138672 18.036413192749023 2.219610721551366
v -50.26940155029297 17.55033302307129 3.709990770303197
v -50.736698150634766 17.884817123413086 1.9780907935728504
v -50.99959945678711 18.47281265258789 1.045710713349767
v -49.81700134277344 18.496973037719727 1.4220207042326405
v -50.736698150634766 17.884817123413086 1.9780907935728504
v -49.81700134277344 18.496973037719727 1.4220207042326405
v -49.65850067138672 18.036413192749023 2.219610721551366
v -49.65850067138672 18.036413192749023 2.219610721551366
v -49.399898529052734 18.546152114868164 1.8476007289518788
v -49.14390182495117 18.37693214416504 2.3749807185759026
v -49.65850067138672 18.036413192749023 2.219610721551366
v -49.14390182495117 18.37693214416504 2.3749807185759026
v -49.364200592041016 18.18808364868164 2.7463608092894036
v -49.65850067138672 18.036413192749023 2.219610721551366
v -49.81700134277344 18.496973037719727 1.4220207042326405
v -49.399898529052734 18.546152114868164 1.8476007289518788
v -51.355499267578125 17.960296630859375 2.7865507907499745
v -51.862998962402344 18.28971290588379 2.194380790673681
v -51.82429885864258 18.55973243713379 1.6032107181181385
v -51.355499267578125 17.960296630859375 2.7865507907499745
v -51.82429885864258 18.55973243713379 1.6032107181181385
v -51.2223014831543 17.92257308959961 2.515790731393285
v -49.14390182495117 18.37693214416504 2.3749807185759026
v -49.399898529052734 18.546152114868164 1.8476007289518788
v -48.923500061035156 18.565792083740234 2.0036006278624017
v -51.2223014831543 17.92257308959961 2.515790731393285
v -50.26940155029297 17.55033302307129 3.709990770303197
v -51.355499267578125 17.960296630859375 2.7865507907499745
v -51.2223014831543 17.92257308959961 2.515790731393285
v -51.82429885864258 18.55973243713379 1.6032107181181385
v -50.99959945678711 18.47281265258789 1.045710713349767
v -51.2223014831543 17.92257308959961 2.515790731393285
v -50.99959945678711 18.47281265258789 1.045710713349767
v -50.736698150634766 17.884817123413086 1.9780907935728504
vt 0.12300299853086472 0.1715860366821289
vt 0.061375100165605545 0.12745898962020874
vt 0.2144639939069748 0.044410109519958496
vt 0.12300299853086472 0.1715860366821289
vt 0.2144639939069748 0.044410109519958496
vt 0.24327099323272705 0.12669003009796143
vt 0.12300299853086472 0.1715860366821289
vt 0.1586260050535202 0.2575269937515259
vt 0.13460400700569153 0.29109203815460205
vt 0.12300299853086472 0.1715860366821289
vt 0.13460400700569153 0.29109203815460205
vt 0.11057200282812119 0.32465600967407227
vt 0.12300299853086472 0.1715860366821289
vt 0.11057200282812119 0.32465600967407227
vt 0.05430940166115761 0.2997039556503296
vt 0.7776309847831726 0.9626060128211975
vt 0.6980339884757996 0.9792159795761108
vt 0.7482900023460388 0.7640889883041382
vt 0.7776309847831726 0.9626060128211975
vt 0.7482900023460388 0.7640889883041382
vt 0.8280400037765503 0.7641000151634216
vt 0.9024800062179565 0.5554029941558838
vt 0.7674040198326111 0.5554029941558838
vt 0.785535991191864 0.28957998752593994
vt 0.9024800062179565 0.5554029941558838
vt 0.785535991191864 0.28957998752593994
vt 0.9386249780654907 0.2846890091896057
vt 0.12745900452136993 0.2846890091896057
vt 0.26465898752212524 0.3262760043144226
vt 0.2443310022354126 0.5554029941558838
vt 0.12745900452136993 0.2846890091896057
vt 0.2443310022354126 0.5554029941558838
vt 0.08273810148239136 0.5554029941558838
vt 0.5977519750595093 0.12309402227401733
vt 0.756729006767273 0.062436819076538086
vt 0.785535991191864 0.28957998752593994
vt 0.40224799513816833 0.1119070053100586
vt 0.2144639939069748 0.044410109519958496
vt 0.3883019983768463 0.035902976989746094
vt 0.6110439896583557 0.5554029941558838
vt 0.6116979718208313 0.29277199506759644
vt 0.785535991191864 0.28957998752593994
vt 0.6110439896583557 0.5554029941558838
vt 0.785535991191864 0.28957998752593994
vt 0.7674040198326111 0.5554029941558838
vt 0.4075250029563904 0.1689710021018982
vt 0.37575098872184753 0.2538950443267822
vt 0.25732600688934326 0.17043697834014893
vt 0.4075250029563904 0.1689710021018982
vt 0.43108800053596497 0.3074139952659607
vt 0.37575098872184753 0.2538950443267822
vt 0.07769960165023804 0.7641000151634216
vt 0.2525559961795807 0.7640889883041382
vt 0.25744500756263733 0.9486989974975586
vt 0.07769960165023804 0.7641000151634216
vt 0.25744500756263733 0.9486989974975586
vt 0.10923899710178375 0.9626060128211975
vt 0.8280400037765503 0.7641000151634216
vt 0.7482900023460388 0.7640889883041382
vt 0.7674040198326111 0.5554029941558838
vt 0.8280400037765503 0.7641000151634216
vt 0.7674040198326111 0.5554029941558838
vt 0.9024800062179565 0.5554029941558838
vt 0.299703985452652 0.1937440037727356
vt 0.26465898752212524 0.3262760043144226
vt 0.12745900452136993 0.2846890091896057
vt 0.299703985452652 0.1937440037727356
vt 0.12745900452136993 0.2846890091896057
vt 0.17158600687980652 0.14062201976776123
vt 0.2443310022354126 0.5554029941558838
vt 0.2525559961795807 0.7640889883041382
vt 0.07769960165023804 0.7641000151634216
vt 0.2443310022354126 0.5554029941558838
vt 0.07769960165023804 0.7641000151634216
vt 0.08273810148239136 0.5554029941558838
vt 0.25732600688934326 0.17043697834014893
vt 0.24327099323272705 0.12669003009796143
vt 0.40224799513816833 0.1119070053100586
vt 0.25732600688934326 0.17043697834014893
vt 0.40224799513816833 0.1119070053100586
vt 0.4075250029563904 0.1689710021018982
vt 0.25732600688934326 0.17043697834014893
vt 0.1907150000333786 0.30513298511505127
vt 0.1586260050535202 0.2575269937515259
vt 0.25732600688934326 0.17043697834014893
vt 0.36122798919677734 0.27836596965789795
vt 0.30827900767326355 0.32696104049682617
vt 0.24327099323272705 0.12669003009796143
vt 0.25732600688934326 0.17043697834014893
vt 0.1586260050535202 0.2575269937515259
vt 0.24327099323272705 0.12669003009796143
vt 0.1586260050535202 0.2575269937515259
vt 0.12300299853086472 0.1715860366821289
vt 0.7674040198326111 0.5554029941558838
vt 0.7482900023460388 0.7640889883041382
vt 0.6072379946708679 0.7640889883041382
vt 0.7674040198326111 0.5554029941558838
vt 0.6072379946708679 0.7640889883041382
vt 0.6110439896583557 0.5554029941558838
vt 0.30827900767326355 0.32696104049682617
vt 0.1907150000333786 0.30513298511505127
vt 0.25732600688934326 0.17043697834014893
vt 0.30827900767326355 0.32696104049682617
vt 0.3369449973106384 0.4112269878387451
vt 0.20799799263477325 0.37721699476242065
vt 0.30827900767326355 0.32696104049682617
vt 0.20799799263477325 0.37721699476242065
vt 0.1907150000333786 0.30513298511505127
vt 0.1907150000333786 0.30513298511505127
vt 0.1625179946422577 0.3387550115585327
vt 0.13460400700569153 0.29109203815460205
vt 0.1907150000333786 0.30513298511505127
vt 0.13460400700569153 0.29109203815460205
vt 0.1586260050535202 0.2575269937515259
vt 0.1907150000333786 0.30513298511505127
vt 0.20799799263477325 0.37721699476242065
vt 0.1625179946422577 0.3387550115585327
vt 0.37575098872184753 0.2538950443267822
vt 0.43108800053596497 0.3074139952659607
vt 0.4268679916858673 0.3608419895172119
vt 0.37575098872184753 0.2538950443267822
vt 0.4268679916858673 0.3608419895172119
vt 0.36122798919677734 0.27836596965789795
vt 0.13460400700569153 0.29109203815460205
vt 0.1625179946422577 0.3387550115585327
vt 0.11057200282812119 0.32465600967407227
vt 0.36122798919677734 0.27836596965789795
vt 0.25732600688934326 0.17043697834014893
vt 0.37575098872184753 0.2538950443267822
vt 0.36122798919677734 0.27836596965789795
vt 0.4268679916858673 0.3608419895172119
vt 0.3369449973106384 0.4112269878387451
vt 0.36122798919677734 0.27836596965789795
vt 0.3369449973106384 0.4112269878387451
vt 0.30827900767326355 0.32696104049682617
vn 0.6204074447813371 -0.6713462880385197 0.4054488426383694
vn 0.846700907599156 -0.2131093592570432 0.48752638294539313
vn 0.27599619243888457 -0.31037310974644 0.9096673207857707
vn 0.6204074447813371 -0.6713462880385197 0.4054488426383694
vn 0.27599619243888457 -0.31037310974644 0.9096673207857707
vn 0.3206132140840384 -0.6514643010448822 0.6876055783796446
vn 0.6204074447813371 -0.6713462880385197 0.4054488426383694
vn 0.6053659837433558 -0.7871523993474709 0.11799629624678307
vn 0.6011803682160257 -0.785269907689566 -0.1480990781499481
vn 0.6204074447813371 -0.6713462880385197 0.4054488426383694
vn 0.6011803682160257 -0.785269907689566 -0.1480990781499481
vn 0.545812732663697 -0.8375170332796565 -0.025567163093122444
vn 0.6204074447813371 -0.6713462880385197 0.4054488426383694
vn 0.545812732663697 -0.8375170332796565 -0.025567163093122444
vn 0.7924584231494919 -0.5880840634687021 0.16176149688217026
vn 0.7577160993741412 0.38982855249054194 0.5233545761836478
vn 0.49908800727386954 0.3912956984044876 0.7731745193716245
vn 0.4586248524905288 0.2069991749855472 0.8641843473665463
vn 0.7577160993741412 0.38982855249054194 0.5233545761836478
vn 0.4586248524905288 0.2069991749855472 0.8641843473665463
vn 0.8193498084400027 0.3647457914531151 0.4422967318741703
vn 0.7411804611190018 0.10019277532415248 0.6637868120324986
vn 0.2993647472999636 -0.005610600611073423 0.9541222506758829
vn 0.27599619243888457 -0.31037310974644 0.9096673207857707
vn 0.7411804611190018 0.10019277532415248 0.6637868120324986
vn 0.27599619243888457 -0.31037310974644 0.9096673207857707
vn 0.846700907599156 -0.2131093592570432 0.48752638294539313
vn 0.846700907599156 -0.2131093592570432 0.48752638294539313
vn 0.956024737267196 -0.13177440664938872 0.2620156626718919
vn 0.9232663224959405 0.25034540112707926 0.2913871614868159
vn 0.846700907599156 -0.2131093592570432 0.48752638294539313
vn 0.9232663224959405 0.25034540112707926 0.2913871614868159
vn 0.7411804611190018 0.10019277532415248 0.6637868120324986
vn -0.0904900617567043 -0.6299768501994689 0.7713240025670303
vn 0.3206132140840384 -0.6514643010448822 0.6876055783796446
vn 0.27599619243888457 -0.31037310974644 0.9096673207857707
vn -0.0904900617567043 -0.6299768501994689 0.7713240025670303
vn 0.27599619243888457 -0.31037310974644 0.9096673207857707
vn 0.05095425935636604 -0.33106273598490493 0.9422319928211064
vn 0.08143092210699544 -0.1054385838190739 0.9910861264123478
vn 0.05095425935636604 -0.33106273598490493 0.9422319928211064
vn 0.27599619243888457 -0.31037310974644 0.9096673207857707
vn 0.08143092210699544 -0.1054385838190739 0.9910861264123478
vn 0.27599619243888457 -0.31037310974644 0.9096673207857707
vn 0.2993647472999636 -0.005610600611073423 0.9541222506758829
vn -0.49187184179409904 -0.8565216203636357 0.15630996481265283
vn -0.4633643383998204 -0.8860392079341556 0.015100063003545303
vn -0.01234315608419376 -0.9939938133418821 0.10873796731567605
vn -0.49187184179409904 -0.8565216203636357 0.15630996481265283
vn -0.4749738631626049 -0.8763172732762582 -0.08042304315340978
vn -0.4633643383998204 -0.8860392079341556 0.015100063003545303
vn 0.8193498084400027 0.3647457914531151 0.4422967318741703
vn 0.8672125864009589 0.42689501933166957 0.25632591062468235
vn 0.8892427978601517 0.3945697710771512 0.23143453114428233
vn 0.8193498084400027 0.3647457914531151 0.4422967318741703
vn 0.8892427978601517 0.3945697710771512 0.23143453114428233
vn 0.7577160993741412 0.38982855249054194 0.5233545761836478
vn 0.8193498084400027 0.3647457914531151 0.4422967318741703
vn 0.4586248524905288 0.2069991749855472 0.8641843473665463
vn 0.2993647472999636 -0.005610600611073423 0.9541222506758829
vn 0.8193498084400027 0.3647457914531151 0.4422967318741703
vn 0.2993647472999636 -0.005610600611073423 0.9541222506758829
vn 0.7411804611190018 0.10019277532415248 0.6637868120324986
vn 0.7924584231494919 -0.5880840634687021 0.16176149688217026
vn 0.956024737267196 -0.13177440664938872 0.2620156626718919
vn 0.846700907599156 -0.2131093592570432 0.48752638294539313
vn 0.7924584231494919 -0.5880840634687021 0.16176149688217026
vn 0.846700907599156 -0.2131093592570432 0.48752638294539313
vn 0.6204074447813371 -0.6713462880385197 0.4054488426383694
vn 0.9232663224959405 0.25034540112707926 0.2913871614868159
vn 0.8672125864009589 0.42689501933166957 0.25632591062468235
vn 0.8193498084400027 0.3647457914531151 0.4422967318741703
vn 0.9232663224959405 0.25034540112707926 0.2913871614868159
vn 0.8193498084400027 0.3647457914531151 0.4422967318741703
vn 0.7411804611190018 0.10019277532415248 0.6637868120324986
vn -0.01234315608419376 -0.9939938133418821 0.10873796731567605
vn 0.3206132140840384 -0.6514643010448822 0.6876055783796446
vn -0.0904900617567043 -0.6299768501994689 0.7713240025670303
vn -0.01234315608419376 -0.9939938133418821 0.10873796731567605
vn -0.0904900617567043 -0.6299768501994689 0.7713240025670303
vn -0.49187184179409904 -0.8565216203636357 0.15630996481265283
vn -0.01234315608419376 -0.9939938133418821 0.10873796731567605
vn 0.3596072800476967 -0.8821826460452827 -0.30403352307474396
vn 0.6053659837433558 -0.7871523993474709 0.11799629624678307
vn -0.01234315608419376 -0.9939938133418821 0.10873796731567605
vn -0.35805541271609537 -0.8993898476255191 -0.25078720743461447
vn 0.039309659003631994 -0.9297133014408893 -0.36618018492662935
vn 0.3206132140840384 -0.6514643010448822 0.6876055783796446
vn -0.01234315608419376 -0.9939938133418821 0.10873796731567605
vn 0.6053659837433558 -0.7871523993474709 0.11799629624678307
vn 0.3206132140840384 -0.6514643010448822 0.6876055783796446
vn 0.6053659837433558 -0.7871523993474709 0.11799629624678307
vn 0.6204074447813371 -0.6713462880385197 0.4054488426383694
vn 0.2993647472999636 -0.005610600611073423 0.9541222506758829
vn 0.4586248524905288 0.2069991749855472 0.8641843473665463
vn 0.16628940883380097 -0.03974636402668398 0.9852756259323394
vn 0.2993647472999636 -0.005610600611073423 0.9541222506758829
vn 0.16628940883380097 -0.03974636402668398 0.9852756259323394
vn 0.08143092210699544 -0.1054385838190739 0.9910861264123478
vn 0.039309659003631994 -0.9297133014408893 -0.36618018492662935
vn 0.3596072800476967 -0.8821826460452827 -0.30403352307474396
vn -0.01234315608419376 -0.9939938133418821 0.10873796731567605
vn 0.039309659003631994 -0.9297133014408893 -0.36618018492662935
vn -0.17485108514513062 -0.8663509261630757 -0.4678281423342886
vn 0.27075663385829474 -0.7959319125056861 -0.5414639746804641
vn 0.039309659003631994 -0.9297133014408893 -0.36618018492662935
vn 0.27075663385829474 -0.7959319125056861 -0.5414639746804641
vn 0.3596072800476967 -0.8821826460452827 -0.30403352307474396
vn 0.3596072800476967 -0.8821826460452827 -0.30403352307474396
vn 0.4925537687164032 -0.7299188944463677 -0.4739295226649847
vn 0.6011803682160257 -0.785269907689566 -0.1480990781499481
vn 0.3596072800476967 -0.8821826460452827 -0.30403352307474396
vn 0.6011803682160257 -0.785269907689566 -0.1480990781499481
vn 0.6053659837433558 -0.7871523993474709 0.11799629624678307
vn 0.3596072800476967 -0.8821826460452827 -0.30403352307474396
vn 0.27075663385829474 -0.7959319125056861 -0.5414639746804641
vn 0.4925537687164032 -0.7299188944463677 -0.4739295226649847
vn -0.4633643383998204 -0.8860392079341556 0.015100063003545303
vn -0.4749738631626049 -0.8763172732762582 -0.08042304315340978
vn -0.34684835350314297 -0.8696302987979981 -0.3513393844769797
vn -0.4633643383998204 -0.8860392079341556 0.015100063003545303
vn -0.34684835350314297 -0.8696302987979981 -0.3513393844769797
vn -0.35805541271609537 -0.8993898476255191 -0.25078720743461447
vn 0.6011803682160257 -0.785269907689566 -0.1480990781499481
vn 0.4925537687164032 -0.7299188944463677 -0.4739295226649847
vn 0.545812732663697 -0.8375170332796565 -0.025567163093122444
vn -0.35805541271609537 -0.8993898476255191 -0.25078720743461447
vn -0.01234315608419376 -0.9939938133418821 0.10873796731567605
vn -0.4633643383998204 -0.8860392079341556 0.015100063003545303
vn -0.35805541271609537 -0.8993898476255191 -0.25078720743461447
vn -0.34684835350314297 -0.8696302987979981 -0.3513393844769797
vn -0.17485108514513062 -0.8663509261630757 -0.4678281423342886
vn -0.35805541271609537 -0.8993898476255191 -0.25078720743461447
vn -0.17485108514513062 -0.8663509261630757 -0.4678281423342886
vn 0.039309659003631994 -0.9297133014408893 -0.36618018492662935
f 1/1/1 2/2/2 3/3/3
f 4/4/4 5/5/5 6/6/6
f 7/7/7 8/8/8 9/9/9
f 10/10/10 11/11/11 12/12/12
f 13/13/13 14/14/14 15/15/15
f 16/16/16 17/17/17 18/18/18
f 19/19/19 20/20/20 21/21/21
f 22/22/22 23/23/23 24/24/24
f 25/25/25 26/26/26 27/27/27
f 28/28/28 29/29/29 30/30/30
f 31/31/31 32/32/32 33/33/33
f 34/34/34 35/35/35 36/36/36
f 37/37/37 38/38/38 39/39/39
f 40/40/40 41/41/41 42/42/42
f 43/43/43 44/44/44 45/45/45
f 46/46/46 47/47/47 48/48/48
f 49/49/49 50/50/50 51/51/51
f 52/52/52 53/53/53 54/54/54
f 55/55/55 56/56/56 57/57/57
f 58/58/58 59/59/59 60/60/60
f 61/61/61 62/62/62 63/63/63
f 64/64/64 65/65/65 66/66/66
f 67/67/67 68/68/68 69/69/69
f 70/70/70 71/71/71 72/72/72
f 73/73/73 74/74/74 75/75/75
f 76/76/76 77/77/77 78/78/78
f 79/79/79 80/80/80 81/81/81
f 82/82/82 83/83/83 84/84/84
f 85/85/85 86/86/86 87/87/87
f 88/88/88 89/89/89 90/90/90
f 91/91/91 92/92/92 93/93/93
f 94/94/94 95/95/95 96/96/96
f 97/97/97 98/98/98 99/99/99
f 100/100/100 101/101/101 102/102/102
f 103/103/103 104/104/104 105/105/105
f 106/106/106 107/107/107 108/108/108
f 109/109/109 110/110/110 111/111/111
f 112/112/112 113/113/113 114/114/114
f 115/115/115 116/116/116 117/117/117
f 118/118/118 119/119/119 120/120/120
f 121/121/121 122/122/122 123/123/123
f 124/124/124 125/125/125 126/126/126
f 127/127/127 128/128/128 129/129/129
f 130/130/130 131/131/131 132/132/132
f 133/133/133 134/134/134 135/135/135
