mtllib ArcadaCompleta.mtl
o D18C_CMV
usemtl Esmalte
v -58.395999908447266 18.436752319335938 3.4006908244718987
v -57.867698669433594 19.369873046875 3.84890082546372
v -59.18000030517578 19.401552200317383 4.692480833016821
v -58.395999908447266 18.436752319335938 3.4006908244718987
v -59.18000030517578 19.401552200317383 4.692480833016821
v -59.42679977416992 17.93035125732422 3.8567207164396717
v -58.395999908447266 18.436752319335938 3.4006908244718987
v -58.70130157470703 18.114643096923828 2.5277507609953362
v -58.495399475097656 18.288013458251953 2.1868207759489495
v -58.395999908447266 18.436752319335938 3.4006908244718987
v -58.495399475097656 18.288013458251953 2.1868207759489495
v -58.28950119018555 18.46137237548828 1.8459008044828846
v -58.395999908447266 18.436752319335938 3.4006908244718987
v -58.28950119018555 18.46137237548828 1.8459008044828846
v -57.80720138549805 18.780832290649414 2.0993507213224847
v -59.24760055541992 23.7607421875 4.033970624886939
v -59.93000030517578 23.868322372436523 4.412110597573706
v -59.49919891357422 22.474943161010742 4.844160825692602
v -59.24760055541992 23.7607421875 4.033970624886939
v -59.49919891357422 22.474943161010742 4.844160825692602
v -58.81570053100586 22.47502326965332 4.354330808602758
v -58.1776008605957 21.123292922973633 4.303160936318823
v -59.33530044555664 21.123292922973633 4.856390745126196
v -59.18000030517578 19.401552200317383 4.692480833016821
v -58.1776008605957 21.123292922973633 4.303160936318823
v -59.18000030517578 19.401552200317383 4.692480833016821
v -57.867698669433594 19.369873046875 3.84890082546372
v -57.867698669433594 19.369873046875 3.84890082546372
v -57.410701751708984 19.64684295654297 2.459900648080297
v -57.635398864746094 21.123292922973633 2.6617906398405515
v -57.867698669433594 19.369873046875 3.84890082546372
v -57.635398864746094 21.123292922973633 2.6617906398405515
v -58.1776008605957 21.123292922973633 4.303160936318823
v -60.795101165771484 18.36538314819336 4.068280965768285
v -59.42679977416992 17.93035125732422 3.8567207164396717
v -59.18000030517578 19.401552200317383 4.692480833016821
v -60.795101165771484 18.36538314819336 4.068280965768285
v -59.18000030517578 19.401552200317383 4.692480833016821
v -60.669898986816406 19.42223358154297 4.7788908786406
v -60.675498962402344 21.123292922973633 4.984660894357153
v -60.669898986816406 19.42223358154297 4.7788908786406
v -59.18000030517578 19.401552200317383 4.692480833016821
v -60.675498962402344 21.123292922973633 4.984660894357153
v -59.18000030517578 19.401552200317383 4.692480833016821
v -59.33530044555664 21.123292922973633 4.856390745126196
v -60.84040069580078 18.07075309753418 3.4886608428587396
v -60.56740188598633 17.90578269958496 2.736470729791112
v -59.547298431396484 17.529186248779297 3.4123606986631825
v -60.84040069580078 18.07075309753418 3.4886608428587396
v -60.96979904174805 18.203432083129883 2.6103806800474603
v -60.56740188598633 17.90578269958496 2.736470729791112
v -58.81570053100586 22.47502326965332 4.354330808602758
v -58.28120040893555 22.474943161010742 2.578240663491675
v -58.87200164794922 23.67066192626953 2.528590709649512
v -58.81570053100586 22.47502326965332 4.354330808602758
v -58.87200164794922 23.67066192626953 2.528590709649512
v -59.24760055541992 23.7607421875 4.033970624886939
v -58.81570053100586 22.47502326965332 4.354330808602758
v -59.49919891357422 22.474943161010742 4.844160825692602
v -59.33530044555664 21.123292922973633 4.856390745126196
v -58.81570053100586 22.47502326965332 4.354330808602758
v -59.33530044555664 21.123292922973633 4.856390745126196
v -58.1776008605957 21.123292922973633 4.303160936318823
v -57.80720138549805 18.780832290649414 2.0993507213224847
v -57.410701751708984 19.64684295654297 2.459900648080297
v -57.867698669433594 19.369873046875 3.84890082546372
v -57.80720138549805 18.780832290649414 2.0993507213224847
v -57.867698669433594 19.369873046875 3.84890082546372
v -58.395999908447266 18.436752319335938 3.4006908244718987
v -57.635398864746094 21.123292922973633 2.6617906398405515
v -58.28120040893555 22.474943161010742 2.578240663491675
v -58.81570053100586 22.47502326965332 4.354330808602758
v -57.635398864746094 21.123292922973633 2.6617906398405515
v -58.81570053100586 22.47502326965332 4.354330808602758
v -58.1776008605957 21.123292922973633 4.303160936318823
v -59.547298431396484 17.529186248779297 3.4123606986631825
v -59.42679977416992 17.93035125732422 3.8567207164396717
v -60.795101165771484 18.36538314819336 4.068280965768285
v -59.547298431396484 17.529186248779297 3.4123606986631825
v -60.795101165771484 18.36538314819336 4.068280965768285
v -60.84040069580078 18.07075309753418 3.4886608428587396
v -59.547298431396484 17.529186248779297 3.4123606986631825
v -58.97639846801758 17.97540855407715 2.044190675698705
v -58.70130157470703 18.114643096923828 2.5277507609953362
v -59.547298431396484 17.529186248779297 3.4123606986631825
v -60.437801361083984 17.87090301513672 2.316080839120336
v -59.984100341796875 17.83624267578125 1.8224706954588368
v -59.42679977416992 17.93035125732422 3.8567207164396717
v -59.547298431396484 17.529186248779297 3.4123606986631825
v -58.70130157470703 18.114643096923828 2.5277507609953362
v -59.42679977416992 17.93035125732422 3.8567207164396717
v -58.70130157470703 18.114643096923828 2.5277507609953362
v -58.395999908447266 18.436752319335938 3.4006908244718987
v -59.33530044555664 21.123292922973633 4.856390745126196
v -59.49919891357422 22.474943161010742 4.844160825692602
v -60.708099365234375 22.474943161010742 5.138500959359594
v -59.33530044555664 21.123292922973633 4.856390745126196
v -60.708099365234375 22.474943161010742 5.138500959359594
v -60.675498962402344 21.123292922973633 4.984660894357153
v -59.984100341796875 17.83624267578125 1.8224706954588368
v -58.97639846801758 17.97540855407715 2.044190675698705
v -59.547298431396484 17.529186248779297 3.4123606986631825
v -59.984100341796875 17.83624267578125 1.8224706954588368
v -60.229698181152344 18.376022338867188 0.9665547318090871
v -59.1411018371582 18.451372146606445 1.3329007930387928
v -59.984100341796875 17.83624267578125 1.8224706954588368
v -59.1411018371582 18.451372146606445 1.3329007930387928
v -58.97639846801758 17.97540855407715 2.044190675698705
v -58.97639846801758 17.97540855407715 2.044190675698705
v -58.69340133666992 18.414432525634766 1.8150106973280384
v -58.495399475097656 18.288013458251953 2.1868207759489495
v -58.97639846801758 17.97540855407715 2.044190675698705
v -58.495399475097656 18.288013458251953 2.1868207759489495
v -58.70130157470703 18.114643096923828 2.5277507609953362
v -58.97639846801758 17.97540855407715 2.044190675698705
v -59.1411018371582 18.451372146606445 1.3329007930387928
v -58.69340133666992 18.414432525634766 1.8150106973280384
v -60.56740188598633 17.90578269958496 2.736470729791112
v -60.96979904174805 18.203432083129883 2.6103806800474603
v -61.0004997253418 18.455812454223633 1.4783307618727162
v -60.56740188598633 17.90578269958496 2.736470729791112
v -61.0004997253418 18.455812454223633 1.4783307618727162
v -60.437801361083984 17.87090301513672 2.316080839120336
v -58.495399475097656 18.288013458251953 2.1868207759489495
v -58.69340133666992 18.414432525634766 1.8150106973280384
v -58.28950119018555 18.46137237548828 1.8459008044828846
v -60.437801361083984 17.87090301513672 2.316080839120336
v -59.547298431396484 17.529186248779297 3.4123606986631825
v -60.56740188598633 17.90578269958496 2.736470729791112
v -60.437801361083984 17.87090301513672 2.316080839120336
v -61.0004997253418 18.455812454223633 1.4783307618727162
v -60.229698181152344 18.376022338867188 0.9665547318090871
v -60.437801361083984 17.87090301513672 2.316080839120336
v -60.229698181152344 18.376022338867188 0.9665547318090871
v -59.984100341796875 17.83624267578125 1.8224706954588368
vt 0.8769969940185547 0.8284130096435547
vt 0.9386330246925354 0.8725399971008301
vt 0.7855269908905029 0.955590009689331
vt 0.8769969940185547 0.8284130096435547
vt 0.7855269908905029 0.955590009689331
vt 0.7567330002784729 0.8733090162277222
vt 0.8769969940185547 0.8284130096435547
vt 0.8413770198822021 0.7424730062484741
vt 0.8653990030288696 0.7089080214500427
vt 0.8769969940185547 0.8284130096435547
vt 0.8653990030288696 0.7089080214500427
vt 0.8894209861755371 0.6753450036048889
vt 0.8769969940185547 0.8284130096435547
vt 0.8894209861755371 0.6753450036048889
vt 0.9456920027732849 0.7002969980239868
vt 0.7776399850845337 0.9626070261001587
vt 0.6980239748954773 0.979216992855072
vt 0.7482860088348389 0.7640889883041382
vt 0.7776399850845337 0.9626070261001587
vt 0.7482860088348389 0.7640889883041382
vt 0.828029990196228 0.7641010284423828
vt 0.9024770259857178 0.555404007434845
vt 0.767408013343811 0.555404007434845
vt 0.7855269908905029 0.28957903385162354
vt 0.9024770259857178 0.555404007434845
vt 0.7855269908905029 0.28957903385162354
vt 0.9386330246925354 0.28468799591064453
vt 0.28468799591064453 0.8725399971008301
vt 0.3274500072002411 0.7357929944992065
vt 0.555404007434845 0.7556689977645874
vt 0.28468799591064453 0.8725399971008301
vt 0.555404007434845 0.7556689977645874
vt 0.555404007434845 0.917261004447937
vt 0.5970929861068726 0.12960201501846313
vt 0.7567330002784729 0.062436580657958984
vt 0.7855269908905029 0.28957903385162354
vt 0.5970929861068726 0.894137978553772
vt 0.7855269908905029 0.955590009689331
vt 0.6116999983787537 0.9640970230102539
vt 0.6110470294952393 0.555404007434845
vt 0.6116999983787537 0.29277199506759644
vt 0.7855269908905029 0.28957903385162354
vt 0.6110470294952393 0.555404007434845
vt 0.7855269908905029 0.28957903385162354
vt 0.767408013343811 0.555404007434845
vt 0.591808021068573 0.8370739817619324
vt 0.6236590147018433 0.7630209922790527
vt 0.7426739931106567 0.8295620083808899
vt 0.591808021068573 0.8370739817619324
vt 0.5767109990119934 0.7506070137023926
vt 0.6236590147018433 0.7630209922790527
vt 0.7641010284423828 0.9222990274429321
vt 0.7640889883041382 0.7474430203437805
vt 0.9486989974975586 0.7425550222396851
vt 0.7641010284423828 0.9222990274429321
vt 0.9486989974975586 0.7425550222396851
vt 0.9626070261001587 0.8907600045204163
vt 0.828029990196228 0.7641010284423828
vt 0.7482860088348389 0.7640889883041382
vt 0.767408013343811 0.555404007434845
vt 0.828029990196228 0.7641010284423828
vt 0.767408013343811 0.555404007434845
vt 0.9024770259857178 0.555404007434845
vt 0.19374500215053558 0.7002969980239868
vt 0.3274500072002411 0.7357929944992065
vt 0.28468799591064453 0.8725399971008301
vt 0.19374500215053558 0.7002969980239868
vt 0.28468799591064453 0.8725399971008301
vt 0.14062100648880005 0.8284130096435547
vt 0.555404007434845 0.7556689977645874
vt 0.7640889883041382 0.7474430203437805
vt 0.7641010284423828 0.9222990274429321
vt 0.555404007434845 0.7556689977645874
vt 0.7641010284423828 0.9222990274429321
vt 0.555404007434845 0.917261004447937
vt 0.7426739931106567 0.8295620083808899
vt 0.7567330002784729 0.8733090162277222
vt 0.5970929861068726 0.894137978553772
vt 0.7426739931106567 0.8295620083808899
vt 0.5970929861068726 0.894137978553772
vt 0.591808021068573 0.8370739817619324
vt 0.7426739931106567 0.8295620083808899
vt 0.8092809915542603 0.6948660016059875
vt 0.8413770198822021 0.7424730062484741
vt 0.7426739931106567 0.8295620083808899
vt 0.6387789845466614 0.7216339707374573
vt 0.6917120218276978 0.6730380058288574
vt 0.7567330002784729 0.8733090162277222
vt 0.7426739931106567 0.8295620083808899
vt 0.8413770198822021 0.7424730062484741
vt 0.7567330002784729 0.8733090162277222
vt 0.8413770198822021 0.7424730062484741
vt 0.8769969940185547 0.8284130096435547
vt 0.767408013343811 0.555404007434845
vt 0.7482860088348389 0.7640889883041382
vt 0.607243001461029 0.7640889883041382
vt 0.767408013343811 0.555404007434845
vt 0.607243001461029 0.7640889883041382
vt 0.6110470294952393 0.555404007434845
vt 0.6917120218276978 0.6730380058288574
vt 0.8092809915542603 0.6948660016059875
vt 0.7426739931106567 0.8295620083808899
vt 0.6917120218276978 0.6730380058288574
vt 0.6630579829216003 0.5887730121612549
vt 0.7900649905204773 0.6248400211334229
vt 0.6917120218276978 0.6730380058288574
vt 0.7900649905204773 0.6248400211334229
vt 0.8092809915542603 0.6948660016059875
vt 0.8092809915542603 0.6948660016059875
vt 0.8422989845275879 0.6723030209541321
vt 0.8653990030288696 0.7089080214500427
vt 0.8092809915542603 0.6948660016059875
vt 0.8653990030288696 0.7089080214500427
vt 0.8413770198822021 0.7424730062484741
vt 0.8092809915542603 0.6948660016059875
vt 0.7900649905204773 0.6248400211334229
vt 0.8422989845275879 0.6723030209541321
vt 0.6236590147018433 0.7630209922790527
vt 0.5767109990119934 0.7506070137023926
vt 0.5731289982795715 0.6391569972038269
vt 0.6236590147018433 0.7630209922790527
vt 0.5731289982795715 0.6391569972038269
vt 0.6387789845466614 0.7216339707374573
vt 0.8653990030288696 0.7089080214500427
vt 0.8422989845275879 0.6723030209541321
vt 0.8894209861755371 0.6753450036048889
vt 0.6387789845466614 0.7216339707374573
vt 0.7426739931106567 0.8295620083808899
vt 0.6236590147018433 0.7630209922790527
vt 0.6387789845466614 0.7216339707374573
vt 0.5731289982795715 0.6391569972038269
vt 0.6630579829216003 0.5887730121612549
vt 0.6387789845466614 0.7216339707374573
vt 0.6630579829216003 0.5887730121612549
vt 0.6917120218276978 0.6730380058288574
vn 0.6135602782472249 -0.675937911833482 0.4082299894708616
vn 0.8394595480201718 -0.2166381945207556 0.49837291249881976
vn 0.27533393890038454 -0.3074724352946559 0.9108523061526347
vn 0.6135602782472249 -0.675937911833482 0.4082299894708616
vn 0.27533393890038454 -0.3074724352946559 0.9108523061526347
vn 0.3219877458031392 -0.6515428972518985 0.6868884513465159
vn 0.6135602782472249 -0.675937911833482 0.4082299894708616
vn 0.5984884478819604 -0.792281803598434 0.11874814288507667
vn 0.6031619691898603 -0.7868441659496745 -0.13065947127541377
vn 0.6135602782472249 -0.675937911833482 0.4082299894708616
vn 0.6031619691898603 -0.7868441659496745 -0.13065947127541377
vn 0.5460549059747343 -0.8375717497864649 -0.017251191859231838
vn 0.6135602782472249 -0.675937911833482 0.4082299894708616
vn 0.5460549059747343 -0.8375717497864649 -0.017251191859231838
vn 0.7813349914458495 -0.6015388332778169 0.16633298891403625
vn 0.7519195117456369 0.3937675674606342 0.5287382629168594
vn 0.49231673596384223 0.3930259273681521 0.7766304474499518
vn 0.4521695326331996 0.20778241527903957 0.8673921729293401
vn 0.7519195117456369 0.3937675674606342 0.5287382629168594
vn 0.4521695326331996 0.20778241527903957 0.8673921729293401
vn 0.8144933584827793 0.3691283466006885 0.44759896416690326
vn 0.7351557334837477 0.10119203096014898 0.6703030809985384
vn 0.2945295347633642 -0.005615485869445301 0.9556258784014412
vn 0.27533393890038454 -0.3074724352946559 0.9108523061526347
vn 0.7351557334837477 0.10119203096014898 0.6703030809985384
vn 0.27533393890038454 -0.3074724352946559 0.9108523061526347
vn 0.8394595480201718 -0.2166381945207556 0.49837291249881976
vn 0.8394595480201718 -0.2166381945207556 0.49837291249881976
vn 0.9486672305923279 -0.13791728677759263 0.28462134074624523
vn 0.9183399253364768 0.2575500190580506 0.3005324761422501
vn 0.8394595480201718 -0.2166381945207556 0.49837291249881976
vn 0.9183399253364768 0.2575500190580506 0.3005324761422501
vn 0.7351557334837477 0.10119203096014898 0.6703030809985384
vn -0.06293818356509104 -0.6119708420695978 0.7883720400332284
vn 0.3219877458031392 -0.6515428972518985 0.6868884513465159
vn 0.27533393890038454 -0.3074724352946559 0.9108523061526347
vn -0.06293818356509104 -0.6119708420695978 0.7883720400332284
vn 0.27533393890038454 -0.3074724352946559 0.9108523061526347
vn 0.05053123725250782 -0.31689225959476874 0.9471145072643816
vn 0.07999598099143317 -0.10545389683230634 0.9912013512239072
vn 0.05053123725250782 -0.31689225959476874 0.9471145072643816
vn 0.27533393890038454 -0.3074724352946559 0.9108523061526347
vn 0.07999598099143317 -0.10545389683230634 0.9912013512239072
vn 0.27533393890038454 -0.3074724352946559 0.9108523061526347
vn 0.2945295347633642 -0.005615485869445301 0.9556258784014412
vn -0.40650722961679847 -0.8916714856431726 0.1991829158340969
vn -0.47387911440560965 -0.879786647954424 -0.03760371007325456
vn 0.01966155501379767 -0.992343959522247 0.12192985382648674
vn -0.40650722961679847 -0.8916714856431726 0.1991829158340969
vn -0.5683186641044822 -0.8153001989840771 -0.11090302776309113
vn -0.47387911440560965 -0.879786647954424 -0.03760371007325456
vn 0.8144933584827793 0.3691283466006885 0.44759896416690326
vn 0.8633107405062574 0.43267231488371655 0.25978689970763263
vn 0.8859017007451802 0.40011352807198736 0.23470692633704782
vn 0.8144933584827793 0.3691283466006885 0.44759896416690326
vn 0.8859017007451802 0.40011352807198736 0.23470692633704782
vn 0.7519195117456369 0.3937675674606342 0.5287382629168594
vn 0.8144933584827793 0.3691283466006885 0.44759896416690326
vn 0.4521695326331996 0.20778241527903957 0.8673921729293401
vn 0.2945295347633642 -0.005615485869445301 0.9556258784014412
vn 0.8144933584827793 0.3691283466006885 0.44759896416690326
vn 0.2945295347633642 -0.005615485869445301 0.9556258784014412
vn 0.7351557334837477 0.10119203096014898 0.6703030809985384
vn 0.7813349914458495 -0.6015388332778169 0.16633298891403625
vn 0.9486672305923279 -0.13791728677759263 0.28462134074624523
vn 0.8394595480201718 -0.2166381945207556 0.49837291249881976
vn 0.7813349914458495 -0.6015388332778169 0.16633298891403625
vn 0.8394595480201718 -0.2166381945207556 0.49837291249881976
vn 0.6135602782472249 -0.675937911833482 0.4082299894708616
vn 0.9183399253364768 0.2575500190580506 0.3005324761422501
vn 0.8633107405062574 0.43267231488371655 0.25978689970763263
vn 0.8144933584827793 0.3691283466006885 0.44759896416690326
vn 0.9183399253364768 0.2575500190580506 0.3005324761422501
vn 0.8144933584827793 0.3691283466006885 0.44759896416690326
vn 0.7351557334837477 0.10119203096014898 0.6703030809985384
vn 0.01966155501379767 -0.992343959522247 0.12192985382648674
vn 0.3219877458031392 -0.6515428972518985 0.6868884513465159
vn -0.06293818356509104 -0.6119708420695978 0.7883720400332284
vn 0.01966155501379767 -0.992343959522247 0.12192985382648674
vn -0.06293818356509104 -0.6119708420695978 0.7883720400332284
vn -0.40650722961679847 -0.8916714856431726 0.1991829158340969
vn 0.01966155501379767 -0.992343959522247 0.12192985382648674
vn 0.3513831309107098 -0.8781396875022284 -0.32465456187288594
vn 0.5984884478819604 -0.792281803598434 0.11874814288507667
vn 0.01966155501379767 -0.992343959522247 0.12192985382648674
vn -0.3682381535321773 -0.9002832697886823 -0.23214369778611593
vn 0.05229680979302108 -0.9236112822585064 -0.3797462876319796
vn 0.3219877458031392 -0.6515428972518985 0.6868884513465159
vn 0.01966155501379767 -0.992343959522247 0.12192985382648674
vn 0.5984884478819604 -0.792281803598434 0.11874814288507667
vn 0.3219877458031392 -0.6515428972518985 0.6868884513465159
vn 0.5984884478819604 -0.792281803598434 0.11874814288507667
vn 0.6135602782472249 -0.675937911833482 0.4082299894708616
vn 0.2945295347633642 -0.005615485869445301 0.9556258784014412
vn 0.4521695326331996 0.20778241527903957 0.8673921729293401
vn 0.1634262950240958 -0.039758686000903556 0.9857540732769908
vn 0.2945295347633642 -0.005615485869445301 0.9556258784014412
vn 0.1634262950240958 -0.039758686000903556 0.9857540732769908
vn 0.07999598099143317 -0.10545389683230634 0.9912013512239072
vn 0.05229680979302108 -0.9236112822585064 -0.3797462876319796
vn 0.3513831309107098 -0.8781396875022284 -0.32465456187288594
vn 0.01966155501379767 -0.992343959522247 0.12192985382648674
vn 0.05229680979302108 -0.9236112822585064 -0.3797462876319796
vn -0.15185755740428972 -0.8673858188854842 -0.473899908689125
vn 0.29152633895797525 -0.7663211600631 -0.5725070072351119
vn 0.05229680979302108 -0.9236112822585064 -0.3797462876319796
vn 0.29152633895797525 -0.7663211600631 -0.5725070072351119
vn 0.3513831309107098 -0.8781396875022284 -0.32465456187288594
vn 0.3513831309107098 -0.8781396875022284 -0.32465456187288594
vn 0.4770477383490749 -0.7095632507525873 -0.5185995068619458
vn 0.6031619691898603 -0.7868441659496745 -0.13065947127541377
vn 0.3513831309107098 -0.8781396875022284 -0.32465456187288594
vn 0.6031619691898603 -0.7868441659496745 -0.13065947127541377
vn 0.5984884478819604 -0.792281803598434 0.11874814288507667
vn 0.3513831309107098 -0.8781396875022284 -0.32465456187288594
vn 0.29152633895797525 -0.7663211600631 -0.5725070072351119
vn 0.4770477383490749 -0.7095632507525873 -0.5185995068619458
vn -0.47387911440560965 -0.879786647954424 -0.03760371007325456
vn -0.5683186641044822 -0.8153001989840771 -0.11090302776309113
vn -0.4619258240034268 -0.8446110347694478 -0.2706598105822845
vn -0.47387911440560965 -0.879786647954424 -0.03760371007325456
vn -0.4619258240034268 -0.8446110347694478 -0.2706598105822845
vn -0.3682381535321773 -0.9002832697886823 -0.23214369778611593
vn 0.6031619691898603 -0.7868441659496745 -0.13065947127541377
vn 0.4770477383490749 -0.7095632507525873 -0.5185995068619458
vn 0.5460549059747343 -0.8375717497864649 -0.017251191859231838
vn -0.3682381535321773 -0.9002832697886823 -0.23214369778611593
vn 0.01966155501379767 -0.992343959522247 0.12192985382648674
vn -0.47387911440560965 -0.879786647954424 -0.03760371007325456
vn -0.3682381535321773 -0.9002832697886823 -0.23214369778611593
vn -0.4619258240034268 -0.8446110347694478 -0.2706598105822845
vn -0.15185755740428972 -0.8673858188854842 -0.473899908689125
vn -0.3682381535321773 -0.9002832697886823 -0.23214369778611593
vn -0.15185755740428972 -0.8673858188854842 -0.473899908689125
vn 0.05229680979302108 -0.9236112822585064 -0.3797462876319796
f 1/1/1 2/2/2 3/3/3
f 4/4/4 5/5/5 6/6/6
f 7/7/7 8/8/8 9/9/9
f 10/10/10 11/11/11 12/12/12
f 13/13/13 14/14/14 15/15/15
f 16/16/16 17/17/17 18/18/18
f 19/19/19 20/20/20 21/21/21
f 22/22/22 23/23/23 24/24/24
f 25/25/25 26/26/26 27/27/27
f 28/28/28 29/29/29 30/30/30
f 31/31/31 32/32/32 33/33/33
f 34/34/34 35/35/35 36/36/36
f 37/37/37 38/38/38 39/39/39
f 40/40/40 41/41/41 42/42/42
f 43/43/43 44/44/44 45/45/45
f 46/46/46 47/47/47 48/48/48
f 49/49/49 50/50/50 51/51/51
f 52/52/52 53/53/53 54/54/54
f 55/55/55 56/56/56 57/57/57
f 58/58/58 59/59/59 60/60/60
f 61/61/61 62/62/62 63/63/63
f 64/64/64 65/65/65 66/66/66
f 67/67/67 68/68/68 69/69/69
f 70/70/70 71/71/71 72/72/72
f 73/73/73 74/74/74 75/75/75
f 76/76/76 77/77/77 78/78/78
f 79/79/79 80/80/80 81/81/81
f 82/82/82 83/83/83 84/84/84
f 85/85/85 86/86/86 87/87/87
f 88/88/88 89/89/89 90/90/90
f 91/91/91 92/92/92 93/93/93
f 94/94/94 95/95/95 96/96/96
f 97/97/97 98/98/98 99/99/99
f 100/100/100 101/101/101 102/102/102
f 103/103/103 104/104/104 105/105/105
f 106/106/106 107/107/107 108/108/108
f 109/109/109 110/110/110 111/111/111
f 112/112/112 113/113/113 114/114/114
f 115/115/115 116/116/116 117/117/117
f 118/118/118 119/119/119 120/120/120
f 121/121/121 122/122/122 123/123/123
f 124/124/124 125/125/125 126/126/126
f 127/127/127 128/128/128 129/129/129
f 130/130/130 131/131/131 132/132/132
f 133/133/133 134/134/134 135/135/135
