mtllib ArcadaCompleta.mtl
o D21N_NUC
usemtl MatNucleo
v 2.2434399127960205 20.213083267211914 0.2729997343649347
v 2.3886001110076904 23.327472686767578 0.27300074764389654
v 2.5076000690460205 23.327472686767578 -0.45718225768905024
v 3.8772499561309814 24.546302795410156 -1.5863392048249754
v 6.876729965209961 20.51200294494629 -0.09407715431552333
v 2.5076000690460205 23.327472686767578 -0.45718225768905024
v 2.2434399127960205 20.213083267211914 0.2729997343649347
v 2.8790600299835205 24.546302795410156 1.7698507613768069
v 2.3886001110076904 23.327472686767578 0.27300074764389654
v 2.8790600299835205 24.546302795410156 1.7698507613768069
v 2.2434399127960205 20.213083267211914 0.2729997343649347
v 5.515979766845703 21.889312744140625 1.6174007958998167
v 2.5076000690460205 23.327472686767578 -0.45718225768905024
v 2.827630043029785 24.96086311340332 -0.48419925502639116
v 3.2289199829101562 26.286823272705078 -1.1266292028794793
v 2.5076000690460205 23.327472686767578 -0.45718225768905024
v 2.3886001110076904 23.327472686767578 0.27300074764389654
v 2.7056400775909424 24.57381248474121 0.2730007476438968
v 2.827630043029785 24.96086311340332 -0.48419925502639116
v 2.5076000690460205 23.327472686767578 -0.45718225768905024
v 2.7056400775909424 24.57381248474121 0.2730007476438968
v 2.7056400775909424 24.57381248474121 0.2730007476438968
v 2.3886001110076904 23.327472686767578 0.27300074764389654
v 2.827630043029785 24.80893325805664 1.030200750314185
v 2.8790600299835205 24.546302795410156 1.7698507613768069
v 3.3125200271606445 26.286823272705078 1.6726306981672736
v 2.827630043029785 24.80893325805664 1.030200750314185
v 2.3886001110076904 23.327472686767578 0.27300074764389654
v 2.8790600299835205 24.546302795410156 1.7698507613768069
v 2.827630043029785 24.80893325805664 1.030200750314185
v 3.758660078048706 25.418582916259766 2.35800078579087
v 3.3125200271606445 26.286823272705078 1.6726306981672736
v 2.8790600299835205 24.546302795410156 1.7698507613768069
v 5.515979766845703 21.889312744140625 1.6174007958998167
v 3.758660078048706 25.418582916259766 2.35800078579087
v 2.8790600299835205 24.546302795410156 1.7698507613768069
v 5.515979766845703 21.889312744140625 1.6174007958998167
v 6.295209884643555 25.498764038085938 1.9105607576002568
v 3.758660078048706 25.418582916259766 2.35800078579087
v 5.448740005493164 26.79355239868164 2.108420640908668
v 6.295209884643555 25.498764038085938 1.9105607576002568
v 6.028210163116455 26.286823272705078 1.6726306981672736
v 3.891979932785034 26.79355239868164 2.108420640908668
v 3.758660078048706 25.418582916259766 2.35800078579087
v 4.670360088348389 26.81466293334961 2.2723007506956554
v 3.3125200271606445 26.286823272705078 1.6726306981672736
v 3.758660078048706 25.418582916259766 2.35800078579087
v 3.891979932785034 26.79355239868164 2.108420640908668
v 3.758660078048706 25.418582916259766 2.35800078579087
v 6.295209884643555 25.498764038085938 1.9105607576002568
v 5.448740005493164 26.79355239868164 2.108420640908668
v 4.670360088348389 26.81466293334961 2.2723007506956554
v 3.758660078048706 25.418582916259766 2.35800078579087
v 5.448740005493164 26.79355239868164 2.108420640908668
v 5.515979766845703 21.889312744140625 1.6174007958998167
v 6.705100059509277 20.576053619384766 0.7579227394689997
v 6.295209884643555 25.498764038085938 1.9105607576002568
v 6.705100059509277 20.576053619384766 0.7579227394689997
v 6.876729965209961 20.51200294494629 -0.09407715431552333
v 6.5709099769592285 25.21771240234375 0.273000747643897
v 6.5131001472473145 25.525182723999023 1.030200750314185
v 6.705100059509277 20.576053619384766 0.7579227394689997
v 6.5709099769592285 25.21771240234375 0.273000747643897
v 6.111810207366943 26.286823272705078 -1.1266292028794793
v 6.5131001472473145 25.525182723999023 -0.48419925502639105
v 6.876729965209961 20.51200294494629 -0.09407715431552333
v 6.028210163116455 26.286823272705078 1.6726306981672736
v 6.295209884643555 25.498764038085938 1.9105607576002568
v 6.5131001472473145 25.525182723999023 1.030200750314185
v 6.5709099769592285 25.21771240234375 0.273000747643897
v 6.876729965209961 20.51200294494629 -0.09407715431552333
v 6.5131001472473145 25.525182723999023 -0.48419925502639105
v 6.705100059509277 20.576053619384766 0.7579227394689997
v 6.5131001472473145 25.525182723999023 1.030200750314185
v 6.295209884643555 25.498764038085938 1.9105607576002568
v 6.705100059509277 20.576053619384766 0.7579227394689997
v 6.201330184936523 20.18646240234375 0.6252787417997796
v 6.876729965209961 20.51200294494629 -0.09407715431552333
v 2.2434399127960205 20.213083267211914 0.2729997343649347
v 6.876729965209961 20.51200294494629 -0.09407715431552333
v 6.201330184936523 20.18646240234375 0.6252787417997796
v 6.201330184936523 20.18646240234375 0.6252787417997796
v 5.515979766845703 21.889312744140625 1.6174007958998167
v 2.2434399127960205 20.213083267211914 0.2729997343649347
v 6.705100059509277 20.576053619384766 0.7579227394689997
v 5.515979766845703 21.889312744140625 1.6174007958998167
v 6.201330184936523 20.18646240234375 0.6252787417997796
v 2.2434399127960205 20.213083267211914 0.2729997343649347
v 2.5076000690460205 23.327472686767578 -0.45718225768905024
v 6.876729965209961 20.51200294494629 -0.09407715431552333
v 3.8772499561309814 24.546302795410156 -1.5863392048249754
v 3.891979932785034 26.79355239868164 -1.5624192648301627
v 4.670360088348389 26.814674377441406 -1.7262992554078604
v 3.8772499561309814 24.546302795410156 -1.5863392048249754
v 5.448740005493164 26.79355239868164 -1.5624192648301627
v 6.876729965209961 20.51200294494629 -0.09407715431552333
v 3.891979932785034 26.79355239868164 -1.5624192648301627
v 3.8772499561309814 24.546302795410156 -1.5863392048249754
v 2.5076000690460205 23.327472686767578 -0.45718225768905024
v 3.2289199829101562 26.286823272705078 -1.1266292028794793
v 3.891979932785034 26.79355239868164 -1.5624192648301627
v 2.5076000690460205 23.327472686767578 -0.45718225768905024
v 4.670360088348389 26.814674377441406 -1.7262992554078604
v 5.448740005493164 26.79355239868164 -1.5624192648301627
v 3.8772499561309814 24.546302795410156 -1.5863392048249754
v 6.876729965209961 20.51200294494629 -0.09407715431552333
v 5.448740005493164 26.79355239868164 -1.5624192648301627
v 6.111810207366943 26.286823272705078 -1.1266292028794793
vt 0.0004995469935238361 0.004511654376983643
vt 0.0317980982363224 0.47391098737716675
vt 0.05745609849691391 0.47391098737716675
vt 0.35277101397514343 0.6576129794120789
vt 0.9995009899139404 0.04956471920013428
vt 0.05745609849691391 0.47391098737716675
vt 0.0004995469935238361 0.004511654376983643
vt 0.13754799962043762 0.6576129794120789
vt 0.0317980982363224 0.47391098737716675
vt 0.13754799962043762 0.6576129794120789
vt 0.0004995469935238361 0.004511654376983643
vt 0.7061039805412292 0.2571519613265991
vt 0.05745609849691391 0.47391098737716675
vt 0.126459002494812 0.7200949788093567
vt 0.21298299729824066 0.9199429750442505
vt 0.05745609849691391 0.47391098737716675
vt 0.0317980982363224 0.47391098737716675
vt 0.10015600174665451 0.6617590188980103
vt 0.126459002494812 0.7200949788093567
vt 0.05745609849691391 0.47391098737716675
vt 0.10015600174665451 0.6617590188980103
vt 0.10015600174665451 0.6617590188980103
vt 0.0317980982363224 0.47391098737716675
vt 0.126459002494812 0.6971960067749023
vt 0.13754799962043762 0.6576129794120789
vt 0.23100799322128296 0.9199429750442505
vt 0.126459002494812 0.6971960067749023
vt 0.0317980982363224 0.47391098737716675
vt 0.13754799962043762 0.6576129794120789
vt 0.126459002494812 0.6971960067749023
vt 0.3272019922733307 0.7890819907188416
vt 0.23100799322128296 0.9199429750442505
vt 0.13754799962043762 0.6576129794120789
vt 0.7061039805412292 0.2571519613265991
vt 0.3272019922733307 0.7890819907188416
vt 0.13754799962043762 0.6576129794120789
vt 0.7061039805412292 0.2571519613265991
vt 0.8741170167922974 0.8011670112609863
vt 0.3272019922733307 0.7890819907188416
vt 0.6916059851646423 0.9963170289993286
vt 0.8741170167922974 0.8011670112609863
vt 0.8165479898452759 0.9199429750442505
vt 0.35594698786735535 0.9963170289993286
vt 0.3272019922733307 0.7890819907188416
vt 0.5237770080566406 0.9994990229606628
vt 0.23100799322128296 0.9199429750442505
vt 0.3272019922733307 0.7890819907188416
vt 0.35594698786735535 0.9963170289993286
vt 0.3272019922733307 0.7890819907188416
vt 0.8741170167922974 0.8011670112609863
vt 0.6916059851646423 0.9963170289993286
vt 0.5237770080566406 0.9994990229606628
vt 0.3272019922733307 0.7890819907188416
vt 0.6916059851646423 0.9963170289993286
vt 0.7061039805412292 0.2571519613265991
vt 0.9624950289726257 0.05921828746795654
vt 0.8741170167922974 0.8011670112609863
vt 0.9624950289726257 0.05921828746795654
vt 0.9995009899139404 0.04956471920013428
vt 0.9335610270500183 0.7588070034980774
vt 0.9210969805717468 0.8051490187644958
vt 0.9624950289726257 0.05921828746795654
vt 0.9335610270500183 0.7588070034980774
vt 0.834572970867157 0.9199429750442505
vt 0.9210969805717468 0.8051490187644958
vt 0.9995009899139404 0.04956471920013428
vt 0.8165479898452759 0.9199429750442505
vt 0.8741170167922974 0.8011670112609863
vt 0.9210969805717468 0.8051490187644958
vt 0.9335610270500183 0.7588070034980774
vt 0.9995009899139404 0.04956471920013428
vt 0.9210969805717468 0.8051490187644958
vt 0.9624950289726257 0.05921828746795654
vt 0.9210969805717468 0.8051490187644958
vt 0.8741170167922974 0.8011670112609863
vt 0.9624950289726257 0.05921828746795654
vt 0.8538749814033508 0.0004994869232177734
vt 0.9995009899139404 0.04956471920013428
vt 0.0004995469935238361 0.004511654376983643
vt 0.9995009899139404 0.04956471920013428
vt 0.8538749814033508 0.0004994869232177734
vt 0.8538749814033508 0.0004994869232177734
vt 0.7061039805412292 0.2571519613265991
vt 0.0004995469935238361 0.004511654376983643
vt 0.9624950289726257 0.05921828746795654
vt 0.7061039805412292 0.2571519613265991
vt 0.8538749814033508 0.0004994869232177734
vt 0.0004995469935238361 0.004511654376983643
vt 0.05745609849691391 0.47391098737716675
vt 0.9995009899139404 0.04956471920013428
vt 0.35277101397514343 0.6576129794120789
vt 0.35594698786735535 0.9963170289993286
vt 0.5237770080566406 0.9994999766349792
vt 0.35277101397514343 0.6576129794120789
vt 0.6916059851646423 0.9963170289993286
vt 0.9995009899139404 0.04956471920013428
vt 0.35594698786735535 0.9963170289993286
vt 0.35277101397514343 0.6576129794120789
vt 0.05745609849691391 0.47391098737716675
vt 0.21298299729824066 0.9199429750442505
vt 0.35594698786735535 0.9963170289993286
vt 0.05745609849691391 0.47391098737716675
vt 0.5237770080566406 0.9994999766349792
vt 0.6916059851646423 0.9963170289993286
vt 0.35277101397514343 0.6576129794120789
vt 0.9995009899139404 0.04956471920013428
vt 0.6916059851646423 0.9963170289993286
vt 0.834572970867157 0.9199429750442505
vn -0.6111176543433483 -0.7443228282923329 0.2692930371041667
vn -0.9885037068786015 0.1059273441359072 0.10788799401034854
vn -0.386160890028747 -0.24592229933949195 -0.8890455498453289
vn -0.06184524377257491 -0.262723344039106 -0.9628871223147708
vn 0.27472914802871046 -0.308357967635863 -0.9107355593249332
vn -0.386160890028747 -0.24592229933949195 -0.8890455498453289
vn -0.6111176543433483 -0.7443228282923329 0.2692930371041667
vn -0.5258104865782791 -0.18340223664086042 0.8305943364840886
vn -0.9885037068786015 0.1059273441359072 0.10788799401034854
vn -0.5258104865782791 -0.18340223664086042 0.8305943364840886
vn -0.6111176543433483 -0.7443228282923329 0.2692930371041667
vn -0.02040682395717085 -0.30030099075276817 0.9536261722965067
vn -0.386160890028747 -0.24592229933949195 -0.8890455498453289
vn -0.9730167025937777 0.18844065857301454 -0.13314884404342706
vn -0.731802224663653 0.02430063472945405 -0.6810836829120738
vn -0.386160890028747 -0.24592229933949195 -0.8890455498453289
vn -0.9885037068786015 0.1059273441359072 0.10788799401034854
vn -0.97336506444259 0.22455674432773662 -0.04620302911715001
vn -0.9730167025937777 0.18844065857301454 -0.13314884404342706
vn -0.386160890028747 -0.24592229933949195 -0.8890455498453289
vn -0.97336506444259 0.22455674432773662 -0.04620302911715001
vn -0.97336506444259 0.22455674432773662 -0.04620302911715001
vn -0.9885037068786015 0.1059273441359072 0.10788799401034854
vn -0.9634168765901588 0.23436050210256712 0.1300118339055916
vn -0.5258104865782791 -0.18340223664086042 0.8305943364840886
vn -0.807804741197497 0.22668210358901444 0.5441201374800458
vn -0.9634168765901588 0.23436050210256712 0.1300118339055916
vn -0.9885037068786015 0.1059273441359072 0.10788799401034854
vn -0.5258104865782791 -0.18340223664086042 0.8305943364840886
vn -0.9634168765901588 0.23436050210256712 0.1300118339055916
vn -0.048411136827362 -0.10450540898125843 0.9933453484688708
vn -0.807804741197497 0.22668210358901444 0.5441201374800458
vn -0.5258104865782791 -0.18340223664086042 0.8305943364840886
vn -0.02040682395717085 -0.30030099075276817 0.9536261722965067
vn -0.048411136827362 -0.10450540898125843 0.9933453484688708
vn -0.5258104865782791 -0.18340223664086042 0.8305943364840886
vn -0.02040682395717085 -0.30030099075276817 0.9536261722965067
vn 0.4746530841871258 -0.07178361099542048 0.8772408807528908
vn -0.048411136827362 -0.10450540898125843 0.9933453484688708
vn 0.2605302226005667 0.009774428387761568 0.9654162126572101
vn 0.4746530841871258 -0.07178361099542048 0.8772408807528908
vn 0.8423056045250507 0.3958323932091431 0.3658387418959498
vn -0.4602061611676608 0.20156702844213206 0.8646276784074944
vn -0.048411136827362 -0.10450540898125843 0.9933453484688708
vn 6.843391012120497e-9 0.06127085007559741 0.9981211764765906
vn -0.807804741197497 0.22668210358901444 0.5441201374800458
vn -0.048411136827362 -0.10450540898125843 0.9933453484688708
vn -0.4602061611676608 0.20156702844213206 0.8646276784074944
vn -0.048411136827362 -0.10450540898125843 0.9933453484688708
vn 0.4746530841871258 -0.07178361099542048 0.8772408807528908
vn 0.2605302226005667 0.009774428387761568 0.9654162126572101
vn 6.843391012120497e-9 0.06127085007559741 0.9981211764765906
vn -0.048411136827362 -0.10450540898125843 0.9933453484688708
vn 0.2605302226005667 0.009774428387761568 0.9654162126572101
vn -0.02040682395717085 -0.30030099075276817 0.9536261722965067
vn 0.8659047988517702 -0.09243028512818441 0.49159487560042564
vn 0.4746530841871258 -0.07178361099542048 0.8772408807528908
vn 0.8659047988517702 -0.09243028512818441 0.49159487560042564
vn 0.27472914802871046 -0.308357967635863 -0.9107355593249332
vn 0.995981427902064 0.05100469153212363 0.07361736694475421
vn 0.9839713001649406 0.05941255790443268 0.16813871777484393
vn 0.8659047988517702 -0.09243028512818441 0.49159487560042564
vn 0.995981427902064 0.05100469153212363 0.07361736694475421
vn 0.6881973633247475 -0.038386612515939125 -0.7245073202476403
vn 0.9593660266803644 0.047948901513401816 -0.27806065830172455
vn 0.27472914802871046 -0.308357967635863 -0.9107355593249332
vn 0.8423056045250507 0.3958323932091431 0.3658387418959498
vn 0.4746530841871258 -0.07178361099542048 0.8772408807528908
vn 0.9839713001649406 0.05941255790443268 0.16813871777484393
vn 0.995981427902064 0.05100469153212363 0.07361736694475421
vn 0.27472914802871046 -0.308357967635863 -0.9107355593249332
vn 0.9593660266803644 0.047948901513401816 -0.27806065830172455
vn 0.8659047988517702 -0.09243028512818441 0.49159487560042564
vn 0.9839713001649406 0.05941255790443268 0.16813871777484393
vn 0.4746530841871258 -0.07178361099542048 0.8772408807528908
vn 0.8659047988517702 -0.09243028512818441 0.49159487560042564
vn -0.004392612034323132 -0.7807563142487994 0.624820200313775
vn 0.27472914802871046 -0.308357967635863 -0.9107355593249332
vn -0.6111176543433483 -0.7443228282923329 0.2692930371041667
vn 0.27472914802871046 -0.308357967635863 -0.9107355593249332
vn -0.004392612034323132 -0.7807563142487994 0.624820200313775
vn -0.004392612034323132 -0.7807563142487994 0.624820200313775
vn -0.02040682395717085 -0.30030099075276817 0.9536261722965067
vn -0.6111176543433483 -0.7443228282923329 0.2692930371041667
vn 0.8659047988517702 -0.09243028512818441 0.49159487560042564
vn -0.02040682395717085 -0.30030099075276817 0.9536261722965067
vn -0.004392612034323132 -0.7807563142487994 0.624820200313775
vn -0.6111176543433483 -0.7443228282923329 0.2692930371041667
vn -0.386160890028747 -0.24592229933949195 -0.8890455498453289
vn 0.27472914802871046 -0.308357967635863 -0.9107355593249332
vn -0.06184524377257491 -0.262723344039106 -0.9628871223147708
vn -0.5186444384134977 -0.007889685012890986 -0.8549536241066793
vn 0 -0.06158356258450912 -0.9981019310768815
vn -0.06184524377257491 -0.262723344039106 -0.9628871223147708
vn 0.29932909948575376 -0.14747463040902747 -0.9426841059372798
vn 0.27472914802871046 -0.308357967635863 -0.9107355593249332
vn -0.5186444384134977 -0.007889685012890986 -0.8549536241066793
vn -0.06184524377257491 -0.262723344039106 -0.9628871223147708
vn -0.386160890028747 -0.24592229933949195 -0.8890455498453289
vn -0.731802224663653 0.02430063472945405 -0.6810836829120738
vn -0.5186444384134977 -0.007889685012890986 -0.8549536241066793
vn -0.386160890028747 -0.24592229933949195 -0.8890455498453289
vn 0 -0.06158356258450912 -0.9981019310768815
vn 0.29932909948575376 -0.14747463040902747 -0.9426841059372798
vn -0.06184524377257491 -0.262723344039106 -0.9628871223147708
vn 0.27472914802871046 -0.308357967635863 -0.9107355593249332
vn 0.29932909948575376 -0.14747463040902747 -0.9426841059372798
vn 0.6881973633247475 -0.038386612515939125 -0.7245073202476403
f 1/1/1 2/2/2 3/3/3
f 4/4/4 5/5/5 6/6/6
f 7/7/7 8/8/8 9/9/9
f 10/10/10 11/11/11 12/12/12
f 13/13/13 14/14/14 15/15/15
f 16/16/16 17/17/17 18/18/18
f 19/19/19 20/20/20 21/21/21
f 22/22/22 23/23/23 24/24/24
f 25/25/25 26/26/26 27/27/27
f 28/28/28 29/29/29 30/30/30
f 31/31/31 32/32/32 33/33/33
f 34/34/34 35/35/35 36/36/36
f 37/37/37 38/38/38 39/39/39
f 40/40/40 41/41/41 42/42/42
f 43/43/43 44/44/44 45/45/45
f 46/46/46 47/47/47 48/48/48
f 49/49/49 50/50/50 51/51/51
f 52/52/52 53/53/53 54/54/54
f 55/55/55 56/56/56 57/57/57
f 58/58/58 59/59/59 60/60/60
f 61/61/61 62/62/62 63/63/63
f 64/64/64 65/65/65 66/66/66
f 67/67/67 68/68/68 69/69/69
f 70/70/70 71/71/71 72/72/72
f 73/73/73 74/74/74 75/75/75
f 76/76/76 77/77/77 78/78/78
f 79/79/79 80/80/80 81/81/81
f 82/82/82 83/83/83 84/84/84
f 85/85/85 86/86/86 87/87/87
f 88/88/88 89/89/89 90/90/90
f 91/91/91 92/92/92 93/93/93
f 94/94/94 95/95/95 96/96/96
f 97/97/97 98/98/98 99/99/99
f 100/100/100 101/101/101 102/102/102
f 103/103/103 104/104/104 105/105/105
f 106/106/106 107/107/107 108/108/108
