mtllib ArcadaCompleta.mtl
o D22C_I
usemtl Esmalte
v 11.203200340270996 18.97051239013672 0.9085397429098563
v 11.240300178527832 17.689987182617188 0.4064357585539295
v 12.321999549865723 17.649471282958984 0.40701773830551635
v 12.321999549865723 18.950252532958984 0.9485887593855338
v 11.203200340270996 18.97051239013672 0.9085397429098563
v 12.321999549865723 17.649471282958984 0.40701773830551635
v 11.240300178527832 17.514036178588867 -0.001224674304463155
v 12.321999549865723 17.473520278930664 -0.001224674304463164
v 12.321999549865723 17.649471282958984 0.40701773830551635
v 11.240300178527832 17.689987182617188 0.4064357585539295
v 11.240300178527832 17.514036178588867 -0.001224674304463155
v 12.321999549865723 17.649471282958984 0.40701773830551635
v 13.440799713134766 18.901222229003906 -0.7149882607827707
v 13.40369987487793 17.917308807373047 -0.524696260012202
v 12.321999549865723 17.876792907714844 -0.525278239763789
v 12.321999549865723 18.880962371826172 -0.7202942662606759
v 13.440799713134766 18.901222229003906 -0.7149882607827707
v 12.321999549865723 17.876792907714844 -0.525278239763789
v 13.40369987487793 17.514036178588867 -0.001224674304463155
v 12.321999549865723 17.473520278930664 -0.001224674304463164
v 12.321999549865723 17.876792907714844 -0.525278239763789
v 13.40369987487793 17.917308807373047 -0.524696260012202
v 13.40369987487793 17.514036178588867 -0.001224674304463155
v 12.321999549865723 17.876792907714844 -0.525278239763789
v 10.229399681091309 17.923349380493164 -0.5546622567544506
v 10.183199882507324 17.520076751708984 -0.0012246743044631535
v 8.996990203857422 18.256473541259766 -0.004313164177797756
v 9.212590217590332 18.663652420043945 -0.4659182422528788
v 10.229399681091309 17.923349380493164 -0.5546622567544506
v 8.996990203857422 18.256473541259766 -0.004313164177797756
v 10.183199882507324 17.520076751708984 -0.0012246743044631535
v 10.229399681091309 17.696027755737305 0.43640175529617803
v 9.212360382080078 18.22843360900879 0.47377973862785844
v 8.996990203857422 18.256473541259766 -0.004313164177797756
v 10.183199882507324 17.520076751708984 -0.0012246743044631535
v 9.212360382080078 18.22843360900879 0.47377973862785844
v 10.229399681091309 17.696027755737305 0.43640175529617803
v 10.221400260925293 18.973533630371094 0.8810657567610221
v 9.212360382080078 18.22843360900879 0.47377973862785844
v 12.321999549865723 17.473520278930664 -0.001224674304463164
v 13.40369987487793 17.514036178588867 -0.001224674304463155
v 13.40369987487793 17.689987182617188 0.4064357585539295
v 12.321999549865723 17.649471282958984 0.40701773830551635
v 12.321999549865723 17.473520278930664 -0.001224674304463164
v 13.40369987487793 17.689987182617188 0.4064357585539295
v 14.460800170898438 17.90534019470215 -0.0012246442693100367
v 14.414600372314453 18.0812931060791 0.4364017552961781
v 13.40369987487793 17.689987182617188 0.4064357585539295
v 13.40369987487793 17.514036178588867 -0.001224674304463155
v 14.460800170898438 17.90534019470215 -0.0012246442693100367
v 13.40369987487793 17.689987182617188 0.4064357585539295
v 14.422599792480469 18.983213424682617 0.8124577707876639
v 13.440799713134766 18.97051239013672 0.9085397429098563
v 13.40369987487793 17.689987182617188 0.4064357585539295
v 14.414600372314453 18.0812931060791 0.4364017552961781
v 14.422599792480469 18.983213424682617 0.8124577707876639
v 13.40369987487793 17.689987182617188 0.4064357585539295
v 12.321999549865723 17.473520278930664 -0.001224674304463164
v 11.240300178527832 17.514036178588867 -0.001224674304463155
v 11.240300178527832 17.917308807373047 -0.524696260012202
v 12.321999549865723 17.876792907714844 -0.525278239763789
v 12.321999549865723 17.473520278930664 -0.001224674304463164
v 11.240300178527832 17.917308807373047 -0.524696260012202
v 10.183199882507324 17.520076751708984 -0.0012246743044631535
v 10.229399681091309 17.923349380493164 -0.5546622567544506
v 11.240300178527832 17.917308807373047 -0.524696260012202
v 11.240300178527832 17.514036178588867 -0.001224674304463155
v 10.183199882507324 17.520076751708984 -0.0012246743044631535
v 11.240300178527832 17.917308807373047 -0.524696260012202
v 10.221400260925293 18.90424346923828 -0.7570012503037973
v 11.203200340270996 18.901222229003906 -0.7149882607827707
v 11.240300178527832 17.917308807373047 -0.524696260012202
v 10.229399681091309 17.923349380493164 -0.5546622567544506
v 10.221400260925293 18.90424346923828 -0.7570012503037973
v 11.240300178527832 17.917308807373047 -0.524696260012202
v 10.229399681091309 17.696027755737305 0.43640175529617803
v 10.183199882507324 17.520076751708984 -0.0012246743044631535
v 11.240300178527832 17.514036178588867 -0.001224674304463155
v 11.240300178527832 17.689987182617188 0.4064357585539295
v 10.229399681091309 17.696027755737305 0.43640175529617803
v 11.240300178527832 17.514036178588867 -0.001224674304463155
v 14.414600372314453 18.308612823486328 -0.5546622567544506
v 14.460800170898438 17.90534019470215 -0.0012246442693100367
v 13.40369987487793 17.514036178588867 -0.001224674304463155
v 13.40369987487793 17.917308807373047 -0.524696260012202
v 14.414600372314453 18.308612823486328 -0.5546622567544506
v 13.40369987487793 17.514036178588867 -0.001224674304463155
v 14.749799728393555 18.42803382873535 0.45552775331635026
v 14.414600372314453 18.0812931060791 0.4364017552961781
v 14.460800170898438 17.90534019470215 -0.0012246442693100367
v 14.972200393676758 18.319252014160156 -0.0012246042224392363
v 14.749799728393555 18.42803382873535 0.45552775331635026
v 14.460800170898438 17.90534019470215 -0.0012246442693100367
v 9.212590217590332 18.663652420043945 -0.4659182422528788
v 10.221400260925293 18.90424346923828 -0.7570012503037973
v 10.229399681091309 17.923349380493164 -0.5546622567544506
v 11.203200340270996 18.97051239013672 0.9085397429098563
v 10.221400260925293 18.973533630371094 0.8810657567610221
v 10.229399681091309 17.696027755737305 0.43640175529617803
v 11.240300178527832 17.689987182617188 0.4064357585539295
v 11.203200340270996 18.97051239013672 0.9085397429098563
v 10.229399681091309 17.696027755737305 0.43640175529617803
v 13.440799713134766 18.901222229003906 -0.7149882607827707
v 14.422599792480469 18.959651947021484 -0.7570012503037973
v 14.414600372314453 18.308612823486328 -0.5546622567544506
v 13.40369987487793 17.917308807373047 -0.524696260012202
v 13.440799713134766 18.901222229003906 -0.7149882607827707
v 14.414600372314453 18.308612823486328 -0.5546622567544506
v 14.414600372314453 18.0812931060791 0.4364017552961781
v 14.749799728393555 18.42803382873535 0.45552775331635026
v 14.422599792480469 18.983213424682617 0.8124577707876639
v 13.40369987487793 17.689987182617188 0.4064357585539295
v 13.440799713134766 18.97051239013672 0.9085397429098563
v 12.321999549865723 18.950252532958984 0.9485887593855338
v 12.321999549865723 17.649471282958984 0.40701773830551635
v 13.40369987487793 17.689987182617188 0.4064357585539295
v 12.321999549865723 18.950252532958984 0.9485887593855338
v 11.240300178527832 17.917308807373047 -0.524696260012202
v 11.203200340270996 18.901222229003906 -0.7149882607827707
v 12.321999549865723 18.880962371826172 -0.7202942662606759
v 12.321999549865723 17.876792907714844 -0.525278239763789
v 11.240300178527832 17.917308807373047 -0.524696260012202
v 12.321999549865723 18.880962371826172 -0.7202942662606759
v 14.414600372314453 18.308612823486328 -0.5546622567544506
v 14.422599792480469 18.959651947021484 -0.7570012503037973
v 14.81029987335205 18.556663513183594 -0.4854582541356608
v 14.414600372314453 18.308612823486328 -0.5546622567544506
v 14.81029987335205 18.556663513183594 -0.4854582541356608
v 14.972200393676758 18.319252014160156 -0.0012246042224392363
v 14.460800170898438 17.90534019470215 -0.0012246442693100367
v 14.414600372314453 18.308612823486328 -0.5546622567544506
v 14.972200393676758 18.319252014160156 -0.0012246042224392363
vt 0.3352000117301941 0.16742998361587524
vt 0.340828001499176 0.024637818336486816
vt 0.5049309730529785 0.020119786262512207
vt 0.5049309730529785 0.16517102718353271
vt 0.3352000117301941 0.16742998361587524
vt 0.5049309730529785 0.020119786262512207
vt 0.659171998500824 0.5
vt 0.4950689971446991 0.5
vt 0.4950689971446991 0.4258580207824707
vt 0.659171998500824 0.42596399784088135
vt 0.659171998500824 0.5
vt 0.4950689971446991 0.4258580207824707
vt 0.3253380060195923 0.15970301628112793
vt 0.3309659957885742 0.049986422061920166
vt 0.4950689971446991 0.04546856880187988
vt 0.4950689971446991 0.15744400024414062
vt 0.3253380060195923 0.15970301628112793
vt 0.4950689971446991 0.04546856880187988
vt 0.3309659957885742 0.005017399787902832
vt 0.4950689971446991 0.000499427318572998
vt 0.4950689971446991 0.04546856880187988
vt 0.3309659957885742 0.049986422061920166
vt 0.3309659957885742 0.005017399787902832
vt 0.4950689971446991 0.04546856880187988
vt 0.812533974647522 0.050660014152526855
vt 0.8195430040359497 0.005690932273864746
vt 0.9994999766349792 0.08780688047409058
vt 0.9667919874191284 0.13321197032928467
vt 0.812533974647522 0.050660014152526855
vt 0.9994999766349792 0.08780688047409058
vt 0.8195430040359497 0.5
vt 0.812533974647522 0.42052197456359863
vt 0.9668269753456116 0.41373395919799805
vt 0.9994999766349792 0.500560998916626
vt 0.8195430040359497 0.5
vt 0.9668269753456116 0.41373395919799805
vt 0.18746599555015564 0.025311291217803955
vt 0.18625299632549286 0.16776597499847412
vt 0.0331730991601944 0.08468008041381836
vt 0.4950689971446991 0.5
vt 0.3309659957885742 0.5
vt 0.3309659957885742 0.42596399784088135
vt 0.4950689971446991 0.4258580207824707
vt 0.4950689971446991 0.5
vt 0.3309659957885742 0.42596399784088135
vt 0.17059500515460968 0.5
vt 0.17760400474071503 0.42052197456359863
vt 0.3309659957885742 0.42596399784088135
vt 0.3309659957885742 0.5
vt 0.17059500515460968 0.5
vt 0.3309659957885742 0.42596399784088135
vt 0.8236100077629089 0.1688460111618042
vt 0.6746619939804077 0.16742998361587524
vt 0.6690340042114258 0.024637818336486816
vt 0.8223959803581238 0.06827247142791748
vt 0.8236100077629089 0.1688460111618042
vt 0.6690340042114258 0.024637818336486816
vt 0.4950689971446991 0.000499427318572998
vt 0.659171998500824 0.005017399787902832
vt 0.659171998500824 0.049986422061920166
vt 0.4950689971446991 0.04546856880187988
vt 0.4950689971446991 0.000499427318572998
vt 0.659171998500824 0.049986422061920166
vt 0.8195430040359497 0.005690932273864746
vt 0.812533974647522 0.050660014152526855
vt 0.659171998500824 0.049986422061920166
vt 0.659171998500824 0.005017399787902832
vt 0.8195430040359497 0.005690932273864746
vt 0.659171998500824 0.049986422061920166
vt 0.813746988773346 0.160040020942688
vt 0.6647999882698059 0.15970301628112793
vt 0.659171998500824 0.049986422061920166
vt 0.812533974647522 0.050660014152526855
vt 0.813746988773346 0.160040020942688
vt 0.659171998500824 0.049986422061920166
vt 0.812533974647522 0.42052197456359863
vt 0.8195430040359497 0.5
vt 0.659171998500824 0.5
vt 0.659171998500824 0.42596399784088135
vt 0.812533974647522 0.42052197456359863
vt 0.659171998500824 0.5
vt 0.17760400474071503 0.09362101554870605
vt 0.17059500515460968 0.048651814460754395
vt 0.3309659957885742 0.005017399787902832
vt 0.3309659957885742 0.049986422061920166
vt 0.17760400474071503 0.09362101554870605
vt 0.3309659957885742 0.005017399787902832
vt 0.41704800724983215 0.10693800449371338
vt 0.420522004365921 0.06827247142791748
vt 0.5 0.048651814460754395
vt 0.5 0.09480750560760498
vt 0.41704800724983215 0.10693800449371338
vt 0.5 0.048651814460754395
vt 0.9667919874191284 0.13321197032928467
vt 0.813746988773346 0.160040020942688
vt 0.812533974647522 0.050660014152526855
vt 0.3352000117301941 0.16742998361587524
vt 0.18625299632549286 0.16776597499847412
vt 0.18746599555015564 0.025311291217803955
vt 0.340828001499176 0.024637818336486816
vt 0.3352000117301941 0.16742998361587524
vt 0.18746599555015564 0.025311291217803955
vt 0.3253380060195923 0.15970301628112793
vt 0.17639000713825226 0.16621899604797363
vt 0.17760400474071503 0.09362101554870605
vt 0.3309659957885742 0.049986422061920166
vt 0.3253380060195923 0.15970301628112793
vt 0.17760400474071503 0.09362101554870605
vt 0.8223959803581238 0.06827247142791748
vt 0.8732489943504333 0.10693800449371338
vt 0.8236100077629089 0.1688460111618042
vt 0.6690340042114258 0.024637818336486816
vt 0.6746619939804077 0.16742998361587524
vt 0.5049309730529785 0.16517102718353271
vt 0.5049309730529785 0.020119786262512207
vt 0.6690340042114258 0.024637818336486816
vt 0.5049309730529785 0.16517102718353271
vt 0.659171998500824 0.049986422061920166
vt 0.6647999882698059 0.15970301628112793
vt 0.4950689971446991 0.15744400024414062
vt 0.4950689971446991 0.04546856880187988
vt 0.659171998500824 0.049986422061920166
vt 0.4950689971446991 0.15744400024414062
vt 0.17760400474071503 0.09362101554870605
vt 0.17639000713825226 0.16621899604797363
vt 0.11757300049066544 0.12128102779388428
vt 0.17760400474071503 0.09362101554870605
vt 0.11757300049066544 0.12128102779388428
vt 0.09301140159368515 0.09480750560760498
vt 0.17059500515460968 0.048651814460754395
vt 0.17760400474071503 0.09362101554870605
vt 0.09301140159368515 0.09480750560760498
vn -0.014750263041626497 -0.3619854001995068 0.9320670575568079
vn 0.00012297128842747682 -0.5297734483050461 0.8481391857172046
vn -0.013663283405562594 -0.5360363665476583 0.8440843135759388
vn 0.004545804819522558 -0.37830029046098146 0.9256717700652213
vn -0.014750263041626497 -0.3619854001995068 0.9320670575568079
vn -0.013663283405562594 -0.5360363665476583 0.8440843135759388
vn -0.019918981531523012 -0.9989656005312157 -0.04087741589257217
vn -0.0015498820719689625 -0.971512707417748 -0.23698239848436026
vn -0.013663283405562594 -0.5360363665476583 0.8440843135759388
vn 0.00012297128842747682 -0.5297734483050461 0.8481391857172046
vn -0.019918981531523012 -0.9989656005312157 -0.04087741589257217
vn -0.013663283405562594 -0.5360363665476583 0.8440843135759388
vn 0.012080525551570756 -0.20908129964900152 -0.977823640049412
vn 0.08202158781583402 -0.457719142231781 -0.885305397005334
vn 0.005889748326245075 -0.45410103400870777 -0.8909307278216841
vn -0.0024566357771549723 -0.19048913087576466 -0.9816862309102916
vn 0.012080525551570756 -0.20908129964900152 -0.977823640049412
vn 0.005889748326245075 -0.45410103400870777 -0.8909307278216841
vn 0.1817387674773045 -0.9026448896996616 -0.390132315368666
vn -0.0015498820719689625 -0.971512707417748 -0.23698239848436026
vn 0.005889748326245075 -0.45410103400870777 -0.8909307278216841
vn 0.08202158781583402 -0.457719142231781 -0.885305397005334
vn 0.1817387674773045 -0.9026448896996616 -0.390132315368666
vn 0.005889748326245075 -0.45410103400870777 -0.8909307278216841
vn -0.23606923955584266 -0.4985947730371974 -0.8340710799659173
vn -0.28111941190795076 -0.929670611732295 -0.23808492167675913
vn -0.5074032348575758 -0.7473053642763446 -0.4290415478480699
vn -0.34052522996043627 -0.3637798602095185 -0.8670102543028744
vn -0.23606923955584266 -0.4985947730371974 -0.8340710799659173
vn -0.5074032348575758 -0.7473053642763446 -0.4290415478480699
vn -0.28111941190795076 -0.929670611732295 -0.23808492167675913
vn -0.08010695772548802 -0.5227123432266997 0.8487371098063403
vn -0.33106780705816596 -0.6321205621588422 0.7005838294063648
vn -0.5074032348575758 -0.7473053642763446 -0.4290415478480699
vn -0.28111941190795076 -0.929670611732295 -0.23808492167675913
vn -0.33106780705816596 -0.6321205621588422 0.7005838294063648
vn -0.08010695772548802 -0.5227123432266997 0.8487371098063403
vn -0.08321260503082953 -0.3280524251238226 0.9409873903163432
vn -0.33106780705816596 -0.6321205621588422 0.7005838294063648
vn -0.0015498820719689625 -0.971512707417748 -0.23698239848436026
vn 0.1817387674773045 -0.9026448896996616 -0.390132315368666
vn 0.09988345382261062 -0.5457352089169409 0.8319833997147114
vn -0.013663283405562594 -0.5360363665476583 0.8440843135759388
vn -0.0015498820719689625 -0.971512707417748 -0.23698239848436026
vn 0.09988345382261062 -0.5457352089169409 0.8319833997147114
vn 0.4625319224735377 -0.8861864200232203 -0.027163388215786656
vn 0.28502319645953067 -0.5710518636154288 0.7698451445202064
vn 0.09988345382261062 -0.5457352089169409 0.8319833997147114
vn 0.1817387674773045 -0.9026448896996616 -0.390132315368666
vn 0.4625319224735377 -0.8861864200232203 -0.027163388215786656
vn 0.09988345382261062 -0.5457352089169409 0.8319833997147114
vn 0.13505066312964 -0.37323991735690254 0.9178525385265636
vn 0.06590163884143015 -0.36590875174587617 0.928314472252689
vn 0.09988345382261062 -0.5457352089169409 0.8319833997147114
vn 0.28502319645953067 -0.5710518636154288 0.7698451445202064
vn 0.13505066312964 -0.37323991735690254 0.9178525385265636
vn 0.09988345382261062 -0.5457352089169409 0.8319833997147114
vn -0.0015498820719689625 -0.971512707417748 -0.23698239848436026
vn -0.019918981531523012 -0.9989656005312157 -0.04087741589257217
vn 0.002161983335732012 -0.46358506481049383 -0.8860497804935715
vn 0.005889748326245075 -0.45410103400870777 -0.8909307278216841
vn -0.0015498820719689625 -0.971512707417748 -0.23698239848436026
vn 0.002161983335732012 -0.46358506481049383 -0.8860497804935715
vn -0.28111941190795076 -0.929670611732295 -0.23808492167675913
vn -0.23606923955584266 -0.4985947730371974 -0.8340710799659173
vn 0.002161983335732012 -0.46358506481049383 -0.8860497804935715
vn -0.019918981531523012 -0.9989656005312157 -0.04087741589257217
vn -0.28111941190795076 -0.929670611732295 -0.23808492167675913
vn 0.002161983335732012 -0.46358506481049383 -0.8860497804935715
vn -0.055723773561596406 -0.19780431113983457 -0.9786563827792426
vn 0.015058309144819091 -0.1893156422052704 -0.9818008122537408
vn 0.002161983335732012 -0.46358506481049383 -0.8860497804935715
vn -0.23606923955584266 -0.4985947730371974 -0.8340710799659173
vn -0.055723773561596406 -0.19780431113983457 -0.9786563827792426
vn 0.002161983335732012 -0.46358506481049383 -0.8860497804935715
vn -0.08010695772548802 -0.5227123432266997 0.8487371098063403
vn -0.28111941190795076 -0.929670611732295 -0.23808492167675913
vn -0.019918981531523012 -0.9989656005312157 -0.04087741589257217
vn 0.00012297128842747682 -0.5297734483050461 0.8481391857172046
vn -0.08010695772548802 -0.5227123432266997 0.8487371098063403
vn -0.019918981531523012 -0.9989656005312157 -0.04087741589257217
vn 0.23603966615300784 -0.537303919624096 -0.8096849843976109
vn 0.4625319224735377 -0.8861864200232203 -0.027163388215786656
vn 0.1817387674773045 -0.9026448896996616 -0.390132315368666
vn 0.08202158781583402 -0.457719142231781 -0.885305397005334
vn 0.23603966615300784 -0.537303919624096 -0.8096849843976109
vn 0.1817387674773045 -0.9026448896996616 -0.390132315368666
vn 0.5263313059002191 -0.592310727088671 0.6100355391328114
vn 0.28502319645953067 -0.5710518636154288 0.7698451445202064
vn 0.4625319224735377 -0.8861864200232203 -0.027163388215786656
vn 0.6057955928557307 -0.7612591617262162 -0.23129243040893627
vn 0.5263313059002191 -0.592310727088671 0.6100355391328114
vn 0.4625319224735377 -0.8861864200232203 -0.027163388215786656
vn -0.34052522996043627 -0.3637798602095185 -0.8670102543028744
vn -0.055723773561596406 -0.19780431113983457 -0.9786563827792426
vn -0.23606923955584266 -0.4985947730371974 -0.8340710799659173
vn -0.014750263041626497 -0.3619854001995068 0.9320670575568079
vn -0.08321260503082953 -0.3280524251238226 0.9409873903163432
vn -0.08010695772548802 -0.5227123432266997 0.8487371098063403
vn 0.00012297128842747682 -0.5297734483050461 0.8481391857172046
vn -0.014750263041626497 -0.3619854001995068 0.9320670575568079
vn -0.08010695772548802 -0.5227123432266997 0.8487371098063403
vn 0.012080525551570756 -0.20908129964900152 -0.977823640049412
vn 0.08478283864071408 -0.29667157244638526 -0.9512086250524707
vn 0.23603966615300784 -0.537303919624096 -0.8096849843976109
vn 0.08202158781583402 -0.457719142231781 -0.885305397005334
vn 0.012080525551570756 -0.20908129964900152 -0.977823640049412
vn 0.23603966615300784 -0.537303919624096 -0.8096849843976109
vn 0.28502319645953067 -0.5710518636154288 0.7698451445202064
vn 0.5263313059002191 -0.592310727088671 0.6100355391328114
vn 0.13505066312964 -0.37323991735690254 0.9178525385265636
vn 0.09988345382261062 -0.5457352089169409 0.8319833997147114
vn 0.06590163884143015 -0.36590875174587617 0.928314472252689
vn 0.004545804819522558 -0.37830029046098146 0.9256717700652213
vn -0.013663283405562594 -0.5360363665476583 0.8440843135759388
vn 0.09988345382261062 -0.5457352089169409 0.8319833997147114
vn 0.004545804819522558 -0.37830029046098146 0.9256717700652213
vn 0.002161983335732012 -0.46358506481049383 -0.8860497804935715
vn 0.015058309144819091 -0.1893156422052704 -0.9818008122537408
vn -0.0024566357771549723 -0.19048913087576466 -0.9816862309102916
vn 0.005889748326245075 -0.45410103400870777 -0.8909307278216841
vn 0.002161983335732012 -0.46358506481049383 -0.8860497804935715
vn -0.0024566357771549723 -0.19048913087576466 -0.9816862309102916
vn 0.23603966615300784 -0.537303919624096 -0.8096849843976109
vn 0.08478283864071408 -0.29667157244638526 -0.9512086250524707
vn 0.44300938318637195 -0.498888440480199 -0.7448845617705239
vn 0.23603966615300784 -0.537303919624096 -0.8096849843976109
vn 0.44300938318637195 -0.498888440480199 -0.7448845617705239
vn 0.6057955928557307 -0.7612591617262162 -0.23129243040893627
vn 0.4625319224735377 -0.8861864200232203 -0.027163388215786656
vn 0.23603966615300784 -0.537303919624096 -0.8096849843976109
vn 0.6057955928557307 -0.7612591617262162 -0.23129243040893627
f 1/1/1 2/2/2 3/3/3
f 4/4/4 5/5/5 6/6/6
f 7/7/7 8/8/8 9/9/9
f 10/10/10 11/11/11 12/12/12
f 13/13/13 14/14/14 15/15/15
f 16/16/16 17/17/17 18/18/18
f 19/19/19 20/20/20 21/21/21
f 22/22/22 23/23/23 24/24/24
f 25/25/25 26/26/26 27/27/27
f 28/28/28 29/29/29 30/30/30
f 31/31/31 32/32/32 33/33/33
f 34/34/34 35/35/35 36/36/36
f 37/37/37 38/38/38 39/39/39
f 40/40/40 41/41/41 42/42/42
f 43/43/43 44/44/44 45/45/45
f 46/46/46 47/47/47 48/48/48
f 49/49/49 50/50/50 51/51/51
f 52/52/52 53/53/53 54/54/54
f 55/55/55 56/56/56 57/57/57
f 58/58/58 59/59/59 60/60/60
f 61/61/61 62/62/62 63/63/63
f 64/64/64 65/65/65 66/66/66
f 67/67/67 68/68/68 69/69/69
f 70/70/70 71/71/71 72/72/72
f 73/73/73 74/74/74 75/75/75
f 76/76/76 77/77/77 78/78/78
f 79/79/79 80/80/80 81/81/81
f 82/82/82 83/83/83 84/84/84
f 85/85/85 86/86/86 87/87/87
f 88/88/88 89/89/89 90/90/90
f 91/91/91 92/92/92 93/93/93
f 94/94/94 95/95/95 96/96/96
f 97/97/97 98/98/98 99/99/99
f 100/100/100 101/101/101 102/102/102
f 103/103/103 104/104/104 105/105/105
f 106/106/106 107/107/107 108/108/108
f 109/109/109 110/110/110 111/111/111
f 112/112/112 113/113/113 114/114/114
f 115/115/115 116/116/116 117/117/117
f 118/118/118 119/119/119 120/120/120
f 121/121/121 122/122/122 123/123/123
f 124/124/124 125/125/125 126/126/126
f 127/127/127 128/128/128 129/129/129
f 130/130/130 131/131/131 132/132/132
