mtllib ArcadaCompleta.mtl
o D23C_F
usemtl Esmalte
v 20.853200912475586 21.55640411376953 2.948900730096289
v 19.404699325561523 21.55640411376953 3.260600835763403
v 19.404699325561523 19.899372100830078 2.4631007022489984
v 20.725500106811523 19.899372100830078 2.0500808066954095
v 20.853200912475586 21.55640411376953 2.948900730096289
v 19.404699325561523 19.899372100830078 2.4631007022489984
v 17.921899795532227 21.55640411376953 2.948900730096289
v 18.04960060119629 19.899372100830078 2.038640768014379
v 19.404699325561523 19.899372100830078 2.4631007022489984
v 19.404699325561523 21.55640411376953 3.260600835763403
v 17.921899795532227 21.55640411376953 2.948900730096289
v 19.404699325561523 19.899372100830078 2.4631007022489984
v 18.20330047607422 18.84125328063965 1.4891207522978263
v 19.372800827026367 18.815963745117188 1.8485907621015982
v 19.404699325561523 19.899372100830078 2.4631007022489984
v 18.04960060119629 19.899372100830078 2.038640768014379
v 18.20330047607422 18.84125328063965 1.4891207522978263
v 19.404699325561523 19.899372100830078 2.4631007022489984
v 17.921899795532227 21.55640411376953 2.948900730096289
v 19.404699325561523 21.55640411376953 3.260600835763403
v 19.404699325561523 23.472702026367188 3.7558207816709963
v 17.877300262451172 23.472702026367188 3.4187407798399416
v 17.921899795532227 21.55640411376953 2.948900730096289
v 19.404699325561523 23.472702026367188 3.7558207816709963
v 18.069900512695312 24.922212600708008 3.749480754815528
v 17.877300262451172 23.472702026367188 3.4187407798399416
v 19.404699325561523 23.472702026367188 3.7558207816709963
v 19.404699325561523 24.922212600708008 3.9814107722868415
v 18.069900512695312 24.922212600708008 3.749480754815528
v 19.404699325561523 23.472702026367188 3.7558207816709963
v 20.853200912475586 21.55640411376953 2.948900730096289
v 20.932100296020508 23.472702026367188 3.4187407798399416
v 19.404699325561523 23.472702026367188 3.7558207816709963
v 19.404699325561523 21.55640411376953 3.260600835763403
v 20.853200912475586 21.55640411376953 2.948900730096289
v 19.404699325561523 23.472702026367188 3.7558207816709963
v 17.320999145507812 21.55640411376953 2.722120792352148
v 17.36590003967285 19.899372100830078 1.9652906961073358
v 18.04960060119629 19.899372100830078 2.038640768014379
v 17.921899795532227 21.55640411376953 2.948900730096289
v 17.320999145507812 21.55640411376953 2.722120792352148
v 18.04960060119629 19.899372100830078 2.038640768014379
v 21.47130012512207 21.55640411376953 2.722120792352148
v 20.853200912475586 21.55640411376953 2.948900730096289
v 20.725500106811523 19.899372100830078 2.0500808066954095
v 21.29490089416504 19.899372100830078 1.971010715447851
v 21.47130012512207 21.55640411376953 2.722120792352148
v 20.725500106811523 19.899372100830078 2.0500808066954095
v 19.372800827026367 18.815963745117188 1.8485907621015982
v 20.61090087890625 18.84125328063965 1.5005607909788565
v 20.725500106811523 19.899372100830078 2.0500808066954095
v 19.404699325561523 19.899372100830078 2.4631007022489984
v 19.372800827026367 18.815963745117188 1.8485907621015982
v 20.725500106811523 19.899372100830078 2.0500808066954095
v 17.320999145507812 21.55640411376953 2.722120792352148
v 17.921899795532227 21.55640411376953 2.948900730096289
v 17.877300262451172 23.472702026367188 3.4187407798399416
v 17.381500244140625 23.472702026367188 3.055270702325293
v 17.320999145507812 21.55640411376953 2.722120792352148
v 17.877300262451172 23.472702026367188 3.4187407798399416
v 21.427900314331055 23.472702026367188 3.055270702325293
v 20.932100296020508 23.472702026367188 3.4187407798399416
v 20.853200912475586 21.55640411376953 2.948900730096289
v 21.47130012512207 21.55640411376953 2.722120792352148
v 21.427900314331055 23.472702026367188 3.055270702325293
v 20.853200912475586 21.55640411376953 2.948900730096289
v 20.932100296020508 23.472702026367188 3.4187407798399416
v 20.739500045776367 24.922212600708008 3.5245106525053473
v 19.404699325561523 24.922212600708008 3.9814107722868415
v 19.404699325561523 23.472702026367188 3.7558207816709963
v 20.932100296020508 23.472702026367188 3.4187407798399416
v 19.404699325561523 24.922212600708008 3.9814107722868415
v 21.427900314331055 23.472702026367188 3.055270702325293
v 21.24250030517578 24.922212600708008 3.108940631829688
v 20.739500045776367 24.922212600708008 3.5245106525053473
v 20.932100296020508 23.472702026367188 3.4187407798399416
v 21.427900314331055 23.472702026367188 3.055270702325293
v 20.739500045776367 24.922212600708008 3.5245106525053473
v 17.36590003967285 19.899372100830078 1.9652906961073358
v 17.40920066833496 18.846763610839844 1.4619807309736685
v 18.20330047607422 18.84125328063965 1.4891207522978263
v 18.04960060119629 19.899372100830078 2.038640768014379
v 17.36590003967285 19.899372100830078 1.9652906961073358
v 18.20330047607422 18.84125328063965 1.4891207522978263
v 20.61090087890625 18.84125328063965 1.5005607909788565
v 21.381999969482422 18.845022201538086 1.4025507278074698
v 21.29490089416504 19.899372100830078 1.971010715447851
v 20.725500106811523 19.899372100830078 2.0500808066954095
v 20.61090087890625 18.84125328063965 1.5005607909788565
v 21.29490089416504 19.899372100830078 1.971010715447851
v 18.069900512695312 24.922212600708008 3.749480754815528
v 17.5669002532959 24.922212600708008 3.221420795403907
v 17.381500244140625 23.472702026367188 3.055270702325293
v 17.877300262451172 23.472702026367188 3.4187407798399416
v 18.069900512695312 24.922212600708008 3.749480754815528
v 17.381500244140625 23.472702026367188 3.055270702325293
vt 0.6841779947280884 0.43660998344421387
vt 0.4867520034313202 0.43660998344421387
vt 0.4867520034313202 0.26961201429367065
vt 0.6667730212211609 0.26961201429367065
vt 0.6841779947280884 0.43660998344421387
vt 0.4867520034313202 0.26961201429367065
vt 0.2846510112285614 0.43660998344421387
vt 0.3020560145378113 0.26961201429367065
vt 0.4867520034313202 0.26961201429367065
vt 0.4867520034313202 0.43660998344421387
vt 0.2846510112285614 0.43660998344421387
vt 0.4867520034313202 0.26961201429367065
vt 0.32300499081611633 0.16297298669815063
vt 0.4824039936065674 0.16042399406433105
vt 0.4867520034313202 0.26961201429367065
vt 0.3020560145378113 0.26961201429367065
vt 0.32300499081611633 0.16297298669815063
vt 0.4867520034313202 0.26961201429367065
vt 0.2846510112285614 0.43660998344421387
vt 0.4867520034313202 0.43660998344421387
vt 0.4867520034313202 0.6297370195388794
vt 0.2785719931125641 0.6297370195388794
vt 0.2846510112285614 0.43660998344421387
vt 0.4867520034313202 0.6297370195388794
vt 0.30482301115989685 0.7758209705352783
vt 0.2785719931125641 0.6297370195388794
vt 0.4867520034313202 0.6297370195388794
vt 0.4867520034313202 0.7758209705352783
vt 0.30482301115989685 0.7758209705352783
vt 0.4867520034313202 0.6297370195388794
vt 0.6841779947280884 0.43660998344421387
vt 0.6949319839477539 0.6297370195388794
vt 0.4867520034313202 0.6297370195388794
vt 0.4867520034313202 0.43660998344421387
vt 0.6841779947280884 0.43660998344421387
vt 0.4867520034313202 0.6297370195388794
vt 0.20274999737739563 0.43660998344421387
vt 0.20886999368667603 0.26961201429367065
vt 0.3020560145378113 0.26961201429367065
vt 0.2846510112285614 0.43660998344421387
vt 0.20274999737739563 0.43660998344421387
vt 0.3020560145378113 0.26961201429367065
vt 0.7684230208396912 0.43660998344421387
vt 0.6841779947280884 0.43660998344421387
vt 0.6667730212211609 0.26961201429367065
vt 0.744379997253418 0.26961201429367065
vt 0.7684230208396912 0.43660998344421387
vt 0.6667730212211609 0.26961201429367065
vt 0.4824039936065674 0.16042399406433105
vt 0.651153028011322 0.16297298669815063
vt 0.6667730212211609 0.26961201429367065
vt 0.4867520034313202 0.26961201429367065
vt 0.4824039936065674 0.16042399406433105
vt 0.6667730212211609 0.26961201429367065
vt 0.20274999737739563 0.43660998344421387
vt 0.2846510112285614 0.43660998344421387
vt 0.2785719931125641 0.6297370195388794
vt 0.21099600195884705 0.6297370195388794
vt 0.20274999737739563 0.43660998344421387
vt 0.2785719931125641 0.6297370195388794
vt 0.7625070214271545 0.6297370195388794
vt 0.6949319839477539 0.6297370195388794
vt 0.6841779947280884 0.43660998344421387
vt 0.7684230208396912 0.43660998344421387
vt 0.7625070214271545 0.6297370195388794
vt 0.6841779947280884 0.43660998344421387
vt 0.6949319839477539 0.6297370195388794
vt 0.6686810255050659 0.7758209705352783
vt 0.4867520034313202 0.7758209705352783
vt 0.4867520034313202 0.6297370195388794
vt 0.6949319839477539 0.6297370195388794
vt 0.4867520034313202 0.7758209705352783
vt 0.7625070214271545 0.6297370195388794
vt 0.7372379899024963 0.7758209705352783
vt 0.6686810255050659 0.7758209705352783
vt 0.6949319839477539 0.6297370195388794
vt 0.7625070214271545 0.6297370195388794
vt 0.6686810255050659 0.7758209705352783
vt 0.20886999368667603 0.26961201429367065
vt 0.21477200090885162 0.16352897882461548
vt 0.32300499081611633 0.16297298669815063
vt 0.3020560145378113 0.26961201429367065
vt 0.20886999368667603 0.26961201429367065
vt 0.32300499081611633 0.16297298669815063
vt 0.651153028011322 0.16297298669815063
vt 0.7562519907951355 0.16335296630859375
vt 0.744379997253418 0.26961201429367065
vt 0.6667730212211609 0.26961201429367065
vt 0.651153028011322 0.16297298669815063
vt 0.744379997253418 0.26961201429367065
vt 0.9704030156135559 0.7758209705352783
vt 0.9041529893875122 0.7758209705352783
vt 0.8833079934120178 0.6297370195388794
vt 0.2785719931125641 0.6297370195388794
vt 0.30482301115989685 0.7758209705352783
vt 0.21099600195884705 0.6297370195388794
vn 0.26606309381085097 -0.3298914726478914 0.9057494390757324
vn 0 -0.34019169111449754 0.9403561098310884
vn -0.027922869032136356 -0.47284296668917397 0.8807041740775361
vn 0.23872115214649747 -0.4688348282387848 0.8504152605334395
vn 0.26606309381085097 -0.3298914726478914 0.9057494390757324
vn -0.027922869032136356 -0.47284296668917397 0.8807041740775361
vn -0.23561224678022397 -0.34588963287538416 0.9082110057891319
vn -0.22591071477309757 -0.46835504213372936 0.85417088656698
vn -0.027922869032136356 -0.47284296668917397 0.8807041740775361
vn 0 -0.34019169111449754 0.9403561098310884
vn -0.23561224678022397 -0.34588963287538416 0.9082110057891319
vn -0.027922869032136356 -0.47284296668917397 0.8807041740775361
vn -0.19499121434058284 -0.4666722913083521 0.8626676062395047
vn 0.09200505832274648 -0.48800154124347983 0.8679801639363749
vn -0.027922869032136356 -0.47284296668917397 0.8807041740775361
vn -0.22591071477309757 -0.46835504213372936 0.85417088656698
vn -0.19499121434058284 -0.4666722913083521 0.8626676062395047
vn -0.027922869032136356 -0.47284296668917397 0.8807041740775361
vn -0.23561224678022397 -0.34588963287538416 0.9082110057891319
vn 0 -0.34019169111449754 0.9403561098310884
vn -0.01838757844156979 -0.21957068917728942 0.9754232975551002
vn -0.3244513815620407 -0.19781057209417757 0.9249877180645466
vn -0.23561224678022397 -0.34588963287538416 0.9082110057891319
vn -0.01838757844156979 -0.21957068917728942 0.9754232975551002
vn -0.35052766000751273 -0.13593729789389544 0.9266344536066874
vn -0.3244513815620407 -0.19781057209417757 0.9249877180645466
vn -0.01838757844156979 -0.21957068917728942 0.9754232975551002
vn 0.13188008281247685 -0.11312975893796806 0.9847889628747937
vn -0.35052766000751273 -0.13593729789389544 0.9266344536066874
vn -0.01838757844156979 -0.21957068917728942 0.9754232975551002
vn 0.26606309381085097 -0.3298914726478914 0.9057494390757324
vn 0.32285579969974515 -0.14816598562500144 0.9347785691296149
vn -0.01838757844156979 -0.21957068917728942 0.9754232975551002
vn 0 -0.34019169111449754 0.9403561098310884
vn 0.26606309381085097 -0.3298914726478914 0.9057494390757324
vn -0.01838757844156979 -0.21957068917728942 0.9754232975551002
vn -0.34033008934973064 -0.32024183422463687 0.8840930934554598
vn -0.07678015427385348 -0.43589351728635634 0.8967171513344729
vn -0.22591071477309757 -0.46835504213372936 0.85417088656698
vn -0.23561224678022397 -0.34588963287538416 0.9082110057891319
vn -0.34033008934973064 -0.32024183422463687 0.8840930934554598
vn -0.22591071477309757 -0.46835504213372936 0.85417088656698
vn 0.2682408479315787 -0.34826640422701105 0.8981967263287791
vn 0.26606309381085097 -0.3298914726478914 0.9057494390757324
vn 0.23872115214649747 -0.4688348282387848 0.8504152605334395
vn 0.12021396741302055 -0.448086426869419 0.8858708461701503
vn 0.2682408479315787 -0.34826640422701105 0.8981967263287791
vn 0.23872115214649747 -0.4688348282387848 0.8504152605334395
vn 0.09200505832274648 -0.48800154124347983 0.8679801639363749
vn 0.18149880130673612 -0.4676486609074783 0.8650797160237085
vn 0.23872115214649747 -0.4688348282387848 0.8504152605334395
vn -0.027922869032136356 -0.47284296668917397 0.8807041740775361
vn 0.09200505832274648 -0.48800154124347983 0.8679801639363749
vn 0.23872115214649747 -0.4688348282387848 0.8504152605334395
vn -0.34033008934973064 -0.32024183422463687 0.8840930934554598
vn -0.23561224678022397 -0.34588963287538416 0.9082110057891319
vn -0.3244513815620407 -0.19781057209417757 0.9249877180645466
vn -0.6367698071879736 -0.07134625791901518 0.7677460023567328
vn -0.34033008934973064 -0.32024183422463687 0.8840930934554598
vn -0.3244513815620407 -0.19781057209417757 0.9249877180645466
vn 0.5313722703388811 -0.0917044691097103 0.8421601989290455
vn 0.32285579969974515 -0.14816598562500144 0.9347785691296149
vn 0.26606309381085097 -0.3298914726478914 0.9057494390757324
vn 0.2682408479315787 -0.34826640422701105 0.8981967263287791
vn 0.5313722703388811 -0.0917044691097103 0.8421601989290455
vn 0.26606309381085097 -0.3298914726478914 0.9057494390757324
vn 0.32285579969974515 -0.14816598562500144 0.9347785691296149
vn 0.4680335797678078 0.003770321109677338 0.8837026382717553
vn 0.13188008281247685 -0.11312975893796806 0.9847889628747937
vn -0.01838757844156979 -0.21957068917728942 0.9754232975551002
vn 0.32285579969974515 -0.14816598562500144 0.9347785691296149
vn 0.13188008281247685 -0.11312975893796806 0.9847889628747937
vn 0.5313722703388811 -0.0917044691097103 0.8421601989290455
vn 0.6360351911187868 0.052847652562613305 0.7698482715945459
vn 0.4680335797678078 0.003770321109677338 0.8837026382717553
vn 0.32285579969974515 -0.14816598562500144 0.9347785691296149
vn 0.5313722703388811 -0.0917044691097103 0.8421601989290455
vn 0.4680335797678078 0.003770321109677338 0.8837026382717553
vn -0.07678015427385348 -0.43589351728635634 0.8967171513344729
vn -0.03379694261516632 -0.43226249587730675 0.9011142554236885
vn -0.19499121434058284 -0.4666722913083521 0.8626676062395047
vn -0.22591071477309757 -0.46835504213372936 0.85417088656698
vn -0.07678015427385348 -0.43589351728635634 0.8967171513344729
vn -0.19499121434058284 -0.4666722913083521 0.8626676062395047
vn 0.18149880130673612 -0.4676486609074783 0.8650797160237085
vn 0.11391551392597568 -0.4641775320284057 0.8783862899926201
vn 0.12021396741302055 -0.448086426869419 0.8858708461701503
vn 0.23872115214649747 -0.4688348282387848 0.8504152605334395
vn 0.18149880130673612 -0.4676486609074783 0.8650797160237085
vn 0.12021396741302055 -0.448086426869419 0.8858708461701503
vn -0.35052766000751273 -0.13593729789389544 0.9266344536066874
vn -0.72401252141606 0.01355347274739301 0.6896536610569431
vn -0.6367698071879736 -0.07134625791901518 0.7677460023567328
vn -0.3244513815620407 -0.19781057209417757 0.9249877180645466
vn -0.35052766000751273 -0.13593729789389544 0.9266344536066874
vn -0.6367698071879736 -0.07134625791901518 0.7677460023567328
f 1/1/1 2/2/2 3/3/3
f 4/4/4 5/5/5 6/6/6
f 7/7/7 8/8/8 9/9/9
f 10/10/10 11/11/11 12/12/12
f 13/13/13 14/14/14 15/15/15
f 16/16/16 17/17/17 18/18/18
f 19/19/19 20/20/20 21/21/21
f 22/22/22 23/23/23 24/24/24
f 25/25/25 26/26/26 27/27/27
f 28/28/28 29/29/29 30/30/30
f 31/31/31 32/32/32 33/33/33
f 34/34/34 35/35/35 36/36/36
f 37/37/37 38/38/38 39/39/39
f 40/40/40 41/41/41 42/42/42
f 43/43/43 44/44/44 45/45/45
f 46/46/46 47/47/47 48/48/48
f 49/49/49 50/50/50 51/51/51
f 52/52/52 53/53/53 54/54/54
f 55/55/55 56/56/56 57/57/57
f 58/58/58 59/59/59 60/60/60
f 61/61/61 62/62/62 63/63/63
f 64/64/64 65/65/65 66/66/66
f 67/67/67 68/68/68 69/69/69
f 70/70/70 71/71/71 72/72/72
f 73/73/73 74/74/74 75/75/75
f 76/76/76 77/77/77 78/78/78
f 79/79/79 80/80/80 81/81/81
f 82/82/82 83/83/83 84/84/84
f 85/85/85 86/86/86 87/87/87
f 88/88/88 89/89/89 90/90/90
f 91/91/91 92/92/92 93/93/93
f 94/94/94 95/95/95 96/96/96
