mtllib ArcadaCompleta.mtl
o D23C_I
usemtl Esmalte
v 18.20330047607422 18.84125328063965 1.4891207522978263
v 18.265199661254883 17.809661865234375 0.43702873655457036
v 19.404699325561523 17.572473526000977 0.7652677602400256
v 19.372800827026367 18.815963745117188 1.8485907621015982
v 18.20330047607422 18.84125328063965 1.4891207522978263
v 19.404699325561523 17.572473526000977 0.7652677602400256
v 19.404699325561523 17.229114532470703 1.0340560680858098e-8
v 20.544200897216797 17.809661865234375 0.43702873655457036
v 19.404699325561523 17.572473526000977 0.7652677602400256
v 20.33650016784668 18.84125328063965 -0.9516972594628854
v 19.827199935913086 17.623056411743164 -0.7452202730546521
v 19.404699325561523 17.572473526000977 -0.7538332634339856
v 19.269899368286133 18.815963745117188 -1.0252992802033944
v 20.33650016784668 18.84125328063965 -0.9516972594628854
v 19.404699325561523 17.572473526000977 -0.7538332634339856
v 19.827199935913086 17.623056411743164 -0.7452202730546521
v 19.404699325561523 17.229114532470703 1.0340560680858098e-8
v 19.404699325561523 17.572473526000977 -0.7538332634339856
v 18.1924991607666 17.638141632080078 -0.43702924183707703
v 19.404699325561523 17.229114532470703 1.0340560680858098e-8
v 18.00160026550293 17.638141632080078 4.608051931990023e-8
v 17.036500930786133 18.621553421020508 0.7860457605947927
v 16.907899856567383 18.446311950683594 0.037574444644637425
v 18.00160026550293 17.638141632080078 4.608051931990023e-8
v 18.265199661254883 17.809661865234375 0.43702873655457036
v 17.036500930786133 18.621553421020508 0.7860457605947927
v 18.00160026550293 17.638141632080078 4.608051931990023e-8
v 20.544200897216797 17.809661865234375 0.43702873655457036
v 19.404699325561523 17.229114532470703 1.0340560680858098e-8
v 20.80780029296875 17.638141632080078 4.608051931990023e-8
v 21.538299560546875 18.65074348449707 -0.5715292387376353
v 21.874500274658203 18.84880256652832 1.520185192946505e-7
v 20.80780029296875 17.638141632080078 4.608051931990023e-8
v 20.616899490356445 17.638141632080078 -0.43702924183707703
v 21.538299560546875 18.65074348449707 -0.5715292387376353
v 20.80780029296875 17.638141632080078 4.608051931990023e-8
v 18.00160026550293 17.638141632080078 4.608051931990023e-8
v 19.404699325561523 17.229114532470703 1.0340560680858098e-8
v 18.265199661254883 17.809661865234375 0.43702873655457036
v 17.40920066833496 18.846763610839844 1.4619807309736685
v 17.036500930786133 18.621553421020508 0.7860457605947927
v 18.265199661254883 17.809661865234375 0.43702873655457036
v 20.80780029296875 17.638141632080078 4.608051931990023e-8
v 19.404699325561523 17.229114532470703 1.0340560680858098e-8
v 20.616899490356445 17.638141632080078 -0.43702924183707703
v 21.336999893188477 18.839202880859375 -0.7318632297883554
v 21.538299560546875 18.65074348449707 -0.5715292387376353
v 20.616899490356445 17.638141632080078 -0.43702924183707703
v 20.22209930419922 17.630599975585938 -0.6730302267442273
v 21.336999893188477 18.839202880859375 -0.7318632297883554
v 20.616899490356445 17.638141632080078 -0.43702924183707703
v 21.874500274658203 18.84880256652832 1.520185192946505e-7
v 21.646900177001953 18.84880256652832 0.949568719350286
v 20.544200897216797 17.809661865234375 0.43702873655457036
v 20.80780029296875 17.638141632080078 4.608051931990023e-8
v 21.874500274658203 18.84880256652832 1.520185192946505e-7
v 20.544200897216797 17.809661865234375 0.43702873655457036
v 18.587299346923828 17.630599975585938 -0.6730302267442273
v 19.404699325561523 17.229114532470703 1.0340560680858098e-8
v 18.1924991607666 17.638141632080078 -0.43702924183707703
v 17.295000076293945 18.845022201538086 -0.7507732801805063
v 18.587299346923828 17.630599975585938 -0.6730302267442273
v 18.1924991607666 17.638141632080078 -0.43702924183707703
v 17.11910057067871 18.576122283935547 -0.47204026512008157
v 17.295000076293945 18.845022201538086 -0.7507732801805063
v 18.1924991607666 17.638141632080078 -0.43702924183707703
v 19.404699325561523 17.572473526000977 -0.7538332634339856
v 19.404699325561523 17.229114532470703 1.0340560680858098e-8
v 18.982200622558594 17.623056411743164 -0.7452202730546521
v 17.295000076293945 18.845022201538086 -0.7507732801805063
v 18.20330047607422 18.84125328063965 -0.9516972594628854
v 18.982200622558594 17.623056411743164 -0.7452202730546521
v 18.587299346923828 17.630599975585938 -0.6730302267442273
v 17.295000076293945 18.845022201538086 -0.7507732801805063
v 18.982200622558594 17.623056411743164 -0.7452202730546521
v 20.22209930419922 17.630599975585938 -0.6730302267442273
v 19.404699325561523 17.229114532470703 1.0340560680858098e-8
v 19.827199935913086 17.623056411743164 -0.7452202730546521
v 19.404699325561523 17.572473526000977 0.7652677602400256
v 18.265199661254883 17.809661865234375 0.43702873655457036
v 19.404699325561523 17.229114532470703 1.0340560680858098e-8
v 18.982200622558594 17.623056411743164 -0.7452202730546521
v 19.404699325561523 17.229114532470703 1.0340560680858098e-8
v 18.587299346923828 17.630599975585938 -0.6730302267442273
v 20.616899490356445 17.638141632080078 -0.43702924183707703
v 19.404699325561523 17.229114532470703 1.0340560680858098e-8
v 20.22209930419922 17.630599975585938 -0.6730302267442273
v 20.33650016784668 18.84125328063965 -0.9516972594628854
v 21.336999893188477 18.839202880859375 -0.7318632297883554
v 20.22209930419922 17.630599975585938 -0.6730302267442273
v 19.827199935913086 17.623056411743164 -0.7452202730546521
v 20.33650016784668 18.84125328063965 -0.9516972594628854
v 20.22209930419922 17.630599975585938 -0.6730302267442273
v 20.544200897216797 17.809661865234375 0.43702873655457036
v 20.61090087890625 18.84125328063965 1.5005607909788565
v 19.372800827026367 18.815963745117188 1.8485907621015982
v 19.404699325561523 17.572473526000977 0.7652677602400256
v 20.544200897216797 17.809661865234375 0.43702873655457036
v 19.372800827026367 18.815963745117188 1.8485907621015982
v 18.982200622558594 17.623056411743164 -0.7452202730546521
v 18.20330047607422 18.84125328063965 -0.9516972594628854
v 19.269899368286133 18.815963745117188 -1.0252992802033944
v 19.404699325561523 17.572473526000977 -0.7538332634339856
v 18.982200622558594 17.623056411743164 -0.7452202730546521
v 19.269899368286133 18.815963745117188 -1.0252992802033944
v 21.381999969482422 18.845022201538086 1.4025507278074698
v 20.544200897216797 17.809661865234375 0.43702873655457036
v 21.646900177001953 18.84880256652832 0.949568719350286
v 17.40920066833496 18.846763610839844 1.4619807309736685
v 18.265199661254883 17.809661865234375 0.43702873655457036
v 18.20330047607422 18.84125328063965 1.4891207522978263
v 20.61090087890625 18.84125328063965 1.5005607909788565
v 20.544200897216797 17.809661865234375 0.43702873655457036
v 21.381999969482422 18.845022201538086 1.4025507278074698
v 18.00160026550293 17.638141632080078 4.608051931990023e-8
v 16.907899856567383 18.446311950683594 0.037574444644637425
v 17.11910057067871 18.576122283935547 -0.47204026512008157
v 18.1924991607666 17.638141632080078 -0.43702924183707703
v 18.00160026550293 17.638141632080078 4.608051931990023e-8
v 17.11910057067871 18.576122283935547 -0.47204026512008157
vt 0.32300499081611633 0.16297298669815063
vt 0.3314419984817505 0.059008002281188965
vt 0.4867520034313202 0.035103797912597656
vt 0.4824039936065674 0.16042399406433105
vt 0.32300499081611633 0.16297298669815063
vt 0.4867520034313202 0.035103797912597656
vt 0.5132480263710022 0.5
vt 0.3579379916191101 0.4451709985733032
vt 0.5132480263710022 0.4039909839630127
vt 0.38624700903892517 0.16297298669815063
vt 0.4556629955768585 0.04020172357559204
vt 0.5132480263710022 0.035103797912597656
vt 0.531620979309082 0.16042399406433105
vt 0.38624700903892517 0.16297298669815063
vt 0.5132480263710022 0.035103797912597656
vt 0.4556629955768585 0.5934939980506897
vt 0.5132480263710022 0.5
vt 0.5132480263710022 0.5945749878883362
vt 0.6784669756889343 0.5548290014266968
vt 0.5132480263710022 0.5
vt 0.7044860124588013 0.5
vt 0.8360260128974915 0.40138399600982666
vt 0.8535540103912354 0.4952859878540039
vt 0.7044860124588013 0.5
vt 0.6685580015182495 0.4451709985733032
vt 0.8360260128974915 0.40138399600982666
vt 0.7044860124588013 0.5
vt 0.3579379916191101 0.4451709985733032
vt 0.5132480263710022 0.5
vt 0.32201001048088074 0.5
vt 0.5717030167579651 0.14377301931381226
vt 0.5 0.16373401880264282
vt 0.5 0.041721880435943604
vt 0.5548290014266968 0.041721880435943604
vt 0.5717030167579651 0.14377301931381226
vt 0.5 0.041721880435943604
vt 0.7044860124588013 0.5
vt 0.5132480263710022 0.5
vt 0.6685580015182495 0.4451709985733032
vt 0.7852280139923096 0.3165830373764038
vt 0.8360260128974915 0.40138399600982666
vt 0.6685580015182495 0.4451709985733032
vt 0.32201001048088074 0.5
vt 0.5132480263710022 0.5
vt 0.3480289876461029 0.5548290014266968
vt 0.24988199770450592 0.16276699304580688
vt 0.22244499623775482 0.14377301931381226
vt 0.3480289876461029 0.041721880435943604
vt 0.4018389880657196 0.04096198081970215
vt 0.24988199770450592 0.16276699304580688
vt 0.3480289876461029 0.041721880435943604
vt 0.5 0.16373401880264282
vt 0.3808690011501312 0.16373401880264282
vt 0.4451709985733032 0.059008002281188965
vt 0.5 0.041721880435943604
vt 0.5 0.16373401880264282
vt 0.4451709985733032 0.059008002281188965
vt 0.6246569752693176 0.5844370126724243
vt 0.5132480263710022 0.5
vt 0.6784669756889343 0.5548290014266968
vt 0.8007929921150208 0.16335296630859375
vt 0.6246569752693176 0.04096198081970215
vt 0.6784669756889343 0.041721880435943604
vt 0.8247680068016052 0.1362529993057251
vt 0.8007929921150208 0.16335296630859375
vt 0.6784669756889343 0.041721880435943604
vt 0.5132480263710022 0.5945749878883362
vt 0.5132480263710022 0.5
vt 0.5708330273628235 0.5934939980506897
vt 0.8007929921150208 0.16335296630859375
vt 0.6769949793815613 0.16297298669815063
vt 0.5708330273628235 0.04020172357559204
vt 0.6246569752693176 0.04096198081970215
vt 0.8007929921150208 0.16335296630859375
vt 0.5708330273628235 0.04020172357559204
vt 0.4018389880657196 0.5844370126724243
vt 0.5132480263710022 0.5
vt 0.4556629955768585 0.5934939980506897
vt 0.5132480263710022 0.4039909839630127
vt 0.6685580015182495 0.4451709985733032
vt 0.5132480263710022 0.5
vt 0.5708330273628235 0.5934939980506897
vt 0.5132480263710022 0.5
vt 0.6246569752693176 0.5844370126724243
vt 0.3480289876461029 0.5548290014266968
vt 0.5132480263710022 0.5
vt 0.4018389880657196 0.5844370126724243
vt 0.38624700903892517 0.16297298669815063
vt 0.24988199770450592 0.16276699304580688
vt 0.4018389880657196 0.04096198081970215
vt 0.4556629955768585 0.04020172357559204
vt 0.38624700903892517 0.16297298669815063
vt 0.4018389880657196 0.04096198081970215
vt 0.6420620083808899 0.059008002281188965
vt 0.651153028011322 0.16297298669815063
vt 0.4824039936065674 0.16042399406433105
vt 0.4867520034313202 0.035103797912597656
vt 0.6420620083808899 0.059008002281188965
vt 0.4824039936065674 0.16042399406433105
vt 0.5708330273628235 0.04020172357559204
vt 0.6769949793815613 0.16297298669815063
vt 0.531620979309082 0.16042399406433105
vt 0.5132480263710022 0.035103797912597656
vt 0.5708330273628235 0.04020172357559204
vt 0.531620979309082 0.16042399406433105
vt 0.3240390121936798 0.16335296630859375
vt 0.4451709985733032 0.059008002281188965
vt 0.3808690011501312 0.16373401880264282
vt 0.21477200090885162 0.16352897882461548
vt 0.3314419984817505 0.059008002281188965
vt 0.32300499081611633 0.16297298669815063
vt 0.651153028011322 0.16297298669815063
vt 0.6420620083808899 0.059008002281188965
vt 0.7562519907951355 0.16335296630859375
vt 0.5 0.041721880435943604
vt 0.5047140121459961 0.12317097187042236
vt 0.4407790005207062 0.1362529993057251
vt 0.4451709985733032 0.041721880435943604
vt 0.5 0.041721880435943604
vt 0.4407790005207062 0.1362529993057251
vn -0.22328458414102234 -0.6791634464638061 0.6992002627805396
vn -0.28152898106002217 -0.7766187232944023 0.5635643631847902
vn -0.054450060621270974 -0.7488130255267618 0.6605408720887734
vn 0.10138694281245075 -0.6755779441742593 0.730284279696904
vn -0.22328458414102234 -0.6791634464638061 0.6992002627805396
vn -0.054450060621270974 -0.7488130255267618 0.6605408720887734
vn 1.1614961173295194e-9 -0.9978159272473061 0.06605585009368153
vn 0.37800908118437454 -0.7461740380438315 0.5480268601916403
vn -0.054450060621270974 -0.7488130255267618 0.6605408720887734
vn 0.13078995302521512 -0.21876827794181683 -0.9669717828116982
vn 0.12082843593082813 -0.5554989284647469 -0.8226915761967103
vn 0.03318442315319005 -0.3931379212856303 -0.9188804976204488
vn -0.006543563953181416 -0.21035283182023468 -0.9776036353839929
vn 0.13078995302521512 -0.21876827794181683 -0.9669717828116982
vn 0.03318442315319005 -0.3931379212856303 -0.9188804976204488
vn 0.12082843593082813 -0.5554989284647469 -0.8226915761967103
vn 1.1614961173295194e-9 -0.9978159272473061 0.06605585009368153
vn 0.03318442315319005 -0.3931379212856303 -0.9188804976204488
vn -0.43207906733923285 -0.7702516149302756 -0.46906303335965516
vn 1.1614961173295194e-9 -0.9978159272473061 0.06605585009368153
vn -0.4858311060806446 -0.8662264908151447 0.11670391156485554
vn -0.44540149859347855 -0.7882656611822357 0.42456419120271566
vn -0.5944802215895885 -0.8040481068430263 -0.009995399988957767
vn -0.4858311060806446 -0.8662264908151447 0.11670391156485554
vn -0.28152898106002217 -0.7766187232944023 0.5635643631847902
vn -0.44540149859347855 -0.7882656611822357 0.42456419120271566
vn -0.4858311060806446 -0.8662264908151447 0.11670391156485554
vn 0.37800908118437454 -0.7461740380438315 0.5480268601916403
vn 1.1614961173295194e-9 -0.9978159272473061 0.06605585009368153
vn 0.5911743564080559 -0.7987079903377091 0.11215358441092657
vn 0.6632381593228295 -0.6326394596656687 -0.3998530456205075
vn 0.6917996340468229 -0.701768749208852 0.17009964422809706
vn 0.5911743564080559 -0.7987079903377091 0.11215358441092657
vn 0.43966783216655064 -0.7539156953022367 -0.48816321218923375
vn 0.6632381593228295 -0.6326394596656687 -0.3998530456205075
vn 0.5911743564080559 -0.7987079903377091 0.11215358441092657
vn -0.4858311060806446 -0.8662264908151447 0.11670391156485554
vn 1.1614961173295194e-9 -0.9978159272473061 0.06605585009368153
vn -0.28152898106002217 -0.7766187232944023 0.5635643631847902
vn -0.21606484069618098 -0.7707263236306728 0.5994138125516304
vn -0.44540149859347855 -0.7882656611822357 0.42456419120271566
vn -0.28152898106002217 -0.7766187232944023 0.5635643631847902
vn 0.5911743564080559 -0.7987079903377091 0.11215358441092657
vn 1.1614961173295194e-9 -0.9978159272473061 0.06605585009368153
vn 0.43966783216655064 -0.7539156953022367 -0.48816321218923375
vn 0.2991469805205504 -0.3325511487123628 -0.8943829255612641
vn 0.6632381593228295 -0.6326394596656687 -0.3998530456205075
vn 0.43966783216655064 -0.7539156953022367 -0.48816321218923375
vn 0.259825177093563 -0.5004462161590638 -0.8258598319814168
vn 0.2991469805205504 -0.3325511487123628 -0.8943829255612641
vn 0.43966783216655064 -0.7539156953022367 -0.48816321218923375
vn 0.6917996340468229 -0.701768749208852 0.17009964422809706
vn 0.6153889465616784 -0.7586042491049422 0.2140468119118678
vn 0.37800908118437454 -0.7461740380438315 0.5480268601916403
vn 0.5911743564080559 -0.7987079903377091 0.11215358441092657
vn 0.6917996340468229 -0.701768749208852 0.17009964422809706
vn 0.37800908118437454 -0.7461740380438315 0.5480268601916403
vn -0.27816073849751916 -0.6788775619005013 -0.6795232589886424
vn 1.1614961173295194e-9 -0.9978159272473061 0.06605585009368153
vn -0.43207906733923285 -0.7702516149302756 -0.46906303335965516
vn -0.30439428427561854 -0.3866938092454288 -0.8705239902447226
vn -0.27816073849751916 -0.6788775619005013 -0.6795232589886424
vn -0.43207906733923285 -0.7702516149302756 -0.46906303335965516
vn -0.5513525741522247 -0.6800966430969553 -0.4831965387127355
vn -0.30439428427561854 -0.3866938092454288 -0.8705239902447226
vn -0.43207906733923285 -0.7702516149302756 -0.46906303335965516
vn 0.03318442315319005 -0.3931379212856303 -0.9188804976204488
vn 1.1614961173295194e-9 -0.9978159272473061 0.06605585009368153
vn -0.1320477593942894 -0.37612402976871057 -0.9171118271342346
vn -0.30439428427561854 -0.3866938092454288 -0.8705239902447226
vn -0.13691937139179855 -0.2500069296211322 -0.958514277869187
vn -0.1320477593942894 -0.37612402976871057 -0.9171118271342346
vn -0.27816073849751916 -0.6788775619005013 -0.6795232589886424
vn -0.30439428427561854 -0.3866938092454288 -0.8705239902447226
vn -0.1320477593942894 -0.37612402976871057 -0.9171118271342346
vn 0.259825177093563 -0.5004462161590638 -0.8258598319814168
vn 1.1614961173295194e-9 -0.9978159272473061 0.06605585009368153
vn 0.12082843593082813 -0.5554989284647469 -0.8226915761967103
vn -0.054450060621270974 -0.7488130255267618 0.6605408720887734
vn -0.28152898106002217 -0.7766187232944023 0.5635643631847902
vn 1.1614961173295194e-9 -0.9978159272473061 0.06605585009368153
vn -0.1320477593942894 -0.37612402976871057 -0.9171118271342346
vn 1.1614961173295194e-9 -0.9978159272473061 0.06605585009368153
vn -0.27816073849751916 -0.6788775619005013 -0.6795232589886424
vn 0.43966783216655064 -0.7539156953022367 -0.48816321218923375
vn 1.1614961173295194e-9 -0.9978159272473061 0.06605585009368153
vn 0.259825177093563 -0.5004462161590638 -0.8258598319814168
vn 0.13078995302521512 -0.21876827794181683 -0.9669717828116982
vn 0.2991469805205504 -0.3325511487123628 -0.8943829255612641
vn 0.259825177093563 -0.5004462161590638 -0.8258598319814168
vn 0.12082843593082813 -0.5554989284647469 -0.8226915761967103
vn 0.13078995302521512 -0.21876827794181683 -0.9669717828116982
vn 0.259825177093563 -0.5004462161590638 -0.8258598319814168
vn 0.37800908118437454 -0.7461740380438315 0.5480268601916403
vn 0.16168586246888367 -0.7134071892078726 0.6818415243032766
vn 0.10138694281245075 -0.6755779441742593 0.730284279696904
vn -0.054450060621270974 -0.7488130255267618 0.6605408720887734
vn 0.37800908118437454 -0.7461740380438315 0.5480268601916403
vn 0.10138694281245075 -0.6755779441742593 0.730284279696904
vn -0.1320477593942894 -0.37612402976871057 -0.9171118271342346
vn -0.13691937139179855 -0.2500069296211322 -0.958514277869187
vn -0.006543563953181416 -0.21035283182023468 -0.9776036353839929
vn 0.03318442315319005 -0.3931379212856303 -0.9188804976204488
vn -0.1320477593942894 -0.37612402976871057 -0.9171118271342346
vn -0.006543563953181416 -0.21035283182023468 -0.9776036353839929
vn 0.30417168653831944 -0.7696370612354125 0.5613718723639012
vn 0.37800908118437454 -0.7461740380438315 0.5480268601916403
vn 0.6153889465616784 -0.7586042491049422 0.2140468119118678
vn -0.21606484069618098 -0.7707263236306728 0.5994138125516304
vn -0.28152898106002217 -0.7766187232944023 0.5635643631847902
vn -0.22328458414102234 -0.6791634464638061 0.6992002627805396
vn 0.16168586246888367 -0.7134071892078726 0.6818415243032766
vn 0.37800908118437454 -0.7461740380438315 0.5480268601916403
vn 0.30417168653831944 -0.7696370612354125 0.5613718723639012
vn -0.4858311060806446 -0.8662264908151447 0.11670391156485554
vn -0.5944802215895885 -0.8040481068430263 -0.009995399988957767
vn -0.5513525741522247 -0.6800966430969553 -0.4831965387127355
vn -0.43207906733923285 -0.7702516149302756 -0.46906303335965516
vn -0.4858311060806446 -0.8662264908151447 0.11670391156485554
vn -0.5513525741522247 -0.6800966430969553 -0.4831965387127355
f 1/1/1 2/2/2 3/3/3
f 4/4/4 5/5/5 6/6/6
f 7/7/7 8/8/8 9/9/9
f 10/10/10 11/11/11 12/12/12
f 13/13/13 14/14/14 15/15/15
f 16/16/16 17/17/17 18/18/18
f 19/19/19 20/20/20 21/21/21
f 22/22/22 23/23/23 24/24/24
f 25/25/25 26/26/26 27/27/27
f 28/28/28 29/29/29 30/30/30
f 31/31/31 32/32/32 33/33/33
f 34/34/34 35/35/35 36/36/36
f 37/37/37 38/38/38 39/39/39
f 40/40/40 41/41/41 42/42/42
f 43/43/43 44/44/44 45/45/45
f 46/46/46 47/47/47 48/48/48
f 49/49/49 50/50/50 51/51/51
f 52/52/52 53/53/53 54/54/54
f 55/55/55 56/56/56 57/57/57
f 58/58/58 59/59/59 60/60/60
f 61/61/61 62/62/62 63/63/63
f 64/64/64 65/65/65 66/66/66
f 67/67/67 68/68/68 69/69/69
f 70/70/70 71/71/71 72/72/72
f 73/73/73 74/74/74 75/75/75
f 76/76/76 77/77/77 78/78/78
f 79/79/79 80/80/80 81/81/81
f 82/82/82 83/83/83 84/84/84
f 85/85/85 86/86/86 87/87/87
f 88/88/88 89/89/89 90/90/90
f 91/91/91 92/92/92 93/93/93
f 94/94/94 95/95/95 96/96/96
f 97/97/97 98/98/98 99/99/99
f 100/100/100 101/101/101 102/102/102
f 103/103/103 104/104/104 105/105/105
f 106/106/106 107/107/107 108/108/108
f 109/109/109 110/110/110 111/111/111
f 112/112/112 113/113/113 114/114/114
f 115/115/115 116/116/116 117/117/117
f 118/118/118 119/119/119 120/120/120
