mtllib ArcadaCompleta.mtl
o D24C_FMV
usemtl Esmalte
v 25.236099243164062 20.868732452392578 3.714220792733618
v 25.38479995727539 23.08502197265625 4.029740602456519
v 24.381000518798828 23.10704231262207 3.024430782281348
v 24.180999755859375 21.309043884277344 2.891340763055273
v 25.236099243164062 20.868732452392578 3.714220792733618
v 24.381000518798828 23.10704231262207 3.024430782281348
v 25.513399124145508 24.216703414916992 3.8762708015074225
v 24.76609992980957 24.579952239990234 2.8431008166899177
v 24.381000518798828 23.10704231262207 3.024430782281348
v 25.38479995727539 23.08502197265625 4.029740602456519
v 25.513399124145508 24.216703414916992 3.8762708015074225
v 24.381000518798828 23.10704231262207 3.024430782281348
v 23.648799896240234 23.10704231262207 2.1166608638395754
v 23.476900100708008 21.309043884277344 2.1044106788267576
v 24.180999755859375 21.309043884277344 2.891340763055273
v 24.381000518798828 23.10704231262207 3.024430782281348
v 23.648799896240234 23.10704231262207 2.1166608638395754
v 24.180999755859375 21.309043884277344 2.891340763055273
v 24.514400482177734 25.517433166503906 1.3905407495130986
v 24.406600952148438 24.579952239990234 1.9816607541670292
v 24.76609992980957 24.579952239990234 2.8431008166899177
v 25.026500701904297 25.758892059326172 2.570290834390113
v 24.514400482177734 25.517433166503906 1.3905407495130986
v 24.76609992980957 24.579952239990234 2.8431008166899177
v 24.76609992980957 24.579952239990234 2.8431008166899177
v 24.406600952148438 24.579952239990234 1.9816607541670292
v 23.648799896240234 23.10704231262207 2.1166608638395754
v 24.381000518798828 23.10704231262207 3.024430782281348
v 24.76609992980957 24.579952239990234 2.8431008166899177
v 23.648799896240234 23.10704231262207 2.1166608638395754
vt 0.9190490245819092 0.3882349729537964
vt 0.954230010509491 0.6485000252723694
vt 0.842136025428772 0.6510859727859497
vt 0.8272960186004639 0.43994200229644775
vt 0.9190490245819092 0.3882349729537964
vt 0.842136025428772 0.6510859727859497
vt 0.9371179938316345 0.7813959717750549
vt 0.8219169974327087 0.8240540027618408
vt 0.842136025428772 0.6510859727859497
vt 0.954230010509491 0.6485000252723694
vt 0.9371179938316345 0.7813959717750549
vt 0.842136025428772 0.6510859727859497
vt 0.7409170269966125 0.6510859727859497
vt 0.7395520210266113 0.43994200229644775
vt 0.8272960186004639 0.43994200229644775
vt 0.842136025428772 0.6510859727859497
vt 0.7409170269966125 0.6510859727859497
vt 0.8272960186004639 0.43994200229644775
vt 0.6599529981613159 0.9341440200805664
vt 0.7258650064468384 0.8240540027618408
vt 0.8219169974327087 0.8240540027618408
vt 0.7914980053901672 0.9624999761581421
vt 0.6599529981613159 0.9341440200805664
vt 0.8219169974327087 0.8240540027618408
vt 0.8219169974327087 0.8240540027618408
vt 0.7258650064468384 0.8240540027618408
vt 0.7409170269966125 0.6510859727859497
vt 0.842136025428772 0.6510859727859497
vt 0.8219169974327087 0.8240540027618408
vt 0.7409170269966125 0.6510859727859497
vn -0.6669265937966063 -0.025289409640965443 0.744694141407644
vn -0.7071611835125166 0.024368768398938822 0.7066323115028746
vn -0.7170224358222277 0.09527675286270108 0.6905079050173857
vn -0.7079997781015093 0.03627193476433505 0.7052805547841691
vn -0.6669265937966063 -0.025289409640965443 0.744694141407644
vn -0.7170224358222277 0.09527675286270108 0.6905079050173857
vn -0.7173534131640591 0.22618788783322455 0.6589712588720537
vn -0.8166710048884368 0.31878202150895546 0.4810680747432474
vn -0.7170224358222277 0.09527675286270108 0.6905079050173857
vn -0.7071611835125166 0.024368768398938822 0.7066323115028746
vn -0.7173534131640591 0.22618788783322455 0.6589712588720537
vn -0.7170224358222277 0.09527675286270108 0.6905079050173857
vn -0.7880250155105313 0.1943854078646328 0.584149713805397
vn -0.7435867122764696 0.06655853181176488 0.6653185426312219
vn -0.7079997781015093 0.03627193476433505 0.7052805547841691
vn -0.7170224358222277 0.09527675286270108 0.6905079050173857
vn -0.7880250155105313 0.1943854078646328 0.584149713805397
vn -0.7079997781015093 0.03627193476433505 0.7052805547841691
vn -0.890625277127076 0.2958971092558195 0.3452991695274821
vn -0.842385592992701 0.4084129654700785 0.35154709834426445
vn -0.8166710048884368 0.31878202150895546 0.4810680747432474
vn -0.9009470485184652 0.27640440817442175 0.33450712833602525
vn -0.890625277127076 0.2958971092558195 0.3452991695274821
vn -0.8166710048884368 0.31878202150895546 0.4810680747432474
vn -0.8166710048884368 0.31878202150895546 0.4810680747432474
vn -0.842385592992701 0.4084129654700785 0.35154709834426445
vn -0.7880250155105313 0.1943854078646328 0.584149713805397
vn -0.7170224358222277 0.09527675286270108 0.6905079050173857
vn -0.8166710048884368 0.31878202150895546 0.4810680747432474
vn -0.7880250155105313 0.1943854078646328 0.584149713805397
f 1/1/1 2/2/2 3/3/3
f 4/4/4 5/5/5 6/6/6
f 7/7/7 8/8/8 9/9/9
f 10/10/10 11/11/11 12/12/12
f 13/13/13 14/14/14 15/15/15
f 16/16/16 17/17/17 18/18/18
f 19/19/19 20/20/20 21/21/21
f 22/22/22 23/23/23 24/24/24
f 25/25/25 26/26/26 27/27/27
f 28/28/28 29/29/29 30/30/30
