mtllib ArcadaCompleta.mtl
o D25C_CDV
usemtl Esmalte
v 35.458499908447266 20.484533309936523 3.975500852548071
v 35.25550079345703 18.766921997070312 3.4875006980528314
v 36.98139953613281 19.155872344970703 2.5503106422056634
v 37.0973014831543 20.65371322631836 3.046730787240454
v 35.458499908447266 20.484533309936523 3.975500852548071
v 36.98139953613281 19.155872344970703 2.5503106422056634
v 36.750701904296875 19.37038230895996 1.538200766526647
v 37.27170181274414 20.002483367919922 1.8004507131208856
v 36.98139953613281 19.155872344970703 2.5503106422056634
v 36.549400329589844 18.590312957763672 2.229900629006811
v 36.750701904296875 19.37038230895996 1.538200766526647
v 36.98139953613281 19.155872344970703 2.5503106422056634
v 35.17490005493164 17.907896041870117 2.907410652123876
v 35.25550079345703 18.766921997070312 3.4875006980528314
v 33.99850082397461 18.662702560424805 3.860210687600561
v 33.998600006103516 17.459430694580078 2.910640747033544
v 35.17490005493164 17.907896041870117 2.907410652123876
v 33.99850082397461 18.662702560424805 3.860210687600561
v 34.70840072631836 17.77544403076172 2.0389406985868885
v 35.07899856567383 17.7595157623291 2.5303507156004383
v 33.998600006103516 17.459430694580078 2.910640747033544
v 33.998600006103516 17.775346755981445 1.8564307994474842
v 34.70840072631836 17.77544403076172 2.0389406985868885
v 33.998600006103516 17.459430694580078 2.910640747033544
v 37.27170181274414 20.002483367919922 1.8004507131208856
v 37.380699157714844 20.78392219543457 2.10015085407395
v 37.0973014831543 20.65371322631836 3.046730787240454
v 36.98139953613281 19.155872344970703 2.5503106422056634
v 37.27170181274414 20.002483367919922 1.8004507131208856
v 37.0973014831543 20.65371322631836 3.046730787240454
v 35.25550079345703 18.766921997070312 3.4875006980528314
v 35.17490005493164 17.907896041870117 2.907410652123876
v 36.549400329589844 18.590312957763672 2.229900629006811
v 36.98139953613281 19.155872344970703 2.5503106422056634
v 35.25550079345703 18.766921997070312 3.4875006980528314
v 36.549400329589844 18.590312957763672 2.229900629006811
v 35.07899856567383 17.7595157623291 2.5303507156004383
v 35.65919876098633 18.66164207458496 1.9292407340635733
v 36.549400329589844 18.590312957763672 2.229900629006811
v 35.17490005493164 17.907896041870117 2.907410652123876
v 35.07899856567383 17.7595157623291 2.5303507156004383
v 36.549400329589844 18.590312957763672 2.229900629006811
v 35.65919876098633 18.66164207458496 1.9292407340635733
v 35.07899856567383 17.7595157623291 2.5303507156004383
v 34.70840072631836 17.77544403076172 2.0389406985868885
v 34.84489822387695 18.364683151245117 1.5229606933226063
v 35.65919876098633 18.66164207458496 1.9292407340635733
v 34.70840072631836 17.77544403076172 2.0389406985868885
v 33.998600006103516 17.459430694580078 2.910640747033544
v 35.07899856567383 17.7595157623291 2.5303507156004383
v 35.17490005493164 17.907896041870117 2.907410652123876
v 33.998600006103516 17.775346755981445 1.8564307994474842
v 33.99850082397461 18.076032638549805 1.3532607860197499
v 34.84489822387695 18.364683151245117 1.5229606933226063
v 34.70840072631836 17.77544403076172 2.0389406985868885
v 33.998600006103516 17.775346755981445 1.8564307994474842
v 34.84489822387695 18.364683151245117 1.5229606933226063
v 35.66680145263672 19.104463577270508 1.3959307975401358
v 35.65919876098633 18.66164207458496 1.9292407340635733
v 34.84489822387695 18.364683151245117 1.5229606933226063
v 34.98149871826172 19.055002212524414 1.2814007110228018
v 35.66680145263672 19.104463577270508 1.3959307975401358
v 34.84489822387695 18.364683151245117 1.5229606933226063
v 34.98149871826172 19.055002212524414 1.2814007110228018
v 34.84489822387695 18.364683151245117 1.5229606933226063
v 33.99850082397461 18.076032638549805 1.3532607860197499
v 33.99850082397461 18.535293579101562 0.9388627714743093
v 34.98149871826172 19.055002212524414 1.2814007110228018
v 33.99850082397461 18.076032638549805 1.3532607860197499
v 36.549400329589844 18.590312957763672 2.229900629006811
v 35.65919876098633 18.66164207458496 1.9292407340635733
v 35.66680145263672 19.104463577270508 1.3959307975401358
v 36.141300201416016 19.23817253112793 1.4500106877912955
v 36.549400329589844 18.590312957763672 2.229900629006811
v 35.66680145263672 19.104463577270508 1.3959307975401358
v 36.549400329589844 18.590312957763672 2.229900629006811
v 36.141300201416016 19.23817253112793 1.4500106877912955
v 36.750701904296875 19.37038230895996 1.538200766526647
v 35.25550079345703 18.766921997070312 3.4875006980528314
v 35.458499908447266 20.484533309936523 3.975500852548071
v 33.99850082397461 19.5812931060791 4.154510766946264
v 33.99850082397461 18.662702560424805 3.860210687600561
v 35.25550079345703 18.766921997070312 3.4875006980528314
v 33.99850082397461 19.5812931060791 4.154510766946264
vt 0.7072229981422424 0.3791229724884033
vt 0.6784120202064514 0.16414600610733032
vt 0.9233589768409729 0.21282696723937988
vt 0.9398080110549927 0.40029698610305786
vt 0.7072229981422424 0.3791229724884033
vt 0.9233589768409729 0.21282696723937988
vt 0.32986798882484436 0.23967498540878296
vt 0.3008280098438263 0.318789005279541
vt 0.2177949994802475 0.21282696723937988
vt 0.25327399373054504 0.14204096794128418
vt 0.32986798882484436 0.23967498540878296
vt 0.2177949994802475 0.21282696723937988
vt 0.6669740080833435 0.05662977695465088
vt 0.6784120202064514 0.16414600610733032
vt 0.5000140070915222 0.1511020064353943
vt 0.5000290274620056 0.000499427318572998
vt 0.6669740080833435 0.05662977695465088
vt 0.5000140070915222 0.1511020064353943
vt 0.39923399686813354 0.27442002296447754
vt 0.3466370105743408 0.22000503540039062
vt 0.4999710023403168 0.1778939962387085
vt 0.4999710023403168 0.2946299910545349
vt 0.39923399686813354 0.27442002296447754
vt 0.4999710023403168 0.1778939962387085
vt 0.3008280098438263 0.318789005279541
vt 0.26764199137687683 0.4165940284729004
vt 0.16282500326633453 0.40029698610305786
vt 0.2177949994802475 0.21282696723937988
vt 0.3008280098438263 0.318789005279541
vt 0.16282500326633453 0.40029698610305786
vt 0.11401700228452682 0.16414600610733032
vt 0.17825199663639069 0.05662977695465088
vt 0.25327399373054504 0.14204096794128418
vt 0.07664109766483307 0.2177950143814087
vt 0.32158800959587097 0.11401700973510742
vt 0.13795199990272522 0.25327396392822266
vt 0.3466370105743408 0.03805828094482422
vt 0.26429298520088196 0.1509690284729004
vt 0.13795199990272522 0.14204096794128418
vt 0.3330259919166565 0.1782519817352295
vt 0.3466370105743408 0.22000503540039062
vt 0.13795199990272522 0.25327396392822266
vt 0.26429298520088196 0.28656697273254395
vt 0.3466370105743408 0.22000503540039062
vt 0.39923399686813354 0.27442002296447754
vt 0.3798620104789734 0.33155596256256104
vt 0.26429298520088196 0.28656697273254395
vt 0.39923399686813354 0.27442002296447754
vt 0.4999710023403168 0.1778939962387085
vt 0.3466370105743408 0.22000503540039062
vt 0.3330259919166565 0.1782519817352295
vt 0.4999710023403168 0.2946299910545349
vt 0.4999859929084778 0.35034704208374023
vt 0.3798620104789734 0.33155596256256104
vt 0.39923399686813354 0.27442002296447754
vt 0.4999710023403168 0.2946299910545349
vt 0.3798620104789734 0.33155596256256104
vt 0.26321399211883545 0.3456220030784607
vt 0.26429298520088196 0.28656697273254395
vt 0.3798620104789734 0.33155596256256104
vt 0.36047500371932983 0.20020198822021484
vt 0.26321399211883545 0.20639199018478394
vt 0.3798620104789734 0.1138010025024414
vt 0.36047500371932983 0.20020198822021484
vt 0.3798620104789734 0.1138010025024414
vt 0.4999859929084778 0.07767367362976074
vt 0.39623400568962097 0.13515502214431763
vt 0.3583039939403534 0.20020198822021484
vt 0.35034701228141785 0.07767367362976074
vt 0.13795199990272522 0.25327396392822266
vt 0.26429298520088196 0.28656697273254395
vt 0.26321399211883545 0.3456220030784607
vt 0.1958709955215454 0.3396340012550354
vt 0.13795199990272522 0.25327396392822266
vt 0.26321399211883545 0.3456220030784607
vt 0.13795199990272522 0.25327396392822266
vt 0.1958709955215454 0.3396340012550354
vt 0.1093830019235611 0.329867959022522
vt 0.6784120202064514 0.16414600610733032
vt 0.7072229981422424 0.3791229724884033
vt 0.5000140070915222 0.26607298851013184
vt 0.5000140070915222 0.1511020064353943
vt 0.6784120202064514 0.16414600610733032
vt 0.5000140070915222 0.26607298851013184
vn 0.4444431276044037 -0.29856451751381813 0.8445883821169675
vn 0.42557044786842035 -0.4071368178483359 0.8081642193597801
vn 0.6880035965782262 -0.40135719696476657 0.6046184346676927
vn 0.7580888012550322 -0.267578494532128 0.5947294499817778
vn 0.4444431276044037 -0.29856451751381813 0.8445883821169675
vn 0.6880035965782262 -0.40135719696476657 0.6046184346676927
vn 0.6894137654032637 -0.5844420616621704 -0.4279440811981929
vn 0.9555644164762532 -0.2804916136035936 0.09067028544374292
vn 0.6880035965782262 -0.40135719696476657 0.6046184346676927
vn 0.5664775862090052 -0.8233358110621006 -0.034946910386073206
vn 0.6894137654032637 -0.5844420616621704 -0.4279440811981929
vn 0.6880035965782262 -0.40135719696476657 0.6046184346676927
vn 0.3940206871552654 -0.6389745161528037 0.6606506382355071
vn 0.42557044786842035 -0.4071368178483359 0.8081642193597801
vn 0.2665817073954153 -0.5059800019743791 0.8203160554835877
vn 0.24129916988217576 -0.9008381464046986 0.36092290672153254
vn 0.3940206871552654 -0.6389745161528037 0.6606506382355071
vn 0.2665817073954153 -0.5059800019743791 0.8203160554835877
vn 0.3340093120438078 -0.8238196784047238 -0.45799445077550854
vn 0.3946769743702977 -0.8648350041890628 -0.3103071082511831
vn 0.24129916988217576 -0.9008381464046986 0.36092290672153254
vn 0.19653420460652699 -0.8507148757813932 -0.4875023143985355
vn 0.3340093120438078 -0.8238196784047238 -0.45799445077550854
vn 0.24129916988217576 -0.9008381464046986 0.36092290672153254
vn 0.9555644164762532 -0.2804916136035936 0.09067028544374292
vn 0.9410561697658851 -0.22732384017989354 0.25047386496684215
vn 0.7580888012550322 -0.267578494532128 0.5947294499817778
vn 0.6880035965782262 -0.40135719696476657 0.6046184346676927
vn 0.9555644164762532 -0.2804916136035936 0.09067028544374292
vn 0.7580888012550322 -0.267578494532128 0.5947294499817778
vn 0.42557044786842035 -0.4071368178483359 0.8081642193597801
vn 0.3940206871552654 -0.6389745161528037 0.6606506382355071
vn 0.5664775862090052 -0.8233358110621006 -0.034946910386073206
vn 0.6880035965782262 -0.40135719696476657 0.6046184346676927
vn 0.42557044786842035 -0.4071368178483359 0.8081642193597801
vn 0.5664775862090052 -0.8233358110621006 -0.034946910386073206
vn 0.3946769743702977 -0.8648350041890628 -0.3103071082511831
vn 0.3883962856716123 -0.6805528275235808 -0.6212859037722928
vn 0.5664775862090052 -0.8233358110621006 -0.034946910386073206
vn 0.3940206871552654 -0.6389745161528037 0.6606506382355071
vn 0.3946769743702977 -0.8648350041890628 -0.3103071082511831
vn 0.5664775862090052 -0.8233358110621006 -0.034946910386073206
vn 0.3883962856716123 -0.6805528275235808 -0.6212859037722928
vn 0.3946769743702977 -0.8648350041890628 -0.3103071082511831
vn 0.3340093120438078 -0.8238196784047238 -0.45799445077550854
vn 0.37193157015609024 -0.6060262714256082 -0.7031351687003009
vn 0.3883962856716123 -0.6805528275235808 -0.6212859037722928
vn 0.3340093120438078 -0.8238196784047238 -0.45799445077550854
vn 0.24129916988217576 -0.9008381464046986 0.36092290672153254
vn 0.3946769743702977 -0.8648350041890628 -0.3103071082511831
vn 0.3940206871552654 -0.6389745161528037 0.6606506382355071
vn 0.19653420460652699 -0.8507148757813932 -0.4875023143985355
vn 0.41852909920946085 -0.5874387287008113 -0.6926392518023302
vn 0.37193157015609024 -0.6060262714256082 -0.7031351687003009
vn 0.3340093120438078 -0.8238196784047238 -0.45799445077550854
vn 0.19653420460652699 -0.8507148757813932 -0.4875023143985355
vn 0.37193157015609024 -0.6060262714256082 -0.7031351687003009
vn 0.2960735587760825 -0.6439693035638144 -0.705438859052435
vn 0.3883962856716123 -0.6805528275235808 -0.6212859037722928
vn 0.37193157015609024 -0.6060262714256082 -0.7031351687003009
vn 0.36205883578026254 -0.4542267091579715 -0.8139972334848323
vn 0.2960735587760825 -0.6439693035638144 -0.705438859052435
vn 0.37193157015609024 -0.6060262714256082 -0.7031351687003009
vn 0.36205883578026254 -0.4542267091579715 -0.8139972334848323
vn 0.37193157015609024 -0.6060262714256082 -0.7031351687003009
vn 0.41852909920946085 -0.5874387287008113 -0.6926392518023302
vn 0.5225562891244766 -0.5711716240720296 -0.6330070304122826
vn 0.36205883578026254 -0.4542267091579715 -0.8139972334848323
vn 0.41852909920946085 -0.5874387287008113 -0.6926392518023302
vn 0.5664775862090052 -0.8233358110621006 -0.034946910386073206
vn 0.3883962856716123 -0.6805528275235808 -0.6212859037722928
vn 0.2960735587760825 -0.6439693035638144 -0.705438859052435
vn 0.25622823811703654 -0.6733878844967053 -0.6934665435365222
vn 0.5664775862090052 -0.8233358110621006 -0.034946910386073206
vn 0.2960735587760825 -0.6439693035638144 -0.705438859052435
vn 0.5664775862090052 -0.8233358110621006 -0.034946910386073206
vn 0.25622823811703654 -0.6733878844967053 -0.6934665435365222
vn 0.6894137654032637 -0.5844420616621704 -0.4279440811981929
vn 0.42557044786842035 -0.4071368178483359 0.8081642193597801
vn 0.4444431276044037 -0.29856451751381813 0.8445883821169675
vn 0.2933297008294201 -0.2926660925505208 0.9101122155440684
vn 0.2665817073954153 -0.5059800019743791 0.8203160554835877
vn 0.42557044786842035 -0.4071368178483359 0.8081642193597801
vn 0.2933297008294201 -0.2926660925505208 0.9101122155440684
f 1/1/1 2/2/2 3/3/3
f 4/4/4 5/5/5 6/6/6
f 7/7/7 8/8/8 9/9/9
f 10/10/10 11/11/11 12/12/12
f 13/13/13 14/14/14 15/15/15
f 16/16/16 17/17/17 18/18/18
f 19/19/19 20/20/20 21/21/21
f 22/22/22 23/23/23 24/24/24
f 25/25/25 26/26/26 27/27/27
f 28/28/28 29/29/29 30/30/30
f 31/31/31 32/32/32 33/33/33
f 34/34/34 35/35/35 36/36/36
f 37/37/37 38/38/38 39/39/39
f 40/40/40 41/41/41 42/42/42
f 43/43/43 44/44/44 45/45/45
f 46/46/46 47/47/47 48/48/48
f 49/49/49 50/50/50 51/51/51
f 52/52/52 53/53/53 54/54/54
f 55/55/55 56/56/56 57/57/57
f 58/58/58 59/59/59 60/60/60
f 61/61/61 62/62/62 63/63/63
f 64/64/64 65/65/65 66/66/66
f 67/67/67 68/68/68 69/69/69
f 70/70/70 71/71/71 72/72/72
f 73/73/73 74/74/74 75/75/75
f 76/76/76 77/77/77 78/78/78
f 79/79/79 80/80/80 81/81/81
f 82/82/82 83/83/83 84/84/84
