mtllib ArcadaCompleta.mtl
o D26C_CMV
usemtl Esmalte
v 39.79359817504883 19.773283004760742 4.891950876199194
v 38.685001373291016 19.763553619384766 4.516630918466039
v 38.675201416015625 18.696632385253906 3.907980710946508
v 39.60240173339844 18.018712997436523 4.158340723000951
v 39.79359817504883 19.773283004760742 4.891950876199194
v 38.675201416015625 18.696632385253906 3.907980710946508
v 38.76190185546875 18.456262588500977 2.4014208621611077
v 39.008201599121094 18.25345230102539 2.7769506282438714
v 38.675201416015625 18.696632385253906 3.907980710946508
v 38.515499114990234 18.6590633392334 2.025900632821508
v 38.76190185546875 18.456262588500977 2.4014208621611077
v 38.675201416015625 18.696632385253906 3.907980710946508
v 38.05830001831055 19.03276252746582 2.305070669137426
v 38.515499114990234 18.6590633392334 2.025900632821508
v 38.675201416015625 18.696632385253906 3.907980710946508
v 39.96289825439453 23.354084014892578 5.328470975839087
v 40.21950149536133 24.984323501586914 5.031360895120093
v 39.310298919677734 24.859222412109375 4.606340677224585
v 38.921199798583984 23.354084014892578 5.004260808907935
v 39.96289825439453 23.354084014892578 5.328470975839087
v 39.310298919677734 24.859222412109375 4.606340677224585
v 39.79359817504883 19.773283004760742 4.891950876199194
v 39.706199645996094 21.772933959960938 5.122170717202612
v 38.56370162963867 21.772933959960938 4.761110574685522
v 38.685001373291016 19.763553619384766 4.516630918466039
v 39.79359817504883 19.773283004760742 4.891950876199194
v 38.56370162963867 21.772933959960938 4.761110574685522
v 37.731998443603516 21.772933959960938 2.4913008517851316
v 37.84619903564453 20.03476333618164 2.475790769540258
v 38.685001373291016 19.763553619384766 4.516630918466039
v 38.56370162963867 21.772933959960938 4.761110574685522
v 37.731998443603516 21.772933959960938 2.4913008517851316
v 38.685001373291016 19.763553619384766 4.516630918466039
v 39.79359817504883 19.773283004760742 4.891950876199194
v 39.60240173339844 18.018712997436523 4.158340723000951
v 41.3942985534668 18.504173278808594 4.390580923043675
v 41.36360168457031 19.783061981201172 5.25657060810227
v 39.79359817504883 19.773283004760742 4.891950876199194
v 41.3942985534668 18.504173278808594 4.390580923043675
v 39.79359817504883 19.773283004760742 4.891950876199194
v 41.36360168457031 19.783061981201172 5.25657060810227
v 41.37030029296875 21.772933959960938 5.483220846139379
v 39.706199645996094 21.772933959960938 5.122170717202612
v 39.79359817504883 19.773283004760742 4.891950876199194
v 41.37030029296875 21.772933959960938 5.483220846139379
v 40.02040100097656 17.568601608276367 3.7513406581510975
v 41.234798431396484 18.008846282958984 2.817590743981786
v 41.41460037231445 18.346773147583008 3.7579407996763665
v 41.234798431396484 18.008846282958984 2.817590743981786
v 41.538700103759766 18.263612747192383 2.4870508021940667
v 41.41460037231445 18.346773147583008 3.7579407996763665
v 38.80979919433594 24.752822875976562 2.8763506717314216
v 38.105899810791016 23.354084014892578 2.320500642739722
v 38.921199798583984 23.354084014892578 5.004260808907935
v 39.310298919677734 24.859222412109375 4.606340677224585
v 38.80979919433594 24.752822875976562 2.8763506717314216
v 38.921199798583984 23.354084014892578 5.004260808907935
v 39.706199645996094 21.772933959960938 5.122170717202612
v 39.96289825439453 23.354084014892578 5.328470975839087
v 38.921199798583984 23.354084014892578 5.004260808907935
v 38.56370162963867 21.772933959960938 4.761110574685522
v 39.706199645996094 21.772933959960938 5.122170717202612
v 38.921199798583984 23.354084014892578 5.004260808907935
v 38.685001373291016 19.763553619384766 4.516630918466039
v 37.84619903564453 20.03476333618164 2.475790769540258
v 38.05830001831055 19.03276252746582 2.305070669137426
v 38.675201416015625 18.696632385253906 3.907980710946508
v 38.685001373291016 19.763553619384766 4.516630918466039
v 38.05830001831055 19.03276252746582 2.305070669137426
v 38.921199798583984 23.354084014892578 5.004260808907935
v 38.105899810791016 23.354084014892578 2.320500642739722
v 37.731998443603516 21.772933959960938 2.4913008517851316
v 38.56370162963867 21.772933959960938 4.761110574685522
v 38.921199798583984 23.354084014892578 5.004260808907935
v 37.731998443603516 21.772933959960938 2.4913008517851316
v 41.3942985534668 18.504173278808594 4.390580923043675
v 39.60240173339844 18.018712997436523 4.158340723000951
v 40.02040100097656 17.568601608276367 3.7513406581510975
v 41.41460037231445 18.346773147583008 3.7579407996763665
v 41.3942985534668 18.504173278808594 4.390580923043675
v 40.02040100097656 17.568601608276367 3.7513406581510975
v 39.008201599121094 18.25345230102539 2.7769506282438714
v 39.337398529052734 18.09058380126953 2.2443206615080316
v 40.02040100097656 17.568601608276367 3.7513406581510975
v 40.542999267578125 17.927793502807617 2.000090629540868
v 41.085899353027344 17.96833610534668 2.543800861321874
v 40.02040100097656 17.568601608276367 3.7513406581510975
v 39.008201599121094 18.25345230102539 2.7769506282438714
v 40.02040100097656 17.568601608276367 3.7513406581510975
v 39.60240173339844 18.018712997436523 4.158340723000951
v 38.675201416015625 18.696632385253906 3.907980710946508
v 39.008201599121094 18.25345230102539 2.7769506282438714
v 39.60240173339844 18.018712997436523 4.158340723000951
v 41.4093017578125 23.354084014892578 5.652680665933081
v 39.96289825439453 23.354084014892578 5.328470975839087
v 39.706199645996094 21.772933959960938 5.122170717202612
v 41.37030029296875 21.772933959960938 5.483220846139379
v 41.4093017578125 23.354084014892578 5.652680665933081
v 39.706199645996094 21.772933959960938 5.122170717202612
v 40.02040100097656 17.568601608276367 3.7513406581510975
v 39.337398529052734 18.09058380126953 2.2443206615080316
v 40.542999267578125 17.927793502807617 2.000090629540868
v 39.46110153198242 18.62948226928711 1.6370007104505973
v 40.83689880371094 18.559213638305664 1.057300717317052
v 40.542999267578125 17.927793502807617 2.000090629540868
v 39.337398529052734 18.09058380126953 2.2443206615080316
v 39.46110153198242 18.62948226928711 1.6370007104505973
v 40.542999267578125 17.927793502807617 2.000090629540868
v 38.76190185546875 18.456262588500977 2.4014208621611077
v 38.97249984741211 18.591602325439453 2.1335506744017083
v 39.337398529052734 18.09058380126953 2.2443206615080316
v 39.008201599121094 18.25345230102539 2.7769506282438714
v 38.76190185546875 18.456262588500977 2.4014208621611077
v 39.337398529052734 18.09058380126953 2.2443206615080316
v 41.569000244140625 18.338542938232422 1.5896907157530262
v 41.538700103759766 18.263612747192383 2.4870508021940667
v 41.234798431396484 18.008846282958984 2.817590743981786
v 41.085899353027344 17.96833610534668 2.543800861321874
v 41.569000244140625 18.338542938232422 1.5896907157530262
v 41.234798431396484 18.008846282958984 2.817590743981786
v 38.515499114990234 18.6590633392334 2.025900632821508
v 38.97249984741211 18.591602325439453 2.1335506744017083
v 38.76190185546875 18.456262588500977 2.4014208621611077
v 39.46110153198242 18.62948226928711 1.6370007104505973
v 39.337398529052734 18.09058380126953 2.2443206615080316
v 38.97249984741211 18.591602325439453 2.1335506744017083
v 39.1161003112793 18.870532989501953 1.7853807515730338
v 39.46110153198242 18.62948226928711 1.6370007104505973
v 38.97249984741211 18.591602325439453 2.1335506744017083
v 41.234798431396484 18.008846282958984 2.817590743981786
v 40.02040100097656 17.568601608276367 3.7513406581510975
v 41.085899353027344 17.96833610534668 2.543800861321874
v 40.83689880371094 18.559213638305664 1.057300717317052
v 41.569000244140625 18.338542938232422 1.5896907157530262
v 41.085899353027344 17.96833610534668 2.543800861321874
v 40.542999267578125 17.927793502807617 2.000090629540868
v 40.83689880371094 18.559213638305664 1.057300717317052
v 41.085899353027344 17.96833610534668 2.543800861321874
v 38.97249984741211 18.591602325439453 2.1335506744017083
v 38.515499114990234 18.6590633392334 2.025900632821508
v 39.1161003112793 18.870532989501953 1.7853807515730338
vt 0.21603000164031982 0.29150599241256714
vt 0.10572800040245056 0.2902219891548157
vt 0.10475300252437592 0.14939403533935547
vt 0.1970060020685196 0.059911906719207764
vt 0.21603000164031982 0.29150599241256714
vt 0.10475300252437592 0.14939403533935547
vt 0.8866209983825684 0.2901979684829712
vt 0.8621150255203247 0.25673699378967285
vt 0.8952469825744629 0.15595799684524536
vt 0.9111369848251343 0.3236579895019531
vt 0.8866209983825684 0.2901979684829712
vt 0.8952469825744629 0.15595799684524536
vt 0.9566270112991333 0.29878300428390503
vt 0.9111369848251343 0.3236579895019531
vt 0.8952469825744629 0.15595799684524536
vt 0.2328750044107437 0.764153003692627
vt 0.25840601325035095 0.9793360233306885
vt 0.16794300079345703 0.9628229737281799
vt 0.12922899425029755 0.764153003692627
vt 0.2328750044107437 0.764153003692627
vt 0.16794300079345703 0.9628229737281799
vt 0.21603000164031982 0.29150599241256714
vt 0.2073339968919754 0.5554490089416504
vt 0.0936587005853653 0.5554490089416504
vt 0.10572800040245056 0.2902219891548157
vt 0.21603000164031982 0.29150599241256714
vt 0.0936587005853653 0.5554490089416504
vt 0.7178109884262085 0.5554490089416504
vt 0.7164289951324463 0.3260200023651123
vt 0.8982740044593811 0.2902219891548157
vt 0.920058012008667 0.5554490089416504
vt 0.7178109884262085 0.5554490089416504
vt 0.8982740044593811 0.2902219891548157
vt 0.21603000164031982 0.29150599241256714
vt 0.1970060020685196 0.059911906719207764
vt 0.3752950131893158 0.123989999294281
vt 0.6277589797973633 0.03579437732696533
vt 0.7839699983596802 0.0682833194732666
vt 0.6247050166130066 0.11295700073242188
vt 0.21603000164031982 0.29150599241256714
vt 0.37224099040031433 0.2927969694137573
vt 0.37290701270103455 0.5554490089416504
vt 0.2073339968919754 0.5554490089416504
vt 0.21603000164031982 0.29150599241256714
vt 0.37290701270103455 0.5554490089416504
vt 0.7614039778709412 0.169916033744812
vt 0.6405749917030334 0.25311601161956787
vt 0.6226850152015686 0.1693270206451416
vt 0.6405749917030334 0.25311601161956787
vt 0.6103370189666748 0.28256797790527344
vt 0.6226850152015686 0.1693270206451416
vt 0.7521200180053711 0.9487789869308472
vt 0.7025920152664185 0.764153003692627
vt 0.9417240023612976 0.764153003692627
vt 0.9062680006027222 0.9628229737281799
vt 0.7521200180053711 0.9487789869308472
vt 0.9417240023612976 0.764153003692627
vt 0.2073339968919754 0.5554490089416504
vt 0.2328750044107437 0.764153003692627
vt 0.12922899425029755 0.764153003692627
vt 0.0936587005853653 0.5554490089416504
vt 0.2073339968919754 0.5554490089416504
vt 0.12922899425029755 0.764153003692627
vt 0.8982740044593811 0.2902219891548157
vt 0.7164289951324463 0.3260200023651123
vt 0.701216995716095 0.19376099109649658
vt 0.8440420031547546 0.14939403533935547
vt 0.8982740044593811 0.2902219891548157
vt 0.701216995716095 0.19376099109649658
vt 0.9417240023612976 0.764153003692627
vt 0.7025920152664185 0.764153003692627
vt 0.7178109884262085 0.5554490089416504
vt 0.920058012008667 0.5554490089416504
vt 0.9417240023612976 0.764153003692627
vt 0.7178109884262085 0.5554490089416504
vt 0.6247050166130066 0.11295700073242188
vt 0.8029940128326416 0.133650004863739
vt 0.7614039778709412 0.169916033744812
vt 0.6226850152015686 0.1693270206451416
vt 0.6247050166130066 0.11295700073242188
vt 0.7614039778709412 0.169916033744812
vt 0.8621150255203247 0.25673699378967285
vt 0.8293610215187073 0.30419600009918213
vt 0.7614039778709412 0.169916033744812
vt 0.7094069719314575 0.3259580135345459
vt 0.6553900241851807 0.27751100063323975
vt 0.7614039778709412 0.169916033744812
vt 0.8621150255203247 0.25673699378967285
vt 0.7614039778709412 0.169916033744812
vt 0.8029940128326416 0.133650004863739
vt 0.8952469825744629 0.15595799684524536
vt 0.8621150255203247 0.25673699378967285
vt 0.8029940128326416 0.133650004863739
vt 0.3767879903316498 0.764153003692627
vt 0.2328750044107437 0.764153003692627
vt 0.2073339968919754 0.5554490089416504
vt 0.37290701270103455 0.5554490089416504
vt 0.3767879903316498 0.764153003692627
vt 0.2073339968919754 0.5554490089416504
vt 0.7614039778709412 0.169916033744812
vt 0.8293610215187073 0.30419600009918213
vt 0.7094069719314575 0.3259580135345459
vt 0.8170530200004578 0.3583099842071533
vt 0.6801649928092957 0.4099639654159546
vt 0.7094069719314575 0.3259580135345459
vt 0.8293610215187073 0.30419600009918213
vt 0.8170530200004578 0.3583099842071533
vt 0.7094069719314575 0.3259580135345459
vt 0.8866209983825684 0.2901979684829712
vt 0.8656669855117798 0.31406599283218384
vt 0.8293610215187073 0.30419600009918213
vt 0.8621150255203247 0.25673699378967285
vt 0.8866209983825684 0.2901979684829712
vt 0.8293610215187073 0.30419600009918213
vt 0.6073229908943176 0.362525999546051
vt 0.6103370189666748 0.28256797790527344
vt 0.6405749917030334 0.25311601161956787
vt 0.6553900241851807 0.27751100063323975
vt 0.6073229908943176 0.362525999546051
vt 0.6405749917030334 0.25311601161956787
vt 0.9111369848251343 0.3236579895019531
vt 0.8656669855117798 0.31406599283218384
vt 0.8866209983825684 0.2901979684829712
vt 0.8170530200004578 0.3583099842071533
vt 0.8293610215187073 0.30419600009918213
vt 0.8656669855117798 0.31406599283218384
vt 0.8513789772987366 0.3450889587402344
vt 0.8170530200004578 0.3583099842071533
vt 0.8656669855117798 0.31406599283218384
vt 0.6405749917030334 0.25311601161956787
vt 0.7614039778709412 0.169916033744812
vt 0.6553900241851807 0.27751100063323975
vt 0.6801649928092957 0.4099639654159546
vt 0.6073229908943176 0.362525999546051
vt 0.6553900241851807 0.27751100063323975
vt 0.7094069719314575 0.3259580135345459
vt 0.6801649928092957 0.4099639654159546
vt 0.6553900241851807 0.27751100063323975
vt 0.8656669855117798 0.31406599283218384
vt 0.9111369848251343 0.3236579895019531
vt 0.8513789772987366 0.3450889587402344
vn -0.2348752496363733 -0.2627172167545906 0.9358489627760309
vn -0.8453264314062936 -0.16876253640627153 0.506894891147684
vn -0.683400140143148 -0.549313235974319 0.4808525940823735
vn -0.3060411428371485 -0.575251563405305 0.7585673718864295
vn -0.2348752496363733 -0.2627172167545906 0.9358489627760309
vn -0.683400140143148 -0.549313235974319 0.4808525940823735
vn -0.6288257798384623 -0.770934815404728 -0.10118126806592044
vn -0.6102779064063778 -0.7890668533913265 0.07024512674455885
vn -0.683400140143148 -0.549313235974319 0.4808525940823735
vn -0.5540268415901934 -0.831094353594553 -0.04833667573227576
vn -0.6288257798384623 -0.770934815404728 -0.10118126806592044
vn -0.683400140143148 -0.549313235974319 0.4808525940823735
vn -0.8914684922948105 -0.34925844631747577 0.28862166398508654
vn -0.5540268415901934 -0.831094353594553 -0.04833667573227576
vn -0.683400140143148 -0.549313235974319 0.4808525940823735
vn -0.3061463788968451 0.07820005602791777 0.9487671716103904
vn -0.4378881164995812 0.22744207128594746 0.8697839396296113
vn -0.6825049280959704 0.316530931852087 0.6587831147696211
vn -0.834959253349589 0.22825773995018783 0.50074090046523
vn -0.3061463788968451 0.07820005602791777 0.9487671716103904
vn -0.6825049280959704 0.316530931852087 0.6587831147696211
vn -0.2348752496363733 -0.2627172167545906 0.9358489627760309
vn -0.24873262541311394 -0.10144500529910966 0.9632450321465268
vn -0.7377885783407072 -0.045542945523867756 0.6734937666994463
vn -0.8453264314062936 -0.16876253640627153 0.506894891147684
vn -0.2348752496363733 -0.2627172167545906 0.9358489627760309
vn -0.7377885783407072 -0.045542945523867756 0.6734937666994463
vn -0.9398681326142337 0.060548609841867135 0.3361275935451451
vn -0.9226824619991256 -0.13443313508087038 0.3613651982573318
vn -0.8453264314062936 -0.16876253640627153 0.506894891147684
vn -0.7377885783407072 -0.045542945523867756 0.6734937666994463
vn -0.9398681326142337 0.060548609841867135 0.3361275935451451
vn -0.8453264314062936 -0.16876253640627153 0.506894891147684
vn -0.2348752496363733 -0.2627172167545906 0.9358489627760309
vn -0.3060411428371485 -0.575251563405305 0.7585673718864295
vn 0.009808942832061976 -0.5678696779846714 0.8230600302931148
vn -0.21315231969946644 -0.3111466176752046 0.9261500261383233
vn -0.2348752496363733 -0.2627172167545906 0.9358489627760309
vn 0.009808942832061976 -0.5678696779846714 0.8230600302931148
vn -0.2348752496363733 -0.2627172167545906 0.9358489627760309
vn -0.21315231969946644 -0.3111466176752046 0.9261500261383233
vn -0.21537068917437174 -0.11066466770864125 0.9702416181372001
vn -0.24873262541311394 -0.10144500529910966 0.9632450321465268
vn -0.2348752496363733 -0.2627172167545906 0.9358489627760309
vn -0.21537068917437174 -0.11066466770864125 0.9702416181372001
vn 0.014788664657557763 -0.9931840123491957 0.11561493420661015
vn 0.5081733308694072 -0.8550622795941778 0.10309395621616298
vn 0.5155695115189756 -0.8321024235031069 0.20443491774239803
vn 0.5081733308694072 -0.8550622795941778 0.10309395621616298
vn 0.6734526549555715 -0.7374858632946938 0.050755521608710205
vn 0.5155695115189756 -0.8321024235031069 0.20443491774239803
vn -0.9076540730396963 0.32734766222119577 0.26269296095017064
vn -0.9142990910654774 0.2948038047217166 0.27775508779938096
vn -0.834959253349589 0.22825773995018783 0.50074090046523
vn -0.6825049280959704 0.316530931852087 0.6587831147696211
vn -0.9076540730396963 0.32734766222119577 0.26269296095017064
vn -0.834959253349589 0.22825773995018783 0.50074090046523
vn -0.24873262541311394 -0.10144500529910966 0.9632450321465268
vn -0.3061463788968451 0.07820005602791777 0.9487671716103904
vn -0.834959253349589 0.22825773995018783 0.50074090046523
vn -0.7377885783407072 -0.045542945523867756 0.6734937666994463
vn -0.24873262541311394 -0.10144500529910966 0.9632450321465268
vn -0.834959253349589 0.22825773995018783 0.50074090046523
vn -0.8453264314062936 -0.16876253640627153 0.506894891147684
vn -0.9226824619991256 -0.13443313508087038 0.3613651982573318
vn -0.8914684922948105 -0.34925844631747577 0.28862166398508654
vn -0.683400140143148 -0.549313235974319 0.4808525940823735
vn -0.8453264314062936 -0.16876253640627153 0.506894891147684
vn -0.8914684922948105 -0.34925844631747577 0.28862166398508654
vn -0.834959253349589 0.22825773995018783 0.50074090046523
vn -0.9142990910654774 0.2948038047217166 0.27775508779938096
vn -0.9398681326142337 0.060548609841867135 0.3361275935451451
vn -0.7377885783407072 -0.045542945523867756 0.6734937666994463
vn -0.834959253349589 0.22825773995018783 0.50074090046523
vn -0.9398681326142337 0.060548609841867135 0.3361275935451451
vn 0.009808942832061976 -0.5678696779846714 0.8230600302931148
vn -0.3060411428371485 -0.575251563405305 0.7585673718864295
vn 0.014788664657557763 -0.9931840123491957 0.11561493420661015
vn 0.5155695115189756 -0.8321024235031069 0.20443491774239803
vn 0.009808942832061976 -0.5678696779846714 0.8230600302931148
vn 0.014788664657557763 -0.9931840123491957 0.11561493420661015
vn -0.6102779064063778 -0.7890668533913265 0.07024512674455885
vn -0.3469499658239439 -0.868914904870475 -0.35300511229824705
vn 0.014788664657557763 -0.9931840123491957 0.11561493420661015
vn -0.06167705593518246 -0.9096783245469928 -0.4107082743512043
vn 0.2427755191534611 -0.9391118459464336 -0.24316452887468884
vn 0.014788664657557763 -0.9931840123491957 0.11561493420661015
vn -0.6102779064063778 -0.7890668533913265 0.07024512674455885
vn 0.014788664657557763 -0.9931840123491957 0.11561493420661015
vn -0.3060411428371485 -0.575251563405305 0.7585673718864295
vn -0.683400140143148 -0.549313235974319 0.4808525940823735
vn -0.6102779064063778 -0.7890668533913265 0.07024512674455885
vn -0.3060411428371485 -0.575251563405305 0.7585673718864295
vn -0.21416289709288494 -0.09548611762794844 0.972119671053479
vn -0.3061463788968451 0.07820005602791777 0.9487671716103904
vn -0.24873262541311394 -0.10144500529910966 0.9632450321465268
vn -0.21537068917437174 -0.11066466770864125 0.9702416181372001
vn -0.21416289709288494 -0.09548611762794844 0.972119671053479
vn -0.24873262541311394 -0.10144500529910966 0.9632450321465268
vn 0.014788664657557763 -0.9931840123491957 0.11561493420661015
vn -0.3469499658239439 -0.868914904870475 -0.35300511229824705
vn -0.06167705593518246 -0.9096783245469928 -0.4107082743512043
vn -0.3343120627512489 -0.7001840707142062 -0.6308547470036892
vn -0.02015899947926864 -0.8647839571936463 -0.5017392969665548
vn -0.06167705593518246 -0.9096783245469928 -0.4107082743512043
vn -0.3469499658239439 -0.868914904870475 -0.35300511229824705
vn -0.3343120627512489 -0.7001840707142062 -0.6308547470036892
vn -0.06167705593518246 -0.9096783245469928 -0.4107082743512043
vn -0.6288257798384623 -0.770934815404728 -0.10118126806592044
vn -0.40926320577251996 -0.6524075584591543 -0.6378620588075177
vn -0.3469499658239439 -0.868914904870475 -0.35300511229824705
vn -0.6102779064063778 -0.7890668533913265 0.07024512674455885
vn -0.6288257798384623 -0.770934815404728 -0.10118126806592044
vn -0.3469499658239439 -0.868914904870475 -0.35300511229824705
vn 0.20810547543783073 -0.9401817950684844 -0.2697226414571034
vn 0.6734526549555715 -0.7374858632946938 0.050755521608710205
vn 0.5081733308694072 -0.8550622795941778 0.10309395621616298
vn 0.2427755191534611 -0.9391118459464336 -0.24316452887468884
vn 0.20810547543783073 -0.9401817950684844 -0.2697226414571034
vn 0.5081733308694072 -0.8550622795941778 0.10309395621616298
vn -0.5540268415901934 -0.831094353594553 -0.04833667573227576
vn -0.40926320577251996 -0.6524075584591543 -0.6378620588075177
vn -0.6288257798384623 -0.770934815404728 -0.10118126806592044
vn -0.3343120627512489 -0.7001840707142062 -0.6308547470036892
vn -0.3469499658239439 -0.868914904870475 -0.35300511229824705
vn -0.40926320577251996 -0.6524075584591543 -0.6378620588075177
vn -0.2963155273946226 -0.6820266989984741 -0.6686080242399813
vn -0.3343120627512489 -0.7001840707142062 -0.6308547470036892
vn -0.40926320577251996 -0.6524075584591543 -0.6378620588075177
vn 0.5081733308694072 -0.8550622795941778 0.10309395621616298
vn 0.014788664657557763 -0.9931840123491957 0.11561493420661015
vn 0.2427755191534611 -0.9391118459464336 -0.24316452887468884
vn -0.02015899947926864 -0.8647839571936463 -0.5017392969665548
vn 0.20810547543783073 -0.9401817950684844 -0.2697226414571034
vn 0.2427755191534611 -0.9391118459464336 -0.24316452887468884
vn -0.06167705593518246 -0.9096783245469928 -0.4107082743512043
vn -0.02015899947926864 -0.8647839571936463 -0.5017392969665548
vn 0.2427755191534611 -0.9391118459464336 -0.24316452887468884
vn -0.40926320577251996 -0.6524075584591543 -0.6378620588075177
vn -0.5540268415901934 -0.831094353594553 -0.04833667573227576
vn -0.2963155273946226 -0.6820266989984741 -0.6686080242399813
f 1/1/1 2/2/2 3/3/3
f 4/4/4 5/5/5 6/6/6
f 7/7/7 8/8/8 9/9/9
f 10/10/10 11/11/11 12/12/12
f 13/13/13 14/14/14 15/15/15
f 16/16/16 17/17/17 18/18/18
f 19/19/19 20/20/20 21/21/21
f 22/22/22 23/23/23 24/24/24
f 25/25/25 26/26/26 27/27/27
f 28/28/28 29/29/29 30/30/30
f 31/31/31 32/32/32 33/33/33
f 34/34/34 35/35/35 36/36/36
f 37/37/37 38/38/38 39/39/39
f 40/40/40 41/41/41 42/42/42
f 43/43/43 44/44/44 45/45/45
f 46/46/46 47/47/47 48/48/48
f 49/49/49 50/50/50 51/51/51
f 52/52/52 53/53/53 54/54/54
f 55/55/55 56/56/56 57/57/57
f 58/58/58 59/59/59 60/60/60
f 61/61/61 62/62/62 63/63/63
f 64/64/64 65/65/65 66/66/66
f 67/67/67 68/68/68 69/69/69
f 70/70/70 71/71/71 72/72/72
f 73/73/73 74/74/74 75/75/75
f 76/76/76 77/77/77 78/78/78
f 79/79/79 80/80/80 81/81/81
f 82/82/82 83/83/83 84/84/84
f 85/85/85 86/86/86 87/87/87
f 88/88/88 89/89/89 90/90/90
f 91/91/91 92/92/92 93/93/93
f 94/94/94 95/95/95 96/96/96
f 97/97/97 98/98/98 99/99/99
f 100/100/100 101/101/101 102/102/102
f 103/103/103 104/104/104 105/105/105
f 106/106/106 107/107/107 108/108/108
f 109/109/109 110/110/110 111/111/111
f 112/112/112 113/113/113 114/114/114
f 115/115/115 116/116/116 117/117/117
f 118/118/118 119/119/119 120/120/120
f 121/121/121 122/122/122 123/123/123
f 124/124/124 125/125/125 126/126/126
f 127/127/127 128/128/128 129/129/129
f 130/130/130 131/131/131 132/132/132
f 133/133/133 134/134/134 135/135/135
f 136/136/136 137/137/137 138/138/138
f 139/139/139 140/140/140 141/141/141
