mtllib ArcadaCompleta.mtl
o D26C_L
usemtl Esmalte
v 43.174598693847656 18.648853302001953 -4.026349275625758
v 42.950801849365234 18.811683654785156 -4.101529329336696
v 42.950801849365234 19.23098373413086 -4.669729440725855
v 43.201698303222656 19.087032318115234 -4.792179315603785
v 43.174598693847656 18.648853302001953 -4.026349275625758
v 42.950801849365234 19.23098373413086 -4.669729440725855
v 42.669898986816406 18.666393280029297 -4.036839216269069
v 42.67319869995117 19.119062423706055 -4.7333194904695075
v 42.950801849365234 19.23098373413086 -4.669729440725855
v 42.950801849365234 18.811683654785156 -4.101529329336696
v 42.669898986816406 18.666393280029297 -4.036839216269069
v 42.950801849365234 19.23098373413086 -4.669729440725855
v 42.89390182495117 21.16644287109375 -5.251529424704127
v 41.53120040893555 21.671363830566406 -5.529719083822779
v 42.827598571777344 22.236902236938477 -5.4576494388948005
v 42.96609878540039 18.667173385620117 -3.339759319342188
v 42.669898986816406 18.666393280029297 -4.036839216269069
v 42.950801849365234 18.811683654785156 -4.101529329336696
v 43.213600158691406 18.924312591552734 -3.4731192283998054
v 42.96609878540039 18.667173385620117 -3.339759319342188
v 42.950801849365234 18.811683654785156 -4.101529329336696
v 43.43709945678711 18.573902130126953 -3.4279093437562507
v 43.213600158691406 18.924312591552734 -3.4731192283998054
v 42.950801849365234 18.811683654785156 -4.101529329336696
v 43.174598693847656 18.648853302001953 -4.026349275625758
v 43.43709945678711 18.573902130126953 -3.4279093437562507
v 42.950801849365234 18.811683654785156 -4.101529329336696
v 42.67319869995117 19.119062423706055 -4.7333194904695075
v 42.60710144042969 20.60706329345703 -5.262079446829371
v 42.931800842285156 20.929222106933594 -5.045419424093775
v 42.950801849365234 19.23098373413086 -4.669729440725855
v 42.67319869995117 19.119062423706055 -4.7333194904695075
v 42.931800842285156 20.929222106933594 -5.045419424093775
v 42.60710144042969 20.60706329345703 -5.262079446829371
v 42.89390182495117 21.16644287109375 -5.251529424704127
v 42.931800842285156 20.929222106933594 -5.045419424093775
v 42.669898986816406 18.666393280029297 -4.036839216269069
v 41.716800689697266 18.194143295288086 -3.9591991596589606
v 41.6786003112793 18.998233795166016 -4.538189142263942
v 42.67319869995117 19.119062423706055 -4.7333194904695075
v 42.669898986816406 18.666393280029297 -4.036839216269069
v 41.6786003112793 18.998233795166016 -4.538189142263942
v 41.53329849243164 19.793113708496094 -5.3149492435823005
v 42.60710144042969 20.60706329345703 -5.262079446829371
v 41.6786003112793 18.998233795166016 -4.538189142263942
v 43.174598693847656 18.648853302001953 -4.026349275625758
v 43.201698303222656 19.087032318115234 -4.792179315603785
v 43.94150161743164 18.32235336303711 -4.819939344442897
v 44.08509826660156 17.86229705810547 -3.778539150274806
v 43.174598693847656 18.648853302001953 -4.026349275625758
v 43.94150161743164 18.32235336303711 -4.819939344442897
v 42.89390182495117 21.16644287109375 -5.251529424704127
v 42.60710144042969 20.60706329345703 -5.262079446829371
v 41.53329849243164 19.793113708496094 -5.3149492435823005
v 41.53120040893555 21.671363830566406 -5.529719083822779
v 42.89390182495117 21.16644287109375 -5.251529424704127
v 41.53329849243164 19.793113708496094 -5.3149492435823005
v 42.89390182495117 21.16644287109375 -5.251529424704127
v 44.013999938964844 21.71686363220215 -5.500749319113306
v 44.011600494384766 19.783292770385742 -5.29668924144607
v 43.161800384521484 20.6071834564209 -5.262079446829371
v 42.89390182495117 21.16644287109375 -5.251529424704127
v 44.011600494384766 19.783292770385742 -5.29668924144607
v 42.96609878540039 18.667173385620117 -3.339759319342188
v 42.174400329589844 17.954980850219727 -2.972119300879054
v 41.716800689697266 18.194143295288086 -3.9591991596589606
v 42.669898986816406 18.666393280029297 -4.036839216269069
v 42.96609878540039 18.667173385620117 -3.339759319342188
v 41.716800689697266 18.194143295288086 -3.9591991596589606
v 41.6786003112793 18.998233795166016 -4.538189142263942
v 42.60710144042969 20.60706329345703 -5.262079446829371
v 42.67319869995117 19.119062423706055 -4.7333194904695075
v 42.931800842285156 20.929222106933594 -5.045419424093775
v 43.161800384521484 20.6071834564209 -5.262079446829371
v 43.201698303222656 19.087032318115234 -4.792179315603785
v 42.950801849365234 19.23098373413086 -4.669729440725855
v 42.931800842285156 20.929222106933594 -5.045419424093775
v 43.201698303222656 19.087032318115234 -4.792179315603785
v 44.293800354003906 17.99678611755371 -3.427409141577296
v 43.43709945678711 18.573902130126953 -3.4279093437562507
v 43.174598693847656 18.648853302001953 -4.026349275625758
v 44.08509826660156 17.86229705810547 -3.778539150274806
v 44.293800354003906 17.99678611755371 -3.427409141577296
v 43.174598693847656 18.648853302001953 -4.026349275625758
v 43.94150161743164 18.32235336303711 -4.819939344442897
v 43.201698303222656 19.087032318115234 -4.792179315603785
v 43.161800384521484 20.6071834564209 -5.262079446829371
v 44.011600494384766 19.783292770385742 -5.29668924144607
v 43.94150161743164 18.32235336303711 -4.819939344442897
v 43.161800384521484 20.6071834564209 -5.262079446829371
v 42.931800842285156 20.929222106933594 -5.045419424093775
v 42.89390182495117 21.16644287109375 -5.251529424704127
v 43.161800384521484 20.6071834564209 -5.262079446829371
v 42.827598571777344 22.236902236938477 -5.4576494388948005
v 44.013999938964844 21.71686363220215 -5.500749319113306
v 42.89390182495117 21.16644287109375 -5.251529424704127
vt 0.44756999611854553 0.8629339933395386
vt 0.4698370099067688 0.8696330189704895
vt 0.4698370099067688 0.9202619791030884
vt 0.44487398862838745 0.9311720132827759
vt 0.44756999611854553 0.8629339933395386
vt 0.4698370099067688 0.9202619791030884
vt 0.4977869987487793 0.8638690114021301
vt 0.49745801091194153 0.925927996635437
vt 0.4698370099067688 0.9202619791030884
vt 0.4698370099067688 0.8696330189704895
vt 0.4977869987487793 0.8638690114021301
vt 0.4698370099067688 0.9202619791030884
vt 0.4754990041255951 0.4753960371017456
vt 0.611083984375 0.5420420169830322
vt 0.48209598660469055 0.616690993309021
vt 0.4683150053024292 0.8017569780349731
vt 0.4977869987487793 0.8638690114021301
vt 0.4698370099067688 0.8696330189704895
vt 0.4436889886856079 0.8136399984359741
vt 0.4683150053024292 0.8017569780349731
vt 0.4698370099067688 0.8696330189704895
vt 0.1903890073299408 0.1331939697265625
vt 0.18636000156402588 0.17944598197937012
vt 0.1303669959306717 0.16457998752593994
vt 0.44756999611854553 0.8629339933395386
vt 0.42145198583602905 0.8096110224723816
vt 0.4698370099067688 0.8696330189704895
vt 0.925927996635437 0.20515203475952148
vt 0.9730420112609863 0.40156102180480957
vt 0.9537370204925537 0.4440839886665344
vt 0.4698370099067688 0.21992498636245728
vt 0.49745801091194153 0.20515203475952148
vt 0.47172799706459045 0.4440839886665344
vt 0.9730420112609863 0.40156102180480957
vt 0.9721019864082336 0.4753960371017456
vt 0.9537370204925537 0.4440839886665344
vt 0.4977869987487793 0.8638690114021301
vt 0.5926169753074646 0.8569509983062744
vt 0.596418023109436 0.9085410237312317
vt 0.49745801091194153 0.925927996635437
vt 0.4977869987487793 0.8638690114021301
vt 0.596418023109436 0.9085410237312317
vt 0.6108750104904175 0.9777529835700989
vt 0.5040349960327148 0.9730420112609863
vt 0.596418023109436 0.9085410237312317
vt 0.44756999611854553 0.8629339933395386
vt 0.44487398862838745 0.9311720132827759
vt 0.3712649941444397 0.933646023273468
vt 0.35697799921035767 0.8408529758453369
vt 0.44756999611854553 0.8629339933395386
vt 0.3712649941444397 0.933646023273468
vt 0.4754990041255951 0.4753960371017456
vt 0.5040349960327148 0.40156102180480957
vt 0.6108750104904175 0.29412299394607544
vt 0.611083984375 0.5420420169830322
vt 0.4754990041255951 0.4753960371017456
vt 0.6108750104904175 0.29412299394607544
vt 0.4754990041255951 0.4753960371017456
vt 0.3640519976615906 0.5480480194091797
vt 0.3642910122871399 0.2928270101547241
vt 0.44884300231933594 0.40157604217529297
vt 0.4754990041255951 0.4753960371017456
vt 0.3642910122871399 0.2928270101547241
vt 0.4683150053024292 0.8017569780349731
vt 0.5470870137214661 0.7689989805221558
vt 0.5926169753074646 0.8569509983062744
vt 0.4977869987487793 0.8638690114021301
vt 0.4683150053024292 0.8017569780349731
vt 0.5926169753074646 0.8569509983062744
vt 0.596418023109436 0.18920397758483887
vt 0.5040349960327148 0.40156102180480957
vt 0.49745801091194153 0.20515203475952148
vt 0.0462631992995739 0.4440839886665344
vt 0.026957999914884567 0.40157604217529297
vt 0.06882770359516144 0.20092499256134033
vt 0.4698370099067688 0.21992498636245728
vt 0.47172799706459045 0.4440839886665344
vt 0.44487398862838745 0.20092499256134033
vt 0.33621299266815186 0.8095669746398926
vt 0.42145198583602905 0.8096110224723816
vt 0.44756999611854553 0.8629339933395386
vt 0.35697799921035767 0.8408529758453369
vt 0.33621299266815186 0.8095669746398926
vt 0.44756999611854553 0.8629339933395386
vt 0.3712649941444397 0.09999090433120728
vt 0.44487398862838745 0.20092499256134033
vt 0.44884300231933594 0.40157604217529297
vt 0.3642910122871399 0.2928270101547241
vt 0.3712649941444397 0.09999090433120728
vt 0.44884300231933594 0.40157604217529297
vt 0.0462631992995739 0.4440839886665344
vt 0.027898000553250313 0.4753960371017456
vt 0.026957999914884567 0.40157604217529297
vt 0.48209598660469055 0.616690993309021
vt 0.3640519976615906 0.5480480194091797
vt 0.4754990041255951 0.4753960371017456
vn -0.6403719560469211 -0.7571320866895517 -0.1291307911141468
vn -0.04717375290263583 -0.9861275453752248 -0.15914490657672667
vn -0.10832418790836953 -0.5386574863390489 -0.8355321554104844
vn -0.5822197838253004 -0.4022227257628131 -0.7065670542859702
vn -0.6403719560469211 -0.7571320866895517 -0.1291307911141468
vn -0.10832418790836953 -0.5386574863390489 -0.8355321554104844
vn 0.257332730357061 -0.8053623066794001 -0.5340144388188546
vn 0.147610175359049 -0.4793215594833116 -0.8651370288832613
vn -0.10832418790836953 -0.5386574863390489 -0.8355321554104844
vn -0.04717375290263583 -0.9861275453752248 -0.15914490657672667
vn 0.257332730357061 -0.8053623066794001 -0.5340144388188546
vn -0.10832418790836953 -0.5386574863390489 -0.8355321554104844
vn 0.011588921395403524 -0.13973347390476681 -0.9901213325504087
vn 0.14941557458559246 -0.13632092655322225 -0.9793322168982946
vn 0.014906810231675819 -0.18816816660679958 -0.9820236901849937
vn 0.4905038387833377 -0.8197279425159407 -0.29572298591315516
vn 0.257332730357061 -0.8053623066794001 -0.5340144388188546
vn -0.04717375290263583 -0.9861275453752248 -0.15914490657672667
vn -0.1466285138142402 -0.9612142435922296 0.23359635453500793
vn 0.4905038387833377 -0.8197279425159407 -0.29572298591315516
vn -0.04717375290263583 -0.9861275453752248 -0.15914490657672667
vn -0.6426692196274784 -0.7327783833796333 0.22363388606143578
vn -0.1466285138142402 -0.9612142435922296 0.23359635453500793
vn -0.04717375290263583 -0.9861275453752248 -0.15914490657672667
vn -0.6403719560469211 -0.7571320866895517 -0.1291307911141468
vn -0.6426692196274784 -0.7327783833796333 0.22363388606143578
vn -0.04717375290263583 -0.9861275453752248 -0.15914490657672667
vn 0.147610175359049 -0.4793215594833116 -0.8651370288832613
vn 0.27522896167492666 -0.40420848830864153 -0.8722754820781017
vn -0.050909269540453654 -0.29965002096521204 -0.9526899344542302
vn -0.10832418790836953 -0.5386574863390489 -0.8355321554104844
vn 0.147610175359049 -0.4793215594833116 -0.8651370288832613
vn -0.050909269540453654 -0.29965002096521204 -0.9526899344542302
vn 0.27522896167492666 -0.40420848830864153 -0.8722754820781017
vn 0.011588921395403524 -0.13973347390476681 -0.9901213325504087
vn -0.050909269540453654 -0.29965002096521204 -0.9526899344542302
vn 0.257332730357061 -0.8053623066794001 -0.5340144388188546
vn 0.4032277186884745 -0.7650073208684521 -0.5021665121241774
vn 0.14320246682017945 -0.5714033766432896 -0.8080787304819143
vn 0.147610175359049 -0.4793215594833116 -0.8651370288832613
vn 0.257332730357061 -0.8053623066794001 -0.5340144388188546
vn 0.14320246682017945 -0.5714033766432896 -0.8080787304819143
vn 0.2638221680209205 -0.2669137119327429 -0.9269061085369036
vn 0.27522896167492666 -0.40420848830864153 -0.8722754820781017
vn 0.14320246682017945 -0.5714033766432896 -0.8080787304819143
vn -0.6403719560469211 -0.7571320866895517 -0.1291307911141468
vn -0.5822197838253004 -0.4022227257628131 -0.7065670542859702
vn -0.4946572995699523 -0.5135687790171264 -0.7011143025220782
vn -0.6517352175773553 -0.7583449746132744 -0.012413929603049092
vn -0.6403719560469211 -0.7571320866895517 -0.1291307911141468
vn -0.4946572995699523 -0.5135687790171264 -0.7011143025220782
vn 0.011588921395403524 -0.13973347390476681 -0.9901213325504087
vn 0.27522896167492666 -0.40420848830864153 -0.8722754820781017
vn 0.2638221680209205 -0.2669137119327429 -0.9269061085369036
vn 0.14941557458559246 -0.13632092655322225 -0.9793322168982946
vn 0.011588921395403524 -0.13973347390476681 -0.9901213325504087
vn 0.2638221680209205 -0.2669137119327429 -0.9269061085369036
vn 0.011588921395403524 -0.13973347390476681 -0.9901213325504087
vn -0.1505746466309212 -0.13688927187960698 -0.9790753816924641
vn -0.21334631943477156 -0.16345647480972994 -0.9632057562257468
vn -0.41745795079694553 -0.2653201411128621 -0.8690995811966921
vn 0.011588921395403524 -0.13973347390476681 -0.9901213325504087
vn -0.21334631943477156 -0.16345647480972994 -0.9632057562257468
vn 0.4905038387833377 -0.8197279425159407 -0.29572298591315516
vn 0.49471671472023243 -0.7638754551696776 -0.41442690690366357
vn 0.4032277186884745 -0.7650073208684521 -0.5021665121241774
vn 0.257332730357061 -0.8053623066794001 -0.5340144388188546
vn 0.4905038387833377 -0.8197279425159407 -0.29572298591315516
vn 0.4032277186884745 -0.7650073208684521 -0.5021665121241774
vn 0.14320246682017945 -0.5714033766432896 -0.8080787304819143
vn 0.27522896167492666 -0.40420848830864153 -0.8722754820781017
vn 0.147610175359049 -0.4793215594833116 -0.8651370288832613
vn -0.050909269540453654 -0.29965002096521204 -0.9526899344542302
vn -0.41745795079694553 -0.2653201411128621 -0.8690995811966921
vn -0.5822197838253004 -0.4022227257628131 -0.7065670542859702
vn -0.10832418790836953 -0.5386574863390489 -0.8355321554104844
vn -0.050909269540453654 -0.29965002096521204 -0.9526899344542302
vn -0.5822197838253004 -0.4022227257628131 -0.7065670542859702
vn -0.6033809075735973 -0.7191979754830942 0.3445079860274372
vn -0.6426692196274784 -0.7327783833796333 0.22363388606143578
vn -0.6403719560469211 -0.7571320866895517 -0.1291307911141468
vn -0.6517352175773553 -0.7583449746132744 -0.012413929603049092
vn -0.6033809075735973 -0.7191979754830942 0.3445079860274372
vn -0.6403719560469211 -0.7571320866895517 -0.1291307911141468
vn -0.4946572995699523 -0.5135687790171264 -0.7011143025220782
vn -0.5822197838253004 -0.4022227257628131 -0.7065670542859702
vn -0.41745795079694553 -0.2653201411128621 -0.8690995811966921
vn -0.21334631943477156 -0.16345647480972994 -0.9632057562257468
vn -0.4946572995699523 -0.5135687790171264 -0.7011143025220782
vn -0.41745795079694553 -0.2653201411128621 -0.8690995811966921
vn -0.050909269540453654 -0.29965002096521204 -0.9526899344542302
vn 0.011588921395403524 -0.13973347390476681 -0.9901213325504087
vn -0.41745795079694553 -0.2653201411128621 -0.8690995811966921
vn 0.014906810231675819 -0.18816816660679958 -0.9820236901849937
vn -0.1505746466309212 -0.13688927187960698 -0.9790753816924641
vn 0.011588921395403524 -0.13973347390476681 -0.9901213325504087
f 1/1/1 2/2/2 3/3/3
f 4/4/4 5/5/5 6/6/6
f 7/7/7 8/8/8 9/9/9
f 10/10/10 11/11/11 12/12/12
f 13/13/13 14/14/14 15/15/15
f 16/16/16 17/17/17 18/18/18
f 19/19/19 20/20/20 21/21/21
f 22/22/22 23/23/23 24/24/24
f 25/25/25 26/26/26 27/27/27
f 28/28/28 29/29/29 30/30/30
f 31/31/31 32/32/32 33/33/33
f 34/34/34 35/35/35 36/36/36
f 37/37/37 38/38/38 39/39/39
f 40/40/40 41/41/41 42/42/42
f 43/43/43 44/44/44 45/45/45
f 46/46/46 47/47/47 48/48/48
f 49/49/49 50/50/50 51/51/51
f 52/52/52 53/53/53 54/54/54
f 55/55/55 56/56/56 57/57/57
f 58/58/58 59/59/59 60/60/60
f 61/61/61 62/62/62 63/63/63
f 64/64/64 65/65/65 66/66/66
f 67/67/67 68/68/68 69/69/69
f 70/70/70 71/71/71 72/72/72
f 73/73/73 74/74/74 75/75/75
f 76/76/76 77/77/77 78/78/78
f 79/79/79 80/80/80 81/81/81
f 82/82/82 83/83/83 84/84/84
f 85/85/85 86/86/86 87/87/87
f 88/88/88 89/89/89 90/90/90
f 91/91/91 92/92/92 93/93/93
f 94/94/94 95/95/95 96/96/96
