mtllib ArcadaCompleta.mtl
o D26C_CV
usemtl Esmalte
v 41.4093017578125 23.354084014892578 5.652680665933081
v 42.68880081176758 23.354084014892578 5.637190610848853
v 42.647499084472656 25.13709259033203 5.4762709445585696
v 41.45050048828125 25.10944366455078 5.317240983926245
v 41.4093017578125 23.354084014892578 5.652680665933081
v 42.647499084472656 25.13709259033203 5.4762709445585696
v 39.96289825439453 23.354084014892578 5.328470975839087
v 41.4093017578125 23.354084014892578 5.652680665933081
v 41.45050048828125 25.10944366455078 5.317240983926245
v 40.21950149536133 24.984323501586914 5.031360895120093
v 39.96289825439453 23.354084014892578 5.328470975839087
v 41.45050048828125 25.10944366455078 5.317240983926245
v 42.68880081176758 23.354084014892578 5.637190610848853
v 43.885799407958984 23.354084014892578 5.652680665933081
v 43.84450149536133 25.109603881835938 5.317240983926245
v 42.647499084472656 25.13709259033203 5.4762709445585696
v 42.68880081176758 23.354084014892578 5.637190610848853
v 43.84450149536133 25.109603881835938 5.317240983926245
v 43.885799407958984 23.354084014892578 5.652680665933081
v 45.332298278808594 23.354084014892578 5.328470975839087
v 45.075401306152344 24.984663009643555 5.031360895120093
v 43.84450149536133 25.109603881835938 5.317240983926245
v 43.885799407958984 23.354084014892578 5.652680665933081
v 45.075401306152344 24.984663009643555 5.031360895120093
vt 0.3767879903316498 0.764153003692627
vt 0.5040950179100037 0.764153003692627
vt 0.499985009431839 0.9994999766349792
vt 0.3808870017528534 0.9958509802818298
vt 0.3767879903316498 0.764153003692627
vt 0.499985009431839 0.9994999766349792
vt 0.2328750044107437 0.764153003692627
vt 0.3767879903316498 0.764153003692627
vt 0.3808870017528534 0.9958509802818298
vt 0.25840601325035095 0.9793360233306885
vt 0.2328750044107437 0.764153003692627
vt 0.3808870017528534 0.9958509802818298
vt 0.5040950179100037 0.764153003692627
vt 0.6231920123100281 0.764153003692627
vt 0.6190829873085022 0.9958720207214355
vt 0.499985009431839 0.9994999766349792
vt 0.5040950179100037 0.764153003692627
vt 0.6190829873085022 0.9958720207214355
vt 0.6231920123100281 0.764153003692627
vt 0.7671149969100952 0.764153003692627
vt 0.7415540218353271 0.9793810248374939
vt 0.6190829873085022 0.9958720207214355
vt 0.6231920123100281 0.764153003692627
vt 0.7415540218353271 0.9793810248374939
vn -0.11758076066538267 0.15770854099986037 0.9804604942663653
vn 0.04388390850427164 0.12273554942140306 0.9914687022204055
vn 0.004137702003783521 0.12395635146101464 0.9922790446011652
vn -0.1976406270480866 0.19545462670730337 0.9605913134308199
vn -0.11758076066538267 0.15770854099986037 0.9804604942663653
vn 0.004137702003783521 0.12395635146101464 0.9922790446011652
vn -0.22655976336845896 0.19810192927259515 0.9536384531052131
vn -0.11758076066538267 0.15770854099986037 0.9804604942663653
vn -0.1976406270480866 0.19545462670730337 0.9605913134308199
vn -0.24140253069025552 0.21064002483459918 0.9472885506085352
vn -0.22655976336845896 0.19810192927259515 0.9536384531052131
vn -0.1976406270480866 0.19545462670730337 0.9605913134308199
vn 0.04388390850427164 0.12273554942140306 0.9914687022204055
vn 0.1530309299436414 0.19598754983534147 0.9685919753901142
vn 0.12336741988196445 0.1571332048820024 0.9798416380391158
vn 0.004137702003783521 0.12395635146101464 0.9922790446011652
vn 0.04388390850427164 0.12273554942140306 0.9914687022204055
vn 0.12336741988196445 0.1571332048820024 0.9798416380391158
vn 0.1530309299436414 0.19598754983534147 0.9685919753901142
vn 0.21394158757690449 0.20763172071360012 0.9545250471614577
vn 0.2265474652395172 0.19809857055538566 0.9536420724451405
vn 0.12336741988196445 0.1571332048820024 0.9798416380391158
vn 0.1530309299436414 0.19598754983534147 0.9685919753901142
vn 0.2265474652395172 0.19809857055538566 0.9536420724451405
f 1/1/1 2/2/2 3/3/3
f 4/4/4 5/5/5 6/6/6
f 7/7/7 8/8/8 9/9/9
f 10/10/10 11/11/11 12/12/12
f 13/13/13 14/14/14 15/15/15
f 16/16/16 17/17/17 18/18/18
f 19/19/19 20/20/20 21/21/21
f 22/22/22 23/23/23 24/24/24
