mtllib ArcadaCompleta.mtl
o D27C_L
usemtl Esmalte
v 53.12799835205078 18.55628204345703 -3.981769292868189
v 52.927799224853516 18.70791244506836 -4.169199197805934
v 52.927799224853516 19.098373413085938 -4.618049352682642
v 53.152198791503906 18.964323043823242 -4.7391392879853775
v 53.12799835205078 18.55628204345703 -3.981769292868189
v 52.927799224853516 19.098373413085938 -4.618049352682642
v 52.67660140991211 18.572612762451172 -3.992149322546534
v 52.679500579833984 18.994152069091797 -4.680929391897731
v 52.927799224853516 19.098373413085938 -4.618049352682642
v 52.927799224853516 18.70791244506836 -4.169199197805934
v 52.67660140991211 18.572612762451172 -3.992149322546534
v 52.927799224853516 19.098373413085938 -4.618049352682642
v 52.87689971923828 20.90070343017578 -5.008389204062037
v 51.5630989074707 21.465482711791992 -5.4633891277680915
v 52.86629867553711 21.897533416748047 -5.290139406240992
v 53.64179992675781 18.529373168945312 -2.7356693439851325
v 53.44240188598633 19.030363082885742 -2.750739305532984
v 52.927799224853516 18.70791244506836 -4.169199197805934
v 53.12799835205078 18.55628204345703 -3.981769292868189
v 53.64179992675781 18.529373168945312 -2.7356693439851325
v 52.927799224853516 18.70791244506836 -4.169199197805934
v 53.25080108642578 18.686752319335938 -2.5509392910371345
v 52.67660140991211 18.572612762451172 -3.992149322546534
v 52.927799224853516 18.70791244506836 -4.169199197805934
v 53.44240188598633 19.030363082885742 -2.750739305532984
v 53.25080108642578 18.686752319335938 -2.5509392910371345
v 52.927799224853516 18.70791244506836 -4.169199197805934
v 52.679500579833984 18.994152069091797 -4.680929391897731
v 52.620399475097656 20.379802703857422 -5.018819063223414
v 52.91080093383789 20.67980194091797 -4.80454942516189
v 52.927799224853516 19.098373413085938 -4.618049352682642
v 52.679500579833984 18.994152069091797 -4.680929391897731
v 52.91080093383789 20.67980194091797 -4.80454942516189
v 52.620399475097656 20.379802703857422 -5.018819063223414
v 52.87689971923828 20.90070343017578 -5.008389204062037
v 52.91080093383789 20.67980194091797 -4.80454942516189
v 52.67660140991211 18.572612762451172 -3.992149322546534
v 51.89789962768555 18.09328269958496 -3.9089593582521003
v 51.654598236083984 18.901832580566406 -4.799449174917751
v 52.679500579833984 18.994152069091797 -4.680929391897731
v 52.67660140991211 18.572612762451172 -3.992149322546534
v 51.654598236083984 18.901832580566406 -4.799449174917751
v 53.12799835205078 18.55628204345703 -3.981769292868189
v 53.152198791503906 18.964323043823242 -4.7391392879853775
v 53.86249923706055 18.252243041992188 -4.766599386251979
v 53.8140983581543 17.826614379882812 -3.7943391495118663
v 53.12799835205078 18.55628204345703 -3.981769292868189
v 53.86249923706055 18.252243041992188 -4.766599386251979
v 52.87689971923828 20.90070343017578 -5.008389204062037
v 52.620399475097656 20.379802703857422 -5.018819063223414
v 51.57929992675781 19.79951286315918 -5.017819135702662
v 51.5630989074707 21.465482711791992 -5.4633891277680915
v 52.87689971923828 20.90070343017578 -5.008389204062037
v 51.57929992675781 19.79951286315918 -5.017819135702662
v 52.87689971923828 20.90070343017578 -5.008389204062037
v 53.84769821166992 21.465482711791992 -5.4633891277680915
v 53.85390090942383 19.612693786621094 -5.065279214895777
v 53.11650085449219 20.379913330078125 -5.018819063223414
v 52.87689971923828 20.90070343017578 -5.008389204062037
v 53.85390090942383 19.612693786621094 -5.065279214895777
v 52.67660140991211 18.572612762451172 -3.992149322546534
v 52.3567008972168 17.944412231445312 -3.1507892303834484
v 51.89789962768555 18.09328269958496 -3.9089593582521003
v 53.64179992675781 18.529373168945312 -2.7356693439851325
v 53.12799835205078 18.55628204345703 -3.981769292868189
v 53.8140983581543 17.826614379882812 -3.7943391495118663
v 52.651798248291016 17.824565887451172 -2.526809185064845
v 52.3567008972168 17.944412231445312 -3.1507892303834484
v 52.67660140991211 18.572612762451172 -3.992149322546534
v 53.25080108642578 18.686752319335938 -2.5509392910371345
v 52.651798248291016 17.824565887451172 -2.526809185064845
v 52.67660140991211 18.572612762451172 -3.992149322546534
v 53.8140983581543 17.826614379882812 -3.7943391495118663
v 54.53340148925781 18.238462448120117 -2.7196893387208503
v 53.64179992675781 18.529373168945312 -2.7356693439851325
v 51.57929992675781 19.79951286315918 -5.017819135702662
v 52.620399475097656 20.379802703857422 -5.018819063223414
v 52.679500579833984 18.994152069091797 -4.680929391897731
v 51.654598236083984 18.901832580566406 -4.799449174917751
v 51.57929992675781 19.79951286315918 -5.017819135702662
v 52.679500579833984 18.994152069091797 -4.680929391897731
v 52.91080093383789 20.67980194091797 -4.80454942516189
v 53.11650085449219 20.379913330078125 -5.018819063223414
v 53.152198791503906 18.964323043823242 -4.7391392879853775
v 52.927799224853516 19.098373413085938 -4.618049352682642
v 52.91080093383789 20.67980194091797 -4.80454942516189
v 53.152198791503906 18.964323043823242 -4.7391392879853775
v 53.86249923706055 18.252243041992188 -4.766599386251979
v 53.152198791503906 18.964323043823242 -4.7391392879853775
v 53.11650085449219 20.379913330078125 -5.018819063223414
v 53.85390090942383 19.612693786621094 -5.065279214895777
v 53.86249923706055 18.252243041992188 -4.766599386251979
v 53.11650085449219 20.379913330078125 -5.018819063223414
v 52.91080093383789 20.67980194091797 -4.80454942516189
v 52.87689971923828 20.90070343017578 -5.008389204062037
v 53.11650085449219 20.379913330078125 -5.018819063223414
v 52.86629867553711 21.897533416748047 -5.290139406240992
v 53.84769821166992 21.465482711791992 -5.4633891277680915
v 52.87689971923828 20.90070343017578 -5.008389204062037
vt 0.44040000438690186 0.8655959963798523
vt 0.46222901344299316 0.8825349807739258
vt 0.46222901344299316 0.923101007938385
vt 0.43776100873947144 0.9340450167655945
vt 0.44040000438690186 0.8655959963798523
vt 0.46222901344299316 0.923101007938385
vt 0.4896189868450165 0.8665339946746826
vt 0.48930299282073975 0.9287840127944946
vt 0.46222901344299316 0.923101007938385
vt 0.46222901344299316 0.8825349807739258
vt 0.4896189868450165 0.8665339946746826
vt 0.46222901344299316 0.923101007938385
vt 0.4677790105342865 0.47535598278045654
vt 0.6110320091247559 0.5554029941558838
vt 0.4689350128173828 0.6166390180587769
vt 0.24702300131320953 0.13926100730895996
vt 0.24566100537776947 0.2102680206298828
vt 0.11746499687433243 0.16456598043441772
vt 0.44040000438690186 0.8655959963798523
vt 0.38437700271606445 0.7529770135879517
vt 0.46222901344299316 0.8825349807739258
vt 0.4270099997520447 0.7362819910049438
vt 0.4896189868450165 0.8665339946746826
vt 0.46222901344299316 0.8825349807739258
vt 0.7543389797210693 0.2102680206298828
vt 0.7362819910049438 0.16156697273254395
vt 0.8825349807739258 0.16456598043441772
vt 0.9287840127944946 0.2051360011100769
vt 0.9593210220336914 0.4015269875526428
vt 0.93995600938797 0.4440469741821289
vt 0.46222901344299316 0.2199069857597351
vt 0.48930299282073975 0.2051360011100769
vt 0.4640829861164093 0.4440469741821289
vt 0.9593210220336914 0.4015269875526428
vt 0.9583789706230164 0.47535598278045654
vt 0.93995600938797 0.4440469741821289
vt 0.4896189868450165 0.8665339946746826
vt 0.5745270252227783 0.8590160012245178
vt 0.6010559797286987 0.9394950270652771
vt 0.48930299282073975 0.9287840127944946
vt 0.4896189868450165 0.8665339946746826
vt 0.6010559797286987 0.9394950270652771
vt 0.44040000438690186 0.8655959963798523
vt 0.43776100873947144 0.9340450167655945
vt 0.36031201481819153 0.9365270137786865
vt 0.36559000611305237 0.8486570119857788
vt 0.44040000438690186 0.8655959963798523
vt 0.36031201481819153 0.9365270137786865
vt 0.4677790105342865 0.47535598278045654
vt 0.49574699997901917 0.4015269875526428
vt 0.6092659831047058 0.3192809820175171
vt 0.6110320091247559 0.5554029941558838
vt 0.4677790105342865 0.47535598278045654
vt 0.6092659831047058 0.3192809820175171
vt 0.4677790105342865 0.47535598278045654
vt 0.36192598938941956 0.5554029941558838
vt 0.36124899983406067 0.29280298948287964
vt 0.4416539967060089 0.4015430212020874
vt 0.4677790105342865 0.47535598278045654
vt 0.36124899983406067 0.29280298948287964
vt 0.4896189868450165 0.8665339946746826
vt 0.5245000123977661 0.7904940247535706
vt 0.5745270252227783 0.8590160012245178
vt 0.38437700271606445 0.7529770135879517
vt 0.44040000438690186 0.8655959963798523
vt 0.36559000611305237 0.8486570119857788
vt 0.49232399463653564 0.7341009974479675
vt 0.5245000123977661 0.7904940247535706
vt 0.4896189868450165 0.8665339946746826
vt 0.7362819910049438 0.16156697273254395
vt 0.7341009974479675 0.039367079734802246
vt 0.8665339946746826 0.14539003372192383
vt 0.36559000611305237 0.8486570119857788
vt 0.2871580123901367 0.7515329718589783
vt 0.38437700271606445 0.7529770135879517
vt 0.6092659831047058 0.3192809820175171
vt 0.49574699997901917 0.4015269875526428
vt 0.48930299282073975 0.2051360011100769
vt 0.6010559797286987 0.1920509934425354
vt 0.6092659831047058 0.3192809820175171
vt 0.48930299282073975 0.2051360011100769
vt 0.06004359945654869 0.4440469741821289
vt 0.04067850112915039 0.4015430212020874
vt 0.06595519930124283 0.20090800523757935
vt 0.46222901344299316 0.2199069857597351
vt 0.4640829861164093 0.4440469741821289
vt 0.43776100873947144 0.20090800523757935
vt 0.36031201481819153 0.09998279809951782
vt 0.43776100873947144 0.20090800523757935
vt 0.4416539967060089 0.4015430212020874
vt 0.36124899983406067 0.29280298948287964
vt 0.36031201481819153 0.09998279809951782
vt 0.4416539967060089 0.4015430212020874
vt 0.06004359945654869 0.4440469741821289
vt 0.04162120074033737 0.47535598278045654
vt 0.04067850112915039 0.4015430212020874
vt 0.4689350128173828 0.6166390180587769
vt 0.36192598938941956 0.5554029941558838
vt 0.4677790105342865 0.47535598278045654
vn -0.7074102614271811 -0.698050127017564 -0.11089067678705128
vn -0.09187672471064487 -0.9950905430443724 0.03678965343816735
vn -0.11844441367721047 -0.48599127234741724 -0.8659003430365415
vn -0.5646918127972994 -0.3707049001900871 -0.7373608570671197
vn -0.7074102614271811 -0.698050127017564 -0.11089067678705128
vn -0.11844441367721047 -0.48599127234741724 -0.8659003430365415
vn 0.4872963603896947 -0.7533499408929615 -0.44159497699535505
vn 0.24977028490094338 -0.37454995693197723 -0.8929317636542871
vn -0.11844441367721047 -0.48599127234741724 -0.8659003430365415
vn -0.09187672471064487 -0.9950905430443724 0.03678965343816735
vn 0.4872963603896947 -0.7533499408929615 -0.44159497699535505
vn -0.11844441367721047 -0.48599127234741724 -0.8659003430365415
vn -0.018767850562680603 -0.23774565869263004 -0.9711461113334411
vn 0.21663587250734032 -0.25520204278826975 -0.9423061159197035
vn 0 -0.2719904191875271 -0.9622999594046513
vn -0.6453295965885381 -0.6486009975270546 0.4035671663723207
vn -0.2333983266779554 -0.9264629820702764 0.29528217683663377
vn -0.09187672471064487 -0.9950905430443724 0.03678965343816735
vn -0.7074102614271811 -0.698050127017564 -0.11089067678705128
vn -0.6453295965885381 -0.6486009975270546 0.4035671663723207
vn -0.09187672471064487 -0.9950905430443724 0.03678965343816735
vn 0.7427126784994442 -0.6331191763755356 -0.2180320749379432
vn 0.4872963603896947 -0.7533499408929615 -0.44159497699535505
vn -0.09187672471064487 -0.9950905430443724 0.03678965343816735
vn -0.2333983266779554 -0.9264629820702764 0.29528217683663377
vn 0.7427126784994442 -0.6331191763755356 -0.2180320749379432
vn -0.09187672471064487 -0.9950905430443724 0.03678965343816735
vn 0.24977028490094338 -0.37454995693197723 -0.8929317636542871
vn 0.2767601676457087 -0.19042791328279104 -0.9418816377058644
vn -0.05419290151275696 -0.21354289712035088 -0.9754294236463629
vn -0.11844441367721047 -0.48599127234741724 -0.8659003430365415
vn 0.24977028490094338 -0.37454995693197723 -0.8929317636542871
vn -0.05419290151275696 -0.21354289712035088 -0.9754294236463629
vn 0.2767601676457087 -0.19042791328279104 -0.9418816377058644
vn -0.018767850562680603 -0.23774565869263004 -0.9711461113334411
vn -0.05419290151275696 -0.21354289712035088 -0.9754294236463629
vn 0.4872963603896947 -0.7533499408929615 -0.44159497699535505
vn 0.3810650174961816 -0.7197730100549917 -0.5802725794288502
vn 0.21950895957093453 -0.5984207953104199 -0.7705247357535839
vn 0.24977028490094338 -0.37454995693197723 -0.8929317636542871
vn 0.4872963603896947 -0.7533499408929615 -0.44159497699535505
vn 0.21950895957093453 -0.5984207953104199 -0.7705247357535839
vn -0.7074102614271811 -0.698050127017564 -0.11089067678705128
vn -0.5646918127972994 -0.3707049001900871 -0.7373608570671197
vn -0.48551405054935465 -0.46370638103474954 -0.7411157122250308
vn -0.6021038968475004 -0.7737931710153672 0.19676134247111957
vn -0.7074102614271811 -0.698050127017564 -0.11089067678705128
vn -0.48551405054935465 -0.46370638103474954 -0.7411157122250308
vn -0.018767850562680603 -0.23774565869263004 -0.9711461113334411
vn 0.2767601676457087 -0.19042791328279104 -0.9418816377058644
vn 0.15880662530891201 -0.2192681179042594 -0.9626535972138257
vn 0.21663587250734032 -0.25520204278826975 -0.9423061159197035
vn -0.018767850562680603 -0.23774565869263004 -0.9711461113334411
vn 0.15880662530891201 -0.2192681179042594 -0.9626535972138257
vn -0.018767850562680603 -0.23774565869263004 -0.9711461113334411
vn -0.3044690784485799 -0.22274645448606187 -0.9261115468897693
vn -0.2897578828709844 -0.19178829954368687 -0.9376873772597484
vn -0.3783311218917004 -0.19532944064219948 -0.9048270397300098
vn -0.018767850562680603 -0.23774565869263004 -0.9711461113334411
vn -0.2897578828709844 -0.19178829954368687 -0.9376873772597484
vn 0.4872963603896947 -0.7533499408929615 -0.44159497699535505
vn 0.46782923059601433 -0.7841962628689115 -0.40764203941985
vn 0.3810650174961816 -0.7197730100549917 -0.5802725794288502
vn -0.6453295965885381 -0.6486009975270546 0.4035671663723207
vn -0.7074102614271811 -0.698050127017564 -0.11089067678705128
vn -0.6021038968475004 -0.7737931710153672 0.19676134247111957
vn 0.7211460096129908 -0.6218995724562203 -0.30526931486480974
vn 0.46782923059601433 -0.7841962628689115 -0.40764203941985
vn 0.4872963603896947 -0.7533499408929615 -0.44159497699535505
vn 0.7427126784994442 -0.6331191763755356 -0.2180320749379432
vn 0.7211460096129908 -0.6218995724562203 -0.30526931486480974
vn 0.4872963603896947 -0.7533499408929615 -0.44159497699535505
vn -0.6021038968475004 -0.7737931710153672 0.19676134247111957
vn -0.27675017925173606 -0.8207479490035674 0.49978209500798415
vn -0.6453295965885381 -0.6486009975270546 0.4035671663723207
vn 0.15880662530891201 -0.2192681179042594 -0.9626535972138257
vn 0.2767601676457087 -0.19042791328279104 -0.9418816377058644
vn 0.24977028490094338 -0.37454995693197723 -0.8929317636542871
vn 0.21950895957093453 -0.5984207953104199 -0.7705247357535839
vn 0.15880662530891201 -0.2192681179042594 -0.9626535972138257
vn 0.24977028490094338 -0.37454995693197723 -0.8929317636542871
vn -0.05419290151275696 -0.21354289712035088 -0.9754294236463629
vn -0.3783311218917004 -0.19532944064219948 -0.9048270397300098
vn -0.5646918127972994 -0.3707049001900871 -0.7373608570671197
vn -0.11844441367721047 -0.48599127234741724 -0.8659003430365415
vn -0.05419290151275696 -0.21354289712035088 -0.9754294236463629
vn -0.5646918127972994 -0.3707049001900871 -0.7373608570671197
vn -0.48551405054935465 -0.46370638103474954 -0.7411157122250308
vn -0.5646918127972994 -0.3707049001900871 -0.7373608570671197
vn -0.3783311218917004 -0.19532944064219948 -0.9048270397300098
vn -0.2897578828709844 -0.19178829954368687 -0.9376873772597484
vn -0.48551405054935465 -0.46370638103474954 -0.7411157122250308
vn -0.3783311218917004 -0.19532944064219948 -0.9048270397300098
vn -0.05419290151275696 -0.21354289712035088 -0.9754294236463629
vn -0.018767850562680603 -0.23774565869263004 -0.9711461113334411
vn -0.3783311218917004 -0.19532944064219948 -0.9048270397300098
vn 0 -0.2719904191875271 -0.9622999594046513
vn -0.3044690784485799 -0.22274645448606187 -0.9261115468897693
vn -0.018767850562680603 -0.23774565869263004 -0.9711461113334411
f 1/1/1 2/2/2 3/3/3
f 4/4/4 5/5/5 6/6/6
f 7/7/7 8/8/8 9/9/9
f 10/10/10 11/11/11 12/12/12
f 13/13/13 14/14/14 15/15/15
f 16/16/16 17/17/17 18/18/18
f 19/19/19 20/20/20 21/21/21
f 22/22/22 23/23/23 24/24/24
f 25/25/25 26/26/26 27/27/27
f 28/28/28 29/29/29 30/30/30
f 31/31/31 32/32/32 33/33/33
f 34/34/34 35/35/35 36/36/36
f 37/37/37 38/38/38 39/39/39
f 40/40/40 41/41/41 42/42/42
f 43/43/43 44/44/44 45/45/45
f 46/46/46 47/47/47 48/48/48
f 49/49/49 50/50/50 51/51/51
f 52/52/52 53/53/53 54/54/54
f 55/55/55 56/56/56 57/57/57
f 58/58/58 59/59/59 60/60/60
f 61/61/61 62/62/62 63/63/63
f 64/64/64 65/65/65 66/66/66
f 67/67/67 68/68/68 69/69/69
f 70/70/70 71/71/71 72/72/72
f 73/73/73 74/74/74 75/75/75
f 76/76/76 77/77/77 78/78/78
f 79/79/79 80/80/80 81/81/81
f 82/82/82 83/83/83 84/84/84
f 85/85/85 86/86/86 87/87/87
f 88/88/88 89/89/89 90/90/90
f 91/91/91 92/92/92 93/93/93
f 94/94/94 95/95/95 96/96/96
f 97/97/97 98/98/98 99/99/99
