mtllib ArcadaCompleta.mtl
o D27C_B
usemtl Esmalte
v 52.974700927734375 19.621612548828125 4.836700708352514
v 52.705501556396484 19.827342987060547 4.5364206142057855
v 52.705501556396484 18.90156364440918 4.264540941201634
v 52.91619873046875 18.779953002929688 4.33483055301804
v 52.974700927734375 19.621612548828125 4.836700708352514
v 52.705501556396484 18.90156364440918 4.264540941201634
v 52.45920181274414 19.621501922607422 5.068460733376928
v 52.44309997558594 18.737943649291992 4.38516071506638
v 52.705501556396484 18.90156364440918 4.264540941201634
v 52.705501556396484 19.827342987060547 4.5364206142057855
v 52.45920181274414 19.621501922607422 5.068460733376928
v 52.705501556396484 18.90156364440918 4.264540941201634
v 52.45920181274414 19.621501922607422 5.068460733376928
v 52.705501556396484 19.827342987060547 4.5364206142057855
v 52.70539855957031 21.56388282775879 4.86750057407517
v 52.45930099487305 21.465482711791992 5.263360769235082
v 52.45920181274414 19.621501922607422 5.068460733376928
v 52.70539855957031 21.56388282775879 4.86750057407517
v 52.72380065917969 21.824222564697266 5.399940759622045
v 52.45930099487305 21.465482711791992 5.263360769235082
v 52.70539855957031 21.56388282775879 4.86750057407517
v 52.44309997558594 18.737943649291992 4.38516071506638
v 52.46730041503906 18.469423294067383 3.798220664941259
v 52.705501556396484 18.802833557128906 3.8004308051695306
v 52.705501556396484 18.90156364440918 4.264540941201634
v 52.44309997558594 18.737943649291992 4.38516071506638
v 52.705501556396484 18.802833557128906 3.8004308051695306
v 52.951499938964844 21.465482711791992 5.226320535623022
v 52.70539855957031 21.56388282775879 4.86750057407517
v 52.705501556396484 19.827342987060547 4.5364206142057855
v 52.974700927734375 19.621612548828125 4.836700708352514
v 52.951499938964844 21.465482711791992 5.226320535623022
v 52.705501556396484 19.827342987060547 4.5364206142057855
v 52.45920181274414 19.621501922607422 5.068460733376928
v 51.557098388671875 19.612472534179688 5.198580533944555
v 51.684898376464844 18.415302276611328 4.3576109714140365
v 52.44309997558594 18.737943649291992 4.38516071506638
v 52.45920181274414 19.621501922607422 5.068460733376928
v 51.684898376464844 18.415302276611328 4.3576109714140365
v 52.974700927734375 19.621612548828125 4.836700708352514
v 52.91619873046875 18.779953002929688 4.33483055301804
v 53.68769836425781 18.42767333984375 3.827930719338842
v 53.85390090942383 19.612693786621094 4.735060960732885
v 52.974700927734375 19.621612548828125 4.836700708352514
v 53.68769836425781 18.42767333984375 3.827930719338842
v 52.974700927734375 19.621612548828125 4.836700708352514
v 53.85390090942383 19.612693786621094 4.735060960732885
v 53.84769821166992 21.465482711791992 5.34864071079392
v 52.951499938964844 21.465482711791992 5.226320535623022
v 52.974700927734375 19.621612548828125 4.836700708352514
v 53.84769821166992 21.465482711791992 5.34864071079392
v 52.45930099487305 21.465482711791992 5.263360769235082
v 51.5630989074707 21.465482711791992 5.422730714761205
v 51.557098388671875 19.612472534179688 5.198580533944555
v 52.45920181274414 19.621501922607422 5.068460733376928
v 52.45930099487305 21.465482711791992 5.263360769235082
v 51.557098388671875 19.612472534179688 5.198580533944555
v 52.91619873046875 18.779953002929688 4.33483055301804
v 52.903499603271484 18.485742568969727 3.533620864831396
v 53.63930130004883 18.002046585083008 3.226110727273412
v 53.68769836425781 18.42767333984375 3.827930719338842
v 52.91619873046875 18.779953002929688 4.33483055301804
v 53.63930130004883 18.002046585083008 3.226110727273412
v 51.597900390625 22.93787384033203 5.59031084247727
v 52.72380065917969 21.824222564697266 5.399940759622045
v 52.7421989440918 22.93787384033203 5.574990541421362
v 52.45930099487305 21.465482711791992 5.263360769235082
v 52.72380065917969 21.824222564697266 5.399940759622045
v 51.597900390625 22.93787384033203 5.59031084247727
v 51.5630989074707 21.465482711791992 5.422730714761205
v 52.45930099487305 21.465482711791992 5.263360769235082
v 51.597900390625 22.93787384033203 5.59031084247727
v 52.7421989440918 22.93787384033203 5.574990541421362
v 52.72380065917969 21.824222564697266 5.399940759622045
v 53.81269836425781 22.93787384033203 5.59031084247727
v 52.705501556396484 18.802833557128906 3.8004308051695306
v 52.903499603271484 18.485742568969727 3.533620864831396
v 52.91619873046875 18.779953002929688 4.33483055301804
v 52.705501556396484 18.90156364440918 4.264540941201634
v 52.705501556396484 18.802833557128906 3.8004308051695306
v 52.91619873046875 18.779953002929688 4.33483055301804
v 51.7333984375 18.26874351501465 3.7262206382383782
v 52.46730041503906 18.469423294067383 3.798220664941259
v 52.44309997558594 18.737943649291992 4.38516071506638
v 51.684898376464844 18.415302276611328 4.3576109714140365
v 51.7333984375 18.26874351501465 3.7262206382383782
v 52.44309997558594 18.737943649291992 4.38516071506638
v 53.81269836425781 22.93787384033203 5.59031084247727
v 52.72380065917969 21.824222564697266 5.399940759622045
v 52.951499938964844 21.465482711791992 5.226320535623022
v 53.84769821166992 21.465482711791992 5.34864071079392
v 53.81269836425781 22.93787384033203 5.59031084247727
v 52.951499938964844 21.465482711791992 5.226320535623022
v 52.70539855957031 21.56388282775879 4.86750057407517
v 52.951499938964844 21.465482711791992 5.226320535623022
v 52.72380065917969 21.824222564697266 5.399940759622045
vt 0.9313910007476807 0.29406702518463135
vt 0.9042530059814453 0.3232259750366211
vt 0.8796809911727905 0.19201302528381348
vt 0.5365059971809387 0.17477601766586304
vt 0.5428850054740906 0.29406702518463135
vt 0.5135319828987122 0.19201302528381348
vt 0.5133240222930908 0.04766291379928589
vt 0.5150790214538574 0.10941797494888306
vt 0.48646798729896545 0.12031900882720947
vt 0.09574709832668304 0.3232259750366211
vt 0.047662898898124695 0.29405099153518677
vt 0.12031900137662888 0.19201302528381348
vt 0.047662898898124695 0.29405099153518677
vt 0.09574709832668304 0.3232259750366211
vt 0.06582509726285934 0.569350004196167
vt 0.030048400163650513 0.5554029941558838
vt 0.047662898898124695 0.29405099153518677
vt 0.06582509726285934 0.569350004196167
vt 0.48447299003601074 0.01770472526550293
vt 0.5133129954338074 0.030048370361328125
vt 0.4864790141582489 0.06582510471343994
vt 0.10941799730062485 0.16882199048995972
vt 0.1624629944562912 0.13076400756835938
vt 0.16226400434970856 0.1780189871788025
vt 0.48646798729896545 0.12031900882720947
vt 0.5150790214538574 0.10941797494888306
vt 0.48646798729896545 0.16226398944854736
vt 0.9666039943695068 0.5554029941558838
vt 0.9341750144958496 0.569350004196167
vt 0.9042530059814453 0.3232259750366211
vt 0.9313910007476807 0.29406702518463135
vt 0.9666039943695068 0.5554029941558838
vt 0.9042530059814453 0.3232259750366211
vt 0.5133240222930908 0.04766291379928589
vt 0.6116870045661926 0.035903096199035645
vt 0.5977519750595093 0.1119070053100586
vt 0.5150790214538574 0.10941797494888306
vt 0.5133240222930908 0.04766291379928589
vt 0.5977519750595093 0.1119070053100586
vt 0.5428850054740906 0.29406702518463135
vt 0.5365059971809387 0.17477601766586304
vt 0.6206279993057251 0.12484699487686157
vt 0.36124899983406067 0.07779461145401001
vt 0.4571149945259094 0.06860870122909546
vt 0.3793720006942749 0.15977799892425537
vt 0.5428850054740906 0.29406702518463135
vt 0.6387509703636169 0.29280298948287964
vt 0.6380739808082581 0.5554029941558838
vt 0.5403550267219543 0.5554029941558838
vt 0.5428850054740906 0.29406702518463135
vt 0.6380739808082581 0.5554029941558838
vt 0.4866870045661926 0.5554029941558838
vt 0.38896799087524414 0.5554029941558838
vt 0.3883129954338074 0.29277199506759644
vt 0.48667600750923157 0.29405099153518677
vt 0.4866870045661926 0.5554029941558838
vt 0.3883129954338074 0.29277199506759644
vt 0.4634940028190613 0.11396598815917969
vt 0.46487900614738464 0.18637698888778687
vt 0.38464900851249695 0.21416902542114258
vt 0.3793720006942749 0.15977799892425537
vt 0.4634940028190613 0.11396598815917969
vt 0.38464900851249695 0.21416902542114258
vt 0.3927620053291321 0.7640889883041382
vt 0.5155270099639893 0.6062480211257935
vt 0.517533004283905 0.7640889883041382
vt 0.4866870045661926 0.5554029941558838
vt 0.5155270099639893 0.6062480211257935
vt 0.3927620053291321 0.7640889883041382
vt 0.38896799087524414 0.5554029941558838
vt 0.4866870045661926 0.5554029941558838
vt 0.3927620053291321 0.7640889883041382
vt 0.517533004283905 0.7640889883041382
vt 0.5155270099639893 0.6062480211257935
vt 0.634257972240448 0.7640889883041382
vt 0.48646798729896545 0.16226398944854736
vt 0.46487900614738464 0.18637698888778687
vt 0.4634940028190613 0.11396598815917969
vt 0.48646798729896545 0.12031900882720947
vt 0.48646798729896545 0.16226398944854736
vt 0.4634940028190613 0.11396598815917969
vt 0.5924630165100098 0.1689710021018982
vt 0.5124409794807434 0.1624630093574524
vt 0.5150790214538574 0.10941797494888306
vt 0.5977519750595093 0.1119070053100586
vt 0.5924630165100098 0.1689710021018982
vt 0.5150790214538574 0.10941797494888306
vt 0.634257972240448 0.7640889883041382
vt 0.5155270099639893 0.6062480211257935
vt 0.5403550267219543 0.5554029941558838
vt 0.6380739808082581 0.5554029941558838
vt 0.634257972240448 0.7640889883041382
vt 0.5403550267219543 0.5554029941558838
vt 0.4864790141582489 0.06582510471343994
vt 0.45964500308036804 0.033396005630493164
vt 0.48447299003601074 0.01770472526550293
vn -0.11937600487518887 -0.3741953174923904 0.9196342935247728
vn -0.044259389067281336 -0.22165028909999768 0.9741212736724717
vn 0.28443271619481886 -0.5419764651696298 0.7907967761443332
vn -0.16589124463450097 -0.7666057331013866 0.6203190670370384
vn -0.11937600487518887 -0.3741953174923904 0.9196342935247728
vn 0.28443271619481886 -0.5419764651696298 0.7907967761443332
vn 0.5218543542077182 -0.30432051693040546 0.7969046718206991
vn 0.398435580065871 -0.7496234537803881 0.5285014343215496
vn 0.28443271619481886 -0.5419764651696298 0.7907967761443332
vn -0.044259389067281336 -0.22165028909999768 0.9741212736724717
vn 0.5218543542077182 -0.30432051693040546 0.7969046718206991
vn 0.28443271619481886 -0.5419764651696298 0.7907967761443332
vn 0.5218543542077182 -0.30432051693040546 0.7969046718206991
vn -0.044259389067281336 -0.22165028909999768 0.9741212736724717
vn 0.5863221934355146 -0.2536397638390106 0.7693459271905309
vn 0.2593271478390491 -0.1504481287499397 0.9539993663254215
vn 0.5218543542077182 -0.30432051693040546 0.7969046718206991
vn 0.5863221934355146 -0.2536397638390106 0.7693459271905309
vn 0.012458706721100065 -0.2660947040476378 0.9638663751291658
vn 0.2593271478390491 -0.1504481287499397 0.9539993663254215
vn 0.5863221934355146 -0.2536397638390106 0.7693459271905309
vn 0.398435580065871 -0.7496234537803881 0.5285014343215496
vn 0.419864741405816 -0.818644639369843 0.3918348546967802
vn 0.07947156287938174 -0.9417097820487141 0.3269051193959371
vn 0.28443271619481886 -0.5419764651696298 0.7907967761443332
vn 0.398435580065871 -0.7496234537803881 0.5285014343215496
vn 0.07947156287938174 -0.9417097820487141 0.3269051193959371
vn -0.34063380218737155 -0.22294828842376324 0.913379807909223
vn 0.5863221934355146 -0.2536397638390106 0.7693459271905309
vn -0.044259389067281336 -0.22165028909999768 0.9741212736724717
vn -0.11937600487518887 -0.3741953174923904 0.9196342935247728
vn -0.34063380218737155 -0.22294828842376324 0.913379807909223
vn -0.044259389067281336 -0.22165028909999768 0.9741212736724717
vn 0.5218543542077182 -0.30432051693040546 0.7969046718206991
vn 0.15229093336594696 -0.2434643843429476 0.9578792017634783
vn 0.21370883919548272 -0.6649051042131051 0.715702266617257
vn 0.398435580065871 -0.7496234537803881 0.5285014343215496
vn 0.5218543542077182 -0.30432051693040546 0.7969046718206991
vn 0.21370883919548272 -0.6649051042131051 0.715702266617257
vn -0.11937600487518887 -0.3741953174923904 0.9196342935247728
vn -0.16589124463450097 -0.7666057331013866 0.6203190670370384
vn 0.13515112244610014 -0.6352963058635122 0.7603504309578144
vn 0.09807609198895079 -0.44960639257896445 0.8878260932932222
vn -0.11937600487518887 -0.3741953174923904 0.9196342935247728
vn 0.13515112244610014 -0.6352963058635122 0.7603504309578144
vn -0.11937600487518887 -0.3741953174923904 0.9196342935247728
vn 0.09807609198895079 -0.44960639257896445 0.8878260932932222
vn -0.04701843479718899 -0.23460759194978018 0.9709523904851093
vn -0.34063380218737155 -0.22294828842376324 0.913379807909223
vn -0.11937600487518887 -0.3741953174923904 0.9196342935247728
vn -0.04701843479718899 -0.23460759194978018 0.9709523904851093
vn 0.2593271478390491 -0.1504481287499397 0.9539993663254215
vn 0.17387245804515264 -0.11731241784482477 0.9777556775354147
vn 0.15229093336594696 -0.2434643843429476 0.9578792017634783
vn 0.5218543542077182 -0.30432051693040546 0.7969046718206991
vn 0.2593271478390491 -0.1504481287499397 0.9539993663254215
vn 0.15229093336594696 -0.2434643843429476 0.9578792017634783
vn -0.16589124463450097 -0.7666057331013866 0.6203190670370384
vn -0.5051819009934717 -0.8074989793189303 0.30452692049719965
vn -0.23335707417284676 -0.8610022198997643 0.4519066864532614
vn 0.13515112244610014 -0.6352963058635122 0.7603504309578144
vn -0.16589124463450097 -0.7666057331013866 0.6203190670370384
vn -0.23335707417284676 -0.8610022198997643 0.4519066864532614
vn 0.0502121622052151 -0.1676013278196075 0.9845753062512698
vn 0.012458706721100065 -0.2660947040476378 0.9638663751291658
vn 0 -0.15527888817376914 0.9878706731589506
vn 0.2593271478390491 -0.1504481287499397 0.9539993663254215
vn 0.012458706721100065 -0.2660947040476378 0.9638663751291658
vn 0.0502121622052151 -0.1676013278196075 0.9845753062512698
vn 0.17387245804515264 -0.11731241784482477 0.9777556775354147
vn 0.2593271478390491 -0.1504481287499397 0.9539993663254215
vn 0.0502121622052151 -0.1676013278196075 0.9845753062512698
vn 0 -0.15527888817376914 0.9878706731589506
vn 0.012458706721100065 -0.2660947040476378 0.9638663751291658
vn -0.022385749880758022 -0.19880988954179465 0.97978237686879
vn 0.07947156287938174 -0.9417097820487141 0.3269051193959371
vn -0.5051819009934717 -0.8074989793189303 0.30452692049719965
vn -0.16589124463450097 -0.7666057331013866 0.6203190670370384
vn 0.28443271619481886 -0.5419764651696298 0.7907967761443332
vn 0.07947156287938174 -0.9417097820487141 0.3269051193959371
vn -0.16589124463450097 -0.7666057331013866 0.6203190670370384
vn 0.2938005649057701 -0.8993086288795201 0.32392162336572694
vn 0.419864741405816 -0.818644639369843 0.3918348546967802
vn 0.398435580065871 -0.7496234537803881 0.5285014343215496
vn 0.21370883919548272 -0.6649051042131051 0.715702266617257
vn 0.2938005649057701 -0.8993086288795201 0.32392162336572694
vn 0.398435580065871 -0.7496234537803881 0.5285014343215496
vn -0.022385749880758022 -0.19880988954179465 0.97978237686879
vn 0.012458706721100065 -0.2660947040476378 0.9638663751291658
vn -0.34063380218737155 -0.22294828842376324 0.913379807909223
vn -0.04701843479718899 -0.23460759194978018 0.9709523904851093
vn -0.022385749880758022 -0.19880988954179465 0.97978237686879
vn -0.34063380218737155 -0.22294828842376324 0.913379807909223
vn 0.5863221934355146 -0.2536397638390106 0.7693459271905309
vn -0.34063380218737155 -0.22294828842376324 0.913379807909223
vn 0.012458706721100065 -0.2660947040476378 0.9638663751291658
f 1/1/1 2/2/2 3/3/3
f 4/4/4 5/5/5 6/6/6
f 7/7/7 8/8/8 9/9/9
f 10/10/10 11/11/11 12/12/12
f 13/13/13 14/14/14 15/15/15
f 16/16/16 17/17/17 18/18/18
f 19/19/19 20/20/20 21/21/21
f 22/22/22 23/23/23 24/24/24
f 25/25/25 26/26/26 27/27/27
f 28/28/28 29/29/29 30/30/30
f 31/31/31 32/32/32 33/33/33
f 34/34/34 35/35/35 36/36/36
f 37/37/37 38/38/38 39/39/39
f 40/40/40 41/41/41 42/42/42
f 43/43/43 44/44/44 45/45/45
f 46/46/46 47/47/47 48/48/48
f 49/49/49 50/50/50 51/51/51
f 52/52/52 53/53/53 54/54/54
f 55/55/55 56/56/56 57/57/57
f 58/58/58 59/59/59 60/60/60
f 61/61/61 62/62/62 63/63/63
f 64/64/64 65/65/65 66/66/66
f 67/67/67 68/68/68 69/69/69
f 70/70/70 71/71/71 72/72/72
f 73/73/73 74/74/74 75/75/75
f 76/76/76 77/77/77 78/78/78
f 79/79/79 80/80/80 81/81/81
f 82/82/82 83/83/83 84/84/84
f 85/85/85 86/86/86 87/87/87
f 88/88/88 89/89/89 90/90/90
f 91/91/91 92/92/92 93/93/93
f 94/94/94 95/95/95 96/96/96
