mtllib ArcadaCompleta.mtl
o D28C_CDP
usemtl Esmalte
v 65.38780212402344 19.63814353942871 -2.5796892338166755
v 65.21600341796875 18.789031982421875 -2.193389146841578
v 64.53160095214844 18.54610252380371 -3.0217592411408942
v 64.70330047607422 19.40616226196289 -3.5590593510041755
v 65.38780212402344 19.63814353942871 -2.5796892338166755
v 64.53160095214844 18.54610252380371 -3.0217592411408942
v 63.42250061035156 18.11858367919922 -3.2968992882142585
v 63.31850051879883 18.595712661743164 -3.8870792084107917
v 64.53160095214844 18.54610252380371 -3.0217592411408942
v 64.29979705810547 18.373262405395508 -2.7450892620454352
v 63.42250061035156 18.11858367919922 -3.2968992882142585
v 64.53160095214844 18.54610252380371 -3.0217592411408942
v 63.579498291015625 22.474943161010742 -4.347729414022974
v 63.660499572753906 23.86861228942871 -3.9883591823945554
v 64.45760345458984 23.76202392578125 -3.1763591461549314
v 64.6697998046875 22.47502326965332 -3.543569295919946
v 63.579498291015625 22.474943161010742 -4.347729414022974
v 64.45760345458984 23.76202392578125 -3.1763591461549314
v 65.38780212402344 19.63814353942871 -2.5796892338166755
v 64.70330047607422 19.40616226196289 -3.5590593510041755
v 64.78250122070312 21.07859230041504 -3.485869138754419
v 65.38600158691406 21.07859230041504 -2.752139299429468
v 65.38780212402344 19.63814353942871 -2.5796892338166755
v 64.78250122070312 21.07859230041504 -3.485869138754419
v 65.15899658203125 22.474943161010742 -2.5256192379365476
v 65.38600158691406 21.07859230041504 -2.752139299429468
v 64.78250122070312 21.07859230041504 -3.485869138754419
v 64.6697998046875 22.47502326965332 -3.543569295919946
v 65.15899658203125 22.474943161010742 -2.5256192379365476
v 64.78250122070312 21.07859230041504 -3.485869138754419
v 63.31850051879883 18.595712661743164 -3.8870792084107917
v 63.514198303222656 19.409603118896484 -4.384079187429957
v 64.70330047607422 19.40616226196289 -3.5590593510041755
v 64.53160095214844 18.54610252380371 -3.0217592411408942
v 63.31850051879883 18.595712661743164 -3.8870792084107917
v 64.70330047607422 19.40616226196289 -3.5590593510041755
v 65.21600341796875 18.789031982421875 -2.193389146841578
v 64.73149871826172 18.463653564453125 -1.9784292869935558
v 64.29979705810547 18.373262405395508 -2.7450892620454352
v 64.53160095214844 18.54610252380371 -3.0217592411408942
v 65.21600341796875 18.789031982421875 -2.193389146841578
v 64.29979705810547 18.373262405395508 -2.7450892620454352
v 64.73149871826172 18.463653564453125 -1.9784292869935558
v 64.04720306396484 18.171512603759766 -2.08186933330398
v 64.29979705810547 18.373262405395508 -2.7450892620454352
v 63.42250061035156 18.11858367919922 -3.2968992882142585
v 62.868099212646484 18.192392349243164 -3.4618093662629645
v 62.632301330566406 18.613492965698242 -4.239219396627956
v 63.31850051879883 18.595712661743164 -3.8870792084107917
v 63.42250061035156 18.11858367919922 -3.2968992882142585
v 62.632301330566406 18.613492965698242 -4.239219396627956
v 63.579498291015625 22.474943161010742 -4.347729414022974
v 63.575801849365234 21.123292922973633 -4.319449155844263
v 62.682098388671875 21.123292922973633 -4.711029260672144
v 62.64939880371094 22.474943161010742 -4.6457292728791755
v 63.579498291015625 22.474943161010742 -4.347729414022974
v 62.682098388671875 21.123292922973633 -4.711029260672144
v 63.575801849365234 21.123292922973633 -4.319449155844263
v 63.514198303222656 19.409603118896484 -4.384079187429957
v 62.66310119628906 19.87737274169922 -4.643339365042261
v 62.682098388671875 21.123292922973633 -4.711029260672144
v 63.575801849365234 21.123292922973633 -4.319449155844263
v 62.66310119628906 19.87737274169922 -4.643339365042261
v 63.42250061035156 18.11858367919922 -3.2968992882142585
v 63.53799819946289 18.160892486572266 -2.4900891476045173
v 62.868099212646484 18.192392349243164 -3.4618093662629645
v 64.87979888916016 23.671123504638672 -2.096369236029199
v 65.15899658203125 22.474943161010742 -2.5256192379365476
v 64.6697998046875 22.47502326965332 -3.543569295919946
v 64.45760345458984 23.76202392578125 -3.1763591461549314
v 64.87979888916016 23.671123504638672 -2.096369236029199
v 64.6697998046875 22.47502326965332 -3.543569295919946
v 63.575801849365234 21.123292922973633 -4.319449155844263
v 63.579498291015625 22.474943161010742 -4.347729414022974
v 64.6697998046875 22.47502326965332 -3.543569295919946
v 64.78250122070312 21.07859230041504 -3.485869138754419
v 63.575801849365234 21.123292922973633 -4.319449155844263
v 64.6697998046875 22.47502326965332 -3.543569295919946
v 65.03500366210938 18.810203552246094 -1.3254892521272226
v 64.61859893798828 18.650863647460938 -1.2048492126832528
v 64.73149871826172 18.463653564453125 -1.9784292869935558
v 64.61859893798828 18.650863647460938 -1.2048492126832528
v 64.04720306396484 18.171512603759766 -2.08186933330398
v 64.73149871826172 18.463653564453125 -1.9784292869935558
v 64.29979705810547 18.373262405395508 -2.7450892620454352
v 64.04720306396484 18.171512603759766 -2.08186933330398
v 63.42250061035156 18.11858367919922 -3.2968992882142585
v 64.04720306396484 18.171512603759766 -2.08186933330398
v 63.53799819946289 18.160892486572266 -2.4900891476045173
v 63.42250061035156 18.11858367919922 -3.2968992882142585
v 64.70330047607422 19.40616226196289 -3.5590593510041755
v 63.514198303222656 19.409603118896484 -4.384079187429957
v 63.575801849365234 21.123292922973633 -4.319449155844263
v 64.78250122070312 21.07859230041504 -3.485869138754419
v 64.70330047607422 19.40616226196289 -3.5590593510041755
v 63.575801849365234 21.123292922973633 -4.319449155844263
v 62.66310119628906 19.87737274169922 -4.643339365042261
v 63.514198303222656 19.409603118896484 -4.384079187429957
v 63.31850051879883 18.595712661743164 -3.8870792084107917
v 62.632301330566406 18.613492965698242 -4.239219396627956
v 62.66310119628906 19.87737274169922 -4.643339365042261
v 63.31850051879883 18.595712661743164 -3.8870792084107917
v 64.61180114746094 18.776342391967773 -0.674088268793635
v 64.04720306396484 18.171512603759766 -2.08186933330398
v 64.61859893798828 18.650863647460938 -1.2048492126832528
v 63.78459930419922 18.995113372802734 -1.029419272459559
v 63.68470001220703 18.290952682495117 -1.9932992153535412
v 64.04720306396484 18.171512603759766 -2.08186933330398
v 64.04720306396484 18.171512603759766 -2.08186933330398
v 64.61180114746094 18.776342391967773 -0.674088268793635
v 63.78459930419922 18.995113372802734 -1.029419272459559
v 64.04720306396484 18.171512603759766 -2.08186933330398
v 63.68470001220703 18.290952682495117 -1.9932992153535412
v 63.53799819946289 18.160892486572266 -2.4900891476045173
vt 0.7603539824485779 0.3261070251464844
vt 0.7223230004310608 0.19501101970672607
vt 0.8038759827613831 0.15750402212142944
vt 0.8567730188369751 0.2902910113334656
vt 0.7603539824485779 0.3261070251464844
vt 0.8038759827613831 0.15750402212142944
vt 0.3006330132484436 0.8309630155563354
vt 0.31276699900627136 0.8890659809112549
vt 0.17123399674892426 0.8038759827613831
vt 0.1982789933681488 0.7766379714012146
vt 0.3006330132484436 0.8309630155563354
vt 0.17123399674892426 0.8038759827613831
vt 0.9344170093536377 0.7640889883041382
vt 0.8990370035171509 0.9792609810829163
vt 0.819096028804779 0.9628049731254578
vt 0.15511000156402588 0.7641010284423828
vt 0.2823159992694855 0.7640889883041382
vt 0.17986799776554108 0.9628049731254578
vt 0.7603539824485779 0.3261070251464844
vt 0.8567730188369751 0.2902910113334656
vt 0.8495669960975647 0.5485020279884338
vt 0.7773320078849792 0.5485020279884338
vt 0.7603539824485779 0.3261070251464844
vt 0.8495669960975647 0.5485020279884338
vt 0.7550309896469116 0.7640889883041382
vt 0.7773320078849792 0.5485020279884338
vt 0.8495669960975647 0.5485020279884338
vt 0.855247974395752 0.7641010284423828
vt 0.7550309896469116 0.7640889883041382
vt 0.8495669960975647 0.5485020279884338
vt 0.31276699900627136 0.8890659809112549
vt 0.28993499279022217 0.937995970249176
vt 0.151201993227005 0.8567730188369751
vt 0.17123399674892426 0.8038759827613831
vt 0.31276699900627136 0.8890659809112549
vt 0.151201993227005 0.8567730188369751
vt 0.0913849025964737 0.7223230004310608
vt 0.14791199564933777 0.7011600136756897
vt 0.1982789933681488 0.7766379714012146
vt 0.17123399674892426 0.8038759827613831
vt 0.0913849025964737 0.7223230004310608
vt 0.1982789933681488 0.7766379714012146
vt 0.14791199564933777 0.7011600136756897
vt 0.22774900496006012 0.7113440036773682
vt 0.1982789933681488 0.7766379714012146
vt 0.3006330132484436 0.8309630155563354
vt 0.3653149902820587 0.8471980094909668
vt 0.39282599091529846 0.9237340092658997
vt 0.31276699900627136 0.8890659809112549
vt 0.3006330132484436 0.8309630155563354
vt 0.39282599091529846 0.9237340092658997
vt 0.2823159992694855 0.7640889883041382
vt 0.2827480137348175 0.555404007434845
vt 0.3870159983634949 0.555404007434845
vt 0.39083099365234375 0.7640889883041382
vt 0.2823159992694855 0.7640889883041382
vt 0.3870159983634949 0.555404007434845
vt 0.2827480137348175 0.555404007434845
vt 0.28993499279022217 0.29082202911376953
vt 0.3892329931259155 0.36304301023483276
vt 0.3870159983634949 0.555404007434845
vt 0.2827480137348175 0.555404007434845
vt 0.3892329931259155 0.36304301023483276
vt 0.3006330132484436 0.8309630155563354
vt 0.2871580123901367 0.7515329718589783
vt 0.3653149902820587 0.8471980094909668
vt 0.7127709984779358 0.9487699866294861
vt 0.7550309896469116 0.7640889883041382
vt 0.855247974395752 0.7641010284423828
vt 0.819096028804779 0.9628049731254578
vt 0.7127709984779358 0.9487699866294861
vt 0.855247974395752 0.7641010284423828
vt 0.2827480137348175 0.555404007434845
vt 0.2823159992694855 0.7640889883041382
vt 0.15511000156402588 0.7641010284423828
vt 0.14196200668811798 0.5485020279884338
vt 0.2827480137348175 0.555404007434845
vt 0.15511000156402588 0.7641010284423828
vt 0.11250200122594833 0.6368780136108398
vt 0.16108399629592896 0.6250010132789612
vt 0.14791199564933777 0.7011600136756897
vt 0.16108399629592896 0.6250010132789612
vt 0.22774900496006012 0.7113440036773682
vt 0.14791199564933777 0.7011600136756897
vt 0.1982789933681488 0.7766379714012146
vt 0.22774900496006012 0.7113440036773682
vt 0.3006330132484436 0.8309630155563354
vt 0.22774900496006012 0.7113440036773682
vt 0.2871580123901367 0.7515329718589783
vt 0.3006330132484436 0.8309630155563354
vt 0.151201993227005 0.2902910113334656
vt 0.28993499279022217 0.29082202911376953
vt 0.2827480137348175 0.555404007434845
vt 0.14196200668811798 0.5485020279884338
vt 0.151201993227005 0.2902910113334656
vt 0.2827480137348175 0.555404007434845
vt 0.3892329931259155 0.36304301023483276
vt 0.28993499279022217 0.29082202911376953
vt 0.31276699900627136 0.16516298055648804
vt 0.39282599091529846 0.16790902614593506
vt 0.3892329931259155 0.36304301023483276
vt 0.31276699900627136 0.16516298055648804
vt 0.16187700629234314 0.5727480053901672
vt 0.22774900496006012 0.7113440036773682
vt 0.16108399629592896 0.6250010132789612
vt 0.2583869993686676 0.607729971408844
vt 0.2700420022010803 0.7026240229606628
vt 0.22774900496006012 0.7113440036773682
vt 0.22774900496006012 0.7113440036773682
vt 0.16187700629234314 0.5727480053901672
vt 0.2583869993686676 0.607729971408844
vt 0.22774900496006012 0.7113440036773682
vt 0.2700420022010803 0.7026240229606628
vt 0.2871580123901367 0.7515329718589783
vn 0.8057303086730668 -0.19460342049160467 -0.5593998376998086
vn 0.6649655228179039 -0.6523721936293408 -0.36363632167696586
vn 0.6074601489810457 -0.5848608114231986 -0.5375220913239971
vn 0.6456797919646842 -0.19673817145053069 -0.7378290439815606
vn 0.8057303086730668 -0.19460342049160467 -0.5593998376998086
vn 0.6074601489810457 -0.5848608114231986 -0.5375220913239971
vn 0.2547482332172736 -0.9015838328457507 -0.34964257467282617
vn 0.3836949675990196 -0.5414620511322228 -0.7480621759071057
vn 0.6074601489810457 -0.5848608114231986 -0.5375220913239971
vn 0.4211452947561649 -0.8930926981002756 -0.15818366952600768
vn 0.2547482332172736 -0.9015838328457507 -0.34964257467282617
vn 0.6074601489810457 -0.5848608114231986 -0.5375220913239971
vn 0.5442321990101041 0.10328835040327072 -0.8325519985151664
vn 0.7158896927580288 0.1350332946436905 -0.6850313548593857
vn 0.7432442650845195 0.24088367000877436 -0.6241498377329571
vn 0.7473792927420378 0.15530103232345113 -0.6459920913909717
vn 0.5442321990101041 0.10328835040327072 -0.8325519985151664
vn 0.7432442650845195 0.24088367000877436 -0.6241498377329571
vn 0.8057303086730668 -0.19460342049160467 -0.5593998376998086
vn 0.6456797919646842 -0.19673817145053069 -0.7378290439815606
vn 0.7282508551519686 0.029021112008563884 -0.6846958938304017
vn 0.7701876503291253 0.07419481626669568 -0.6334872631076746
vn 0.8057303086730668 -0.19460342049160467 -0.5593998376998086
vn 0.7282508551519686 0.029021112008563884 -0.6846958938304017
vn 0.8481290021597654 0.2046312171023328 -0.4886750051749103
vn 0.7701876503291253 0.07419481626669568 -0.6334872631076746
vn 0.7282508551519686 0.029021112008563884 -0.6846958938304017
vn 0.7473792927420378 0.15530103232345113 -0.6459920913909717
vn 0.8481290021597654 0.2046312171023328 -0.4886750051749103
vn 0.7282508551519686 0.029021112008563884 -0.6846958938304017
vn 0.3836949675990196 -0.5414620511322228 -0.7480621759071057
vn 0.42493365979911013 -0.19448930959019436 -0.8840844378366036
vn 0.6456797919646842 -0.19673817145053069 -0.7378290439815606
vn 0.6074601489810457 -0.5848608114231986 -0.5375220913239971
vn 0.3836949675990196 -0.5414620511322228 -0.7480621759071057
vn 0.6456797919646842 -0.19673817145053069 -0.7378290439815606
vn 0.6649655228179039 -0.6523721936293408 -0.36363632167696586
vn 0.42193150020209463 -0.9053293955305782 0.048502522877143114
vn 0.4211452947561649 -0.8930926981002756 -0.15818366952600768
vn 0.6074601489810457 -0.5848608114231986 -0.5375220913239971
vn 0.6649655228179039 -0.6523721936293408 -0.36363632167696586
vn 0.4211452947561649 -0.8930926981002756 -0.15818366952600768
vn 0.42193150020209463 -0.9053293955305782 0.048502522877143114
vn 0.052502496228089966 -0.9656911667687369 0.25433060829293613
vn 0.4211452947561649 -0.8930926981002756 -0.15818366952600768
vn 0.2547482332172736 -0.9015838328457507 -0.34964257467282617
vn -0.06464236738539043 -0.9736980440110291 -0.21847993827330822
vn 0.32680514509874903 -0.5641409168206676 -0.7582502377881079
vn 0.3836949675990196 -0.5414620511322228 -0.7480621759071057
vn 0.2547482332172736 -0.9015838328457507 -0.34964257467282617
vn 0.32680514509874903 -0.5641409168206676 -0.7582502377881079
vn 0.5442321990101041 0.10328835040327072 -0.8325519985151664
vn 0.5109478211208738 -0.0013088014613733734 -0.8596107323263049
vn 0.3688064968154073 -0.006279100885334556 -0.9294849868603681
vn 0.3046835959557884 0.05331314579766064 -0.9509603644950757
vn 0.5442321990101041 0.10328835040327072 -0.8325519985151664
vn 0.3688064968154073 -0.006279100885334556 -0.9294849868603681
vn 0.5109478211208738 -0.0013088014613733734 -0.8596107323263049
vn 0.42493365979911013 -0.19448930959019436 -0.8840844378366036
vn 0.3036883920646843 -0.174173570086106 -0.9367160338163466
vn 0.3688064968154073 -0.006279100885334556 -0.9294849868603681
vn 0.5109478211208738 -0.0013088014613733734 -0.8596107323263049
vn 0.3036883920646843 -0.174173570086106 -0.9367160338163466
vn 0.2547482332172736 -0.9015838328457507 -0.34964257467282617
vn -0.12310370753757095 -0.9854701717720026 0.11702144136081907
vn -0.06464236738539043 -0.9736980440110291 -0.21847993827330822
vn 0.8814690437339913 0.29317668174190026 -0.3702158265410753
vn 0.8481290021597654 0.2046312171023328 -0.4886750051749103
vn 0.7473792927420378 0.15530103232345113 -0.6459920913909717
vn 0.7432442650845195 0.24088367000877436 -0.6241498377329571
vn 0.8814690437339913 0.29317668174190026 -0.3702158265410753
vn 0.7473792927420378 0.15530103232345113 -0.6459920913909717
vn 0.5109478211208738 -0.0013088014613733734 -0.8596107323263049
vn 0.5442321990101041 0.10328835040327072 -0.8325519985151664
vn 0.7473792927420378 0.15530103232345113 -0.6459920913909717
vn 0.7282508551519686 0.029021112008563884 -0.6846958938304017
vn 0.5109478211208738 -0.0013088014613733734 -0.8596107323263049
vn 0.7473792927420378 0.15530103232345113 -0.6459920913909717
vn 0.4114492408408486 -0.8703147465607419 0.27066910449920384
vn 0.3810849798058476 -0.8887822656599895 0.2546376296124995
vn 0.42193150020209463 -0.9053293955305782 0.048502522877143114
vn 0.3810849798058476 -0.8887822656599895 0.2546376296124995
vn 0.052502496228089966 -0.9656911667687369 0.25433060829293613
vn 0.42193150020209463 -0.9053293955305782 0.048502522877143114
vn 0.4211452947561649 -0.8930926981002756 -0.15818366952600768
vn 0.052502496228089966 -0.9656911667687369 0.25433060829293613
vn 0.2547482332172736 -0.9015838328457507 -0.34964257467282617
vn 0.052502496228089966 -0.9656911667687369 0.25433060829293613
vn -0.12310370753757095 -0.9854701717720026 0.11702144136081907
vn 0.2547482332172736 -0.9015838328457507 -0.34964257467282617
vn 0.6456797919646842 -0.19673817145053069 -0.7378290439815606
vn 0.42493365979911013 -0.19448930959019436 -0.8840844378366036
vn 0.5109478211208738 -0.0013088014613733734 -0.8596107323263049
vn 0.7282508551519686 0.029021112008563884 -0.6846958938304017
vn 0.6456797919646842 -0.19673817145053069 -0.7378290439815606
vn 0.5109478211208738 -0.0013088014613733734 -0.8596107323263049
vn 0.3036883920646843 -0.174173570086106 -0.9367160338163466
vn 0.42493365979911013 -0.19448930959019436 -0.8840844378366036
vn 0.3836949675990196 -0.5414620511322228 -0.7480621759071057
vn 0.32680514509874903 -0.5641409168206676 -0.7582502377881079
vn 0.3036883920646843 -0.174173570086106 -0.9367160338163466
vn 0.3836949675990196 -0.5414620511322228 -0.7480621759071057
vn -0.25221055982066376 -0.848293212142551 0.4656054765011044
vn 0.052502496228089966 -0.9656911667687369 0.25433060829293613
vn 0.3810849798058476 -0.8887822656599895 0.2546376296124995
vn -0.3395967628074216 -0.7799820547476309 0.5256443978226948
vn -0.15441719994804226 -0.8464901716808796 0.5095191042619318
vn 0.052502496228089966 -0.9656911667687369 0.25433060829293613
vn 0.052502496228089966 -0.9656911667687369 0.25433060829293613
vn -0.25221055982066376 -0.848293212142551 0.4656054765011044
vn -0.3395967628074216 -0.7799820547476309 0.5256443978226948
vn 0.052502496228089966 -0.9656911667687369 0.25433060829293613
vn -0.15441719994804226 -0.8464901716808796 0.5095191042619318
vn -0.12310370753757095 -0.9854701717720026 0.11702144136081907
f 1/1/1 2/2/2 3/3/3
f 4/4/4 5/5/5 6/6/6
f 7/7/7 8/8/8 9/9/9
f 10/10/10 11/11/11 12/12/12
f 13/13/13 14/14/14 15/15/15
f 16/16/16 17/17/17 18/18/18
f 19/19/19 20/20/20 21/21/21
f 22/22/22 23/23/23 24/24/24
f 25/25/25 26/26/26 27/27/27
f 28/28/28 29/29/29 30/30/30
f 31/31/31 32/32/32 33/33/33
f 34/34/34 35/35/35 36/36/36
f 37/37/37 38/38/38 39/39/39
f 40/40/40 41/41/41 42/42/42
f 43/43/43 44/44/44 45/45/45
f 46/46/46 47/47/47 48/48/48
f 49/49/49 50/50/50 51/51/51
f 52/52/52 53/53/53 54/54/54
f 55/55/55 56/56/56 57/57/57
f 58/58/58 59/59/59 60/60/60
f 61/61/61 62/62/62 63/63/63
f 64/64/64 65/65/65 66/66/66
f 67/67/67 68/68/68 69/69/69
f 70/70/70 71/71/71 72/72/72
f 73/73/73 74/74/74 75/75/75
f 76/76/76 77/77/77 78/78/78
f 79/79/79 80/80/80 81/81/81
f 82/82/82 83/83/83 84/84/84
f 85/85/85 86/86/86 87/87/87
f 88/88/88 89/89/89 90/90/90
f 91/91/91 92/92/92 93/93/93
f 94/94/94 95/95/95 96/96/96
f 97/97/97 98/98/98 99/99/99
f 100/100/100 101/101/101 102/102/102
f 103/103/103 104/104/104 105/105/105
f 106/106/106 107/107/107 108/108/108
f 109/109/109 110/110/110 111/111/111
f 112/112/112 113/113/113 114/114/114
