mtllib ArcadaCompleta.mtl
o D28C_M
usemtl Esmalte
v 58.27880096435547 18.808143615722656 0.775398761712499
v 57.86629867553711 19.068212509155273 0.9191267199148612
v 57.947898864746094 19.20020294189453 -0.16267424754004908
v 58.3468017578125 18.800493240356445 -0.08379095724921663
v 58.27880096435547 18.808143615722656 0.775398761712499
v 57.947898864746094 19.20020294189453 -0.16267424754004908
v 57.43239974975586 19.86930274963379 1.01417079635758
v 57.66419982910156 20.00629234313965 -0.1626742475400489
v 57.947898864746094 19.20020294189453 -0.16267424754004908
v 57.86629867553711 19.068212509155273 0.9191267199148612
v 57.43239974975586 19.86930274963379 1.01417079635758
v 57.947898864746094 19.20020294189453 -0.16267424754004908
v 58.66809844970703 18.689823150634766 -1.4988792829881235
v 58.3468017578125 18.800493240356445 -0.08379095724921663
v 57.947898864746094 19.20020294189453 -0.16267424754004908
v 58.09389877319336 19.067502975463867 -1.5095692568193002
v 58.66809844970703 18.689823150634766 -1.4988792829881235
v 57.947898864746094 19.20020294189453 -0.16267424754004908
v 57.43239974975586 19.86930274963379 1.01417079635758
v 57.68009948730469 21.123292922973633 1.1207207746138057
v 57.785301208496094 21.123292922973633 -0.16267424754004864
v 57.66419982910156 20.00629234313965 -0.1626742475400489
v 57.43239974975586 19.86930274963379 1.01417079635758
v 57.785301208496094 21.123292922973633 -0.16267424754004864
v 58.29439926147461 22.474943161010742 1.1239307231535398
v 58.22209930419922 22.474943161010742 -0.16267424754004836
v 57.785301208496094 21.123292922973633 -0.16267424754004864
v 57.68009948730469 21.123292922973633 1.1207207746138057
v 58.29439926147461 22.474943161010742 1.1239307231535398
v 57.785301208496094 21.123292922973633 -0.16267424754004864
v 58.37590026855469 18.46137237548828 1.8459008044828846
v 57.893699645996094 18.780832290649414 2.0993507213224847
v 57.86629867553711 19.068212509155273 0.9191267199148612
v 58.27880096435547 18.808143615722656 0.775398761712499
v 58.37590026855469 18.46137237548828 1.8459008044828846
v 57.86629867553711 19.068212509155273 0.9191267199148612
v 57.66419982910156 20.00629234313965 -0.1626742475400489
v 57.750999450683594 19.86930274963379 -1.5241292410264533
v 58.09389877319336 19.067502975463867 -1.5095692568193002
v 57.947898864746094 19.20020294189453 -0.16267424754004908
v 57.66419982910156 20.00629234313965 -0.1626742475400489
v 58.09389877319336 19.067502975463867 -1.5095692568193002
v 57.92580032348633 21.123292922973633 -1.4460692100892583
v 57.750999450683594 19.86930274963379 -1.5241292410264533
v 57.66419982910156 20.00629234313965 -0.1626742475400489
v 57.785301208496094 21.123292922973633 -0.16267424754004864
v 57.92580032348633 21.123292922973633 -1.4460692100892583
v 57.66419982910156 20.00629234313965 -0.1626742475400489
v 58.22209930419922 22.474943161010742 -0.16267424754004836
v 58.29439926147461 22.474943161010742 -1.4492792778382815
v 57.92580032348633 21.123292922973633 -1.4460692100892583
v 57.785301208496094 21.123292922973633 -0.16267424754004864
v 58.22209930419922 22.474943161010742 -0.16267424754004836
v 57.92580032348633 21.123292922973633 -1.4460692100892583
v 57.721900939941406 21.123292922973633 2.6617808646788084
v 57.68009948730469 21.123292922973633 1.1207207746138057
v 57.43239974975586 19.86930274963379 1.01417079635758
v 57.497100830078125 19.64684295654297 2.459900648080297
v 57.721900939941406 21.123292922973633 2.6617808646788084
v 57.43239974975586 19.86930274963379 1.01417079635758
v 58.66809844970703 18.689823150634766 -1.4988792829881235
v 59.154998779296875 18.984872817993164 -0.17810325256686646
v 58.3468017578125 18.800493240356445 -0.08379095724921663
v 58.3468017578125 18.800493240356445 -0.08379095724921663
v 58.843101501464844 18.907873153686523 0.34869274564880887
v 58.27880096435547 18.808143615722656 0.775398761712499
v 58.843101501464844 18.907873153686523 0.34869274564880887
v 58.3468017578125 18.800493240356445 -0.08379095724921663
v 59.12179946899414 19.407453536987305 0.15538574823040538
v 57.721900939941406 21.123292922973633 2.6617808646788084
v 58.36759948730469 22.474943161010742 2.578240663491675
v 58.29439926147461 22.474943161010742 1.1239307231535398
v 57.68009948730469 21.123292922973633 1.1207207746138057
v 57.721900939941406 21.123292922973633 2.6617808646788084
v 58.29439926147461 22.474943161010742 1.1239307231535398
v 59.12179946899414 19.407453536987305 0.15538574823040538
v 58.3468017578125 18.800493240356445 -0.08379095724921663
v 59.154998779296875 18.984872817993164 -0.17810325256686646
v 59.04069900512695 18.47108268737793 -1.475239246405177
v 59.4380989074707 18.405452728271484 -1.3954292230973766
v 59.154998779296875 18.984872817993164 -0.17810325256686646
v 58.66809844970703 18.689823150634766 -1.4988792829881235
v 59.04069900512695 18.47108268737793 -1.475239246405177
v 59.154998779296875 18.984872817993164 -0.17810325256686646
v 57.86629867553711 19.068212509155273 0.9191267199148612
v 57.893699645996094 18.780832290649414 2.0993507213224847
v 57.497100830078125 19.64684295654297 2.459900648080297
v 57.43239974975586 19.86930274963379 1.01417079635758
v 57.86629867553711 19.068212509155273 0.9191267199148612
v 57.497100830078125 19.64684295654297 2.459900648080297
v 58.27880096435547 18.808143615722656 0.775398761712499
v 58.843101501464844 18.907873153686523 0.34869274564880887
v 58.37590026855469 18.46137237548828 1.8459008044828846
v 59.12179946899414 19.407453536987305 0.15538574823040538
v 58.77989959716797 18.414432525634766 1.8150106973280384
v 58.37590026855469 18.46137237548828 1.8459008044828846
v 58.843101501464844 18.907873153686523 0.34869274564880887
v 59.12179946899414 19.407453536987305 0.15538574823040538
v 58.37590026855469 18.46137237548828 1.8459008044828846
v 59.40639877319336 18.92733383178711 0.3704587525953726
v 59.227500915527344 18.451372146606445 1.3329007930387928
v 58.77989959716797 18.414432525634766 1.8150106973280384
v 59.12179946899414 19.407453536987305 0.15538574823040538
v 59.40639877319336 18.92733383178711 0.3704587525953726
v 58.77989959716797 18.414432525634766 1.8150106973280384
v 58.29439926147461 22.474943161010742 1.1239307231535398
v 58.60649871826172 23.5797119140625 0.9580057568182435
v 58.55799865722656 23.58832359313965 -0.2478042536149535
v 58.22209930419922 22.474943161010742 -0.16267424754004836
v 58.29439926147461 22.474943161010742 1.1239307231535398
v 58.55799865722656 23.58832359313965 -0.2478042536149535
v 58.60649871826172 23.5797119140625 -1.151769249952844
v 58.29439926147461 22.474943161010742 -1.4492792778382815
v 58.22209930419922 22.474943161010742 -0.16267424754004836
v 58.55799865722656 23.58832359313965 -0.2478042536149535
v 58.60649871826172 23.5797119140625 -1.151769249952844
v 58.22209930419922 22.474943161010742 -0.16267424754004836
v 58.29439926147461 22.474943161010742 1.1239307231535398
v 58.36759948730469 22.474943161010742 2.578240663491675
v 58.95840072631836 23.67066192626953 2.528590709649512
v 58.60649871826172 23.5797119140625 0.9580057568182435
v 58.29439926147461 22.474943161010742 1.1239307231535398
v 58.95840072631836 23.67066192626953 2.528590709649512
vt 0.900750994682312 0.4300459623336792
vt 0.9488769769668579 0.4158959984779358
vt 0.9393569827079773 0.5223990082740784
vt 0.8928170204162598 0.5146329998970032
vt 0.900750994682312 0.4300459623336792
vt 0.9393569827079773 0.5223990082740784
vt 0.5934609770774841 0.3617969751358032
vt 0.47760099172592163 0.3829469680786133
vt 0.47760099172592163 0.25849199295043945
vt 0.5841040015220642 0.23811399936676025
vt 0.5934609770774841 0.3617969751358032
vt 0.47760099172592163 0.25849199295043945
vt 0.8553310036659241 0.6539490222930908
vt 0.8928170204162598 0.5146329998970032
vt 0.9393569827079773 0.5223990082740784
vt 0.9223229885101318 0.6550009846687317
vt 0.8553310036659241 0.6539490222930908
vt 0.9393569827079773 0.5223990082740784
vt 0.5934609770774841 0.3617969751358032
vt 0.6039509773254395 0.555404007434845
vt 0.47760099172592163 0.555404007434845
vt 0.47760099172592163 0.3829469680786133
vt 0.5934609770774841 0.3617969751358032
vt 0.47760099172592163 0.555404007434845
vt 0.6042670011520386 0.7640889883041382
vt 0.47760099172592163 0.7640889883041382
vt 0.47760099172592163 0.555404007434845
vt 0.6039509773254395 0.555404007434845
vt 0.6042670011520386 0.7640889883041382
vt 0.47760099172592163 0.555404007434845
vt 0.8894219994544983 0.32465600967407227
vt 0.9456809759140015 0.2997030019760132
vt 0.9488769769668579 0.4158959984779358
vt 0.900750994682312 0.4300459623336792
vt 0.8894219994544983 0.32465600967407227
vt 0.9488769769668579 0.4158959984779358
vt 0.47760099172592163 0.3829469680786133
vt 0.34356600046157837 0.3617969751358032
vt 0.3449989855289459 0.23800396919250488
vt 0.47760099172592163 0.25849199295043945
vt 0.47760099172592163 0.3829469680786133
vt 0.3449989855289459 0.23800396919250488
vt 0.3512510061264038 0.555404007434845
vt 0.34356600046157837 0.3617969751358032
vt 0.47760099172592163 0.3829469680786133
vt 0.47760099172592163 0.555404007434845
vt 0.3512510061264038 0.555404007434845
vt 0.47760099172592163 0.3829469680786133
vt 0.47760099172592163 0.7640889883041382
vt 0.3509350121021271 0.7640889883041382
vt 0.3512510061264038 0.555404007434845
vt 0.47760099172592163 0.555404007434845
vt 0.47760099172592163 0.7640889883041382
vt 0.3512510061264038 0.555404007434845
vt 0.7556679844856262 0.555404007434845
vt 0.6039509773254395 0.555404007434845
vt 0.5934609770774841 0.3617969751358032
vt 0.7357929944992065 0.3274500370025635
vt 0.7556679844856262 0.555404007434845
vt 0.5934609770774841 0.3617969751358032
vt 0.8553310036659241 0.6539490222930908
vt 0.798524022102356 0.5239179730415344
vt 0.8928170204162598 0.5146329998970032
vt 0.8928170204162598 0.5146329998970032
vt 0.8349130153656006 0.47205495834350586
vt 0.900750994682312 0.4300459623336792
vt 0.8349130153656006 0.47205495834350586
vt 0.8928170204162598 0.5146329998970032
vt 0.8023980259895325 0.4910860061645508
vt 0.7556679844856262 0.555404007434845
vt 0.7474430203437805 0.7640889883041382
vt 0.6042670011520386 0.7640889883041382
vt 0.6039509773254395 0.555404007434845
vt 0.7556679844856262 0.555404007434845
vt 0.6042670011520386 0.7640889883041382
vt 0.8023980259895325 0.4910860061645508
vt 0.8928170204162598 0.5146329998970032
vt 0.798524022102356 0.5239179730415344
vt 0.8118600249290466 0.6516209840774536
vt 0.7654950022697449 0.6437640190124512
vt 0.798524022102356 0.5239179730415344
vt 0.8553310036659241 0.6539490222930908
vt 0.8118600249290466 0.6516209840774536
vt 0.798524022102356 0.5239179730415344
vt 0.5841040015220642 0.23811399936676025
vt 0.7002969980239868 0.19374501705169678
vt 0.7357929944992065 0.3274500370025635
vt 0.5934609770774841 0.3617969751358032
vt 0.5841040015220642 0.23811399936676025
vt 0.7357929944992065 0.3274500370025635
vt 0.900750994682312 0.4300459623336792
vt 0.8349130153656006 0.47205495834350586
vt 0.8894219994544983 0.32465600967407227
vt 0.8023980259895325 0.4910860061645508
vt 0.842287003993988 0.3276970386505127
vt 0.8894219994544983 0.32465600967407227
vt 0.47205498814582825 0.21335899829864502
vt 0.4910860061645508 0.2904900312423706
vt 0.32465600967407227 0.1444219946861267
vt 0.7691929936408997 0.4699130058288574
vt 0.7900649905204773 0.37515997886657715
vt 0.842287003993988 0.3276970386505127
vt 0.8023980259895325 0.4910860061645508
vt 0.7691929936408997 0.4699130058288574
vt 0.842287003993988 0.3276970386505127
vt 0.6042670011520386 0.7640889883041382
vt 0.5879309773445129 0.9346569776535034
vt 0.46922001242637634 0.9359869956970215
vt 0.47760099172592163 0.7640889883041382
vt 0.6042670011520386 0.7640889883041382
vt 0.46922001242637634 0.9359869956970215
vt 0.38022398948669434 0.9346569776535034
vt 0.3509350121021271 0.7640889883041382
vt 0.47760099172592163 0.7640889883041382
vt 0.46922001242637634 0.9359869956970215
vt 0.38022398948669434 0.9346569776535034
vt 0.47760099172592163 0.7640889883041382
vt 0.6042670011520386 0.7640889883041382
vt 0.7474430203437805 0.7640889883041382
vt 0.7425550222396851 0.9486989974975586
vt 0.5879309773445129 0.9346569776535034
vt 0.6042670011520386 0.7640889883041382
vt 0.7425550222396851 0.9486989974975586
vn -0.36280431844348404 -0.9177524759390806 -0.16156552672660868
vn -0.8092697234418121 -0.5769932674809315 -0.1102782118194305
vn -0.8086572099750106 -0.5791894061582021 -0.10302013662163698
vn -0.07322138831518399 -0.9954931704684779 0.060265876280156054
vn -0.36280431844348404 -0.9177524759390806 -0.16156552672660868
vn -0.8086572099750106 -0.5791894061582021 -0.10302013662163698
vn -0.998042421358083 -0.0266459351978764 -0.05658020243093213
vn -0.9901065000450645 -0.08386073811819113 -0.11250108964265623
vn -0.8086572099750106 -0.5791894061582021 -0.10302013662163698
vn -0.8092697234418121 -0.5769932674809315 -0.1102782118194305
vn -0.998042421358083 -0.0266459351978764 -0.05658020243093213
vn -0.8086572099750106 -0.5791894061582021 -0.10302013662163698
vn -0.34938427974739633 -0.9321396395906005 0.09511213050551753
vn -0.07322138831518399 -0.9954931704684779 0.060265876280156054
vn -0.8086572099750106 -0.5791894061582021 -0.10302013662163698
vn -0.8555853849199955 -0.5170102646787021 -0.02596219035754747
vn -0.34938427974739633 -0.9321396395906005 0.09511213050551753
vn -0.8086572099750106 -0.5791894061582021 -0.10302013662163698
vn -0.998042421358083 -0.0266459351978764 -0.05658020243093213
vn -0.9489132567927581 0.3148173029423959 -0.02130016082185415
vn -0.9636714211746528 0.2557134106642052 -0.07712356071723321
vn -0.9901065000450645 -0.08386073811819113 -0.11250108964265623
vn -0.998042421358083 -0.0266459351978764 -0.05658020243093213
vn -0.9636714211746528 0.2557134106642052 -0.07712356071723321
vn -0.9282298209552364 0.3690419245379512 0.04687704579785988
vn -0.9564729543469463 0.2906649708486204 -0.02594922589201435
vn -0.9636714211746528 0.2557134106642052 -0.07712356071723321
vn -0.9489132567927581 0.3148173029423959 -0.02130016082185415
vn -0.9282298209552364 0.3690419245379512 0.04687704579785988
vn -0.9636714211746528 0.2557134106642052 -0.07712356071723321
vn -0.09565254944982288 -0.9571053880811309 -0.27349564144574023
vn -0.8256220990230706 -0.5523132398618619 -0.11531797205133562
vn -0.8092697234418121 -0.5769932674809315 -0.1102782118194305
vn -0.36280431844348404 -0.9177524759390806 -0.16156552672660868
vn -0.09565254944982288 -0.9571053880811309 -0.27349564144574023
vn -0.8092697234418121 -0.5769932674809315 -0.1102782118194305
vn -0.9901065000450645 -0.08386073811819113 -0.11250108964265623
vn -0.9952785455798921 -0.07966984874936554 -0.055437639818335945
vn -0.8555853849199955 -0.5170102646787021 -0.02596219035754747
vn -0.8086572099750106 -0.5791894061582021 -0.10302013662163698
vn -0.9901065000450645 -0.08386073811819113 -0.11250108964265623
vn -0.8555853849199955 -0.5170102646787021 -0.02596219035754747
vn -0.9736554325722365 0.21153944085644036 -0.08512440064232683
vn -0.9952785455798921 -0.07966984874936554 -0.055437639818335945
vn -0.9901065000450645 -0.08386073811819113 -0.11250108964265623
vn -0.9636714211746528 0.2557134106642052 -0.07712356071723321
vn -0.9736554325722365 0.21153944085644036 -0.08512440064232683
vn -0.9901065000450645 -0.08386073811819113 -0.11250108964265623
vn -0.9564729543469463 0.2906649708486204 -0.02594922589201435
vn -0.9605955445418711 0.2726579427099968 -0.053980052644085424
vn -0.9736554325722365 0.21153944085644036 -0.08512440064232683
vn -0.9636714211746528 0.2557134106642052 -0.07712356071723321
vn -0.9564729543469463 0.2906649708486204 -0.02594922589201435
vn -0.9736554325722365 0.21153944085644036 -0.08512440064232683
vn -0.9526412190374424 0.30128522769177735 0.04125432541649107
vn -0.9489132567927581 0.3148173029423959 -0.02130016082185415
vn -0.998042421358083 -0.0266459351978764 -0.05658020243093213
vn -0.9844754135217726 -0.17550711399286367 0.0023266089122968765
vn -0.9526412190374424 0.30128522769177735 0.04125432541649107
vn -0.998042421358083 -0.0266459351978764 -0.05658020243093213
vn -0.34938427974739633 -0.9321396395906005 0.09511213050551753
vn -0.019408831162192757 -0.9312884706504198 0.36376514636028534
vn -0.07322138831518399 -0.9954931704684779 0.060265876280156054
vn -0.07322138831518399 -0.9954931704684779 0.060265876280156054
vn 0.49241074394207457 -0.8559302596301399 -0.1578450186096919
vn -0.36280431844348404 -0.9177524759390806 -0.16156552672660868
vn 0.49241074394207457 -0.8559302596301399 -0.1578450186096919
vn -0.07322138831518399 -0.9954931704684779 0.060265876280156054
vn 0.14441451356017815 -0.9450709392060102 -0.2932326177993286
vn -0.9526412190374424 0.30128522769177735 0.04125432541649107
vn -0.8977691637509387 0.43814221614751353 0.04518768689904214
vn -0.9282298209552364 0.3690419245379512 0.04687704579785988
vn -0.9489132567927581 0.3148173029423959 -0.02130016082185415
vn -0.9526412190374424 0.30128522769177735 0.04125432541649107
vn -0.9282298209552364 0.3690419245379512 0.04687704579785988
vn 0.14441451356017815 -0.9450709392060102 -0.2932326177993286
vn -0.07322138831518399 -0.9954931704684779 0.060265876280156054
vn -0.019408831162192757 -0.9312884706504198 0.36376514636028534
vn -0.3651823378368288 -0.8540483063120009 0.3704636967607363
vn -0.223990510736738 -0.899181766588952 0.3758994569480868
vn -0.019408831162192757 -0.9312884706504198 0.36376514636028534
vn -0.34938427974739633 -0.9321396395906005 0.09511213050551753
vn -0.3651823378368288 -0.8540483063120009 0.3704636967607363
vn -0.019408831162192757 -0.9312884706504198 0.36376514636028534
vn -0.8092697234418121 -0.5769932674809315 -0.1102782118194305
vn -0.8256220990230706 -0.5523132398618619 -0.11531797205133562
vn -0.9844754135217726 -0.17550711399286367 0.0023266089122968765
vn -0.998042421358083 -0.0266459351978764 -0.05658020243093213
vn -0.8092697234418121 -0.5769932674809315 -0.1102782118194305
vn -0.9844754135217726 -0.17550711399286367 0.0023266089122968765
vn -0.36280431844348404 -0.9177524759390806 -0.16156552672660868
vn 0.49241074394207457 -0.8559302596301399 -0.1578450186096919
vn -0.09565254944982288 -0.9571053880811309 -0.27349564144574023
vn 0.14441451356017815 -0.9450709392060102 -0.2932326177993286
vn -0.4254682446481587 -0.7447083814554335 -0.5141849855704105
vn -0.09565254944982288 -0.9571053880811309 -0.27349564144574023
vn 0.49241074394207457 -0.8559302596301399 -0.1578450186096919
vn 0.14441451356017815 -0.9450709392060102 -0.2932326177993286
vn -0.09565254944982288 -0.9571053880811309 -0.27349564144574023
vn -0.5755219183068768 -0.6593836229194431 -0.48372281254247484
vn -0.4347728858463982 -0.7724959510998046 -0.46284181235839417
vn -0.4254682446481587 -0.7447083814554335 -0.5141849855704105
vn 0.14441451356017815 -0.9450709392060102 -0.2932326177993286
vn -0.5755219183068768 -0.6593836229194431 -0.48372281254247484
vn -0.4254682446481587 -0.7447083814554335 -0.5141849855704105
vn -0.9282298209552364 0.3690419245379512 0.04687704579785988
vn -0.9491645796471112 0.28741949478060314 0.12836134450599015
vn -0.9582490667522845 0.2852132961615376 0.020300289678893964
vn -0.9564729543469463 0.2906649708486204 -0.02594922589201435
vn -0.9282298209552364 0.3690419245379512 0.04687704579785988
vn -0.9582490667522845 0.2852132961615376 0.020300289678893964
vn -0.9570830205710262 0.2847579165316881 -0.053898244008247734
vn -0.9605955445418711 0.2726579427099968 -0.053980052644085424
vn -0.9564729543469463 0.2906649708486204 -0.02594922589201435
vn -0.9582490667522845 0.2852132961615376 0.020300289678893964
vn -0.9570830205710262 0.2847579165316881 -0.053898244008247734
vn -0.9564729543469463 0.2906649708486204 -0.02594922589201435
vn -0.9282298209552364 0.3690419245379512 0.04687704579785988
vn -0.8977691637509387 0.43814221614751353 0.04518768689904214
vn -0.920532006660321 0.37236614353365904 0.11817055413169959
vn -0.9491645796471112 0.28741949478060314 0.12836134450599015
vn -0.9282298209552364 0.3690419245379512 0.04687704579785988
vn -0.920532006660321 0.37236614353365904 0.11817055413169959
f 1/1/1 2/2/2 3/3/3
f 4/4/4 5/5/5 6/6/6
f 7/7/7 8/8/8 9/9/9
f 10/10/10 11/11/11 12/12/12
f 13/13/13 14/14/14 15/15/15
f 16/16/16 17/17/17 18/18/18
f 19/19/19 20/20/20 21/21/21
f 22/22/22 23/23/23 24/24/24
f 25/25/25 26/26/26 27/27/27
f 28/28/28 29/29/29 30/30/30
f 31/31/31 32/32/32 33/33/33
f 34/34/34 35/35/35 36/36/36
f 37/37/37 38/38/38 39/39/39
f 40/40/40 41/41/41 42/42/42
f 43/43/43 44/44/44 45/45/45
f 46/46/46 47/47/47 48/48/48
f 49/49/49 50/50/50 51/51/51
f 52/52/52 53/53/53 54/54/54
f 55/55/55 56/56/56 57/57/57
f 58/58/58 59/59/59 60/60/60
f 61/61/61 62/62/62 63/63/63
f 64/64/64 65/65/65 66/66/66
f 67/67/67 68/68/68 69/69/69
f 70/70/70 71/71/71 72/72/72
f 73/73/73 74/74/74 75/75/75
f 76/76/76 77/77/77 78/78/78
f 79/79/79 80/80/80 81/81/81
f 82/82/82 83/83/83 84/84/84
f 85/85/85 86/86/86 87/87/87
f 88/88/88 89/89/89 90/90/90
f 91/91/91 92/92/92 93/93/93
f 94/94/94 95/95/95 96/96/96
f 97/97/97 98/98/98 99/99/99
f 100/100/100 101/101/101 102/102/102
f 103/103/103 104/104/104 105/105/105
f 106/106/106 107/107/107 108/108/108
f 109/109/109 110/110/110 111/111/111
f 112/112/112 113/113/113 114/114/114
f 115/115/115 116/116/116 117/117/117
f 118/118/118 119/119/119 120/120/120
f 121/121/121 122/122/122 123/123/123
