mtllib ArcadaCompleta.mtl
o D28C_B
usemtl Esmalte
v 62.37080001831055 19.430622100830078 4.074460775338598
v 62.11920166015625 19.61947250366211 3.798800737344213
v 61.97919845581055 18.727083206176758 3.8727007217039544
v 62.17610168457031 18.615442276000977 3.937230855905004
v 62.37080001831055 19.430622100830078 4.074460775338598
v 61.97919845581055 18.727083206176758 3.8727007217039544
v 61.888999938964844 19.430522918701172 4.287210733376928
v 61.73400115966797 18.576873779296875 3.9834306544889886
v 61.97919845581055 18.727083206176758 3.8727007217039544
v 62.11920166015625 19.61947250366211 3.798800737344213
v 61.888999938964844 19.430522918701172 4.287210733376928
v 61.97919845581055 18.727083206176758 3.8727007217039544
v 61.888999938964844 19.430522918701172 4.287210733376928
v 62.11920166015625 19.61947250366211 3.798800737344213
v 62.11909866333008 21.213623046875 4.102740556680151
v 61.88909912109375 21.123292922973633 4.466130525552221
v 61.888999938964844 19.430522918701172 4.287210733376928
v 62.11909866333008 21.213623046875 4.102740556680151
v 62.13629913330078 21.45262336730957 4.591510564767309
v 61.88909912109375 21.123292922973633 4.466130525552221
v 62.11909866333008 21.213623046875 4.102740556680151
v 61.73400115966797 18.576873779296875 3.9834306544889886
v 61.60710144042969 18.372913360595703 3.4933607883085687
v 61.8297004699707 18.678983688354492 3.4953906840910394
v 61.97919845581055 18.727083206176758 3.8727007217039544
v 61.73400115966797 18.576873779296875 3.9834306544889886
v 61.8297004699707 18.678983688354492 3.4953906840910394
v 61.602298736572266 18.441633224487305 2.4853906936277825
v 61.8297004699707 18.891672134399414 2.46712067791123
v 61.8297004699707 18.678983688354492 3.4953906840910394
v 61.60710144042969 18.372913360595703 3.4933607883085687
v 61.602298736572266 18.441633224487305 2.4853906936277825
v 61.8297004699707 18.678983688354492 3.4953906840910394
v 62.349098205566406 21.123292922973633 4.432130605660864
v 62.11909866333008 21.213623046875 4.102740556680151
v 62.11920166015625 19.61947250366211 3.798800737344213
v 62.37080001831055 19.430622100830078 4.074460775338598
v 62.349098205566406 21.123292922973633 4.432130605660864
v 62.11920166015625 19.61947250366211 3.798800737344213
v 61.888999938964844 19.430522918701172 4.287210733376928
v 60.75640106201172 19.42223358154297 4.7788908786406
v 60.88159942626953 18.36538314819336 4.068280965768285
v 61.73400115966797 18.576873779296875 3.9834306544889886
v 61.888999938964844 19.430522918701172 4.287210733376928
v 60.88159942626953 18.36538314819336 4.068280965768285
v 62.37080001831055 19.430622100830078 4.074460775338598
v 62.17610168457031 18.615442276000977 3.937230855905004
v 62.71849822998047 18.33681297302246 3.521820814095922
v 62.90290069580078 19.42243194580078 3.824000627480932
v 62.37080001831055 19.430622100830078 4.074460775338598
v 62.71849822998047 18.33681297302246 3.521820814095922
v 62.37080001831055 19.430622100830078 4.074460775338598
v 62.90290069580078 19.42243194580078 3.824000627480932
v 62.897098541259766 21.123292922973633 4.0894906825651605
v 62.349098205566406 21.123292922973633 4.432130605660864
v 62.37080001831055 19.430622100830078 4.074460775338598
v 62.897098541259766 21.123292922973633 4.0894906825651605
v 61.88909912109375 21.123292922973633 4.466130525552221
v 60.762001037597656 21.123292922973633 4.984660894357153
v 60.75640106201172 19.42223358154297 4.7788908786406
v 61.888999938964844 19.430522918701172 4.287210733376928
v 61.88909912109375 21.123292922973633 4.466130525552221
v 60.75640106201172 19.42223358154297 4.7788908786406
v 62.17610168457031 18.615442276000977 3.937230855905004
v 62.01470184326172 18.387893676757812 3.250450641595312
v 62.5791015625 17.956205368041992 2.980580837212987
v 62.71849822998047 18.33681297302246 3.521820814095922
v 62.17610168457031 18.615442276000977 3.937230855905004
v 62.5791015625 17.956205368041992 2.980580837212987
v 60.79460144042969 22.474943161010742 5.138500959359594
v 62.13629913330078 21.45262336730957 4.591510564767309
v 61.86399841308594 22.474943161010742 4.686040670358129
v 61.88909912109375 21.123292922973633 4.466130525552221
v 62.13629913330078 21.45262336730957 4.591510564767309
v 60.79460144042969 22.474943161010742 5.138500959359594
v 60.762001037597656 21.123292922973633 4.984660894357153
v 61.88909912109375 21.123292922973633 4.466130525552221
v 60.79460144042969 22.474943161010742 5.138500959359594
v 61.86399841308594 22.474943161010742 4.686040670358129
v 62.13629913330078 21.45262336730957 4.591510564767309
v 62.864498138427734 22.474943161010742 4.311340600930639
v 62.01470184326172 18.387893676757812 3.250450641595312
v 62.049598693847656 18.454832077026367 2.4420106715788323
v 62.691898345947266 18.074003219604492 2.2721507854093987
v 62.5791015625 17.956205368041992 2.980580837212987
v 62.01470184326172 18.387893676757812 3.250450641595312
v 62.691898345947266 18.074003219604492 2.2721507854093987
v 61.8297004699707 18.678983688354492 3.4953906840910394
v 62.01470184326172 18.387893676757812 3.250450641595312
v 62.17610168457031 18.615442276000977 3.937230855905004
v 61.97919845581055 18.727083206176758 3.8727007217039544
v 61.8297004699707 18.678983688354492 3.4953906840910394
v 62.17610168457031 18.615442276000977 3.937230855905004
v 61.8297004699707 18.891672134399414 2.46712067791123
v 62.049598693847656 18.454832077026367 2.4420106715788323
v 62.01470184326172 18.387893676757812 3.250450641595312
v 61.8297004699707 18.678983688354492 3.4953906840910394
v 61.8297004699707 18.891672134399414 2.46712067791123
v 62.01470184326172 18.387893676757812 3.250450641595312
v 61.05619812011719 18.203432083129883 2.610370666467138
v 61.602298736572266 18.441633224487305 2.4853906936277825
v 61.60710144042969 18.372913360595703 3.4933607883085687
v 60.92679977416992 18.07075309753418 3.4886608428587396
v 61.05619812011719 18.203432083129883 2.610370666467138
v 61.60710144042969 18.372913360595703 3.4933607883085687
v 60.92679977416992 18.07075309753418 3.4886608428587396
v 61.60710144042969 18.372913360595703 3.4933607883085687
v 61.73400115966797 18.576873779296875 3.9834306544889886
v 60.88159942626953 18.36538314819336 4.068280965768285
v 60.92679977416992 18.07075309753418 3.4886608428587396
v 61.73400115966797 18.576873779296875 3.9834306544889886
v 62.864498138427734 22.474943161010742 4.311340600930639
v 62.13629913330078 21.45262336730957 4.591510564767309
v 62.349098205566406 21.123292922973633 4.432130605660864
v 62.897098541259766 21.123292922973633 4.0894906825651605
v 62.864498138427734 22.474943161010742 4.311340600930639
v 62.349098205566406 21.123292922973633 4.432130605660864
v 62.11909866333008 21.213623046875 4.102740556680151
v 62.349098205566406 21.123292922973633 4.432130605660864
v 62.13629913330078 21.45262336730957 4.591510564767309
vt 0.8947460055351257 0.29406797885894775
vt 0.8676069974899292 0.3232250213623047
vt 0.8748829960823059 0.18544602394104004
vt 0.5539489984512329 0.16821002960205078
vt 0.5766639709472656 0.29406797885894775
vt 0.5309759974479675 0.18544602394104004
vt 0.5204520225524902 0.29405200481414795
vt 0.5023689866065979 0.16225498914718628
vt 0.5309759974479675 0.18544602394104004
vt 0.1323930025100708 0.3232250213623047
vt 0.08430899679660797 0.29405200481414795
vt 0.1251170039176941 0.18544602394104004
vt 0.08430899679660797 0.29405200481414795
vt 0.1323930025100708 0.3232250213623047
vt 0.10247000306844711 0.569350004196167
vt 0.06669429689645767 0.555404007434845
vt 0.08430899679660797 0.29405200481414795
vt 0.10247000306844711 0.569350004196167
vt 0.4506950080394745 0.05435067415237427
vt 0.4795359969139099 0.06669431924819946
vt 0.45270198583602905 0.10246998071670532
vt 0.11421599984169006 0.16225498914718628
vt 0.1624629944562912 0.13076502084732056
vt 0.16226400434970856 0.17802000045776367
vt 0.46902400255203247 0.1251170039176941
vt 0.4976310133934021 0.11421597003936768
vt 0.4864659905433655 0.16226398944854736
vt 0.26169800758361816 0.14137500524520874
vt 0.2634960114955902 0.21085798740386963
vt 0.16226400434970856 0.17802000045776367
vt 0.1624629944562912 0.13076502084732056
vt 0.26169800758361816 0.14137500524520874
vt 0.16226400434970856 0.17802000045776367
vt 0.9299579858779907 0.555404007434845
vt 0.8975300192832947 0.569350004196167
vt 0.8676069974899292 0.3232250213623047
vt 0.8947460055351257 0.29406797885894775
vt 0.9299579858779907 0.555404007434845
vt 0.8676069974899292 0.3232250213623047
vt 0.5204520225524902 0.29405200481414795
vt 0.3883120119571686 0.29277199506759644
vt 0.4029189944267273 0.12960201501846313
vt 0.5023689866065979 0.16225498914718628
vt 0.5204520225524902 0.29405200481414795
vt 0.4029189944267273 0.12960201501846313
vt 0.5766639709472656 0.29406797885894775
vt 0.5539489984512329 0.16821002960205078
vt 0.6172299981117249 0.12519097328186035
vt 0.6387450098991394 0.29280298948287964
vt 0.5766639709472656 0.29406797885894775
vt 0.6172299981117249 0.12519097328186035
vt 0.5766639709472656 0.29406797885894775
vt 0.6387450098991394 0.29280298948287964
vt 0.6380680203437805 0.555404007434845
vt 0.5741320252418518 0.555404007434845
vt 0.5766639709472656 0.29406797885894775
vt 0.6380680203437805 0.555404007434845
vt 0.5204640030860901 0.555404007434845
vt 0.38896501064300537 0.555404007434845
vt 0.3883120119571686 0.29277199506759644
vt 0.5204520225524902 0.29405200481414795
vt 0.5204640030860901 0.555404007434845
vt 0.3883120119571686 0.29277199506759644
vt 0.4460510015487671 0.1187639832496643
vt 0.4648819863796234 0.18637800216674805
vt 0.3990330100059509 0.21294599771499634
vt 0.38277000188827515 0.15966099500656128
vt 0.4460510015487671 0.1187639832496643
vt 0.3990330100059509 0.21294599771499634
vt 0.3927690088748932 0.7640889883041382
vt 0.5493050217628479 0.606249988079071
vt 0.5175359845161438 0.7640889883041382
vt 0.5204640030860901 0.555404007434845
vt 0.5493050217628479 0.606249988079071
vt 0.3927690088748932 0.7640889883041382
vt 0.38896501064300537 0.555404007434845
vt 0.5204640030860901 0.555404007434845
vt 0.3927690088748932 0.7640889883041382
vt 0.5175359845161438 0.7640889883041382
vt 0.5493050217628479 0.606249988079071
vt 0.6342639923095703 0.7640889883041382
vt 0.4648819863796234 0.18637800216674805
vt 0.46081000566482544 0.26596903800964355
vt 0.3858729898929596 0.28269100189208984
vt 0.3990330100059509 0.21294599771499634
vt 0.4648819863796234 0.18637800216674805
vt 0.3858729898929596 0.28269100189208984
vt 0.4864659905433655 0.16226398944854736
vt 0.4648819863796234 0.18637800216674805
vt 0.4460510015487671 0.1187639832496643
vt 0.46902400255203247 0.1251170039176941
vt 0.4864659905433655 0.16226398944854736
vt 0.4460510015487671 0.1187639832496643
vt 0.736503005027771 0.21085798740386963
vt 0.7340310215950012 0.1434130072593689
vt 0.813621997833252 0.1330779790878296
vt 0.8377360105514526 0.17802000045776367
vt 0.736503005027771 0.21085798740386963
vt 0.813621997833252 0.1330779790878296
vt 0.5767109990119934 0.2493939995765686
vt 0.5129969716072083 0.26169800758361816
vt 0.5124359726905823 0.1624630093574524
vt 0.591808021068573 0.16292601823806763
vt 0.5767109990119934 0.2493939995765686
vt 0.5124359726905823 0.1624630093574524
vt 0.591808021068573 0.16292601823806763
vt 0.5124359726905823 0.1624630093574524
vt 0.4976310133934021 0.11421597003936768
vt 0.5970810055732727 0.10586297512054443
vt 0.591808021068573 0.16292601823806763
vt 0.4976310133934021 0.11421597003936768
vt 0.6342639923095703 0.7640889883041382
vt 0.5493050217628479 0.606249988079071
vt 0.5741320252418518 0.555404007434845
vt 0.6380680203437805 0.555404007434845
vt 0.6342639923095703 0.7640889883041382
vt 0.5741320252418518 0.555404007434845
vt 0.45270198583602905 0.10246998071670532
vt 0.4258680045604706 0.07004159688949585
vt 0.4506950080394745 0.05435067415237427
vn 0.18929989898700555 -0.19042547302596566 0.9632775755026931
vn -0.037940859741193225 -0.14347721697452445 0.9889260737645379
vn 0.3088913027396913 -0.30351743778166407 0.9013674767009457
vn -0.10724420970201978 -0.6872901996415498 0.7184224808300949
vn 0.18929989898700555 -0.19042547302596566 0.9632775755026931
vn 0.3088913027396913 -0.30351743778166407 0.9013674767009457
vn 0.5651271002933763 -0.23599675366773107 0.7905295015192619
vn 0.3858716337693429 -0.6921332209127333 0.6099628568701078
vn 0.3088913027396913 -0.30351743778166407 0.9013674767009457
vn -0.037940859741193225 -0.14347721697452445 0.9889260737645379
vn 0.5651271002933763 -0.23599675366773107 0.7905295015192619
vn 0.3088913027396913 -0.30351743778166407 0.9013674767009457
vn 0.5651271002933763 -0.23599675366773107 0.7905295015192619
vn -0.037940859741193225 -0.14347721697452445 0.9889260737645379
vn 0.5794191758454943 -0.2551875921278812 0.7740495536375578
vn 0.44042181491229077 -0.1487321092455637 0.8853854441025839
vn 0.5651271002933763 -0.23599675366773107 0.7905295015192619
vn 0.5794191758454943 -0.2551875921278812 0.7740495536375578
vn 0.32114972972947725 -0.1537337270067507 0.9344671167437073
vn 0.44042181491229077 -0.1487321092455637 0.8853854441025839
vn 0.5794191758454943 -0.2551875921278812 0.7740495536375578
vn 0.3858716337693429 -0.6921332209127333 0.6099628568701078
vn 0.5192571164376415 -0.8546180530870586 0.00017426001035830433
vn 0.37084695758009584 -0.9286769047798769 0.005633878065253974
vn 0.3088913027396913 -0.30351743778166407 0.9013674767009457
vn 0.3858716337693429 -0.6921332209127333 0.6099628568701078
vn 0.37084695758009584 -0.9286769047798769 0.005633878065253974
vn 0.7016303960041913 -0.7088017882658322 -0.0729027595784961
vn -0.3745601651396364 -0.909921795327183 -0.17817690388803012
vn 0.37084695758009584 -0.9286769047798769 0.005633878065253974
vn 0.5192571164376415 -0.8546180530870586 0.00017426001035830433
vn 0.7016303960041913 -0.7088017882658322 -0.0729027595784961
vn 0.37084695758009584 -0.9286769047798769 0.005633878065253974
vn 0.029212947822172607 -0.20676882656995899 0.9779536062812086
vn 0.5794191758454943 -0.2551875921278812 0.7740495536375578
vn -0.037940859741193225 -0.14347721697452445 0.9889260737645379
vn 0.18929989898700555 -0.19042547302596566 0.9632775755026931
vn 0.029212947822172607 -0.20676882656995899 0.9779536062812086
vn -0.037940859741193225 -0.14347721697452445 0.9889260737645379
vn 0.5651271002933763 -0.23599675366773107 0.7905295015192619
vn 0.3978132614509359 -0.2095770393560216 0.893208863362055
vn 0.29450469867779455 -0.5475624736263803 0.7832255868731951
vn 0.3858716337693429 -0.6921332209127333 0.6099628568701078
vn 0.5651271002933763 -0.23599675366773107 0.7905295015192619
vn 0.29450469867779455 -0.5475624736263803 0.7832255868731951
vn 0.18929989898700555 -0.19042547302596566 0.9632775755026931
vn -0.10724420970201978 -0.6872901996415498 0.7184224808300949
vn 0.3588068447691357 -0.4437520755558237 0.8211831364480859
vn 0.41403458153741574 -0.2071147592515317 0.8863852671334949
vn 0.18929989898700555 -0.19042547302596566 0.9632775755026931
vn 0.3588068447691357 -0.4437520755558237 0.8211831364480859
vn 0.18929989898700555 -0.19042547302596566 0.9632775755026931
vn 0.41403458153741574 -0.2071147592515317 0.8863852671334949
vn 0.48989909456685826 -0.1465376900666654 0.8593751116552646
vn 0.029212947822172607 -0.20676882656995899 0.9779536062812086
vn 0.18929989898700555 -0.19042547302596566 0.9632775755026931
vn 0.48989909456685826 -0.1465376900666654 0.8593751116552646
vn 0.44042181491229077 -0.1487321092455637 0.8853854441025839
vn 0.415340636509108 -0.11154759735647389 0.9028008026072014
vn 0.3978132614509359 -0.2095770393560216 0.893208863362055
vn 0.5651271002933763 -0.23599675366773107 0.7905295015192619
vn 0.44042181491229077 -0.1487321092455637 0.8853854441025839
vn 0.3978132614509359 -0.2095770393560216 0.893208863362055
vn -0.10724420970201978 -0.6872901996415498 0.7184224808300949
vn -0.6859636757241857 -0.7274063671245524 0.01827054059476835
vn -0.4268251855677089 -0.8697283649370374 0.24777576997971043
vn 0.3588068447691357 -0.4437520755558237 0.8211831364480859
vn -0.10724420970201978 -0.6872901996415498 0.7184224808300949
vn -0.4268251855677089 -0.8697283649370374 0.24777576997971043
vn 0.3415287786725354 -0.13252658193743003 0.9304809500567048
vn 0.32114972972947725 -0.1537337270067507 0.9344671167437073
vn 0.3710506532255802 0.012974495908032763 0.928521984229131
vn 0.44042181491229077 -0.1487321092455637 0.8853854441025839
vn 0.32114972972947725 -0.1537337270067507 0.9344671167437073
vn 0.3415287786725354 -0.13252658193743003 0.9304809500567048
vn 0.415340636509108 -0.11154759735647389 0.9028008026072014
vn 0.44042181491229077 -0.1487321092455637 0.8853854441025839
vn 0.3415287786725354 -0.13252658193743003 0.9304809500567048
vn 0.3710506532255802 0.012974495908032763 0.928521984229131
vn 0.32114972972947725 -0.1537337270067507 0.9344671167437073
vn 0.443374328234811 -0.06416349004001297 0.8940370527043134
vn -0.6859636757241857 -0.7274063671245524 0.01827054059476835
vn -0.6959153418617418 -0.7125822906686635 -0.08904109156370171
vn -0.5898583712604055 -0.7926912346319961 -0.153973076840153
vn -0.4268251855677089 -0.8697283649370374 0.24777576997971043
vn -0.6859636757241857 -0.7274063671245524 0.01827054059476835
vn -0.5898583712604055 -0.7926912346319961 -0.153973076840153
vn 0.37084695758009584 -0.9286769047798769 0.005633878065253974
vn -0.6859636757241857 -0.7274063671245524 0.01827054059476835
vn -0.10724420970201978 -0.6872901996415498 0.7184224808300949
vn 0.3088913027396913 -0.30351743778166407 0.9013674767009457
vn 0.37084695758009584 -0.9286769047798769 0.005633878065253974
vn -0.10724420970201978 -0.6872901996415498 0.7184224808300949
vn -0.3745601651396364 -0.909921795327183 -0.17817690388803012
vn -0.6959153418617418 -0.7125822906686635 -0.08904109156370171
vn -0.6859636757241857 -0.7274063671245524 0.01827054059476835
vn 0.37084695758009584 -0.9286769047798769 0.005633878065253974
vn -0.3745601651396364 -0.909921795327183 -0.17817690388803012
vn -0.6859636757241857 -0.7274063671245524 0.01827054059476835
vn 0.3962850908775194 -0.9153348896080971 -0.07155533952353771
vn 0.7016303960041913 -0.7088017882658322 -0.0729027595784961
vn 0.5192571164376415 -0.8546180530870586 0.00017426001035830433
vn 0.3596887219244009 -0.9116420565305509 0.19882852935416162
vn 0.3962850908775194 -0.9153348896080971 -0.07155533952353771
vn 0.5192571164376415 -0.8546180530870586 0.00017426001035830433
vn 0.3596887219244009 -0.9116420565305509 0.19882852935416162
vn 0.5192571164376415 -0.8546180530870586 0.00017426001035830433
vn 0.3858716337693429 -0.6921332209127333 0.6099628568701078
vn 0.29450469867779455 -0.5475624736263803 0.7832255868731951
vn 0.3596887219244009 -0.9116420565305509 0.19882852935416162
vn 0.3858716337693429 -0.6921332209127333 0.6099628568701078
vn 0.443374328234811 -0.06416349004001297 0.8940370527043134
vn 0.32114972972947725 -0.1537337270067507 0.9344671167437073
vn 0.029212947822172607 -0.20676882656995899 0.9779536062812086
vn 0.48989909456685826 -0.1465376900666654 0.8593751116552646
vn 0.443374328234811 -0.06416349004001297 0.8940370527043134
vn 0.029212947822172607 -0.20676882656995899 0.9779536062812086
vn 0.5794191758454943 -0.2551875921278812 0.7740495536375578
vn 0.029212947822172607 -0.20676882656995899 0.9779536062812086
vn 0.32114972972947725 -0.1537337270067507 0.9344671167437073
f 1/1/1 2/2/2 3/3/3
f 4/4/4 5/5/5 6/6/6
f 7/7/7 8/8/8 9/9/9
f 10/10/10 11/11/11 12/12/12
f 13/13/13 14/14/14 15/15/15
f 16/16/16 17/17/17 18/18/18
f 19/19/19 20/20/20 21/21/21
f 22/22/22 23/23/23 24/24/24
f 25/25/25 26/26/26 27/27/27
f 28/28/28 29/29/29 30/30/30
f 31/31/31 32/32/32 33/33/33
f 34/34/34 35/35/35 36/36/36
f 37/37/37 38/38/38 39/39/39
f 40/40/40 41/41/41 42/42/42
f 43/43/43 44/44/44 45/45/45
f 46/46/46 47/47/47 48/48/48
f 49/49/49 50/50/50 51/51/51
f 52/52/52 53/53/53 54/54/54
f 55/55/55 56/56/56 57/57/57
f 58/58/58 59/59/59 60/60/60
f 61/61/61 62/62/62 63/63/63
f 64/64/64 65/65/65 66/66/66
f 67/67/67 68/68/68 69/69/69
f 70/70/70 71/71/71 72/72/72
f 73/73/73 74/74/74 75/75/75
f 76/76/76 77/77/77 78/78/78
f 79/79/79 80/80/80 81/81/81
f 82/82/82 83/83/83 84/84/84
f 85/85/85 86/86/86 87/87/87
f 88/88/88 89/89/89 90/90/90
f 91/91/91 92/92/92 93/93/93
f 94/94/94 95/95/95 96/96/96
f 97/97/97 98/98/98 99/99/99
f 100/100/100 101/101/101 102/102/102
f 103/103/103 104/104/104 105/105/105
f 106/106/106 107/107/107 108/108/108
f 109/109/109 110/110/110 111/111/111
f 112/112/112 113/113/113 114/114/114
f 115/115/115 116/116/116 117/117/117
f 118/118/118 119/119/119 120/120/120
