mtllib ArcadaCompleta.mtl
o D31C_I
usemtl I
v 3.978879928588867 -15.758792877197266 0.861257388725388
v 3.593869924545288 -14.334632873535156 -0.017654780760895848
v 2.74891996383667 -14.334632873535156 -0.017654780760895848
v 2.749000072479248 -15.758832931518555 0.9391884352112889
v 3.978879928588867 -15.758792877197266 0.861257388725388
v 2.74891996383667 -14.334632873535156 -0.017654780760895848
v 3.593869924545288 -14.314302444458008 -0.49326558457363806
v 2.74891996383667 -14.314302444458008 -0.49326558457363806
v 2.74891996383667 -14.334632873535156 -0.017654780760895848
v 3.593869924545288 -14.334632873535156 -0.017654780760895848
v 3.593869924545288 -14.314302444458008 -0.49326558457363806
v 2.74891996383667 -14.334632873535156 -0.017654780760895848
v 1.8751200437545776 -15.767023086547852 -0.790408596858871
v 1.9040000438690186 -14.73972225189209 -0.8501955722426293
v 2.7489500045776367 -14.73972225189209 -0.8501955722426293
v 2.7490100860595703 -15.766983032226562 -0.7959115956877589
v 1.8751200437545776 -15.767023086547852 -0.790408596858871
v 2.7489500045776367 -14.73972225189209 -0.8501955722426293
v 1.9039700031280518 -14.314302444458008 -0.49326558457363806
v 2.74891996383667 -14.314302444458008 -0.49326558457363806
v 2.7489500045776367 -14.73972225189209 -0.8501955722426293
v 1.9040000438690186 -14.73972225189209 -0.8501955722426293
v 1.9039700031280518 -14.314302444458008 -0.49326558457363806
v 2.7489500045776367 -14.73972225189209 -0.8501955722426293
v 4.383510112762451 -14.73972225189209 -0.8501955722426293
v 4.419549942016602 -14.314302444458008 -0.49326558457363806
v 5.262340068817139 -14.314302444458008 -0.49326558457363806
v 5.173130035400391 -14.73972225189209 -0.8501955722426293
v 4.383510112762451 -14.73972225189209 -0.8501955722426293
v 5.262340068817139 -14.314302444458008 -0.49326558457363806
v 1.114359974861145 -14.334632873535156 -0.017654780760895848
v 1.0782999992370605 -14.314302444458008 -0.49326558457363806
v 0.23550699651241302 -14.314302444458008 -0.49326558457363806
v 0.324741005897522 -14.334632873535156 -0.017654780760895848
v 1.114359974861145 -14.334632873535156 -0.017654780760895848
v 0.23550699651241302 -14.314302444458008 -0.49326558457363806
v 4.419549942016602 -14.314302444458008 -0.49326558457363806
v 4.383490085601807 -14.334632873535156 -0.017654780760895848
v 5.173099994659424 -14.334632873535156 -0.017654780760895848
v 5.262340068817139 -14.314302444458008 -0.49326558457363806
v 4.419549942016602 -14.314302444458008 -0.49326558457363806
v 5.173099994659424 -14.334632873535156 -0.017654780760895848
v 4.383490085601807 -14.334632873535156 -0.017654780760895848
v 3.978879928588867 -15.758792877197266 0.861257388725388
v 5.173099994659424 -14.334632873535156 -0.017654780760895848
v 1.0782999992370605 -14.314302444458008 -0.49326558457363806
v 1.1143800020217896 -14.73972225189209 -0.8501955722426293
v 0.324768990278244 -14.73972225189209 -0.8501955722426293
v 0.23550699651241302 -14.314302444458008 -0.49326558457363806
v 1.0782999992370605 -14.314302444458008 -0.49326558457363806
v 0.324768990278244 -14.73972225189209 -0.8501955722426293
v 1.1143800020217896 -14.73972225189209 -0.8501955722426293
v 1.1081700325012207 -15.76705265045166 -0.8628035639380336
v 0.324768990278244 -14.73972225189209 -0.8501955722426293
v 2.74891996383667 -14.314302444458008 -0.49326558457363806
v 1.9039700031280518 -14.314302444458008 -0.49326558457363806
v 1.9039700031280518 -14.334632873535156 -0.017654780760895848
v 2.74891996383667 -14.334632873535156 -0.017654780760895848
v 2.74891996383667 -14.314302444458008 -0.49326558457363806
v 1.9039700031280518 -14.334632873535156 -0.017654780760895848
v 1.0782999992370605 -14.314302444458008 -0.49326558457363806
v 1.114359974861145 -14.334632873535156 -0.017654780760895848
v 1.9039700031280518 -14.334632873535156 -0.017654780760895848
v 1.9039700031280518 -14.314302444458008 -0.49326558457363806
v 1.0782999992370605 -14.314302444458008 -0.49326558457363806
v 1.9039700031280518 -14.334632873535156 -0.017654780760895848
v 1.114359974861145 -14.334632873535156 -0.017654780760895848
v 1.5191099643707275 -15.758862495422363 0.861257388725388
v 1.9039700031280518 -14.334632873535156 -0.017654780760895848
v 2.74891996383667 -14.314302444458008 -0.49326558457363806
v 3.593869924545288 -14.314302444458008 -0.49326558457363806
v 3.593899965286255 -14.73972225189209 -0.8501955722426293
v 2.7489500045776367 -14.73972225189209 -0.8501955722426293
v 2.74891996383667 -14.314302444458008 -0.49326558457363806
v 3.593899965286255 -14.73972225189209 -0.8501955722426293
v 4.419549942016602 -14.314302444458008 -0.49326558457363806
v 4.383510112762451 -14.73972225189209 -0.8501955722426293
v 3.593899965286255 -14.73972225189209 -0.8501955722426293
v 3.593869924545288 -14.314302444458008 -0.49326558457363806
v 4.419549942016602 -14.314302444458008 -0.49326558457363806
v 3.593899965286255 -14.73972225189209 -0.8501955722426293
v 4.38985013961792 -15.766912460327148 -0.8628035639380336
v 3.6229000091552734 -15.766942977905273 -0.790408596858871
v 3.593899965286255 -14.73972225189209 -0.8501955722426293
v 4.383510112762451 -14.73972225189209 -0.8501955722426293
v 4.38985013961792 -15.766912460327148 -0.8628035639380336
v 3.593899965286255 -14.73972225189209 -0.8501955722426293
v 4.383490085601807 -14.334632873535156 -0.017654780760895848
v 4.419549942016602 -14.314302444458008 -0.49326558457363806
v 3.593869924545288 -14.314302444458008 -0.49326558457363806
v 3.593869924545288 -14.334632873535156 -0.017654780760895848
v 4.383490085601807 -14.334632873535156 -0.017654780760895848
v 3.593869924545288 -14.314302444458008 -0.49326558457363806
v 1.1143800020217896 -14.73972225189209 -0.8501955722426293
v 1.0782999992370605 -14.314302444458008 -0.49326558457363806
v 1.9039700031280518 -14.314302444458008 -0.49326558457363806
v 1.9040000438690186 -14.73972225189209 -0.8501955722426293
v 1.1143800020217896 -14.73972225189209 -0.8501955722426293
v 1.9039700031280518 -14.314302444458008 -0.49326558457363806
v 5.173130035400391 -14.73972225189209 -0.8501955722426293
v 4.38985013961792 -15.766912460327148 -0.8628035639380336
v 4.383510112762451 -14.73972225189209 -0.8501955722426293
v 3.593869924545288 -14.334632873535156 -0.017654780760895848
v 3.978879928588867 -15.758792877197266 0.861257388725388
v 4.383490085601807 -14.334632873535156 -0.017654780760895848
v 1.8751200437545776 -15.767023086547852 -0.790408596858871
v 1.1081700325012207 -15.76705265045166 -0.8628035639380336
v 1.1143800020217896 -14.73972225189209 -0.8501955722426293
v 1.9040000438690186 -14.73972225189209 -0.8501955722426293
v 1.8751200437545776 -15.767023086547852 -0.790408596858871
v 1.1143800020217896 -14.73972225189209 -0.8501955722426293
v 0.324741005897522 -14.334632873535156 -0.017654780760895848
v 1.5191099643707275 -15.758862495422363 0.861257388725388
v 1.114359974861145 -14.334632873535156 -0.017654780760895848
v 1.9039700031280518 -14.334632873535156 -0.017654780760895848
v 1.5191099643707275 -15.758862495422363 0.861257388725388
v 2.749000072479248 -15.758832931518555 0.9391884352112889
v 2.74891996383667 -14.334632873535156 -0.017654780760895848
v 1.9039700031280518 -14.334632873535156 -0.017654780760895848
v 2.749000072479248 -15.758832931518555 0.9391884352112889
v 3.593899965286255 -14.73972225189209 -0.8501955722426293
v 3.6229000091552734 -15.766942977905273 -0.790408596858871
v 2.7490100860595703 -15.766983032226562 -0.7959115956877589
v 2.7489500045776367 -14.73972225189209 -0.8501955722426293
v 3.593899965286255 -14.73972225189209 -0.8501955722426293
v 2.7490100860595703 -15.766983032226562 -0.7959115956877589
vt 0.2555670142173767 0.8470190167427063
vt 0.33208000659942627 0.9973539710044861
vt 0.5000010132789612 0.9973539710044861
vt 0.4999859929084778 0.8470150232315063
vt 0.2555670142173767 0.8470190167427063
vt 0.5000010132789612 0.9973539710044861
vt 0.33208000659942627 0.5813770294189453
vt 0.5000010132789612 0.5813770294189453
vt 0.5000010132789612 0.5026609897613525
vt 0.33208000659942627 0.5026609897613525
vt 0.33208000659942627 0.5813770294189453
vt 0.5000010132789612 0.5026609897613525
vt 0.3263449966907501 0.8461509943008423
vt 0.3320850133895874 0.9545930027961731
vt 0.5000039935112 0.9545930027961731
vt 0.500016987323761 0.846153974533081
vt 0.3263449966907501 0.8461509943008423
vt 0.5000039935112 0.9545930027961731
vt 0.33208000659942627 0.9994999766349792
vt 0.4999989867210388 0.9994999766349792
vt 0.5000039935112 0.9545930027961731
vt 0.3320850133895874 0.9545930027961731
vt 0.33208000659942627 0.9994999766349792
vt 0.5000039935112 0.9545930027961731
vt 0.8248479962348938 0.9545930027961731
vt 0.8320080041885376 0.9994999766349792
vt 0.9994999766349792 0.9994999766349792
vt 0.9817709922790527 0.9545930027961731
vt 0.8248479962348938 0.9545930027961731
vt 0.9994999766349792 0.9994999766349792
vt 0.8248440027236938 0.5026609897613525
vt 0.8320090174674988 0.5813770294189453
vt 0.9994999766349792 0.5813770294189453
vt 0.9817659854888916 0.5026609897613525
vt 0.8248440027236938 0.5026609897613525
vt 0.9994999766349792 0.5813770294189453
vt 0.1679919958114624 0.5813770294189453
vt 0.17515699565410614 0.5026609897613525
vt 0.01823429949581623 0.5026609897613525
vt 0.0004997850046493113 0.5813770294189453
vt 0.1679919958114624 0.5813770294189453
vt 0.01823429949581623 0.5026609897613525
vt 0.17515699565410614 0.9973539710044861
vt 0.2555670142173767 0.8470190167427063
vt 0.01823429949581623 0.9973539710044861
vt 0.16799099743366241 0.9994999766349792
vt 0.17516200244426727 0.9545930027961731
vt 0.01823900081217289 0.9545930027961731
vt 0.0004996960051357746 0.9994999766349792
vt 0.16799099743366241 0.9994999766349792
vt 0.01823900081217289 0.9545930027961731
vt 0.17516200244426727 0.9545930027961731
vt 0.17392699420452118 0.8461470007896423
vt 0.01823900081217289 0.9545930027961731
vt 0.5000010132789612 0.5813770294189453
vt 0.6679199934005737 0.5813770294189453
vt 0.6679210066795349 0.5026609897613525
vt 0.5000010132789612 0.5026609897613525
vt 0.5000010132789612 0.5813770294189453
vt 0.6679210066795349 0.5026609897613525
vt 0.8320090174674988 0.5813770294189453
vt 0.8248440027236938 0.5026609897613525
vt 0.6679210066795349 0.5026609897613525
vt 0.6679199934005737 0.5813770294189453
vt 0.8320090174674988 0.5813770294189453
vt 0.6679210066795349 0.5026609897613525
vt 0.8248440027236938 0.9973539710044861
vt 0.7444049715995789 0.8470110297203064
vt 0.6679210066795349 0.9973539710044861
vt 0.4999989867210388 0.9994999766349792
vt 0.6679199934005737 0.9994999766349792
vt 0.6679250001907349 0.9545930027961731
vt 0.5000039935112 0.9545930027961731
vt 0.4999989867210388 0.9994999766349792
vt 0.6679250001907349 0.9545930027961731
vt 0.8320080041885376 0.9994999766349792
vt 0.8248479962348938 0.9545930027961731
vt 0.6679250001907349 0.9545930027961731
vt 0.6679199934005737 0.9994999766349792
vt 0.8320080041885376 0.9994999766349792
vt 0.6679250001907349 0.9545930027961731
vt 0.8261079788208008 0.8461620211601257
vt 0.6736890077590942 0.8461580276489258
vt 0.6679250001907349 0.9545930027961731
vt 0.8248479962348938 0.9545930027961731
vt 0.8261079788208008 0.8461620211601257
vt 0.6679250001907349 0.9545930027961731
vt 0.17515699565410614 0.5026609897613525
vt 0.1679919958114624 0.5813770294189453
vt 0.33208000659942627 0.5813770294189453
vt 0.33208000659942627 0.5026609897613525
vt 0.17515699565410614 0.5026609897613525
vt 0.33208000659942627 0.5813770294189453
vt 0.17516200244426727 0.9545930027961731
vt 0.16799099743366241 0.9994999766349792
vt 0.33208000659942627 0.9994999766349792
vt 0.3320850133895874 0.9545930027961731
vt 0.17516200244426727 0.9545930027961731
vt 0.33208000659942627 0.9994999766349792
vt 0.9817709922790527 0.9545930027961731
vt 0.8261079788208008 0.8461620211601257
vt 0.8248479962348938 0.9545930027961731
vt 0.33208000659942627 0.9973539710044861
vt 0.2555670142173767 0.8470190167427063
vt 0.17515699565410614 0.9973539710044861
vt 0.3263449966907501 0.8461509943008423
vt 0.17392699420452118 0.8461470007896423
vt 0.17516200244426727 0.9545930027961731
vt 0.3320850133895874 0.9545930027961731
vt 0.3263449966907501 0.8461509943008423
vt 0.17516200244426727 0.9545930027961731
vt 0.9817659854888916 0.9973539710044861
vt 0.7444049715995789 0.8470110297203064
vt 0.8248440027236938 0.9973539710044861
vt 0.6679210066795349 0.9973539710044861
vt 0.7444049715995789 0.8470110297203064
vt 0.4999859929084778 0.8470150232315063
vt 0.5000010132789612 0.9973539710044861
vt 0.6679210066795349 0.9973539710044861
vt 0.4999859929084778 0.8470150232315063
vt 0.6679250001907349 0.9545930027961731
vt 0.6736890077590942 0.8461580276489258
vt 0.500016987323761 0.846153974533081
vt 0.5000039935112 0.9545930027961731
vt 0.6679250001907349 0.9545930027961731
vt 0.500016987323761 0.846153974533081
vn 0.01799075700317235 0.5363041865884238 0.8438330119817439
vn 0 0.6840252994717517 0.7294582850873519
vn 0.01925357034096679 0.6825939925903522 0.7305441405614637
vn -0.000011827073254816101 0.5495915229577034 0.8354335148610885
vn 0.01799075700317235 0.5363041865884238 0.8438330119817439
vn 0.01925357034096679 0.6825939925903522 0.7305441405614637
vn 0 0.9586694494989683 -0.2845222075644456
vn 0 0.899205540254252 -0.4375264522015313
vn 0.01925357034096679 0.6825939925903522 0.7305441405614637
vn 0 0.6840252994717517 0.7294582850873519
vn 0 0.9586694494989683 -0.2845222075644456
vn 0.01925357034096679 0.6825939925903522 0.7305441405614637
vn 0.02040288725964228 -0.04036036764791371 -0.9989768580476706
vn 0 0.2003933768979986 -0.9797155171249543
vn -0.0014912686533846958 0.20081395133759813 -0.9796282626925298
vn 0.0000016312643730835346 -0.05450874631405836 -0.998513293137657
vn 0.02040288725964228 -0.04036036764791371 -0.9989768580476706
vn -0.0014912686533846958 0.20081395133759813 -0.9796282626925298
vn 0 0.8211562024129547 -0.5707035055427069
vn 0 0.899205540254252 -0.4375264522015313
vn -0.0014912686533846958 0.20081395133759813 -0.9796282626925298
vn 0 0.2003933768979986 -0.9797155171249543
vn 0 0.8211562024129547 -0.5707035055427069
vn -0.0014912686533846958 0.20081395133759813 -0.9796282626925298
vn 0 0.3162988436684373 -0.9486596025414015
vn 0 0.8992055171191545 -0.43752649974884256
vn 0 0.8235836487504267 -0.5671948285297863
vn 0 0.24654312296954692 -0.9691318220533379
vn 0 0.3162988436684373 -0.9486596025414015
vn 0 0.8235836487504267 -0.5671948285297863
vn 0 0.7414803919922626 0.670974536246347
vn 0 0.8992054936691221 -0.43752654794340234
vn 0 0.957288991424624 -0.28913281878269426
vn 0 0.6840077365108087 0.7294747537738095
vn 0 0.7414803919922626 0.670974536246347
vn 0 0.957288991424624 -0.28913281878269426
vn 0 0.8992055171191545 -0.43752649974884256
vn 0 0.7404744259417149 0.6720845367409427
vn 0 0.7856908500961096 0.618619340204663
vn 0 0.8235836487504267 -0.5671948285297863
vn 0 0.8992055171191545 -0.43752649974884256
vn 0 0.7856908500961096 0.618619340204663
vn 0 0.7404744259417149 0.6720845367409427
vn 0.01799075700317235 0.5363041865884238 0.8438330119817439
vn 0 0.7856908500961096 0.618619340204663
vn 0 0.8992054936691221 -0.43752654794340234
vn 0.02105018669341598 0.23501719384386238 -0.9717632470092337
vn 0 0.366243665963146 -0.9305189826875514
vn 0 0.957288991424624 -0.28913281878269426
vn 0 0.8992054936691221 -0.43752654794340234
vn 0 0.366243665963146 -0.9305189826875514
vn 0.02105018669341598 0.23501719384386238 -0.9717632470092337
vn 0.04645577811628449 0.011977631552719099 -0.9988485355758387
vn 0 0.366243665963146 -0.9305189826875514
vn 0 0.899205540254252 -0.4375264522015313
vn 0 0.8211562024129547 -0.5707035055427069
vn -0.018839312422079025 0.7102510221754521 0.7036963590968685
vn 0.01925357034096679 0.6825939925903522 0.7305441405614637
vn 0 0.899205540254252 -0.4375264522015313
vn -0.018839312422079025 0.7102510221754521 0.7036963590968685
vn 0 0.8992054936691221 -0.43752654794340234
vn 0 0.7414803919922626 0.670974536246347
vn -0.018839312422079025 0.7102510221754521 0.7036963590968685
vn 0 0.8211562024129547 -0.5707035055427069
vn 0 0.8992054936691221 -0.43752654794340234
vn -0.018839312422079025 0.7102510221754521 0.7036963590968685
vn 0 0.7414803919922626 0.670974536246347
vn -0.023528471153928546 0.5296158692635737 0.8479112229882017
vn -0.018839312422079025 0.7102510221754521 0.7036963590968685
vn 0 0.899205540254252 -0.4375264522015313
vn 0 0.9586694494989683 -0.2845222075644456
vn -0.014068113048605916 0.2137120879842491 -0.9767953888326174
vn -0.0014912686533846958 0.20081395133759813 -0.9796282626925298
vn 0 0.899205540254252 -0.4375264522015313
vn -0.014068113048605916 0.2137120879842491 -0.9767953888326174
vn 0 0.8992055171191545 -0.43752649974884256
vn 0 0.3162988436684373 -0.9486596025414015
vn -0.014068113048605916 0.2137120879842491 -0.9767953888326174
vn 0 0.9586694494989683 -0.2845222075644456
vn 0 0.8992055171191545 -0.43752649974884256
vn -0.014068113048605916 0.2137120879842491 -0.9767953888326174
vn -0.030839612273493657 -0.011629442520692477 -0.9994566895976426
vn -0.040659088778561996 -0.05920023491087243 -0.9974177513390239
vn -0.014068113048605916 0.2137120879842491 -0.9767953888326174
vn 0 0.3162988436684373 -0.9486596025414015
vn -0.030839612273493657 -0.011629442520692477 -0.9994566895976426
vn -0.014068113048605916 0.2137120879842491 -0.9767953888326174
vn 0 0.7404744259417149 0.6720845367409427
vn 0 0.8992055171191545 -0.43752649974884256
vn 0 0.9586694494989683 -0.2845222075644456
vn 0 0.6840252994717517 0.7294582850873519
vn 0 0.7404744259417149 0.6720845367409427
vn 0 0.9586694494989683 -0.2845222075644456
vn 0.02105018669341598 0.23501719384386238 -0.9717632470092337
vn 0 0.8992054936691221 -0.43752654794340234
vn 0 0.8211562024129547 -0.5707035055427069
vn 0 0.2003933768979986 -0.9797155171249543
vn 0.02105018669341598 0.23501719384386238 -0.9717632470092337
vn 0 0.8211562024129547 -0.5707035055427069
vn 0 0.24654312296954692 -0.9691318220533379
vn -0.030839612273493657 -0.011629442520692477 -0.9994566895976426
vn 0 0.3162988436684373 -0.9486596025414015
vn 0 0.6840252994717517 0.7294582850873519
vn 0.01799075700317235 0.5363041865884238 0.8438330119817439
vn 0 0.7404744259417149 0.6720845367409427
vn 0.02040288725964228 -0.04036036764791371 -0.9989768580476706
vn 0.04645577811628449 0.011977631552719099 -0.9988485355758387
vn 0.02105018669341598 0.23501719384386238 -0.9717632470092337
vn 0 0.2003933768979986 -0.9797155171249543
vn 0.02040288725964228 -0.04036036764791371 -0.9989768580476706
vn 0.02105018669341598 0.23501719384386238 -0.9717632470092337
vn 0 0.6840077365108087 0.7294747537738095
vn -0.023528471153928546 0.5296158692635737 0.8479112229882017
vn 0 0.7414803919922626 0.670974536246347
vn -0.018839312422079025 0.7102510221754521 0.7036963590968685
vn -0.023528471153928546 0.5296158692635737 0.8479112229882017
vn -0.000011827073254816101 0.5495915229577034 0.8354335148610885
vn 0.01925357034096679 0.6825939925903522 0.7305441405614637
vn -0.018839312422079025 0.7102510221754521 0.7036963590968685
vn -0.000011827073254816101 0.5495915229577034 0.8354335148610885
vn -0.014068113048605916 0.2137120879842491 -0.9767953888326174
vn -0.040659088778561996 -0.05920023491087243 -0.9974177513390239
vn 0.0000016312643730835346 -0.05450874631405836 -0.998513293137657
vn -0.0014912686533846958 0.20081395133759813 -0.9796282626925298
vn -0.014068113048605916 0.2137120879842491 -0.9767953888326174
vn 0.0000016312643730835346 -0.05450874631405836 -0.998513293137657
f 1/1/1 2/2/2 3/3/3
f 4/4/4 5/5/5 6/6/6
f 7/7/7 8/8/8 9/9/9
f 10/10/10 11/11/11 12/12/12
f 13/13/13 14/14/14 15/15/15
f 16/16/16 17/17/17 18/18/18
f 19/19/19 20/20/20 21/21/21
f 22/22/22 23/23/23 24/24/24
f 25/25/25 26/26/26 27/27/27
f 28/28/28 29/29/29 30/30/30
f 31/31/31 32/32/32 33/33/33
f 34/34/34 35/35/35 36/36/36
f 37/37/37 38/38/38 39/39/39
f 40/40/40 41/41/41 42/42/42
f 43/43/43 44/44/44 45/45/45
f 46/46/46 47/47/47 48/48/48
f 49/49/49 50/50/50 51/51/51
f 52/52/52 53/53/53 54/54/54
f 55/55/55 56/56/56 57/57/57
f 58/58/58 59/59/59 60/60/60
f 61/61/61 62/62/62 63/63/63
f 64/64/64 65/65/65 66/66/66
f 67/67/67 68/68/68 69/69/69
f 70/70/70 71/71/71 72/72/72
f 73/73/73 74/74/74 75/75/75
f 76/76/76 77/77/77 78/78/78
f 79/79/79 80/80/80 81/81/81
f 82/82/82 83/83/83 84/84/84
f 85/85/85 86/86/86 87/87/87
f 88/88/88 89/89/89 90/90/90
f 91/91/91 92/92/92 93/93/93
f 94/94/94 95/95/95 96/96/96
f 97/97/97 98/98/98 99/99/99
f 100/100/100 101/101/101 102/102/102
f 103/103/103 104/104/104 105/105/105
f 106/106/106 107/107/107 108/108/108
f 109/109/109 110/110/110 111/111/111
f 112/112/112 113/113/113 114/114/114
f 115/115/115 116/116/116 117/117/117
f 118/118/118 119/119/119 120/120/120
f 121/121/121 122/122/122 123/123/123
f 124/124/124 125/125/125 126/126/126
