mtllib ArcadaCompleta.mtl
o D31C_CL
usemtl Enamel2
v 3.5678799152374268 -21.79108238220215 -2.843800649509324
v 3.4438400268554688 -23.74793243408203 -2.4376405333136457
v 2.7494699954986572 -23.778032302856445 -2.6551405047034162
v 2.7493700981140137 -21.791162490844727 -3.0196205233191384
v 3.5678799152374268 -21.79108238220215 -2.843800649509324
v 2.7494699954986572 -23.778032302856445 -2.6551405047034162
v 3.5678799152374268 -21.79108238220215 -2.843800649509324
v 2.7493700981140137 -21.791162490844727 -3.0196205233191384
v 2.749300003051758 -20.549732208251953 -2.594450578555955
v 3.7235400676727295 -20.549652099609375 -2.3389304731940164
v 3.5678799152374268 -21.79108238220215 -2.843800649509324
v 2.749300003051758 -20.549732208251953 -2.594450578555955
v 3.5678799152374268 -21.79108238220215 -2.843800649509324
v 4.052919864654541 -21.90514373779297 -2.359700546131028
v 3.4438400268554688 -23.74793243408203 -2.4376405333136457
v 1.463539958000183 -23.026962280273438 -1.8592306231116191
v 1.3886499404907227 -21.905412673950195 -2.46261058794011
v 2.055079936981201 -23.748132705688477 -2.4376405333136457
v 2.7493700981140137 -21.791162490844727 -3.0196205233191384
v 1.9308600425720215 -21.791242599487305 -2.843800649509324
v 1.7750600576400757 -20.549823760986328 -2.3389304731940164
v 2.749300003051758 -20.549732208251953 -2.594450578555955
v 2.7493700981140137 -21.791162490844727 -3.0196205233191384
v 1.7750600576400757 -20.549823760986328 -2.3389304731940164
v 4.052919864654541 -21.90514373779297 -2.359700546131028
v 3.5678799152374268 -21.79108238220215 -2.843800649509324
v 3.7235400676727295 -20.549652099609375 -2.3389304731940164
v 4.2987799644470215 -20.549592971801758 -1.8019206379507908
v 4.052919864654541 -21.90514373779297 -2.359700546131028
v 3.7235400676727295 -20.549652099609375 -2.3389304731940164
v 4.035319805145264 -23.095312118530273 -1.8592306231116191
v 3.4438400268554688 -23.74793243408203 -2.4376405333136457
v 4.052919864654541 -21.90514373779297 -2.359700546131028
v 2.055079936981201 -23.748132705688477 -2.4376405333136457
v 1.9308600425720215 -21.791242599487305 -2.843800649509324
v 2.7493700981140137 -21.791162490844727 -3.0196205233191384
v 2.7494699954986572 -23.778032302856445 -2.6551405047034162
v 2.055079936981201 -23.748132705688477 -2.4376405333136457
v 2.7493700981140137 -21.791162490844727 -3.0196205233191384
v 1.7750600576400757 -20.549823760986328 -2.3389304731940164
v 1.9308600425720215 -21.791242599487305 -2.843800649509324
v 1.3886499404907227 -21.905412673950195 -2.46261058794011
v 1.1426399946212769 -20.549882888793945 -2.0420504664038552
v 1.7750600576400757 -20.549823760986328 -2.3389304731940164
v 1.3886499404907227 -21.905412673950195 -2.46261058794011
v 2.055079936981201 -23.748132705688477 -2.4376405333136457
v 1.3886499404907227 -21.905412673950195 -2.46261058794011
v 1.9308600425720215 -21.791242599487305 -2.843800649509324
vt 0.6627529859542847 0.2102469801902771
vt 0.6381040215492249 0.003679037094116211
vt 0.500108003616333 0.0004995465278625488
vt 0.5000879764556885 0.21023797988891602
vt 0.6627529859542847 0.2102469801902771
vt 0.500108003616333 0.0004995465278625488
vt 0.6627529859542847 0.2102469801902771
vt 0.5000879764556885 0.21023797988891602
vt 0.500074028968811 0.34128403663635254
vt 0.6936879754066467 0.34129297733306885
vt 0.6627529859542847 0.2102469801902771
vt 0.500074028968811 0.34128403663635254
vt 0.029597999528050423 0.2102469801902771
vt 0.10971999913454056 0.19820600748062134
vt 0.09682050347328186 0.003679037094116211
vt 0.8074510097503662 0.07978600263595581
vt 0.9073119759559631 0.1981779932975769
vt 0.9031789898872375 0.0036638379096984863
vt 0.5000879764556885 0.21023797988891602
vt 0.3374229967594147 0.2102299928665161
vt 0.3064599931240082 0.3412749767303467
vt 0.500074028968811 0.34128403663635254
vt 0.5000879764556885 0.21023797988891602
vt 0.3064599931240082 0.3412749767303467
vt 0.10971999913454056 0.19820600748062134
vt 0.029597999528050423 0.2102469801902771
vt 0.1131569966673851 0.34129297733306885
vt 0.20203399658203125 0.34129899740219116
vt 0.10971999913454056 0.19820600748062134
vt 0.1131569966673851 0.34129297733306885
vt 0.19254900515079498 0.07257187366485596
vt 0.09682050347328186 0.003679037094116211
vt 0.10971999913454056 0.19820600748062134
vt 0.36211100220680237 0.0036638379096984863
vt 0.3374229967594147 0.2102299928665161
vt 0.5000879764556885 0.21023797988891602
vt 0.500108003616333 0.0004995465278625488
vt 0.36211100220680237 0.0036638379096984863
vt 0.5000879764556885 0.21023797988891602
vt 0.3064599931240082 0.3412749767303467
vt 0.3374229967594147 0.2102299928665161
vt 0.2296680063009262 0.1981779932975769
vt 0.18077799677848816 0.34126901626586914
vt 0.3064599931240082 0.3412749767303467
vt 0.2296680063009262 0.1981779932975769
vt 0.36211100220680237 0.0036638379096984863
vt 0.2296680063009262 0.1981779932975769
vt 0.3374229967594147 0.2102299928665161
vn 0.3906839517373962 0.014269247751311097 -0.9204142754344175
vn 0.6004701676825233 -0.22251336395926974 -0.768064698175129
vn 0.07719415243658076 -0.1929928577481822 -0.9781588928634181
vn -0.09570280806464854 0.030719208174942652 -0.9949358284721912
vn 0.3906839517373962 0.014269247751311097 -0.9204142754344175
vn 0.07719415243658076 -0.1929928577481822 -0.9781588928634181
vn 0.3906839517373962 0.014269247751311097 -0.9204142754344175
vn -0.09570280806464854 0.030719208174942652 -0.9949358284721912
vn 0.059770776374607204 0.3327003338859018 -0.9411365161993164
vn 0.5291285907688152 0.2517133854527074 -0.810347645159128
vn 0.3906839517373962 0.014269247751311097 -0.9204142754344175
vn 0.059770776374607204 0.3327003338859018 -0.9411365161993164
vn 0.3906839517373962 0.014269247751311097 -0.9204142754344175
vn 0.7332696909885402 -0.04549394917498058 -0.6784142251353779
vn 0.6004701676825233 -0.22251336395926974 -0.768064698175129
vn -0.8297324287248763 -0.3063993571279317 -0.4665442429972834
vn -0.6421321483498206 -0.06157781961304366 -0.7641167948601493
vn -0.4692616147639403 -0.23279890333493589 -0.8518205254131825
vn -0.09570280806464854 0.030719208174942652 -0.9949358284721912
vn -0.378504900043883 -0.004572433965695249 -0.92558799338064
vn -0.3476042812755759 0.285714219749885 -0.893050193590262
vn 0.059770776374607204 0.3327003338859018 -0.9411365161993164
vn -0.09570280806464854 0.030719208174942652 -0.9949358284721912
vn -0.3476042812755759 0.285714219749885 -0.893050193590262
vn 0.7332696909885402 -0.04549394917498058 -0.6784142251353779
vn 0.3906839517373962 0.014269247751311097 -0.9204142754344175
vn 0.5291285907688152 0.2517133854527074 -0.810347645159128
vn 0.6719427794368379 0.17430916660887197 -0.7197980380626342
vn 0.7332696909885402 -0.04549394917498058 -0.6784142251353779
vn 0.5291285907688152 0.2517133854527074 -0.810347645159128
vn 0.8015571800925958 -0.2418027510607605 -0.5468432285595697
vn 0.6004701676825233 -0.22251336395926974 -0.768064698175129
vn 0.7332696909885402 -0.04549394917498058 -0.6784142251353779
vn -0.4692616147639403 -0.23279890333493589 -0.8518205254131825
vn -0.378504900043883 -0.004572433965695249 -0.92558799338064
vn -0.09570280806464854 0.030719208174942652 -0.9949358284721912
vn 0.07719415243658076 -0.1929928577481822 -0.9781588928634181
vn -0.4692616147639403 -0.23279890333493589 -0.8518205254131825
vn -0.09570280806464854 0.030719208174942652 -0.9949358284721912
vn -0.3476042812755759 0.285714219749885 -0.893050193590262
vn -0.378504900043883 -0.004572433965695249 -0.92558799338064
vn -0.6421321483498206 -0.06157781961304366 -0.7641167948601493
vn -0.4164044656752265 0.19962275558244136 -0.8869938423796426
vn -0.3476042812755759 0.285714219749885 -0.893050193590262
vn -0.6421321483498206 -0.06157781961304366 -0.7641167948601493
vn -0.4692616147639403 -0.23279890333493589 -0.8518205254131825
vn -0.6421321483498206 -0.06157781961304366 -0.7641167948601493
vn -0.378504900043883 -0.004572433965695249 -0.92558799338064
f 1/1/1 2/2/2 3/3/3
f 4/4/4 5/5/5 6/6/6
f 7/7/7 8/8/8 9/9/9
f 10/10/10 11/11/11 12/12/12
f 13/13/13 14/14/14 15/15/15
f 16/16/16 17/17/17 18/18/18
f 19/19/19 20/20/20 21/21/21
f 22/22/22 23/23/23 24/24/24
f 25/25/25 26/26/26 27/27/27
f 28/28/28 29/29/29 30/30/30
f 31/31/31 32/32/32 33/33/33
f 34/34/34 35/35/35 36/36/36
f 37/37/37 38/38/38 39/39/39
f 40/40/40 41/41/41 42/42/42
f 43/43/43 44/44/44 45/45/45
f 46/46/46 47/47/47 48/48/48
