mtllib ArcadaCompleta.mtl
o D32C_I
usemtl I
v 10.307299613952637 -15.758792877197266 0.861257388725388
v 9.922329902648926 -14.334632873535156 -0.017654780760895848
v 9.077369689941406 -14.334632873535156 -0.017654780760895848
v 9.077449798583984 -15.758832931518555 0.9391884352112889
v 10.307299613952637 -15.758792877197266 0.861257388725388
v 9.077369689941406 -14.334632873535156 -0.017654780760895848
v 9.922329902648926 -14.314302444458008 -0.49326558457363806
v 9.077369689941406 -14.314302444458008 -0.49326558457363806
v 9.077369689941406 -14.334632873535156 -0.017654780760895848
v 9.922329902648926 -14.334632873535156 -0.017654780760895848
v 9.922329902648926 -14.314302444458008 -0.49326558457363806
v 9.077369689941406 -14.334632873535156 -0.017654780760895848
v 8.203570365905762 -15.767023086547852 -0.790408596858871
v 8.232449531555176 -14.73972225189209 -0.8501955722426293
v 9.077400207519531 -14.73972225189209 -0.8501955722426293
v 9.077460289001465 -15.766983032226562 -0.7959115956877589
v 8.203570365905762 -15.767023086547852 -0.790408596858871
v 9.077400207519531 -14.73972225189209 -0.8501955722426293
v 8.232430458068848 -14.314302444458008 -0.49326558457363806
v 9.077369689941406 -14.314302444458008 -0.49326558457363806
v 9.077400207519531 -14.73972225189209 -0.8501955722426293
v 8.232449531555176 -14.73972225189209 -0.8501955722426293
v 8.232430458068848 -14.314302444458008 -0.49326558457363806
v 9.077400207519531 -14.73972225189209 -0.8501955722426293
v 10.711999893188477 -14.73972225189209 -0.8501955722426293
v 10.748000144958496 -14.314302444458008 -0.49326558457363806
v 11.590800285339355 -14.314302444458008 -0.49326558457363806
v 11.50160026550293 -14.73972225189209 -0.8501955722426293
v 10.711999893188477 -14.73972225189209 -0.8501955722426293
v 11.590800285339355 -14.314302444458008 -0.49326558457363806
v 7.44281005859375 -14.334632873535156 -0.017654780760895848
v 7.406760215759277 -14.314302444458008 -0.49326558457363806
v 6.563960075378418 -14.314302444458008 -0.49326558457363806
v 6.6531901359558105 -14.334632873535156 -0.017654780760895848
v 7.44281005859375 -14.334632873535156 -0.017654780760895848
v 6.563960075378418 -14.314302444458008 -0.49326558457363806
v 10.748000144958496 -14.314302444458008 -0.49326558457363806
v 10.711899757385254 -14.334632873535156 -0.017654780760895848
v 11.50160026550293 -14.334632873535156 -0.017654780760895848
v 11.590800285339355 -14.314302444458008 -0.49326558457363806
v 10.748000144958496 -14.314302444458008 -0.49326558457363806
v 11.50160026550293 -14.334632873535156 -0.017654780760895848
v 10.711899757385254 -14.334632873535156 -0.017654780760895848
v 10.307299613952637 -15.758792877197266 0.861257388725388
v 11.50160026550293 -14.334632873535156 -0.017654780760895848
v 7.406760215759277 -14.314302444458008 -0.49326558457363806
v 7.442840099334717 -14.73972225189209 -0.8501955722426293
v 6.653220176696777 -14.73972225189209 -0.8501955722426293
v 6.563960075378418 -14.314302444458008 -0.49326558457363806
v 7.406760215759277 -14.314302444458008 -0.49326558457363806
v 6.653220176696777 -14.73972225189209 -0.8501955722426293
v 7.442840099334717 -14.73972225189209 -0.8501955722426293
v 7.436620235443115 -15.76705265045166 -0.8628035639380336
v 6.653220176696777 -14.73972225189209 -0.8501955722426293
v 9.077369689941406 -14.314302444458008 -0.49326558457363806
v 8.232430458068848 -14.314302444458008 -0.49326558457363806
v 8.232419967651367 -14.334632873535156 -0.017654780760895848
v 9.077369689941406 -14.334632873535156 -0.017654780760895848
v 9.077369689941406 -14.314302444458008 -0.49326558457363806
v 8.232419967651367 -14.334632873535156 -0.017654780760895848
v 7.406760215759277 -14.314302444458008 -0.49326558457363806
v 7.44281005859375 -14.334632873535156 -0.017654780760895848
v 8.232419967651367 -14.334632873535156 -0.017654780760895848
v 8.232430458068848 -14.314302444458008 -0.49326558457363806
v 7.406760215759277 -14.314302444458008 -0.49326558457363806
v 8.232419967651367 -14.334632873535156 -0.017654780760895848
v 7.44281005859375 -14.334632873535156 -0.017654780760895848
v 7.847559928894043 -15.758862495422363 0.861257388725388
v 8.232419967651367 -14.334632873535156 -0.017654780760895848
v 9.077369689941406 -14.314302444458008 -0.49326558457363806
v 9.922329902648926 -14.314302444458008 -0.49326558457363806
v 9.92234992980957 -14.73972225189209 -0.8501955722426293
v 9.077400207519531 -14.73972225189209 -0.8501955722426293
v 9.077369689941406 -14.314302444458008 -0.49326558457363806
v 9.92234992980957 -14.73972225189209 -0.8501955722426293
v 10.748000144958496 -14.314302444458008 -0.49326558457363806
v 10.711999893188477 -14.73972225189209 -0.8501955722426293
v 9.92234992980957 -14.73972225189209 -0.8501955722426293
v 9.922329902648926 -14.314302444458008 -0.49326558457363806
v 10.748000144958496 -14.314302444458008 -0.49326558457363806
v 9.92234992980957 -14.73972225189209 -0.8501955722426293
v 10.718299865722656 -15.766912460327148 -0.8628035639380336
v 9.951359748840332 -15.766942977905273 -0.790408596858871
v 9.92234992980957 -14.73972225189209 -0.8501955722426293
v 10.711999893188477 -14.73972225189209 -0.8501955722426293
v 10.718299865722656 -15.766912460327148 -0.8628035639380336
v 9.92234992980957 -14.73972225189209 -0.8501955722426293
v 10.711899757385254 -14.334632873535156 -0.017654780760895848
v 10.748000144958496 -14.314302444458008 -0.49326558457363806
v 9.922329902648926 -14.314302444458008 -0.49326558457363806
v 9.922329902648926 -14.334632873535156 -0.017654780760895848
v 10.711899757385254 -14.334632873535156 -0.017654780760895848
v 9.922329902648926 -14.314302444458008 -0.49326558457363806
v 7.442840099334717 -14.73972225189209 -0.8501955722426293
v 7.406760215759277 -14.314302444458008 -0.49326558457363806
v 8.232430458068848 -14.314302444458008 -0.49326558457363806
v 8.232449531555176 -14.73972225189209 -0.8501955722426293
v 7.442840099334717 -14.73972225189209 -0.8501955722426293
v 8.232430458068848 -14.314302444458008 -0.49326558457363806
v 11.50160026550293 -14.73972225189209 -0.8501955722426293
v 10.718299865722656 -15.766912460327148 -0.8628035639380336
v 10.711999893188477 -14.73972225189209 -0.8501955722426293
v 9.922329902648926 -14.334632873535156 -0.017654780760895848
v 10.307299613952637 -15.758792877197266 0.861257388725388
v 10.711899757385254 -14.334632873535156 -0.017654780760895848
v 8.203570365905762 -15.767023086547852 -0.790408596858871
v 7.436620235443115 -15.76705265045166 -0.8628035639380336
v 7.442840099334717 -14.73972225189209 -0.8501955722426293
v 8.232449531555176 -14.73972225189209 -0.8501955722426293
v 8.203570365905762 -15.767023086547852 -0.790408596858871
v 7.442840099334717 -14.73972225189209 -0.8501955722426293
v 6.6531901359558105 -14.334632873535156 -0.017654780760895848
v 7.847559928894043 -15.758862495422363 0.861257388725388
v 7.44281005859375 -14.334632873535156 -0.017654780760895848
v 8.232419967651367 -14.334632873535156 -0.017654780760895848
v 7.847559928894043 -15.758862495422363 0.861257388725388
v 9.077449798583984 -15.758832931518555 0.9391884352112889
v 9.077369689941406 -14.334632873535156 -0.017654780760895848
v 8.232419967651367 -14.334632873535156 -0.017654780760895848
v 9.077449798583984 -15.758832931518555 0.9391884352112889
v 9.92234992980957 -14.73972225189209 -0.8501955722426293
v 9.951359748840332 -15.766942977905273 -0.790408596858871
v 9.077460289001465 -15.766983032226562 -0.7959115956877589
v 9.077400207519531 -14.73972225189209 -0.8501955722426293
v 9.92234992980957 -14.73972225189209 -0.8501955722426293
v 9.077460289001465 -15.766983032226562 -0.7959115956877589
vt 0.2555670142173767 0.8470190167427063
vt 0.33208000659942627 0.9973539710044861
vt 0.5000010132789612 0.9973539710044861
vt 0.4999859929084778 0.8470150232315063
vt 0.2555670142173767 0.8470190167427063
vt 0.5000010132789612 0.9973539710044861
vt 0.33208000659942627 0.5813770294189453
vt 0.5000010132789612 0.5813770294189453
vt 0.5000010132789612 0.5026609897613525
vt 0.33208000659942627 0.5026609897613525
vt 0.33208000659942627 0.5813770294189453
vt 0.5000010132789612 0.5026609897613525
vt 0.3263449966907501 0.8461509943008423
vt 0.3320850133895874 0.9545930027961731
vt 0.5000039935112 0.9545930027961731
vt 0.500016987323761 0.846153974533081
vt 0.3263449966907501 0.8461509943008423
vt 0.5000039935112 0.9545930027961731
vt 0.33208000659942627 0.9994999766349792
vt 0.4999989867210388 0.9994999766349792
vt 0.5000039935112 0.9545930027961731
vt 0.3320850133895874 0.9545930027961731
vt 0.33208000659942627 0.9994999766349792
vt 0.5000039935112 0.9545930027961731
vt 0.8248479962348938 0.9545930027961731
vt 0.8320080041885376 0.9994999766349792
vt 0.9994999766349792 0.9994999766349792
vt 0.9817709922790527 0.9545930027961731
vt 0.8248479962348938 0.9545930027961731
vt 0.9994999766349792 0.9994999766349792
vt 0.8248440027236938 0.5026609897613525
vt 0.8320090174674988 0.5813770294189453
vt 0.9994999766349792 0.5813770294189453
vt 0.9817659854888916 0.5026609897613525
vt 0.8248440027236938 0.5026609897613525
vt 0.9994999766349792 0.5813770294189453
vt 0.1679919958114624 0.5813770294189453
vt 0.17515699565410614 0.5026609897613525
vt 0.01823429949581623 0.5026609897613525
vt 0.0004997850046493113 0.5813770294189453
vt 0.1679919958114624 0.5813770294189453
vt 0.01823429949581623 0.5026609897613525
vt 0.17515699565410614 0.9973539710044861
vt 0.2555670142173767 0.8470190167427063
vt 0.01823429949581623 0.9973539710044861
vt 0.16799099743366241 0.9994999766349792
vt 0.17516200244426727 0.9545930027961731
vt 0.01823900081217289 0.9545930027961731
vt 0.0004996960051357746 0.9994999766349792
vt 0.16799099743366241 0.9994999766349792
vt 0.01823900081217289 0.9545930027961731
vt 0.17516200244426727 0.9545930027961731
vt 0.17392699420452118 0.8461470007896423
vt 0.01823900081217289 0.9545930027961731
vt 0.5000010132789612 0.5813770294189453
vt 0.6679199934005737 0.5813770294189453
vt 0.6679210066795349 0.5026609897613525
vt 0.5000010132789612 0.5026609897613525
vt 0.5000010132789612 0.5813770294189453
vt 0.6679210066795349 0.5026609897613525
vt 0.8320090174674988 0.5813770294189453
vt 0.8248440027236938 0.5026609897613525
vt 0.6679210066795349 0.5026609897613525
vt 0.6679199934005737 0.5813770294189453
vt 0.8320090174674988 0.5813770294189453
vt 0.6679210066795349 0.5026609897613525
vt 0.8248440027236938 0.9973539710044861
vt 0.7444049715995789 0.8470110297203064
vt 0.6679210066795349 0.9973539710044861
vt 0.4999989867210388 0.9994999766349792
vt 0.6679199934005737 0.9994999766349792
vt 0.6679250001907349 0.9545930027961731
vt 0.5000039935112 0.9545930027961731
vt 0.4999989867210388 0.9994999766349792
vt 0.6679250001907349 0.9545930027961731
vt 0.8320080041885376 0.9994999766349792
vt 0.8248479962348938 0.9545930027961731
vt 0.6679250001907349 0.9545930027961731
vt 0.6679199934005737 0.9994999766349792
vt 0.8320080041885376 0.9994999766349792
vt 0.6679250001907349 0.9545930027961731
vt 0.8261079788208008 0.8461620211601257
vt 0.6736890077590942 0.8461580276489258
vt 0.6679250001907349 0.9545930027961731
vt 0.8248479962348938 0.9545930027961731
vt 0.8261079788208008 0.8461620211601257
vt 0.6679250001907349 0.9545930027961731
vt 0.17515699565410614 0.5026609897613525
vt 0.1679919958114624 0.5813770294189453
vt 0.33208000659942627 0.5813770294189453
vt 0.33208000659942627 0.5026609897613525
vt 0.17515699565410614 0.5026609897613525
vt 0.33208000659942627 0.5813770294189453
vt 0.17516200244426727 0.9545930027961731
vt 0.16799099743366241 0.9994999766349792
vt 0.33208000659942627 0.9994999766349792
vt 0.3320850133895874 0.9545930027961731
vt 0.17516200244426727 0.9545930027961731
vt 0.33208000659942627 0.9994999766349792
vt 0.9817709922790527 0.9545930027961731
vt 0.8261079788208008 0.8461620211601257
vt 0.8248479962348938 0.9545930027961731
vt 0.33208000659942627 0.9973539710044861
vt 0.2555670142173767 0.8470190167427063
vt 0.17515699565410614 0.9973539710044861
vt 0.3263449966907501 0.8461509943008423
vt 0.17392699420452118 0.8461470007896423
vt 0.17516200244426727 0.9545930027961731
vt 0.3320850133895874 0.9545930027961731
vt 0.3263449966907501 0.8461509943008423
vt 0.17516200244426727 0.9545930027961731
vt 0.9817659854888916 0.9973539710044861
vt 0.7444049715995789 0.8470110297203064
vt 0.8248440027236938 0.9973539710044861
vt 0.6679210066795349 0.9973539710044861
vt 0.7444049715995789 0.8470110297203064
vt 0.4999859929084778 0.8470150232315063
vt 0.5000010132789612 0.9973539710044861
vt 0.6679210066795349 0.9973539710044861
vt 0.4999859929084778 0.8470150232315063
vt 0.6679250001907349 0.9545930027961731
vt 0.6736890077590942 0.8461580276489258
vt 0.500016987323761 0.846153974533081
vt 0.5000039935112 0.9545930027961731
vt 0.6679250001907349 0.9545930027961731
vt 0.500016987323761 0.846153974533081
vn 0.01799066181781236 0.5363038788084512 0.84383320962283
vn 0 0.6840252994717517 0.7294582850873519
vn 0.01925366200397438 0.6825953774441526 0.7305428441859599
vn -0.000011827181872119236 0.5495914813566903 0.8354335422283907
vn 0.01799066181781236 0.5363038788084512 0.84383320962283
vn 0.01925366200397438 0.6825953774441526 0.7305428441859599
vn 0 0.9586686584652134 -0.28452487286089423
vn 0 0.8992055288441702 -0.43752647565156116
vn 0.01925366200397438 0.6825953774441526 0.7305428441859599
vn 0 0.6840252994717517 0.7294582850873519
vn 0 0.9586686584652134 -0.28452487286089423
vn 0.01925366200397438 0.6825953774441526 0.7305428441859599
vn 0.02040294792856477 -0.04036052249013842 -0.9989768505526778
vn 0 0.20039339380144225 -0.979715513667483
vn -0.0014912703321642846 0.20081321287319637 -0.9796284140674671
vn 0.0000016312585750547422 -0.05450874631405836 -0.998513293137657
vn 0.02040294792856477 -0.04036052249013842 -0.9989768505526778
vn -0.0014912703321642846 0.20081321287319637 -0.9796284140674671
vn 0 0.8211562024129547 -0.5707035055427069
vn 0 0.8992055288441702 -0.43752647565156116
vn -0.0014912703321642846 0.20081321287319637 -0.9796284140674671
vn 0 0.20039339380144225 -0.979715513667483
vn 0 0.8211562024129547 -0.5707035055427069
vn -0.0014912703321642846 0.20081321287319637 -0.9796284140674671
vn 0 0.3162987989627227 -0.9486596174470266
vn 0 0.899207744933096 -0.43752192111062954
vn 0 0.8235856458534414 -0.5671919286662759
vn 0 0.24654310872804397 -0.9691318256763173
vn 0 0.3162987989627227 -0.9486596174470266
vn 0 0.8235856458534414 -0.5671919286662759
vn 0 0.7414807605778652 0.670974128929626
vn 0 0.8992050969077904 -0.4375273633671969
vn 0 0.9572887652731741 -0.2891335675458001
vn 0 0.6840077662515218 0.7294747258867873
vn 0 0.7414807605778652 0.670974128929626
vn 0 0.9572887652731741 -0.2891335675458001
vn 0 0.899207744933096 -0.43752192111062954
vn 0 0.740472639364145 0.6720865051115792
vn 0 0.7856828395307753 0.6186295140606034
vn 0 0.8235856458534414 -0.5671919286662759
vn 0 0.899207744933096 -0.43752192111062954
vn 0 0.7856828395307753 0.6186295140606034
vn 0 0.740472639364145 0.6720865051115792
vn 0.01799066181781236 0.5363038788084512 0.84383320962283
vn 0 0.7856828395307753 0.6186295140606034
vn 0 0.8992050969077904 -0.4375273633671969
vn 0.021050197864334656 0.23501719378857358 -0.9717632467806222
vn 0 0.3662434908212536 -0.9305190516217614
vn 0 0.9572887652731741 -0.2891335675458001
vn 0 0.8992050969077904 -0.4375273633671969
vn 0 0.3662434908212536 -0.9305190516217614
vn 0.021050197864334656 0.23501719378857358 -0.9717632467806222
vn 0.046455510722995516 0.01197718473128962 -0.9988485533700184
vn 0 0.3662434908212536 -0.9305190516217614
vn 0 0.8992055288441702 -0.43752647565156116
vn 0 0.8211562024129547 -0.5707035055427069
vn -0.01883932844126496 0.7102505768704537 0.703696808120564
vn 0.01925366200397438 0.6825953774441526 0.7305428441859599
vn 0 0.8992055288441702 -0.43752647565156116
vn -0.01883932844126496 0.7102505768704537 0.703696808120564
vn 0 0.8992050969077904 -0.4375273633671969
vn 0 0.7414807605778652 0.670974128929626
vn -0.01883932844126496 0.7102505768704537 0.703696808120564
vn 0 0.8211562024129547 -0.5707035055427069
vn 0 0.8992050969077904 -0.4375273633671969
vn -0.01883932844126496 0.7102505768704537 0.703696808120564
vn 0 0.7414807605778652 0.670974128929626
vn -0.023528465569086623 0.5296158693332054 0.8479112230996814
vn -0.01883932844126496 0.7102505768704537 0.703696808120564
vn 0 0.8992055288441702 -0.43752647565156116
vn 0 0.9586686584652134 -0.28452487286089423
vn -0.014067943235552119 0.21371242445961894 -0.9767953176611326
vn -0.0014912703321642846 0.20081321287319637 -0.9796284140674671
vn 0 0.8992055288441702 -0.43752647565156116
vn -0.014067943235552119 0.21371242445961894 -0.9767953176611326
vn 0 0.899207744933096 -0.43752192111062954
vn 0 0.3162987989627227 -0.9486596174470266
vn -0.014067943235552119 0.21371242445961894 -0.9767953176611326
vn 0 0.9586686584652134 -0.28452487286089423
vn 0 0.899207744933096 -0.43752192111062954
vn -0.014067943235552119 0.21371242445961894 -0.9767953176611326
vn -0.030839474609596365 -0.011629328964140198 -0.9994566951667532
vn -0.040659095293234165 -0.05920061725306934 -0.997417728380036
vn -0.014067943235552119 0.21371242445961894 -0.9767953176611326
vn 0 0.3162987989627227 -0.9486596174470266
vn -0.030839474609596365 -0.011629328964140198 -0.9994566951667532
vn -0.014067943235552119 0.21371242445961894 -0.9767953176611326
vn 0 0.740472639364145 0.6720865051115792
vn 0 0.899207744933096 -0.43752192111062954
vn 0 0.9586686584652134 -0.28452487286089423
vn 0 0.6840252994717517 0.7294582850873519
vn 0 0.740472639364145 0.6720865051115792
vn 0 0.9586686584652134 -0.28452487286089423
vn 0.021050197864334656 0.23501719378857358 -0.9717632467806222
vn 0 0.8992050969077904 -0.4375273633671969
vn 0 0.8211562024129547 -0.5707035055427069
vn 0 0.20039339380144225 -0.979715513667483
vn 0.021050197864334656 0.23501719378857358 -0.9717632467806222
vn 0 0.8211562024129547 -0.5707035055427069
vn 0 0.24654310872804397 -0.9691318256763173
vn -0.030839474609596365 -0.011629328964140198 -0.9994566951667532
vn 0 0.3162987989627227 -0.9486596174470266
vn 0 0.6840252994717517 0.7294582850873519
vn 0.01799066181781236 0.5363038788084512 0.84383320962283
vn 0 0.740472639364145 0.6720865051115792
vn 0.02040294792856477 -0.04036052249013842 -0.9989768505526778
vn 0.046455510722995516 0.01197718473128962 -0.9988485533700184
vn 0.021050197864334656 0.23501719378857358 -0.9717632467806222
vn 0 0.20039339380144225 -0.979715513667483
vn 0.02040294792856477 -0.04036052249013842 -0.9989768505526778
vn 0.021050197864334656 0.23501719378857358 -0.9717632467806222
vn 0 0.6840077662515218 0.7294747258867873
vn -0.023528465569086623 0.5296158693332054 0.8479112230996814
vn 0 0.7414807605778652 0.670974128929626
vn -0.01883932844126496 0.7102505768704537 0.703696808120564
vn -0.023528465569086623 0.5296158693332054 0.8479112230996814
vn -0.000011827181872119236 0.5495914813566903 0.8354335422283907
vn 0.01925366200397438 0.6825953774441526 0.7305428441859599
vn -0.01883932844126496 0.7102505768704537 0.703696808120564
vn -0.000011827181872119236 0.5495914813566903 0.8354335422283907
vn -0.014067943235552119 0.21371242445961894 -0.9767953176611326
vn -0.040659095293234165 -0.05920061725306934 -0.997417728380036
vn 0.0000016312585750547422 -0.05450874631405836 -0.998513293137657
vn -0.0014912703321642846 0.20081321287319637 -0.9796284140674671
vn -0.014067943235552119 0.21371242445961894 -0.9767953176611326
vn 0.0000016312585750547422 -0.05450874631405836 -0.998513293137657
f 1/1/1 2/2/2 3/3/3
f 4/4/4 5/5/5 6/6/6
f 7/7/7 8/8/8 9/9/9
f 10/10/10 11/11/11 12/12/12
f 13/13/13 14/14/14 15/15/15
f 16/16/16 17/17/17 18/18/18
f 19/19/19 20/20/20 21/21/21
f 22/22/22 23/23/23 24/24/24
f 25/25/25 26/26/26 27/27/27
f 28/28/28 29/29/29 30/30/30
f 31/31/31 32/32/32 33/33/33
f 34/34/34 35/35/35 36/36/36
f 37/37/37 38/38/38 39/39/39
f 40/40/40 41/41/41 42/42/42
f 43/43/43 44/44/44 45/45/45
f 46/46/46 47/47/47 48/48/48
f 49/49/49 50/50/50 51/51/51
f 52/52/52 53/53/53 54/54/54
f 55/55/55 56/56/56 57/57/57
f 58/58/58 59/59/59 60/60/60
f 61/61/61 62/62/62 63/63/63
f 64/64/64 65/65/65 66/66/66
f 67/67/67 68/68/68 69/69/69
f 70/70/70 71/71/71 72/72/72
f 73/73/73 74/74/74 75/75/75
f 76/76/76 77/77/77 78/78/78
f 79/79/79 80/80/80 81/81/81
f 82/82/82 83/83/83 84/84/84
f 85/85/85 86/86/86 87/87/87
f 88/88/88 89/89/89 90/90/90
f 91/91/91 92/92/92 93/93/93
f 94/94/94 95/95/95 96/96/96
f 97/97/97 98/98/98 99/99/99
f 100/100/100 101/101/101 102/102/102
f 103/103/103 104/104/104 105/105/105
f 106/106/106 107/107/107 108/108/108
f 109/109/109 110/110/110 111/111/111
f 112/112/112 113/113/113 114/114/114
f 115/115/115 116/116/116 117/117/117
f 118/118/118 119/119/119 120/120/120
f 121/121/121 122/122/122 123/123/123
f 124/124/124 125/125/125 126/126/126
