mtllib ArcadaCompleta.mtl
o D33C_L
usemtl Esmalte
v 15.13700008392334 -15.287152290344238 -1.1480206106757043
v 15.722800254821777 -15.273802757263184 -1.1765205715750573
v 15.979999542236328 -16.707313537597656 -1.3653806303595424
v 15.1875 -16.707313537597656 -1.1168205593680263
v 15.13700008392334 -15.287152290344238 -1.1480206106757043
v 15.979999542236328 -16.707313537597656 -1.3653806303595424
v 16.217100143432617 -15.287152290344238 -1.1480206106757043
v 16.810400009155273 -16.707313537597656 -1.1168205593680263
v 15.979999542236328 -16.707313537597656 -1.3653806303595424
v 15.722800254821777 -15.273802757263184 -1.1765205715750573
v 16.217100143432617 -15.287152290344238 -1.1480206106757043
v 15.979999542236328 -16.707313537597656 -1.3653806303595424
v 16.901500701904297 -18.866971969604492 -1.5099606369589693
v 16.79640007019043 -20.734432220458984 -3.252440557346238
v 16.025800704956055 -20.734432220458984 -3.2385705565070046
v 16.098800659179688 -18.866971969604492 -1.977680549487961
v 16.901500701904297 -18.866971969604492 -1.5099606369589693
v 16.025800704956055 -20.734432220458984 -3.2385705565070046
v 16.810400009155273 -16.707313537597656 -1.1168205593680263
v 16.901500701904297 -18.866971969604492 -1.5099606369589693
v 16.098800659179688 -18.866971969604492 -1.977680549487961
v 15.979999542236328 -16.707313537597656 -1.3653806303595424
v 16.810400009155273 -16.707313537597656 -1.1168205593680263
v 16.098800659179688 -18.866971969604492 -1.977680549487961
v 15.251799583435059 -20.734432220458984 -3.252440557346238
v 15.30739974975586 -18.866971969604492 -1.5099606369589693
v 16.098800659179688 -18.866971969604492 -1.977680549487961
v 16.025800704956055 -20.734432220458984 -3.2385705565070046
v 15.251799583435059 -20.734432220458984 -3.252440557346238
v 16.098800659179688 -18.866971969604492 -1.977680549487961
v 16.217100143432617 -15.287152290344238 -1.1480206106757043
v 16.71150016784668 -15.30050277709961 -1.1195205305670617
v 17.501100540161133 -16.707313537597656 -1.234170541629684
v 16.810400009155273 -16.707313537597656 -1.1168205593680263
v 16.217100143432617 -15.287152290344238 -1.1480206106757043
v 17.501100540161133 -16.707313537597656 -1.234170541629684
v 17.628999710083008 -15.304482460021973 -0.8890935634230493
v 18.313899993896484 -16.707313537597656 -1.4726205919836879
v 17.501100540161133 -16.707313537597656 -1.234170541629684
v 16.71150016784668 -15.30050277709961 -1.1195205305670617
v 17.628999710083008 -15.304482460021973 -0.8890935634230493
v 17.501100540161133 -16.707313537597656 -1.234170541629684
v 13.633600234985352 -15.304482460021973 -0.8890935634230493
v 14.55109977722168 -15.30050277709961 -1.1195205305670617
v 14.550399780273438 -16.707313537597656 -1.234170541629684
v 13.730299949645996 -16.707313537597656 -1.4726205919836879
v 13.633600234985352 -15.304482460021973 -0.8890935634230493
v 14.550399780273438 -16.707313537597656 -1.234170541629684
v 15.13700008392334 -15.287152290344238 -1.1480206106757043
v 15.1875 -16.707313537597656 -1.1168205593680263
v 14.550399780273438 -16.707313537597656 -1.234170541629684
v 14.55109977722168 -15.30050277709961 -1.1195205305670617
v 15.13700008392334 -15.287152290344238 -1.1480206106757043
v 14.550399780273438 -16.707313537597656 -1.234170541629684
v 14.508399963378906 -18.866971969604492 -1.8312406395529635
v 15.251799583435059 -20.734432220458984 -3.252440557346238
v 14.621700286865234 -20.734432220458984 -3.094800577030076
v 17.501100540161133 -16.707313537597656 -1.234170541629684
v 18.313899993896484 -16.707313537597656 -1.4726205919836879
v 17.696500778198242 -18.866971969604492 -1.8312406395529635
v 17.429899215698242 -20.734432220458984 -3.094800577030076
v 16.79640007019043 -20.734432220458984 -3.252440557346238
v 17.696500778198242 -18.866971969604492 -1.8312406395529635
v 15.30739974975586 -18.866971969604492 -1.5099606369589693
v 15.251799583435059 -20.734432220458984 -3.252440557346238
v 14.508399963378906 -18.866971969604492 -1.8312406395529635
v 18.20989990234375 -15.308462142944336 -0.4803055678461908
v 18.313899993896484 -16.707313537597656 -1.4726205919836879
v 17.628999710083008 -15.304482460021973 -0.8890935634230493
v 14.550399780273438 -16.707313537597656 -1.234170541629684
v 14.508399963378906 -18.866971969604492 -1.8312406395529635
v 13.730299949645996 -16.707313537597656 -1.4726205919836879
v 16.098800659179688 -18.866971969604492 -1.977680549487961
v 15.30739974975586 -18.866971969604492 -1.5099606369589693
v 15.1875 -16.707313537597656 -1.1168205593680263
v 15.979999542236328 -16.707313537597656 -1.3653806303595424
v 16.098800659179688 -18.866971969604492 -1.977680549487961
v 15.1875 -16.707313537597656 -1.1168205593680263
v 17.696500778198242 -18.866971969604492 -1.8312406395529635
v 16.79640007019043 -20.734432220458984 -3.252440557346238
v 16.901500701904297 -18.866971969604492 -1.5099606369589693
v 17.696500778198242 -18.866971969604492 -1.8312406395529635
v 16.901500701904297 -18.866971969604492 -1.5099606369589693
v 16.810400009155273 -16.707313537597656 -1.1168205593680263
v 17.501100540161133 -16.707313537597656 -1.234170541629684
v 17.696500778198242 -18.866971969604492 -1.8312406395529635
v 16.810400009155273 -16.707313537597656 -1.1168205593680263
v 14.550399780273438 -16.707313537597656 -1.234170541629684
v 15.1875 -16.707313537597656 -1.1168205593680263
v 15.30739974975586 -18.866971969604492 -1.5099606369589693
v 14.508399963378906 -18.866971969604492 -1.8312406395529635
v 14.550399780273438 -16.707313537597656 -1.234170541629684
v 15.30739974975586 -18.866971969604492 -1.5099606369589693
vt 0.6264100074768066 0.8641520142555237
vt 0.5430920124053955 0.8653609752655029
vt 0.506505012512207 0.735605001449585
vt 0.6192219853401184 0.735605001449585
vt 0.6264100074768066 0.8641520142555237
vt 0.506505012512207 0.735605001449585
vt 0.47278401255607605 0.8641520142555237
vt 0.38840898871421814 0.735605001449585
vt 0.506505012512207 0.735605001449585
vt 0.5430920124053955 0.8653609752655029
vt 0.47278401255607605 0.8641520142555237
vt 0.506505012512207 0.735605001449585
vt 0.3754560053348541 0.5401210188865662
vt 0.39040300250053406 0.3710860013961792
vt 0.5 0.3710860013961792
vt 0.48961201310157776 0.5401210188865662
vt 0.3754560053348541 0.5401210188865662
vt 0.5 0.3710860013961792
vt 0.38840898871421814 0.735605001449585
vt 0.3754560053348541 0.5401210188865662
vt 0.48961201310157776 0.5401210188865662
vt 0.506505012512207 0.735605001449585
vt 0.38840898871421814 0.735605001449585
vt 0.48961201310157776 0.5401210188865662
vt 0.6100729703903198 0.3710860013961792
vt 0.6021659970283508 0.5401210188865662
vt 0.48961201310157776 0.5401210188865662
vt 0.5 0.3710860013961792
vt 0.6100729703903198 0.3710860013961792
vt 0.48961201310157776 0.5401210188865662
vt 0.47278401255607605 0.8641520142555237
vt 0.4024769961833954 0.8629440069198608
vt 0.29017001390457153 0.735605001449585
vt 0.38840898871421814 0.735605001449585
vt 0.47278401255607605 0.8641520142555237
vt 0.29017001390457153 0.735605001449585
vt 0.27198299765586853 0.8625839948654175
vt 0.1745689958333969 0.735605001449585
vt 0.29017001390457153 0.735605001449585
vt 0.4024769961833954 0.8629440069198608
vt 0.27198299765586853 0.8625839948654175
vt 0.29017001390457153 0.735605001449585
vt 0.8402209877967834 0.8625839948654175
vt 0.7097269892692566 0.8629440069198608
vt 0.7098299860954285 0.735605001449585
vt 0.8264700174331665 0.735605001449585
vt 0.8402209877967834 0.8625839948654175
vt 0.7098299860954285 0.735605001449585
vt 0.6264100074768066 0.8641520142555237
vt 0.6192219853401184 0.735605001449585
vt 0.7098299860954285 0.735605001449585
vt 0.7097269892692566 0.8629440069198608
vt 0.6264100074768066 0.8641520142555237
vt 0.7098299860954285 0.735605001449585
vt 0.7158030271530151 0.5401210188865662
vt 0.6100729703903198 0.3710860013961792
vt 0.6996999979019165 0.3710860013961792
vt 0.29017001390457153 0.735605001449585
vt 0.1745689958333969 0.735605001449585
vt 0.26238200068473816 0.5401210188865662
vt 0.3003000020980835 0.3710860013961792
vt 0.39040300250053406 0.3710860013961792
vt 0.26238200068473816 0.5401210188865662
vt 0.6021659970283508 0.5401210188865662
vt 0.6100729703903198 0.3710860013961792
vt 0.7158030271530151 0.5401210188865662
vt 0.1893640011548996 0.8622239828109741
vt 0.1745689958333969 0.735605001449585
vt 0.27198299765586853 0.8625839948654175
vt 0.7098299860954285 0.735605001449585
vt 0.7158030271530151 0.5401210188865662
vt 0.8264700174331665 0.735605001449585
vt 0.48961201310157776 0.5401210188865662
vt 0.6021659970283508 0.5401210188865662
vt 0.6192219853401184 0.735605001449585
vt 0.506505012512207 0.735605001449585
vt 0.48961201310157776 0.5401210188865662
vt 0.6192219853401184 0.735605001449585
vt 0.26238200068473816 0.5401210188865662
vt 0.39040300250053406 0.3710860013961792
vt 0.3754560053348541 0.5401210188865662
vt 0.26238200068473816 0.5401210188865662
vt 0.3754560053348541 0.5401210188865662
vt 0.38840898871421814 0.735605001449585
vt 0.29017001390457153 0.735605001449585
vt 0.26238200068473816 0.5401210188865662
vt 0.38840898871421814 0.735605001449585
vt 0.7098299860954285 0.735605001449585
vt 0.6192219853401184 0.735605001449585
vt 0.6021659970283508 0.5401210188865662
vt 0.7158030271530151 0.5401210188865662
vt 0.7098299860954285 0.735605001449585
vt 0.6021659970283508 0.5401210188865662
vn -0.07314651125668623 0.03215157838971126 -0.9968028209721449
vn 0 0.13061782037864575 -0.9914327939903601
vn 7.980412854132569e-9 0.1716422455629501 -0.9851593472825133
vn -0.21001524719585116 0.13114463968471282 -0.9688625699381892
vn -0.07314651125668623 0.03215157838971126 -0.9968028209721449
vn 7.980412854132569e-9 0.1716422455629501 -0.9851593472825133
vn 0.07607178497473 0.05894719315215869 -0.9953583836740615
vn 0.0866321484906366 0.17628018747628146 -0.9805203548887822
vn 7.980412854132569e-9 0.1716422455629501 -0.9851593472825133
vn 0 0.13061782037864575 -0.9914327939903601
vn 0.07607178497473 0.05894719315215869 -0.9953583836740615
vn 7.980412854132569e-9 0.1716422455629501 -0.9851593472825133
vn 0.06245025531311218 0.4854301443408316 -0.8720421667422777
vn -0.061160042129209516 0.6497467876582974 -0.7576863210950008
vn 0.15725995859311354 0.5936266315209673 -0.7892253973183847
vn 0.0020877163579885454 0.4001734621115136 -0.9164370363871671
vn 0.06245025531311218 0.4854301443408316 -0.8720421667422777
vn 0.15725995859311354 0.5936266315209673 -0.7892253973183847
vn 0.0866321484906366 0.17628018747628146 -0.9805203548887822
vn 0.06245025531311218 0.4854301443408316 -0.8720421667422777
vn 0.0020877163579885454 0.4001734621115136 -0.9164370363871671
vn 7.980412854132569e-9 0.1716422455629501 -0.9851593472825133
vn 0.0866321484906366 0.17628018747628146 -0.9805203548887822
vn 0.0020877163579885454 0.4001734621115136 -0.9164370363871671
vn -0.07507635955889537 0.6278960931029391 -0.7746676942415043
vn -0.03888173103227989 0.4350169086251496 -0.8995824032306055
vn 0.0020877163579885454 0.4001734621115136 -0.9164370363871671
vn 0.15725995859311354 0.5936266315209673 -0.7892253973183847
vn -0.07507635955889537 0.6278960931029391 -0.7746676942415043
vn 0.0020877163579885454 0.4001734621115136 -0.9164370363871671
vn 0.07607178497473 0.05894719315215869 -0.9953583836740615
vn 0.17957988187087795 0.17961664303514566 -0.967206765677343
vn -0.11996046731729508 0.18781811757799183 -0.9748506762527663
vn 0.0866321484906366 0.17628018747628146 -0.9805203548887822
vn 0.07607178497473 0.05894719315215869 -0.9953583836740615
vn -0.11996046731729508 0.18781811757799183 -0.9748506762527663
vn 0.16136282349366707 0.34703706978724447 -0.92386541843909
vn -0.06908356439234681 0.34545961226854977 -0.9358873422704849
vn -0.11996046731729508 0.18781811757799183 -0.9748506762527663
vn 0.17957988187087795 0.17961664303514566 -0.967206765677343
vn 0.16136282349366707 0.34703706978724447 -0.92386541843909
vn -0.11996046731729508 0.18781811757799183 -0.9748506762527663
vn 0.003928260314833707 0.24128366409546237 -0.9704466817973914
vn -0.17008000735524975 0.08012771707556017 -0.9821671650255354
vn 0.17044013396112806 0.1993356009002002 -0.9649950668003796
vn 0.2657183365730664 0.30693783859338314 -0.9138834328558894
vn 0.003928260314833707 0.24128366409546237 -0.9704466817973914
vn 0.17044013396112806 0.1993356009002002 -0.9649950668003796
vn -0.07314651125668623 0.03215157838971126 -0.9968028209721449
vn -0.21001524719585116 0.13114463968471282 -0.9688625699381892
vn 0.17044013396112806 0.1993356009002002 -0.9649950668003796
vn -0.17008000735524975 0.08012771707556017 -0.9821671650255354
vn -0.07314651125668623 0.03215157838971126 -0.9968028209721449
vn 0.17044013396112806 0.1993356009002002 -0.9649950668003796
vn 0.21440418647220666 0.438302230164722 -0.8728814351650642
vn -0.07507635955889537 0.6278960931029391 -0.7746676942415043
vn -0.20426689922035515 0.5400468533537033 -0.8164707159878208
vn -0.11996046731729508 0.18781811757799183 -0.9748506762527663
vn -0.06908356439234681 0.34545961226854977 -0.9358873422704849
vn -0.20807735660155238 0.3871084181564882 -0.8982487886226688
vn 0.20503604119273017 0.5282409115695088 -0.8239670874229306
vn -0.061160042129209516 0.6497467876582974 -0.7576863210950008
vn -0.20807735660155238 0.3871084181564882 -0.8982487886226688
vn -0.03888173103227989 0.4350169086251496 -0.8995824032306055
vn -0.07507635955889537 0.6278960931029391 -0.7746676942415043
vn 0.21440418647220666 0.438302230164722 -0.8728814351650642
vn 0.49116143687397734 0.5279844093988453 -0.6928152036146743
vn -0.06908356439234681 0.34545961226854977 -0.9358873422704849
vn 0.16136282349366707 0.34703706978724447 -0.92386541843909
vn 0.17044013396112806 0.1993356009002002 -0.9649950668003796
vn 0.21440418647220666 0.438302230164722 -0.8728814351650642
vn 0.2657183365730664 0.30693783859338314 -0.9138834328558894
vn 0.0020877163579885454 0.4001734621115136 -0.9164370363871671
vn -0.03888173103227989 0.4350169086251496 -0.8995824032306055
vn -0.21001524719585116 0.13114463968471282 -0.9688625699381892
vn 7.980412854132569e-9 0.1716422455629501 -0.9851593472825133
vn 0.0020877163579885454 0.4001734621115136 -0.9164370363871671
vn -0.21001524719585116 0.13114463968471282 -0.9688625699381892
vn -0.20807735660155238 0.3871084181564882 -0.8982487886226688
vn -0.061160042129209516 0.6497467876582974 -0.7576863210950008
vn 0.06245025531311218 0.4854301443408316 -0.8720421667422777
vn -0.20807735660155238 0.3871084181564882 -0.8982487886226688
vn 0.06245025531311218 0.4854301443408316 -0.8720421667422777
vn 0.0866321484906366 0.17628018747628146 -0.9805203548887822
vn -0.11996046731729508 0.18781811757799183 -0.9748506762527663
vn -0.20807735660155238 0.3871084181564882 -0.8982487886226688
vn 0.0866321484906366 0.17628018747628146 -0.9805203548887822
vn 0.17044013396112806 0.1993356009002002 -0.9649950668003796
vn -0.21001524719585116 0.13114463968471282 -0.9688625699381892
vn -0.03888173103227989 0.4350169086251496 -0.8995824032306055
vn 0.21440418647220666 0.438302230164722 -0.8728814351650642
vn 0.17044013396112806 0.1993356009002002 -0.9649950668003796
vn -0.03888173103227989 0.4350169086251496 -0.8995824032306055
f 1/1/1 2/2/2 3/3/3
f 4/4/4 5/5/5 6/6/6
f 7/7/7 8/8/8 9/9/9
f 10/10/10 11/11/11 12/12/12
f 13/13/13 14/14/14 15/15/15
f 16/16/16 17/17/17 18/18/18
f 19/19/19 20/20/20 21/21/21
f 22/22/22 23/23/23 24/24/24
f 25/25/25 26/26/26 27/27/27
f 28/28/28 29/29/29 30/30/30
f 31/31/31 32/32/32 33/33/33
f 34/34/34 35/35/35 36/36/36
f 37/37/37 38/38/38 39/39/39
f 40/40/40 41/41/41 42/42/42
f 43/43/43 44/44/44 45/45/45
f 46/46/46 47/47/47 48/48/48
f 49/49/49 50/50/50 51/51/51
f 52/52/52 53/53/53 54/54/54
f 55/55/55 56/56/56 57/57/57
f 58/58/58 59/59/59 60/60/60
f 61/61/61 62/62/62 63/63/63
f 64/64/64 65/65/65 66/66/66
f 67/67/67 68/68/68 69/69/69
f 70/70/70 71/71/71 72/72/72
f 73/73/73 74/74/74 75/75/75
f 76/76/76 77/77/77 78/78/78
f 79/79/79 80/80/80 81/81/81
f 82/82/82 83/83/83 84/84/84
f 85/85/85 86/86/86 87/87/87
f 88/88/88 89/89/89 90/90/90
f 91/91/91 92/92/92 93/93/93
