mtllib ArcadaCompleta.mtl
o D33C_CL
usemtl Esmalte
v 17.52239990234375 -22.261272430419922 -3.4353104685400857
v 17.11680030822754 -24.791032791137695 -3.2060006712530993
v 16.025800704956055 -24.828632354736328 -3.492240533695116
v 16.025800704956055 -22.261272430419922 -3.7692404841040505
v 17.52239990234375 -22.261272430419922 -3.4353104685400857
v 16.025800704956055 -24.828632354736328 -3.492240533695116
v 16.025800704956055 -22.261272430419922 -3.7692404841040505
v 15.251799583435059 -20.734432220458984 -3.252440557346238
v 16.025800704956055 -20.734432220458984 -3.2385705565070046
v 13.815400123596191 -22.261272430419922 -2.5498305414770974
v 14.523799896240234 -22.261272430419922 -3.4353104685400857
v 14.934700012207031 -24.791032791137695 -3.2060006712530993
v 14.00529956817627 -24.30023193359375 -2.4447806929205793
v 13.815400123596191 -22.261272430419922 -2.5498305414770974
v 14.934700012207031 -24.791032791137695 -3.2060006712530993
v 16.025800704956055 -22.261272430419922 -3.7692404841040505
v 16.79640007019043 -20.734432220458984 -3.252440557346238
v 17.429899215698242 -20.734432220458984 -3.094800577030076
v 17.52239990234375 -22.261272430419922 -3.4353104685400857
v 16.025800704956055 -22.261272430419922 -3.7692404841040505
v 17.429899215698242 -20.734432220458984 -3.094800577030076
v 17.11680030822754 -24.791032791137695 -3.2060006712530993
v 17.52239990234375 -22.261272430419922 -3.4353104685400857
v 18.236099243164062 -22.261272430419922 -2.5498305414770974
v 18.046199798583984 -24.30023193359375 -2.4447806929205793
v 17.11680030822754 -24.791032791137695 -3.2060006712530993
v 18.236099243164062 -22.261272430419922 -2.5498305414770974
v 14.934700012207031 -24.791032791137695 -3.2060006712530993
v 14.523799896240234 -22.261272430419922 -3.4353104685400857
v 16.025800704956055 -22.261272430419922 -3.7692404841040505
v 16.025800704956055 -24.828632354736328 -3.492240533695116
v 14.934700012207031 -24.791032791137695 -3.2060006712530993
v 16.025800704956055 -22.261272430419922 -3.7692404841040505
v 16.025800704956055 -20.734432220458984 -3.2385705565070046
v 16.79640007019043 -20.734432220458984 -3.252440557346238
v 16.025800704956055 -22.261272430419922 -3.7692404841040505
v 15.251799583435059 -20.734432220458984 -3.252440557346238
v 16.025800704956055 -22.261272430419922 -3.7692404841040505
v 14.523799896240234 -22.261272430419922 -3.4353104685400857
v 14.621700286865234 -20.734432220458984 -3.094800577030076
v 15.251799583435059 -20.734432220458984 -3.252440557346238
v 14.523799896240234 -22.261272430419922 -3.4353104685400857
vt 0.712863028049469 0.23288202285766602
vt 0.655174970626831 0.0038968324661254883
vt 0.5 0.000499427318572998
vt 0.5 0.23288202285766602
vt 0.712863028049469 0.23288202285766602
vt 0.5 0.000499427318572998
vt 0.5 0.23288202285766602
vt 0.3899269998073578 0.3710860013961792
vt 0.5 0.3710860013961792
vt 0.8379039764404297 0.23288202285766602
vt 0.955249011516571 0.23288202285766602
vt 0.9248600006103516 0.0038968324661254883
vt 0.2126390039920807 0.04832422733306885
vt 0.18563799560070038 0.23288202285766602
vt 0.34482499957084656 0.0038968324661254883
vt 0.5 0.23288202285766602
vt 0.6095970273017883 0.3710860013961792
vt 0.6996999979019165 0.3710860013961792
vt 0.712863028049469 0.23288202285766602
vt 0.5 0.23288202285766602
vt 0.6996999979019165 0.3710860013961792
vt 0.07514040172100067 0.0038968324661254883
vt 0.04475110024213791 0.23288202285766602
vt 0.16209599375724792 0.23288202285766602
vt 0.7873610258102417 0.04832422733306885
vt 0.655174970626831 0.0038968324661254883
vt 0.8143619894981384 0.23288202285766602
vt 0.34482499957084656 0.0038968324661254883
vt 0.28637799620628357 0.23288202285766602
vt 0.5 0.23288202285766602
vt 0.5 0.000499427318572998
vt 0.34482499957084656 0.0038968324661254883
vt 0.5 0.23288202285766602
vt 0.5 0.3710860013961792
vt 0.6095970273017883 0.3710860013961792
vt 0.5 0.23288202285766602
vt 0.3899269998073578 0.3710860013961792
vt 0.5 0.23288202285766602
vt 0.28637799620628357 0.23288202285766602
vt 0.3003000020980835 0.3710860013961792
vt 0.3899269998073578 0.3710860013961792
vt 0.28637799620628357 0.23288202285766602
vn 0.37571827616034187 -0.06606686297937386 -0.9243759768487959
vn 0.5785482039043073 -0.14301394196238293 -0.8030124458334879
vn 0.08903279395955359 -0.11414872208007416 -0.9894661342599056
vn -0.02677790670584968 0.04818600891296693 -0.9984793699709036
vn 0.37571827616034187 -0.06606686297937386 -0.9243759768487959
vn 0.08903279395955359 -0.11414872208007416 -0.9894661342599056
vn -0.02677790670584968 0.04818600891296693 -0.9984793699709036
vn -0.1570724512926493 0.24948638137829873 -0.9555547030660675
vn 6.714274192793092e-9 0.32829715447483226 -0.9445744959312251
vn -0.722778798898213 -0.14450573956162593 -0.6758024112838042
vn -0.3976019406476076 -0.026970349819330355 -0.9171615435809982
vn -0.4661638737429482 -0.13317604364977628 -0.8746172787080997
vn -0.6615121591301485 -0.09990345873946639 -0.7432502689235039
vn -0.722778798898213 -0.14450573956162593 -0.6758024112838042
vn -0.4661638737429482 -0.13317604364977628 -0.8746172787080997
vn -0.02677790670584968 0.04818600891296693 -0.9984793699709036
vn 0.09795182073133775 0.2743590230386386 -0.9566256150097068
vn 0.21944334997200812 0.21823346509587016 -0.9509041859542487
vn 0.37571827616034187 -0.06606686297937386 -0.9243759768487959
vn -0.02677790670584968 0.04818600891296693 -0.9984793699709036
vn 0.21944334997200812 0.21823346509587016 -0.9509041859542487
vn 0.5785482039043073 -0.14301394196238293 -0.8030124458334879
vn 0.37571827616034187 -0.06606686297937386 -0.9243759768487959
vn 0.7216162528388963 -0.1436202793626859 -0.6772320126769954
vn 0.6615125351103521 -0.09990347641225082 -0.7432499319156524
vn 0.5785482039043073 -0.14301394196238293 -0.8030124458334879
vn 0.7216162528388963 -0.1436202793626859 -0.6772320126769954
vn -0.4661638737429482 -0.13317604364977628 -0.8746172787080997
vn -0.3976019406476076 -0.026970349819330355 -0.9171615435809982
vn -0.02677790670584968 0.04818600891296693 -0.9984793699709036
vn 0.08903279395955359 -0.11414872208007416 -0.9894661342599056
vn -0.4661638737429482 -0.13317604364977628 -0.8746172787080997
vn -0.02677790670584968 0.04818600891296693 -0.9984793699709036
vn 6.714274192793092e-9 0.32829715447483226 -0.9445744959312251
vn 0.09795182073133775 0.2743590230386386 -0.9566256150097068
vn -0.02677790670584968 0.04818600891296693 -0.9984793699709036
vn -0.1570724512926493 0.24948638137829873 -0.9555547030660675
vn -0.02677790670584968 0.04818600891296693 -0.9984793699709036
vn -0.3976019406476076 -0.026970349819330355 -0.9171615435809982
vn -0.23642793989294264 0.22591450047354508 -0.9450208821575149
vn -0.1570724512926493 0.24948638137829873 -0.9555547030660675
vn -0.3976019406476076 -0.026970349819330355 -0.9171615435809982
f 1/1/1 2/2/2 3/3/3
f 4/4/4 5/5/5 6/6/6
f 7/7/7 8/8/8 9/9/9
f 10/10/10 11/11/11 12/12/12
f 13/13/13 14/14/14 15/15/15
f 16/16/16 17/17/17 18/18/18
f 19/19/19 20/20/20 21/21/21
f 22/22/22 23/23/23 24/24/24
f 25/25/25 26/26/26 27/27/27
f 28/28/28 29/29/29 30/30/30
f 31/31/31 32/32/32 33/33/33
f 34/34/34 35/35/35 36/36/36
f 37/37/37 38/38/38 39/39/39
f 40/40/40 41/41/41 42/42/42
