mtllib ArcadaCompleta.mtl
o D33C_CV
usemtl Esmalte
v 17.28619956970215 -22.261272430419922 3.5496593858147727
v 17.429899215698242 -20.734432220458984 3.3006194974328147
v 16.025800704956055 -20.734432220458984 3.615909471645461
v 16.025800704956055 -22.261272430419922 3.7692393208886252
v 17.28619956970215 -22.261272430419922 3.5496593858147727
v 16.025800704956055 -20.734432220458984 3.615909471645461
v 14.621700286865234 -20.734432220458984 3.3006194974328147
v 14.765299797058105 -22.261272430419922 3.5496593858147727
v 16.025800704956055 -22.261272430419922 3.7692393208886252
v 16.025800704956055 -20.734432220458984 3.615909471645461
v 14.621700286865234 -20.734432220458984 3.3006194974328147
v 16.025800704956055 -22.261272430419922 3.7692393208886252
v 14.165900230407715 -20.734432220458984 2.960649385585891
v 13.815400123596191 -22.261272430419922 2.549829378261672
v 14.765299797058105 -22.261272430419922 3.5496593858147727
v 14.621700286865234 -20.734432220458984 3.3006194974328147
v 14.165900230407715 -20.734432220458984 2.960649385585891
v 14.765299797058105 -22.261272430419922 3.5496593858147727
v 17.28619956970215 -22.261272430419922 3.5496593858147727
v 18.236099243164062 -22.261272430419922 2.549829378261672
v 17.88559913635254 -20.734432220458984 2.960649385585891
v 17.429899215698242 -20.734432220458984 3.3006194974328147
v 17.28619956970215 -22.261272430419922 3.5496593858147727
v 17.88559913635254 -20.734432220458984 2.960649385585891
vt 0.32073599100112915 0.23288202285766602
vt 0.3003000020980835 0.3710860013961792
vt 0.5 0.3710860013961792
vt 0.5 0.23288202285766602
vt 0.32073599100112915 0.23288202285766602
vt 0.5 0.3710860013961792
vt 0.6996999979019165 0.3710860013961792
vt 0.6792629957199097 0.23288202285766602
vt 0.5 0.23288202285766602
vt 0.5 0.3710860013961792
vt 0.6996999979019165 0.3710860013961792
vt 0.5 0.23288202285766602
vt 0.10765299946069717 0.3710860013961792
vt 0.16209599375724792 0.23288202285766602
vt 0.029597900807857513 0.23288202285766602
vt 0.6996999979019165 0.3710860013961792
vt 0.7645159959793091 0.3710860013961792
vt 0.6792629957199097 0.23288202285766602
vt 0.9704020023345947 0.23288202285766602
vt 0.8379039764404297 0.23288202285766602
vt 0.892346978187561 0.3710860013961792
vt 0.3003000020980835 0.3710860013961792
vt 0.32073599100112915 0.23288202285766602
vt 0.23548300564289093 0.3710860013961792
vn 0.4171378848083357 0.07614064847666194 0.9056481583414066
vn 0.3298380772320786 0.12165328127666093 0.9361662896956219
vn 0.05354060513066519 0.11385074014900304 0.9920541379228084
vn -0.0795471598747886 0.11417090640407918 0.9902713029704162
vn 0.4171378848083357 0.07614064847666194 0.9056481583414066
vn 0.05354060513066519 0.11385074014900304 0.9920541379228084
vn -0.26822577135696224 0.11292703449033492 0.9567143881332513
vn -0.5037919348025681 0.06501874411692915 0.8613746277557415
vn -0.0795471598747886 0.11417090640407918 0.9902713029704162
vn 0.05354060513066519 0.11385074014900304 0.9920541379228084
vn -0.26822577135696224 0.11292703449033492 0.9567143881332513
vn -0.0795471598747886 0.11417090640407918 0.9902713029704162
vn -0.6899112302915308 0.008396182014434072 0.7238452862630295
vn -0.7248478542378349 -0.018896458697976713 0.6886497745991659
vn -0.5037919348025681 0.06501874411692915 0.8613746277557415
vn -0.26822577135696224 0.11292703449033492 0.9567143881332513
vn -0.6899112302915308 0.008396182014434072 0.7238452862630295
vn -0.5037919348025681 0.06501874411692915 0.8613746277557415
vn 0.4171378848083357 0.07614064847666194 0.9056481583414066
vn 0.7248478540337329 -0.018896473593817072 0.6886497744052564
vn 0.689937073066096 0.008376595058515904 0.7238208810639647
vn 0.3298380772320786 0.12165328127666093 0.9361662896956219
vn 0.4171378848083357 0.07614064847666194 0.9056481583414066
vn 0.689937073066096 0.008376595058515904 0.7238208810639647
f 1/1/1 2/2/2 3/3/3
f 4/4/4 5/5/5 6/6/6
f 7/7/7 8/8/8 9/9/9
f 10/10/10 11/11/11 12/12/12
f 13/13/13 14/14/14 15/15/15
f 16/16/16 17/17/17 18/18/18
f 19/19/19 20/20/20 21/21/21
f 22/22/22 23/23/23 24/24/24
