mtllib ArcadaCompleta.mtl
o D34C_CL
usemtl Esmalte
v 25.16990089416504 -17.510963439941406 -2.8230005358313446
v 26.194000244140625 -17.538522720336914 -2.0905104731177215
v 26.439599990844727 -18.00069236755371 -2.345650539264572
v 25.154800415039062 -17.999553680419922 -3.2581006144141083
v 25.16990089416504 -17.510963439941406 -2.8230005358313446
v 26.439599990844727 -18.00069236755371 -2.345650539264572
v 22.407100677490234 -17.8468017578125 -2.428420648441208
v 22.201400756835938 -18.31146240234375 -2.812800512180222
v 21.563600540161133 -18.0797119140625 -2.3766006086920624
v 21.779499053955078 -17.595691680908203 -2.033330545291794
v 22.407100677490234 -17.8468017578125 -2.428420648441208
v 21.563600540161133 -18.0797119140625 -2.3766006086920624
v 23.47369956970215 -17.439863204956055 -2.9111205195044403
v 23.986799240112305 -17.398483276367188 -3.3498905752753143
v 23.986799240112305 -17.645692825317383 -3.507750615939987
v 23.037399291992188 -17.72846221923828 -2.7902906988715057
v 23.47369956970215 -17.439863204956055 -2.9111205195044403
v 23.986799240112305 -17.645692825317383 -3.507750615939987
v 22.88129997253418 -18.183551788330078 -3.20083056436528
v 23.037399291992188 -17.72846221923828 -2.7902906988715057
v 23.986799240112305 -17.645692825317383 -3.507750615939987
v 24.61669921875 -17.331111907958984 -2.927470550403488
v 23.986799240112305 -17.378782272338867 -2.5943506811713104
v 23.986799240112305 -17.389041900634766 -2.293960676059616
v 25.16990089416504 -17.510963439941406 -2.8230005358313446
v 24.61669921875 -17.331111907958984 -2.927470550403488
v 23.986799240112305 -17.389041900634766 -2.293960676059616
v 24.954200744628906 -17.82355308532715 -2.09957061754216
v 25.16990089416504 -17.510963439941406 -2.8230005358313446
v 23.986799240112305 -17.389041900634766 -2.293960676059616
v 23.47369956970215 -17.439863204956055 -2.9111205195044403
v 23.986799240112305 -17.378782272338867 -2.5943506811713104
v 23.986799240112305 -17.151262283325195 -3.031950578555954
v 23.986799240112305 -17.398483276367188 -3.3498905752753143
v 23.47369956970215 -17.439863204956055 -2.9111205195044403
v 23.986799240112305 -17.151262283325195 -3.031950578555954
v 23.47369956970215 -17.439863204956055 -2.9111205195044403
v 23.037399291992188 -17.72846221923828 -2.7902906988715057
v 23.01930046081543 -17.800682067871094 -2.09957061754216
v 23.986799240112305 -17.378782272338867 -2.5943506811713104
v 23.47369956970215 -17.439863204956055 -2.9111205195044403
v 23.01930046081543 -17.800682067871094 -2.09957061754216
v 23.986799240112305 -17.389041900634766 -2.293960676059616
v 23.986799240112305 -17.378782272338867 -2.5943506811713104
v 23.01930046081543 -17.800682067871094 -2.09957061754216
v 24.954200744628906 -17.82355308532715 -2.09957061754216
v 25.70639991760254 -17.619672775268555 -1.5300205801581266
v 26.194000244140625 -17.538522720336914 -2.0905104731177215
v 25.16990089416504 -17.510963439941406 -2.8230005358313446
v 24.954200744628906 -17.82355308532715 -2.09957061754216
v 26.194000244140625 -17.538522720336914 -2.0905104731177215
v 24.61669921875 -17.331111907958984 -2.927470550403488
v 25.16990089416504 -17.510963439941406 -2.8230005358313446
v 25.154800415039062 -17.999553680419922 -3.2581006144141083
v 23.986799240112305 -17.398483276367188 -3.3498905752753143
v 24.61669921875 -17.331111907958984 -2.927470550403488
v 25.154800415039062 -17.999553680419922 -3.2581006144141083
v 23.986799240112305 -17.645692825317383 -3.507750615939987
v 23.986799240112305 -17.398483276367188 -3.3498905752753143
v 25.154800415039062 -17.999553680419922 -3.2581006144141083
v 22.407100677490234 -17.8468017578125 -2.428420648441208
v 22.69070053100586 -18.106462478637695 -2.601110563144577
v 22.5625 -18.461313247680664 -2.878420696124924
v 22.201400756835938 -18.31146240234375 -2.812800512180222
v 22.407100677490234 -17.8468017578125 -2.428420648441208
v 22.5625 -18.461313247680664 -2.878420696124924
v 23.037399291992188 -17.72846221923828 -2.7902906988715057
v 22.88129997253418 -18.183551788330078 -3.20083056436528
v 22.5625 -18.461313247680664 -2.878420696124924
v 22.69070053100586 -18.106462478637695 -2.601110563144577
v 23.037399291992188 -17.72846221923828 -2.7902906988715057
v 22.5625 -18.461313247680664 -2.878420696124924
v 22.407100677490234 -17.8468017578125 -2.428420648441208
v 23.01930046081543 -17.800682067871094 -2.09957061754216
v 22.69070053100586 -18.106462478637695 -2.601110563144577
v 23.01930046081543 -17.800682067871094 -2.09957061754216
v 23.037399291992188 -17.72846221923828 -2.7902906988715057
v 22.69070053100586 -18.106462478637695 -2.601110563144577
v 22.407100677490234 -17.8468017578125 -2.428420648441208
v 21.779499053955078 -17.595691680908203 -2.033330545291794
v 22.26919937133789 -17.670612335205078 -1.5764505718802335
v 23.01930046081543 -17.800682067871094 -2.09957061754216
v 22.407100677490234 -17.8468017578125 -2.428420648441208
v 22.26919937133789 -17.670612335205078 -1.5764505718802335
v 23.986799240112305 -17.151262283325195 -3.031950578555954
v 23.986799240112305 -17.378782272338867 -2.5943506811713104
v 24.61669921875 -17.331111907958984 -2.927470550403488
v 23.986799240112305 -17.151262283325195 -3.031950578555954
v 24.61669921875 -17.331111907958984 -2.927470550403488
v 23.986799240112305 -17.398483276367188 -3.3498905752753143
vt 0.6692780256271362 0.5765140056610107
vt 0.8158169984817505 0.5732700228691101
vt 0.8509520292282104 0.518875002861023
vt 0.6671289801597595 0.5190100073814392
vt 0.6692780256271362 0.5765140056610107
vt 0.8509520292282104 0.518875002861023
vt 0.2739819884300232 0.5369870066642761
vt 0.24455100297927856 0.4823000431060791
vt 0.15330000221729279 0.5095750093460083
vt 0.1841830015182495 0.5665410161018372
vt 0.2739819884300232 0.5369870066642761
vt 0.15330000221729279 0.5095750093460083
vt 0.4265879988670349 0.5848820209503174
vt 0.5 0.5897529721260071
vt 0.5 0.5606570243835449
vt 0.3641589879989624 0.550915002822876
vt 0.4265879988670349 0.5848820209503174
vt 0.5 0.5606570243835449
vt 0.6581760048866272 0.9156259894371033
vt 0.6358410120010376 0.8609049916267395
vt 0.5 0.9565359950065613
vt 0.409868985414505 0.8791900277137756
vt 0.5 0.8347870111465454
vt 0.5 0.7947480082511902
vt 0.33072200417518616 0.8652639985084534
vt 0.409868985414505 0.8791900277137756
vt 0.5 0.7947480082511902
vt 0.3615800142288208 0.7688379883766174
vt 0.33072200417518616 0.8652639985084534
vt 0.5 0.7947480082511902
vt 0.5734120011329651 0.8770099878311157
vt 0.5 0.8347870111465454
vt 0.5 0.8931149840354919
vt 0.5 0.9354950189590454
vt 0.5734120011329651 0.8770099878311157
vt 0.5 0.8931149840354919
vt 0.5734120011329651 0.8770099878311157
vt 0.6358410120010376 0.8609049916267395
vt 0.6384209990501404 0.7688379883766174
vt 0.5 0.8347870111465454
vt 0.5734120011329651 0.8770099878311157
vt 0.6384209990501404 0.7688379883766174
vt 0.5 0.7947480082511902
vt 0.5 0.8347870111465454
vt 0.6384209990501404 0.7688379883766174
vt 0.3615800142288208 0.7688379883766174
vt 0.2539539933204651 0.692920982837677
vt 0.1841839998960495 0.7676299810409546
vt 0.33072200417518616 0.8652639985084534
vt 0.3615800142288208 0.7688379883766174
vt 0.1841839998960495 0.7676299810409546
vt 0.5901309847831726 0.5976809859275818
vt 0.6692780256271362 0.5765140056610107
vt 0.6671289801597595 0.5190100073814392
vt 0.5 0.5897529721260071
vt 0.5901309847831726 0.5976809859275818
vt 0.6671289801597595 0.5190100073814392
vt 0.5 0.5606570243835449
vt 0.5 0.5897529721260071
vt 0.6671289801597595 0.5190100073814392
vt 0.2739819884300232 0.5369870066642761
vt 0.3145590126514435 0.506426990032196
vt 0.2962220013141632 0.464663028717041
vt 0.24455100297927856 0.4823000431060791
vt 0.2739819884300232 0.5369870066642761
vt 0.2962220013141632 0.464663028717041
vt 0.8609049916267395 0.550915002822876
vt 0.9156259894371033 0.49735403060913086
vt 0.872651994228363 0.464663028717041
vt 0.8356879949569702 0.506426990032196
vt 0.8609049916267395 0.550915002822876
vt 0.872651994228363 0.464663028717041
vt 0.7260180115699768 0.8126699924468994
vt 0.6384209990501404 0.7688379883766174
vt 0.6854410171508789 0.8356879949569702
vt 0.7688379883766174 0.5424150228500366
vt 0.8609049916267395 0.550915002822876
vt 0.8356879949569702 0.506426990032196
vt 0.7260180115699768 0.8126699924468994
vt 0.8158169984817505 0.7600089907646179
vt 0.7457460165023804 0.6991099715232849
vt 0.6384209990501404 0.7688379883766174
vt 0.7260180115699768 0.8126699924468994
vt 0.7457460165023804 0.6991099715232849
vt 0.5 0.8931149840354919
vt 0.5 0.8347870111465454
vt 0.409868985414505 0.8791900277137756
vt 0.5 0.8931149840354919
vt 0.409868985414505 0.8791900277137756
vt 0.5 0.9354950189590454
vn 0.3076626598122366 0.9406547958017776 -0.14322095828605522
vn -0.011701733776791555 0.9961085891349468 -0.08735415318233547
vn 0.4734401687188229 0.5897562709070705 -0.6542491479316414
vn 0.40309026031110773 0.5938112616977548 -0.6963522294954214
vn 0.3076626598122366 0.9406547958017776 -0.14322095828605522
vn 0.4734401687188229 0.5897562709070705 -0.6542491479316414
vn 0.023354755499994537 0.8365753741075026 -0.5473538150341402
vn -0.11778381540670434 0.663405720576208 -0.738931541304742
vn -0.224952578172944 0.6539784063024445 -0.7222939717756616
vn 0.04394008237439214 0.8732782638475675 -0.48523637853350415
vn 0.023354755499994537 0.8365753741075026 -0.5473538150341402
vn -0.224952578172944 0.6539784063024445 -0.7222939717756616
vn -0.49947669263069217 0.8596127484877302 -0.10765201417565654
vn 0.14118777211471042 0.6707273719790067 -0.7281420228797538
vn -0.3589365848950933 0.6244232851497801 -0.6937291178742636
vn -0.6372054390661007 0.685653998459577 -0.3519201938237876
vn -0.49947669263069217 0.8596127484877302 -0.10765201417565654
vn -0.3589365848950933 0.6244232851497801 -0.6937291178742636
vn -0.5860563776503904 0.6442835557451365 -0.4913620070901965
vn -0.6372054390661007 0.685653998459577 -0.3519201938237876
vn -0.3589365848950933 0.6244232851497801 -0.6937291178742636
vn 0.3193087352423358 0.8981637916754583 -0.30223126066160627
vn -0.20799613620814697 0.9415022259344348 0.26516252729785633
vn 0.13114810186883522 0.9384262106681707 0.3196191835719188
vn 0.3076626598122366 0.9406547958017776 -0.14322095828605522
vn 0.3193087352423358 0.8981637916754583 -0.30223126066160627
vn 0.13114810186883522 0.9384262106681707 0.3196191835719188
vn -0.04750894979051819 0.9587689182499303 0.28018754627509806
vn 0.3076626598122366 0.9406547958017776 -0.14322095828605522
vn 0.13114810186883522 0.9384262106681707 0.3196191835719188
vn -0.49947669263069217 0.8596127484877302 -0.10765201417565654
vn -0.20799613620814697 0.9415022259344348 0.26516252729785633
vn -0.09505371515028414 0.9951338934715175 -0.025948512488144452
vn 0.14118777211471042 0.6707273719790067 -0.7281420228797538
vn -0.49947669263069217 0.8596127484877302 -0.10765201417565654
vn -0.09505371515028414 0.9951338934715175 -0.025948512488144452
vn -0.49947669263069217 0.8596127484877302 -0.10765201417565654
vn -0.6372054390661007 0.685653998459577 -0.3519201938237876
vn -0.2797637063967657 0.9594945153635511 -0.03320457152875747
vn -0.20799613620814697 0.9415022259344348 0.26516252729785633
vn -0.49947669263069217 0.8596127484877302 -0.10765201417565654
vn -0.2797637063967657 0.9594945153635511 -0.03320457152875747
vn 0.13114810186883522 0.9384262106681707 0.3196191835719188
vn -0.20799613620814697 0.9415022259344348 0.26516252729785633
vn -0.2797637063967657 0.9594945153635511 -0.03320457152875747
vn -0.04750894979051819 0.9587689182499303 0.28018754627509806
vn -0.2233650753012997 0.9732708527592953 -0.0534030926523825
vn -0.011701733776791555 0.9961085891349468 -0.08735415318233547
vn 0.3076626598122366 0.9406547958017776 -0.14322095828605522
vn -0.04750894979051819 0.9587689182499303 0.28018754627509806
vn -0.011701733776791555 0.9961085891349468 -0.08735415318233547
vn 0.3193087352423358 0.8981637916754583 -0.30223126066160627
vn 0.3076626598122366 0.9406547958017776 -0.14322095828605522
vn 0.40309026031110773 0.5938112616977548 -0.6963522294954214
vn 0.14118777211471042 0.6707273719790067 -0.7281420228797538
vn 0.3193087352423358 0.8981637916754583 -0.30223126066160627
vn 0.40309026031110773 0.5938112616977548 -0.6963522294954214
vn -0.3589365848950933 0.6244232851497801 -0.6937291178742636
vn 0.14118777211471042 0.6707273719790067 -0.7281420228797538
vn 0.40309026031110773 0.5938112616977548 -0.6963522294954214
vn 0.023354755499994537 0.8365753741075026 -0.5473538150341402
vn -0.40417676562842125 0.8007243758202021 -0.4421330298603536
vn -0.4645568061665425 0.6525673348273688 -0.5986174465889263
vn -0.11778381540670434 0.663405720576208 -0.738931541304742
vn 0.023354755499994537 0.8365753741075026 -0.5473538150341402
vn -0.4645568061665425 0.6525673348273688 -0.5986174465889263
vn -0.6372054390661007 0.685653998459577 -0.3519201938237876
vn -0.5860563776503904 0.6442835557451365 -0.4913620070901965
vn -0.4645568061665425 0.6525673348273688 -0.5986174465889263
vn -0.40417676562842125 0.8007243758202021 -0.4421330298603536
vn -0.6372054390661007 0.685653998459577 -0.3519201938237876
vn -0.4645568061665425 0.6525673348273688 -0.5986174465889263
vn 0.023354755499994537 0.8365753741075026 -0.5473538150341402
vn -0.2797637063967657 0.9594945153635511 -0.03320457152875747
vn -0.40417676562842125 0.8007243758202021 -0.4421330298603536
vn -0.2797637063967657 0.9594945153635511 -0.03320457152875747
vn -0.6372054390661007 0.685653998459577 -0.3519201938237876
vn -0.40417676562842125 0.8007243758202021 -0.4421330298603536
vn 0.023354755499994537 0.8365753741075026 -0.5473538150341402
vn 0.04394008237439214 0.8732782638475675 -0.48523637853350415
vn 0.1513688641961627 0.9725686449329977 -0.1766287005136948
vn -0.2797637063967657 0.9594945153635511 -0.03320457152875747
vn 0.023354755499994537 0.8365753741075026 -0.5473538150341402
vn 0.1513688641961627 0.9725686449329977 -0.1766287005136948
vn -0.09505371515028414 0.9951338934715175 -0.025948512488144452
vn -0.20799613620814697 0.9415022259344348 0.26516252729785633
vn 0.3193087352423358 0.8981637916754583 -0.30223126066160627
vn -0.09505371515028414 0.9951338934715175 -0.025948512488144452
vn 0.3193087352423358 0.8981637916754583 -0.30223126066160627
vn 0.14118777211471042 0.6707273719790067 -0.7281420228797538
f 1/1/1 2/2/2 3/3/3
f 4/4/4 5/5/5 6/6/6
f 7/7/7 8/8/8 9/9/9
f 10/10/10 11/11/11 12/12/12
f 13/13/13 14/14/14 15/15/15
f 16/16/16 17/17/17 18/18/18
f 19/19/19 20/20/20 21/21/21
f 22/22/22 23/23/23 24/24/24
f 25/25/25 26/26/26 27/27/27
f 28/28/28 29/29/29 30/30/30
f 31/31/31 32/32/32 33/33/33
f 34/34/34 35/35/35 36/36/36
f 37/37/37 38/38/38 39/39/39
f 40/40/40 41/41/41 42/42/42
f 43/43/43 44/44/44 45/45/45
f 46/46/46 47/47/47 48/48/48
f 49/49/49 50/50/50 51/51/51
f 52/52/52 53/53/53 54/54/54
f 55/55/55 56/56/56 57/57/57
f 58/58/58 59/59/59 60/60/60
f 61/61/61 62/62/62 63/63/63
f 64/64/64 65/65/65 66/66/66
f 67/67/67 68/68/68 69/69/69
f 70/70/70 71/71/71 72/72/72
f 73/73/73 74/74/74 75/75/75
f 76/76/76 77/77/77 78/78/78
f 79/79/79 80/80/80 81/81/81
f 82/82/82 83/83/83 84/84/84
f 85/85/85 86/86/86 87/87/87
f 88/88/88 89/89/89 90/90/90
