mtllib ArcadaCompleta.mtl
o D34C_D
usemtl Esmalte
v 26.774900436401367 -17.459583282470703 -1.3032405232046964
v 27.20199966430664 -17.959823608398438 -1.347010598049057
v 26.439599990844727 -18.00069236755371 -2.345650539264572
v 26.194000244140625 -17.538522720336914 -2.0905104731177215
v 26.774900436401367 -17.459583282470703 -1.3032405232046964
v 26.439599990844727 -18.00069236755371 -2.345650539264572
v 27.153600692749023 -18.967172622680664 1.3200093652154081
v 27.29210090637207 -18.967172622680664 -9.764887678381068e-7
v 27.477800369262695 -17.926462173461914 -0.14425258384693904
v 27.27120018005371 -17.6367130279541 1.2025994206811068
v 27.153600692749023 -18.967172622680664 1.3200093652154081
v 27.477800369262695 -17.926462173461914 -0.14425258384693904
v 26.774900436401367 -17.459583282470703 -1.3032405232046964
v 27.109100341796875 -17.441661834716797 -0.2144905780409697
v 27.477800369262695 -17.926462173461914 -0.14425258384693904
v 27.20199966430664 -17.959823608398438 -1.347010598049057
v 26.774900436401367 -17.459583282470703 -1.3032405232046964
v 27.477800369262695 -17.926462173461914 -0.14425258384693904
v 27.109100341796875 -17.441661834716797 -0.2144905780409697
v 27.39859962463379 -17.08399200439453 0.3730554129029391
v 27.477800369262695 -17.926462173461914 -0.14425258384693904
v 27.20199966430664 -17.959823608398438 -1.347010598049057
v 27.153600692749023 -18.967172622680664 -1.3085806225394137
v 26.41119956970215 -18.967172622680664 -2.596130475864304
v 26.439599990844727 -18.00069236755371 -2.345650539264572
v 27.20199966430664 -17.959823608398438 -1.347010598049057
v 26.41119956970215 -18.967172622680664 -2.596130475864304
v 26.67840003967285 -20.592283248901367 1.3339194203759304
v 26.82430076599121 -20.592283248901367 -9.764887681989539e-7
v 27.29210090637207 -18.967172622680664 -9.764887678381068e-7
v 27.153600692749023 -18.967172622680664 1.3200093652154081
v 26.67840003967285 -20.592283248901367 1.3339194203759304
v 27.29210090637207 -18.967172622680664 -9.764887678381068e-7
v 27.39859962463379 -17.08399200439453 0.3730554129029391
v 27.21929931640625 -16.832942962646484 1.0148394252205966
v 27.27120018005371 -17.6367130279541 1.2025994206811068
v 27.477800369262695 -17.926462173461914 -0.14425258384693904
v 27.39859962463379 -17.08399200439453 0.3730554129029391
v 27.27120018005371 -17.6367130279541 1.2025994206811068
v 27.29210090637207 -18.967172622680664 -9.764887678381068e-7
v 27.153600692749023 -18.967172622680664 -1.3085806225394137
v 27.20199966430664 -17.959823608398438 -1.347010598049057
v 27.477800369262695 -17.926462173461914 -0.14425258384693904
v 27.29210090637207 -18.967172622680664 -9.764887678381068e-7
v 27.20199966430664 -17.959823608398438 -1.347010598049057
v 26.149499893188477 -20.592283248901367 -2.549200639591111
v 26.41119956970215 -18.967172622680664 -2.596130475864304
v 27.153600692749023 -18.967172622680664 -1.3085806225394137
v 26.67840003967285 -20.592283248901367 -1.3110605333899388
v 26.149499893188477 -20.592283248901367 -2.549200639591111
v 27.153600692749023 -18.967172622680664 -1.3085806225394137
v 26.82430076599121 -20.592283248901367 -9.764887681989539e-7
v 26.67840003967285 -20.592283248901367 -1.3110605333899388
v 27.153600692749023 -18.967172622680664 -1.3085806225394137
v 27.29210090637207 -18.967172622680664 -9.764887678381068e-7
v 26.82430076599121 -20.592283248901367 -9.764887681989539e-7
v 27.153600692749023 -18.967172622680664 -1.3085806225394137
v 26.774900436401367 -17.459583282470703 -1.3032405232046964
v 26.22559928894043 -17.271081924438477 -1.0553505276297452
v 27.109100341796875 -17.441661834716797 -0.2144905780409697
v 26.194000244140625 -17.538522720336914 -2.0905104731177215
v 26.22559928894043 -17.271081924438477 -1.0553505276297452
v 26.774900436401367 -17.459583282470703 -1.3032405232046964
v 26.900299072265625 -17.01312255859375 0.18578141881476617
v 27.39859962463379 -17.08399200439453 0.3730554129029391
v 25.976999282836914 -17.620012283325195 -0.8074616049384002
v 26.00860023498535 -17.053852081298828 -0.5295625780676725
v 26.900299072265625 -17.01312255859375 0.18578141881476617
v 25.976999282836914 -17.620012283325195 -0.8074616049384002
v 26.900299072265625 -17.01312255859375 0.18578141881476617
v 26.00860023498535 -17.053852081298828 -0.5295625780676725
v 26.040199279785156 -16.25899314880371 0.1142454217220425
v 27.077999114990234 -16.486682891845703 0.5401924396897434
v 26.900299072265625 -17.01312255859375 0.18578141881476617
v 26.040199279785156 -16.25899314880371 0.1142454217220425
v 26.22559928894043 -17.271081924438477 -1.0553505276297452
v 26.194000244140625 -17.538522720336914 -2.0905104731177215
v 25.70639991760254 -17.619672775268555 -1.5300205801581266
v 25.976999282836914 -17.620012283325195 -0.8074616049384002
v 26.22559928894043 -17.271081924438477 -1.0553505276297452
v 25.70639991760254 -17.619672775268555 -1.5300205801581266
v 27.21929931640625 -16.832942962646484 1.0148394252205966
v 27.39859962463379 -17.08399200439453 0.3730554129029391
v 27.077999114990234 -16.486682891845703 0.5401924396897434
v 27.39859962463379 -17.08399200439453 0.3730554129029391
v 26.900299072265625 -17.01312255859375 0.18578141881476617
v 27.077999114990234 -16.486682891845703 0.5401924396897434
v 26.22559928894043 -17.271081924438477 -1.0553505276297452
v 25.976999282836914 -17.620012283325195 -0.8074616049384002
v 27.39859962463379 -17.08399200439453 0.3730554129029391
v 27.109100341796875 -17.441661834716797 -0.2144905780409697
v 26.22559928894043 -17.271081924438477 -1.0553505276297452
v 27.39859962463379 -17.08399200439453 0.3730554129029391
v 26.040199279785156 -16.25899314880371 0.1142454217220425
v 26.00860023498535 -17.053852081298828 -0.5295625780676725
v 25.658899307250977 -16.21236228942871 0.016717018097150267
v 26.67840003967285 -20.592283248901367 -1.3110605333899388
v 26.306100845336914 -22.380582809448242 -1.3280905340765847
v 25.801000595092773 -22.34884262084961 -2.4548805807684797
v 26.149499893188477 -20.592283248901367 -2.549200639591111
v 26.67840003967285 -20.592283248901367 -1.3110605333899388
v 25.801000595092773 -22.34884262084961 -2.4548805807684797
v 26.67840003967285 -20.592283248901367 1.3339194203759304
v 26.306100845336914 -22.380582809448242 1.3280893708611594
v 26.4596004486084 -22.394271850585938 -9.764887685990757e-7
v 26.82430076599121 -20.592283248901367 -9.764887681989539e-7
v 26.67840003967285 -20.592283248901367 1.3339194203759304
v 26.4596004486084 -22.394271850585938 -9.764887685990757e-7
v 26.306100845336914 -22.380582809448242 1.3280893708611594
v 26.67840003967285 -20.592283248901367 1.3339194203759304
v 25.948400497436523 -20.592283248901367 2.652109518184768
v 25.801000595092773 -22.34884262084961 2.4548794175530535
v 26.306100845336914 -22.380582809448242 1.3280893708611594
v 25.948400497436523 -20.592283248901367 2.652109518184768
v 26.306100845336914 -22.380582809448242 -1.3280905340765847
v 26.67840003967285 -20.592283248901367 -1.3110605333899388
v 26.82430076599121 -20.592283248901367 -9.764887681989539e-7
v 26.4596004486084 -22.394271850585938 -9.764887685990757e-7
v 26.306100845336914 -22.380582809448242 -1.3280905340765847
v 26.82430076599121 -20.592283248901367 -9.764887681989539e-7
vt 0.3373059928417206 0.5825610160827637
vt 0.3314720094203949 0.5236849784851074
vt 0.19836199283599854 0.518875002861023
vt 0.23237000405788422 0.5732700228691101
vt 0.3373059928417206 0.5825610160827637
vt 0.19836199283599854 0.518875002861023
vt 0.6869630217552185 0.4051259756088257
vt 0.5110170245170593 0.4051259756088257
vt 0.4917899966239929 0.5276110172271729
vt 0.671314001083374 0.5617139935493469
vt 0.6869630217552185 0.4051259756088257
vt 0.4917899966239929 0.5276110172271729
vt 0.3373059928417206 0.5825610160827637
vt 0.48242801427841187 0.5846700072288513
vt 0.4917899966239929 0.5276110172271729
vt 0.3314720094203949 0.5236849784851074
vt 0.3373059928417206 0.5825610160827637
vt 0.4917899966239929 0.5276110172271729
vt 0.48242801427841187 0.5846700072288513
vt 0.5607420206069946 0.62676602602005
vt 0.4917899966239929 0.5276110172271729
vt 0.3314720094203949 0.5236849784851074
vt 0.33659499883651733 0.4051259756088257
vt 0.16497500240802765 0.4051259756088257
vt 0.19836199283599854 0.518875002861023
vt 0.3314720094203949 0.5236849784851074
vt 0.16497500240802765 0.4051259756088257
vt 0.6888179779052734 0.21385902166366577
vt 0.5110170245170593 0.21385902166366577
vt 0.5110170245170593 0.4051259756088257
vt 0.6869630217552185 0.4051259756088257
vt 0.6888179779052734 0.21385902166366577
vt 0.5110170245170593 0.4051259756088257
vt 0.5607420206069946 0.62676602602005
vt 0.6462870240211487 0.6563130021095276
vt 0.671314001083374 0.5617139935493469
vt 0.4917899966239929 0.5276110172271729
vt 0.5607420206069946 0.62676602602005
vt 0.671314001083374 0.5617139935493469
vt 0.5110170245170593 0.4051259756088257
vt 0.33659499883651733 0.4051259756088257
vt 0.3314720094203949 0.5236849784851074
vt 0.4917899966239929 0.5276110172271729
vt 0.5110170245170593 0.4051259756088257
vt 0.3314720094203949 0.5236849784851074
vt 0.1712300032377243 0.21385902166366577
vt 0.16497500240802765 0.4051259756088257
vt 0.33659499883651733 0.4051259756088257
vt 0.3362649977207184 0.21385902166366577
vt 0.1712300032377243 0.21385902166366577
vt 0.33659499883651733 0.4051259756088257
vt 0.5110170245170593 0.21385902166366577
vt 0.3362649977207184 0.21385902166366577
vt 0.33659499883651733 0.4051259756088257
vt 0.5110170245170593 0.4051259756088257
vt 0.5110170245170593 0.21385902166366577
vt 0.33659499883651733 0.4051259756088257
vt 0.10108000040054321 0.662693977355957
vt 0.17967399954795837 0.6296520233154297
vt 0.0532539002597332 0.5175719857215881
vt 0.1841839998960495 0.7676299810409546
vt 0.17967399954795837 0.6296520233154297
vt 0.10108000040054321 0.662693977355957
vt 0.9168739914894104 0.6351069808006287
vt 0.9881680011749268 0.62676602602005
vt 0.7847639918327332 0.5636789798736572
vt 0.7892850041389465 0.6303139925003052
vt 0.9168739914894104 0.6351069808006287
vt 0.7847639918327332 0.5636789798736572
vt 0.9168739914894104 0.6351069808006287
vt 0.7892850041389465 0.6303139925003052
vt 0.7938060164451599 0.7238640189170837
vt 0.9422860145568848 0.6970660090446472
vt 0.9168739914894104 0.6351069808006287
vt 0.7938060164451599 0.7238640189170837
vt 0.17967399954795837 0.6296520233154297
vt 0.1841839998960495 0.7676299810409546
vt 0.2539539933204651 0.692920982837677
vt 0.5966100096702576 0.5636789798736572
vt 0.6296520233154297 0.6047459840774536
vt 0.692920982837677 0.5637199878692627
vt 0.6462870240211487 0.6563130021095276
vt 0.5607420206069946 0.62676602602005
vt 0.5830199718475342 0.6970660090446472
vt 0.9881680011749268 0.62676602602005
vt 0.9168739914894104 0.6351069808006287
vt 0.9422860145568848 0.6970660090446472
vt 0.6296520233154297 0.6047459840774536
vt 0.5966100096702576 0.5636789798736572
vt 0.43925800919532776 0.62676602602005
vt 0.48242801427841187 0.5846700072288513
vt 0.3703480064868927 0.6047459840774536
vt 0.5607420206069946 0.62676602602005
vt 0.7938060164451599 0.7238640189170837
vt 0.7892850041389465 0.6303139925003052
vt 0.7392429709434509 0.7293519973754883
vt 0.3362649977207184 0.21385902166366577
vt 0.3339940011501312 0.003386199474334717
vt 0.18380199372768402 0.0071218013763427734
vt 0.1712300032377243 0.21385902166366577
vt 0.3362649977207184 0.21385902166366577
vt 0.18380199372768402 0.0071218013763427734
vt 0.6888179779052734 0.21385902166366577
vt 0.688040018081665 0.003386199474334717
vt 0.5110170245170593 0.001775205135345459
vt 0.5110170245170593 0.21385902166366577
vt 0.6888179779052734 0.21385902166366577
vt 0.5110170245170593 0.001775205135345459
vt 0.688040018081665 0.003386199474334717
vt 0.6888179779052734 0.21385902166366577
vt 0.8645210266113281 0.21385902166366577
vt 0.8382319808006287 0.0071218013763427734
vt 0.688040018081665 0.003386199474334717
vt 0.8645210266113281 0.21385902166366577
vt 0.3339940011501312 0.003386199474334717
vt 0.3362649977207184 0.21385902166366577
vt 0.5110170245170593 0.21385902166366577
vt 0.5110170245170593 0.001775205135345459
vt 0.3339940011501312 0.003386199474334717
vt 0.5110170245170593 0.21385902166366577
vn 0.5826271290865165 0.7503231143725799 -0.31234732669039456
vn 0.9179740216233695 0.11242894421824569 -0.3803727489274015
vn 0.7226417021431718 0.38781070477204727 -0.572181638632198
vn 0.15230351033663517 0.9193128549400882 -0.3628601872361349
vn 0.5826271290865165 0.7503231143725799 -0.31234732669039456
vn 0.7226417021431718 0.38781070477204727 -0.572181638632198
vn 0.9758836626322337 -0.17977565525701875 0.12382160871352874
vn 0.9739470437894139 -0.22674591839379143 -0.0036666586448242428
vn 0.996839548672431 0.06916631934154142 -0.03907600889661408
vn 0.9848034303548132 -0.019663172358862568 0.17255597125042738
vn 0.9758836626322337 -0.17977565525701875 0.12382160871352874
vn 0.996839548672431 0.06916631934154142 -0.03907600889661408
vn 0.5826271290865165 0.7503231143725799 -0.31234732669039456
vn 0.6323190015337657 0.6718152425592224 -0.3857939348466159
vn 0.996839548672431 0.06916631934154142 -0.03907600889661408
vn 0.9179740216233695 0.11242894421824569 -0.3803727489274015
vn 0.5826271290865165 0.7503231143725799 -0.31234732669039456
vn 0.996839548672431 0.06916631934154142 -0.03907600889661408
vn 0.6323190015337657 0.6718152425592224 -0.3857939348466159
vn 0.7753772604634452 0.5990720290090209 -0.1997568722602989
vn 0.996839548672431 0.06916631934154142 -0.03907600889661408
vn 0.9179740216233695 0.11242894421824569 -0.3803727489274015
vn 0.9354479444351474 -0.2005345721784802 -0.2910722051540672
vn 0.8487451050801665 -0.0586170142603807 -0.5255433305082039
vn 0.7226417021431718 0.38781070477204727 -0.572181638632198
vn 0.9179740216233695 0.11242894421824569 -0.3803727489274015
vn 0.8487451050801665 -0.0586170142603807 -0.5255433305082039
vn 0.9545848246823908 -0.2273039632481476 0.19261547387936892
vn 0.9707813576439652 -0.2372327381244853 -0.03611348242552916
vn 0.9739470437894139 -0.22674591839379143 -0.0036666586448242428
vn 0.9758836626322337 -0.17977565525701875 0.12382160871352874
vn 0.9545848246823908 -0.2273039632481476 0.19261547387936892
vn 0.9739470437894139 -0.22674591839379143 -0.0036666586448242428
vn 0.7753772604634452 0.5990720290090209 -0.1997568722602989
vn 0.952396918794778 0.2556558521300993 0.16607285853457796
vn 0.9848034303548132 -0.019663172358862568 0.17255597125042738
vn 0.996839548672431 0.06916631934154142 -0.03907600889661408
vn 0.7753772604634452 0.5990720290090209 -0.1997568722602989
vn 0.9848034303548132 -0.019663172358862568 0.17255597125042738
vn 0.9739470437894139 -0.22674591839379143 -0.0036666586448242428
vn 0.9354479444351474 -0.2005345721784802 -0.2910722051540672
vn 0.9179740216233695 0.11242894421824569 -0.3803727489274015
vn 0.996839548672431 0.06916631934154142 -0.03907600889661408
vn 0.9739470437894139 -0.22674591839379143 -0.0036666586448242428
vn 0.9179740216233695 0.11242894421824569 -0.3803727489274015
vn 0.8838488822443219 -0.20271689778042218 -0.4215649566908339
vn 0.8487451050801665 -0.0586170142603807 -0.5255433305082039
vn 0.9354479444351474 -0.2005345721784802 -0.2910722051540672
vn 0.9330590287146195 -0.2261142860296139 -0.27977344153341116
vn 0.8838488822443219 -0.20271689778042218 -0.4215649566908339
vn 0.9354479444351474 -0.2005345721784802 -0.2910722051540672
vn 0.9707813576439652 -0.2372327381244853 -0.03611348242552916
vn 0.9330590287146195 -0.2261142860296139 -0.27977344153341116
vn 0.9354479444351474 -0.2005345721784802 -0.2910722051540672
vn 0.9739470437894139 -0.22674591839379143 -0.0036666586448242428
vn 0.9707813576439652 -0.2372327381244853 -0.03611348242552916
vn 0.9354479444351474 -0.2005345721784802 -0.2910722051540672
vn 0.5826271290865165 0.7503231143725799 -0.31234732669039456
vn -0.100892328735256 0.9910021983706483 -0.0879510137913116
vn 0.6323190015337657 0.6718152425592224 -0.3857939348466159
vn 0.15230351033663517 0.9193128549400882 -0.3628601872361349
vn -0.100892328735256 0.9910021983706483 -0.0879510137913116
vn 0.5826271290865165 0.7503231143725799 -0.31234732669039456
vn 0.4732694566019 0.4688086453242104 -0.7458112867991614
vn 0.7753772604634452 0.5990720290090209 -0.1997568722602989
vn -0.14470842029051903 0.950923293954771 -0.27350386123641945
vn 0.4961281592740993 0.4844706533381626 -0.720517200092675
vn 0.4732694566019 0.4688086453242104 -0.7458112867991614
vn -0.14470842029051903 0.950923293954771 -0.27350386123641945
vn 0.4732694566019 0.4688086453242104 -0.7458112867991614
vn 0.4961281592740993 0.4844706533381626 -0.720517200092675
vn 0.44292377388919535 0.5037591935506788 -0.7416503255826984
vn 0.5969442378213097 0.47384497749358634 -0.6474013548302463
vn 0.4732694566019 0.4688086453242104 -0.7458112867991614
vn 0.44292377388919535 0.5037591935506788 -0.7416503255826984
vn -0.100892328735256 0.9910021983706483 -0.0879510137913116
vn 0.15230351033663517 0.9193128549400882 -0.3628601872361349
vn -0.5337552096547928 0.8448459577058995 -0.036615350802220184
vn -0.14470842029051903 0.950923293954771 -0.27350386123641945
vn -0.100892328735256 0.9910021983706483 -0.0879510137913116
vn -0.5337552096547928 0.8448459577058995 -0.036615350802220184
vn 0.952396918794778 0.2556558521300993 0.16607285853457796
vn 0.7753772604634452 0.5990720290090209 -0.1997568722602989
vn 0.5969442378213097 0.47384497749358634 -0.6474013548302463
vn 0.7753772604634452 0.5990720290090209 -0.1997568722602989
vn 0.4732694566019 0.4688086453242104 -0.7458112867991614
vn 0.5969442378213097 0.47384497749358634 -0.6474013548302463
vn -0.100892328735256 0.9910021983706483 -0.0879510137913116
vn -0.14470842029051903 0.950923293954771 -0.27350386123641945
vn 0.7753772604634452 0.5990720290090209 -0.1997568722602989
vn 0.6323190015337657 0.6718152425592224 -0.3857939348466159
vn -0.100892328735256 0.9910021983706483 -0.0879510137913116
vn 0.7753772604634452 0.5990720290090209 -0.1997568722602989
vn 0.44292377388919535 0.5037591935506788 -0.7416503255826984
vn 0.4961281592740993 0.4844706533381626 -0.720517200092675
vn 0.2663081869911176 0.6002612677376848 -0.7541660029432853
vn 0.9330590287146195 -0.2261142860296139 -0.27977344153341116
vn 0.9585329995226317 -0.1959941408641101 -0.20688350725247834
vn 0.8983850522113784 -0.1912945220087145 -0.39536148498888485
vn 0.8838488822443219 -0.20271689778042218 -0.4215649566908339
vn 0.9330590287146195 -0.2261142860296139 -0.27977344153341116
vn 0.8983850522113784 -0.1912945220087145 -0.39536148498888485
vn 0.9545848246823908 -0.2273039632481476 0.19261547387936892
vn 0.9238876935200364 -0.17306765237255126 0.3412903711862978
vn 0.9791144302978351 -0.20016521835311665 0.035620468051317834
vn 0.9707813576439652 -0.2372327381244853 -0.03611348242552916
vn 0.9545848246823908 -0.2273039632481476 0.19261547387936892
vn 0.9791144302978351 -0.20016521835311665 0.035620468051317834
vn 0.9238876935200364 -0.17306765237255126 0.3412903711862978
vn 0.9545848246823908 -0.2273039632481476 0.19261547387936892
vn 0.8810129794168752 -0.15477106032197493 0.44705933497222966
vn 0.9044337869262528 -0.12180192024286085 0.40885671975814397
vn 0.9238876935200364 -0.17306765237255126 0.3412903711862978
vn 0.8810129794168752 -0.15477106032197493 0.44705933497222966
vn 0.9585329995226317 -0.1959941408641101 -0.20688350725247834
vn 0.9330590287146195 -0.2261142860296139 -0.27977344153341116
vn 0.9707813576439652 -0.2372327381244853 -0.03611348242552916
vn 0.9791144302978351 -0.20016521835311665 0.035620468051317834
vn 0.9585329995226317 -0.1959941408641101 -0.20688350725247834
vn 0.9707813576439652 -0.2372327381244853 -0.03611348242552916
f 1/1/1 2/2/2 3/3/3
f 4/4/4 5/5/5 6/6/6
f 7/7/7 8/8/8 9/9/9
f 10/10/10 11/11/11 12/12/12
f 13/13/13 14/14/14 15/15/15
f 16/16/16 17/17/17 18/18/18
f 19/19/19 20/20/20 21/21/21
f 22/22/22 23/23/23 24/24/24
f 25/25/25 26/26/26 27/27/27
f 28/28/28 29/29/29 30/30/30
f 31/31/31 32/32/32 33/33/33
f 34/34/34 35/35/35 36/36/36
f 37/37/37 38/38/38 39/39/39
f 40/40/40 41/41/41 42/42/42
f 43/43/43 44/44/44 45/45/45
f 46/46/46 47/47/47 48/48/48
f 49/49/49 50/50/50 51/51/51
f 52/52/52 53/53/53 54/54/54
f 55/55/55 56/56/56 57/57/57
f 58/58/58 59/59/59 60/60/60
f 61/61/61 62/62/62 63/63/63
f 64/64/64 65/65/65 66/66/66
f 67/67/67 68/68/68 69/69/69
f 70/70/70 71/71/71 72/72/72
f 73/73/73 74/74/74 75/75/75
f 76/76/76 77/77/77 78/78/78
f 79/79/79 80/80/80 81/81/81
f 82/82/82 83/83/83 84/84/84
f 85/85/85 86/86/86 87/87/87
f 88/88/88 89/89/89 90/90/90
f 91/91/91 92/92/92 93/93/93
f 94/94/94 95/95/95 96/96/96
f 97/97/97 98/98/98 99/99/99
f 100/100/100 101/101/101 102/102/102
f 103/103/103 104/104/104 105/105/105
f 106/106/106 107/107/107 108/108/108
f 109/109/109 110/110/110 111/111/111
f 112/112/112 113/113/113 114/114/114
f 115/115/115 116/116/116 117/117/117
f 118/118/118 119/119/119 120/120/120
