mtllib ArcadaCompleta.mtl
o D36C_M
usemtl Esmalte
v 36.185699462890625 -17.11968231201172 1.517219438686478
v 36.3489990234375 -16.12021255493164 1.265389456882584
v 36.205299377441406 -16.31966209411621 -0.36900757299412495
v 36.0713005065918 -17.283472061157227 0.00106500834550232
v 36.185699462890625 -17.11968231201172 1.517219438686478
v 36.205299377441406 -16.31966209411621 -0.36900757299412495
v 36.185699462890625 -17.11968231201172 -1.5150905703162076
v 36.0713005065918 -17.283472061157227 0.00106500834550232
v 36.205299377441406 -16.31966209411621 -0.36900757299412495
v 36.337799072265625 -16.161832809448242 -1.876700625285995
v 36.185699462890625 -17.11968231201172 -1.5150905703162076
v 36.205299377441406 -16.31966209411621 -0.36900757299412495
v 36.881900787353516 -15.85083293914795 1.1084593678856969
v 36.74259948730469 -15.837082862854004 -0.36900757299412484
v 36.205299377441406 -16.31966209411621 -0.36900757299412495
v 36.3489990234375 -16.12021255493164 1.265389456882584
v 36.881900787353516 -15.85083293914795 1.1084593678856969
v 36.205299377441406 -16.31966209411621 -0.36900757299412495
v 36.881900787353516 -15.85083293914795 1.1084593678856969
v 37.20909881591797 -16.227622985839844 0.7867844249154209
v 37.42649841308594 -16.31966209411621 -0.36900757299412495
v 36.74259948730469 -15.837082862854004 -0.36900757299412484
v 36.881900787353516 -15.85083293914795 1.1084593678856969
v 37.42649841308594 -16.31966209411621 -0.36900757299412495
v 37.402400970458984 -15.648733139038086 1.0393494511986854
v 37.83700180053711 -16.020843505859375 0.08043071581374406
v 37.42649841308594 -16.31966209411621 -0.36900757299412495
v 37.20909881591797 -16.227622985839844 0.7867844249154209
v 37.402400970458984 -15.648733139038086 1.0393494511986854
v 37.42649841308594 -16.31966209411621 -0.36900757299412495
v 37.83700180053711 -16.020843505859375 0.08043071581374406
v 37.83039855957031 -16.443471908569336 -0.369007572994125
v 37.42649841308594 -16.31966209411621 -0.36900757299412495
v 36.83259963989258 -20.04964256286621 1.433869376316177
v 36.416500091552734 -18.8159122467041 1.4302793885613554
v 36.40480041503906 -18.892541885375977 0.0010650083455019626
v 36.735801696777344 -20.04964256286621 0.0010650083455017057
v 36.83259963989258 -20.04964256286621 1.433869376316177
v 36.40480041503906 -18.892541885375977 0.0010650083455019626
v 36.185699462890625 -17.11968231201172 -1.5150905703162076
v 36.416500091552734 -18.8159122467041 -1.4281506394003756
v 36.40480041503906 -18.892541885375977 0.0010650083455019626
v 36.0713005065918 -17.283472061157227 0.00106500834550232
v 36.185699462890625 -17.11968231201172 -1.5150905703162076
v 36.40480041503906 -18.892541885375977 0.0010650083455019626
v 36.40829849243164 -16.848962783813477 -2.739430532321823
v 36.185699462890625 -17.11968231201172 -1.5150905703162076
v 36.337799072265625 -16.161832809448242 -1.876700625285995
v 36.62820053100586 -15.807612419128418 -2.7980304812048793
v 36.40829849243164 -16.848962783813477 -2.739430532321823
v 36.337799072265625 -16.161832809448242 -1.876700625285995
v 36.74259948730469 -15.837082862854004 -0.36900757299412484
v 36.881900787353516 -15.85083293914795 -1.8464805935477138
v 36.337799072265625 -16.161832809448242 -1.876700625285995
v 36.205299377441406 -16.31966209411621 -0.36900757299412495
v 36.74259948730469 -15.837082862854004 -0.36900757299412484
v 36.337799072265625 -16.161832809448242 -1.876700625285995
v 36.416500091552734 -18.8159122467041 1.4302793885613554
v 36.185699462890625 -17.11968231201172 1.517219438686478
v 36.0713005065918 -17.283472061157227 0.00106500834550232
v 36.40480041503906 -18.892541885375977 0.0010650083455019626
v 36.416500091552734 -18.8159122467041 1.4302793885613554
v 36.0713005065918 -17.283472061157227 0.00106500834550232
v 36.47159957885742 -18.631052017211914 -2.706270561084641
v 36.416500091552734 -18.8159122467041 -1.4281506394003756
v 36.185699462890625 -17.11968231201172 -1.5150905703162076
v 36.40829849243164 -16.848962783813477 -2.739430532321823
v 36.47159957885742 -18.631052017211914 -2.706270561084641
v 36.185699462890625 -17.11968231201172 -1.5150905703162076
v 37.83700180053711 -16.020843505859375 -0.81844656215657
v 37.592498779296875 -15.66035270690918 -1.6153806303595422
v 37.20909881591797 -16.227622985839844 -1.5248005245779872
v 37.42649841308594 -16.31966209411621 -0.36900757299412495
v 37.83700180053711 -16.020843505859375 -0.81844656215657
v 37.20909881591797 -16.227622985839844 -1.5248005245779872
v 36.881900787353516 -15.85083293914795 1.1084593678856969
v 37.402400970458984 -15.648733139038086 1.0393494511986854
v 37.20909881591797 -16.227622985839844 0.7867844249154209
v 37.20909881591797 -16.227622985839844 -1.5248005245779872
v 36.881900787353516 -15.85083293914795 -1.8464805935477138
v 36.74259948730469 -15.837082862854004 -0.36900757299412484
v 37.42649841308594 -16.31966209411621 -0.36900757299412495
v 37.20909881591797 -16.227622985839844 -1.5248005245779872
v 36.74259948730469 -15.837082862854004 -0.36900757299412484
v 37.20909881591797 -16.227622985839844 -1.5248005245779872
v 37.592498779296875 -15.66035270690918 -1.6153806303595422
v 36.881900787353516 -15.85083293914795 -1.8464805935477138
v 36.416500091552734 -18.8159122467041 -1.4281506394003756
v 36.83259963989258 -20.04964256286621 -1.4317406271551976
v 36.735801696777344 -20.04964256286621 0.0010650083455017057
v 36.40480041503906 -18.892541885375977 0.0010650083455019626
v 36.416500091552734 -18.8159122467041 -1.4281506394003756
v 36.735801696777344 -20.04964256286621 0.0010650083455017057
v 36.47159957885742 -18.631052017211914 -2.706270561084641
v 36.930599212646484 -20.04964256286621 -2.533580646381272
v 36.83259963989258 -20.04964256286621 -1.4317406271551976
v 36.416500091552734 -18.8159122467041 -1.4281506394003756
v 36.47159957885742 -18.631052017211914 -2.706270561084641
v 36.83259963989258 -20.04964256286621 -1.4317406271551976
v 37.42649841308594 -16.31966209411621 -0.36900757299412495
v 37.83039855957031 -16.443471908569336 -0.369007572994125
v 37.83700180053711 -16.020843505859375 -0.81844656215657
v 36.881900787353516 -15.85083293914795 -1.8464805935477138
v 37.17129898071289 -15.436212539672852 -2.5090604876135707
v 36.62820053100586 -15.807612419128418 -2.7980304812048793
v 36.337799072265625 -16.161832809448242 -1.876700625285995
v 36.881900787353516 -15.85083293914795 -1.8464805935477138
v 36.62820053100586 -15.807612419128418 -2.7980304812048793
v 36.881900787353516 -15.85083293914795 -1.8464805935477138
v 37.592498779296875 -15.66035270690918 -1.6153806303595422
v 37.17129898071289 -15.436212539672852 -2.5090604876135707
v 37.592498779296875 -15.66035270690918 -1.6153806303595422
v 37.69599914550781 -15.379042625427246 -2.2682105158423305
v 37.17129898071289 -15.436212539672852 -2.5090604876135707
v 36.83259963989258 -20.04964256286621 1.433869376316177
v 36.735801696777344 -20.04964256286621 0.0010650083455017057
v 37.05759811401367 -21.270421981811523 0.0010650083455014346
v 37.170501708984375 -21.257001876831055 1.7796293641472924
v 36.83259963989258 -20.04964256286621 1.433869376316177
v 37.05759811401367 -21.270421981811523 0.0010650083455014346
v 36.735801696777344 -20.04964256286621 0.0010650083455017057
v 36.83259963989258 -20.04964256286621 -1.4317406271551976
v 37.170501708984375 -21.257001876831055 -1.7775006149863135
v 37.05759811401367 -21.270421981811523 0.0010650083455014346
v 36.735801696777344 -20.04964256286621 0.0010650083455017057
v 37.170501708984375 -21.257001876831055 -1.7775006149863135
v 36.83259963989258 -20.04964256286621 -1.4317406271551976
v 36.930599212646484 -20.04964256286621 -2.533580646381272
v 37.170501708984375 -21.257001876831055 -1.7775006149863135
v 37.170501708984375 -21.257001876831055 1.7796293641472924
v 36.930599212646484 -20.04964256286621 2.535719528331863
v 36.83259963989258 -20.04964256286621 1.433869376316177
vt 0.3436470031738281 0.6308320164680481
vt 0.3684230148792267 0.7623839974403381
vt 0.5292209982872009 0.736132025718689
vt 0.49281200766563416 0.6092740297317505
vt 0.3436470031738281 0.6308320164680481
vt 0.5292209982872009 0.736132025718689
vt 0.641975998878479 0.6308320164680481
vt 0.49281200766563416 0.6092740297317505
vt 0.5292209982872009 0.736132025718689
vt 0.6775529980659485 0.7569059729576111
vt 0.641975998878479 0.6308320164680481
vt 0.5292209982872009 0.736132025718689
vt 0.9276639819145203 0.3838610053062439
vt 0.9400129914283752 0.5292209982872009
vt 0.987625002861023 0.5292209982872009
vt 0.9748910069465637 0.3684229850769043
vt 0.9276639819145203 0.3838610053062439
vt 0.987625002861023 0.5292209982872009
vt 0.9276639819145203 0.3838610053062439
vt 0.8986679911613464 0.41550999879837036
vt 0.8794010281562805 0.5292209982872009
vt 0.9400129914283752 0.5292209982872009
vt 0.9276639819145203 0.3838610053062439
vt 0.8794010281562805 0.5292209982872009
vt 0.8815410137176514 0.39066100120544434
vt 0.8430259823799133 0.4850029945373535
vt 0.8794010281562805 0.5292209982872009
vt 0.41550999879837036 0.7482460141181946
vt 0.39066100120544434 0.8244400024414062
vt 0.5292209982872009 0.736132025718689
vt 0.8430259823799133 0.4850029945373535
vt 0.8436059951782227 0.5292209982872009
vt 0.8794010281562805 0.5292209982872009
vt 0.35184699296951294 0.24518799781799316
vt 0.3522000014781952 0.40757203102111816
vt 0.49281200766563416 0.39748597145080566
vt 0.49281200766563416 0.24518799781799316
vt 0.35184699296951294 0.24518799781799316
vt 0.49281200766563416 0.39748597145080566
vt 0.641975998878479 0.6308320164680481
vt 0.6334229707717896 0.40757203102111816
vt 0.49281200766563416 0.39748597145080566
vt 0.49281200766563416 0.6092740297317505
vt 0.641975998878479 0.6308320164680481
vt 0.49281200766563416 0.39748597145080566
vt 0.7624319791793823 0.6664649844169617
vt 0.641975998878479 0.6308320164680481
vt 0.6775529980659485 0.7569059729576111
vt 0.7681970000267029 0.8035290241241455
vt 0.7624319791793823 0.6664649844169617
vt 0.6775529980659485 0.7569059729576111
vt 0.9400129914283752 0.5292209982872009
vt 0.9276639819145203 0.6745799779891968
vt 0.9758890271186829 0.6775529980659485
vt 0.987625002861023 0.5292209982872009
vt 0.9400129914283752 0.5292209982872009
vt 0.9758890271186829 0.6775529980659485
vt 0.3522000014781952 0.40757203102111816
vt 0.3436470031738281 0.6308320164680481
vt 0.49281200766563416 0.6092740297317505
vt 0.49281200766563416 0.39748597145080566
vt 0.3522000014781952 0.40757203102111816
vt 0.49281200766563416 0.6092740297317505
vt 0.7591689825057983 0.4319039583206177
vt 0.6334229707717896 0.40757203102111816
vt 0.641975998878479 0.6308320164680481
vt 0.7624319791793823 0.6664649844169617
vt 0.7591689825057983 0.4319039583206177
vt 0.641975998878479 0.6308320164680481
vt 0.8430259823799133 0.5734379887580872
vt 0.8646870255470276 0.6518430113792419
vt 0.8986679911613464 0.6429319977760315
vt 0.8794010281562805 0.5292209982872009
vt 0.8430259823799133 0.5734379887580872
vt 0.8986679911613464 0.6429319977760315
vt 0.0723361000418663 0.7978399991989136
vt 0.11845900118350983 0.8244400024414062
vt 0.10133200138807297 0.7482460141181946
vt 0.8986679911613464 0.6429319977760315
vt 0.9276639819145203 0.6745799779891968
vt 0.9400129914283752 0.5292209982872009
vt 0.8794010281562805 0.5292209982872009
vt 0.8986679911613464 0.6429319977760315
vt 0.9400129914283752 0.5292209982872009
vt 0.8986679911613464 0.7482460141181946
vt 0.8646870255470276 0.8229110240936279
vt 0.9276639819145203 0.7978399991989136
vt 0.6334229707717896 0.40757203102111816
vt 0.6337760090827942 0.24518799781799316
vt 0.49281200766563416 0.24518799781799316
vt 0.49281200766563416 0.39748597145080566
vt 0.6334229707717896 0.40757203102111816
vt 0.49281200766563416 0.24518799781799316
vt 0.7591689825057983 0.4319039583206177
vt 0.7421799898147583 0.24518799781799316
vt 0.6337760090827942 0.24518799781799316
vt 0.6334229707717896 0.40757203102111816
vt 0.7591689825057983 0.4319039583206177
vt 0.6337760090827942 0.24518799781799316
vt 0.8794010281562805 0.5292209982872009
vt 0.8436059951782227 0.5292209982872009
vt 0.8430259823799133 0.5734379887580872
vt 0.9276639819145203 0.6745799779891968
vt 0.902014970779419 0.7397670149803162
vt 0.9501519799232483 0.7681970000267029
vt 0.9758890271186829 0.6775529980659485
vt 0.9276639819145203 0.6745799779891968
vt 0.9501519799232483 0.7681970000267029
vt 0.9276639819145203 0.6745799779891968
vt 0.8646870255470276 0.6518430113792419
vt 0.902014970779419 0.7397670149803162
vt 0.8646870255470276 0.6518430113792419
vt 0.855521023273468 0.7160710096359253
vt 0.902014970779419 0.7397670149803162
vt 0.35184699296951294 0.24518799781799316
vt 0.49281200766563416 0.24518799781799316
vt 0.49281200766563416 0.0845080018043518
vt 0.31782999634742737 0.08627378940582275
vt 0.35184699296951294 0.24518799781799316
vt 0.49281200766563416 0.0845080018043518
vt 0.49281200766563416 0.24518799781799316
vt 0.6337760090827942 0.24518799781799316
vt 0.6677929759025574 0.08627378940582275
vt 0.49281200766563416 0.0845080018043518
vt 0.49281200766563416 0.24518799781799316
vt 0.6677929759025574 0.08627378940582275
vt 0.6337760090827942 0.24518799781799316
vt 0.7421799898147583 0.24518799781799316
vt 0.6677929759025574 0.08627378940582275
vt 0.31782999634742737 0.08627378940582275
vt 0.24344299733638763 0.24518799781799316
vt 0.35184699296951294 0.24518799781799316
vn -0.996681311614195 0.0326351293014251 0.07457420072979061
vn -0.8741587206984398 0.4853201070204067 0.017633058400852667
vn -0.9191295976054511 0.3939330226440671 0.00419004488645918
vn -0.9958266290556885 -0.09119182726422943 0.0036572535863813697
vn -0.996681311614195 0.0326351293014251 0.07457420072979061
vn -0.9191295976054511 0.3939330226440671 0.00419004488645918
vn -0.9941380081580009 -0.058927733792693705 -0.09064845793338148
vn -0.9958266290556885 -0.09119182726422943 0.0036572535863813697
vn -0.9191295976054511 0.3939330226440671 0.00419004488645918
vn -0.8800425231406446 0.468622102362237 -0.07693167515299038
vn -0.9941380081580009 -0.058927733792693705 -0.09064845793338148
vn -0.9191295976054511 0.3939330226440671 0.00419004488645918
vn -0.04951384736606642 0.9953583625726625 -0.08252338441725279
vn -0.014294158625879032 0.9998967022513319 -0.0015039468373333905
vn -0.9191295976054511 0.3939330226440671 0.00419004488645918
vn -0.8741587206984398 0.4853201070204067 0.017633058400852667
vn -0.04951384736606642 0.9953583625726625 -0.08252338441725279
vn -0.9191295976054511 0.3939330226440671 0.00419004488645918
vn -0.04951384736606642 0.9953583625726625 -0.08252338441725279
vn -0.37723953083862577 0.8335654199022685 -0.4035579600451564
vn 0.179947928397625 0.9792695089194084 -0.09300522547762426
vn -0.014294158625879032 0.9998967022513319 -0.0015039468373333905
vn -0.04951384736606642 0.9953583625726625 -0.08252338441725279
vn 0.179947928397625 0.9792695089194084 -0.09300522547762426
vn -0.5731552814682935 0.6775373787414509 -0.46090793411826275
vn -0.07099572889469621 0.8593178473430262 -0.5064903194696404
vn 0.179947928397625 0.9792695089194084 -0.09300522547762426
vn -0.37723953083862577 0.8335654199022685 -0.4035579600451564
vn -0.5731552814682935 0.6775373787414509 -0.46090793411826275
vn 0.179947928397625 0.9792695089194084 -0.09300522547762426
vn -0.07099572889469621 0.8593178473430262 -0.5064903194696404
vn 0.29307555150451836 0.9560892851142736 2.122944675862545e-16
vn 0.179947928397625 0.9792695089194084 -0.09300522547762426
vn -0.9610403807416156 -0.26992937642219295 0.059493851180912063
vn -0.9763183238373604 -0.21104537874181872 0.04756446836798844
vn -0.9737847777073414 -0.22729518387848605 -0.008950200618359478
vn -0.9622916507837924 -0.27150137329447854 -0.016786397201772517
vn -0.9610403807416156 -0.26992937642219295 0.059493851180912063
vn -0.9737847777073414 -0.22729518387848605 -0.008950200618359478
vn -0.9941380081580009 -0.058927733792693705 -0.09064845793338148
vn -0.9727286059886642 -0.22682325447532042 -0.04847958663782433
vn -0.9737847777073414 -0.22729518387848605 -0.008950200618359478
vn -0.9958266290556885 -0.09119182726422943 0.0036572535863813697
vn -0.9941380081580009 -0.058927733792693705 -0.09064845793338148
vn -0.9737847777073414 -0.22729518387848605 -0.008950200618359478
vn -0.9806265993924037 0.04835395967833838 -0.18982456939900022
vn -0.9941380081580009 -0.058927733792693705 -0.09064845793338148
vn -0.8800425231406446 0.468622102362237 -0.07693167515299038
vn -0.814936064049331 0.5795465441897076 -0.0022393368554195804
vn -0.9806265993924037 0.04835395967833838 -0.18982456939900022
vn -0.8800425231406446 0.468622102362237 -0.07693167515299038
vn -0.014294158625879032 0.9998967022513319 -0.0015039468373333905
vn -0.28924542655250157 0.9255445000235614 0.24434496453701984
vn -0.8800425231406446 0.468622102362237 -0.07693167515299038
vn -0.9191295976054511 0.3939330226440671 0.00419004488645918
vn -0.014294158625879032 0.9998967022513319 -0.0015039468373333905
vn -0.8800425231406446 0.468622102362237 -0.07693167515299038
vn -0.9763183238373604 -0.21104537874181872 0.04756446836798844
vn -0.996681311614195 0.0326351293014251 0.07457420072979061
vn -0.9958266290556885 -0.09119182726422943 0.0036572535863813697
vn -0.9737847777073414 -0.22729518387848605 -0.008950200618359478
vn -0.9763183238373604 -0.21104537874181872 0.04756446836798844
vn -0.9958266290556885 -0.09119182726422943 0.0036572535863813697
vn -0.9760723615653318 -0.1881384716463105 -0.10902596238908716
vn -0.9727286059886642 -0.22682325447532042 -0.04847958663782433
vn -0.9941380081580009 -0.058927733792693705 -0.09064845793338148
vn -0.9806265993924037 0.04835395967833838 -0.18982456939900022
vn -0.9760723615653318 -0.1881384716463105 -0.10902596238908716
vn -0.9941380081580009 -0.058927733792693705 -0.09064845793338148
vn -0.4820425515008466 0.7806005712236463 0.3978664684889526
vn -0.46536040345054447 0.7206734424902986 0.5138769154082802
vn 0.09925925413534512 0.9526198201042058 0.28751187595145583
vn 0.179947928397625 0.9792695089194084 -0.09300522547762426
vn -0.4820425515008466 0.7806005712236463 0.3978664684889526
vn 0.09925925413534512 0.9526198201042058 0.28751187595145583
vn -0.04951384736606642 0.9953583625726625 -0.08252338441725279
vn -0.5731552814682935 0.6775373787414509 -0.46090793411826275
vn -0.37723953083862577 0.8335654199022685 -0.4035579600451564
vn 0.09925925413534512 0.9526198201042058 0.28751187595145583
vn -0.28924542655250157 0.9255445000235614 0.24434496453701984
vn -0.014294158625879032 0.9998967022513319 -0.0015039468373333905
vn 0.179947928397625 0.9792695089194084 -0.09300522547762426
vn 0.09925925413534512 0.9526198201042058 0.28751187595145583
vn -0.014294158625879032 0.9998967022513319 -0.0015039468373333905
vn 0.09925925413534512 0.9526198201042058 0.28751187595145583
vn -0.46536040345054447 0.7206734424902986 0.5138769154082802
vn -0.28924542655250157 0.9255445000235614 0.24434496453701984
vn -0.9727286059886642 -0.22682325447532042 -0.04847958663782433
vn -0.9534083952514341 -0.29184874132024413 -0.07639858672694619
vn -0.9622916507837924 -0.27150137329447854 -0.016786397201772517
vn -0.9737847777073414 -0.22729518387848605 -0.008950200618359478
vn -0.9727286059886642 -0.22682325447532042 -0.04847958663782433
vn -0.9622916507837924 -0.27150137329447854 -0.016786397201772517
vn -0.9760723615653318 -0.1881384716463105 -0.10902596238908716
vn -0.9549908202415344 -0.2842146624630408 -0.08493855953229679
vn -0.9534083952514341 -0.29184874132024413 -0.07639858672694619
vn -0.9727286059886642 -0.22682325447532042 -0.04847958663782433
vn -0.9760723615653318 -0.1881384716463105 -0.10902596238908716
vn -0.9534083952514341 -0.29184874132024413 -0.07639858672694619
vn 0.179947928397625 0.9792695089194084 -0.09300522547762426
vn 0.29307555150451836 0.9560892851142736 2.122944675862545e-16
vn -0.4820425515008466 0.7806005712236463 0.3978664684889526
vn -0.28924542655250157 0.9255445000235614 0.24434496453701984
vn -0.4341432282307214 0.8448900845819153 0.3125386413814645
vn -0.814936064049331 0.5795465441897076 -0.0022393368554195804
vn -0.8800425231406446 0.468622102362237 -0.07693167515299038
vn -0.28924542655250157 0.9255445000235614 0.24434496453701984
vn -0.814936064049331 0.5795465441897076 -0.0022393368554195804
vn -0.28924542655250157 0.9255445000235614 0.24434496453701984
vn -0.46536040345054447 0.7206734424902986 0.5138769154082802
vn -0.4341432282307214 0.8448900845819153 0.3125386413814645
vn -0.46536040345054447 0.7206734424902986 0.5138769154082802
vn -0.25778290173551627 0.9015111167757893 0.34759988766178634
vn -0.4341432282307214 0.8448900845819153 0.3125386413814645
vn -0.9610403807416156 -0.26992937642219295 0.059493851180912063
vn -0.9622916507837924 -0.27150137329447854 -0.016786397201772517
vn -0.9670106086511754 -0.25405531895586014 0.018611224202601702
vn -0.9656587090475061 -0.2496761342169284 0.07186853027017218
vn -0.9610403807416156 -0.26992937642219295 0.059493851180912063
vn -0.9670106086511754 -0.25405531895586014 0.018611224202601702
vn -0.9622916507837924 -0.27150137329447854 -0.016786397201772517
vn -0.9534083952514341 -0.29184874132024413 -0.07639858672694619
vn -0.9654163481435375 -0.251241572879165 -0.06963437939982979
vn -0.9670106086511754 -0.25405531895586014 0.018611224202601702
vn -0.9622916507837924 -0.27150137329447854 -0.016786397201772517
vn -0.9654163481435375 -0.251241572879165 -0.06963437939982979
vn -0.9534083952514341 -0.29184874132024413 -0.07639858672694619
vn -0.9549908202415344 -0.2842146624630408 -0.08493855953229679
vn -0.9654163481435375 -0.251241572879165 -0.06963437939982979
vn -0.9656587090475061 -0.2496761342169284 0.07186853027017218
vn -0.9655510965115822 -0.2456343217639445 0.0858770050528576
vn -0.9610403807416156 -0.26992937642219295 0.059493851180912063
f 1/1/1 2/2/2 3/3/3
f 4/4/4 5/5/5 6/6/6
f 7/7/7 8/8/8 9/9/9
f 10/10/10 11/11/11 12/12/12
f 13/13/13 14/14/14 15/15/15
f 16/16/16 17/17/17 18/18/18
f 19/19/19 20/20/20 21/21/21
f 22/22/22 23/23/23 24/24/24
f 25/25/25 26/26/26 27/27/27
f 28/28/28 29/29/29 30/30/30
f 31/31/31 32/32/32 33/33/33
f 34/34/34 35/35/35 36/36/36
f 37/37/37 38/38/38 39/39/39
f 40/40/40 41/41/41 42/42/42
f 43/43/43 44/44/44 45/45/45
f 46/46/46 47/47/47 48/48/48
f 49/49/49 50/50/50 51/51/51
f 52/52/52 53/53/53 54/54/54
f 55/55/55 56/56/56 57/57/57
f 58/58/58 59/59/59 60/60/60
f 61/61/61 62/62/62 63/63/63
f 64/64/64 65/65/65 66/66/66
f 67/67/67 68/68/68 69/69/69
f 70/70/70 71/71/71 72/72/72
f 73/73/73 74/74/74 75/75/75
f 76/76/76 77/77/77 78/78/78
f 79/79/79 80/80/80 81/81/81
f 82/82/82 83/83/83 84/84/84
f 85/85/85 86/86/86 87/87/87
f 88/88/88 89/89/89 90/90/90
f 91/91/91 92/92/92 93/93/93
f 94/94/94 95/95/95 96/96/96
f 97/97/97 98/98/98 99/99/99
f 100/100/100 101/101/101 102/102/102
f 103/103/103 104/104/104 105/105/105
f 106/106/106 107/107/107 108/108/108
f 109/109/109 110/110/110 111/111/111
f 112/112/112 113/113/113 114/114/114
f 115/115/115 116/116/116 117/117/117
f 118/118/118 119/119/119 120/120/120
f 121/121/121 122/122/122 123/123/123
f 124/124/124 125/125/125 126/126/126
f 127/127/127 128/128/128 129/129/129
f 130/130/130 131/131/131 132/132/132
