mtllib ArcadaCompleta.mtl
o D36C_V
usemtl Esmalte
v 42.83039855957031 -20.04964256286621 4.897249593868362
v 42.125999450683594 -20.06011199951172 4.8513993169213405
v 41.56650161743164 -21.90868377685547 4.48528946889888
v 42.788299560546875 -21.87204360961914 4.312229528560745
v 42.83039855957031 -20.04964256286621 4.897249593868362
v 41.56650161743164 -21.90868377685547 4.48528946889888
v 44.27399826049805 -20.04964256286621 4.063709631099807
v 42.83039855957031 -20.04964256286621 4.897249593868362
v 42.788299560546875 -21.87204360961914 4.312229528560745
v 44.044700622558594 -21.70587158203125 4.005209341182815
v 44.27399826049805 -20.04964256286621 4.063709631099807
v 42.788299560546875 -21.87204360961914 4.312229528560745
v 41.01129913330078 -20.04964256286621 4.769429578914749
v 39.747398376464844 -20.04964256286621 4.916719331874954
v 40.344600677490234 -21.87204360961914 4.312229528560745
v 41.56650161743164 -21.90868377685547 4.48528946889888
v 41.01129913330078 -20.04964256286621 4.769429578914749
v 40.344600677490234 -21.87204360961914 4.312229528560745
v 39.088199615478516 -21.70587158203125 4.229199304714309
v 38.82609939575195 -20.04964256286621 4.6960696126366726
v 37.57780075073242 -20.04964256286621 3.8716093446160427
v 37.962799072265625 -21.53971290588379 3.3938194657708274
v 39.088199615478516 -21.70587158203125 4.229199304714309
v 37.57780075073242 -20.04964256286621 3.8716093446160427
v 41.56650161743164 -21.90868377685547 4.48528946889888
v 42.125999450683594 -20.06011199951172 4.8513993169213405
v 41.01129913330078 -20.04964256286621 4.769429578914749
v 39.747398376464844 -20.04964256286621 4.916719331874954
v 38.82609939575195 -20.04964256286621 4.6960696126366726
v 39.088199615478516 -21.70587158203125 4.229199304714309
v 40.344600677490234 -21.87204360961914 4.312229528560745
v 39.747398376464844 -20.04964256286621 4.916719331874954
v 39.088199615478516 -21.70587158203125 4.229199304714309
vt 0.4005019962787628 0.24518799781799316
vt 0.4629310071468353 0.2438099980354309
vt 0.5125139951705933 0.0004995465278625488
vt 0.40423598885536194 0.005321621894836426
vt 0.4005019962787628 0.24518799781799316
vt 0.5125139951705933 0.0004995465278625488
vt 0.27257099747657776 0.24518799781799316
vt 0.4005019962787628 0.24518799781799316
vt 0.40423598885536194 0.005321621894836426
vt 0.29288598895072937 0.02719259262084961
vt 0.27257099747657776 0.24518799781799316
vt 0.40423598885536194 0.005321621894836426
vt 0.5617089867591858 0.24518799781799316
vt 0.6737210154533386 0.24518799781799316
vt 0.6207929849624634 0.005321621894836426
vt 0.5125139951705933 0.0004995465278625488
vt 0.5617089867591858 0.24518799781799316
vt 0.6207929849624634 0.005321621894836426
vt 0.732142984867096 0.02719259262084961
vt 0.7553679943084717 0.24518799781799316
vt 0.8659930229187012 0.24518799781799316
vt 0.8318769931793213 0.04906362295150757
vt 0.732142984867096 0.02719259262084961
vt 0.8659930229187012 0.24518799781799316
vt 0.5125139951705933 0.0004995465278625488
vt 0.4629310071468353 0.2438099980354309
vt 0.5617089867591858 0.24518799781799316
vt 0.6737210154533386 0.24518799781799316
vt 0.7553679943084717 0.24518799781799316
vt 0.732142984867096 0.02719259262084961
vt 0.6207929849624634 0.005321621894836426
vt 0.6737210154533386 0.24518799781799316
vt 0.732142984867096 0.02719259262084961
vn 0.2664861064080651 -0.2753416866383031 0.9236731622660928
vn -0.06902759867770204 -0.17366862782091572 0.982382002243318
vn -0.028815190990764378 -0.21895111983344748 0.9753102541713817
vn 0.3164740102463799 -0.23269336663167786 0.919618398013105
vn 0.2664861064080651 -0.2753416866383031 0.9236731622660928
vn -0.028815190990764378 -0.21895111983344748 0.9753102541713817
vn 0.3917766411822529 -0.19682953744124432 0.8987598103022955
vn 0.2664861064080651 -0.2753416866383031 0.9236731622660928
vn 0.3164740102463799 -0.23269336663167786 0.919618398013105
vn 0.24532158445636282 -0.06812107499937169 0.9670454174136548
vn 0.3917766411822529 -0.19682953744124432 0.8987598103022955
vn 0.3164740102463799 -0.23269336663167786 0.919618398013105
vn -0.032272531497517486 -0.2182535306764237 0.9753583341818624
vn -0.054976308409065124 -0.31099783145603566 0.9488192421864949
vn -0.044925172345471595 -0.27460924074285475 0.9605058530734534
vn -0.028815190990764378 -0.21895111983344748 0.9753102541713817
vn -0.032272531497517486 -0.2182535306764237 0.9753583341818624
vn -0.044925172345471595 -0.27460924074285475 0.9605058530734534
vn -0.3834312173900939 -0.3426594657113225 0.8576508567530156
vn -0.4130161361173312 -0.3070510891570296 0.8574014811943071
vn -0.5544869788307055 -0.3418484261471436 0.7587383236979122
vn -0.5867251101451082 -0.38075916705937907 0.7146860162515134
vn -0.3834312173900939 -0.3426594657113225 0.8576508567530156
vn -0.5544869788307055 -0.3418484261471436 0.7587383236979122
vn -0.028815190990764378 -0.21895111983344748 0.9753102541713817
vn -0.06902759867770204 -0.17366862782091572 0.982382002243318
vn -0.032272531497517486 -0.2182535306764237 0.9753583341818624
vn -0.054976308409065124 -0.31099783145603566 0.9488192421864949
vn -0.4130161361173312 -0.3070510891570296 0.8574014811943071
vn -0.3834312173900939 -0.3426594657113225 0.8576508567530156
vn -0.044925172345471595 -0.27460924074285475 0.9605058530734534
vn -0.054976308409065124 -0.31099783145603566 0.9488192421864949
vn -0.3834312173900939 -0.3426594657113225 0.8576508567530156
f 1/1/1 2/2/2 3/3/3
f 4/4/4 5/5/5 6/6/6
f 7/7/7 8/8/8 9/9/9
f 10/10/10 11/11/11 12/12/12
f 13/13/13 14/14/14 15/15/15
f 16/16/16 17/17/17 18/18/18
f 19/19/19 20/20/20 21/21/21
f 22/22/22 23/23/23 24/24/24
f 25/25/25 26/26/26 27/27/27
f 28/28/28 29/29/29 30/30/30
f 31/31/31 32/32/32 33/33/33
