mtllib ArcadaCompleta.mtl
o D38C_FCL
usemtl Enamel21
v 65.18060302734375 -19.74038314819336 -4.678740606174363
v 65.03980255126953 -21.29736328125 -4.402670488223923
v 64.02960205078125 -21.333932876586914 -4.519730672702683
v 64.0291976928711 -19.74038314819336 -4.668160543308152
v 65.18060302734375 -19.74038314819336 -4.678740606174363
v 64.02960205078125 -21.333932876586914 -4.519730672702683
v 63.01940155029297 -21.29736328125 -4.402670488223923
v 62.877899169921875 -19.74038314819336 -4.678740606174363
v 64.0291976928711 -19.74038314819336 -4.668160543308152
v 64.02960205078125 -21.333932876586914 -4.519730672702683
v 63.01940155029297 -21.29736328125 -4.402670488223923
v 64.0291976928711 -19.74038314819336 -4.668160543308152
vt 0.6108440160751343 0.2252979874610901
vt 0.596651017665863 0.005657315254211426
vt 0.4947820007801056 0.0004995465278625488
vt 0.4947449862957001 0.2252979874610901
vt 0.6108440160751343 0.2252979874610901
vt 0.4947820007801056 0.0004995465278625488
vt 0.3929139971733093 0.005657315254211426
vt 0.37864500284194946 0.2252979874610901
vt 0.4947449862957001 0.2252979874610901
vt 0.4947820007801056 0.0004995465278625488
vt 0.3929139971733093 0.005657315254211426
vt 0.4947449862957001 0.2252979874610901
vn 0.0510339269386207 -0.13559188393347912 -0.9894495334844488
vn 0.11971006431690441 -0.18381820449040684 -0.9756435661650036
vn -0.0032619120607436376 -0.1220307391854398 -0.9925209613018574
vn -0.03643597374769087 -0.12070565206760443 -0.9920194380031029
vn 0.0510339269386207 -0.13559188393347912 -0.9894495334844488
vn -0.0032619120607436376 -0.1220307391854398 -0.9925209613018574
vn -0.05103669583446462 -0.13561601658714248 -0.9894460832826296
vn 0.009049458118074779 -0.17378346024480035 -0.9847423095678955
vn -0.03643597374769087 -0.12070565206760443 -0.9920194380031029
vn -0.0032619120607436376 -0.1220307391854398 -0.9925209613018574
vn -0.05103669583446462 -0.13561601658714248 -0.9894460832826296
vn -0.03643597374769087 -0.12070565206760443 -0.9920194380031029
f 1/1/1 2/2/2 3/3/3
f 4/4/4 5/5/5 6/6/6
f 7/7/7 8/8/8 9/9/9
f 10/10/10 11/11/11 12/12/12
