mtllib ArcadaCompleta.mtl
o D38C_L
usemtl L1
v 63.69620132446289 -15.116162300109863 -3.539850578174484
v 64.0291976928711 -15.562832832336426 -3.5420406912421107
v 64.0291976928711 -15.880132675170898 -4.33438073144902
v 63.67340087890625 -15.545252799987793 -4.576360807285202
v 63.69620132446289 -15.116162300109863 -3.539850578174484
v 64.0291976928711 -15.880132675170898 -4.33438073144902
v 64.36229705810547 -15.116162300109863 -3.539850578174484
v 64.38510131835938 -15.545252799987793 -4.576360807285202
v 64.0291976928711 -15.880132675170898 -4.33438073144902
v 64.0291976928711 -15.562832832336426 -3.5420406912421107
v 64.36229705810547 -15.116162300109863 -3.539850578174484
v 64.0291976928711 -15.880132675170898 -4.33438073144902
v 64.34649658203125 -16.556652069091797 -4.8678504084204555
v 64.32589721679688 -18.27439308166504 -4.645240411624801
v 64.0291976928711 -18.27439308166504 -4.178230390415084
v 64.0291976928711 -16.566082000732422 -4.568080530033004
v 64.34649658203125 -16.556652069091797 -4.8678504084204555
v 64.0291976928711 -18.27439308166504 -4.178230390415084
v 64.32589721679688 -18.27439308166504 -4.645240411624801
v 64.0291976928711 -18.72747230529785 -4.531310663089645
v 64.0291976928711 -18.27439308166504 -4.178230390415084
v 64.38510131835938 -15.545252799987793 -4.576360807285202
v 64.34649658203125 -16.556652069091797 -4.8678504084204555
v 64.0291976928711 -16.566082000732422 -4.568080530033004
v 64.0291976928711 -15.880132675170898 -4.33438073144902
v 64.38510131835938 -15.545252799987793 -4.576360807285202
v 64.0291976928711 -16.566082000732422 -4.568080530033004
v 63.73249816894531 -18.27439308166504 -4.645240411624801
v 63.71189880371094 -16.556652069091797 -4.8678504084204555
v 64.0291976928711 -16.566082000732422 -4.568080530033004
v 64.0291976928711 -18.27439308166504 -4.178230390415084
v 63.73249816894531 -18.27439308166504 -4.645240411624801
v 64.0291976928711 -16.566082000732422 -4.568080530033004
v 64.36229705810547 -15.116162300109863 -3.539850578174484
v 65.38310241699219 -14.762792587280273 -3.415240630969894
v 65.47579956054688 -15.210372924804688 -4.490490541324507
v 64.38510131835938 -15.545252799987793 -4.576360807285202
v 64.36229705810547 -15.116162300109863 -3.539850578174484
v 65.47579956054688 -15.210372924804688 -4.490490541324507
v 63.69620132446289 -15.116162300109863 -3.539850578174484
v 63.67340087890625 -15.545252799987793 -4.576360807285202
v 62.58259963989258 -15.210372924804688 -4.490490541324507
v 62.66590118408203 -14.762542724609375 -3.49037061677922
v 63.69620132446289 -15.116162300109863 -3.539850578174484
v 62.58259963989258 -15.210372924804688 -4.490490541324507
v 64.0291976928711 -18.72747230529785 -4.531310663089645
v 62.877899169921875 -19.74038314819336 -4.678740606174363
v 62.823299407958984 -18.27439308166504 -4.886150464877975
v 63.73249816894531 -18.27439308166504 -4.645240411624801
v 64.0291976928711 -18.72747230529785 -4.531310663089645
v 62.823299407958984 -18.27439308166504 -4.886150464877975
v 64.34649658203125 -16.556652069091797 -4.8678504084204555
v 65.31900024414062 -16.547212600708008 -4.987100705966842
v 65.23519897460938 -18.27439308166504 -4.886150464877975
v 64.32589721679688 -18.27439308166504 -4.645240411624801
v 64.34649658203125 -16.556652069091797 -4.8678504084204555
v 65.23519897460938 -18.27439308166504 -4.886150464877975
v 64.0291976928711 -18.72747230529785 -4.531310663089645
v 65.18060302734375 -19.74038314819336 -4.678740606174363
v 64.0291976928711 -19.74038314819336 -4.668160543308152
v 64.0291976928711 -16.566082000732422 -4.568080530033004
v 63.71189880371094 -16.556652069091797 -4.8678504084204555
v 63.67340087890625 -15.545252799987793 -4.576360807285202
v 64.0291976928711 -15.880132675170898 -4.33438073144902
v 64.0291976928711 -16.566082000732422 -4.568080530033004
v 63.67340087890625 -15.545252799987793 -4.576360807285202
v 65.31900024414062 -16.547212600708008 -4.987100705966842
v 64.34649658203125 -16.556652069091797 -4.8678504084204555
v 64.38510131835938 -15.545252799987793 -4.576360807285202
v 65.47579956054688 -15.210372924804688 -4.490490541324507
v 65.31900024414062 -16.547212600708008 -4.987100705966842
v 64.38510131835938 -15.545252799987793 -4.576360807285202
v 62.73939895629883 -16.547212600708008 -4.987100705966842
v 63.71189880371094 -16.556652069091797 -4.8678504084204555
v 63.73249816894531 -18.27439308166504 -4.645240411624801
v 62.823299407958984 -18.27439308166504 -4.886150464877975
v 62.73939895629883 -16.547212600708008 -4.987100705966842
v 63.73249816894531 -18.27439308166504 -4.645240411624801
v 64.0291976928711 -18.27439308166504 -4.178230390415084
v 64.0291976928711 -18.72747230529785 -4.531310663089645
v 63.73249816894531 -18.27439308166504 -4.645240411624801
v 65.18060302734375 -19.74038314819336 -4.678740606174363
v 64.0291976928711 -18.72747230529785 -4.531310663089645
v 64.32589721679688 -18.27439308166504 -4.645240411624801
v 65.23519897460938 -18.27439308166504 -4.886150464877975
v 65.18060302734375 -19.74038314819336 -4.678740606174363
v 64.32589721679688 -18.27439308166504 -4.645240411624801
v 62.58259963989258 -15.210372924804688 -4.490490541324507
v 63.67340087890625 -15.545252799987793 -4.576360807285202
v 63.71189880371094 -16.556652069091797 -4.8678504084204555
v 62.73939895629883 -16.547212600708008 -4.987100705966842
v 62.58259963989258 -15.210372924804688 -4.490490541324507
v 63.71189880371094 -16.556652069091797 -4.8678504084204555
v 64.0291976928711 -19.74038314819336 -4.668160543308152
v 62.877899169921875 -19.74038314819336 -4.678740606174363
v 64.0291976928711 -18.72747230529785 -4.531310663089645
vt 0.5388389825820923 0.8539220094680786
vt 0.5052549839019775 0.8541420102119446
vt 0.5052549839019775 0.9338430166244507
vt 0.5411390066146851 0.9581829905509949
vt 0.5388389825820923 0.8539220094680786
vt 0.5052549839019775 0.9338430166244507
vt 0.471671998500824 0.8539220094680786
vt 0.4693709909915924 0.9581829905509949
vt 0.5052549839019775 0.9338430166244507
vt 0.5052549839019775 0.8541420102119446
vt 0.471671998500824 0.8539220094680786
vt 0.5052549839019775 0.9338430166244507
vt 0.9875050187110901 0.674422025680542
vt 0.9651119709014893 0.4321039915084839
vt 0.9181360006332397 0.4321039915084839
vt 0.4947449862957001 0.6730909943580627
vt 0.5267390012741089 0.674422025680542
vt 0.4947449862957001 0.4321039915084839
vt 0.9651119709014893 0.4321039915084839
vt 0.953652024269104 0.3681870102882385
vt 0.9181360006332397 0.4321039915084839
vt 0.5306289792060852 0.8170980215072632
vt 0.5267390012741089 0.674422025680542
vt 0.4947449862957001 0.6730909943580627
vt 0.9338430166244507 0.7698569893836975
vt 0.9581829905509949 0.8170980215072632
vt 0.95735102891922 0.6730909943580627
vt 0.4648300111293793 0.4321039915084839
vt 0.46274998784065247 0.674422025680542
vt 0.4947449862957001 0.6730909943580627
vt 0.08186399936676025 0.4321039915084839
vt 0.034887801855802536 0.4321039915084839
vt 0.04264850169420242 0.6730909943580627
vt 0.471671998500824 0.8539220094680786
vt 0.36873799562454224 0.8413869738578796
vt 0.35938501358032227 0.9495459794998169
vt 0.4693709909915924 0.9581829905509949
vt 0.471671998500824 0.8539220094680786
vt 0.35938501358032227 0.9495459794998169
vt 0.5388389825820923 0.8539220094680786
vt 0.5411390066146851 0.9581829905509949
vt 0.6511250138282776 0.9495459794998169
vt 0.6427279710769653 0.8489440083503723
vt 0.5388389825820923 0.8539220094680786
vt 0.6511250138282776 0.9495459794998169
vt 0.4947449862957001 0.3681870102882385
vt 0.37864500284194946 0.2252979874610901
vt 0.37313899397850037 0.4321039915084839
vt 0.4648300111293793 0.4321039915084839
vt 0.4947449862957001 0.3681870102882385
vt 0.37313899397850037 0.4321039915084839
vt 0.5267390012741089 0.674422025680542
vt 0.6248030066490173 0.6757529973983765
vt 0.616349995136261 0.4321039915084839
vt 0.5246599912643433 0.4321039915084839
vt 0.5267390012741089 0.674422025680542
vt 0.616349995136261 0.4321039915084839
vt 0.4947449862957001 0.3681870102882385
vt 0.6108440160751343 0.2252979874610901
vt 0.4947449862957001 0.2252979874610901
vt 0.4947449862957001 0.6730909943580627
vt 0.46274998784065247 0.674422025680542
vt 0.45886099338531494 0.8170980215072632
vt 0.06615670025348663 0.7698569893836975
vt 0.04264850169420242 0.6730909943580627
vt 0.04181649908423424 0.8170980215072632
vt 0.6248030066490173 0.6757529973983765
vt 0.5267390012741089 0.674422025680542
vt 0.5306289792060852 0.8170980215072632
vt 0.6406149864196777 0.8643400073051453
vt 0.6248030066490173 0.6757529973983765
vt 0.5306289792060852 0.8170980215072632
vt 0.3646860122680664 0.6757529973983765
vt 0.46274998784065247 0.674422025680542
vt 0.4648300111293793 0.4321039915084839
vt 0.37313899397850037 0.4321039915084839
vt 0.3646860122680664 0.6757529973983765
vt 0.4648300111293793 0.4321039915084839
vt 0.08186399936676025 0.4321039915084839
vt 0.04634790122509003 0.3681870102882385
vt 0.034887801855802536 0.4321039915084839
vt 0.6108440160751343 0.2252979874610901
vt 0.4947449862957001 0.3681870102882385
vt 0.5246599912643433 0.4321039915084839
vt 0.616349995136261 0.4321039915084839
vt 0.6108440160751343 0.2252979874610901
vt 0.5246599912643433 0.4321039915084839
vt 0.3488749861717224 0.8643400073051453
vt 0.45886099338531494 0.8170980215072632
vt 0.46274998784065247 0.674422025680542
vt 0.3646860122680664 0.6757529973983765
vt 0.3488749861717224 0.8643400073051453
vt 0.46274998784065247 0.674422025680542
vt 0.4947449862957001 0.2252979874610901
vt 0.37864500284194946 0.2252979874610901
vt 0.4947449862957001 0.3681870102882385
vn 0.42791520062434824 0.8269470066846515 -0.3647563970788161
vn 0 0.9283296269470269 -0.37175812530783214
vn 1.7038719156195123e-8 0.8122765302627883 -0.5832725249694565
vn 0.39887320734441634 0.6026740034738893 -0.691147024879318
vn 0.42791520062434824 0.8269470066846515 -0.3647563970788161
vn 1.7038719156195123e-8 0.8122765302627883 -0.5832725249694565
vn -0.41849835953898223 0.8345956057820375 -0.35820287250731914
vn -0.321731708210436 0.5410408240021184 -0.7770222227807282
vn 1.7038719156195123e-8 0.8122765302627883 -0.5832725249694565
vn 0 0.9283296269470269 -0.37175812530783214
vn -0.41849835953898223 0.8345956057820375 -0.35820287250731914
vn 1.7038719156195123e-8 0.8122765302627883 -0.5832725249694565
vn -0.3883659940055852 -0.012122279347615374 -0.9214254744923607
vn -0.4089227810122241 -0.08582834799237561 -0.9085238873305029
vn -0.2699144893965911 -0.04541035058311242 -0.9618129072089313
vn 0.2825032269397839 0.02485886596140283 -0.9589441920944733
vn -0.3883659940055852 -0.012122279347615374 -0.9214254744923607
vn -0.2699144893965911 -0.04541035058311242 -0.9618129072089313
vn -0.4089227810122241 -0.08582834799237561 -0.9085238873305029
vn 0.06315183706931884 0.0311774466259331 -0.9975168230644821
vn -0.2699144893965911 -0.04541035058311242 -0.9618129072089313
vn -0.321731708210436 0.5410408240021184 -0.7770222227807282
vn -0.3883659940055852 -0.012122279347615374 -0.9214254744923607
vn 0.2825032269397839 0.02485886596140283 -0.9589441920944733
vn 1.7038719156195123e-8 0.8122765302627883 -0.5832725249694565
vn -0.321731708210436 0.5410408240021184 -0.7770222227807282
vn 0.2825032269397839 0.02485886596140283 -0.9589441920944733
vn 0.4205352458525309 -0.07346145970376473 -0.9042972525303522
vn 0.2341991233393749 0.1256453473319745 -0.9640352780479021
vn 0.2825032269397839 0.02485886596140283 -0.9589441920944733
vn -0.2699144893965911 -0.04541035058311242 -0.9618129072089313
vn 0.4205352458525309 -0.07346145970376473 -0.9042972525303522
vn 0.2825032269397839 0.02485886596140283 -0.9589441920944733
vn -0.41849835953898223 0.8345956057820375 -0.35820287250731914
vn -0.25830951545229314 0.8837767912027898 -0.39014712296530113
vn -0.18489785235298503 0.7466010347493388 -0.6390615612806566
vn -0.321731708210436 0.5410408240021184 -0.7770222227807282
vn -0.41849835953898223 0.8345956057820375 -0.35820287250731914
vn -0.18489785235298503 0.7466010347493388 -0.6390615612806566
vn 0.42791520062434824 0.8269470066846515 -0.3647563970788161
vn 0.39887320734441634 0.6026740034738893 -0.691147024879318
vn 0.17894274754197115 0.6537362069589532 -0.7352608141422001
vn 0.27808188995075755 0.8678293962328127 -0.41175551182176834
vn 0.42791520062434824 0.8269470066846515 -0.3647563970788161
vn 0.17894274754197115 0.6537362069589532 -0.7352608141422001
vn 0.06315183706931884 0.0311774466259331 -0.9975168230644821
vn 0.14847609414163732 -0.024869516514358855 -0.9886032351842603
vn 0.24652641186651472 -0.0866486773700539 -0.9652547513284988
vn 0.4205352458525309 -0.07346145970376473 -0.9042972525303522
vn 0.06315183706931884 0.0311774466259331 -0.9975168230644821
vn 0.24652641186651472 -0.0866486773700539 -0.9652547513284988
vn -0.3883659940055852 -0.012122279347615374 -0.9214254744923607
vn -0.09154353128573477 0.1754516183040815 -0.9802226846560004
vn -0.20686757887816604 -0.09813025040250317 -0.9734352874048834
vn -0.4089227810122241 -0.08582834799237561 -0.9085238873305029
vn -0.3883659940055852 -0.012122279347615374 -0.9214254744923607
vn -0.20686757887816604 -0.09813025040250317 -0.9734352874048834
vn 0.06315183706931884 0.0311774466259331 -0.9975168230644821
vn -0.16215198042704987 -0.03127097854121192 -0.9862701765462953
vn -7.913942032377272e-10 0.13388911022882352 -0.9909963199538807
vn 0.2825032269397839 0.02485886596140283 -0.9589441920944733
vn 0.2341991233393749 0.1256453473319745 -0.9640352780479021
vn 0.39887320734441634 0.6026740034738893 -0.691147024879318
vn 1.7038719156195123e-8 0.8122765302627883 -0.5832725249694565
vn 0.2825032269397839 0.02485886596140283 -0.9589441920944733
vn 0.39887320734441634 0.6026740034738893 -0.691147024879318
vn -0.09154353128573477 0.1754516183040815 -0.9802226846560004
vn -0.3883659940055852 -0.012122279347615374 -0.9214254744923607
vn -0.321731708210436 0.5410408240021184 -0.7770222227807282
vn -0.18489785235298503 0.7466010347493388 -0.6390615612806566
vn -0.09154353128573477 0.1754516183040815 -0.9802226846560004
vn -0.321731708210436 0.5410408240021184 -0.7770222227807282
vn 0.16978583157873006 0.04685151281162894 -0.9843666527988343
vn 0.2341991233393749 0.1256453473319745 -0.9640352780479021
vn 0.4205352458525309 -0.07346145970376473 -0.9042972525303522
vn 0.24652641186651472 -0.0866486773700539 -0.9652547513284988
vn 0.16978583157873006 0.04685151281162894 -0.9843666527988343
vn 0.4205352458525309 -0.07346145970376473 -0.9042972525303522
vn -0.2699144893965911 -0.04541035058311242 -0.9618129072089313
vn 0.06315183706931884 0.0311774466259331 -0.9975168230644821
vn 0.4205352458525309 -0.07346145970376473 -0.9042972525303522
vn -0.16215198042704987 -0.03127097854121192 -0.9862701765462953
vn 0.06315183706931884 0.0311774466259331 -0.9975168230644821
vn -0.4089227810122241 -0.08582834799237561 -0.9085238873305029
vn -0.20686757887816604 -0.09813025040250317 -0.9734352874048834
vn -0.16215198042704987 -0.03127097854121192 -0.9862701765462953
vn -0.4089227810122241 -0.08582834799237561 -0.9085238873305029
vn 0.17894274754197115 0.6537362069589532 -0.7352608141422001
vn 0.39887320734441634 0.6026740034738893 -0.691147024879318
vn 0.2341991233393749 0.1256453473319745 -0.9640352780479021
vn 0.16978583157873006 0.04685151281162894 -0.9843666527988343
vn 0.17894274754197115 0.6537362069589532 -0.7352608141422001
vn 0.2341991233393749 0.1256453473319745 -0.9640352780479021
vn -7.913942032377272e-10 0.13388911022882352 -0.9909963199538807
vn 0.14847609414163732 -0.024869516514358855 -0.9886032351842603
vn 0.06315183706931884 0.0311774466259331 -0.9975168230644821
f 1/1/1 2/2/2 3/3/3
f 4/4/4 5/5/5 6/6/6
f 7/7/7 8/8/8 9/9/9
f 10/10/10 11/11/11 12/12/12
f 13/13/13 14/14/14 15/15/15
f 16/16/16 17/17/17 18/18/18
f 19/19/19 20/20/20 21/21/21
f 22/22/22 23/23/23 24/24/24
f 25/25/25 26/26/26 27/27/27
f 28/28/28 29/29/29 30/30/30
f 31/31/31 32/32/32 33/33/33
f 34/34/34 35/35/35 36/36/36
f 37/37/37 38/38/38 39/39/39
f 40/40/40 41/41/41 42/42/42
f 43/43/43 44/44/44 45/45/45
f 46/46/46 47/47/47 48/48/48
f 49/49/49 50/50/50 51/51/51
f 52/52/52 53/53/53 54/54/54
f 55/55/55 56/56/56 57/57/57
f 58/58/58 59/59/59 60/60/60
f 61/61/61 62/62/62 63/63/63
f 64/64/64 65/65/65 66/66/66
f 67/67/67 68/68/68 69/69/69
f 70/70/70 71/71/71 72/72/72
f 73/73/73 74/74/74 75/75/75
f 76/76/76 77/77/77 78/78/78
f 79/79/79 80/80/80 81/81/81
f 82/82/82 83/83/83 84/84/84
f 85/85/85 86/86/86 87/87/87
f 88/88/88 89/89/89 90/90/90
f 91/91/91 92/92/92 93/93/93
f 94/94/94 95/95/95 96/96/96
