mtllib ArcadaCompleta.mtl
o D41C_F
usemtl F
v -2.7612199783325195 -16.79424285888672 1.484389438762772
v -2.7613399028778076 -18.815113067626953 2.3466493035699
v -1.6320699453353882 -18.81519317626953 2.189629449977981
v -2.7612199783325195 -16.79424285888672 1.484389438762772
v -1.6320699453353882 -18.81519317626953 2.189629449977981
v -1.5349199771881104 -16.794322967529297 1.3971294309044957
v -2.7612199783325195 -16.79424285888672 1.484389438762772
v -3.9875199794769287 -16.794172286987305 1.3971294309044957
v -3.8906099796295166 -18.815021514892578 2.189629449977981
v -2.7612199783325195 -16.79424285888672 1.484389438762772
v -3.8906099796295166 -18.815021514892578 2.189629449977981
v -2.7613399028778076 -18.815113067626953 2.3466493035699
v -2.7612199783325195 -16.79424285888672 1.484389438762772
v -2.7611401081085205 -15.758832931518555 0.9391884352112889
v -3.9910199642181396 -15.758792877197266 0.861257388725388
v -2.7612199783325195 -16.79424285888672 1.484389438762772
v -3.9910199642181396 -15.758792877197266 0.861257388725388
v -3.9875199794769287 -16.794172286987305 1.3971294309044957
v -2.7614500522613525 -20.549732208251953 2.8454593564416037
v -2.7613399028778076 -18.815113067626953 2.3466493035699
v -3.8906099796295166 -18.815021514892578 2.189629449977981
v -2.7614500522613525 -20.549732208251953 2.8454593564416037
v -3.8906099796295166 -18.815021514892578 2.189629449977981
v -3.829200029373169 -20.549652099609375 2.5899394894982444
v -2.7614500522613525 -20.549732208251953 2.8454593564416037
v -1.6936999559402466 -20.549823760986328 2.5899394894982444
v -1.6320699453353882 -18.81519317626953 2.189629449977981
v -2.7614500522613525 -20.549732208251953 2.8454593564416037
v -1.6320699453353882 -18.81519317626953 2.189629449977981
v -2.7613399028778076 -18.815113067626953 2.3466493035699
v -1.5349199771881104 -16.794322967529297 1.3971294309044957
v -1.5312600135803223 -15.758862495422363 0.861257388725388
v -2.7611401081085205 -15.758832931518555 0.9391884352112889
v -1.5349199771881104 -16.794322967529297 1.3971294309044957
v -2.7611401081085205 -15.758832931518555 0.9391884352112889
v -2.7612199783325195 -16.79424285888672 1.484389438762772
vt 0.4999699890613556 0.737716019153595
vt 0.4999470114707947 0.5243920087814331
vt 0.7243710160255432 0.524383008480072
vt 0.4999699890613556 0.737716019153595
vt 0.7243710160255432 0.524383008480072
vt 0.743677020072937 0.7377079725265503
vt 0.4999699890613556 0.737716019153595
vt 0.2562650144100189 0.7377240061759949
vt 0.27552300691604614 0.5244010090827942
vt 0.4999699890613556 0.737716019153595
vt 0.27552300691604614 0.5244010090827942
vt 0.4999470114707947 0.5243920087814331
vt 0.4999699890613556 0.737716019153595
vt 0.4999859929084778 0.8470150232315063
vt 0.2555670142173767 0.8470190167427063
vt 0.4999699890613556 0.737716019153595
vt 0.2555670142173767 0.8470190167427063
vt 0.2562650144100189 0.7377240061759949
vt 0.49992600083351135 0.34128403663635254
vt 0.4999470114707947 0.5243920087814331
vt 0.27552300691604614 0.5244010090827942
vt 0.49992600083351135 0.34128403663635254
vt 0.27552300691604614 0.5244010090827942
vt 0.2877269983291626 0.34129297733306885
vt 0.49992600083351135 0.34128403663635254
vt 0.7121220231056213 0.3412749767303467
vt 0.7243710160255432 0.524383008480072
vt 0.49992600083351135 0.34128403663635254
vt 0.7243710160255432 0.524383008480072
vt 0.4999470114707947 0.5243920087814331
vt 0.743677020072937 0.7377079725265503
vt 0.7444049715995789 0.8470110297203064
vt 0.4999859929084778 0.8470150232315063
vt 0.743677020072937 0.7377079725265503
vt 0.4999859929084778 0.8470150232315063
vt 0.4999699890613556 0.737716019153595
vn -0.005512892235006734 0.4029304914357321 0.915213978854434
vn 0.00002589843205987189 0.3407340847009387 0.9401597113534939
vn 0.13242961370469328 0.3188496208956719 0.9385080269601919
vn -0.005512892235006734 0.4029304914357321 0.915213978854434
vn 0.13242961370469328 0.3188496208956719 0.9385080269601919
vn 0.0628387095117038 0.41422109917409167 0.9080045030647762
vn -0.005512892235006734 0.4029304914357321 0.915213978854434
vn -0.06515350710935865 0.39597119502047895 0.9159485974799049
vn -0.13238405005611123 0.31886792940184716 0.9385082348545055
vn -0.005512892235006734 0.4029304914357321 0.915213978854434
vn -0.13238405005611123 0.31886792940184716 0.9385082348545055
vn 0.00002589843205987189 0.3407340847009387 0.9401597113534939
vn -0.005512892235006734 0.4029304914357321 0.915213978854434
vn 0.02098805758498798 0.46366599470680103 0.8857614502739223
vn -0.05949600088892761 0.4618914164598761 0.8849387240249542
vn -0.005512892235006734 0.4029304914357321 0.915213978854434
vn -0.05949600088892761 0.4618914164598761 0.8849387240249542
vn -0.06515350710935865 0.39597119502047895 0.9159485974799049
vn 0.000019614413432929966 0.24785573368535777 0.9687969523561517
vn 0.00002589843205987189 0.3407340847009387 0.9401597113534939
vn -0.13238405005611123 0.31886792940184716 0.9385082348545055
vn 0.000019614413432929966 0.24785573368535777 0.9687969523561517
vn -0.13238405005611123 0.31886792940184716 0.9385082348545055
vn -0.22746471106013472 0.2113179635375401 0.9505811504067794
vn 0.000019614413432929966 0.24785573368535777 0.9687969523561517
vn 0.2274983458938818 0.21128759768301522 0.9505798512912464
vn 0.13242961370469328 0.3188496208956719 0.9385080269601919
vn 0.000019614413432929966 0.24785573368535777 0.9687969523561517
vn 0.13242961370469328 0.3188496208956719 0.9385080269601919
vn 0.00002589843205987189 0.3407340847009387 0.9401597113534939
vn 0.0628387095117038 0.41422109917409167 0.9080045030647762
vn 0.056202484994480044 0.45873530689549086 0.8867937747232695
vn 0.02098805758498798 0.46366599470680103 0.8857614502739223
vn 0.0628387095117038 0.41422109917409167 0.9080045030647762
vn 0.02098805758498798 0.46366599470680103 0.8857614502739223
vn -0.005512892235006734 0.4029304914357321 0.915213978854434
f 1/1/1 2/2/2 3/3/3
f 4/4/4 5/5/5 6/6/6
f 7/7/7 8/8/8 9/9/9
f 10/10/10 11/11/11 12/12/12
f 13/13/13 14/14/14 15/15/15
f 16/16/16 17/17/17 18/18/18
f 19/19/19 20/20/20 21/21/21
f 22/22/22 23/23/23 24/24/24
f 25/25/25 26/26/26 27/27/27
f 28/28/28 29/29/29 30/30/30
f 31/31/31 32/32/32 33/33/33
f 34/34/34 35/35/35 36/36/36
