mtllib ArcadaCompleta.mtl
o D41C_I
usemtl I
v -2.7610700130462646 -14.334632873535156 -0.017654780760895848
v -3.606019973754883 -14.334632873535156 -0.017654780760895848
v -3.9910199642181396 -15.758792877197266 0.861257388725388
v -2.7610700130462646 -14.334632873535156 -0.017654780760895848
v -3.9910199642181396 -15.758792877197266 0.861257388725388
v -2.7611401081085205 -15.758832931518555 0.9391884352112889
v -2.7610700130462646 -14.334632873535156 -0.017654780760895848
v -2.7610700130462646 -14.314302444458008 -0.49326558457363806
v -3.606019973754883 -14.314302444458008 -0.49326558457363806
v -2.7610700130462646 -14.334632873535156 -0.017654780760895848
v -3.606019973754883 -14.314302444458008 -0.49326558457363806
v -3.606019973754883 -14.334632873535156 -0.017654780760895848
v -2.7611000537872314 -14.73972225189209 -0.8501955722426293
v -1.9161499738693237 -14.73972225189209 -0.8501955722426293
v -1.8872699737548828 -15.767023086547852 -0.790408596858871
v -2.7611000537872314 -14.73972225189209 -0.8501955722426293
v -1.8872699737548828 -15.767023086547852 -0.790408596858871
v -2.761159896850586 -15.766983032226562 -0.7959115956877589
v -2.7611000537872314 -14.73972225189209 -0.8501955722426293
v -2.7610700130462646 -14.314302444458008 -0.49326558457363806
v -1.9161200523376465 -14.314302444458008 -0.49326558457363806
v -2.7611000537872314 -14.73972225189209 -0.8501955722426293
v -1.9161200523376465 -14.314302444458008 -0.49326558457363806
v -1.9161499738693237 -14.73972225189209 -0.8501955722426293
v -5.274489879608154 -14.314302444458008 -0.49326558457363806
v -4.431690216064453 -14.314302444458008 -0.49326558457363806
v -4.395659923553467 -14.73972225189209 -0.8501955722426293
v -5.274489879608154 -14.314302444458008 -0.49326558457363806
v -4.395659923553467 -14.73972225189209 -0.8501955722426293
v -5.185279846191406 -14.73972225189209 -0.8501955722426293
v -0.24765600264072418 -14.314302444458008 -0.49326558457363806
v -1.0904500484466553 -14.314302444458008 -0.49326558457363806
v -1.1265100240707397 -14.334632873535156 -0.017654780760895848
v -0.24765600264072418 -14.314302444458008 -0.49326558457363806
v -1.1265100240707397 -14.334632873535156 -0.017654780760895848
v -0.3368909955024719 -14.334632873535156 -0.017654780760895848
v -5.1852498054504395 -14.334632873535156 -0.017654780760895848
v -4.395639896392822 -14.334632873535156 -0.017654780760895848
v -4.431690216064453 -14.314302444458008 -0.49326558457363806
v -5.1852498054504395 -14.334632873535156 -0.017654780760895848
v -4.431690216064453 -14.314302444458008 -0.49326558457363806
v -5.274489879608154 -14.314302444458008 -0.49326558457363806
v -5.1852498054504395 -14.334632873535156 -0.017654780760895848
v -3.9910199642181396 -15.758792877197266 0.861257388725388
v -4.395639896392822 -14.334632873535156 -0.017654780760895848
v -0.3369179964065552 -14.73972225189209 -0.8501955722426293
v -1.1265300512313843 -14.73972225189209 -0.8501955722426293
v -1.0904500484466553 -14.314302444458008 -0.49326558457363806
v -0.3369179964065552 -14.73972225189209 -0.8501955722426293
v -1.0904500484466553 -14.314302444458008 -0.49326558457363806
v -0.24765600264072418 -14.314302444458008 -0.49326558457363806
v -0.3369179964065552 -14.73972225189209 -0.8501955722426293
v -1.1203199625015259 -15.76705265045166 -0.8628035639380336
v -1.1265300512313843 -14.73972225189209 -0.8501955722426293
v -1.9161200523376465 -14.334632873535156 -0.017654780760895848
v -1.9161200523376465 -14.314302444458008 -0.49326558457363806
v -2.7610700130462646 -14.314302444458008 -0.49326558457363806
v -1.9161200523376465 -14.334632873535156 -0.017654780760895848
v -2.7610700130462646 -14.314302444458008 -0.49326558457363806
v -2.7610700130462646 -14.334632873535156 -0.017654780760895848
v -1.9161200523376465 -14.334632873535156 -0.017654780760895848
v -1.1265100240707397 -14.334632873535156 -0.017654780760895848
v -1.0904500484466553 -14.314302444458008 -0.49326558457363806
v -1.9161200523376465 -14.334632873535156 -0.017654780760895848
v -1.0904500484466553 -14.314302444458008 -0.49326558457363806
v -1.9161200523376465 -14.314302444458008 -0.49326558457363806
v -1.9161200523376465 -14.334632873535156 -0.017654780760895848
v -1.5312600135803223 -15.758862495422363 0.861257388725388
v -1.1265100240707397 -14.334632873535156 -0.017654780760895848
v -3.6060500144958496 -14.73972225189209 -0.8501955722426293
v -3.606019973754883 -14.314302444458008 -0.49326558457363806
v -2.7610700130462646 -14.314302444458008 -0.49326558457363806
v -3.6060500144958496 -14.73972225189209 -0.8501955722426293
v -2.7610700130462646 -14.314302444458008 -0.49326558457363806
v -2.7611000537872314 -14.73972225189209 -0.8501955722426293
v -3.6060500144958496 -14.73972225189209 -0.8501955722426293
v -4.395659923553467 -14.73972225189209 -0.8501955722426293
v -4.431690216064453 -14.314302444458008 -0.49326558457363806
v -3.6060500144958496 -14.73972225189209 -0.8501955722426293
v -4.431690216064453 -14.314302444458008 -0.49326558457363806
v -3.606019973754883 -14.314302444458008 -0.49326558457363806
v -3.6060500144958496 -14.73972225189209 -0.8501955722426293
v -3.635050058364868 -15.766942977905273 -0.790408596858871
v -4.4019999504089355 -15.766912460327148 -0.8628035639380336
v -3.6060500144958496 -14.73972225189209 -0.8501955722426293
v -4.4019999504089355 -15.766912460327148 -0.8628035639380336
v -4.395659923553467 -14.73972225189209 -0.8501955722426293
v -3.606019973754883 -14.314302444458008 -0.49326558457363806
v -4.431690216064453 -14.314302444458008 -0.49326558457363806
v -4.395639896392822 -14.334632873535156 -0.017654780760895848
v -3.606019973754883 -14.314302444458008 -0.49326558457363806
v -4.395639896392822 -14.334632873535156 -0.017654780760895848
v -3.606019973754883 -14.334632873535156 -0.017654780760895848
v -1.9161200523376465 -14.314302444458008 -0.49326558457363806
v -1.0904500484466553 -14.314302444458008 -0.49326558457363806
v -1.1265300512313843 -14.73972225189209 -0.8501955722426293
v -1.9161200523376465 -14.314302444458008 -0.49326558457363806
v -1.1265300512313843 -14.73972225189209 -0.8501955722426293
v -1.9161499738693237 -14.73972225189209 -0.8501955722426293
v -4.395659923553467 -14.73972225189209 -0.8501955722426293
v -4.4019999504089355 -15.766912460327148 -0.8628035639380336
v -5.185279846191406 -14.73972225189209 -0.8501955722426293
v -4.395639896392822 -14.334632873535156 -0.017654780760895848
v -3.9910199642181396 -15.758792877197266 0.861257388725388
v -3.606019973754883 -14.334632873535156 -0.017654780760895848
v -1.1265300512313843 -14.73972225189209 -0.8501955722426293
v -1.1203199625015259 -15.76705265045166 -0.8628035639380336
v -1.8872699737548828 -15.767023086547852 -0.790408596858871
v -1.1265300512313843 -14.73972225189209 -0.8501955722426293
v -1.8872699737548828 -15.767023086547852 -0.790408596858871
v -1.9161499738693237 -14.73972225189209 -0.8501955722426293
v -1.1265100240707397 -14.334632873535156 -0.017654780760895848
v -1.5312600135803223 -15.758862495422363 0.861257388725388
v -0.3368909955024719 -14.334632873535156 -0.017654780760895848
v -2.7611401081085205 -15.758832931518555 0.9391884352112889
v -1.5312600135803223 -15.758862495422363 0.861257388725388
v -1.9161200523376465 -14.334632873535156 -0.017654780760895848
v -2.7611401081085205 -15.758832931518555 0.9391884352112889
v -1.9161200523376465 -14.334632873535156 -0.017654780760895848
v -2.7610700130462646 -14.334632873535156 -0.017654780760895848
v -2.761159896850586 -15.766983032226562 -0.7959115956877589
v -3.635050058364868 -15.766942977905273 -0.790408596858871
v -3.6060500144958496 -14.73972225189209 -0.8501955722426293
v -2.761159896850586 -15.766983032226562 -0.7959115956877589
v -3.6060500144958496 -14.73972225189209 -0.8501955722426293
v -2.7611000537872314 -14.73972225189209 -0.8501955722426293
vt 0.5000010132789612 0.9973539710044861
vt 0.33208000659942627 0.9973539710044861
vt 0.2555670142173767 0.8470190167427063
vt 0.5000010132789612 0.9973539710044861
vt 0.2555670142173767 0.8470190167427063
vt 0.4999859929084778 0.8470150232315063
vt 0.5000010132789612 0.5026609897613525
vt 0.5000010132789612 0.5813770294189453
vt 0.33208000659942627 0.5813770294189453
vt 0.5000010132789612 0.5026609897613525
vt 0.33208000659942627 0.5813770294189453
vt 0.33208000659942627 0.5026609897613525
vt 0.5000039935112 0.9545930027961731
vt 0.3320850133895874 0.9545930027961731
vt 0.3263449966907501 0.8461509943008423
vt 0.5000039935112 0.9545930027961731
vt 0.3263449966907501 0.8461509943008423
vt 0.500016987323761 0.846153974533081
vt 0.5000039935112 0.9545930027961731
vt 0.4999989867210388 0.9994999766349792
vt 0.33208000659942627 0.9994999766349792
vt 0.5000039935112 0.9545930027961731
vt 0.33208000659942627 0.9994999766349792
vt 0.3320850133895874 0.9545930027961731
vt 0.9994999766349792 0.9994999766349792
vt 0.8320080041885376 0.9994999766349792
vt 0.8248479962348938 0.9545930027961731
vt 0.9994999766349792 0.9994999766349792
vt 0.8248479962348938 0.9545930027961731
vt 0.9817709922790527 0.9545930027961731
vt 0.9994999766349792 0.5813770294189453
vt 0.8320090174674988 0.5813770294189453
vt 0.8248440027236938 0.5026609897613525
vt 0.9994999766349792 0.5813770294189453
vt 0.8248440027236938 0.5026609897613525
vt 0.9817659854888916 0.5026609897613525
vt 0.01823429949581623 0.5026609897613525
vt 0.17515699565410614 0.5026609897613525
vt 0.1679919958114624 0.5813770294189453
vt 0.01823429949581623 0.5026609897613525
vt 0.1679919958114624 0.5813770294189453
vt 0.0004997850046493113 0.5813770294189453
vt 0.01823429949581623 0.9973539710044861
vt 0.2555670142173767 0.8470190167427063
vt 0.17515699565410614 0.9973539710044861
vt 0.01823900081217289 0.9545930027961731
vt 0.17516200244426727 0.9545930027961731
vt 0.16799099743366241 0.9994999766349792
vt 0.01823900081217289 0.9545930027961731
vt 0.16799099743366241 0.9994999766349792
vt 0.0004996960051357746 0.9994999766349792
vt 0.01823900081217289 0.9545930027961731
vt 0.17392699420452118 0.8461470007896423
vt 0.17516200244426727 0.9545930027961731
vt 0.6679210066795349 0.5026609897613525
vt 0.6679199934005737 0.5813770294189453
vt 0.5000010132789612 0.5813770294189453
vt 0.6679210066795349 0.5026609897613525
vt 0.5000010132789612 0.5813770294189453
vt 0.5000010132789612 0.5026609897613525
vt 0.6679210066795349 0.5026609897613525
vt 0.8248440027236938 0.5026609897613525
vt 0.8320090174674988 0.5813770294189453
vt 0.6679210066795349 0.5026609897613525
vt 0.8320090174674988 0.5813770294189453
vt 0.6679199934005737 0.5813770294189453
vt 0.6679210066795349 0.9973539710044861
vt 0.7444049715995789 0.8470110297203064
vt 0.8248440027236938 0.9973539710044861
vt 0.6679250001907349 0.9545930027961731
vt 0.6679199934005737 0.9994999766349792
vt 0.4999989867210388 0.9994999766349792
vt 0.6679250001907349 0.9545930027961731
vt 0.4999989867210388 0.9994999766349792
vt 0.5000039935112 0.9545930027961731
vt 0.6679250001907349 0.9545930027961731
vt 0.8248479962348938 0.9545930027961731
vt 0.8320080041885376 0.9994999766349792
vt 0.6679250001907349 0.9545930027961731
vt 0.8320080041885376 0.9994999766349792
vt 0.6679199934005737 0.9994999766349792
vt 0.6679250001907349 0.9545930027961731
vt 0.6736890077590942 0.8461580276489258
vt 0.8261079788208008 0.8461620211601257
vt 0.6679250001907349 0.9545930027961731
vt 0.8261079788208008 0.8461620211601257
vt 0.8248479962348938 0.9545930027961731
vt 0.33208000659942627 0.5813770294189453
vt 0.1679919958114624 0.5813770294189453
vt 0.17515699565410614 0.5026609897613525
vt 0.33208000659942627 0.5813770294189453
vt 0.17515699565410614 0.5026609897613525
vt 0.33208000659942627 0.5026609897613525
vt 0.33208000659942627 0.9994999766349792
vt 0.16799099743366241 0.9994999766349792
vt 0.17516200244426727 0.9545930027961731
vt 0.33208000659942627 0.9994999766349792
vt 0.17516200244426727 0.9545930027961731
vt 0.3320850133895874 0.9545930027961731
vt 0.8248479962348938 0.9545930027961731
vt 0.8261079788208008 0.8461620211601257
vt 0.9817709922790527 0.9545930027961731
vt 0.17515699565410614 0.9973539710044861
vt 0.2555670142173767 0.8470190167427063
vt 0.33208000659942627 0.9973539710044861
vt 0.17516200244426727 0.9545930027961731
vt 0.17392699420452118 0.8461470007896423
vt 0.3263449966907501 0.8461509943008423
vt 0.17516200244426727 0.9545930027961731
vt 0.3263449966907501 0.8461509943008423
vt 0.3320850133895874 0.9545930027961731
vt 0.8248440027236938 0.9973539710044861
vt 0.7444049715995789 0.8470110297203064
vt 0.9817659854888916 0.9973539710044861
vt 0.4999859929084778 0.8470150232315063
vt 0.7444049715995789 0.8470110297203064
vt 0.6679210066795349 0.9973539710044861
vt 0.4999859929084778 0.8470150232315063
vt 0.6679210066795349 0.9973539710044861
vt 0.5000010132789612 0.9973539710044861
vt 0.500016987323761 0.846153974533081
vt 0.6736890077590942 0.8461580276489258
vt 0.6679250001907349 0.9545930027961731
vt 0.500016987323761 0.846153974533081
vt 0.6679250001907349 0.9545930027961731
vt 0.5000039935112 0.9545930027961731
vn -0.019253570230911128 0.6825938694792777 0.7305442555948751
vn 0 0.6840252994717517 0.7294582850873519
vn -0.0179907575782688 0.5363041441273988 0.8438330389558933
vn -0.019253570230911128 0.6825938694792777 0.7305442555948751
vn -0.0179907575782688 0.5363041441273988 0.8438330389558933
vn 0.0000118257863198562 0.5495915229577116 0.8354335148611012
vn -0.019253570230911128 0.6825938694792777 0.7305442555948751
vn 0 0.8992055519792663 -0.43752642810424974
vn 0 0.958669626553536 -0.2845216109959025
vn -0.019253570230911128 0.6825938694792777 0.7305442555948751
vn 0 0.958669626553536 -0.2845216109959025
vn 0 0.6840252994717517 0.7294582850873519
vn 0.0014912686489222818 0.20081396563785053 -0.9796282597611284
vn 0 0.2003934081042088 -0.9797155107419604
vn -0.020402889118444338 -0.04036037136560173 -0.9989768578595056
vn 0.0014912686489222818 0.20081396563785053 -0.9796282597611284
vn -0.020402889118444338 -0.04036037136560173 -0.9989768578595056
vn -0.0000016302168618863329 -0.05450875374250195 -0.9985132927321408
vn 0.0014912686489222818 0.20081396563785053 -0.9796282597611284
vn 0 0.8992055519792663 -0.43752642810424974
vn 0 0.8211561744800293 -0.5707035457339682
vn 0.0014912686489222818 0.20081396563785053 -0.9796282597611284
vn 0 0.8211561744800293 -0.5707035457339682
vn 0 0.2003934081042088 -0.9797155107419604
vn 0 0.8235842581528933 -0.5671939436583826
vn 0 0.8992055399393184 -0.43752645284878355
vn 0 0.31629952313622034 -0.9486593759953039
vn 0 0.8235842581528933 -0.5671939436583826
vn 0 0.31629952313622034 -0.9486593759953039
vn 0 0.24654312296954692 -0.9691318220533379
vn 0 0.9572889534466164 -0.28913294452393695
vn 0 0.8992054702190885 -0.4375265961379585
vn 0 0.7414804484808493 0.670974473821947
vn 0 0.9572889534466164 -0.28913294452393695
vn 0 0.7414804484808493 0.670974473821947
vn 0 0.6840077365108087 0.7294747537738095
vn 0 0.7856917654952756 0.6186181775804176
vn 0 0.7404739166656358 0.6720850978394424
vn 0 0.8992055399393184 -0.43752645284878355
vn 0 0.7856917654952756 0.6186181775804176
vn 0 0.8992055399393184 -0.43752645284878355
vn 0 0.8235842581528933 -0.5671939436583826
vn 0 0.7856917654952756 0.6186181775804176
vn -0.0179907575782688 0.5363041441273988 0.8438330389558933
vn 0 0.7404739166656358 0.6720850978394424
vn 0 0.3662436917679489 -0.9305189725310191
vn -0.021050177384317074 0.2350171938899363 -0.9717632471997429
vn 0 0.8992054702190885 -0.4375265961379585
vn 0 0.3662436917679489 -0.9305189725310191
vn 0 0.8992054702190885 -0.4375265961379585
vn 0 0.9572889534466164 -0.28913294452393695
vn 0 0.3662436917679489 -0.9305189725310191
vn -0.04645574742993074 0.011977626697341604 -0.9988485370612632
vn -0.021050177384317074 0.2350171938899363 -0.9717632471997429
vn 0.018839364506106283 0.7102514367675703 0.7036959392483433
vn 0 0.8211561744800293 -0.5707035457339682
vn 0 0.8992055519792663 -0.43752642810424974
vn 0.018839364506106283 0.7102514367675703 0.7036959392483433
vn 0 0.8992055519792663 -0.43752642810424974
vn -0.019253570230911128 0.6825938694792777 0.7305442555948751
vn 0.018839364506106283 0.7102514367675703 0.7036959392483433
vn 0 0.7414804484808493 0.670974473821947
vn 0 0.8992054702190885 -0.4375265961379585
vn 0.018839364506106283 0.7102514367675703 0.7036959392483433
vn 0 0.8992054702190885 -0.4375265961379585
vn 0 0.8211561744800293 -0.5707035457339682
vn 0.018839364506106283 0.7102514367675703 0.7036959392483433
vn 0.02352855046059017 0.529615911151478 0.8479111946238316
vn 0 0.7414804484808493 0.670974473821947
vn 0.014068126743895645 0.2137116062231791 -0.9767954940392727
vn 0 0.958669626553536 -0.2845216109959025
vn 0 0.8992055519792663 -0.43752642810424974
vn 0.014068126743895645 0.2137116062231791 -0.9767954940392727
vn 0 0.8992055519792663 -0.43752642810424974
vn 0.0014912686489222818 0.20081396563785053 -0.9796282597611284
vn 0.014068126743895645 0.2137116062231791 -0.9767954940392727
vn 0 0.31629952313622034 -0.9486593759953039
vn 0 0.8992055399393184 -0.43752645284878355
vn 0.014068126743895645 0.2137116062231791 -0.9767954940392727
vn 0 0.8992055399393184 -0.43752645284878355
vn 0 0.958669626553536 -0.2845216109959025
vn 0.014068126743895645 0.2137116062231791 -0.9767954940392727
vn 0.04065908505943019 -0.059200234919839306 -0.9974177514900996
vn 0.03083961599524085 -0.01162944251935641 -0.9994566894828184
vn 0.014068126743895645 0.2137116062231791 -0.9767954940392727
vn 0.03083961599524085 -0.01162944251935641 -0.9994566894828184
vn 0 0.31629952313622034 -0.9486593759953039
vn 0 0.958669626553536 -0.2845216109959025
vn 0 0.8992055399393184 -0.43752645284878355
vn 0 0.7404739166656358 0.6720850978394424
vn 0 0.958669626553536 -0.2845216109959025
vn 0 0.7404739166656358 0.6720850978394424
vn 0 0.6840252994717517 0.7294582850873519
vn 0 0.8211561744800293 -0.5707035457339682
vn 0 0.8992054702190885 -0.4375265961379585
vn -0.021050177384317074 0.2350171938899363 -0.9717632471997429
vn 0 0.8211561744800293 -0.5707035457339682
vn -0.021050177384317074 0.2350171938899363 -0.9717632471997429
vn 0 0.2003934081042088 -0.9797155107419604
vn 0 0.31629952313622034 -0.9486593759953039
vn 0.03083961599524085 -0.01162944251935641 -0.9994566894828184
vn 0 0.24654312296954692 -0.9691318220533379
vn 0 0.7404739166656358 0.6720850978394424
vn -0.0179907575782688 0.5363041441273988 0.8438330389558933
vn 0 0.6840252994717517 0.7294582850873519
vn -0.021050177384317074 0.2350171938899363 -0.9717632471997429
vn -0.04645574742993074 0.011977626697341604 -0.9988485370612632
vn -0.020402889118444338 -0.04036037136560173 -0.9989768578595056
vn -0.021050177384317074 0.2350171938899363 -0.9717632471997429
vn -0.020402889118444338 -0.04036037136560173 -0.9989768578595056
vn 0 0.2003934081042088 -0.9797155107419604
vn 0 0.7414804484808493 0.670974473821947
vn 0.02352855046059017 0.529615911151478 0.8479111946238316
vn 0 0.6840077365108087 0.7294747537738095
vn 0.0000118257863198562 0.5495915229577116 0.8354335148611012
vn 0.02352855046059017 0.529615911151478 0.8479111946238316
vn 0.018839364506106283 0.7102514367675703 0.7036959392483433
vn 0.0000118257863198562 0.5495915229577116 0.8354335148611012
vn 0.018839364506106283 0.7102514367675703 0.7036959392483433
vn -0.019253570230911128 0.6825938694792777 0.7305442555948751
vn -0.0000016302168618863329 -0.05450875374250195 -0.9985132927321408
vn 0.04065908505943019 -0.059200234919839306 -0.9974177514900996
vn 0.014068126743895645 0.2137116062231791 -0.9767954940392727
vn -0.0000016302168618863329 -0.05450875374250195 -0.9985132927321408
vn 0.014068126743895645 0.2137116062231791 -0.9767954940392727
vn 0.0014912686489222818 0.20081396563785053 -0.9796282597611284
f 1/1/1 2/2/2 3/3/3
f 4/4/4 5/5/5 6/6/6
f 7/7/7 8/8/8 9/9/9
f 10/10/10 11/11/11 12/12/12
f 13/13/13 14/14/14 15/15/15
f 16/16/16 17/17/17 18/18/18
f 19/19/19 20/20/20 21/21/21
f 22/22/22 23/23/23 24/24/24
f 25/25/25 26/26/26 27/27/27
f 28/28/28 29/29/29 30/30/30
f 31/31/31 32/32/32 33/33/33
f 34/34/34 35/35/35 36/36/36
f 37/37/37 38/38/38 39/39/39
f 40/40/40 41/41/41 42/42/42
f 43/43/43 44/44/44 45/45/45
f 46/46/46 47/47/47 48/48/48
f 49/49/49 50/50/50 51/51/51
f 52/52/52 53/53/53 54/54/54
f 55/55/55 56/56/56 57/57/57
f 58/58/58 59/59/59 60/60/60
f 61/61/61 62/62/62 63/63/63
f 64/64/64 65/65/65 66/66/66
f 67/67/67 68/68/68 69/69/69
f 70/70/70 71/71/71 72/72/72
f 73/73/73 74/74/74 75/75/75
f 76/76/76 77/77/77 78/78/78
f 79/79/79 80/80/80 81/81/81
f 82/82/82 83/83/83 84/84/84
f 85/85/85 86/86/86 87/87/87
f 88/88/88 89/89/89 90/90/90
f 91/91/91 92/92/92 93/93/93
f 94/94/94 95/95/95 96/96/96
f 97/97/97 98/98/98 99/99/99
f 100/100/100 101/101/101 102/102/102
f 103/103/103 104/104/104 105/105/105
f 106/106/106 107/107/107 108/108/108
f 109/109/109 110/110/110 111/111/111
f 112/112/112 113/113/113 114/114/114
f 115/115/115 116/116/116 117/117/117
f 118/118/118 119/119/119 120/120/120
f 121/121/121 122/122/122 123/123/123
f 124/124/124 125/125/125 126/126/126
