mtllib ArcadaCompleta.mtl
o D42C_CV
usemtl V
v -9.090069770812988 -23.778032302856445 2.6519893552209
v -9.089969635009766 -21.791162490844727 3.0164693738366233
v -9.908479690551758 -21.79108238220215 2.840649500026809
v -9.090069770812988 -23.778032302856445 2.6519893552209
v -9.908479690551758 -21.79108238220215 2.840649500026809
v -9.784449577331543 -23.74793243408203 2.4344793702508074
v -7.494589805603027 -20.54989242553711 1.993159427776443
v -8.022159576416016 -20.549823760986328 2.5899394894982444
v -8.271459579467773 -21.791242599487305 2.840649500026809
v -7.494589805603027 -20.54989242553711 1.993159427776443
v -8.271459579467773 -21.791242599487305 2.840649500026809
v -7.749899864196777 -21.733882904052734 2.1849693204308616
v -10.817899703979492 -20.549583435058594 1.993159427776443
v -10.61139965057373 -21.733623504638672 2.013449325695144
v -9.908479690551758 -21.79108238220215 2.840649500026809
v -10.817899703979492 -20.549583435058594 1.993159427776443
v -9.908479690551758 -21.79108238220215 2.840649500026809
v -10.157699584960938 -20.549652099609375 2.5899394894982444
v -9.089900016784668 -20.549732208251953 2.8454593564416037
v -10.157699584960938 -20.549652099609375 2.5899394894982444
v -9.908479690551758 -21.79108238220215 2.840649500026809
v -9.089900016784668 -20.549732208251953 2.8454593564416037
v -9.908479690551758 -21.79108238220215 2.840649500026809
v -9.089969635009766 -21.791162490844727 3.0164693738366233
v -8.395689964294434 -23.748132705688477 2.4344793702508074
v -7.749899864196777 -21.733882904052734 2.1849693204308616
v -8.271459579467773 -21.791242599487305 2.840649500026809
v -8.395689964294434 -23.748132705688477 2.4344793702508074
v -8.271459579467773 -21.791242599487305 2.840649500026809
v -9.089969635009766 -21.791162490844727 3.0164693738366233
v -8.395689964294434 -23.748132705688477 2.4344793702508074
v -9.089969635009766 -21.791162490844727 3.0164693738366233
v -9.090069770812988 -23.778032302856445 2.6519893552209
v -9.089969635009766 -21.791162490844727 3.0164693738366233
v -8.271459579467773 -21.791242599487305 2.840649500026809
v -8.022159576416016 -20.549823760986328 2.5899394894982444
v -9.089969635009766 -21.791162490844727 3.0164693738366233
v -8.022159576416016 -20.549823760986328 2.5899394894982444
v -9.089900016784668 -20.549732208251953 2.8454593564416037
v -9.908479690551758 -21.79108238220215 2.840649500026809
v -10.61139965057373 -21.733623504638672 2.013449325695144
v -9.784449577331543 -23.74793243408203 2.4344793702508074
vt 0.499891996383667 0.0004995465278625488
vt 0.49991199374198914 0.21023797988891602
vt 0.33724600076675415 0.2102469801902771
vt 0.499891996383667 0.0004995465278625488
vt 0.33724600076675415 0.2102469801902771
vt 0.36189600825309753 0.003679037094116211
vt 0.16986100375652313 0.3412669897079468
vt 0.0710911974310875 0.3412749767303467
vt 0.029597999528050423 0.2102299928665161
vt 0.16986100375652313 0.3412669897079468
vt 0.029597999528050423 0.2102299928665161
vt 0.1381160020828247 0.21628403663635254
vt 0.8301380276679993 0.34130001068115234
vt 0.8334959745407104 0.2163119912147522
vt 0.9704020023345947 0.2102469801902771
vt 0.8301380276679993 0.34130001068115234
vt 0.9704020023345947 0.2102469801902771
vt 0.9289090037345886 0.34129297733306885
vt 0.49992600083351135 0.34128403663635254
vt 0.2877269983291626 0.34129297733306885
vt 0.33724600076675415 0.2102469801902771
vt 0.49992600083351135 0.34128403663635254
vt 0.33724600076675415 0.2102469801902771
vt 0.49991199374198914 0.21023797988891602
vt 0.09682050347328186 0.0036638379096984863
vt 0.1381160020828247 0.21628403663635254
vt 0.029597999528050423 0.2102299928665161
vt 0.63788902759552 0.0036638379096984863
vt 0.6625769734382629 0.2102299928665161
vt 0.49991199374198914 0.21023797988891602
vt 0.63788902759552 0.0036638379096984863
vt 0.49991199374198914 0.21023797988891602
vt 0.499891996383667 0.0004995465278625488
vt 0.49991199374198914 0.21023797988891602
vt 0.6625769734382629 0.2102299928665161
vt 0.7121220231056213 0.3412749767303467
vt 0.49991199374198914 0.21023797988891602
vt 0.7121220231056213 0.3412749767303467
vt 0.49992600083351135 0.34128403663635254
vt 0.9704020023345947 0.2102469801902771
vt 0.8334959745407104 0.2163119912147522
vt 0.9031789898872375 0.003679037094116211
vn -0.07719412466929818 -0.1929942486438333 0.9781586206270141
vn 0.09422906496444451 -0.05264188353863919 0.9941577920096141
vn -0.48838448314961513 -0.08249688596394877 0.8687202429004025
vn -0.07719412466929818 -0.1929942486438333 0.9781586206270141
vn -0.48838448314961513 -0.08249688596394877 0.8687202429004025
vn -0.5947652419893749 -0.19934612381032352 0.7787910052402502
vn 0.766850993405989 -0.042701865668495945 0.640403079771387
vn 0.3899094241018929 0.10002724258419134 0.9154043869992833
vn 0.5654798713963236 -0.09552113657533175 0.8192119551819018
vn 0.766850993405989 -0.042701865668495945 0.640403079771387
vn 0.5654798713963236 -0.09552113657533175 0.8192119551819018
vn 0.7810955134306268 -0.13597902806533438 0.6094255515031781
vn -0.7223126039157827 -0.05872450935728294 0.6890688893174239
vn -0.7578880536124374 -0.1575341346674614 0.633078742816504
vn -0.48838448314961513 -0.08249688596394877 0.8687202429004025
vn -0.7223126039157827 -0.05872450935728294 0.6890688893174239
vn -0.48838448314961513 -0.08249688596394877 0.8687202429004025
vn -0.4404697795661132 0.0919281496678685 0.8930484805359795
vn -0.0587990390278755 0.14188960063168296 0.9881346134216633
vn -0.4404697795661132 0.0919281496678685 0.8930484805359795
vn -0.48838448314961513 -0.08249688596394877 0.8687202429004025
vn -0.0587990390278755 0.14188960063168296 0.9881346134216633
vn -0.48838448314961513 -0.08249688596394877 0.8687202429004025
vn 0.09422906496444451 -0.05264188353863919 0.9941577920096141
vn 0.455178880208406 -0.19583699037835647 0.8685966038454037
vn 0.7810955134306268 -0.13597902806533438 0.6094255515031781
vn 0.5654798713963236 -0.09552113657533175 0.8192119551819018
vn 0.455178880208406 -0.19583699037835647 0.8685966038454037
vn 0.5654798713963236 -0.09552113657533175 0.8192119551819018
vn 0.09422906496444451 -0.05264188353863919 0.9941577920096141
vn 0.455178880208406 -0.19583699037835647 0.8685966038454037
vn 0.09422906496444451 -0.05264188353863919 0.9941577920096141
vn -0.07719412466929818 -0.1929942486438333 0.9781586206270141
vn 0.09422906496444451 -0.05264188353863919 0.9941577920096141
vn 0.5654798713963236 -0.09552113657533175 0.8192119551819018
vn 0.3899094241018929 0.10002724258419134 0.9154043869992833
vn 0.09422906496444451 -0.05264188353863919 0.9941577920096141
vn 0.3899094241018929 0.10002724258419134 0.9154043869992833
vn -0.0587990390278755 0.14188960063168296 0.9881346134216633
vn -0.48838448314961513 -0.08249688596394877 0.8687202429004025
vn -0.7578880536124374 -0.1575341346674614 0.633078742816504
vn -0.5947652419893749 -0.19934612381032352 0.7787910052402502
f 1/1/1 2/2/2 3/3/3
f 4/4/4 5/5/5 6/6/6
f 7/7/7 8/8/8 9/9/9
f 10/10/10 11/11/11 12/12/12
f 13/13/13 14/14/14 15/15/15
f 16/16/16 17/17/17 18/18/18
f 19/19/19 20/20/20 21/21/21
f 22/22/22 23/23/23 24/24/24
f 25/25/25 26/26/26 27/27/27
f 28/28/28 29/29/29 30/30/30
f 31/31/31 32/32/32 33/33/33
f 34/34/34 35/35/35 36/36/36
f 37/37/37 38/38/38 39/39/39
f 40/40/40 41/41/41 42/42/42
