mtllib ArcadaCompleta.mtl
o D43C_CV
usemtl Esmalte
v -16.037900924682617 -20.734432220458984 3.615909471645461
v -17.441999435424805 -20.734432220458984 3.3006194974328147
v -17.29829978942871 -22.261272430419922 3.5496593858147727
v -16.037900924682617 -20.734432220458984 3.615909471645461
v -17.29829978942871 -22.261272430419922 3.5496593858147727
v -16.037900924682617 -22.261272430419922 3.7692393208886252
v -16.037900924682617 -22.261272430419922 3.7692393208886252
v -14.77750015258789 -22.261272430419922 3.5496593858147727
v -14.63379955291748 -20.734432220458984 3.3006194974328147
v -16.037900924682617 -22.261272430419922 3.7692393208886252
v -14.63379955291748 -20.734432220458984 3.3006194974328147
v -16.037900924682617 -20.734432220458984 3.615909471645461
v -14.77750015258789 -22.261272430419922 3.5496593858147727
v -13.82759952545166 -22.261272430419922 2.549829378261672
v -14.178099632263184 -20.734432220458984 2.960649385585891
v -14.77750015258789 -22.261272430419922 3.5496593858147727
v -14.178099632263184 -20.734432220458984 2.960649385585891
v -14.63379955291748 -20.734432220458984 3.3006194974328147
v -17.89780044555664 -20.734432220458984 2.960649385585891
v -18.248199462890625 -22.261272430419922 2.549829378261672
v -17.29829978942871 -22.261272430419922 3.5496593858147727
v -17.89780044555664 -20.734432220458984 2.960649385585891
v -17.29829978942871 -22.261272430419922 3.5496593858147727
v -17.441999435424805 -20.734432220458984 3.3006194974328147
vt 0.5 0.3710860013961792
vt 0.3003000020980835 0.3710860013961792
vt 0.32073599100112915 0.23288202285766602
vt 0.5 0.3710860013961792
vt 0.32073599100112915 0.23288202285766602
vt 0.5 0.23288202285766602
vt 0.5 0.23288202285766602
vt 0.6792629957199097 0.23288202285766602
vt 0.6996999979019165 0.3710860013961792
vt 0.5 0.23288202285766602
vt 0.6996999979019165 0.3710860013961792
vt 0.5 0.3710860013961792
vt 0.029597900807857513 0.23288202285766602
vt 0.16209599375724792 0.23288202285766602
vt 0.10765299946069717 0.3710860013961792
vt 0.6792629957199097 0.23288202285766602
vt 0.7645159959793091 0.3710860013961792
vt 0.6996999979019165 0.3710860013961792
vt 0.892346978187561 0.3710860013961792
vt 0.8379039764404297 0.23288202285766602
vt 0.9704020023345947 0.23288202285766602
vt 0.23548300564289093 0.3710860013961792
vt 0.32073599100112915 0.23288202285766602
vt 0.3003000020980835 0.3710860013961792
vn -0.053540597198158624 0.11385073959523292 0.9920541384144734
vn -0.329822053882213 0.12165567671155741 0.9361716237404185
vn -0.4171297387755836 0.07612810732486648 0.9056529646084901
vn -0.053540597198158624 0.11385073959523292 0.9920541384144734
vn -0.4171297387755836 0.07612810732486648 0.9056529646084901
vn 0.07954919689040979 0.11416606039249405 0.9902716980347102
vn 0.07954919689040979 0.11416606039249405 0.9902716980347102
vn 0.5038206390426532 0.06499983129210143 0.861359266280134
vn 0.26824210020323774 0.11291257172507668 0.9567115170337325
vn 0.07954919689040979 0.11416606039249405 0.9902716980347102
vn 0.26824210020323774 0.11291257172507668 0.9567115170337325
vn -0.053540597198158624 0.11385073959523292 0.9920541384144734
vn 0.5038206390426532 0.06499983129210143 0.861359266280134
vn 0.7248474738169906 -0.018896635055057637 0.6886501701769362
vn 0.6899368602123258 0.00837635788164975 0.7238210866982228
vn 0.5038206390426532 0.06499983129210143 0.861359266280134
vn 0.6899368602123258 0.00837635788164975 0.7238210866982228
vn 0.26824210020323774 0.11291257172507668 0.9567115170337325
vn -0.689911254932462 0.008350696519199487 0.7238457889531167
vn -0.7248471826284578 -0.018944434432073297 0.6886491633913716
vn -0.4171297387755836 0.07612810732486648 0.9056529646084901
vn -0.689911254932462 0.008350696519199487 0.7238457889531167
vn -0.4171297387755836 0.07612810732486648 0.9056529646084901
vn -0.329822053882213 0.12165567671155741 0.9361716237404185
f 1/1/1 2/2/2 3/3/3
f 4/4/4 5/5/5 6/6/6
f 7/7/7 8/8/8 9/9/9
f 10/10/10 11/11/11 12/12/12
f 13/13/13 14/14/14 15/15/15
f 16/16/16 17/17/17 18/18/18
f 19/19/19 20/20/20 21/21/21
f 22/22/22 23/23/23 24/24/24
