mtllib ArcadaCompleta.mtl
o D43C_L
usemtl Esmalte
v -15.992199897766113 -16.707313537597656 -1.3653806303595424
v -15.73490047454834 -15.273802757263184 -1.1765205715750573
v -15.149100303649902 -15.287152290344238 -1.1480206106757043
v -15.992199897766113 -16.707313537597656 -1.3653806303595424
v -15.149100303649902 -15.287152290344238 -1.1480206106757043
v -15.199600219726562 -16.707313537597656 -1.1168205593680263
v -15.992199897766113 -16.707313537597656 -1.3653806303595424
v -16.822500228881836 -16.707313537597656 -1.1168205593680263
v -16.229299545288086 -15.287152290344238 -1.1480206106757043
v -15.992199897766113 -16.707313537597656 -1.3653806303595424
v -16.229299545288086 -15.287152290344238 -1.1480206106757043
v -15.73490047454834 -15.273802757263184 -1.1765205715750573
v -16.037900924682617 -20.734432220458984 -3.2385705565070046
v -16.808500289916992 -20.734432220458984 -3.252440557346238
v -16.91360092163086 -18.866971969604492 -1.5099606369589693
v -16.037900924682617 -20.734432220458984 -3.2385705565070046
v -16.91360092163086 -18.866971969604492 -1.5099606369589693
v -16.111000061035156 -18.866971969604492 -1.977680549487961
v -16.111000061035156 -18.866971969604492 -1.977680549487961
v -16.91360092163086 -18.866971969604492 -1.5099606369589693
v -16.822500228881836 -16.707313537597656 -1.1168205593680263
v -16.111000061035156 -18.866971969604492 -1.977680549487961
v -16.822500228881836 -16.707313537597656 -1.1168205593680263
v -15.992199897766113 -16.707313537597656 -1.3653806303595424
v -16.111000061035156 -18.866971969604492 -1.977680549487961
v -15.319600105285645 -18.866971969604492 -1.5099606369589693
v -15.263999938964844 -20.734432220458984 -3.252440557346238
v -16.111000061035156 -18.866971969604492 -1.977680549487961
v -15.263999938964844 -20.734432220458984 -3.252440557346238
v -16.037900924682617 -20.734432220458984 -3.2385705565070046
v -17.5132999420166 -16.707313537597656 -1.234170541629684
v -16.723600387573242 -15.30050277709961 -1.1195205305670617
v -16.229299545288086 -15.287152290344238 -1.1480206106757043
v -17.5132999420166 -16.707313537597656 -1.234170541629684
v -16.229299545288086 -15.287152290344238 -1.1480206106757043
v -16.822500228881836 -16.707313537597656 -1.1168205593680263
v -17.5132999420166 -16.707313537597656 -1.234170541629684
v -18.326099395751953 -16.707313537597656 -1.4726205919836879
v -17.64109992980957 -15.304482460021973 -0.8890935634230493
v -17.5132999420166 -16.707313537597656 -1.234170541629684
v -17.64109992980957 -15.304482460021973 -0.8890935634230493
v -16.723600387573242 -15.30050277709961 -1.1195205305670617
v -14.562600135803223 -16.707313537597656 -1.234170541629684
v -14.563300132751465 -15.30050277709961 -1.1195205305670617
v -13.64579963684082 -15.304482460021973 -0.8890935634230493
v -14.562600135803223 -16.707313537597656 -1.234170541629684
v -13.64579963684082 -15.304482460021973 -0.8890935634230493
v -13.742500305175781 -16.707313537597656 -1.4726205919836879
v -14.562600135803223 -16.707313537597656 -1.234170541629684
v -15.199600219726562 -16.707313537597656 -1.1168205593680263
v -15.149100303649902 -15.287152290344238 -1.1480206106757043
v -14.562600135803223 -16.707313537597656 -1.234170541629684
v -15.149100303649902 -15.287152290344238 -1.1480206106757043
v -14.563300132751465 -15.30050277709961 -1.1195205305670617
v -14.63379955291748 -20.734432220458984 -3.094800577030076
v -15.263999938964844 -20.734432220458984 -3.252440557346238
v -14.520600318908691 -18.866971969604492 -1.8312406395529635
v -17.708599090576172 -18.866971969604492 -1.8312406395529635
v -18.326099395751953 -16.707313537597656 -1.4726205919836879
v -17.5132999420166 -16.707313537597656 -1.234170541629684
v -17.708599090576172 -18.866971969604492 -1.8312406395529635
v -16.808500289916992 -20.734432220458984 -3.252440557346238
v -17.441999435424805 -20.734432220458984 -3.094800577030076
v -14.520600318908691 -18.866971969604492 -1.8312406395529635
v -15.263999938964844 -20.734432220458984 -3.252440557346238
v -15.319600105285645 -18.866971969604492 -1.5099606369589693
v -17.64109992980957 -15.304482460021973 -0.8890935634230493
v -18.326099395751953 -16.707313537597656 -1.4726205919836879
v -18.222000122070312 -15.308462142944336 -0.4803055678461908
v -13.742500305175781 -16.707313537597656 -1.4726205919836879
v -14.520600318908691 -18.866971969604492 -1.8312406395529635
v -14.562600135803223 -16.707313537597656 -1.234170541629684
v -15.199600219726562 -16.707313537597656 -1.1168205593680263
v -15.319600105285645 -18.866971969604492 -1.5099606369589693
v -16.111000061035156 -18.866971969604492 -1.977680549487961
v -15.199600219726562 -16.707313537597656 -1.1168205593680263
v -16.111000061035156 -18.866971969604492 -1.977680549487961
v -15.992199897766113 -16.707313537597656 -1.3653806303595424
v -16.91360092163086 -18.866971969604492 -1.5099606369589693
v -16.808500289916992 -20.734432220458984 -3.252440557346238
v -17.708599090576172 -18.866971969604492 -1.8312406395529635
v -16.822500228881836 -16.707313537597656 -1.1168205593680263
v -16.91360092163086 -18.866971969604492 -1.5099606369589693
v -17.708599090576172 -18.866971969604492 -1.8312406395529635
v -16.822500228881836 -16.707313537597656 -1.1168205593680263
v -17.708599090576172 -18.866971969604492 -1.8312406395529635
v -17.5132999420166 -16.707313537597656 -1.234170541629684
v -15.319600105285645 -18.866971969604492 -1.5099606369589693
v -15.199600219726562 -16.707313537597656 -1.1168205593680263
v -14.562600135803223 -16.707313537597656 -1.234170541629684
v -15.319600105285645 -18.866971969604492 -1.5099606369589693
v -14.562600135803223 -16.707313537597656 -1.234170541629684
v -14.520600318908691 -18.866971969604492 -1.8312406395529635
vt 0.506505012512207 0.735605001449585
vt 0.5430920124053955 0.8653609752655029
vt 0.6264100074768066 0.8641520142555237
vt 0.506505012512207 0.735605001449585
vt 0.6264100074768066 0.8641520142555237
vt 0.6192219853401184 0.735605001449585
vt 0.506505012512207 0.735605001449585
vt 0.38840898871421814 0.735605001449585
vt 0.47278401255607605 0.8641520142555237
vt 0.506505012512207 0.735605001449585
vt 0.47278401255607605 0.8641520142555237
vt 0.5430920124053955 0.8653609752655029
vt 0.5 0.3710860013961792
vt 0.39040300250053406 0.3710860013961792
vt 0.3754560053348541 0.5401210188865662
vt 0.5 0.3710860013961792
vt 0.3754560053348541 0.5401210188865662
vt 0.48961201310157776 0.5401210188865662
vt 0.48961201310157776 0.5401210188865662
vt 0.3754560053348541 0.5401210188865662
vt 0.38840898871421814 0.735605001449585
vt 0.48961201310157776 0.5401210188865662
vt 0.38840898871421814 0.735605001449585
vt 0.506505012512207 0.735605001449585
vt 0.48961201310157776 0.5401210188865662
vt 0.6021659970283508 0.5401210188865662
vt 0.6100729703903198 0.3710860013961792
vt 0.48961201310157776 0.5401210188865662
vt 0.6100729703903198 0.3710860013961792
vt 0.5 0.3710860013961792
vt 0.29017001390457153 0.735605001449585
vt 0.4024769961833954 0.8629440069198608
vt 0.47278401255607605 0.8641520142555237
vt 0.29017001390457153 0.735605001449585
vt 0.47278401255607605 0.8641520142555237
vt 0.38840898871421814 0.735605001449585
vt 0.29017001390457153 0.735605001449585
vt 0.1745689958333969 0.735605001449585
vt 0.27198299765586853 0.8625839948654175
vt 0.29017001390457153 0.735605001449585
vt 0.27198299765586853 0.8625839948654175
vt 0.4024769961833954 0.8629440069198608
vt 0.7098299860954285 0.735605001449585
vt 0.7097269892692566 0.8629440069198608
vt 0.8402209877967834 0.8625839948654175
vt 0.7098299860954285 0.735605001449585
vt 0.8402209877967834 0.8625839948654175
vt 0.8264700174331665 0.735605001449585
vt 0.7098299860954285 0.735605001449585
vt 0.6192219853401184 0.735605001449585
vt 0.6264100074768066 0.8641520142555237
vt 0.7098299860954285 0.735605001449585
vt 0.6264100074768066 0.8641520142555237
vt 0.7097269892692566 0.8629440069198608
vt 0.6996999979019165 0.3710860013961792
vt 0.6100729703903198 0.3710860013961792
vt 0.7158030271530151 0.5401210188865662
vt 0.26238200068473816 0.5401210188865662
vt 0.1745689958333969 0.735605001449585
vt 0.29017001390457153 0.735605001449585
vt 0.26238200068473816 0.5401210188865662
vt 0.39040300250053406 0.3710860013961792
vt 0.3003000020980835 0.3710860013961792
vt 0.7158030271530151 0.5401210188865662
vt 0.6100729703903198 0.3710860013961792
vt 0.6021659970283508 0.5401210188865662
vt 0.27198299765586853 0.8625839948654175
vt 0.1745689958333969 0.735605001449585
vt 0.1893640011548996 0.8622239828109741
vt 0.8264700174331665 0.735605001449585
vt 0.7158030271530151 0.5401210188865662
vt 0.7098299860954285 0.735605001449585
vt 0.6192219853401184 0.735605001449585
vt 0.6021659970283508 0.5401210188865662
vt 0.48961201310157776 0.5401210188865662
vt 0.6192219853401184 0.735605001449585
vt 0.48961201310157776 0.5401210188865662
vt 0.506505012512207 0.735605001449585
vt 0.3754560053348541 0.5401210188865662
vt 0.39040300250053406 0.3710860013961792
vt 0.26238200068473816 0.5401210188865662
vt 0.38840898871421814 0.735605001449585
vt 0.3754560053348541 0.5401210188865662
vt 0.26238200068473816 0.5401210188865662
vt 0.38840898871421814 0.735605001449585
vt 0.26238200068473816 0.5401210188865662
vt 0.29017001390457153 0.735605001449585
vt 0.6021659970283508 0.5401210188865662
vt 0.6192219853401184 0.735605001449585
vt 0.7098299860954285 0.735605001449585
vt 0.6021659970283508 0.5401210188865662
vt 0.7098299860954285 0.735605001449585
vt 0.7158030271530151 0.5401210188865662
vn 7.980264375162813e-9 0.1716382487573075 -0.9851600436292189
vn 0 0.13061780573171422 -0.9914327959200423
vn 0.07314926075783053 0.032148918636733415 -0.9968027049928545
vn 7.980264375162813e-9 0.1716382487573075 -0.9851600436292189
vn 0.07314926075783053 0.032148918636733415 -0.9968027049928545
vn 0.21001536441027646 0.13114282609363256 -0.9688627900150744
vn 7.980264375162813e-9 0.1716382487573075 -0.9851600436292189
vn -0.08663428680139833 0.17627980003449678 -0.9805202356148551
vn -0.07607180703007199 0.05894723017538297 -0.9953583797958552
vn 7.980264375162813e-9 0.1716382487573075 -0.9851600436292189
vn -0.07607180703007199 0.05894723017538297 -0.9953583797958552
vn 0 0.13061780573171422 -0.9914327959200423
vn -0.15727335198339204 0.5936231607015986 -0.7892253390727849
vn 0.061160075137922314 0.6497467225410426 -0.7576863742712397
vn -0.06245344366962771 0.4854311248406049 -0.872041392601171
vn -0.15727335198339204 0.5936231607015986 -0.7892253390727849
vn -0.06245344366962771 0.4854311248406049 -0.872041392601171
vn -0.002087843385674956 0.4001647261025508 -0.9164408507335687
vn -0.002087843385674956 0.4001647261025508 -0.9164408507335687
vn -0.06245344366962771 0.4854311248406049 -0.872041392601171
vn -0.08663428680139833 0.17627980003449678 -0.9805202356148551
vn -0.002087843385674956 0.4001647261025508 -0.9164408507335687
vn -0.08663428680139833 0.17627980003449678 -0.9805202356148551
vn 7.980264375162813e-9 0.1716382487573075 -0.9851600436292189
vn -0.002087843385674956 0.4001647261025508 -0.9164408507335687
vn 0.0388827705143341 0.4350196995774974 -0.8995810086571601
vn 0.07507625397587578 0.6278972772412016 -0.7746667446857618
vn -0.002087843385674956 0.4001647261025508 -0.9164408507335687
vn 0.07507625397587578 0.6278972772412016 -0.7746667446857618
vn -0.15727335198339204 0.5936231607015986 -0.7892253390727849
vn 0.11995686257249065 0.18782500400616609 -0.974849793040881
vn -0.1795917077702829 0.17963547247886583 -0.9672010729561087
vn -0.07607180703007199 0.05894723017538297 -0.9953583797958552
vn 0.11995686257249065 0.18782500400616609 -0.974849793040881
vn -0.07607180703007199 0.05894723017538297 -0.9953583797958552
vn -0.08663428680139833 0.17627980003449678 -0.9805202356148551
vn 0.11995686257249065 0.18782500400616609 -0.974849793040881
vn 0.06908330902082478 0.345468781123447 -0.9358839766145229
vn -0.1613622225681718 0.34704710267612554 -0.9238617546213105
vn 0.11995686257249065 0.18782500400616609 -0.974849793040881
vn -0.1613622225681718 0.34704710267612554 -0.9238617546213105
vn -0.1795917077702829 0.17963547247886583 -0.9672010729561087
vn -0.17044901415220273 0.19934217125863668 -0.964992141072887
vn 0.17009090564395232 0.08012757067413186 -0.9821652896712866
vn -0.003928258196747232 0.24128367820792077 -0.9704466782971625
vn -0.17044901415220273 0.19934217125863668 -0.964992141072887
vn -0.003928258196747232 0.24128367820792077 -0.9704466782971625
vn -0.26571832685047336 0.3069379465718581 -0.913883399417035
vn -0.17044901415220273 0.19934217125863668 -0.964992141072887
vn 0.21001536441027646 0.13114282609363256 -0.9688627900150744
vn 0.07314926075783053 0.032148918636733415 -0.9968027049928545
vn -0.17044901415220273 0.19934217125863668 -0.964992141072887
vn 0.07314926075783053 0.032148918636733415 -0.9968027049928545
vn 0.17009090564395232 0.08012757067413186 -0.9821652896712866
vn 0.20423404245209112 0.5400597287263551 -0.8164704191283928
vn 0.07507625397587578 0.6278972772412016 -0.7746667446857618
vn -0.21439726113166355 0.43830843660990276 -0.8728800197139491
vn 0.20807194821258004 0.3871091049720149 -0.89824974545768
vn 0.06908330902082478 0.345468781123447 -0.9358839766145229
vn 0.11995686257249065 0.18782500400616609 -0.974849793040881
vn 0.20807194821258004 0.3871091049720149 -0.89824974545768
vn 0.061160075137922314 0.6497467225410426 -0.7576863742712397
vn -0.20503601625738907 0.5282409837131146 -0.823967047376957
vn -0.21439726113166355 0.43830843660990276 -0.8728800197139491
vn 0.07507625397587578 0.6278972772412016 -0.7746667446857618
vn 0.0388827705143341 0.4350196995774974 -0.8995810086571601
vn -0.1613622225681718 0.34704710267612554 -0.9238617546213105
vn 0.06908330902082478 0.345468781123447 -0.9358839766145229
vn -0.4911525513784476 0.5280094982183652 -0.6928023824047024
vn -0.26571832685047336 0.3069379465718581 -0.913883399417035
vn -0.21439726113166355 0.43830843660990276 -0.8728800197139491
vn -0.17044901415220273 0.19934217125863668 -0.964992141072887
vn 0.21001536441027646 0.13114282609363256 -0.9688627900150744
vn 0.0388827705143341 0.4350196995774974 -0.8995810086571601
vn -0.002087843385674956 0.4001647261025508 -0.9164408507335687
vn 0.21001536441027646 0.13114282609363256 -0.9688627900150744
vn -0.002087843385674956 0.4001647261025508 -0.9164408507335687
vn 7.980264375162813e-9 0.1716382487573075 -0.9851600436292189
vn -0.06245344366962771 0.4854311248406049 -0.872041392601171
vn 0.061160075137922314 0.6497467225410426 -0.7576863742712397
vn 0.20807194821258004 0.3871091049720149 -0.89824974545768
vn -0.08663428680139833 0.17627980003449678 -0.9805202356148551
vn -0.06245344366962771 0.4854311248406049 -0.872041392601171
vn 0.20807194821258004 0.3871091049720149 -0.89824974545768
vn -0.08663428680139833 0.17627980003449678 -0.9805202356148551
vn 0.20807194821258004 0.3871091049720149 -0.89824974545768
vn 0.11995686257249065 0.18782500400616609 -0.974849793040881
vn 0.0388827705143341 0.4350196995774974 -0.8995810086571601
vn 0.21001536441027646 0.13114282609363256 -0.9688627900150744
vn -0.17044901415220273 0.19934217125863668 -0.964992141072887
vn 0.0388827705143341 0.4350196995774974 -0.8995810086571601
vn -0.17044901415220273 0.19934217125863668 -0.964992141072887
vn -0.21439726113166355 0.43830843660990276 -0.8728800197139491
f 1/1/1 2/2/2 3/3/3
f 4/4/4 5/5/5 6/6/6
f 7/7/7 8/8/8 9/9/9
f 10/10/10 11/11/11 12/12/12
f 13/13/13 14/14/14 15/15/15
f 16/16/16 17/17/17 18/18/18
f 19/19/19 20/20/20 21/21/21
f 22/22/22 23/23/23 24/24/24
f 25/25/25 26/26/26 27/27/27
f 28/28/28 29/29/29 30/30/30
f 31/31/31 32/32/32 33/33/33
f 34/34/34 35/35/35 36/36/36
f 37/37/37 38/38/38 39/39/39
f 40/40/40 41/41/41 42/42/42
f 43/43/43 44/44/44 45/45/45
f 46/46/46 47/47/47 48/48/48
f 49/49/49 50/50/50 51/51/51
f 52/52/52 53/53/53 54/54/54
f 55/55/55 56/56/56 57/57/57
f 58/58/58 59/59/59 60/60/60
f 61/61/61 62/62/62 63/63/63
f 64/64/64 65/65/65 66/66/66
f 67/67/67 68/68/68 69/69/69
f 70/70/70 71/71/71 72/72/72
f 73/73/73 74/74/74 75/75/75
f 76/76/76 77/77/77 78/78/78
f 79/79/79 80/80/80 81/81/81
f 82/82/82 83/83/83 84/84/84
f 85/85/85 86/86/86 87/87/87
f 88/88/88 89/89/89 90/90/90
f 91/91/91 92/92/92 93/93/93
