mtllib ArcadaCompleta.mtl
o D43C_F
usemtl Esmalte
v -16.037900924682617 -16.707313537597656 2.234409465923416
v -16.111000061035156 -18.866971969604492 3.086839332714187
v -14.661800384521484 -18.866971969604492 2.7917493726159206
v -16.037900924682617 -16.707313537597656 2.234409465923416
v -14.661800384521484 -18.866971969604492 2.7917493726159206
v -14.562600135803223 -16.707313537597656 2.1031993771935578
v -16.037900924682617 -16.707313537597656 2.234409465923416
v -17.5132999420166 -16.707313537597656 2.1031993771935578
v -17.560100555419922 -18.866971969604492 2.7917493726159206
v -16.037900924682617 -16.707313537597656 2.234409465923416
v -17.560100555419922 -18.866971969604492 2.7917493726159206
v -16.111000061035156 -18.866971969604492 3.086839332714187
v -16.037900924682617 -16.707313537597656 2.234409465923416
v -15.643500328063965 -15.273802757263184 1.4434194709206702
v -16.723600387573242 -15.30050277709961 1.3864194299126746
v -16.037900924682617 -16.707313537597656 2.234409465923416
v -16.723600387573242 -15.30050277709961 1.3864194299126746
v -17.5132999420166 -16.707313537597656 2.1031993771935578
v -16.037900924682617 -20.734432220458984 3.615909471645461
v -16.111000061035156 -18.866971969604492 3.086839332714187
v -17.560100555419922 -18.866971969604492 2.7917493726159206
v -16.037900924682617 -20.734432220458984 3.615909471645461
v -17.560100555419922 -18.866971969604492 2.7917493726159206
v -17.441999435424805 -20.734432220458984 3.3006194974328147
v -16.037900924682617 -20.734432220458984 3.615909471645461
v -14.63379955291748 -20.734432220458984 3.3006194974328147
v -14.661800384521484 -18.866971969604492 2.7917493726159206
v -16.037900924682617 -20.734432220458984 3.615909471645461
v -14.661800384521484 -18.866971969604492 2.7917493726159206
v -16.111000061035156 -18.866971969604492 3.086839332714187
v -17.5132999420166 -16.707313537597656 2.1031993771935578
v -18.006999969482422 -16.707313537597656 1.948149457111466
v -18.05340003967285 -18.866971969604492 2.577059402599441
v -17.5132999420166 -16.707313537597656 2.1031993771935578
v -18.05340003967285 -18.866971969604492 2.577059402599441
v -17.560100555419922 -18.866971969604492 2.7917493726159206
v -14.562600135803223 -16.707313537597656 2.1031993771935578
v -14.661800384521484 -18.866971969604492 2.7917493726159206
v -14.12279987335205 -18.866971969604492 2.5774594689751735
v -14.562600135803223 -16.707313537597656 2.1031993771935578
v -14.12279987335205 -18.866971969604492 2.5774594689751735
v -13.908699989318848 -16.707313537597656 1.9475593711281896
v -14.562600135803223 -16.707313537597656 2.1031993771935578
v -14.563300132751465 -15.30050277709961 1.3864194299126746
v -15.643500328063965 -15.273802757263184 1.4434194709206702
v -14.562600135803223 -16.707313537597656 2.1031993771935578
v -15.643500328063965 -15.273802757263184 1.4434194709206702
v -16.037900924682617 -16.707313537597656 2.234409465923416
v -17.441999435424805 -20.734432220458984 3.3006194974328147
v -17.560100555419922 -18.866971969604492 2.7917493726159206
v -18.05340003967285 -18.866971969604492 2.577059402599441
v -17.441999435424805 -20.734432220458984 3.3006194974328147
v -18.05340003967285 -18.866971969604492 2.577059402599441
v -17.89780044555664 -20.734432220458984 2.960649385585891
v -14.661800384521484 -18.866971969604492 2.7917493726159206
v -14.63379955291748 -20.734432220458984 3.3006194974328147
v -14.178099632263184 -20.734432220458984 2.960649385585891
v -14.661800384521484 -18.866971969604492 2.7917493726159206
v -14.178099632263184 -20.734432220458984 2.960649385585891
v -14.12279987335205 -18.866971969604492 2.5774594689751735
v -16.723600387573242 -15.30050277709961 1.3864194299126746
v -17.77050018310547 -15.285802841186523 1.1831294442559364
v -18.006999969482422 -16.707313537597656 1.948149457111466
v -16.723600387573242 -15.30050277709961 1.3864194299126746
v -18.006999969482422 -16.707313537597656 1.948149457111466
v -17.5132999420166 -16.707313537597656 2.1031993771935578
v -13.908699989318848 -16.707313537597656 1.9475593711281896
v -13.759900093078613 -15.315622329711914 1.2239194060708167
v -14.563300132751465 -15.30050277709961 1.3864194299126746
v -13.908699989318848 -16.707313537597656 1.9475593711281896
v -14.563300132751465 -15.30050277709961 1.3864194299126746
v -14.562600135803223 -16.707313537597656 2.1031993771935578
vt 0.5 0.735605001449585
vt 0.48961201310157776 0.5401210188865662
vt 0.6957119703292847 0.5401210188865662
vt 0.5 0.735605001449585
vt 0.6957119703292847 0.5401210188865662
vt 0.7098299860954285 0.735605001449585
vt 0.5 0.735605001449585
vt 0.29017001390457153 0.735605001449585
vt 0.2835110127925873 0.5401210188865662
vt 0.5 0.735605001449585
vt 0.2835110127925873 0.5401210188865662
vt 0.48961201310157776 0.5401210188865662
vt 0.5 0.735605001449585
vt 0.5561019778251648 0.8653609752655029
vt 0.4024769961833954 0.8629440069198608
vt 0.5 0.735605001449585
vt 0.4024769961833954 0.8629440069198608
vt 0.29017001390457153 0.735605001449585
vt 0.5 0.3710860013961792
vt 0.48961201310157776 0.5401210188865662
vt 0.2835110127925873 0.5401210188865662
vt 0.5 0.3710860013961792
vt 0.2835110127925873 0.5401210188865662
vt 0.3003000020980835 0.3710860013961792
vt 0.5 0.3710860013961792
vt 0.6996999979019165 0.3710860013961792
vt 0.6957119703292847 0.5401210188865662
vt 0.5 0.3710860013961792
vt 0.6957119703292847 0.5401210188865662
vt 0.48961201310157776 0.5401210188865662
vt 0.29017001390457153 0.735605001449585
vt 0.21994300186634064 0.735605001449585
vt 0.213345006108284 0.5401210188865662
vt 0.29017001390457153 0.735605001449585
vt 0.213345006108284 0.5401210188865662
vt 0.2835110127925873 0.5401210188865662
vt 0.7098299860954285 0.735605001449585
vt 0.6957119703292847 0.5401210188865662
vt 0.7723829746246338 0.5401210188865662
vt 0.7098299860954285 0.735605001449585
vt 0.7723829746246338 0.5401210188865662
vt 0.8028240203857422 0.735605001449585
vt 0.7098299860954285 0.735605001449585
vt 0.7097269892692566 0.8629440069198608
vt 0.5561019778251648 0.8653609752655029
vt 0.7098299860954285 0.735605001449585
vt 0.5561019778251648 0.8653609752655029
vt 0.5 0.735605001449585
vt 0.3003000020980835 0.3710860013961792
vt 0.2835110127925873 0.5401210188865662
vt 0.213345006108284 0.5401210188865662
vt 0.3003000020980835 0.3710860013961792
vt 0.213345006108284 0.5401210188865662
vt 0.23548300564289093 0.3710860013961792
vt 0.6957119703292847 0.5401210188865662
vt 0.6996999979019165 0.3710860013961792
vt 0.7645159959793091 0.3710860013961792
vt 0.6957119703292847 0.5401210188865662
vt 0.7645159959793091 0.3710860013961792
vt 0.7723829746246338 0.5401210188865662
vt 0.4024769961833954 0.8629440069198608
vt 0.253589004278183 0.8642740249633789
vt 0.21994300186634064 0.735605001449585
vt 0.4024769961833954 0.8629440069198608
vt 0.21994300186634064 0.735605001449585
vt 0.29017001390457153 0.735605001449585
vt 0.8028240203857422 0.735605001449585
vt 0.8239840269088745 0.8615750074386597
vt 0.7097269892692566 0.8629440069198608
vt 0.8028240203857422 0.735605001449585
vt 0.7097269892692566 0.8629440069198608
vt 0.7098299860954285 0.735605001449585
vn -0.004993824172160795 0.38454895317687887 0.9230910921088471
vn 0 0.3244868840210513 0.9458901955820816
vn 0.22589758854200842 0.2865751707138706 0.9310450853858914
vn -0.004993824172160795 0.38454895317687887 0.9230910921088471
vn 0.22589758854200842 0.2865751707138706 0.9310450853858914
vn 0.1417069961022116 0.3647837160266395 0.9202456018789137
vn -0.004993824172160795 0.38454895317687887 0.9230910921088471
vn -0.16735924017436443 0.3750426598287731 0.9117751301920988
vn -0.2005933266660296 0.2932745061099137 0.9347472285933996
vn -0.004993824172160795 0.38454895317687887 0.9230910921088471
vn -0.2005933266660296 0.2932745061099137 0.9347472285933996
vn 0 0.3244868840210513 0.9458901955820816
vn -0.004993824172160795 0.38454895317687887 0.9230910921088471
vn 0.03145404784668237 0.47138766629955664 0.8813650270658102
vn -0.11604333949315045 0.4982735017086242 0.8592190994468774
vn -0.004993824172160795 0.38454895317687887 0.9230910921088471
vn -0.11604333949315045 0.4982735017086242 0.8592190994468774
vn -0.16735924017436443 0.3750426598287731 0.9117751301920988
vn 0 0.26544441044692063 0.9641261665168553
vn 0 0.3244868840210513 0.9458901955820816
vn -0.2005933266660296 0.2932745061099137 0.9347472285933996
vn 0 0.26544441044692063 0.9641261665168553
vn -0.2005933266660296 0.2932745061099137 0.9347472285933996
vn -0.33874183642887185 0.2136957629625003 0.9162903956413982
vn 0 0.26544441044692063 0.9641261665168553
vn 0.3214566612282368 0.25343694531362954 0.9123789397515109
vn 0.22589758854200842 0.2865751707138706 0.9310450853858914
vn 0 0.26544441044692063 0.9641261665168553
vn 0.22589758854200842 0.2865751707138706 0.9310450853858914
vn 0 0.3244868840210513 0.9458901955820816
vn -0.16735924017436443 0.3750426598287731 0.9117751301920988
vn -0.22227410930229818 0.4396124179155866 0.870250045876633
vn -0.41394917244328194 0.2290561093350207 0.8810104320664002
vn -0.16735924017436443 0.3750426598287731 0.9117751301920988
vn -0.41394917244328194 0.2290561093350207 0.8810104320664002
vn -0.2005933266660296 0.2932745061099137 0.9347472285933996
vn 0.1417069961022116 0.3647837160266395 0.9202456018789137
vn 0.22589758854200842 0.2865751707138706 0.9310450853858914
vn 0.3083079488346593 0.23735153110000887 0.9212005532835108
vn 0.1417069961022116 0.3647837160266395 0.9202456018789137
vn 0.3083079488346593 0.23735153110000887 0.9212005532835108
vn 0.20789407492774983 0.3686077085562626 0.9060399609304418
vn 0.1417069961022116 0.3647837160266395 0.9202456018789137
vn 0.1378891522814714 0.4469842903283328 0.883850454479022
vn 0.03145404784668237 0.47138766629955664 0.8813650270658102
vn 0.1417069961022116 0.3647837160266395 0.9202456018789137
vn 0.03145404784668237 0.47138766629955664 0.8813650270658102
vn -0.004993824172160795 0.38454895317687887 0.9230910921088471
vn -0.33874183642887185 0.2136957629625003 0.9162903956413982
vn -0.2005933266660296 0.2932745061099137 0.9347472285933996
vn -0.41394917244328194 0.2290561093350207 0.8810104320664002
vn -0.33874183642887185 0.2136957629625003 0.9162903956413982
vn -0.41394917244328194 0.2290561093350207 0.8810104320664002
vn -0.5939775745102017 0.11408523146771021 0.7963511794051269
vn 0.22589758854200842 0.2865751707138706 0.9310450853858914
vn 0.3214566612282368 0.25343694531362954 0.9123789397515109
vn 0.4768249055398711 0.20090049809457872 0.8557318501272716
vn 0.22589758854200842 0.2865751707138706 0.9310450853858914
vn 0.4768249055398711 0.20090049809457872 0.8557318501272716
vn 0.3083079488346593 0.23735153110000887 0.9212005532835108
vn -0.11604333949315045 0.4982735017086242 0.8592190994468774
vn -0.159739862776437 0.48829432075898443 0.8579346318657891
vn -0.22227410930229818 0.4396124179155866 0.870250045876633
vn -0.11604333949315045 0.4982735017086242 0.8592190994468774
vn -0.22227410930229818 0.4396124179155866 0.870250045876633
vn -0.16735924017436443 0.3750426598287731 0.9117751301920988
vn 0.20789407492774983 0.3686077085562626 0.9060399609304418
vn 0.1861713831577259 0.437525298110971 0.8797225867317748
vn 0.1378891522814714 0.4469842903283328 0.883850454479022
vn 0.20789407492774983 0.3686077085562626 0.9060399609304418
vn 0.1378891522814714 0.4469842903283328 0.883850454479022
vn 0.1417069961022116 0.3647837160266395 0.9202456018789137
f 1/1/1 2/2/2 3/3/3
f 4/4/4 5/5/5 6/6/6
f 7/7/7 8/8/8 9/9/9
f 10/10/10 11/11/11 12/12/12
f 13/13/13 14/14/14 15/15/15
f 16/16/16 17/17/17 18/18/18
f 19/19/19 20/20/20 21/21/21
f 22/22/22 23/23/23 24/24/24
f 25/25/25 26/26/26 27/27/27
f 28/28/28 29/29/29 30/30/30
f 31/31/31 32/32/32 33/33/33
f 34/34/34 35/35/35 36/36/36
f 37/37/37 38/38/38 39/39/39
f 40/40/40 41/41/41 42/42/42
f 43/43/43 44/44/44 45/45/45
f 46/46/46 47/47/47 48/48/48
f 49/49/49 50/50/50 51/51/51
f 52/52/52 53/53/53 54/54/54
f 55/55/55 56/56/56 57/57/57
f 58/58/58 59/59/59 60/60/60
f 61/61/61 62/62/62 63/63/63
f 64/64/64 65/65/65 66/66/66
f 67/67/67 68/68/68 69/69/69
f 70/70/70 71/71/71 72/72/72
