mtllib ArcadaCompleta.mtl
o D43C_CL
usemtl Esmalte
v -16.037900924682617 -24.828632354736328 -3.492240533695116
v -17.128999710083008 -24.791032791137695 -3.2060006712530993
v -17.53459930419922 -22.261272430419922 -3.4353104685400857
v -16.037900924682617 -24.828632354736328 -3.492240533695116
v -17.53459930419922 -22.261272430419922 -3.4353104685400857
v -16.037900924682617 -22.261272430419922 -3.7692404841040505
v -16.037900924682617 -20.734432220458984 -3.2385705565070046
v -15.263999938964844 -20.734432220458984 -3.252440557346238
v -16.037900924682617 -22.261272430419922 -3.7692404841040505
v -14.946900367736816 -24.791032791137695 -3.2060006712530993
v -14.535900115966797 -22.261272430419922 -3.4353104685400857
v -13.82759952545166 -22.261272430419922 -2.5498305414770974
v -14.946900367736816 -24.791032791137695 -3.2060006712530993
v -13.82759952545166 -22.261272430419922 -2.5498305414770974
v -14.017399787902832 -24.30023193359375 -2.4447806929205793
v -17.441999435424805 -20.734432220458984 -3.094800577030076
v -16.808500289916992 -20.734432220458984 -3.252440557346238
v -16.037900924682617 -22.261272430419922 -3.7692404841040505
v -17.441999435424805 -20.734432220458984 -3.094800577030076
v -16.037900924682617 -22.261272430419922 -3.7692404841040505
v -17.53459930419922 -22.261272430419922 -3.4353104685400857
v -18.248199462890625 -22.261272430419922 -2.5498305414770974
v -17.53459930419922 -22.261272430419922 -3.4353104685400857
v -17.128999710083008 -24.791032791137695 -3.2060006712530993
v -18.248199462890625 -22.261272430419922 -2.5498305414770974
v -17.128999710083008 -24.791032791137695 -3.2060006712530993
v -18.058399200439453 -24.30023193359375 -2.4447806929205793
v -16.037900924682617 -22.261272430419922 -3.7692404841040505
v -14.535900115966797 -22.261272430419922 -3.4353104685400857
v -14.946900367736816 -24.791032791137695 -3.2060006712530993
v -16.037900924682617 -22.261272430419922 -3.7692404841040505
v -14.946900367736816 -24.791032791137695 -3.2060006712530993
v -16.037900924682617 -24.828632354736328 -3.492240533695116
v -16.037900924682617 -22.261272430419922 -3.7692404841040505
v -16.808500289916992 -20.734432220458984 -3.252440557346238
v -16.037900924682617 -20.734432220458984 -3.2385705565070046
v -14.535900115966797 -22.261272430419922 -3.4353104685400857
v -16.037900924682617 -22.261272430419922 -3.7692404841040505
v -15.263999938964844 -20.734432220458984 -3.252440557346238
v -14.535900115966797 -22.261272430419922 -3.4353104685400857
v -15.263999938964844 -20.734432220458984 -3.252440557346238
v -14.63379955291748 -20.734432220458984 -3.094800577030076
vt 0.5 0.000499427318572998
vt 0.655174970626831 0.0038968324661254883
vt 0.712863028049469 0.23288202285766602
vt 0.5 0.000499427318572998
vt 0.712863028049469 0.23288202285766602
vt 0.5 0.23288202285766602
vt 0.5 0.3710860013961792
vt 0.3899269998073578 0.3710860013961792
vt 0.5 0.23288202285766602
vt 0.9248600006103516 0.0038968324661254883
vt 0.955249011516571 0.23288202285766602
vt 0.8379039764404297 0.23288202285766602
vt 0.34482499957084656 0.0038968324661254883
vt 0.18563799560070038 0.23288202285766602
vt 0.2126390039920807 0.04832422733306885
vt 0.6996999979019165 0.3710860013961792
vt 0.6095970273017883 0.3710860013961792
vt 0.5 0.23288202285766602
vt 0.6996999979019165 0.3710860013961792
vt 0.5 0.23288202285766602
vt 0.712863028049469 0.23288202285766602
vt 0.16209599375724792 0.23288202285766602
vt 0.04475110024213791 0.23288202285766602
vt 0.07514040172100067 0.0038968324661254883
vt 0.8143619894981384 0.23288202285766602
vt 0.655174970626831 0.0038968324661254883
vt 0.7873610258102417 0.04832422733306885
vt 0.5 0.23288202285766602
vt 0.28637799620628357 0.23288202285766602
vt 0.34482499957084656 0.0038968324661254883
vt 0.5 0.23288202285766602
vt 0.34482499957084656 0.0038968324661254883
vt 0.5 0.000499427318572998
vt 0.5 0.23288202285766602
vt 0.6095970273017883 0.3710860013961792
vt 0.5 0.3710860013961792
vt 0.28637799620628357 0.23288202285766602
vt 0.5 0.23288202285766602
vt 0.3899269998073578 0.3710860013961792
vt 0.28637799620628357 0.23288202285766602
vt 0.3899269998073578 0.3710860013961792
vt 0.3003000020980835 0.3710860013961792
vn -0.08903046044380533 -0.11414810177905053 -0.9894664157885317
vn -0.5785460975035119 -0.14300387867595168 -0.80301575560327
vn -0.3757061636481172 -0.06606131971241887 -0.9243812961298319
vn -0.08903046044380533 -0.11414810177905053 -0.9894664157885317
vn -0.3757061636481172 -0.06606131971241887 -0.9243812961298319
vn 0.026777912902839915 0.04818676996813796 -0.9984793330763564
vn 6.714709465897623e-9 0.3282971278845757 -0.9445745051729579
vn 0.1570722777146076 0.2494892270491373 -0.9555539886160118
vn 0.026777912902839915 0.04818676996813796 -0.9984793330763564
vn 0.4661727690989001 -0.13317915355334656 -0.8746120639514855
vn 0.3976055790983656 -0.026973884975731898 -0.9171598622918303
vn 0.7227786105919952 -0.14450588667543612 -0.6758025812223942
vn 0.4661727690989001 -0.13317915355334656 -0.8746120639514855
vn 0.7227786105919952 -0.14450588667543612 -0.6758025812223942
vn 0.6614626185363587 -0.09986919369039639 -0.7432989630227219
vn -0.2194331887442265 0.21824289896839413 -0.950904365710565
vn -0.0979518428686224 0.2743590224379587 -0.9566256129152766
vn 0.026777912902839915 0.04818676996813796 -0.9984793330763564
vn -0.2194331887442265 0.21824289896839413 -0.950904365710565
vn 0.026777912902839915 0.04818676996813796 -0.9984793330763564
vn -0.3757061636481172 -0.06606131971241887 -0.9243812961298319
vn -0.721636714647162 -0.14360590624795702 -0.6772132572269635
vn -0.3757061636481172 -0.06606131971241887 -0.9243812961298319
vn -0.5785460975035119 -0.14300387867595168 -0.80301575560327
vn -0.721636714647162 -0.14360590624795702 -0.6772132572269635
vn -0.5785460975035119 -0.14300387867595168 -0.80301575560327
vn -0.6615047405533705 -0.09987115785553881 -0.7432612125316456
vn 0.026777912902839915 0.04818676996813796 -0.9984793330763564
vn 0.3976055790983656 -0.026973884975731898 -0.9171598622918303
vn 0.4661727690989001 -0.13317915355334656 -0.8746120639514855
vn 0.026777912902839915 0.04818676996813796 -0.9984793330763564
vn 0.4661727690989001 -0.13317915355334656 -0.8746120639514855
vn -0.08903046044380533 -0.11414810177905053 -0.9894664157885317
vn 0.026777912902839915 0.04818676996813796 -0.9984793330763564
vn -0.0979518428686224 0.2743590224379587 -0.9566256129152766
vn 6.714709465897623e-9 0.3282971278845757 -0.9445745051729579
vn 0.3976055790983656 -0.026973884975731898 -0.9171598622918303
vn 0.026777912902839915 0.04818676996813796 -0.9984793330763564
vn 0.1570722777146076 0.2494892270491373 -0.9555539886160118
vn 0.3976055790983656 -0.026973884975731898 -0.9171598622918303
vn 0.1570722777146076 0.2494892270491373 -0.9555539886160118
vn 0.23639227257992348 0.22591407413669518 -0.9450299067074328
f 1/1/1 2/2/2 3/3/3
f 4/4/4 5/5/5 6/6/6
f 7/7/7 8/8/8 9/9/9
f 10/10/10 11/11/11 12/12/12
f 13/13/13 14/14/14 15/15/15
f 16/16/16 17/17/17 18/18/18
f 19/19/19 20/20/20 21/21/21
f 22/22/22 23/23/23 24/24/24
f 25/25/25 26/26/26 27/27/27
f 28/28/28 29/29/29 30/30/30
f 31/31/31 32/32/32 33/33/33
f 34/34/34 35/35/35 36/36/36
f 37/37/37 38/38/38 39/39/39
f 40/40/40 41/41/41 42/42/42
