mtllib ArcadaCompleta.mtl
o D44C_V
usemtl Esmalte
v -25.813199996948242 -22.34884262084961 2.4548794175530535
v -24.978599548339844 -22.367733001708984 3.0067693139458758
v -25.165599822998047 -20.592283248901367 3.243359460964309
v -25.813199996948242 -22.34884262084961 2.4548794175530535
v -25.165599822998047 -20.592283248901367 3.243359460964309
v -25.960500717163086 -20.592283248901367 2.652109518184768
v -22.18470001220703 -22.22306251525879 2.454879417553054
v -22.04159927368164 -20.592283248901367 2.6292394544030295
v -22.832199096679688 -20.592283248901367 3.243359460964309
v -22.18470001220703 -22.22306251525879 2.454879417553054
v -22.832199096679688 -20.592283248901367 3.243359460964309
v -23.01919937133789 -22.367733001708984 3.0067693139458758
v -23.998899459838867 -22.405113220214844 3.2686795140648943
v -23.998899459838867 -20.592283248901367 3.6647693063164817
v -25.165599822998047 -20.592283248901367 3.243359460964309
v -23.998899459838867 -22.405113220214844 3.2686795140648943
v -25.165599822998047 -20.592283248901367 3.243359460964309
v -24.978599548339844 -22.367733001708984 3.0067693139458758
v -23.01919937133789 -22.367733001708984 3.0067693139458758
v -22.832199096679688 -20.592283248901367 3.243359460964309
v -23.998899459838867 -20.592283248901367 3.6647693063164817
v -23.01919937133789 -22.367733001708984 3.0067693139458758
v -23.998899459838867 -20.592283248901367 3.6647693063164817
v -23.998899459838867 -22.405113220214844 3.2686795140648943
vt 0.2404170036315918 0.0071218013763427734
vt 0.3598249852657318 0.004898548126220703
vt 0.3330700099468231 0.21385902166366577
vt 0.2404170036315918 0.0071218013763427734
vt 0.3330700099468231 0.21385902166366577
vt 0.21933400630950928 0.21385902166366577
vt 0.7595829963684082 0.021925508975982666
vt 0.7800440192222595 0.21385902166366577
vt 0.6669290065765381 0.21385902166366577
vt 0.7595829963684082 0.021925508975982666
vt 0.6669290065765381 0.21385902166366577
vt 0.6401749849319458 0.004898548126220703
vt 0.5 0.000499427318572998
vt 0.5 0.21385902166366577
vt 0.3330700099468231 0.21385902166366577
vt 0.5 0.000499427318572998
vt 0.3330700099468231 0.21385902166366577
vt 0.3598249852657318 0.004898548126220703
vt 0.6401749849319458 0.004898548126220703
vt 0.6669290065765381 0.21385902166366577
vt 0.5 0.21385902166366577
vt 0.6401749849319458 0.004898548126220703
vt 0.5 0.21385902166366577
vt 0.5 0.000499427318572998
vn -0.5687202036928349 -0.15309112784217035 0.8081586703659082
vn -0.4080062596723054 -0.1626867568251405 0.8983673587246662
vn -0.43010080280549917 -0.16981649878010327 0.8866654702694428
vn -0.5687202036928349 -0.15309112784217035 0.8081586703659082
vn -0.43010080280549917 -0.16981649878010327 0.8866654702694428
vn -0.5910375637634522 -0.13878400443772124 0.7946153776090632
vn 0.58506494067607 -0.15278988895661702 0.7964635993090526
vn 0.6076670666190895 -0.13696406288298496 0.7822925166618537
vn 0.49163837258745885 -0.15675438314878143 0.8565744415771462
vn 0.58506494067607 -0.15278988895661702 0.7964635993090526
vn 0.49163837258745885 -0.15675438314878143 0.8565744415771462
vn 0.3846628906288095 -0.1782529625399384 0.9056822521827532
vn -0.12934069131098247 -0.19550534773912417 0.9721361245096292
vn 0.07766222163328118 -0.19749419275677596 0.9772229137501496
vn -0.43010080280549917 -0.16981649878010327 0.8866654702694428
vn -0.12934069131098247 -0.19550534773912417 0.9721361245096292
vn -0.43010080280549917 -0.16981649878010327 0.8866654702694428
vn -0.4080062596723054 -0.1626867568251405 0.8983673587246662
vn 0.3846628906288095 -0.1782529625399384 0.9056822521827532
vn 0.49163837258745885 -0.15675438314878143 0.8565744415771462
vn 0.07766222163328118 -0.19749419275677596 0.9772229137501496
vn 0.3846628906288095 -0.1782529625399384 0.9056822521827532
vn 0.07766222163328118 -0.19749419275677596 0.9772229137501496
vn -0.12934069131098247 -0.19550534773912417 0.9721361245096292
f 1/1/1 2/2/2 3/3/3
f 4/4/4 5/5/5 6/6/6
f 7/7/7 8/8/8 9/9/9
f 10/10/10 11/11/11 12/12/12
f 13/13/13 14/14/14 15/15/15
f 16/16/16 17/17/17 18/18/18
f 19/19/19 20/20/20 21/21/21
f 22/22/22 23/23/23 24/24/24
