mtllib ArcadaCompleta.mtl
o D45C_ACL
usemtl Esmalte
v -31.964000701904297 -22.1805419921875 -3.487970695361985
v -32.94369888305664 -22.14316177368164 -3.1029904936407937
v -33.13059997558594 -20.367712020874023 -3.4606205080603494
v -31.964000701904297 -22.1805419921875 -3.487970695361985
v -33.13059997558594 -20.367712020874023 -3.4606205080603494
v -31.964000701904297 -20.367712020874023 -3.7676905249213113
v -30.98430061340332 -22.14316177368164 -3.1029904936407937
v -30.797300338745117 -20.367712020874023 -3.4834905718420877
v -29.917800903320312 -20.3454532623291 -2.7441505049322976
v -30.98430061340332 -22.14316177368164 -3.1029904936407937
v -29.917800903320312 -20.3454532623291 -2.7441505049322976
v -30.149700164794922 -21.998493194580078 -2.5334406946753396
v -34.07350158691406 -20.34568214416504 -2.7054306124304666
v -33.13059997558594 -20.367712020874023 -3.4606205080603494
v -32.94369888305664 -22.14316177368164 -3.1029904936407937
v -34.07350158691406 -20.34568214416504 -2.7054306124304666
v -32.94369888305664 -22.14316177368164 -3.1029904936407937
v -33.7781982421875 -22.124271392822266 -2.5334406946753396
v -31.964000701904297 -20.367712020874023 -3.7676905249213113
v -30.797300338745117 -20.367712020874023 -3.4834905718420877
v -30.98430061340332 -22.14316177368164 -3.1029904936407937
v -31.964000701904297 -20.367712020874023 -3.7676905249213113
v -30.98430061340332 -22.14316177368164 -3.1029904936407937
v -31.964000701904297 -22.1805419921875 -3.487970695361985
vt 0.49178698658943176 0.000499427318572998
vt 0.6325179934501648 0.005140364170074463
vt 0.6593790054321289 0.22558796405792236
vt 0.49178698658943176 0.000499427318572998
vt 0.6593790054321289 0.22558796405792236
vt 0.49178698658943176 0.22558796405792236
vt 0.3510560095310211 0.005140364170074463
vt 0.3241960108280182 0.22558796405792236
vt 0.19786599278450012 0.22835201025009155
vt 0.3510560095310211 0.005140364170074463
vt 0.19786599278450012 0.22835201025009155
vt 0.23117400705814362 0.023103415966033936
vt 0.7948129773139954 0.22832399606704712
vt 0.6593790054321289 0.22558796405792236
vt 0.6325179934501648 0.005140364170074463
vt 0.7948129773139954 0.22832399606704712
vt 0.6325179934501648 0.005140364170074463
vt 0.7523999810218811 0.007485866546630859
vt 0.49178698658943176 0.22558796405792236
vt 0.3241960108280182 0.22558796405792236
vt 0.3510560095310211 0.005140364170074463
vt 0.49178698658943176 0.22558796405792236
vt 0.3510560095310211 0.005140364170074463
vt 0.49178698658943176 0.000499427318572998
vn -0.09495594913707417 -0.17812232328323954 -0.9794160534071606
vn -0.5200044032998866 -0.20590793056843787 -0.8289736694719273
vn -0.4182107855033894 -0.19719429995178045 -0.8866871753640994
vn -0.09495594913707417 -0.17812232328323954 -0.9794160534071606
vn -0.4182107855033894 -0.19719429995178045 -0.8866871753640994
vn 0.10762392457812422 -0.17997064732144935 -0.9777666679536077
vn 0.45159396539014324 -0.19989921327845808 -0.869541945482712
vn 0.4371538556111817 -0.23225504482708742 -0.8688809473550708
vn 0.606439138456482 -0.20650355824165229 -0.7678462422788147
vn 0.45159396539014324 -0.19989921327845808 -0.869541945482712
vn 0.606439138456482 -0.20650355824165229 -0.7678462422788147
vn 0.575596510656685 -0.18235846933269506 -0.7971411704224572
vn -0.5888287228928069 -0.19671518445493666 -0.7839539982047966
vn -0.4182107855033894 -0.19719429995178045 -0.8866871753640994
vn -0.5200044032998866 -0.20590793056843787 -0.8289736694719273
vn -0.5888287228928069 -0.19671518445493666 -0.7839539982047966
vn -0.5200044032998866 -0.20590793056843787 -0.8289736694719273
vn -0.5580446212206224 -0.1711705916297228 -0.8119647955963748
vn 0.10762392457812422 -0.17997064732144935 -0.9777666679536077
vn 0.4371538556111817 -0.23225504482708742 -0.8688809473550708
vn 0.45159396539014324 -0.19989921327845808 -0.869541945482712
vn 0.10762392457812422 -0.17997064732144935 -0.9777666679536077
vn 0.45159396539014324 -0.19989921327845808 -0.869541945482712
vn -0.09495594913707417 -0.17812232328323954 -0.9794160534071606
f 1/1/1 2/2/2 3/3/3
f 4/4/4 5/5/5 6/6/6
f 7/7/7 8/8/8 9/9/9
f 10/10/10 11/11/11 12/12/12
f 13/13/13 14/14/14 15/15/15
f 16/16/16 17/17/17 18/18/18
f 19/19/19 20/20/20 21/21/21
f 22/22/22 23/23/23 24/24/24
