mtllib ArcadaCompleta.mtl
o D45C_MV
usemtl Esmalte
v -29.482200622558594 -18.735252380371094 2.7219094182397
v -29.36639976501465 -17.2799129486084 2.6788894082451935
v -30.56529998779297 -17.270082473754883 3.3489095116997833
v -29.482200622558594 -18.735252380371094 2.7219094182397
v -30.56529998779297 -17.270082473754883 3.3489095116997833
v -30.611499786376953 -18.735252380371094 3.505249395504104
v -29.482200622558594 -18.735252380371094 2.7219094182397
v -28.83180046081543 -18.735252380371094 1.2568694497490998
v -28.655399322509766 -17.270082473754883 1.2864394332314608
v -29.482200622558594 -18.735252380371094 2.7219094182397
v -28.655399322509766 -17.270082473754883 1.2864394332314608
v -29.36639976501465 -17.2799129486084 2.6788894082451935
v -29.482200622558594 -18.735252380371094 2.7219094182397
v -30.611499786376953 -18.735252380371094 3.505249395504104
v -30.689899444580078 -20.367712020874023 3.4148794557000266
v -29.482200622558594 -18.735252380371094 2.7219094182397
v -30.689899444580078 -20.367712020874023 3.4148794557000266
v -29.915199279785156 -20.367712020874023 2.6292394544030295
v -29.64459991455078 -21.51567268371582 1.370589389934646
v -29.272300720214844 -20.367712020874023 1.3224893952752224
v -29.915199279785156 -20.367712020874023 2.6292394544030295
v -29.64459991455078 -21.51567268371582 1.370589389934646
v -29.915199279785156 -20.367712020874023 2.6292394544030295
v -30.149700164794922 -21.998493194580078 2.5334395314599143
v -28.921899795532227 -16.235313415527344 0.934885397091019
v -29.548099517822266 -15.754862785339355 1.7704093600655677
v -29.36639976501465 -17.2799129486084 2.6788894082451935
v -28.921899795532227 -16.235313415527344 0.934885397091019
v -29.36639976501465 -17.2799129486084 2.6788894082451935
v -28.655399322509766 -17.270082473754883 1.2864394332314608
v -30.67919921875 -15.349322319030762 2.114969387188065
v -30.56529998779297 -17.270082473754883 3.3489095116997833
v -29.36639976501465 -17.2799129486084 2.6788894082451935
v -30.67919921875 -15.349322319030762 2.114969387188065
v -29.36639976501465 -17.2799129486084 2.6788894082451935
v -29.548099517822266 -15.754862785339355 1.7704093600655677
v -29.915199279785156 -20.367712020874023 2.6292394544030295
v -29.272300720214844 -20.367712020874023 1.3224893952752224
v -28.83180046081543 -18.735252380371094 1.2568694497490998
v -29.915199279785156 -20.367712020874023 2.6292394544030295
v -28.83180046081543 -18.735252380371094 1.2568694497490998
v -29.482200622558594 -18.735252380371094 2.7219094182397
vt 0 0
vt 0 0
vt 0 0
vt 0 0
vt 0 0
vt 0 0
vt 0 0
vt 0 0
vt 0 0
vt 0 0
vt 0 0
vt 0 0
vt 0 0
vt 0 0
vt 0 0
vt 0 0
vt 0 0
vt 0 0
vt 0 0
vt 0 0
vt 0 0
vt 0 0
vt 0 0
vt 0 0
vt 0 0
vt 0 0
vt 0 0
vt 0 0
vt 0 0
vt 0 0
vt 0 0
vt 0 0
vt 0 0
vt 0 0
vt 0 0
vt 0 0
vt 0 0
vt 0 0
vt 0 0
vt 0 0
vt 0 0
vt 0 0
vn 0.757843241083606 -0.10537183822463293 0.6438714139120149
vn 0.6726913127380616 0.30889944730973395 0.6723596725105427
vn 0.4991087287193539 0.24355618507953772 0.831607396326928
vn 0.757843241083606 -0.10537183822463293 0.6438714139120149
vn 0.4991087287193539 0.24355618507953772 0.831607396326928
vn 0.56994773911578 -0.005426771557341674 0.8216630238895233
vn 0.757843241083606 -0.10537183822463293 0.6438714139120149
vn 0.890198520271868 -0.20091901527842188 0.40887423959614544
vn 0.8989831193343598 0.034087125151896075 0.4366548053677449
vn 0.757843241083606 -0.10537183822463293 0.6438714139120149
vn 0.8989831193343598 0.034087125151896075 0.4366548053677449
vn 0.6726913127380616 0.30889944730973395 0.6723596725105427
vn 0.757843241083606 -0.10537183822463293 0.6438714139120149
vn 0.56994773911578 -0.005426771557341674 0.8216630238895233
vn 0.6295507829512834 -0.1414397734760461 0.7639768335260374
vn 0.757843241083606 -0.10537183822463293 0.6438714139120149
vn 0.6295507829512834 -0.1414397734760461 0.7639768335260374
vn 0.8637783187380795 -0.22567320404702593 0.4505092907512185
vn 0.9024325860538746 -0.20358411190095535 0.3796958480278861
vn 0.8716623933278922 -0.23727301171896936 0.4288428499668623
vn 0.8637783187380795 -0.22567320404702593 0.4505092907512185
vn 0.9024325860538746 -0.20358411190095535 0.3796958480278861
vn 0.8637783187380795 -0.22567320404702593 0.4505092907512185
vn 0.9280437505484157 -0.15338880782211128 0.33942108170080026
vn 0.8327799632243578 0.35493777463820897 0.4248490425867912
vn 0.6429912661900274 0.4470519274228916 0.6218575446119655
vn 0.6726913127380616 0.30889944730973395 0.6723596725105427
vn 0.8327799632243578 0.35493777463820897 0.4248490425867912
vn 0.6726913127380616 0.30889944730973395 0.6723596725105427
vn 0.8989831193343598 0.034087125151896075 0.4366548053677449
vn 0.41867276874247994 0.5051381806126339 0.7546843917829916
vn 0.4991087287193539 0.24355618507953772 0.831607396326928
vn 0.6726913127380616 0.30889944730973395 0.6723596725105427
vn 0.41867276874247994 0.5051381806126339 0.7546843917829916
vn 0.6726913127380616 0.30889944730973395 0.6723596725105427
vn 0.6429912661900274 0.4470519274228916 0.6218575446119655
vn 0.8637783187380795 -0.22567320404702593 0.4505092907512185
vn 0.8716623933278922 -0.23727301171896936 0.4288428499668623
vn 0.890198520271868 -0.20091901527842188 0.40887423959614544
vn 0.8637783187380795 -0.22567320404702593 0.4505092907512185
vn 0.890198520271868 -0.20091901527842188 0.40887423959614544
vn 0.757843241083606 -0.10537183822463293 0.6438714139120149
f 1/1/1 2/2/2 3/3/3
f 4/4/4 5/5/5 6/6/6
f 7/7/7 8/8/8 9/9/9
f 10/10/10 11/11/11 12/12/12
f 13/13/13 14/14/14 15/15/15
f 16/16/16 17/17/17 18/18/18
f 19/19/19 20/20/20 21/21/21
f 22/22/22 23/23/23 24/24/24
f 25/25/25 26/26/26 27/27/27
f 28/28/28 29/29/29 30/30/30
f 31/31/31 32/32/32 33/33/33
f 34/34/34 35/35/35 36/36/36
f 37/37/37 38/38/38 39/39/39
f 40/40/40 41/41/41 42/42/42
