mtllib ArcadaCompleta.mtl
o D45C_L
usemtl Esmalte
v -34.59429931640625 -17.308712005615234 -3.247540578708542
v -34.25019836425781 -16.505542755126953 -2.9070407007788543
v -33.1692008972168 -16.33767318725586 -3.566050634250534
v -34.59429931640625 -17.308712005615234 -3.247540578708542
v -33.1692008972168 -16.33767318725586 -3.566050634250534
v -33.354000091552734 -17.270082473754883 -3.924880609378708
v -29.30459976196289 -17.268281936645508 -3.3224204634283905
v -30.46660041809082 -17.27098274230957 -3.980220661029709
v -30.646799087524414 -15.971562385559082 -3.52615056978215
v -29.30459976196289 -17.268281936645508 -3.3224204634283905
v -30.646799087524414 -15.971562385559082 -3.52615056978215
v -29.75909996032715 -15.960472106933594 -2.9666505907629848
v -31.975799560546875 -17.270082473754883 -4.144260511264694
v -30.46660041809082 -17.27098274230957 -3.980220661029709
v -30.566699981689453 -18.744892120361328 -3.814640626773728
v -31.975799560546875 -17.270082473754883 -4.144260511264694
v -30.566699981689453 -18.744892120361328 -3.814640626773728
v -31.964000701904297 -18.735252380371094 -4.086770639285934
v -31.964000701904297 -18.735252380371094 -4.086770639285934
v -33.31549835205078 -18.735252380371094 -3.7599106882666478
v -33.354000091552734 -17.270082473754883 -3.924880609378708
v -31.964000701904297 -18.735252380371094 -4.086770639285934
v -33.354000091552734 -17.270082473754883 -3.924880609378708
v -31.975799560546875 -17.270082473754883 -4.144260511264694
v -31.964000701904297 -18.735252380371094 -4.086770639285934
v -31.964000701904297 -20.367712020874023 -3.7676905249213113
v -33.13059997558594 -20.367712020874023 -3.4606205080603494
v -31.964000701904297 -18.735252380371094 -4.086770639285934
v -33.13059997558594 -20.367712020874023 -3.4606205080603494
v -33.31549835205078 -18.735252380371094 -3.7599106882666478
v -31.981399536132812 -16.66351318359375 -3.6838005636786346
v -31.975799560546875 -17.270082473754883 -4.144260511264694
v -32.298500061035156 -16.592071533203125 -3.624930486545456
v -33.354000091552734 -17.270082473754883 -3.924880609378708
v -33.31549835205078 -18.735252380371094 -3.7599106882666478
v -34.41510009765625 -18.735252380371094 -3.060220584735764
v -33.354000091552734 -17.270082473754883 -3.924880609378708
v -34.41510009765625 -18.735252380371094 -3.060220584735764
v -34.59429931640625 -17.308712005615234 -3.247540578708542
v -33.354000091552734 -17.270082473754883 -3.924880609378708
v -33.1692008972168 -16.33767318725586 -3.566050634250534
v -32.298500061035156 -16.592071533203125 -3.624930486545456
v -33.354000091552734 -17.270082473754883 -3.924880609378708
v -32.298500061035156 -16.592071533203125 -3.624930486545456
v -31.975799560546875 -17.270082473754883 -4.144260511264694
v -30.46660041809082 -17.27098274230957 -3.980220661029709
v -31.975799560546875 -17.270082473754883 -4.144260511264694
v -31.644800186157227 -16.45475196838379 -3.6049805735205536
v -30.46660041809082 -17.27098274230957 -3.980220661029709
v -31.644800186157227 -16.45475196838379 -3.6049805735205536
v -30.646799087524414 -15.971562385559082 -3.52615056978215
v -30.566699981689453 -18.744892120361328 -3.814640626773728
v -30.46660041809082 -17.27098274230957 -3.980220661029709
v -29.30459976196289 -17.268281936645508 -3.3224204634283905
v -30.566699981689453 -18.744892120361328 -3.814640626773728
v -29.30459976196289 -17.268281936645508 -3.3224204634283905
v -29.519500732421875 -18.744892120361328 -3.0979205225561985
v -30.566699981689453 -18.744892120361328 -3.814640626773728
v -30.797300338745117 -20.367712020874023 -3.4834905718420877
v -31.964000701904297 -20.367712020874023 -3.7676905249213113
v -30.566699981689453 -18.744892120361328 -3.814640626773728
v -31.964000701904297 -20.367712020874023 -3.7676905249213113
v -31.964000701904297 -18.735252380371094 -4.086770639285934
v -33.31549835205078 -18.735252380371094 -3.7599106882666478
v -33.13059997558594 -20.367712020874023 -3.4606205080603494
v -34.07350158691406 -20.34568214416504 -2.7054306124304666
v -33.31549835205078 -18.735252380371094 -3.7599106882666478
v -34.07350158691406 -20.34568214416504 -2.7054306124304666
v -34.41510009765625 -18.735252380371094 -3.060220584735764
v -29.917800903320312 -20.3454532623291 -2.7441505049322976
v -30.797300338745117 -20.367712020874023 -3.4834905718420877
v -30.566699981689453 -18.744892120361328 -3.814640626773728
v -29.917800903320312 -20.3454532623291 -2.7441505049322976
v -30.566699981689453 -18.744892120361328 -3.814640626773728
v -29.519500732421875 -18.744892120361328 -3.0979205225561985
v -31.644800186157227 -16.45475196838379 -3.6049805735205536
v -31.975799560546875 -17.270082473754883 -4.144260511264694
v -31.981399536132812 -16.66351318359375 -3.6838005636786346
vt 0.8696309924125671 0.6054080128669739
vt 0.8201969861984253 0.7051339745521545
vt 0.6649219989776611 0.7259770035743713
vt 0.8696309924125671 0.6054080128669739
vt 0.6649219989776611 0.7259770035743713
vt 0.6914650201797485 0.6102049946784973
vt 0.10977300256490707 0.610427975654602
vt 0.2766909897327423 0.6100929975509644
vt 0.3025760054588318 0.771435022354126
vt 0.10977300256490707 0.610427975654602
vt 0.3025760054588318 0.771435022354126
vt 0.17506900429725647 0.7728109955787659
vt 0.49349498748779297 0.6102049946784973
vt 0.2766909897327423 0.6100929975509644
vt 0.29107099771499634 0.4270850419998169
vt 0.49349498748779297 0.6102049946784973
vt 0.29107099771499634 0.4270850419998169
vt 0.49178698658943176 0.4282820224761963
vt 0.49178698658943176 0.4282820224761963
vt 0.6859359741210938 0.4282820224761963
vt 0.6914650201797485 0.6102049946784973
vt 0.49178698658943176 0.4282820224761963
vt 0.6914650201797485 0.6102049946784973
vt 0.49349498748779297 0.6102049946784973
vt 0.49178698658943176 0.4282820224761963
vt 0.49178698658943176 0.22558796405792236
vt 0.6593790054321289 0.22558796405792236
vt 0.49178698658943176 0.4282820224761963
vt 0.6593790054321289 0.22558796405792236
vt 0.6859359741210938 0.4282820224761963
vt 0.49429601430892944 0.6855189800262451
vt 0.49349498748779297 0.6102049946784973
vt 0.5398370027542114 0.6943899989128113
vt 0.6914650201797485 0.6102049946784973
vt 0.6859359741210938 0.4282820224761963
vt 0.8438900113105774 0.4282820224761963
vt 0.6914650201797485 0.6102049946784973
vt 0.8438900113105774 0.4282820224761963
vt 0.8696309924125671 0.6054080128669739
vt 0.6914650201797485 0.6102049946784973
vt 0.6649219989776611 0.7259770035743713
vt 0.5398370027542114 0.6943899989128113
vt 0.6914650201797485 0.6102049946784973
vt 0.5398370027542114 0.6943899989128113
vt 0.49349498748779297 0.6102049946784973
vt 0.2766909897327423 0.6100929975509644
vt 0.49349498748779297 0.6102049946784973
vt 0.44594499468803406 0.7114400267601013
vt 0.2766909897327423 0.6100929975509644
vt 0.44594499468803406 0.7114400267601013
vt 0.3025760054588318 0.771435022354126
vt 0.29107099771499634 0.4270850419998169
vt 0.2766909897327423 0.6100929975509644
vt 0.10977300256490707 0.610427975654602
vt 0.29107099771499634 0.4270850419998169
vt 0.10977300256490707 0.610427975654602
vt 0.1406490057706833 0.4270850419998169
vt 0.29107099771499634 0.4270850419998169
vt 0.3241960108280182 0.22558796405792236
vt 0.49178698658943176 0.22558796405792236
vt 0.29107099771499634 0.4270850419998169
vt 0.49178698658943176 0.22558796405792236
vt 0.49178698658943176 0.4282820224761963
vt 0.6859359741210938 0.4282820224761963
vt 0.6593790054321289 0.22558796405792236
vt 0.7948129773139954 0.22832399606704712
vt 0.6859359741210938 0.4282820224761963
vt 0.7948129773139954 0.22832399606704712
vt 0.8438900113105774 0.4282820224761963
vt 0.19786599278450012 0.22835201025009155
vt 0.3241960108280182 0.22558796405792236
vt 0.29107099771499634 0.4270850419998169
vt 0.19786599278450012 0.22835201025009155
vt 0.29107099771499634 0.4270850419998169
vt 0.1406490057706833 0.4270850419998169
vt 0.44594499468803406 0.7114400267601013
vt 0.49349498748779297 0.6102049946784973
vt 0.49429601430892944 0.6855189800262451
vn -0.4972068420234444 0.18413265624191597 -0.8478682215712358
vn -0.5038801063070858 0.511088214681795 -0.6963430729757676
vn -0.35117021427126793 0.4372078804258293 -0.8279666357421812
vn -0.4972068420234444 0.18413265624191597 -0.8478682215712358
vn -0.35117021427126793 0.4372078804258293 -0.8279666357421812
vn -0.32379758579499607 0.060245482706107856 -0.9442063361611381
vn 0.5178904715297048 0.08162386062699843 -0.851543894861025
vn 0.2468739056008815 0.15987347935181356 -0.9557686672690794
vn 0.31606549219836455 0.36340034232522556 -0.8763805085916244
vn 0.5178904715297048 0.08162386062699843 -0.851543894861025
vn 0.31606549219836455 0.36340034232522556 -0.8763805085916244
vn 0.48908985870791855 0.38313373181963994 -0.7835812999625656
vn 0.02824011953807796 0.1430737201854005 -0.989309054967549
vn 0.2468739056008815 0.15987347935181356 -0.9557686672690794
vn 0.3651517009517225 -0.18527626869193953 -0.9123250185935141
vn 0.02824011953807796 0.1430737201854005 -0.989309054967549
vn 0.3651517009517225 -0.18527626869193953 -0.9123250185935141
vn -0.07909751579756422 -0.1332359594517408 -0.9879229535260471
vn -0.07909751579756422 -0.1332359594517408 -0.9879229535260471
vn -0.42752084507763793 -0.19025276766750523 -0.8837589102345483
vn -0.32379758579499607 0.060245482706107856 -0.9442063361611381
vn -0.07909751579756422 -0.1332359594517408 -0.9879229535260471
vn -0.32379758579499607 0.060245482706107856 -0.9442063361611381
vn 0.02824011953807796 0.1430737201854005 -0.989309054967549
vn -0.07909751579756422 -0.1332359594517408 -0.9879229535260471
vn 0.06445314573126294 -0.20407853507501955 -0.9768304579234713
vn -0.36590014850673164 -0.20255591891036165 -0.9083436469955248
vn -0.07909751579756422 -0.1332359594517408 -0.9879229535260471
vn -0.36590014850673164 -0.20255591891036165 -0.9083436469955248
vn -0.42752084507763793 -0.19025276766750523 -0.8837589102345483
vn -0.10203041210812115 0.6008865438399343 -0.7927957848255412
vn 0.02824011953807796 0.1430737201854005 -0.989309054967549
vn -0.050527754181366034 0.4887168907760941 -0.8709780403245163
vn -0.32379758579499607 0.060245482706107856 -0.9442063361611381
vn -0.42752084507763793 -0.19025276766750523 -0.8837589102345483
vn -0.5066444018147733 -0.19399370749136155 -0.84004636274643
vn -0.32379758579499607 0.060245482706107856 -0.9442063361611381
vn -0.5066444018147733 -0.19399370749136155 -0.84004636274643
vn -0.4972068420234444 0.18413265624191597 -0.8478682215712358
vn -0.32379758579499607 0.060245482706107856 -0.9442063361611381
vn -0.35117021427126793 0.4372078804258293 -0.8279666357421812
vn -0.050527754181366034 0.4887168907760941 -0.8709780403245163
vn -0.32379758579499607 0.060245482706107856 -0.9442063361611381
vn -0.050527754181366034 0.4887168907760941 -0.8709780403245163
vn 0.02824011953807796 0.1430737201854005 -0.989309054967549
vn 0.2468739056008815 0.15987347935181356 -0.9557686672690794
vn 0.02824011953807796 0.1430737201854005 -0.989309054967549
vn -0.009886979896368824 0.44014006139076023 -0.8978746983780458
vn 0.2468739056008815 0.15987347935181356 -0.9557686672690794
vn -0.009886979896368824 0.44014006139076023 -0.8978746983780458
vn 0.31606549219836455 0.36340034232522556 -0.8763805085916244
vn 0.3651517009517225 -0.18527626869193953 -0.9123250185935141
vn 0.2468739056008815 0.15987347935181356 -0.9557686672690794
vn 0.5178904715297048 0.08162386062699843 -0.851543894861025
vn 0.3651517009517225 -0.18527626869193953 -0.9123250185935141
vn 0.5178904715297048 0.08162386062699843 -0.851543894861025
vn 0.5455980445164214 -0.2585304745844136 -0.797172984697183
vn 0.3651517009517225 -0.18527626869193953 -0.9123250185935141
vn 0.43647886703063715 -0.23902008551514575 -0.867384342351177
vn 0.06445314573126294 -0.20407853507501955 -0.9768304579234713
vn 0.3651517009517225 -0.18527626869193953 -0.9123250185935141
vn 0.06445314573126294 -0.20407853507501955 -0.9768304579234713
vn -0.07909751579756422 -0.1332359594517408 -0.9879229535260471
vn -0.42752084507763793 -0.19025276766750523 -0.8837589102345483
vn -0.36590014850673164 -0.20255591891036165 -0.9083436469955248
vn -0.5634925997604497 -0.2502805308644971 -0.7872964790251479
vn -0.42752084507763793 -0.19025276766750523 -0.8837589102345483
vn -0.5634925997604497 -0.2502805308644971 -0.7872964790251479
vn -0.5066444018147733 -0.19399370749136155 -0.84004636274643
vn 0.5815185992243035 -0.27606419145357103 -0.7652611847946361
vn 0.43647886703063715 -0.23902008551514575 -0.867384342351177
vn 0.3651517009517225 -0.18527626869193953 -0.9123250185935141
vn 0.5815185992243035 -0.27606419145357103 -0.7652611847946361
vn 0.3651517009517225 -0.18527626869193953 -0.9123250185935141
vn 0.5455980445164214 -0.2585304745844136 -0.797172984697183
vn -0.009886979896368824 0.44014006139076023 -0.8978746983780458
vn 0.02824011953807796 0.1430737201854005 -0.989309054967549
vn -0.10203041210812115 0.6008865438399343 -0.7927957848255412
f 1/1/1 2/2/2 3/3/3
f 4/4/4 5/5/5 6/6/6
f 7/7/7 8/8/8 9/9/9
f 10/10/10 11/11/11 12/12/12
f 13/13/13 14/14/14 15/15/15
f 16/16/16 17/17/17 18/18/18
f 19/19/19 20/20/20 21/21/21
f 22/22/22 23/23/23 24/24/24
f 25/25/25 26/26/26 27/27/27
f 28/28/28 29/29/29 30/30/30
f 31/31/31 32/32/32 33/33/33
f 34/34/34 35/35/35 36/36/36
f 37/37/37 38/38/38 39/39/39
f 40/40/40 41/41/41 42/42/42
f 43/43/43 44/44/44 45/45/45
f 46/46/46 47/47/47 48/48/48
f 49/49/49 50/50/50 51/51/51
f 52/52/52 53/53/53 54/54/54
f 55/55/55 56/56/56 57/57/57
f 58/58/58 59/59/59 60/60/60
f 61/61/61 62/62/62 63/63/63
f 64/64/64 65/65/65 66/66/66
f 67/67/67 68/68/68 69/69/69
f 70/70/70 71/71/71 72/72/72
f 73/73/73 74/74/74 75/75/75
f 76/76/76 77/77/77 78/78/78
