mtllib ArcadaCompleta.mtl
o D45C_V
usemtl Esmalte
v -33.7781982421875 -22.124271392822266 2.5334395314599143
v -32.94369888305664 -22.14316177368164 3.102979316845046
v -33.237998962402344 -20.367712020874023 3.4148794557000266
v -33.7781982421875 -22.124271392822266 2.5334395314599143
v -33.237998962402344 -20.367712020874023 3.4148794557000266
v -34.09709930419922 -20.367712020874023 2.652109518184768
v -30.149700164794922 -21.998493194580078 2.5334395314599143
v -29.915199279785156 -20.367712020874023 2.6292394544030295
v -30.689899444580078 -20.367712020874023 3.4148794557000266
v -30.149700164794922 -21.998493194580078 2.5334395314599143
v -30.689899444580078 -20.367712020874023 3.4148794557000266
v -30.98430061340332 -22.14316177368164 3.102979316845046
v -31.964000701904297 -22.1805419921875 3.48796953214656
v -31.964000701904297 -20.367712020874023 3.7562493230248557
v -33.237998962402344 -20.367712020874023 3.4148794557000266
v -31.964000701904297 -22.1805419921875 3.48796953214656
v -33.237998962402344 -20.367712020874023 3.4148794557000266
v -32.94369888305664 -22.14316177368164 3.102979316845046
v -30.98430061340332 -22.14316177368164 3.102979316845046
v -30.689899444580078 -20.367712020874023 3.4148794557000266
v -31.964000701904297 -20.367712020874023 3.7562493230248557
v -30.98430061340332 -22.14316177368164 3.102979316845046
v -31.964000701904297 -20.367712020874023 3.7562493230248557
v -31.964000701904297 -22.1805419921875 3.48796953214656
vt 0.2476000040769577 0.007485866546630859
vt 0.3674820065498352 0.005140364170074463
vt 0.325203001499176 0.22558796405792236
vt 0.8305760025978088 0.007485866546630859
vt 0.9401450157165527 0.22558796405792236
vt 0.8453279733657837 0.22558796405792236
vt 0.16942399740219116 0.023103415966033936
vt 0.1575150042772293 0.22558796405792236
vt 0.0598548986017704 0.22558796405792236
vt 0.7688249945640564 0.023103415966033936
vt 0.6912230253219604 0.22558796405792236
vt 0.6489440202713013 0.005140364170074463
vt 0.5082129836082458 0.000499427318572998
vt 0.5082129836082458 0.22558796405792236
vt 0.325203001499176 0.22558796405792236
vt 0.5082129836082458 0.000499427318572998
vt 0.325203001499176 0.22558796405792236
vt 0.3674820065498352 0.005140364170074463
vt 0.6489440202713013 0.005140364170074463
vt 0.6912230253219604 0.22558796405792236
vt 0.5082129836082458 0.22558796405792236
vt 0.6489440202713013 0.005140364170074463
vt 0.5082129836082458 0.22558796405792236
vt 0.5082129836082458 0.000499427318572998
vn -0.6072691055574087 -0.1991894338681646 0.7691214487132608
vn -0.4589792509922235 -0.22697830298689287 0.8589638508876889
vn -0.454796848941345 -0.19001689725521148 0.8700881592979678
vn -0.6072691055574087 -0.1991894338681646 0.7691214487132608
vn -0.454796848941345 -0.19001689725521148 0.8700881592979678
vn -0.6544329459595725 -0.16860735250378306 0.7370814608469951
vn 0.6424310568645648 -0.1886560549935608 0.7427592006095548
vn 0.7048133794185739 -0.1421773917536015 0.6949990571696572
vn 0.4995953033786546 -0.20100673595192997 0.8426154668316629
vn 0.6424310568645648 -0.1886560549935608 0.7427592006095548
vn 0.4995953033786546 -0.20100673595192997 0.8426154668316629
vn 0.3895102141179544 -0.19533643111467872 0.9000697038436333
vn -0.10213067352791755 -0.17246749946845752 0.9797062249224671
vn 0.10728058063364632 -0.17013819268950006 0.9795631028204658
vn -0.454796848941345 -0.19001689725521148 0.8700881592979678
vn -0.10213067352791755 -0.17246749946845752 0.9797062249224671
vn -0.454796848941345 -0.19001689725521148 0.8700881592979678
vn -0.4589792509922235 -0.22697830298689287 0.8589638508876889
vn 0.3895102141179544 -0.19533643111467872 0.9000697038436333
vn 0.4995953033786546 -0.20100673595192997 0.8426154668316629
vn 0.10728058063364632 -0.17013819268950006 0.9795631028204658
vn 0.3895102141179544 -0.19533643111467872 0.9000697038436333
vn 0.10728058063364632 -0.17013819268950006 0.9795631028204658
vn -0.10213067352791755 -0.17246749946845752 0.9797062249224671
f 1/1/1 2/2/2 3/3/3
f 4/4/4 5/5/5 6/6/6
f 7/7/7 8/8/8 9/9/9
f 10/10/10 11/11/11 12/12/12
f 13/13/13 14/14/14 15/15/15
f 16/16/16 17/17/17 18/18/18
f 19/19/19 20/20/20 21/21/21
f 22/22/22 23/23/23 24/24/24
