mtllib ArcadaCompleta.mtl
o D46C_M
usemtl Esmalte
v -36.217498779296875 -16.31966209411621 -0.36900757299412495
v -36.36119842529297 -16.12021255493164 1.265389456882584
v -36.197898864746094 -17.11968231201172 1.517219438686478
v -36.217498779296875 -16.31966209411621 -0.36900757299412495
v -36.197898864746094 -17.11968231201172 1.517219438686478
v -36.083499908447266 -17.283472061157227 0.00106500834550232
v -36.217498779296875 -16.31966209411621 -0.36900757299412495
v -36.083499908447266 -17.283472061157227 0.00106500834550232
v -36.197898864746094 -17.11968231201172 -1.5150905703162076
v -36.217498779296875 -16.31966209411621 -0.36900757299412495
v -36.197898864746094 -17.11968231201172 -1.5150905703162076
v -36.34989929199219 -16.161832809448242 -1.876700625285995
v -36.217498779296875 -16.31966209411621 -0.36900757299412495
v -36.75469970703125 -15.837082862854004 -0.36900757299412484
v -36.894100189208984 -15.85083293914795 1.1084593678856969
v -36.217498779296875 -16.31966209411621 -0.36900757299412495
v -36.894100189208984 -15.85083293914795 1.1084593678856969
v -36.36119842529297 -16.12021255493164 1.265389456882584
v -37.43870162963867 -16.31966209411621 -0.36900757299412495
v -37.22129821777344 -16.227622985839844 0.7867844249154209
v -36.894100189208984 -15.85083293914795 1.1084593678856969
v -37.43870162963867 -16.31966209411621 -0.36900757299412495
v -36.894100189208984 -15.85083293914795 1.1084593678856969
v -36.75469970703125 -15.837082862854004 -0.36900757299412484
v -37.43870162963867 -16.31966209411621 -0.36900757299412495
v -37.849098205566406 -16.020843505859375 0.08043071581374406
v -37.41450119018555 -15.648733139038086 1.0393494511986854
v -37.43870162963867 -16.31966209411621 -0.36900757299412495
v -37.41450119018555 -15.648733139038086 1.0393494511986854
v -37.22129821777344 -16.227622985839844 0.7867844249154209
v -37.43870162963867 -16.31966209411621 -0.36900757299412495
v -37.84260177612305 -16.443471908569336 -0.369007572994125
v -37.849098205566406 -16.020843505859375 0.08043071581374406
v -36.41699981689453 -18.892541885375977 0.0010650083455019626
v -36.4286994934082 -18.8159122467041 1.4302793885613554
v -36.84479904174805 -20.04964256286621 1.433869376316177
v -36.41699981689453 -18.892541885375977 0.0010650083455019626
v -36.84479904174805 -20.04964256286621 1.433869376316177
v -36.74800109863281 -20.04964256286621 0.0010650083455017057
v -36.41699981689453 -18.892541885375977 0.0010650083455019626
v -36.4286994934082 -18.8159122467041 -1.4281506394003756
v -36.197898864746094 -17.11968231201172 -1.5150905703162076
v -36.41699981689453 -18.892541885375977 0.0010650083455019626
v -36.197898864746094 -17.11968231201172 -1.5150905703162076
v -36.083499908447266 -17.283472061157227 0.00106500834550232
v -36.34989929199219 -16.161832809448242 -1.876700625285995
v -36.197898864746094 -17.11968231201172 -1.5150905703162076
v -36.4203987121582 -16.848962783813477 -2.739430532321823
v -36.34989929199219 -16.161832809448242 -1.876700625285995
v -36.4203987121582 -16.848962783813477 -2.739430532321823
v -36.64030075073242 -15.807612419128418 -2.7980304812048793
v -36.34989929199219 -16.161832809448242 -1.876700625285995
v -36.894100189208984 -15.85083293914795 -1.8464805935477138
v -36.75469970703125 -15.837082862854004 -0.36900757299412484
v -36.34989929199219 -16.161832809448242 -1.876700625285995
v -36.75469970703125 -15.837082862854004 -0.36900757299412484
v -36.217498779296875 -16.31966209411621 -0.36900757299412495
v -36.083499908447266 -17.283472061157227 0.00106500834550232
v -36.197898864746094 -17.11968231201172 1.517219438686478
v -36.4286994934082 -18.8159122467041 1.4302793885613554
v -36.083499908447266 -17.283472061157227 0.00106500834550232
v -36.4286994934082 -18.8159122467041 1.4302793885613554
v -36.41699981689453 -18.892541885375977 0.0010650083455019626
v -36.197898864746094 -17.11968231201172 -1.5150905703162076
v -36.4286994934082 -18.8159122467041 -1.4281506394003756
v -36.48379898071289 -18.631052017211914 -2.706270561084641
v -36.197898864746094 -17.11968231201172 -1.5150905703162076
v -36.48379898071289 -18.631052017211914 -2.706270561084641
v -36.4203987121582 -16.848962783813477 -2.739430532321823
v -37.22129821777344 -16.227622985839844 -1.5248005245779872
v -37.604698181152344 -15.66035270690918 -1.6153806303595422
v -37.849098205566406 -16.020843505859375 -0.81844656215657
v -37.22129821777344 -16.227622985839844 -1.5248005245779872
v -37.849098205566406 -16.020843505859375 -0.81844656215657
v -37.43870162963867 -16.31966209411621 -0.36900757299412495
v -37.22129821777344 -16.227622985839844 0.7867844249154209
v -37.41450119018555 -15.648733139038086 1.0393494511986854
v -36.894100189208984 -15.85083293914795 1.1084593678856969
v -36.75469970703125 -15.837082862854004 -0.36900757299412484
v -36.894100189208984 -15.85083293914795 -1.8464805935477138
v -37.22129821777344 -16.227622985839844 -1.5248005245779872
v -36.75469970703125 -15.837082862854004 -0.36900757299412484
v -37.22129821777344 -16.227622985839844 -1.5248005245779872
v -37.43870162963867 -16.31966209411621 -0.36900757299412495
v -36.894100189208984 -15.85083293914795 -1.8464805935477138
v -37.604698181152344 -15.66035270690918 -1.6153806303595422
v -37.22129821777344 -16.227622985839844 -1.5248005245779872
v -36.74800109863281 -20.04964256286621 0.0010650083455017057
v -36.84479904174805 -20.04964256286621 -1.4317406271551976
v -36.4286994934082 -18.8159122467041 -1.4281506394003756
v -36.74800109863281 -20.04964256286621 0.0010650083455017057
v -36.4286994934082 -18.8159122467041 -1.4281506394003756
v -36.41699981689453 -18.892541885375977 0.0010650083455019626
v -36.84479904174805 -20.04964256286621 -1.4317406271551976
v -36.94279861450195 -20.04964256286621 -2.533580646381272
v -36.48379898071289 -18.631052017211914 -2.706270561084641
v -36.84479904174805 -20.04964256286621 -1.4317406271551976
v -36.48379898071289 -18.631052017211914 -2.706270561084641
v -36.4286994934082 -18.8159122467041 -1.4281506394003756
v -37.849098205566406 -16.020843505859375 -0.81844656215657
v -37.84260177612305 -16.443471908569336 -0.369007572994125
v -37.43870162963867 -16.31966209411621 -0.36900757299412495
v -36.64030075073242 -15.807612419128418 -2.7980304812048793
v -37.18349838256836 -15.436212539672852 -2.5090604876135707
v -36.894100189208984 -15.85083293914795 -1.8464805935477138
v -36.64030075073242 -15.807612419128418 -2.7980304812048793
v -36.894100189208984 -15.85083293914795 -1.8464805935477138
v -36.34989929199219 -16.161832809448242 -1.876700625285995
v -37.18349838256836 -15.436212539672852 -2.5090604876135707
v -37.604698181152344 -15.66035270690918 -1.6153806303595422
v -36.894100189208984 -15.85083293914795 -1.8464805935477138
v -37.18349838256836 -15.436212539672852 -2.5090604876135707
v -37.708099365234375 -15.379042625427246 -2.2682105158423305
v -37.604698181152344 -15.66035270690918 -1.6153806303595422
v -37.069801330566406 -21.270421981811523 0.0010650083455014346
v -36.74800109863281 -20.04964256286621 0.0010650083455017057
v -36.84479904174805 -20.04964256286621 1.433869376316177
v -37.069801330566406 -21.270421981811523 0.0010650083455014346
v -36.84479904174805 -20.04964256286621 1.433869376316177
v -37.182701110839844 -21.257001876831055 1.7796293641472924
v -37.182701110839844 -21.257001876831055 -1.7775006149863135
v -36.84479904174805 -20.04964256286621 -1.4317406271551976
v -36.74800109863281 -20.04964256286621 0.0010650083455017057
v -37.182701110839844 -21.257001876831055 -1.7775006149863135
v -36.74800109863281 -20.04964256286621 0.0010650083455017057
v -37.069801330566406 -21.270421981811523 0.0010650083455014346
v -37.182701110839844 -21.257001876831055 -1.7775006149863135
v -36.94279861450195 -20.04964256286621 -2.533580646381272
v -36.84479904174805 -20.04964256286621 -1.4317406271551976
v -36.84479904174805 -20.04964256286621 1.433869376316177
v -36.94279861450195 -20.04964256286621 2.535719528331863
v -37.182701110839844 -21.257001876831055 1.7796293641472924
vt 0.5292209982872009 0.736132025718689
vt 0.3684230148792267 0.7623839974403381
vt 0.3436470031738281 0.6308320164680481
vt 0.5292209982872009 0.736132025718689
vt 0.3436470031738281 0.6308320164680481
vt 0.49281200766563416 0.6092740297317505
vt 0.5292209982872009 0.736132025718689
vt 0.49281200766563416 0.6092740297317505
vt 0.641975998878479 0.6308320164680481
vt 0.5292209982872009 0.736132025718689
vt 0.641975998878479 0.6308320164680481
vt 0.6775529980659485 0.7569059729576111
vt 0.987625002861023 0.5292209982872009
vt 0.9400129914283752 0.5292209982872009
vt 0.9276639819145203 0.3838610053062439
vt 0.987625002861023 0.5292209982872009
vt 0.9276639819145203 0.3838610053062439
vt 0.9748910069465637 0.3684229850769043
vt 0.8794010281562805 0.5292209982872009
vt 0.8986679911613464 0.41550999879837036
vt 0.9276639819145203 0.3838610053062439
vt 0.8794010281562805 0.5292209982872009
vt 0.9276639819145203 0.3838610053062439
vt 0.9400129914283752 0.5292209982872009
vt 0.8794010281562805 0.5292209982872009
vt 0.8430259823799133 0.4850029945373535
vt 0.8815410137176514 0.39066100120544434
vt 0.5292209982872009 0.736132025718689
vt 0.39066100120544434 0.8244400024414062
vt 0.41550999879837036 0.7482460141181946
vt 0.8794010281562805 0.5292209982872009
vt 0.8436059951782227 0.5292209982872009
vt 0.8430259823799133 0.4850029945373535
vt 0.49281200766563416 0.39748597145080566
vt 0.3522000014781952 0.40757203102111816
vt 0.35184699296951294 0.24518799781799316
vt 0.49281200766563416 0.39748597145080566
vt 0.35184699296951294 0.24518799781799316
vt 0.49281200766563416 0.24518799781799316
vt 0.49281200766563416 0.39748597145080566
vt 0.6334229707717896 0.40757203102111816
vt 0.641975998878479 0.6308320164680481
vt 0.49281200766563416 0.39748597145080566
vt 0.641975998878479 0.6308320164680481
vt 0.49281200766563416 0.6092740297317505
vt 0.6775529980659485 0.7569059729576111
vt 0.641975998878479 0.6308320164680481
vt 0.7624319791793823 0.6664649844169617
vt 0.6775529980659485 0.7569059729576111
vt 0.7624319791793823 0.6664649844169617
vt 0.7681970000267029 0.8035290241241455
vt 0.9758890271186829 0.6775529980659485
vt 0.9276639819145203 0.6745799779891968
vt 0.9400129914283752 0.5292209982872009
vt 0.9758890271186829 0.6775529980659485
vt 0.9400129914283752 0.5292209982872009
vt 0.987625002861023 0.5292209982872009
vt 0.49281200766563416 0.6092740297317505
vt 0.3436470031738281 0.6308320164680481
vt 0.3522000014781952 0.40757203102111816
vt 0.49281200766563416 0.6092740297317505
vt 0.3522000014781952 0.40757203102111816
vt 0.49281200766563416 0.39748597145080566
vt 0.641975998878479 0.6308320164680481
vt 0.6334229707717896 0.40757203102111816
vt 0.7591689825057983 0.4319039583206177
vt 0.641975998878479 0.6308320164680481
vt 0.7591689825057983 0.4319039583206177
vt 0.7624319791793823 0.6664649844169617
vt 0.8986679911613464 0.6429319977760315
vt 0.8646870255470276 0.6518430113792419
vt 0.8430259823799133 0.5734379887580872
vt 0.8986679911613464 0.6429319977760315
vt 0.8430259823799133 0.5734379887580872
vt 0.8794010281562805 0.5292209982872009
vt 0.10133200138807297 0.7482460141181946
vt 0.11845900118350983 0.8244400024414062
vt 0.0723361000418663 0.7978399991989136
vt 0.9400129914283752 0.5292209982872009
vt 0.9276639819145203 0.6745799779891968
vt 0.8986679911613464 0.6429319977760315
vt 0.9400129914283752 0.5292209982872009
vt 0.8986679911613464 0.6429319977760315
vt 0.8794010281562805 0.5292209982872009
vt 0.9276639819145203 0.7978399991989136
vt 0.8646870255470276 0.8229110240936279
vt 0.8986679911613464 0.7482460141181946
vt 0.49281200766563416 0.24518799781799316
vt 0.6337760090827942 0.24518799781799316
vt 0.6334229707717896 0.40757203102111816
vt 0.49281200766563416 0.24518799781799316
vt 0.6334229707717896 0.40757203102111816
vt 0.49281200766563416 0.39748597145080566
vt 0.6337760090827942 0.24518799781799316
vt 0.7421799898147583 0.24518799781799316
vt 0.7591689825057983 0.4319039583206177
vt 0.6337760090827942 0.24518799781799316
vt 0.7591689825057983 0.4319039583206177
vt 0.6334229707717896 0.40757203102111816
vt 0.8430259823799133 0.5734379887580872
vt 0.8436059951782227 0.5292209982872009
vt 0.8794010281562805 0.5292209982872009
vt 0.9501519799232483 0.7681970000267029
vt 0.902014970779419 0.7397670149803162
vt 0.9276639819145203 0.6745799779891968
vt 0.9501519799232483 0.7681970000267029
vt 0.9276639819145203 0.6745799779891968
vt 0.9758890271186829 0.6775529980659485
vt 0.902014970779419 0.7397670149803162
vt 0.8646870255470276 0.6518430113792419
vt 0.9276639819145203 0.6745799779891968
vt 0.902014970779419 0.7397670149803162
vt 0.855521023273468 0.7160710096359253
vt 0.8646870255470276 0.6518430113792419
vt 0.49281200766563416 0.0845080018043518
vt 0.49281200766563416 0.24518799781799316
vt 0.35184699296951294 0.24518799781799316
vt 0.49281200766563416 0.0845080018043518
vt 0.35184699296951294 0.24518799781799316
vt 0.31782999634742737 0.08627378940582275
vt 0.6677929759025574 0.08627378940582275
vt 0.6337760090827942 0.24518799781799316
vt 0.49281200766563416 0.24518799781799316
vt 0.6677929759025574 0.08627378940582275
vt 0.49281200766563416 0.24518799781799316
vt 0.49281200766563416 0.0845080018043518
vt 0.6677929759025574 0.08627378940582275
vt 0.7421799898147583 0.24518799781799316
vt 0.6337760090827942 0.24518799781799316
vt 0.35184699296951294 0.24518799781799316
vt 0.24344299733638763 0.24518799781799316
vt 0.31782999634742737 0.08627378940582275
vn 0.9191467679100892 0.39389276149287566 0.004208501390411762
vn 0.874158720641018 0.485320106988527 0.017633062124984347
vn 0.9966813114930231 0.03263513302274769 0.07457420072072422
vn 0.9191467679100892 0.39389276149287566 0.004208501390411762
vn 0.9966813114930231 0.03263513302274769 0.07457420072072422
vn 0.9958266303978579 -0.09119181248597741 0.0036572566181086864
vn 0.9191467679100892 0.39389276149287566 0.004208501390411762
vn 0.9958266303978579 -0.09119181248597741 0.0036572566181086864
vn 0.9941386325597096 -0.05895196514391349 -0.09062585204003047
vn 0.9191467679100892 0.39389276149287566 0.004208501390411762
vn 0.9941386325597096 -0.05895196514391349 -0.09062585204003047
vn 0.8800527782900827 0.4686080969489633 -0.0768996677351567
vn 0.9191467679100892 0.39389276149287566 0.004208501390411762
vn 0.014293692491596276 0.9998967232232805 -0.0014944036609482155
vn 0.04951436372975856 0.9953592870649516 -0.08251192300503304
vn 0.9191467679100892 0.39389276149287566 0.004208501390411762
vn 0.04951436372975856 0.9953592870649516 -0.08251192300503304
vn 0.874158720641018 0.485320106988527 0.017633062124984347
vn -0.17995100914063109 0.9792688326035176 -0.09300638580555669
vn 0.37730011748217573 0.833531865467817 -0.4035706265298276
vn 0.04951436372975856 0.9953592870649516 -0.08251192300503304
vn -0.17995100914063109 0.9792688326035176 -0.09300638580555669
vn 0.04951436372975856 0.9953592870649516 -0.08251192300503304
vn 0.014293692491596276 0.9998967232232805 -0.0014944036609482155
vn -0.17995100914063109 0.9792688326035176 -0.09300638580555669
vn 0.07100497575032962 0.8593137429208211 -0.5064959868015781
vn 0.5732352540424922 0.6774647603603081 -0.4609152221317818
vn -0.17995100914063109 0.9792688326035176 -0.09300638580555669
vn 0.5732352540424922 0.6774647603603081 -0.4609152221317818
vn 0.37730011748217573 0.833531865467817 -0.4035706265298276
vn -0.17995100914063109 0.9792688326035176 -0.09300638580555669
vn -0.29307549701951213 0.9560893018158735 3.924137059780335e-8
vn 0.07100497575032962 0.8593137429208211 -0.5064959868015781
vn 0.9737847776829904 -0.2272951838728022 -0.008950203412103312
vn 0.9763183267347112 -0.21104536446696337 0.047564472234432095
vn 0.9610402199356654 -0.2699300669334721 0.059493315853959075
vn 0.9737847776829904 -0.2272951838728022 -0.008950203412103312
vn 0.9610402199356654 -0.2699300669334721 0.059493315853959075
vn 0.9622913750280537 -0.27150237603900085 -0.016785986768567098
vn 0.9737847776829904 -0.2272951838728022 -0.008950203412103312
vn 0.9727286124830916 -0.22682322718978953 -0.048479583990877186
vn 0.9941386325597096 -0.05895196514391349 -0.09062585204003047
vn 0.9737847776829904 -0.2272951838728022 -0.008950203412103312
vn 0.9941386325597096 -0.05895196514391349 -0.09062585204003047
vn 0.9958266303978579 -0.09119181248597741 0.0036572566181086864
vn 0.8800527782900827 0.4686080969489633 -0.0768996677351567
vn 0.9941386325597096 -0.05895196514391349 -0.09062585204003047
vn 0.9806383659336887 0.04830681891033186 -0.18977577955489777
vn 0.8800527782900827 0.4686080969489633 -0.0768996677351567
vn 0.9806383659336887 0.04830681891033186 -0.18977577955489777
vn 0.8148983776207529 0.5795996827300559 -0.002200438657008693
vn 0.8800527782900827 0.4686080969489633 -0.0768996677351567
vn 0.2892154767383818 0.9255538628167077 0.24434495091992683
vn 0.014293692491596276 0.9998967232232805 -0.0014944036609482155
vn 0.8800527782900827 0.4686080969489633 -0.0768996677351567
vn 0.014293692491596276 0.9998967232232805 -0.0014944036609482155
vn 0.9191467679100892 0.39389276149287566 0.004208501390411762
vn 0.9958266303978579 -0.09119181248597741 0.0036572566181086864
vn 0.9966813114930231 0.03263513302274769 0.07457420072072422
vn 0.9763183267347112 -0.21104536446696337 0.047564472234432095
vn 0.9958266303978579 -0.09119181248597741 0.0036572566181086864
vn 0.9763183267347112 -0.21104536446696337 0.047564472234432095
vn 0.9737847776829904 -0.2272951838728022 -0.008950203412103312
vn 0.9941386325597096 -0.05895196514391349 -0.09062585204003047
vn 0.9727286124830916 -0.22682322718978953 -0.048479583990877186
vn 0.9760716047811581 -0.18815379352340894 -0.1090062948764219
vn 0.9941386325597096 -0.05895196514391349 -0.09062585204003047
vn 0.9760716047811581 -0.18815379352340894 -0.1090062948764219
vn 0.9806383659336887 0.04830681891033186 -0.18977577955489777
vn -0.0992587423724036 0.952623001484351 0.2875015114840181
vn 0.46538747606611364 0.720664474391632 0.5138649749405433
vn 0.48208925791541346 0.7805816156073802 0.39784706707268574
vn -0.0992587423724036 0.952623001484351 0.2875015114840181
vn 0.48208925791541346 0.7805816156073802 0.39784706707268574
vn -0.17995100914063109 0.9792688326035176 -0.09300638580555669
vn 0.37730011748217573 0.833531865467817 -0.4035706265298276
vn 0.5732352540424922 0.6774647603603081 -0.4609152221317818
vn 0.04951436372975856 0.9953592870649516 -0.08251192300503304
vn 0.014293692491596276 0.9998967232232805 -0.0014944036609482155
vn 0.2892154767383818 0.9255538628167077 0.24434495091992683
vn -0.0992587423724036 0.952623001484351 0.2875015114840181
vn 0.014293692491596276 0.9998967232232805 -0.0014944036609482155
vn -0.0992587423724036 0.952623001484351 0.2875015114840181
vn -0.17995100914063109 0.9792688326035176 -0.09300638580555669
vn 0.2892154767383818 0.9255538628167077 0.24434495091992683
vn 0.46538747606611364 0.720664474391632 0.5138649749405433
vn -0.0992587423724036 0.952623001484351 0.2875015114840181
vn 0.9622913750280537 -0.27150237603900085 -0.016785986768567098
vn 0.9534083840911437 -0.2918487792629639 -0.07639858105640604
vn 0.9727286124830916 -0.22682322718978953 -0.048479583990877186
vn 0.9622913750280537 -0.27150237603900085 -0.016785986768567098
vn 0.9727286124830916 -0.22682322718978953 -0.048479583990877186
vn 0.9737847776829904 -0.2272951838728022 -0.008950203412103312
vn 0.9534083840911437 -0.2918487792629639 -0.07639858105640604
vn 0.9549908121525167 -0.2842146898579903 -0.08493855881284536
vn 0.9760716047811581 -0.18815379352340894 -0.1090062948764219
vn 0.9534083840911437 -0.2918487792629639 -0.07639858105640604
vn 0.9760716047811581 -0.18815379352340894 -0.1090062948764219
vn 0.9727286124830916 -0.22682322718978953 -0.048479583990877186
vn 0.48208925791541346 0.7805816156073802 0.39784706707268574
vn -0.29307549701951213 0.9560893018158735 3.924137059780335e-8
vn -0.17995100914063109 0.9792688326035176 -0.09300638580555669
vn 0.8148983776207529 0.5795996827300559 -0.002200438657008693
vn 0.4341469274436589 0.8448828216719427 0.3125531363382656
vn 0.2892154767383818 0.9255538628167077 0.24434495091992683
vn 0.8148983776207529 0.5795996827300559 -0.002200438657008693
vn 0.2892154767383818 0.9255538628167077 0.24434495091992683
vn 0.8800527782900827 0.4686080969489633 -0.0768996677351567
vn 0.4341469274436589 0.8448828216719427 0.3125531363382656
vn 0.46538747606611364 0.720664474391632 0.5138649749405433
vn 0.2892154767383818 0.9255538628167077 0.24434495091992683
vn 0.4341469274436589 0.8448828216719427 0.3125531363382656
vn 0.25783832468051093 0.9014874805634594 0.34762008099834196
vn 0.46538747606611364 0.720664474391632 0.5138649749405433
vn 0.967010076301337 -0.254057346588823 0.018611205654904782
vn 0.9622913750280537 -0.27150237603900085 -0.016785986768567098
vn 0.9610402199356654 -0.2699300669334721 0.059493315853959075
vn 0.967010076301337 -0.254057346588823 0.018611205654904782
vn 0.9610402199356654 -0.2699300669334721 0.059493315853959075
vn 0.9656587081658723 -0.249676506518001 0.0718672487047159
vn 0.9654161086224115 -0.25124273488270243 -0.06963350760244919
vn 0.9534083840911437 -0.2918487792629639 -0.07639858105640604
vn 0.9622913750280537 -0.27150237603900085 -0.016785986768567098
vn 0.9654161086224115 -0.25124273488270243 -0.06963350760244919
vn 0.9622913750280537 -0.27150237603900085 -0.016785986768567098
vn 0.967010076301337 -0.254057346588823 0.018611205654904782
vn 0.9654161086224115 -0.25124273488270243 -0.06963350760244919
vn 0.9549908121525167 -0.2842146898579903 -0.08493855881284536
vn 0.9534083840911437 -0.2918487792629639 -0.07639858105640604
vn 0.9610402199356654 -0.2699300669334721 0.059493315853959075
vn 0.9655510971293741 -0.24563432192110957 0.0858769976572243
vn 0.9656587081658723 -0.249676506518001 0.0718672487047159
f 1/1/1 2/2/2 3/3/3
f 4/4/4 5/5/5 6/6/6
f 7/7/7 8/8/8 9/9/9
f 10/10/10 11/11/11 12/12/12
f 13/13/13 14/14/14 15/15/15
f 16/16/16 17/17/17 18/18/18
f 19/19/19 20/20/20 21/21/21
f 22/22/22 23/23/23 24/24/24
f 25/25/25 26/26/26 27/27/27
f 28/28/28 29/29/29 30/30/30
f 31/31/31 32/32/32 33/33/33
f 34/34/34 35/35/35 36/36/36
f 37/37/37 38/38/38 39/39/39
f 40/40/40 41/41/41 42/42/42
f 43/43/43 44/44/44 45/45/45
f 46/46/46 47/47/47 48/48/48
f 49/49/49 50/50/50 51/51/51
f 52/52/52 53/53/53 54/54/54
f 55/55/55 56/56/56 57/57/57
f 58/58/58 59/59/59 60/60/60
f 61/61/61 62/62/62 63/63/63
f 64/64/64 65/65/65 66/66/66
f 67/67/67 68/68/68 69/69/69
f 70/70/70 71/71/71 72/72/72
f 73/73/73 74/74/74 75/75/75
f 76/76/76 77/77/77 78/78/78
f 79/79/79 80/80/80 81/81/81
f 82/82/82 83/83/83 84/84/84
f 85/85/85 86/86/86 87/87/87
f 88/88/88 89/89/89 90/90/90
f 91/91/91 92/92/92 93/93/93
f 94/94/94 95/95/95 96/96/96
f 97/97/97 98/98/98 99/99/99
f 100/100/100 101/101/101 102/102/102
f 103/103/103 104/104/104 105/105/105
f 106/106/106 107/107/107 108/108/108
f 109/109/109 110/110/110 111/111/111
f 112/112/112 113/113/113 114/114/114
f 115/115/115 116/116/116 117/117/117
f 118/118/118 119/119/119 120/120/120
f 121/121/121 122/122/122 123/123/123
f 124/124/124 125/125/125 126/126/126
f 127/127/127 128/128/128 129/129/129
f 130/130/130 131/131/131 132/132/132
