mtllib ArcadaCompleta.mtl
o D46C_L
usemtl Esmalte
v -41.5786018371582 -16.02039337158203 -4.775160417423141
v -41.56890106201172 -15.6123628616333 -4.073420629367721
v -41.20330047607422 -15.146142959594727 -4.071160421237837
v -41.5786018371582 -16.02039337158203 -4.775160417423141
v -41.20330047607422 -15.146142959594727 -4.071160421237837
v -41.18149948120117 -15.591652870178223 -4.863020524845016
v -41.5786018371582 -16.02039337158203 -4.775160417423141
v -41.962799072265625 -15.591652870178223 -4.863020524845016
v -41.93450164794922 -15.146142959594727 -4.071160421237837
v -41.5786018371582 -16.02039337158203 -4.775160417423141
v -41.93450164794922 -15.146142959594727 -4.071160421237837
v -41.56890106201172 -15.6123628616333 -4.073420629367721
v -41.5786018371582 -18.519472122192383 -4.3000804041479945
v -41.904300689697266 -18.519472122192383 -4.783020601138961
v -41.92689895629883 -16.59465217590332 -5.034660444126022
v -41.5786018371582 -18.519472122192383 -4.3000804041479945
v -41.92689895629883 -16.59465217590332 -5.034660444126022
v -41.5786018371582 -16.604503631591797 -4.724670514926803
v -41.5786018371582 -18.519472122192383 -4.3000804041479945
v -41.5786018371582 -18.992393493652344 -4.665200815067184
v -41.904300689697266 -18.519472122192383 -4.783020601138961
v -41.5786018371582 -16.604503631591797 -4.724670514926803
v -41.92689895629883 -16.59465217590332 -5.034660444126022
v -41.962799072265625 -15.591652870178223 -4.863020524845016
v -41.5786018371582 -16.604503631591797 -4.724670514926803
v -41.962799072265625 -15.591652870178223 -4.863020524845016
v -41.5786018371582 -16.02039337158203 -4.775160417423141
v -41.5786018371582 -16.604503631591797 -4.724670514926803
v -41.23030090332031 -16.59465217590332 -5.034660444126022
v -41.252899169921875 -18.519472122192383 -4.783020601138961
v -41.5786018371582 -16.604503631591797 -4.724670514926803
v -41.252899169921875 -18.519472122192383 -4.783020601138961
v -41.5786018371582 -18.519472122192383 -4.3000804041479945
v -42.88050079345703 -15.336402893066406 -4.77572070108403
v -42.67789840698242 -14.832162857055664 -4.041400537357222
v -41.93450164794922 -15.146142959594727 -4.071160421237837
v -42.88050079345703 -15.336402893066406 -4.77572070108403
v -41.93450164794922 -15.146142959594727 -4.071160421237837
v -41.962799072265625 -15.591652870178223 -4.863020524845016
v -40.30099868774414 -15.361132621765137 -4.89942036615361
v -41.18149948120117 -15.591652870178223 -4.863020524845016
v -41.20330047607422 -15.146142959594727 -4.071160421237837
v -40.30099868774414 -15.361132621765137 -4.89942036615361
v -41.20330047607422 -15.146142959594727 -4.071160421237837
v -40.392799377441406 -14.822062492370605 -4.137540445194136
v -40.25469970703125 -18.519472122192383 -4.993850812778366
v -40.314701080322266 -19.809513092041016 -4.787990674838913
v -41.5786018371582 -18.992393493652344 -4.665200815067184
v -40.25469970703125 -18.519472122192383 -4.993850812778366
v -41.5786018371582 -18.992393493652344 -4.665200815067184
v -41.252899169921875 -18.519472122192383 -4.783020601138961
v -42.90250015258789 -18.519472122192383 -5.051630601749313
v -43.062801361083984 -16.575212478637695 -5.149060354099166
v -41.92689895629883 -16.59465217590332 -5.034660444126022
v -42.90250015258789 -18.519472122192383 -5.051630601749313
v -41.92689895629883 -16.59465217590332 -5.034660444126022
v -41.904300689697266 -18.519472122192383 -4.783020601138961
v -41.5786018371582 -20.04964256286621 -4.699130639896286
v -42.84260177612305 -19.809513092041016 -4.787990674838913
v -41.5786018371582 -18.992393493652344 -4.665200815067184
v -41.18149948120117 -15.591652870178223 -4.863020524845016
v -41.23030090332031 -16.59465217590332 -5.034660444126022
v -41.5786018371582 -16.604503631591797 -4.724670514926803
v -41.18149948120117 -15.591652870178223 -4.863020524845016
v -41.5786018371582 -16.604503631591797 -4.724670514926803
v -41.5786018371582 -16.02039337158203 -4.775160417423141
v -41.962799072265625 -15.591652870178223 -4.863020524845016
v -41.92689895629883 -16.59465217590332 -5.034660444126022
v -43.062801361083984 -16.575212478637695 -5.149060354099166
v -41.962799072265625 -15.591652870178223 -4.863020524845016
v -43.062801361083984 -16.575212478637695 -5.149060354099166
v -42.88050079345703 -15.336402893066406 -4.77572070108403
v -41.252899169921875 -18.519472122192383 -4.783020601138961
v -41.23030090332031 -16.59465217590332 -5.034660444126022
v -40.16270065307617 -16.584802627563477 -4.943720445499313
v -41.252899169921875 -18.519472122192383 -4.783020601138961
v -40.16270065307617 -16.584802627563477 -4.943720445499313
v -40.25469970703125 -18.519472122192383 -4.993850812778366
v -41.252899169921875 -18.519472122192383 -4.783020601138961
v -41.5786018371582 -18.992393493652344 -4.665200815067184
v -41.5786018371582 -18.519472122192383 -4.3000804041479945
v -41.904300689697266 -18.519472122192383 -4.783020601138961
v -41.5786018371582 -18.992393493652344 -4.665200815067184
v -42.84260177612305 -19.809513092041016 -4.787990674838913
v -41.904300689697266 -18.519472122192383 -4.783020601138961
v -42.84260177612305 -19.809513092041016 -4.787990674838913
v -42.90250015258789 -18.519472122192383 -5.051630601749313
v -41.23030090332031 -16.59465217590332 -5.034660444126022
v -41.18149948120117 -15.591652870178223 -4.863020524845016
v -40.30099868774414 -15.361132621765137 -4.89942036615361
v -41.23030090332031 -16.59465217590332 -5.034660444126022
v -40.30099868774414 -15.361132621765137 -4.89942036615361
v -40.16270065307617 -16.584802627563477 -4.943720445499313
v -41.5786018371582 -18.992393493652344 -4.665200815067184
v -40.314701080322266 -19.809513092041016 -4.787990674838913
v -41.5786018371582 -20.04964256286621 -4.699130639896286
vt 0.5125150084495544 0.9627140164375305
vt 0.513372004032135 0.8936750292778015
vt 0.5457730293273926 0.893451988697052
vt 0.5125150084495544 0.9627140164375305
vt 0.5457730293273926 0.893451988697052
vt 0.5477060079574585 0.9713590145111084
vt 0.5125150084495544 0.9627140164375305
vt 0.4784640073776245 0.9713590145111084
vt 0.48097100853919983 0.893451988697052
vt 0.5125150084495544 0.9627140164375305
vt 0.48097100853919983 0.893451988697052
vt 0.513372004032135 0.8936750292778015
vt 0.9159749746322632 0.44659101963043213
vt 0.963487982749939 0.44659101963043213
vt 0.9882450103759766 0.6999379992485046
vt 0.48748499155044556 0.44659101963043213
vt 0.5183529853820801 0.6999379992485046
vt 0.48748499155044556 0.6986410021781921
vt 0.9159749746322632 0.44659101963043213
vt 0.9518970251083374 0.3843439817428589
vt 0.963487982749939 0.44659101963043213
vt 0.48748499155044556 0.6986410021781921
vt 0.5183529853820801 0.6999379992485046
vt 0.5215359926223755 0.8319529891014099
vt 0.48748499155044556 0.6986410021781921
vt 0.5215359926223755 0.8319529891014099
vt 0.48748499155044556 0.775521993637085
vt 0.48748499155044556 0.6986410021781921
vt 0.45661699771881104 0.6999379992485046
vt 0.458624005317688 0.44659101963043213
vt 0.04225299879908562 0.6986410021781921
vt 0.03651240095496178 0.44659101963043213
vt 0.08402539789676666 0.44659101963043213
vt 0.39713698625564575 0.9627699851989746
vt 0.41509300470352173 0.8905249834060669
vt 0.48097100853919983 0.893451988697052
vt 0.39713698625564575 0.9627699851989746
vt 0.48097100853919983 0.893451988697052
vt 0.4784640073776245 0.9713590145111084
vt 0.6257410049438477 0.9749400019645691
vt 0.5477060079574585 0.9713590145111084
vt 0.5457730293273926 0.893451988697052
vt 0.6257410049438477 0.9749400019645691
vt 0.5457730293273926 0.893451988697052
vt 0.6176019906997681 0.8999829888343811
vt 0.3701609969139099 0.44659101963043213
vt 0.3754729926586151 0.2767939567565918
vt 0.48748499155044556 0.3843439817428589
vt 0.3701609969139099 0.44659101963043213
vt 0.48748499155044556 0.3843439817428589
vt 0.458624005317688 0.44659101963043213
vt 0.6048099994659424 0.44659101963043213
vt 0.6190189719200134 0.7024959921836853
vt 0.5183529853820801 0.6999379992485046
vt 0.6048099994659424 0.44659101963043213
vt 0.5183529853820801 0.6999379992485046
vt 0.5163469910621643 0.44659101963043213
vt 0.48748499155044556 0.24518799781799316
vt 0.5994979739189148 0.2767939567565918
vt 0.48748499155044556 0.3843439817428589
vt 0.4522939920425415 0.8319529891014099
vt 0.45661699771881104 0.6999379992485046
vt 0.48748499155044556 0.6986410021781921
vt 0.4522939920425415 0.8319529891014099
vt 0.48748499155044556 0.6986410021781921
vt 0.48748499155044556 0.775521993637085
vt 0.5215359926223755 0.8319529891014099
vt 0.5183529853820801 0.6999379992485046
vt 0.6190189719200134 0.7024959921836853
vt 0.5215359926223755 0.8319529891014099
vt 0.6190189719200134 0.7024959921836853
vt 0.6028630137443542 0.8655499815940857
vt 0.458624005317688 0.44659101963043213
vt 0.45661699771881104 0.6999379992485046
vt 0.36200499534606934 0.701233983039856
vt 0.458624005317688 0.44659101963043213
vt 0.36200499534606934 0.701233983039856
vt 0.3701609969139099 0.44659101963043213
vt 0.03651240095496178 0.44659101963043213
vt 0.04810339957475662 0.3843439817428589
vt 0.08402539789676666 0.44659101963043213
vt 0.5163469910621643 0.44659101963043213
vt 0.48748499155044556 0.3843439817428589
vt 0.5994979739189148 0.2767939567565918
vt 0.5163469910621643 0.44659101963043213
vt 0.5994979739189148 0.2767939567565918
vt 0.6048099994659424 0.44659101963043213
vt 0.45661699771881104 0.6999379992485046
vt 0.4522939920425415 0.8319529891014099
vt 0.37425899505615234 0.8622949719429016
vt 0.45661699771881104 0.6999379992485046
vt 0.37425899505615234 0.8622949719429016
vt 0.36200499534606934 0.701233983039856
vt 0.48748499155044556 0.3843439817428589
vt 0.3754729926586151 0.2767939567565918
vt 0.48748499155044556 0.24518799781799316
vn 0 0.6954006433325299 -0.7186222549105362
vn 0 0.8644845841116832 -0.502659331787693
vn -0.4704891671060791 0.7443663491350149 -0.47387623058266726
vn 0 0.6954006433325299 -0.7186222549105362
vn -0.4704891671060791 0.7443663491350149 -0.47387623058266726
vn -0.3870608224071088 0.4729575829321626 -0.7915143994296623
vn 0 0.6954006433325299 -0.7186222549105362
vn 0.2482637295813938 0.41152617000901903 -0.8769329118992197
vn 0.44323975679082955 0.7523463599704988 -0.4873535396805349
vn 0 0.6954006433325299 -0.7186222549105362
vn 0.44323975679082955 0.7523463599704988 -0.4873535396805349
vn 0 0.8644845841116832 -0.502659331787693
vn 0.25759504084367724 -0.05175297130826026 -0.9648660139591977
vn 0.4068543860699543 -0.10345014801923598 -0.9076164252647914
vn 0.36226125616939286 -0.038607953982799065 -0.9312766550106555
vn 0.25759504084367724 -0.05175297130826026 -0.9648660139591977
vn 0.36226125616939286 -0.038607953982799065 -0.9312766550106555
vn -0.28503529527631294 -0.07985939357063787 -0.955184462659059
vn 0.25759504084367724 -0.05175297130826026 -0.9648660139591977
vn -0.04530751753219535 -0.014506045882762239 -0.9988677607611115
vn 0.4068543860699543 -0.10345014801923598 -0.9076164252647914
vn -0.28503529527631294 -0.07985939357063787 -0.955184462659059
vn 0.36226125616939286 -0.038607953982799065 -0.9312766550106555
vn 0.2482637295813938 0.41152617000901903 -0.8769329118992197
vn -0.28503529527631294 -0.07985939357063787 -0.955184462659059
vn 0.2482637295813938 0.41152617000901903 -0.8769329118992197
vn 0 0.6954006433325299 -0.7186222549105362
vn -0.28503529527631294 -0.07985939357063787 -0.955184462659059
vn -0.13105285789668647 -0.012012367272356116 -0.991302603380837
vn -0.3313129569211491 -0.05585259241208722 -0.9418663453468405
vn -0.28503529527631294 -0.07985939357063787 -0.955184462659059
vn -0.3313129569211491 -0.05585259241208722 -0.9418663453468405
vn 0.25759504084367724 -0.05175297130826026 -0.9648660139591977
vn 0.1385534826297103 0.620808708739155 -0.7716213317455665
vn 0.29243373362822855 0.7487630714038308 -0.5948414699213197
vn 0.44323975679082955 0.7523463599704988 -0.4873535396805349
vn 0.1385534826297103 0.620808708739155 -0.7716213317455665
vn 0.44323975679082955 0.7523463599704988 -0.4873535396805349
vn 0.2482637295813938 0.41152617000901903 -0.8769329118992197
vn -0.1301697999012475 0.4431341581383191 -0.8869543060861211
vn -0.3870608224071088 0.4729575829321626 -0.7915143994296623
vn -0.4704891671060791 0.7443663491350149 -0.47387623058266726
vn -0.1301697999012475 0.4431341581383191 -0.8869543060861211
vn -0.4704891671060791 0.7443663491350149 -0.47387623058266726
vn -0.34497504306906235 0.7461125608551722 -0.5694806987015761
vn -0.19987797551987557 -0.05566489602483917 -0.9782383218074314
vn -0.14040837125011396 -0.0687565005175109 -0.9877034134392143
vn -0.04530751753219535 -0.014506045882762239 -0.9988677607611115
vn -0.19987797551987557 -0.05566489602483917 -0.9782383218074314
vn -0.04530751753219535 -0.014506045882762239 -0.9988677607611115
vn -0.3313129569211491 -0.05585259241208722 -0.9418663453468405
vn 0.19523150931700195 -0.10526750768553812 -0.9750914878079291
vn 0.07139288062424085 0.1019689241979073 -0.9922224524238978
vn 0.36226125616939286 -0.038607953982799065 -0.9312766550106555
vn 0.19523150931700195 -0.10526750768553812 -0.9750914878079291
vn 0.36226125616939286 -0.038607953982799065 -0.9312766550106555
vn 0.4068543860699543 -0.10345014801923598 -0.9076164252647914
vn 0 0.03207604208996531 -0.9994854313714846
vn 0.16967728988744563 -0.08811497791803151 -0.9815525293956286
vn -0.04530751753219535 -0.014506045882762239 -0.9988677607611115
vn -0.3870608224071088 0.4729575829321626 -0.7915143994296623
vn -0.13105285789668647 -0.012012367272356116 -0.991302603380837
vn -0.28503529527631294 -0.07985939357063787 -0.955184462659059
vn -0.3870608224071088 0.4729575829321626 -0.7915143994296623
vn -0.28503529527631294 -0.07985939357063787 -0.955184462659059
vn 0 0.6954006433325299 -0.7186222549105362
vn 0.2482637295813938 0.41152617000901903 -0.8769329118992197
vn 0.36226125616939286 -0.038607953982799065 -0.9312766550106555
vn 0.07139288062424085 0.1019689241979073 -0.9922224524238978
vn 0.2482637295813938 0.41152617000901903 -0.8769329118992197
vn 0.07139288062424085 0.1019689241979073 -0.9922224524238978
vn 0.1385534826297103 0.620808708739155 -0.7716213317455665
vn -0.3313129569211491 -0.05585259241208722 -0.9418663453468405
vn -0.13105285789668647 -0.012012367272356116 -0.991302603380837
vn -0.02256434715433914 -0.026694516438366907 -0.999388939817537
vn -0.3313129569211491 -0.05585259241208722 -0.9418663453468405
vn -0.02256434715433914 -0.026694516438366907 -0.999388939817537
vn -0.19987797551987557 -0.05566489602483917 -0.9782383218074314
vn -0.3313129569211491 -0.05585259241208722 -0.9418663453468405
vn -0.04530751753219535 -0.014506045882762239 -0.9988677607611115
vn 0.25759504084367724 -0.05175297130826026 -0.9648660139591977
vn 0.4068543860699543 -0.10345014801923598 -0.9076164252647914
vn -0.04530751753219535 -0.014506045882762239 -0.9988677607611115
vn 0.16967728988744563 -0.08811497791803151 -0.9815525293956286
vn 0.4068543860699543 -0.10345014801923598 -0.9076164252647914
vn 0.16967728988744563 -0.08811497791803151 -0.9815525293956286
vn 0.19523150931700195 -0.10526750768553812 -0.9750914878079291
vn -0.13105285789668647 -0.012012367272356116 -0.991302603380837
vn -0.3870608224071088 0.4729575829321626 -0.7915143994296623
vn -0.1301697999012475 0.4431341581383191 -0.8869543060861211
vn -0.13105285789668647 -0.012012367272356116 -0.991302603380837
vn -0.1301697999012475 0.4431341581383191 -0.8869543060861211
vn -0.02256434715433914 -0.026694516438366907 -0.999388939817537
vn -0.04530751753219535 -0.014506045882762239 -0.9988677607611115
vn -0.14040837125011396 -0.0687565005175109 -0.9877034134392143
vn 0 0.03207604208996531 -0.9994854313714846
f 1/1/1 2/2/2 3/3/3
f 4/4/4 5/5/5 6/6/6
f 7/7/7 8/8/8 9/9/9
f 10/10/10 11/11/11 12/12/12
f 13/13/13 14/14/14 15/15/15
f 16/16/16 17/17/17 18/18/18
f 19/19/19 20/20/20 21/21/21
f 22/22/22 23/23/23 24/24/24
f 25/25/25 26/26/26 27/27/27
f 28/28/28 29/29/29 30/30/30
f 31/31/31 32/32/32 33/33/33
f 34/34/34 35/35/35 36/36/36
f 37/37/37 38/38/38 39/39/39
f 40/40/40 41/41/41 42/42/42
f 43/43/43 44/44/44 45/45/45
f 46/46/46 47/47/47 48/48/48
f 49/49/49 50/50/50 51/51/51
f 52/52/52 53/53/53 54/54/54
f 55/55/55 56/56/56 57/57/57
f 58/58/58 59/59/59 60/60/60
f 61/61/61 62/62/62 63/63/63
f 64/64/64 65/65/65 66/66/66
f 67/67/67 68/68/68 69/69/69
f 70/70/70 71/71/71 72/72/72
f 73/73/73 74/74/74 75/75/75
f 76/76/76 77/77/77 78/78/78
f 79/79/79 80/80/80 81/81/81
f 82/82/82 83/83/83 84/84/84
f 85/85/85 86/86/86 87/87/87
f 88/88/88 89/89/89 90/90/90
f 91/91/91 92/92/92 93/93/93
f 94/94/94 95/95/95 96/96/96
