mtllib ArcadaCompleta.mtl
o D47C_B
usemtl Esmalte
v -53.332801818847656 -15.899582862854004 3.8131493474389195
v -53.332801818847656 -16.460323333740234 4.337249651088822
v -52.999698638916016 -16.450862884521484 4.647239580288041
v -53.332801818847656 -15.899582862854004 3.8131493474389195
v -52.999698638916016 -16.450862884521484 4.647239580288041
v -52.95920181274414 -15.564022064208984 4.063379182949173
v -53.332801818847656 -15.899582862854004 3.8131493474389195
v -53.706298828125 -15.564022064208984 4.063379182949173
v -53.66579818725586 -16.450862884521484 4.549849405422318
v -53.332801818847656 -15.899582862854004 3.8131493474389195
v -53.66579818725586 -16.450862884521484 4.549849405422318
v -53.332801818847656 -16.460323333740234 4.337249651088822
v -53.332801818847656 -18.29869270324707 4.438549413814652
v -53.332801818847656 -16.460323333740234 4.337249651088822
v -53.66579818725586 -16.450862884521484 4.549849405422318
v -53.332801818847656 -18.29869270324707 4.438549413814652
v -53.66579818725586 -16.450862884521484 4.549849405422318
v -53.644100189208984 -18.29869270324707 4.921489610805619
v -53.332801818847656 -18.29869270324707 4.438549413814652
v -53.644100189208984 -18.29869270324707 4.921489610805619
v -53.332801818847656 -18.752702713012695 4.8036793614770055
v -53.332801818847656 -18.29869270324707 4.438549413814652
v -53.021400451660156 -18.29869270324707 4.921489610805619
v -52.999698638916016 -16.450862884521484 4.647239580288041
v -53.332801818847656 -18.29869270324707 4.438549413814652
v -52.999698638916016 -16.450862884521484 4.647239580288041
v -53.332801818847656 -16.460323333740234 4.337249651088822
v -53.332801818847656 -15.581642150878906 3.4807194615746617
v -53.68230056762695 -15.134062767028809 3.439509525432694
v -53.706298828125 -15.564022064208984 4.063379182949173
v -53.332801818847656 -15.581642150878906 3.4807194615746617
v -53.706298828125 -15.564022064208984 4.063379182949173
v -53.332801818847656 -15.899582862854004 3.8131493474389195
v -54.85110092163086 -15.228462219238281 3.94535936368953
v -54.686500549316406 -16.4414119720459 4.449179544582474
v -53.66579818725586 -16.450862884521484 4.549849405422318
v -54.85110092163086 -15.228462219238281 3.94535936368953
v -53.66579818725586 -16.450862884521484 4.549849405422318
v -53.706298828125 -15.564022064208984 4.063379182949173
v -51.81439971923828 -15.228462219238281 4.091449632778276
v -52.95920181274414 -15.564022064208984 4.063379182949173
v -52.999698638916016 -16.450862884521484 4.647239580288041
v -51.81439971923828 -15.228462219238281 4.091449632778276
v -52.999698638916016 -16.450862884521484 4.647239580288041
v -51.979000091552734 -16.4414119720459 4.575779333248246
v -52.06700134277344 -18.29869270324707 5.112189188137162
v -51.979000091552734 -16.4414119720459 4.575779333248246
v -52.999698638916016 -16.450862884521484 4.647239580288041
v -52.06700134277344 -18.29869270324707 5.112189188137162
v -52.999698638916016 -16.450862884521484 4.647239580288041
v -53.021400451660156 -18.29869270324707 4.921489610805619
v -54.686500549316406 -16.4414119720459 4.449179544582474
v -54.59859848022461 -18.29869270324707 4.946629419460404
v -53.644100189208984 -18.29869270324707 4.921489610805619
v -54.686500549316406 -16.4414119720459 4.449179544582474
v -53.644100189208984 -18.29869270324707 4.921489610805619
v -53.66579818725586 -16.450862884521484 4.549849405422318
v -51.91170120239258 -14.779972076416016 3.437249317302811
v -52.98320007324219 -15.134062767028809 3.439509525432694
v -52.95920181274414 -15.564022064208984 4.063379182949173
v -51.91170120239258 -14.779972076416016 3.437249317302811
v -52.95920181274414 -15.564022064208984 4.063379182949173
v -51.81439971923828 -15.228462219238281 4.091449632778276
v -53.332801818847656 -19.767662048339844 4.574659242763626
v -53.332801818847656 -18.752702713012695 4.8036793614770055
v -54.54119873046875 -19.767662048339844 4.906989469661819
v -54.54119873046875 -19.767662048339844 4.906989469661819
v -53.332801818847656 -18.752702713012695 4.8036793614770055
v -53.644100189208984 -18.29869270324707 4.921489610805619
v -54.54119873046875 -19.767662048339844 4.906989469661819
v -53.644100189208984 -18.29869270324707 4.921489610805619
v -54.59859848022461 -18.29869270324707 4.946629419460404
v -52.124298095703125 -19.767662048339844 4.906989469661819
v -53.332801818847656 -18.752702713012695 4.8036793614770055
v -53.332801818847656 -19.767662048339844 4.574659242763626
v -52.95920181274414 -15.564022064208984 4.063379182949173
v -52.98320007324219 -15.134062767028809 3.439509525432694
v -53.332801818847656 -15.581642150878906 3.4807194615746617
v -52.95920181274414 -15.564022064208984 4.063379182949173
v -53.332801818847656 -15.581642150878906 3.4807194615746617
v -53.332801818847656 -15.899582862854004 3.8131493474389195
v -53.706298828125 -15.564022064208984 4.063379182949173
v -53.68230056762695 -15.134062767028809 3.439509525432694
v -54.75379943847656 -14.779972076416016 3.291159525051224
v -53.706298828125 -15.564022064208984 4.063379182949173
v -54.75379943847656 -14.779972076416016 3.291159525051224
v -54.85110092163086 -15.228462219238281 3.94535936368953
v -53.021400451660156 -18.29869270324707 4.921489610805619
v -53.332801818847656 -18.752702713012695 4.8036793614770055
v -52.124298095703125 -19.767662048339844 4.906989469661819
v -53.021400451660156 -18.29869270324707 4.921489610805619
v -52.124298095703125 -19.767662048339844 4.906989469661819
v -52.06700134277344 -18.29869270324707 5.112189188137162
v -53.332801818847656 -18.752702713012695 4.8036793614770055
v -53.021400451660156 -18.29869270324707 4.921489610805619
v -53.332801818847656 -18.29869270324707 4.438549413814652
vt 0.5 0.8731399774551392
vt 0.5 0.9241200089454651
vt 0.4683389961719513 0.9542739987373352
vt 0.2301429957151413 0.8731399774551392
vt 0.3077540099620819 0.9542739987373352
vt 0.182901993393898 0.8974800109863281
vt 0.7698569893836975 0.8731399774551392
vt 0.8170980215072632 0.8974800109863281
vt 0.6922460198402405 0.9448000192642212
vt 0.5 0.8731399774551392
vt 0.5316619873046875 0.9448000192642212
vt 0.5 0.9241200089454651
vt 0.5 0.4321039915084839
vt 0.5 0.6909149885177612
vt 0.4683380126953125 0.6922460198402405
vt 0.4321039915084839 0.9339749813079834
vt 0.6922460198402405 0.9448000192642212
vt 0.4321039915084839 0.9809510111808777
vt 0.4321039915084839 0.9339749813079834
vt 0.4321039915084839 0.9809510111808777
vt 0.3681870102882385 0.9694910049438477
vt 0.5678960084915161 0.9339749813079834
vt 0.5678960084915161 0.9809510111808777
vt 0.3077540099620819 0.9542739987373352
vt 0.5 0.4321039915084839
vt 0.5316609740257263 0.6922460198402405
vt 0.5 0.6909149885177612
vt 0.5 0.8408039808273315
vt 0.5332340002059937 0.8367949724197388
vt 0.5355110168457031 0.8974800109863281
vt 0.8146179914474487 0.8408039808273315
vt 0.8170980215072632 0.8974800109863281
vt 0.7698569893836975 0.8731399774551392
vt 0.355648010969162 0.8643389940261841
vt 0.3712950050830841 0.693576991558075
vt 0.4683380126953125 0.6922460198402405
vt 0.355648010969162 0.8643389940261841
vt 0.4683380126953125 0.6922460198402405
vt 0.46448901295661926 0.8170980215072632
vt 0.6443510055541992 0.8643389940261841
vt 0.5355100035667419 0.8170980215072632
vt 0.5316609740257263 0.6922460198402405
vt 0.6443510055541992 0.8643389940261841
vt 0.5316609740257263 0.6922460198402405
vt 0.6287040114402771 0.693576991558075
vt 0.6203389763832092 0.4321039915084839
vt 0.6287040114402771 0.693576991558075
vt 0.5316609740257263 0.6922460198402405
vt 0.6203389763832092 0.4321039915084839
vt 0.5316609740257263 0.6922460198402405
vt 0.5296030044555664 0.4321039915084839
vt 0.3712950050830841 0.693576991558075
vt 0.3796600103378296 0.4321039915084839
vt 0.4703960120677948 0.4321039915084839
vt 0.3712950050830841 0.693576991558075
vt 0.4703960120677948 0.4321039915084839
vt 0.4683380126953125 0.6922460198402405
vt 0.36490398645401 0.8365749716758728
vt 0.46676701307296753 0.8367949724197388
vt 0.46448999643325806 0.8974800109863281
vt 0.36490398645401 0.8365749716758728
vt 0.46448999643325806 0.8974800109863281
vt 0.3556489944458008 0.9002100229263306
vt 0.5 0.2252979874610901
vt 0.5 0.3681870102882385
vt 0.385109007358551 0.2252979874610901
vt 0.385109007358551 0.2252979874610901
vt 0.5 0.3681870102882385
vt 0.4703960120677948 0.4321039915084839
vt 0.385109007358551 0.2252979874610901
vt 0.4703960120677948 0.4321039915084839
vt 0.3796600103378296 0.4321039915084839
vt 0.614890992641449 0.2252979874610901
vt 0.5 0.3681870102882385
vt 0.5 0.2252979874610901
vt 0.46448999643325806 0.8974800109863281
vt 0.46676701307296753 0.8367949724197388
vt 0.5 0.8408039808273315
vt 0.182901993393898 0.8974800109863281
vt 0.18538199365139008 0.8408039808273315
vt 0.2301429957151413 0.8731399774551392
vt 0.5355110168457031 0.8974800109863281
vt 0.5332340002059937 0.8367949724197388
vt 0.63509601354599 0.8223649859428406
vt 0.5355110168457031 0.8974800109863281
vt 0.63509601354599 0.8223649859428406
vt 0.6443520188331604 0.8860009908676147
vt 0.5296030044555664 0.4321039915084839
vt 0.5 0.3681870102882385
vt 0.614890992641449 0.2252979874610901
vt 0.5296030044555664 0.4321039915084839
vt 0.614890992641449 0.2252979874610901
vt 0.6203389763832092 0.4321039915084839
vt 0.6318129897117615 0.9694910049438477
vt 0.5678960084915161 0.9809510111808777
vt 0.5678960084915161 0.9339749813079834
vn -0.054171040769031495 0.6314738568005849 0.7735025963236287
vn -0.14008641032948518 0.2497627995714067 0.9581202124948897
vn -0.2903172584782064 0.29851474463311833 0.9091781105296819
vn -0.054171040769031495 0.6314738568005849 0.7735025963236287
vn -0.2903172584782064 0.29851474463311833 0.9091781105296819
vn -0.3826032553877415 0.6584044651762574 0.6481653409452476
vn -0.054171040769031495 0.6314738568005849 0.7735025963236287
vn 0.31852349878776154 0.6577948977409028 0.682531063927524
vn 0.2452819312390908 0.3086449757892106 0.9190076458483354
vn -0.054171040769031495 0.6314738568005849 0.7735025963236287
vn 0.2452819312390908 0.3086449757892106 0.9190076458483354
vn -0.14008641032948518 0.2497627995714067 0.9581202124948897
vn -0.06597842529125292 0.19048288534150604 0.9794708355985191
vn -0.14008641032948518 0.2497627995714067 0.9581202124948897
vn 0.2452819312390908 0.3086449757892106 0.9190076458483354
vn -0.06597842529125292 0.19048288534150604 0.9794708355985191
vn 0.2452819312390908 0.3086449757892106 0.9190076458483354
vn 0.1731123306809572 0.1390803170384834 0.9750327104147234
vn -0.06597842529125292 0.19048288534150604 0.9794708355985191
vn 0.1731123306809572 0.1390803170384834 0.9750327104147234
vn 3.3125423955116503e-9 -0.12150014621651041 0.9925914136588966
vn -0.06597842529125292 0.19048288534150604 0.9794708355985191
vn -0.3731473929165338 0.03522187884952987 0.9271032533703585
vn -0.2903172584782064 0.29851474463311833 0.9091781105296819
vn -0.06597842529125292 0.19048288534150604 0.9794708355985191
vn -0.2903172584782064 0.29851474463311833 0.9091781105296819
vn -0.14008641032948518 0.2497627995714067 0.9581202124948897
vn -1.6824742980230735e-8 0.7751005892401601 0.631837856225437
vn 0.3581320815703248 0.7622863940421595 0.5391297298501615
vn 0.31852349878776154 0.6577948977409028 0.682531063927524
vn -1.6824742980230735e-8 0.7751005892401601 0.631837856225437
vn 0.31852349878776154 0.6577948977409028 0.682531063927524
vn -0.054171040769031495 0.6314738568005849 0.7735025963236287
vn 0.03244959008098475 0.5447985819731144 0.8379388576642449
vn -0.04978912828083556 0.26586728002860505 0.9627230298041206
vn 0.2452819312390908 0.3086449757892106 0.9190076458483354
vn 0.03244959008098475 0.5447985819731144 0.8379388576642449
vn 0.2452819312390908 0.3086449757892106 0.9190076458483354
vn 0.31852349878776154 0.6577948977409028 0.682531063927524
vn -0.10938295722785853 0.5599523783128425 0.8212726116764638
vn -0.3826032553877415 0.6584044651762574 0.6481653409452476
vn -0.2903172584782064 0.29851474463311833 0.9091781105296819
vn -0.10938295722785853 0.5599523783128425 0.8212726116764638
vn -0.2903172584782064 0.29851474463311833 0.9091781105296819
vn 0.0635385676959546 0.31013611673752284 0.9485665182316505
vn -0.0985384413842521 0.12143900736376187 0.9876956733022911
vn 0.0635385676959546 0.31013611673752284 0.9485665182316505
vn -0.2903172584782064 0.29851474463311833 0.9091781105296819
vn -0.0985384413842521 0.12143900736376187 0.9876956733022911
vn -0.2903172584782064 0.29851474463311833 0.9091781105296819
vn -0.3731473929165338 0.03522187884952987 0.9271032533703585
vn -0.04978912828083556 0.26586728002860505 0.9627230298041206
vn 0.026079309462339575 0.13742161948988188 0.9901692623560608
vn 0.1731123306809572 0.1390803170384834 0.9750327104147234
vn -0.04978912828083556 0.26586728002860505 0.9627230298041206
vn 0.1731123306809572 0.1390803170384834 0.9750327104147234
vn 0.2452819312390908 0.3086449757892106 0.9190076458483354
vn -0.25126928585467934 0.7863730010270065 0.5643414296698933
vn -0.4044648245773124 0.7456953224811694 0.5294777537435815
vn -0.3826032553877415 0.6584044651762574 0.6481653409452476
vn -0.25126928585467934 0.7863730010270065 0.5643414296698933
vn -0.3826032553877415 0.6584044651762574 0.6481653409452476
vn -0.10938295722785853 0.5599523783128425 0.8212726116764638
vn 0 -0.22011068795100527 0.9754749023166795
vn 3.3125423955116503e-9 -0.12150014621651041 0.9925914136588966
vn 0.1518823817774397 -0.11891480233470417 0.9812191457015657
vn 0.1518823817774397 -0.11891480233470417 0.9812191457015657
vn 3.3125423955116503e-9 -0.12150014621651041 0.9925914136588966
vn 0.1731123306809572 0.1390803170384834 0.9750327104147234
vn 0.1518823817774397 -0.11891480233470417 0.9812191457015657
vn 0.1731123306809572 0.1390803170384834 0.9750327104147234
vn 0.026079309462339575 0.13742161948988188 0.9901692623560608
vn -0.21621745658179556 -0.15773850557831826 0.9635188505302936
vn 3.3125423955116503e-9 -0.12150014621651041 0.9925914136588966
vn 0 -0.22011068795100527 0.9754749023166795
vn -0.3826032553877415 0.6584044651762574 0.6481653409452476
vn -0.4044648245773124 0.7456953224811694 0.5294777537435815
vn -1.6824742980230735e-8 0.7751005892401601 0.631837856225437
vn -0.3826032553877415 0.6584044651762574 0.6481653409452476
vn -1.6824742980230735e-8 0.7751005892401601 0.631837856225437
vn -0.054171040769031495 0.6314738568005849 0.7735025963236287
vn 0.31852349878776154 0.6577948977409028 0.682531063927524
vn 0.3581320815703248 0.7622863940421595 0.5391297298501615
vn 0.18131645913205072 0.8023321362743581 0.5686716844975142
vn 0.31852349878776154 0.6577948977409028 0.682531063927524
vn 0.18131645913205072 0.8023321362743581 0.5686716844975142
vn 0.03244959008098475 0.5447985819731144 0.8379388576642449
vn -0.3731473929165338 0.03522187884952987 0.9271032533703585
vn 3.3125423955116503e-9 -0.12150014621651041 0.9925914136588966
vn -0.21621745658179556 -0.15773850557831826 0.9635188505302936
vn -0.3731473929165338 0.03522187884952987 0.9271032533703585
vn -0.21621745658179556 -0.15773850557831826 0.9635188505302936
vn -0.0985384413842521 0.12143900736376187 0.9876956733022911
vn 3.3125423955116503e-9 -0.12150014621651041 0.9925914136588966
vn -0.3731473929165338 0.03522187884952987 0.9271032533703585
vn -0.06597842529125292 0.19048288534150604 0.9794708355985191
f 1/1/1 2/2/2 3/3/3
f 4/4/4 5/5/5 6/6/6
f 7/7/7 8/8/8 9/9/9
f 10/10/10 11/11/11 12/12/12
f 13/13/13 14/14/14 15/15/15
f 16/16/16 17/17/17 18/18/18
f 19/19/19 20/20/20 21/21/21
f 22/22/22 23/23/23 24/24/24
f 25/25/25 26/26/26 27/27/27
f 28/28/28 29/29/29 30/30/30
f 31/31/31 32/32/32 33/33/33
f 34/34/34 35/35/35 36/36/36
f 37/37/37 38/38/38 39/39/39
f 40/40/40 41/41/41 42/42/42
f 43/43/43 44/44/44 45/45/45
f 46/46/46 47/47/47 48/48/48
f 49/49/49 50/50/50 51/51/51
f 52/52/52 53/53/53 54/54/54
f 55/55/55 56/56/56 57/57/57
f 58/58/58 59/59/59 60/60/60
f 61/61/61 62/62/62 63/63/63
f 64/64/64 65/65/65 66/66/66
f 67/67/67 68/68/68 69/69/69
f 70/70/70 71/71/71 72/72/72
f 73/73/73 74/74/74 75/75/75
f 76/76/76 77/77/77 78/78/78
f 79/79/79 80/80/80 81/81/81
f 82/82/82 83/83/83 84/84/84
f 85/85/85 86/86/86 87/87/87
f 88/88/88 89/89/89 90/90/90
f 91/91/91 92/92/92 93/93/93
f 94/94/94 95/95/95 96/96/96
