mtllib ArcadaCompleta.mtl
o D48C_FCL
usemtl Enamel21
v -64.04170227050781 -21.333932876586914 -4.519730672702683
v -65.052001953125 -21.29736328125 -4.402670488223923
v -65.19270324707031 -19.74038314819336 -4.678740606174363
v -64.04170227050781 -21.333932876586914 -4.519730672702683
v -65.19270324707031 -19.74038314819336 -4.678740606174363
v -64.04139709472656 -19.74038314819336 -4.668160543308152
v -64.04139709472656 -19.74038314819336 -4.668160543308152
v -62.88999938964844 -19.74038314819336 -4.678740606174363
v -63.03150177001953 -21.29736328125 -4.402670488223923
v -64.04139709472656 -19.74038314819336 -4.668160543308152
v -63.03150177001953 -21.29736328125 -4.402670488223923
v -64.04170227050781 -21.333932876586914 -4.519730672702683
vt 0.4947820007801056 0.0004995465278625488
vt 0.596651017665863 0.005657315254211426
vt 0.6108440160751343 0.2252979874610901
vt 0.4947820007801056 0.0004995465278625488
vt 0.6108440160751343 0.2252979874610901
vt 0.4947449862957001 0.2252979874610901
vt 0.4947449862957001 0.2252979874610901
vt 0.37864500284194946 0.2252979874610901
vt 0.3929139971733093 0.005657315254211426
vt 0.4947449862957001 0.2252979874610901
vt 0.3929139971733093 0.005657315254211426
vt 0.4947820007801056 0.0004995465278625488
vn 0.0032619020184736815 -0.12202839110963808 -0.9925212500286404
vn -0.11969836613661157 -0.18381003747347288 -0.9756465401303005
vn -0.05103393798227195 -0.1355918984833459 -0.9894495309209579
vn 0.0032619020184736815 -0.12202839110963808 -0.9925212500286404
vn -0.05103393798227195 -0.1355918984833459 -0.9894495309209579
vn 0.03643596624146562 -0.12070566678442603 -0.9920194364881052
vn 0.03643596624146562 -0.12070566678442603 -0.9920194364881052
vn -0.009048685066497898 -0.17378353371607602 -0.9847423037057567
vn 0.051034333041369354 -0.1356143401066178 -0.9894464349364595
vn 0.03643596624146562 -0.12070566678442603 -0.9920194364881052
vn 0.051034333041369354 -0.1356143401066178 -0.9894464349364595
vn 0.0032619020184736815 -0.12202839110963808 -0.9925212500286404
f 1/1/1 2/2/2 3/3/3
f 4/4/4 5/5/5 6/6/6
f 7/7/7 8/8/8 9/9/9
f 10/10/10 11/11/11 12/12/12
