mtllib ArcadaCompleta.mtl
o D51C_V
usemtl Esmalte
v -5.998260021209717 52.88276290893555 1.3957407779325994
v -6.302040100097656 52.17386245727539 1.8577407903303653
v -5.490670204162598 52.449161529541016 2.36242082782884
v -5.998260021209717 52.88276290893555 1.3957407779325994
v -5.490670204162598 52.449161529541016 2.36242082782884
v -5.366779804229736 53.33856201171875 1.8269807405104193
v -4.453790187835693 53.35756301879883 1.9891507930388006
v -4.453380107879639 52.449161529541016 2.5078907317747627
v -3.4160799980163574 52.449161529541016 2.36242082782884
v -4.453790187835693 53.35756301879883 1.9891507930388006
v -3.4160799980163574 52.449161529541016 2.36242082782884
v -3.54079008102417 53.33856201171875 1.8269807405104193
v -3.54079008102417 53.33856201171875 1.8269807405104193
v -3.4160799980163574 52.449161529541016 2.36242082782884
v -2.4518299102783203 51.97346115112305 1.7038207358946353
v -3.54079008102417 53.33856201171875 1.8269807405104193
v -2.4518299102783203 51.97346115112305 1.7038207358946353
v -2.908489942550659 52.88276290893555 1.3957407779325994
v -5.366779804229736 53.33856201171875 1.8269807405104193
v -5.490670204162598 52.449161529541016 2.36242082782884
v -4.453380107879639 52.449161529541016 2.5078907317747627
v -5.366779804229736 53.33856201171875 1.8269807405104193
v -4.453380107879639 52.449161529541016 2.5078907317747627
v -4.453790187835693 53.35756301879883 1.9891507930388006
vt 0.2585969865322113 0.9203550219535828
vt 0.2125059962272644 0.8021939992904663
vt 0.3356119990348816 0.8480769991874695
vt 0.2585969865322113 0.9203550219535828
vt 0.3356119990348816 0.8480769991874695
vt 0.35440900921821594 0.9963350296020508
vt 0.492931991815567 0.9994999766349792
vt 0.4929949939250946 0.8480769991874695
vt 0.6503779888153076 0.8480769991874695
vt 0.492931991815567 0.9994999766349792
vt 0.6503779888153076 0.8480769991874695
vt 0.6314560174942017 0.9963350296020508
vt 0.6314560174942017 0.9963350296020508
vt 0.6503779888153076 0.8480769991874695
vt 0.7966790199279785 0.7687940001487732
vt 0.13669799268245697 0.9963350296020508
vt 0.16133299469947815 0.7687940001487732
vt 0.22295799851417542 0.9203550219535828
vt 0.35440900921821594 0.9963350296020508
vt 0.3356119990348816 0.8480769991874695
vt 0.4929949939250946 0.8480769991874695
vt 0.35440900921821594 0.9963350296020508
vt 0.4929949939250946 0.8480769991874695
vt 0.492931991815567 0.9994999766349792
vn -0.6342357341863325 0.5243012263429083 0.568201775372487
vn -0.5578403693002553 0.6075427718802362 0.5654254174646148
vn -0.45484110758142193 0.5468412880879681 0.702911212384891
vn -0.6342357341863325 0.5243012263429083 0.568201775372487
vn -0.45484110758142193 0.5468412880879681 0.702911212384891
vn -0.323211074935214 0.5086066143500283 0.7980312731206873
vn 0.04314469166402412 0.5071305028142682 0.8607887015386319
vn -0.04933578154955895 0.5064691525421366 0.8608455019236286
vn 0.34810496122405465 0.5082983483499097 0.7876901199303906
vn 0.04314469166402412 0.5071305028142682 0.8607887015386319
vn 0.34810496122405465 0.5082983483499097 0.7876901199303906
vn 0.5245093966507626 0.5148311526741017 0.6781141327691886
vn 0.5245093966507626 0.5148311526741017 0.6781141327691886
vn 0.34810496122405465 0.5082983483499097 0.7876901199303906
vn 0.6681354146483678 0.4818303525792535 0.5669520076920144
vn 0.5245093966507626 0.5148311526741017 0.6781141327691886
vn 0.6681354146483678 0.4818303525792535 0.5669520076920144
vn 0.7043867086997307 0.518127514991271 0.48516310949631236
vn -0.323211074935214 0.5086066143500283 0.7980312731206873
vn -0.45484110758142193 0.5468412880879681 0.702911212384891
vn -0.04933578154955895 0.5064691525421366 0.8608455019236286
vn -0.323211074935214 0.5086066143500283 0.7980312731206873
vn -0.04933578154955895 0.5064691525421366 0.8608455019236286
vn 0.04314469166402412 0.5071305028142682 0.8607887015386319
f 1/1/1 2/2/2 3/3/3
f 4/4/4 5/5/5 6/6/6
f 7/7/7 8/8/8 9/9/9
f 10/10/10 11/11/11 12/12/12
f 13/13/13 14/14/14 15/15/15
f 16/16/16 17/17/17 18/18/18
f 19/19/19 20/20/20 21/21/21
f 22/22/22 23/23/23 24/24/24
