mtllib ArcadaCompleta.mtl
o D51C_FC
usemtl Esmalte
v -6.675539970397949 51.31706237792969 1.6990307874311952
v -5.684120178222656 51.31706237792969 2.1549806899656803
v -5.490670204162598 52.449161529541016 2.36242082782884
v -6.675539970397949 51.31706237792969 1.6990307874311952
v -5.490670204162598 52.449161529541016 2.36242082782884
v -6.302040100097656 52.17386245727539 1.8577407903303653
v -2.196280002593994 51.31706237792969 1.6990307874311952
v -2.4518299102783203 51.97346115112305 1.7038207358946353
v -3.4160799980163574 52.449161529541016 2.36242082782884
v -2.196280002593994 51.31706237792969 1.6990307874311952
v -3.4160799980163574 52.449161529541016 2.36242082782884
v -3.187690019607544 51.31706237792969 2.1549806899656803
v -4.435910224914551 51.31706237792969 2.366400749169782
v -3.187690019607544 51.31706237792969 2.1549806899656803
v -3.4160799980163574 52.449161529541016 2.36242082782884
v -4.435910224914551 51.31706237792969 2.366400749169782
v -3.4160799980163574 52.449161529541016 2.36242082782884
v -4.453380107879639 52.449161529541016 2.5078907317747627
v -4.453380107879639 52.449161529541016 2.5078907317747627
v -5.490670204162598 52.449161529541016 2.36242082782884
v -5.684120178222656 51.31706237792969 2.1549806899656803
v -4.453380107879639 52.449161529541016 2.5078907317747627
v -5.684120178222656 51.31706237792969 2.1549806899656803
v -4.435910224914551 51.31706237792969 2.366400749169782
vt 0.1558379977941513 0.6593829989433289
vt 0.30625998973846436 0.6593829989433289
vt 0.3356119990348816 0.8480769991874695
vt 0.1558379977941513 0.6593829989433289
vt 0.3356119990348816 0.8480769991874695
vt 0.2125059962272644 0.8021939992904663
vt 0.8354529738426208 0.6593829989433289
vt 0.7966790199279785 0.7687940001487732
vt 0.6503779888153076 0.8480769991874695
vt 0.8354529738426208 0.6593829989433289
vt 0.6503779888153076 0.8480769991874695
vt 0.685030996799469 0.6593829989433289
vt 0.4956449866294861 0.6593829989433289
vt 0.685030996799469 0.6593829989433289
vt 0.6503779888153076 0.8480769991874695
vt 0.4956449866294861 0.6593829989433289
vt 0.6503779888153076 0.8480769991874695
vt 0.4929949939250946 0.8480769991874695
vt 0.4929949939250946 0.8480769991874695
vt 0.3356119990348816 0.8480769991874695
vt 0.30625998973846436 0.6593829989433289
vt 0.4929949939250946 0.8480769991874695
vt 0.30625998973846436 0.6593829989433289
vt 0.4956449866294861 0.6593829989433289
vn -0.46650922880437073 -0.029762730373716115 0.8840154519696208
vn -0.23884039347432467 -0.125827479377412 0.9628721160562066
vn -0.34609878481549977 -0.07920196811203577 0.9348490142244438
vn -0.46650922880437073 -0.029762730373716115 0.8840154519696208
vn -0.34609878481549977 -0.07920196811203577 0.9348490142244438
vn -0.5467001447705787 0.0839990919993603 0.8331044977979121
vn 0.500905899371494 0.03290785641332241 0.8648759176674505
vn 0.6251245222114084 0.23794959794174592 0.7433702446085126
vn 0.30400373657008156 -0.0659026261082746 0.9503886426212497
vn 0.500905899371494 0.03290785641332241 0.8648759176674505
vn 0.30400373657008156 -0.0659026261082746 0.9503886426212497
vn 0.28360590009388953 -0.11717996123923544 0.9517544589419616
vn 0.04076869875016519 -0.1324841558127873 0.990346334198694
vn 0.28360590009388953 -0.11717996123923544 0.9517544589419616
vn 0.30400373657008156 -0.0659026261082746 0.9503886426212497
vn 0.04076869875016519 -0.1324841558127873 0.990346334198694
vn 0.30400373657008156 -0.0659026261082746 0.9503886426212497
vn -0.06292183700372984 -0.1344838590102967 0.9889160399618234
vn -0.06292183700372984 -0.1344838590102967 0.9889160399618234
vn -0.34609878481549977 -0.07920196811203577 0.9348490142244438
vn -0.23884039347432467 -0.125827479377412 0.9628721160562066
vn -0.06292183700372984 -0.1344838590102967 0.9889160399618234
vn -0.23884039347432467 -0.125827479377412 0.9628721160562066
vn 0.04076869875016519 -0.1324841558127873 0.990346334198694
f 1/1/1 2/2/2 3/3/3
f 4/4/4 5/5/5 6/6/6
f 7/7/7 8/8/8 9/9/9
f 10/10/10 11/11/11 12/12/12
f 13/13/13 14/14/14 15/15/15
f 16/16/16 17/17/17 18/18/18
f 19/19/19 20/20/20 21/21/21
f 22/22/22 23/23/23 24/24/24
