mtllib ArcadaCompleta.mtl
o D52C_V
usemtl Esmalte
v -12.208000183105469 52.844661712646484 1.8594206876387152
v -12.208000183105469 51.66846466064453 2.0221407718290836
v -11.345999717712402 51.66846466064453 1.9054107970823795
v -12.208000183105469 52.844661712646484 1.8594206876387152
v -11.345999717712402 51.66846466064453 1.9054107970823795
v -11.483699798583984 52.82686233520508 1.708510786973432
v -12.93220043182373 52.82686233520508 1.708510786973432
v -13.616700172424316 51.7359619140625 1.5004407472242862
v -13.069899559020996 51.66846466064453 1.9054107970823795
v -12.93220043182373 52.82686233520508 1.708510786973432
v -13.069899559020996 51.66846466064453 1.9054107970823795
v -12.208000183105469 51.66846466064453 2.0221407718290836
v -12.93220043182373 52.82686233520508 1.708510786973432
v -12.208000183105469 51.66846466064453 2.0221407718290836
v -12.208000183105469 52.844661712646484 1.8594206876387152
v -12.208000183105469 51.66846466064453 2.0221407718290836
v -12.208000183105469 51.0645637512207 2.0652506656279117
v -11.28969955444336 51.0645637512207 1.9220607585539369
v -12.208000183105469 51.66846466064453 2.0221407718290836
v -11.28969955444336 51.0645637512207 1.9220607585539369
v -11.345999717712402 51.66846466064453 1.9054107970823795
v -11.345999717712402 51.66846466064453 1.9054107970823795
v -10.799200057983398 51.7359619140625 1.5004407472242862
v -11.483699798583984 52.82686233520508 1.708510786973432
v -11.345999717712402 51.66846466064453 1.9054107970823795
v -11.28969955444336 51.0645637512207 1.9220607585539369
v -10.799200057983398 51.7359619140625 1.5004407472242862
v -13.069899559020996 51.66846466064453 1.9054107970823795
v -13.616700172424316 51.7359619140625 1.5004407472242862
v -13.126299858093262 51.0645637512207 1.9220607585539369
v -13.126299858093262 51.0645637512207 1.9220607585539369
v -12.208000183105469 51.0645637512207 2.0652506656279117
v -12.208000183105469 51.66846466064453 2.0221407718290836
v -13.126299858093262 51.0645637512207 1.9220607585539369
v -12.208000183105469 51.66846466064453 2.0221407718290836
v -13.069899559020996 51.66846466064453 1.9054107970823795
vt 0.4950689971446991 0.9995009899139404
vt 0.4950689971446991 0.7894750237464905
vt 0.6611570119857788 0.7894750237464905
vt 0.4950689971446991 0.9995009899139404
vt 0.6611570119857788 0.7894750237464905
vt 0.6346250176429749 0.9963250160217285
vt 0.3555130064487457 0.9963250160217285
vt 0.22361800074577332 0.8015369772911072
vt 0.32898199558258057 0.7894750237464905
vt 0.3555130064487457 0.9963250160217285
vt 0.32898199558258057 0.7894750237464905
vt 0.4950689971446991 0.7894750237464905
vt 0.3555130064487457 0.9963250160217285
vt 0.4950689971446991 0.7894750237464905
vt 0.4950689971446991 0.9995009899139404
vt 0.4950689971446991 0.7894750237464905
vt 0.4950689971446991 0.681647002696991
vt 0.672016978263855 0.681647002696991
vt 0.4950689971446991 0.7894750237464905
vt 0.672016978263855 0.681647002696991
vt 0.6611570119857788 0.7894750237464905
vt 0.6611570119857788 0.7894750237464905
vt 0.7665200233459473 0.8015369772911072
vt 0.6346250176429749 0.9963250160217285
vt 0.6611570119857788 0.7894750237464905
vt 0.672016978263855 0.681647002696991
vt 0.7665200233459473 0.8015369772911072
vt 0.32898199558258057 0.7894750237464905
vt 0.22361800074577332 0.8015369772911072
vt 0.3181209862232208 0.681647002696991
vt 0.3181209862232208 0.681647002696991
vt 0.4950689971446991 0.681647002696991
vt 0.4950689971446991 0.7894750237464905
vt 0.3181209862232208 0.681647002696991
vt 0.4950689971446991 0.7894750237464905
vt 0.32898199558258057 0.7894750237464905
vn 0.04938130850431141 0.15392953563217945 0.9868470927304107
vn -0.035316385143599145 0.1118842357491238 0.9930934853936075
vn 0.30509544795566385 0.14614734775592503 0.9410407644627525
vn 0.04938130850431141 0.15392953563217945 0.9868470927304107
vn 0.30509544795566385 0.14614734775592503 0.9410407644627525
vn 0.38612615796692645 0.19900101240614548 0.9007248121346658
vn -0.290996919642364 0.17617769860905438 0.9403628083199977
vn -0.5745708632370236 0.1605345371166543 0.8025565310380341
vn -0.33705601088614023 0.14975702925226014 0.9294977556266931
vn -0.290996919642364 0.17617769860905438 0.9403628083199977
vn -0.33705601088614023 0.14975702925226014 0.9294977556266931
vn -0.035316385143599145 0.1118842357491238 0.9930934853936075
vn -0.290996919642364 0.17617769860905438 0.9403628083199977
vn -0.035316385143599145 0.1118842357491238 0.9930934853936075
vn 0.04938130850431141 0.15392953563217945 0.9868470927304107
vn -0.035316385143599145 0.1118842357491238 0.9930934853936075
vn -6.700481509998538e-9 0.07120451338602607 0.99746173724783
vn 0.27278559687018383 0.06296089872067157 0.9600124704254956
vn -0.035316385143599145 0.1118842357491238 0.9930934853936075
vn 0.27278559687018383 0.06296089872067157 0.9600124704254956
vn 0.30509544795566385 0.14614734775592503 0.9410407644627525
vn 0.30509544795566385 0.14614734775592503 0.9410407644627525
vn 0.5745770909307926 0.1605031037163468 0.8025583594200035
vn 0.38612615796692645 0.19900101240614548 0.9007248121346658
vn 0.30509544795566385 0.14614734775592503 0.9410407644627525
vn 0.27278559687018383 0.06296089872067157 0.9600124704254956
vn 0.5745770909307926 0.1605031037163468 0.8025583594200035
vn -0.33705601088614023 0.14975702925226014 0.9294977556266931
vn -0.5745708632370236 0.1605345371166543 0.8025565310380341
vn -0.2727946506988441 0.06299742006239514 0.960007501853802
vn -0.2727946506988441 0.06299742006239514 0.960007501853802
vn -6.700481509998538e-9 0.07120451338602607 0.99746173724783
vn -0.035316385143599145 0.1118842357491238 0.9930934853936075
vn -0.2727946506988441 0.06299742006239514 0.960007501853802
vn -0.035316385143599145 0.1118842357491238 0.9930934853936075
vn -0.33705601088614023 0.14975702925226014 0.9294977556266931
f 1/1/1 2/2/2 3/3/3
f 4/4/4 5/5/5 6/6/6
f 7/7/7 8/8/8 9/9/9
f 10/10/10 11/11/11 12/12/12
f 13/13/13 14/14/14 15/15/15
f 16/16/16 17/17/17 18/18/18
f 19/19/19 20/20/20 21/21/21
f 22/22/22 23/23/23 24/24/24
f 25/25/25 26/26/26 27/27/27
f 28/28/28 29/29/29 30/30/30
f 31/31/31 32/32/32 33/33/33
f 34/34/34 35/35/35 36/36/36
