mtllib ArcadaCompleta.mtl
o D52C_I
usemtl Esmalte
v -12.208000183105469 47.35966491699219 0.3157577521433373
v -11.356300354003906 47.38506317138672 0.31533375450272755
v -11.327099800109863 48.18476104736328 0.7903327650656244
v -12.208000183105469 47.35966491699219 0.3157577521433373
v -11.327099800109863 48.18476104736328 0.7903327650656244
v -12.208000183105469 48.17206573486328 0.8195107287992975
v -12.208000183105469 47.35966491699219 0.3157577521433373
v -12.208000183105469 47.24986267089844 0.01832834512789444
v -11.356300354003906 47.27516174316406 0.018328345127894448
v -12.208000183105469 47.35966491699219 0.3157577521433373
v -11.356300354003906 47.27516174316406 0.018328345127894448
v -11.356300354003906 47.38506317138672 0.31533375450272755
v -12.208000183105469 47.50166320800781 -0.3634772591958503
v -13.059599876403809 47.52696228027344 -0.36305326155524054
v -13.088800430297852 48.14146423339844 -0.501693277872608
v -12.208000183105469 47.50166320800781 -0.3634772591958503
v -13.088800430297852 48.14146423339844 -0.501693277872608
v -12.208000183105469 48.128761291503906 -0.5055582814584234
v -12.208000183105469 47.50166320800781 -0.3634772591958503
v -12.208000183105469 47.24986267089844 0.01832834512789444
v -13.059599876403809 47.27516174316406 0.018328345127894448
v -12.208000183105469 47.50166320800781 -0.3634772591958503
v -13.059599876403809 47.27516174316406 0.018328345127894448
v -13.059599876403809 47.52696228027344 -0.36305326155524054
v -9.590129852294922 47.73876190185547 0.016078144990398554
v -10.524100303649902 47.27886199951172 0.018328345127894448
v -10.560400009155273 47.53076171875 -0.3848852508435706
v -9.590129852294922 47.73876190185547 0.016078144990398554
v -10.560400009155273 47.53076171875 -0.3848852508435706
v -9.759880065917969 47.993064880371094 -0.32022926143507746
v -9.759699821472168 47.72126388549805 0.3643977350821039
v -10.560400009155273 47.388763427734375 0.3371657437910576
v -10.524100303649902 47.27886199951172 0.018328345127894448
v -9.759699821472168 47.72126388549805 0.3643977350821039
v -10.524100303649902 47.27886199951172 0.018328345127894448
v -9.590129852294922 47.73876190185547 0.016078144990398554
v -9.759699821472168 47.72126388549805 0.3643977350821039
v -10.554100036621094 48.186561584472656 0.770315737210705
v -10.560400009155273 47.388763427734375 0.3371657437910576
v -13.059599876403809 47.38506317138672 0.31533375450272755
v -13.059599876403809 47.27516174316406 0.018328345127894448
v -12.208000183105469 47.24986267089844 0.01832834512789444
v -13.059599876403809 47.38506317138672 0.31533375450272755
v -12.208000183105469 47.24986267089844 0.01832834512789444
v -12.208000183105469 47.35966491699219 0.3157577521433373
v -13.059599876403809 47.38506317138672 0.31533375450272755
v -13.855500221252441 47.629364013671875 0.3371657437910577
v -13.891900062561035 47.51946258544922 0.0183283451278945
v -13.059599876403809 47.38506317138672 0.31533375450272755
v -13.891900062561035 47.51946258544922 0.0183283451278945
v -13.059599876403809 47.27516174316406 0.018328345127894448
v -13.059599876403809 47.38506317138672 0.31533375450272755
v -13.088800430297852 48.18476104736328 0.7903327650656244
v -13.861800193786621 48.192665100097656 0.7203307456602595
v -13.059599876403809 47.38506317138672 0.31533375450272755
v -13.861800193786621 48.192665100097656 0.7203307456602595
v -13.855500221252441 47.629364013671875 0.3371657437910577
v -11.356300354003906 47.52696228027344 -0.36305326155524054
v -11.356300354003906 47.27516174316406 0.018328345127894448
v -12.208000183105469 47.24986267089844 0.01832834512789444
v -11.356300354003906 47.52696228027344 -0.36305326155524054
v -12.208000183105469 47.24986267089844 0.01832834512789444
v -12.208000183105469 47.50166320800781 -0.3634772591958503
v -11.356300354003906 47.52696228027344 -0.36305326155524054
v -10.560400009155273 47.53076171875 -0.3848852508435706
v -10.524100303649902 47.27886199951172 0.018328345127894448
v -11.356300354003906 47.52696228027344 -0.36305326155524054
v -10.524100303649902 47.27886199951172 0.018328345127894448
v -11.356300354003906 47.27516174316406 0.018328345127894448
v -11.356300354003906 47.52696228027344 -0.36305326155524054
v -11.327099800109863 48.14146423339844 -0.501693277872608
v -10.554100036621094 48.14336395263672 -0.5323012762437322
v -11.356300354003906 47.52696228027344 -0.36305326155524054
v -10.554100036621094 48.14336395263672 -0.5323012762437322
v -10.560400009155273 47.53076171875 -0.3848852508435706
v -11.356300354003906 47.27516174316406 0.018328345127894448
v -10.524100303649902 47.27886199951172 0.018328345127894448
v -10.560400009155273 47.388763427734375 0.3371657437910576
v -11.356300354003906 47.27516174316406 0.018328345127894448
v -10.560400009155273 47.388763427734375 0.3371657437910576
v -11.356300354003906 47.38506317138672 0.31533375450272755
v -13.059599876403809 47.27516174316406 0.018328345127894448
v -13.891900062561035 47.51946258544922 0.0183283451278945
v -13.855500221252441 47.7713623046875 -0.38488525084357056
v -13.059599876403809 47.27516174316406 0.018328345127894448
v -13.855500221252441 47.7713623046875 -0.38488525084357056
v -13.059599876403809 47.52696228027344 -0.36305326155524054
v -13.891900062561035 47.51946258544922 0.0183283451278945
v -13.855500221252441 47.629364013671875 0.3371657437910577
v -14.119400024414062 47.84596252441406 0.3511007434954187
v -13.891900062561035 47.51946258544922 0.0183283451278945
v -14.119400024414062 47.84596252441406 0.3511007434954187
v -14.294500350952148 47.77796173095703 0.01832834512789456
v -10.560400009155273 47.53076171875 -0.3848852508435706
v -10.554100036621094 48.14336395263672 -0.5323012762437322
v -9.759880065917969 47.993064880371094 -0.32022926143507746
v -10.560400009155273 47.388763427734375 0.3371657437910576
v -10.554100036621094 48.186561584472656 0.770315737210705
v -11.327099800109863 48.18476104736328 0.7903327650656244
v -10.560400009155273 47.388763427734375 0.3371657437910576
v -11.327099800109863 48.18476104736328 0.7903327650656244
v -11.356300354003906 47.38506317138672 0.31533375450272755
v -13.855500221252441 47.7713623046875 -0.38488525084357056
v -13.861800193786621 48.17796325683594 -0.5323012762437322
v -13.088800430297852 48.14146423339844 -0.501693277872608
v -13.855500221252441 47.7713623046875 -0.38488525084357056
v -13.088800430297852 48.14146423339844 -0.501693277872608
v -13.059599876403809 47.52696228027344 -0.36305326155524054
v -13.861800193786621 48.192665100097656 0.7203307456602595
v -14.119400024414062 47.84596252441406 0.3511007434954187
v -13.855500221252441 47.629364013671875 0.3371657437910577
v -12.208000183105469 48.17206573486328 0.8195107287992975
v -13.088800430297852 48.18476104736328 0.7903327650656244
v -13.059599876403809 47.38506317138672 0.31533375450272755
v -12.208000183105469 48.17206573486328 0.8195107287992975
v -13.059599876403809 47.38506317138672 0.31533375450272755
v -12.208000183105469 47.35966491699219 0.3157577521433373
v -12.208000183105469 48.128761291503906 -0.5055582814584234
v -11.327099800109863 48.14146423339844 -0.501693277872608
v -11.356300354003906 47.52696228027344 -0.36305326155524054
v -12.208000183105469 48.128761291503906 -0.5055582814584234
v -11.356300354003906 47.52696228027344 -0.36305326155524054
v -12.208000183105469 47.50166320800781 -0.3634772591958503
v -14.166999816894531 47.92626190185547 -0.3344652645955542
v -13.861800193786621 48.17796325683594 -0.5323012762437322
v -13.855500221252441 47.7713623046875 -0.38488525084357056
v -14.294500350952148 47.77796173095703 0.01832834512789456
v -14.166999816894531 47.92626190185547 -0.3344652645955542
v -13.855500221252441 47.7713623046875 -0.38488525084357056
v -14.294500350952148 47.77796173095703 0.01832834512789456
v -13.855500221252441 47.7713623046875 -0.38488525084357056
v -13.891900062561035 47.51946258544922 0.0183283451278945
vt 0.4950689971446991 0.02012002468109131
vt 0.6591749787330627 0.024637997150421143
vt 0.664795994758606 0.16742998361587524
vt 0.4950689971446991 0.02012002468109131
vt 0.664795994758606 0.16742998361587524
vt 0.4950689971446991 0.16517102718353271
vt 0.5049309730529785 0.4319629669189453
vt 0.5049309730529785 0.5053160190582275
vt 0.34082499146461487 0.5053160190582275
vt 0.5049309730529785 0.4319629669189453
vt 0.34082499146461487 0.5053160190582275
vt 0.34082499146461487 0.43206799030303955
vt 0.5049309730529785 0.045468688011169434
vt 0.6690359711647034 0.04998672008514404
vt 0.6746569871902466 0.15970301628112793
vt 0.5049309730529785 0.045468688011169434
vt 0.6746569871902466 0.15970301628112793
vt 0.5049309730529785 0.15744400024414062
vt 0.5049309730529785 0.599478006362915
vt 0.5049309730529785 0.5053160190582275
vt 0.6690359711647034 0.5053160190582275
vt 0.5049309730529785 0.599478006362915
vt 0.6690359711647034 0.5053160190582275
vt 0.6690359711647034 0.5993729829788208
vt 0.0004996960051357746 0.5058709979057312
vt 0.1804649978876114 0.5053160190582275
vt 0.18746699392795563 0.6047570109367371
vt 0.0004996960051357746 0.08780771493911743
vt 0.18746699392795563 0.05066037178039551
vt 0.03320860117673874 0.13321197032928467
vt 0.03317420184612274 0.41996699571609497
vt 0.18746699392795563 0.4266830086708069
vt 0.1804649978876114 0.5053160190582275
vt 0.03317420184612274 0.41996699571609497
vt 0.1804649978876114 0.5053160190582275
vt 0.0004996960051357746 0.5058709979057312
vt 0.9668260216712952 0.08468091487884521
vt 0.8137509822845459 0.1677669882774353
vt 0.8125330209732056 0.025311589241027832
vt 0.6690359711647034 0.43206799030303955
vt 0.6690359711647034 0.5053160190582275
vt 0.5049309730529785 0.5053160190582275
vt 0.6690359711647034 0.43206799030303955
vt 0.5049309730529785 0.5053160190582275
vt 0.5049309730529785 0.4319629669189453
vt 0.6690359711647034 0.43206799030303955
vt 0.8223940134048462 0.42668402194976807
vt 0.8293970227241516 0.5053160190582275
vt 0.6690359711647034 0.43206799030303955
vt 0.8293970227241516 0.5053160190582275
vt 0.6690359711647034 0.5053160190582275
vt 0.33096399903297424 0.024637997150421143
vt 0.3253430128097534 0.16742998361587524
vt 0.1763869971036911 0.1688460111618042
vt 0.33096399903297424 0.024637997150421143
vt 0.1763869971036911 0.1688460111618042
vt 0.177606001496315 0.06827247142791748
vt 0.34082499146461487 0.5993729829788208
vt 0.34082499146461487 0.5053160190582275
vt 0.5049309730529785 0.5053160190582275
vt 0.34082499146461487 0.5993729829788208
vt 0.5049309730529785 0.5053160190582275
vt 0.5049309730529785 0.599478006362915
vt 0.34082499146461487 0.5993729829788208
vt 0.18746699392795563 0.6047570109367371
vt 0.1804649978876114 0.5053160190582275
vt 0.34082499146461487 0.5993729829788208
vt 0.1804649978876114 0.5053160190582275
vt 0.34082499146461487 0.5053160190582275
vt 0.34082499146461487 0.04998672008514404
vt 0.33520400524139404 0.15970301628112793
vt 0.18624800443649292 0.160040020942688
vt 0.34082499146461487 0.04998672008514404
vt 0.18624800443649292 0.160040020942688
vt 0.18746699392795563 0.05066037178039551
vt 0.34082499146461487 0.5053160190582275
vt 0.1804649978876114 0.5053160190582275
vt 0.18746699392795563 0.4266830086708069
vt 0.34082499146461487 0.5053160190582275
vt 0.18746699392795563 0.4266830086708069
vt 0.34082499146461487 0.43206799030303955
vt 0.6690359711647034 0.5053160190582275
vt 0.8293970227241516 0.5053160190582275
vt 0.8223940134048462 0.6047570109367371
vt 0.6690359711647034 0.5053160190582275
vt 0.8223940134048462 0.6047570109367371
vt 0.6690359711647034 0.5993729829788208
vt 0.8293970227241516 0.5053160190582275
vt 0.8223940134048462 0.42668402194976807
vt 0.8732420206069946 0.42324697971343994
vt 0.8293970227241516 0.5053160190582275
vt 0.8732420206069946 0.42324697971343994
vt 0.9069830179214478 0.5053160190582275
vt 0.18746699392795563 0.05066037178039551
vt 0.18624800443649292 0.160040020942688
vt 0.03320860117673874 0.13321197032928467
vt 0.8125330209732056 0.025311589241027832
vt 0.8137509822845459 0.1677669882774353
vt 0.664795994758606 0.16742998361587524
vt 0.8125330209732056 0.025311589241027832
vt 0.664795994758606 0.16742998361587524
vt 0.6591749787330627 0.024637997150421143
vt 0.8223940134048462 0.09362119436264038
vt 0.8236129879951477 0.16621899604797363
vt 0.6746569871902466 0.15970301628112793
vt 0.8223940134048462 0.09362119436264038
vt 0.6746569871902466 0.15970301628112793
vt 0.6690359711647034 0.04998672008514404
vt 0.1763869971036911 0.1688460111618042
vt 0.12675799429416656 0.10693800449371338
vt 0.177606001496315 0.06827247142791748
vt 0.4950689971446991 0.16517102718353271
vt 0.3253430128097534 0.16742998361587524
vt 0.33096399903297424 0.024637997150421143
vt 0.4950689971446991 0.16517102718353271
vt 0.33096399903297424 0.024637997150421143
vt 0.4950689971446991 0.02012002468109131
vt 0.5049309730529785 0.15744400024414062
vt 0.33520400524139404 0.15970301628112793
vt 0.34082499146461487 0.04998672008514404
vt 0.5049309730529785 0.15744400024414062
vt 0.34082499146461487 0.04998672008514404
vt 0.5049309730529785 0.045468688011169434
vt 0.8824219703674316 0.12128198146820068
vt 0.8236129879951477 0.16621899604797363
vt 0.8223940134048462 0.09362119436264038
vt 0.9069830179214478 0.5053160190582275
vt 0.8824219703674316 0.5923230051994324
vt 0.8223940134048462 0.6047570109367371
vt 0.9069830179214478 0.5053160190582275
vt 0.8223940134048462 0.6047570109367371
vt 0.8293970227241516 0.5053160190582275
vn 0.011804310481798249 -0.6519945791899001 0.7581317345692862
vn 0.0015226832992839086 -0.6471139165459036 0.7623918024534312
vn 0.01416318572596333 -0.5075533944388463 0.8615038920188909
vn 0.011804310481798249 -0.6519945791899001 0.7581317345692862
vn 0.01416318572596333 -0.5075533944388463 0.8615038920188909
vn -0.0050105325485993845 -0.5219227048756663 0.8529780681230016
vn 0.011804310481798249 -0.6519945791899001 0.7581317345692862
vn 0.0012218296919352535 -0.9788287072518121 -0.20467747553639165
vn 0.01577658131454138 -0.9992623451626415 -0.03501235527758347
vn 0.011804310481798249 -0.6519945791899001 0.7581317345692862
vn 0.01577658131454138 -0.9992623451626415 -0.03501235527758347
vn 0.0015226832992839086 -0.6471139165459036 0.7623918024534312
vn -0.005260341708901977 -0.5111009985375533 -0.8595045654905048
vn -0.07322624501363321 -0.5151020483942562 -0.8539951971652093
vn -0.011097228905045697 -0.24201045536056587 -0.9702101787792173
vn -0.005260341708901977 -0.5111009985375533 -0.8595045654905048
vn -0.011097228905045697 -0.24201045536056587 -0.9702101787792173
vn 0.0022582195668317895 -0.22078529425349666 -0.9753198215384454
vn -0.005260341708901977 -0.5111009985375533 -0.8595045654905048
vn 0.0012218296919352535 -0.9788287072518121 -0.20467747553639165
vn -0.14808954437424504 -0.9273929086902963 -0.34352857196742775
vn -0.005260341708901977 -0.5111009985375533 -0.8595045654905048
vn -0.14808954437424504 -0.9273929086902963 -0.34352857196742775
vn -0.07322624501363321 -0.5151020483942562 -0.8539951971652093
vn 0.43508397877099547 -0.8078617374490912 -0.39756929532162794
vn 0.22809071449640533 -0.9509943561400406 -0.20876867712927946
vn 0.21003421504124078 -0.5592421322947111 -0.8019562743556999
vn 0.43508397877099547 -0.8078617374490912 -0.39756929532162794
vn 0.21003421504124078 -0.5592421322947111 -0.8019562743556999
vn 0.3103156284559253 -0.41792489687877643 -0.8538401438822539
vn 0.300361808296251 -0.7230056432361871 0.6221299092357104
vn 0.07970704130686876 -0.6401436916511979 0.7641091817307794
vn 0.22809071449640533 -0.9509943561400406 -0.20876867712927946
vn 0.300361808296251 -0.7230056432361871 0.6221299092357104
vn 0.22809071449640533 -0.9509943561400406 -0.20876867712927946
vn 0.43508397877099547 -0.8078617374490912 -0.39756929532162794
vn 0.300361808296251 -0.7230056432361871 0.6221299092357104
vn 0.09699838736779533 -0.47548407945015125 0.8743604537246005
vn 0.07970704130686876 -0.6401436916511979 0.7641091817307794
vn -0.09085600726891871 -0.6630487967805604 0.743042043918782
vn -0.14808954437424504 -0.9273929086902963 -0.34352857196742775
vn 0.0012218296919352535 -0.9788287072518121 -0.20467747553639165
vn -0.09085600726891871 -0.6630487967805604 0.743042043918782
vn 0.0012218296919352535 -0.9788287072518121 -0.20467747553639165
vn 0.011804310481798249 -0.6519945791899001 0.7581317345692862
vn -0.09085600726891871 -0.6630487967805604 0.743042043918782
vn -0.27641405382042944 -0.6876881401860154 0.6713272619952627
vn -0.38237518250101643 -0.9236883564072323 -0.024270147198153406
vn -0.09085600726891871 -0.6630487967805604 0.743042043918782
vn -0.38237518250101643 -0.9236883564072323 -0.024270147198153406
vn -0.14808954437424504 -0.9273929086902963 -0.34352857196742775
vn -0.09085600726891871 -0.6630487967805604 0.743042043918782
vn -0.05778916099953726 -0.5113861223479638 0.8574057655164695
vn -0.1486024793519424 -0.532765961931418 0.8331132773745394
vn -0.09085600726891871 -0.6630487967805604 0.743042043918782
vn -0.1486024793519424 -0.532765961931418 0.8331132773745394
vn -0.27641405382042944 -0.6876881401860154 0.6713272619952627
vn -0.0019300365743501163 -0.5209901279611172 -0.8535605201307523
vn 0.01577658131454138 -0.9992623451626415 -0.03501235527758347
vn 0.0012218296919352535 -0.9788287072518121 -0.20467747553639165
vn -0.0019300365743501163 -0.5209901279611172 -0.8535605201307523
vn 0.0012218296919352535 -0.9788287072518121 -0.20467747553639165
vn -0.005260341708901977 -0.5111009985375533 -0.8595045654905048
vn -0.0019300365743501163 -0.5209901279611172 -0.8535605201307523
vn 0.21003421504124078 -0.5592421322947111 -0.8019562743556999
vn 0.22809071449640533 -0.9509943561400406 -0.20876867712927946
vn -0.0019300365743501163 -0.5209901279611172 -0.8535605201307523
vn 0.22809071449640533 -0.9509943561400406 -0.20876867712927946
vn 0.01577658131454138 -0.9992623451626415 -0.03501235527758347
vn -0.0019300365743501163 -0.5209901279611172 -0.8535605201307523
vn -0.013836526840468195 -0.21943508953038848 -0.9755289806088713
vn 0.05121635523653696 -0.22918894341145712 -0.9720335967312161
vn -0.0019300365743501163 -0.5209901279611172 -0.8535605201307523
vn 0.05121635523653696 -0.22918894341145712 -0.9720335967312161
vn 0.21003421504124078 -0.5592421322947111 -0.8019562743556999
vn 0.01577658131454138 -0.9992623451626415 -0.03501235527758347
vn 0.22809071449640533 -0.9509943561400406 -0.20876867712927946
vn 0.07970704130686876 -0.6401436916511979 0.7641091817307794
vn 0.01577658131454138 -0.9992623451626415 -0.03501235527758347
vn 0.07970704130686876 -0.6401436916511979 0.7641091817307794
vn 0.0015226832992839086 -0.6471139165459036 0.7623918024534312
vn -0.14808954437424504 -0.9273929086902963 -0.34352857196742775
vn -0.38237518250101643 -0.9236883564072323 -0.024270147198153406
vn -0.208607398316854 -0.5986604486587853 -0.7733618949619481
vn -0.14808954437424504 -0.9273929086902963 -0.34352857196742775
vn -0.208607398316854 -0.5986604486587853 -0.7733618949619481
vn -0.07322624501363321 -0.5151020483942562 -0.8539951971652093
vn -0.38237518250101643 -0.9236883564072323 -0.024270147198153406
vn -0.27641405382042944 -0.6876881401860154 0.6713272619952627
vn -0.48709553807818406 -0.6808301256203014 0.5469993389686763
vn -0.38237518250101643 -0.9236883564072323 -0.024270147198153406
vn -0.48709553807818406 -0.6808301256203014 0.5469993389686763
vn -0.5213273865172875 -0.8258034151665796 -0.21509643317886187
vn 0.21003421504124078 -0.5592421322947111 -0.8019562743556999
vn 0.05121635523653696 -0.22918894341145712 -0.9720335967312161
vn 0.3103156284559253 -0.41792489687877643 -0.8538401438822539
vn 0.07970704130686876 -0.6401436916511979 0.7641091817307794
vn 0.09699838736779533 -0.47548407945015125 0.8743604537246005
vn 0.01416318572596333 -0.5075533944388463 0.8615038920188909
vn 0.07970704130686876 -0.6401436916511979 0.7641091817307794
vn 0.01416318572596333 -0.5075533944388463 0.8615038920188909
vn 0.0015226832992839086 -0.6471139165459036 0.7623918024534312
vn -0.208607398316854 -0.5986604486587853 -0.7733618949619481
vn -0.07727741434612306 -0.3408853672242398 -0.9369233520648169
vn -0.011097228905045697 -0.24201045536056587 -0.9702101787792173
vn -0.208607398316854 -0.5986604486587853 -0.7733618949619481
vn -0.011097228905045697 -0.24201045536056587 -0.9702101787792173
vn -0.07322624501363321 -0.5151020483942562 -0.8539951971652093
vn -0.1486024793519424 -0.532765961931418 0.8331132773745394
vn -0.48709553807818406 -0.6808301256203014 0.5469993389686763
vn -0.27641405382042944 -0.6876881401860154 0.6713272619952627
vn -0.0050105325485993845 -0.5219227048756663 0.8529780681230016
vn -0.05778916099953726 -0.5113861223479638 0.8574057655164695
vn -0.09085600726891871 -0.6630487967805604 0.743042043918782
vn -0.0050105325485993845 -0.5219227048756663 0.8529780681230016
vn -0.09085600726891871 -0.6630487967805604 0.743042043918782
vn 0.011804310481798249 -0.6519945791899001 0.7581317345692862
vn 0.0022582195668317895 -0.22078529425349666 -0.9753198215384454
vn -0.013836526840468195 -0.21943508953038848 -0.9755289806088713
vn -0.0019300365743501163 -0.5209901279611172 -0.8535605201307523
vn 0.0022582195668317895 -0.22078529425349666 -0.9753198215384454
vn -0.0019300365743501163 -0.5209901279611172 -0.8535605201307523
vn -0.005260341708901977 -0.5111009985375533 -0.8595045654905048
vn -0.39788288462068944 -0.5648066657380341 -0.7229679387523376
vn -0.07727741434612306 -0.3408853672242398 -0.9369233520648169
vn -0.208607398316854 -0.5986604486587853 -0.7733618949619481
vn -0.5213273865172875 -0.8258034151665796 -0.21509643317886187
vn -0.39788288462068944 -0.5648066657380341 -0.7229679387523376
vn -0.208607398316854 -0.5986604486587853 -0.7733618949619481
vn -0.5213273865172875 -0.8258034151665796 -0.21509643317886187
vn -0.208607398316854 -0.5986604486587853 -0.7733618949619481
vn -0.38237518250101643 -0.9236883564072323 -0.024270147198153406
f 1/1/1 2/2/2 3/3/3
f 4/4/4 5/5/5 6/6/6
f 7/7/7 8/8/8 9/9/9
f 10/10/10 11/11/11 12/12/12
f 13/13/13 14/14/14 15/15/15
f 16/16/16 17/17/17 18/18/18
f 19/19/19 20/20/20 21/21/21
f 22/22/22 23/23/23 24/24/24
f 25/25/25 26/26/26 27/27/27
f 28/28/28 29/29/29 30/30/30
f 31/31/31 32/32/32 33/33/33
f 34/34/34 35/35/35 36/36/36
f 37/37/37 38/38/38 39/39/39
f 40/40/40 41/41/41 42/42/42
f 43/43/43 44/44/44 45/45/45
f 46/46/46 47/47/47 48/48/48
f 49/49/49 50/50/50 51/51/51
f 52/52/52 53/53/53 54/54/54
f 55/55/55 56/56/56 57/57/57
f 58/58/58 59/59/59 60/60/60
f 61/61/61 62/62/62 63/63/63
f 64/64/64 65/65/65 66/66/66
f 67/67/67 68/68/68 69/69/69
f 70/70/70 71/71/71 72/72/72
f 73/73/73 74/74/74 75/75/75
f 76/76/76 77/77/77 78/78/78
f 79/79/79 80/80/80 81/81/81
f 82/82/82 83/83/83 84/84/84
f 85/85/85 86/86/86 87/87/87
f 88/88/88 89/89/89 90/90/90
f 91/91/91 92/92/92 93/93/93
f 94/94/94 95/95/95 96/96/96
f 97/97/97 98/98/98 99/99/99
f 100/100/100 101/101/101 102/102/102
f 103/103/103 104/104/104 105/105/105
f 106/106/106 107/107/107 108/108/108
f 109/109/109 110/110/110 111/111/111
f 112/112/112 113/113/113 114/114/114
f 115/115/115 116/116/116 117/117/117
f 118/118/118 119/119/119 120/120/120
f 121/121/121 122/122/122 123/123/123
f 124/124/124 125/125/125 126/126/126
f 127/127/127 128/128/128 129/129/129
f 130/130/130 131/131/131 132/132/132
