mtllib ArcadaCompleta.mtl
o D52C_L
usemtl Esmalte
v -12.208000183105469 48.755863189697266 -0.6476392441163518
v -12.208000183105469 48.128761291503906 -0.5055582814584234
v -13.088800430297852 48.14146423339844 -0.501693277872608
v -12.208000183105469 48.755863189697266 -0.6476392441163518
v -13.088800430297852 48.14146423339844 -0.501693277872608
v -13.118000030517578 48.755863189697266 -0.6403322511086919
v -12.208000183105469 51.15336227416992 -1.4032792740235778
v -11.803500175476074 50.73206329345703 -1.6183693104157897
v -12.208000183105469 50.88426208496094 -1.0384192161927672
v -12.208000183105469 51.15336227416992 -1.4032792740235778
v -12.208000183105469 51.20026397705078 -1.9733792238603087
v -11.803500175476074 50.73206329345703 -1.6183693104157897
v -12.208000183105469 49.90666198730469 -0.8070592575440858
v -11.291000366210938 49.90666198730469 -0.7753652625451539
v -11.29800033569336 48.755863189697266 -0.6403322511086919
v -12.208000183105469 49.90666198730469 -0.8070592575440858
v -11.29800033569336 48.755863189697266 -0.6403322511086919
v -12.208000183105469 48.755863189697266 -0.6476392441163518
v -12.208000183105469 49.90666198730469 -0.8070592575440858
v -12.208000183105469 50.88426208496094 -1.0384192161927672
v -11.22249984741211 50.31936264038086 -1.1544592075715516
v -12.208000183105469 49.90666198730469 -0.8070592575440858
v -11.22249984741211 50.31936264038086 -1.1544592075715516
v -11.291000366210938 49.90666198730469 -0.7753652625451539
v -13.781800270080566 48.755863189697266 -0.6797182255158879
v -13.124899864196777 49.90666198730469 -0.7753652625451539
v -13.118000030517578 48.755863189697266 -0.6403322511086919
v -10.634099960327148 48.755863189697266 -0.6797182255158879
v -10.554100036621094 48.14336395263672 -0.5323012762437322
v -11.327099800109863 48.14146423339844 -0.501693277872608
v -10.634099960327148 48.755863189697266 -0.6797182255158879
v -11.327099800109863 48.14146423339844 -0.501693277872608
v -11.29800033569336 48.755863189697266 -0.6403322511086919
v -11.29800033569336 48.755863189697266 -0.6403322511086919
v -11.291000366210938 49.90666198730469 -0.7753652625451539
v -10.634099960327148 48.755863189697266 -0.6797182255158879
v -11.29800033569336 48.755863189697266 -0.6403322511086919
v -11.327099800109863 48.14146423339844 -0.501693277872608
v -12.208000183105469 48.128761291503906 -0.5055582814584234
v -11.29800033569336 48.755863189697266 -0.6403322511086919
v -12.208000183105469 48.128761291503906 -0.5055582814584234
v -12.208000183105469 48.755863189697266 -0.6476392441163518
v -13.118000030517578 48.755863189697266 -0.6403322511086919
v -13.124899864196777 49.90666198730469 -0.7753652625451539
v -12.208000183105469 49.90666198730469 -0.8070592575440858
v -13.118000030517578 48.755863189697266 -0.6403322511086919
v -12.208000183105469 49.90666198730469 -0.8070592575440858
v -12.208000183105469 48.755863189697266 -0.6476392441163518
v -13.118000030517578 48.755863189697266 -0.6403322511086919
v -13.088800430297852 48.14146423339844 -0.501693277872608
v -13.861800193786621 48.17796325683594 -0.5323012762437322
v -13.118000030517578 48.755863189697266 -0.6403322511086919
v -13.861800193786621 48.17796325683594 -0.5323012762437322
v -13.781800270080566 48.755863189697266 -0.6797182255158879
v -11.266400337219238 50.73206329345703 -1.5335492782960387
v -10.8725004196167 49.90666198730469 -1.0330192737946962
v -11.22249984741211 50.31936264038086 -1.1544592075715516
v -11.266400337219238 50.73206329345703 -1.5335492782960387
v -11.22249984741211 50.31936264038086 -1.1544592075715516
v -12.208000183105469 50.88426208496094 -1.0384192161927672
v -11.266400337219238 50.73206329345703 -1.5335492782960387
v -12.208000183105469 50.88426208496094 -1.0384192161927672
v -11.803500175476074 50.73206329345703 -1.6183693104157897
v -11.291000366210938 49.90666198730469 -0.7753652625451539
v -11.22249984741211 50.31936264038086 -1.1544592075715516
v -10.8725004196167 49.90666198730469 -1.0330192737946962
v -13.124899864196777 49.90666198730469 -0.7753652625451539
v -13.781800270080566 48.755863189697266 -0.6797182255158879
v -13.543499946594238 49.90666198730469 -1.0330192737946962
v -13.124899864196777 49.90666198730469 -0.7753652625451539
v -13.193400382995605 50.31936264038086 -1.1544592075715516
v -12.208000183105469 50.88426208496094 -1.0384192161927672
v -13.124899864196777 49.90666198730469 -0.7753652625451539
v -12.208000183105469 50.88426208496094 -1.0384192161927672
v -12.208000183105469 49.90666198730469 -0.8070592575440858
v -13.543499946594238 49.90666198730469 -1.0330192737946962
v -13.193400382995605 50.31936264038086 -1.1544592075715516
v -13.124899864196777 49.90666198730469 -0.7753652625451539
v -10.8725004196167 49.90666198730469 -1.0330192737946962
v -10.634099960327148 48.755863189697266 -0.6797182255158879
v -11.291000366210938 49.90666198730469 -0.7753652625451539
v -12.208000183105469 50.88426208496094 -1.0384192161927672
v -12.612500190734863 50.73206329345703 -1.6183693104157897
v -12.208000183105469 51.15336227416992 -1.4032792740235778
v -13.193400382995605 50.31936264038086 -1.1544592075715516
v -13.543499946594238 49.90666198730469 -1.0330192737946962
v -13.149499893188477 50.73206329345703 -1.5335492782960387
v -12.612500190734863 50.73206329345703 -1.6183693104157897
v -12.208000183105469 50.88426208496094 -1.0384192161927672
v -13.193400382995605 50.31936264038086 -1.1544592075715516
v -12.612500190734863 50.73206329345703 -1.6183693104157897
v -13.193400382995605 50.31936264038086 -1.1544592075715516
v -13.149499893188477 50.73206329345703 -1.5335492782960387
v -12.612500190734863 50.73206329345703 -1.6183693104157897
v -12.208000183105469 51.20026397705078 -1.9733792238603087
v -12.208000183105469 51.15336227416992 -1.4032792740235778
vt 0.5049309730529785 0.26941901445388794
vt 0.5049309730529785 0.15744400024414062
vt 0.6746569871902466 0.15970301628112793
vt 0.5049309730529785 0.26941901445388794
vt 0.6746569871902466 0.15970301628112793
vt 0.680279016494751 0.26941901445388794
vt 0.14408299326896667 0.6975020170211792
vt 0.09103819727897644 0.6222730278968811
vt 0.23406699299812317 0.6494500041007996
vt 0.14408299326896667 0.6975020170211792
vt 0.0034857699647545815 0.7058740258216858
vt 0.09103819727897644 0.6222730278968811
vt 0.5049309730529785 0.4748910069465637
vt 0.32824400067329407 0.4748910069465637
vt 0.32958298921585083 0.26941901445388794
vt 0.5049309730529785 0.4748910069465637
vt 0.32958298921585083 0.26941901445388794
vt 0.5049309730529785 0.26941901445388794
vt 0.5049309730529785 0.4748910069465637
vt 0.5049309730529785 0.6494500041007996
vt 0.31504398584365845 0.5485820174217224
vt 0.5049309730529785 0.4748910069465637
vt 0.31504398584365845 0.5485820174217224
vt 0.32824400067329407 0.4748910069465637
vt 0.808197021484375 0.26941901445388794
vt 0.681617021560669 0.4748910069465637
vt 0.680279016494751 0.26941901445388794
vt 0.201664000749588 0.26941901445388794
vt 0.18624800443649292 0.160040020942688
vt 0.33520400524139404 0.15970301628112793
vt 0.201664000749588 0.26941901445388794
vt 0.33520400524139404 0.15970301628112793
vt 0.32958298921585083 0.26941901445388794
vt 0.32958298921585083 0.26941901445388794
vt 0.32824400067329407 0.4748910069465637
vt 0.201664000749588 0.26941901445388794
vt 0.32958298921585083 0.26941901445388794
vt 0.33520400524139404 0.15970301628112793
vt 0.5049309730529785 0.15744400024414062
vt 0.32958298921585083 0.26941901445388794
vt 0.5049309730529785 0.15744400024414062
vt 0.5049309730529785 0.26941901445388794
vt 0.680279016494751 0.26941901445388794
vt 0.681617021560669 0.4748910069465637
vt 0.5049309730529785 0.4748910069465637
vt 0.680279016494751 0.26941901445388794
vt 0.5049309730529785 0.4748910069465637
vt 0.5049309730529785 0.26941901445388794
vt 0.680279016494751 0.26941901445388794
vt 0.6746569871902466 0.15970301628112793
vt 0.8236129879951477 0.16621899604797363
vt 0.680279016494751 0.26941901445388794
vt 0.8236129879951477 0.16621899604797363
vt 0.808197021484375 0.26941901445388794
vt 0.32350799441337585 0.6222730278968811
vt 0.24759000539779663 0.4748910069465637
vt 0.31504398584365845 0.5485820174217224
vt 0.32350799441337585 0.6222730278968811
vt 0.31504398584365845 0.5485820174217224
vt 0.5049309730529785 0.6494500041007996
vt 0.32350799441337585 0.8880419731140137
vt 0.5049309730529785 0.7659329771995544
vt 0.42699000239372253 0.9089620113372803
vt 0.32824400067329407 0.4748910069465637
vt 0.31504398584365845 0.5485820174217224
vt 0.24759000539779663 0.4748910069465637
vt 0.681617021560669 0.4748910069465637
vt 0.808197021484375 0.26941901445388794
vt 0.762270987033844 0.4748910069465637
vt 0.681617021560669 0.4748910069465637
vt 0.6948180198669434 0.5485820174217224
vt 0.5049309730529785 0.6494500041007996
vt 0.681617021560669 0.4748910069465637
vt 0.5049309730529785 0.6494500041007996
vt 0.5049309730529785 0.4748910069465637
vt 0.762270987033844 0.4748910069465637
vt 0.6948180198669434 0.5485820174217224
vt 0.681617021560669 0.4748910069465637
vt 0.24759000539779663 0.4748910069465637
vt 0.201664000749588 0.26941901445388794
vt 0.32824400067329407 0.4748910069465637
vt 0.7659329771995544 0.6494500041007996
vt 0.9089620113372803 0.6222730278968811
vt 0.8559169769287109 0.6975020170211792
vt 0.6948180198669434 0.5485820174217224
vt 0.762270987033844 0.4748910069465637
vt 0.6863539814949036 0.6222730278968811
vt 0.5828710198402405 0.9089620113372803
vt 0.5049309730529785 0.7659329771995544
vt 0.6948180198669434 0.7945500016212463
vt 0.5828710198402405 0.6222730278968811
vt 0.6948180198669434 0.5485820174217224
vt 0.6863539814949036 0.6222730278968811
vt 0.9089620113372803 0.6222730278968811
vt 0.9965140223503113 0.7058740258216858
vt 0.8559169769287109 0.6975020170211792
vn -0.0010782270828449754 -0.17492391389968928 -0.9845813637137217
vn 0.0026315729962236548 -0.2207987551552225 -0.9753158383546685
vn 0.0030933588761443112 -0.2201536332236818 -0.9754603061679527
vn -0.0010782270828449754 -0.17492391389968928 -0.9845813637137217
vn 0.0030933588761443112 -0.2201536332236818 -0.9754603061679527
vn 0.0074817754939981666 -0.15952792298409046 -0.98716506462893
vn -3.732677304037714e-8 -0.947353145651546 -0.32019059546482526
vn -0.5476038795140263 -0.8350482787389041 -0.053144739310501295
vn 0.005871970483143807 -0.629361380503376 -0.7770905820388828
vn -3.732677304037714e-8 -0.947353145651546 -0.32019059546482526
vn -6.439999640365627e-8 -0.9966329650649105 -0.0819922736964933
vn -0.5476038795140263 -0.8350482787389041 -0.053144739310501295
vn -0.0398005714339105 -0.2017311516337499 -0.9786319313071976
vn -0.13193868344088555 -0.3023637588978223 -0.944017129673538
vn -0.0035851121823123637 -0.15780749482000128 -0.9874633874474921
vn -0.0398005714339105 -0.2017311516337499 -0.9786319313071976
vn -0.0035851121823123637 -0.15780749482000128 -0.9874633874474921
vn -0.0010782270828449754 -0.17492391389968928 -0.9845813637137217
vn -0.0398005714339105 -0.2017311516337499 -0.9786319313071976
vn 0.005871970483143807 -0.629361380503376 -0.7770905820388828
vn -0.2859838205625034 -0.49632443220068356 -0.8196800060859988
vn -0.0398005714339105 -0.2017311516337499 -0.9786319313071976
vn -0.2859838205625034 -0.49632443220068356 -0.8196800060859988
vn -0.13193868344088555 -0.3023637588978223 -0.944017129673538
vn 0.2123808097763828 -0.23280714255426876 -0.9490496435985023
vn 0.15933653354801552 -0.28296807107408 -0.9458017444631389
vn 0.0074817754939981666 -0.15952792298409046 -0.98716506462893
vn -0.17319533299358286 -0.22790310898972932 -0.9581563283421227
vn -0.037838389290193064 -0.23850025902101146 -0.9704050096443414
vn -0.02638061443107403 -0.22562564158695803 -0.9738568339549261
vn -0.17319533299358286 -0.22790310898972932 -0.9581563283421227
vn -0.02638061443107403 -0.22562564158695803 -0.9738568339549261
vn -0.0035851121823123637 -0.15780749482000128 -0.9874633874474921
vn -0.0035851121823123637 -0.15780749482000128 -0.9874633874474921
vn -0.13193868344088555 -0.3023637588978223 -0.944017129673538
vn -0.17319533299358286 -0.22790310898972932 -0.9581563283421227
vn -0.0035851121823123637 -0.15780749482000128 -0.9874633874474921
vn -0.02638061443107403 -0.22562564158695803 -0.9738568339549261
vn 0.0026315729962236548 -0.2207987551552225 -0.9753158383546685
vn -0.0035851121823123637 -0.15780749482000128 -0.9874633874474921
vn 0.0026315729962236548 -0.2207987551552225 -0.9753158383546685
vn -0.0010782270828449754 -0.17492391389968928 -0.9845813637137217
vn 0.0074817754939981666 -0.15952792298409046 -0.98716506462893
vn 0.15933653354801552 -0.28296807107408 -0.9458017444631389
vn -0.0398005714339105 -0.2017311516337499 -0.9786319313071976
vn 0.0074817754939981666 -0.15952792298409046 -0.98716506462893
vn -0.0398005714339105 -0.2017311516337499 -0.9786319313071976
vn -0.0010782270828449754 -0.17492391389968928 -0.9845813637137217
vn 0.0074817754939981666 -0.15952792298409046 -0.98716506462893
vn 0.0030933588761443112 -0.2201536332236818 -0.9754603061679527
vn 0.04134710846867255 -0.23476502121780382 -0.9711723850243498
vn 0.0074817754939981666 -0.15952792298409046 -0.98716506462893
vn 0.04134710846867255 -0.23476502121780382 -0.9711723850243498
vn 0.2123808097763828 -0.23280714255426876 -0.9490496435985023
vn -0.37157719263178385 -0.8301620841686048 -0.41564564706576723
vn -0.486184509184604 -0.456067027140019 -0.7454042458858084
vn -0.2859838205625034 -0.49632443220068356 -0.8196800060859988
vn -0.37157719263178385 -0.8301620841686048 -0.41564564706576723
vn -0.2859838205625034 -0.49632443220068356 -0.8196800060859988
vn 0.005871970483143807 -0.629361380503376 -0.7770905820388828
vn -0.37157719263178385 -0.8301620841686048 -0.41564564706576723
vn 0.005871970483143807 -0.629361380503376 -0.7770905820388828
vn -0.5476038795140263 -0.8350482787389041 -0.053144739310501295
vn -0.13193868344088555 -0.3023637588978223 -0.944017129673538
vn -0.2859838205625034 -0.49632443220068356 -0.8196800060859988
vn -0.486184509184604 -0.456067027140019 -0.7454042458858084
vn 0.15933653354801552 -0.28296807107408 -0.9458017444631389
vn 0.2123808097763828 -0.23280714255426876 -0.9490496435985023
vn 0.48609792094926213 -0.45606746429900136 -0.7454604478150965
vn 0.15933653354801552 -0.28296807107408 -0.9458017444631389
vn 0.4007873572187303 -0.7262579269755131 -0.5584970168218053
vn 0.005871970483143807 -0.629361380503376 -0.7770905820388828
vn 0.15933653354801552 -0.28296807107408 -0.9458017444631389
vn 0.005871970483143807 -0.629361380503376 -0.7770905820388828
vn -0.0398005714339105 -0.2017311516337499 -0.9786319313071976
vn 0.48609792094926213 -0.45606746429900136 -0.7454604478150965
vn 0.4007873572187303 -0.7262579269755131 -0.5584970168218053
vn 0.15933653354801552 -0.28296807107408 -0.9458017444631389
vn -0.486184509184604 -0.456067027140019 -0.7454042458858084
vn -0.17319533299358286 -0.22790310898972932 -0.9581563283421227
vn -0.13193868344088555 -0.3023637588978223 -0.944017129673538
vn 0.005871970483143807 -0.629361380503376 -0.7770905820388828
vn 0.5287640507692227 -0.7912538373640003 -0.3071252895332245
vn -3.732677304037714e-8 -0.947353145651546 -0.32019059546482526
vn 0.4007873572187303 -0.7262579269755131 -0.5584970168218053
vn 0.48609792094926213 -0.45606746429900136 -0.7454604478150965
vn 0.1476821665339719 -0.6775385943213421 -0.7205077590788957
vn 0.5287640507692227 -0.7912538373640003 -0.3071252895332245
vn 0.005871970483143807 -0.629361380503376 -0.7770905820388828
vn 0.4007873572187303 -0.7262579269755131 -0.5584970168218053
vn 0.5287640507692227 -0.7912538373640003 -0.3071252895332245
vn 0.4007873572187303 -0.7262579269755131 -0.5584970168218053
vn 0.1476821665339719 -0.6775385943213421 -0.7205077590788957
vn 0.5287640507692227 -0.7912538373640003 -0.3071252895332245
vn -6.439999640365627e-8 -0.9966329650649105 -0.0819922736964933
vn -3.732677304037714e-8 -0.947353145651546 -0.32019059546482526
f 1/1/1 2/2/2 3/3/3
f 4/4/4 5/5/5 6/6/6
f 7/7/7 8/8/8 9/9/9
f 10/10/10 11/11/11 12/12/12
f 13/13/13 14/14/14 15/15/15
f 16/16/16 17/17/17 18/18/18
f 19/19/19 20/20/20 21/21/21
f 22/22/22 23/23/23 24/24/24
f 25/25/25 26/26/26 27/27/27
f 28/28/28 29/29/29 30/30/30
f 31/31/31 32/32/32 33/33/33
f 34/34/34 35/35/35 36/36/36
f 37/37/37 38/38/38 39/39/39
f 40/40/40 41/41/41 42/42/42
f 43/43/43 44/44/44 45/45/45
f 46/46/46 47/47/47 48/48/48
f 49/49/49 50/50/50 51/51/51
f 52/52/52 53/53/53 54/54/54
f 55/55/55 56/56/56 57/57/57
f 58/58/58 59/59/59 60/60/60
f 61/61/61 62/62/62 63/63/63
f 64/64/64 65/65/65 66/66/66
f 67/67/67 68/68/68 69/69/69
f 70/70/70 71/71/71 72/72/72
f 73/73/73 74/74/74 75/75/75
f 76/76/76 77/77/77 78/78/78
f 79/79/79 80/80/80 81/81/81
f 82/82/82 83/83/83 84/84/84
f 85/85/85 86/86/86 87/87/87
f 88/88/88 89/89/89 90/90/90
f 91/91/91 92/92/92 93/93/93
f 94/94/94 95/95/95 96/96/96
