mtllib ArcadaCompleta.mtl
o D53C_Fl
usemtl Esmalte
v -18.96940040588379 53.84516143798828 -2.7262692146668877
v -17.969999313354492 53.69856262207031 -2.5021991424928154
v -17.74810028076172 52.383663177490234 -3.284439294851824
v -18.96940040588379 53.84516143798828 -2.7262692146668877
v -17.74810028076172 52.383663177490234 -3.284439294851824
v -18.96940040588379 52.383663177490234 -3.4880692654023613
v -18.969499588012695 51.429161071777344 -3.2900092296967953
v -18.96940040588379 52.383663177490234 -3.4880692654023613
v -17.74810028076172 52.383663177490234 -3.284439294851824
v -18.969499588012695 51.429161071777344 -3.2900092296967953
v -17.74810028076172 52.383663177490234 -3.284439294851824
v -17.531700134277344 51.429161071777344 -2.9940693073640317
v -19.968700408935547 53.82656478881836 -2.5021991424928154
v -20.19070053100586 52.383663177490234 -3.086929290808245
v -21.117000579833984 52.383663177490234 -2.3572292023072685
v -19.968700408935547 53.82656478881836 -2.5021991424928154
v -21.117000579833984 52.383663177490234 -2.3572292023072685
v -20.81999969482422 53.58236312866211 -1.9063292436967338
v -20.407400131225586 51.429161071777344 -2.9940693073640317
v -20.19070053100586 52.383663177490234 -3.086929290808245
v -18.96940040588379 52.383663177490234 -3.4880692654023613
v -20.407400131225586 51.429161071777344 -2.9940693073640317
v -18.96940040588379 52.383663177490234 -3.4880692654023613
v -18.969499588012695 51.429161071777344 -3.2900092296967953
v -20.407400131225586 51.429161071777344 -2.9940693073640317
v -20.989700317382812 51.429161071777344 -2.5293993645081967
v -21.117000579833984 52.383663177490234 -2.3572292023072685
v -20.407400131225586 51.429161071777344 -2.9940693073640317
v -21.117000579833984 52.383663177490234 -2.3572292023072685
v -20.19070053100586 52.383663177490234 -3.086929290808245
v -16.821699142456055 52.383663177490234 -2.3572292023072685
v -17.74810028076172 52.383663177490234 -3.284439294851824
v -17.969999313354492 53.69856262207031 -2.5021991424928154
v -16.821699142456055 52.383663177490234 -2.3572292023072685
v -17.969999313354492 53.69856262207031 -2.5021991424928154
v -17.11870002746582 53.311363220214844 -1.906329243696734
v -18.96940040588379 52.383663177490234 -3.4880692654023613
v -20.19070053100586 52.383663177490234 -3.086929290808245
v -19.968700408935547 53.82656478881836 -2.5021991424928154
v -18.96940040588379 52.383663177490234 -3.4880692654023613
v -19.968700408935547 53.82656478881836 -2.5021991424928154
v -18.96940040588379 53.84516143798828 -2.7262692146668877
v -17.74810028076172 52.383663177490234 -3.284439294851824
v -16.821699142456055 52.383663177490234 -2.3572292023072685
v -16.949399948120117 51.429161071777344 -2.5293993645081967
v -17.74810028076172 52.383663177490234 -3.284439294851824
v -16.949399948120117 51.429161071777344 -2.5293993645081967
v -17.531700134277344 51.429161071777344 -2.9940693073640317
vt 0.4867280125617981 0.9994999766349792
vt 0.34202900528907776 0.9770529866218567
vt 0.30989399552345276 0.7758209705352783
vt 0.4867280125617981 0.9994999766349792
vt 0.30989399552345276 0.7758209705352783
vt 0.4867280125617981 0.7758209705352783
vt 0.486752986907959 0.6297370195388794
vt 0.4867280125617981 0.7758209705352783
vt 0.30989399552345276 0.7758209705352783
vt 0.486752986907959 0.6297370195388794
vt 0.30989399552345276 0.7758209705352783
vt 0.27856698632240295 0.6297370195388794
vt 0.6314259767532349 0.9966430068016052
vt 0.6635609865188599 0.7758209705352783
vt 0.7976850271224976 0.7758209705352783
vt 0.6314259767532349 0.9966430068016052
vt 0.7976850271224976 0.7758209705352783
vt 0.7546870112419128 0.9592829942703247
vt 0.6949380040168762 0.6297370195388794
vt 0.6635609865188599 0.7758209705352783
vt 0.4867280125617981 0.7758209705352783
vt 0.6949380040168762 0.6297370195388794
vt 0.4867280125617981 0.7758209705352783
vt 0.486752986907959 0.6297370195388794
vt 0.6949380040168762 0.6297370195388794
vt 0.7792490124702454 0.6297370195388794
vt 0.7976850271224976 0.7758209705352783
vt 0.6949380040168762 0.6297370195388794
vt 0.7976850271224976 0.7758209705352783
vt 0.6635609865188599 0.7758209705352783
vt 0.8379039764404297 0.7758209705352783
vt 0.9704020023345947 0.7758209705352783
vt 0.8586210012435913 0.9770529866218567
vt 0.8379039764404297 0.7758209705352783
vt 0.8586210012435913 0.9770529866218567
vt 0.773472011089325 0.9177960157394409
vt 0.4867280125617981 0.7758209705352783
vt 0.6635609865188599 0.7758209705352783
vt 0.6314259767532349 0.9966430068016052
vt 0.4867280125617981 0.7758209705352783
vt 0.6314259767532349 0.9966430068016052
vt 0.4867280125617981 0.9994999766349792
vt 0.9704020023345947 0.7758209705352783
vt 0.8379039764404297 0.7758209705352783
vt 0.8625069856643677 0.6297370195388794
vt 0.30989399552345276 0.7758209705352783
vt 0.194255992770195 0.6297370195388794
vt 0.27856698632240295 0.6297370195388794
vn 0.07030402888713465 0.48564010994806567 -0.8713271642338873
vn 0.5138190524711138 0.5065917506821787 -0.6923545186235533
vn 0.4012568039327404 0.22253822025085215 -0.88852108462617
vn 0.07030402888713465 0.48564010994806567 -0.8713271642338873
vn 0.4012568039327404 0.22253822025085215 -0.88852108462617
vn -0.12164497085275511 0.21593181441329723 -0.9688012967530616
vn 0.048432416301242454 -0.21931165043494674 -0.9744520003749404
vn -0.12164497085275511 0.21593181441329723 -0.9688012967530616
vn 0.4012568039327404 0.22253822025085215 -0.88852108462617
vn 0.048432416301242454 -0.21931165043494674 -0.9744520003749404
vn 0.4012568039327404 0.22253822025085215 -0.88852108462617
vn 0.3452051746737571 -0.20064600539343755 -0.9168285378946912
vn -0.41179010139451455 0.4163807315788105 -0.810589907883999
vn -0.45016937051964284 0.2577794710329801 -0.8549253079421064
vn -0.6049910357582169 0.2762327297645131 -0.7467806409241239
vn -0.41179010139451455 0.4163807315788105 -0.810589907883999
vn -0.6049910357582169 0.2762327297645131 -0.7467806409241239
vn -0.599222271342962 0.40765030056890506 -0.6890238761992671
vn -0.41283481478299705 -0.045283652382582515 -0.909679507590438
vn -0.45016937051964284 0.2577794710329801 -0.8549253079421064
vn -0.12164497085275511 0.21593181441329723 -0.9688012967530616
vn -0.41283481478299705 -0.045283652382582515 -0.909679507590438
vn -0.12164497085275511 0.21593181441329723 -0.9688012967530616
vn 0.048432416301242454 -0.21931165043494674 -0.9744520003749404
vn -0.41283481478299705 -0.045283652382582515 -0.909679507590438
vn -0.6226973797384522 0.057705831428564835 -0.7803319872246709
vn -0.6049910357582169 0.2762327297645131 -0.7467806409241239
vn -0.41283481478299705 -0.045283652382582515 -0.909679507590438
vn -0.6049910357582169 0.2762327297645131 -0.7467806409241239
vn -0.45016937051964284 0.2577794710329801 -0.8549253079421064
vn 0.6659634958709915 0.36039052517606895 -0.6531548756080788
vn 0.4012568039327404 0.22253822025085215 -0.88852108462617
vn 0.5138190524711138 0.5065917506821787 -0.6923545186235533
vn 0.6659634958709915 0.36039052517606895 -0.6531548756080788
vn 0.5138190524711138 0.5065917506821787 -0.6923545186235533
vn 0.6382238023762555 0.49208567636972866 -0.5920490395162725
vn -0.12164497085275511 0.21593181441329723 -0.9688012967530616
vn -0.45016937051964284 0.2577794710329801 -0.8549253079421064
vn -0.41179010139451455 0.4163807315788105 -0.810589907883999
vn -0.12164497085275511 0.21593181441329723 -0.9688012967530616
vn -0.41179010139451455 0.4163807315788105 -0.810589907883999
vn 0.07030402888713465 0.48564010994806567 -0.8713271642338873
vn 0.4012568039327404 0.22253822025085215 -0.88852108462617
vn 0.6659634958709915 0.36039052517606895 -0.6531548756080788
vn 0.6780118002010235 -0.014000979472698806 -0.7349176629813524
vn 0.4012568039327404 0.22253822025085215 -0.88852108462617
vn 0.6780118002010235 -0.014000979472698806 -0.7349176629813524
vn 0.3452051746737571 -0.20064600539343755 -0.9168285378946912
f 1/1/1 2/2/2 3/3/3
f 4/4/4 5/5/5 6/6/6
f 7/7/7 8/8/8 9/9/9
f 10/10/10 11/11/11 12/12/12
f 13/13/13 14/14/14 15/15/15
f 16/16/16 17/17/17 18/18/18
f 19/19/19 20/20/20 21/21/21
f 22/22/22 23/23/23 24/24/24
f 25/25/25 26/26/26 27/27/27
f 28/28/28 29/29/29 30/30/30
f 31/31/31 32/32/32 33/33/33
f 34/34/34 35/35/35 36/36/36
f 37/37/37 38/38/38 39/39/39
f 40/40/40 41/41/41 42/42/42
f 43/43/43 44/44/44 45/45/45
f 46/46/46 47/47/47 48/48/48
