mtllib ArcadaCompleta.mtl
o D53C_I
usemtl Esmalte
v -18.969499588012695 47.543663024902344 0.679276735269024
v -17.896900177001953 47.69986343383789 0.39109975167412964
v -17.838600158691406 48.37926483154297 1.314790756188824
v -18.969499588012695 47.543663024902344 0.679276735269024
v -17.838600158691406 48.37926483154297 1.314790756188824
v -18.93950080871582 48.36256408691406 1.6303807801832697
v -18.969499588012695 47.543663024902344 0.679276735269024
v -20.042200088500977 47.69986343383789 0.39109975167412964
v -18.969499588012695 47.317562103271484 0.007409975611164147
v -18.969499588012695 47.543663024902344 -0.6544172459016303
v -19.367300033569336 47.577064514160156 -0.6468552642236213
v -19.84670066833496 48.37926483154297 -0.8281322412858464
v -18.969499588012695 47.543663024902344 -0.6544172459016303
v -19.84670066833496 48.37926483154297 -0.8281322412858464
v -18.842599868774414 48.36256408691406 -0.8927502327332951
v -18.969499588012695 47.543663024902344 -0.6544172459016303
v -18.969499588012695 47.317562103271484 0.007409975611164147
v -19.367300033569336 47.577064514160156 -0.6468552642236213
v -17.648799896240234 47.58696365356445 0.007409975611164207
v -18.969499588012695 47.317562103271484 0.007409975611164147
v -17.828399658203125 47.58696365356445 -0.3762792640099982
v -17.648799896240234 47.58696365356445 0.007409975611164207
v -16.619199752807617 48.54566192626953 0.04039824449320063
v -16.740299224853516 48.57366180419922 0.6975177235235713
v -17.648799896240234 47.58696365356445 0.007409975611164207
v -16.740299224853516 48.57366180419922 0.6975177235235713
v -17.896900177001953 47.69986343383789 0.39109975167412964
v -20.290300369262695 47.58696365356445 0.007409975611164207
v -18.969499588012695 47.317562103271484 0.007409975611164147
v -20.042200088500977 47.69986343383789 0.39109975167412964
v -20.290300369262695 47.58696365356445 0.007409975611164207
v -21.29450035095215 48.009361267089844 0.007409975611164301
v -20.952299118041992 48.13926315307617 -0.5310362272630194
v -20.290300369262695 47.58696365356445 0.007409975611164207
v -20.952299118041992 48.13926315307617 -0.5310362272630194
v -20.110700607299805 47.58696365356445 -0.3762792640099982
v -17.896900177001953 47.69986343383789 0.39109975167412964
v -18.969499588012695 47.317562103271484 0.007409975611164147
v -17.648799896240234 47.58696365356445 0.007409975611164207
v -17.896900177001953 47.69986343383789 0.39109975167412964
v -16.740299224853516 48.57366180419922 0.6975177235235713
v -17.091100692749023 48.573062896728516 1.2909606999983334
v -20.110700607299805 47.58696365356445 -0.3762792640099982
v -18.969499588012695 47.317562103271484 0.007409975611164147
v -20.290300369262695 47.58696365356445 0.007409975611164207
v -20.110700607299805 47.58696365356445 -0.3762792640099982
v -20.952299118041992 48.13926315307617 -0.5310362272630194
v -20.762800216674805 48.263362884521484 -0.6718022518525579
v -20.110700607299805 47.58696365356445 -0.3762792640099982
v -20.762800216674805 48.263362884521484 -0.6718022518525579
v -19.73900032043457 47.58196258544922 -0.583477228201435
v -20.042200088500977 47.69986343383789 0.39109975167412964
v -21.0802001953125 48.14436340332031 0.8410827226271174
v -21.29450035095215 48.009361267089844 0.007409975611164301
v -20.042200088500977 47.69986343383789 0.39109975167412964
v -21.29450035095215 48.009361267089844 0.007409975611164301
v -20.290300369262695 47.58696365356445 0.007409975611164207
v -17.828399658203125 47.58696365356445 -0.3762792640099982
v -18.969499588012695 47.317562103271484 0.007409975611164147
v -18.20009994506836 47.58196258544922 -0.583477228201435
v -17.828399658203125 47.58696365356445 -0.3762792640099982
v -18.20009994506836 47.58196258544922 -0.583477228201435
v -16.983600616455078 48.53886413574219 -0.6517312817941167
v -17.828399658203125 47.58696365356445 -0.3762792640099982
v -16.983600616455078 48.53886413574219 -0.6517312817941167
v -16.81800079345703 48.54376220703125 -0.4070172601113774
v -18.571800231933594 47.577064514160156 -0.6468552642236213
v -18.969499588012695 47.317562103271484 0.007409975611164147
v -18.969499588012695 47.543663024902344 -0.6544172459016303
v -18.571800231933594 47.577064514160156 -0.6468552642236213
v -17.838600158691406 48.37926483154297 -0.8281322412858464
v -16.983600616455078 48.53886413574219 -0.6517312817941167
v -18.571800231933594 47.577064514160156 -0.6468552642236213
v -16.983600616455078 48.53886413574219 -0.6517312817941167
v -18.20009994506836 47.58196258544922 -0.583477228201435
v -19.367300033569336 47.577064514160156 -0.6468552642236213
v -18.969499588012695 47.317562103271484 0.007409975611164147
v -19.73900032043457 47.58196258544922 -0.583477228201435
v -18.969499588012695 47.317562103271484 0.007409975611164147
v -17.896900177001953 47.69986343383789 0.39109975167412964
v -18.969499588012695 47.543663024902344 0.679276735269024
v -18.20009994506836 47.58196258544922 -0.583477228201435
v -18.969499588012695 47.317562103271484 0.007409975611164147
v -18.571800231933594 47.577064514160156 -0.6468552642236213
v -19.73900032043457 47.58196258544922 -0.583477228201435
v -18.969499588012695 47.317562103271484 0.007409975611164147
v -20.110700607299805 47.58696365356445 -0.3762792640099982
v -19.73900032043457 47.58196258544922 -0.583477228201435
v -20.762800216674805 48.263362884521484 -0.6718022518525579
v -19.84670066833496 48.37926483154297 -0.8281322412858464
v -19.73900032043457 47.58196258544922 -0.583477228201435
v -19.84670066833496 48.37926483154297 -0.8281322412858464
v -19.367300033569336 47.577064514160156 -0.6468552642236213
v -18.93950080871582 48.36256408691406 1.6303807801832697
v -20.104999542236328 48.238563537597656 1.3248207873930475
v -20.042200088500977 47.69986343383789 0.39109975167412964
v -18.93950080871582 48.36256408691406 1.6303807801832697
v -20.042200088500977 47.69986343383789 0.39109975167412964
v -18.969499588012695 47.543663024902344 0.679276735269024
v -18.842599868774414 48.36256408691406 -0.8927502327332951
v -17.838600158691406 48.37926483154297 -0.8281322412858464
v -18.571800231933594 47.577064514160156 -0.6468552642236213
v -18.842599868774414 48.36256408691406 -0.8927502327332951
v -18.571800231933594 47.577064514160156 -0.6468552642236213
v -18.969499588012695 47.543663024902344 -0.6544172459016303
v -21.0802001953125 48.14436340332031 0.8410827226271174
v -20.042200088500977 47.69986343383789 0.39109975167412964
v -20.830900192260742 48.24936294555664 1.2387707538237116
v -17.838600158691406 48.37926483154297 1.314790756188824
v -17.896900177001953 47.69986343383789 0.39109975167412964
v -17.091100692749023 48.573062896728516 1.2909606999983334
v -20.830900192260742 48.24936294555664 1.2387707538237116
v -20.042200088500977 47.69986343383789 0.39109975167412964
v -20.104999542236328 48.238563537597656 1.3248207873930475
v -16.81800079345703 48.54376220703125 -0.4070172601113774
v -16.619199752807617 48.54566192626953 0.04039824449320063
v -17.648799896240234 47.58696365356445 0.007409975611164207
v -16.81800079345703 48.54376220703125 -0.4070172601113774
v -17.648799896240234 47.58696365356445 0.007409975611164207
v -17.828399658203125 47.58696365356445 -0.3762792640099982
vt 0.486752986907959 0.4039909839630127
vt 0.3314409852027893 0.4451709985733032
vt 0.3230069875717163 0.3131769895553589
vt 0.486752986907959 0.4039909839630127
vt 0.3230069875717163 0.3131769895553589
vt 0.48240599036216736 0.2680790424346924
vt 0.486752986907959 0.4039909839630127
vt 0.6420639753341675 0.4451709985733032
vt 0.486752986907959 0.5
vt 0.486752986907959 0.03510361909866333
vt 0.5443419814109802 0.04020148515701294
vt 0.613752007484436 0.16297298669815063
vt 0.486752986907959 0.03510361909866333
vt 0.613752007484436 0.16297298669815063
vt 0.46838000416755676 0.16042399406433105
vt 0.486752986907959 0.594573974609375
vt 0.486752986907959 0.5
vt 0.5443419814109802 0.5934939980506897
vt 0.2955160140991211 0.5
vt 0.486752986907959 0.5
vt 0.32152798771858215 0.5548290014266968
vt 0.2955160140991211 0.5
vt 0.14644399285316467 0.4952859878540039
vt 0.16397599875926971 0.40138399600982666
vt 0.2955160140991211 0.5
vt 0.16397599875926971 0.40138399600982666
vt 0.3314409852027893 0.4451709985733032
vt 0.6779900193214417 0.5
vt 0.486752986907959 0.5
vt 0.6420639753341675 0.4451709985733032
vt 0.6779900193214417 0.5
vt 0.8233820199966431 0.5
vt 0.7738350033760071 0.5769439935684204
vt 0.6779900193214417 0.5
vt 0.7738350033760071 0.5769439935684204
vt 0.651977002620697 0.5548290014266968
vt 0.3314409852027893 0.4451709985733032
vt 0.486752986907959 0.5
vt 0.2955160140991211 0.5
vt 0.3314409852027893 0.4451709985733032
vt 0.16397599875926971 0.40138399600982666
vt 0.21477699279785156 0.3165830373764038
vt 0.651977002620697 0.5548290014266968
vt 0.486752986907959 0.5
vt 0.6779900193214417 0.5
vt 0.651977002620697 0.04172182083129883
vt 0.7738350033760071 0.12624597549438477
vt 0.7464029788970947 0.145238995552063
vt 0.651977002620697 0.5548290014266968
vt 0.7464029788970947 0.5970590114593506
vt 0.5981600284576416 0.5844370126724243
vt 0.6420639753341675 0.4451709985733032
vt 0.7923589944839478 0.3808690309524536
vt 0.8233820199966431 0.5
vt 0.6420639753341675 0.4451709985733032
vt 0.8233820199966431 0.5
vt 0.6779900193214417 0.5
vt 0.32152798771858215 0.5548290014266968
vt 0.486752986907959 0.5
vt 0.37534600496292114 0.5844370126724243
vt 0.32152798771858215 0.04172182083129883
vt 0.37534600496292114 0.040961623191833496
vt 0.19920599460601807 0.1874060034751892
vt 0.32152798771858215 0.5548290014266968
vt 0.19920599460601807 0.5941900014877319
vt 0.17523199319839478 0.5592210292816162
vt 0.42916300892829895 0.5934939980506897
vt 0.486752986907959 0.5
vt 0.486752986907959 0.594573974609375
vt 0.42916300892829895 0.04020148515701294
vt 0.3230069875717163 0.16297298669815063
vt 0.19920599460601807 0.1874060034751892
vt 0.42916300892829895 0.04020148515701294
vt 0.19920599460601807 0.1874060034751892
vt 0.37534600496292114 0.040961623191833496
vt 0.5443419814109802 0.5934939980506897
vt 0.486752986907959 0.5
vt 0.5981600284576416 0.5844370126724243
vt 0.486752986907959 0.5
vt 0.3314409852027893 0.4451709985733032
vt 0.486752986907959 0.4039909839630127
vt 0.37534600496292114 0.5844370126724243
vt 0.486752986907959 0.5
vt 0.42916300892829895 0.5934939980506897
vt 0.5981600284576416 0.5844370126724243
vt 0.486752986907959 0.5
vt 0.651977002620697 0.5548290014266968
vt 0.5981600284576416 0.040961623191833496
vt 0.7464029788970947 0.145238995552063
vt 0.613752007484436 0.16297298669815063
vt 0.5981600284576416 0.040961623191833496
vt 0.613752007484436 0.16297298669815063
vt 0.5443419814109802 0.04020148515701294
vt 0.48240599036216736 0.2680790424346924
vt 0.651157021522522 0.31174302101135254
vt 0.6420639753341675 0.4451709985733032
vt 0.48240599036216736 0.2680790424346924
vt 0.6420639753341675 0.4451709985733032
vt 0.486752986907959 0.4039909839630127
vt 0.46838000416755676 0.16042399406433105
vt 0.3230069875717163 0.16297298669815063
vt 0.42916300892829895 0.04020148515701294
vt 0.46838000416755676 0.16042399406433105
vt 0.42916300892829895 0.04020148515701294
vt 0.486752986907959 0.03510361909866333
vt 0.7923589944839478 0.3808690309524536
vt 0.6420639753341675 0.4451709985733032
vt 0.7562549710273743 0.3240389823913574
vt 0.3230069875717163 0.3131769895553589
vt 0.3314409852027893 0.4451709985733032
vt 0.21477699279785156 0.3165830373764038
vt 0.7562549710273743 0.3240389823913574
vt 0.6420639753341675 0.4451709985733032
vt 0.651157021522522 0.31174302101135254
vt 0.17523199319839478 0.5592210292816162
vt 0.14644399285316467 0.4952859878540039
vt 0.2955160140991211 0.5
vt 0.17523199319839478 0.5592210292816162
vt 0.2955160140991211 0.5
vt 0.32152798771858215 0.5548290014266968
vn 0.042396117265348476 -0.8332164935414634 0.5513191853466476
vn 0.3189919878030284 -0.8308043867319849 0.45607914083453
vn 0.22688029536446214 -0.7723268897451772 0.593326644397397
vn 0.042396117265348476 -0.8332164935414634 0.5513191853466476
vn 0.22688029536446214 -0.7723268897451772 0.593326644397397
vn -0.03980689172136349 -0.7947651841447267 0.605610199255992
vn 0.042396117265348476 -0.8332164935414634 0.5513191853466476
vn -0.20134225258807464 -0.8707290788841368 0.44865595784335965
vn -9.847265942142292e-9 -0.9987715003969845 0.04955290097215844
vn -0.0292462601016222 -0.495260543705245 -0.8682520660032161
vn -0.10129372330694197 -0.665593237255684 -0.7394086989873161
vn -0.09557778237979968 -0.2843011870981617 -0.9539589731901135
vn -0.0292462601016222 -0.495260543705245 -0.8682520660032161
vn -0.09557778237979968 -0.2843011870981617 -0.9539589731901135
vn 0.006008833422873462 -0.27574284837358465 -0.9612126588282733
vn -0.0292462601016222 -0.495260543705245 -0.8682520660032161
vn -9.847265942142292e-9 -0.9987715003969845 0.04955290097215844
vn -0.10129372330694197 -0.665593237255684 -0.7394086989873161
vn 0.5319983559914568 -0.842724652464643 0.08241910792245767
vn -9.847265942142292e-9 -0.9987715003969845 0.04955290097215844
vn 0.4357894581655696 -0.8201268765725124 -0.3707822197398015
vn 0.5319983559914568 -0.842724652464643 0.08241910792245767
vn 0.6816713626681277 -0.7311162752028033 -0.02816283813391473
vn 0.5590883320157254 -0.7697489023075496 0.308069577206508
vn 0.5319983559914568 -0.842724652464643 0.08241910792245767
vn 0.5590883320157254 -0.7697489023075496 0.308069577206508
vn 0.3189919878030284 -0.8308043867319849 0.45607914083453
vn -0.33275108996552555 -0.9430026857022911 0.004758874343857047
vn -9.847265942142292e-9 -0.9987715003969845 0.04955290097215844
vn -0.20134225258807464 -0.8707290788841368 0.44865595784335965
vn -0.33275108996552555 -0.9430026857022911 0.004758874343857047
vn -0.3460189048124232 -0.9340581742870974 0.08835295444899313
vn -0.3855008577002755 -0.8046282674183817 -0.45162201007440406
vn -0.33275108996552555 -0.9430026857022911 0.004758874343857047
vn -0.3855008577002755 -0.8046282674183817 -0.45162201007440406
vn -0.3076046372142732 -0.874387135070686 -0.37526860405202184
vn 0.3189919878030284 -0.8308043867319849 0.45607914083453
vn -9.847265942142292e-9 -0.9987715003969845 0.04955290097215844
vn 0.5319983559914568 -0.842724652464643 0.08241910792245767
vn 0.3189919878030284 -0.8308043867319849 0.45607914083453
vn 0.5590883320157254 -0.7697489023075496 0.308069577206508
vn 0.3894310148213928 -0.8104180982995675 0.4376825226619093
vn -0.3076046372142732 -0.874387135070686 -0.37526860405202184
vn -9.847265942142292e-9 -0.9987715003969845 0.04955290097215844
vn -0.33275108996552555 -0.9430026857022911 0.004758874343857047
vn -0.3076046372142732 -0.874387135070686 -0.37526860405202184
vn -0.3855008577002755 -0.8046282674183817 -0.45162201007440406
vn -0.21339973490159964 -0.4561797590153336 -0.8639216287422367
vn -0.3076046372142732 -0.874387135070686 -0.37526860405202184
vn -0.21339973490159964 -0.4561797590153336 -0.8639216287422367
vn -0.18758122970552815 -0.629217695928289 -0.7542535206367001
vn -0.20134225258807464 -0.8707290788841368 0.44865595784335965
vn -0.2719105738419093 -0.9201623656282429 0.28171947166356737
vn -0.3460189048124232 -0.9340581742870974 0.08835295444899313
vn -0.20134225258807464 -0.8707290788841368 0.44865595784335965
vn -0.3460189048124232 -0.9340581742870974 0.08835295444899313
vn -0.33275108996552555 -0.9430026857022911 0.004758874343857047
vn 0.4357894581655696 -0.8201268765725124 -0.3707822197398015
vn -9.847265942142292e-9 -0.9987715003969845 0.04955290097215844
vn 0.24082341584310268 -0.7341926035100981 -0.6347954814999268
vn 0.4357894581655696 -0.8201268765725124 -0.3707822197398015
vn 0.24082341584310268 -0.7341926035100981 -0.6347954814999268
vn 0.36555387873061496 -0.5043583004986528 -0.782299857128399
vn 0.4357894581655696 -0.8201268765725124 -0.3707822197398015
vn 0.36555387873061496 -0.5043583004986528 -0.782299857128399
vn 0.6471084374590915 -0.6906790752851346 -0.3228205153526103
vn 0.13404350377290206 -0.4846870205032803 -0.8643557318904854
vn -9.847265942142292e-9 -0.9987715003969845 0.04955290097215844
vn -0.0292462601016222 -0.495260543705245 -0.8682520660032161
vn 0.13404350377290206 -0.4846870205032803 -0.8643557318904854
vn 0.15295465113715964 -0.34874632134085604 -0.9246517604194189
vn 0.36555387873061496 -0.5043583004986528 -0.782299857128399
vn 0.13404350377290206 -0.4846870205032803 -0.8643557318904854
vn 0.36555387873061496 -0.5043583004986528 -0.782299857128399
vn 0.24082341584310268 -0.7341926035100981 -0.6347954814999268
vn -0.10129372330694197 -0.665593237255684 -0.7394086989873161
vn -9.847265942142292e-9 -0.9987715003969845 0.04955290097215844
vn -0.18758122970552815 -0.629217695928289 -0.7542535206367001
vn -9.847265942142292e-9 -0.9987715003969845 0.04955290097215844
vn 0.3189919878030284 -0.8308043867319849 0.45607914083453
vn 0.042396117265348476 -0.8332164935414634 0.5513191853466476
vn 0.24082341584310268 -0.7341926035100981 -0.6347954814999268
vn -9.847265942142292e-9 -0.9987715003969845 0.04955290097215844
vn 0.13404350377290206 -0.4846870205032803 -0.8643557318904854
vn -0.18758122970552815 -0.629217695928289 -0.7542535206367001
vn -9.847265942142292e-9 -0.9987715003969845 0.04955290097215844
vn -0.3076046372142732 -0.874387135070686 -0.37526860405202184
vn -0.18758122970552815 -0.629217695928289 -0.7542535206367001
vn -0.21339973490159964 -0.4561797590153336 -0.8639216287422367
vn -0.09557778237979968 -0.2843011870981617 -0.9539589731901135
vn -0.18758122970552815 -0.629217695928289 -0.7542535206367001
vn -0.09557778237979968 -0.2843011870981617 -0.9539589731901135
vn -0.10129372330694197 -0.665593237255684 -0.7394086989873161
vn -0.03980689172136349 -0.7947651841447267 0.605610199255992
vn -0.05093910393398607 -0.8665342631229501 0.4965114082519838
vn -0.20134225258807464 -0.8707290788841368 0.44865595784335965
vn -0.03980689172136349 -0.7947651841447267 0.605610199255992
vn -0.20134225258807464 -0.8707290788841368 0.44865595784335965
vn 0.042396117265348476 -0.8332164935414634 0.5513191853466476
vn 0.006008833422873462 -0.27574284837358465 -0.9612126588282733
vn 0.15295465113715964 -0.34874632134085604 -0.9246517604194189
vn 0.13404350377290206 -0.4846870205032803 -0.8643557318904854
vn 0.006008833422873462 -0.27574284837358465 -0.9612126588282733
vn 0.13404350377290206 -0.4846870205032803 -0.8643557318904854
vn -0.0292462601016222 -0.495260543705245 -0.8682520660032161
vn -0.2719105738419093 -0.9201623656282429 0.28171947166356737
vn -0.20134225258807464 -0.8707290788841368 0.44865595784335965
vn -0.13611455526955082 -0.8843152695368162 0.44660870111071566
vn 0.22688029536446214 -0.7723268897451772 0.593326644397397
vn 0.3189919878030284 -0.8308043867319849 0.45607914083453
vn 0.3894310148213928 -0.8104180982995675 0.4376825226619093
vn -0.13611455526955082 -0.8843152695368162 0.44660870111071566
vn -0.20134225258807464 -0.8707290788841368 0.44865595784335965
vn -0.05093910393398607 -0.8665342631229501 0.4965114082519838
vn 0.6471084374590915 -0.6906790752851346 -0.3228205153526103
vn 0.6816713626681277 -0.7311162752028033 -0.02816283813391473
vn 0.5319983559914568 -0.842724652464643 0.08241910792245767
vn 0.6471084374590915 -0.6906790752851346 -0.3228205153526103
vn 0.5319983559914568 -0.842724652464643 0.08241910792245767
vn 0.4357894581655696 -0.8201268765725124 -0.3707822197398015
f 1/1/1 2/2/2 3/3/3
f 4/4/4 5/5/5 6/6/6
f 7/7/7 8/8/8 9/9/9
f 10/10/10 11/11/11 12/12/12
f 13/13/13 14/14/14 15/15/15
f 16/16/16 17/17/17 18/18/18
f 19/19/19 20/20/20 21/21/21
f 22/22/22 23/23/23 24/24/24
f 25/25/25 26/26/26 27/27/27
f 28/28/28 29/29/29 30/30/30
f 31/31/31 32/32/32 33/33/33
f 34/34/34 35/35/35 36/36/36
f 37/37/37 38/38/38 39/39/39
f 40/40/40 41/41/41 42/42/42
f 43/43/43 44/44/44 45/45/45
f 46/46/46 47/47/47 48/48/48
f 49/49/49 50/50/50 51/51/51
f 52/52/52 53/53/53 54/54/54
f 55/55/55 56/56/56 57/57/57
f 58/58/58 59/59/59 60/60/60
f 61/61/61 62/62/62 63/63/63
f 64/64/64 65/65/65 66/66/66
f 67/67/67 68/68/68 69/69/69
f 70/70/70 71/71/71 72/72/72
f 73/73/73 74/74/74 75/75/75
f 76/76/76 77/77/77 78/78/78
f 79/79/79 80/80/80 81/81/81
f 82/82/82 83/83/83 84/84/84
f 85/85/85 86/86/86 87/87/87
f 88/88/88 89/89/89 90/90/90
f 91/91/91 92/92/92 93/93/93
f 94/94/94 95/95/95 96/96/96
f 97/97/97 98/98/98 99/99/99
f 100/100/100 101/101/101 102/102/102
f 103/103/103 104/104/104 105/105/105
f 106/106/106 107/107/107 108/108/108
f 109/109/109 110/110/110 111/111/111
f 112/112/112 113/113/113 114/114/114
f 115/115/115 116/116/116 117/117/117
f 118/118/118 119/119/119 120/120/120
