mtllib ArcadaCompleta.mtl
o D54C_OLV
usemtl Esmalte
v -26.768600463867188 48.30736541748047 -3.6805493526826356
v -25.9325008392334 48.416465759277344 -3.551019161261127
v -25.959400177001953 47.89326477050781 -2.998429267920063
v -26.768600463867188 48.30736541748047 -3.6805493526826356
v -25.959400177001953 47.89326477050781 -2.998429267920063
v -26.79560089111328 47.86326217651367 -3.101459234274433
v -26.79560089111328 47.86326217651367 -3.101459234274433
v -25.959400177001953 47.89326477050781 -2.998429267920063
v -26.271400451660156 47.742862701416016 -2.2612392597566107
v -26.79560089111328 47.86326217651367 -3.101459234274433
v -26.271400451660156 47.742862701416016 -2.2612392597566107
v -27.12700080871582 47.71996307373047 -2.6806392364869573
v -26.79560089111328 47.86326217651367 -3.101459234274433
v -27.56439971923828 47.74186325073242 -3.0341992073426702
v -27.469100952148438 47.97426223754883 -3.4950391941438177
v -26.79560089111328 47.86326217651367 -3.101459234274433
v -27.469100952148438 47.97426223754883 -3.4950391941438177
v -26.768600463867188 48.30736541748047 -3.6805493526826356
v -25.9325008392334 48.416465759277344 -3.551019161261127
v -25.212799072265625 47.836063385009766 -2.571219175375507
v -25.959400177001953 47.89326477050781 -2.998429267920063
v -26.098899841308594 47.529762268066406 -1.9357292347321968
v -26.550600051879883 47.76866149902344 -1.9496493034730413
v -26.271400451660156 47.742862701416016 -2.2612392597566107
v -26.098899841308594 47.529762268066406 -1.9357292347321968
v -25.656400680541992 47.525062561035156 -2.2539193325410345
v -25.36050033569336 47.50816345214844 -1.9283692531953316
v -26.098899841308594 47.529762268066406 -1.9357292347321968
v -26.390499114990234 48.121864318847656 -0.7807812385926702
v -26.89699935913086 48.07406234741211 -0.9828332357774237
v -26.098899841308594 47.529762268066406 -1.9357292347321968
v -26.972900390625 48.08146286010742 -1.3705992393861273
v -26.550600051879883 47.76866149902344 -1.9496493034730413
v -27.38610076904297 47.8239631652832 -2.2100591354737738
v -26.550600051879883 47.76866149902344 -1.9496493034730413
v -26.972900390625 48.08146286010742 -1.3705992393861273
v -27.38610076904297 47.8239631652832 -2.2100591354737738
v -27.12700080871582 47.71996307373047 -2.6806392364869573
v -26.271400451660156 47.742862701416016 -2.2612392597566107
v -27.38610076904297 47.8239631652832 -2.2100591354737738
v -26.271400451660156 47.742862701416016 -2.2612392597566107
v -26.550600051879883 47.76866149902344 -1.9496493034730413
v -25.36050033569336 47.50816345214844 -1.9283692531953316
v -25.842100143432617 48.04606246948242 -1.1770492487321356
v -26.098899841308594 47.529762268066406 -1.9357292347321968
v -25.656400680541992 47.525062561035156 -2.2539193325410345
v -26.271400451660156 47.742862701416016 -2.2612392597566107
v -25.959400177001953 47.89326477050781 -2.998429267920063
v -25.656400680541992 47.525062561035156 -2.2539193325410345
v -25.959400177001953 47.89326477050781 -2.998429267920063
v -25.212799072265625 47.836063385009766 -2.571219175375507
v -26.271400451660156 47.742862701416016 -2.2612392597566107
v -25.656400680541992 47.525062561035156 -2.2539193325410345
v -26.098899841308594 47.529762268066406 -1.9357292347321968
v -25.842100143432617 48.04606246948242 -1.1770492487321356
v -26.390499114990234 48.121864318847656 -0.7807812385926702
v -26.098899841308594 47.529762268066406 -1.9357292347321968
v -26.89699935913086 48.07406234741211 -0.9828332357774237
v -26.972900390625 48.08146286010742 -1.3705992393861273
v -26.098899841308594 47.529762268066406 -1.9357292347321968
v -27.12700080871582 47.71996307373047 -2.6806392364869573
v -27.704599380493164 47.765960693359375 -2.6036691360841253
v -27.56439971923828 47.74186325073242 -3.0341992073426702
v -27.12700080871582 47.71996307373047 -2.6806392364869573
v -27.56439971923828 47.74186325073242 -3.0341992073426702
v -26.79560089111328 47.86326217651367 -3.101459234274433
vt 0.526540994644165 0.9398180246353149
vt 0.4032190144062042 0.9249420166015625
vt 0.4071919918060303 0.8614799976348877
vt 0.526540994644165 0.9398180246353149
vt 0.4071919918060303 0.8614799976348877
vt 0.5305209755897522 0.8733119964599609
vt 0.5305209755897522 0.8733119964599609
vt 0.4071919918060303 0.8614799976348877
vt 0.4532090127468109 0.7768170237541199
vt 0.5305209755897522 0.8733119964599609
vt 0.4532090127468109 0.7768170237541199
vt 0.5794050097465515 0.8249830007553101
vt 0.5305209755897522 0.8733119964599609
vt 0.6439149975776672 0.8655880093574524
vt 0.6298649907112122 0.9185119867324829
vt 0.5305209755897522 0.8733119964599609
vt 0.6298649907112122 0.9185119867324829
vt 0.526540994644165 0.9398180246353149
vt 0.4032190144062042 0.9249420166015625
vt 0.29708001017570496 0.8124169707298279
vt 0.4071919918060303 0.8614799976348877
vt 0.4277679920196533 0.739434003829956
vt 0.4943940043449402 0.7410330176353455
vt 0.4532090127468109 0.7768170237541199
vt 0.4277679920196533 0.739434003829956
vt 0.3625040054321289 0.7759770154953003
vt 0.3188610076904297 0.7385889887809753
vt 0.4277679920196533 0.739434003829956
vt 0.4707779884338379 0.606793999671936
vt 0.5454869866371155 0.6299989819526672
vt 0.4277679920196533 0.739434003829956
vt 0.5566750168800354 0.6745319962501526
vt 0.4943940043449402 0.7410330176353455
vt 0.6176199913024902 0.7709400057792664
vt 0.4943940043449402 0.7410330176353455
vt 0.5566750168800354 0.6745319962501526
vt 0.6176199913024902 0.7709400057792664
vt 0.5794050097465515 0.8249830007553101
vt 0.4532090127468109 0.7768170237541199
vt 0.6176199913024902 0.7709400057792664
vt 0.4532090127468109 0.7768170237541199
vt 0.4943940043449402 0.7410330176353455
vt 0.3188610076904297 0.7385889887809753
vt 0.3898859918117523 0.6523039937019348
vt 0.4277679920196533 0.739434003829956
vt 0.3625040054321289 0.7759770154953003
vt 0.4532090127468109 0.7768170237541199
vt 0.4071919918060303 0.8614799976348877
vt 0.3625040054321289 0.7759770154953003
vt 0.4071919918060303 0.8614799976348877
vt 0.29708001017570496 0.8124169707298279
vt 0.4532090127468109 0.7768170237541199
vt 0.3625040054321289 0.7759770154953003
vt 0.4277679920196533 0.739434003829956
vt 0.3898859918117523 0.6523039937019348
vt 0.4707779884338379 0.606793999671936
vt 0.4277679920196533 0.739434003829956
vt 0.5454869866371155 0.6299989819526672
vt 0.5566750168800354 0.6745319962501526
vt 0.4277679920196533 0.739434003829956
vt 0.5794050097465515 0.8249830007553101
vt 0.6645960211753845 0.8161429762840271
vt 0.6439149975776672 0.8655880093574524
vt 0.5794050097465515 0.8249830007553101
vt 0.6439149975776672 0.8655880093574524
vt 0.5305209755897522 0.8733119964599609
vn 0.17004521713926732 -0.7626779837677496 -0.6240247729089122
vn 0.25478620698221366 -0.7083496001242149 -0.6582741319051519
vn 0.11042507663564131 -0.8538883867021603 -0.5086068476782384
vn 0.17004521713926732 -0.7626779837677496 -0.6240247729089122
vn 0.11042507663564131 -0.8538883867021603 -0.5086068476782384
vn 0.12341313252728232 -0.9132664939277776 -0.3882183789939213
vn 0.12341313252728232 -0.9132664939277776 -0.3882183789939213
vn 0.11042507663564131 -0.8538883867021603 -0.5086068476782384
vn -0.0891954751363279 -0.9838982611692741 -0.15488182231392938
vn 0.12341313252728232 -0.9132664939277776 -0.3882183789939213
vn -0.0891954751363279 -0.9838982611692741 -0.15488182231392938
vn 0.03889348390103564 -0.9978275977697486 -0.053173132680825644
vn 0.12341313252728232 -0.9132664939277776 -0.3882183789939213
vn 0.06948091128147633 -0.9657626361929945 -0.24994986197446284
vn 0.1682927481681573 -0.8352156987709357 -0.5235382387568142
vn 0.12341313252728232 -0.9132664939277776 -0.3882183789939213
vn 0.1682927481681573 -0.8352156987709357 -0.5235382387568142
vn 0.17004521713926732 -0.7626779837677496 -0.6240247729089122
vn 0.25478620698221366 -0.7083496001242149 -0.6582741319051519
vn 0.27541418402880796 -0.7639073920378596 -0.5836030531325737
vn 0.11042507663564131 -0.8538883867021603 -0.5086068476782384
vn -0.14380268140099484 -0.9443573549506382 0.295820849455407
vn -0.2527893156164284 -0.9536173232557124 0.16343672383154226
vn -0.0891954751363279 -0.9838982611692741 -0.15488182231392938
vn -0.14380268140099484 -0.9443573549506382 0.295820849455407
vn -0.08506875500594695 -0.9275363104459355 -0.36392265624178877
vn -0.030675211369697645 -0.9018209414431029 0.4310197454666085
vn -0.14380268140099484 -0.9443573549506382 0.295820849455407
vn 0.06272680453391381 -0.8816031560680412 0.4678046848887184
vn -0.2523213588119456 -0.9160004124434832 0.3118928923375169
vn -0.14380268140099484 -0.9443573549506382 0.295820849455407
vn -0.34696986700874377 -0.9093457906949234 0.22956947604888386
vn -0.2527893156164284 -0.9536173232557124 0.16343672383154226
vn -0.11448258388769766 -0.9669203916924142 0.22794449788442875
vn -0.2527893156164284 -0.9536173232557124 0.16343672383154226
vn -0.34696986700874377 -0.9093457906949234 0.22956947604888386
vn -0.11448258388769766 -0.9669203916924142 0.22794449788442875
vn 0.03889348390103564 -0.9978275977697486 -0.053173132680825644
vn -0.0891954751363279 -0.9838982611692741 -0.15488182231392938
vn -0.11448258388769766 -0.9669203916924142 0.22794449788442875
vn -0.0891954751363279 -0.9838982611692741 -0.15488182231392938
vn -0.2527893156164284 -0.9536173232557124 0.16343672383154226
vn -0.030675211369697645 -0.9018209414431029 0.4310197454666085
vn 0.0988064461733422 -0.8379174292179841 0.5367789750049075
vn -0.14380268140099484 -0.9443573549506382 0.295820849455407
vn -0.08506875500594695 -0.9275363104459355 -0.36392265624178877
vn -0.0891954751363279 -0.9838982611692741 -0.15488182231392938
vn 0.11042507663564131 -0.8538883867021603 -0.5086068476782384
vn -0.08506875500594695 -0.9275363104459355 -0.36392265624178877
vn 0.11042507663564131 -0.8538883867021603 -0.5086068476782384
vn 0.27541418402880796 -0.7639073920378596 -0.5836030531325737
vn -0.0891954751363279 -0.9838982611692741 -0.15488182231392938
vn -0.08506875500594695 -0.9275363104459355 -0.36392265624178877
vn -0.14380268140099484 -0.9443573549506382 0.295820849455407
vn 0.0988064461733422 -0.8379174292179841 0.5367789750049075
vn 0.06272680453391381 -0.8816031560680412 0.4678046848887184
vn -0.14380268140099484 -0.9443573549506382 0.295820849455407
vn -0.2523213588119456 -0.9160004124434832 0.3118928923375169
vn -0.34696986700874377 -0.9093457906949234 0.22956947604888386
vn -0.14380268140099484 -0.9443573549506382 0.295820849455407
vn 0.03889348390103564 -0.9978275977697486 -0.053173132680825644
vn -0.07520075845967839 -0.9966771547663104 0.031296886331091484
vn 0.06948091128147633 -0.9657626361929945 -0.24994986197446284
vn 0.03889348390103564 -0.9978275977697486 -0.053173132680825644
vn 0.06948091128147633 -0.9657626361929945 -0.24994986197446284
vn 0.12341313252728232 -0.9132664939277776 -0.3882183789939213
f 1/1/1 2/2/2 3/3/3
f 4/4/4 5/5/5 6/6/6
f 7/7/7 8/8/8 9/9/9
f 10/10/10 11/11/11 12/12/12
f 13/13/13 14/14/14 15/15/15
f 16/16/16 17/17/17 18/18/18
f 19/19/19 20/20/20 21/21/21
f 22/22/22 23/23/23 24/24/24
f 25/25/25 26/26/26 27/27/27
f 28/28/28 29/29/29 30/30/30
f 31/31/31 32/32/32 33/33/33
f 34/34/34 35/35/35 36/36/36
f 37/37/37 38/38/38 39/39/39
f 40/40/40 41/41/41 42/42/42
f 43/43/43 44/44/44 45/45/45
f 46/46/46 47/47/47 48/48/48
f 49/49/49 50/50/50 51/51/51
f 52/52/52 53/53/53 54/54/54
f 55/55/55 56/56/56 57/57/57
f 58/58/58 59/59/59 60/60/60
f 61/61/61 62/62/62 63/63/63
f 64/64/64 65/65/65 66/66/66
