mtllib ArcadaCompleta.mtl
o D54C_CMP
usemtl Esmalte
v -24.29050064086914 48.23286437988281 -2.6230492287049745
v -24.78569984436035 47.760162353515625 -1.9191091947923162
v -25.212799072265625 47.836063385009766 -2.571219175375507
v -24.29050064086914 48.23286437988281 -2.6230492287049745
v -25.212799072265625 47.836063385009766 -2.571219175375507
v -24.87529945373535 48.24456024169922 -3.128409355200336
v -24.29050064086914 48.23286437988281 -2.6230492287049745
v -23.884199142456055 48.438560485839844 -2.0585393600831483
v -24.29010009765625 48.095462799072266 -1.7065292292008856
v -24.29050064086914 48.23286437988281 -2.6230492287049745
v -24.29010009765625 48.095462799072266 -1.7065292292008856
v -24.78569984436035 47.760162353515625 -1.9191091947923162
v -24.44540023803711 52.36076354980469 -2.459309309042498
v -24.100299835205078 52.281761169433594 -1.5997192554841488
v -23.90519905090332 51.26866149902344 -2.146879165686175
v -24.44540023803711 52.36076354980469 -2.459309309042498
v -23.90519905090332 51.26866149902344 -2.146879165686175
v -24.319299697875977 51.269264221191406 -3.1219193630586117
v -24.079099655151367 50.23276138305664 -3.417459219015643
v -23.772199630737305 50.23166275024414 -2.210599153555438
v -23.547300338745117 49.09306335449219 -2.197569339788959
v -24.079099655151367 50.23276138305664 -3.417459219015643
v -23.547300338745117 49.09306335449219 -2.197569339788959
v -23.935400009155273 48.91936492919922 -3.267889230764911
v -23.496700286865234 48.643760681152344 -1.4972992830644107
v -24.003799438476562 48.3770637512207 -1.3987992697129705
v -24.29010009765625 48.095462799072266 -1.7065292292008856
v -23.496700286865234 48.643760681152344 -1.4972992830644107
v -24.29010009765625 48.095462799072266 -1.7065292292008856
v -23.884199142456055 48.438560485839844 -2.0585393600831483
v -23.935400009155273 48.91936492919922 -3.267889230764911
v -24.6471004486084 48.922264099121094 -3.7695192985902284
v -24.783300399780273 50.23246383666992 -3.9581093483338803
v -23.935400009155273 48.91936492919922 -3.267889230764911
v -24.783300399780273 50.23246383666992 -3.9581093483338803
v -24.079099655151367 50.23276138305664 -3.417459219015643
v -23.537900924682617 50.231163024902344 -1.4928192787538026
v -23.270700454711914 49.27066421508789 -1.5554892712007022
v -23.547300338745117 49.09306335449219 -2.197569339788959
v -23.537900924682617 50.231163024902344 -1.4928192787538026
v -23.547300338745117 49.09306335449219 -2.197569339788959
v -23.772199630737305 50.23166275024414 -2.210599153555438
v -24.78569984436035 47.760162353515625 -1.9191091947923162
v -25.18600082397461 48.157562255859375 -1.1715892248521307
v -25.842100143432617 48.04606246948242 -1.1770492487321356
v -24.78569984436035 47.760162353515625 -1.9191091947923162
v -25.842100143432617 48.04606246948242 -1.1770492487321356
v -25.36050033569336 47.50816345214844 -1.9283692531953316
v -24.78569984436035 47.760162353515625 -1.9191091947923162
v -24.62779998779297 48.183860778808594 -1.1385392837892034
v -25.18600082397461 48.157562255859375 -1.1715892248521307
v -24.003799438476562 48.3770637512207 -1.3987992697129705
v -24.33300018310547 48.2708625793457 -1.2305892401109197
v -24.29010009765625 48.095462799072266 -1.7065292292008856
v -25.9325008392334 48.416465759277344 -3.551019161261127
v -24.87529945373535 48.24456024169922 -3.128409355200336
v -25.212799072265625 47.836063385009766 -2.571219175375507
v -25.832000732421875 48.935264587402344 -4.011519163168476
v -25.908199310302734 50.16486358642578 -4.174629419363544
v -24.783300399780273 50.23246383666992 -3.9581093483338803
v -25.832000732421875 48.935264587402344 -4.011519163168476
v -24.783300399780273 50.23246383666992 -3.9581093483338803
v -24.6471004486084 48.922264099121094 -3.7695192985902284
v -24.319299697875977 51.269264221191406 -3.1219193630586117
v -23.90519905090332 51.26866149902344 -2.146879165686175
v -23.772199630737305 50.23166275024414 -2.210599153555438
v -24.319299697875977 51.269264221191406 -3.1219193630586117
v -23.772199630737305 50.23166275024414 -2.210599153555438
v -24.079099655151367 50.23276138305664 -3.417459219015643
v -24.319299697875977 51.269264221191406 -3.1219193630586117
v -24.95400047302246 51.2697639465332 -3.835249155081317
v -25.096900939941406 52.45366287231445 -3.184029310263201
v -24.319299697875977 51.269264221191406 -3.1219193630586117
v -25.096900939941406 52.45366287231445 -3.184029310263201
v -24.44540023803711 52.36076354980469 -2.459309309042498
v -23.884199142456055 48.438560485839844 -2.0585393600831483
v -23.547300338745117 49.09306335449219 -2.197569339788959
v -23.270700454711914 49.27066421508789 -1.5554892712007022
v -23.884199142456055 48.438560485839844 -2.0585393600831483
v -23.270700454711914 49.27066421508789 -1.5554892712007022
v -23.496700286865234 48.643760681152344 -1.4972992830644107
v -23.547300338745117 49.09306335449219 -2.197569339788959
v -23.884199142456055 48.438560485839844 -2.0585393600831483
v -24.29050064086914 48.23286437988281 -2.6230492287049745
v -23.547300338745117 49.09306335449219 -2.197569339788959
v -24.29050064086914 48.23286437988281 -2.6230492287049745
v -23.935400009155273 48.91936492919922 -3.267889230764911
v -23.772199630737305 50.23166275024414 -2.210599153555438
v -23.90519905090332 51.26866149902344 -2.146879165686175
v -23.76580047607422 51.26756286621094 -1.4962992363343688
v -23.772199630737305 50.23166275024414 -2.210599153555438
v -23.76580047607422 51.26756286621094 -1.4962992363343688
v -23.537900924682617 50.231163024902344 -1.4928192787538026
v -24.29010009765625 48.095462799072266 -1.7065292292008856
v -24.33300018310547 48.2708625793457 -1.2305892401109197
v -24.62779998779297 48.183860778808594 -1.1385392837892034
v -24.29010009765625 48.095462799072266 -1.7065292292008856
v -24.62779998779297 48.183860778808594 -1.1385392837892034
v -24.78569984436035 47.760162353515625 -1.9191091947923162
v -24.87529945373535 48.24456024169922 -3.128409355200336
v -24.6471004486084 48.922264099121094 -3.7695192985902284
v -23.935400009155273 48.91936492919922 -3.267889230764911
v -24.87529945373535 48.24456024169922 -3.128409355200336
v -23.935400009155273 48.91936492919922 -3.267889230764911
v -24.29050064086914 48.23286437988281 -2.6230492287049745
v -24.783300399780273 50.23246383666992 -3.9581093483338803
v -24.95400047302246 51.2697639465332 -3.835249155081317
v -24.319299697875977 51.269264221191406 -3.1219193630586117
v -24.783300399780273 50.23246383666992 -3.9581093483338803
v -24.319299697875977 51.269264221191406 -3.1219193630586117
v -24.079099655151367 50.23276138305664 -3.417459219015643
v -24.6471004486084 48.922264099121094 -3.7695192985902284
v -24.87529945373535 48.24456024169922 -3.128409355200336
v -25.9325008392334 48.416465759277344 -3.551019161261127
v -24.6471004486084 48.922264099121094 -3.7695192985902284
v -25.9325008392334 48.416465759277344 -3.551019161261127
v -25.832000732421875 48.935264587402344 -4.011519163168476
v -25.212799072265625 47.836063385009766 -2.571219175375507
v -24.78569984436035 47.760162353515625 -1.9191091947923162
v -25.36050033569336 47.50816345214844 -1.9283692531953316
v -25.212799072265625 47.836063385009766 -2.571219175375507
v -25.36050033569336 47.50816345214844 -1.9283692531953316
v -25.656400680541992 47.525062561035156 -2.2539193325410345
vt 0.16104300320148468 0.81836998462677
vt 0.23407399654388428 0.737525999546051
vt 0.29708001017570496 0.8124169707298279
vt 0.16104300320148468 0.81836998462677
vt 0.29708001017570496 0.8124169707298279
vt 0.24728600680828094 0.8764070272445679
vt 0.16104300320148468 0.81836998462677
vt 0.10111799836158752 0.7535380125045776
vt 0.1609800010919571 0.7131119966506958
vt 0.16104300320148468 0.81836998462677
vt 0.1609800010919571 0.7131119966506958
vt 0.23407399654388428 0.737525999546051
vt 0.7995650172233582 0.9525830149650574
vt 0.7008460164070129 0.9371950030326843
vt 0.7636839747428894 0.7398260235786438
vt 0.7995650172233582 0.9525830149650574
vt 0.7636839747428894 0.7398260235786438
vt 0.8756620287895203 0.7399380207061768
vt 0.909604012966156 0.5380210280418396
vt 0.7710009813308716 0.5378080010414124
vt 0.7695040106773376 0.31599199771881104
vt 0.909604012966156 0.5380210280418396
vt 0.7695040106773376 0.31599199771881104
vt 0.8924260139465332 0.2821589708328247
vt 0.04395940154790878 0.6890829801559448
vt 0.11875300109386444 0.6777700185775757
vt 0.1609800010919571 0.7131119966506958
vt 0.04395940154790878 0.6890829801559448
vt 0.1609800010919571 0.7131119966506958
vt 0.10111799836158752 0.7535380125045776
vt 0.10867100208997726 0.2821589708328247
vt 0.21363499760627747 0.28271496295928955
vt 0.2337310016155243 0.5379670262336731
vt 0.10867100208997726 0.2821589708328247
vt 0.2337310016155243 0.5379670262336731
vt 0.1298539936542511 0.5380210280418396
vt 0.6885690093040466 0.5377010107040405
vt 0.6957650184631348 0.35060203075408936
vt 0.7695040106773376 0.31599199771881104
vt 0.6885690093040466 0.5377010107040405
vt 0.7695040106773376 0.31599199771881104
vt 0.7710009813308716 0.5378080010414124
vt 0.23407399654388428 0.737525999546051
vt 0.2931149899959564 0.6516759991645813
vt 0.3898859918117523 0.6523039937019348
vt 0.23407399654388428 0.737525999546051
vt 0.3898859918117523 0.6523039937019348
vt 0.3188610076904297 0.7385889887809753
vt 0.23407399654388428 0.737525999546051
vt 0.21078400313854218 0.6478809714317322
vt 0.2931149899959564 0.6516759991645813
vt 0.11875300109386444 0.6777700185775757
vt 0.16730999946594238 0.6584519743919373
vt 0.1609800010919571 0.7131119966506958
vt 0.4032190144062042 0.9249420166015625
vt 0.24728600680828094 0.8764070272445679
vt 0.29708001017570496 0.8124169707298279
vt 0.3884040117263794 0.2852439880371094
vt 0.39963299036026 0.5247960090637207
vt 0.2337310016155243 0.5379670262336731
vt 0.3884040117263794 0.2852439880371094
vt 0.2337310016155243 0.5379670262336731
vt 0.21363499760627747 0.28271496295928955
vt 0.8756620287895203 0.7399380207061768
vt 0.7636839747428894 0.7398260235786438
vt 0.7710009813308716 0.5378080010414124
vt 0.8756620287895203 0.7399380207061768
vt 0.7710009813308716 0.5378080010414124
vt 0.909604012966156 0.5380210280418396
vt 0.8756620287895203 0.7399380207061768
vt 0.957584023475647 0.740032970905304
vt 0.882794976234436 0.9706760048866272
vt 0.8756620287895203 0.7399380207061768
vt 0.882794976234436 0.9706760048866272
vt 0.7995650172233582 0.9525830149650574
vt 0.7535380125045776 0.1884869933128357
vt 0.7695040106773376 0.31599199771881104
vt 0.6957650184631348 0.35060203075408936
vt 0.7535380125045776 0.1884869933128357
vt 0.6957650184631348 0.35060203075408936
vt 0.6890829801559448 0.2284579873085022
vt 0.7695040106773376 0.31599199771881104
vt 0.7535380125045776 0.1884869933128357
vt 0.81836998462677 0.1484140157699585
vt 0.7695040106773376 0.31599199771881104
vt 0.81836998462677 0.1484140157699585
vt 0.8924260139465332 0.2821589708328247
vt 0.7710009813308716 0.5378080010414124
vt 0.7636839747428894 0.7398260235786438
vt 0.6889669895172119 0.7396150231361389
vt 0.7710009813308716 0.5378080010414124
vt 0.6889669895172119 0.7396150231361389
vt 0.6885690093040466 0.5377010107040405
vt 0.1609800010919571 0.7131119966506958
vt 0.16730999946594238 0.6584519743919373
vt 0.21078400313854218 0.6478809714317322
vt 0.1609800010919571 0.7131119966506958
vt 0.21078400313854218 0.6478809714317322
vt 0.23407399654388428 0.737525999546051
vt 0.24728600680828094 0.8764070272445679
vt 0.21363499760627747 0.9500349760055542
vt 0.10867100208997726 0.8924260139465332
vt 0.24728600680828094 0.8764070272445679
vt 0.10867100208997726 0.8924260139465332
vt 0.16104300320148468 0.81836998462677
vt 0.9716939926147461 0.5379670262336731
vt 0.957584023475647 0.740032970905304
vt 0.8756620287895203 0.7399380207061768
vt 0.2337310016155243 0.5379670262336731
vt 0.1652889996767044 0.7399380207061768
vt 0.1298539936542511 0.5380210280418396
vt 0.21363499760627747 0.9500349760055542
vt 0.24728600680828094 0.8764070272445679
vt 0.4032190144062042 0.9249420166015625
vt 0.21363499760627747 0.9500349760055542
vt 0.4032190144062042 0.9249420166015625
vt 0.3884040117263794 0.9778270125389099
vt 0.29708001017570496 0.8124169707298279
vt 0.23407399654388428 0.737525999546051
vt 0.3188610076904297 0.7385889887809753
vt 0.29708001017570496 0.8124169707298279
vt 0.3188610076904297 0.7385889887809753
vt 0.3625040054321289 0.7759770154953003
vn 0.5848709292302946 -0.7483241490824857 -0.312948820162763
vn 0.34820623955376423 -0.9172630174912002 0.1933415927284264
vn 0.2771037294751008 -0.8604415288235765 -0.4276141936216997
vn 0.5848709292302946 -0.7483241490824857 -0.312948820162763
vn 0.2771037294751008 -0.8604415288235765 -0.4276141936216997
vn 0.27643900754376727 -0.7653131386616427 -0.5812721177728053
vn 0.5848709292302946 -0.7483241490824857 -0.312948820162763
vn 0.7527992578873459 -0.6009666802756847 -0.2685746200270684
vn 0.5370223248030804 -0.8406678605063418 0.0698897057855047
vn 0.5848709292302946 -0.7483241490824857 -0.312948820162763
vn 0.5370223248030804 -0.8406678605063418 0.0698897057855047
vn 0.34820623955376423 -0.9172630174912002 0.1933415927284264
vn 0.8223584211793978 0.3708910039989319 -0.4314701499153704
vn 0.8818823370128167 0.3439742795996786 -0.32243641022486086
vn 0.9079790803693671 0.24909487474789743 -0.33693579950181546
vn 0.8223584211793978 0.3708910039989319 -0.4314701499153704
vn 0.9079790803693671 0.24909487474789743 -0.33693579950181546
vn 0.7993271201863096 0.3172235727783192 -0.5103384757280403
vn 0.8681997095485992 0.1717841663157849 -0.4655313786877517
vn 0.9398779865179057 0.19536213819865747 -0.280112487078845
vn 0.9458848727859908 -0.06733522488587314 -0.3174394035468799
vn 0.8681997095485992 0.1717841663157849 -0.4655313786877517
vn 0.9458848727859908 -0.06733522488587314 -0.3174394035468799
vn 0.7422988124647546 -0.30143325342811095 -0.5984400276896251
vn 0.7156578148941787 -0.676370785039649 -0.17423103376189522
vn 0.4688412028946534 -0.8240843552152938 0.31791964701428577
vn 0.5370223248030804 -0.8406678605063418 0.0698897057855047
vn 0.7156578148941787 -0.676370785039649 -0.17423103376189522
vn 0.5370223248030804 -0.8406678605063418 0.0698897057855047
vn 0.7527992578873459 -0.6009666802756847 -0.2685746200270684
vn 0.7422988124647546 -0.30143325342811095 -0.5984400276896251
vn 0.31416438373814015 -0.42497742942885725 -0.8489375268336741
vn 0.46617008071608096 0.012403202737041675 -0.8846081711170356
vn 0.7422988124647546 -0.30143325342811095 -0.5984400276896251
vn 0.46617008071608096 0.012403202737041675 -0.8846081711170356
vn 0.8681997095485992 0.1717841663157849 -0.4655313786877517
vn 0.9130581084829242 0.21492859870707 -0.3465985977920274
vn 0.9045627578694658 -0.13767728587683722 -0.4034986766139064
vn 0.9458848727859908 -0.06733522488587314 -0.3174394035468799
vn 0.9130581084829242 0.21492859870707 -0.3465985977920274
vn 0.9458848727859908 -0.06733522488587314 -0.3174394035468799
vn 0.9398779865179057 0.19536213819865747 -0.280112487078845
vn 0.34820623955376423 -0.9172630174912002 0.1933415927284264
vn 0.08181898058811739 -0.8611947048521784 0.5016466233815299
vn 0.2186313779723335 -0.7648796727890219 0.6059368009290058
vn 0.34820623955376423 -0.9172630174912002 0.1933415927284264
vn 0.2186313779723335 -0.7648796727890219 0.6059368009290058
vn 0.38702174312655196 -0.9087349606092217 0.1562528134589627
vn 0.34820623955376423 -0.9172630174912002 0.1933415927284264
vn 0.22475235902480595 -0.8772754971785539 0.4241156436196453
vn 0.08181898058811739 -0.8611947048521784 0.5016466233815299
vn 0.4688412028946534 -0.8240843552152938 0.31791964701428577
vn 0.40666931880990886 -0.8447145799452082 0.3479616984190579
vn 0.5370223248030804 -0.8406678605063418 0.0698897057855047
vn 0.13245271203412023 -0.7379251750340985 -0.6617572932168573
vn 0.27643900754376727 -0.7653131386616427 -0.5812721177728053
vn 0.2771037294751008 -0.8604415288235765 -0.4276141936216997
vn 0.19010816199112981 -0.24783077424898947 -0.9499677858114458
vn 0.19449202292496365 -0.11713625235391749 -0.9738849785282832
vn 0.46617008071608096 0.012403202737041675 -0.8846081711170356
vn 0.19010816199112981 -0.24783077424898947 -0.9499677858114458
vn 0.46617008071608096 0.012403202737041675 -0.8846081711170356
vn 0.31416438373814015 -0.42497742942885725 -0.8489375268336741
vn 0.7993271201863096 0.3172235727783192 -0.5103384757280403
vn 0.9079790803693671 0.24909487474789743 -0.33693579950181546
vn 0.9398779865179057 0.19536213819865747 -0.280112487078845
vn 0.7993271201863096 0.3172235727783192 -0.5103384757280403
vn 0.9398779865179057 0.19536213819865747 -0.280112487078845
vn 0.8681997095485992 0.1717841663157849 -0.4655313786877517
vn 0.7993271201863096 0.3172235727783192 -0.5103384757280403
vn 0.7080500678229974 0.31944206450964047 -0.6297792223292757
vn 0.6892994857630527 0.4216565256904291 -0.5891281637041872
vn 0.7993271201863096 0.3172235727783192 -0.5103384757280403
vn 0.6892994857630527 0.4216565256904291 -0.5891281637041872
vn 0.8223584211793978 0.3708910039989319 -0.4314701499153704
vn 0.7527992578873459 -0.6009666802756847 -0.2685746200270684
vn 0.9458848727859908 -0.06733522488587314 -0.3174394035468799
vn 0.9045627578694658 -0.13767728587683722 -0.4034986766139064
vn 0.7527992578873459 -0.6009666802756847 -0.2685746200270684
vn 0.9045627578694658 -0.13767728587683722 -0.4034986766139064
vn 0.7156578148941787 -0.676370785039649 -0.17423103376189522
vn 0.9458848727859908 -0.06733522488587314 -0.3174394035468799
vn 0.7527992578873459 -0.6009666802756847 -0.2685746200270684
vn 0.5848709292302946 -0.7483241490824857 -0.312948820162763
vn 0.9458848727859908 -0.06733522488587314 -0.3174394035468799
vn 0.5848709292302946 -0.7483241490824857 -0.312948820162763
vn 0.7422988124647546 -0.30143325342811095 -0.5984400276896251
vn 0.9398779865179057 0.19536213819865747 -0.280112487078845
vn 0.9079790803693671 0.24909487474789743 -0.33693579950181546
vn 0.9501912868137876 0.17292523203913157 -0.259294008005143
vn 0.9398779865179057 0.19536213819865747 -0.280112487078845
vn 0.9501912868137876 0.17292523203913157 -0.259294008005143
vn 0.9130581084829242 0.21492859870707 -0.3465985977920274
vn 0.5370223248030804 -0.8406678605063418 0.0698897057855047
vn 0.40666931880990886 -0.8447145799452082 0.3479616984190579
vn 0.22475235902480595 -0.8772754971785539 0.4241156436196453
vn 0.5370223248030804 -0.8406678605063418 0.0698897057855047
vn 0.22475235902480595 -0.8772754971785539 0.4241156436196453
vn 0.34820623955376423 -0.9172630174912002 0.1933415927284264
vn 0.27643900754376727 -0.7653131386616427 -0.5812721177728053
vn 0.31416438373814015 -0.42497742942885725 -0.8489375268336741
vn 0.7422988124647546 -0.30143325342811095 -0.5984400276896251
vn 0.27643900754376727 -0.7653131386616427 -0.5812721177728053
vn 0.7422988124647546 -0.30143325342811095 -0.5984400276896251
vn 0.5848709292302946 -0.7483241490824857 -0.312948820162763
vn 0.46617008071608096 0.012403202737041675 -0.8846081711170356
vn 0.7080500678229974 0.31944206450964047 -0.6297792223292757
vn 0.7993271201863096 0.3172235727783192 -0.5103384757280403
vn 0.46617008071608096 0.012403202737041675 -0.8846081711170356
vn 0.7993271201863096 0.3172235727783192 -0.5103384757280403
vn 0.8681997095485992 0.1717841663157849 -0.4655313786877517
vn 0.31416438373814015 -0.42497742942885725 -0.8489375268336741
vn 0.27643900754376727 -0.7653131386616427 -0.5812721177728053
vn 0.13245271203412023 -0.7379251750340985 -0.6617572932168573
vn 0.31416438373814015 -0.42497742942885725 -0.8489375268336741
vn 0.13245271203412023 -0.7379251750340985 -0.6617572932168573
vn 0.19010816199112981 -0.24783077424898947 -0.9499677858114458
vn 0.2771037294751008 -0.8604415288235765 -0.4276141936216997
vn 0.34820623955376423 -0.9172630174912002 0.1933415927284264
vn 0.38702174312655196 -0.9087349606092217 0.1562528134589627
vn 0.2771037294751008 -0.8604415288235765 -0.4276141936216997
vn 0.38702174312655196 -0.9087349606092217 0.1562528134589627
vn 0.34806754938674145 -0.8650616201504087 -0.36127188432904395
f 1/1/1 2/2/2 3/3/3
f 4/4/4 5/5/5 6/6/6
f 7/7/7 8/8/8 9/9/9
f 10/10/10 11/11/11 12/12/12
f 13/13/13 14/14/14 15/15/15
f 16/16/16 17/17/17 18/18/18
f 19/19/19 20/20/20 21/21/21
f 22/22/22 23/23/23 24/24/24
f 25/25/25 26/26/26 27/27/27
f 28/28/28 29/29/29 30/30/30
f 31/31/31 32/32/32 33/33/33
f 34/34/34 35/35/35 36/36/36
f 37/37/37 38/38/38 39/39/39
f 40/40/40 41/41/41 42/42/42
f 43/43/43 44/44/44 45/45/45
f 46/46/46 47/47/47 48/48/48
f 49/49/49 50/50/50 51/51/51
f 52/52/52 53/53/53 54/54/54
f 55/55/55 56/56/56 57/57/57
f 58/58/58 59/59/59 60/60/60
f 61/61/61 62/62/62 63/63/63
f 64/64/64 65/65/65 66/66/66
f 67/67/67 68/68/68 69/69/69
f 70/70/70 71/71/71 72/72/72
f 73/73/73 74/74/74 75/75/75
f 76/76/76 77/77/77 78/78/78
f 79/79/79 80/80/80 81/81/81
f 82/82/82 83/83/83 84/84/84
f 85/85/85 86/86/86 87/87/87
f 88/88/88 89/89/89 90/90/90
f 91/91/91 92/92/92 93/93/93
f 94/94/94 95/95/95 96/96/96
f 97/97/97 98/98/98 99/99/99
f 100/100/100 101/101/101 102/102/102
f 103/103/103 104/104/104 105/105/105
f 106/106/106 107/107/107 108/108/108
f 109/109/109 110/110/110 111/111/111
f 112/112/112 113/113/113 114/114/114
f 115/115/115 116/116/116 117/117/117
f 118/118/118 119/119/119 120/120/120
f 121/121/121 122/122/122 123/123/123
