mtllib ArcadaCompleta.mtl
o D55C_M
usemtl Esmalte
v -31.450599670410156 48.76516342163086 -0.24356725744108926
v -31.54949951171875 48.64956283569336 0.7649887508978389
v -31.96269989013672 48.42276382446289 0.6297107643713497
v -31.450599670410156 48.76516342163086 -0.24356725744108926
v -31.96269989013672 48.42276382446289 0.6297107643713497
v -31.858200073242188 48.412662506103516 -0.24351926080088396
v -31.450599670410156 48.76516342163086 -0.24356725744108926
v -31.348400115966797 49.470863342285156 -0.24358124963145014
v -31.433700561523438 49.3509635925293 0.8540807671179319
v -31.450599670410156 48.76516342163086 -0.24356725744108926
v -31.433700561523438 49.3509635925293 0.8540807671179319
v -31.54949951171875 48.64956283569336 0.7649887508978389
v -31.450599670410156 48.76516342163086 -0.24356725744108926
v -31.858200073242188 48.412662506103516 -0.24351926080088396
v -32.322898864746094 48.32786560058594 -1.5961593084702947
v -31.450599670410156 48.76516342163086 -0.24356725744108926
v -32.322898864746094 48.32786560058594 -1.5961593084702947
v -31.706499099731445 48.633262634277344 -1.7089492969880558
v -31.315000534057617 50.4499626159668 -0.2436062537799332
v -31.356300354003906 50.45036315917969 0.9545437402357605
v -31.433700561523438 49.3509635925293 0.8540807671179319
v -31.315000534057617 50.4499626159668 -0.2436062537799332
v -31.433700561523438 49.3509635925293 0.8540807671179319
v -31.348400115966797 49.470863342285156 -0.24358124963145014
v -31.315000534057617 50.4499626159668 -0.2436062537799332
v -31.675100326538086 51.6363639831543 -0.24363325468401617
v -31.75040054321289 51.636863708496094 0.9583457417120486
v -31.315000534057617 50.4499626159668 -0.2436062537799332
v -31.75040054321289 51.636863708496094 0.9583457417120486
v -31.356300354003906 50.45036315917969 0.9545437402357605
v -31.54949951171875 48.64956283569336 0.7649887508978389
v -31.672000885009766 48.397560119628906 1.8671807355513117
v -32.05459976196289 48.1187629699707 1.6283006972898981
v -31.54949951171875 48.64956283569336 0.7649887508978389
v -32.05459976196289 48.1187629699707 1.6283006972898981
v -31.96269989013672 48.42276382446289 0.6297107643713497
v -31.706499099731445 48.633262634277344 -1.7089492969880558
v -31.431900024414062 49.3510627746582 -1.7755692892442203
v -31.348400115966797 49.470863342285156 -0.24358124963145014
v -31.706499099731445 48.633262634277344 -1.7089492969880558
v -31.348400115966797 49.470863342285156 -0.24358124963145014
v -31.450599670410156 48.76516342163086 -0.24356725744108926
v -31.348400115966797 49.470863342285156 -0.24358124963145014
v -31.431900024414062 49.3510627746582 -1.7755692892442203
v -31.355300903320312 50.45066452026367 -1.7038192444215272
v -31.348400115966797 49.470863342285156 -0.24358124963145014
v -31.355300903320312 50.45066452026367 -1.7038192444215272
v -31.315000534057617 50.4499626159668 -0.2436062537799332
v -31.355300903320312 50.45066452026367 -1.7038192444215272
v -31.74959945678711 51.63736343383789 -1.7077892713914364
v -31.675100326538086 51.6363639831543 -0.24363325468401617
v -31.355300903320312 50.45066452026367 -1.7038192444215272
v -31.675100326538086 51.6363639831543 -0.24363325468401617
v -31.315000534057617 50.4499626159668 -0.2436062537799332
v -31.433700561523438 49.3509635925293 0.8540807671179319
v -31.356300354003906 50.45036315917969 0.9545437402357605
v -31.396699905395508 50.45156478881836 2.0279207534422428
v -31.433700561523438 49.3509635925293 0.8540807671179319
v -31.396699905395508 50.45156478881836 2.0279207534422428
v -31.494400024414062 49.14806365966797 2.01302078434129
v -31.858200073242188 48.412662506103516 -0.24351926080088396
v -32.842498779296875 48.57936096191406 -0.25761425427298323
v -32.322898864746094 48.32786560058594 -1.5961593084702947
v -31.96269989013672 48.42276382446289 0.6297107643713497
v -32.52920150756836 48.51136016845703 0.23110175200600847
v -31.858200073242188 48.412662506103516 -0.24351926080088396
v -32.809600830078125 48.94666290283203 0.051146344028904375
v -31.858200073242188 48.412662506103516 -0.24351926080088396
v -32.52920150756836 48.51136016845703 0.23110175200600847
v -31.75040054321289 51.636863708496094 0.9583457417120486
v -31.825300216674805 51.63826370239258 1.8838208026518375
v -31.396699905395508 50.45156478881836 2.0279207534422428
v -31.75040054321289 51.636863708496094 0.9583457417120486
v -31.396699905395508 50.45156478881836 2.0279207534422428
v -31.356300354003906 50.45036315917969 0.9545437402357605
v -32.842498779296875 48.57936096191406 -0.25761425427298323
v -31.858200073242188 48.412662506103516 -0.24351926080088396
v -32.809600830078125 48.94666290283203 0.051146344028904375
v -32.842498779296875 48.57936096191406 -0.25761425427298323
v -32.722999572753906 48.206363677978516 -1.4035693102250555
v -32.322898864746094 48.32786560058594 -1.5961593084702947
v -31.494400024414062 49.14806365966797 2.01302078434129
v -31.672000885009766 48.397560119628906 1.8671807355513117
v -31.54949951171875 48.64956283569336 0.7649887508978389
v -31.494400024414062 49.14806365966797 2.01302078434129
v -31.54949951171875 48.64956283569336 0.7649887508978389
v -31.433700561523438 49.3509635925293 0.8540807671179319
v -32.05459976196289 48.1187629699707 1.6283006972898981
v -32.52920150756836 48.51136016845703 0.23110175200600847
v -31.96269989013672 48.42276382446289 0.6297107643713497
v -32.05459976196289 48.1187629699707 1.6283006972898981
v -32.557498931884766 48.278564453125 1.421010763131573
v -32.809600830078125 48.94666290283203 0.051146344028904375
v -32.05459976196289 48.1187629699707 1.6283006972898981
v -32.809600830078125 48.94666290283203 0.051146344028904375
v -32.52920150756836 48.51136016845703 0.23110175200600847
v -32.21200180053711 52.71676254272461 -0.1416152559886424
v -32.25080108642578 52.70816421508789 0.957237750970319
v -31.75040054321289 51.636863708496094 0.9583457417120486
v -32.21200180053711 52.71676254272461 -0.1416152559886424
v -31.75040054321289 51.636863708496094 0.9583457417120486
v -31.675100326538086 51.6363639831543 -0.24363325468401617
v -32.25080108642578 52.70816421508789 -0.965397267855212
v -31.74959945678711 51.63736343383789 -1.7077892713914364
v -31.824800491333008 51.63866424560547 -2.452679365194842
v -32.25080108642578 52.70816421508789 -0.965397267855212
v -31.824800491333008 51.63866424560547 -2.452679365194842
v -32.440101623535156 52.79866409301758 -1.8262092762361017
v -31.675100326538086 51.6363639831543 -0.24363325468401617
v -31.74959945678711 51.63736343383789 -1.7077892713914364
v -32.25080108642578 52.70816421508789 -0.965397267855212
v -31.675100326538086 51.6363639831543 -0.24363325468401617
v -32.25080108642578 52.70816421508789 -0.965397267855212
v -32.21200180053711 52.71676254272461 -0.1416152559886424
v -32.600399017333984 52.79866409301758 2.3885107345213448
v -31.825300216674805 51.63826370239258 1.8838208026518375
v -31.75040054321289 51.636863708496094 0.9583457417120486
v -32.600399017333984 52.79866409301758 2.3885107345213448
v -31.75040054321289 51.636863708496094 0.9583457417120486
v -32.25080108642578 52.70816421508789 0.957237750970319
vt 0.016820000484585762 0.5397449731826782
vt 0.028730299323797226 0.438060998916626
vt 0.07846370339393616 0.45169997215270996
vt 0.016820000484585762 0.5397449731826782
vt 0.07846370339393616 0.45169997215270996
vt 0.06589119881391525 0.5397409796714783
vt 0.5397449731826782 0.253898024559021
vt 0.5397469997406006 0.3745740056037903
vt 0.42907899618148804 0.3540710210800171
vt 0.5397449731826782 0.253898024559021
vt 0.42907899618148804 0.3540710210800171
vt 0.438060998916626 0.23413997888565063
vt 0.016820000484585762 0.5397449731826782
vt 0.06589119881391525 0.5397409796714783
vt 0.12181899696588516 0.6761159896850586
vt 0.016820000484585762 0.5397449731826782
vt 0.12181899696588516 0.6761159896850586
vt 0.04762909933924675 0.687487006187439
vt 0.539749026298523 0.5420050024986267
vt 0.41894999146461487 0.5420780181884766
vt 0.42907899618148804 0.3540710210800171
vt 0.539749026298523 0.5420050024986267
vt 0.42907899618148804 0.3540710210800171
vt 0.5397469997406006 0.3745740056037903
vt 0.539749026298523 0.5420050024986267
vt 0.5397520065307617 0.7448949813842773
vt 0.4185670018196106 0.7449749708175659
vt 0.539749026298523 0.5420050024986267
vt 0.4185670018196106 0.7449749708175659
vt 0.41894999146461487 0.5420780181884766
vt 0.028730299323797226 0.438060998916626
vt 0.043477900326251984 0.3269369602203369
vt 0.08952540159225464 0.35102200508117676
vt 0.028730299323797226 0.438060998916626
vt 0.08952540159225464 0.35102200508117676
vt 0.07846370339393616 0.45169997215270996
vt 0.687487006187439 0.23134100437164307
vt 0.6942039728164673 0.35409998893737793
vt 0.5397469997406006 0.3745740056037903
vt 0.687487006187439 0.23134100437164307
vt 0.5397469997406006 0.3745740056037903
vt 0.5397449731826782 0.253898024559021
vt 0.5397469997406006 0.3745740056037903
vt 0.6942039728164673 0.35409998893737793
vt 0.6869699954986572 0.5421410202980042
vt 0.5397469997406006 0.3745740056037903
vt 0.6869699954986572 0.5421410202980042
vt 0.539749026298523 0.5420050024986267
vt 0.6869699954986572 0.5421410202980042
vt 0.6873700022697449 0.7450709939002991
vt 0.5397520065307617 0.7448949813842773
vt 0.6869699954986572 0.5421410202980042
vt 0.5397520065307617 0.7448949813842773
vt 0.539749026298523 0.5420050024986267
vt 0.42907899618148804 0.3540710210800171
vt 0.41894999146461487 0.5420780181884766
vt 0.3107309937477112 0.5422930121421814
vt 0.42907899618148804 0.3540710210800171
vt 0.3107309937477112 0.5422930121421814
vt 0.31223300099372864 0.31937599182128906
vt 0.06589119881391525 0.5397409796714783
vt 0.18436500430107117 0.5411620140075684
vt 0.12181899696588516 0.6761159896850586
vt 0.07846370339393616 0.45169997215270996
vt 0.1466600000858307 0.49188899993896484
vt 0.06589119881391525 0.5397409796714783
vt 0.18040500581264496 0.5100319981575012
vt 0.06589119881391525 0.5397409796714783
vt 0.1466600000858307 0.49188899993896484
vt 0.4185670018196106 0.7449749708175659
vt 0.3252590000629425 0.7452219724655151
vt 0.3107309937477112 0.5422930121421814
vt 0.4185670018196106 0.7449749708175659
vt 0.3107309937477112 0.5422930121421814
vt 0.41894999146461487 0.5420780181884766
vt 0.18436500430107117 0.5411620140075684
vt 0.06589119881391525 0.5397409796714783
vt 0.18040500581264496 0.5100319981575012
vt 0.18436500430107117 0.5411620140075684
vt 0.16998399794101715 0.6566979885101318
vt 0.12181899696588516 0.6761159896850586
vt 0.31223300099372864 0.31937599182128906
vt 0.3269369900226593 0.19103896617889404
vt 0.438060998916626 0.23413997888565063
vt 0.31223300099372864 0.31937599182128906
vt 0.438060998916626 0.23413997888565063
vt 0.42907899618148804 0.3540710210800171
vt 0.08952540159225464 0.35102200508117676
vt 0.1466600000858307 0.49188899993896484
vt 0.07846370339393616 0.45169997215270996
vt 0.08952540159225464 0.35102200508117676
vt 0.15005800127983093 0.37191998958587646
vt 0.18040500581264496 0.5100319981575012
vt 0.6489779949188232 0.14337098598480225
vt 0.4899680018424988 0.28494298458099365
vt 0.5081110000610352 0.2105109691619873
vt 0.5294659733772278 0.9296450018882751
vt 0.41867899894714355 0.928180992603302
vt 0.4185670018196106 0.7449749708175659
vt 0.5294659733772278 0.9296450018882751
vt 0.4185670018196106 0.7449749708175659
vt 0.5397520065307617 0.7448949813842773
vt 0.6125209927558899 0.928180992603302
vt 0.6873700022697449 0.7450709939002991
vt 0.7624710202217102 0.7452840209007263
vt 0.6125209927558899 0.928180992603302
vt 0.7624710202217102 0.7452840209007263
vt 0.6993100047111511 0.9436460137367249
vt 0.5397520065307617 0.7448949813842773
vt 0.6873700022697449 0.7450709939002991
vt 0.6125209927558899 0.928180992603302
vt 0.5397520065307617 0.7448949813842773
vt 0.6125209927558899 0.928180992603302
vt 0.5294659733772278 0.9296450018882751
vt 0.2743760049343109 0.9436460137367249
vt 0.3252590000629425 0.7452219724655151
vt 0.4185670018196106 0.7449749708175659
vt 0.2743760049343109 0.9436460137367249
vt 0.4185670018196106 0.7449749708175659
vt 0.41867899894714355 0.928180992603302
vn 0.833562731630209 -0.5512487493415886 -0.03602761144620658
vn 0.8789426986784274 -0.47655974226518444 -0.018722833440054466
vn 0.3099216886115041 -0.9444073331637511 -0.1097421340904459
vn 0.833562731630209 -0.5512487493415886 -0.03602761144620658
vn 0.3099216886115041 -0.9444073331637511 -0.1097421340904459
vn 0.058617668125398904 -0.9969526195347355 0.051472744111518025
vn 0.833562731630209 -0.5512487493415886 -0.03602761144620658
vn 0.9919686452380465 -0.12369996477548363 -0.026391771049684504
vn 0.9943015504512036 -0.09558167412497957 0.04720773603763542
vn 0.833562731630209 -0.5512487493415886 -0.03602761144620658
vn 0.9943015504512036 -0.09558167412497957 0.04720773603763542
vn 0.8789426986784274 -0.47655974226518444 -0.018722833440054466
vn 0.833562731630209 -0.5512487493415886 -0.03602761144620658
vn 0.058617668125398904 -0.9969526195347355 0.051472744111518025
vn 0.27337018303784566 -0.9601112381222409 0.058780553393384095
vn 0.833562731630209 -0.5512487493415886 -0.03602761144620658
vn 0.27337018303784566 -0.9601112381222409 0.058780553393384095
vn 0.8636223601462497 -0.5001444774685099 -0.06333972460606954
vn 0.9889284390283802 0.14694155779336224 0.020705580748955957
vn 0.9901326399974347 0.13555793602818633 0.035516210263602764
vn 0.9943015504512036 -0.09558167412497957 0.04720773603763542
vn 0.9889284390283802 0.14694155779336224 0.020705580748955957
vn 0.9943015504512036 -0.09558167412497957 0.04720773603763542
vn 0.9919686452380465 -0.12369996477548363 -0.026391771049684504
vn 0.9889284390283802 0.14694155779336224 0.020705580748955957
vn 0.9303531615672939 0.3665337017476764 -0.009800012494177838
vn 0.9197874238588035 0.38559878582527557 0.07283317431815656
vn 0.9889284390283802 0.14694155779336224 0.020705580748955957
vn 0.9197874238588035 0.38559878582527557 0.07283317431815656
vn 0.9901326399974347 0.13555793602818633 0.035516210263602764
vn 0.8789426986784274 -0.47655974226518444 -0.018722833440054466
vn 0.8799737347699633 -0.4749000804451989 -0.01077681345045658
vn 0.020068385308817542 -0.9752598984267612 -0.22014856445527914
vn 0.8789426986784274 -0.47655974226518444 -0.018722833440054466
vn 0.020068385308817542 -0.9752598984267612 -0.22014856445527914
vn 0.3099216886115041 -0.9444073331637511 -0.1097421340904459
vn 0.8636223601462497 -0.5001444774685099 -0.06333972460606954
vn 0.981122357912894 -0.1894848165596968 -0.03865776890589223
vn 0.9919686452380465 -0.12369996477548363 -0.026391771049684504
vn 0.8636223601462497 -0.5001444774685099 -0.06333972460606954
vn 0.9919686452380465 -0.12369996477548363 -0.026391771049684504
vn 0.833562731630209 -0.5512487493415886 -0.03602761144620658
vn 0.9919686452380465 -0.12369996477548363 -0.026391771049684504
vn 0.981122357912894 -0.1894848165596968 -0.03865776890589223
vn 0.989134939765184 0.141807722469607 -0.03876391084125506
vn 0.9919686452380465 -0.12369996477548363 -0.026391771049684504
vn 0.989134939765184 0.141807722469607 -0.03876391084125506
vn 0.9889284390283802 0.14694155779336224 0.020705580748955957
vn 0.989134939765184 0.141807722469607 -0.03876391084125506
vn 0.9148038157240629 0.4001245889797466 -0.055084408233943866
vn 0.9303531615672939 0.3665337017476764 -0.009800012494177838
vn 0.989134939765184 0.141807722469607 -0.03876391084125506
vn 0.9303531615672939 0.3665337017476764 -0.009800012494177838
vn 0.9889284390283802 0.14694155779336224 0.020705580748955957
vn 0.9943015504512036 -0.09558167412497957 0.04720773603763542
vn 0.9901326399974347 0.13555793602818633 0.035516210263602764
vn 0.9912869967725016 0.12309605679665618 0.046876975487637834
vn 0.9943015504512036 -0.09558167412497957 0.04720773603763542
vn 0.9912869967725016 0.12309605679665618 0.046876975487637834
vn 0.9888166269861132 -0.14402925217478318 0.03869434989476466
vn 0.058617668125398904 -0.9969526195347355 0.051472744111518025
vn -0.0331772496302705 -0.947639479518771 0.31761405347428157
vn 0.27337018303784566 -0.9601112381222409 0.058780553393384095
vn 0.3099216886115041 -0.9444073331637511 -0.1097421340904459
vn -0.4233041631438317 -0.8871661273187771 -0.1837113170256643
vn 0.058617668125398904 -0.9969526195347355 0.051472744111518025
vn -0.5132118527555329 -0.8564890133919768 -0.0551376833941314
vn 0.058617668125398904 -0.9969526195347355 0.051472744111518025
vn -0.4233041631438317 -0.8871661273187771 -0.1837113170256643
vn 0.9197874238588035 0.38559878582527557 0.07283317431815656
vn 0.8919487857293418 0.4464454483231968 0.07151101528752273
vn 0.9912869967725016 0.12309605679665618 0.046876975487637834
vn 0.9197874238588035 0.38559878582527557 0.07283317431815656
vn 0.9912869967725016 0.12309605679665618 0.046876975487637834
vn 0.9901326399974347 0.13555793602818633 0.035516210263602764
vn -0.0331772496302705 -0.947639479518771 0.31761405347428157
vn 0.058617668125398904 -0.9969526195347355 0.051472744111518025
vn -0.5132118527555329 -0.8564890133919768 -0.0551376833941314
vn -0.0331772496302705 -0.947639479518771 0.31761405347428157
vn 0.4131411592082324 -0.8523943383060806 0.3205281182545721
vn 0.27337018303784566 -0.9601112381222409 0.058780553393384095
vn 0.9888166269861132 -0.14402925217478318 0.03869434989476466
vn 0.8799737347699633 -0.4749000804451989 -0.01077681345045658
vn 0.8789426986784274 -0.47655974226518444 -0.018722833440054466
vn 0.9888166269861132 -0.14402925217478318 0.03869434989476466
vn 0.8789426986784274 -0.47655974226518444 -0.018722833440054466
vn 0.9943015504512036 -0.09558167412497957 0.04720773603763542
vn 0.020068385308817542 -0.9752598984267612 -0.22014856445527914
vn -0.4233041631438317 -0.8871661273187771 -0.1837113170256643
vn 0.3099216886115041 -0.9444073331637511 -0.1097421340904459
vn 0.020068385308817542 -0.9752598984267612 -0.22014856445527914
vn -0.11381430560725596 -0.9010533409094837 -0.41850828029442333
vn -0.5132118527555329 -0.8564890133919768 -0.0551376833941314
vn 0.020068385308817542 -0.9752598984267612 -0.22014856445527914
vn -0.5132118527555329 -0.8564890133919768 -0.0551376833941314
vn -0.4233041631438317 -0.8871661273187771 -0.1837113170256643
vn 0.8993588100860295 0.4366826428976416 0.02149418787886461
vn 0.8989466284897045 0.4200233153837167 0.12440005490780276
vn 0.9197874238588035 0.38559878582527557 0.07283317431815656
vn 0.8993588100860295 0.4366826428976416 0.02149418787886461
vn 0.9197874238588035 0.38559878582527557 0.07283317431815656
vn 0.9303531615672939 0.3665337017476764 -0.009800012494177838
vn 0.8787157528964872 0.4713650022534132 -0.07532370318963033
vn 0.9148038157240629 0.4001245889797466 -0.055084408233943866
vn 0.8590521519934416 0.4992678639872886 -0.11296459686559912
vn 0.8787157528964872 0.4713650022534132 -0.07532370318963033
vn 0.8590521519934416 0.4992678639872886 -0.11296459686559912
vn 0.8446987149254541 0.5189123904638218 -0.13120217996057987
vn 0.9303531615672939 0.3665337017476764 -0.009800012494177838
vn 0.9148038157240629 0.4001245889797466 -0.055084408233943866
vn 0.8787157528964872 0.4713650022534132 -0.07532370318963033
vn 0.9303531615672939 0.3665337017476764 -0.009800012494177838
vn 0.8787157528964872 0.4713650022534132 -0.07532370318963033
vn 0.8993588100860295 0.4366826428976416 0.02149418787886461
vn 0.8729616704176201 0.467563225895732 0.1390055818003548
vn 0.8919487857293418 0.4464454483231968 0.07151101528752273
vn 0.9197874238588035 0.38559878582527557 0.07283317431815656
vn 0.8729616704176201 0.467563225895732 0.1390055818003548
vn 0.9197874238588035 0.38559878582527557 0.07283317431815656
vn 0.8989466284897045 0.4200233153837167 0.12440005490780276
f 1/1/1 2/2/2 3/3/3
f 4/4/4 5/5/5 6/6/6
f 7/7/7 8/8/8 9/9/9
f 10/10/10 11/11/11 12/12/12
f 13/13/13 14/14/14 15/15/15
f 16/16/16 17/17/17 18/18/18
f 19/19/19 20/20/20 21/21/21
f 22/22/22 23/23/23 24/24/24
f 25/25/25 26/26/26 27/27/27
f 28/28/28 29/29/29 30/30/30
f 31/31/31 32/32/32 33/33/33
f 34/34/34 35/35/35 36/36/36
f 37/37/37 38/38/38 39/39/39
f 40/40/40 41/41/41 42/42/42
f 43/43/43 44/44/44 45/45/45
f 46/46/46 47/47/47 48/48/48
f 49/49/49 50/50/50 51/51/51
f 52/52/52 53/53/53 54/54/54
f 55/55/55 56/56/56 57/57/57
f 58/58/58 59/59/59 60/60/60
f 61/61/61 62/62/62 63/63/63
f 64/64/64 65/65/65 66/66/66
f 67/67/67 68/68/68 69/69/69
f 70/70/70 71/71/71 72/72/72
f 73/73/73 74/74/74 75/75/75
f 76/76/76 77/77/77 78/78/78
f 79/79/79 80/80/80 81/81/81
f 82/82/82 83/83/83 84/84/84
f 85/85/85 86/86/86 87/87/87
f 88/88/88 89/89/89 90/90/90
f 91/91/91 92/92/92 93/93/93
f 94/94/94 95/95/95 96/96/96
f 97/97/97 98/98/98 99/99/99
f 100/100/100 101/101/101 102/102/102
f 103/103/103 104/104/104 105/105/105
f 106/106/106 107/107/107 108/108/108
f 109/109/109 110/110/110 111/111/111
f 112/112/112 113/113/113 114/114/114
f 115/115/115 116/116/116 117/117/117
f 118/118/118 119/119/119 120/120/120
