mtllib ArcadaCompleta.mtl
o D55C_CDL
usemtl Esmalte
v -38.30780029296875 47.964962005615234 -3.1688692264924505
v -39.12310028076172 48.39956283569336 -2.366829364813373
v -39.31520080566406 49.13166427612305 -2.404159276999042
v -38.30780029296875 47.964962005615234 -3.1688692264924505
v -39.31520080566406 49.13166427612305 -2.404159276999042
v -38.50170135498047 48.9311637878418 -3.7231392555604432
v -38.30780029296875 47.964962005615234 -3.1688692264924505
v -37.56269836425781 47.642364501953125 -3.655839174307392
v -37.315101623535156 47.45926284790039 -3.160079210318134
v -38.30780029296875 47.964962005615234 -3.1688692264924505
v -37.315101623535156 47.45926284790039 -3.160079210318134
v -38.30080032348633 47.81706237792969 -2.657919137991474
v -38.06370162963867 52.889461517333984 -2.8103992634187187
v -37.27180099487305 52.995662689208984 -3.6401593380341972
v -37.618900299072266 51.63926315307617 -4.3849193745027035
v -38.06370162963867 52.889461517333984 -2.8103992634187187
v -37.618900299072266 51.63926315307617 -4.3849193745027035
v -38.45439910888672 51.639461517333984 -3.832759349859759
v -38.4463996887207 50.42856216430664 -3.7581193142304867
v -38.50170135498047 48.9311637878418 -3.7231392555604432
v -39.31520080566406 49.13166427612305 -2.404159276999042
v -38.4463996887207 50.42856216430664 -3.7581193142304867
v -39.31520080566406 49.13166427612305 -2.404159276999042
v -39.285301208496094 50.42756271362305 -2.3166491680512875
v -38.4463996887207 50.42856216430664 -3.7581193142304867
v -39.285301208496094 50.42756271362305 -2.3166491680512875
v -39.10580062866211 51.6375617980957 -2.451779335058734
v -38.4463996887207 50.42856216430664 -3.7581193142304867
v -39.10580062866211 51.6375617980957 -2.451779335058734
v -38.45439910888672 51.639461517333984 -3.832759349859759
v -38.50170135498047 48.9311637878418 -3.7231392555604432
v -37.70719909667969 48.95496368408203 -4.167209356344745
v -37.56269836425781 47.642364501953125 -3.655839174307392
v -38.50170135498047 48.9311637878418 -3.7231392555604432
v -37.56269836425781 47.642364501953125 -3.655839174307392
v -38.30780029296875 47.964962005615234 -3.1688692264924505
v -38.30080032348633 47.81706237792969 -2.657919137991474
v -38.750999450683594 48.120262145996094 -2.113369195974872
v -39.12310028076172 48.39956283569336 -2.366829364813373
v -38.30080032348633 47.81706237792969 -2.657919137991474
v -39.12310028076172 48.39956283569336 -2.366829364813373
v -38.30780029296875 47.964962005615234 -3.1688692264924505
v -38.30080032348633 47.81706237792969 -2.657919137991474
v -37.971099853515625 47.62556457519531 -2.3935391598115423
v -38.750999450683594 48.120262145996094 -2.113369195974872
v -36.5348014831543 47.866661071777344 -4.1647493534455755
v -36.6505012512207 47.52626037597656 -3.2753493481049993
v -37.315101623535156 47.45926284790039 -3.160079210318134
v -36.5348014831543 47.866661071777344 -4.1647493534455755
v -37.315101623535156 47.45926284790039 -3.160079210318134
v -37.56269836425781 47.642364501953125 -3.655839174307392
v -36.35409927368164 53.101863861083984 -3.9563693695435966
v -36.458900451660156 51.63896179199219 -4.736759393728778
v -37.618900299072266 51.63926315307617 -4.3849193745027035
v -36.35409927368164 53.101863861083984 -3.9563693695435966
v -37.618900299072266 51.63926315307617 -4.3849193745027035
v -37.27180099487305 52.995662689208984 -3.6401593380341972
v -36.596500396728516 50.40886306762695 -4.749559133566425
v -37.78200149536133 50.45376205444336 -4.383549421347187
v -37.618900299072266 51.63926315307617 -4.3849193745027035
v -36.596500396728516 50.40886306762695 -4.749559133566425
v -37.618900299072266 51.63926315307617 -4.3849193745027035
v -36.458900451660156 51.63896179199219 -4.736759393728778
v -36.59349822998047 48.95966339111328 -4.5718490772614935
v -37.70719909667969 48.95496368408203 -4.167209356344745
v -37.78200149536133 50.45376205444336 -4.383549421347187
v -36.59349822998047 48.95966339111328 -4.5718490772614935
v -37.78200149536133 50.45376205444336 -4.383549421347187
v -36.596500396728516 50.40886306762695 -4.749559133566425
v -36.6505012512207 47.52626037597656 -3.2753493481049993
v -36.82099914550781 47.628265380859375 -2.9756793671021917
v -37.315101623535156 47.45926284790039 -3.160079210318134
v -38.45439910888672 51.639461517333984 -3.832759349859759
v -39.10580062866211 51.6375617980957 -2.451779335058734
v -38.48310089111328 52.79906463623047 -1.8262092762361017
v -38.45439910888672 51.639461517333984 -3.832759349859759
v -38.48310089111328 52.79906463623047 -1.8262092762361017
v -38.06370162963867 52.889461517333984 -2.8103992634187187
v -38.45439910888672 51.639461517333984 -3.832759349859759
v -37.618900299072266 51.63926315307617 -4.3849193745027035
v -37.78200149536133 50.45376205444336 -4.383549421347187
v -38.45439910888672 51.639461517333984 -3.832759349859759
v -37.78200149536133 50.45376205444336 -4.383549421347187
v -38.4463996887207 50.42856216430664 -3.7581193142304867
v -37.315101623535156 47.45926284790039 -3.160079210318134
v -37.971099853515625 47.62556457519531 -2.3935391598115423
v -38.30080032348633 47.81706237792969 -2.657919137991474
v -37.315101623535156 47.45926284790039 -3.160079210318134
v -37.144500732421875 47.86256408691406 -2.3993992500672796
v -37.971099853515625 47.62556457519531 -2.3935391598115423
v -37.315101623535156 47.45926284790039 -3.160079210318134
v -36.82099914550781 47.628265380859375 -2.9756793671021917
v -37.144500732421875 47.86256408691406 -2.3993992500672796
v -37.78200149536133 50.45376205444336 -4.383549421347187
v -37.70719909667969 48.95496368408203 -4.167209356344745
v -38.50170135498047 48.9311637878418 -3.7231392555604432
v -37.78200149536133 50.45376205444336 -4.383549421347187
v -38.50170135498047 48.9311637878418 -3.7231392555604432
v -38.4463996887207 50.42856216430664 -3.7581193142304867
v -37.56269836425781 47.642364501953125 -3.655839174307392
v -37.70719909667969 48.95496368408203 -4.167209356344745
v -36.59349822998047 48.95966339111328 -4.5718490772614935
v -37.56269836425781 47.642364501953125 -3.655839174307392
v -36.59349822998047 48.95966339111328 -4.5718490772614935
v -36.5348014831543 47.866661071777344 -4.1647493534455755
v -37.971099853515625 47.62556457519531 -2.3935391598115423
v -37.2775993347168 48.01286315917969 -2.0527093105683782
v -37.672000885009766 48.11026382446289 -1.7140992575059393
v -37.971099853515625 47.62556457519531 -2.3935391598115423
v -38.082801818847656 48.01326370239258 -1.552509277380512
v -38.34619903564453 48.027061462402344 -1.7494892769227484
v -37.971099853515625 47.62556457519531 -2.3935391598115423
v -38.34619903564453 48.027061462402344 -1.7494892769227484
v -38.750999450683594 48.120262145996094 -2.113369195974872
v -37.144500732421875 47.86256408691406 -2.3993992500672796
v -37.2775993347168 48.01286315917969 -2.0527093105683782
v -37.971099853515625 47.62556457519531 -2.3935391598115423
v -37.672000885009766 48.11026382446289 -1.7140992575059393
v -38.082801818847656 48.01326370239258 -1.552509277380512
v -37.971099853515625 47.62556457519531 -2.3935391598115423
vt 0.1653210073709488 0.11706298589706421
vt 0.24618500471115112 0.19137698411941528
vt 0.2424210011959076 0.3165760040283203
vt 0.1653210073709488 0.11706298589706421
vt 0.2424210011959076 0.3165760040283203
vt 0.10943999886512756 0.282289981842041
vt 0.8422250151634216 0.8346790075302124
vt 0.7525460124015808 0.883774995803833
vt 0.7227309942245483 0.833791971206665
vt 0.8422250151634216 0.8346790075302124
vt 0.7227309942245483 0.833791971206665
vt 0.8413910269737244 0.7831640243530273
vt 0.18715399503707886 0.798537015914917
vt 0.28247299790382385 0.882194995880127
vt 0.24069100618362427 0.9572820067405701
vt 0.18715399503707886 0.798537015914917
vt 0.24069100618362427 0.9572820067405701
vt 0.14012299478054047 0.9016119837760925
vt 0.10591199994087219 0.5383570194244385
vt 0.10943999886512756 0.282289981842041
vt 0.2424210011959076 0.3165760040283203
vt 0.10591199994087219 0.5383570194244385
vt 0.2424210011959076 0.3165760040283203
vt 0.251242995262146 0.5381860136985779
vt 0.10591199994087219 0.5383570194244385
vt 0.251242995262146 0.5381860136985779
vt 0.23761899769306183 0.7451009750366211
vt 0.10591199994087219 0.5383570194244385
vt 0.23761899769306183 0.7451009750366211
vt 0.09838789701461792 0.7454239726066589
vt 0.8655710220336914 0.282289981842041
vt 0.7699339985847473 0.2863579988479614
vt 0.7525460124015808 0.061904311180114746
vt 0.8655710220336914 0.89055997133255
vt 0.7525460124015808 0.883774995803833
vt 0.8422250151634216 0.8346790075302124
vt 0.8413910269737244 0.7831640243530273
vt 0.8955820202827454 0.7282609939575195
vt 0.9403650164604187 0.7538149952888489
vt 0.8413910269737244 0.7831640243530273
vt 0.9403650164604187 0.7538149952888489
vt 0.8422250151634216 0.8346790075302124
vt 0.8413910269737244 0.7831640243530273
vt 0.8017060160636902 0.7565079927444458
vt 0.8955820202827454 0.7282609939575195
vt 0.628807008266449 0.9350839853286743
vt 0.6427440047264099 0.8454139828681946
vt 0.7227309942245483 0.833791971206665
vt 0.628807008266449 0.9350839853286743
vt 0.7227309942245483 0.833791971206665
vt 0.7525460124015808 0.883774995803833
vt 0.6070550084114075 0.9955059885978699
vt 0.6196730136871338 0.7453330159187317
vt 0.7593089938163757 0.7453979849815369
vt 0.39294499158859253 0.9140750169754028
vt 0.24069100618362427 0.9572820067405701
vt 0.28247299790382385 0.882194995880127
vt 0.6362429857254028 0.534991979598999
vt 0.7789319753646851 0.5426570177078247
vt 0.7593089938163757 0.7453979849815369
vt 0.6362429857254028 0.534991979598999
vt 0.7593089938163757 0.7453979849815369
vt 0.6196730136871338 0.7453330159187317
vt 0.635873019695282 0.28715598583221436
vt 0.7699339985847473 0.2863579988479614
vt 0.7789319753646851 0.5426570177078247
vt 0.635873019695282 0.28715598583221436
vt 0.7789319753646851 0.5426570177078247
vt 0.6362429857254028 0.534991979598999
vt 0.6427440047264099 0.8454139828681946
vt 0.6632590293884277 0.8151999711990356
vt 0.7227309942245483 0.833791971206665
vt 0.14012299478054047 0.9016119837760925
vt 0.06171660125255585 0.7623810172080994
vt 0.13666699826717377 0.6993100047111511
vt 0.09838789701461792 0.7454239726066589
vt 0.3006899952888489 0.9437239766120911
vt 0.2014629989862442 0.9591789841651917
vt 0.8598769903182983 0.7454239726066589
vt 0.7593089938163757 0.7453979849815369
vt 0.7789319753646851 0.5426570177078247
vt 0.09838789701461792 0.7454239726066589
vt 0.04285589978098869 0.5426570177078247
vt 0.10591199994087219 0.5383570194244385
vt 0.7227309942245483 0.833791971206665
vt 0.8017060160636902 0.7565079927444458
vt 0.8413910269737244 0.7831640243530273
vt 0.7227309942245483 0.833791971206665
vt 0.7022029757499695 0.7570989727973938
vt 0.8017060160636902 0.7565079927444458
vt 0.7227309942245483 0.833791971206665
vt 0.6632590293884277 0.8151999711990356
vt 0.7022029757499695 0.7570989727973938
vt 0.7789319753646851 0.5426570177078247
vt 0.7699339985847473 0.2863579988479614
vt 0.8655710220336914 0.282289981842041
vt 0.04285589978098869 0.5426570177078247
vt 0.10943999886512756 0.282289981842041
vt 0.10591199994087219 0.5383570194244385
vt 0.7525460124015808 0.061904311180114746
vt 0.7699339985847473 0.2863579988479614
vt 0.635873019695282 0.28715598583221436
vt 0.7525460124015808 0.061904311180114746
vt 0.635873019695282 0.28715598583221436
vt 0.628807008266449 0.10025697946548462
vt 0.8017060160636902 0.7565079927444458
vt 0.7182260155677795 0.7221459746360779
vt 0.7656930088996887 0.6880059838294983
vt 0.8017060160636902 0.7565079927444458
vt 0.8151410222053528 0.6717150211334229
vt 0.8468559980392456 0.691573977470398
vt 0.8017060160636902 0.7565079927444458
vt 0.8468559980392456 0.691573977470398
vt 0.8955820202827454 0.7282609939575195
vt 0.7022029757499695 0.7570989727973938
vt 0.7182260155677795 0.7221459746360779
vt 0.8017060160636902 0.7565079927444458
vt 0.7656930088996887 0.6880059838294983
vt 0.8151410222053528 0.6717150211334229
vt 0.8017060160636902 0.7565079927444458
vn -0.6958698279421277 -0.5626447513092365 -0.44631386532793393
vn -0.7214993839603826 -0.5679839257446976 -0.39602133659744926
vn -0.8479205049031613 -0.10603019938905162 -0.519411603819443
vn -0.6958698279421277 -0.5626447513092365 -0.44631386532793393
vn -0.8479205049031613 -0.10603019938905162 -0.519411603819443
vn -0.7092630715242235 -0.21033352174707634 -0.6728340843042185
vn -0.6958698279421277 -0.5626447513092365 -0.44631386532793393
vn -0.40042354598037466 -0.5208021473105325 -0.7539403870209112
vn -0.1022022697641524 -0.9935127690205237 -0.04987057096351751
vn -0.6958698279421277 -0.5626447513092365 -0.44631386532793393
vn -0.1022022697641524 -0.9935127690205237 -0.04987057096351751
vn -0.5154044632428613 -0.8451260550055064 -0.14184565703668214
vn -0.6488953260175994 0.5568741583505915 -0.5184843562093593
vn -0.521943496015784 0.5092730985865459 -0.6842630327753207
vn -0.41828209446506237 0.3669100167342348 -0.8309134305509834
vn -0.6488953260175994 0.5568741583505915 -0.5184843562093593
vn -0.41828209446506237 0.3669100167342348 -0.8309134305509834
vn -0.7566771208910693 0.35296179652500065 -0.5503250902092743
vn -0.8341875352180217 0.018948580342463748 -0.5511552479926932
vn -0.7092630715242235 -0.21033352174707634 -0.6728340843042185
vn -0.8479205049031613 -0.10603019938905162 -0.519411603819443
vn -0.8341875352180217 0.018948580342463748 -0.5511552479926932
vn -0.8479205049031613 -0.10603019938905162 -0.519411603819443
vn -0.8626156614154151 0.0625435455171195 -0.5019786106947131
vn -0.8341875352180217 0.018948580342463748 -0.5511552479926932
vn -0.8626156614154151 0.0625435455171195 -0.5019786106947131
vn -0.8663415112460682 0.2334620004557909 -0.44152902535966876
vn -0.8341875352180217 0.018948580342463748 -0.5511552479926932
vn -0.8663415112460682 0.2334620004557909 -0.44152902535966876
vn -0.7566771208910693 0.35296179652500065 -0.5503250902092743
vn -0.7092630715242235 -0.21033352174707634 -0.6728340843042185
vn -0.38926757996865796 -0.25916000291672947 -0.8839156317621866
vn -0.40042354598037466 -0.5208021473105325 -0.7539403870209112
vn -0.7092630715242235 -0.21033352174707634 -0.6728340843042185
vn -0.40042354598037466 -0.5208021473105325 -0.7539403870209112
vn -0.6958698279421277 -0.5626447513092365 -0.44631386532793393
vn -0.5154044632428613 -0.8451260550055064 -0.14184565703668214
vn -0.5188859788736957 -0.8480515245066349 0.10754511941626667
vn -0.7214993839603826 -0.5679839257446976 -0.39602133659744926
vn -0.5154044632428613 -0.8451260550055064 -0.14184565703668214
vn -0.7214993839603826 -0.5679839257446976 -0.39602133659744926
vn -0.6958698279421277 -0.5626447513092365 -0.44631386532793393
vn -0.5154044632428613 -0.8451260550055064 -0.14184565703668214
vn -0.051270679547317094 -0.9457404780967331 0.32085240455405456
vn -0.5188859788736957 -0.8480515245066349 0.10754511941626667
vn -0.18189470542471725 -0.7085711388227937 -0.68179267916708
vn 0.06762045929484607 -0.9812559446694911 -0.1804556580867969
vn -0.1022022697641524 -0.9935127690205237 -0.04987057096351751
vn -0.18189470542471725 -0.7085711388227937 -0.68179267916708
vn -0.1022022697641524 -0.9935127690205237 -0.04987057096351751
vn -0.40042354598037466 -0.5208021473105325 -0.7539403870209112
vn -0.28925289333882287 0.4909218317229596 -0.8217837421322556
vn -0.27732486058406636 0.2943401970220798 -0.9145790125074112
vn -0.41828209446506237 0.3669100167342348 -0.8309134305509834
vn -0.28925289333882287 0.4909218317229596 -0.8217837421322556
vn -0.41828209446506237 0.3669100167342348 -0.8309134305509834
vn -0.521943496015784 0.5092730985865459 -0.6842630327753207
vn -0.29457430650744465 -0.018959797030010824 -0.9554404764516934
vn -0.46194347110685247 -0.058886925893769676 -0.8849522921946327
vn -0.41828209446506237 0.3669100167342348 -0.8309134305509834
vn -0.29457430650744465 -0.018959797030010824 -0.9554404764516934
vn -0.41828209446506237 0.3669100167342348 -0.8309134305509834
vn -0.27732486058406636 0.2943401970220798 -0.9145790125074112
vn -0.32657489515658694 -0.23823293604056517 -0.9146550748992518
vn -0.38926757996865796 -0.25916000291672947 -0.8839156317621866
vn -0.46194347110685247 -0.058886925893769676 -0.8849522921946327
vn -0.32657489515658694 -0.23823293604056517 -0.9146550748992518
vn -0.46194347110685247 -0.058886925893769676 -0.8849522921946327
vn -0.29457430650744465 -0.018959797030010824 -0.9554404764516934
vn 0.06762045929484607 -0.9812559446694911 -0.1804556580867969
vn 0.14662571908582087 -0.8929844587409393 0.42553455200455514
vn -0.1022022697641524 -0.9935127690205237 -0.04987057096351751
vn -0.7566771208910693 0.35296179652500065 -0.5503250902092743
vn -0.8663415112460682 0.2334620004557909 -0.44152902535966876
vn -0.7702165169992659 0.5473675673821337 -0.3273457852480844
vn -0.7566771208910693 0.35296179652500065 -0.5503250902092743
vn -0.7702165169992659 0.5473675673821337 -0.3273457852480844
vn -0.6488953260175994 0.5568741583505915 -0.5184843562093593
vn -0.7566771208910693 0.35296179652500065 -0.5503250902092743
vn -0.41828209446506237 0.3669100167342348 -0.8309134305509834
vn -0.46194347110685247 -0.058886925893769676 -0.8849522921946327
vn -0.7566771208910693 0.35296179652500065 -0.5503250902092743
vn -0.46194347110685247 -0.058886925893769676 -0.8849522921946327
vn -0.8341875352180217 0.018948580342463748 -0.5511552479926932
vn -0.1022022697641524 -0.9935127690205237 -0.04987057096351751
vn -0.051270679547317094 -0.9457404780967331 0.32085240455405456
vn -0.5154044632428613 -0.8451260550055064 -0.14184565703668214
vn -0.1022022697641524 -0.9935127690205237 -0.04987057096351751
vn 0.22215961440852625 -0.8750623082858429 0.43001286299750074
vn -0.051270679547317094 -0.9457404780967331 0.32085240455405456
vn -0.1022022697641524 -0.9935127690205237 -0.04987057096351751
vn 0.14662571908582087 -0.8929844587409393 0.42553455200455514
vn 0.22215961440852625 -0.8750623082858429 0.43001286299750074
vn -0.46194347110685247 -0.058886925893769676 -0.8849522921946327
vn -0.38926757996865796 -0.25916000291672947 -0.8839156317621866
vn -0.7092630715242235 -0.21033352174707634 -0.6728340843042185
vn -0.46194347110685247 -0.058886925893769676 -0.8849522921946327
vn -0.7092630715242235 -0.21033352174707634 -0.6728340843042185
vn -0.8341875352180217 0.018948580342463748 -0.5511552479926932
vn -0.40042354598037466 -0.5208021473105325 -0.7539403870209112
vn -0.38926757996865796 -0.25916000291672947 -0.8839156317621866
vn -0.32657489515658694 -0.23823293604056517 -0.9146550748992518
vn -0.40042354598037466 -0.5208021473105325 -0.7539403870209112
vn -0.32657489515658694 -0.23823293604056517 -0.9146550748992518
vn -0.18189470542471725 -0.7085711388227937 -0.68179267916708
vn -0.051270679547317094 -0.9457404780967331 0.32085240455405456
vn 0.23302457872731086 -0.8433581519298109 0.48419683320163637
vn 0.2901912975553912 -0.8348326224874207 0.467807121850335
vn -0.051270679547317094 -0.9457404780967331 0.32085240455405456
vn 0.08867650497866957 -0.9000441886946959 0.42668130479512967
vn -0.39689158979444183 -0.8646861820653189 0.3078877595743987
vn -0.051270679547317094 -0.9457404780967331 0.32085240455405456
vn -0.39689158979444183 -0.8646861820653189 0.3078877595743987
vn -0.5188859788736957 -0.8480515245066349 0.10754511941626667
vn 0.22215961440852625 -0.8750623082858429 0.43001286299750074
vn 0.23302457872731086 -0.8433581519298109 0.48419683320163637
vn -0.051270679547317094 -0.9457404780967331 0.32085240455405456
vn 0.2901912975553912 -0.8348326224874207 0.467807121850335
vn 0.08867650497866957 -0.9000441886946959 0.42668130479512967
vn -0.051270679547317094 -0.9457404780967331 0.32085240455405456
f 1/1/1 2/2/2 3/3/3
f 4/4/4 5/5/5 6/6/6
f 7/7/7 8/8/8 9/9/9
f 10/10/10 11/11/11 12/12/12
f 13/13/13 14/14/14 15/15/15
f 16/16/16 17/17/17 18/18/18
f 19/19/19 20/20/20 21/21/21
f 22/22/22 23/23/23 24/24/24
f 25/25/25 26/26/26 27/27/27
f 28/28/28 29/29/29 30/30/30
f 31/31/31 32/32/32 33/33/33
f 34/34/34 35/35/35 36/36/36
f 37/37/37 38/38/38 39/39/39
f 40/40/40 41/41/41 42/42/42
f 43/43/43 44/44/44 45/45/45
f 46/46/46 47/47/47 48/48/48
f 49/49/49 50/50/50 51/51/51
f 52/52/52 53/53/53 54/54/54
f 55/55/55 56/56/56 57/57/57
f 58/58/58 59/59/59 60/60/60
f 61/61/61 62/62/62 63/63/63
f 64/64/64 65/65/65 66/66/66
f 67/67/67 68/68/68 69/69/69
f 70/70/70 71/71/71 72/72/72
f 73/73/73 74/74/74 75/75/75
f 76/76/76 77/77/77 78/78/78
f 79/79/79 80/80/80 81/81/81
f 82/82/82 83/83/83 84/84/84
f 85/85/85 86/86/86 87/87/87
f 88/88/88 89/89/89 90/90/90
f 91/91/91 92/92/92 93/93/93
f 94/94/94 95/95/95 96/96/96
f 97/97/97 98/98/98 99/99/99
f 100/100/100 101/101/101 102/102/102
f 103/103/103 104/104/104 105/105/105
f 106/106/106 107/107/107 108/108/108
f 109/109/109 110/110/110 111/111/111
f 112/112/112 113/113/113 114/114/114
f 115/115/115 116/116/116 117/117/117
f 118/118/118 119/119/119 120/120/120
