mtllib ArcadaCompleta.mtl
o D61C_F
usemtl Esmalte
v 5.602930068969727 50.22056198120117 1.9292007989515807
v 4.245190143585205 50.22056198120117 2.0212807960142642
v 4.245059967041016 48.92686462402344 1.5992707318892025
v 5.402130126953125 48.92686462402344 1.527070791207745
v 5.602930068969727 50.22056198120117 1.9292007989515807
v 4.245059967041016 48.92686462402344 1.5992707318892025
v 2.8874499797821045 50.22056198120117 1.9292007989515807
v 3.0880000591278076 48.92686462402344 1.527070791207745
v 4.245059967041016 48.92686462402344 1.5992707318892025
v 4.245190143585205 50.22056198120117 2.0212807960142642
v 2.8874499797821045 50.22056198120117 1.9292007989515807
v 4.245059967041016 48.92686462402344 1.5992707318892025
v 3.1250898838043213 48.15896224975586 0.8805137581457636
v 4.245059967041016 48.14546203613281 1.13720074363847
v 4.245059967041016 48.92686462402344 1.5992707318892025
v 3.0880000591278076 48.92686462402344 1.527070791207745
v 3.1250898838043213 48.15896224975586 0.8805137581457636
v 4.245059967041016 48.92686462402344 1.5992707318892025
v 2.8874499797821045 50.22056198120117 1.9292007989515807
v 4.245190143585205 50.22056198120117 2.0212807960142642
v 4.245120048522949 51.31706237792969 2.366400749169782
v 2.9969100952148438 51.31706237792969 2.1549806899656803
v 2.8874499797821045 50.22056198120117 1.9292007989515807
v 4.245120048522949 51.31706237792969 2.366400749169782
v 5.602930068969727 50.22056198120117 1.9292007989515807
v 5.493340015411377 51.31706237792969 2.1549806899656803
v 4.245120048522949 51.31706237792969 2.366400749169782
v 4.245190143585205 50.22056198120117 2.0212807960142642
v 5.602930068969727 50.22056198120117 1.9292007989515807
v 4.245120048522949 51.31706237792969 2.366400749169782
v 5.365029811859131 48.15896224975586 0.8805137581457636
v 6.347939968109131 48.16096496582031 1.075900704347088
v 6.210790157318115 48.92686462402344 1.449980766259625
v 5.402130126953125 48.92686462402344 1.527070791207745
v 5.365029811859131 48.15896224975586 0.8805137581457636
v 6.210790157318115 48.92686462402344 1.449980766259625
v 3.0880000591278076 48.92686462402344 1.527070791207745
v 2.8874499797821045 50.22056198120117 1.9292007989515807
v 2.2793400287628174 48.92686462402344 1.449980766259625
v 2.1421799659729004 48.16096496582031 1.075900704347088
v 3.1250898838043213 48.15896224975586 0.8805137581457636
v 3.0880000591278076 48.92686462402344 1.527070791207745
v 2.2793400287628174 48.92686462402344 1.449980766259625
v 2.1421799659729004 48.16096496582031 1.075900704347088
v 3.0880000591278076 48.92686462402344 1.527070791207745
v 6.210790157318115 48.92686462402344 1.449980766259625
v 5.602930068969727 50.22056198120117 1.9292007989515807
v 5.402130126953125 48.92686462402344 1.527070791207745
v 4.245059967041016 48.14546203613281 1.13720074363847
v 5.365029811859131 48.15896224975586 0.8805137581457636
v 5.402130126953125 48.92686462402344 1.527070791207745
v 4.245059967041016 48.92686462402344 1.5992707318892025
v 4.245059967041016 48.14546203613281 1.13720074363847
v 5.402130126953125 48.92686462402344 1.527070791207745
vt 0.28963199257850647 0.4766330122947693
vt 0.4956350028514862 0.4766330122947693
vt 0.49565500020980835 0.2609969973564148
vt 0.32009899616241455 0.2609969973564148
vt 0.28963199257850647 0.4766330122947693
vt 0.49565500020980835 0.2609969973564148
vt 0.7016389966011047 0.4766330122947693
vt 0.671209990978241 0.2609969973564148
vt 0.49565500020980835 0.2609969973564148
vt 0.4956350028514862 0.4766330122947693
vt 0.7016389966011047 0.4766330122947693
vt 0.49565500020980835 0.2609969973564148
vt 0.665582001209259 0.13300001621246338
vt 0.49565500020980835 0.13074803352355957
vt 0.49565500020980835 0.2609969973564148
vt 0.671209990978241 0.2609969973564148
vt 0.665582001209259 0.13300001621246338
vt 0.49565500020980835 0.2609969973564148
vt 0.7016389966011047 0.4766330122947693
vt 0.4956350028514862 0.4766330122947693
vt 0.4956449866294861 0.6593829989433289
vt 0.685030996799469 0.6593829989433289
vt 0.7016389966011047 0.4766330122947693
vt 0.4956449866294861 0.6593829989433289
vt 0.28963199257850647 0.4766330122947693
vt 0.30625998973846436 0.6593829989433289
vt 0.4956449866294861 0.6593829989433289
vt 0.4956350028514862 0.4766330122947693
vt 0.28963199257850647 0.4766330122947693
vt 0.4956449866294861 0.6593829989433289
vt 0.3257269859313965 0.13300001621246338
vt 0.17659500241279602 0.13333499431610107
vt 0.19740499556064606 0.2609969973564148
vt 0.32009899616241455 0.2609969973564148
vt 0.3257269859313965 0.13300001621246338
vt 0.19740499556064606 0.2609969973564148
vt 0.671209990978241 0.2609969973564148
vt 0.7016389966011047 0.4766330122947693
vt 0.7939040064811707 0.2609969973564148
vt 0.8147140145301819 0.13333499431610107
vt 0.665582001209259 0.13300001621246338
vt 0.671209990978241 0.2609969973564148
vt 0.7939040064811707 0.2609969973564148
vt 0.8147140145301819 0.13333499431610107
vt 0.671209990978241 0.2609969973564148
vt 0.19740499556064606 0.2609969973564148
vt 0.28963199257850647 0.4766330122947693
vt 0.32009899616241455 0.2609969973564148
vt 0.49565500020980835 0.13074803352355957
vt 0.3257269859313965 0.13300001621246338
vt 0.32009899616241455 0.2609969973564148
vt 0.49565500020980835 0.2609969973564148
vt 0.49565500020980835 0.13074803352355957
vt 0.32009899616241455 0.2609969973564148
vn 0.08609361655762734 -0.2830440306420047 0.9552350317623176
vn 0 -0.3055947262036795 0.952161679189253
vn -0.02063645413468107 -0.3918429894065476 0.9198006351452948
vn 0.09185831248943863 -0.46670076251963 0.8796319961723703
vn 0.08609361655762734 -0.2830440306420047 0.9552350317623176
vn -0.02063645413468107 -0.3918429894065476 0.9198006351452948
vn -0.0860939638266539 -0.2830415421803236 0.9552357378117713
vn -0.029338481246380593 -0.4600592309171829 0.8874033792847794
vn -0.02063645413468107 -0.3918429894065476 0.9198006351452948
vn 0 -0.3055947262036795 0.952161679189253
vn -0.0860939638266539 -0.2830415421803236 0.9552357378117713
vn -0.02063645413468107 -0.3918429894065476 0.9198006351452948
vn -0.035982629608949775 -0.6011880975303768 0.7982970134944958
vn 0.017397731655984787 -0.5603796872329091 0.8280530931467942
vn -0.02063645413468107 -0.3918429894065476 0.9198006351452948
vn -0.029338481246380593 -0.4600592309171829 0.8874033792847794
vn -0.035982629608949775 -0.6011880975303768 0.7982970134944958
vn -0.02063645413468107 -0.3918429894065476 0.9198006351452948
vn -0.0860939638266539 -0.2830415421803236 0.9552357378117713
vn 0 -0.3055947262036795 0.952161679189253
vn 0 -0.2466484355470765 0.9691050248771697
vn -0.1641738433761466 -0.18319328168641122 0.9692714638820581
vn -0.0860939638266539 -0.2830415421803236 0.9552357378117713
vn 0 -0.2466484355470765 0.9691050248771697
vn 0.08609361655762734 -0.2830440306420047 0.9552350317623176
vn 0.16417313892824137 -0.18317465239390884 0.9692751039693628
vn 0 -0.2466484355470765 0.9691050248771697
vn 0 -0.3055947262036795 0.952161679189253
vn 0.08609361655762734 -0.2830440306420047 0.9552350317623176
vn 0 -0.2466484355470765 0.9691050248771697
vn 0.04175195371251733 -0.5945530392527731 0.8029716420126419
vn -0.17251670573940275 -0.4570600744988384 0.8725445974504343
vn 0.0036758103697835222 -0.46202493663638455 0.8868593159821181
vn 0.09185831248943863 -0.46670076251963 0.8796319961723703
vn 0.04175195371251733 -0.5945530392527731 0.8029716420126419
vn 0.0036758103697835222 -0.46202493663638455 0.8868593159821181
vn -0.029338481246380593 -0.4600592309171829 0.8874033792847794
vn -0.0860939638266539 -0.2830415421803236 0.9552357378117713
vn -0.08876730751365292 -0.353659908109864 0.9311525302078597
vn 0.05416176882568693 -0.5556205171922008 0.8296700209557678
vn -0.035982629608949775 -0.6011880975303768 0.7982970134944958
vn -0.029338481246380593 -0.4600592309171829 0.8874033792847794
vn -0.08876730751365292 -0.353659908109864 0.9311525302078597
vn 0.05416176882568693 -0.5556205171922008 0.8296700209557678
vn -0.029338481246380593 -0.4600592309171829 0.8874033792847794
vn 0.0036758103697835222 -0.46202493663638455 0.8868593159821181
vn 0.08609361655762734 -0.2830440306420047 0.9552350317623176
vn 0.09185831248943863 -0.46670076251963 0.8796319961723703
vn 0.017397731655984787 -0.5603796872329091 0.8280530931467942
vn 0.04175195371251733 -0.5945530392527731 0.8029716420126419
vn 0.09185831248943863 -0.46670076251963 0.8796319961723703
vn -0.02063645413468107 -0.3918429894065476 0.9198006351452948
vn 0.017397731655984787 -0.5603796872329091 0.8280530931467942
vn 0.09185831248943863 -0.46670076251963 0.8796319961723703
f 1/1/1 2/2/2 3/3/3
f 4/4/4 5/5/5 6/6/6
f 7/7/7 8/8/8 9/9/9
f 10/10/10 11/11/11 12/12/12
f 13/13/13 14/14/14 15/15/15
f 16/16/16 17/17/17 18/18/18
f 19/19/19 20/20/20 21/21/21
f 22/22/22 23/23/23 24/24/24
f 25/25/25 26/26/26 27/27/27
f 28/28/28 29/29/29 30/30/30
f 31/31/31 32/32/32 33/33/33
f 34/34/34 35/35/35 36/36/36
f 37/37/37 38/38/38 39/39/39
f 40/40/40 41/41/41 42/42/42
f 43/43/43 44/44/44 45/45/45
f 46/46/46 47/47/47 48/48/48
f 49/49/49 50/50/50 51/51/51
f 52/52/52 53/53/53 54/54/54
