mtllib ArcadaCompleta.mtl
o D62C_AM
usemtl Esmalte
v 10.608400344848633 51.7359619140625 1.5004407472242862
v 11.292900085449219 52.82686233520508 1.708510786973432
v 10.675999641418457 52.39996337890625 1.3072107143034488
v 10.155900001525879 51.56076431274414 -0.6062092476258726
v 10.302599906921387 52.08126449584961 -0.6669922762284726
v 10.675999641418457 52.39996337890625 -1.2705492668519467
v 10.673100471496582 51.7359619140625 -1.615659206427142
v 10.155900001525879 51.56076431274414 -0.6062092476258726
v 10.675999641418457 52.39996337890625 -1.2705492668519467
v 10.155900001525879 51.56076431274414 0.6428657478918581
v 10.302599906921387 52.08126449584961 0.7036497301687747
v 10.18910026550293 51.92586135864258 0.01832834512789548
v 10.003999710083008 51.42116165161133 0.018328345127895367
v 10.155900001525879 51.56076431274414 0.6428657478918581
v 10.18910026550293 51.92586135864258 0.01832834512789548
v 11.098899841308594 51.0645637512207 1.9220607585539369
v 10.608400344848633 51.7359619140625 1.5004407472242862
v 10.268400192260742 50.73206329345703 1.3730907744993714
v 11.042499542236328 50.73206329345703 1.8096707172026185
v 11.098899841308594 51.0645637512207 1.9220607585539369
v 10.268400192260742 50.73206329345703 1.3730907744993714
v 10.155900001525879 51.56076431274414 0.6428657478918581
v 10.003999710083008 51.42116165161133 0.018328345127895367
v 9.867790222167969 50.73206329345703 0.018328345127895215
v 9.957900047302246 50.73206329345703 0.641303748570874
v 10.155900001525879 51.56076431274414 0.6428657478918581
v 9.867790222167969 50.73206329345703 0.018328345127895215
v 10.673100471496582 51.7359619140625 -1.615659206427142
v 10.409799575805664 50.73206329345703 -1.3364292078385802
v 9.957900047302246 50.73206329345703 -0.6046472483048889
v 10.155900001525879 51.56076431274414 -0.6062092476258726
v 10.673100471496582 51.7359619140625 -1.615659206427142
v 9.957900047302246 50.73206329345703 -0.6046472483048889
v 10.003999710083008 51.42116165161133 0.018328345127895367
v 10.155900001525879 51.56076431274414 -0.6062092476258726
v 9.957900047302246 50.73206329345703 -0.6046472483048889
v 9.867790222167969 50.73206329345703 0.018328345127895215
v 10.003999710083008 51.42116165161133 0.018328345127895367
v 9.957900047302246 50.73206329345703 -0.6046472483048889
v 11.155200004577637 51.66846466064453 -1.8687492304215878
v 10.673100471496582 51.7359619140625 -1.615659206427142
v 11.292900085449219 52.82686233520508 -1.671859233892962
v 10.673100471496582 51.7359619140625 -1.615659206427142
v 11.155200004577637 51.66846466064453 -1.8687492304215878
v 11.075699806213379 50.73206329345703 -1.5335492782960387
v 10.409799575805664 50.73206329345703 -1.3364292078385802
v 10.673100471496582 51.7359619140625 -1.615659206427142
v 11.075699806213379 50.73206329345703 -1.5335492782960387
v 10.302599906921387 52.08126449584961 0.7036497301687747
v 10.155900001525879 51.56076431274414 0.6428657478918581
v 10.608400344848633 51.7359619140625 1.5004407472242862
v 10.675999641418457 52.39996337890625 1.3072107143034488
v 10.302599906921387 52.08126449584961 0.7036497301687747
v 10.608400344848633 51.7359619140625 1.5004407472242862
v 10.675999641418457 52.39996337890625 -1.2705492668519467
v 11.292900085449219 52.82686233520508 -1.671859233892962
v 10.673100471496582 51.7359619140625 -1.615659206427142
v 10.302599906921387 52.08126449584961 -0.6669922762284726
v 10.155900001525879 51.56076431274414 -0.6062092476258726
v 10.003999710083008 51.42116165161133 0.018328345127895367
v 10.18910026550293 51.92586135864258 0.01832834512789548
v 10.302599906921387 52.08126449584961 -0.6669922762284726
v 10.003999710083008 51.42116165161133 0.018328345127895367
v 10.268400192260742 50.73206329345703 1.3730907744993714
v 10.608400344848633 51.7359619140625 1.5004407472242862
v 10.155900001525879 51.56076431274414 0.6428657478918581
v 9.957900047302246 50.73206329345703 0.641303748570874
v 10.268400192260742 50.73206329345703 1.3730907744993714
v 10.155900001525879 51.56076431274414 0.6428657478918581
vt 0 0
vt 0 0
vt 0 0
vt 0 0
vt 0 0
vt 0 0
vt 0 0
vt 0 0
vt 0 0
vt 0 0
vt 0 0
vt 0 0
vt 0 0
vt 0 0
vt 0 0
vt 0 0
vt 0 0
vt 0 0
vt 0 0
vt 0 0
vt 0 0
vt 0 0
vt 0 0
vt 0 0
vt 0 0
vt 0 0
vt 0 0
vt 0 0
vt 0 0
vt 0 0
vt 0 0
vt 0 0
vt 0 0
vt 0 0
vt 0 0
vt 0 0
vt 0 0
vt 0 0
vt 0 0
vt 0 0
vt 0 0
vt 0 0
vt 0 0
vt 0 0
vt 0 0
vt 0 0
vt 0 0
vt 0 0
vt 0 0
vt 0 0
vt 0 0
vt 0 0
vt 0 0
vt 0 0
vt 0 0
vt 0 0
vt 0 0
vt 0 0
vt 0 0
vt 0 0
vt 0 0
vt 0 0
vt 0 0
vt 0 0
vt 0 0
vt 0 0
vt 0 0
vt 0 0
vt 0 0
vn -0.7852043164502622 0.2035109752898171 0.5848396911671296
vn -0.6500523950813059 0.2725950340435474 0.7093122239633652
vn -0.7756354369396885 0.24788524296257647 0.5804675488645019
vn -0.9099471554307274 0.2201310546455093 -0.3514804306134035
vn -0.9354793024037589 0.2688296745541288 -0.2293666951701964
vn -0.8184707856753766 0.26233358568402537 -0.5111620709893231
vn -0.7195830000627005 0.10738900534734386 -0.6860524087497047
vn -0.9099471554307274 0.2201310546455093 -0.3514804306134035
vn -0.8184707856753766 0.26233358568402537 -0.5111620709893231
vn -0.9258141361526814 0.23721356252852915 0.2942752301033639
vn -0.9113922213299838 0.2231340729401203 0.3457967674694931
vn -0.9472520498958703 0.3157288878678825 0.055034746604137805
vn -0.9662192938697645 0.25366791764530205 -0.04552871304253703
vn -0.9258141361526814 0.23721356252852915 0.2942752301033639
vn -0.9472520498958703 0.3157288878678825 0.055034746604137805
vn -0.5557365559110934 0.01572883186772485 0.8312096512145133
vn -0.7852043164502622 0.2035109752898171 0.5848396911671296
vn -0.7811364017466158 0.14769481640658616 0.6066400605573081
vn -0.4806509853973629 -0.20653992641907087 0.852241684636083
vn -0.5557365559110934 0.01572883186772485 0.8312096512145133
vn -0.7811364017466158 0.14769481640658616 0.6066400605573081
vn -0.9258141361526814 0.23721356252852915 0.2942752301033639
vn -0.9662192938697645 0.25366791764530205 -0.04552871304253703
vn -0.9756745315682089 0.20786162180204992 0.06966171567638617
vn -0.9348399426140404 0.2228384563220389 0.2764367994269006
vn -0.9258141361526814 0.23721356252852915 0.2942752301033639
vn -0.9756745315682089 0.20786162180204992 0.06966171567638617
vn -0.7195830000627005 0.10738900534734386 -0.6860524087497047
vn -0.6384453036104596 -0.04624243350767376 -0.7682767936369262
vn -0.9145065972166259 0.1721235481706461 -0.3661299875896746
vn -0.9099471554307274 0.2201310546455093 -0.3514804306134035
vn -0.7195830000627005 0.10738900534734386 -0.6860524087497047
vn -0.9145065972166259 0.1721235481706461 -0.3661299875896746
vn -0.9662192938697645 0.25366791764530205 -0.04552871304253703
vn -0.9099471554307274 0.2201310546455093 -0.3514804306134035
vn -0.9145065972166259 0.1721235481706461 -0.3661299875896746
vn -0.9756745315682089 0.20786162180204992 0.06966171567638617
vn -0.9662192938697645 0.25366791764530205 -0.04552871304253703
vn -0.9145065972166259 0.1721235481706461 -0.3661299875896746
vn -0.4659018354727121 -0.0101106032942901 -0.8847786476877612
vn -0.7195830000627005 0.10738900534734386 -0.6860524087497047
vn -0.5567739149325867 0.27597070431586296 -0.7834813195029267
vn -0.7195830000627005 0.10738900534734386 -0.6860524087497047
vn -0.4659018354727121 -0.0101106032942901 -0.8847786476877612
vn -0.3672982283707573 -0.2211913810755633 -0.9034192738554937
vn -0.6384453036104596 -0.04624243350767376 -0.7682767936369262
vn -0.7195830000627005 0.10738900534734386 -0.6860524087497047
vn -0.3672982283707573 -0.2211913810755633 -0.9034192738554937
vn -0.9113922213299838 0.2231340729401203 0.3457967674694931
vn -0.9258141361526814 0.23721356252852915 0.2942752301033639
vn -0.7852043164502622 0.2035109752898171 0.5848396911671296
vn -0.7756354369396885 0.24788524296257647 0.5804675488645019
vn -0.9113922213299838 0.2231340729401203 0.3457967674694931
vn -0.7852043164502622 0.2035109752898171 0.5848396911671296
vn -0.8184707856753766 0.26233358568402537 -0.5111620709893231
vn -0.5567739149325867 0.27597070431586296 -0.7834813195029267
vn -0.7195830000627005 0.10738900534734386 -0.6860524087497047
vn -0.9354793024037589 0.2688296745541288 -0.2293666951701964
vn -0.9099471554307274 0.2201310546455093 -0.3514804306134035
vn -0.9662192938697645 0.25366791764530205 -0.04552871304253703
vn -0.9472520498958703 0.3157288878678825 0.055034746604137805
vn -0.9354793024037589 0.2688296745541288 -0.2293666951701964
vn -0.9662192938697645 0.25366791764530205 -0.04552871304253703
vn -0.7811364017466158 0.14769481640658616 0.6066400605573081
vn -0.7852043164502622 0.2035109752898171 0.5848396911671296
vn -0.9258141361526814 0.23721356252852915 0.2942752301033639
vn -0.9348399426140404 0.2228384563220389 0.2764367994269006
vn -0.7811364017466158 0.14769481640658616 0.6066400605573081
vn -0.9258141361526814 0.23721356252852915 0.2942752301033639
f 1/1/1 2/2/2 3/3/3
f 4/4/4 5/5/5 6/6/6
f 7/7/7 8/8/8 9/9/9
f 10/10/10 11/11/11 12/12/12
f 13/13/13 14/14/14 15/15/15
f 16/16/16 17/17/17 18/18/18
f 19/19/19 20/20/20 21/21/21
f 22/22/22 23/23/23 24/24/24
f 25/25/25 26/26/26 27/27/27
f 28/28/28 29/29/29 30/30/30
f 31/31/31 32/32/32 33/33/33
f 34/34/34 35/35/35 36/36/36
f 37/37/37 38/38/38 39/39/39
f 40/40/40 41/41/41 42/42/42
f 43/43/43 44/44/44 45/45/45
f 46/46/46 47/47/47 48/48/48
f 49/49/49 50/50/50 51/51/51
f 52/52/52 53/53/53 54/54/54
f 55/55/55 56/56/56 57/57/57
f 58/58/58 59/59/59 60/60/60
f 61/61/61 62/62/62 63/63/63
f 64/64/64 65/65/65 66/66/66
f 67/67/67 68/68/68 69/69/69
