mtllib ArcadaCompleta.mtl
o D63C_Fl
usemtl Esmalte
v 17.557300567626953 52.383663177490234 -3.284439294851824
v 17.779199600219727 53.69856262207031 -2.5021991424928154
v 18.778600692749023 53.84516143798828 -2.7262692146668877
v 18.778600692749023 52.383663177490234 -3.4880692654023613
v 17.557300567626953 52.383663177490234 -3.284439294851824
v 18.778600692749023 53.84516143798828 -2.7262692146668877
v 17.557300567626953 52.383663177490234 -3.284439294851824
v 18.778600692749023 52.383663177490234 -3.4880692654023613
v 18.778799057006836 51.429161071777344 -3.2900092296967953
v 17.340900421142578 51.429161071777344 -2.9940693073640317
v 17.557300567626953 52.383663177490234 -3.284439294851824
v 18.778799057006836 51.429161071777344 -3.2900092296967953
v 20.92620086669922 52.383663177490234 -2.3572292023072685
v 19.999900817871094 52.383663177490234 -3.086929290808245
v 19.77790069580078 53.82656478881836 -2.5021991424928154
v 20.629199981689453 53.58236312866211 -1.9063292436967338
v 20.92620086669922 52.383663177490234 -2.3572292023072685
v 19.77790069580078 53.82656478881836 -2.5021991424928154
v 18.778600692749023 52.383663177490234 -3.4880692654023613
v 19.999900817871094 52.383663177490234 -3.086929290808245
v 20.21660041809082 51.429161071777344 -2.9940693073640317
v 18.778799057006836 51.429161071777344 -3.2900092296967953
v 18.778600692749023 52.383663177490234 -3.4880692654023613
v 20.21660041809082 51.429161071777344 -2.9940693073640317
v 20.92620086669922 52.383663177490234 -2.3572292023072685
v 20.798900604248047 51.429161071777344 -2.5293993645081967
v 20.21660041809082 51.429161071777344 -2.9940693073640317
v 19.999900817871094 52.383663177490234 -3.086929290808245
v 20.92620086669922 52.383663177490234 -2.3572292023072685
v 20.21660041809082 51.429161071777344 -2.9940693073640317
v 17.779199600219727 53.69856262207031 -2.5021991424928154
v 17.557300567626953 52.383663177490234 -3.284439294851824
v 16.631000518798828 52.383663177490234 -2.3572292023072685
v 16.927900314331055 53.311363220214844 -1.906329243696734
v 17.779199600219727 53.69856262207031 -2.5021991424928154
v 16.631000518798828 52.383663177490234 -2.3572292023072685
v 19.77790069580078 53.82656478881836 -2.5021991424928154
v 19.999900817871094 52.383663177490234 -3.086929290808245
v 18.778600692749023 52.383663177490234 -3.4880692654023613
v 18.778600692749023 53.84516143798828 -2.7262692146668877
v 19.77790069580078 53.82656478881836 -2.5021991424928154
v 18.778600692749023 52.383663177490234 -3.4880692654023613
v 16.75860023498535 51.429161071777344 -2.5293993645081967
v 16.631000518798828 52.383663177490234 -2.3572292023072685
v 17.557300567626953 52.383663177490234 -3.284439294851824
v 17.340900421142578 51.429161071777344 -2.9940693073640317
v 16.75860023498535 51.429161071777344 -2.5293993645081967
v 17.557300567626953 52.383663177490234 -3.284439294851824
vt 0.30989399552345276 0.7758209705352783
vt 0.34202900528907776 0.9770529866218567
vt 0.4867280125617981 0.9994999766349792
vt 0.4867280125617981 0.7758209705352783
vt 0.30989399552345276 0.7758209705352783
vt 0.4867280125617981 0.9994999766349792
vt 0.30989399552345276 0.7758209705352783
vt 0.4867280125617981 0.7758209705352783
vt 0.486752986907959 0.6297370195388794
vt 0.27856698632240295 0.6297370195388794
vt 0.30989399552345276 0.7758209705352783
vt 0.486752986907959 0.6297370195388794
vt 0.7976850271224976 0.7758209705352783
vt 0.6635609865188599 0.7758209705352783
vt 0.6314259767532349 0.9966430068016052
vt 0.7546870112419128 0.9592829942703247
vt 0.7976850271224976 0.7758209705352783
vt 0.6314259767532349 0.9966430068016052
vt 0.4867280125617981 0.7758209705352783
vt 0.6635609865188599 0.7758209705352783
vt 0.6949380040168762 0.6297370195388794
vt 0.486752986907959 0.6297370195388794
vt 0.4867280125617981 0.7758209705352783
vt 0.6949380040168762 0.6297370195388794
vt 0.7976850271224976 0.7758209705352783
vt 0.7792490124702454 0.6297370195388794
vt 0.6949380040168762 0.6297370195388794
vt 0.6635609865188599 0.7758209705352783
vt 0.7976850271224976 0.7758209705352783
vt 0.6949380040168762 0.6297370195388794
vt 0.8586210012435913 0.9770529866218567
vt 0.9704020023345947 0.7758209705352783
vt 0.8379039764404297 0.7758209705352783
vt 0.773472011089325 0.9177960157394409
vt 0.8586210012435913 0.9770529866218567
vt 0.8379039764404297 0.7758209705352783
vt 0.6314259767532349 0.9966430068016052
vt 0.6635609865188599 0.7758209705352783
vt 0.4867280125617981 0.7758209705352783
vt 0.4867280125617981 0.9994999766349792
vt 0.6314259767532349 0.9966430068016052
vt 0.4867280125617981 0.7758209705352783
vt 0.8625069856643677 0.6297370195388794
vt 0.8379039764404297 0.7758209705352783
vt 0.9704020023345947 0.7758209705352783
vt 0.27856698632240295 0.6297370195388794
vt 0.194255992770195 0.6297370195388794
vt 0.30989399552345276 0.7758209705352783
vn -0.4012624763430092 0.22253580853762173 -0.8885191269734056
vn -0.5138342416376162 0.5065763628066099 -0.6923545051245942
vn -0.07030403630088959 0.4856401096936845 -0.871327163777481
vn 0.1216461390202358 0.21593709818088241 -0.9687999723837162
vn -0.4012624763430092 0.22253580853762173 -0.8885191269734056
vn -0.07030403630088959 0.4856401096936845 -0.871327163777481
vn -0.4012624763430092 0.22253580853762173 -0.8885191269734056
vn 0.1216461390202358 0.21593709818088241 -0.9687999723837162
vn -0.048432416301242454 -0.21931165043494674 -0.9744520003749404
vn -0.3451900039953857 -0.20065087731913253 -0.916833183612334
vn -0.4012624763430092 0.22253580853762173 -0.8885191269734056
vn -0.048432416301242454 -0.21931165043494674 -0.9744520003749404
vn 0.6049910357582169 0.2762327297645131 -0.7467806409241239
vn 0.4501693475801301 0.25777945789717865 -0.8549253239818766
vn 0.41179008149890955 0.4163807114614096 -0.8105899283250514
vn 0.599222271342962 0.40765030056890506 -0.6890238761992671
vn 0.6049910357582169 0.2762327297645131 -0.7467806409241239
vn 0.41179008149890955 0.4163807114614096 -0.8105899283250514
vn 0.1216461390202358 0.21593709818088241 -0.9687999723837162
vn 0.4501693475801301 0.25777945789717865 -0.8549253239818766
vn 0.41284315828041473 -0.04527336999887293 -0.9096762328598003
vn -0.048432416301242454 -0.21931165043494674 -0.9744520003749404
vn 0.1216461390202358 0.21593709818088241 -0.9687999723837162
vn 0.41284315828041473 -0.04527336999887293 -0.9096762328598003
vn 0.6049910357582169 0.2762327297645131 -0.7467806409241239
vn 0.622697371940439 0.05770584368010506 -0.7803319925414042
vn 0.41284315828041473 -0.04527336999887293 -0.9096762328598003
vn 0.4501693475801301 0.25777945789717865 -0.8549253239818766
vn 0.6049910357582169 0.2762327297645131 -0.7467806409241239
vn 0.41284315828041473 -0.04527336999887293 -0.9096762328598003
vn -0.5138342416376162 0.5065763628066099 -0.6923545051245942
vn -0.4012624763430092 0.22253580853762173 -0.8885191269734056
vn -0.6659865346879935 0.360388187798041 -0.6531326738955278
vn -0.6382274556937024 0.4920355921084977 -0.5920867258241677
vn -0.5138342416376162 0.5065763628066099 -0.6923545051245942
vn -0.6659865346879935 0.360388187798041 -0.6531326738955278
vn 0.41179008149890955 0.4163807114614096 -0.8105899283250514
vn 0.4501693475801301 0.25777945789717865 -0.8549253239818766
vn 0.1216461390202358 0.21593709818088241 -0.9687999723837162
vn -0.07030403630088959 0.4856401096936845 -0.871327163777481
vn 0.41179008149890955 0.4163807114614096 -0.8105899283250514
vn 0.1216461390202358 0.21593709818088241 -0.9687999723837162
vn -0.6780366715059458 -0.013962544124964015 -0.7348954479752183
vn -0.6659865346879935 0.360388187798041 -0.6531326738955278
vn -0.4012624763430092 0.22253580853762173 -0.8885191269734056
vn -0.3451900039953857 -0.20065087731913253 -0.916833183612334
vn -0.6780366715059458 -0.013962544124964015 -0.7348954479752183
vn -0.4012624763430092 0.22253580853762173 -0.8885191269734056
f 1/1/1 2/2/2 3/3/3
f 4/4/4 5/5/5 6/6/6
f 7/7/7 8/8/8 9/9/9
f 10/10/10 11/11/11 12/12/12
f 13/13/13 14/14/14 15/15/15
f 16/16/16 17/17/17 18/18/18
f 19/19/19 20/20/20 21/21/21
f 22/22/22 23/23/23 24/24/24
f 25/25/25 26/26/26 27/27/27
f 28/28/28 29/29/29 30/30/30
f 31/31/31 32/32/32 33/33/33
f 34/34/34 35/35/35 36/36/36
f 37/37/37 38/38/38 39/39/39
f 40/40/40 41/41/41 42/42/42
f 43/43/43 44/44/44 45/45/45
f 46/46/46 47/47/47 48/48/48
