mtllib ArcadaCompleta.mtl
o D63C_V
usemtl Esmalte
v 16.636899948120117 52.383663177490234 2.372050792657331
v 17.09709930419922 52.383663177490234 2.8356507129301582
v 16.927900314331055 53.311363220214844 1.9211507148375067
v 19.999900817871094 52.603363037109375 3.1017506427397286
v 20.460100173950195 52.383663177490234 2.7369008369078194
v 20.629199981689453 53.58236312866211 1.9211507148375069
v 19.77790069580078 53.82656478881836 2.517020732842878
v 19.999900817871094 52.603363037109375 3.1017506427397286
v 20.629199981689453 53.58236312866211 1.9211507148375069
v 17.557300567626953 52.603363037109375 3.2992606467833077
v 18.778600692749023 52.7713623046875 3.502890855752424
v 18.778600692749023 53.84516143798828 2.7410908050169502
v 17.779199600219727 53.69856262207031 2.517020732842878
v 17.557300567626953 52.603363037109375 3.2992606467833077
v 18.778600692749023 53.84516143798828 2.7410908050169502
v 17.09709930419922 52.383663177490234 2.8356507129301582
v 17.557300567626953 52.603363037109375 3.2992606467833077
v 17.779199600219727 53.69856262207031 2.517020732842878
v 16.927900314331055 53.311363220214844 1.9211507148375067
v 17.09709930419922 52.383663177490234 2.8356507129301582
v 17.779199600219727 53.69856262207031 2.517020732842878
v 18.778600692749023 52.7713623046875 3.502890855752424
v 19.999900817871094 52.603363037109375 3.1017506427397286
v 19.77790069580078 53.82656478881836 2.517020732842878
v 18.778600692749023 53.84516143798828 2.7410908050169502
v 18.778600692749023 52.7713623046875 3.502890855752424
v 19.77790069580078 53.82656478881836 2.517020732842878
v 20.629199981689453 53.58236312866211 1.9211507148375069
v 20.460100173950195 52.383663177490234 2.7369008369078194
v 20.920299530029297 52.383663177490234 2.372050792657331
vt 0.16209599375724792 0.7758209705352783
vt 0.09584680199623108 0.7758209705352783
vt 0.22652800381183624 0.9177960157394409
vt 0.9421780109405518 0.8094469904899597
vt 0.8900409936904907 0.7758209705352783
vt 0.773472011089325 0.9592829942703247
vt 0.36857399344444275 0.9966430068016052
vt 0.33643800020217896 0.8094469904899597
vt 0.24531300365924835 0.9592829942703247
vt 0.6901059746742249 0.8094469904899597
vt 0.5132719874382019 0.8351600170135498
vt 0.5132719874382019 0.9994999766349792
vt 0.6579700112342834 0.9770529866218567
vt 0.6901059746742249 0.8094469904899597
vt 0.5132719874382019 0.9994999766349792
vt 0.09584680199623108 0.7758209705352783
vt 0.029597999528050423 0.8094469904899597
vt 0.1413789987564087 0.9770529866218567
vt 0.22652800381183624 0.9177960157394409
vt 0.09584680199623108 0.7758209705352783
vt 0.1413789987564087 0.9770529866218567
vt 0.5132719874382019 0.8351600170135498
vt 0.33643800020217896 0.8094469904899597
vt 0.36857399344444275 0.9966430068016052
vt 0.5132719874382019 0.9994999766349792
vt 0.5132719874382019 0.8351600170135498
vt 0.36857399344444275 0.9966430068016052
vt 0.24531300365924835 0.9592829942703247
vt 0.26980501413345337 0.7758209705352783
vt 0.2031709998846054 0.7758209705352783
vn -0.617890916858496 0.49193698189589136 0.6133586395469853
vn -0.6618111866206924 0.48669032266832507 0.5702091573139744
vn -0.6322138777284452 0.4823794863127889 0.6063131567038379
vn 0.510392054592434 0.4292611053694465 0.7451408283176508
vn 0.6292735310653829 0.37462431028342075 0.6809342473728105
vn 0.6146160265980934 0.4013722474838535 0.6790783892884033
vn 0.38236194683985614 0.4891722097937388 0.7839068125576824
vn 0.510392054592434 0.4292611053694465 0.7451408283176508
vn 0.6146160265980934 0.4013722474838535 0.6790783892884033
vn -0.3594721195858382 0.5768743058165957 0.7334819905962832
vn 0.1078868519256628 0.5415228286098858 0.8337346420030287
vn -0.10522037486234624 0.5874324892803824 0.8024037283385966
vn -0.5336150054275836 0.5406011467938716 0.6503886730776226
vn -0.3594721195858382 0.5768743058165957 0.7334819905962832
vn -0.10522037486234624 0.5874324892803824 0.8024037283385966
vn -0.6618111866206924 0.48669032266832507 0.5702091573139744
vn -0.3594721195858382 0.5768743058165957 0.7334819905962832
vn -0.5336150054275836 0.5406011467938716 0.6503886730776226
vn -0.6322138777284452 0.4823794863127889 0.6063131567038379
vn -0.6618111866206924 0.48669032266832507 0.5702091573139744
vn -0.5336150054275836 0.5406011467938716 0.6503886730776226
vn 0.1078868519256628 0.5415228286098858 0.8337346420030287
vn 0.510392054592434 0.4292611053694465 0.7451408283176508
vn 0.38236194683985614 0.4891722097937388 0.7839068125576824
vn -0.10522037486234624 0.5874324892803824 0.8024037283385966
vn 0.1078868519256628 0.5415228286098858 0.8337346420030287
vn 0.38236194683985614 0.4891722097937388 0.7839068125576824
vn 0.6146160265980934 0.4013722474838535 0.6790783892884033
vn 0.6292735310653829 0.37462431028342075 0.6809342473728105
vn 0.567458171007429 0.4070423246715693 0.7157567813740001
f 1/1/1 2/2/2 3/3/3
f 4/4/4 5/5/5 6/6/6
f 7/7/7 8/8/8 9/9/9
f 10/10/10 11/11/11 12/12/12
f 13/13/13 14/14/14 15/15/15
f 16/16/16 17/17/17 18/18/18
f 19/19/19 20/20/20 21/21/21
f 22/22/22 23/23/23 24/24/24
f 25/25/25 26/26/26 27/27/27
f 28/28/28 29/29/29 30/30/30
