mtllib ArcadaCompleta.mtl
o D63C_F
usemtl Esmalte
v 20.14229965209961 50.16716384887695 2.596400768243268
v 18.778799057006836 50.16716384887695 2.8700506991972476
v 18.778799057006836 49.07596206665039 2.169880659066632
v 20.0221004486084 49.07596206665039 1.8072707957853817
v 20.14229965209961 50.16716384887695 2.596400768243268
v 18.778799057006836 49.07596206665039 2.169880659066632
v 17.38290023803711 50.16716384887695 2.596400768243268
v 17.50309944152832 49.07596206665039 1.7972307510008358
v 18.778799057006836 49.07596206665039 2.169880659066632
v 18.778799057006836 50.16716384887695 2.8700506991972476
v 17.38290023803711 50.16716384887695 2.596400768243268
v 18.778799057006836 49.07596206665039 2.169880659066632
v 17.64780044555664 48.37926483154297 1.314790756188824
v 18.748699188232422 48.36256408691406 1.6303807801832697
v 18.778799057006836 49.07596206665039 2.169880659066632
v 17.50309944152832 49.07596206665039 1.7972307510008358
v 17.64780044555664 48.37926483154297 1.314790756188824
v 18.778799057006836 49.07596206665039 2.169880659066632
v 17.38290023803711 50.16716384887695 2.596400768243268
v 18.778799057006836 50.16716384887695 2.8700506991972476
v 18.778799057006836 51.429161071777344 3.304830820046857
v 17.340900421142578 51.429161071777344 3.0088906592955142
v 17.38290023803711 50.16716384887695 2.596400768243268
v 18.778799057006836 51.429161071777344 3.304830820046857
v 17.557300567626953 52.603363037109375 3.2992606467833077
v 17.340900421142578 51.429161071777344 3.0088906592955142
v 18.778799057006836 51.429161071777344 3.304830820046857
v 18.778600692749023 52.7713623046875 3.502890855752424
v 17.557300567626953 52.603363037109375 3.2992606467833077
v 18.778799057006836 51.429161071777344 3.304830820046857
v 20.14229965209961 50.16716384887695 2.596400768243268
v 20.21660041809082 51.429161071777344 3.0088906592955142
v 18.778799057006836 51.429161071777344 3.304830820046857
v 18.778799057006836 50.16716384887695 2.8700506991972476
v 20.14229965209961 50.16716384887695 2.596400768243268
v 18.778799057006836 51.429161071777344 3.304830820046857
v 16.81730079650879 50.16716384887695 2.3973007506956607
v 16.859500885009766 49.07596206665039 1.7328307933439755
v 17.50309944152832 49.07596206665039 1.7972307510008358
v 17.38290023803711 50.16716384887695 2.596400768243268
v 16.81730079650879 50.16716384887695 2.3973007506956607
v 17.50309944152832 49.07596206665039 1.7972307510008358
v 20.72410011291504 50.16716384887695 2.3973007506956607
v 20.14229965209961 50.16716384887695 2.596400768243268
v 20.0221004486084 49.07596206665039 1.8072707957853817
v 20.5580997467041 49.07596206665039 1.737850696526959
v 20.72410011291504 50.16716384887695 2.3973007506956607
v 20.0221004486084 49.07596206665039 1.8072707957853817
v 18.748699188232422 48.36256408691406 1.6303807801832697
v 19.914199829101562 48.238563537597656 1.3248207873930475
v 20.0221004486084 49.07596206665039 1.8072707957853817
v 18.778799057006836 49.07596206665039 2.169880659066632
v 18.748699188232422 48.36256408691406 1.6303807801832697
v 20.0221004486084 49.07596206665039 1.8072707957853817
v 16.81730079650879 50.16716384887695 2.3973007506956607
v 17.38290023803711 50.16716384887695 2.596400768243268
v 17.340900421142578 51.429161071777344 3.0088906592955142
v 16.87420082092285 51.429161071777344 2.689790756188825
v 16.81730079650879 50.16716384887695 2.3973007506956607
v 17.340900421142578 51.429161071777344 3.0088906592955142
v 20.683300018310547 51.429161071777344 2.689790756188825
v 20.21660041809082 51.429161071777344 3.0088906592955142
v 20.14229965209961 50.16716384887695 2.596400768243268
v 20.72410011291504 50.16716384887695 2.3973007506956607
v 20.683300018310547 51.429161071777344 2.689790756188825
v 20.14229965209961 50.16716384887695 2.596400768243268
v 20.21660041809082 51.429161071777344 3.0088906592955142
v 19.999900817871094 52.603363037109375 3.1017506427397286
v 18.778600692749023 52.7713623046875 3.502890855752424
v 18.778799057006836 51.429161071777344 3.304830820046857
v 20.21660041809082 51.429161071777344 3.0088906592955142
v 18.778600692749023 52.7713623046875 3.502890855752424
v 20.683300018310547 51.429161071777344 2.689790756188825
v 20.460100173950195 52.383663177490234 2.7369008369078194
v 19.999900817871094 52.603363037109375 3.1017506427397286
v 20.21660041809082 51.429161071777344 3.0088906592955142
v 20.683300018310547 51.429161071777344 2.689790756188825
v 19.999900817871094 52.603363037109375 3.1017506427397286
v 16.859500885009766 49.07596206665039 1.7328307933439755
v 16.900299072265625 48.573062896728516 1.2909606999983334
v 17.64780044555664 48.37926483154297 1.314790756188824
v 17.50309944152832 49.07596206665039 1.7972307510008358
v 16.859500885009766 49.07596206665039 1.7328307933439755
v 17.64780044555664 48.37926483154297 1.314790756188824
v 19.914199829101562 48.238563537597656 1.3248207873930475
v 20.640100479125977 48.24936294555664 1.2387707538237116
v 20.5580997467041 49.07596206665039 1.737850696526959
v 20.0221004486084 49.07596206665039 1.8072707957853817
v 19.914199829101562 48.238563537597656 1.3248207873930475
v 20.5580997467041 49.07596206665039 1.737850696526959
v 17.557300567626953 52.603363037109375 3.2992606467833077
v 17.09709930419922 52.383663177490234 2.8356507129301582
v 16.87420082092285 51.429161071777344 2.689790756188825
v 17.340900421142578 51.429161071777344 3.0088906592955142
v 17.557300567626953 52.603363037109375 3.2992606467833077
v 16.87420082092285 51.429161071777344 2.689790756188825
vt 0.3158220052719116 0.43660998344421387
vt 0.513247013092041 0.43660998344421387
vt 0.513247013092041 0.26961201429367065
vt 0.33322399854660034 0.26961201429367065
vt 0.3158220052719116 0.43660998344421387
vt 0.513247013092041 0.26961201429367065
vt 0.7153480052947998 0.43660998344421387
vt 0.6979460120201111 0.26961201429367065
vt 0.513247013092041 0.26961201429367065
vt 0.513247013092041 0.43660998344421387
vt 0.7153480052947998 0.43660998344421387
vt 0.513247013092041 0.26961201429367065
vt 0.6769930124282837 0.16297298669815063
vt 0.5175939798355103 0.16042399406433105
vt 0.513247013092041 0.26961201429367065
vt 0.6979460120201111 0.26961201429367065
vt 0.6769930124282837 0.16297298669815063
vt 0.513247013092041 0.26961201429367065
vt 0.7153480052947998 0.43660998344421387
vt 0.513247013092041 0.43660998344421387
vt 0.513247013092041 0.6297370195388794
vt 0.7214319705963135 0.6297370195388794
vt 0.7153480052947998 0.43660998344421387
vt 0.513247013092041 0.6297370195388794
vt 0.6901059746742249 0.8094469904899597
vt 0.7214319705963135 0.6297370195388794
vt 0.513247013092041 0.6297370195388794
vt 0.5132719874382019 0.8351600170135498
vt 0.6901059746742249 0.8094469904899597
vt 0.513247013092041 0.6297370195388794
vt 0.3158220052719116 0.43660998344421387
vt 0.3050619959831238 0.6297370195388794
vt 0.513247013092041 0.6297370195388794
vt 0.513247013092041 0.43660998344421387
vt 0.3158220052719116 0.43660998344421387
vt 0.513247013092041 0.6297370195388794
vt 0.7972509860992432 0.43660998344421387
vt 0.7911360263824463 0.26961201429367065
vt 0.6979460120201111 0.26961201429367065
vt 0.7153480052947998 0.43660998344421387
vt 0.7972509860992432 0.43660998344421387
vt 0.6979460120201111 0.26961201429367065
vt 0.23158200085163116 0.43660998344421387
vt 0.3158220052719116 0.43660998344421387
vt 0.33322399854660034 0.26961201429367065
vt 0.25561898946762085 0.26961201429367065
vt 0.23158200085163116 0.43660998344421387
vt 0.33322399854660034 0.26961201429367065
vt 0.5175939798355103 0.16042399406433105
vt 0.3488430082798004 0.14145302772521973
vt 0.33322399854660034 0.26961201429367065
vt 0.513247013092041 0.26961201429367065
vt 0.5175939798355103 0.16042399406433105
vt 0.33322399854660034 0.26961201429367065
vt 0.7972509860992432 0.43660998344421387
vt 0.7153480052947998 0.43660998344421387
vt 0.7214319705963135 0.6297370195388794
vt 0.7890030145645142 0.6297370195388794
vt 0.7972509860992432 0.43660998344421387
vt 0.7214319705963135 0.6297370195388794
vt 0.23749099671840668 0.6297370195388794
vt 0.3050619959831238 0.6297370195388794
vt 0.3158220052719116 0.43660998344421387
vt 0.23158200085163116 0.43660998344421387
vt 0.23749099671840668 0.6297370195388794
vt 0.3158220052719116 0.43660998344421387
vt 0.3050619959831238 0.6297370195388794
vt 0.33643800020217896 0.8094469904899597
vt 0.5132719874382019 0.8351600170135498
vt 0.513247013092041 0.6297370195388794
vt 0.3050619959831238 0.6297370195388794
vt 0.5132719874382019 0.8351600170135498
vt 0.23749099671840668 0.6297370195388794
vt 0.26980501413345337 0.7758209705352783
vt 0.33643800020217896 0.8094469904899597
vt 0.3050619959831238 0.6297370195388794
vt 0.23749099671840668 0.6297370195388794
vt 0.33643800020217896 0.8094469904899597
vt 0.7911360263824463 0.26961201429367065
vt 0.7852230072021484 0.19264501333236694
vt 0.6769930124282837 0.16297298669815063
vt 0.6979460120201111 0.26961201429367065
vt 0.7911360263824463 0.26961201429367065
vt 0.6769930124282837 0.16297298669815063
vt 0.3488430082798004 0.14145302772521973
vt 0.24374499917030334 0.14309900999069214
vt 0.25561898946762085 0.26961201429367065
vt 0.33322399854660034 0.26961201429367065
vt 0.3488430082798004 0.14145302772521973
vt 0.25561898946762085 0.26961201429367065
vt 0.029597999528050423 0.8094469904899597
vt 0.09584680199623108 0.7758209705352783
vt 0.11669100075960159 0.6297370195388794
vt 0.7214319705963135 0.6297370195388794
vt 0.6901059746742249 0.8094469904899597
vt 0.7890030145645142 0.6297370195388794
vn 0.23929370070425302 -0.42410780778114 0.8734249207472495
vn 4.133931433840985e-9 -0.43441471609199744 0.9007129700646646
vn -0.024036035111659273 -0.5818889182234714 0.812913006332676
vn 0.19717006043469226 -0.5605118349944792 0.8043323007932116
vn 0.23929370070425302 -0.42410780778114 0.8734249207472495
vn -0.024036035111659273 -0.5818889182234714 0.812913006332676
vn -0.21087732811227022 -0.4425407031078982 0.871601100607954
vn -0.19529210931964133 -0.57880002058113 0.7917395583225387
vn -0.024036035111659273 -0.5818889182234714 0.812913006332676
vn 4.133931433840985e-9 -0.43441471609199744 0.9007129700646646
vn -0.21087732811227022 -0.4425407031078982 0.871601100607954
vn -0.024036035111659273 -0.5818889182234714 0.812913006332676
vn -0.19884263001248428 -0.5953130728697672 0.7785010942574672
vn 0.06774969497971128 -0.571696051368141 0.8176635027199344
vn -0.024036035111659273 -0.5818889182234714 0.812913006332676
vn -0.19529210931964133 -0.57880002058113 0.7917395583225387
vn -0.19884263001248428 -0.5953130728697672 0.7785010942574672
vn -0.024036035111659273 -0.5818889182234714 0.812913006332676
vn -0.21087732811227022 -0.4425407031078982 0.871601100607954
vn 4.133931433840985e-9 -0.43441471609199744 0.9007129700646646
vn -0.014865193743869503 -0.2577863213616608 0.9660875936134259
vn -0.3016430745434214 -0.23886749846561656 0.9230134201390415
vn -0.21087732811227022 -0.4425407031078982 0.871601100607954
vn -0.014865193743869503 -0.2577863213616608 0.9660875936134259
vn -0.3033694232261865 -0.13827332423020133 0.9427870814015965
vn -0.3016430745434214 -0.23886749846561656 0.9230134201390415
vn -0.014865193743869503 -0.2577863213616608 0.9660875936134259
vn 0.1216705202267393 -0.10985974825809353 0.986472057496016
vn -0.3033694232261865 -0.13827332423020133 0.9427870814015965
vn -0.014865193743869503 -0.2577863213616608 0.9660875936134259
vn 0.23929370070425302 -0.42410780778114 0.8734249207472495
vn 0.2997110475620119 -0.1670470082917948 0.9392915335453859
vn -0.014865193743869503 -0.2577863213616608 0.9660875936134259
vn 4.133931433840985e-9 -0.43441471609199744 0.9007129700646646
vn 0.23929370070425302 -0.42410780778114 0.8734249207472495
vn -0.014865193743869503 -0.2577863213616608 0.9660875936134259
vn -0.3076377156776755 -0.4137760325149545 0.856824620799849
vn -0.11338016941742904 -0.5763147591996947 0.8093245551146172
vn -0.19529210931964133 -0.57880002058113 0.7917395583225387
vn -0.21087732811227022 -0.4425407031078982 0.871601100607954
vn -0.3076377156776755 -0.4137760325149545 0.856824620799849
vn -0.19529210931964133 -0.57880002058113 0.7917395583225387
vn 0.24019665883020994 -0.4457664465048427 0.8623211932089162
vn 0.23929370070425302 -0.42410780778114 0.8734249207472495
vn 0.19717006043469226 -0.5605118349944792 0.8043323007932116
vn 0.10954426306999251 -0.5135082043017962 0.8510636747877312
vn 0.24019665883020994 -0.4457664465048427 0.8623211932089162
vn 0.19717006043469226 -0.5605118349944792 0.8043323007932116
vn 0.06774969497971128 -0.571696051368141 0.8176635027199344
vn 0.1379428605445047 -0.5074590858644618 0.8505627803980162
vn 0.19717006043469226 -0.5605118349944792 0.8043323007932116
vn -0.024036035111659273 -0.5818889182234714 0.812913006332676
vn 0.06774969497971128 -0.571696051368141 0.8176635027199344
vn 0.19717006043469226 -0.5605118349944792 0.8043323007932116
vn -0.3076377156776755 -0.4137760325149545 0.856824620799849
vn -0.21087732811227022 -0.4425407031078982 0.871601100607954
vn -0.3016430745434214 -0.23886749846561656 0.9230134201390415
vn -0.612134425891166 -0.07657590123872263 0.7870372138522869
vn -0.3076377156776755 -0.4137760325149545 0.856824620799849
vn -0.3016430745434214 -0.23886749846561656 0.9230134201390415
vn 0.5140474932893168 -0.11010306110447134 0.8506659100836209
vn 0.2997110475620119 -0.1670470082917948 0.9392915335453859
vn 0.23929370070425302 -0.42410780778114 0.8734249207472495
vn 0.24019665883020994 -0.4457664465048427 0.8623211932089162
vn 0.5140474932893168 -0.11010306110447134 0.8506659100836209
vn 0.23929370070425302 -0.42410780778114 0.8734249207472495
vn 0.2997110475620119 -0.1670470082917948 0.9392915335453859
vn 0.4471209413292372 0.022617186532667977 0.8941875232288827
vn 0.1216705202267393 -0.10985974825809353 0.986472057496016
vn -0.014865193743869503 -0.2577863213616608 0.9660875936134259
vn 0.2997110475620119 -0.1670470082917948 0.9392915335453859
vn 0.1216705202267393 -0.10985974825809353 0.986472057496016
vn 0.5140474932893168 -0.11010306110447134 0.8506659100836209
vn 0.6502621663824145 0.1149927209929779 0.7509565826932207
vn 0.4471209413292372 0.022617186532667977 0.8941875232288827
vn 0.2997110475620119 -0.1670470082917948 0.9392915335453859
vn 0.5140474932893168 -0.11010306110447134 0.8506659100836209
vn 0.4471209413292372 0.022617186532667977 0.8941875232288827
vn -0.11338016941742904 -0.5763147591996947 0.8093245551146172
vn -0.19342497237326256 -0.6563977682682628 0.7291973326026684
vn -0.19884263001248428 -0.5953130728697672 0.7785010942574672
vn -0.19529210931964133 -0.57880002058113 0.7917395583225387
vn -0.11338016941742904 -0.5763147591996947 0.8093245551146172
vn -0.19884263001248428 -0.5953130728697672 0.7785010942574672
vn 0.1379428605445047 -0.5074590858644618 0.8505627803980162
vn 0.10896390255711845 -0.5058484728320738 0.8557126798598824
vn 0.10954426306999251 -0.5135082043017962 0.8510636747877312
vn 0.19717006043469226 -0.5605118349944792 0.8043323007932116
vn 0.1379428605445047 -0.5074590858644618 0.8505627803980162
vn 0.10954426306999251 -0.5135082043017962 0.8510636747877312
vn -0.3033694232261865 -0.13827332423020133 0.9427870814015965
vn -0.723218945060637 0.06380455655201409 0.6876651336723278
vn -0.612134425891166 -0.07657590123872263 0.7870372138522869
vn -0.3016430745434214 -0.23886749846561656 0.9230134201390415
vn -0.3033694232261865 -0.13827332423020133 0.9427870814015965
vn -0.612134425891166 -0.07657590123872263 0.7870372138522869
f 1/1/1 2/2/2 3/3/3
f 4/4/4 5/5/5 6/6/6
f 7/7/7 8/8/8 9/9/9
f 10/10/10 11/11/11 12/12/12
f 13/13/13 14/14/14 15/15/15
f 16/16/16 17/17/17 18/18/18
f 19/19/19 20/20/20 21/21/21
f 22/22/22 23/23/23 24/24/24
f 25/25/25 26/26/26 27/27/27
f 28/28/28 29/29/29 30/30/30
f 31/31/31 32/32/32 33/33/33
f 34/34/34 35/35/35 36/36/36
f 37/37/37 38/38/38 39/39/39
f 40/40/40 41/41/41 42/42/42
f 43/43/43 44/44/44 45/45/45
f 46/46/46 47/47/47 48/48/48
f 49/49/49 50/50/50 51/51/51
f 52/52/52 53/53/53 54/54/54
f 55/55/55 56/56/56 57/57/57
f 58/58/58 59/59/59 60/60/60
f 61/61/61 62/62/62 63/63/63
f 64/64/64 65/65/65 66/66/66
f 67/67/67 68/68/68 69/69/69
f 70/70/70 71/71/71 72/72/72
f 73/73/73 74/74/74 75/75/75
f 76/76/76 77/77/77 78/78/78
f 79/79/79 80/80/80 81/81/81
f 82/82/82 83/83/83 84/84/84
f 85/85/85 86/86/86 87/87/87
f 88/88/88 89/89/89 90/90/90
f 91/91/91 92/92/92 93/93/93
f 94/94/94 95/95/95 96/96/96
