mtllib ArcadaCompleta.mtl
o D64C_B
usemtl Esmalte
v 26.535200119018555 49.036563873291016 3.856350690804913
v 26.53510093688965 50.27286148071289 4.210240632974102
v 25.561100006103516 50.215763092041016 4.250980646096661
v 25.546600341796875 48.917564392089844 3.9149806804289367
v 26.535200119018555 49.036563873291016 3.856350690804913
v 25.561100006103516 50.215763092041016 4.250980646096661
v 26.507200241088867 51.285064697265625 4.4900806254972965
v 26.53510093688965 50.27286148071289 4.210240632974102
v 27.329200744628906 50.2359619140625 3.9201908416380435
v 27.289899826049805 51.29536437988281 4.29310062595506
v 26.507200241088867 51.285064697265625 4.4900806254972965
v 27.329200744628906 50.2359619140625 3.9201908416380435
v 26.53510093688965 50.27286148071289 4.210240632974102
v 26.535200119018555 49.036563873291016 3.856350690804913
v 27.393400192260742 48.957862854003906 3.730230838738873
v 27.329200744628906 50.2359619140625 3.9201908416380435
v 26.53510093688965 50.27286148071289 4.210240632974102
v 27.393400192260742 48.957862854003906 3.730230838738873
v 26.53510093688965 50.27286148071289 4.210240632974102
v 26.507200241088867 51.285064697265625 4.4900806254972965
v 25.644800186157227 51.27066421508789 4.4984705752958805
v 25.561100006103516 50.215763092041016 4.250980646096661
v 26.53510093688965 50.27286148071289 4.210240632974102
v 25.644800186157227 51.27066421508789 4.4984705752958805
vt 0.479746013879776 0.30497896671295166
vt 0.4797550141811371 0.5458260178565979
vt 0.6234189867973328 0.5347179770469666
vt 0.6255589723587036 0.2818019986152649
vt 0.479746013879776 0.30497896671295166
vt 0.6234189867973328 0.5347179770469666
vt 0.48386698961257935 0.7430229783058167
vt 0.4797550141811371 0.5458260178565979
vt 0.3626370131969452 0.538644015789032
vt 0.3684290051460266 0.7450299859046936
vt 0.48386698961257935 0.7430229783058167
vt 0.3626370131969452 0.538644015789032
vt 0.4797550141811371 0.5458260178565979
vt 0.479746013879776 0.30497896671295166
vt 0.3531560003757477 0.2896460294723511
vt 0.3626370131969452 0.538644015789032
vt 0.4797550141811371 0.5458260178565979
vt 0.3531560003757477 0.2896460294723511
vt 0.4797550141811371 0.5458260178565979
vt 0.48386698961257935 0.7430229783058167
vt 0.611066997051239 0.7402229905128479
vt 0.6234189867973328 0.5347179770469666
vt 0.4797550141811371 0.5458260178565979
vt 0.611066997051239 0.7402229905128479
vn 0.08521420013043594 -0.2657086396661468 0.9602798857119188
vn 0.14703258555665677 -0.23780911649185263 0.9601188691500073
vn 0.06704806578431806 -0.2536307903409078 0.964974600217865
vn 0.08733638969692635 -0.2505206422303322 0.9641637635024501
vn 0.08521420013043594 -0.2657086396661468 0.9602798857119188
vn 0.06704806578431806 -0.2536307903409078 0.964974600217865
vn 0.19098661226372646 -0.27780120672363495 0.941461950096188
vn 0.14703258555665677 -0.23780911649185263 0.9601188691500073
vn 0.30140088700938833 -0.22109665522052296 0.9275094470463635
vn 0.23553545888654778 -0.31490338003250884 0.9194340154960576
vn 0.19098661226372646 -0.27780120672363495 0.941461950096188
vn 0.30140088700938833 -0.22109665522052296 0.9275094470463635
vn 0.14703258555665677 -0.23780911649185263 0.9601188691500073
vn 0.08521420013043594 -0.2657086396661468 0.9602798857119188
vn 0.22608206156544763 -0.20040573774854611 0.9532703927615597
vn 0.30140088700938833 -0.22109665522052296 0.9275094470463635
vn 0.14703258555665677 -0.23780911649185263 0.9601188691500073
vn 0.22608206156544763 -0.20040573774854611 0.9532703927615597
vn 0.14703258555665677 -0.23780911649185263 0.9601188691500073
vn 0.19098661226372646 -0.27780120672363495 0.941461950096188
vn 0.03555372166230898 -0.24793369842889598 0.9681243794365104
vn 0.06704806578431806 -0.2536307903409078 0.964974600217865
vn 0.14703258555665677 -0.23780911649185263 0.9601188691500073
vn 0.03555372166230898 -0.24793369842889598 0.9681243794365104
f 1/1/1 2/2/2 3/3/3
f 4/4/4 5/5/5 6/6/6
f 7/7/7 8/8/8 9/9/9
f 10/10/10 11/11/11 12/12/12
f 13/13/13 14/14/14 15/15/15
f 16/16/16 17/17/17 18/18/18
f 19/19/19 20/20/20 21/21/21
f 22/22/22 23/23/23 24/24/24
