mtllib ArcadaCompleta.mtl
o D64C_FL
usemtl Esmalte
v 25.64539909362793 51.269161224365234 -4.142189233816668
v 25.66119956970215 52.54656219482422 -3.4602093391786064
v 26.39539909362793 52.56706237792969 -3.459009140051409
v 26.400299072265625 51.26876449584961 -4.2002293758759945
v 25.64539909362793 51.269161224365234 -4.142189233816668
v 26.39539909362793 52.56706237792969 -3.459009140051409
v 25.64539909362793 51.269161224365234 -4.142189233816668
v 26.400299072265625 51.26876449584961 -4.2002293758759945
v 26.525400161743164 50.207862854003906 -4.158369272268818
v 25.71739959716797 50.16486358642578 -4.174629419363544
v 25.64539909362793 51.269161224365234 -4.142189233816668
v 26.525400161743164 50.207862854003906 -4.158369272268818
v 28.03689956665039 51.269264221191406 -3.8344993286500424
v 27.155099868774414 51.268863677978516 -4.141799181021258
v 27.12969970703125 52.546661376953125 -3.4602093391786064
v 27.884700775146484 52.453861236572266 -3.184029310263201
v 28.03689956665039 51.269264221191406 -3.8344993286500424
v 27.12969970703125 52.546661376953125 -3.4602093391786064
v 26.400299072265625 51.26876449584961 -4.2002293758759945
v 27.155099868774414 51.268863677978516 -4.141799181021258
v 27.245399475097656 50.19456481933594 -4.15297910503249
v 26.525400161743164 50.207862854003906 -4.158369272268818
v 26.400299072265625 51.26876449584961 -4.2002293758759945
v 27.245399475097656 50.19456481933594 -4.15297910503249
v 28.03689956665039 51.269264221191406 -3.8344993286500424
v 28.12700080871582 50.2337646484375 -3.8332993679414242
v 27.245399475097656 50.19456481933594 -4.15297910503249
v 27.155099868774414 51.268863677978516 -4.141799181021258
v 28.03689956665039 51.269264221191406 -3.8344993286500424
v 27.245399475097656 50.19456481933594 -4.15297910503249
v 27.12969970703125 52.546661376953125 -3.4602093391786064
v 27.155099868774414 51.268863677978516 -4.141799181021258
v 26.400299072265625 51.26876449584961 -4.2002293758759945
v 26.39539909362793 52.56706237792969 -3.459009140051409
v 27.12969970703125 52.546661376953125 -3.4602093391786064
v 26.400299072265625 51.26876449584961 -4.2002293758759945
v 24.592599868774414 50.23246383666992 -3.9581093483338803
v 24.763200759887695 51.2697639465332 -3.835249155081317
v 25.64539909362793 51.269161224365234 -4.142189233816668
v 25.71739959716797 50.16486358642578 -4.174629419363544
v 24.592599868774414 50.23246383666992 -3.9581093483338803
v 25.64539909362793 51.269161224365234 -4.142189233816668
v 25.64539909362793 51.269161224365234 -4.142189233816668
v 24.763200759887695 51.2697639465332 -3.835249155081317
v 24.906099319458008 52.45366287231445 -3.184029310263201
v 25.66119956970215 52.54656219482422 -3.4602093391786064
v 25.64539909362793 51.269161224365234 -4.142189233816668
v 24.906099319458008 52.45366287231445 -3.184029310263201
vt 0.38901498913764954 0.739920973777771
vt 0.39134201407432556 0.9887710213661194
vt 0.49963900446891785 0.9927700161933899
vt 0.5003560185432434 0.739853024482727
vt 0.38901498913764954 0.739920973777771
vt 0.49963900446891785 0.9927700161933899
vt 0.38901498913764954 0.739920973777771
vt 0.5003560185432434 0.739853024482727
vt 0.5188180208206177 0.5331670045852661
vt 0.39963299036026 0.5247960090637207
vt 0.38901498913764954 0.739920973777771
vt 0.5188180208206177 0.5331670045852661
vt 0.741756021976471 0.7399399876594543
vt 0.6116819977760315 0.7398750185966492
vt 0.6079360246658325 0.9887949824333191
vt 0.28069400787353516 0.882794976234436
vt 0.25824400782585144 0.9574980139732361
vt 0.39206400513648987 0.9145119786262512
vt 0.5003560185432434 0.739853024482727
vt 0.6116819977760315 0.7398750185966492
vt 0.6250020265579224 0.5305870175361633
vt 0.5188180208206177 0.5331670045852661
vt 0.5003560185432434 0.739853024482727
vt 0.6250020265579224 0.5305870175361633
vt 0.741756021976471 0.7399399876594543
vt 0.7550420165061951 0.5382149815559387
vt 0.6250020265579224 0.5305870175361633
vt 0.6116819977760315 0.7398750185966492
vt 0.741756021976471 0.7399399876594543
vt 0.6250020265579224 0.5305870175361633
vt 0.6079360246658325 0.9887949824333191
vt 0.6116819977760315 0.7398750185966492
vt 0.5003560185432434 0.739853024482727
vt 0.49963900446891785 0.9927700161933899
vt 0.6079360246658325 0.9887949824333191
vt 0.5003560185432434 0.739853024482727
vt 0.2337310016155243 0.5379670262336731
vt 0.258897989988327 0.740032970905304
vt 0.38901498913764954 0.739920973777771
vt 0.39963299036026 0.5247960090637207
vt 0.2337310016155243 0.5379670262336731
vt 0.38901498913764954 0.739920973777771
vt 0.6109849810600281 0.9928339719772339
vt 0.7411019802093506 0.957584023475647
vt 0.7200260162353516 0.882794976234436
vt 0.39134201407432556 0.9887710213661194
vt 0.38901498913764954 0.739920973777771
vt 0.2799740135669708 0.9706760048866272
vn -0.17763776858124208 0.2867360435206863 -0.941396443863891
vn -0.1948853831064781 0.4638086383919477 -0.8642344788334059
vn -0.022478569881598003 0.4876788576892965 -0.8727336624990129
vn 0.003534964432972107 0.2845686903192473 -0.9586491352504553
vn -0.17763776858124208 0.2867360435206863 -0.941396443863891
vn -0.022478569881598003 0.4876788576892965 -0.8727336624990129
vn -0.17763776858124208 0.2867360435206863 -0.941396443863891
vn 0.003534964432972107 0.2845686903192473 -0.9586491352504553
vn -0.016213041470050874 -0.01665020611709307 -0.9997299174889932
vn -0.10274980280491328 0.022514023255504948 -0.9944524105156577
vn -0.17763776858124208 0.2867360435206863 -0.941396443863891
vn -0.016213041470050874 -0.01665020611709307 -0.9997299174889932
vn 0.33489496886409387 0.2805639072512305 -0.8995161220219682
vn 0.2089140842575815 0.28574059086872744 -0.9352578361761033
vn 0.1893991563330292 0.48047944950413546 -0.8563103749135239
vn 0.3524052777850131 0.4848227174141971 -0.8004732680535817
vn 0.33489496886409387 0.2805639072512305 -0.8995161220219682
vn 0.1893991563330292 0.48047944950413546 -0.8563103749135239
vn 0.003534964432972107 0.2845686903192473 -0.9586491352504553
vn 0.2089140842575815 0.28574059086872744 -0.9352578361761033
vn 0.20751182998940756 0.014117036111973564 -0.9781306404084581
vn -0.016213041470050874 -0.01665020611709307 -0.9997299174889932
vn 0.003534964432972107 0.2845686903192473 -0.9586491352504553
vn 0.20751182998940756 0.014117036111973564 -0.9781306404084581
vn 0.33489496886409387 0.2805639072512305 -0.8995161220219682
vn 0.33963577661946454 0.02846306455363979 -0.940126264496588
vn 0.20751182998940756 0.014117036111973564 -0.9781306404084581
vn 0.2089140842575815 0.28574059086872744 -0.9352578361761033
vn 0.33489496886409387 0.2805639072512305 -0.8995161220219682
vn 0.20751182998940756 0.014117036111973564 -0.9781306404084581
vn 0.1893991563330292 0.48047944950413546 -0.8563103749135239
vn 0.2089140842575815 0.28574059086872744 -0.9352578361761033
vn 0.003534964432972107 0.2845686903192473 -0.9586491352504553
vn -0.022478569881598003 0.4876788576892965 -0.8727336624990129
vn 0.1893991563330292 0.48047944950413546 -0.8563103749135239
vn 0.003534964432972107 0.2845686903192473 -0.9586491352504553
vn -0.248943659115763 0.08144590338191127 -0.9650873636144859
vn -0.30741564932758736 0.351548778207211 -0.8842562270572455
vn -0.17763776858124208 0.2867360435206863 -0.941396443863891
vn -0.10274980280491328 0.022514023255504948 -0.9944524105156577
vn -0.248943659115763 0.08144590338191127 -0.9650873636144859
vn -0.17763776858124208 0.2867360435206863 -0.941396443863891
vn -0.17763776858124208 0.2867360435206863 -0.941396443863891
vn -0.30741564932758736 0.351548778207211 -0.8842562270572455
vn -0.31990277099088255 0.46711835898381204 -0.8242952479619334
vn -0.1948853831064781 0.4638086383919477 -0.8642344788334059
vn -0.17763776858124208 0.2867360435206863 -0.941396443863891
vn -0.31990277099088255 0.46711835898381204 -0.8242952479619334
f 1/1/1 2/2/2 3/3/3
f 4/4/4 5/5/5 6/6/6
f 7/7/7 8/8/8 9/9/9
f 10/10/10 11/11/11 12/12/12
f 13/13/13 14/14/14 15/15/15
f 16/16/16 17/17/17 18/18/18
f 19/19/19 20/20/20 21/21/21
f 22/22/22 23/23/23 24/24/24
f 25/25/25 26/26/26 27/27/27
f 28/28/28 29/29/29 30/30/30
f 31/31/31 32/32/32 33/33/33
f 34/34/34 35/35/35 36/36/36
f 37/37/37 38/38/38 39/39/39
f 40/40/40 41/41/41 42/42/42
f 43/43/43 44/44/44 45/45/45
f 46/46/46 47/47/47 48/48/48
