mtllib ArcadaCompleta.mtl
o D65C_L
usemtl Esmalte
v 36.4026985168457 48.95966339111328 -4.5718490772614935
v 36.34400177001953 47.866661071777344 -4.1647493534455755
v 35.52560043334961 48.54696273803711 -4.0323593311677435
v 35.46649932861328 49.8344612121582 -4.495629041708515
v 36.4026985168457 48.95966339111328 -4.5718490772614935
v 35.52560043334961 48.54696273803711 -4.0323593311677435
v 35.525299072265625 48.23516082763672 -3.545629232443378
v 35.29410171508789 48.12696075439453 -3.490569322622821
v 35.52560043334961 48.54696273803711 -4.0323593311677435
v 36.4026985168457 48.95966339111328 -4.5718490772614935
v 35.46649932861328 49.8344612121582 -4.495629041708515
v 35.42399978637695 50.79866409301758 -4.712859361685322
v 36.405799865722656 50.40886306762695 -4.749559133566425
v 36.4026985168457 48.95966339111328 -4.5718490772614935
v 35.42399978637695 50.79866409301758 -4.712859361685322
v 35.724700927734375 48.13316345214844 -2.9498593502412294
v 35.29410171508789 48.12696075439453 -3.490569322622821
v 35.525299072265625 48.23516082763672 -3.545629232443378
v 35.928199768066406 48.32386016845703 -3.0638093643556092
v 35.724700927734375 48.13316345214844 -2.9498593502412294
v 35.525299072265625 48.23516082763672 -3.545629232443378
v 35.52560043334961 48.54696273803711 -4.0323593311677435
v 35.70949935913086 48.113861083984375 -3.481869190252826
v 35.525299072265625 48.23516082763672 -3.545629232443378
v 36.111900329589844 48.062862396240234 -3.027129142797992
v 35.928199768066406 48.32386016845703 -3.0638093643556092
v 35.525299072265625 48.23516082763672 -3.545629232443378
v 35.70949935913086 48.113861083984375 -3.481869190252826
v 36.111900329589844 48.062862396240234 -3.027129142797992
v 35.525299072265625 48.23516082763672 -3.545629232443378
v 34.47629928588867 48.37306213378906 -3.921599357641742
v 34.35419845581055 48.96696472167969 -4.587599485434101
v 35.46649932861328 49.8344612121582 -4.495629041708515
v 35.52560043334961 48.54696273803711 -4.0323593311677435
v 34.47629928588867 48.37306213378906 -3.921599357641742
v 35.46649932861328 49.8344612121582 -4.495629041708515
v 35.70949935913086 48.113861083984375 -3.481869190252826
v 35.52560043334961 48.54696273803711 -4.0323593311677435
v 36.34400177001953 47.866661071777344 -4.1647493534455755
v 36.459800720214844 47.52626037597656 -3.2753493481049993
v 35.70949935913086 48.113861083984375 -3.481869190252826
v 36.34400177001953 47.866661071777344 -4.1647493534455755
v 35.46649932861328 49.8344612121582 -4.495629041708515
v 34.35419845581055 48.96696472167969 -4.587599485434101
v 34.35129928588867 50.37486267089844 -4.774349420584247
v 35.42399978637695 50.79866409301758 -4.712859361685322
v 35.46649932861328 49.8344612121582 -4.495629041708515
v 34.35129928588867 50.37486267089844 -4.774349420584247
v 35.52560043334961 48.54696273803711 -4.0323593311677435
v 35.29410171508789 48.12696075439453 -3.490569322622821
v 34.50899887084961 47.773963928222656 -3.427669256247089
v 34.47629928588867 48.37306213378906 -3.921599357641742
v 35.52560043334961 48.54696273803711 -4.0323593311677435
v 34.50899887084961 47.773963928222656 -3.427669256247089
v 35.724700927734375 48.13316345214844 -2.9498593502412294
v 34.88819885253906 47.601863861083984 -2.583609312094257
v 34.50899887084961 47.773963928222656 -3.427669256247089
v 35.29410171508789 48.12696075439453 -3.490569322622821
v 35.724700927734375 48.13316345214844 -2.9498593502412294
v 34.50899887084961 47.773963928222656 -3.427669256247089
v 36.63019943237305 47.628265380859375 -2.9756793671021917
v 36.111900329589844 48.062862396240234 -3.027129142797992
v 35.70949935913086 48.113861083984375 -3.481869190252826
v 36.459800720214844 47.52626037597656 -3.2753493481049993
v 36.63019943237305 47.628265380859375 -2.9756793671021917
v 35.70949935913086 48.113861083984375 -3.481869190252826
vt 0.635873019695282 0.28715598583221436
vt 0.628807008266449 0.10025697946548462
vt 0.5302950143814087 0.2165989875793457
vt 0.5231879949569702 0.4367640018463135
vt 0.635873019695282 0.28715598583221436
vt 0.5302950143814087 0.2165989875793457
vt 0.5302659869194031 0.8726630210876465
vt 0.502435028553009 0.8671119809150696
vt 0.5302950143814087 0.921737015247345
vt 0.635873019695282 0.28715598583221436
vt 0.5231879949569702 0.4367640018463135
vt 0.5180749893188477 0.6016370058059692
vt 0.6362429857254028 0.534991979598999
vt 0.635873019695282 0.28715598583221436
vt 0.5180749893188477 0.6016370058059692
vt 0.5542659759521484 0.8125979900360107
vt 0.502435028553009 0.8671119809150696
vt 0.5302659869194031 0.8726630210876465
vt 0.5787550210952759 0.8240860104560852
vt 0.5542659759521484 0.8125979900360107
vt 0.5302659869194031 0.8726630210876465
vt 0.5302950143814087 0.921737015247345
vt 0.5524380207061768 0.8662350177764893
vt 0.5302659869194031 0.8726630210876465
vt 0.8203880190849304 0.1338059902191162
vt 0.8240860104560852 0.1784440279006958
vt 0.8726630210876465 0.1632770299911499
vt 0.5524380207061768 0.8662350177764893
vt 0.6008780002593994 0.8203880190849304
vt 0.5302659869194031 0.8726630210876465
vt 0.4039910137653351 0.9105690121650696
vt 0.3892950117588043 0.9777160286903381
vt 0.5231879949569702 0.9684439897537231
vt 0.5302950143814087 0.2165989875793457
vt 0.4039910137653351 0.18685299158096313
vt 0.5231879949569702 0.4367640018463135
vt 0.5524380207061768 0.8662350177764893
vt 0.5302950143814087 0.921737015247345
vt 0.628807008266449 0.9350839853286743
vt 0.6427440047264099 0.8454139828681946
vt 0.5524380207061768 0.8662350177764893
vt 0.628807008266449 0.9350839853286743
vt 0.5231879949569702 0.4367640018463135
vt 0.3892950117588043 0.28841298818588257
vt 0.38895198702812195 0.5291709899902344
vt 0.5180749893188477 0.6016370058059692
vt 0.5231879949569702 0.4367640018463135
vt 0.38895198702812195 0.5291709899902344
vt 0.5302950143814087 0.921737015247345
vt 0.502435028553009 0.8671119809150696
vt 0.40793099999427795 0.8607699871063232
vt 0.4039910137653351 0.9105690121650696
vt 0.5302950143814087 0.921737015247345
vt 0.40793099999427795 0.8607699871063232
vt 0.5542659759521484 0.8125979900360107
vt 0.4535770118236542 0.7756720185279846
vt 0.40793099999427795 0.8607699871063232
vt 0.502435028553009 0.8671119809150696
vt 0.5542659759521484 0.8125979900360107
vt 0.40793099999427795 0.8607699871063232
vt 0.6632590293884277 0.8151999711990356
vt 0.6008780002593994 0.8203880190849304
vt 0.5524380207061768 0.8662350177764893
vt 0.6427440047264099 0.8454139828681946
vt 0.6632590293884277 0.8151999711990356
vt 0.5524380207061768 0.8662350177764893
vn -0.2782978154620357 -0.24296592500334227 -0.9292566304290376
vn -0.551069197476229 -0.609251675156708 -0.5702062222666902
vn -0.21975349448539416 -0.5086484084704478 -0.8324573251656437
vn 0.03442266002819976 -0.3221968515646371 -0.9460466528234315
vn -0.2782978154620357 -0.24296592500334227 -0.9292566304290376
vn -0.21975349448539416 -0.5086484084704478 -0.8324573251656437
vn -0.03760820898778981 -0.992654773766341 -0.11498748947439939
vn 0.34266075475259655 -0.8547850843091941 -0.38977694492479253
vn -0.21975349448539416 -0.5086484084704478 -0.8324573251656437
vn -0.2782978154620357 -0.24296592500334227 -0.9292566304290376
vn 0.03442266002819976 -0.3221968515646371 -0.9460466528234315
vn -0.06889907125440768 -0.17953249433697888 -0.9813363345242153
vn -0.08504628821172622 -0.12109434902667587 -0.988991045204765
vn -0.2782978154620357 -0.24296592500334227 -0.9292566304290376
vn -0.06889907125440768 -0.17953249433697888 -0.9813363345242153
vn 0.39848905537069146 -0.85867940809153 -0.3222982265997651
vn 0.34266075475259655 -0.8547850843091941 -0.38977694492479253
vn -0.03760820898778981 -0.992654773766341 -0.11498748947439939
vn -0.11843076885219295 -0.9542099665784906 0.2746952723862473
vn 0.39848905537069146 -0.85867940809153 -0.3222982265997651
vn -0.03760820898778981 -0.992654773766341 -0.11498748947439939
vn -0.21975349448539416 -0.5086484084704478 -0.8324573251656437
vn -0.6325459613765134 -0.7728601724977846 -0.05072238670406782
vn -0.03760820898778981 -0.992654773766341 -0.11498748947439939
vn -0.6289129813688955 -0.5802384578446524 0.5174860325687513
vn -0.11843076885219295 -0.9542099665784906 0.2746952723862473
vn -0.03760820898778981 -0.992654773766341 -0.11498748947439939
vn -0.6325459613765134 -0.7728601724977846 -0.05072238670406782
vn -0.6289129813688955 -0.5802384578446524 0.5174860325687513
vn -0.03760820898778981 -0.992654773766341 -0.11498748947439939
vn 0.1776993786916707 -0.5254172434929736 -0.8320815170719991
vn 0.34468826679999065 -0.3495959642432315 -0.8711903698476376
vn 0.03442266002819976 -0.3221968515646371 -0.9460466528234315
vn -0.21975349448539416 -0.5086484084704478 -0.8324573251656437
vn 0.1776993786916707 -0.5254172434929736 -0.8320815170719991
vn 0.03442266002819976 -0.3221968515646371 -0.9460466528234315
vn -0.6325459613765134 -0.7728601724977846 -0.05072238670406782
vn -0.21975349448539416 -0.5086484084704478 -0.8324573251656437
vn -0.551069197476229 -0.609251675156708 -0.5702062222666902
vn -0.6148128543577761 -0.7886080021028908 -0.010127839637886153
vn -0.6325459613765134 -0.7728601724977846 -0.05072238670406782
vn -0.551069197476229 -0.609251675156708 -0.5702062222666902
vn 0.03442266002819976 -0.3221968515646371 -0.9460466528234315
vn 0.34468826679999065 -0.3495959642432315 -0.8711903698476376
vn 0.16439228944621403 -0.16254508193428865 -0.9729102073211112
vn -0.06889907125440768 -0.17953249433697888 -0.9813363345242153
vn 0.03442266002819976 -0.3221968515646371 -0.9460466528234315
vn 0.16439228944621403 -0.16254508193428865 -0.9729102073211112
vn -0.21975349448539416 -0.5086484084704478 -0.8324573251656437
vn 0.34266075475259655 -0.8547850843091941 -0.38977694492479253
vn 0.2790305605618331 -0.8173297936859427 -0.5040971678415218
vn 0.1776993786916707 -0.5254172434929736 -0.8320815170719991
vn -0.21975349448539416 -0.5086484084704478 -0.8324573251656437
vn 0.2790305605618331 -0.8173297936859427 -0.5040971678415218
vn 0.39848905537069146 -0.85867940809153 -0.3222982265997651
vn 0.38897447757924664 -0.8527388349030929 -0.3486191836948561
vn 0.2790305605618331 -0.8173297936859427 -0.5040971678415218
vn 0.34266075475259655 -0.8547850843091941 -0.38977694492479253
vn 0.39848905537069146 -0.85867940809153 -0.3222982265997651
vn 0.2790305605618331 -0.8173297936859427 -0.5040971678415218
vn -0.6028069365832031 -0.6219951025919598 0.49974582495383757
vn -0.6289129813688955 -0.5802384578446524 0.5174860325687513
vn -0.6325459613765134 -0.7728601724977846 -0.05072238670406782
vn -0.6148128543577761 -0.7886080021028908 -0.010127839637886153
vn -0.6028069365832031 -0.6219951025919598 0.49974582495383757
vn -0.6325459613765134 -0.7728601724977846 -0.05072238670406782
f 1/1/1 2/2/2 3/3/3
f 4/4/4 5/5/5 6/6/6
f 7/7/7 8/8/8 9/9/9
f 10/10/10 11/11/11 12/12/12
f 13/13/13 14/14/14 15/15/15
f 16/16/16 17/17/17 18/18/18
f 19/19/19 20/20/20 21/21/21
f 22/22/22 23/23/23 24/24/24
f 25/25/25 26/26/26 27/27/27
f 28/28/28 29/29/29 30/30/30
f 31/31/31 32/32/32 33/33/33
f 34/34/34 35/35/35 36/36/36
f 37/37/37 38/38/38 39/39/39
f 40/40/40 41/41/41 42/42/42
f 43/43/43 44/44/44 45/45/45
f 46/46/46 47/47/47 48/48/48
f 49/49/49 50/50/50 51/51/51
f 52/52/52 53/53/53 54/54/54
f 55/55/55 56/56/56 57/57/57
f 58/58/58 59/59/59 60/60/60
f 61/61/61 62/62/62 63/63/63
f 64/64/64 65/65/65 66/66/66
