mtllib ArcadaCompleta.mtl
o D65C_M
usemtl Esmalte
v 31.771900177001953 48.42276382446289 0.6297107643713497
v 31.358699798583984 48.64956283569336 0.7649887508978389
v 31.25979995727539 48.76516342163086 -0.24356725744108926
v 31.667400360107422 48.412662506103516 -0.24351926080088396
v 31.771900177001953 48.42276382446289 0.6297107643713497
v 31.25979995727539 48.76516342163086 -0.24356725744108926
v 31.242900848388672 49.3509635925293 0.8540807671179319
v 31.15760040283203 49.470863342285156 -0.24358124963145014
v 31.25979995727539 48.76516342163086 -0.24356725744108926
v 31.358699798583984 48.64956283569336 0.7649887508978389
v 31.242900848388672 49.3509635925293 0.8540807671179319
v 31.25979995727539 48.76516342163086 -0.24356725744108926
v 32.13209915161133 48.32786560058594 -1.5961593084702947
v 31.667400360107422 48.412662506103516 -0.24351926080088396
v 31.25979995727539 48.76516342163086 -0.24356725744108926
v 31.51569938659668 48.633262634277344 -1.7089492969880558
v 32.13209915161133 48.32786560058594 -1.5961593084702947
v 31.25979995727539 48.76516342163086 -0.24356725744108926
v 31.242900848388672 49.3509635925293 0.8540807671179319
v 31.16550064086914 50.45036315917969 0.9545437402357605
v 31.12420082092285 50.4499626159668 -0.2436062537799332
v 31.15760040283203 49.470863342285156 -0.24358124963145014
v 31.242900848388672 49.3509635925293 0.8540807671179319
v 31.12420082092285 50.4499626159668 -0.2436062537799332
v 31.559600830078125 51.636863708496094 0.9583457417120486
v 31.484399795532227 51.6363639831543 -0.24363325468401617
v 31.12420082092285 50.4499626159668 -0.2436062537799332
v 31.16550064086914 50.45036315917969 0.9545437402357605
v 31.559600830078125 51.636863708496094 0.9583457417120486
v 31.12420082092285 50.4499626159668 -0.2436062537799332
v 31.863800048828125 48.1187629699707 1.6283006972898981
v 31.481199264526367 48.397560119628906 1.8671807355513117
v 31.358699798583984 48.64956283569336 0.7649887508978389
v 31.771900177001953 48.42276382446289 0.6297107643713497
v 31.863800048828125 48.1187629699707 1.6283006972898981
v 31.358699798583984 48.64956283569336 0.7649887508978389
v 31.15760040283203 49.470863342285156 -0.24358124963145014
v 31.241100311279297 49.3510627746582 -1.7755692892442203
v 31.51569938659668 48.633262634277344 -1.7089492969880558
v 31.25979995727539 48.76516342163086 -0.24356725744108926
v 31.15760040283203 49.470863342285156 -0.24358124963145014
v 31.51569938659668 48.633262634277344 -1.7089492969880558
v 31.164499282836914 50.45066452026367 -1.7038192444215272
v 31.241100311279297 49.3510627746582 -1.7755692892442203
v 31.15760040283203 49.470863342285156 -0.24358124963145014
v 31.12420082092285 50.4499626159668 -0.2436062537799332
v 31.164499282836914 50.45066452026367 -1.7038192444215272
v 31.15760040283203 49.470863342285156 -0.24358124963145014
v 31.484399795532227 51.6363639831543 -0.24363325468401617
v 31.558799743652344 51.63736343383789 -1.7077892713914364
v 31.164499282836914 50.45066452026367 -1.7038192444215272
v 31.12420082092285 50.4499626159668 -0.2436062537799332
v 31.484399795532227 51.6363639831543 -0.24363325468401617
v 31.164499282836914 50.45066452026367 -1.7038192444215272
v 31.205900192260742 50.45156478881836 2.0279207534422428
v 31.16550064086914 50.45036315917969 0.9545437402357605
v 31.242900848388672 49.3509635925293 0.8540807671179319
v 31.303600311279297 49.14806365966797 2.01302078434129
v 31.205900192260742 50.45156478881836 2.0279207534422428
v 31.242900848388672 49.3509635925293 0.8540807671179319
v 32.13209915161133 48.32786560058594 -1.5961593084702947
v 32.65169906616211 48.57936096191406 -0.25761425427298323
v 31.667400360107422 48.412662506103516 -0.24351926080088396
v 31.667400360107422 48.412662506103516 -0.24351926080088396
v 32.3385009765625 48.51136016845703 0.23110175200600847
v 31.771900177001953 48.42276382446289 0.6297107643713497
v 32.3385009765625 48.51136016845703 0.23110175200600847
v 31.667400360107422 48.412662506103516 -0.24351926080088396
v 32.61880111694336 48.94666290283203 0.051146344028904375
v 31.205900192260742 50.45156478881836 2.0279207534422428
v 31.63450050354004 51.63826370239258 1.8838208026518375
v 31.559600830078125 51.636863708496094 0.9583457417120486
v 31.16550064086914 50.45036315917969 0.9545437402357605
v 31.205900192260742 50.45156478881836 2.0279207534422428
v 31.559600830078125 51.636863708496094 0.9583457417120486
v 32.61880111694336 48.94666290283203 0.051146344028904375
v 31.667400360107422 48.412662506103516 -0.24351926080088396
v 32.65169906616211 48.57936096191406 -0.25761425427298323
v 32.13209915161133 48.32786560058594 -1.5961593084702947
v 32.53219985961914 48.206363677978516 -1.4035693102250555
v 32.65169906616211 48.57936096191406 -0.25761425427298323
v 31.358699798583984 48.64956283569336 0.7649887508978389
v 31.481199264526367 48.397560119628906 1.8671807355513117
v 31.303600311279297 49.14806365966797 2.01302078434129
v 31.242900848388672 49.3509635925293 0.8540807671179319
v 31.358699798583984 48.64956283569336 0.7649887508978389
v 31.303600311279297 49.14806365966797 2.01302078434129
v 31.771900177001953 48.42276382446289 0.6297107643713497
v 32.3385009765625 48.51136016845703 0.23110175200600847
v 31.863800048828125 48.1187629699707 1.6283006972898981
v 32.61880111694336 48.94666290283203 0.051146344028904375
v 32.36669921875 48.278564453125 1.421010763131573
v 31.863800048828125 48.1187629699707 1.6283006972898981
v 32.3385009765625 48.51136016845703 0.23110175200600847
v 32.61880111694336 48.94666290283203 0.051146344028904375
v 31.863800048828125 48.1187629699707 1.6283006972898981
v 31.559600830078125 51.636863708496094 0.9583457417120486
v 32.060001373291016 52.70816421508789 0.957237750970319
v 32.02119827270508 52.71676254272461 -0.1416152559886424
v 31.484399795532227 51.6363639831543 -0.24363325468401617
v 31.559600830078125 51.636863708496094 0.9583457417120486
v 32.02119827270508 52.71676254272461 -0.1416152559886424
v 31.634000778198242 51.63866424560547 -2.452679365194842
v 31.558799743652344 51.63736343383789 -1.7077892713914364
v 32.060001373291016 52.70816421508789 -0.965397267855212
v 32.2494010925293 52.79866409301758 -1.8262092762361017
v 31.634000778198242 51.63866424560547 -2.452679365194842
v 32.060001373291016 52.70816421508789 -0.965397267855212
v 32.060001373291016 52.70816421508789 -0.965397267855212
v 31.558799743652344 51.63736343383789 -1.7077892713914364
v 31.484399795532227 51.6363639831543 -0.24363325468401617
v 32.02119827270508 52.71676254272461 -0.1416152559886424
v 32.060001373291016 52.70816421508789 -0.965397267855212
v 31.484399795532227 51.6363639831543 -0.24363325468401617
v 31.559600830078125 51.636863708496094 0.9583457417120486
v 31.63450050354004 51.63826370239258 1.8838208026518375
v 32.40959930419922 52.79866409301758 2.3885107345213448
v 32.060001373291016 52.70816421508789 0.957237750970319
v 31.559600830078125 51.636863708496094 0.9583457417120486
v 32.40959930419922 52.79866409301758 2.3885107345213448
vt 0.07846370339393616 0.45169997215270996
vt 0.028730299323797226 0.438060998916626
vt 0.016820000484585762 0.5397449731826782
vt 0.06589119881391525 0.5397409796714783
vt 0.07846370339393616 0.45169997215270996
vt 0.016820000484585762 0.5397449731826782
vt 0.42907899618148804 0.3540710210800171
vt 0.5397469997406006 0.3745740056037903
vt 0.5397449731826782 0.253898024559021
vt 0.438060998916626 0.23413997888565063
vt 0.42907899618148804 0.3540710210800171
vt 0.5397449731826782 0.253898024559021
vt 0.12181899696588516 0.6761159896850586
vt 0.06589119881391525 0.5397409796714783
vt 0.016820000484585762 0.5397449731826782
vt 0.04762909933924675 0.687487006187439
vt 0.12181899696588516 0.6761159896850586
vt 0.016820000484585762 0.5397449731826782
vt 0.42907899618148804 0.3540710210800171
vt 0.41894999146461487 0.5420780181884766
vt 0.539749026298523 0.5420050024986267
vt 0.5397469997406006 0.3745740056037903
vt 0.42907899618148804 0.3540710210800171
vt 0.539749026298523 0.5420050024986267
vt 0.4185670018196106 0.7449749708175659
vt 0.5397520065307617 0.7448949813842773
vt 0.539749026298523 0.5420050024986267
vt 0.41894999146461487 0.5420780181884766
vt 0.4185670018196106 0.7449749708175659
vt 0.539749026298523 0.5420050024986267
vt 0.08952540159225464 0.35102200508117676
vt 0.043477900326251984 0.3269369602203369
vt 0.028730299323797226 0.438060998916626
vt 0.07846370339393616 0.45169997215270996
vt 0.08952540159225464 0.35102200508117676
vt 0.028730299323797226 0.438060998916626
vt 0.5397469997406006 0.3745740056037903
vt 0.6942039728164673 0.35409998893737793
vt 0.687487006187439 0.23134100437164307
vt 0.5397449731826782 0.253898024559021
vt 0.5397469997406006 0.3745740056037903
vt 0.687487006187439 0.23134100437164307
vt 0.6869699954986572 0.5421410202980042
vt 0.6942039728164673 0.35409998893737793
vt 0.5397469997406006 0.3745740056037903
vt 0.539749026298523 0.5420050024986267
vt 0.6869699954986572 0.5421410202980042
vt 0.5397469997406006 0.3745740056037903
vt 0.5397520065307617 0.7448949813842773
vt 0.6873700022697449 0.7450709939002991
vt 0.6869699954986572 0.5421410202980042
vt 0.539749026298523 0.5420050024986267
vt 0.5397520065307617 0.7448949813842773
vt 0.6869699954986572 0.5421410202980042
vt 0.3107309937477112 0.5422930121421814
vt 0.41894999146461487 0.5420780181884766
vt 0.42907899618148804 0.3540710210800171
vt 0.31223300099372864 0.31937599182128906
vt 0.3107309937477112 0.5422930121421814
vt 0.42907899618148804 0.3540710210800171
vt 0.12181899696588516 0.6761159896850586
vt 0.18436500430107117 0.5411620140075684
vt 0.06589119881391525 0.5397409796714783
vt 0.06589119881391525 0.5397409796714783
vt 0.1466600000858307 0.49188899993896484
vt 0.07846370339393616 0.45169997215270996
vt 0.1466600000858307 0.49188899993896484
vt 0.06589119881391525 0.5397409796714783
vt 0.18040500581264496 0.5100319981575012
vt 0.3107309937477112 0.5422930121421814
vt 0.3252590000629425 0.7452219724655151
vt 0.4185670018196106 0.7449749708175659
vt 0.41894999146461487 0.5420780181884766
vt 0.3107309937477112 0.5422930121421814
vt 0.4185670018196106 0.7449749708175659
vt 0.18040500581264496 0.5100319981575012
vt 0.06589119881391525 0.5397409796714783
vt 0.18436500430107117 0.5411620140075684
vt 0.12181899696588516 0.6761159896850586
vt 0.16998399794101715 0.6566979885101318
vt 0.18436500430107117 0.5411620140075684
vt 0.438060998916626 0.23413997888565063
vt 0.3269369900226593 0.19103896617889404
vt 0.31223300099372864 0.31937599182128906
vt 0.42907899618148804 0.3540710210800171
vt 0.438060998916626 0.23413997888565063
vt 0.31223300099372864 0.31937599182128906
vt 0.07846370339393616 0.45169997215270996
vt 0.1466600000858307 0.49188899993896484
vt 0.08952540159225464 0.35102200508117676
vt 0.18040500581264496 0.5100319981575012
vt 0.15005800127983093 0.37191998958587646
vt 0.08952540159225464 0.35102200508117676
vt 0.5081110000610352 0.2105109691619873
vt 0.4899680018424988 0.28494298458099365
vt 0.6489779949188232 0.14337098598480225
vt 0.4185670018196106 0.7449749708175659
vt 0.41867899894714355 0.928180992603302
vt 0.5294659733772278 0.9296450018882751
vt 0.5397520065307617 0.7448949813842773
vt 0.4185670018196106 0.7449749708175659
vt 0.5294659733772278 0.9296450018882751
vt 0.7624710202217102 0.7452840209007263
vt 0.6873700022697449 0.7450709939002991
vt 0.6125209927558899 0.928180992603302
vt 0.6993100047111511 0.9436460137367249
vt 0.7624710202217102 0.7452840209007263
vt 0.6125209927558899 0.928180992603302
vt 0.6125209927558899 0.928180992603302
vt 0.6873700022697449 0.7450709939002991
vt 0.5397520065307617 0.7448949813842773
vt 0.5294659733772278 0.9296450018882751
vt 0.6125209927558899 0.928180992603302
vt 0.5397520065307617 0.7448949813842773
vt 0.4185670018196106 0.7449749708175659
vt 0.3252590000629425 0.7452219724655151
vt 0.2743760049343109 0.9436460137367249
vt 0.41867899894714355 0.928180992603302
vt 0.4185670018196106 0.7449749708175659
vt 0.2743760049343109 0.9436460137367249
vn -0.30989945468851404 -0.9444141834548512 -0.10974597064616202
vn -0.8789427908215663 -0.4765595512911877 -0.018723368712334272
vn -0.8335628047085292 -0.5512486390426711 -0.03602760830326553
vn -0.05861672599290082 -0.9969535235829838 0.051456304272129536
vn -0.30989945468851404 -0.9444141834548512 -0.10974597064616202
vn -0.8335628047085292 -0.5512486390426711 -0.03602760830326553
vn -0.994301550984424 -0.09558166672565765 0.047207739788241866
vn -0.9919686045369229 -0.12370035458075382 -0.026391473806242238
vn -0.8335628047085292 -0.5512486390426711 -0.03602760830326553
vn -0.8789427908215663 -0.4765595512911877 -0.018723368712334272
vn -0.994301550984424 -0.09558166672565765 0.047207739788241866
vn -0.8335628047085292 -0.5512486390426711 -0.03602760830326553
vn -0.27337014371129437 -0.9601112497368665 0.05878054657774568
vn -0.05861672599290082 -0.9969535235829838 0.051456304272129536
vn -0.8335628047085292 -0.5512486390426711 -0.03602760830326553
vn -0.8636223601462497 -0.5001444774685099 -0.06333972460606954
vn -0.27337014371129437 -0.9601112497368665 0.05878054657774568
vn -0.8335628047085292 -0.5512486390426711 -0.03602760830326553
vn -0.994301550984424 -0.09558166672565765 0.047207739788241866
vn -0.9901326399974347 0.13555793602818633 0.035516210263602764
vn -0.9889241947774474 0.1469720139357527 0.02069212660521251
vn -0.9919686045369229 -0.12370035458075382 -0.026391473806242238
vn -0.994301550984424 -0.09558166672565765 0.047207739788241866
vn -0.9889241947774474 0.1469720139357527 0.02069212660521251
vn -0.9197885409223522 0.38559982725459374 0.0728135509995067
vn -0.930353328116457 0.36653327336346425 -0.009800223471737797
vn -0.9889241947774474 0.1469720139357527 0.02069212660521251
vn -0.9901326399974347 0.13555793602818633 0.035516210263602764
vn -0.9197885409223522 0.38559982725459374 0.0728135509995067
vn -0.9889241947774474 0.1469720139357527 0.02069212660521251
vn -0.020068980565025697 -0.9752631978863489 -0.22013389304596664
vn -0.8799739370671532 -0.47489967352119306 -0.01077822675573789
vn -0.8789427908215663 -0.4765595512911877 -0.018723368712334272
vn -0.30989945468851404 -0.9444141834548512 -0.10974597064616202
vn -0.020068980565025697 -0.9752631978863489 -0.22013389304596664
vn -0.8789427908215663 -0.4765595512911877 -0.018723368712334272
vn -0.9919686045369229 -0.12370035458075382 -0.026391473806242238
vn -0.9811221662395039 -0.1894858273550712 -0.0386576789922447
vn -0.8636223601462497 -0.5001444774685099 -0.06333972460606954
vn -0.8335628047085292 -0.5512486390426711 -0.03602760830326553
vn -0.9919686045369229 -0.12370035458075382 -0.026391473806242238
vn -0.8636223601462497 -0.5001444774685099 -0.06333972460606954
vn -0.9891325819024654 0.14182921371652346 -0.038745445609969294
vn -0.9811221662395039 -0.1894858273550712 -0.0386576789922447
vn -0.9919686045369229 -0.12370035458075382 -0.026391473806242238
vn -0.9889241947774474 0.1469720139357527 0.02069212660521251
vn -0.9891325819024654 0.14182921371652346 -0.038745445609969294
vn -0.9919686045369229 -0.12370035458075382 -0.026391473806242238
vn -0.930353328116457 0.36653327336346425 -0.009800223471737797
vn -0.9148120838447305 0.4001124818351736 -0.055035017319517744
vn -0.9891325819024654 0.14182921371652346 -0.038745445609969294
vn -0.9889241947774474 0.1469720139357527 0.02069212660521251
vn -0.930353328116457 0.36653327336346425 -0.009800223471737797
vn -0.9891325819024654 0.14182921371652346 -0.038745445609969294
vn -0.9912869967725016 0.12309605679665618 0.046876975487637834
vn -0.9901326399974347 0.13555793602818633 0.035516210263602764
vn -0.994301550984424 -0.09558166672565765 0.047207739788241866
vn -0.9888167404984709 -0.1440285509904438 0.038694059099206264
vn -0.9912869967725016 0.12309605679665618 0.046876975487637834
vn -0.994301550984424 -0.09558166672565765 0.047207739788241866
vn -0.27337014371129437 -0.9601112497368665 0.05878054657774568
vn 0.03317726108112363 -0.947639500177178 0.31761399064131823
vn -0.05861672599290082 -0.9969535235829838 0.051456304272129536
vn -0.05861672599290082 -0.9969535235829838 0.051456304272129536
vn 0.4233041375228803 -0.887166136082146 -0.18371133374151372
vn -0.30989945468851404 -0.9444141834548512 -0.10974597064616202
vn 0.4233041375228803 -0.887166136082146 -0.18371133374151372
vn -0.05861672599290082 -0.9969535235829838 0.051456304272129536
vn 0.5132588726074814 -0.85646158154961 -0.055126119210751306
vn -0.9912869967725016 0.12309605679665618 0.046876975487637834
vn -0.8919487857293418 0.4464454483231968 0.07151101528752273
vn -0.9197885409223522 0.38559982725459374 0.0728135509995067
vn -0.9901326399974347 0.13555793602818633 0.035516210263602764
vn -0.9912869967725016 0.12309605679665618 0.046876975487637834
vn -0.9197885409223522 0.38559982725459374 0.0728135509995067
vn 0.5132588726074814 -0.85646158154961 -0.055126119210751306
vn -0.05861672599290082 -0.9969535235829838 0.051456304272129536
vn 0.03317726108112363 -0.947639500177178 0.31761399064131823
vn -0.27337014371129437 -0.9601112497368665 0.05878054657774568
vn -0.41314113799655966 -0.852394352263103 0.32052810847860547
vn 0.03317726108112363 -0.947639500177178 0.31761399064131823
vn -0.8789427908215663 -0.4765595512911877 -0.018723368712334272
vn -0.8799739370671532 -0.47489967352119306 -0.01077822675573789
vn -0.9888167404984709 -0.1440285509904438 0.038694059099206264
vn -0.994301550984424 -0.09558166672565765 0.047207739788241866
vn -0.8789427908215663 -0.4765595512911877 -0.018723368712334272
vn -0.9888167404984709 -0.1440285509904438 0.038694059099206264
vn -0.30989945468851404 -0.9444141834548512 -0.10974597064616202
vn 0.4233041375228803 -0.887166136082146 -0.18371133374151372
vn -0.020068980565025697 -0.9752631978863489 -0.22013389304596664
vn 0.5132588726074814 -0.85646158154961 -0.055126119210751306
vn 0.11381419529624402 -0.9010533523706414 -0.41850828561773684
vn -0.020068980565025697 -0.9752631978863489 -0.22013389304596664
vn 0.4233041375228803 -0.887166136082146 -0.18371133374151372
vn 0.5132588726074814 -0.85646158154961 -0.055126119210751306
vn -0.020068980565025697 -0.9752631978863489 -0.22013389304596664
vn -0.9197885409223522 0.38559982725459374 0.0728135509995067
vn -0.8989464675396326 0.42002326412577295 0.12440139103381206
vn -0.8993801641650206 0.4366400331615634 0.02146629327968232
vn -0.930353328116457 0.36653327336346425 -0.009800223471737797
vn -0.9197885409223522 0.38559982725459374 0.0728135509995067
vn -0.8993801641650206 0.4366400331615634 0.02146629327968232
vn -0.8590180764320716 0.49931638311759613 -0.11300926472332018
vn -0.9148120838447305 0.4001124818351736 -0.055035017319517744
vn -0.8787166116451308 0.47136328674514033 -0.07532442052693812
vn -0.8446375480472991 0.5189928856602256 -0.13127755734594773
vn -0.8590180764320716 0.49931638311759613 -0.11300926472332018
vn -0.8787166116451308 0.47136328674514033 -0.07532442052693812
vn -0.8787166116451308 0.47136328674514033 -0.07532442052693812
vn -0.9148120838447305 0.4001124818351736 -0.055035017319517744
vn -0.930353328116457 0.36653327336346425 -0.009800223471737797
vn -0.8993801641650206 0.4366400331615634 0.02146629327968232
vn -0.8787166116451308 0.47136328674514033 -0.07532442052693812
vn -0.930353328116457 0.36653327336346425 -0.009800223471737797
vn -0.9197885409223522 0.38559982725459374 0.0728135509995067
vn -0.8919487857293418 0.4464454483231968 0.07151101528752273
vn -0.8729616704176201 0.467563225895732 0.1390055818003548
vn -0.8989464675396326 0.42002326412577295 0.12440139103381206
vn -0.9197885409223522 0.38559982725459374 0.0728135509995067
vn -0.8729616704176201 0.467563225895732 0.1390055818003548
f 1/1/1 2/2/2 3/3/3
f 4/4/4 5/5/5 6/6/6
f 7/7/7 8/8/8 9/9/9
f 10/10/10 11/11/11 12/12/12
f 13/13/13 14/14/14 15/15/15
f 16/16/16 17/17/17 18/18/18
f 19/19/19 20/20/20 21/21/21
f 22/22/22 23/23/23 24/24/24
f 25/25/25 26/26/26 27/27/27
f 28/28/28 29/29/29 30/30/30
f 31/31/31 32/32/32 33/33/33
f 34/34/34 35/35/35 36/36/36
f 37/37/37 38/38/38 39/39/39
f 40/40/40 41/41/41 42/42/42
f 43/43/43 44/44/44 45/45/45
f 46/46/46 47/47/47 48/48/48
f 49/49/49 50/50/50 51/51/51
f 52/52/52 53/53/53 54/54/54
f 55/55/55 56/56/56 57/57/57
f 58/58/58 59/59/59 60/60/60
f 61/61/61 62/62/62 63/63/63
f 64/64/64 65/65/65 66/66/66
f 67/67/67 68/68/68 69/69/69
f 70/70/70 71/71/71 72/72/72
f 73/73/73 74/74/74 75/75/75
f 76/76/76 77/77/77 78/78/78
f 79/79/79 80/80/80 81/81/81
f 82/82/82 83/83/83 84/84/84
f 85/85/85 86/86/86 87/87/87
f 88/88/88 89/89/89 90/90/90
f 91/91/91 92/92/92 93/93/93
f 94/94/94 95/95/95 96/96/96
f 97/97/97 98/98/98 99/99/99
f 100/100/100 101/101/101 102/102/102
f 103/103/103 104/104/104 105/105/105
f 106/106/106 107/107/107 108/108/108
f 109/109/109 110/110/110 111/111/111
f 112/112/112 113/113/113 114/114/114
f 115/115/115 116/116/116 117/117/117
f 118/118/118 119/119/119 120/120/120
