mtllib ArcadaCompleta.mtl
o D71C_FL
usemtl Esmalte
v 3.2936999797821045 -47.7134313583374 -1.896640524730582
v 3.191999912261963 -48.770033836364746 -1.6277105663870763
v 2.622610092163086 -48.78623104095459 -1.7717206333731603
v 2.622529983520508 -47.7134313583374 -2.0130506609534216
v 3.2936999797821045 -47.7134313583374 -1.896640524730582
v 2.622610092163086 -48.78623104095459 -1.7717206333731603
v 3.2936999797821045 -47.7134313583374 -1.896640524730582
v 2.622529983520508 -47.7134313583374 -2.0130506609534216
v 2.622469902038574 -47.043131828308105 -1.7315405462836215
v 3.421339988708496 -47.043131828308105 -1.5623506163214633
v 3.2936999797821045 -47.7134313583374 -1.896640524730582
v 2.622469902038574 -47.043131828308105 -1.7315405462836215
v 3.2936999797821045 -47.7134313583374 -1.896640524730582
v 3.6914401054382324 -47.775031089782715 -1.576100573406119
v 3.191999912261963 -48.770033836364746 -1.6277105663870763
v 1.5681500434875488 -48.540831565856934 -1.2447405909155798
v 1.5067399740219116 -47.77513408660889 -1.6442406033133456
v 2.0532100200653076 -48.770033836364746 -1.6277105663870763
v 2.622529983520508 -47.7134313583374 -2.0130506609534216
v 1.9513499736785889 -47.713534355163574 -1.896640524730582
v 1.8235900402069092 -47.04323101043701 -1.5623506163214633
v 2.622469902038574 -47.043131828308105 -1.7315405462836215
v 2.622529983520508 -47.7134313583374 -2.0130506609534216
v 1.8235900402069092 -47.04323101043701 -1.5623506163214633
v 3.6914401054382324 -47.775031089782715 -1.576100573406119
v 3.2936999797821045 -47.7134313583374 -1.896640524730582
v 3.421339988708496 -47.043131828308105 -1.5623506163214633
v 3.8930399417877197 -47.0430326461792 -1.2067905520056674
v 3.6914401054382324 -47.775031089782715 -1.576100573406119
v 3.421339988708496 -47.043131828308105 -1.5623506163214633
v 3.6770100593566895 -48.524333000183105 -1.2447405909155798
v 3.191999912261963 -48.770033836364746 -1.6277105663870763
v 3.6914401054382324 -47.775031089782715 -1.576100573406119
v 2.0532100200653076 -48.770033836364746 -1.6277105663870763
v 1.9513499736785889 -47.713534355163574 -1.896640524730582
v 2.622529983520508 -47.7134313583374 -2.0130506609534216
v 2.622610092163086 -48.78623104095459 -1.7717206333731603
v 2.0532100200653076 -48.770033836364746 -1.6277105663870763
v 2.622529983520508 -47.7134313583374 -2.0130506609534216
v 1.8235900402069092 -47.04323101043701 -1.5623506163214633
v 1.9513499736785889 -47.713534355163574 -1.896640524730582
v 1.5067399740219116 -47.77513408660889 -1.6442406033133456
v 1.3050099611282349 -47.04323101043701 -1.3657905911063144
v 1.8235900402069092 -47.04323101043701 -1.5623506163214633
v 1.5067399740219116 -47.77513408660889 -1.6442406033133456
v 2.0532100200653076 -48.770033836364746 -1.6277105663870763
v 1.5067399740219116 -47.77513408660889 -1.6442406033133456
v 1.9513499736785889 -47.713534355163574 -1.896640524730582
vt 0.6627529859542847 0.2102469801902771
vt 0.6381040215492249 0.0036787986755371094
vt 0.500108003616333 0.0004993677139282227
vt 0.5000879764556885 0.21023797988891602
vt 0.6627529859542847 0.2102469801902771
vt 0.500108003616333 0.0004993677139282227
vt 0.6627529859542847 0.2102469801902771
vt 0.5000879764556885 0.21023797988891602
vt 0.500074028968811 0.34128403663635254
vt 0.6936879754066467 0.34129297733306885
vt 0.6627529859542847 0.2102469801902771
vt 0.500074028968811 0.34128403663635254
vt 0.6627529859542847 0.2102469801902771
vt 0.7591490149497986 0.19820600748062134
vt 0.6381040215492249 0.0036787986755371094
vt 0.8074510097503662 0.04848891496658325
vt 0.9073119759559631 0.1981779932975769
vt 0.9031789898872375 0.0036635994911193848
vt 0.5000879764556885 0.21023797988891602
vt 0.3374229967594147 0.2102299928665161
vt 0.3064599931240082 0.3412749767303467
vt 0.500074028968811 0.34128403663635254
vt 0.5000879764556885 0.21023797988891602
vt 0.3064599931240082 0.3412749767303467
vt 0.7591490149497986 0.19820600748062134
vt 0.6627529859542847 0.2102469801902771
vt 0.6936879754066467 0.34129297733306885
vt 0.8080090284347534 0.34129899740219116
vt 0.7591490149497986 0.19820600748062134
vt 0.6936879754066467 0.34129297733306885
vt 0.755649983882904 0.05170702934265137
vt 0.6381040215492249 0.0036787986755371094
vt 0.7591490149497986 0.19820600748062134
vt 0.36211100220680237 0.0036635994911193848
vt 0.3374229967594147 0.2102299928665161
vt 0.5000879764556885 0.21023797988891602
vt 0.500108003616333 0.0004993677139282227
vt 0.36211100220680237 0.0036635994911193848
vt 0.5000879764556885 0.21023797988891602
vt 0.3064599931240082 0.3412749767303467
vt 0.3374229967594147 0.2102299928665161
vt 0.2296680063009262 0.1981779932975769
vt 0.18077699840068817 0.34126901626586914
vt 0.3064599931240082 0.3412749767303467
vt 0.2296680063009262 0.1981779932975769
vt 0.36211100220680237 0.0036635994911193848
vt 0.2296680063009262 0.1981779932975769
vt 0.3374229967594147 0.2102299928665161
vn 0.324175121635414 0.017981350545898354 -0.9458261793507357
vn 0.5005238924720583 -0.27984930255971746 -0.8192436761559159
vn 0.06179717759614622 -0.2347107622154672 -0.9700989469849892
vn -0.07738843196583625 0.0377211590268115 -0.996287179863087
vn 0.324175121635414 0.017981350545898354 -0.9458261793507357
vn 0.06179717759614622 -0.2347107622154672 -0.9700989469849892
vn 0.324175121635414 0.017981350545898354 -0.9458261793507357
vn -0.07738843196583625 0.0377211590268115 -0.996287179863087
vn 0.04700474328965604 0.3972957022661559 -0.9164860495769238
vn 0.4419814693499268 0.3193027709290639 -0.8382709115961865
vn 0.324175121635414 0.017981350545898354 -0.9458261793507357
vn 0.04700474328965604 0.3972957022661559 -0.9164860495769238
vn 0.324175121635414 0.017981350545898354 -0.9458261793507357
vn 0.6436191148941321 -0.06035501833419197 -0.7629624543218188
vn 0.5005238924720583 -0.27984930255971746 -0.8192436761559159
vn -0.6770989093524943 -0.3823578539789327 -0.6287603187656547
vn -0.5360317426490241 -0.07828428757459806 -0.8405602543491978
vn -0.37545398311129613 -0.2837066385119427 -0.8823518854913365
vn -0.07738843196583625 0.0377211590268115 -0.996287179863087
vn -0.31354529864766223 -0.005752436489940664 -0.9495558199339191
vn -0.2808126980889287 0.35052521464767755 -0.8934630952021553
vn 0.04700474328965604 0.3972957022661559 -0.9164860495769238
vn -0.07738843196583625 0.0377211590268115 -0.996287179863087
vn -0.2808126980889287 0.35052521464767755 -0.8934630952021553
vn 0.6436191148941321 -0.06035501833419197 -0.7629624543218188
vn 0.324175121635414 0.017981350545898354 -0.9458261793507357
vn 0.4419814693499268 0.3193027709290639 -0.8382709115961865
vn 0.5856599755982264 0.23072967361362287 -0.7770239447381504
vn 0.6436191148941321 -0.06035501833419197 -0.7629624543218188
vn 0.4419814693499268 0.3193027709290639 -0.8382709115961865
vn 0.6807252730398036 -0.3071953340785517 -0.6650143828258542
vn 0.5005238924720583 -0.27984930255971746 -0.8192436761559159
vn 0.6436191148941321 -0.06035501833419197 -0.7629624543218188
vn -0.37545398311129613 -0.2837066385119427 -0.8823518854913365
vn -0.31354529864766223 -0.005752436489940664 -0.9495558199339191
vn -0.07738843196583625 0.0377211590268115 -0.996287179863087
vn 0.06179717759614622 -0.2347107622154672 -0.9700989469849892
vn -0.37545398311129613 -0.2837066385119427 -0.8823518854913365
vn -0.07738843196583625 0.0377211590268115 -0.996287179863087
vn -0.2808126980889287 0.35052521464767755 -0.8934630952021553
vn -0.31354529864766223 -0.005752436489940664 -0.9495558199339191
vn -0.5360317426490241 -0.07828428757459806 -0.8405602543491978
vn -0.34318611229547696 0.24987381845042317 -0.9054205471384672
vn -0.2808126980889287 0.35052521464767755 -0.8934630952021553
vn -0.5360317426490241 -0.07828428757459806 -0.8405602543491978
vn -0.37545398311129613 -0.2837066385119427 -0.8823518854913365
vn -0.5360317426490241 -0.07828428757459806 -0.8405602543491978
vn -0.31354529864766223 -0.005752436489940664 -0.9495558199339191
f 1/1/1 2/2/2 3/3/3
f 4/4/4 5/5/5 6/6/6
f 7/7/7 8/8/8 9/9/9
f 10/10/10 11/11/11 12/12/12
f 13/13/13 14/14/14 15/15/15
f 16/16/16 17/17/17 18/18/18
f 19/19/19 20/20/20 21/21/21
f 22/22/22 23/23/23 24/24/24
f 25/25/25 26/26/26 27/27/27
f 28/28/28 29/29/29 30/30/30
f 31/31/31 32/32/32 33/33/33
f 34/34/34 35/35/35 36/36/36
f 37/37/37 38/38/38 39/39/39
f 40/40/40 41/41/41 42/42/42
f 43/43/43 44/44/44 45/45/45
f 46/46/46 47/47/47 48/48/48
