mtllib ArcadaCompleta.mtl
o D71C_D
usemtl Esmalte
v 4.609990119934082 -43.83983135223389 -0.025394982189435
v 4.554329872131348 -45.015231132507324 0.5119144464875276
v 4.597859859466553 -45.015231132507324 -0.014749281570810572
v 4.683159828186035 -43.828829765319824 -0.34030558215131185
v 4.609990119934082 -43.83983135223389 -0.025394982189435
v 4.597859859466553 -45.015231132507324 -0.014749281570810572
v 4.412710189819336 -46.10643291473389 0.6443024422074369
v 4.540989875793457 -46.10643291473389 -0.014749281570810815
v 4.597859859466553 -45.015231132507324 -0.014749281570810572
v 4.554329872131348 -45.015231132507324 0.5119144464875276
v 4.412710189819336 -46.10643291473389 0.6443024422074369
v 4.597859859466553 -45.015231132507324 -0.014749281570810572
v 4.209640026092529 -46.10643291473389 -0.7261305903052279
v 4.445069789886475 -45.01533031463623 -0.4972235714053099
v 4.597859859466553 -45.015231132507324 -0.014749281570810572
v 4.540989875793457 -46.10643291473389 -0.014749281570810815
v 4.209640026092529 -46.10643291473389 -0.7261305903052279
v 4.597859859466553 -45.015231132507324 -0.014749281570810572
v 3.548379898071289 -46.10653209686279 1.4360894109154754
v 3.498029947280884 -47.043131828308105 1.7011394645119717
v 4.039420127868652 -47.0430326461792 1.305999412670236
v 4.178689956665039 -46.10643291473389 1.117319359912973
v 3.548379898071289 -46.10653209686279 1.4360894109154754
v 4.039420127868652 -47.0430326461792 1.305999412670236
v 4.209640026092529 -46.10643291473389 -0.7261305903052279
v 4.238289833068848 -47.00893306732178 -0.6360115860556552
v 3.8930399417877197 -47.0430326461792 -1.2067905520056674
v 4.412710189819336 -46.10643291473389 0.6443024422074369
v 4.296679973602295 -47.00893306732178 0.6065124417687466
v 4.441120147705078 -46.89513301849365 -0.014749281570810988
v 4.540989875793457 -46.10643291473389 -0.014749281570810815
v 4.412710189819336 -46.10643291473389 0.6443024422074369
v 4.441120147705078 -46.89513301849365 -0.014749281570810988
v 4.609990119934082 -43.83983135223389 -0.025394982189435
v 4.398270130157471 -45.01533031463623 0.722430422439676
v 4.554329872131348 -45.015231132507324 0.5119144464875276
v 4.296679973602295 -47.00893306732178 0.6065124417687466
v 4.412710189819336 -46.10643291473389 0.6443024422074369
v 4.178689956665039 -46.10643291473389 1.117319359912973
v 4.039420127868652 -47.0430326461792 1.305999412670236
v 4.296679973602295 -47.00893306732178 0.6065124417687466
v 4.178689956665039 -46.10643291473389 1.117319359912973
v 3.421339988708496 -47.043131828308105 -1.5623506163214633
v 3.8635001182556152 -46.10643291473389 -0.7889326070403048
v 4.209640026092529 -46.10643291473389 -0.7261305903052279
v 3.8930399417877197 -47.0430326461792 -1.2067905520056674
v 3.421339988708496 -47.043131828308105 -1.5623506163214633
v 4.209640026092529 -46.10643291473389 -0.7261305903052279
v 4.238289833068848 -47.00893306732178 -0.6360115860556552
v 4.209640026092529 -46.10643291473389 -0.7261305903052279
v 4.540989875793457 -46.10643291473389 -0.014749281570810815
v 4.441120147705078 -46.89513301849365 -0.014749281570810988
v 4.238289833068848 -47.00893306732178 -0.6360115860556552
v 4.540989875793457 -46.10643291473389 -0.014749281570810815
v 4.398270130157471 -45.01533031463623 0.722430422439676
v 4.178689956665039 -46.10643291473389 1.117319359912973
v 4.412710189819336 -46.10643291473389 0.6443024422074369
v 4.554329872131348 -45.015231132507324 0.5119144464875276
v 4.398270130157471 -45.01533031463623 0.722430422439676
v 4.412710189819336 -46.10643291473389 0.6443024422074369
v 4.445069789886475 -45.01533031463623 -0.4972235714053099
v 4.610010147094727 -44.058531761169434 -0.5766355846976224
v 4.683159828186035 -43.828829765319824 -0.34030558215131185
v 4.597859859466553 -45.015231132507324 -0.014749281570810572
v 4.445069789886475 -45.01533031463623 -0.4972235714053099
v 4.683159828186035 -43.828829765319824 -0.34030558215131185
v 4.209640026092529 -46.10643291473389 -0.7261305903052279
v 3.8635001182556152 -46.10643291473389 -0.7889326070403048
v 3.9729199409484863 -45.01533031463623 -0.5933306072806304
v 4.445069789886475 -45.01533031463623 -0.4972235714053099
v 4.209640026092529 -46.10643291473389 -0.7261305903052279
v 3.9729199409484863 -45.01533031463623 -0.5933306072806304
v 4.398270130157471 -45.01533031463623 0.722430422439676
v 3.627840042114258 -45.01533031463623 0.9113603974724824
v 3.548379898071289 -46.10653209686279 1.4360894109154754
v 4.178689956665039 -46.10643291473389 1.117319359912973
v 4.398270130157471 -45.01533031463623 0.722430422439676
v 3.548379898071289 -46.10653209686279 1.4360894109154754
v 3.8635001182556152 -46.10643291473389 -0.7889326070403048
v 3.421339988708496 -47.043131828308105 -1.5623506163214633
v 3.3683600425720215 -46.10653209686279 -0.859258577690024
v 3.9677200317382812 -44.460631370544434 -0.5849835728262845
v 4.610010147094727 -44.058531761169434 -0.5766355846976224
v 4.445069789886475 -45.01533031463623 -0.4972235714053099
v 3.9729199409484863 -45.01533031463623 -0.5933306072806304
v 3.9677200317382812 -44.460631370544434 -0.5849835728262845
v 4.445069789886475 -45.01533031463623 -0.4972235714053099
v 3.3683600425720215 -46.10653209686279 -0.859258577690024
v 3.9729199409484863 -45.01533031463623 -0.5933306072806304
v 3.8635001182556152 -46.10643291473389 -0.7889326070403048
v 4.398270130157471 -45.01533031463623 0.722430422439676
v 4.609990119934082 -43.83983135223389 -0.025394982189435
v 3.6307199001312256 -44.456332206726074 0.5565484310532626
v 3.627840042114258 -45.01533031463623 0.9113603974724824
v 4.398270130157471 -45.01533031463623 0.722430422439676
v 3.6307199001312256 -44.456332206726074 0.5565484310532626
v 4.146900177001953 -47.552531242370605 -0.6375695918654393
v 3.9705300331115723 -48.31453227996826 -0.6801735614394141
v 3.6770100593566895 -48.524333000183105 -1.2447405909155798
v 3.6914401054382324 -47.775031089782715 -1.576100573406119
v 4.146900177001953 -47.552531242370605 -0.6375695918654393
v 3.6770100593566895 -48.524333000183105 -1.2447405909155798
v 4.146900177001953 -47.552531242370605 0.6080704475785305
v 3.9705300331115723 -48.31453227996826 0.6506744171525048
v 4.099999904632568 -48.11683177947998 -0.01474928157081126
v 4.265140056610107 -47.425230979919434 -0.014749281570811106
v 4.146900177001953 -47.552531242370605 0.6080704475785305
v 4.099999904632568 -48.11683177947998 -0.01474928157081126
v 4.146900177001953 -47.552531242370605 0.6080704475785305
v 4.265140056610107 -47.425230979919434 -0.014749281570811106
v 4.441120147705078 -46.89513301849365 -0.014749281570810988
v 4.296679973602295 -47.00893306732178 0.6065124417687466
v 4.146900177001953 -47.552531242370605 0.6080704475785305
v 4.441120147705078 -46.89513301849365 -0.014749281570810988
v 3.6914401054382324 -47.775031089782715 -1.576100573406119
v 3.8930399417877197 -47.0430326461792 -1.2067905520056674
v 4.238289833068848 -47.00893306732178 -0.6360115860556552
v 4.146900177001953 -47.552531242370605 -0.6375695918654393
v 3.6914401054382324 -47.775031089782715 -1.576100573406119
v 4.238289833068848 -47.00893306732178 -0.6360115860556552
v 4.265140056610107 -47.425230979919434 -0.014749281570811106
v 4.146900177001953 -47.552531242370605 -0.6375695918654393
v 4.238289833068848 -47.00893306732178 -0.6360115860556552
v 4.441120147705078 -46.89513301849365 -0.014749281570810988
v 4.265140056610107 -47.425230979919434 -0.014749281570811106
v 4.238289833068848 -47.00893306732178 -0.6360115860556552
v 3.9705300331115723 -48.31453227996826 0.6506744171525048
v 4.146900177001953 -47.552531242370605 0.6080704475785305
v 3.8700599670410156 -47.68233394622803 1.3194394256020596
v 3.6770100593566895 -48.524333000183105 1.2152394200707484
v 3.9705300331115723 -48.31453227996826 0.6506744171525048
v 3.8700599670410156 -47.68233394622803 1.3194394256020596
v 3.9705300331115723 -48.31453227996826 -0.6801735614394141
v 4.146900177001953 -47.552531242370605 -0.6375695918654393
v 4.265140056610107 -47.425230979919434 -0.014749281570811106
v 4.099999904632568 -48.11683177947998 -0.01474928157081126
v 3.9705300331115723 -48.31453227996826 -0.6801735614394141
v 4.265140056610107 -47.425230979919434 -0.014749281570811106
v 4.039420127868652 -47.0430326461792 1.305999412670236
v 3.8700599670410156 -47.68233394622803 1.3194394256020596
v 4.146900177001953 -47.552531242370605 0.6080704475785305
v 4.296679973602295 -47.00893306732178 0.6065124417687466
v 4.039420127868652 -47.0430326461792 1.305999412670236
v 4.146900177001953 -47.552531242370605 0.6080704475785305
vt 0.49733901023864746 0.9675469994544983
vt 0.6316459774971008 0.7377369999885559
vt 0.5 0.7377380132675171
vt 0.4186230003833771 0.9696940183639526
vt 0.49733901023864746 0.9675469994544983
vt 0.5 0.7377380132675171
vt 0.6647379994392395 0.5244119763374329
vt 0.5 0.524412989616394
vt 0.5 0.7377380132675171
vt 0.6316459774971008 0.7377369999885559
vt 0.6647379994392395 0.5244119763374329
vt 0.5 0.7377380132675171
vt 0.32218098640441895 0.5244089961051941
vt 0.37939900159835815 0.7377349734306335
vt 0.5 0.7377380132675171
vt 0.5 0.524412989616394
vt 0.32218098640441895 0.5244089961051941
vt 0.5 0.7377380132675171
vt 0.27552300691604614 0.5244010090827942
vt 0.2877269983291626 0.34129297733306885
vt 0.1565150022506714 0.34130001068115234
vt 0.1227630004286766 0.5244100093841553
vt 0.27552300691604614 0.5244010090827942
vt 0.1565150022506714 0.34130001068115234
vt 0.32218098640441895 0.5244089961051941
vt 0.34470799565315247 0.34797900915145874
vt 0.20203399658203125 0.34129899740219116
vt 0.6647379994392395 0.5244119763374329
vt 0.6552919745445251 0.34797900915145874
vt 0.5 0.37022101879119873
vt 0.5 0.524412989616394
vt 0.6647379994392395 0.5244119763374329
vt 0.5 0.37022101879119873
vt 0.49733901023864746 0.9675469994544983
vt 0.684266984462738 0.7377359867095947
vt 0.6316459774971008 0.7377369999885559
vt 0.6552919745445251 0.34797900915145874
vt 0.6647379994392395 0.5244119763374329
vt 0.7829750180244446 0.5244100093841553
vt 0.8301380276679993 0.34130001068115234
vt 0.6552919745445251 0.34797900915145874
vt 0.7829750180244446 0.5244100093841553
vt 0.6936879754066467 0.34129297733306885
vt 0.8008480072021484 0.5244050025939941
vt 0.884738028049469 0.5244089961051941
vt 0.8080090284347534 0.34129899740219116
vt 0.6936879754066467 0.34129297733306885
vt 0.884738028049469 0.5244089961051941
vt 0.34470799565315247 0.34797900915145874
vt 0.32218098640441895 0.5244089961051941
vt 0.5 0.524412989616394
vt 0.5 0.37022101879119873
vt 0.34470799565315247 0.34797900915145874
vt 0.5 0.524412989616394
vt 0.684266984462738 0.7377359867095947
vt 0.7829750180244446 0.5244100093841553
vt 0.6647379994392395 0.5244119763374329
vt 0.6316459774971008 0.7377369999885559
vt 0.684266984462738 0.7377359867095947
vt 0.6647379994392395 0.5244119763374329
vt 0.37939900159835815 0.7377349734306335
vt 0.35954898595809937 0.9247859716415405
vt 0.4186230003833771 0.9696940183639526
vt 0.5 0.7377380132675171
vt 0.37939900159835815 0.7377349734306335
vt 0.4186230003833771 0.9696940183639526
vt 0.884738028049469 0.5244089961051941
vt 0.8008480072021484 0.5244050025939941
vt 0.8273670077323914 0.7377300262451172
vt 0.9417960047721863 0.7377349734306335
vt 0.884738028049469 0.5244089961051941
vt 0.8273670077323914 0.7377300262451172
vt 0.06954599916934967 0.7377359867095947
vt 0.2562650144100189 0.7377240061759949
vt 0.27552300691604614 0.5244010090827942
vt 0.1227630004286766 0.5244100093841553
vt 0.06954599916934967 0.7377359867095947
vt 0.27552300691604614 0.5244010090827942
vt 0.8008480072021484 0.5244050025939941
vt 0.6936879754066467 0.34129297733306885
vt 0.6808469891548157 0.524399995803833
vt 0.8261079788208008 0.8461620211601257
vt 0.9817709922790527 0.9247859716415405
vt 0.9417960047721863 0.7377349734306335
vt 0.8273670077323914 0.7377300262451172
vt 0.8261079788208008 0.8461620211601257
vt 0.9417960047721863 0.7377349734306335
vt 0.6808469891548157 0.524399995803833
vt 0.8273670077323914 0.7377300262451172
vt 0.8008480072021484 0.5244050025939941
vt 0.06954599916934967 0.7377359867095947
vt 0.01823429949581623 0.9675469994544983
vt 0.2555670142173767 0.8470190167427063
vt 0.2562650144100189 0.7377240061759949
vt 0.06954599916934967 0.7377359867095947
vt 0.2555670142173767 0.8470190167427063
vt 0.3443180024623871 0.24169397354125977
vt 0.3336690068244934 0.09272539615631104
vt 0.19254900515079498 0.05170702934265137
vt 0.10971999913454056 0.19820600748062134
vt 0.3443180024623871 0.24169397354125977
vt 0.19254900515079498 0.05170702934265137
vt 0.6556820273399353 0.24169397354125977
vt 0.6663309931755066 0.09272539615631104
vt 0.5 0.13137799501419067
vt 0.5 0.26657599210739136
vt 0.6556820273399353 0.24169397354125977
vt 0.5 0.13137799501419067
vt 0.6556820273399353 0.24169397354125977
vt 0.5 0.26657599210739136
vt 0.5 0.37022101879119873
vt 0.6552919745445251 0.34797900915145874
vt 0.6556820273399353 0.24169397354125977
vt 0.5 0.37022101879119873
vt 0.10971999913454056 0.19820600748062134
vt 0.20203399658203125 0.34129899740219116
vt 0.34470799565315247 0.34797900915145874
vt 0.3443180024623871 0.24169397354125977
vt 0.10971999913454056 0.19820600748062134
vt 0.34470799565315247 0.34797900915145874
vt 0.5 0.26657599210739136
vt 0.3443180024623871 0.24169397354125977
vt 0.34470799565315247 0.34797900915145874
vt 0.5 0.37022101879119873
vt 0.5 0.26657599210739136
vt 0.34470799565315247 0.34797900915145874
vt 0.6663309931755066 0.09272539615631104
vt 0.6556820273399353 0.24169397354125977
vt 0.8334959745407104 0.2163119912147522
vt 0.8074510097503662 0.05170702934265137
vt 0.6663309931755066 0.09272539615631104
vt 0.8334959745407104 0.2163119912147522
vt 0.3336690068244934 0.09272539615631104
vt 0.3443180024623871 0.24169397354125977
vt 0.5 0.26657599210739136
vt 0.5 0.13137799501419067
vt 0.3336690068244934 0.09272539615631104
vt 0.5 0.26657599210739136
vt 0.8301380276679993 0.34130001068115234
vt 0.8334959745407104 0.2163119912147522
vt 0.6556820273399353 0.24169397354125977
vt 0.6552919745445251 0.34797900915145874
vt 0.8301380276679993 0.34130001068115234
vt 0.6556820273399353 0.24169397354125977
vn 0.6973296480027409 0.3212088977601074 0.6407466004717548
vn 0.9652251477539164 -0.006797162263171166 0.26133161448358716
vn 0.9927341579912083 -0.07765059171836924 -0.09191994975669812
vn 0.9876318527086464 -0.11544306569818501 -0.1060953443723685
vn 0.6973296480027409 0.3212088977601074 0.6407466004717548
vn 0.9927341579912083 -0.07765059171836924 -0.09191994975669812
vn 0.955620269354049 -0.08987492884633322 0.28055729889732267
vn 0.9818756940269429 -0.06716370758401165 -0.1772262899873459
vn 0.9927341579912083 -0.07765059171836924 -0.09191994975669812
vn 0.9652251477539164 -0.006797162263171166 0.26133161448358716
vn 0.955620269354049 -0.08987492884633322 0.28055729889732267
vn 0.9927341579912083 -0.07765059171836924 -0.09191994975669812
vn 0.7316358990614519 0.08627537294886325 -0.6762140720415952
vn 0.6685507683080194 -0.07668399569364155 -0.739702261047791
vn 0.9927341579912083 -0.07765059171836924 -0.09191994975669812
vn 0.9818756940269429 -0.06716370758401165 -0.1772262899873459
vn 0.7316358990614519 0.08627537294886325 -0.6762140720415952
vn 0.9927341579912083 -0.07765059171836924 -0.09191994975669812
vn 0.40804191658205896 0.25576347744965316 0.8764056354878721
vn 0.5784097641635062 0.19318819640043391 0.7925405134703615
vn 0.7978529108597558 -0.02666419469941057 0.6022621965171369
vn 0.7481302972898723 0.043249363542570946 0.6621408844272716
vn 0.40804191658205896 0.25576347744965316 0.8764056354878721
vn 0.7978529108597558 -0.02666419469941057 0.6022621965171369
vn 0.7316358990614519 0.08627537294886325 -0.6762140720415952
vn 0.9164741055763733 -0.09212423877600148 -0.38934347103544586
vn 0.7804751430702342 0.06947032607467171 -0.6213150769493496
vn 0.955620269354049 -0.08987492884633322 0.28055729889732267
vn 0.9402880737303432 -0.15443864109686742 0.303326630114525
vn 0.9798722308514157 -0.1970449545356648 0.031995266811010455
vn 0.9818756940269429 -0.06716370758401165 -0.1772262899873459
vn 0.955620269354049 -0.08987492884633322 0.28055729889732267
vn 0.9798722308514157 -0.1970449545356648 0.031995266811010455
vn 0.6973296480027409 0.3212088977601074 0.6407466004717548
vn 0.43432554122652717 0.3476903102121865 0.8309469131195071
vn 0.9652251477539164 -0.006797162263171166 0.26133161448358716
vn 0.9402880737303432 -0.15443864109686742 0.303326630114525
vn 0.955620269354049 -0.08987492884633322 0.28055729889732267
vn 0.7481302972898723 0.043249363542570946 0.6621408844272716
vn 0.7978529108597558 -0.02666419469941057 0.6022621965171369
vn 0.9402880737303432 -0.15443864109686742 0.303326630114525
vn 0.7481302972898723 0.043249363542570946 0.6621408844272716
vn 0.3071144658178202 0.4738015582008048 -0.82534404240409
vn 0.14356855998992574 0.39463719590604096 -0.907551404709307
vn 0.7316358990614519 0.08627537294886325 -0.6762140720415952
vn 0.7804751430702342 0.06947032607467171 -0.6213150769493496
vn 0.3071144658178202 0.4738015582008048 -0.82534404240409
vn 0.7316358990614519 0.08627537294886325 -0.6762140720415952
vn 0.9164741055763733 -0.09212423877600148 -0.38934347103544586
vn 0.7316358990614519 0.08627537294886325 -0.6762140720415952
vn 0.9818756940269429 -0.06716370758401165 -0.1772262899873459
vn 0.9798722308514157 -0.1970449545356648 0.031995266811010455
vn 0.9164741055763733 -0.09212423877600148 -0.38934347103544586
vn 0.9818756940269429 -0.06716370758401165 -0.1772262899873459
vn 0.43432554122652717 0.3476903102121865 0.8309469131195071
vn 0.7481302972898723 0.043249363542570946 0.6621408844272716
vn 0.955620269354049 -0.08987492884633322 0.28055729889732267
vn 0.9652251477539164 -0.006797162263171166 0.26133161448358716
vn 0.43432554122652717 0.3476903102121865 0.8309469131195071
vn 0.955620269354049 -0.08987492884633322 0.28055729889732267
vn 0.6685507683080194 -0.07668399569364155 -0.739702261047791
vn 0.4350274707554037 -0.14869978703650052 -0.888053755705957
vn 0.9876318527086464 -0.11544306569818501 -0.1060953443723685
vn 0.9927341579912083 -0.07765059171836924 -0.09191994975669812
vn 0.6685507683080194 -0.07668399569364155 -0.739702261047791
vn 0.9876318527086464 -0.11544306569818501 -0.1060953443723685
vn 0.7316358990614519 0.08627537294886325 -0.6762140720415952
vn 0.14356855998992574 0.39463719590604096 -0.907551404709307
vn 0.17451923614091436 0.13797837435007046 -0.9749384618674676
vn 0.6685507683080194 -0.07668399569364155 -0.739702261047791
vn 0.7316358990614519 0.08627537294886325 -0.6762140720415952
vn 0.17451923614091436 0.13797837435007046 -0.9749384618674676
vn 0.43432554122652717 0.3476903102121865 0.8309469131195071
vn 0.21253290726669777 0.45132729313933295 0.8666795473508578
vn 0.40804191658205896 0.25576347744965316 0.8764056354878721
vn 0.7481302972898723 0.043249363542570946 0.6621408844272716
vn 0.43432554122652717 0.3476903102121865 0.8309469131195071
vn 0.40804191658205896 0.25576347744965316 0.8764056354878721
vn 0.14356855998992574 0.39463719590604096 -0.907551404709307
vn 0.3071144658178202 0.4738015582008048 -0.82534404240409
vn 0.1288757323412996 0.39881492985333533 -0.9079304474130014
vn 0.11412918660077122 -0.05868906937207044 -0.9917308717097026
vn 0.4350274707554037 -0.14869978703650052 -0.888053755705957
vn 0.6685507683080194 -0.07668399569364155 -0.739702261047791
vn 0.17451923614091436 0.13797837435007046 -0.9749384618674676
vn 0.11412918660077122 -0.05868906937207044 -0.9917308717097026
vn 0.6685507683080194 -0.07668399569364155 -0.739702261047791
vn 0.1288757323412996 0.39881492985333533 -0.9079304474130014
vn 0.17451923614091436 0.13797837435007046 -0.9749384618674676
vn 0.14356855998992574 0.39463719590604096 -0.907551404709307
vn 0.43432554122652717 0.3476903102121865 0.8309469131195071
vn 0.6973296480027409 0.3212088977601074 0.6407466004717548
vn 0.18999970344673275 0.5098610623788126 0.8390124014340326
vn 0.21253290726669777 0.45132729313933295 0.8666795473508578
vn 0.43432554122652717 0.3476903102121865 0.8309469131195071
vn 0.18999970344673275 0.5098610623788126 0.8390124014340326
vn 0.9286998714524971 -0.18390091477680853 -0.3220201892868962
vn 0.9521619279158496 -0.21273635927841872 -0.21938756680481175
vn 0.8995377224289439 -0.18883011582534887 -0.39392267424550903
vn 0.8946186083812653 -0.12535661150306587 -0.4288860751883155
vn 0.9286998714524971 -0.18390091477680853 -0.3220201892868962
vn 0.8995377224289439 -0.18883011582534887 -0.39392267424550903
vn 0.9446772272494091 -0.2394227667205703 0.22419115748002985
vn 0.9340159386982155 -0.22252749191065282 0.27945615327211115
vn 0.9726945504375456 -0.22720711831208235 0.047352264332556966
vn 0.9675917167263608 -0.2434273544917846 -0.06715201268513915
vn 0.9446772272494091 -0.2394227667205703 0.22419115748002985
vn 0.9726945504375456 -0.22720711831208235 0.047352264332556966
vn 0.9446772272494091 -0.2394227667205703 0.22419115748002985
vn 0.9675917167263608 -0.2434273544917846 -0.06715201268513915
vn 0.9798722308514157 -0.1970449545356648 0.031995266811010455
vn 0.9402880737303432 -0.15443864109686742 0.303326630114525
vn 0.9446772272494091 -0.2394227667205703 0.22419115748002985
vn 0.9798722308514157 -0.1970449545356648 0.031995266811010455
vn 0.8946186083812653 -0.12535661150306587 -0.4288860751883155
vn 0.7804751430702342 0.06947032607467171 -0.6213150769493496
vn 0.9164741055763733 -0.09212423877600148 -0.38934347103544586
vn 0.9286998714524971 -0.18390091477680853 -0.3220201892868962
vn 0.8946186083812653 -0.12535661150306587 -0.4288860751883155
vn 0.9164741055763733 -0.09212423877600148 -0.38934347103544586
vn 0.9675917167263608 -0.2434273544917846 -0.06715201268513915
vn 0.9286998714524971 -0.18390091477680853 -0.3220201892868962
vn 0.9164741055763733 -0.09212423877600148 -0.38934347103544586
vn 0.9798722308514157 -0.1970449545356648 0.031995266811010455
vn 0.9675917167263608 -0.2434273544917846 -0.06715201268513915
vn 0.9164741055763733 -0.09212423877600148 -0.38934347103544586
vn 0.9340159386982155 -0.22252749191065282 0.27945615327211115
vn 0.9446772272494091 -0.2394227667205703 0.22419115748002985
vn 0.9133941531482345 -0.2273056358173893 0.3377029299847312
vn 0.8938870504277605 -0.2509197017541089 0.37149057100979993
vn 0.9340159386982155 -0.22252749191065282 0.27945615327211115
vn 0.9133941531482345 -0.2273056358173893 0.3377029299847312
vn 0.9521619279158496 -0.21273635927841872 -0.21938756680481175
vn 0.9286998714524971 -0.18390091477680853 -0.3220201892868962
vn 0.9675917167263608 -0.2434273544917846 -0.06715201268513915
vn 0.9726945504375456 -0.22720711831208235 0.047352264332556966
vn 0.9521619279158496 -0.21273635927841872 -0.21938756680481175
vn 0.9675917167263608 -0.2434273544917846 -0.06715201268513915
vn 0.7978529108597558 -0.02666419469941057 0.6022621965171369
vn 0.9133941531482345 -0.2273056358173893 0.3377029299847312
vn 0.9446772272494091 -0.2394227667205703 0.22419115748002985
vn 0.9402880737303432 -0.15443864109686742 0.303326630114525
vn 0.7978529108597558 -0.02666419469941057 0.6022621965171369
vn 0.9446772272494091 -0.2394227667205703 0.22419115748002985
f 1/1/1 2/2/2 3/3/3
f 4/4/4 5/5/5 6/6/6
f 7/7/7 8/8/8 9/9/9
f 10/10/10 11/11/11 12/12/12
f 13/13/13 14/14/14 15/15/15
f 16/16/16 17/17/17 18/18/18
f 19/19/19 20/20/20 21/21/21
f 22/22/22 23/23/23 24/24/24
f 25/25/25 26/26/26 27/27/27
f 28/28/28 29/29/29 30/30/30
f 31/31/31 32/32/32 33/33/33
f 34/34/34 35/35/35 36/36/36
f 37/37/37 38/38/38 39/39/39
f 40/40/40 41/41/41 42/42/42
f 43/43/43 44/44/44 45/45/45
f 46/46/46 47/47/47 48/48/48
f 49/49/49 50/50/50 51/51/51
f 52/52/52 53/53/53 54/54/54
f 55/55/55 56/56/56 57/57/57
f 58/58/58 59/59/59 60/60/60
f 61/61/61 62/62/62 63/63/63
f 64/64/64 65/65/65 66/66/66
f 67/67/67 68/68/68 69/69/69
f 70/70/70 71/71/71 72/72/72
f 73/73/73 74/74/74 75/75/75
f 76/76/76 77/77/77 78/78/78
f 79/79/79 80/80/80 81/81/81
f 82/82/82 83/83/83 84/84/84
f 85/85/85 86/86/86 87/87/87
f 88/88/88 89/89/89 90/90/90
f 91/91/91 92/92/92 93/93/93
f 94/94/94 95/95/95 96/96/96
f 97/97/97 98/98/98 99/99/99
f 100/100/100 101/101/101 102/102/102
f 103/103/103 104/104/104 105/105/105
f 106/106/106 107/107/107 108/108/108
f 109/109/109 110/110/110 111/111/111
f 112/112/112 113/113/113 114/114/114
f 115/115/115 116/116/116 117/117/117
f 118/118/118 119/119/119 120/120/120
f 121/121/121 122/122/122 123/123/123
f 124/124/124 125/125/125 126/126/126
f 127/127/127 128/128/128 129/129/129
f 130/130/130 131/131/131 132/132/132
f 133/133/133 134/134/134 135/135/135
f 136/136/136 137/137/137 138/138/138
f 139/139/139 140/140/140 141/141/141
f 142/142/142 143/143/143 144/144/144
