mtllib ArcadaCompleta.mtl
o D71C_I
usemtl Esmalte
v 3.6307199001312256 -44.456332206726074 0.5565484310532626
v 3.3150200843811035 -43.687331199645996 -0.025394982189434964
v 2.622159957885742 -43.687331199645996 -0.025394982189434964
v 2.622220039367676 -44.456332206726074 0.6081484104538973
v 3.6307199001312256 -44.456332206726074 0.5565484310532626
v 2.622159957885742 -43.687331199645996 -0.025394982189434964
v 3.3150200843811035 -43.6763334274292 -0.3403055821513118
v 2.622159957885742 -43.6763334274292 -0.3403055821513118
v 2.622159957885742 -43.687331199645996 -0.025394982189434964
v 3.3150200843811035 -43.687331199645996 -0.025394982189434964
v 3.3150200843811035 -43.6763334274292 -0.3403055821513118
v 2.622159957885742 -43.687331199645996 -0.025394982189434964
v 1.9056400060653687 -44.46073055267334 -0.5370495771025602
v 1.929319977760315 -43.90603160858154 -0.5766355846976223
v 2.6221799850463867 -43.90603160858154 -0.5766355846976223
v 2.622230052947998 -44.46073055267334 -0.5406935666655485
v 1.9056400060653687 -44.46073055267334 -0.5370495771025602
v 2.6221799850463867 -43.90603160858154 -0.5766355846976223
v 1.9292999505996704 -43.6763334274292 -0.3403055821513118
v 2.622159957885742 -43.6763334274292 -0.3403055821513118
v 2.6221799850463867 -43.90603160858154 -0.5766355846976223
v 1.929319977760315 -43.90603160858154 -0.5766355846976223
v 1.9292999505996704 -43.6763334274292 -0.3403055821513118
v 2.6221799850463867 -43.90603160858154 -0.5766355846976223
v 3.9625298976898193 -43.90603160858154 -0.5766355846976223
v 3.992069959640503 -43.6763334274292 -0.3403055821513118
v 4.683159828186035 -43.828829765319824 -0.34030558215131185
v 4.610010147094727 -44.058531761169434 -0.5766355846976224
v 3.9625298976898193 -43.90603160858154 -0.5766355846976223
v 4.683159828186035 -43.828829765319824 -0.34030558215131185
v 1.2818200588226318 -43.687331199645996 -0.025394982189434964
v 1.2522499561309814 -43.6763334274292 -0.3403055821513118
v 0.5611600279808044 -43.8212308883667 -0.34030558215131185
v 0.634332001209259 -43.832133293151855 -0.025394982189435
v 1.2818200588226318 -43.687331199645996 -0.025394982189434964
v 0.5611600279808044 -43.8212308883667 -0.34030558215131185
v 3.992069959640503 -43.6763334274292 -0.3403055821513118
v 3.9625000953674316 -43.687331199645996 -0.025394982189434964
v 4.609990119934082 -43.83983135223389 -0.025394982189435
v 4.683159828186035 -43.828829765319824 -0.34030558215131185
v 3.992069959640503 -43.6763334274292 -0.3403055821513118
v 4.609990119934082 -43.83983135223389 -0.025394982189435
v 3.9625000953674316 -43.687331199645996 -0.025394982189434964
v 3.6307199001312256 -44.456332206726074 0.5565484310532626
v 4.609990119934082 -43.83983135223389 -0.025394982189435
v 1.2522499561309814 -43.6763334274292 -0.3403055821513118
v 1.2818399667739868 -43.90603160858154 -0.5766355846976223
v 0.6343539953231812 -44.05093288421631 -0.5766355846976223
v 0.5611600279808044 -43.8212308883667 -0.34030558215131185
v 1.2522499561309814 -43.6763334274292 -0.3403055821513118
v 0.6343539953231812 -44.05093288421631 -0.5766355846976223
v 1.2818399667739868 -43.90603160858154 -0.5766355846976223
v 1.2767399549484253 -44.46073055267334 -0.5849835728262845
v 0.6343539953231812 -44.05093288421631 -0.5766355846976223
v 2.622159957885742 -43.6763334274292 -0.3403055821513118
v 1.9292999505996704 -43.6763334274292 -0.3403055821513118
v 1.9292999505996704 -43.687331199645996 -0.025394982189434964
v 2.622159957885742 -43.687331199645996 -0.025394982189434964
v 2.622159957885742 -43.6763334274292 -0.3403055821513118
v 1.9292999505996704 -43.687331199645996 -0.025394982189434964
v 1.2522499561309814 -43.6763334274292 -0.3403055821513118
v 1.2818200588226318 -43.687331199645996 -0.025394982189434964
v 1.9292999505996704 -43.687331199645996 -0.025394982189434964
v 1.9292999505996704 -43.6763334274292 -0.3403055821513118
v 1.2522499561309814 -43.6763334274292 -0.3403055821513118
v 1.9292999505996704 -43.687331199645996 -0.025394982189434964
v 1.2818200588226318 -43.687331199645996 -0.025394982189434964
v 1.6137100458145142 -44.456332206726074 0.5565484310532626
v 1.9292999505996704 -43.687331199645996 -0.025394982189434964
v 2.622159957885742 -43.6763334274292 -0.3403055821513118
v 3.3150200843811035 -43.6763334274292 -0.3403055821513118
v 3.315040111541748 -43.90603160858154 -0.5766355846976223
v 2.6221799850463867 -43.90603160858154 -0.5766355846976223
v 2.622159957885742 -43.6763334274292 -0.3403055821513118
v 3.315040111541748 -43.90603160858154 -0.5766355846976223
v 3.992069959640503 -43.6763334274292 -0.3403055821513118
v 3.9625298976898193 -43.90603160858154 -0.5766355846976223
v 3.315040111541748 -43.90603160858154 -0.5766355846976223
v 3.3150200843811035 -43.6763334274292 -0.3403055821513118
v 3.992069959640503 -43.6763334274292 -0.3403055821513118
v 3.315040111541748 -43.90603160858154 -0.5766355846976223
v 3.9677200317382812 -44.460631370544434 -0.5849835728262845
v 3.33882999420166 -44.46073055267334 -0.5370495771025602
v 3.315040111541748 -43.90603160858154 -0.5766355846976223
v 3.9625298976898193 -43.90603160858154 -0.5766355846976223
v 3.9677200317382812 -44.460631370544434 -0.5849835728262845
v 3.315040111541748 -43.90603160858154 -0.5766355846976223
v 3.9625000953674316 -43.687331199645996 -0.025394982189434964
v 3.992069959640503 -43.6763334274292 -0.3403055821513118
v 3.3150200843811035 -43.6763334274292 -0.3403055821513118
v 3.3150200843811035 -43.687331199645996 -0.025394982189434964
v 3.9625000953674316 -43.687331199645996 -0.025394982189434964
v 3.3150200843811035 -43.6763334274292 -0.3403055821513118
v 1.2818399667739868 -43.90603160858154 -0.5766355846976223
v 1.2522499561309814 -43.6763334274292 -0.3403055821513118
v 1.9292999505996704 -43.6763334274292 -0.3403055821513118
v 1.929319977760315 -43.90603160858154 -0.5766355846976223
v 1.2818399667739868 -43.90603160858154 -0.5766355846976223
v 1.9292999505996704 -43.6763334274292 -0.3403055821513118
v 4.610010147094727 -44.058531761169434 -0.5766355846976224
v 3.9677200317382812 -44.460631370544434 -0.5849835728262845
v 3.9625298976898193 -43.90603160858154 -0.5766355846976223
v 3.3150200843811035 -43.687331199645996 -0.025394982189434964
v 3.6307199001312256 -44.456332206726074 0.5565484310532626
v 3.9625000953674316 -43.687331199645996 -0.025394982189434964
v 1.9056400060653687 -44.46073055267334 -0.5370495771025602
v 1.2767399549484253 -44.46073055267334 -0.5849835728262845
v 1.2818399667739868 -43.90603160858154 -0.5766355846976223
v 1.929319977760315 -43.90603160858154 -0.5766355846976223
v 1.9056400060653687 -44.46073055267334 -0.5370495771025602
v 1.2818399667739868 -43.90603160858154 -0.5766355846976223
v 0.634332001209259 -43.832133293151855 -0.025394982189435
v 1.6137100458145142 -44.456332206726074 0.5565484310532626
v 1.2818200588226318 -43.687331199645996 -0.025394982189434964
v 1.9292999505996704 -43.687331199645996 -0.025394982189434964
v 1.6137100458145142 -44.456332206726074 0.5565484310532626
v 2.622220039367676 -44.456332206726074 0.6081484104538973
v 2.622159957885742 -43.687331199645996 -0.025394982189434964
v 1.9292999505996704 -43.687331199645996 -0.025394982189434964
v 2.622220039367676 -44.456332206726074 0.6081484104538973
v 3.315040111541748 -43.90603160858154 -0.5766355846976223
v 3.33882999420166 -44.46073055267334 -0.5370495771025602
v 2.622230052947998 -44.46073055267334 -0.5406935666655485
v 2.6221799850463867 -43.90603160858154 -0.5766355846976223
v 3.315040111541748 -43.90603160858154 -0.5766355846976223
v 2.622230052947998 -44.46073055267334 -0.5406935666655485
vt 0.2555670142173767 0.8470190167427063
vt 0.33208000659942627 0.9973539710044861
vt 0.5000010132789612 0.9973539710044861
vt 0.4999859929084778 0.8470150232315063
vt 0.2555670142173767 0.8470190167427063
vt 0.5000010132789612 0.9973539710044861
vt 0.33208000659942627 0.5813770294189453
vt 0.5000010132789612 0.5813770294189453
vt 0.5000010132789612 0.5026609897613525
vt 0.33208000659942627 0.5026609897613525
vt 0.33208000659942627 0.5813770294189453
vt 0.5000010132789612 0.5026609897613525
vt 0.3263449966907501 0.8461509943008423
vt 0.3320850133895874 0.9545930027961731
vt 0.5000039935112 0.9545930027961731
vt 0.500016987323761 0.846153974533081
vt 0.3263449966907501 0.8461509943008423
vt 0.5000039935112 0.9545930027961731
vt 0.33208000659942627 0.9994999766349792
vt 0.4999989867210388 0.9994999766349792
vt 0.5000039935112 0.9545930027961731
vt 0.3320850133895874 0.9545930027961731
vt 0.33208000659942627 0.9994999766349792
vt 0.5000039935112 0.9545930027961731
vt 0.8248479962348938 0.9545930027961731
vt 0.8320080041885376 0.9994999766349792
vt 0.9994999766349792 0.9696940183639526
vt 0.9817709922790527 0.9247859716415405
vt 0.8248479962348938 0.9545930027961731
vt 0.9994999766349792 0.9696940183639526
vt 0.8248440027236938 0.5026609897613525
vt 0.8320090174674988 0.5813770294189453
vt 0.9994999766349792 0.5813770294189453
vt 0.9817669987678528 0.5026609897613525
vt 0.8248440027236938 0.5026609897613525
vt 0.9994999766349792 0.5813770294189453
vt 0.1679919958114624 0.5813770294189453
vt 0.17515699565410614 0.5026609897613525
vt 0.01823429949581623 0.5026609897613525
vt 0.0004996359930373728 0.5813770294189453
vt 0.1679919958114624 0.5813770294189453
vt 0.01823429949581623 0.5026609897613525
vt 0.17515699565410614 0.9973539710044861
vt 0.2555670142173767 0.8470190167427063
vt 0.01823429949581623 0.9675469994544983
vt 0.16799099743366241 0.9994999766349792
vt 0.17516200244426727 0.9545930027961731
vt 0.018238799646496773 0.9262760281562805
vt 0.0004995469935238361 0.9711840152740479
vt 0.16799099743366241 0.9994999766349792
vt 0.018238799646496773 0.9262760281562805
vt 0.17516200244426727 0.9545930027961731
vt 0.17392699420452118 0.8461470007896423
vt 0.018238799646496773 0.9262760281562805
vt 0.5000010132789612 0.5813770294189453
vt 0.6679199934005737 0.5813770294189453
vt 0.6679210066795349 0.5026609897613525
vt 0.5000010132789612 0.5026609897613525
vt 0.5000010132789612 0.5813770294189453
vt 0.6679210066795349 0.5026609897613525
vt 0.8320090174674988 0.5813770294189453
vt 0.8248440027236938 0.5026609897613525
vt 0.6679210066795349 0.5026609897613525
vt 0.6679199934005737 0.5813770294189453
vt 0.8320090174674988 0.5813770294189453
vt 0.6679210066795349 0.5026609897613525
vt 0.8248440027236938 0.9973539710044861
vt 0.74440598487854 0.8470110297203064
vt 0.6679210066795349 0.9973539710044861
vt 0.4999989867210388 0.9994999766349792
vt 0.6679199934005737 0.9994999766349792
vt 0.6679250001907349 0.9545930027961731
vt 0.5000039935112 0.9545930027961731
vt 0.4999989867210388 0.9994999766349792
vt 0.6679250001907349 0.9545930027961731
vt 0.8320080041885376 0.9994999766349792
vt 0.8248479962348938 0.9545930027961731
vt 0.6679250001907349 0.9545930027961731
vt 0.6679199934005737 0.9994999766349792
vt 0.8320080041885376 0.9994999766349792
vt 0.6679250001907349 0.9545930027961731
vt 0.8261079788208008 0.8461620211601257
vt 0.6736890077590942 0.8461580276489258
vt 0.6679250001907349 0.9545930027961731
vt 0.8248479962348938 0.9545930027961731
vt 0.8261079788208008 0.8461620211601257
vt 0.6679250001907349 0.9545930027961731
vt 0.17515699565410614 0.5026609897613525
vt 0.1679919958114624 0.5813770294189453
vt 0.33208000659942627 0.5813770294189453
vt 0.33208000659942627 0.5026609897613525
vt 0.17515699565410614 0.5026609897613525
vt 0.33208000659942627 0.5813770294189453
vt 0.17516200244426727 0.9545930027961731
vt 0.16799099743366241 0.9994999766349792
vt 0.33208000659942627 0.9994999766349792
vt 0.3320850133895874 0.9545930027961731
vt 0.17516200244426727 0.9545930027961731
vt 0.33208000659942627 0.9994999766349792
vt 0.9817709922790527 0.9247859716415405
vt 0.8261079788208008 0.8461620211601257
vt 0.8248479962348938 0.9545930027961731
vt 0.33208000659942627 0.9973539710044861
vt 0.2555670142173767 0.8470190167427063
vt 0.17515699565410614 0.9973539710044861
vt 0.3263449966907501 0.8461509943008423
vt 0.17392699420452118 0.8461470007896423
vt 0.17516200244426727 0.9545930027961731
vt 0.3320850133895874 0.9545930027961731
vt 0.3263449966907501 0.8461509943008423
vt 0.17516200244426727 0.9545930027961731
vt 0.9817669987678528 0.9690380096435547
vt 0.74440598487854 0.8470110297203064
vt 0.8248440027236938 0.9973539710044861
vt 0.6679210066795349 0.9973539710044861
vt 0.74440598487854 0.8470110297203064
vt 0.4999859929084778 0.8470150232315063
vt 0.5000010132789612 0.9973539710044861
vt 0.6679210066795349 0.9973539710044861
vt 0.4999859929084778 0.8470150232315063
vt 0.6679250001907349 0.9545930027961731
vt 0.6736890077590942 0.8461580276489258
vt 0.500016987323761 0.846153974533081
vt 0.5000039935112 0.9545930027961731
vt 0.6679250001907349 0.9545930027961731
vt 0.500016987323761 0.846153974533081
vn 0.043326833984337454 0.6058197920639744 0.7944212767798057
vn 0 0.7545531279819716 0.6562389633758592
vn 0.013996663673615182 0.7533214779940997 0.657503493678013
vn -5.5654840075718295e-9 0.6278678700344607 0.7783199456382891
vn 0.043326833984337454 0.6058197920639744 0.7944212767798057
vn 0.013996663673615182 0.7533214779940997 0.657503493678013
vn 0 0.9719505412621053 -0.2351853425286123
vn 0 0.9295172183354935 -0.36877871524512734
vn 0.013996663673615182 0.7533214779940997 0.657503493678013
vn 0 0.7545531279819716 0.6562389633758592
vn 0 0.9719505412621053 -0.2351853425286123
vn 0.013996663673615182 0.7533214779940997 0.657503493678013
vn 0.016467815639431085 -0.0494745925059833 -0.9986396125452027
vn 0 0.24328586976156866 -0.9699546306783411
vn -0.0011927098330370037 0.24378244767446733 -0.9698292095256257
vn -5.909623478109627e-10 -0.06678696988534662 -0.997767257757807
vn 0.016467815639431085 -0.0494745925059833 -0.9986396125452027
vn -0.0011927098330370037 0.24378244767446733 -0.9698292095256257
vn 0 0.8700025604430053 -0.49304720344264713
vn 0 0.9295172183354935 -0.36877871524512734
vn -0.0011927098330370037 0.24378244767446733 -0.9698292095256257
vn 0 0.24328586976156866 -0.9699546306783411
vn 0 0.8700025604430053 -0.49304720344264713
vn -0.0011927098330370037 0.24378244767446733 -0.9698292095256257
vn 0.05710033335082574 0.3737849652391892 -0.9257560973022878
vn 0.11020248483432414 0.9270138824783866 -0.35846990672675527
vn 0.19177907117258677 0.8526495433667913 -0.4860139340148407
vn 0.06869902554726803 0.29168009969569353 -0.9540456819934598
vn 0.05710033335082574 0.3737849652391892 -0.9257560973022878
vn 0.19177907117258677 0.8526495433667913 -0.4860139340148407
vn -0.09967333720993925 0.7832219520174575 0.6137007411820498
vn -0.09472602965762679 0.9222867113899182 -0.3747188296561467
vn -0.20425793541573478 0.9520912772523954 -0.22759810104569023
vn -0.15844883123270598 0.7085099860401882 0.6876827521192617
vn -0.09967333720993925 0.7832219520174575 0.6137007411820498
vn -0.20425793541573478 0.9520912772523954 -0.22759810104569023
vn 0.11020248483432414 0.9270138824783866 -0.35846990672675527
vn 0.07820193515287424 0.7859677718380267 0.6133018171914326
vn 0.1841841440501641 0.7957048206286076 0.5770009007869085
vn 0.19177907117258677 0.8526495433667913 -0.4860139340148407
vn 0.11020248483432414 0.9270138824783866 -0.35846990672675527
vn 0.1841841440501641 0.7957048206286076 0.5770009007869085
vn 0.07820193515287424 0.7859677718380267 0.6133018171914326
vn 0.043326833984337454 0.6058197920639744 0.7944212767798057
vn 0.1841841440501641 0.7957048206286076 0.5770009007869085
vn -0.09472602965762679 0.9222867113899182 -0.3747188296561467
vn -0.005579099760578915 0.2837161900936451 -0.95889206750531
vn -0.09216751704630492 0.4254795817216746 -0.9002623363994897
vn -0.20425793541573478 0.9520912772523954 -0.22759810104569023
vn -0.09472602965762679 0.9222867113899182 -0.3747188296561467
vn -0.09216751704630492 0.4254795817216746 -0.9002623363994897
vn -0.005579099760578915 0.2837161900936451 -0.95889206750531
vn 0.03585646530894494 0.01470860687039656 -0.999248703166274
vn -0.09216751704630492 0.4254795817216746 -0.9002623363994897
vn 0 0.9295172183354935 -0.36877871524512734
vn 0 0.8700025604430053 -0.49304720344264713
vn -0.013581043975951907 0.777759369484587 0.6284154027579695
vn 0.013996663673615182 0.7533214779940997 0.657503493678013
vn 0 0.9295172183354935 -0.36877871524512734
vn -0.013581043975951907 0.777759369484587 0.6284154027579695
vn -0.09472602965762679 0.9222867113899182 -0.3747188296561467
vn -0.09967333720993925 0.7832219520174575 0.6137007411820498
vn -0.013581043975951907 0.777759369484587 0.6284154027579695
vn 0 0.8700025604430053 -0.49304720344264713
vn -0.09472602965762679 0.9222867113899182 -0.3747188296561467
vn -0.013581043975951907 0.777759369484587 0.6284154027579695
vn -0.09967333720993925 0.7832219520174575 0.6137007411820498
vn -0.05453003573254277 0.5969092849000186 0.8004534844718686
vn -0.013581043975951907 0.777759369484587 0.6284154027579695
vn 0 0.9295172183354935 -0.36877871524512734
vn 0 0.9719505412621053 -0.2351853425286123
vn -0.011230922313476168 0.2591053928823262 -0.9657837551767393
vn -0.0011927098330370037 0.24378244767446733 -0.9698292095256257
vn 0 0.9295172183354935 -0.36877871524512734
vn -0.011230922313476168 0.2591053928823262 -0.9657837551767393
vn 0.11020248483432414 0.9270138824783866 -0.35846990672675527
vn 0.05710033335082574 0.3737849652391892 -0.9257560973022878
vn -0.011230922313476168 0.2591053928823262 -0.9657837551767393
vn 0 0.9719505412621053 -0.2351853425286123
vn 0.11020248483432414 0.9270138824783866 -0.35846990672675527
vn -0.011230922313476168 0.2591053928823262 -0.9657837551767393
vn -0.023730214912742627 -0.014273785002486696 -0.9996164944426928
vn -0.03280753391082766 -0.07254534404245751 -0.996825380283052
vn -0.011230922313476168 0.2591053928823262 -0.9657837551767393
vn 0.05710033335082574 0.3737849652391892 -0.9257560973022878
vn -0.023730214912742627 -0.014273785002486696 -0.9996164944426928
vn -0.011230922313476168 0.2591053928823262 -0.9657837551767393
vn 0.07820193515287424 0.7859677718380267 0.6133018171914326
vn 0.11020248483432414 0.9270138824783866 -0.35846990672675527
vn 0 0.9719505412621053 -0.2351853425286123
vn 0 0.7545531279819716 0.6562389633758592
vn 0.07820193515287424 0.7859677718380267 0.6133018171914326
vn 0 0.9719505412621053 -0.2351853425286123
vn -0.005579099760578915 0.2837161900936451 -0.95889206750531
vn -0.09472602965762679 0.9222867113899182 -0.3747188296561467
vn 0 0.8700025604430053 -0.49304720344264713
vn 0 0.24328586976156866 -0.9699546306783411
vn -0.005579099760578915 0.2837161900936451 -0.95889206750531
vn 0 0.8700025604430053 -0.49304720344264713
vn 0.06869902554726803 0.29168009969569353 -0.9540456819934598
vn -0.023730214912742627 -0.014273785002486696 -0.9996164944426928
vn 0.05710033335082574 0.3737849652391892 -0.9257560973022878
vn 0 0.7545531279819716 0.6562389633758592
vn 0.043326833984337454 0.6058197920639744 0.7944212767798057
vn 0.07820193515287424 0.7859677718380267 0.6133018171914326
vn 0.016467815639431085 -0.0494745925059833 -0.9986396125452027
vn 0.03585646530894494 0.01470860687039656 -0.999248703166274
vn -0.005579099760578915 0.2837161900936451 -0.95889206750531
vn 0 0.24328586976156866 -0.9699546306783411
vn 0.016467815639431085 -0.0494745925059833 -0.9986396125452027
vn -0.005579099760578915 0.2837161900936451 -0.95889206750531
vn -0.15844883123270598 0.7085099860401882 0.6876827521192617
vn -0.05453003573254277 0.5969092849000186 0.8004534844718686
vn -0.09967333720993925 0.7832219520174575 0.6137007411820498
vn -0.013581043975951907 0.777759369484587 0.6284154027579695
vn -0.05453003573254277 0.5969092849000186 0.8004534844718686
vn -5.5654840075718295e-9 0.6278678700344607 0.7783199456382891
vn 0.013996663673615182 0.7533214779940997 0.657503493678013
vn -0.013581043975951907 0.777759369484587 0.6284154027579695
vn -5.5654840075718295e-9 0.6278678700344607 0.7783199456382891
vn -0.011230922313476168 0.2591053928823262 -0.9657837551767393
vn -0.03280753391082766 -0.07254534404245751 -0.996825380283052
vn -5.909623478109627e-10 -0.06678696988534662 -0.997767257757807
vn -0.0011927098330370037 0.24378244767446733 -0.9698292095256257
vn -0.011230922313476168 0.2591053928823262 -0.9657837551767393
vn -5.909623478109627e-10 -0.06678696988534662 -0.997767257757807
f 1/1/1 2/2/2 3/3/3
f 4/4/4 5/5/5 6/6/6
f 7/7/7 8/8/8 9/9/9
f 10/10/10 11/11/11 12/12/12
f 13/13/13 14/14/14 15/15/15
f 16/16/16 17/17/17 18/18/18
f 19/19/19 20/20/20 21/21/21
f 22/22/22 23/23/23 24/24/24
f 25/25/25 26/26/26 27/27/27
f 28/28/28 29/29/29 30/30/30
f 31/31/31 32/32/32 33/33/33
f 34/34/34 35/35/35 36/36/36
f 37/37/37 38/38/38 39/39/39
f 40/40/40 41/41/41 42/42/42
f 43/43/43 44/44/44 45/45/45
f 46/46/46 47/47/47 48/48/48
f 49/49/49 50/50/50 51/51/51
f 52/52/52 53/53/53 54/54/54
f 55/55/55 56/56/56 57/57/57
f 58/58/58 59/59/59 60/60/60
f 61/61/61 62/62/62 63/63/63
f 64/64/64 65/65/65 66/66/66
f 67/67/67 68/68/68 69/69/69
f 70/70/70 71/71/71 72/72/72
f 73/73/73 74/74/74 75/75/75
f 76/76/76 77/77/77 78/78/78
f 79/79/79 80/80/80 81/81/81
f 82/82/82 83/83/83 84/84/84
f 85/85/85 86/86/86 87/87/87
f 88/88/88 89/89/89 90/90/90
f 91/91/91 92/92/92 93/93/93
f 94/94/94 95/95/95 96/96/96
f 97/97/97 98/98/98 99/99/99
f 100/100/100 101/101/101 102/102/102
f 103/103/103 104/104/104 105/105/105
f 106/106/106 107/107/107 108/108/108
f 109/109/109 110/110/110 111/111/111
f 112/112/112 113/113/113 114/114/114
f 115/115/115 116/116/116 117/117/117
f 118/118/118 119/119/119 120/120/120
f 121/121/121 122/122/122 123/123/123
f 124/124/124 125/125/125 126/126/126
