mtllib ArcadaCompleta.mtl
o D72C_L
usemtl Esmalte
v 7.997900009155273 -44.46073055267334 -0.5370495771025602
v 8.714500427246094 -44.46073055267334 -0.5406935666655485
v 8.714550018310547 -45.0154333114624 -0.5047505949591582
v 7.974219799041748 -45.0154333114624 -0.49746356950749804
v 7.997900009155273 -44.46073055267334 -0.5370495771025602
v 8.714550018310547 -45.0154333114624 -0.5047505949591582
v 7.9686598777771 -46.10653209686279 -0.859258577690024
v 8.714690208435059 -46.57483196258545 -1.2847006176566071
v 8.714730262756348 -47.043131828308105 -1.7315405462836215
v 7.915860176086426 -47.04323101043701 -1.5623506163214633
v 7.9686598777771 -46.10653209686279 -0.859258577690024
v 8.714730262756348 -47.043131828308105 -1.7315405462836215
v 8.714550018310547 -45.0154333114624 -0.5047505949591582
v 9.454870223999023 -45.01533031463623 -0.49746356950749804
v 8.714639663696289 -46.217631340026855 -0.822725579605002
v 9.460619926452637 -46.10653209686279 -0.859258577690024
v 8.714690208435059 -46.57483196258545 -1.2847006176566071
v 8.714639663696289 -46.217631340026855 -0.822725579605002
v 8.714639663696289 -46.217631340026855 -0.822725579605002
v 7.9686598777771 -46.10653209686279 -0.859258577690024
v 7.36391019821167 -45.0154333114624 -0.5933306072806304
v 7.974219799041748 -45.0154333114624 -0.49746356950749804
v 8.714639663696289 -46.217631340026855 -0.822725579605002
v 7.36391019821167 -45.0154333114624 -0.5933306072806304
v 9.431090354919434 -44.46073055267334 -0.5370495771025602
v 10.0600004196167 -44.460631370544434 -0.5849835728262845
v 10.065199851989746 -45.01533031463623 -0.5933306072806304
v 9.454870223999023 -45.01533031463623 -0.49746356950749804
v 9.431090354919434 -44.46073055267334 -0.5370495771025602
v 10.065199851989746 -45.01533031463623 -0.5933306072806304
v 9.460619926452637 -46.10653209686279 -0.859258577690024
v 8.714639663696289 -46.217631340026855 -0.822725579605002
v 9.454870223999023 -45.01533031463623 -0.49746356950749804
v 10.065199851989746 -45.01533031463623 -0.5933306072806304
v 9.460619926452637 -46.10653209686279 -0.859258577690024
v 9.454870223999023 -45.01533031463623 -0.49746356950749804
v 8.714500427246094 -44.46073055267334 -0.5406935666655485
v 9.431090354919434 -44.46073055267334 -0.5370495771025602
v 9.454870223999023 -45.01533031463623 -0.49746356950749804
v 8.714550018310547 -45.0154333114624 -0.5047505949591582
v 8.714500427246094 -44.46073055267334 -0.5406935666655485
v 9.454870223999023 -45.01533031463623 -0.49746356950749804
v 8.714550018310547 -45.0154333114624 -0.5047505949591582
v 8.714639663696289 -46.217631340026855 -0.822725579605002
v 7.974219799041748 -45.0154333114624 -0.49746356950749804
v 7.369009971618652 -44.46073055267334 -0.5849835728262845
v 7.997900009155273 -44.46073055267334 -0.5370495771025602
v 7.974219799041748 -45.0154333114624 -0.49746356950749804
v 7.36391019821167 -45.0154333114624 -0.5933306072806304
v 7.369009971618652 -44.46073055267334 -0.5849835728262845
v 7.974219799041748 -45.0154333114624 -0.49746356950749804
v 8.714690208435059 -46.57483196258545 -1.2847006176566071
v 9.460619926452637 -46.10653209686279 -0.859258577690024
v 9.513609886169434 -47.043131828308105 -1.5623506163214633
v 8.714730262756348 -47.043131828308105 -1.7315405462836215
v 8.714690208435059 -46.57483196258545 -1.2847006176566071
v 9.513609886169434 -47.043131828308105 -1.5623506163214633
v 8.714639663696289 -46.217631340026855 -0.822725579605002
v 8.714690208435059 -46.57483196258545 -1.2847006176566071
v 7.9686598777771 -46.10653209686279 -0.859258577690024
vt 0.3263449966907501 0.8461509943008423
vt 0.500016987323761 0.846153974533081
vt 0.5000290274620056 0.737716019153595
vt 0.32060500979423523 0.7377079725265503
vt 0.3263449966907501 0.8461509943008423
vt 0.5000290274620056 0.737716019153595
vt 0.3192580044269562 0.5243840217590332
vt 0.5000630021095276 0.43283796310424805
vt 0.500074028968811 0.34128403663635254
vt 0.3064599931240082 0.3412749767303467
vt 0.3192580044269562 0.5243840217590332
vt 0.500074028968811 0.34128403663635254
vt 0.5000290274620056 0.737716019153595
vt 0.6794540286064148 0.7377240061759949
vt 0.5000519752502441 0.5026649832725525
vt 0.3191530108451843 0.7110959887504578
vt 0.4999369978904724 0.8174409866333008
vt 0.49994799494743347 0.7019640207290649
vt 0.5000519752502441 0.5026649832725525
vt 0.3192580044269562 0.5243840217590332
vt 0.17269200086593628 0.7377020120620728
vt 0.32060500979423523 0.7377079725265503
vt 0.5000519752502441 0.5026649832725525
vt 0.17269200086593628 0.7377020120620728
vt 0.6736890077590942 0.8461580276489258
vt 0.8261079788208008 0.8461620211601257
vt 0.8273670077323914 0.7377300262451172
vt 0.6794540286064148 0.7377240061759949
vt 0.6736890077590942 0.8461580276489258
vt 0.8273670077323914 0.7377300262451172
vt 0.6808469891548157 0.524399995803833
vt 0.5000519752502441 0.5026649832725525
vt 0.6794540286064148 0.7377240061759949
vt 0.8273670077323914 0.7377300262451172
vt 0.6808469891548157 0.524399995803833
vt 0.6794540286064148 0.7377240061759949
vt 0.500016987323761 0.846153974533081
vt 0.6736890077590942 0.8461580276489258
vt 0.6794540286064148 0.7377240061759949
vt 0.5000290274620056 0.737716019153595
vt 0.500016987323761 0.846153974533081
vt 0.6794540286064148 0.7377240061759949
vt 0.5000290274620056 0.737716019153595
vt 0.5000519752502441 0.5026649832725525
vt 0.32060500979423523 0.7377079725265503
vt 0.17392699420452118 0.8461470007896423
vt 0.3263449966907501 0.8461509943008423
vt 0.32060500979423523 0.7377079725265503
vt 0.17269200086593628 0.7377020120620728
vt 0.17392699420452118 0.8461470007896423
vt 0.32060500979423523 0.7377079725265503
vt 0.5000630021095276 0.43283796310424805
vt 0.6808469891548157 0.524399995803833
vt 0.6936879754066467 0.34129297733306885
vt 0.500074028968811 0.34128403663635254
vt 0.5000630021095276 0.43283796310424805
vt 0.6936879754066467 0.34129297733306885
vt 0.49994799494743347 0.7019640207290649
vt 0.4999369978904724 0.8174409866333008
vt 0.6807420253753662 0.7110959887504578
vn 0.017694248594349052 -0.06975873849483319 -0.9974069540414738
vn 0.0033481151550239195 -0.0667446111038506 -0.9977644747201136
vn -0.0006780306765346841 0.1287391072734776 -0.9916782656349941
vn 0.06588979642747551 0.16429078160731164 -0.9842088568010371
vn 0.017694248594349052 -0.06975873849483319 -0.9974069540414738
vn -0.0006780306765346841 0.1287391072734776 -0.9916782656349941
vn -0.005734933996926644 0.5712198738381209 -0.8207770502788271
vn 0.05726798169951173 0.6962535878496136 -0.7155077355826452
vn -0.035733587060655124 0.6502041638533721 -0.7589187414101171
vn -0.16614300194449866 0.597940040235011 -0.7841327765044792
vn -0.005734933996926644 0.5712198738381209 -0.8207770502788271
vn -0.035733587060655124 0.6502041638533721 -0.7589187414101171
vn -0.0006780306765346841 0.1287391072734776 -0.9916782656349941
vn -0.06225661102524506 0.17976060676298092 -0.9817383758618466
vn 0.020941867833211336 0.3844745348632421 -0.922898028068838
vn -0.06340368546314615 0.48709676415813613 -0.8710434633336982
vn 0.05726798169951173 0.6962535878496136 -0.7155077355826452
vn 0.020941867833211336 0.3844745348632421 -0.922898028068838
vn 0.020941867833211336 0.3844745348632421 -0.922898028068838
vn -0.005734933996926644 0.5712198738381209 -0.8207770502788271
vn 0.12517708789957235 0.2603011767477532 -0.9573787098367696
vn 0.06588979642747551 0.16429078160731164 -0.9842088568010371
vn 0.020941867833211336 0.3844745348632421 -0.922898028068838
vn 0.12517708789957235 0.2603011767477532 -0.9573787098367696
vn -0.07140428104219668 -0.04567002205301458 -0.9964013637759256
vn -0.07599163238705368 0.014290516139624636 -0.9970060445933184
vn -0.13357730067192075 0.1440503134842833 -0.9805134430135484
vn -0.06225661102524506 0.17976060676298092 -0.9817383758618466
vn -0.07140428104219668 -0.04567002205301458 -0.9964013637759256
vn -0.13357730067192075 0.1440503134842833 -0.9805134430135484
vn -0.06340368546314615 0.48709676415813613 -0.8710434633336982
vn 0.020941867833211336 0.3844745348632421 -0.922898028068838
vn -0.06225661102524506 0.17976060676298092 -0.9817383758618466
vn -0.13357730067192075 0.1440503134842833 -0.9805134430135484
vn -0.06340368546314615 0.48709676415813613 -0.8710434633336982
vn -0.06225661102524506 0.17976060676298092 -0.9817383758618466
vn 0.0033481151550239195 -0.0667446111038506 -0.9977644747201136
vn -0.07140428104219668 -0.04567002205301458 -0.9964013637759256
vn -0.06225661102524506 0.17976060676298092 -0.9817383758618466
vn -0.0006780306765346841 0.1287391072734776 -0.9916782656349941
vn 0.0033481151550239195 -0.0667446111038506 -0.9977644747201136
vn -0.06225661102524506 0.17976060676298092 -0.9817383758618466
vn -0.0006780306765346841 0.1287391072734776 -0.9916782656349941
vn 0.020941867833211336 0.3844745348632421 -0.922898028068838
vn 0.06588979642747551 0.16429078160731164 -0.9842088568010371
vn 0.115214748441365 -0.030946082763836112 -0.9928584499832624
vn 0.017694248594349052 -0.06975873849483319 -0.9974069540414738
vn 0.06588979642747551 0.16429078160731164 -0.9842088568010371
vn 0.12517708789957235 0.2603011767477532 -0.9573787098367696
vn 0.115214748441365 -0.030946082763836112 -0.9928584499832624
vn 0.06588979642747551 0.16429078160731164 -0.9842088568010371
vn 0.05726798169951173 0.6962535878496136 -0.7155077355826452
vn -0.06340368546314615 0.48709676415813613 -0.8710434633336982
vn 0.10383218964221977 0.6323127701538876 -0.7677235420999016
vn -0.035733587060655124 0.6502041638533721 -0.7589187414101171
vn 0.05726798169951173 0.6962535878496136 -0.7155077355826452
vn 0.10383218964221977 0.6323127701538876 -0.7677235420999016
vn 0.020941867833211336 0.3844745348632421 -0.922898028068838
vn 0.05726798169951173 0.6962535878496136 -0.7155077355826452
vn -0.005734933996926644 0.5712198738381209 -0.8207770502788271
f 1/1/1 2/2/2 3/3/3
f 4/4/4 5/5/5 6/6/6
f 7/7/7 8/8/8 9/9/9
f 10/10/10 11/11/11 12/12/12
f 13/13/13 14/14/14 15/15/15
f 16/16/16 17/17/17 18/18/18
f 19/19/19 20/20/20 21/21/21
f 22/22/22 23/23/23 24/24/24
f 25/25/25 26/26/26 27/27/27
f 28/28/28 29/29/29 30/30/30
f 31/31/31 32/32/32 33/33/33
f 34/34/34 35/35/35 36/36/36
f 37/37/37 38/38/38 39/39/39
f 40/40/40 41/41/41 42/42/42
f 43/43/43 44/44/44 45/45/45
f 46/46/46 47/47/47 48/48/48
f 49/49/49 50/50/50 51/51/51
f 52/52/52 53/53/53 54/54/54
f 55/55/55 56/56/56 57/57/57
f 58/58/58 59/59/59 60/60/60
