mtllib ArcadaCompleta.mtl
o D73C_L
usemtl Esmalte
v 14.364700317382812 -44.268630027770996 -0.7326885913466398
v 14.778300285339355 -44.26143169403076 -0.7509795878981534
v 14.95989990234375 -45.02963161468506 -0.8721945737456267
v 14.400400161743164 -45.02963161468506 -0.7126645897482817
v 14.364700317382812 -44.268630027770996 -0.7326885913466398
v 14.95989990234375 -45.02963161468506 -0.8721945737456267
v 15.12720012664795 -44.268630027770996 -0.7326885913466398
v 15.545999526977539 -45.02963161468506 -0.7126645897482817
v 14.95989990234375 -45.02963161468506 -0.8721945737456267
v 14.778300285339355 -44.26143169403076 -0.7509795878981534
v 15.12720012664795 -44.268630027770996 -0.7326885913466398
v 14.95989990234375 -45.02963161468506 -0.8721945737456267
v 15.610300064086914 -46.443034172058105 -0.964995608196158
v 15.536100387573242 -47.187533378601074 -2.0833605383490514
v 14.99209976196289 -47.187533378601074 -2.074460611209769
v 15.043700218200684 -46.1868314743042 -1.2651905869101472
v 15.610300064086914 -46.443034172058105 -0.964995608196158
v 14.99209976196289 -47.187533378601074 -2.074460611209769
v 15.545999526977539 -45.02963161468506 -0.7126645897482817
v 15.610300064086914 -46.443034172058105 -0.964995608196158
v 15.043700218200684 -46.1868314743042 -1.2651905869101472
v 14.95989990234375 -45.02963161468506 -0.8721945737456267
v 15.545999526977539 -45.02963161468506 -0.7126645897482817
v 15.043700218200684 -46.1868314743042 -1.2651905869101472
v 14.445799827575684 -47.187533378601074 -2.0833605383490514
v 14.485099792480469 -46.1868314743042 -0.964995608196158
v 15.043700218200684 -46.1868314743042 -1.2651905869101472
v 14.99209976196289 -47.187533378601074 -2.074460611209769
v 14.445799827575684 -47.187533378601074 -2.0833605383490514
v 15.043700218200684 -46.1868314743042 -1.2651905869101472
v 15.12720012664795 -44.268630027770996 -0.7326885913466398
v 15.476200103759766 -44.27573299407959 -0.7143975947951261
v 16.033599853515625 -45.02963161468506 -0.7879845951651518
v 15.545999526977539 -45.02963161468506 -0.7126645897482817
v 15.12720012664795 -44.268630027770996 -0.7326885913466398
v 16.033599853515625 -45.02963161468506 -0.7879845951651518
v 16.123899459838867 -44.27793025970459 -0.5665045832251493
v 16.73539924621582 -45.19423198699951 -0.9410275672530121
v 16.033599853515625 -45.02963161468506 -0.7879845951651518
v 15.476200103759766 -44.27573299407959 -0.7143975947951261
v 16.123899459838867 -44.27793025970459 -0.5665045832251493
v 16.033599853515625 -45.02963161468506 -0.7879845951651518
v 13.303500175476074 -44.27793025970459 -0.5665045832251493
v 13.951199531555176 -44.27573299407959 -0.7143975947951261
v 13.950699806213379 -45.02963161468506 -0.7879845951651518
v 13.371800422668457 -45.02963161468506 -0.941027567253012
v 13.303500175476074 -44.27793025970459 -0.5665045832251493
v 13.950699806213379 -45.02963161468506 -0.7879845951651518
v 14.364700317382812 -44.268630027770996 -0.7326885913466398
v 14.400400161743164 -45.02963161468506 -0.7126645897482817
v 13.950699806213379 -45.02963161468506 -0.7879845951651518
v 13.951199531555176 -44.27573299407959 -0.7143975947951261
v 14.364700317382812 -44.268630027770996 -0.7326885913466398
v 13.950699806213379 -45.02963161468506 -0.7879845951651518
v 13.920999526977539 -46.1868314743042 -1.1712006186102815
v 14.445799827575684 -47.187533378601074 -2.0833605383490514
v 14.00100040435791 -47.187533378601074 -1.9821805809592197
v 16.033599853515625 -45.02963161468506 -0.7879845951651518
v 16.73539924621582 -45.19423198699951 -0.9410275672530121
v 16.171499252319336 -46.1868314743042 -1.1712006186102815
v 15.98330020904541 -47.187533378601074 -1.9821805809592197
v 15.536100387573242 -47.187533378601074 -2.0833605383490514
v 16.171499252319336 -46.1868314743042 -1.1712006186102815
v 14.485099792480469 -46.1868314743042 -0.964995608196158
v 14.445799827575684 -47.187533378601074 -2.0833605383490514
v 13.920999526977539 -46.1868314743042 -1.1712006186102815
v 16.533899307250977 -44.536131858825684 -0.3041345928763334
v 16.73539924621582 -45.19423198699951 -0.9410275672530121
v 16.123899459838867 -44.27793025970459 -0.5665045832251493
v 13.950699806213379 -45.02963161468506 -0.7879845951651518
v 13.920999526977539 -46.1868314743042 -1.1712006186102815
v 13.371800422668457 -45.02963161468506 -0.941027567253012
v 15.043700218200684 -46.1868314743042 -1.2651905869101472
v 14.485099792480469 -46.1868314743042 -0.964995608196158
v 14.400400161743164 -45.02963161468506 -0.7126645897482817
v 14.95989990234375 -45.02963161468506 -0.8721945737456267
v 15.043700218200684 -46.1868314743042 -1.2651905869101472
v 14.400400161743164 -45.02963161468506 -0.7126645897482817
v 16.171499252319336 -46.1868314743042 -1.1712006186102815
v 15.536100387573242 -47.187533378601074 -2.0833605383490514
v 15.610300064086914 -46.443034172058105 -0.964995608196158
v 16.171499252319336 -46.1868314743042 -1.1712006186102815
v 15.610300064086914 -46.443034172058105 -0.964995608196158
v 15.545999526977539 -45.02963161468506 -0.7126645897482817
v 16.033599853515625 -45.02963161468506 -0.7879845951651518
v 16.171499252319336 -46.1868314743042 -1.1712006186102815
v 15.545999526977539 -45.02963161468506 -0.7126645897482817
v 13.950699806213379 -45.02963161468506 -0.7879845951651518
v 14.400400161743164 -45.02963161468506 -0.7126645897482817
v 14.485099792480469 -46.1868314743042 -0.964995608196158
v 13.920999526977539 -46.1868314743042 -1.1712006186102815
v 13.950699806213379 -45.02963161468506 -0.7879845951651518
v 14.485099792480469 -46.1868314743042 -0.964995608196158
vt 0.36225101351737976 0.8654339909553528
vt 0.4439469873905182 0.8666309714317322
vt 0.47982099652290344 0.738103985786438
vt 0.3692989945411682 0.738103985786438
vt 0.36225101351737976 0.8654339909553528
vt 0.47982099652290344 0.738103985786438
vt 0.5128859877586365 0.8654339909553528
vt 0.5956180095672607 0.738103985786438
vt 0.47982099652290344 0.738103985786438
vt 0.4439469873905182 0.8666309714317322
vt 0.5128859877586365 0.8654339909553528
vt 0.47982099652290344 0.738103985786438
vt 0.3916809856891632 0.7222269773483276
vt 0.4063369929790497 0.9531409740447998
vt 0.5138000249862671 0.9513019919395447
vt 0.49638599157333374 0.544471025466919
vt 0.6083189845085144 0.501613974571228
vt 0.4862000048160553 0.3770359754562378
vt 0.5956180095672607 0.738103985786438
vt 0.6083189845085144 0.501613974571228
vt 0.49638599157333374 0.544471025466919
vt 0.47982099652290344 0.738103985786438
vt 0.5956180095672607 0.738103985786438
vt 0.49638599157333374 0.544471025466919
vt 0.3782700002193451 0.3770359754562378
vt 0.38602301478385925 0.544471025466919
vt 0.49638599157333374 0.544471025466919
vt 0.4862000048160553 0.3770359754562378
vt 0.3782700002193451 0.3770359754562378
vt 0.49638599157333374 0.544471025466919
vt 0.5128859877586365 0.8654339909553528
vt 0.581824004650116 0.8642370104789734
vt 0.6919440031051636 0.738103985786438
vt 0.5956180095672607 0.738103985786438
vt 0.5128859877586365 0.8654339909553528
vt 0.6919440031051636 0.738103985786438
vt 0.7097769975662231 0.8638799786567688
vt 0.8305950164794922 0.710552990436554
vt 0.6919440031051636 0.738103985786438
vt 0.581824004650116 0.8642370104789734
vt 0.7097769975662231 0.8638799786567688
vt 0.6919440031051636 0.738103985786438
vt 0.15260300040245056 0.8638799786567688
vt 0.28055599331855774 0.8642370104789734
vt 0.280456006526947 0.738103985786438
vt 0.16608600318431854 0.738103985786438
vt 0.15260300040245056 0.8638799786567688
vt 0.280456006526947 0.738103985786438
vt 0.36225101351737976 0.8654339909553528
vt 0.3692989945411682 0.738103985786438
vt 0.280456006526947 0.738103985786438
vt 0.28055599331855774 0.8642370104789734
vt 0.36225101351737976 0.8654339909553528
vt 0.280456006526947 0.738103985786438
vt 0.27459898591041565 0.544471025466919
vt 0.3782700002193451 0.3770359754562378
vt 0.29038798809051514 0.3770359754562378
vt 0.6919440031051636 0.738103985786438
vt 0.8305950164794922 0.710552990436554
vt 0.7191920280456543 0.544471025466919
vt 0.6820110082626343 0.3770359754562378
vt 0.5936629772186279 0.3770359754562378
vt 0.7191920280456543 0.544471025466919
vt 0.38602301478385925 0.544471025466919
vt 0.3782700002193451 0.3770359754562378
vt 0.27459898591041565 0.544471025466919
vt 0.4142239987850189 0.820667028427124
vt 0.28272199630737305 0.710552990436554
vt 0.3600510060787201 0.8638799786567688
vt 0.280456006526947 0.738103985786438
vt 0.27459898591041565 0.544471025466919
vt 0.16608600318431854 0.738103985786438
vt 0.49638599157333374 0.544471025466919
vt 0.38602301478385925 0.544471025466919
vt 0.3692989945411682 0.738103985786438
vt 0.47982099652290344 0.738103985786438
vt 0.49638599157333374 0.544471025466919
vt 0.3692989945411682 0.738103985786438
vt 0.2808080017566681 0.7648019790649414
vt 0.4063369929790497 0.9531409740447998
vt 0.3916809856891632 0.7222269773483276
vt 0.7191920280456543 0.544471025466919
vt 0.6083189845085144 0.501613974571228
vt 0.5956180095672607 0.738103985786438
vt 0.6919440031051636 0.738103985786438
vt 0.7191920280456543 0.544471025466919
vt 0.5956180095672607 0.738103985786438
vt 0.280456006526947 0.738103985786438
vt 0.3692989945411682 0.738103985786438
vt 0.38602301478385925 0.544471025466919
vt 0.27459898591041565 0.544471025466919
vt 0.280456006526947 0.738103985786438
vt 0.38602301478385925 0.544471025466919
vn -0.06651819502344405 0.038516603439181826 -0.9970415242056532
vn 0 0.15586255024281467 -0.9877787532802101
vn 1.1792208727090674e-8 0.2042834410846416 -0.9789117813667467
vn -0.19096150613926824 0.15710043594239007 -0.968944351446322
vn -0.06651819502344405 0.038516603439181826 -0.9970415242056532
vn 1.1792208727090674e-8 0.2042834410846416 -0.9789117813667467
vn 0.06914832253170862 0.07058451875988678 -0.9951061929274112
vn 0.07878691540199449 0.19392136828535458 -0.9778482115767123
vn 1.1792208727090674e-8 0.2042834410846416 -0.9789117813667467
vn 0 0.15586255024281467 -0.9877787532802101
vn 0.06914832253170862 0.07058451875988678 -0.9951061929274112
vn 1.1792208727090674e-8 0.2042834410846416 -0.9789117813667467
vn 0.05409694514865772 0.5539394670175017 -0.8307975610255178
vn -0.16792871142920218 0.7757104078425169 -0.6083365113508509
vn 0.2318736189428879 0.6791036794359168 -0.6964573335208181
vn 0.07167298437003851 0.4505516177059093 -0.8898686549677318
vn 0.05409694514865772 0.5539394670175017 -0.8307975610255178
vn 0.2318736189428879 0.6791036794359168 -0.6964573335208181
vn 0.07878691540199449 0.19392136828535458 -0.9778482115767123
vn 0.05409694514865772 0.5539394670175017 -0.8307975610255178
vn 0.07167298437003851 0.4505516177059093 -0.8898686549677318
vn 1.1792208727090674e-8 0.2042834410846416 -0.9789117813667467
vn 0.07878691540199449 0.19392136828535458 -0.9778482115767123
vn 0.07167298437003851 0.4505516177059093 -0.8898686549677318
vn -0.06310056203689123 0.6951723753994631 -0.7160682143148769
vn -0.03398691206481001 0.5009286581396322 -0.8648210041752725
vn 0.07167298437003851 0.4505516177059093 -0.8898686549677318
vn 0.2318736189428879 0.6791036794359168 -0.6964573335208181
vn -0.06310056203689123 0.6951723753994631 -0.7160682143148769
vn 0.07167298437003851 0.4505516177059093 -0.8898686549677318
vn 0.06914832253170862 0.07058451875988678 -0.9951061929274112
vn 0.16259035625146379 0.21422466369401505 -0.9631573960258045
vn -0.06799401229139794 0.23131545991229893 -0.9704998569284176
vn 0.07878691540199449 0.19392136828535458 -0.9778482115767123
vn 0.06914832253170862 0.07058451875988678 -0.9951061929274112
vn -0.06799401229139794 0.23131545991229893 -0.9704998569284176
vn 0.2573623098285302 0.42641547937057395 -0.8671415573208835
vn 0.08403683099580768 0.42517105933035887 -0.9012032963455485
vn -0.06799401229139794 0.23131545991229893 -0.9704998569284176
vn 0.16259035625146379 0.21422466369401505 -0.9631573960258045
vn 0.2573623098285302 0.42641547937057395 -0.8671415573208835
vn -0.06799401229139794 0.23131545991229893 -0.9704998569284176
vn 0.0035126505776041923 0.28540579152491263 -0.958400331515989
vn -0.1548205504378082 0.09607724344234325 -0.9832597624507242
vn 0.15402247123322094 0.23731805556205876 -0.9591440031921459
vn 0.238205612911367 0.3624829370247703 -0.9010350749795571
vn 0.0035126505776041923 0.28540579152491263 -0.958400331515989
vn 0.15402247123322094 0.23731805556205876 -0.9591440031921459
vn -0.06651819502344405 0.038516603439181826 -0.9970415242056532
vn -0.19096150613926824 0.15710043594239007 -0.968944351446322
vn 0.15402247123322094 0.23731805556205876 -0.9591440031921459
vn -0.1548205504378082 0.09607724344234325 -0.9832597624507242
vn -0.06651819502344405 0.038516603439181826 -0.9970415242056532
vn 0.15402247123322094 0.23731805556205876 -0.9591440031921459
vn 0.18795330854765974 0.5062200034417097 -0.8416738453352722
vn -0.06310056203689123 0.6951723753994631 -0.7160682143148769
vn -0.1755323711212586 0.6113309352251696 -0.7716624095582655
vn -0.06799401229139794 0.23131545991229893 -0.9704998569284176
vn 0.08403683099580768 0.42517105933035887 -0.9012032963455485
vn -0.2562297748725056 0.4401296746619772 -0.8605998907452448
vn 0.17663003933123378 0.5994522211387123 -0.7806784637593837
vn -0.16792871142920218 0.7757104078425169 -0.6083365113508509
vn -0.2562297748725056 0.4401296746619772 -0.8605998907452448
vn -0.03398691206481001 0.5009286581396322 -0.8648210041752725
vn -0.06310056203689123 0.6951723753994631 -0.7160682143148769
vn 0.18795330854765974 0.5062200034417097 -0.8416738453352722
vn 0.6615510684049074 0.6161822811725228 -0.4273986198636486
vn 0.08403683099580768 0.42517105933035887 -0.9012032963455485
vn 0.2573623098285302 0.42641547937057395 -0.8671415573208835
vn 0.15402247123322094 0.23731805556205876 -0.9591440031921459
vn 0.18795330854765974 0.5062200034417097 -0.8416738453352722
vn 0.238205612911367 0.3624829370247703 -0.9010350749795571
vn 0.07167298437003851 0.4505516177059093 -0.8898686549677318
vn -0.03398691206481001 0.5009286581396322 -0.8648210041752725
vn -0.19096150613926824 0.15710043594239007 -0.968944351446322
vn 1.1792208727090674e-8 0.2042834410846416 -0.9789117813667467
vn 0.07167298437003851 0.4505516177059093 -0.8898686549677318
vn -0.19096150613926824 0.15710043594239007 -0.968944351446322
vn -0.2562297748725056 0.4401296746619772 -0.8605998907452448
vn -0.16792871142920218 0.7757104078425169 -0.6083365113508509
vn 0.05409694514865772 0.5539394670175017 -0.8307975610255178
vn -0.2562297748725056 0.4401296746619772 -0.8605998907452448
vn 0.05409694514865772 0.5539394670175017 -0.8307975610255178
vn 0.07878691540199449 0.19392136828535458 -0.9778482115767123
vn -0.06799401229139794 0.23131545991229893 -0.9704998569284176
vn -0.2562297748725056 0.4401296746619772 -0.8605998907452448
vn 0.07878691540199449 0.19392136828535458 -0.9778482115767123
vn 0.15402247123322094 0.23731805556205876 -0.9591440031921459
vn -0.19096150613926824 0.15710043594239007 -0.968944351446322
vn -0.03398691206481001 0.5009286581396322 -0.8648210041752725
vn 0.18795330854765974 0.5062200034417097 -0.8416738453352722
vn 0.15402247123322094 0.23731805556205876 -0.9591440031921459
vn -0.03398691206481001 0.5009286581396322 -0.8648210041752725
f 1/1/1 2/2/2 3/3/3
f 4/4/4 5/5/5 6/6/6
f 7/7/7 8/8/8 9/9/9
f 10/10/10 11/11/11 12/12/12
f 13/13/13 14/14/14 15/15/15
f 16/16/16 17/17/17 18/18/18
f 19/19/19 20/20/20 21/21/21
f 22/22/22 23/23/23 24/24/24
f 25/25/25 26/26/26 27/27/27
f 28/28/28 29/29/29 30/30/30
f 31/31/31 32/32/32 33/33/33
f 34/34/34 35/35/35 36/36/36
f 37/37/37 38/38/38 39/39/39
f 40/40/40 41/41/41 42/42/42
f 43/43/43 44/44/44 45/45/45
f 46/46/46 47/47/47 48/48/48
f 49/49/49 50/50/50 51/51/51
f 52/52/52 53/53/53 54/54/54
f 55/55/55 56/56/56 57/57/57
f 58/58/58 59/59/59 60/60/60
f 61/61/61 62/62/62 63/63/63
f 64/64/64 65/65/65 66/66/66
f 67/67/67 68/68/68 69/69/69
f 70/70/70 71/71/71 72/72/72
f 73/73/73 74/74/74 75/75/75
f 76/76/76 77/77/77 78/78/78
f 79/79/79 80/80/80 81/81/81
f 82/82/82 83/83/83 84/84/84
f 85/85/85 86/86/86 87/87/87
f 88/88/88 89/89/89 90/90/90
f 91/91/91 92/92/92 93/93/93
