mtllib ArcadaCompleta.mtl
o D74C_CML
usemtl Esmalte
v 20.462200164794922 -45.390334129333496 -1.8337205504034941
v 20.655899047851562 -44.6072301864624 -1.6565605257605496
v 21.1830997467041 -44.26683330535889 -2.2319506262396756
v 21.021299362182617 -45.14783000946045 -2.5496705626105256
v 20.462200164794922 -45.390334129333496 -1.8337205504034941
v 21.1830997467041 -44.26683330535889 -2.2319506262396756
v 22.013599395751953 -43.4446325302124 -2.0861605261420193
v 21.775100708007812 -44.17763042449951 -2.5651105497931423
v 21.1830997467041 -44.26683330535889 -2.2319506262396756
v 21.380699157714844 -43.974833488464355 -1.8222305630301419
v 22.013599395751953 -43.4446325302124 -2.0861605261420193
v 21.1830997467041 -44.26683330535889 -2.2319506262396756
v 20.45240020751953 -48.00093364715576 -1.7163405274008703
v 20.891599655151367 -48.00093364715576 -2.6904705618475866
v 21.058500289916992 -49.17913341522217 -2.0558305834387736
v 20.50040054321289 -49.00963115692139 -1.0759405945395424
v 20.45240020751953 -48.00093364715576 -1.7163405274008703
v 21.058500289916992 -49.17913341522217 -2.0558305834387736
v 21.645700454711914 -48.00093364715576 -3.0695406054114294
v 21.851499557495117 -49.27883434295654 -2.5629504774664835
v 21.058500289916992 -49.17913341522217 -2.0558305834387736
v 20.891599655151367 -48.00093364715576 -2.6904705618475866
v 21.645700454711914 -48.00093364715576 -3.0695406054114294
v 21.058500289916992 -49.17913341522217 -2.0558305834387736
v 20.462200164794922 -45.390334129333496 -1.8337205504034941
v 21.021299362182617 -45.14783000946045 -2.5496705626105256
v 21.025299072265625 -46.63543224334717 -2.6563006495093298
v 20.472400665283203 -46.753432273864746 -1.8804105375861115
v 20.462200164794922 -45.390334129333496 -1.8337205504034941
v 21.025299072265625 -46.63543224334717 -2.6563006495093298
v 20.45240020751953 -48.00093364715576 -1.7163405274008703
v 20.472400665283203 -46.753432273864746 -1.8804105375861115
v 21.025299072265625 -46.63543224334717 -2.6563006495093298
v 20.891599655151367 -48.00093364715576 -2.6904705618475866
v 20.45240020751953 -48.00093364715576 -1.7163405274008703
v 21.025299072265625 -46.63543224334717 -2.6563006495093298
v 21.775100708007812 -44.17763042449951 -2.5651105497931423
v 21.78660011291504 -45.162631034851074 -2.945050582752127
v 21.021299362182617 -45.14783000946045 -2.5496705626105256
v 21.1830997467041 -44.26683330535889 -2.2319506262396756
v 21.775100708007812 -44.17763042449951 -2.5651105497931423
v 21.021299362182617 -45.14783000946045 -2.5496705626105256
v 20.98200035095215 -44.288832664489746 -1.329280600414175
v 21.169700622558594 -44.13183116912842 -1.592880592212576
v 21.380699157714844 -43.974833488464355 -1.8222305630301419
v 20.655899047851562 -44.6072301864624 -1.6565605257605496
v 20.98200035095215 -44.288832664489746 -1.329280600414175
v 21.380699157714844 -43.974833488464355 -1.8222305630301419
v 21.1830997467041 -44.26683330535889 -2.2319506262396756
v 20.655899047851562 -44.6072301864624 -1.6565605257605496
v 21.380699157714844 -43.974833488464355 -1.8222305630301419
v 22.013599395751953 -43.4446325302124 -2.0861605261420193
v 23.14109992980957 -43.73823070526123 -2.629060611591238
v 23.076799392700195 -44.25232982635498 -2.9957204912756863
v 21.775100708007812 -44.17763042449951 -2.5651105497931423
v 22.013599395751953 -43.4446325302124 -2.0861605261420193
v 23.076799392700195 -44.25232982635498 -2.9957204912756863
v 21.645700454711914 -48.00093364715576 -3.0695406054114294
v 22.695199966430664 -48.00093364715576 -3.244020566806693
v 22.736799240112305 -49.378432273864746 -2.6133504961585
v 21.851499557495117 -49.27883434295654 -2.5629504774664835
v 21.645700454711914 -48.00093364715576 -3.0695406054114294
v 22.736799240112305 -49.378432273864746 -2.6133504961585
v 21.645700454711914 -48.00093364715576 -3.0695406054114294
v 21.767200469970703 -46.63543224334717 -3.0299805258368444
v 22.882099151611328 -46.66883373260498 -3.468700513706107
v 22.695199966430664 -48.00093364715576 -3.244020566806693
v 21.645700454711914 -48.00093364715576 -3.0695406054114294
v 22.882099151611328 -46.66883373260498 -3.468700513706107
v 21.767200469970703 -46.63543224334717 -3.0299805258368444
v 21.78660011291504 -45.162631034851074 -2.945050582752127
v 22.95989990234375 -45.19243144989014 -3.3776405905341096
v 22.882099151611328 -46.66883373260498 -3.468700513706107
v 21.767200469970703 -46.63543224334717 -3.0299805258368444
v 22.95989990234375 -45.19243144989014 -3.3776405905341096
v 22.90489959716797 -43.79983043670654 -1.8276905869101465
v 23.282800674438477 -43.8572301864624 -2.0135806654547634
v 23.14109992980957 -43.73823070526123 -2.629060611591238
v 22.013599395751953 -43.4446325302124 -2.0861605261420193
v 22.90489959716797 -43.79983043670654 -1.8276905869101465
v 23.14109992980957 -43.73823070526123 -2.629060611591238
v 21.767200469970703 -46.63543224334717 -3.0299805258368444
v 21.645700454711914 -48.00093364715576 -3.0695406054114294
v 20.891599655151367 -48.00093364715576 -2.6904705618475866
v 21.025299072265625 -46.63543224334717 -2.6563006495093298
v 21.767200469970703 -46.63543224334717 -3.0299805258368444
v 20.891599655151367 -48.00093364715576 -2.6904705618475866
v 21.380699157714844 -43.974833488464355 -1.8222305630301419
v 21.57430076599121 -43.8843297958374 -1.4262705896948757
v 22.013599395751953 -43.4446325302124 -2.0861605261420193
v 22.55069923400879 -43.72263240814209 -1.276910529003042
v 22.90489959716797 -43.79983043670654 -1.8276905869101465
v 22.013599395751953 -43.4446325302124 -2.0861605261420193
v 21.021299362182617 -45.14783000946045 -2.5496705626105256
v 21.78660011291504 -45.162631034851074 -2.945050582752127
v 21.767200469970703 -46.63543224334717 -3.0299805258368444
v 21.025299072265625 -46.63543224334717 -2.6563006495093298
v 21.021299362182617 -45.14783000946045 -2.5496705626105256
v 21.767200469970703 -46.63543224334717 -3.0299805258368444
v 22.95989990234375 -45.19243144989014 -3.3776405905341096
v 21.78660011291504 -45.162631034851074 -2.945050582752127
v 21.775100708007812 -44.17763042449951 -2.5651105497931423
v 23.076799392700195 -44.25232982635498 -2.9957204912756863
v 22.95989990234375 -45.19243144989014 -3.3776405905341096
v 21.775100708007812 -44.17763042449951 -2.5651105497931423
v 22.013599395751953 -43.4446325302124 -2.0861605261420193
v 21.57430076599121 -43.8843297958374 -1.4262705896948757
v 22.55069923400879 -43.72263240814209 -1.276910529003042
v 21.705699920654297 -44.29263210296631 -0.9715685700034086
v 22.64780044555664 -44.25723171234131 -0.8349525784110013
v 22.55069923400879 -43.72263240814209 -1.276910529003042
v 21.57430076599121 -43.8843297958374 -1.4262705896948757
v 21.705699920654297 -44.29263210296631 -0.9715685700034086
v 22.55069923400879 -43.72263240814209 -1.276910529003042
v 21.169700622558594 -44.13183116912842 -1.592880592212576
v 21.34469985961914 -44.24553203582764 -1.1620505903815213
v 21.57430076599121 -43.8843297958374 -1.4262705896948757
v 21.380699157714844 -43.974833488464355 -1.8222305630301419
v 21.169700622558594 -44.13183116912842 -1.592880592212576
v 21.57430076599121 -43.8843297958374 -1.4262705896948757
v 21.34469985961914 -44.24553203582764 -1.1620505903815213
v 21.705699920654297 -44.29263210296631 -0.9715685700034086
v 21.57430076599121 -43.8843297958374 -1.4262705896948757
v 20.98200035095215 -44.288832664489746 -1.329280600414175
v 21.34469985961914 -44.24553203582764 -1.1620505903815213
v 21.169700622558594 -44.13183116912842 -1.592880592212576
v 22.64780044555664 -44.25723171234131 -0.8349525784110013
v 23.16659927368164 -44.152132987976074 -1.2052305792426052
v 22.90489959716797 -43.79983043670654 -1.8276905869101465
v 22.55069923400879 -43.72263240814209 -1.276910529003042
v 22.64780044555664 -44.25723171234131 -0.8349525784110013
v 22.90489959716797 -43.79983043670654 -1.8276905869101465
vn -0.8084296229527252 0.1373419153119781 -0.5723449510836557
vn -0.752219265143021 0.5761783760456654 -0.31966334811027874
vn -0.686978946730788 0.49333005600065954 -0.5335591650370585
vn -0.5974573408786517 0.16879060626522055 -0.7839352378014589
vn -0.8084296229527252 0.1373419153119781 -0.5723449510836557
vn -0.686978946730788 0.49333005600065954 -0.5335591650370585
vn -0.20903324979131996 0.923870559010465 -0.32057493769066
vn -0.34211793371468796 0.43199708059643127 -0.8344662017043906
vn -0.686978946730788 0.49333005600065954 -0.5335591650370585
vn -0.6540379487898137 0.7525224643865157 -0.07709930049266457
vn -0.20903324979131996 0.923870559010465 -0.32057493769066
vn -0.686978946730788 0.49333005600065954 -0.5335591650370585
vn -0.876563052684598 -0.1503189070435121 -0.45721049950050624
vn -0.6934765329112904 -0.12048948869996809 -0.710332725850468
vn -0.6948370786557623 -0.3881613530069336 -0.6054190269201595
vn -0.8476571690024222 -0.31252520780796855 -0.42872522473419405
vn -0.876563052684598 -0.1503189070435121 -0.45721049950050624
vn -0.6948370786557623 -0.3881613530069336 -0.6054190269201595
vn -0.31186921452770533 -0.24153375619528514 -0.9189118769762795
vn -0.33157241385087394 -0.393339897092833 -0.857521696359984
vn -0.6948370786557623 -0.3881613530069336 -0.6054190269201595
vn -0.6934765329112904 -0.12048948869996809 -0.710332725850468
vn -0.31186921452770533 -0.24153375619528514 -0.9189118769762795
vn -0.6948370786557623 -0.3881613530069336 -0.6054190269201595
vn -0.8084296229527252 0.1373419153119781 -0.5723449510836557
vn -0.5974573408786517 0.16879060626522055 -0.7839352378014589
vn -0.7398579899374464 0.04004517346407904 -0.6715702039310212
vn -0.8124979295551211 -0.023141025246927995 -0.5825045986249057
vn -0.8084296229527252 0.1373419153119781 -0.5723449510836557
vn -0.7398579899374464 0.04004517346407904 -0.6715702039310212
vn -0.876563052684598 -0.1503189070435121 -0.45721049950050624
vn -0.8124979295551211 -0.023141025246927995 -0.5825045986249057
vn -0.7398579899374464 0.04004517346407904 -0.6715702039310212
vn -0.6934765329112904 -0.12048948869996809 -0.710332725850468
vn -0.876563052684598 -0.1503189070435121 -0.45721049950050624
vn -0.7398579899374464 0.04004517346407904 -0.6715702039310212
vn -0.34211793371468796 0.43199708059643127 -0.8344662017043906
vn -0.38349746119973716 0.17282610438645643 -0.9072270029578914
vn -0.5974573408786517 0.16879060626522055 -0.7839352378014589
vn -0.686978946730788 0.49333005600065954 -0.5335591650370585
vn -0.34211793371468796 0.43199708059643127 -0.8344662017043906
vn -0.5974573408786517 0.16879060626522055 -0.7839352378014589
vn -0.5837224591657741 0.8109074650064411 0.04119677004679553
vn -0.5027246941768875 0.8090985804996054 0.3043474476618437
vn -0.6540379487898137 0.7525224643865157 -0.07709930049266457
vn -0.752219265143021 0.5761783760456654 -0.31966334811027874
vn -0.5837224591657741 0.8109074650064411 0.04119677004679553
vn -0.6540379487898137 0.7525224643865157 -0.07709930049266457
vn -0.686978946730788 0.49333005600065954 -0.5335591650370585
vn -0.752219265143021 0.5761783760456654 -0.31966334811027874
vn -0.6540379487898137 0.7525224643865157 -0.07709930049266457
vn -0.20903324979131996 0.923870559010465 -0.32057493769066
vn 0.09985466378909766 0.9568377807463337 -0.27292949173000236
vn -0.24397679276502082 0.5076310140042368 -0.8263087063641072
vn -0.34211793371468796 0.43199708059643127 -0.8344662017043906
vn -0.20903324979131996 0.923870559010465 -0.32057493769066
vn -0.24397679276502082 0.5076310140042368 -0.8263087063641072
vn -0.31186921452770533 -0.24153375619528514 -0.9189118769762795
vn -0.15697016708153164 -0.28963508087717393 -0.9441778892622241
vn -0.12610353904422678 -0.40045648252201543 -0.907597103921457
vn -0.33157241385087394 -0.393339897092833 -0.857521696359984
vn -0.31186921452770533 -0.24153375619528514 -0.9189118769762795
vn -0.12610353904422678 -0.40045648252201543 -0.907597103921457
vn -0.31186921452770533 -0.24153375619528514 -0.9189118769762795
vn -0.4022243180066585 0.06394705697442893 -0.9133051910004606
vn -0.3069324850241633 0.006217051278551327 -0.9517109844434347
vn -0.15697016708153164 -0.28963508087717393 -0.9441778892622241
vn -0.31186921452770533 -0.24153375619528514 -0.9189118769762795
vn -0.3069324850241633 0.006217051278551327 -0.9517109844434347
vn -0.4022243180066585 0.06394705697442893 -0.9133051910004606
vn -0.38349746119973716 0.17282610438645643 -0.9072270029578914
vn -0.3313492041995487 0.19717440329774766 -0.9226754356546526
vn -0.3069324850241633 0.006217051278551327 -0.9517109844434347
vn -0.4022243180066585 0.06394705697442893 -0.9133051910004606
vn -0.3313492041995487 0.19717440329774766 -0.9226754356546526
vn 0.37229257793539244 0.8941802375624588 0.24867637436428255
vn 0.2145438847813628 0.9669780914757695 0.13756559202358581
vn 0.09985466378909766 0.9568377807463337 -0.27292949173000236
vn -0.20903324979131996 0.923870559010465 -0.32057493769066
vn 0.37229257793539244 0.8941802375624588 0.24867637436428255
vn 0.09985466378909766 0.9568377807463337 -0.27292949173000236
vn -0.4022243180066585 0.06394705697442893 -0.9133051910004606
vn -0.31186921452770533 -0.24153375619528514 -0.9189118769762795
vn -0.6934765329112904 -0.12048948869996809 -0.710332725850468
vn -0.7398579899374464 0.04004517346407904 -0.6715702039310212
vn -0.4022243180066585 0.06394705697442893 -0.9133051910004606
vn -0.6934765329112904 -0.12048948869996809 -0.710332725850468
vn -0.6540379487898137 0.7525224643865157 -0.07709930049266457
vn -0.35326865080030695 0.8105023449294313 0.46721216724912434
vn -0.20903324979131996 0.923870559010465 -0.32057493769066
vn 0.05329490470403516 0.8356525925260488 0.5466666239465158
vn 0.37229257793539244 0.8941802375624588 0.24867637436428255
vn -0.20903324979131996 0.923870559010465 -0.32057493769066
vn -0.5974573408786517 0.16879060626522055 -0.7839352378014589
vn -0.38349746119973716 0.17282610438645643 -0.9072270029578914
vn -0.4022243180066585 0.06394705697442893 -0.9133051910004606
vn -0.7398579899374464 0.04004517346407904 -0.6715702039310212
vn -0.5974573408786517 0.16879060626522055 -0.7839352378014589
vn -0.4022243180066585 0.06394705697442893 -0.9133051910004606
vn -0.3313492041995487 0.19717440329774766 -0.9226754356546526
vn -0.38349746119973716 0.17282610438645643 -0.9072270029578914
vn -0.34211793371468796 0.43199708059643127 -0.8344662017043906
vn -0.24397679276502082 0.5076310140042368 -0.8263087063641072
vn -0.3313492041995487 0.19717440329774766 -0.9226754356546526
vn -0.34211793371468796 0.43199708059643127 -0.8344662017043906
vn -0.20903324979131996 0.923870559010465 -0.32057493769066
vn -0.35326865080030695 0.8105023449294313 0.46721216724912434
vn 0.05329490470403516 0.8356525925260488 0.5466666239465158
vn -0.19049586187139111 0.6586632074252957 0.7279245192972263
vn 0.21732125332229893 0.7362190199035652 0.6409001697508429
vn 0.05329490470403516 0.8356525925260488 0.5466666239465158
vn -0.35326865080030695 0.8105023449294313 0.46721216724912434
vn -0.19049586187139111 0.6586632074252957 0.7279245192972263
vn 0.05329490470403516 0.8356525925260488 0.5466666239465158
vn -0.5027246941768875 0.8090985804996054 0.3043474476618437
vn -0.4040451586621748 0.7566991299571036 0.51395908055391
vn -0.35326865080030695 0.8105023449294313 0.46721216724912434
vn -0.6540379487898137 0.7525224643865157 -0.07709930049266457
vn -0.5027246941768875 0.8090985804996054 0.3043474476618437
vn -0.35326865080030695 0.8105023449294313 0.46721216724912434
vn -0.4040451586621748 0.7566991299571036 0.51395908055391
vn -0.19049586187139111 0.6586632074252957 0.7279245192972263
vn -0.35326865080030695 0.8105023449294313 0.46721216724912434
vn -0.5837224591657741 0.8109074650064411 0.04119677004679553
vn -0.4040451586621748 0.7566991299571036 0.51395908055391
vn -0.5027246941768875 0.8090985804996054 0.3043474476618437
vn 0.21732125332229893 0.7362190199035652 0.6409001697508429
vn 0.13718524648592115 0.8856651830349701 0.44359597800952827
vn 0.37229257793539244 0.8941802375624588 0.24867637436428255
vn 0.05329490470403516 0.8356525925260488 0.5466666239465158
vn 0.21732125332229893 0.7362190199035652 0.6409001697508429
vn 0.37229257793539244 0.8941802375624588 0.24867637436428255
f 1//1 2//2 3//3
f 4//4 5//5 6//6
f 7//7 8//8 9//9
f 10//10 11//11 12//12
f 13//13 14//14 15//15
f 16//16 17//17 18//18
f 19//19 20//20 21//21
f 22//22 23//23 24//24
f 25//25 26//26 27//27
f 28//28 29//29 30//30
f 31//31 32//32 33//33
f 34//34 35//35 36//36
f 37//37 38//38 39//39
f 40//40 41//41 42//42
f 43//43 44//44 45//45
f 46//46 47//47 48//48
f 49//49 50//50 51//51
f 52//52 53//53 54//54
f 55//55 56//56 57//57
f 58//58 59//59 60//60
f 61//61 62//62 63//63
f 64//64 65//65 66//66
f 67//67 68//68 69//69
f 70//70 71//71 72//72
f 73//73 74//74 75//75
f 76//76 77//77 78//78
f 79//79 80//80 81//81
f 82//82 83//83 84//84
f 85//85 86//86 87//87
f 88//88 89//89 90//90
f 91//91 92//92 93//93
f 94//94 95//95 96//96
f 97//97 98//98 99//99
f 100//100 101//101 102//102
f 103//103 104//104 105//105
f 106//106 107//107 108//108
f 109//109 110//110 111//111
f 112//112 113//113 114//114
f 115//115 116//116 117//117
f 118//118 119//119 120//120
f 121//121 122//122 123//123
f 124//124 125//125 126//126
f 127//127 128//128 129//129
f 130//130 131//131 132//132
