mtllib ArcadaCompleta.mtl
o D74C_L
usemtl Esmalte
v 24.644800186157227 -43.74483013153076 -2.807400569782156
v 24.784900665283203 -44.12673091888428 -3.317250594959158
v 23.88479995727539 -44.02373027801514 -3.3168505285834256
v 23.87809944152832 -43.89823055267334 -2.8296304796790066
v 24.644800186157227 -43.74483013153076 -2.807400569782156
v 23.88479995727539 -44.02373027801514 -3.3168505285834256
v 22.95989990234375 -45.19243144989014 -3.3776405905341096
v 23.076799392700195 -44.25232982635498 -2.9957204912756863
v 23.88479995727539 -44.02373027801514 -3.3168505285834256
v 23.88479995727539 -45.21853160858154 -3.572280511722464
v 22.95989990234375 -45.19243144989014 -3.3776405905341096
v 23.88479995727539 -44.02373027801514 -3.3168505285834256
v 24.910900115966797 -45.196330070495605 -3.5764604662512727
v 24.71269989013672 -46.66883373260498 -3.5088106249426794
v 23.797399520874023 -46.66883373260498 -3.4891205881689977
v 23.88479995727539 -45.21853160858154 -3.572280511722464
v 24.910900115966797 -45.196330070495605 -3.5764604662512727
v 23.797399520874023 -46.66883373260498 -3.4891205881689977
v 23.076799392700195 -44.25232982635498 -2.9957204912756863
v 23.14109992980957 -43.73823070526123 -2.629060611591238
v 23.87809944152832 -43.89823055267334 -2.8296304796790066
v 23.88479995727539 -44.02373027801514 -3.3168505285834256
v 23.076799392700195 -44.25232982635498 -2.9957204912756863
v 23.87809944152832 -43.89823055267334 -2.8296304796790066
v 24.784900665283203 -44.12673091888428 -3.317250594959158
v 24.910900115966797 -45.196330070495605 -3.5764604662512727
v 23.88479995727539 -45.21853160858154 -3.572280511722464
v 23.88479995727539 -44.02373027801514 -3.3168505285834256
v 24.784900665283203 -44.12673091888428 -3.317250594959158
v 23.88479995727539 -45.21853160858154 -3.572280511722464
v 22.882099151611328 -46.66883373260498 -3.468700513706107
v 22.95989990234375 -45.19243144989014 -3.3776405905341096
v 23.88479995727539 -45.21853160858154 -3.572280511722464
v 23.797399520874023 -46.66883373260498 -3.4891205881689977
v 22.882099151611328 -46.66883373260498 -3.468700513706107
v 23.88479995727539 -45.21853160858154 -3.572280511722464
v 23.593700408935547 -48.00093364715576 -3.1838005636786413
v 23.797399520874023 -46.66883373260498 -3.4891205881689977
v 24.71269989013672 -46.66883373260498 -3.5088106249426794
v 24.49220085144043 -48.00093364715576 -3.244020566806693
v 23.593700408935547 -48.00093364715576 -3.1838005636786413
v 24.71269989013672 -46.66883373260498 -3.5088106249426794
v 23.797399520874023 -46.66883373260498 -3.4891205881689977
v 23.593700408935547 -48.00093364715576 -3.1838005636786413
v 22.695199966430664 -48.00093364715576 -3.244020566806693
v 22.882099151611328 -46.66883373260498 -3.468700513706107
v 23.797399520874023 -46.66883373260498 -3.4891205881689977
v 22.695199966430664 -48.00093364715576 -3.244020566806693
vn -0.020934272600992943 0.8897904176126058 -0.4558889875347418
vn 0.025346748766879805 0.3558509680981124 -0.9341989246571549
vn -0.1867836303556117 0.5001287159871379 -0.8455667583793931
vn -0.2175647352294513 0.8508131040704918 -0.4783122912140911
vn -0.020934272600992943 0.8897904176126058 -0.4558889875347418
vn -0.1867836303556117 0.5001287159871379 -0.8455667583793931
vn -0.2648421084265513 0.20059785648800454 -0.943196245527195
vn -0.34459685467306467 0.6009564258112939 -0.7211826273736393
vn -0.1867836303556117 0.5001287159871379 -0.8455667583793931
vn -0.07044504763357308 0.08942701695891409 -0.9934990205841844
vn -0.2648421084265513 0.20059785648800454 -0.943196245527195
vn -0.1867836303556117 0.5001287159871379 -0.8455667583793931
vn -0.011034104985404075 0.031110767309849335 -0.9994550358493192
vn -0.03557229563231872 -0.14657922656698325 -0.9885591242421831
vn -0.004585683609808479 -0.12485794173992731 -0.9921640317459102
vn -0.07044504763357308 0.08942701695891409 -0.9934990205841844
vn -0.011034104985404075 0.031110767309849335 -0.9994550358493192
vn -0.004585683609808479 -0.12485794173992731 -0.9921640317459102
vn -0.34459685467306467 0.6009564258112939 -0.7211826273736393
vn -0.09196293571959216 0.5857953093443142 -0.8052246109030904
vn -0.2175647352294513 0.8508131040704918 -0.4783122912140911
vn -0.1867836303556117 0.5001287159871379 -0.8455667583793931
vn -0.34459685467306467 0.6009564258112939 -0.7211826273736393
vn -0.2175647352294513 0.8508131040704918 -0.4783122912140911
vn 0.025346748766879805 0.3558509680981124 -0.9341989246571549
vn -0.011034104985404075 0.031110767309849335 -0.9994550358493192
vn -0.07044504763357308 0.08942701695891409 -0.9934990205841844
vn -0.1867836303556117 0.5001287159871379 -0.8455667583793931
vn 0.025346748766879805 0.3558509680981124 -0.9341989246571549
vn -0.07044504763357308 0.08942701695891409 -0.9934990205841844
vn -0.08690391264911874 -0.04495119564261933 -0.9952020397771366
vn -0.2648421084265513 0.20059785648800454 -0.943196245527195
vn -0.07044504763357308 0.08942701695891409 -0.9934990205841844
vn -0.004585683609808479 -0.12485794173992731 -0.9921640317459102
vn -0.08690391264911874 -0.04495119564261933 -0.9952020397771366
vn -0.07044504763357308 0.08942701695891409 -0.9934990205841844
vn -0.007093165649143756 -0.21274298770397734 -0.9770824469735699
vn -0.004585683609808479 -0.12485794173992731 -0.9921640317459102
vn -0.03557229563231872 -0.14657922656698325 -0.9885591242421831
vn -0.06573020257984165 -0.1840627078960654 -0.9807142601343068
vn -0.007093165649143756 -0.21274298770397734 -0.9770824469735699
vn -0.03557229563231872 -0.14657922656698325 -0.9885591242421831
vn -0.004585683609808479 -0.12485794173992731 -0.9921640317459102
vn -0.007093165649143756 -0.21274298770397734 -0.9770824469735699
vn 0.02150280074258969 -0.19809721605213923 -0.9799464896373764
vn -0.08690391264911874 -0.04495119564261933 -0.9952020397771366
vn -0.004585683609808479 -0.12485794173992731 -0.9921640317459102
vn 0.02150280074258969 -0.19809721605213923 -0.9799464896373764
f 1//1 2//2 3//3
f 4//4 5//5 6//6
f 7//7 8//8 9//9
f 10//10 11//11 12//12
f 13//13 14//14 15//15
f 16//16 17//17 18//18
f 19//19 20//20 21//21
f 22//22 23//23 24//24
f 25//25 26//26 27//27
f 28//28 29//29 30//30
f 31//31 32//32 33//33
f 34//34 35//35 36//36
f 37//37 38//38 39//39
f 40//40 41//41 42//42
f 43//43 44//44 45//45
f 46//46 47//47 48//48
