mtllib ArcadaCompleta.mtl
o D75C_CDL
usemtl Esmalte
v 37.13959884643555 -43.5784330368042 -2.7467704866980496
v 37.737300872802734 -43.81263256072998 -2.617060527667898
v 38.03200149536133 -44.36063289642334 -3.2509506796454377
v 37.27539825439453 -44.17313289642334 -3.445830688342947
v 37.13959884643555 -43.5784330368042 -2.7467704866980496
v 38.03200149536133 -44.36063289642334 -3.2509506796454377
v 38.222599029541016 -44.33463191986084 -2.0430005644415803
v 38.6156005859375 -44.57523250579834 -2.3559805010413117
v 38.03200149536133 -44.36063289642334 -3.2509506796454377
v 37.737300872802734 -43.81263256072998 -2.617060527667898
v 38.222599029541016 -44.33463191986084 -2.0430005644415803
v 38.03200149536133 -44.36063289642334 -3.2509506796454377
v 38.550498962402344 -47.61133098602295 -1.9864005898093173
v 38.22679901123047 -48.66243267059326 -1.393900618419547
v 37.59640121459961 -48.853732109069824 -2.658840522632499
v 38.06719970703125 -47.61133098602295 -3.059490547046561
v 38.550498962402344 -47.61133098602295 -1.9864005898093173
v 37.59640121459961 -48.853732109069824 -2.658840522632499
v 38.962799072265625 -45.28623104095459 -2.3918105219458528
v 38.88100051879883 -46.4966344833374 -2.1217206572150182
v 38.23789978027344 -46.42113399505615 -3.2687505339240026
v 38.33300018310547 -45.098631858825684 -3.377780542240042
v 38.962799072265625 -45.28623104095459 -2.3918105219458528
v 38.23789978027344 -46.42113399505615 -3.2687505339240026
v 38.6156005859375 -44.57523250579834 -2.3559805010413117
v 38.962799072265625 -45.28623104095459 -2.3918105219458528
v 38.33300018310547 -45.098631858825684 -3.377780542240042
v 38.03200149536133 -44.36063289642334 -3.2509506796454377
v 38.6156005859375 -44.57523250579834 -2.3559805010413117
v 38.33300018310547 -45.098631858825684 -3.377780542240042
v 37.430301666259766 -46.42113399505615 -3.728670463428397
v 37.51750183105469 -45.105231285095215 -3.8007105444525666
v 38.33300018310547 -45.098631858825684 -3.377780542240042
v 38.23789978027344 -46.42113399505615 -3.2687505339240026
v 37.430301666259766 -46.42113399505615 -3.728670463428397
v 38.33300018310547 -45.098631858825684 -3.377780542240042
v 37.264198303222656 -43.94493007659912 -1.956260547504324
v 38.222599029541016 -44.33463191986084 -2.0430005644415803
v 37.737300872802734 -43.81263256072998 -2.617060527667898
v 37.13959884643555 -43.5784330368042 -2.7467704866980496
v 37.264198303222656 -43.94493007659912 -1.956260547504324
v 37.737300872802734 -43.81263256072998 -2.617060527667898
v 37.430301666259766 -46.42113399505615 -3.728670463428397
v 35.902000427246094 -46.42113399505615 -3.9596406077002477
v 36.04410171508789 -45.10543346405029 -4.035990819797415
v 37.51750183105469 -45.105231285095215 -3.8007105444525666
v 37.430301666259766 -46.42113399505615 -3.728670463428397
v 36.04410171508789 -45.10543346405029 -4.035990819797415
v 37.27539825439453 -44.17313289642334 -3.445830688342947
v 35.88249969482422 -44.267130851745605 -3.743430480823416
v 35.702999114990234 -43.92582988739014 -3.1679905508612576
v 37.13959884643555 -43.5784330368042 -2.7467704866980496
v 37.27539825439453 -44.17313289642334 -3.445830688342947
v 35.702999114990234 -43.92582988739014 -3.1679905508612576
v 38.88100051879883 -46.4966344833374 -2.1217206572150182
v 38.550498962402344 -47.61133098602295 -1.9864005898093173
v 38.06719970703125 -47.61133098602295 -3.059490547046561
v 38.23789978027344 -46.42113399505615 -3.2687505339240026
v 38.88100051879883 -46.4966344833374 -2.1217206572150182
v 38.06719970703125 -47.61133098602295 -3.059490547046561
v 36.70090103149414 -48.96623134613037 -3.3134904955481486
v 37.157100677490234 -47.61133098602295 -3.5512705896948766
v 38.06719970703125 -47.61133098602295 -3.059490547046561
v 37.59640121459961 -48.853732109069824 -2.658840522632499
v 36.70090103149414 -48.96623134613037 -3.3134904955481486
v 38.06719970703125 -47.61133098602295 -3.059490547046561
v 37.430301666259766 -46.42113399505615 -3.728670463428397
v 37.157100677490234 -47.61133098602295 -3.5512705896948766
v 35.848899841308594 -47.61133098602295 -3.7530406569098425
v 35.902000427246094 -46.42113399505615 -3.9596406077002477
v 37.430301666259766 -46.42113399505615 -3.728670463428397
v 35.848899841308594 -47.61133098602295 -3.7530406569098425
v 36.502899169921875 -43.83973217010498 -1.8917605732535305
v 37.264198303222656 -43.94493007659912 -1.956260547504324
v 37.13959884643555 -43.5784330368042 -2.7467704866980496
v 35.702999114990234 -43.92582988739014 -3.1679905508612576
v 35.522098541259766 -43.91273021697998 -2.3704205607031765
v 37.13959884643555 -43.5784330368042 -2.7467704866980496
v 35.522098541259766 -43.91273021697998 -2.3704205607031765
v 35.97460174560547 -43.79183101654053 -2.3134206389044705
v 37.13959884643555 -43.5784330368042 -2.7467704866980496
v 38.33300018310547 -45.098631858825684 -3.377780542240042
v 37.51750183105469 -45.105231285095215 -3.8007105444525666
v 37.27539825439453 -44.17313289642334 -3.445830688342947
v 38.03200149536133 -44.36063289642334 -3.2509506796454377
v 38.33300018310547 -45.098631858825684 -3.377780542240042
v 37.27539825439453 -44.17313289642334 -3.445830688342947
v 38.06719970703125 -47.61133098602295 -3.059490547046561
v 37.157100677490234 -47.61133098602295 -3.5512705896948766
v 37.430301666259766 -46.42113399505615 -3.728670463428397
v 38.23789978027344 -46.42113399505615 -3.2687505339240026
v 38.06719970703125 -47.61133098602295 -3.059490547046561
v 37.430301666259766 -46.42113399505615 -3.728670463428397
v 35.848899841308594 -47.61133098602295 -3.7530406569098425
v 37.157100677490234 -47.61133098602295 -3.5512705896948766
v 36.70090103149414 -48.96623134613037 -3.3134904955481486
v 35.70109939575195 -49.07863140106201 -3.378550634250541
v 35.848899841308594 -47.61133098602295 -3.7530406569098425
v 36.70090103149414 -48.96623134613037 -3.3134904955481486
v 35.88249969482422 -44.267130851745605 -3.743430480823416
v 37.27539825439453 -44.17313289642334 -3.445830688342947
v 37.51750183105469 -45.105231285095215 -3.8007105444525666
v 36.04410171508789 -45.10543346405029 -4.035990819797415
v 35.88249969482422 -44.267130851745605 -3.743430480823416
v 37.51750183105469 -45.105231285095215 -3.8007105444525666
v 37.13959884643555 -43.5784330368042 -2.7467704866980496
v 35.78030014038086 -43.856730461120605 -1.9496306036566677
v 36.502899169921875 -43.83973217010498 -1.8917605732535305
v 35.45330047607422 -44.17063045501709 -1.4572605942343655
v 36.04199981689453 -44.27093029022217 -1.2102105473135891
v 36.502899169921875 -43.83973217010498 -1.8917605732535305
v 35.78030014038086 -43.856730461120605 -1.9496306036566677
v 35.45330047607422 -44.17063045501709 -1.4572605942343655
v 36.502899169921875 -43.83973217010498 -1.8917605732535305
v 35.522098541259766 -43.91273021697998 -2.3704205607031765
v 35.390499114990234 -44.37363338470459 -1.8599705551718655
v 35.63479995727539 -44.06923198699951 -2.166550502643484
v 36.831298828125 -44.34123134613037 -1.191650614604849
v 38.222599029541016 -44.33463191986084 -2.0430005644415803
v 37.264198303222656 -43.94493007659912 -1.956260547504324
v 36.04199981689453 -44.27093029022217 -1.2102105473135891
v 36.831298828125 -44.34123134613037 -1.191650614604849
v 37.264198303222656 -43.94493007659912 -1.956260547504324
v 36.502899169921875 -43.83973217010498 -1.8917605732535305
v 36.04199981689453 -44.27093029022217 -1.2102105473135891
v 37.264198303222656 -43.94493007659912 -1.956260547504324
v 37.13959884643555 -43.5784330368042 -2.7467704866980496
v 35.97460174560547 -43.79183101654053 -2.3134206389044705
v 35.78030014038086 -43.856730461120605 -1.9496306036566677
v 35.390499114990234 -44.37363338470459 -1.8599705551718655
v 35.45330047607422 -44.17063045501709 -1.4572605942343655
v 35.78030014038086 -43.856730461120605 -1.9496306036566677
v 35.63479995727539 -44.06923198699951 -2.166550502643484
v 35.390499114990234 -44.37363338470459 -1.8599705551718655
v 35.78030014038086 -43.856730461120605 -1.9496306036566677
v 35.63479995727539 -44.06923198699951 -2.166550502643484
v 35.97460174560547 -43.79183101654053 -2.3134206389044705
v 35.522098541259766 -43.91273021697998 -2.3704205607031765
v 35.63479995727539 -44.06923198699951 -2.166550502643484
v 35.78030014038086 -43.856730461120605 -1.9496306036566677
v 35.97460174560547 -43.79183101654053 -2.3134206389044705
vt 0.2549169957637787 0.8376420140266418
vt 0.1944109946489334 0.821357011795044
vt 0.16457200050354004 0.9009400010108948
vt 0.24117399752140045 0.9254069924354553
vt 0.2549169957637787 0.8376420140266418
vt 0.16457200050354004 0.9009400010108948
vt 0.14527800679206848 0.7492859959602356
vt 0.10548300296068192 0.788578987121582
vt 0.16457200050354004 0.9009400010108948
vt 0.1944109946489334 0.821357011795044
vt 0.14527800679206848 0.7492859959602356
vt 0.16457200050354004 0.9009400010108948
vt 0.2578200101852417 0.27029502391815186
vt 0.33220601081848145 0.08023840188980103
vt 0.1733970046043396 0.0456463098526001
vt 0.1230970025062561 0.27029502391815186
vt 0.2578200101852417 0.27029502391815186
vt 0.1733970046043396 0.0456463098526001
vt 0.2069219946861267 0.6907010078430176
vt 0.24083100259304047 0.4718400239944458
vt 0.09682419896125793 0.485493004322052
vt 0.08313590288162231 0.7246299982070923
vt 0.2069219946861267 0.6907010078430176
vt 0.09682419896125793 0.485493004322052
vt 0.21142099797725677 0.8192650079727173
vt 0.2069219946861267 0.6907010078430176
vt 0.08313590288162231 0.7246299982070923
vt 0.09905979782342911 0.8580650091171265
vt 0.21142099797725677 0.8192650079727173
vt 0.08313590288162231 0.7246299982070923
vt 0.7745130062103271 0.485493004322052
vt 0.7833349704742432 0.7234249711036682
vt 0.8659020066261292 0.7246299982070923
vt 0.8562780022621155 0.485493004322052
vt 0.7745130062103271 0.485493004322052
vt 0.8659020066261292 0.7246299982070923
vt 0.2423119992017746 0.7383959889411926
vt 0.14527800679206848 0.7492859959602356
vt 0.1944109946489334 0.821357011795044
vt 0.2549169957637787 0.8376420140266418
vt 0.2423119992017746 0.7383959889411926
vt 0.1944109946489334 0.821357011795044
vt 0.7745130062103271 0.485493004322052
vt 0.6197810173034668 0.485493004322052
vt 0.6341639757156372 0.7233930230140686
vt 0.7833349704742432 0.7234249711036682
vt 0.7745130062103271 0.485493004322052
vt 0.6341639757156372 0.7233930230140686
vt 0.24117399752140045 0.9254069924354553
vt 0.3821899890899658 0.9627699851989746
vt 0.40036600828170776 0.8905249834060669
vt 0.2549169957637787 0.8376420140266418
vt 0.24117399752140045 0.9254069924354553
vt 0.40036600828170776 0.8905249834060669
vt 0.24083100259304047 0.4718400239944458
vt 0.2578200101852417 0.27029502391815186
vt 0.1230970025062561 0.27029502391815186
vt 0.09682419896125793 0.485493004322052
vt 0.24083100259304047 0.4718400239944458
vt 0.1230970025062561 0.27029502391815186
vt 0.7006639838218689 0.02531421184539795
vt 0.7468519806861877 0.27029502391815186
vt 0.838994026184082 0.27029502391815186
vt 0.7913249731063843 0.0456463098526001
vt 0.7006639838218689 0.02531421184539795
vt 0.838994026184082 0.27029502391815186
vt 0.7745130062103271 0.485493004322052
vt 0.7468519806861877 0.27029502391815186
vt 0.614404022693634 0.27029502391815186
vt 0.6197810173034668 0.485493004322052
vt 0.7745130062103271 0.485493004322052
vt 0.614404022693634 0.27029502391815186
vt 0.319379985332489 0.7302979826927185
vt 0.2423119992017746 0.7383959889411926
vt 0.2549169957637787 0.8376420140266418
vt 0.40036600828170776 0.8905249834060669
vt 0.41868099570274353 0.7903919816017151
vt 0.2549169957637787 0.8376420140266418
vt 0.41868099570274353 0.7903919816017151
vt 0.3728730082511902 0.783236026763916
vt 0.2549169957637787 0.8376420140266418
vt 0.8659020066261292 0.7246299982070923
vt 0.7833349704742432 0.7234249711036682
vt 0.7588260173797607 0.891963005065918
vt 0.83542799949646 0.8580650091171265
vt 0.8659020066261292 0.7246299982070923
vt 0.7588260173797607 0.891963005065918
vt 0.838994026184082 0.27029502391815186
vt 0.7468519806861877 0.27029502391815186
vt 0.7745130062103271 0.485493004322052
vt 0.8562780022621155 0.485493004322052
vt 0.838994026184082 0.27029502391815186
vt 0.7745130062103271 0.485493004322052
vt 0.614404022693634 0.27029502391815186
vt 0.7468519806861877 0.27029502391815186
vt 0.7006639838218689 0.02531421184539795
vt 0.5994439721107483 0.00498199462890625
vt 0.614404022693634 0.27029502391815186
vt 0.7006639838218689 0.02531421184539795
vt 0.6178100109100342 0.8749750256538391
vt 0.7588260173797607 0.891963005065918
vt 0.7833349704742432 0.7234249711036682
vt 0.6341639757156372 0.7233930230140686
vt 0.6178100109100342 0.8749750256538391
vt 0.7833349704742432 0.7234249711036682
vt 0.2549169957637787 0.8376420140266418
vt 0.392536997795105 0.7375640273094177
vt 0.319379985332489 0.7302979826927185
vt 0.42565101385116577 0.6757479906082153
vt 0.36604899168014526 0.6447319984436035
vt 0.319379985332489 0.7302979826927185
vt 0.392536997795105 0.7375640273094177
vt 0.42565101385116577 0.6757479906082153
vt 0.319379985332489 0.7302979826927185
vt 0.41868099570274353 0.7903919816017151
vt 0.4320099949836731 0.7263069748878479
vt 0.4072690010070801 0.7647969722747803
vt 0.28613799810409546 0.6424009799957275
vt 0.14527800679206848 0.7492859959602356
vt 0.2423119992017746 0.7383959889411926
vt 0.36604899168014526 0.6447319984436035
vt 0.28613799810409546 0.6424009799957275
vt 0.2423119992017746 0.7383959889411926
vt 0.319379985332489 0.7302979826927185
vt 0.36604899168014526 0.6447319984436035
vt 0.2423119992017746 0.7383959889411926
vt 0.2549169957637787 0.8376420140266418
vt 0.3728730082511902 0.783236026763916
vt 0.392536997795105 0.7375640273094177
vt 0.4320099949836731 0.7263069748878479
vt 0.42565101385116577 0.6757479906082153
vt 0.392536997795105 0.7375640273094177
vt 0.4072690010070801 0.7647969722747803
vt 0.4320099949836731 0.7263069748878479
vt 0.392536997795105 0.7375640273094177
vt 0.4072690010070801 0.7647969722747803
vt 0.3728730082511902 0.783236026763916
vt 0.41868099570274353 0.7903919816017151
vt 0.4072690010070801 0.7647969722747803
vt 0.392536997795105 0.7375640273094177
vt 0.3728730082511902 0.783236026763916
vn 0.053360573805322414 0.9815826300643514 -0.18343442839095692
vn 0.5468405319450009 0.8353565082144669 0.05607973614275941
vn 0.5975351863827183 0.6591261552666293 -0.4566228339428519
vn 0.1911390346396425 0.6197078573168634 -0.7612017084956969
vn 0.053360573805322414 0.9815826300643514 -0.18343442839095692
vn 0.5975351863827183 0.6591261552666293 -0.4566228339428519
vn 0.5373102524921952 0.8076338616026341 0.2429511024045595
vn 0.7498383312809282 0.5553253138087201 -0.35966133067801376
vn 0.5975351863827183 0.6591261552666293 -0.4566228339428519
vn 0.5468405319450009 0.8353565082144669 0.05607973614275941
vn 0.5373102524921952 0.8076338616026341 0.2429511024045595
vn 0.5975351863827183 0.6591261552666293 -0.4566228339428519
vn 0.8388628920168174 -0.4016336481738681 -0.3674227280010462
vn 0.8254179889619954 -0.44789492731740216 -0.3436208340326215
vn 0.7588742566601253 -0.448659574893761 -0.47203225359575995
vn 0.6834780824570117 -0.3241954878088479 -0.6540298131471299
vn 0.8388628920168174 -0.4016336481738681 -0.3674227280010462
vn 0.7588742566601253 -0.448659574893761 -0.47203225359575995
vn 0.8570976221781255 -0.016600059276525705 -0.5148864963160511
vn 0.8587437593035568 -0.22336805581126729 -0.46115709633517454
vn 0.7471813778006856 -0.16513246953491614 -0.6437788876416879
vn 0.6551670967854509 0.12867151082379172 -0.7444459131408048
vn 0.8570976221781255 -0.016600059276525705 -0.5148864963160511
vn 0.7471813778006856 -0.16513246953491614 -0.6437788876416879
vn 0.7498383312809282 0.5553253138087201 -0.35966133067801376
vn 0.8570976221781255 -0.016600059276525705 -0.5148864963160511
vn 0.6551670967854509 0.12867151082379172 -0.7444459131408048
vn 0.5975351863827183 0.6591261552666293 -0.4566228339428519
vn 0.7498383312809282 0.5553253138087201 -0.35966133067801376
vn 0.6551670967854509 0.12867151082379172 -0.7444459131408048
vn 0.28261679014302094 -0.1370895485711942 -0.9493862257278656
vn 0.2550794305532383 0.1808294081593441 -0.9498606262254358
vn 0.6551670967854509 0.12867151082379172 -0.7444459131408048
vn 0.7471813778006856 -0.16513246953491614 -0.6437788876416879
vn 0.28261679014302094 -0.1370895485711942 -0.9493862257278656
vn 0.6551670967854509 0.12867151082379172 -0.7444459131408048
vn 0.24009075553663736 0.8363565211321613 0.49281253907094874
vn 0.5373102524921952 0.8076338616026341 0.2429511024045595
vn 0.5468405319450009 0.8353565082144669 0.05607973614275941
vn 0.053360573805322414 0.9815826300643514 -0.18343442839095692
vn 0.24009075553663736 0.8363565211321613 0.49281253907094874
vn 0.5468405319450009 0.8353565082144669 0.05607973614275941
vn 0.28261679014302094 -0.1370895485711942 -0.9493862257278656
vn 0.1483089468204595 -0.12235979925460819 -0.9813422113714348
vn 0.15437653919815897 0.036735818406453534 -0.9873289035530193
vn 0.2550794305532383 0.1808294081593441 -0.9498606262254358
vn 0.28261679014302094 -0.1370895485711942 -0.9493862257278656
vn 0.15437653919815897 0.036735818406453534 -0.9873289035530193
vn 0.1911390346396425 0.6197078573168634 -0.7612017084956969
vn 0.13498982830711279 0.5221763866115942 -0.8420864370828419
vn -0.06228666297147739 0.9032216603755675 -0.4246304320750934
vn 0.053360573805322414 0.9815826300643514 -0.18343442839095692
vn 0.1911390346396425 0.6197078573168634 -0.7612017084956969
vn -0.06228666297147739 0.9032216603755675 -0.4246304320750934
vn 0.8587437593035568 -0.22336805581126729 -0.46115709633517454
vn 0.8388628920168174 -0.4016336481738681 -0.3674227280010462
vn 0.6834780824570117 -0.3241954878088479 -0.6540298131471299
vn 0.7471813778006856 -0.16513246953491614 -0.6437788876416879
vn 0.8587437593035568 -0.22336805581126729 -0.46115709633517454
vn 0.6834780824570117 -0.3241954878088479 -0.6540298131471299
vn 0.3150057545197212 -0.3083708037754159 -0.8975961352403236
vn 0.2900847841883254 -0.2344914771691388 -0.9278278747253975
vn 0.6834780824570117 -0.3241954878088479 -0.6540298131471299
vn 0.7588742566601253 -0.448659574893761 -0.47203225359575995
vn 0.3150057545197212 -0.3083708037754159 -0.8975961352403236
vn 0.6834780824570117 -0.3241954878088479 -0.6540298131471299
vn 0.28261679014302094 -0.1370895485711942 -0.9493862257278656
vn 0.2900847841883254 -0.2344914771691388 -0.9278278747253975
vn 0.13598370724464082 -0.20594097168391226 -0.9690700426418567
vn 0.1483089468204595 -0.12235979925460819 -0.9813422113714348
vn 0.28261679014302094 -0.1370895485711942 -0.9493862257278656
vn 0.13598370724464082 -0.20594097168391226 -0.9690700426418567
vn 0.03773564865520366 0.8910415816313512 0.4523504400622056
vn 0.24009075553663736 0.8363565211321613 0.49281253907094874
vn 0.053360573805322414 0.9815826300643514 -0.18343442839095692
vn -0.06228666297147739 0.9032216603755675 -0.4246304320750934
vn -0.22588936465669268 0.9739816514677833 0.018268484860146338
vn 0.053360573805322414 0.9815826300643514 -0.18343442839095692
vn -0.22588936465669268 0.9739816514677833 0.018268484860146338
vn -0.2915585328870658 0.9551499452558427 0.051789998827017666
vn 0.053360573805322414 0.9815826300643514 -0.18343442839095692
vn 0.6551670967854509 0.12867151082379172 -0.7444459131408048
vn 0.2550794305532383 0.1808294081593441 -0.9498606262254358
vn 0.1911390346396425 0.6197078573168634 -0.7612017084956969
vn 0.5975351863827183 0.6591261552666293 -0.4566228339428519
vn 0.6551670967854509 0.12867151082379172 -0.7444459131408048
vn 0.1911390346396425 0.6197078573168634 -0.7612017084956969
vn 0.6834780824570117 -0.3241954878088479 -0.6540298131471299
vn 0.2900847841883254 -0.2344914771691388 -0.9278278747253975
vn 0.28261679014302094 -0.1370895485711942 -0.9493862257278656
vn 0.7471813778006856 -0.16513246953491614 -0.6437788876416879
vn 0.6834780824570117 -0.3241954878088479 -0.6540298131471299
vn 0.28261679014302094 -0.1370895485711942 -0.9493862257278656
vn 0.13598370724464082 -0.20594097168391226 -0.9690700426418567
vn 0.2900847841883254 -0.2344914771691388 -0.9278278747253975
vn 0.3150057545197212 -0.3083708037754159 -0.8975961352403236
vn 0.0912977218288766 -0.2548878538391984 -0.9626509793035607
vn 0.13598370724464082 -0.20594097168391226 -0.9690700426418567
vn 0.3150057545197212 -0.3083708037754159 -0.8975961352403236
vn 0.13498982830711279 0.5221763866115942 -0.8420864370828419
vn 0.1911390346396425 0.6197078573168634 -0.7612017084956969
vn 0.2550794305532383 0.1808294081593441 -0.9498606262254358
vn 0.15437653919815897 0.036735818406453534 -0.9873289035530193
vn 0.13498982830711279 0.5221763866115942 -0.8420864370828419
vn 0.2550794305532383 0.1808294081593441 -0.9498606262254358
vn 0.053360573805322414 0.9815826300643514 -0.18343442839095692
vn -0.30072698802190073 0.9349382439534731 0.18829168507523536
vn 0.03773564865520366 0.8910415816313512 0.4523504400622056
vn -0.24446403188198634 0.8839105620058502 0.3986721152657975
vn 0.0562943300536555 0.8442475921474973 0.5329886974007642
vn 0.03773564865520366 0.8910415816313512 0.4523504400622056
vn -0.30072698802190073 0.9349382439534731 0.18829168507523536
vn -0.24446403188198634 0.8839105620058502 0.3986721152657975
vn 0.03773564865520366 0.8910415816313512 0.4523504400622056
vn -0.22588936465669268 0.9739816514677833 0.018268484860146338
vn -0.7328202687263539 0.6794701184119504 0.0359834952316281
vn -0.5780705550051097 0.7762941369560977 0.2513997739928814
vn 0.23281905452974777 0.8033066097006911 0.5481731283627976
vn 0.5373102524921952 0.8076338616026341 0.2429511024045595
vn 0.24009075553663736 0.8363565211321613 0.49281253907094874
vn 0.0562943300536555 0.8442475921474973 0.5329886974007642
vn 0.23281905452974777 0.8033066097006911 0.5481731283627976
vn 0.24009075553663736 0.8363565211321613 0.49281253907094874
vn 0.03773564865520366 0.8910415816313512 0.4523504400622056
vn 0.0562943300536555 0.8442475921474973 0.5329886974007642
vn 0.24009075553663736 0.8363565211321613 0.49281253907094874
vn 0.053360573805322414 0.9815826300643514 -0.18343442839095692
vn -0.2915585328870658 0.9551499452558427 0.051789998827017666
vn -0.30072698802190073 0.9349382439534731 0.18829168507523536
vn -0.7328202687263539 0.6794701184119504 0.0359834952316281
vn -0.24446403188198634 0.8839105620058502 0.3986721152657975
vn -0.30072698802190073 0.9349382439534731 0.18829168507523536
vn -0.5780705550051097 0.7762941369560977 0.2513997739928814
vn -0.7328202687263539 0.6794701184119504 0.0359834952316281
vn -0.30072698802190073 0.9349382439534731 0.18829168507523536
vn -0.5780705550051097 0.7762941369560977 0.2513997739928814
vn -0.2915585328870658 0.9551499452558427 0.051789998827017666
vn -0.22588936465669268 0.9739816514677833 0.018268484860146338
vn -0.5780705550051097 0.7762941369560977 0.2513997739928814
vn -0.30072698802190073 0.9349382439534731 0.18829168507523536
vn -0.2915585328870658 0.9551499452558427 0.051789998827017666
f 1/1/1 2/2/2 3/3/3
f 4/4/4 5/5/5 6/6/6
f 7/7/7 8/8/8 9/9/9
f 10/10/10 11/11/11 12/12/12
f 13/13/13 14/14/14 15/15/15
f 16/16/16 17/17/17 18/18/18
f 19/19/19 20/20/20 21/21/21
f 22/22/22 23/23/23 24/24/24
f 25/25/25 26/26/26 27/27/27
f 28/28/28 29/29/29 30/30/30
f 31/31/31 32/32/32 33/33/33
f 34/34/34 35/35/35 36/36/36
f 37/37/37 38/38/38 39/39/39
f 40/40/40 41/41/41 42/42/42
f 43/43/43 44/44/44 45/45/45
f 46/46/46 47/47/47 48/48/48
f 49/49/49 50/50/50 51/51/51
f 52/52/52 53/53/53 54/54/54
f 55/55/55 56/56/56 57/57/57
f 58/58/58 59/59/59 60/60/60
f 61/61/61 62/62/62 63/63/63
f 64/64/64 65/65/65 66/66/66
f 67/67/67 68/68/68 69/69/69
f 70/70/70 71/71/71 72/72/72
f 73/73/73 74/74/74 75/75/75
f 76/76/76 77/77/77 78/78/78
f 79/79/79 80/80/80 81/81/81
f 82/82/82 83/83/83 84/84/84
f 85/85/85 86/86/86 87/87/87
f 88/88/88 89/89/89 90/90/90
f 91/91/91 92/92/92 93/93/93
f 94/94/94 95/95/95 96/96/96
f 97/97/97 98/98/98 99/99/99
f 100/100/100 101/101/101 102/102/102
f 103/103/103 104/104/104 105/105/105
f 106/106/106 107/107/107 108/108/108
f 109/109/109 110/110/110 111/111/111
f 112/112/112 113/113/113 114/114/114
f 115/115/115 116/116/116 117/117/117
f 118/118/118 119/119/119 120/120/120
f 121/121/121 122/122/122 123/123/123
f 124/124/124 125/125/125 126/126/126
f 127/127/127 128/128/128 129/129/129
f 130/130/130 131/131/131 132/132/132
f 133/133/133 134/134/134 135/135/135
f 136/136/136 137/137/137 138/138/138
f 139/139/139 140/140/140 141/141/141
