mtllib ArcadaCompleta.mtl
o D81C_F
usemtl Esmalte
v -2.8389298915863037 -45.0154333114624 0.9691333915139253
v -2.839020013809204 -46.10653209686279 1.5400494481469207
v -1.9130200147628784 -46.1066312789917 1.4360894109154754
v -2.8389298915863037 -45.0154333114624 0.9691333915139253
v -1.9130200147628784 -46.1066312789917 1.4360894109154754
v -1.833359956741333 -45.0154333114624 0.9113603974724824
v -2.8389298915863037 -45.0154333114624 0.9691333915139253
v -3.8444900512695312 -45.01533031463623 0.9113603974724824
v -3.7650299072265625 -46.10653209686279 1.4360894109154754
v -2.8389298915863037 -45.0154333114624 0.9691333915139253
v -3.7650299072265625 -46.10653209686279 1.4360894109154754
v -2.839020013809204 -46.10653209686279 1.5400494481469207
v -2.8389298915863037 -45.0154333114624 0.9691333915139253
v -2.838860034942627 -44.456332206726074 0.6081484104538973
v -3.847369909286499 -44.456332206726074 0.5565484310532626
v -2.8389298915863037 -45.0154333114624 0.9691333915139253
v -3.847369909286499 -44.456332206726074 0.5565484310532626
v -3.8444900512695312 -45.01533031463623 0.9113603974724824
v -2.8391098976135254 -47.043131828308105 1.87032939447413
v -2.839020013809204 -46.10653209686279 1.5400494481469207
v -3.7650299072265625 -46.10653209686279 1.4360894109154754
v -2.8391098976135254 -47.043131828308105 1.87032939447413
v -3.7650299072265625 -46.10653209686279 1.4360894109154754
v -3.714669942855835 -47.043131828308105 1.7011394645119717
v -2.8391098976135254 -47.043131828308105 1.87032939447413
v -1.9635599851608276 -47.04323101043701 1.7011394645119717
v -1.9130200147628784 -46.1066312789917 1.4360894109154754
v -2.8391098976135254 -47.043131828308105 1.87032939447413
v -1.9130200147628784 -46.1066312789917 1.4360894109154754
v -2.839020013809204 -46.10653209686279 1.5400494481469207
v -1.833359956741333 -45.0154333114624 0.9113603974724824
v -1.8303600549697876 -44.456332206726074 0.5565484310532626
v -2.838860034942627 -44.456332206726074 0.6081484104538973
v -1.833359956741333 -45.0154333114624 0.9113603974724824
v -2.838860034942627 -44.456332206726074 0.6081484104538973
v -2.8389298915863037 -45.0154333114624 0.9691333915139253
vt 0.4999699890613556 0.737716019153595
vt 0.4999470114707947 0.5243920087814331
vt 0.7243720293045044 0.524383008480072
vt 0.4999699890613556 0.737716019153595
vt 0.7243720293045044 0.524383008480072
vt 0.743677020072937 0.7377079725265503
vt 0.4999699890613556 0.737716019153595
vt 0.2562650144100189 0.7377240061759949
vt 0.27552300691604614 0.5244010090827942
vt 0.4999699890613556 0.737716019153595
vt 0.27552300691604614 0.5244010090827942
vt 0.4999470114707947 0.5243920087814331
vt 0.4999699890613556 0.737716019153595
vt 0.4999859929084778 0.8470150232315063
vt 0.2555670142173767 0.8470190167427063
vt 0.4999699890613556 0.737716019153595
vt 0.2555670142173767 0.8470190167427063
vt 0.2562650144100189 0.7377240061759949
vt 0.49992600083351135 0.34128403663635254
vt 0.4999470114707947 0.5243920087814331
vt 0.27552300691604614 0.5244010090827942
vt 0.49992600083351135 0.34128403663635254
vt 0.27552300691604614 0.5244010090827942
vt 0.2877269983291626 0.34129297733306885
vt 0.49992600083351135 0.34128403663635254
vt 0.7121220231056213 0.3412749767303467
vt 0.7243720293045044 0.524383008480072
vt 0.49992600083351135 0.34128403663635254
vt 0.7243720293045044 0.524383008480072
vt 0.4999470114707947 0.5243920087814331
vt 0.743677020072937 0.7377079725265503
vt 0.74440598487854 0.8470110297203064
vt 0.4999859929084778 0.8470150232315063
vt 0.743677020072937 0.7377079725265503
vt 0.4999859929084778 0.8470150232315063
vt 0.4999699890613556 0.737716019153595
vn -0.004277409108075308 0.47505904629548723 0.8799435244969671
vn 0.00002175612676870599 0.4061372299287641 0.9138120977490181
vn 0.10460538623064734 0.3824671011750274 0.9180286649611266
vn -0.004277409108075308 0.47505904629548723 0.8799435244969671
vn 0.10460538623064734 0.3824671011750274 0.9180286649611266
vn 0.0486916063646031 0.48761822123889387 0.8716981116105804
vn -0.004277409108075308 0.47505904629548723 0.8799435244969671
vn -0.05064867658451983 0.46777973704613796 0.8823926728896171
vn -0.10456377785551635 0.3824857092189638 0.9180256524759254
vn -0.004277409108075308 0.47505904629548723 0.8799435244969671
vn -0.10456377785551635 0.3824857092189638 0.9180256524759254
vn 0.00002175612676870599 0.4061372299287641 0.9138120977490181
vn -0.004277409108075308 0.47505904629548723 0.8799435244969671
vn 0.016083208459518772 0.5401037206257892 0.8414447702445046
vn -0.04566270446350692 0.5385239830853334 0.8413719968378943
vn -0.004277409108075308 0.47505904629548723 0.8799435244969671
vn -0.04566270446350692 0.5385239830853334 0.8413719968378943
vn -0.05064867658451983 0.46777973704613796 0.8823926728896171
vn 0.000016700704853601862 0.2993445262518426 0.9541450908138376
vn 0.00002175612676870599 0.4061372299287641 0.9138120977490181
vn -0.10456377785551635 0.3824857092189638 0.9180256524759254
vn 0.000016700704853601862 0.2993445262518426 0.9541450908138376
vn -0.10456377785551635 0.3824857092189638 0.9180256524759254
vn -0.18327538364292256 0.25854978413443513 0.9484524990080297
vn 0.000016700704853601862 0.2993445262518426 0.9541450908138376
vn 0.18330749562985232 0.25851383373221376 0.9484560927185746
vn 0.10460538623064734 0.3824671011750274 0.9180286649611266
vn 0.000016700704853601862 0.2993445262518426 0.9541450908138376
vn 0.10460538623064734 0.3824671011750274 0.9180286649611266
vn 0.00002175612676870599 0.4061372299287641 0.9138120977490181
vn 0.0486916063646031 0.48761822123889387 0.8716981116105804
vn 0.04316534515232592 0.5351575067484888 0.8436487396710919
vn 0.016083208459518772 0.5401037206257892 0.8414447702445046
vn 0.0486916063646031 0.48761822123889387 0.8716981116105804
vn 0.016083208459518772 0.5401037206257892 0.8414447702445046
vn -0.004277409108075308 0.47505904629548723 0.8799435244969671
f 1/1/1 2/2/2 3/3/3
f 4/4/4 5/5/5 6/6/6
f 7/7/7 8/8/8 9/9/9
f 10/10/10 11/11/11 12/12/12
f 13/13/13 14/14/14 15/15/15
f 16/16/16 17/17/17 18/18/18
f 19/19/19 20/20/20 21/21/21
f 22/22/22 23/23/23 24/24/24
f 25/25/25 26/26/26 27/27/27
f 28/28/28 29/29/29 30/30/30
f 31/31/31 32/32/32 33/33/33
f 34/34/34 35/35/35 36/36/36
