mtllib ArcadaCompleta.mtl
o D81C_L
usemtl Esmalte
v -2.8389298915863037 -45.0154333114624 -0.5047505949591582
v -2.8388800621032715 -44.46073055267334 -0.5406935666655485
v -2.1222798824310303 -44.46073055267334 -0.5370495771025602
v -2.8389298915863037 -45.0154333114624 -0.5047505949591582
v -2.1222798824310303 -44.46073055267334 -0.5370495771025602
v -2.098599910736084 -45.0154333114624 -0.49746356950749804
v -2.8391098976135254 -47.043131828308105 -1.7315405462836215
v -2.8390700817108154 -46.57483196258545 -1.2847006176566071
v -2.0930399894714355 -46.10653209686279 -0.859258577690024
v -2.8391098976135254 -47.043131828308105 -1.7315405462836215
v -2.0930399894714355 -46.10653209686279 -0.859258577690024
v -2.0402400493621826 -47.04323101043701 -1.5623506163214633
v -2.839020013809204 -46.217631340026855 -0.822725579605002
v -3.5792500972747803 -45.01533031463623 -0.49746356950749804
v -2.8389298915863037 -45.0154333114624 -0.5047505949591582
v -2.839020013809204 -46.217631340026855 -0.822725579605002
v -2.8390700817108154 -46.57483196258545 -1.2847006176566071
v -3.5850000381469727 -46.10653209686279 -0.859258577690024
v -1.4882899522781372 -45.0154333114624 -0.5933306072806304
v -2.0930399894714355 -46.10653209686279 -0.859258577690024
v -2.839020013809204 -46.217631340026855 -0.822725579605002
v -1.4882899522781372 -45.0154333114624 -0.5933306072806304
v -2.839020013809204 -46.217631340026855 -0.822725579605002
v -2.098599910736084 -45.0154333114624 -0.49746356950749804
v -4.1895599365234375 -45.01533031463623 -0.5933306072806304
v -4.184370040893555 -44.460631370544434 -0.5849835728262845
v -3.5554699897766113 -44.46073055267334 -0.5370495771025602
v -4.1895599365234375 -45.01533031463623 -0.5933306072806304
v -3.5554699897766113 -44.46073055267334 -0.5370495771025602
v -3.5792500972747803 -45.01533031463623 -0.49746356950749804
v -3.5792500972747803 -45.01533031463623 -0.49746356950749804
v -2.839020013809204 -46.217631340026855 -0.822725579605002
v -3.5850000381469727 -46.10653209686279 -0.859258577690024
v -3.5792500972747803 -45.01533031463623 -0.49746356950749804
v -3.5850000381469727 -46.10653209686279 -0.859258577690024
v -4.1895599365234375 -45.01533031463623 -0.5933306072806304
v -3.5792500972747803 -45.01533031463623 -0.49746356950749804
v -3.5554699897766113 -44.46073055267334 -0.5370495771025602
v -2.8388800621032715 -44.46073055267334 -0.5406935666655485
v -3.5792500972747803 -45.01533031463623 -0.49746356950749804
v -2.8388800621032715 -44.46073055267334 -0.5406935666655485
v -2.8389298915863037 -45.0154333114624 -0.5047505949591582
v -2.098599910736084 -45.0154333114624 -0.49746356950749804
v -2.839020013809204 -46.217631340026855 -0.822725579605002
v -2.8389298915863037 -45.0154333114624 -0.5047505949591582
v -2.098599910736084 -45.0154333114624 -0.49746356950749804
v -2.1222798824310303 -44.46073055267334 -0.5370495771025602
v -1.4933899641036987 -44.46073055267334 -0.5849835728262845
v -2.098599910736084 -45.0154333114624 -0.49746356950749804
v -1.4933899641036987 -44.46073055267334 -0.5849835728262845
v -1.4882899522781372 -45.0154333114624 -0.5933306072806304
v -3.6379899978637695 -47.043131828308105 -1.5623506163214633
v -3.5850000381469727 -46.10653209686279 -0.859258577690024
v -2.8390700817108154 -46.57483196258545 -1.2847006176566071
v -3.6379899978637695 -47.043131828308105 -1.5623506163214633
v -2.8390700817108154 -46.57483196258545 -1.2847006176566071
v -2.8391098976135254 -47.043131828308105 -1.7315405462836215
v -2.0930399894714355 -46.10653209686279 -0.859258577690024
v -2.8390700817108154 -46.57483196258545 -1.2847006176566071
v -2.839020013809204 -46.217631340026855 -0.822725579605002
vt 0.5000290274620056 0.737716019153595
vt 0.500016987323761 0.846153974533081
vt 0.3263449966907501 0.8461509943008423
vt 0.5000290274620056 0.737716019153595
vt 0.3263449966907501 0.8461509943008423
vt 0.32060500979423523 0.7377079725265503
vt 0.500074028968811 0.34128403663635254
vt 0.5000630021095276 0.43283796310424805
vt 0.3192580044269562 0.5243840217590332
vt 0.500074028968811 0.34128403663635254
vt 0.3192580044269562 0.5243840217590332
vt 0.3064599931240082 0.3412749767303467
vt 0.5000519752502441 0.5026649832725525
vt 0.6794540286064148 0.7377240061759949
vt 0.5000290274620056 0.737716019153595
vt 0.49994799494743347 0.7019640207290649
vt 0.4999369978904724 0.8174409866333008
vt 0.3191530108451843 0.7110959887504578
vt 0.17269200086593628 0.7377020120620728
vt 0.3192580044269562 0.5243840217590332
vt 0.5000519752502441 0.5026649832725525
vt 0.17269200086593628 0.7377020120620728
vt 0.5000519752502441 0.5026649832725525
vt 0.32060500979423523 0.7377079725265503
vt 0.8273670077323914 0.7377300262451172
vt 0.8261079788208008 0.8461620211601257
vt 0.6736890077590942 0.8461580276489258
vt 0.8273670077323914 0.7377300262451172
vt 0.6736890077590942 0.8461580276489258
vt 0.6794540286064148 0.7377240061759949
vt 0.6794540286064148 0.7377240061759949
vt 0.5000519752502441 0.5026649832725525
vt 0.6808469891548157 0.524399995803833
vt 0.6794540286064148 0.7377240061759949
vt 0.6808469891548157 0.524399995803833
vt 0.8273670077323914 0.7377300262451172
vt 0.6794540286064148 0.7377240061759949
vt 0.6736890077590942 0.8461580276489258
vt 0.500016987323761 0.846153974533081
vt 0.6794540286064148 0.7377240061759949
vt 0.500016987323761 0.846153974533081
vt 0.5000290274620056 0.737716019153595
vt 0.32060500979423523 0.7377079725265503
vt 0.5000519752502441 0.5026649832725525
vt 0.5000290274620056 0.737716019153595
vt 0.32060500979423523 0.7377079725265503
vt 0.3263449966907501 0.8461509943008423
vt 0.17392699420452118 0.8461470007896423
vt 0.32060500979423523 0.7377079725265503
vt 0.17392699420452118 0.8461470007896423
vt 0.17269200086593628 0.7377020120620728
vt 0.6936879754066467 0.34129297733306885
vt 0.6808469891548157 0.524399995803833
vt 0.5000630021095276 0.43283796310424805
vt 0.6936879754066467 0.34129297733306885
vt 0.5000630021095276 0.43283796310424805
vt 0.500074028968811 0.34128403663635254
vt 0.6807420253753662 0.7110959887504578
vt 0.4999369978904724 0.8174409866333008
vt 0.49994799494743347 0.7019640207290649
vn 0.0006780304036266911 0.1287390996639058 -0.9916782666230509
vn -0.003348115419897916 -0.06674461455174052 -0.9977644744885812
vn -0.017694255250852508 -0.06975872780645104 -0.9974069546709323
vn 0.0006780304036266911 0.1287390996639058 -0.9916782666230509
vn -0.017694255250852508 -0.06975872780645104 -0.9974069546709323
vn -0.06588979271325561 0.16429080582478162 -0.984208853007149
vn 0.03573357217852146 0.6502041641995875 -0.7589187418142199
vn -0.05726798297024328 0.6962535580075424 -0.7155077645199649
vn 0.005734916312558234 0.5712198616867862 -0.8207770588591136
vn 0.03573357217852146 0.6502041641995875 -0.7589187418142199
vn 0.005734916312558234 0.5712198616867862 -0.8207770588591136
vn 0.16614304725785267 0.5979401020345555 -0.784132719778215
vn -0.020941871566901662 0.3844744798070345 -0.9228980509202442
vn 0.062257183997184745 0.1797604705657574 -0.9817383644651552
vn 0.0006780304036266911 0.1287390996639058 -0.9916782666230509
vn -0.020941871566901662 0.3844744798070345 -0.9228980509202442
vn -0.05726798297024328 0.6962535580075424 -0.7155077645199649
vn 0.06340418081198801 0.48709810319801594 -0.8710426784701516
vn -0.12517703637202507 0.26030119354377784 -0.9573787120073235
vn 0.005734916312558234 0.5712198616867862 -0.8207770588591136
vn -0.020941871566901662 0.3844744798070345 -0.9228980509202442
vn -0.12517703637202507 0.26030119354377784 -0.9573787120073235
vn -0.020941871566901662 0.3844744798070345 -0.9228980509202442
vn -0.06588979271325561 0.16429080582478162 -0.984208853007149
vn 0.1335810001291311 0.14404993033444768 -0.9805129953117101
vn 0.07599282523081545 0.01429180243723543 -0.9970059352363624
vn 0.07140536549152944 -0.04566967450777338 -0.9964013019910077
vn 0.1335810001291311 0.14404993033444768 -0.9805129953117101
vn 0.07140536549152944 -0.04566967450777338 -0.9964013019910077
vn 0.062257183997184745 0.1797604705657574 -0.9817383644651552
vn 0.062257183997184745 0.1797604705657574 -0.9817383644651552
vn -0.020941871566901662 0.3844744798070345 -0.9228980509202442
vn 0.06340418081198801 0.48709810319801594 -0.8710426784701516
vn 0.062257183997184745 0.1797604705657574 -0.9817383644651552
vn 0.06340418081198801 0.48709810319801594 -0.8710426784701516
vn 0.1335810001291311 0.14404993033444768 -0.9805129953117101
vn 0.062257183997184745 0.1797604705657574 -0.9817383644651552
vn 0.07140536549152944 -0.04566967450777338 -0.9964013019910077
vn -0.003348115419897916 -0.06674461455174052 -0.9977644744885812
vn 0.062257183997184745 0.1797604705657574 -0.9817383644651552
vn -0.003348115419897916 -0.06674461455174052 -0.9977644744885812
vn 0.0006780304036266911 0.1287390996639058 -0.9916782666230509
vn -0.06588979271325561 0.16429080582478162 -0.984208853007149
vn -0.020941871566901662 0.3844744798070345 -0.9228980509202442
vn 0.0006780304036266911 0.1287390996639058 -0.9916782666230509
vn -0.06588979271325561 0.16429080582478162 -0.984208853007149
vn -0.017694255250852508 -0.06975872780645104 -0.9974069546709323
vn -0.11521472638633173 -0.030946082843530013 -0.9928584525401213
vn -0.06588979271325561 0.16429080582478162 -0.984208853007149
vn -0.11521472638633173 -0.030946082843530013 -0.9928584525401213
vn -0.12517703637202507 0.26030119354377784 -0.9573787120073235
vn -0.10383215754229592 0.6323128015342651 -0.7677235205957944
vn 0.06340418081198801 0.48709810319801594 -0.8710426784701516
vn -0.05726798297024328 0.6962535580075424 -0.7155077645199649
vn -0.10383215754229592 0.6323128015342651 -0.7677235205957944
vn -0.05726798297024328 0.6962535580075424 -0.7155077645199649
vn 0.03573357217852146 0.6502041641995875 -0.7589187418142199
vn 0.005734916312558234 0.5712198616867862 -0.8207770588591136
vn -0.05726798297024328 0.6962535580075424 -0.7155077645199649
vn -0.020941871566901662 0.3844744798070345 -0.9228980509202442
f 1/1/1 2/2/2 3/3/3
f 4/4/4 5/5/5 6/6/6
f 7/7/7 8/8/8 9/9/9
f 10/10/10 11/11/11 12/12/12
f 13/13/13 14/14/14 15/15/15
f 16/16/16 17/17/17 18/18/18
f 19/19/19 20/20/20 21/21/21
f 22/22/22 23/23/23 24/24/24
f 25/25/25 26/26/26 27/27/27
f 28/28/28 29/29/29 30/30/30
f 31/31/31 32/32/32 33/33/33
f 34/34/34 35/35/35 36/36/36
f 37/37/37 38/38/38 39/39/39
f 40/40/40 41/41/41 42/42/42
f 43/43/43 44/44/44 45/45/45
f 46/46/46 47/47/47 48/48/48
f 49/49/49 50/50/50 51/51/51
f 52/52/52 53/53/53 54/54/54
f 55/55/55 56/56/56 57/57/57
f 58/58/58 59/59/59 60/60/60
