mtllib ArcadaCompleta.mtl
o D82C_FL
usemtl Esmalte
v -8.931509971618652 -48.78623104095459 -1.7717206333731603
v -9.500909805297852 -48.770033836364746 -1.6277105663870763
v -9.602609634399414 -47.7134313583374 -1.896640524730582
v -8.931509971618652 -48.78623104095459 -1.7717206333731603
v -9.602609634399414 -47.7134313583374 -1.896640524730582
v -8.931429862976074 -47.7134313583374 -2.0130506609534216
v -8.931380271911621 -47.043131828308105 -1.7315405462836215
v -8.931429862976074 -47.7134313583374 -2.0130506609534216
v -9.602609634399414 -47.7134313583374 -1.896640524730582
v -8.931380271911621 -47.043131828308105 -1.7315405462836215
v -9.602609634399414 -47.7134313583374 -1.896640524730582
v -9.730250358581543 -47.043131828308105 -1.5623506163214633
v -9.500909805297852 -48.770033836364746 -1.6277105663870763
v -10.000399589538574 -47.775031089782715 -1.576100573406119
v -9.602609634399414 -47.7134313583374 -1.896640524730582
v -8.362119674682617 -48.770033836364746 -1.6277105663870763
v -7.81564998626709 -47.77513408660889 -1.6442406033133456
v -7.8770599365234375 -48.540831565856934 -1.2447405909155798
v -8.132499694824219 -47.04323101043701 -1.5623506163214633
v -8.260259628295898 -47.713534355163574 -1.896640524730582
v -8.931429862976074 -47.7134313583374 -2.0130506609534216
v -8.132499694824219 -47.04323101043701 -1.5623506163214633
v -8.931429862976074 -47.7134313583374 -2.0130506609534216
v -8.931380271911621 -47.043131828308105 -1.7315405462836215
v -9.730250358581543 -47.043131828308105 -1.5623506163214633
v -9.602609634399414 -47.7134313583374 -1.896640524730582
v -10.000399589538574 -47.775031089782715 -1.576100573406119
v -9.730250358581543 -47.043131828308105 -1.5623506163214633
v -10.000399589538574 -47.775031089782715 -1.576100573406119
v -10.20199966430664 -47.0430326461792 -1.2067905520056674
v -10.000399589538574 -47.775031089782715 -1.576100573406119
v -9.500909805297852 -48.770033836364746 -1.6277105663870763
v -9.985910415649414 -48.524333000183105 -1.2447405909155798
v -8.931429862976074 -47.7134313583374 -2.0130506609534216
v -8.260259628295898 -47.713534355163574 -1.896640524730582
v -8.362119674682617 -48.770033836364746 -1.6277105663870763
v -8.931429862976074 -47.7134313583374 -2.0130506609534216
v -8.362119674682617 -48.770033836364746 -1.6277105663870763
v -8.931509971618652 -48.78623104095459 -1.7717206333731603
v -7.81564998626709 -47.77513408660889 -1.6442406033133456
v -8.260259628295898 -47.713534355163574 -1.896640524730582
v -8.132499694824219 -47.04323101043701 -1.5623506163214633
v -7.81564998626709 -47.77513408660889 -1.6442406033133456
v -8.132499694824219 -47.04323101043701 -1.5623506163214633
v -7.613920211791992 -47.04323101043701 -1.3657905911063144
v -8.260259628295898 -47.713534355163574 -1.896640524730582
v -7.81564998626709 -47.77513408660889 -1.6442406033133456
v -8.362119674682617 -48.770033836364746 -1.6277105663870763
vt 0.500108003616333 0.0004993677139282227
vt 0.6381040215492249 0.0036787986755371094
vt 0.6627529859542847 0.2102469801902771
vt 0.500108003616333 0.0004993677139282227
vt 0.6627529859542847 0.2102469801902771
vt 0.5000879764556885 0.21023797988891602
vt 0.500074028968811 0.34128403663635254
vt 0.5000879764556885 0.21023797988891602
vt 0.6627529859542847 0.2102469801902771
vt 0.500074028968811 0.34128403663635254
vt 0.6627529859542847 0.2102469801902771
vt 0.6936879754066467 0.34129297733306885
vt 0.6381040215492249 0.0036787986755371094
vt 0.7591490149497986 0.19820600748062134
vt 0.6627529859542847 0.2102469801902771
vt 0.9031789898872375 0.0036635994911193848
vt 0.9073119759559631 0.1981779932975769
vt 0.8074510097503662 0.04848891496658325
vt 0.3064599931240082 0.3412749767303467
vt 0.3374229967594147 0.2102299928665161
vt 0.5000879764556885 0.21023797988891602
vt 0.3064599931240082 0.3412749767303467
vt 0.5000879764556885 0.21023797988891602
vt 0.500074028968811 0.34128403663635254
vt 0.6936879754066467 0.34129297733306885
vt 0.6627529859542847 0.2102469801902771
vt 0.7591490149497986 0.19820600748062134
vt 0.6936879754066467 0.34129297733306885
vt 0.7591490149497986 0.19820600748062134
vt 0.8080090284347534 0.34129899740219116
vt 0.7591490149497986 0.19820600748062134
vt 0.6381040215492249 0.0036787986755371094
vt 0.755649983882904 0.05170702934265137
vt 0.5000879764556885 0.21023797988891602
vt 0.3374229967594147 0.2102299928665161
vt 0.36211100220680237 0.0036635994911193848
vt 0.5000879764556885 0.21023797988891602
vt 0.36211100220680237 0.0036635994911193848
vt 0.500108003616333 0.0004993677139282227
vt 0.2296680063009262 0.1981779932975769
vt 0.3374229967594147 0.2102299928665161
vt 0.3064599931240082 0.3412749767303467
vt 0.2296680063009262 0.1981779932975769
vt 0.3064599931240082 0.3412749767303467
vt 0.18077699840068817 0.34126901626586914
vt 0.3374229967594147 0.2102299928665161
vt 0.2296680063009262 0.1981779932975769
vt 0.36211100220680237 0.0036635994911193848
vn -0.061796846446956204 -0.23471082334549168 -0.9700989532896593
vn -0.5005108732760651 -0.27986300095928873 -0.8192469508191604
vn -0.32416417675084763 0.017980590384011313 -0.9458299450117277
vn -0.061796846446956204 -0.23471082334549168 -0.9700989532896593
vn -0.32416417675084763 0.017980590384011313 -0.9458299450117277
vn 0.07738865887531717 0.037722073469916684 -0.9962871276146301
vn -0.04700450459002787 0.39729585058695865 -0.9164859975224015
vn 0.07738865887531717 0.037722073469916684 -0.9962871276146301
vn -0.32416417675084763 0.017980590384011313 -0.9458299450117277
vn -0.04700450459002787 0.39729585058695865 -0.9164859975224015
vn -0.32416417675084763 0.017980590384011313 -0.9458299450117277
vn -0.4419592437570905 0.3193117331806998 -0.8382792159601704
vn -0.5005108732760651 -0.27986300095928873 -0.8192469508191604
vn -0.643592398040116 -0.06035154132804762 -0.7629852663350072
vn -0.32416417675084763 0.017980590384011313 -0.9458299450117277
vn 0.37545712559942085 -0.2837068644187303 -0.8823504756718347
vn 0.5360320177977591 -0.07828434509288565 -0.8405600735277883
vn 0.6770990878007416 -0.3823577345631464 -0.6287601992167937
vn 0.2808136401731401 0.350525617412877 -0.8934626410936449
vn 0.31354778592704075 -0.005752825487074121 -0.9495549962688659
vn 0.07738865887531717 0.037722073469916684 -0.9962871276146301
vn 0.2808136401731401 0.350525617412877 -0.8934626410936449
vn 0.07738865887531717 0.037722073469916684 -0.9962871276146301
vn -0.04700450459002787 0.39729585058695865 -0.9164859975224015
vn -0.4419592437570905 0.3193117331806998 -0.8382792159601704
vn -0.32416417675084763 0.017980590384011313 -0.9458299450117277
vn -0.643592398040116 -0.06035154132804762 -0.7629852663350072
vn -0.4419592437570905 0.3193117331806998 -0.8382792159601704
vn -0.643592398040116 -0.06035154132804762 -0.7629852663350072
vn -0.5856174785156044 0.23075376287625085 -0.777048820715582
vn -0.643592398040116 -0.06035154132804762 -0.7629852663350072
vn -0.5005108732760651 -0.27986300095928873 -0.8192469508191604
vn -0.6807359091392692 -0.30723608870197616 -0.6649846673476343
vn 0.07738865887531717 0.037722073469916684 -0.9962871276146301
vn 0.31354778592704075 -0.005752825487074121 -0.9495549962688659
vn 0.37545712559942085 -0.2837068644187303 -0.8823504756718347
vn 0.07738865887531717 0.037722073469916684 -0.9962871276146301
vn 0.37545712559942085 -0.2837068644187303 -0.8823504756718347
vn -0.061796846446956204 -0.23471082334549168 -0.9700989532896593
vn 0.5360320177977591 -0.07828434509288565 -0.8405600735277883
vn 0.31354778592704075 -0.005752825487074121 -0.9495549962688659
vn 0.2808136401731401 0.350525617412877 -0.8934626410936449
vn 0.5360320177977591 -0.07828434509288565 -0.8405600735277883
vn 0.2808136401731401 0.350525617412877 -0.8934626410936449
vn 0.3431864476017112 0.24987378729689555 -0.9054204286431932
vn 0.31354778592704075 -0.005752825487074121 -0.9495549962688659
vn 0.5360320177977591 -0.07828434509288565 -0.8405600735277883
vn 0.37545712559942085 -0.2837068644187303 -0.8823504756718347
f 1/1/1 2/2/2 3/3/3
f 4/4/4 5/5/5 6/6/6
f 7/7/7 8/8/8 9/9/9
f 10/10/10 11/11/11 12/12/12
f 13/13/13 14/14/14 15/15/15
f 16/16/16 17/17/17 18/18/18
f 19/19/19 20/20/20 21/21/21
f 22/22/22 23/23/23 24/24/24
f 25/25/25 26/26/26 27/27/27
f 28/28/28 29/29/29 30/30/30
f 31/31/31 32/32/32 33/33/33
f 34/34/34 35/35/35 36/36/36
f 37/37/37 38/38/38 39/39/39
f 40/40/40 41/41/41 42/42/42
f 43/43/43 44/44/44 45/45/45
f 46/46/46 47/47/47 48/48/48
