mtllib ArcadaCompleta.mtl
o D82C_V
usemtl Esmalte
v -8.931509971618652 -48.78623104095459 1.7422294761086512
v -8.931429862976074 -47.7134313583374 1.9835493708993008
v -9.602609634399414 -47.7134313583374 1.8671394730950406
v -8.931509971618652 -48.78623104095459 1.7422294761086512
v -9.602609634399414 -47.7134313583374 1.8671394730950406
v -9.500909805297852 -48.770033836364746 1.598209395542245
v -7.623219966888428 -47.04323101043701 1.305999412670236
v -8.055830001831055 -47.04323101043701 1.7011394645119717
v -8.260259628295898 -47.713534355163574 1.8671394730950406
v -7.623219966888428 -47.04323101043701 1.305999412670236
v -8.260259628295898 -47.713534355163574 1.8671394730950406
v -7.832580089569092 -47.68253231048584 1.4329993869210294
v -10.348299980163574 -47.0430326461792 1.305999412670236
v -10.178999900817871 -47.68233394622803 1.3194394256020596
v -9.602609634399414 -47.7134313583374 1.8671394730950406
v -10.348299980163574 -47.0430326461792 1.305999412670236
v -9.602609634399414 -47.7134313583374 1.8671394730950406
v -9.806940078735352 -47.043131828308105 1.7011394645119717
v -8.931380271911621 -47.043131828308105 1.87032939447413
v -9.806940078735352 -47.043131828308105 1.7011394645119717
v -9.602609634399414 -47.7134313583374 1.8671394730950406
v -8.931380271911621 -47.043131828308105 1.87032939447413
v -9.602609634399414 -47.7134313583374 1.8671394730950406
v -8.931429862976074 -47.7134313583374 1.9835493708993008
v -8.362119674682617 -48.770033836364746 1.598209395542245
v -7.832580089569092 -47.68253231048584 1.4329993869210294
v -8.260259628295898 -47.713534355163574 1.8671394730950406
v -8.362119674682617 -48.770033836364746 1.598209395542245
v -8.260259628295898 -47.713534355163574 1.8671394730950406
v -8.931429862976074 -47.7134313583374 1.9835493708993008
v -8.362119674682617 -48.770033836364746 1.598209395542245
v -8.931429862976074 -47.7134313583374 1.9835493708993008
v -8.931509971618652 -48.78623104095459 1.7422294761086512
v -8.931429862976074 -47.7134313583374 1.9835493708993008
v -8.260259628295898 -47.713534355163574 1.8671394730950406
v -8.055830001831055 -47.04323101043701 1.7011394645119717
v -8.931429862976074 -47.7134313583374 1.9835493708993008
v -8.055830001831055 -47.04323101043701 1.7011394645119717
v -8.931380271911621 -47.043131828308105 1.87032939447413
v -9.602609634399414 -47.7134313583374 1.8671394730950406
v -10.178999900817871 -47.68233394622803 1.3194394256020596
v -9.500909805297852 -48.770033836364746 1.598209395542245
v -9.985910415649414 -48.524333000183105 1.2152394200707484
v -9.500909805297852 -48.770033836364746 1.598209395542245
v -10.178999900817871 -47.68233394622803 1.3194394256020596
v -7.8770599365234375 -48.540831565856934 1.2152394200707484
v -7.832580089569092 -47.68253231048584 1.4329993869210294
v -8.362119674682617 -48.770033836364746 1.598209395542245
vt 0.499891996383667 0.0004993677139282227
vt 0.49991199374198914 0.21023797988891602
vt 0.33724600076675415 0.2102469801902771
vt 0.499891996383667 0.0004993677139282227
vt 0.33724600076675415 0.2102469801902771
vt 0.36189600825309753 0.0036787986755371094
vt 0.8169670104980469 0.3412669897079468
vt 0.7121220231056213 0.3412749767303467
vt 0.6625769734382629 0.2102299928665161
vt 0.8169670104980469 0.3412669897079468
vt 0.6625769734382629 0.2102299928665161
vt 0.7662280201911926 0.21628403663635254
vt 0.1565150022506714 0.34130001068115234
vt 0.19756199419498444 0.2163119912147522
vt 0.33724600076675415 0.2102469801902771
vt 0.1565150022506714 0.34130001068115234
vt 0.33724600076675415 0.2102469801902771
vt 0.2877269983291626 0.34129297733306885
vt 0.49992600083351135 0.34128403663635254
vt 0.2877269983291626 0.34129297733306885
vt 0.33724600076675415 0.2102469801902771
vt 0.49992600083351135 0.34128403663635254
vt 0.33724600076675415 0.2102469801902771
vt 0.49991199374198914 0.21023797988891602
vt 0.09682050347328186 0.0036635994911193848
vt 0.1381160020828247 0.21628403663635254
vt 0.029597999528050423 0.2102299928665161
vt 0.63788902759552 0.0036635994911193848
vt 0.6625769734382629 0.2102299928665161
vt 0.49991199374198914 0.21023797988891602
vt 0.63788902759552 0.0036635994911193848
vt 0.49991199374198914 0.21023797988891602
vt 0.499891996383667 0.0004993677139282227
vt 0.49991199374198914 0.21023797988891602
vt 0.6625769734382629 0.2102299928665161
vt 0.7121220231056213 0.3412749767303467
vt 0.49991199374198914 0.21023797988891602
vt 0.7121220231056213 0.3412749767303467
vt 0.49992600083351135 0.34128403663635254
vt 0.33724600076675415 0.2102469801902771
vt 0.19756199419498444 0.2163119912147522
vt 0.36189600825309753 0.0036787986755371094
vt 0.24435000121593475 0.05170702934265137
vt 0.36189600825309753 0.0036787986755371094
vt 0.19756199419498444 0.2163119912147522
vt 0.7554489970207214 0.04848891496658325
vt 0.7662280201911926 0.21628403663635254
vt 0.63788902759552 0.0036635994911193848
vn -0.06179688668011721 -0.2347054411971068 0.9701002528961202
vn 0.07615565472893 -0.06460842459899949 0.9950005365443998
vn -0.4110469538893257 -0.10543901521511488 0.905496005385321
vn -0.06179688668011721 -0.2347054411971068 0.9701002528961202
vn -0.4110469538893257 -0.10543901521511488 0.905496005385321
vn -0.5528209089108421 -0.25470715206758165 0.7934187477975373
vn 0.6939113253054809 -0.058687641856166546 0.7176648474783709
vn 0.3226612526363882 0.12569950920479417 0.9381307741635975
vn 0.48310044355094767 -0.1239369212227819 0.8667488684726942
vn 0.6939113253054809 -0.058687641856166546 0.7176648474783709
vn 0.48310044355094767 -0.1239369212227819 0.8667488684726942
vn 0.6924663318065293 -0.19704014232538367 0.694021297675224
vn -0.6440216021635706 -0.07948697756318439 0.7608666087722192
vn -0.6775255018239424 -0.22156454017733115 0.7013332652271834
vn -0.4110469538893257 -0.10543901521511488 0.905496005385321
vn -0.6440216021635706 -0.07948697756318439 0.7608666087722192
vn -0.4110469538893257 -0.10543901521511488 0.905496005385321
vn -0.3674863546072952 0.11648586294721765 0.9227051657549573
vn -0.04726998445644601 0.17321629593844812 0.9837487806299183
vn -0.3674863546072952 0.11648586294721765 0.9227051657549573
vn -0.4110469538893257 -0.10543901521511488 0.905496005385321
vn -0.04726998445644601 0.17321629593844812 0.9837487806299183
vn -0.4110469538893257 -0.10543901521511488 0.905496005385321
vn 0.07615565472893 -0.06460842459899949 0.9950005365443998
vn 0.44639668908096786 -0.2422798902933061 0.8614118937749891
vn 0.6924663318065293 -0.19704014232538367 0.694021297675224
vn 0.48310044355094767 -0.1239369212227819 0.8667488684726942
vn 0.44639668908096786 -0.2422798902933061 0.8614118937749891
vn 0.48310044355094767 -0.1239369212227819 0.8667488684726942
vn 0.07615565472893 -0.06460842459899949 0.9950005365443998
vn 0.44639668908096786 -0.2422798902933061 0.8614118937749891
vn 0.07615565472893 -0.06460842459899949 0.9950005365443998
vn -0.06179688668011721 -0.2347054411971068 0.9701002528961202
vn 0.07615565472893 -0.06460842459899949 0.9950005365443998
vn 0.48310044355094767 -0.1239369212227819 0.8667488684726942
vn 0.3226612526363882 0.12569950920479417 0.9381307741635975
vn 0.07615565472893 -0.06460842459899949 0.9950005365443998
vn 0.3226612526363882 0.12569950920479417 0.9381307741635975
vn -0.04726998445644601 0.17321629593844812 0.9837487806299183
vn -0.4110469538893257 -0.10543901521511488 0.905496005385321
vn -0.6775255018239424 -0.22156454017733115 0.7013332652271834
vn -0.5528209089108421 -0.25470715206758165 0.7934187477975373
vn -0.6737092189612083 -0.24095215090317493 0.6986114436951434
vn -0.5528209089108421 -0.25470715206758165 0.7934187477975373
vn -0.6775255018239424 -0.22156454017733115 0.7013332652271834
vn 0.6658383915638266 -0.21571429629998698 0.7142314601664489
vn 0.6924663318065293 -0.19704014232538367 0.694021297675224
vn 0.44639668908096786 -0.2422798902933061 0.8614118937749891
f 1/1/1 2/2/2 3/3/3
f 4/4/4 5/5/5 6/6/6
f 7/7/7 8/8/8 9/9/9
f 10/10/10 11/11/11 12/12/12
f 13/13/13 14/14/14 15/15/15
f 16/16/16 17/17/17 18/18/18
f 19/19/19 20/20/20 21/21/21
f 22/22/22 23/23/23 24/24/24
f 25/25/25 26/26/26 27/27/27
f 28/28/28 29/29/29 30/30/30
f 31/31/31 32/32/32 33/33/33
f 34/34/34 35/35/35 36/36/36
f 37/37/37 38/38/38 39/39/39
f 40/40/40 41/41/41 42/42/42
f 43/43/43 44/44/44 45/45/45
f 46/46/46 47/47/47 48/48/48
