mtllib ArcadaCompleta.mtl
o D83C_FL
usemtl Esmalte
v -15.208800315856934 -49.437933921813965 -2.007890567645927
v -15.951199531555176 -49.42153072357178 -1.842940554485221
v -16.265300750732422 -48.225234031677246 -2.2007306669806432
v -15.208800315856934 -49.437933921813965 -2.007890567645927
v -16.265300750732422 -48.225234031677246 -2.2007306669806432
v -15.208800315856934 -48.225234031677246 -2.415050611362357
v -15.208800315856934 -47.187533378601074 -2.074460611209769
v -14.662500381469727 -47.187533378601074 -2.0833605383490514
v -15.208800315856934 -48.225234031677246 -2.415050611362357
v -14.466300010681152 -49.42153072357178 -1.842940554485221
v -14.148500442504883 -48.225234031677246 -2.2007306669806432
v -13.545499801635742 -48.00573253631592 -1.632410631046195
v -14.466300010681152 -49.42153072357178 -1.842940554485221
v -13.545499801635742 -48.00573253631592 -1.632410631046195
v -13.833900451660156 -49.20693111419678 -1.4042805288886024
v -16.200000762939453 -47.187533378601074 -1.9821805809592197
v -15.752799987792969 -47.187533378601074 -2.0833605383490514
v -15.208800315856934 -48.225234031677246 -2.415050611362357
v -16.200000762939453 -47.187533378601074 -1.9821805809592197
v -15.208800315856934 -48.225234031677246 -2.415050611362357
v -16.265300750732422 -48.225234031677246 -2.2007306669806432
v -16.872100830078125 -48.00573253631592 -1.632410631046195
v -16.265300750732422 -48.225234031677246 -2.2007306669806432
v -15.951199531555176 -49.42153072357178 -1.842940554485221
v -16.872100830078125 -48.00573253631592 -1.632410631046195
v -15.951199531555176 -49.42153072357178 -1.842940554485221
v -16.58370018005371 -49.20693111419678 -1.4042805288886024
v -15.208800315856934 -48.225234031677246 -2.415050611362357
v -14.148500442504883 -48.225234031677246 -2.2007306669806432
v -14.466300010681152 -49.42153072357178 -1.842940554485221
v -15.208800315856934 -48.225234031677246 -2.415050611362357
v -14.466300010681152 -49.42153072357178 -1.842940554485221
v -15.208800315856934 -49.437933921813965 -2.007890567645927
v -15.208800315856934 -48.225234031677246 -2.415050611362357
v -15.752799987792969 -47.187533378601074 -2.0833605383490514
v -15.208800315856934 -47.187533378601074 -2.074460611209769
v -14.148500442504883 -48.225234031677246 -2.2007306669806432
v -15.208800315856934 -48.225234031677246 -2.415050611362357
v -14.662500381469727 -47.187533378601074 -2.0833605383490514
v -14.148500442504883 -48.225234031677246 -2.2007306669806432
v -14.662500381469727 -47.187533378601074 -2.0833605383490514
v -14.217599868774414 -47.187533378601074 -1.9821805809592197
vt 7.006492321624085e-45 0
vt 8.407790785948902e-45 0
vt 1.2611686178923354e-44 0
vt 7.006492321624085e-45 0
vt 1.2611686178923354e-44 0
vt 1.1210387714598537e-44 0
vt 7.006492321624085e-45 0
vt 1.2611686178923354e-44 0
vt 1.1210387714598537e-44 0
vt 8.407790785948902e-45 0
vt 1.2611686178923354e-44 0
vt 1.2611686178923354e-44 0
vt 8.407790785948902e-45 0
vt 1.2611686178923354e-44 0
vt 7.006492321624085e-45 0
vt 9.80908925027372e-45 0
vt 1.8216880036222622e-44 0
vt 1.1210387714598537e-44 0
vt 9.80908925027372e-45 0
vt 1.1210387714598537e-44 0
vt 1.2611686178923354e-44 0
vt 1.1210387714598537e-44 0
vt 1.2611686178923354e-44 0
vt 8.407790785948902e-45 0
vt 1.1210387714598537e-44 0
vt 8.407790785948902e-45 0
vt 7.006492321624085e-45 0
vt 1.1210387714598537e-44 0
vt 1.2611686178923354e-44 0
vt 8.407790785948902e-45 0
vt 1.1210387714598537e-44 0
vt 8.407790785948902e-45 0
vt 7.006492321624085e-45 0
vt 1.1210387714598537e-44 0
vt 1.8216880036222622e-44 0
vt 7.006492321624085e-45 0
vt 1.2611686178923354e-44 0
vt 1.1210387714598537e-44 0
vt 1.2611686178923354e-44 0
vt 1.2611686178923354e-44 0
vt 1.2611686178923354e-44 0
vt 9.80908925027372e-45 0
vn -0.07889868312434917 -0.3230892715135732 -0.9430738679626705
vn -0.5323997057713686 -0.3406878275765588 -0.7749079670746232
vn -0.33810091264469705 -0.21034686056281848 -0.9173014614183219
vn -0.07889868312434917 -0.3230892715135732 -0.9430738679626705
vn -0.33810091264469705 -0.21034686056281848 -0.9173014614183219
vn 0.013551567718653219 -0.03254192107860067 -0.9993784960588659
vn 9.385280546300996e-9 0.3118484764610464 -0.9501318475500777
vn 0.14360186880387651 0.23691358891517972 -0.9608592272874125
vn 0.013551567718653219 -0.03254192107860067 -0.9993784960588659
vn 0.42823980047040194 -0.3375923523879745 -0.8382374824011535
vn 0.3564239195337445 -0.1341045107886826 -0.924650187784727
vn 0.6633276707747542 -0.3316609147598849 -0.6708184842453104
vn 0.42823980047040194 -0.3375923523879745 -0.8382374824011535
vn 0.6633276707747542 -0.3316609147598849 -0.6708184842453104
vn 0.6098081545751485 -0.2867350316121886 -0.738861987288566
vn -0.200875175139842 0.20749494090976206 -0.957389687384083
vn -0.08950109322424571 0.2603665457221617 -0.9613525972193421
vn 0.013551567718653219 -0.03254192107860067 -0.9993784960588659
vn -0.200875175139842 0.20749494090976206 -0.957389687384083
vn 0.013551567718653219 -0.03254192107860067 -0.9993784960588659
vn -0.33810091264469705 -0.21034686056281848 -0.9173014614183219
vn -0.6621948257189859 -0.33073746042183855 -0.6723918091891921
vn -0.33810091264469705 -0.21034686056281848 -0.9173014614183219
vn -0.5323997057713686 -0.3406878275765588 -0.7749079670746232
vn -0.6621948257189859 -0.33073746042183855 -0.6723918091891921
vn -0.5323997057713686 -0.3406878275765588 -0.7749079670746232
vn -0.6097460023972935 -0.28673018288058055 -0.7389151607497227
vn 0.013551567718653219 -0.03254192107860067 -0.9993784960588659
vn 0.3564239195337445 -0.1341045107886826 -0.924650187784727
vn 0.42823980047040194 -0.3375923523879745 -0.8382374824011535
vn 0.013551567718653219 -0.03254192107860067 -0.9993784960588659
vn 0.42823980047040194 -0.3375923523879745 -0.8382374824011535
vn -0.07889868312434917 -0.3230892715135732 -0.9430738679626705
vn 0.013551567718653219 -0.03254192107860067 -0.9993784960588659
vn -0.08950109322424571 0.2603665457221617 -0.9613525972193421
vn 9.385280546300996e-9 0.3118484764610464 -0.9501318475500777
vn 0.3564239195337445 -0.1341045107886826 -0.924650187784727
vn 0.013551567718653219 -0.03254192107860067 -0.9993784960588659
vn 0.14360186880387651 0.23691358891517972 -0.9608592272874125
vn 0.3564239195337445 -0.1341045107886826 -0.924650187784727
vn 0.14360186880387651 0.23691358891517972 -0.9608592272874125
vn 0.21657350335606482 0.21498535252092782 -0.9523010111543162
f 1/1/1 2/2/2 3/3/3
f 4/4/4 5/5/5 6/6/6
f 7/7/7 8/8/8 9/9/9
f 10/10/10 11/11/11 12/12/12
f 13/13/13 14/14/14 15/15/15
f 16/16/16 17/17/17 18/18/18
f 19/19/19 20/20/20 21/21/21
f 22/22/22 23/23/23 24/24/24
f 25/25/25 26/26/26 27/27/27
f 28/28/28 29/29/29 30/30/30
f 31/31/31 32/32/32 33/33/33
f 34/34/34 35/35/35 36/36/36
f 37/37/37 38/38/38 39/39/39
f 40/40/40 41/41/41 42/42/42
