mtllib ArcadaCompleta.mtl
o D84C_CMV
usemtl Esmalte
v -21.22130012512207 -44.28893184661865 2.074869527950388
v -21.77989959716797 -44.177130699157715 2.3475195313836155
v -21.92569923400879 -45.19613170623779 2.9594193841363006
v -21.22130012512207 -44.28893184661865 2.074869527950388
v -21.92569923400879 -45.19613170623779 2.9594193841363006
v -21.080699920654297 -45.188632011413574 2.452549352779489
v -21.087600708007812 -46.66883373260498 2.8179594422722865
v -21.080699920654297 -45.188632011413574 2.452549352779489
v -21.92569923400879 -45.19613170623779 2.9594193841363006
v -21.087600708007812 -46.66883373260498 2.8179594422722865
v -21.92569923400879 -45.19613170623779 2.9594193841363006
v -21.906299591064453 -46.66883373260498 3.2539593125725794
v -21.087600708007812 -46.66883373260498 2.8179594422722865
v -21.906299591064453 -46.66883373260498 3.2539593125725794
v -21.86240005493164 -48.00093364715576 3.182779445781808
v -21.087600708007812 -46.66883373260498 2.8179594422722865
v -21.86240005493164 -48.00093364715576 3.182779445781808
v -21.129100799560547 -48.00093364715576 2.624089374675851
v -20.494300842285156 -44.85173320770264 0.8771244431878145
v -20.6028995513916 -44.622931480407715 1.4913494731331882
v -20.422500610351562 -45.4280309677124 1.7572894240761812
v -20.494300842285156 -44.85173320770264 0.8771244431878145
v -20.422500610351562 -45.4280309677124 1.7572894240761812
v -20.323299407958984 -45.60873317718506 1.0519694234276826
v -21.080699920654297 -45.188632011413574 2.452549352779489
v -20.422500610351562 -45.4280309677124 1.7572894240761812
v -20.6028995513916 -44.622931480407715 1.4913494731331882
v -21.080699920654297 -45.188632011413574 2.452549352779489
v -20.6028995513916 -44.622931480407715 1.4913494731331882
v -21.22130012512207 -44.28893184661865 2.074869527950388
v -20.716999053955078 -49.00963115692139 1.083419456615548
v -20.66900062561035 -48.00093364715576 1.7188294078255701
v -21.129100799560547 -48.00093364715576 2.624089374675851
v -20.716999053955078 -49.00963115692139 1.083419456615548
v -21.129100799560547 -48.00093364715576 2.624089374675851
v -21.27519989013672 -49.17913341522217 2.063309326305489
v -20.51569938659668 -46.893431663513184 0.9916144157792142
v -20.552799224853516 -46.753432273864746 1.823449387683969
v -20.66900062561035 -48.00093364715576 1.7188294078255701
v -20.51569938659668 -46.893431663513184 0.9916144157792142
v -20.66900062561035 -48.00093364715576 1.7188294078255701
v -20.599300384521484 -48.00093364715576 0.9721744204903651
v -20.323299407958984 -45.60873317718506 1.0519694234276826
v -20.422500610351562 -45.4280309677124 1.7572894240761812
v -20.552799224853516 -46.753432273864746 1.823449387683969
v -20.323299407958984 -45.60873317718506 1.0519694234276826
v -20.552799224853516 -46.753432273864746 1.823449387683969
v -20.51569938659668 -46.893431663513184 0.9916144157792142
v -21.475099563598633 -43.90893077850342 1.4574594642067966
v -21.95989990234375 -43.806532859802246 1.6808194066430149
v -21.77989959716797 -44.177130699157715 2.3475195313836155
v -21.475099563598633 -43.90893077850342 1.4574594642067966
v -21.77989959716797 -44.177130699157715 2.3475195313836155
v -21.22130012512207 -44.28893184661865 2.074869527950388
v -21.475099563598633 -43.90893077850342 1.4574594642067966
v -21.609899520874023 -44.10683345794678 0.9491254235650118
v -21.95989990234375 -43.806532859802246 1.6808194066430149
v -21.475099563598633 -43.90893077850342 1.4574594642067966
v -21.319799423217773 -44.29113292694092 1.0010293866540012
v -21.609899520874023 -44.10683345794678 0.9491254235650118
v -20.862699508666992 -44.64763164520264 0.7681734110261018
v -20.998300552368164 -44.263930320739746 1.1352094556237278
v -20.6028995513916 -44.622931480407715 1.4913494731331882
v -20.862699508666992 -44.64763164520264 0.7681734110261018
v -20.6028995513916 -44.622931480407715 1.4913494731331882
v -20.494300842285156 -44.85173320770264 0.8771244431878145
v -20.862699508666992 -44.64763164520264 0.7681734110261018
v -21.22260093688965 -44.49463176727295 0.7201883937264498
v -20.998300552368164 -44.263930320739746 1.1352094556237278
v -22.627599716186523 -44.334933280944824 2.490649356975656
v -22.66790008544922 -45.203532218933105 3.019939317836862
v -21.92569923400879 -45.19613170623779 2.9594193841363006
v -22.627599716186523 -44.334933280944824 2.490649356975656
v -21.92569923400879 -45.19613170623779 2.9594193841363006
v -21.77989959716797 -44.177130699157715 2.3475195313836155
v -22.66790008544922 -45.203532218933105 3.019939317836862
v -22.612699508666992 -46.66883373260498 3.362739458217721
v -21.906299591064453 -46.66883373260498 3.2539593125725794
v -22.66790008544922 -45.203532218933105 3.019939317836862
v -21.906299591064453 -46.66883373260498 3.2539593125725794
v -21.92569923400879 -45.19613170623779 2.9594193841363006
v -21.129100799560547 -48.00093364715576 2.624089374675851
v -20.66900062561035 -48.00093364715576 1.7188294078255701
v -20.552799224853516 -46.753432273864746 1.823449387683969
v -21.129100799560547 -48.00093364715576 2.624089374675851
v -20.552799224853516 -46.753432273864746 1.823449387683969
v -21.087600708007812 -46.66883373260498 2.8179594422722865
v -20.599300384521484 -48.00093364715576 0.9721744204903651
v -20.66900062561035 -48.00093364715576 1.7188294078255701
v -20.716999053955078 -49.00963115692139 1.083419456615548
v -22.51729965209961 -48.00093364715576 3.332299366130929
v -21.86240005493164 -48.00093364715576 3.182779445781808
v -21.906299591064453 -46.66883373260498 3.2539593125725794
v -22.51729965209961 -48.00093364715576 3.332299366130929
v -21.906299591064453 -46.66883373260498 3.2539593125725794
v -22.612699508666992 -46.66883373260498 3.362739458217721
v -20.6028995513916 -44.622931480407715 1.4913494731331882
v -20.998300552368164 -44.263930320739746 1.1352094556237278
v -21.475099563598633 -43.90893077850342 1.4574594642067966
v -20.6028995513916 -44.622931480407715 1.4913494731331882
v -21.475099563598633 -43.90893077850342 1.4574594642067966
v -21.22130012512207 -44.28893184661865 2.074869527950388
v -20.552799224853516 -46.753432273864746 1.823449387683969
v -20.422500610351562 -45.4280309677124 1.7572894240761812
v -21.080699920654297 -45.188632011413574 2.452549352779489
v -20.552799224853516 -46.753432273864746 1.823449387683969
v -21.080699920654297 -45.188632011413574 2.452549352779489
v -21.087600708007812 -46.66883373260498 2.8179594422722865
v -20.998300552368164 -44.263930320739746 1.1352094556237278
v -21.319799423217773 -44.29113292694092 1.0010293866540012
v -21.475099563598633 -43.90893077850342 1.4574594642067966
v -21.95989990234375 -43.806532859802246 1.6808194066430149
v -21.609899520874023 -44.10683345794678 0.9491254235650118
v -22.49690055847168 -43.966532707214355 0.844519391193491
v -21.95989990234375 -43.806532859802246 1.6808194066430149
v -22.759199142456055 -43.925230979919434 1.5484894658471164
v -22.743999481201172 -43.89272975921631 1.8914593602562961
v -21.77989959716797 -44.177130699157715 2.3475195313836155
v -21.95989990234375 -43.806532859802246 1.6808194066430149
v -22.743999481201172 -43.89272975921631 1.8914593602562961
v -21.77989959716797 -44.177130699157715 2.3475195313836155
v -22.743999481201172 -43.89272975921631 1.8914593602562961
v -22.627599716186523 -44.334933280944824 2.490649356975656
v -21.22260093688965 -44.49463176727295 0.7201883937264498
v -21.319799423217773 -44.29113292694092 1.0010293866540012
v -20.998300552368164 -44.263930320739746 1.1352094556237278
v -21.22260093688965 -44.49463176727295 0.7201883937264498
v -21.424400329589844 -44.67873287200928 0.754440441265207
v -21.319799423217773 -44.29113292694092 1.0010293866540012
v -22.49690055847168 -43.966532707214355 0.844519391193491
v -22.91080093383789 -43.997931480407715 1.226179375782114
v -21.95989990234375 -43.806532859802246 1.6808194066430149
v -22.49690055847168 -43.966532707214355 0.844519391193491
v -22.648799896240234 -44.211432456970215 0.5645344401742037
v -22.953699111938477 -44.19433116912842 0.7088824058915194
v -22.49690055847168 -43.966532707214355 0.844519391193491
v -22.953699111938477 -44.19433116912842 0.7088824058915194
v -22.91080093383789 -43.997931480407715 1.226179375782114
v -21.609899520874023 -44.10683345794678 0.9491254235650118
v -22.648799896240234 -44.211432456970215 0.5645344401742037
v -22.49690055847168 -43.966532707214355 0.844519391193491
v -21.319799423217773 -44.29113292694092 1.0010293866540012
v -21.424400329589844 -44.67873287200928 0.754440441265207
v -21.749300003051758 -44.32523250579834 0.6810304070855197
v -21.319799423217773 -44.29113292694092 1.0010293866540012
v -21.749300003051758 -44.32523250579834 0.6810304070855197
v -21.609899520874023 -44.10683345794678 0.9491254235650118
v -22.91080093383789 -43.997931480407715 1.226179375782114
v -22.759199142456055 -43.925230979919434 1.5484894658471164
v -21.95989990234375 -43.806532859802246 1.6808194066430149
v -21.749300003051758 -44.32523250579834 0.6810304070855197
v -22.648799896240234 -44.211432456970215 0.5645344401742037
v -21.609899520874023 -44.10683345794678 0.9491254235650118
vn 0.5729739719946567 0.5452862433289007 0.611852711240966
vn 0.19145323674069525 0.7194684870878739 0.6676157234734641
vn 0.3294998513857001 0.32691771871947817 0.885750897896273
vn 0.5729739719946567 0.5452862433289007 0.611852711240966
vn 0.3294998513857001 0.32691771871947817 0.885750897896273
vn 0.7065537077552105 0.20888660876738394 0.6761273864702023
vn 0.6747259158067258 0.04810612406617562 0.736498974450138
vn 0.7065537077552105 0.20888660876738394 0.6761273864702023
vn 0.3294998513857001 0.32691771871947817 0.885750897896273
vn 0.6747259158067258 0.04810612406617562 0.736498974450138
vn 0.3294998513857001 0.32691771871947817 0.885750897896273
vn 0.2778447705738331 0.09610644917137248 0.9558063788720205
vn 0.6747259158067258 0.04810612406617562 0.736498974450138
vn 0.2778447705738331 0.09610644917137248 0.9558063788720205
vn 0.45903316850730586 -0.07364546888517111 0.8853614488573731
vn 0.6747259158067258 0.04810612406617562 0.736498974450138
vn 0.45903316850730586 -0.07364546888517111 0.8853614488573731
vn 0.8300836976125481 -0.19501351600119704 0.5224277782954605
vn 0.9264384353979902 0.3758837816159575 0.020572023123925098
vn 0.7886536480046913 0.5443090632645211 0.28592493269561475
vn 0.9059862796777245 0.11129326012504885 0.4084148274566608
vn 0.9264384353979902 0.3758837816159575 0.020572023123925098
vn 0.9059862796777245 0.11129326012504885 0.4084148274566608
vn 0.9934906599875398 -0.04235301267546318 0.10574748618683512
vn 0.7065537077552105 0.20888660876738394 0.6761273864702023
vn 0.9059862796777245 0.11129326012504885 0.4084148274566608
vn 0.7886536480046913 0.5443090632645211 0.28592493269561475
vn 0.7065537077552105 0.20888660876738394 0.6761273864702023
vn 0.7886536480046913 0.5443090632645211 0.28592493269561475
vn 0.5729739719946567 0.5452862433289007 0.611852711240966
vn 0.894524651347234 -0.26754934117964 0.3581103156381428
vn 0.9547139593097053 -0.15075709220842998 0.2565025439406895
vn 0.8300836976125481 -0.19501351600119704 0.5224277782954605
vn 0.894524651347234 -0.26754934117964 0.3581103156381428
vn 0.8300836976125481 -0.19501351600119704 0.5224277782954605
vn 0.8482406981385998 -0.30967547211497093 0.42963801041308103
vn 0.9911102451564179 -0.11122908217652942 0.07299707681922704
vn 0.9221857387696737 -0.05888180188320319 0.3822386644713205
vn 0.9547139593097053 -0.15075709220842998 0.2565025439406895
vn 0.9911102451564179 -0.11122908217652942 0.07299707681922704
vn 0.9547139593097053 -0.15075709220842998 0.2565025439406895
vn 0.9916026685738533 -0.09030871380629976 0.09256610550230814
vn 0.9934906599875398 -0.04235301267546318 0.10574748618683512
vn 0.9059862796777245 0.11129326012504885 0.4084148274566608
vn 0.9221857387696737 -0.05888180188320319 0.3822386644713205
vn 0.9934906599875398 -0.04235301267546318 0.10574748618683512
vn 0.9221857387696737 -0.05888180188320319 0.3822386644713205
vn 0.9911102451564179 -0.11122908217652942 0.07299707681922704
vn 0.4616521632882266 0.8831201264532946 0.08352318471189511
vn 0.05461127674100909 0.9984667880002771 0.009037793598382025
vn 0.19145323674069525 0.7194684870878739 0.6676157234734641
vn 0.4616521632882266 0.8831201264532946 0.08352318471189511
vn 0.19145323674069525 0.7194684870878739 0.6676157234734641
vn 0.5729739719946567 0.5452862433289007 0.611852711240966
vn 0.4616521632882266 0.8831201264532946 0.08352318471189511
vn 0.22097222412751016 0.8428743473343793 -0.4906466251486764
vn 0.05461127674100909 0.9984667880002771 0.009037793598382025
vn 0.4616521632882266 0.8831201264532946 0.08352318471189511
vn 0.31444804922993397 0.682015160253505 -0.6602861088345529
vn 0.22097222412751016 0.8428743473343793 -0.4906466251486764
vn 0.6126914575214077 0.7081527657735363 -0.35089719036718436
vn 0.5493776233224618 0.7683329625601308 -0.3284032363362698
vn 0.7886536480046913 0.5443090632645211 0.28592493269561475
vn 0.6126914575214077 0.7081527657735363 -0.35089719036718436
vn 0.7886536480046913 0.5443090632645211 0.28592493269561475
vn 0.9264384353979902 0.3758837816159575 0.020572023123925098
vn 0.6126914575214077 0.7081527657735363 -0.35089719036718436
vn 0.09238153396954092 0.7670910087452639 -0.6348519799792768
vn 0.5493776233224618 0.7683329625601308 -0.3284032363362698
vn 0.028357683550369092 0.6008559039026439 0.79885419478713
vn 0.10111470105520556 0.2942120312108765 0.9503762928026386
vn 0.3294998513857001 0.32691771871947817 0.885750897896273
vn 0.028357683550369092 0.6008559039026439 0.79885419478713
vn 0.3294998513857001 0.32691771871947817 0.885750897896273
vn 0.19145323674069525 0.7194684870878739 0.6676157234734641
vn 0.10111470105520556 0.2942120312108765 0.9503762928026386
vn 0.15113986786753955 0.11772921077364798 0.9814767308864724
vn 0.2778447705738331 0.09610644917137248 0.9558063788720205
vn 0.10111470105520556 0.2942120312108765 0.9503762928026386
vn 0.2778447705738331 0.09610644917137248 0.9558063788720205
vn 0.3294998513857001 0.32691771871947817 0.885750897896273
vn 0.8300836976125481 -0.19501351600119704 0.5224277782954605
vn 0.9547139593097053 -0.15075709220842998 0.2565025439406895
vn 0.9221857387696737 -0.05888180188320319 0.3822386644713205
vn 0.8300836976125481 -0.19501351600119704 0.5224277782954605
vn 0.9221857387696737 -0.05888180188320319 0.3822386644713205
vn 0.6747259158067258 0.04810612406617562 0.736498974450138
vn 0.9916026685738533 -0.09030871380629976 0.09256610550230814
vn 0.9547139593097053 -0.15075709220842998 0.2565025439406895
vn 0.894524651347234 -0.26754934117964 0.3581103156381428
vn 0.18634744798664513 -0.02771644751920604 0.9820928811297736
vn 0.45903316850730586 -0.07364546888517111 0.8853614488573731
vn 0.2778447705738331 0.09610644917137248 0.9558063788720205
vn 0.18634744798664513 -0.02771644751920604 0.9820928811297736
vn 0.2778447705738331 0.09610644917137248 0.9558063788720205
vn 0.15113986786753955 0.11772921077364798 0.9814767308864724
vn 0.7886536480046913 0.5443090632645211 0.28592493269561475
vn 0.5493776233224618 0.7683329625601308 -0.3284032363362698
vn 0.4616521632882266 0.8831201264532946 0.08352318471189511
vn 0.7886536480046913 0.5443090632645211 0.28592493269561475
vn 0.4616521632882266 0.8831201264532946 0.08352318471189511
vn 0.5729739719946567 0.5452862433289007 0.611852711240966
vn 0.9221857387696737 -0.05888180188320319 0.3822386644713205
vn 0.9059862796777245 0.11129326012504885 0.4084148274566608
vn 0.7065537077552105 0.20888660876738394 0.6761273864702023
vn 0.9221857387696737 -0.05888180188320319 0.3822386644713205
vn 0.7065537077552105 0.20888660876738394 0.6761273864702023
vn 0.6747259158067258 0.04810612406617562 0.736498974450138
vn 0.5493776233224618 0.7683329625601308 -0.3284032363362698
vn 0.31444804922993397 0.682015160253505 -0.6602861088345529
vn 0.4616521632882266 0.8831201264532946 0.08352318471189511
vn 0.05461127674100909 0.9984667880002771 0.009037793598382025
vn 0.22097222412751016 0.8428743473343793 -0.4906466251486764
vn -0.0052567058958837435 0.9388931355161304 -0.3441686318126822
vn 0.05461127674100909 0.9984667880002771 0.009037793598382025
vn -0.12561414246360053 0.9842802185204816 -0.12415127322104738
vn -0.031036561004745625 0.894929279718488 0.44512730334539913
vn 0.19145323674069525 0.7194684870878739 0.6676157234734641
vn 0.05461127674100909 0.9984667880002771 0.009037793598382025
vn -0.031036561004745625 0.894929279718488 0.44512730334539913
vn 0.19145323674069525 0.7194684870878739 0.6676157234734641
vn -0.031036561004745625 0.894929279718488 0.44512730334539913
vn 0.028357683550369092 0.6008559039026439 0.79885419478713
vn 0.09238153396954092 0.7670910087452639 -0.6348519799792768
vn 0.31444804922993397 0.682015160253505 -0.6602861088345529
vn 0.5493776233224618 0.7683329625601308 -0.3284032363362698
vn 0.09238153396954092 0.7670910087452639 -0.6348519799792768
vn 0.21792801049782531 0.48132831576654195 -0.8490173347357542
vn 0.31444804922993397 0.682015160253505 -0.6602861088345529
vn -0.0052567058958837435 0.9388931355161304 -0.3441686318126822
vn -0.19660596832516936 0.9672091009437572 -0.1607875874266771
vn 0.05461127674100909 0.9984667880002771 0.009037793598382025
vn -0.0052567058958837435 0.9388931355161304 -0.3441686318126822
vn 0.11599345231357382 0.7254150338551508 -0.6784677941341867
vn -0.310650766530491 0.8617573398075646 -0.40108651004715673
vn -0.0052567058958837435 0.9388931355161304 -0.3441686318126822
vn -0.310650766530491 0.8617573398075646 -0.40108651004715673
vn -0.19660596832516936 0.9672091009437572 -0.1607875874266771
vn 0.22097222412751016 0.8428743473343793 -0.4906466251486764
vn 0.11599345231357382 0.7254150338551508 -0.6784677941341867
vn -0.0052567058958837435 0.9388931355161304 -0.3441686318126822
vn 0.31444804922993397 0.682015160253505 -0.6602861088345529
vn 0.21792801049782531 0.48132831576654195 -0.8490173347357542
vn 0.3651185800632835 0.5781800542415502 -0.7296548823723512
vn 0.31444804922993397 0.682015160253505 -0.6602861088345529
vn 0.3651185800632835 0.5781800542415502 -0.7296548823723512
vn 0.22097222412751016 0.8428743473343793 -0.4906466251486764
vn -0.19660596832516936 0.9672091009437572 -0.1607875874266771
vn -0.12561414246360053 0.9842802185204816 -0.12415127322104738
vn 0.05461127674100909 0.9984667880002771 0.009037793598382025
vn 0.3651185800632835 0.5781800542415502 -0.7296548823723512
vn 0.11599345231357382 0.7254150338551508 -0.6784677941341867
vn 0.22097222412751016 0.8428743473343793 -0.4906466251486764
f 1//1 2//2 3//3
f 4//4 5//5 6//6
f 7//7 8//8 9//9
f 10//10 11//11 12//12
f 13//13 14//14 15//15
f 16//16 17//17 18//18
f 19//19 20//20 21//21
f 22//22 23//23 24//24
f 25//25 26//26 27//27
f 28//28 29//29 30//30
f 31//31 32//32 33//33
f 34//34 35//35 36//36
f 37//37 38//38 39//39
f 40//40 41//41 42//42
f 43//43 44//44 45//45
f 46//46 47//47 48//48
f 49//49 50//50 51//51
f 52//52 53//53 54//54
f 55//55 56//56 57//57
f 58//58 59//59 60//60
f 61//61 62//62 63//63
f 64//64 65//65 66//66
f 67//67 68//68 69//69
f 70//70 71//71 72//72
f 73//73 74//74 75//75
f 76//76 77//77 78//78
f 79//79 80//80 81//81
f 82//82 83//83 84//84
f 85//85 86//86 87//87
f 88//88 89//89 90//90
f 91//91 92//92 93//93
f 94//94 95//95 96//96
f 97//97 98//98 99//99
f 100//100 101//101 102//102
f 103//103 104//104 105//105
f 106//106 107//107 108//108
f 109//109 110//110 111//111
f 112//112 113//113 114//114
f 115//115 116//116 117//117
f 118//118 119//119 120//120
f 121//121 122//122 123//123
f 124//124 125//125 126//126
f 127//127 128//128 129//129
f 130//130 131//131 132//132
f 133//133 134//134 135//135
f 136//136 137//137 138//138
f 139//139 140//140 141//141
f 142//142 143//143 144//144
f 145//145 146//146 147//147
f 148//148 149//149 150//150
f 151//151 152//152 153//153
