mtllib ArcadaCompleta.mtl
o D84C_L
usemtl Esmalte
v -24.10140037536621 -44.02373027801514 -3.3168505285834256
v -25.00149917602539 -44.12673091888428 -3.317250594959158
v -24.861499786376953 -43.74483013153076 -2.807400569782156
v -24.10140037536621 -44.02373027801514 -3.3168505285834256
v -24.861499786376953 -43.74483013153076 -2.807400569782156
v -24.09480094909668 -43.89823055267334 -2.8296304796790066
v -24.10140037536621 -44.02373027801514 -3.3168505285834256
v -23.293399810791016 -44.25232982635498 -2.9957204912756863
v -23.17650032043457 -45.19243144989014 -3.3776405905341096
v -24.10140037536621 -44.02373027801514 -3.3168505285834256
v -23.17650032043457 -45.19243144989014 -3.3776405905341096
v -24.10140037536621 -45.21853160858154 -3.572280511722464
v -24.013999938964844 -46.66883373260498 -3.4891205881689977
v -24.92930030822754 -46.66883373260498 -3.5088106249426794
v -25.127599716186523 -45.196330070495605 -3.5764604662512727
v -24.013999938964844 -46.66883373260498 -3.4891205881689977
v -25.127599716186523 -45.196330070495605 -3.5764604662512727
v -24.10140037536621 -45.21853160858154 -3.572280511722464
v -24.09480094909668 -43.89823055267334 -2.8296304796790066
v -23.35770034790039 -43.73823070526123 -2.629060611591238
v -23.293399810791016 -44.25232982635498 -2.9957204912756863
v -24.09480094909668 -43.89823055267334 -2.8296304796790066
v -23.293399810791016 -44.25232982635498 -2.9957204912756863
v -24.10140037536621 -44.02373027801514 -3.3168505285834256
v -24.10140037536621 -45.21853160858154 -3.572280511722464
v -25.127599716186523 -45.196330070495605 -3.5764604662512727
v -25.00149917602539 -44.12673091888428 -3.317250594959158
v -24.10140037536621 -45.21853160858154 -3.572280511722464
v -25.00149917602539 -44.12673091888428 -3.317250594959158
v -24.10140037536621 -44.02373027801514 -3.3168505285834256
v -24.10140037536621 -45.21853160858154 -3.572280511722464
v -23.17650032043457 -45.19243144989014 -3.3776405905341096
v -23.098800659179688 -46.66883373260498 -3.468700513706107
v -24.10140037536621 -45.21853160858154 -3.572280511722464
v -23.098800659179688 -46.66883373260498 -3.468700513706107
v -24.013999938964844 -46.66883373260498 -3.4891205881689977
v -24.92930030822754 -46.66883373260498 -3.5088106249426794
v -24.013999938964844 -46.66883373260498 -3.4891205881689977
v -23.810300827026367 -48.00093364715576 -3.1838005636786413
v -24.92930030822754 -46.66883373260498 -3.5088106249426794
v -23.810300827026367 -48.00093364715576 -3.1838005636786413
v -24.708799362182617 -48.00093364715576 -3.244020566806693
v -22.91189956665039 -48.00093364715576 -3.244020566806693
v -23.810300827026367 -48.00093364715576 -3.1838005636786413
v -24.013999938964844 -46.66883373260498 -3.4891205881689977
v -22.91189956665039 -48.00093364715576 -3.244020566806693
v -24.013999938964844 -46.66883373260498 -3.4891205881689977
v -23.098800659179688 -46.66883373260498 -3.468700513706107
vn 0.1867842101481674 0.5001371762241815 -0.8455616262566718
vn -0.025345643644609783 0.3558443737304401 -0.934201466511711
vn 0.020934403338354914 0.889792141552315 -0.4558856167818987
vn 0.1867842101481674 0.5001371762241815 -0.8455616262566718
vn 0.020934403338354914 0.889792141552315 -0.4558856167818987
vn 0.21755366947911162 0.8508236198767951 -0.4782986188103836
vn 0.1867842101481674 0.5001371762241815 -0.8455616262566718
vn 0.34458416305704537 0.6009752085519479 -0.7211730397596807
vn 0.26484260174840063 0.20059244495118986 -0.9431972579093103
vn 0.1867842101481674 0.5001371762241815 -0.8455616262566718
vn 0.26484260174840063 0.20059244495118986 -0.9431972579093103
vn 0.07044412717866033 0.08942654445957442 -0.9934991283801191
vn 0.004585839782833441 -0.1248552643364808 -0.9921643679557102
vn 0.035572320514496346 -0.146578640498245 -0.9885592102463565
vn 0.011033405333338171 0.031113596022598094 -0.9994549555179025
vn 0.004585839782833441 -0.1248552643364808 -0.9921643679557102
vn 0.011033405333338171 0.031113596022598094 -0.9994549555179025
vn 0.07044412717866033 0.08942654445957442 -0.9934991283801191
vn 0.21755366947911162 0.8508236198767951 -0.4782986188103836
vn 0.09195085637975027 0.5857949271584946 -0.8052262684031145
vn 0.34458416305704537 0.6009752085519479 -0.7211730397596807
vn 0.21755366947911162 0.8508236198767951 -0.4782986188103836
vn 0.34458416305704537 0.6009752085519479 -0.7211730397596807
vn 0.1867842101481674 0.5001371762241815 -0.8455616262566718
vn 0.07044412717866033 0.08942654445957442 -0.9934991283801191
vn 0.011033405333338171 0.031113596022598094 -0.9994549555179025
vn -0.025345643644609783 0.3558443737304401 -0.934201466511711
vn 0.07044412717866033 0.08942654445957442 -0.9934991283801191
vn -0.025345643644609783 0.3558443737304401 -0.934201466511711
vn 0.1867842101481674 0.5001371762241815 -0.8455616262566718
vn 0.07044412717866033 0.08942654445957442 -0.9934991283801191
vn 0.26484260174840063 0.20059244495118986 -0.9431972579093103
vn 0.08691016901257063 -0.04495151491895714 -0.9952014790125149
vn 0.07044412717866033 0.08942654445957442 -0.9934991283801191
vn 0.08691016901257063 -0.04495151491895714 -0.9952014790125149
vn 0.004585839782833441 -0.1248552643364808 -0.9921643679557102
vn 0.035572320514496346 -0.146578640498245 -0.9885592102463565
vn 0.004585839782833441 -0.1248552643364808 -0.9921643679557102
vn 0.007093426187273043 -0.21274257840871594 -0.9770825341991008
vn 0.035572320514496346 -0.146578640498245 -0.9885592102463565
vn 0.007093426187273043 -0.21274257840871594 -0.9770825341991008
vn 0.06573034845321941 -0.18406263056485672 -0.9807142648711518
vn -0.021505178813746043 -0.19809754128416196 -0.9799463717068186
vn 0.007093426187273043 -0.21274257840871594 -0.9770825341991008
vn 0.004585839782833441 -0.1248552643364808 -0.9921643679557102
vn -0.021505178813746043 -0.19809754128416196 -0.9799463717068186
vn 0.004585839782833441 -0.1248552643364808 -0.9921643679557102
vn 0.08691016901257063 -0.04495151491895714 -0.9952014790125149
f 1//1 2//2 3//3
f 4//4 5//5 6//6
f 7//7 8//8 9//9
f 10//10 11//11 12//12
f 13//13 14//14 15//15
f 16//16 17//17 18//18
f 19//19 20//20 21//21
f 22//22 23//23 24//24
f 25//25 26//26 27//27
f 28//28 29//29 30//30
f 31//31 32//32 33//33
f 34//34 35//35 36//36
f 37//37 38//38 39//39
f 40//40 41//41 42//42
f 43//43 44//44 45//45
f 46//46 47//47 48//48
