mtllib ArcadaCompleta.mtl
o D84C_M
usemtl Esmalte
v -20.395000457763672 -45.00273036956787 -0.25764359580029894
v -20.494300842285156 -44.85173320770264 0.8771244431878145
v -20.323299407958984 -45.60873317718506 1.0519694234276826
v -20.395000457763672 -45.00273036956787 -0.25764359580029894
v -20.323299407958984 -45.60873317718506 1.0519694234276826
v -20.244199752807617 -45.732733726501465 -0.0006996795968449671
v -20.395000457763672 -45.00273036956787 -0.25764359580029894
v -20.244199752807617 -45.732733726501465 -0.0006996795968449671
v -20.323299407958984 -45.60873317718506 -1.0533705805396025
v -20.395000457763672 -45.00273036956787 -0.25764359580029894
v -20.323299407958984 -45.60873317718506 -1.0533705805396025
v -20.59280014038086 -44.88333034515381 -1.2653705929373686
v -20.395000457763672 -45.00273036956787 -0.25764359580029894
v -20.766399383544922 -44.63723278045654 -0.25764359580029883
v -20.862699508666992 -44.64763164520264 0.7681734110261018
v -20.395000457763672 -45.00273036956787 -0.25764359580029894
v -20.862699508666992 -44.64763164520264 0.7681734110261018
v -20.494300842285156 -44.85173320770264 0.8771244431878145
v -21.239299774169922 -45.00273036956787 -0.25764359580029894
v -21.089000701904297 -44.93303203582764 0.5448294426346834
v -20.862699508666992 -44.64763164520264 0.7681734110261018
v -21.239299774169922 -45.00273036956787 -0.25764359580029894
v -20.862699508666992 -44.64763164520264 0.7681734110261018
v -20.766399383544922 -44.63723278045654 -0.25764359580029883
v -21.239299774169922 -45.00273036956787 -0.25764359580029894
v -21.523000717163086 -44.7764310836792 0.05440431787024096
v -21.22260093688965 -44.49463176727295 0.7201883937264498
v -21.239299774169922 -45.00273036956787 -0.25764359580029894
v -21.22260093688965 -44.49463176727295 0.7201883937264498
v -21.089000701904297 -44.93303203582764 0.5448294426346834
v -21.239299774169922 -45.00273036956787 -0.25764359580029894
v -21.51849937438965 -45.096529960632324 -0.25764359580029894
v -21.523000717163086 -44.7764310836792 0.05440431787024096
v -20.507600784301758 -46.95143413543701 -0.0006996795968452378
v -20.51569938659668 -46.893431663513184 0.9916144157792142
v -20.599300384521484 -48.00093364715576 0.9721744204903651
v -20.507600784301758 -46.95143413543701 -0.0006996795968452378
v -20.599300384521484 -48.00093364715576 0.9721744204903651
v -20.530500411987305 -48.00093364715576 0.0012469984390470754
v -20.507600784301758 -46.95143413543701 -0.0006996795968452378
v -20.51569938659668 -46.893431663513184 -0.9930136059378574
v -20.323299407958984 -45.60873317718506 -1.0533705805396025
v -20.507600784301758 -46.95143413543701 -0.0006996795968452378
v -20.323299407958984 -45.60873317718506 -1.0533705805396025
v -20.244199752807617 -45.732733726501465 -0.0006996795968449671
v -20.59280014038086 -44.88333034515381 -1.2653705929373686
v -20.323299407958984 -45.60873317718506 -1.0533705805396025
v -20.678800582885742 -45.390334129333496 -1.8337205504034941
v -20.59280014038086 -44.88333034515381 -1.2653705929373686
v -20.678800582885742 -45.390334129333496 -1.8337205504034941
v -20.872600555419922 -44.6072301864624 -1.6565605257605496
v -20.59280014038086 -44.88333034515381 -1.2653705929373686
v -20.938800811767578 -44.64873027801514 -1.0383605812643948
v -20.766399383544922 -44.63723278045654 -0.25764359580029883
v -20.59280014038086 -44.88333034515381 -1.2653705929373686
v -20.766399383544922 -44.63723278045654 -0.25764359580029883
v -20.395000457763672 -45.00273036956787 -0.25764359580029894
v -20.244199752807617 -45.732733726501465 -0.0006996795968449671
v -20.323299407958984 -45.60873317718506 1.0519694234276826
v -20.51569938659668 -46.893431663513184 0.9916144157792142
v -20.244199752807617 -45.732733726501465 -0.0006996795968449671
v -20.51569938659668 -46.893431663513184 0.9916144157792142
v -20.507600784301758 -46.95143413543701 -0.0006996795968452378
v -20.323299407958984 -45.60873317718506 -1.0533705805396025
v -20.51569938659668 -46.893431663513184 -0.9930136059378574
v -20.68899917602539 -46.753432273864746 -1.8804105375861115
v -20.323299407958984 -45.60873317718506 -1.0533705805396025
v -20.68899917602539 -46.753432273864746 -1.8804105375861115
v -20.678800582885742 -45.390334129333496 -1.8337205504034941
v -21.165000915527344 -44.93413066864014 -0.8150206063841765
v -21.430099487304688 -44.50443172454834 -0.8779105995749418
v -21.523000717163086 -44.7764310836792 -0.5696905706976836
v -21.165000915527344 -44.93413066864014 -0.8150206063841765
v -21.523000717163086 -44.7764310836792 -0.5696905706976836
v -21.239299774169922 -45.00273036956787 -0.25764359580029894
v -21.089000701904297 -44.93303203582764 0.5448294426346834
v -21.22260093688965 -44.49463176727295 0.7201883937264498
v -20.862699508666992 -44.64763164520264 0.7681734110261018
v -20.766399383544922 -44.63723278045654 -0.25764359580029883
v -20.938800811767578 -44.64873027801514 -1.0383605812643948
v -21.165000915527344 -44.93413066864014 -0.8150206063841765
v -20.766399383544922 -44.63723278045654 -0.25764359580029883
v -21.165000915527344 -44.93413066864014 -0.8150206063841765
v -21.239299774169922 -45.00273036956787 -0.25764359580029894
v -20.938800811767578 -44.64873027801514 -1.0383605812643948
v -21.430099487304688 -44.50443172454834 -0.8779105995749418
v -21.165000915527344 -44.93413066864014 -0.8150206063841765
v -20.530500411987305 -48.00093364715576 0.0012469984390470754
v -20.599300384521484 -48.00093364715576 -0.9696805928801489
v -20.51569938659668 -46.893431663513184 -0.9930136059378574
v -20.530500411987305 -48.00093364715576 0.0012469984390470754
v -20.51569938659668 -46.893431663513184 -0.9930136059378574
v -20.507600784301758 -46.95143413543701 -0.0006996795968452378
v -20.599300384521484 -48.00093364715576 -0.9696805928801489
v -20.66900062561035 -48.00093364715576 -1.7163405274008703
v -20.68899917602539 -46.753432273864746 -1.8804105375861115
v -20.599300384521484 -48.00093364715576 -0.9696805928801489
v -20.68899917602539 -46.753432273864746 -1.8804105375861115
v -20.51569938659668 -46.893431663513184 -0.9930136059378574
v -21.523000717163086 -44.7764310836792 -0.5696905706976836
v -21.51849937438965 -45.096529960632324 -0.25764359580029894
v -21.239299774169922 -45.00273036956787 -0.25764359580029894
v -20.872600555419922 -44.6072301864624 -1.6565605257605496
v -21.19860076904297 -44.288832664489746 -1.329280600414175
v -20.938800811767578 -44.64873027801514 -1.0383605812643948
v -20.872600555419922 -44.6072301864624 -1.6565605257605496
v -20.938800811767578 -44.64873027801514 -1.0383605812643948
v -20.59280014038086 -44.88333034515381 -1.2653705929373686
v -21.19860076904297 -44.288832664489746 -1.329280600414175
v -21.430099487304688 -44.50443172454834 -0.8779105995749418
v -20.938800811767578 -44.64873027801514 -1.0383605812643948
v -21.19860076904297 -44.288832664489746 -1.329280600414175
v -21.56130027770996 -44.24553203582764 -1.1620505903815213
v -21.430099487304688 -44.50443172454834 -0.8779105995749418
v -20.56760025024414 -49.017733573913574 0.0037391684050367374
v -20.530500411987305 -48.00093364715576 0.0012469984390470754
v -20.599300384521484 -48.00093364715576 0.9721744204903651
v -20.56760025024414 -49.017733573913574 0.0037391684050367374
v -20.599300384521484 -48.00093364715576 0.9721744204903651
v -20.716999053955078 -49.00963115692139 1.083419456615548
v -20.716999053955078 -49.00963115692139 -1.0759405945395424
v -20.599300384521484 -48.00093364715576 -0.9696805928801489
v -20.530500411987305 -48.00093364715576 0.0012469984390470754
v -20.716999053955078 -49.00963115692139 -1.0759405945395424
v -20.530500411987305 -48.00093364715576 0.0012469984390470754
v -20.56760025024414 -49.017733573913574 0.0037391684050367374
v -20.716999053955078 -49.00963115692139 -1.0759405945395424
v -20.66900062561035 -48.00093364715576 -1.7163405274008703
v -20.599300384521484 -48.00093364715576 -0.9696805928801489
vn 0.9043047978261775 0.42646768641911403 -0.018924721104533176
vn 0.8706400030642388 0.4918033275143989 0.010745794994640652
vn 0.9957112161580277 0.06018038519567385 0.07026731284745102
vn 0.9043047978261775 0.42646768641911403 -0.018924721104533176
vn 0.9957112161580277 0.06018038519567385 0.07026731284745102
vn 0.9968286283048976 -0.07947758480586753 0.003999913149364131
vn 0.9043047978261775 0.42646768641911403 -0.018924721104533176
vn 0.9968286283048976 -0.07947758480586753 0.003999913149364131
vn 0.9832998973601265 -0.020221475867711097 -0.18086570643794325
vn 0.9043047978261775 0.42646768641911403 -0.018924721104533176
vn 0.9832998973601265 -0.020221475867711097 -0.18086570643794325
vn 0.8413934493883765 0.505554901630755 -0.19097461811310715
vn 0.9043047978261775 0.42646768641911403 -0.018924721104533176
vn 0.05894200622379329 0.9982447824988818 -0.005761433508645688
vn 0.05422102808490376 0.9944698399776013 -0.08994341270121008
vn 0.9043047978261775 0.42646768641911403 -0.018924721104533176
vn 0.05422102808490376 0.9944698399776013 -0.08994341270121008
vn 0.8706400030642388 0.4918033275143989 0.010745794994640652
vn -0.2005346991021352 0.9737367393474357 -0.10780814858367621
vn 0.40134091743294587 0.8099324410842704 -0.42770890670332784
vn 0.05422102808490376 0.9944698399776013 -0.08994341270121008
vn -0.2005346991021352 0.9737367393474357 -0.10780814858367621
vn 0.05422102808490376 0.9944698399776013 -0.08994341270121008
vn 0.05894200622379329 0.9982447824988818 -0.005761433508645688
vn -0.2005346991021352 0.9737367393474357 -0.10780814858367621
vn 0.07590353754233548 0.8387243813643739 -0.5392402665728029
vn 0.5970554056729611 0.6441800275962851 -0.4780762853381721
vn -0.2005346991021352 0.9737367393474357 -0.10780814858367621
vn 0.5970554056729611 0.6441800275962851 -0.4780762853381721
vn 0.40134091743294587 0.8099324410842704 -0.42770890670332784
vn -0.2005346991021352 0.9737367393474357 -0.10780814858367621
vn -0.3184668509940954 0.9479339981337851 4.053244273621133e-8
vn 0.07590353754233548 0.8387243813643739 -0.5392402665728029
vn 0.9923796085723247 -0.1230154116074884 -0.0070654792392247055
vn 0.9877988348389715 -0.14924872296758465 0.044477866218103894
vn 0.9955416640124104 -0.05970377308497316 0.07302228902752235
vn 0.9923796085723247 -0.1230154116074884 -0.0070654792392247055
vn 0.9955416640124104 -0.05970377308497316 0.07302228902752235
vn 0.9983908187232338 -0.050057767819632185 -0.026645693274272412
vn 0.9923796085723247 -0.1230154116074884 -0.0070654792392247055
vn 0.9898391241906025 -0.10014397667429892 -0.10094400505943038
vn 0.9832998973601265 -0.020221475867711097 -0.18086570643794325
vn 0.9923796085723247 -0.1230154116074884 -0.0070654792392247055
vn 0.9832998973601265 -0.020221475867711097 -0.18086570643794325
vn 0.9968286283048976 -0.07947758480586753 0.003999913149364131
vn 0.8413934493883765 0.505554901630755 -0.19097461811310715
vn 0.9832998973601265 -0.020221475867711097 -0.18086570643794325
vn 0.9091255401486267 0.12546414441005005 -0.3971769136253037
vn 0.8413934493883765 0.505554901630755 -0.19097461811310715
vn 0.9091255401486267 0.12546414441005005 -0.3971769136253037
vn 0.813848409048845 0.5697312763266265 -0.11426740508078773
vn 0.8413934493883765 0.505554901630755 -0.19097461811310715
vn 0.3774053932990707 0.8803712451653135 0.28724839389428997
vn 0.05894200622379329 0.9982447824988818 -0.005761433508645688
vn 0.8413934493883765 0.505554901630755 -0.19097461811310715
vn 0.05894200622379329 0.9982447824988818 -0.005761433508645688
vn 0.9043047978261775 0.42646768641911403 -0.018924721104533176
vn 0.9968286283048976 -0.07947758480586753 0.003999913149364131
vn 0.9957112161580277 0.06018038519567385 0.07026731284745102
vn 0.9877988348389715 -0.14924872296758465 0.044477866218103894
vn 0.9968286283048976 -0.07947758480586753 0.003999913149364131
vn 0.9877988348389715 -0.14924872296758465 0.044477866218103894
vn 0.9923796085723247 -0.1230154116074884 -0.0070654792392247055
vn 0.9832998973601265 -0.020221475867711097 -0.18086570643794325
vn 0.9898391241906025 -0.10014397667429892 -0.10094400505943038
vn 0.9686174717124854 -0.05818804562832429 -0.2416492185778154
vn 0.9832998973601265 -0.020221475867711097 -0.18086570643794325
vn 0.9686174717124854 -0.05818804562832429 -0.2416492185778154
vn 0.9091255401486267 0.12546414441005005 -0.3971769136253037
vn -0.14378460023110415 0.900959713394293 0.4093868385486456
vn 0.44804820061545714 0.604707911275693 0.6584687934639268
vn 0.40694080339069877 0.7592809526866016 0.5078303037659918
vn -0.14378460023110415 0.900959713394293 0.4093868385486456
vn 0.40694080339069877 0.7592809526866016 0.5078303037659918
vn -0.2005346991021352 0.9737367393474357 -0.10780814858367621
vn 0.40134091743294587 0.8099324410842704 -0.42770890670332784
vn 0.5970554056729611 0.6441800275962851 -0.4780762853381721
vn 0.05422102808490376 0.9944698399776013 -0.08994341270121008
vn 0.05894200622379329 0.9982447824988818 -0.005761433508645688
vn 0.3774053932990707 0.8803712451653135 0.28724839389428997
vn -0.14378460023110415 0.900959713394293 0.4093868385486456
vn 0.05894200622379329 0.9982447824988818 -0.005761433508645688
vn -0.14378460023110415 0.900959713394293 0.4093868385486456
vn -0.2005346991021352 0.9737367393474357 -0.10780814858367621
vn 0.3774053932990707 0.8803712451653135 0.28724839389428997
vn 0.44804820061545714 0.604707911275693 0.6584687934639268
vn -0.14378460023110415 0.900959713394293 0.4093868385486456
vn 0.9983908187232338 -0.050057767819632185 -0.026645693274272412
vn 0.99167306667209 -0.07249246516291218 -0.10643951959576205
vn 0.9898391241906025 -0.10014397667429892 -0.10094400505943038
vn 0.9983908187232338 -0.050057767819632185 -0.026645693274272412
vn 0.9898391241906025 -0.10014397667429892 -0.10094400505943038
vn 0.9923796085723247 -0.1230154116074884 -0.0070654792392247055
vn 0.99167306667209 -0.07249246516291218 -0.10643951959576205
vn 0.9946423039350007 -0.04545002097266298 -0.09284924779694267
vn 0.9686174717124854 -0.05818804562832429 -0.2416492185778154
vn 0.99167306667209 -0.07249246516291218 -0.10643951959576205
vn 0.9686174717124854 -0.05818804562832429 -0.2416492185778154
vn 0.9898391241906025 -0.10014397667429892 -0.10094400505943038
vn 0.40694080339069877 0.7592809526866016 0.5078303037659918
vn -0.3184668509940954 0.9479339981337851 4.053244273621133e-8
vn -0.2005346991021352 0.9737367393474357 -0.10780814858367621
vn 0.813848409048845 0.5697312763266265 -0.11426740508078773
vn 0.5500736264612155 0.7361780442571078 0.39428529344319563
vn 0.3774053932990707 0.8803712451653135 0.28724839389428997
vn 0.813848409048845 0.5697312763266265 -0.11426740508078773
vn 0.3774053932990707 0.8803712451653135 0.28724839389428997
vn 0.8413934493883765 0.505554901630755 -0.19097461811310715
vn 0.5500736264612155 0.7361780442571078 0.39428529344319563
vn 0.44804820061545714 0.604707911275693 0.6584687934639268
vn 0.3774053932990707 0.8803712451653135 0.28724839389428997
vn 0.5500736264612155 0.7361780442571078 0.39428529344319563
vn 0.3415505922131642 0.7678737125390441 0.5419530925738337
vn 0.44804820061545714 0.604707911275693 0.6584687934639268
vn 0.9980373684573096 -0.0586986037969522 0.02181479028313462
vn 0.9983908187232338 -0.050057767819632185 -0.026645693274272412
vn 0.9955416640124104 -0.05970377308497316 0.07302228902752235
vn 0.9980373684573096 -0.0586986037969522 0.02181479028313462
vn 0.9955416640124104 -0.05970377308497316 0.07302228902752235
vn 0.98550733560264 -0.09987065602228758 0.13711726200250454
vn 0.9915487101174651 -0.07982943416619669 -0.10226640164343438
vn 0.99167306667209 -0.07249246516291218 -0.10643951959576205
vn 0.9983908187232338 -0.050057767819632185 -0.026645693274272412
vn 0.9915487101174651 -0.07982943416619669 -0.10226640164343438
vn 0.9983908187232338 -0.050057767819632185 -0.026645693274272412
vn 0.9980373684573096 -0.0586986037969522 0.02181479028313462
vn 0.9915487101174651 -0.07982943416619669 -0.10226640164343438
vn 0.9946423039350007 -0.04545002097266298 -0.09284924779694267
vn 0.99167306667209 -0.07249246516291218 -0.10643951959576205
f 1//1 2//2 3//3
f 4//4 5//5 6//6
f 7//7 8//8 9//9
f 10//10 11//11 12//12
f 13//13 14//14 15//15
f 16//16 17//17 18//18
f 19//19 20//20 21//21
f 22//22 23//23 24//24
f 25//25 26//26 27//27
f 28//28 29//29 30//30
f 31//31 32//32 33//33
f 34//34 35//35 36//36
f 37//37 38//38 39//39
f 40//40 41//41 42//42
f 43//43 44//44 45//45
f 46//46 47//47 48//48
f 49//49 50//50 51//51
f 52//52 53//53 54//54
f 55//55 56//56 57//57
f 58//58 59//59 60//60
f 61//61 62//62 63//63
f 64//64 65//65 66//66
f 67//67 68//68 69//69
f 70//70 71//71 72//72
f 73//73 74//74 75//75
f 76//76 77//77 78//78
f 79//79 80//80 81//81
f 82//82 83//83 84//84
f 85//85 86//86 87//87
f 88//88 89//89 90//90
f 91//91 92//92 93//93
f 94//94 95//95 96//96
f 97//97 98//98 99//99
f 100//100 101//101 102//102
f 103//103 104//104 105//105
f 106//106 107//107 108//108
f 109//109 110//110 111//111
f 112//112 113//113 114//114
f 115//115 116//116 117//117
f 118//118 119//119 120//120
f 121//121 122//122 123//123
f 124//124 125//125 126//126
f 127//127 128//128 129//129
