mtllib ArcadaCompleta.mtl
o D84C_CL
usemtl Esmalte
v -23.814300537109375 -49.400431632995605 -2.71841059671392
v -24.675100326538086 -49.378432273864746 -2.6133504961585
v -24.708799362182617 -48.00093364715576 -3.244020566806693
v -23.814300537109375 -49.400431632995605 -2.71841059671392
v -24.708799362182617 -48.00093364715576 -3.244020566806693
v -23.810300827026367 -48.00093364715576 -3.1838005636786413
v -23.810300827026367 -48.00093364715576 -3.1838005636786413
v -22.91189956665039 -48.00093364715576 -3.244020566806693
v -22.953399658203125 -49.378432273864746 -2.6133504961585
v -23.810300827026367 -48.00093364715576 -3.1838005636786413
v -22.953399658203125 -49.378432273864746 -2.6133504961585
v -23.814300537109375 -49.400431632995605 -2.71841059671392
vn 0.0212948051033027 -0.3506364053568788 -0.93626953518419
vn -0.12064777975982886 -0.4156795711276454 -0.9014735755340588
vn -0.02828780930185051 -0.36724573321481124 -0.929693697558727
vn 0.0212948051033027 -0.3506364053568788 -0.93626953518419
vn -0.02828780930185051 -0.36724573321481124 -0.929693697558727
vn 0.04011846018467764 -0.34998974433871055 -0.9358940581124202
vn 0.04011846018467764 -0.34998974433871055 -0.9358940581124202
vn -0.06087963126329362 -0.4139928711167911 -0.9082420234506446
vn 0.028288099078558174 -0.3673850189324321 -0.9296386563146662
vn 0.04011846018467764 -0.34998974433871055 -0.9358940581124202
vn 0.028288099078558174 -0.3673850189324321 -0.9296386563146662
vn 0.0212948051033027 -0.3506364053568788 -0.93626953518419
f 1//1 2//2 3//3
f 4//4 5//5 6//6
f 7//7 8//8 9//9
f 10//10 11//11 12//12
