mtllib ArcadaCompleta.mtl
o D84C_B
usemtl Esmalte
v -23.66320037841797 -44.58413219451904 2.3670894051934295
v -24.638599395751953 -44.27833080291748 2.381259336605173
v -24.590999603271484 -45.2139310836792 2.9375893021966033
v -23.66320037841797 -44.58413219451904 2.3670894051934295
v -24.590999603271484 -45.2139310836792 2.9375893021966033
v -23.603200912475586 -45.28703212738037 3.004269495143991
v -23.66320037841797 -44.58413219451904 2.3670894051934295
v -22.627599716186523 -44.334933280944824 2.490649356975656
v -22.743999481201172 -43.89272975921631 1.8914593602562961
v -23.66320037841797 -44.58413219451904 2.3670894051934295
v -22.743999481201172 -43.89272975921631 1.8914593602562961
v -23.71769905090332 -43.880831718444824 2.151539459362131
v -23.54949951171875 -46.66883373260498 3.3581494237328577
v -22.612699508666992 -46.66883373260498 3.362739458217721
v -22.66790008544922 -45.203532218933105 3.019939317836862
v -23.54949951171875 -46.66883373260498 3.3581494237328577
v -22.66790008544922 -45.203532218933105 3.019939317836862
v -23.603200912475586 -45.28703212738037 3.004269495143991
v -23.71769905090332 -43.880831718444824 2.151539459362131
v -24.63520050048828 -43.90603160858154 2.081719532146555
v -24.638599395751953 -44.27833080291748 2.381259336605173
v -23.71769905090332 -43.880831718444824 2.151539459362131
v -24.638599395751953 -44.27833080291748 2.381259336605173
v -23.66320037841797 -44.58413219451904 2.3670894051934295
v -23.603200912475586 -45.28703212738037 3.004269495143991
v -24.590999603271484 -45.2139310836792 2.9375893021966033
v -24.449499130249023 -46.68333339691162 3.2184394742394495
v -23.603200912475586 -45.28703212738037 3.004269495143991
v -24.449499130249023 -46.68333339691162 3.2184394742394495
v -23.54949951171875 -46.66883373260498 3.3581494237328577
v -23.603200912475586 -45.28703212738037 3.004269495143991
v -22.66790008544922 -45.203532218933105 3.019939317836862
v -22.627599716186523 -44.334933280944824 2.490649356975656
v -23.603200912475586 -45.28703212738037 3.004269495143991
v -22.627599716186523 -44.334933280944824 2.490649356975656
v -23.66320037841797 -44.58413219451904 2.3670894051934295
v -24.449499130249023 -46.68333339691162 3.2184394742394495
v -24.208099365234375 -48.00093364715576 3.288039341106515
v -23.415700912475586 -48.00093364715576 3.2324894811059046
v -24.449499130249023 -46.68333339691162 3.2184394742394495
v -23.415700912475586 -48.00093364715576 3.2324894811059046
v -23.54949951171875 -46.66883373260498 3.3581494237328577
v -22.612699508666992 -46.66883373260498 3.362739458217721
v -23.54949951171875 -46.66883373260498 3.3581494237328577
v -23.415700912475586 -48.00093364715576 3.2324894811059046
v -22.612699508666992 -46.66883373260498 3.362739458217721
v -23.415700912475586 -48.00093364715576 3.2324894811059046
v -22.51729965209961 -48.00093364715576 3.332299366130929
vn -0.0010155766375597181 0.565807693009851 0.8245366111549949
vn 0.10352114432947375 0.47210561521941424 0.8754425513733125
vn 0.031495750078268096 0.42833090002375057 0.9030728972856239
vn -0.0010155766375597181 0.565807693009851 0.8245366111549949
vn 0.031495750078268096 0.42833090002375057 0.9030728972856239
vn -0.09263447909774793 0.3941001397146534 0.9143871899579409
vn -0.0010155766375597181 0.565807693009851 0.8245366111549949
vn -0.1853758299697706 0.6409149952636325 0.7448917844286085
vn -0.012870237629101614 0.5782753585490663 0.815740134281941
vn -0.0010155766375597181 0.565807693009851 0.8245366111549949
vn -0.012870237629101614 0.5782753585490663 0.815740134281941
vn 0.12302488298667656 0.38348524752681235 0.9153163076747919
vn -0.06957179872626332 0.11092202077825931 0.9913909774294195
vn -0.03812939270347341 0.04332934284988695 0.9983329692343439
vn -0.03158180474331033 0.3129155622912823 0.9492557297615254
vn -0.06957179872626332 0.11092202077825931 0.9913909774294195
vn -0.03158180474331033 0.3129155622912823 0.9492557297615254
vn -0.09263447909774793 0.3941001397146534 0.9143871899579409
vn 0.12302488298667656 0.38348524752681235 0.9153163076747919
vn -0.07627027250965471 0.6254591752540811 0.7765202287267136
vn 0.10352114432947375 0.47210561521941424 0.8754425513733125
vn 0.12302488298667656 0.38348524752681235 0.9153163076747919
vn 0.10352114432947375 0.47210561521941424 0.8754425513733125
vn -0.0010155766375597181 0.565807693009851 0.8245366111549949
vn -0.09263447909774793 0.3941001397146534 0.9143871899579409
vn 0.031495750078268096 0.42833090002375057 0.9030728972856239
vn -0.07777456142715106 0.1037230236401682 0.9915607152170539
vn -0.09263447909774793 0.3941001397146534 0.9143871899579409
vn -0.07777456142715106 0.1037230236401682 0.9915607152170539
vn -0.06957179872626332 0.11092202077825931 0.9913909774294195
vn -0.09263447909774793 0.3941001397146534 0.9143871899579409
vn -0.03158180474331033 0.3129155622912823 0.9492557297615254
vn -0.1853758299697706 0.6409149952636325 0.7448917844286085
vn -0.09263447909774793 0.3941001397146534 0.9143871899579409
vn -0.1853758299697706 0.6409149952636325 0.7448917844286085
vn -0.0010155766375597181 0.565807693009851 0.8245366111549949
vn -0.07777456142715106 0.1037230236401682 0.9915607152170539
vn 0.06978224886896728 0.0653661109833658 0.9954183589213632
vn -0.053211590856353914 -0.046461096777207354 0.9975018261059951
vn -0.07777456142715106 0.1037230236401682 0.9915607152170539
vn -0.053211590856353914 -0.046461096777207354 0.9975018261059951
vn -0.06957179872626332 0.11092202077825931 0.9913909774294195
vn -0.03812939270347341 0.04332934284988695 0.9983329692343439
vn -0.06957179872626332 0.11092202077825931 0.9913909774294195
vn -0.053211590856353914 -0.046461096777207354 0.9975018261059951
vn -0.03812939270347341 0.04332934284988695 0.9983329692343439
vn -0.053211590856353914 -0.046461096777207354 0.9975018261059951
vn -0.11036616310557829 -0.03060484028193605 0.9934196765681008
f 1//1 2//2 3//3
f 4//4 5//5 6//6
f 7//7 8//8 9//9
f 10//10 11//11 12//12
f 13//13 14//14 15//15
f 16//16 17//17 18//18
f 19//19 20//20 21//21
f 22//22 23//23 24//24
f 25//25 26//26 27//27
f 28//28 29//29 30//30
f 31//31 32//32 33//33
f 34//34 35//35 36//36
f 37//37 38//38 39//39
f 40//40 41//41 42//42
f 43//43 44//44 45//45
f 46//46 47//47 48//48
