mtllib ArcadaCompleta.mtl
o D85C_CL
usemtl Esmalte
v -34.94559860229492 -49.10343074798584 -3.5141604994391398
v -35.91780090332031 -49.07863140106201 -3.378550634250541
v -36.06549835205078 -47.61133098602295 -3.7530406569098425
v -34.94559860229492 -49.10343074798584 -3.5141604994391398
v -36.06549835205078 -47.61133098602295 -3.7530406569098425
v -34.94559860229492 -47.61133098602295 -3.683410510883231
v -34.94559860229492 -47.61133098602295 -3.683410510883231
v -33.825599670410156 -47.61133098602295 -3.7530406569098425
v -33.9734001159668 -49.07863140106201 -3.378550634250541
v -34.94559860229492 -47.61133098602295 -3.683410510883231
v -33.9734001159668 -49.07863140106201 -3.378550634250541
v -34.94559860229492 -49.10343074798584 -3.5141604994391398
vt 0.5010150074958801 0.0004992485046386719
vt 0.5994439721107483 0.00498199462890625
vt 0.614404022693634 0.27029502391815186
vt 0.5010150074958801 0.0004992485046386719
vt 0.614404022693634 0.27029502391815186
vt 0.5010150074958801 0.27029502391815186
vt 0.5010150074958801 0.27029502391815186
vt 0.3876270055770874 0.27029502391815186
vt 0.40258699655532837 0.00498199462890625
vt 0.5010150074958801 0.27029502391815186
vt 0.40258699655532837 0.00498199462890625
vt 0.5010150074958801 0.0004992485046386719
vn 0.022185582730906067 -0.16029751346560095 -0.9868193892985868
vn -0.13992450765384717 -0.25806378643296213 -0.9559415328824828
vn -0.03315182285136528 -0.1822093064526209 -0.9827007302753399
vn 0.022185582730906067 -0.16029751346560095 -0.9868193892985868
vn -0.03315182285136528 -0.1822093064526209 -0.9827007302753399
vn 0.04311757369230222 -0.15801023830408842 -0.98649563578861
vn 0.04311757369230222 -0.15801023830408842 -0.98649563578861
vn -0.06021882681087928 -0.24114860944494246 -0.9686181089884143
vn 0.03315031538157074 -0.1822103416282137 -0.9827005891897247
vn 0.04311757369230222 -0.15801023830408842 -0.98649563578861
vn 0.03315031538157074 -0.1822103416282137 -0.9827005891897247
vn 0.022185582730906067 -0.16029751346560095 -0.9868193892985868
f 1/1/1 2/2/2 3/3/3
f 4/4/4 5/5/5 6/6/6
f 7/7/7 8/8/8 9/9/9
f 10/10/10 11/11/11 12/12/12
