mtllib ArcadaCompleta.mtl
o D85C_L
usemtl Esmalte
v -34.94559860229492 -44.56603145599365 -3.742990598544974
v -33.813499450683594 -44.28383159637451 -3.8403705214117947
v -33.691001892089844 -45.11192989349365 -3.875080690250296
v -34.94559860229492 -44.56603145599365 -3.742990598544974
v -33.691001892089844 -45.11192989349365 -3.875080690250296
v -34.94559860229492 -45.12523174285889 -4.031280622348684
v -34.94559860229492 -44.56603145599365 -3.742990598544974
v -35.26100158691406 -44.13833141326904 -3.1913105105017605
v -34.9370002746582 -44.453829765319824 -3.193080530033011
v -34.94559860229492 -46.42113399505615 -3.9374204729651403
v -36.11869812011719 -46.42113399505615 -3.9596406077002477
v -36.26070022583008 -45.10543346405029 -4.035990819797415
v -34.94559860229492 -46.42113399505615 -3.9374204729651403
v -36.26070022583008 -45.10543346405029 -4.035990819797415
v -34.94559860229492 -45.12523174285889 -4.031280622348684
v -34.9370002746582 -44.453829765319824 -3.193080530033011
v -34.612998962402344 -44.13833141326904 -3.1913105105017605
v -34.94559860229492 -44.56603145599365 -3.742990598544974
v -34.94559860229492 -45.12523174285889 -4.031280622348684
v -36.26070022583008 -45.10543346405029 -4.035990819797415
v -36.09920120239258 -44.267130851745605 -3.743430480823416
v -34.94559860229492 -45.12523174285889 -4.031280622348684
v -36.09920120239258 -44.267130851745605 -3.743430480823416
v -34.94559860229492 -44.56603145599365 -3.742990598544974
v -34.94559860229492 -45.12523174285889 -4.031280622348684
v -33.691001892089844 -45.11192989349365 -3.875080690250296
v -33.772499084472656 -46.42113399505615 -3.914360627994437
v -34.94559860229492 -45.12523174285889 -4.031280622348684
v -33.772499084472656 -46.42113399505615 -3.914360627994437
v -34.94559860229492 -46.42113399505615 -3.9374204729651403
v -33.813499450683594 -44.28383159637451 -3.8403705214117947
v -34.94559860229492 -44.56603145599365 -3.742990598544974
v -34.612998962402344 -44.13833141326904 -3.1913105105017605
v -33.813499450683594 -44.28383159637451 -3.8403705214117947
v -34.612998962402344 -44.13833141326904 -3.1913105105017605
v -33.894901275634766 -43.91903209686279 -3.24332056985845
v -36.11869812011719 -46.42113399505615 -3.9596406077002477
v -34.94559860229492 -46.42113399505615 -3.9374204729651403
v -34.94559860229492 -47.61133098602295 -3.683410510883231
v -36.11869812011719 -46.42113399505615 -3.9596406077002477
v -34.94559860229492 -47.61133098602295 -3.683410510883231
v -36.06549835205078 -47.61133098602295 -3.7530406569098425
v -35.919700622558594 -43.92582988739014 -3.1679905508612576
v -35.26100158691406 -44.13833141326904 -3.1913105105017605
v -34.94559860229492 -44.56603145599365 -3.742990598544974
v -35.919700622558594 -43.92582988739014 -3.1679905508612576
v -34.94559860229492 -44.56603145599365 -3.742990598544974
v -36.09920120239258 -44.267130851745605 -3.743430480823416
v -33.825599670410156 -47.61133098602295 -3.7530406569098425
v -34.94559860229492 -47.61133098602295 -3.683410510883231
v -34.94559860229492 -46.42113399505615 -3.9374204729651403
v -33.825599670410156 -47.61133098602295 -3.7530406569098425
v -34.94559860229492 -46.42113399505615 -3.9374204729651403
v -33.772499084472656 -46.42113399505615 -3.914360627994437
vt 0.5010150074958801 0.820921003818512
vt 0.3863990008831024 0.8719490170478821
vt 0.37399500608444214 0.7222200036048889
vt 0.5010150074958801 0.820921003818512
vt 0.37399500608444214 0.7222200036048889
vt 0.5010150074958801 0.7198100090026855
vt 0.4989849925041199 0.9627140164375305
vt 0.46705299615859985 0.893451988697052
vt 0.4998520016670227 0.8936750292778015
vt 0.5010150074958801 0.485493004322052
vt 0.6197810173034668 0.485493004322052
vt 0.6341639757156372 0.7233930230140686
vt 0.5010150074958801 0.485493004322052
vt 0.6341639757156372 0.7233930230140686
vt 0.5010150074958801 0.7198100090026855
vt 0.4998520016670227 0.8936750292778015
vt 0.5326510071754456 0.893451988697052
vt 0.4989849925041199 0.9627140164375305
vt 0.5010150074958801 0.7198100090026855
vt 0.6341639757156372 0.7233930230140686
vt 0.6178100109100342 0.8749750256538391
vt 0.5010150074958801 0.7198100090026855
vt 0.6178100109100342 0.8749750256538391
vt 0.5010150074958801 0.820921003818512
vt 0.5010150074958801 0.7198100090026855
vt 0.37399500608444214 0.7222200036048889
vt 0.38225001096725464 0.485493004322052
vt 0.5010150074958801 0.7198100090026855
vt 0.38225001096725464 0.485493004322052
vt 0.5010150074958801 0.485493004322052
vt 0.61360102891922 0.9749400019645691
vt 0.4989849925041199 0.9627140164375305
vt 0.5326510071754456 0.893451988697052
vt 0.61360102891922 0.9749400019645691
vt 0.5326510071754456 0.893451988697052
vt 0.6053619980812073 0.8999829888343811
vt 0.6197810173034668 0.485493004322052
vt 0.5010150074958801 0.485493004322052
vt 0.5010150074958801 0.27029502391815186
vt 0.6197810173034668 0.485493004322052
vt 0.5010150074958801 0.27029502391815186
vt 0.614404022693634 0.27029502391815186
vt 0.40036600828170776 0.8905249834060669
vt 0.46705299615859985 0.893451988697052
vt 0.4989849925041199 0.9627140164375305
vt 0.40036600828170776 0.8905249834060669
vt 0.4989849925041199 0.9627140164375305
vt 0.3821899890899658 0.9627699851989746
vt 0.3876270055770874 0.27029502391815186
vt 0.5010150074958801 0.27029502391815186
vt 0.5010150074958801 0.485493004322052
vt 0.3876270055770874 0.27029502391815186
vt 0.5010150074958801 0.485493004322052
vt 0.38225001096725464 0.485493004322052
vn 0.03661178475764705 0.6242237177695 -0.7803872932018329
vn -0.21568200961187373 0.5464153157775694 -0.8092660708404146
vn 0.05885520682568164 0.12711905050966066 -0.9901397939821572
vn 0.03661178475764705 0.6242237177695 -0.7803872932018329
vn 0.05885520682568164 0.12711905050966066 -0.9901397939821572
vn 0.056586443389401296 0.11936381995779828 -0.9912367289954609
vn 0.03661178475764705 0.6242237177695 -0.7803872932018329
vn 0.4285901705504905 0.8161029664499101 -0.38766791698457387
vn 0 0.9798127349690383 -0.19991749396311678
vn 0.003837191086853614 -0.12197003686208016 -0.992526365429365
vn 0.03208472778133336 -0.14173207407956032 -0.9893849551212632
vn 0.009919928501075018 0.039967339919263926 -0.999151743609704
vn 0.003837191086853614 -0.12197003686208016 -0.992526365429365
vn 0.009919928501075018 0.039967339919263926 -0.999151743609704
vn 0.056586443389401296 0.11936381995779828 -0.9912367289954609
vn 0 0.9798127349690383 -0.19991749396311678
vn -0.33935153864104123 0.8211719956553695 -0.45882141054372744
vn 0.03661178475764705 0.6242237177695 -0.7803872932018329
vn 0.056586443389401296 0.11936381995779828 -0.9912367289954609
vn 0.009919928501075018 0.039967339919263926 -0.999151743609704
vn 0.10282282896110452 0.5289745135211089 -0.8423855589274674
vn 0.056586443389401296 0.11936381995779828 -0.9912367289954609
vn 0.10282282896110452 0.5289745135211089 -0.8423855589274674
vn 0.03661178475764705 0.6242237177695 -0.7803872932018329
vn 0.056586443389401296 0.11936381995779828 -0.9912367289954609
vn 0.05885520682568164 0.12711905050966066 -0.9901397939821572
vn 0.05714072377443862 -0.057735820282576934 -0.996695295836612
vn 0.056586443389401296 0.11936381995779828 -0.9912367289954609
vn 0.05714072377443862 -0.057735820282576934 -0.996695295836612
vn 0.003837191086853614 -0.12197003686208016 -0.992526365429365
vn -0.21568200961187373 0.5464153157775694 -0.8092660708404146
vn 0.03661178475764705 0.6242237177695 -0.7803872932018329
vn -0.33935153864104123 0.8211719956553695 -0.45882141054372744
vn -0.21568200961187373 0.5464153157775694 -0.8092660708404146
vn -0.33935153864104123 0.8211719956553695 -0.45882141054372744
vn -0.28280461449788885 0.8008517549283862 -0.527880684100891
vn 0.03208472778133336 -0.14173207407956032 -0.9893849551212632
vn 0.003837191086853614 -0.12197003686208016 -0.992526365429365
vn 0.0063845747216441685 -0.19558022651228635 -0.9806669221519744
vn 0.03208472778133336 -0.14173207407956032 -0.9893849551212632
vn 0.0063845747216441685 -0.19558022651228635 -0.9806669221519744
vn 0.06117296272964011 -0.1680518701631308 -0.983878263590345
vn 0.2239655300591163 0.8174303984007113 -0.5307042350648743
vn 0.4285901705504905 0.8161029664499101 -0.38766791698457387
vn 0.03661178475764705 0.6242237177695 -0.7803872932018329
vn 0.2239655300591163 0.8174303984007113 -0.5307042350648743
vn 0.03661178475764705 0.6242237177695 -0.7803872932018329
vn 0.10282282896110452 0.5289745135211089 -0.8423855589274674
vn -0.02000417933210125 -0.17141529814668868 -0.9849957504327269
vn 0.0063845747216441685 -0.19558022651228635 -0.9806669221519744
vn 0.003837191086853614 -0.12197003686208016 -0.992526365429365
vn -0.02000417933210125 -0.17141529814668868 -0.9849957504327269
vn 0.003837191086853614 -0.12197003686208016 -0.992526365429365
vn 0.05714072377443862 -0.057735820282576934 -0.996695295836612
f 1/1/1 2/2/2 3/3/3
f 4/4/4 5/5/5 6/6/6
f 7/7/7 8/8/8 9/9/9
f 10/10/10 11/11/11 12/12/12
f 13/13/13 14/14/14 15/15/15
f 16/16/16 17/17/17 18/18/18
f 19/19/19 20/20/20 21/21/21
f 22/22/22 23/23/23 24/24/24
f 25/25/25 26/26/26 27/27/27
f 28/28/28 29/29/29 30/30/30
f 31/31/31 32/32/32 33/33/33
f 34/34/34 35/35/35 36/36/36
f 37/37/37 38/38/38 39/39/39
f 40/40/40 41/41/41 42/42/42
f 43/43/43 44/44/44 45/45/45
f 46/46/46 47/47/47 48/48/48
f 49/49/49 50/50/50 51/51/51
f 52/52/52 53/53/53 54/54/54
